G04 #@! TF.GenerationSoftware,KiCad,Pcbnew,(5.1.4)-1*
G04 #@! TF.CreationDate,2022-02-09T09:53:17-03:00*
G04 #@! TF.ProjectId,PLC_ESP32,504c435f-4553-4503-9332-2e6b69636164,rev?*
G04 #@! TF.SameCoordinates,Original*
G04 #@! TF.FileFunction,Legend,Top*
G04 #@! TF.FilePolarity,Positive*
%FSLAX46Y46*%
G04 Gerber Fmt 4.6, Leading zero omitted, Abs format (unit mm)*
G04 Created by KiCad (PCBNEW (5.1.4)-1) date 2022-02-09 09:53:17*
%MOMM*%
%LPD*%
G04 APERTURE LIST*
%ADD10C,0.250000*%
%ADD11C,0.150000*%
%ADD12C,0.175000*%
%ADD13C,0.125000*%
%ADD14C,0.300000*%
%ADD15C,0.120000*%
G04 APERTURE END LIST*
D10*
X106190476Y-127338095D02*
X106190476Y-126038095D01*
X106571428Y-126038095D01*
X106666666Y-126100000D01*
X106714285Y-126161904D01*
X106761904Y-126285714D01*
X106761904Y-126471428D01*
X106714285Y-126595238D01*
X106666666Y-126657142D01*
X106571428Y-126719047D01*
X106190476Y-126719047D01*
X107380952Y-126038095D02*
X107571428Y-126038095D01*
X107666666Y-126100000D01*
X107761904Y-126223809D01*
X107809523Y-126471428D01*
X107809523Y-126904761D01*
X107761904Y-127152380D01*
X107666666Y-127276190D01*
X107571428Y-127338095D01*
X107380952Y-127338095D01*
X107285714Y-127276190D01*
X107190476Y-127152380D01*
X107142857Y-126904761D01*
X107142857Y-126471428D01*
X107190476Y-126223809D01*
X107285714Y-126100000D01*
X107380952Y-126038095D01*
X108142857Y-126038095D02*
X108380952Y-127338095D01*
X108571428Y-126409523D01*
X108761904Y-127338095D01*
X109000000Y-126038095D01*
X109380952Y-126657142D02*
X109714285Y-126657142D01*
X109857142Y-127338095D02*
X109380952Y-127338095D01*
X109380952Y-126038095D01*
X109857142Y-126038095D01*
X110857142Y-127338095D02*
X110523809Y-126719047D01*
X110285714Y-127338095D02*
X110285714Y-126038095D01*
X110666666Y-126038095D01*
X110761904Y-126100000D01*
X110809523Y-126161904D01*
X110857142Y-126285714D01*
X110857142Y-126471428D01*
X110809523Y-126595238D01*
X110761904Y-126657142D01*
X110666666Y-126719047D01*
X110285714Y-126719047D01*
X155014285Y-164678571D02*
X155014285Y-163178571D01*
X155252380Y-163178571D01*
X155395238Y-163250000D01*
X155490476Y-163392857D01*
X155538095Y-163535714D01*
X155585714Y-163821428D01*
X155585714Y-164035714D01*
X155538095Y-164321428D01*
X155490476Y-164464285D01*
X155395238Y-164607142D01*
X155252380Y-164678571D01*
X155014285Y-164678571D01*
X155966666Y-164250000D02*
X156442857Y-164250000D01*
X155871428Y-164678571D02*
X156204761Y-163178571D01*
X156538095Y-164678571D01*
X157442857Y-164535714D02*
X157395238Y-164607142D01*
X157252380Y-164678571D01*
X157157142Y-164678571D01*
X157014285Y-164607142D01*
X156919047Y-164464285D01*
X156871428Y-164321428D01*
X156823809Y-164035714D01*
X156823809Y-163821428D01*
X156871428Y-163535714D01*
X156919047Y-163392857D01*
X157014285Y-163250000D01*
X157157142Y-163178571D01*
X157252380Y-163178571D01*
X157395238Y-163250000D01*
X157442857Y-163321428D01*
X158061904Y-163178571D02*
X158157142Y-163178571D01*
X158252380Y-163250000D01*
X158300000Y-163321428D01*
X158347619Y-163464285D01*
X158395238Y-163750000D01*
X158395238Y-164107142D01*
X158347619Y-164392857D01*
X158300000Y-164535714D01*
X158252380Y-164607142D01*
X158157142Y-164678571D01*
X158061904Y-164678571D01*
X157966666Y-164607142D01*
X157919047Y-164535714D01*
X157871428Y-164392857D01*
X157823809Y-164107142D01*
X157823809Y-163750000D01*
X157871428Y-163464285D01*
X157919047Y-163321428D01*
X157966666Y-163250000D01*
X158061904Y-163178571D01*
X158823809Y-164535714D02*
X158871428Y-164607142D01*
X158823809Y-164678571D01*
X158776190Y-164607142D01*
X158823809Y-164535714D01*
X158823809Y-164678571D01*
X159490476Y-163178571D02*
X159585714Y-163178571D01*
X159680952Y-163250000D01*
X159728571Y-163321428D01*
X159776190Y-163464285D01*
X159823809Y-163750000D01*
X159823809Y-164107142D01*
X159776190Y-164392857D01*
X159728571Y-164535714D01*
X159680952Y-164607142D01*
X159585714Y-164678571D01*
X159490476Y-164678571D01*
X159395238Y-164607142D01*
X159347619Y-164535714D01*
X159300000Y-164392857D01*
X159252380Y-164107142D01*
X159252380Y-163750000D01*
X159300000Y-163464285D01*
X159347619Y-163321428D01*
X159395238Y-163250000D01*
X159490476Y-163178571D01*
X161014285Y-164678571D02*
X161014285Y-163178571D01*
X161252380Y-163178571D01*
X161395238Y-163250000D01*
X161490476Y-163392857D01*
X161538095Y-163535714D01*
X161585714Y-163821428D01*
X161585714Y-164035714D01*
X161538095Y-164321428D01*
X161490476Y-164464285D01*
X161395238Y-164607142D01*
X161252380Y-164678571D01*
X161014285Y-164678571D01*
X161966666Y-164250000D02*
X162442857Y-164250000D01*
X161871428Y-164678571D02*
X162204761Y-163178571D01*
X162538095Y-164678571D01*
X163442857Y-164535714D02*
X163395238Y-164607142D01*
X163252380Y-164678571D01*
X163157142Y-164678571D01*
X163014285Y-164607142D01*
X162919047Y-164464285D01*
X162871428Y-164321428D01*
X162823809Y-164035714D01*
X162823809Y-163821428D01*
X162871428Y-163535714D01*
X162919047Y-163392857D01*
X163014285Y-163250000D01*
X163157142Y-163178571D01*
X163252380Y-163178571D01*
X163395238Y-163250000D01*
X163442857Y-163321428D01*
X164061904Y-163178571D02*
X164157142Y-163178571D01*
X164252380Y-163250000D01*
X164300000Y-163321428D01*
X164347619Y-163464285D01*
X164395238Y-163750000D01*
X164395238Y-164107142D01*
X164347619Y-164392857D01*
X164300000Y-164535714D01*
X164252380Y-164607142D01*
X164157142Y-164678571D01*
X164061904Y-164678571D01*
X163966666Y-164607142D01*
X163919047Y-164535714D01*
X163871428Y-164392857D01*
X163823809Y-164107142D01*
X163823809Y-163750000D01*
X163871428Y-163464285D01*
X163919047Y-163321428D01*
X163966666Y-163250000D01*
X164061904Y-163178571D01*
X164823809Y-164535714D02*
X164871428Y-164607142D01*
X164823809Y-164678571D01*
X164776190Y-164607142D01*
X164823809Y-164535714D01*
X164823809Y-164678571D01*
X165823809Y-164678571D02*
X165252380Y-164678571D01*
X165538095Y-164678571D02*
X165538095Y-163178571D01*
X165442857Y-163392857D01*
X165347619Y-163535714D01*
X165252380Y-163607142D01*
X167538095Y-163250000D02*
X167442857Y-163178571D01*
X167300000Y-163178571D01*
X167157142Y-163250000D01*
X167061904Y-163392857D01*
X167014285Y-163535714D01*
X166966666Y-163821428D01*
X166966666Y-164035714D01*
X167014285Y-164321428D01*
X167061904Y-164464285D01*
X167157142Y-164607142D01*
X167300000Y-164678571D01*
X167395238Y-164678571D01*
X167538095Y-164607142D01*
X167585714Y-164535714D01*
X167585714Y-164035714D01*
X167395238Y-164035714D01*
X168014285Y-164678571D02*
X168014285Y-163178571D01*
X168585714Y-164678571D01*
X168585714Y-163178571D01*
X169061904Y-164678571D02*
X169061904Y-163178571D01*
X169300000Y-163178571D01*
X169442857Y-163250000D01*
X169538095Y-163392857D01*
X169585714Y-163535714D01*
X169633333Y-163821428D01*
X169633333Y-164035714D01*
X169585714Y-164321428D01*
X169538095Y-164464285D01*
X169442857Y-164607142D01*
X169300000Y-164678571D01*
X169061904Y-164678571D01*
D11*
X162250000Y-113083333D02*
X162202380Y-113150000D01*
X162202380Y-113250000D01*
X162250000Y-113350000D01*
X162345238Y-113416666D01*
X162440476Y-113450000D01*
X162630952Y-113483333D01*
X162773809Y-113483333D01*
X162964285Y-113450000D01*
X163059523Y-113416666D01*
X163154761Y-113350000D01*
X163202380Y-113250000D01*
X163202380Y-113183333D01*
X163154761Y-113083333D01*
X163107142Y-113050000D01*
X162773809Y-113050000D01*
X162773809Y-113183333D01*
X163202380Y-112750000D02*
X162202380Y-112750000D01*
X163202380Y-112350000D01*
X162202380Y-112350000D01*
X163202380Y-112016666D02*
X162202380Y-112016666D01*
X162202380Y-111850000D01*
X162250000Y-111750000D01*
X162345238Y-111683333D01*
X162440476Y-111650000D01*
X162630952Y-111616666D01*
X162773809Y-111616666D01*
X162964285Y-111650000D01*
X163059523Y-111683333D01*
X163154761Y-111750000D01*
X163202380Y-111850000D01*
X163202380Y-112016666D01*
X163535714Y-111150000D02*
X162107142Y-111150000D01*
X163202380Y-110650000D02*
X162202380Y-110650000D01*
X162202380Y-110183333D02*
X162202380Y-110116666D01*
X162250000Y-110050000D01*
X162297619Y-110016666D01*
X162392857Y-109983333D01*
X162583333Y-109950000D01*
X162821428Y-109950000D01*
X163011904Y-109983333D01*
X163107142Y-110016666D01*
X163154761Y-110050000D01*
X163202380Y-110116666D01*
X163202380Y-110183333D01*
X163154761Y-110250000D01*
X163107142Y-110283333D01*
X163011904Y-110316666D01*
X162821428Y-110350000D01*
X162583333Y-110350000D01*
X162392857Y-110316666D01*
X162297619Y-110283333D01*
X162250000Y-110250000D01*
X162202380Y-110183333D01*
X162297619Y-109683333D02*
X162250000Y-109650000D01*
X162202380Y-109583333D01*
X162202380Y-109416666D01*
X162250000Y-109350000D01*
X162297619Y-109316666D01*
X162392857Y-109283333D01*
X162488095Y-109283333D01*
X162630952Y-109316666D01*
X163202380Y-109716666D01*
X163202380Y-109283333D01*
X163535714Y-108816666D02*
X162107142Y-108816666D01*
X162678571Y-108083333D02*
X162726190Y-107983333D01*
X162773809Y-107950000D01*
X162869047Y-107916666D01*
X163011904Y-107916666D01*
X163107142Y-107950000D01*
X163154761Y-107983333D01*
X163202380Y-108050000D01*
X163202380Y-108316666D01*
X162202380Y-108316666D01*
X162202380Y-108083333D01*
X162250000Y-108016666D01*
X162297619Y-107983333D01*
X162392857Y-107950000D01*
X162488095Y-107950000D01*
X162583333Y-107983333D01*
X162630952Y-108016666D01*
X162678571Y-108083333D01*
X162678571Y-108316666D01*
X162202380Y-107616666D02*
X163011904Y-107616666D01*
X163107142Y-107583333D01*
X163154761Y-107550000D01*
X163202380Y-107483333D01*
X163202380Y-107350000D01*
X163154761Y-107283333D01*
X163107142Y-107250000D01*
X163011904Y-107216666D01*
X162202380Y-107216666D01*
X162202380Y-106950000D02*
X162202380Y-106483333D01*
X163202380Y-106950000D01*
X163202380Y-106483333D01*
D12*
X158519047Y-65278571D02*
X158595238Y-65350000D01*
X158671428Y-65492857D01*
X158785714Y-65707142D01*
X158861904Y-65778571D01*
X158938095Y-65778571D01*
X158900000Y-65421428D02*
X158976190Y-65492857D01*
X159052380Y-65635714D01*
X159090476Y-65921428D01*
X159090476Y-66421428D01*
X159052380Y-66707142D01*
X158976190Y-66850000D01*
X158900000Y-66921428D01*
X158747619Y-66921428D01*
X158671428Y-66850000D01*
X158595238Y-66707142D01*
X158557142Y-66421428D01*
X158557142Y-65921428D01*
X158595238Y-65635714D01*
X158671428Y-65492857D01*
X158747619Y-65421428D01*
X158900000Y-65421428D01*
X158061904Y-66921428D02*
X157985714Y-66921428D01*
X157909523Y-66850000D01*
X157871428Y-66778571D01*
X157833333Y-66635714D01*
X157795238Y-66350000D01*
X157795238Y-65992857D01*
X157833333Y-65707142D01*
X157871428Y-65564285D01*
X157909523Y-65492857D01*
X157985714Y-65421428D01*
X158061904Y-65421428D01*
X158138095Y-65492857D01*
X158176190Y-65564285D01*
X158214285Y-65707142D01*
X158252380Y-65992857D01*
X158252380Y-66350000D01*
X158214285Y-66635714D01*
X158176190Y-66778571D01*
X158138095Y-66850000D01*
X158061904Y-66921428D01*
X157452380Y-65564285D02*
X157414285Y-65492857D01*
X157452380Y-65421428D01*
X157490476Y-65492857D01*
X157452380Y-65564285D01*
X157452380Y-65421428D01*
X157147619Y-66921428D02*
X156614285Y-66921428D01*
X156957142Y-65421428D01*
X153947619Y-65278571D02*
X154023809Y-65350000D01*
X154100000Y-65492857D01*
X154214285Y-65707142D01*
X154290476Y-65778571D01*
X154366666Y-65778571D01*
X154328571Y-65421428D02*
X154404761Y-65492857D01*
X154480952Y-65635714D01*
X154519047Y-65921428D01*
X154519047Y-66421428D01*
X154480952Y-66707142D01*
X154404761Y-66850000D01*
X154328571Y-66921428D01*
X154176190Y-66921428D01*
X154100000Y-66850000D01*
X154023809Y-66707142D01*
X153985714Y-66421428D01*
X153985714Y-65921428D01*
X154023809Y-65635714D01*
X154100000Y-65492857D01*
X154176190Y-65421428D01*
X154328571Y-65421428D01*
X153490476Y-66921428D02*
X153414285Y-66921428D01*
X153338095Y-66850000D01*
X153300000Y-66778571D01*
X153261904Y-66635714D01*
X153223809Y-66350000D01*
X153223809Y-65992857D01*
X153261904Y-65707142D01*
X153300000Y-65564285D01*
X153338095Y-65492857D01*
X153414285Y-65421428D01*
X153490476Y-65421428D01*
X153566666Y-65492857D01*
X153604761Y-65564285D01*
X153642857Y-65707142D01*
X153680952Y-65992857D01*
X153680952Y-66350000D01*
X153642857Y-66635714D01*
X153604761Y-66778571D01*
X153566666Y-66850000D01*
X153490476Y-66921428D01*
X152880952Y-65564285D02*
X152842857Y-65492857D01*
X152880952Y-65421428D01*
X152919047Y-65492857D01*
X152880952Y-65564285D01*
X152880952Y-65421428D01*
X152157142Y-66921428D02*
X152309523Y-66921428D01*
X152385714Y-66850000D01*
X152423809Y-66778571D01*
X152500000Y-66564285D01*
X152538095Y-66278571D01*
X152538095Y-65707142D01*
X152500000Y-65564285D01*
X152461904Y-65492857D01*
X152385714Y-65421428D01*
X152233333Y-65421428D01*
X152157142Y-65492857D01*
X152119047Y-65564285D01*
X152080952Y-65707142D01*
X152080952Y-66064285D01*
X152119047Y-66207142D01*
X152157142Y-66278571D01*
X152233333Y-66350000D01*
X152385714Y-66350000D01*
X152461904Y-66278571D01*
X152500000Y-66207142D01*
X152538095Y-66064285D01*
X149376190Y-65278571D02*
X149452380Y-65350000D01*
X149528571Y-65492857D01*
X149642857Y-65707142D01*
X149719047Y-65778571D01*
X149795238Y-65778571D01*
X149757142Y-65421428D02*
X149833333Y-65492857D01*
X149909523Y-65635714D01*
X149947619Y-65921428D01*
X149947619Y-66421428D01*
X149909523Y-66707142D01*
X149833333Y-66850000D01*
X149757142Y-66921428D01*
X149604761Y-66921428D01*
X149528571Y-66850000D01*
X149452380Y-66707142D01*
X149414285Y-66421428D01*
X149414285Y-65921428D01*
X149452380Y-65635714D01*
X149528571Y-65492857D01*
X149604761Y-65421428D01*
X149757142Y-65421428D01*
X148919047Y-66921428D02*
X148842857Y-66921428D01*
X148766666Y-66850000D01*
X148728571Y-66778571D01*
X148690476Y-66635714D01*
X148652380Y-66350000D01*
X148652380Y-65992857D01*
X148690476Y-65707142D01*
X148728571Y-65564285D01*
X148766666Y-65492857D01*
X148842857Y-65421428D01*
X148919047Y-65421428D01*
X148995238Y-65492857D01*
X149033333Y-65564285D01*
X149071428Y-65707142D01*
X149109523Y-65992857D01*
X149109523Y-66350000D01*
X149071428Y-66635714D01*
X149033333Y-66778571D01*
X148995238Y-66850000D01*
X148919047Y-66921428D01*
X148309523Y-65564285D02*
X148271428Y-65492857D01*
X148309523Y-65421428D01*
X148347619Y-65492857D01*
X148309523Y-65564285D01*
X148309523Y-65421428D01*
X147547619Y-66921428D02*
X147928571Y-66921428D01*
X147966666Y-66207142D01*
X147928571Y-66278571D01*
X147852380Y-66350000D01*
X147661904Y-66350000D01*
X147585714Y-66278571D01*
X147547619Y-66207142D01*
X147509523Y-66064285D01*
X147509523Y-65707142D01*
X147547619Y-65564285D01*
X147585714Y-65492857D01*
X147661904Y-65421428D01*
X147852380Y-65421428D01*
X147928571Y-65492857D01*
X147966666Y-65564285D01*
X143333333Y-65278571D02*
X143409523Y-65350000D01*
X143485714Y-65492857D01*
X143600000Y-65707142D01*
X143676190Y-65778571D01*
X143752380Y-65778571D01*
X143714285Y-65421428D02*
X143790476Y-65492857D01*
X143866666Y-65635714D01*
X143904761Y-65921428D01*
X143904761Y-66421428D01*
X143866666Y-66707142D01*
X143790476Y-66850000D01*
X143714285Y-66921428D01*
X143561904Y-66921428D01*
X143485714Y-66850000D01*
X143409523Y-66707142D01*
X143371428Y-66421428D01*
X143371428Y-65921428D01*
X143409523Y-65635714D01*
X143485714Y-65492857D01*
X143561904Y-65421428D01*
X143714285Y-65421428D01*
X142876190Y-66921428D02*
X142800000Y-66921428D01*
X142723809Y-66850000D01*
X142685714Y-66778571D01*
X142647619Y-66635714D01*
X142609523Y-66350000D01*
X142609523Y-65992857D01*
X142647619Y-65707142D01*
X142685714Y-65564285D01*
X142723809Y-65492857D01*
X142800000Y-65421428D01*
X142876190Y-65421428D01*
X142952380Y-65492857D01*
X142990476Y-65564285D01*
X143028571Y-65707142D01*
X143066666Y-65992857D01*
X143066666Y-66350000D01*
X143028571Y-66635714D01*
X142990476Y-66778571D01*
X142952380Y-66850000D01*
X142876190Y-66921428D01*
X142266666Y-65564285D02*
X142228571Y-65492857D01*
X142266666Y-65421428D01*
X142304761Y-65492857D01*
X142266666Y-65564285D01*
X142266666Y-65421428D01*
X141542857Y-66421428D02*
X141542857Y-65421428D01*
X141733333Y-66992857D02*
X141923809Y-65921428D01*
X141428571Y-65921428D01*
X138761904Y-65278571D02*
X138838095Y-65350000D01*
X138914285Y-65492857D01*
X139028571Y-65707142D01*
X139104761Y-65778571D01*
X139180952Y-65778571D01*
X139142857Y-65421428D02*
X139219047Y-65492857D01*
X139295238Y-65635714D01*
X139333333Y-65921428D01*
X139333333Y-66421428D01*
X139295238Y-66707142D01*
X139219047Y-66850000D01*
X139142857Y-66921428D01*
X138990476Y-66921428D01*
X138914285Y-66850000D01*
X138838095Y-66707142D01*
X138800000Y-66421428D01*
X138800000Y-65921428D01*
X138838095Y-65635714D01*
X138914285Y-65492857D01*
X138990476Y-65421428D01*
X139142857Y-65421428D01*
X138304761Y-66921428D02*
X138228571Y-66921428D01*
X138152380Y-66850000D01*
X138114285Y-66778571D01*
X138076190Y-66635714D01*
X138038095Y-66350000D01*
X138038095Y-65992857D01*
X138076190Y-65707142D01*
X138114285Y-65564285D01*
X138152380Y-65492857D01*
X138228571Y-65421428D01*
X138304761Y-65421428D01*
X138380952Y-65492857D01*
X138419047Y-65564285D01*
X138457142Y-65707142D01*
X138495238Y-65992857D01*
X138495238Y-66350000D01*
X138457142Y-66635714D01*
X138419047Y-66778571D01*
X138380952Y-66850000D01*
X138304761Y-66921428D01*
X137695238Y-65564285D02*
X137657142Y-65492857D01*
X137695238Y-65421428D01*
X137733333Y-65492857D01*
X137695238Y-65564285D01*
X137695238Y-65421428D01*
X137390476Y-66921428D02*
X136895238Y-66921428D01*
X137161904Y-66350000D01*
X137047619Y-66350000D01*
X136971428Y-66278571D01*
X136933333Y-66207142D01*
X136895238Y-66064285D01*
X136895238Y-65707142D01*
X136933333Y-65564285D01*
X136971428Y-65492857D01*
X137047619Y-65421428D01*
X137276190Y-65421428D01*
X137352380Y-65492857D01*
X137390476Y-65564285D01*
X134266666Y-65564285D02*
X134304761Y-65492857D01*
X134419047Y-65421428D01*
X134495238Y-65421428D01*
X134609523Y-65492857D01*
X134685714Y-65635714D01*
X134723809Y-65778571D01*
X134761904Y-66064285D01*
X134761904Y-66278571D01*
X134723809Y-66564285D01*
X134685714Y-66707142D01*
X134609523Y-66850000D01*
X134495238Y-66921428D01*
X134419047Y-66921428D01*
X134304761Y-66850000D01*
X134266666Y-66778571D01*
X133771428Y-66921428D02*
X133619047Y-66921428D01*
X133542857Y-66850000D01*
X133466666Y-66707142D01*
X133428571Y-66421428D01*
X133428571Y-65921428D01*
X133466666Y-65635714D01*
X133542857Y-65492857D01*
X133619047Y-65421428D01*
X133771428Y-65421428D01*
X133847619Y-65492857D01*
X133923809Y-65635714D01*
X133961904Y-65921428D01*
X133961904Y-66421428D01*
X133923809Y-66707142D01*
X133847619Y-66850000D01*
X133771428Y-66921428D01*
X133085714Y-65421428D02*
X133085714Y-66921428D01*
X132819047Y-65850000D01*
X132552380Y-66921428D01*
X132552380Y-65421428D01*
X132361904Y-65278571D02*
X131752380Y-65278571D01*
X131676190Y-66921428D02*
X131219047Y-66921428D01*
X131447619Y-65421428D02*
X131447619Y-66921428D01*
X128309523Y-65278571D02*
X128385714Y-65350000D01*
X128461904Y-65492857D01*
X128576190Y-65707142D01*
X128652380Y-65778571D01*
X128728571Y-65778571D01*
X128690476Y-65421428D02*
X128766666Y-65492857D01*
X128842857Y-65635714D01*
X128880952Y-65921428D01*
X128880952Y-66421428D01*
X128842857Y-66707142D01*
X128766666Y-66850000D01*
X128690476Y-66921428D01*
X128538095Y-66921428D01*
X128461904Y-66850000D01*
X128385714Y-66707142D01*
X128347619Y-66421428D01*
X128347619Y-65921428D01*
X128385714Y-65635714D01*
X128461904Y-65492857D01*
X128538095Y-65421428D01*
X128690476Y-65421428D01*
X127852380Y-66921428D02*
X127776190Y-66921428D01*
X127700000Y-66850000D01*
X127661904Y-66778571D01*
X127623809Y-66635714D01*
X127585714Y-66350000D01*
X127585714Y-65992857D01*
X127623809Y-65707142D01*
X127661904Y-65564285D01*
X127700000Y-65492857D01*
X127776190Y-65421428D01*
X127852380Y-65421428D01*
X127928571Y-65492857D01*
X127966666Y-65564285D01*
X128004761Y-65707142D01*
X128042857Y-65992857D01*
X128042857Y-66350000D01*
X128004761Y-66635714D01*
X127966666Y-66778571D01*
X127928571Y-66850000D01*
X127852380Y-66921428D01*
X127242857Y-65564285D02*
X127204761Y-65492857D01*
X127242857Y-65421428D01*
X127280952Y-65492857D01*
X127242857Y-65564285D01*
X127242857Y-65421428D01*
X126900000Y-66778571D02*
X126861904Y-66850000D01*
X126785714Y-66921428D01*
X126595238Y-66921428D01*
X126519047Y-66850000D01*
X126480952Y-66778571D01*
X126442857Y-66635714D01*
X126442857Y-66492857D01*
X126480952Y-66278571D01*
X126938095Y-65421428D01*
X126442857Y-65421428D01*
X123814285Y-65564285D02*
X123852380Y-65492857D01*
X123966666Y-65421428D01*
X124042857Y-65421428D01*
X124157142Y-65492857D01*
X124233333Y-65635714D01*
X124271428Y-65778571D01*
X124309523Y-66064285D01*
X124309523Y-66278571D01*
X124271428Y-66564285D01*
X124233333Y-66707142D01*
X124157142Y-66850000D01*
X124042857Y-66921428D01*
X123966666Y-66921428D01*
X123852380Y-66850000D01*
X123814285Y-66778571D01*
X123319047Y-66921428D02*
X123166666Y-66921428D01*
X123090476Y-66850000D01*
X123014285Y-66707142D01*
X122976190Y-66421428D01*
X122976190Y-65921428D01*
X123014285Y-65635714D01*
X123090476Y-65492857D01*
X123166666Y-65421428D01*
X123319047Y-65421428D01*
X123395238Y-65492857D01*
X123471428Y-65635714D01*
X123509523Y-65921428D01*
X123509523Y-66421428D01*
X123471428Y-66707142D01*
X123395238Y-66850000D01*
X123319047Y-66921428D01*
X122633333Y-65421428D02*
X122633333Y-66921428D01*
X122366666Y-65850000D01*
X122100000Y-66921428D01*
X122100000Y-65421428D01*
X121909523Y-65278571D02*
X121300000Y-65278571D01*
X120652380Y-65421428D02*
X120919047Y-66135714D01*
X121109523Y-65421428D02*
X121109523Y-66921428D01*
X120804761Y-66921428D01*
X120728571Y-66850000D01*
X120690476Y-66778571D01*
X120652380Y-66635714D01*
X120652380Y-66421428D01*
X120690476Y-66278571D01*
X120728571Y-66207142D01*
X120804761Y-66135714D01*
X121109523Y-66135714D01*
X120347619Y-66778571D02*
X120309523Y-66850000D01*
X120233333Y-66921428D01*
X120042857Y-66921428D01*
X119966666Y-66850000D01*
X119928571Y-66778571D01*
X119890476Y-66635714D01*
X119890476Y-66492857D01*
X119928571Y-66278571D01*
X120385714Y-65421428D01*
X119890476Y-65421428D01*
X117185714Y-65278571D02*
X117261904Y-65350000D01*
X117338095Y-65492857D01*
X117452380Y-65707142D01*
X117528571Y-65778571D01*
X117604761Y-65778571D01*
X117566666Y-65421428D02*
X117642857Y-65492857D01*
X117719047Y-65635714D01*
X117757142Y-65921428D01*
X117757142Y-66421428D01*
X117719047Y-66707142D01*
X117642857Y-66850000D01*
X117566666Y-66921428D01*
X117414285Y-66921428D01*
X117338095Y-66850000D01*
X117261904Y-66707142D01*
X117223809Y-66421428D01*
X117223809Y-65921428D01*
X117261904Y-65635714D01*
X117338095Y-65492857D01*
X117414285Y-65421428D01*
X117566666Y-65421428D01*
X116728571Y-66921428D02*
X116652380Y-66921428D01*
X116576190Y-66850000D01*
X116538095Y-66778571D01*
X116500000Y-66635714D01*
X116461904Y-66350000D01*
X116461904Y-65992857D01*
X116500000Y-65707142D01*
X116538095Y-65564285D01*
X116576190Y-65492857D01*
X116652380Y-65421428D01*
X116728571Y-65421428D01*
X116804761Y-65492857D01*
X116842857Y-65564285D01*
X116880952Y-65707142D01*
X116919047Y-65992857D01*
X116919047Y-66350000D01*
X116880952Y-66635714D01*
X116842857Y-66778571D01*
X116804761Y-66850000D01*
X116728571Y-66921428D01*
X116119047Y-65564285D02*
X116080952Y-65492857D01*
X116119047Y-65421428D01*
X116157142Y-65492857D01*
X116119047Y-65564285D01*
X116119047Y-65421428D01*
X115319047Y-65421428D02*
X115776190Y-65421428D01*
X115547619Y-65421428D02*
X115547619Y-66921428D01*
X115623809Y-66707142D01*
X115700000Y-66564285D01*
X115776190Y-66492857D01*
X112757142Y-65664285D02*
X112795238Y-65592857D01*
X112909523Y-65521428D01*
X112985714Y-65521428D01*
X113100000Y-65592857D01*
X113176190Y-65735714D01*
X113214285Y-65878571D01*
X113252380Y-66164285D01*
X113252380Y-66378571D01*
X113214285Y-66664285D01*
X113176190Y-66807142D01*
X113100000Y-66950000D01*
X112985714Y-67021428D01*
X112909523Y-67021428D01*
X112795238Y-66950000D01*
X112757142Y-66878571D01*
X112261904Y-67021428D02*
X112109523Y-67021428D01*
X112033333Y-66950000D01*
X111957142Y-66807142D01*
X111919047Y-66521428D01*
X111919047Y-66021428D01*
X111957142Y-65735714D01*
X112033333Y-65592857D01*
X112109523Y-65521428D01*
X112261904Y-65521428D01*
X112338095Y-65592857D01*
X112414285Y-65735714D01*
X112452380Y-66021428D01*
X112452380Y-66521428D01*
X112414285Y-66807142D01*
X112338095Y-66950000D01*
X112261904Y-67021428D01*
X111576190Y-65521428D02*
X111576190Y-67021428D01*
X111309523Y-65950000D01*
X111042857Y-67021428D01*
X111042857Y-65521428D01*
X109595238Y-65521428D02*
X109861904Y-66235714D01*
X110052380Y-65521428D02*
X110052380Y-67021428D01*
X109747619Y-67021428D01*
X109671428Y-66950000D01*
X109633333Y-66878571D01*
X109595238Y-66735714D01*
X109595238Y-66521428D01*
X109633333Y-66378571D01*
X109671428Y-66307142D01*
X109747619Y-66235714D01*
X110052380Y-66235714D01*
X108833333Y-65521428D02*
X109290476Y-65521428D01*
X109061904Y-65521428D02*
X109061904Y-67021428D01*
X109138095Y-66807142D01*
X109214285Y-66664285D01*
X109290476Y-66592857D01*
X107347619Y-65378571D02*
X107423809Y-65450000D01*
X107500000Y-65592857D01*
X107614285Y-65807142D01*
X107690476Y-65878571D01*
X107766666Y-65878571D01*
X107728571Y-65521428D02*
X107804761Y-65592857D01*
X107880952Y-65735714D01*
X107919047Y-66021428D01*
X107919047Y-66521428D01*
X107880952Y-66807142D01*
X107804761Y-66950000D01*
X107728571Y-67021428D01*
X107576190Y-67021428D01*
X107500000Y-66950000D01*
X107423809Y-66807142D01*
X107385714Y-66521428D01*
X107385714Y-66021428D01*
X107423809Y-65735714D01*
X107500000Y-65592857D01*
X107576190Y-65521428D01*
X107728571Y-65521428D01*
X106890476Y-67021428D02*
X106814285Y-67021428D01*
X106738095Y-66950000D01*
X106700000Y-66878571D01*
X106661904Y-66735714D01*
X106623809Y-66450000D01*
X106623809Y-66092857D01*
X106661904Y-65807142D01*
X106700000Y-65664285D01*
X106738095Y-65592857D01*
X106814285Y-65521428D01*
X106890476Y-65521428D01*
X106966666Y-65592857D01*
X107004761Y-65664285D01*
X107042857Y-65807142D01*
X107080952Y-66092857D01*
X107080952Y-66450000D01*
X107042857Y-66735714D01*
X107004761Y-66878571D01*
X106966666Y-66950000D01*
X106890476Y-67021428D01*
X106280952Y-65664285D02*
X106242857Y-65592857D01*
X106280952Y-65521428D01*
X106319047Y-65592857D01*
X106280952Y-65664285D01*
X106280952Y-65521428D01*
X105747619Y-67021428D02*
X105671428Y-67021428D01*
X105595238Y-66950000D01*
X105557142Y-66878571D01*
X105519047Y-66735714D01*
X105480952Y-66450000D01*
X105480952Y-66092857D01*
X105519047Y-65807142D01*
X105557142Y-65664285D01*
X105595238Y-65592857D01*
X105671428Y-65521428D01*
X105747619Y-65521428D01*
X105823809Y-65592857D01*
X105861904Y-65664285D01*
X105900000Y-65807142D01*
X105938095Y-66092857D01*
X105938095Y-66450000D01*
X105900000Y-66735714D01*
X105861904Y-66878571D01*
X105823809Y-66950000D01*
X105747619Y-67021428D01*
X104071428Y-65664285D02*
X104109523Y-65592857D01*
X104223809Y-65521428D01*
X104300000Y-65521428D01*
X104414285Y-65592857D01*
X104490476Y-65735714D01*
X104528571Y-65878571D01*
X104566666Y-66164285D01*
X104566666Y-66378571D01*
X104528571Y-66664285D01*
X104490476Y-66807142D01*
X104414285Y-66950000D01*
X104300000Y-67021428D01*
X104223809Y-67021428D01*
X104109523Y-66950000D01*
X104071428Y-66878571D01*
X103576190Y-67021428D02*
X103423809Y-67021428D01*
X103347619Y-66950000D01*
X103271428Y-66807142D01*
X103233333Y-66521428D01*
X103233333Y-66021428D01*
X103271428Y-65735714D01*
X103347619Y-65592857D01*
X103423809Y-65521428D01*
X103576190Y-65521428D01*
X103652380Y-65592857D01*
X103728571Y-65735714D01*
X103766666Y-66021428D01*
X103766666Y-66521428D01*
X103728571Y-66807142D01*
X103652380Y-66950000D01*
X103576190Y-67021428D01*
X102890476Y-65521428D02*
X102890476Y-67021428D01*
X102623809Y-65950000D01*
X102357142Y-67021428D01*
X102357142Y-65521428D01*
X102166666Y-65378571D02*
X101557142Y-65378571D01*
X100909523Y-65521428D02*
X101176190Y-66235714D01*
X101366666Y-65521428D02*
X101366666Y-67021428D01*
X101061904Y-67021428D01*
X100985714Y-66950000D01*
X100947619Y-66878571D01*
X100909523Y-66735714D01*
X100909523Y-66521428D01*
X100947619Y-66378571D01*
X100985714Y-66307142D01*
X101061904Y-66235714D01*
X101366666Y-66235714D01*
X100414285Y-67021428D02*
X100338095Y-67021428D01*
X100261904Y-66950000D01*
X100223809Y-66878571D01*
X100185714Y-66735714D01*
X100147619Y-66450000D01*
X100147619Y-66092857D01*
X100185714Y-65807142D01*
X100223809Y-65664285D01*
X100261904Y-65592857D01*
X100338095Y-65521428D01*
X100414285Y-65521428D01*
X100490476Y-65592857D01*
X100528571Y-65664285D01*
X100566666Y-65807142D01*
X100604761Y-66092857D01*
X100604761Y-66450000D01*
X100566666Y-66735714D01*
X100528571Y-66878571D01*
X100490476Y-66950000D01*
X100414285Y-67021428D01*
D13*
X179452380Y-153500000D02*
X178452380Y-153500000D01*
X179166666Y-153300000D01*
X178452380Y-153100000D01*
X179452380Y-153100000D01*
X179452380Y-152500000D02*
X179452380Y-152842857D01*
X179452380Y-152671428D02*
X178452380Y-152671428D01*
X178595238Y-152728571D01*
X178690476Y-152785714D01*
X178738095Y-152842857D01*
X179357142Y-151442857D02*
X179404761Y-151471428D01*
X179452380Y-151557142D01*
X179452380Y-151614285D01*
X179404761Y-151700000D01*
X179309523Y-151757142D01*
X179214285Y-151785714D01*
X179023809Y-151814285D01*
X178880952Y-151814285D01*
X178690476Y-151785714D01*
X178595238Y-151757142D01*
X178500000Y-151700000D01*
X178452380Y-151614285D01*
X178452380Y-151557142D01*
X178500000Y-151471428D01*
X178547619Y-151442857D01*
X178452380Y-151071428D02*
X178452380Y-150957142D01*
X178500000Y-150900000D01*
X178595238Y-150842857D01*
X178785714Y-150814285D01*
X179119047Y-150814285D01*
X179309523Y-150842857D01*
X179404761Y-150900000D01*
X179452380Y-150957142D01*
X179452380Y-151071428D01*
X179404761Y-151128571D01*
X179309523Y-151185714D01*
X179119047Y-151214285D01*
X178785714Y-151214285D01*
X178595238Y-151185714D01*
X178500000Y-151128571D01*
X178452380Y-151071428D01*
X179452380Y-150557142D02*
X178452380Y-150557142D01*
X179166666Y-150357142D01*
X178452380Y-150157142D01*
X179452380Y-150157142D01*
X179547619Y-150014285D02*
X179547619Y-149557142D01*
X179452380Y-149414285D02*
X178452380Y-149414285D01*
X179452380Y-149128571D02*
X178452380Y-149128571D01*
X179452380Y-148785714D01*
X178452380Y-148785714D01*
X178500000Y-147728571D02*
X178452380Y-147785714D01*
X178452380Y-147871428D01*
X178500000Y-147957142D01*
X178595238Y-148014285D01*
X178690476Y-148042857D01*
X178880952Y-148071428D01*
X179023809Y-148071428D01*
X179214285Y-148042857D01*
X179309523Y-148014285D01*
X179404761Y-147957142D01*
X179452380Y-147871428D01*
X179452380Y-147814285D01*
X179404761Y-147728571D01*
X179357142Y-147700000D01*
X179023809Y-147700000D01*
X179023809Y-147814285D01*
X179452380Y-147442857D02*
X178452380Y-147442857D01*
X179452380Y-147100000D01*
X178452380Y-147100000D01*
X179452380Y-146814285D02*
X178452380Y-146814285D01*
X178452380Y-146671428D01*
X178500000Y-146585714D01*
X178595238Y-146528571D01*
X178690476Y-146500000D01*
X178880952Y-146471428D01*
X179023809Y-146471428D01*
X179214285Y-146500000D01*
X179309523Y-146528571D01*
X179404761Y-146585714D01*
X179452380Y-146671428D01*
X179452380Y-146814285D01*
D14*
X142742857Y-164250000D02*
X143361904Y-164250000D01*
X142619047Y-164678571D02*
X143052380Y-163178571D01*
X143485714Y-164678571D01*
X144166666Y-163178571D02*
X144290476Y-163178571D01*
X144414285Y-163250000D01*
X144476190Y-163321428D01*
X144538095Y-163464285D01*
X144600000Y-163750000D01*
X144600000Y-164107142D01*
X144538095Y-164392857D01*
X144476190Y-164535714D01*
X144414285Y-164607142D01*
X144290476Y-164678571D01*
X144166666Y-164678571D01*
X144042857Y-164607142D01*
X143980952Y-164535714D01*
X143919047Y-164392857D01*
X143857142Y-164107142D01*
X143857142Y-163750000D01*
X143919047Y-163464285D01*
X143980952Y-163321428D01*
X144042857Y-163250000D01*
X144166666Y-163178571D01*
X145157142Y-164535714D02*
X145219047Y-164607142D01*
X145157142Y-164678571D01*
X145095238Y-164607142D01*
X145157142Y-164535714D01*
X145157142Y-164678571D01*
X146023809Y-163178571D02*
X146147619Y-163178571D01*
X146271428Y-163250000D01*
X146333333Y-163321428D01*
X146395238Y-163464285D01*
X146457142Y-163750000D01*
X146457142Y-164107142D01*
X146395238Y-164392857D01*
X146333333Y-164535714D01*
X146271428Y-164607142D01*
X146147619Y-164678571D01*
X146023809Y-164678571D01*
X145900000Y-164607142D01*
X145838095Y-164535714D01*
X145776190Y-164392857D01*
X145714285Y-164107142D01*
X145714285Y-163750000D01*
X145776190Y-163464285D01*
X145838095Y-163321428D01*
X145900000Y-163250000D01*
X146023809Y-163178571D01*
X147942857Y-164250000D02*
X148561904Y-164250000D01*
X147819047Y-164678571D02*
X148252380Y-163178571D01*
X148685714Y-164678571D01*
X149119047Y-164535714D02*
X149180952Y-164607142D01*
X149119047Y-164678571D01*
X149057142Y-164607142D01*
X149119047Y-164535714D01*
X149119047Y-164678571D01*
X149985714Y-163178571D02*
X150109523Y-163178571D01*
X150233333Y-163250000D01*
X150295238Y-163321428D01*
X150357142Y-163464285D01*
X150419047Y-163750000D01*
X150419047Y-164107142D01*
X150357142Y-164392857D01*
X150295238Y-164535714D01*
X150233333Y-164607142D01*
X150109523Y-164678571D01*
X149985714Y-164678571D01*
X149861904Y-164607142D01*
X149800000Y-164535714D01*
X149738095Y-164392857D01*
X149676190Y-164107142D01*
X149676190Y-163750000D01*
X149738095Y-163464285D01*
X149800000Y-163321428D01*
X149861904Y-163250000D01*
X149985714Y-163178571D01*
X151657142Y-164678571D02*
X150914285Y-164678571D01*
X151285714Y-164678571D02*
X151285714Y-163178571D01*
X151161904Y-163392857D01*
X151038095Y-163535714D01*
X150914285Y-163607142D01*
X132000000Y-164678571D02*
X132000000Y-163178571D01*
X133000000Y-163178571D02*
X133142857Y-163178571D01*
X133285714Y-163250000D01*
X133357142Y-163321428D01*
X133428571Y-163464285D01*
X133500000Y-163750000D01*
X133500000Y-164107142D01*
X133428571Y-164392857D01*
X133357142Y-164535714D01*
X133285714Y-164607142D01*
X133142857Y-164678571D01*
X133000000Y-164678571D01*
X132857142Y-164607142D01*
X132785714Y-164535714D01*
X132714285Y-164392857D01*
X132642857Y-164107142D01*
X132642857Y-163750000D01*
X132714285Y-163464285D01*
X132785714Y-163321428D01*
X132857142Y-163250000D01*
X133000000Y-163178571D01*
X134142857Y-164535714D02*
X134214285Y-164607142D01*
X134142857Y-164678571D01*
X134071428Y-164607142D01*
X134142857Y-164535714D01*
X134142857Y-164678571D01*
X134785714Y-163321428D02*
X134857142Y-163250000D01*
X135000000Y-163178571D01*
X135357142Y-163178571D01*
X135500000Y-163250000D01*
X135571428Y-163321428D01*
X135642857Y-163464285D01*
X135642857Y-163607142D01*
X135571428Y-163821428D01*
X134714285Y-164678571D01*
X135642857Y-164678571D01*
X137428571Y-164678571D02*
X137428571Y-163178571D01*
X138428571Y-163178571D02*
X138571428Y-163178571D01*
X138714285Y-163250000D01*
X138785714Y-163321428D01*
X138857142Y-163464285D01*
X138928571Y-163750000D01*
X138928571Y-164107142D01*
X138857142Y-164392857D01*
X138785714Y-164535714D01*
X138714285Y-164607142D01*
X138571428Y-164678571D01*
X138428571Y-164678571D01*
X138285714Y-164607142D01*
X138214285Y-164535714D01*
X138142857Y-164392857D01*
X138071428Y-164107142D01*
X138071428Y-163750000D01*
X138142857Y-163464285D01*
X138214285Y-163321428D01*
X138285714Y-163250000D01*
X138428571Y-163178571D01*
X139571428Y-164535714D02*
X139642857Y-164607142D01*
X139571428Y-164678571D01*
X139500000Y-164607142D01*
X139571428Y-164535714D01*
X139571428Y-164678571D01*
X140142857Y-163178571D02*
X141071428Y-163178571D01*
X140571428Y-163750000D01*
X140785714Y-163750000D01*
X140928571Y-163821428D01*
X141000000Y-163892857D01*
X141071428Y-164035714D01*
X141071428Y-164392857D01*
X141000000Y-164535714D01*
X140928571Y-164607142D01*
X140785714Y-164678571D01*
X140357142Y-164678571D01*
X140214285Y-164607142D01*
X140142857Y-164535714D01*
X117057142Y-164678571D02*
X117057142Y-163178571D01*
X117557142Y-164250000D01*
X118057142Y-163178571D01*
X118057142Y-164678571D01*
X119557142Y-164678571D02*
X118700000Y-164678571D01*
X119128571Y-164678571D02*
X119128571Y-163178571D01*
X118985714Y-163392857D01*
X118842857Y-163535714D01*
X118700000Y-163607142D01*
X121342857Y-164678571D02*
X121342857Y-163178571D01*
X122342857Y-163178571D02*
X122485714Y-163178571D01*
X122628571Y-163250000D01*
X122700000Y-163321428D01*
X122771428Y-163464285D01*
X122842857Y-163750000D01*
X122842857Y-164107142D01*
X122771428Y-164392857D01*
X122700000Y-164535714D01*
X122628571Y-164607142D01*
X122485714Y-164678571D01*
X122342857Y-164678571D01*
X122200000Y-164607142D01*
X122128571Y-164535714D01*
X122057142Y-164392857D01*
X121985714Y-164107142D01*
X121985714Y-163750000D01*
X122057142Y-163464285D01*
X122128571Y-163321428D01*
X122200000Y-163250000D01*
X122342857Y-163178571D01*
X123485714Y-164535714D02*
X123557142Y-164607142D01*
X123485714Y-164678571D01*
X123414285Y-164607142D01*
X123485714Y-164535714D01*
X123485714Y-164678571D01*
X124485714Y-163178571D02*
X124628571Y-163178571D01*
X124771428Y-163250000D01*
X124842857Y-163321428D01*
X124914285Y-163464285D01*
X124985714Y-163750000D01*
X124985714Y-164107142D01*
X124914285Y-164392857D01*
X124842857Y-164535714D01*
X124771428Y-164607142D01*
X124628571Y-164678571D01*
X124485714Y-164678571D01*
X124342857Y-164607142D01*
X124271428Y-164535714D01*
X124200000Y-164392857D01*
X124128571Y-164107142D01*
X124128571Y-163750000D01*
X124200000Y-163464285D01*
X124271428Y-163321428D01*
X124342857Y-163250000D01*
X124485714Y-163178571D01*
X126771428Y-164678571D02*
X126771428Y-163178571D01*
X127771428Y-163178571D02*
X127914285Y-163178571D01*
X128057142Y-163250000D01*
X128128571Y-163321428D01*
X128200000Y-163464285D01*
X128271428Y-163750000D01*
X128271428Y-164107142D01*
X128200000Y-164392857D01*
X128128571Y-164535714D01*
X128057142Y-164607142D01*
X127914285Y-164678571D01*
X127771428Y-164678571D01*
X127628571Y-164607142D01*
X127557142Y-164535714D01*
X127485714Y-164392857D01*
X127414285Y-164107142D01*
X127414285Y-163750000D01*
X127485714Y-163464285D01*
X127557142Y-163321428D01*
X127628571Y-163250000D01*
X127771428Y-163178571D01*
X128914285Y-164535714D02*
X128985714Y-164607142D01*
X128914285Y-164678571D01*
X128842857Y-164607142D01*
X128914285Y-164535714D01*
X128914285Y-164678571D01*
X130414285Y-164678571D02*
X129557142Y-164678571D01*
X129985714Y-164678571D02*
X129985714Y-163178571D01*
X129842857Y-163392857D01*
X129700000Y-163535714D01*
X129557142Y-163607142D01*
X98414285Y-163321428D02*
X98485714Y-163250000D01*
X98628571Y-163178571D01*
X98985714Y-163178571D01*
X99128571Y-163250000D01*
X99200000Y-163321428D01*
X99271428Y-163464285D01*
X99271428Y-163607142D01*
X99200000Y-163821428D01*
X98342857Y-164678571D01*
X99271428Y-164678571D01*
X100557142Y-163678571D02*
X100557142Y-164678571D01*
X100200000Y-163107142D02*
X99842857Y-164178571D01*
X100771428Y-164178571D01*
X101128571Y-163178571D02*
X101628571Y-164678571D01*
X102128571Y-163178571D01*
X104557142Y-164678571D02*
X103700000Y-164678571D01*
X104128571Y-164678571D02*
X104128571Y-163178571D01*
X103985714Y-163392857D01*
X103842857Y-163535714D01*
X103700000Y-163607142D01*
X105485714Y-163178571D02*
X105628571Y-163178571D01*
X105771428Y-163250000D01*
X105842857Y-163321428D01*
X105914285Y-163464285D01*
X105985714Y-163750000D01*
X105985714Y-164107142D01*
X105914285Y-164392857D01*
X105842857Y-164535714D01*
X105771428Y-164607142D01*
X105628571Y-164678571D01*
X105485714Y-164678571D01*
X105342857Y-164607142D01*
X105271428Y-164535714D01*
X105200000Y-164392857D01*
X105128571Y-164107142D01*
X105128571Y-163750000D01*
X105200000Y-163464285D01*
X105271428Y-163321428D01*
X105342857Y-163250000D01*
X105485714Y-163178571D01*
X106414285Y-163178571D02*
X106914285Y-164678571D01*
X107414285Y-163178571D01*
X109842857Y-163250000D02*
X109700000Y-163178571D01*
X109485714Y-163178571D01*
X109271428Y-163250000D01*
X109128571Y-163392857D01*
X109057142Y-163535714D01*
X108985714Y-163821428D01*
X108985714Y-164035714D01*
X109057142Y-164321428D01*
X109128571Y-164464285D01*
X109271428Y-164607142D01*
X109485714Y-164678571D01*
X109628571Y-164678571D01*
X109842857Y-164607142D01*
X109914285Y-164535714D01*
X109914285Y-164035714D01*
X109628571Y-164035714D01*
X110557142Y-164678571D02*
X110557142Y-163178571D01*
X111414285Y-164678571D01*
X111414285Y-163178571D01*
X112128571Y-164678571D02*
X112128571Y-163178571D01*
X112485714Y-163178571D01*
X112700000Y-163250000D01*
X112842857Y-163392857D01*
X112914285Y-163535714D01*
X112985714Y-163821428D01*
X112985714Y-164035714D01*
X112914285Y-164321428D01*
X112842857Y-164464285D01*
X112700000Y-164607142D01*
X112485714Y-164678571D01*
X112128571Y-164678571D01*
X88157142Y-163321428D02*
X88228571Y-163250000D01*
X88371428Y-163178571D01*
X88728571Y-163178571D01*
X88871428Y-163250000D01*
X88942857Y-163321428D01*
X89014285Y-163464285D01*
X89014285Y-163607142D01*
X88942857Y-163821428D01*
X88085714Y-164678571D01*
X89014285Y-164678571D01*
X90300000Y-163678571D02*
X90300000Y-164678571D01*
X89942857Y-163107142D02*
X89585714Y-164178571D01*
X90514285Y-164178571D01*
X90871428Y-163178571D02*
X91371428Y-164678571D01*
X91871428Y-163178571D01*
X94300000Y-163250000D02*
X94157142Y-163178571D01*
X93942857Y-163178571D01*
X93728571Y-163250000D01*
X93585714Y-163392857D01*
X93514285Y-163535714D01*
X93442857Y-163821428D01*
X93442857Y-164035714D01*
X93514285Y-164321428D01*
X93585714Y-164464285D01*
X93728571Y-164607142D01*
X93942857Y-164678571D01*
X94085714Y-164678571D01*
X94300000Y-164607142D01*
X94371428Y-164535714D01*
X94371428Y-164035714D01*
X94085714Y-164035714D01*
X95014285Y-164678571D02*
X95014285Y-163178571D01*
X95871428Y-164678571D01*
X95871428Y-163178571D01*
X96585714Y-164678571D02*
X96585714Y-163178571D01*
X96942857Y-163178571D01*
X97157142Y-163250000D01*
X97300000Y-163392857D01*
X97371428Y-163535714D01*
X97442857Y-163821428D01*
X97442857Y-164035714D01*
X97371428Y-164321428D01*
X97300000Y-164464285D01*
X97157142Y-164607142D01*
X96942857Y-164678571D01*
X96585714Y-164678571D01*
X82464285Y-111892857D02*
X82678571Y-111964285D01*
X82750000Y-112035714D01*
X82821428Y-112178571D01*
X82821428Y-112392857D01*
X82750000Y-112535714D01*
X82678571Y-112607142D01*
X82535714Y-112678571D01*
X81964285Y-112678571D01*
X81964285Y-111178571D01*
X82464285Y-111178571D01*
X82607142Y-111250000D01*
X82678571Y-111321428D01*
X82750000Y-111464285D01*
X82750000Y-111607142D01*
X82678571Y-111750000D01*
X82607142Y-111821428D01*
X82464285Y-111892857D01*
X81964285Y-111892857D01*
X83750000Y-111178571D02*
X84035714Y-111178571D01*
X84178571Y-111250000D01*
X84321428Y-111392857D01*
X84392857Y-111678571D01*
X84392857Y-112178571D01*
X84321428Y-112464285D01*
X84178571Y-112607142D01*
X84035714Y-112678571D01*
X83750000Y-112678571D01*
X83607142Y-112607142D01*
X83464285Y-112464285D01*
X83392857Y-112178571D01*
X83392857Y-111678571D01*
X83464285Y-111392857D01*
X83607142Y-111250000D01*
X83750000Y-111178571D01*
X85321428Y-111178571D02*
X85607142Y-111178571D01*
X85750000Y-111250000D01*
X85892857Y-111392857D01*
X85964285Y-111678571D01*
X85964285Y-112178571D01*
X85892857Y-112464285D01*
X85750000Y-112607142D01*
X85607142Y-112678571D01*
X85321428Y-112678571D01*
X85178571Y-112607142D01*
X85035714Y-112464285D01*
X84964285Y-112178571D01*
X84964285Y-111678571D01*
X85035714Y-111392857D01*
X85178571Y-111250000D01*
X85321428Y-111178571D01*
X86392857Y-111178571D02*
X87250000Y-111178571D01*
X86821428Y-112678571D02*
X86821428Y-111178571D01*
X92500000Y-112678571D02*
X92500000Y-111178571D01*
X93500000Y-111178571D02*
X93785714Y-111178571D01*
X93928571Y-111250000D01*
X94071428Y-111392857D01*
X94142857Y-111678571D01*
X94142857Y-112178571D01*
X94071428Y-112464285D01*
X93928571Y-112607142D01*
X93785714Y-112678571D01*
X93500000Y-112678571D01*
X93357142Y-112607142D01*
X93214285Y-112464285D01*
X93142857Y-112178571D01*
X93142857Y-111678571D01*
X93214285Y-111392857D01*
X93357142Y-111250000D01*
X93500000Y-111178571D01*
X95071428Y-111178571D02*
X95214285Y-111178571D01*
X95357142Y-111250000D01*
X95428571Y-111321428D01*
X95500000Y-111464285D01*
X95571428Y-111750000D01*
X95571428Y-112107142D01*
X95500000Y-112392857D01*
X95428571Y-112535714D01*
X95357142Y-112607142D01*
X95214285Y-112678571D01*
X95071428Y-112678571D01*
X94928571Y-112607142D01*
X94857142Y-112535714D01*
X94785714Y-112392857D01*
X94714285Y-112107142D01*
X94714285Y-111750000D01*
X94785714Y-111464285D01*
X94857142Y-111321428D01*
X94928571Y-111250000D01*
X95071428Y-111178571D01*
D11*
X168675000Y-127475000D02*
X167325000Y-127475000D01*
X168675000Y-130625000D02*
X173325000Y-130625000D01*
X168675000Y-127375000D02*
X173325000Y-127375000D01*
X168675000Y-130625000D02*
X168675000Y-130425000D01*
X173325000Y-130625000D02*
X173325000Y-130425000D01*
X173325000Y-127375000D02*
X173325000Y-127575000D01*
X168675000Y-127375000D02*
X168675000Y-127475000D01*
D15*
X168000000Y-133600000D02*
X168000000Y-136400000D01*
X168000000Y-136400000D02*
X166000000Y-136400000D01*
X166000000Y-136400000D02*
X166000000Y-133600000D01*
X166000000Y-133600000D02*
X168000000Y-133600000D01*
X165500000Y-133600000D02*
X165500000Y-136400000D01*
X165500000Y-136400000D02*
X163500000Y-136400000D01*
X163500000Y-136400000D02*
X163500000Y-133600000D01*
X163500000Y-133600000D02*
X165500000Y-133600000D01*
X163000000Y-133600000D02*
X163000000Y-136400000D01*
X163000000Y-136400000D02*
X161000000Y-136400000D01*
X161000000Y-136400000D02*
X161000000Y-133600000D01*
X161000000Y-133600000D02*
X163000000Y-133600000D01*
X112741422Y-135210000D02*
X113258578Y-135210000D01*
X112741422Y-133790000D02*
X113258578Y-133790000D01*
X112741422Y-131710000D02*
X113258578Y-131710000D01*
X112741422Y-130290000D02*
X113258578Y-130290000D01*
X112741422Y-128210000D02*
X113258578Y-128210000D01*
X112741422Y-126790000D02*
X113258578Y-126790000D01*
X112741422Y-124710000D02*
X113258578Y-124710000D01*
X112741422Y-123290000D02*
X113258578Y-123290000D01*
X110420000Y-116345000D02*
X109955000Y-116345000D01*
X113045000Y-116345000D02*
X112580000Y-116345000D01*
X110419571Y-121159479D02*
G75*
G02X110420000Y-116650316I1080429J2254479D01*
G01*
X112580429Y-121159479D02*
G75*
G03X112580000Y-116650316I-1080429J2254479D01*
G01*
X110419173Y-121692815D02*
G75*
G02X109955170Y-116345000I1080827J2787815D01*
G01*
X112580827Y-121692815D02*
G75*
G03X113044830Y-116345000I-1080827J2787815D01*
G01*
X89650000Y-139600000D02*
X89650000Y-145000000D01*
X86350000Y-139600000D02*
X86350000Y-145000000D01*
X89650000Y-139600000D02*
X86350000Y-139600000D01*
X94650000Y-139600000D02*
X94650000Y-145000000D01*
X91350000Y-139600000D02*
X91350000Y-145000000D01*
X94650000Y-139600000D02*
X91350000Y-139600000D01*
X118600000Y-99350000D02*
X124000000Y-99350000D01*
X118600000Y-102650000D02*
X124000000Y-102650000D01*
X118600000Y-99350000D02*
X118600000Y-102650000D01*
X100600000Y-99350000D02*
X106000000Y-99350000D01*
X100600000Y-102650000D02*
X106000000Y-102650000D01*
X100600000Y-99350000D02*
X100600000Y-102650000D01*
X85100000Y-99350000D02*
X90500000Y-99350000D01*
X85100000Y-102650000D02*
X90500000Y-102650000D01*
X85100000Y-99350000D02*
X85100000Y-102650000D01*
X108741422Y-138710000D02*
X109258578Y-138710000D01*
X108741422Y-137290000D02*
X109258578Y-137290000D01*
X166580000Y-113830000D02*
X165250000Y-113830000D01*
X166580000Y-112500000D02*
X166580000Y-113830000D01*
X166580000Y-111230000D02*
X163920000Y-111230000D01*
X163920000Y-111230000D02*
X163920000Y-106090000D01*
X166580000Y-111230000D02*
X166580000Y-106090000D01*
X166580000Y-106090000D02*
X163920000Y-106090000D01*
X111360000Y-147970000D02*
X111360000Y-145030000D01*
X111120000Y-147970000D02*
X111120000Y-145030000D01*
X111240000Y-147970000D02*
X111240000Y-145030000D01*
X105680000Y-146500000D02*
X106700000Y-146500000D01*
X113160000Y-146500000D02*
X112140000Y-146500000D01*
X106700000Y-147970000D02*
X112140000Y-147970000D01*
X106700000Y-145030000D02*
X106700000Y-147970000D01*
X112140000Y-145030000D02*
X106700000Y-145030000D01*
X112140000Y-147970000D02*
X112140000Y-145030000D01*
X123350000Y-87550000D02*
X123350000Y-91550000D01*
X119750000Y-87550000D02*
X123350000Y-87550000D01*
X119750000Y-91550000D02*
X119750000Y-87550000D01*
X123350000Y-91550000D02*
X119750000Y-91550000D01*
X123350000Y-87550000D02*
X119750000Y-91550000D01*
X123350000Y-89550000D02*
X127550000Y-89550000D01*
X115550000Y-89550000D02*
X119750000Y-89550000D01*
X121550000Y-92950000D02*
X125150000Y-92950000D01*
X121550000Y-86150000D02*
X125150000Y-86150000D01*
X125150000Y-86150000D02*
X125150000Y-92950000D01*
X121550000Y-84650000D02*
X119050000Y-80050000D01*
X121550000Y-86150000D02*
X121550000Y-84650000D01*
X115550000Y-89550000D02*
X115550000Y-92050000D01*
X121550000Y-92950000D02*
X121550000Y-93750000D01*
X127550000Y-92050000D02*
X127550000Y-89550000D01*
X117300000Y-81450000D02*
X119800000Y-81450000D01*
X125700000Y-81450000D02*
X123250000Y-81450000D01*
X129300000Y-77200000D02*
X129300000Y-97000000D01*
X113700000Y-77200000D02*
X129300000Y-77200000D01*
X113700000Y-97000000D02*
X113700000Y-77200000D01*
X113700000Y-97000000D02*
X120300000Y-97000000D01*
X122700000Y-97000000D02*
X129300000Y-97000000D01*
X105580000Y-136240000D02*
X105580000Y-137700000D01*
X102420000Y-136240000D02*
X102420000Y-138400000D01*
X102420000Y-136240000D02*
X103350000Y-136240000D01*
X105580000Y-136240000D02*
X104650000Y-136240000D01*
X105580000Y-131240000D02*
X105580000Y-132700000D01*
X102420000Y-131240000D02*
X102420000Y-133400000D01*
X102420000Y-131240000D02*
X103350000Y-131240000D01*
X105580000Y-131240000D02*
X104650000Y-131240000D01*
X110185000Y-123290000D02*
X107500000Y-123290000D01*
X110185000Y-125210000D02*
X110185000Y-123290000D01*
X107500000Y-125210000D02*
X110185000Y-125210000D01*
X137190000Y-111210000D02*
X139875000Y-111210000D01*
X137190000Y-109290000D02*
X137190000Y-111210000D01*
X139875000Y-109290000D02*
X137190000Y-109290000D01*
X133640000Y-111260000D02*
X136325000Y-111260000D01*
X133640000Y-109340000D02*
X133640000Y-111260000D01*
X136325000Y-109340000D02*
X133640000Y-109340000D01*
X130080000Y-111280000D02*
X132765000Y-111280000D01*
X130080000Y-109360000D02*
X130080000Y-111280000D01*
X132765000Y-109360000D02*
X130080000Y-109360000D01*
X126540000Y-111310000D02*
X129225000Y-111310000D01*
X126540000Y-109390000D02*
X126540000Y-111310000D01*
X129225000Y-109390000D02*
X126540000Y-109390000D01*
X129380000Y-150500000D02*
X130150000Y-150500000D01*
X137460000Y-150500000D02*
X136690000Y-150500000D01*
X130150000Y-151870000D02*
X136690000Y-151870000D01*
X130150000Y-149130000D02*
X130150000Y-151870000D01*
X136690000Y-149130000D02*
X130150000Y-149130000D01*
X136690000Y-151870000D02*
X136690000Y-149130000D01*
X152100000Y-117200000D02*
X179500000Y-117200000D01*
X179500000Y-117200000D02*
X179500000Y-144500000D01*
X179500000Y-144500000D02*
X152100000Y-144500000D01*
X152100000Y-144500000D02*
X152100000Y-117200000D01*
X175622000Y-137095000D02*
X152522000Y-137095000D01*
X152522000Y-137095000D02*
X152522000Y-120495000D01*
X152522000Y-120495000D02*
X175622000Y-120495000D01*
X160801000Y-117689000D02*
X170580000Y-117689000D01*
X170580000Y-117689000D02*
X170580000Y-120102000D01*
X170580000Y-120102000D02*
X160801000Y-120102000D01*
X160801000Y-117689000D02*
X160801000Y-120102000D01*
X175622000Y-120495000D02*
X178708000Y-120495000D01*
X175622000Y-137095000D02*
X178962000Y-137120000D01*
X178962000Y-137120000D02*
X178962000Y-120483000D01*
X178962000Y-120483000D02*
X178708000Y-120495000D01*
X168500000Y-145940000D02*
X165050000Y-145940000D01*
X168500000Y-145940000D02*
X170450000Y-145940000D01*
X168500000Y-151060000D02*
X166550000Y-151060000D01*
X168500000Y-151060000D02*
X170450000Y-151060000D01*
X138670000Y-141190000D02*
X138670000Y-142440000D01*
X143870000Y-141190000D02*
X138670000Y-141190000D01*
X143870000Y-145690000D02*
X143870000Y-141190000D01*
X138670000Y-145690000D02*
X143870000Y-145690000D01*
X138670000Y-144440000D02*
X138670000Y-145690000D01*
X138670000Y-142440000D02*
G75*
G02X138670000Y-144440000I0J-1000000D01*
G01*
X132020000Y-141190000D02*
X132020000Y-142440000D01*
X137220000Y-141190000D02*
X132020000Y-141190000D01*
X137220000Y-145690000D02*
X137220000Y-141190000D01*
X132020000Y-145690000D02*
X137220000Y-145690000D01*
X132020000Y-144440000D02*
X132020000Y-145690000D01*
X132020000Y-142440000D02*
G75*
G02X132020000Y-144440000I0J-1000000D01*
G01*
X125520000Y-141190000D02*
X125520000Y-142440000D01*
X130720000Y-141190000D02*
X125520000Y-141190000D01*
X130720000Y-145690000D02*
X130720000Y-141190000D01*
X125520000Y-145690000D02*
X130720000Y-145690000D01*
X125520000Y-144440000D02*
X125520000Y-145690000D01*
X125520000Y-142440000D02*
G75*
G02X125520000Y-144440000I0J-1000000D01*
G01*
X118920000Y-141140000D02*
X118920000Y-142390000D01*
X124120000Y-141140000D02*
X118920000Y-141140000D01*
X124120000Y-145640000D02*
X124120000Y-141140000D01*
X118920000Y-145640000D02*
X124120000Y-145640000D01*
X118920000Y-144390000D02*
X118920000Y-145640000D01*
X118920000Y-142390000D02*
G75*
G02X118920000Y-144390000I0J-1000000D01*
G01*
X171170000Y-95640000D02*
X171170000Y-96890000D01*
X178910000Y-95640000D02*
X171170000Y-95640000D01*
X178910000Y-100140000D02*
X178910000Y-95640000D01*
X171170000Y-100140000D02*
X178910000Y-100140000D01*
X171170000Y-98890000D02*
X171170000Y-100140000D01*
X171170000Y-96890000D02*
G75*
G02X171170000Y-98890000I0J-1000000D01*
G01*
X162670000Y-95640000D02*
X162670000Y-96890000D01*
X170410000Y-95640000D02*
X162670000Y-95640000D01*
X170410000Y-100140000D02*
X170410000Y-95640000D01*
X162670000Y-100140000D02*
X170410000Y-100140000D01*
X162670000Y-98890000D02*
X162670000Y-100140000D01*
X162670000Y-96890000D02*
G75*
G02X162670000Y-98890000I0J-1000000D01*
G01*
X154170000Y-95640000D02*
X154170000Y-96890000D01*
X161910000Y-95640000D02*
X154170000Y-95640000D01*
X161910000Y-100140000D02*
X161910000Y-95640000D01*
X154170000Y-100140000D02*
X161910000Y-100140000D01*
X154170000Y-98890000D02*
X154170000Y-100140000D01*
X154170000Y-96890000D02*
G75*
G02X154170000Y-98890000I0J-1000000D01*
G01*
X145670000Y-95640000D02*
X145670000Y-96890000D01*
X153410000Y-95640000D02*
X145670000Y-95640000D01*
X153410000Y-100140000D02*
X153410000Y-95640000D01*
X145670000Y-100140000D02*
X153410000Y-100140000D01*
X145670000Y-98890000D02*
X145670000Y-100140000D01*
X145670000Y-96890000D02*
G75*
G02X145670000Y-98890000I0J-1000000D01*
G01*
X137170000Y-95640000D02*
X137170000Y-96890000D01*
X144910000Y-95640000D02*
X137170000Y-95640000D01*
X144910000Y-100140000D02*
X144910000Y-95640000D01*
X137170000Y-100140000D02*
X144910000Y-100140000D01*
X137170000Y-98890000D02*
X137170000Y-100140000D01*
X137170000Y-96890000D02*
G75*
G02X137170000Y-98890000I0J-1000000D01*
G01*
X110170000Y-106940000D02*
X110170000Y-108190000D01*
X115370000Y-106940000D02*
X110170000Y-106940000D01*
X115370000Y-111440000D02*
X115370000Y-106940000D01*
X110170000Y-111440000D02*
X115370000Y-111440000D01*
X110170000Y-110190000D02*
X110170000Y-111440000D01*
X110170000Y-108190000D02*
G75*
G02X110170000Y-110190000I0J-1000000D01*
G01*
X104520000Y-107040000D02*
X104520000Y-108290000D01*
X109720000Y-107040000D02*
X104520000Y-107040000D01*
X109720000Y-111540000D02*
X109720000Y-107040000D01*
X104520000Y-111540000D02*
X109720000Y-111540000D01*
X104520000Y-110290000D02*
X104520000Y-111540000D01*
X104520000Y-108290000D02*
G75*
G02X104520000Y-110290000I0J-1000000D01*
G01*
X98670000Y-107040000D02*
X98670000Y-108290000D01*
X103870000Y-107040000D02*
X98670000Y-107040000D01*
X103870000Y-111540000D02*
X103870000Y-107040000D01*
X98670000Y-111540000D02*
X103870000Y-111540000D01*
X98670000Y-110290000D02*
X98670000Y-111540000D01*
X98670000Y-108290000D02*
G75*
G02X98670000Y-110290000I0J-1000000D01*
G01*
X140445000Y-114380000D02*
X140445000Y-114000000D01*
X146865000Y-114380000D02*
X140445000Y-114380000D01*
X146865000Y-132620000D02*
X140445000Y-132620000D01*
X146865000Y-114380000D02*
X146865000Y-132620000D01*
X121120000Y-132620000D02*
X121120000Y-131620000D01*
X121900000Y-132620000D02*
X121120000Y-132620000D01*
X121120000Y-114380000D02*
X121120000Y-115380000D01*
X121900000Y-114380000D02*
X121120000Y-114380000D01*
X97615000Y-122890000D02*
X96890000Y-122890000D01*
X102110000Y-128110000D02*
X102110000Y-127385000D01*
X101385000Y-128110000D02*
X102110000Y-128110000D01*
X96890000Y-128110000D02*
X96890000Y-127385000D01*
X97615000Y-128110000D02*
X96890000Y-128110000D01*
X102110000Y-122890000D02*
X102110000Y-123615000D01*
X101385000Y-122890000D02*
X102110000Y-122890000D01*
X86400000Y-132090000D02*
X92410000Y-132090000D01*
X88650000Y-138910000D02*
X92410000Y-138910000D01*
X92410000Y-132090000D02*
X92410000Y-133350000D01*
X92410000Y-138910000D02*
X92410000Y-137650000D01*
X88250000Y-107500000D02*
X88250000Y-106000000D01*
X87000000Y-103500000D02*
X82500000Y-103500000D01*
X81250000Y-106000000D02*
X81250000Y-107500000D01*
X82500000Y-110000000D02*
X87000000Y-110000000D01*
X97500000Y-107500000D02*
X97500000Y-106000000D01*
X96250000Y-103500000D02*
X91750000Y-103500000D01*
X90500000Y-106000000D02*
X90500000Y-107500000D01*
X91750000Y-110000000D02*
X96250000Y-110000000D01*
X155241422Y-124210000D02*
X155758578Y-124210000D01*
X155241422Y-122790000D02*
X155758578Y-122790000D01*
X159741422Y-124210000D02*
X160258578Y-124210000D01*
X159741422Y-122790000D02*
X160258578Y-122790000D01*
X142380000Y-150500000D02*
X143150000Y-150500000D01*
X150460000Y-150500000D02*
X149690000Y-150500000D01*
X143150000Y-151870000D02*
X149690000Y-151870000D01*
X143150000Y-149130000D02*
X143150000Y-151870000D01*
X149690000Y-149130000D02*
X143150000Y-149130000D01*
X149690000Y-151870000D02*
X149690000Y-149130000D01*
X160798578Y-147710000D02*
X160281422Y-147710000D01*
X160798578Y-146290000D02*
X160281422Y-146290000D01*
X160241422Y-151210000D02*
X160758578Y-151210000D01*
X160241422Y-149790000D02*
X160758578Y-149790000D01*
X116380000Y-150500000D02*
X117150000Y-150500000D01*
X124460000Y-150500000D02*
X123690000Y-150500000D01*
X117150000Y-151870000D02*
X123690000Y-151870000D01*
X117150000Y-149130000D02*
X117150000Y-151870000D01*
X123690000Y-149130000D02*
X117150000Y-149130000D01*
X123690000Y-151870000D02*
X123690000Y-149130000D01*
X155721422Y-146290000D02*
X156238578Y-146290000D01*
X155721422Y-147710000D02*
X156238578Y-147710000D01*
X156258578Y-151210000D02*
X155741422Y-151210000D01*
X156258578Y-149790000D02*
X155741422Y-149790000D01*
X103380000Y-150550000D02*
X104150000Y-150550000D01*
X111460000Y-150550000D02*
X110690000Y-150550000D01*
X104150000Y-151920000D02*
X110690000Y-151920000D01*
X104150000Y-149180000D02*
X104150000Y-151920000D01*
X110690000Y-149180000D02*
X104150000Y-149180000D01*
X110690000Y-151920000D02*
X110690000Y-149180000D01*
X161600000Y-88020000D02*
X161600000Y-87250000D01*
X161600000Y-79940000D02*
X161600000Y-80710000D01*
X162970000Y-87250000D02*
X162970000Y-80710000D01*
X160230000Y-87250000D02*
X162970000Y-87250000D01*
X160230000Y-80710000D02*
X160230000Y-87250000D01*
X162970000Y-80710000D02*
X160230000Y-80710000D01*
X151625000Y-88120000D02*
X151625000Y-87350000D01*
X151625000Y-80040000D02*
X151625000Y-80810000D01*
X152995000Y-87350000D02*
X152995000Y-80810000D01*
X150255000Y-87350000D02*
X152995000Y-87350000D01*
X150255000Y-80810000D02*
X150255000Y-87350000D01*
X152995000Y-80810000D02*
X150255000Y-80810000D01*
X141775000Y-88320000D02*
X141775000Y-87550000D01*
X141775000Y-80240000D02*
X141775000Y-81010000D01*
X143145000Y-87550000D02*
X143145000Y-81010000D01*
X140405000Y-87550000D02*
X143145000Y-87550000D01*
X140405000Y-81010000D02*
X140405000Y-87550000D01*
X143145000Y-81010000D02*
X140405000Y-81010000D01*
X132375000Y-88345000D02*
X132375000Y-87575000D01*
X132375000Y-80265000D02*
X132375000Y-81035000D01*
X133745000Y-87575000D02*
X133745000Y-81035000D01*
X131005000Y-87575000D02*
X133745000Y-87575000D01*
X131005000Y-81035000D02*
X131005000Y-87575000D01*
X133745000Y-81035000D02*
X131005000Y-81035000D01*
X171500000Y-87920000D02*
X171500000Y-87150000D01*
X171500000Y-79840000D02*
X171500000Y-80610000D01*
X172870000Y-87150000D02*
X172870000Y-80610000D01*
X170130000Y-87150000D02*
X172870000Y-87150000D01*
X170130000Y-80610000D02*
X170130000Y-87150000D01*
X172870000Y-80610000D02*
X170130000Y-80610000D01*
X109258578Y-133790000D02*
X108741422Y-133790000D01*
X109258578Y-135210000D02*
X108741422Y-135210000D01*
X109258578Y-130290000D02*
X108741422Y-130290000D01*
X109258578Y-131710000D02*
X108741422Y-131710000D01*
X99241422Y-118210000D02*
X99758578Y-118210000D01*
X99241422Y-116790000D02*
X99758578Y-116790000D01*
X103241422Y-118210000D02*
X103758578Y-118210000D01*
X103241422Y-116790000D02*
X103758578Y-116790000D01*
X164180000Y-81259000D02*
X165690000Y-81259000D01*
X164180000Y-84960000D02*
X165690000Y-84960000D01*
X165690000Y-88230000D02*
X165690000Y-77990000D01*
X164180000Y-77990000D02*
X168821000Y-77990000D01*
X164180000Y-88230000D02*
X168821000Y-88230000D01*
X168821000Y-88230000D02*
X168821000Y-77990000D01*
X164180000Y-88230000D02*
X164180000Y-77990000D01*
X154280000Y-81309000D02*
X155790000Y-81309000D01*
X154280000Y-85010000D02*
X155790000Y-85010000D01*
X155790000Y-88280000D02*
X155790000Y-78040000D01*
X154280000Y-78040000D02*
X158921000Y-78040000D01*
X154280000Y-88280000D02*
X158921000Y-88280000D01*
X158921000Y-88280000D02*
X158921000Y-78040000D01*
X154280000Y-88280000D02*
X154280000Y-78040000D01*
X144330000Y-81509000D02*
X145840000Y-81509000D01*
X144330000Y-85210000D02*
X145840000Y-85210000D01*
X145840000Y-88480000D02*
X145840000Y-78240000D01*
X144330000Y-78240000D02*
X148971000Y-78240000D01*
X144330000Y-88480000D02*
X148971000Y-88480000D01*
X148971000Y-88480000D02*
X148971000Y-78240000D01*
X144330000Y-88480000D02*
X144330000Y-78240000D01*
X134730000Y-81609000D02*
X136240000Y-81609000D01*
X134730000Y-85310000D02*
X136240000Y-85310000D01*
X136240000Y-88580000D02*
X136240000Y-78340000D01*
X134730000Y-78340000D02*
X139371000Y-78340000D01*
X134730000Y-88580000D02*
X139371000Y-88580000D01*
X139371000Y-88580000D02*
X139371000Y-78340000D01*
X134730000Y-88580000D02*
X134730000Y-78340000D01*
X174230000Y-81109000D02*
X175740000Y-81109000D01*
X174230000Y-84810000D02*
X175740000Y-84810000D01*
X175740000Y-88080000D02*
X175740000Y-77840000D01*
X174230000Y-77840000D02*
X178871000Y-77840000D01*
X174230000Y-88080000D02*
X178871000Y-88080000D01*
X178871000Y-88080000D02*
X178871000Y-77840000D01*
X174230000Y-88080000D02*
X174230000Y-77840000D01*
X132338478Y-98391522D02*
G75*
G03X127900000Y-100230000I-1838478J-1838478D01*
G01*
X132338478Y-102068478D02*
G75*
G02X127900000Y-100230000I-1838478J1838478D01*
G01*
X132350000Y-102030000D02*
X132350000Y-98430000D01*
X114838478Y-98391522D02*
G75*
G03X110400000Y-100230000I-1838478J-1838478D01*
G01*
X114838478Y-102068478D02*
G75*
G02X110400000Y-100230000I-1838478J1838478D01*
G01*
X114850000Y-102030000D02*
X114850000Y-98430000D01*
X98338478Y-98391522D02*
G75*
G03X93900000Y-100230000I-1838478J-1838478D01*
G01*
X98338478Y-102068478D02*
G75*
G02X93900000Y-100230000I-1838478J1838478D01*
G01*
X98350000Y-102030000D02*
X98350000Y-98430000D01*
X106850000Y-87550000D02*
X106850000Y-91550000D01*
X103250000Y-87550000D02*
X106850000Y-87550000D01*
X103250000Y-91550000D02*
X103250000Y-87550000D01*
X106850000Y-91550000D02*
X103250000Y-91550000D01*
X106850000Y-87550000D02*
X103250000Y-91550000D01*
X106850000Y-89550000D02*
X111050000Y-89550000D01*
X99050000Y-89550000D02*
X103250000Y-89550000D01*
X105050000Y-92950000D02*
X108650000Y-92950000D01*
X105050000Y-86150000D02*
X108650000Y-86150000D01*
X108650000Y-86150000D02*
X108650000Y-92950000D01*
X105050000Y-84650000D02*
X102550000Y-80050000D01*
X105050000Y-86150000D02*
X105050000Y-84650000D01*
X99050000Y-89550000D02*
X99050000Y-92050000D01*
X105050000Y-92950000D02*
X105050000Y-93750000D01*
X111050000Y-92050000D02*
X111050000Y-89550000D01*
X100800000Y-81450000D02*
X103300000Y-81450000D01*
X109200000Y-81450000D02*
X106750000Y-81450000D01*
X112800000Y-77200000D02*
X112800000Y-97000000D01*
X97200000Y-77200000D02*
X112800000Y-77200000D01*
X97200000Y-97000000D02*
X97200000Y-77200000D01*
X97200000Y-97000000D02*
X103800000Y-97000000D01*
X106200000Y-97000000D02*
X112800000Y-97000000D01*
X90350000Y-87550000D02*
X90350000Y-91550000D01*
X86750000Y-87550000D02*
X90350000Y-87550000D01*
X86750000Y-91550000D02*
X86750000Y-87550000D01*
X90350000Y-91550000D02*
X86750000Y-91550000D01*
X90350000Y-87550000D02*
X86750000Y-91550000D01*
X90350000Y-89550000D02*
X94550000Y-89550000D01*
X82550000Y-89550000D02*
X86750000Y-89550000D01*
X88550000Y-92950000D02*
X92150000Y-92950000D01*
X88550000Y-86150000D02*
X92150000Y-86150000D01*
X92150000Y-86150000D02*
X92150000Y-92950000D01*
X88550000Y-84650000D02*
X86050000Y-80050000D01*
X88550000Y-86150000D02*
X88550000Y-84650000D01*
X82550000Y-89550000D02*
X82550000Y-92050000D01*
X88550000Y-92950000D02*
X88550000Y-93750000D01*
X94550000Y-92050000D02*
X94550000Y-89550000D01*
X84300000Y-81450000D02*
X86800000Y-81450000D01*
X92700000Y-81450000D02*
X90250000Y-81450000D01*
X96300000Y-77200000D02*
X96300000Y-97000000D01*
X80700000Y-77200000D02*
X96300000Y-77200000D01*
X80700000Y-97000000D02*
X80700000Y-77200000D01*
X80700000Y-97000000D02*
X87300000Y-97000000D01*
X89700000Y-97000000D02*
X96300000Y-97000000D01*
X174670000Y-146170000D02*
X176000000Y-146170000D01*
X174670000Y-147500000D02*
X174670000Y-146170000D01*
X174670000Y-148770000D02*
X177330000Y-148770000D01*
X177330000Y-148770000D02*
X177330000Y-153910000D01*
X174670000Y-148770000D02*
X174670000Y-153910000D01*
X174670000Y-153910000D02*
X177330000Y-153910000D01*
X92830000Y-128830000D02*
X91500000Y-128830000D01*
X92830000Y-127500000D02*
X92830000Y-128830000D01*
X92830000Y-126230000D02*
X90170000Y-126230000D01*
X90170000Y-126230000D02*
X90170000Y-123630000D01*
X92830000Y-126230000D02*
X92830000Y-123630000D01*
X92830000Y-123630000D02*
X90170000Y-123630000D01*
X141650000Y-162550000D02*
X142050000Y-162550000D01*
X141650000Y-161910000D02*
X141650000Y-162550000D01*
X148192000Y-158242000D02*
X147797000Y-158638000D01*
X150838000Y-155596000D02*
X150458000Y-155976000D01*
X148443000Y-158524000D02*
X148063000Y-158904000D01*
X151104000Y-155862000D02*
X150709000Y-156258000D01*
X142902000Y-158531000D02*
X142796000Y-158638000D01*
X145838000Y-155596000D02*
X145731000Y-155703000D01*
X143168000Y-158797000D02*
X143062000Y-158904000D01*
X146104000Y-155862000D02*
X145997000Y-155969000D01*
X152010000Y-153190000D02*
X152010000Y-162310000D01*
X141890000Y-153190000D02*
X141890000Y-162310000D01*
X141890000Y-162310000D02*
X152010000Y-162310000D01*
X141890000Y-153190000D02*
X152010000Y-153190000D01*
X141890000Y-160750000D02*
X152010000Y-160750000D01*
X141890000Y-161850000D02*
X152010000Y-161850000D01*
X151630000Y-157250000D02*
G75*
G03X151630000Y-157250000I-2180000J0D01*
G01*
X146630000Y-157250000D02*
G75*
G03X146630000Y-157250000I-2180000J0D01*
G01*
X131150000Y-162550000D02*
X131550000Y-162550000D01*
X131150000Y-161910000D02*
X131150000Y-162550000D01*
X137692000Y-158242000D02*
X137297000Y-158638000D01*
X140338000Y-155596000D02*
X139958000Y-155976000D01*
X137943000Y-158524000D02*
X137563000Y-158904000D01*
X140604000Y-155862000D02*
X140209000Y-156258000D01*
X132402000Y-158531000D02*
X132296000Y-158638000D01*
X135338000Y-155596000D02*
X135231000Y-155703000D01*
X132668000Y-158797000D02*
X132562000Y-158904000D01*
X135604000Y-155862000D02*
X135497000Y-155969000D01*
X141510000Y-153190000D02*
X141510000Y-162310000D01*
X131390000Y-153190000D02*
X131390000Y-162310000D01*
X131390000Y-162310000D02*
X141510000Y-162310000D01*
X131390000Y-153190000D02*
X141510000Y-153190000D01*
X131390000Y-160750000D02*
X141510000Y-160750000D01*
X131390000Y-161850000D02*
X141510000Y-161850000D01*
X141130000Y-157250000D02*
G75*
G03X141130000Y-157250000I-2180000J0D01*
G01*
X136130000Y-157250000D02*
G75*
G03X136130000Y-157250000I-2180000J0D01*
G01*
X115650000Y-162550000D02*
X116050000Y-162550000D01*
X115650000Y-161910000D02*
X115650000Y-162550000D01*
X127192000Y-158242000D02*
X126797000Y-158638000D01*
X129838000Y-155596000D02*
X129458000Y-155976000D01*
X127443000Y-158524000D02*
X127063000Y-158904000D01*
X130104000Y-155862000D02*
X129709000Y-156258000D01*
X122192000Y-158242000D02*
X121797000Y-158638000D01*
X124838000Y-155596000D02*
X124458000Y-155976000D01*
X122443000Y-158524000D02*
X122063000Y-158904000D01*
X125104000Y-155862000D02*
X124709000Y-156258000D01*
X116902000Y-158531000D02*
X116796000Y-158638000D01*
X119838000Y-155596000D02*
X119731000Y-155703000D01*
X117168000Y-158797000D02*
X117062000Y-158904000D01*
X120104000Y-155862000D02*
X119997000Y-155969000D01*
X131010000Y-153190000D02*
X131010000Y-162310000D01*
X115890000Y-153190000D02*
X115890000Y-162310000D01*
X115890000Y-162310000D02*
X131010000Y-162310000D01*
X115890000Y-153190000D02*
X131010000Y-153190000D01*
X115890000Y-160750000D02*
X131010000Y-160750000D01*
X115890000Y-161850000D02*
X131010000Y-161850000D01*
X130630000Y-157250000D02*
G75*
G03X130630000Y-157250000I-2180000J0D01*
G01*
X125630000Y-157250000D02*
G75*
G03X125630000Y-157250000I-2180000J0D01*
G01*
X120630000Y-157250000D02*
G75*
G03X120630000Y-157250000I-2180000J0D01*
G01*
X98150000Y-162550000D02*
X98550000Y-162550000D01*
X98150000Y-161910000D02*
X98150000Y-162550000D01*
X109692000Y-158242000D02*
X109297000Y-158638000D01*
X112338000Y-155596000D02*
X111958000Y-155976000D01*
X109943000Y-158524000D02*
X109563000Y-158904000D01*
X112604000Y-155862000D02*
X112209000Y-156258000D01*
X104692000Y-158242000D02*
X104297000Y-158638000D01*
X107338000Y-155596000D02*
X106958000Y-155976000D01*
X104943000Y-158524000D02*
X104563000Y-158904000D01*
X107604000Y-155862000D02*
X107209000Y-156258000D01*
X99402000Y-158531000D02*
X99296000Y-158638000D01*
X102338000Y-155596000D02*
X102231000Y-155703000D01*
X99668000Y-158797000D02*
X99562000Y-158904000D01*
X102604000Y-155862000D02*
X102497000Y-155969000D01*
X113510000Y-153190000D02*
X113510000Y-162310000D01*
X98390000Y-153190000D02*
X98390000Y-162310000D01*
X98390000Y-162310000D02*
X113510000Y-162310000D01*
X98390000Y-153190000D02*
X113510000Y-153190000D01*
X98390000Y-160750000D02*
X113510000Y-160750000D01*
X98390000Y-161850000D02*
X113510000Y-161850000D01*
X113130000Y-157250000D02*
G75*
G03X113130000Y-157250000I-2180000J0D01*
G01*
X108130000Y-157250000D02*
G75*
G03X108130000Y-157250000I-2180000J0D01*
G01*
X103130000Y-157250000D02*
G75*
G03X103130000Y-157250000I-2180000J0D01*
G01*
X154300000Y-162550000D02*
X154700000Y-162550000D01*
X154300000Y-161910000D02*
X154300000Y-162550000D01*
X165842000Y-158242000D02*
X165447000Y-158638000D01*
X168488000Y-155596000D02*
X168108000Y-155976000D01*
X166093000Y-158524000D02*
X165713000Y-158904000D01*
X168754000Y-155862000D02*
X168359000Y-156258000D01*
X160842000Y-158242000D02*
X160447000Y-158638000D01*
X163488000Y-155596000D02*
X163108000Y-155976000D01*
X161093000Y-158524000D02*
X160713000Y-158904000D01*
X163754000Y-155862000D02*
X163359000Y-156258000D01*
X155552000Y-158531000D02*
X155446000Y-158638000D01*
X158488000Y-155596000D02*
X158381000Y-155703000D01*
X155818000Y-158797000D02*
X155712000Y-158904000D01*
X158754000Y-155862000D02*
X158647000Y-155969000D01*
X169660000Y-153190000D02*
X169660000Y-162310000D01*
X154540000Y-153190000D02*
X154540000Y-162310000D01*
X154540000Y-162310000D02*
X169660000Y-162310000D01*
X154540000Y-153190000D02*
X169660000Y-153190000D01*
X154540000Y-160750000D02*
X169660000Y-160750000D01*
X154540000Y-161850000D02*
X169660000Y-161850000D01*
X169280000Y-157250000D02*
G75*
G03X169280000Y-157250000I-2180000J0D01*
G01*
X164280000Y-157250000D02*
G75*
G03X164280000Y-157250000I-2180000J0D01*
G01*
X159280000Y-157250000D02*
G75*
G03X159280000Y-157250000I-2180000J0D01*
G01*
X87500000Y-162550000D02*
X87900000Y-162550000D01*
X87500000Y-161910000D02*
X87500000Y-162550000D01*
X94042000Y-158242000D02*
X93647000Y-158638000D01*
X96688000Y-155596000D02*
X96308000Y-155976000D01*
X94293000Y-158524000D02*
X93913000Y-158904000D01*
X96954000Y-155862000D02*
X96559000Y-156258000D01*
X88752000Y-158531000D02*
X88646000Y-158638000D01*
X91688000Y-155596000D02*
X91581000Y-155703000D01*
X89018000Y-158797000D02*
X88912000Y-158904000D01*
X91954000Y-155862000D02*
X91847000Y-155969000D01*
X97860000Y-153190000D02*
X97860000Y-162310000D01*
X87740000Y-153190000D02*
X87740000Y-162310000D01*
X87740000Y-162310000D02*
X97860000Y-162310000D01*
X87740000Y-153190000D02*
X97860000Y-153190000D01*
X87740000Y-160750000D02*
X97860000Y-160750000D01*
X87740000Y-161850000D02*
X97860000Y-161850000D01*
X97480000Y-157250000D02*
G75*
G03X97480000Y-157250000I-2180000J0D01*
G01*
X92480000Y-157250000D02*
G75*
G03X92480000Y-157250000I-2180000J0D01*
G01*
X161050000Y-67400000D02*
X160650000Y-67400000D01*
X161050000Y-68040000D02*
X161050000Y-67400000D01*
X149508000Y-71708000D02*
X149903000Y-71312000D01*
X146862000Y-74354000D02*
X147242000Y-73974000D01*
X149257000Y-71426000D02*
X149637000Y-71046000D01*
X146596000Y-74088000D02*
X146991000Y-73692000D01*
X154508000Y-71708000D02*
X154903000Y-71312000D01*
X151862000Y-74354000D02*
X152242000Y-73974000D01*
X154257000Y-71426000D02*
X154637000Y-71046000D01*
X151596000Y-74088000D02*
X151991000Y-73692000D01*
X159798000Y-71419000D02*
X159904000Y-71312000D01*
X156862000Y-74354000D02*
X156969000Y-74247000D01*
X159532000Y-71153000D02*
X159638000Y-71046000D01*
X156596000Y-74088000D02*
X156703000Y-73981000D01*
X145690000Y-76760000D02*
X145690000Y-67640000D01*
X160810000Y-76760000D02*
X160810000Y-67640000D01*
X160810000Y-67640000D02*
X145690000Y-67640000D01*
X160810000Y-76760000D02*
X145690000Y-76760000D01*
X160810000Y-69200000D02*
X145690000Y-69200000D01*
X160810000Y-68100000D02*
X145690000Y-68100000D01*
X150430000Y-72700000D02*
G75*
G03X150430000Y-72700000I-2180000J0D01*
G01*
X155430000Y-72700000D02*
G75*
G03X155430000Y-72700000I-2180000J0D01*
G01*
X160430000Y-72700000D02*
G75*
G03X160430000Y-72700000I-2180000J0D01*
G01*
X145550000Y-67400000D02*
X145150000Y-67400000D01*
X145550000Y-68040000D02*
X145550000Y-67400000D01*
X134008000Y-71708000D02*
X134403000Y-71312000D01*
X131362000Y-74354000D02*
X131742000Y-73974000D01*
X133757000Y-71426000D02*
X134137000Y-71046000D01*
X131096000Y-74088000D02*
X131491000Y-73692000D01*
X139008000Y-71708000D02*
X139403000Y-71312000D01*
X136362000Y-74354000D02*
X136742000Y-73974000D01*
X138757000Y-71426000D02*
X139137000Y-71046000D01*
X136096000Y-74088000D02*
X136491000Y-73692000D01*
X144298000Y-71419000D02*
X144404000Y-71312000D01*
X141362000Y-74354000D02*
X141469000Y-74247000D01*
X144032000Y-71153000D02*
X144138000Y-71046000D01*
X141096000Y-74088000D02*
X141203000Y-73981000D01*
X130190000Y-76760000D02*
X130190000Y-67640000D01*
X145310000Y-76760000D02*
X145310000Y-67640000D01*
X145310000Y-67640000D02*
X130190000Y-67640000D01*
X145310000Y-76760000D02*
X130190000Y-76760000D01*
X145310000Y-69200000D02*
X130190000Y-69200000D01*
X145310000Y-68100000D02*
X130190000Y-68100000D01*
X134930000Y-72700000D02*
G75*
G03X134930000Y-72700000I-2180000J0D01*
G01*
X139930000Y-72700000D02*
G75*
G03X139930000Y-72700000I-2180000J0D01*
G01*
X144930000Y-72700000D02*
G75*
G03X144930000Y-72700000I-2180000J0D01*
G01*
X130050000Y-67400000D02*
X129650000Y-67400000D01*
X130050000Y-68040000D02*
X130050000Y-67400000D01*
X118508000Y-71708000D02*
X118903000Y-71312000D01*
X115862000Y-74354000D02*
X116242000Y-73974000D01*
X118257000Y-71426000D02*
X118637000Y-71046000D01*
X115596000Y-74088000D02*
X115991000Y-73692000D01*
X123508000Y-71708000D02*
X123903000Y-71312000D01*
X120862000Y-74354000D02*
X121242000Y-73974000D01*
X123257000Y-71426000D02*
X123637000Y-71046000D01*
X120596000Y-74088000D02*
X120991000Y-73692000D01*
X128798000Y-71419000D02*
X128904000Y-71312000D01*
X125862000Y-74354000D02*
X125969000Y-74247000D01*
X128532000Y-71153000D02*
X128638000Y-71046000D01*
X125596000Y-74088000D02*
X125703000Y-73981000D01*
X114690000Y-76760000D02*
X114690000Y-67640000D01*
X129810000Y-76760000D02*
X129810000Y-67640000D01*
X129810000Y-67640000D02*
X114690000Y-67640000D01*
X129810000Y-76760000D02*
X114690000Y-76760000D01*
X129810000Y-69200000D02*
X114690000Y-69200000D01*
X129810000Y-68100000D02*
X114690000Y-68100000D01*
X119430000Y-72700000D02*
G75*
G03X119430000Y-72700000I-2180000J0D01*
G01*
X124430000Y-72700000D02*
G75*
G03X124430000Y-72700000I-2180000J0D01*
G01*
X129430000Y-72700000D02*
G75*
G03X129430000Y-72700000I-2180000J0D01*
G01*
X114550000Y-67400000D02*
X114150000Y-67400000D01*
X114550000Y-68040000D02*
X114550000Y-67400000D01*
X103008000Y-71708000D02*
X103403000Y-71312000D01*
X100362000Y-74354000D02*
X100742000Y-73974000D01*
X102757000Y-71426000D02*
X103137000Y-71046000D01*
X100096000Y-74088000D02*
X100491000Y-73692000D01*
X108008000Y-71708000D02*
X108403000Y-71312000D01*
X105362000Y-74354000D02*
X105742000Y-73974000D01*
X107757000Y-71426000D02*
X108137000Y-71046000D01*
X105096000Y-74088000D02*
X105491000Y-73692000D01*
X113298000Y-71419000D02*
X113404000Y-71312000D01*
X110362000Y-74354000D02*
X110469000Y-74247000D01*
X113032000Y-71153000D02*
X113138000Y-71046000D01*
X110096000Y-74088000D02*
X110203000Y-73981000D01*
X99190000Y-76760000D02*
X99190000Y-67640000D01*
X114310000Y-76760000D02*
X114310000Y-67640000D01*
X114310000Y-67640000D02*
X99190000Y-67640000D01*
X114310000Y-76760000D02*
X99190000Y-76760000D01*
X114310000Y-69200000D02*
X99190000Y-69200000D01*
X114310000Y-68100000D02*
X99190000Y-68100000D01*
X103930000Y-72700000D02*
G75*
G03X103930000Y-72700000I-2180000J0D01*
G01*
X108930000Y-72700000D02*
G75*
G03X108930000Y-72700000I-2180000J0D01*
G01*
X113930000Y-72700000D02*
G75*
G03X113930000Y-72700000I-2180000J0D01*
G01*
D11*
X85800000Y-122700000D02*
X85800000Y-123300000D01*
X84200000Y-122700000D02*
X85800000Y-122700000D01*
X85800000Y-130300000D02*
X85800000Y-129700000D01*
X84000000Y-130300000D02*
X85800000Y-130300000D01*
X86300000Y-124800000D02*
X85800000Y-124800000D01*
X86300000Y-125500000D02*
X86300000Y-124800000D01*
D15*
X156780000Y-137860000D02*
X159720000Y-137860000D01*
X156780000Y-137620000D02*
X159720000Y-137620000D01*
X156780000Y-137740000D02*
X159720000Y-137740000D01*
X158250000Y-132180000D02*
X158250000Y-133200000D01*
X158250000Y-139660000D02*
X158250000Y-138640000D01*
X156780000Y-133200000D02*
X156780000Y-138640000D01*
X159720000Y-133200000D02*
X156780000Y-133200000D01*
X159720000Y-138640000D02*
X159720000Y-133200000D01*
X156780000Y-138640000D02*
X159720000Y-138640000D01*
X152780000Y-137860000D02*
X155720000Y-137860000D01*
X152780000Y-137620000D02*
X155720000Y-137620000D01*
X152780000Y-137740000D02*
X155720000Y-137740000D01*
X154250000Y-132180000D02*
X154250000Y-133200000D01*
X154250000Y-139660000D02*
X154250000Y-138640000D01*
X152780000Y-133200000D02*
X152780000Y-138640000D01*
X155720000Y-133200000D02*
X152780000Y-133200000D01*
X155720000Y-138640000D02*
X155720000Y-133200000D01*
X152780000Y-138640000D02*
X155720000Y-138640000D01*
X141115000Y-107485000D02*
X143800000Y-107485000D01*
X141115000Y-105565000D02*
X141115000Y-107485000D01*
X143800000Y-105565000D02*
X141115000Y-105565000D01*
X137490000Y-107460000D02*
X140175000Y-107460000D01*
X137490000Y-105540000D02*
X137490000Y-107460000D01*
X140175000Y-105540000D02*
X137490000Y-105540000D01*
X133890000Y-107485000D02*
X136575000Y-107485000D01*
X133890000Y-105565000D02*
X133890000Y-107485000D01*
X136575000Y-105565000D02*
X133890000Y-105565000D01*
X130290000Y-107510000D02*
X132975000Y-107510000D01*
X130290000Y-105590000D02*
X130290000Y-107510000D01*
X132975000Y-105590000D02*
X130290000Y-105590000D01*
X144715000Y-107535000D02*
X147400000Y-107535000D01*
X144715000Y-105615000D02*
X144715000Y-107535000D01*
X147400000Y-105615000D02*
X144715000Y-105615000D01*
X126665000Y-107560000D02*
X129350000Y-107560000D01*
X126665000Y-105640000D02*
X126665000Y-107560000D01*
X129350000Y-105640000D02*
X126665000Y-105640000D01*
X123070000Y-107560000D02*
X125755000Y-107560000D01*
X123070000Y-105640000D02*
X123070000Y-107560000D01*
X125755000Y-105640000D02*
X123070000Y-105640000D01*
X119515000Y-107560000D02*
X122200000Y-107560000D01*
X119515000Y-105640000D02*
X119515000Y-107560000D01*
X122200000Y-105640000D02*
X119515000Y-105640000D01*
X111360000Y-143970000D02*
X111360000Y-141030000D01*
X111120000Y-143970000D02*
X111120000Y-141030000D01*
X111240000Y-143970000D02*
X111240000Y-141030000D01*
X105680000Y-142500000D02*
X106700000Y-142500000D01*
X113160000Y-142500000D02*
X112140000Y-142500000D01*
X106700000Y-143970000D02*
X112140000Y-143970000D01*
X106700000Y-141030000D02*
X106700000Y-143970000D01*
X112140000Y-141030000D02*
X106700000Y-141030000D01*
X112140000Y-143970000D02*
X112140000Y-141030000D01*
X95225000Y-146945225D02*
X94725000Y-146945225D01*
X94975000Y-146695225D02*
X94975000Y-147195225D01*
X93784000Y-152101000D02*
X93216000Y-152101000D01*
X94018000Y-152061000D02*
X92982000Y-152061000D01*
X94177000Y-152021000D02*
X92823000Y-152021000D01*
X94305000Y-151981000D02*
X92695000Y-151981000D01*
X94415000Y-151941000D02*
X92585000Y-151941000D01*
X94511000Y-151901000D02*
X92489000Y-151901000D01*
X94598000Y-151861000D02*
X92402000Y-151861000D01*
X94678000Y-151821000D02*
X92322000Y-151821000D01*
X94751000Y-151781000D02*
X92249000Y-151781000D01*
X94819000Y-151741000D02*
X92181000Y-151741000D01*
X94883000Y-151701000D02*
X92117000Y-151701000D01*
X94943000Y-151661000D02*
X92057000Y-151661000D01*
X95000000Y-151621000D02*
X92000000Y-151621000D01*
X95054000Y-151581000D02*
X91946000Y-151581000D01*
X95105000Y-151541000D02*
X91895000Y-151541000D01*
X92460000Y-151501000D02*
X91847000Y-151501000D01*
X95153000Y-151501000D02*
X94540000Y-151501000D01*
X92460000Y-151461000D02*
X91801000Y-151461000D01*
X95199000Y-151461000D02*
X94540000Y-151461000D01*
X92460000Y-151421000D02*
X91757000Y-151421000D01*
X95243000Y-151421000D02*
X94540000Y-151421000D01*
X92460000Y-151381000D02*
X91715000Y-151381000D01*
X95285000Y-151381000D02*
X94540000Y-151381000D01*
X92460000Y-151341000D02*
X91674000Y-151341000D01*
X95326000Y-151341000D02*
X94540000Y-151341000D01*
X92460000Y-151301000D02*
X91636000Y-151301000D01*
X95364000Y-151301000D02*
X94540000Y-151301000D01*
X92460000Y-151261000D02*
X91599000Y-151261000D01*
X95401000Y-151261000D02*
X94540000Y-151261000D01*
X92460000Y-151221000D02*
X91563000Y-151221000D01*
X95437000Y-151221000D02*
X94540000Y-151221000D01*
X92460000Y-151181000D02*
X91529000Y-151181000D01*
X95471000Y-151181000D02*
X94540000Y-151181000D01*
X92460000Y-151141000D02*
X91496000Y-151141000D01*
X95504000Y-151141000D02*
X94540000Y-151141000D01*
X92460000Y-151101000D02*
X91465000Y-151101000D01*
X95535000Y-151101000D02*
X94540000Y-151101000D01*
X92460000Y-151061000D02*
X91435000Y-151061000D01*
X95565000Y-151061000D02*
X94540000Y-151061000D01*
X92460000Y-151021000D02*
X91405000Y-151021000D01*
X95595000Y-151021000D02*
X94540000Y-151021000D01*
X92460000Y-150981000D02*
X91378000Y-150981000D01*
X95622000Y-150981000D02*
X94540000Y-150981000D01*
X92460000Y-150941000D02*
X91351000Y-150941000D01*
X95649000Y-150941000D02*
X94540000Y-150941000D01*
X92460000Y-150901000D02*
X91325000Y-150901000D01*
X95675000Y-150901000D02*
X94540000Y-150901000D01*
X92460000Y-150861000D02*
X91300000Y-150861000D01*
X95700000Y-150861000D02*
X94540000Y-150861000D01*
X92460000Y-150821000D02*
X91276000Y-150821000D01*
X95724000Y-150821000D02*
X94540000Y-150821000D01*
X92460000Y-150781000D02*
X91253000Y-150781000D01*
X95747000Y-150781000D02*
X94540000Y-150781000D01*
X92460000Y-150741000D02*
X91232000Y-150741000D01*
X95768000Y-150741000D02*
X94540000Y-150741000D01*
X92460000Y-150701000D02*
X91210000Y-150701000D01*
X95790000Y-150701000D02*
X94540000Y-150701000D01*
X92460000Y-150661000D02*
X91190000Y-150661000D01*
X95810000Y-150661000D02*
X94540000Y-150661000D01*
X92460000Y-150621000D02*
X91171000Y-150621000D01*
X95829000Y-150621000D02*
X94540000Y-150621000D01*
X92460000Y-150581000D02*
X91152000Y-150581000D01*
X95848000Y-150581000D02*
X94540000Y-150581000D01*
X92460000Y-150541000D02*
X91135000Y-150541000D01*
X95865000Y-150541000D02*
X94540000Y-150541000D01*
X92460000Y-150501000D02*
X91118000Y-150501000D01*
X95882000Y-150501000D02*
X94540000Y-150501000D01*
X92460000Y-150461000D02*
X91102000Y-150461000D01*
X95898000Y-150461000D02*
X94540000Y-150461000D01*
X92460000Y-150421000D02*
X91086000Y-150421000D01*
X95914000Y-150421000D02*
X94540000Y-150421000D01*
X92460000Y-150381000D02*
X91072000Y-150381000D01*
X95928000Y-150381000D02*
X94540000Y-150381000D01*
X92460000Y-150341000D02*
X91058000Y-150341000D01*
X95942000Y-150341000D02*
X94540000Y-150341000D01*
X92460000Y-150301000D02*
X91045000Y-150301000D01*
X95955000Y-150301000D02*
X94540000Y-150301000D01*
X92460000Y-150261000D02*
X91032000Y-150261000D01*
X95968000Y-150261000D02*
X94540000Y-150261000D01*
X92460000Y-150221000D02*
X91020000Y-150221000D01*
X95980000Y-150221000D02*
X94540000Y-150221000D01*
X92460000Y-150180000D02*
X91009000Y-150180000D01*
X95991000Y-150180000D02*
X94540000Y-150180000D01*
X92460000Y-150140000D02*
X90999000Y-150140000D01*
X96001000Y-150140000D02*
X94540000Y-150140000D01*
X92460000Y-150100000D02*
X90989000Y-150100000D01*
X96011000Y-150100000D02*
X94540000Y-150100000D01*
X92460000Y-150060000D02*
X90980000Y-150060000D01*
X96020000Y-150060000D02*
X94540000Y-150060000D01*
X92460000Y-150020000D02*
X90972000Y-150020000D01*
X96028000Y-150020000D02*
X94540000Y-150020000D01*
X92460000Y-149980000D02*
X90964000Y-149980000D01*
X96036000Y-149980000D02*
X94540000Y-149980000D01*
X92460000Y-149940000D02*
X90957000Y-149940000D01*
X96043000Y-149940000D02*
X94540000Y-149940000D01*
X92460000Y-149900000D02*
X90950000Y-149900000D01*
X96050000Y-149900000D02*
X94540000Y-149900000D01*
X92460000Y-149860000D02*
X90944000Y-149860000D01*
X96056000Y-149860000D02*
X94540000Y-149860000D01*
X92460000Y-149820000D02*
X90939000Y-149820000D01*
X96061000Y-149820000D02*
X94540000Y-149820000D01*
X92460000Y-149780000D02*
X90935000Y-149780000D01*
X96065000Y-149780000D02*
X94540000Y-149780000D01*
X92460000Y-149740000D02*
X90931000Y-149740000D01*
X96069000Y-149740000D02*
X94540000Y-149740000D01*
X92460000Y-149700000D02*
X90927000Y-149700000D01*
X96073000Y-149700000D02*
X94540000Y-149700000D01*
X92460000Y-149660000D02*
X90924000Y-149660000D01*
X96076000Y-149660000D02*
X94540000Y-149660000D01*
X92460000Y-149620000D02*
X90922000Y-149620000D01*
X96078000Y-149620000D02*
X94540000Y-149620000D01*
X92460000Y-149580000D02*
X90921000Y-149580000D01*
X96079000Y-149580000D02*
X94540000Y-149580000D01*
X96080000Y-149540000D02*
X94540000Y-149540000D01*
X92460000Y-149540000D02*
X90920000Y-149540000D01*
X96080000Y-149500000D02*
X94540000Y-149500000D01*
X92460000Y-149500000D02*
X90920000Y-149500000D01*
X96120000Y-149500000D02*
G75*
G03X96120000Y-149500000I-2620000J0D01*
G01*
X89225000Y-146945225D02*
X88725000Y-146945225D01*
X88975000Y-146695225D02*
X88975000Y-147195225D01*
X87784000Y-152101000D02*
X87216000Y-152101000D01*
X88018000Y-152061000D02*
X86982000Y-152061000D01*
X88177000Y-152021000D02*
X86823000Y-152021000D01*
X88305000Y-151981000D02*
X86695000Y-151981000D01*
X88415000Y-151941000D02*
X86585000Y-151941000D01*
X88511000Y-151901000D02*
X86489000Y-151901000D01*
X88598000Y-151861000D02*
X86402000Y-151861000D01*
X88678000Y-151821000D02*
X86322000Y-151821000D01*
X88751000Y-151781000D02*
X86249000Y-151781000D01*
X88819000Y-151741000D02*
X86181000Y-151741000D01*
X88883000Y-151701000D02*
X86117000Y-151701000D01*
X88943000Y-151661000D02*
X86057000Y-151661000D01*
X89000000Y-151621000D02*
X86000000Y-151621000D01*
X89054000Y-151581000D02*
X85946000Y-151581000D01*
X89105000Y-151541000D02*
X85895000Y-151541000D01*
X86460000Y-151501000D02*
X85847000Y-151501000D01*
X89153000Y-151501000D02*
X88540000Y-151501000D01*
X86460000Y-151461000D02*
X85801000Y-151461000D01*
X89199000Y-151461000D02*
X88540000Y-151461000D01*
X86460000Y-151421000D02*
X85757000Y-151421000D01*
X89243000Y-151421000D02*
X88540000Y-151421000D01*
X86460000Y-151381000D02*
X85715000Y-151381000D01*
X89285000Y-151381000D02*
X88540000Y-151381000D01*
X86460000Y-151341000D02*
X85674000Y-151341000D01*
X89326000Y-151341000D02*
X88540000Y-151341000D01*
X86460000Y-151301000D02*
X85636000Y-151301000D01*
X89364000Y-151301000D02*
X88540000Y-151301000D01*
X86460000Y-151261000D02*
X85599000Y-151261000D01*
X89401000Y-151261000D02*
X88540000Y-151261000D01*
X86460000Y-151221000D02*
X85563000Y-151221000D01*
X89437000Y-151221000D02*
X88540000Y-151221000D01*
X86460000Y-151181000D02*
X85529000Y-151181000D01*
X89471000Y-151181000D02*
X88540000Y-151181000D01*
X86460000Y-151141000D02*
X85496000Y-151141000D01*
X89504000Y-151141000D02*
X88540000Y-151141000D01*
X86460000Y-151101000D02*
X85465000Y-151101000D01*
X89535000Y-151101000D02*
X88540000Y-151101000D01*
X86460000Y-151061000D02*
X85435000Y-151061000D01*
X89565000Y-151061000D02*
X88540000Y-151061000D01*
X86460000Y-151021000D02*
X85405000Y-151021000D01*
X89595000Y-151021000D02*
X88540000Y-151021000D01*
X86460000Y-150981000D02*
X85378000Y-150981000D01*
X89622000Y-150981000D02*
X88540000Y-150981000D01*
X86460000Y-150941000D02*
X85351000Y-150941000D01*
X89649000Y-150941000D02*
X88540000Y-150941000D01*
X86460000Y-150901000D02*
X85325000Y-150901000D01*
X89675000Y-150901000D02*
X88540000Y-150901000D01*
X86460000Y-150861000D02*
X85300000Y-150861000D01*
X89700000Y-150861000D02*
X88540000Y-150861000D01*
X86460000Y-150821000D02*
X85276000Y-150821000D01*
X89724000Y-150821000D02*
X88540000Y-150821000D01*
X86460000Y-150781000D02*
X85253000Y-150781000D01*
X89747000Y-150781000D02*
X88540000Y-150781000D01*
X86460000Y-150741000D02*
X85232000Y-150741000D01*
X89768000Y-150741000D02*
X88540000Y-150741000D01*
X86460000Y-150701000D02*
X85210000Y-150701000D01*
X89790000Y-150701000D02*
X88540000Y-150701000D01*
X86460000Y-150661000D02*
X85190000Y-150661000D01*
X89810000Y-150661000D02*
X88540000Y-150661000D01*
X86460000Y-150621000D02*
X85171000Y-150621000D01*
X89829000Y-150621000D02*
X88540000Y-150621000D01*
X86460000Y-150581000D02*
X85152000Y-150581000D01*
X89848000Y-150581000D02*
X88540000Y-150581000D01*
X86460000Y-150541000D02*
X85135000Y-150541000D01*
X89865000Y-150541000D02*
X88540000Y-150541000D01*
X86460000Y-150501000D02*
X85118000Y-150501000D01*
X89882000Y-150501000D02*
X88540000Y-150501000D01*
X86460000Y-150461000D02*
X85102000Y-150461000D01*
X89898000Y-150461000D02*
X88540000Y-150461000D01*
X86460000Y-150421000D02*
X85086000Y-150421000D01*
X89914000Y-150421000D02*
X88540000Y-150421000D01*
X86460000Y-150381000D02*
X85072000Y-150381000D01*
X89928000Y-150381000D02*
X88540000Y-150381000D01*
X86460000Y-150341000D02*
X85058000Y-150341000D01*
X89942000Y-150341000D02*
X88540000Y-150341000D01*
X86460000Y-150301000D02*
X85045000Y-150301000D01*
X89955000Y-150301000D02*
X88540000Y-150301000D01*
X86460000Y-150261000D02*
X85032000Y-150261000D01*
X89968000Y-150261000D02*
X88540000Y-150261000D01*
X86460000Y-150221000D02*
X85020000Y-150221000D01*
X89980000Y-150221000D02*
X88540000Y-150221000D01*
X86460000Y-150180000D02*
X85009000Y-150180000D01*
X89991000Y-150180000D02*
X88540000Y-150180000D01*
X86460000Y-150140000D02*
X84999000Y-150140000D01*
X90001000Y-150140000D02*
X88540000Y-150140000D01*
X86460000Y-150100000D02*
X84989000Y-150100000D01*
X90011000Y-150100000D02*
X88540000Y-150100000D01*
X86460000Y-150060000D02*
X84980000Y-150060000D01*
X90020000Y-150060000D02*
X88540000Y-150060000D01*
X86460000Y-150020000D02*
X84972000Y-150020000D01*
X90028000Y-150020000D02*
X88540000Y-150020000D01*
X86460000Y-149980000D02*
X84964000Y-149980000D01*
X90036000Y-149980000D02*
X88540000Y-149980000D01*
X86460000Y-149940000D02*
X84957000Y-149940000D01*
X90043000Y-149940000D02*
X88540000Y-149940000D01*
X86460000Y-149900000D02*
X84950000Y-149900000D01*
X90050000Y-149900000D02*
X88540000Y-149900000D01*
X86460000Y-149860000D02*
X84944000Y-149860000D01*
X90056000Y-149860000D02*
X88540000Y-149860000D01*
X86460000Y-149820000D02*
X84939000Y-149820000D01*
X90061000Y-149820000D02*
X88540000Y-149820000D01*
X86460000Y-149780000D02*
X84935000Y-149780000D01*
X90065000Y-149780000D02*
X88540000Y-149780000D01*
X86460000Y-149740000D02*
X84931000Y-149740000D01*
X90069000Y-149740000D02*
X88540000Y-149740000D01*
X86460000Y-149700000D02*
X84927000Y-149700000D01*
X90073000Y-149700000D02*
X88540000Y-149700000D01*
X86460000Y-149660000D02*
X84924000Y-149660000D01*
X90076000Y-149660000D02*
X88540000Y-149660000D01*
X86460000Y-149620000D02*
X84922000Y-149620000D01*
X90078000Y-149620000D02*
X88540000Y-149620000D01*
X86460000Y-149580000D02*
X84921000Y-149580000D01*
X90079000Y-149580000D02*
X88540000Y-149580000D01*
X90080000Y-149540000D02*
X88540000Y-149540000D01*
X86460000Y-149540000D02*
X84920000Y-149540000D01*
X90080000Y-149500000D02*
X88540000Y-149500000D01*
X86460000Y-149500000D02*
X84920000Y-149500000D01*
X90120000Y-149500000D02*
G75*
G03X90120000Y-149500000I-2620000J0D01*
G01*
X113258578Y-137290000D02*
X112741422Y-137290000D01*
X113258578Y-138710000D02*
X112741422Y-138710000D01*
X83790000Y-117241422D02*
X83790000Y-117758578D01*
X85210000Y-117241422D02*
X85210000Y-117758578D01*
X82710000Y-117758578D02*
X82710000Y-117241422D01*
X81290000Y-117758578D02*
X81290000Y-117241422D01*
X87710000Y-117758578D02*
X87710000Y-117241422D01*
X86290000Y-117758578D02*
X86290000Y-117241422D01*
X98290000Y-140241422D02*
X98290000Y-140758578D01*
X99710000Y-140241422D02*
X99710000Y-140758578D01*
X179900000Y-109500000D02*
G75*
G03X179900000Y-109500000I-6100000J0D01*
G01*
D11*
X169761904Y-125902380D02*
X169761904Y-126711904D01*
X169809523Y-126807142D01*
X169857142Y-126854761D01*
X169952380Y-126902380D01*
X170142857Y-126902380D01*
X170238095Y-126854761D01*
X170285714Y-126807142D01*
X170333333Y-126711904D01*
X170333333Y-125902380D01*
X171333333Y-126902380D02*
X170761904Y-126902380D01*
X171047619Y-126902380D02*
X171047619Y-125902380D01*
X170952380Y-126045238D01*
X170857142Y-126140476D01*
X170761904Y-126188095D01*
X171809523Y-126902380D02*
X172000000Y-126902380D01*
X172095238Y-126854761D01*
X172142857Y-126807142D01*
X172238095Y-126664285D01*
X172285714Y-126473809D01*
X172285714Y-126092857D01*
X172238095Y-125997619D01*
X172190476Y-125950000D01*
X172095238Y-125902380D01*
X171904761Y-125902380D01*
X171809523Y-125950000D01*
X171761904Y-125997619D01*
X171714285Y-126092857D01*
X171714285Y-126330952D01*
X171761904Y-126426190D01*
X171809523Y-126473809D01*
X171904761Y-126521428D01*
X172095238Y-126521428D01*
X172190476Y-126473809D01*
X172238095Y-126426190D01*
X172285714Y-126330952D01*
X167171499Y-132654285D02*
X167171499Y-132178095D01*
X167457213Y-132749523D02*
X166457213Y-132416190D01*
X167457213Y-132082857D01*
X166552452Y-131797142D02*
X166504833Y-131749523D01*
X166457213Y-131654285D01*
X166457213Y-131416190D01*
X166504833Y-131320952D01*
X166552452Y-131273333D01*
X166647690Y-131225714D01*
X166742928Y-131225714D01*
X166885785Y-131273333D01*
X167457213Y-131844761D01*
X167457213Y-131225714D01*
X164666666Y-132714285D02*
X164666666Y-132238095D01*
X164952380Y-132809523D02*
X163952380Y-132476190D01*
X164952380Y-132142857D01*
X164952380Y-131285714D02*
X164952380Y-131857142D01*
X164952380Y-131571428D02*
X163952380Y-131571428D01*
X164095238Y-131666666D01*
X164190476Y-131761904D01*
X164238095Y-131857142D01*
X162221499Y-132654285D02*
X162221499Y-132178095D01*
X162507213Y-132749523D02*
X161507213Y-132416190D01*
X162507213Y-132082857D01*
X161507213Y-131559047D02*
X161507213Y-131463809D01*
X161554833Y-131368571D01*
X161602452Y-131320952D01*
X161697690Y-131273333D01*
X161888166Y-131225714D01*
X162126261Y-131225714D01*
X162316737Y-131273333D01*
X162411975Y-131320952D01*
X162459594Y-131368571D01*
X162507213Y-131463809D01*
X162507213Y-131559047D01*
X162459594Y-131654285D01*
X162411975Y-131701904D01*
X162316737Y-131749523D01*
X162126261Y-131797142D01*
X161888166Y-131797142D01*
X161697690Y-131749523D01*
X161602452Y-131701904D01*
X161554833Y-131654285D01*
X161507213Y-131559047D01*
X112357142Y-136357142D02*
X112309523Y-136404761D01*
X112166666Y-136452380D01*
X112071428Y-136452380D01*
X111928571Y-136404761D01*
X111833333Y-136309523D01*
X111785714Y-136214285D01*
X111738095Y-136023809D01*
X111738095Y-135880952D01*
X111785714Y-135690476D01*
X111833333Y-135595238D01*
X111928571Y-135500000D01*
X112071428Y-135452380D01*
X112166666Y-135452380D01*
X112309523Y-135500000D01*
X112357142Y-135547619D01*
X113309523Y-136452380D02*
X112738095Y-136452380D01*
X113023809Y-136452380D02*
X113023809Y-135452380D01*
X112928571Y-135595238D01*
X112833333Y-135690476D01*
X112738095Y-135738095D01*
X114214285Y-135452380D02*
X113738095Y-135452380D01*
X113690476Y-135928571D01*
X113738095Y-135880952D01*
X113833333Y-135833333D01*
X114071428Y-135833333D01*
X114166666Y-135880952D01*
X114214285Y-135928571D01*
X114261904Y-136023809D01*
X114261904Y-136261904D01*
X114214285Y-136357142D01*
X114166666Y-136404761D01*
X114071428Y-136452380D01*
X113833333Y-136452380D01*
X113738095Y-136404761D01*
X113690476Y-136357142D01*
X112357142Y-132857142D02*
X112309523Y-132904761D01*
X112166666Y-132952380D01*
X112071428Y-132952380D01*
X111928571Y-132904761D01*
X111833333Y-132809523D01*
X111785714Y-132714285D01*
X111738095Y-132523809D01*
X111738095Y-132380952D01*
X111785714Y-132190476D01*
X111833333Y-132095238D01*
X111928571Y-132000000D01*
X112071428Y-131952380D01*
X112166666Y-131952380D01*
X112309523Y-132000000D01*
X112357142Y-132047619D01*
X113309523Y-132952380D02*
X112738095Y-132952380D01*
X113023809Y-132952380D02*
X113023809Y-131952380D01*
X112928571Y-132095238D01*
X112833333Y-132190476D01*
X112738095Y-132238095D01*
X114166666Y-132285714D02*
X114166666Y-132952380D01*
X113928571Y-131904761D02*
X113690476Y-132619047D01*
X114309523Y-132619047D01*
X112357142Y-129357142D02*
X112309523Y-129404761D01*
X112166666Y-129452380D01*
X112071428Y-129452380D01*
X111928571Y-129404761D01*
X111833333Y-129309523D01*
X111785714Y-129214285D01*
X111738095Y-129023809D01*
X111738095Y-128880952D01*
X111785714Y-128690476D01*
X111833333Y-128595238D01*
X111928571Y-128500000D01*
X112071428Y-128452380D01*
X112166666Y-128452380D01*
X112309523Y-128500000D01*
X112357142Y-128547619D01*
X113309523Y-129452380D02*
X112738095Y-129452380D01*
X113023809Y-129452380D02*
X113023809Y-128452380D01*
X112928571Y-128595238D01*
X112833333Y-128690476D01*
X112738095Y-128738095D01*
X113642857Y-128452380D02*
X114261904Y-128452380D01*
X113928571Y-128833333D01*
X114071428Y-128833333D01*
X114166666Y-128880952D01*
X114214285Y-128928571D01*
X114261904Y-129023809D01*
X114261904Y-129261904D01*
X114214285Y-129357142D01*
X114166666Y-129404761D01*
X114071428Y-129452380D01*
X113785714Y-129452380D01*
X113690476Y-129404761D01*
X113642857Y-129357142D01*
X112357142Y-125857142D02*
X112309523Y-125904761D01*
X112166666Y-125952380D01*
X112071428Y-125952380D01*
X111928571Y-125904761D01*
X111833333Y-125809523D01*
X111785714Y-125714285D01*
X111738095Y-125523809D01*
X111738095Y-125380952D01*
X111785714Y-125190476D01*
X111833333Y-125095238D01*
X111928571Y-125000000D01*
X112071428Y-124952380D01*
X112166666Y-124952380D01*
X112309523Y-125000000D01*
X112357142Y-125047619D01*
X113309523Y-125952380D02*
X112738095Y-125952380D01*
X113023809Y-125952380D02*
X113023809Y-124952380D01*
X112928571Y-125095238D01*
X112833333Y-125190476D01*
X112738095Y-125238095D01*
X113690476Y-125047619D02*
X113738095Y-125000000D01*
X113833333Y-124952380D01*
X114071428Y-124952380D01*
X114166666Y-125000000D01*
X114214285Y-125047619D01*
X114261904Y-125142857D01*
X114261904Y-125238095D01*
X114214285Y-125380952D01*
X113642857Y-125952380D01*
X114261904Y-125952380D01*
X115912380Y-119643095D02*
X114912380Y-119643095D01*
X114912380Y-119405000D01*
X114960000Y-119262142D01*
X115055238Y-119166904D01*
X115150476Y-119119285D01*
X115340952Y-119071666D01*
X115483809Y-119071666D01*
X115674285Y-119119285D01*
X115769523Y-119166904D01*
X115864761Y-119262142D01*
X115912380Y-119405000D01*
X115912380Y-119643095D01*
X115007619Y-118690714D02*
X114960000Y-118643095D01*
X114912380Y-118547857D01*
X114912380Y-118309761D01*
X114960000Y-118214523D01*
X115007619Y-118166904D01*
X115102857Y-118119285D01*
X115198095Y-118119285D01*
X115340952Y-118166904D01*
X115912380Y-118738333D01*
X115912380Y-118119285D01*
X85952380Y-144214285D02*
X84952380Y-144214285D01*
X84952380Y-143976190D01*
X85000000Y-143833333D01*
X85095238Y-143738095D01*
X85190476Y-143690476D01*
X85380952Y-143642857D01*
X85523809Y-143642857D01*
X85714285Y-143690476D01*
X85809523Y-143738095D01*
X85904761Y-143833333D01*
X85952380Y-143976190D01*
X85952380Y-144214285D01*
X85952380Y-142690476D02*
X85952380Y-143261904D01*
X85952380Y-142976190D02*
X84952380Y-142976190D01*
X85095238Y-143071428D01*
X85190476Y-143166666D01*
X85238095Y-143261904D01*
X85380952Y-142119047D02*
X85333333Y-142214285D01*
X85285714Y-142261904D01*
X85190476Y-142309523D01*
X85142857Y-142309523D01*
X85047619Y-142261904D01*
X85000000Y-142214285D01*
X84952380Y-142119047D01*
X84952380Y-141928571D01*
X85000000Y-141833333D01*
X85047619Y-141785714D01*
X85142857Y-141738095D01*
X85190476Y-141738095D01*
X85285714Y-141785714D01*
X85333333Y-141833333D01*
X85380952Y-141928571D01*
X85380952Y-142119047D01*
X85428571Y-142214285D01*
X85476190Y-142261904D01*
X85571428Y-142309523D01*
X85761904Y-142309523D01*
X85857142Y-142261904D01*
X85904761Y-142214285D01*
X85952380Y-142119047D01*
X85952380Y-141928571D01*
X85904761Y-141833333D01*
X85857142Y-141785714D01*
X85761904Y-141738095D01*
X85571428Y-141738095D01*
X85476190Y-141785714D01*
X85428571Y-141833333D01*
X85380952Y-141928571D01*
X90952380Y-144214285D02*
X89952380Y-144214285D01*
X89952380Y-143976190D01*
X90000000Y-143833333D01*
X90095238Y-143738095D01*
X90190476Y-143690476D01*
X90380952Y-143642857D01*
X90523809Y-143642857D01*
X90714285Y-143690476D01*
X90809523Y-143738095D01*
X90904761Y-143833333D01*
X90952380Y-143976190D01*
X90952380Y-144214285D01*
X90952380Y-142690476D02*
X90952380Y-143261904D01*
X90952380Y-142976190D02*
X89952380Y-142976190D01*
X90095238Y-143071428D01*
X90190476Y-143166666D01*
X90238095Y-143261904D01*
X89952380Y-142357142D02*
X89952380Y-141690476D01*
X90952380Y-142119047D01*
X117952380Y-102214285D02*
X116952380Y-102214285D01*
X116952380Y-101976190D01*
X117000000Y-101833333D01*
X117095238Y-101738095D01*
X117190476Y-101690476D01*
X117380952Y-101642857D01*
X117523809Y-101642857D01*
X117714285Y-101690476D01*
X117809523Y-101738095D01*
X117904761Y-101833333D01*
X117952380Y-101976190D01*
X117952380Y-102214285D01*
X117952380Y-100690476D02*
X117952380Y-101261904D01*
X117952380Y-100976190D02*
X116952380Y-100976190D01*
X117095238Y-101071428D01*
X117190476Y-101166666D01*
X117238095Y-101261904D01*
X117952380Y-99738095D02*
X117952380Y-100309523D01*
X117952380Y-100023809D02*
X116952380Y-100023809D01*
X117095238Y-100119047D01*
X117190476Y-100214285D01*
X117238095Y-100309523D01*
X99952380Y-101738095D02*
X98952380Y-101738095D01*
X98952380Y-101500000D01*
X99000000Y-101357142D01*
X99095238Y-101261904D01*
X99190476Y-101214285D01*
X99380952Y-101166666D01*
X99523809Y-101166666D01*
X99714285Y-101214285D01*
X99809523Y-101261904D01*
X99904761Y-101357142D01*
X99952380Y-101500000D01*
X99952380Y-101738095D01*
X99952380Y-100690476D02*
X99952380Y-100500000D01*
X99904761Y-100404761D01*
X99857142Y-100357142D01*
X99714285Y-100261904D01*
X99523809Y-100214285D01*
X99142857Y-100214285D01*
X99047619Y-100261904D01*
X99000000Y-100309523D01*
X98952380Y-100404761D01*
X98952380Y-100595238D01*
X99000000Y-100690476D01*
X99047619Y-100738095D01*
X99142857Y-100785714D01*
X99380952Y-100785714D01*
X99476190Y-100738095D01*
X99523809Y-100690476D01*
X99571428Y-100595238D01*
X99571428Y-100404761D01*
X99523809Y-100309523D01*
X99476190Y-100261904D01*
X99380952Y-100214285D01*
X84452380Y-101738095D02*
X83452380Y-101738095D01*
X83452380Y-101500000D01*
X83500000Y-101357142D01*
X83595238Y-101261904D01*
X83690476Y-101214285D01*
X83880952Y-101166666D01*
X84023809Y-101166666D01*
X84214285Y-101214285D01*
X84309523Y-101261904D01*
X84404761Y-101357142D01*
X84452380Y-101500000D01*
X84452380Y-101738095D01*
X83880952Y-100595238D02*
X83833333Y-100690476D01*
X83785714Y-100738095D01*
X83690476Y-100785714D01*
X83642857Y-100785714D01*
X83547619Y-100738095D01*
X83500000Y-100690476D01*
X83452380Y-100595238D01*
X83452380Y-100404761D01*
X83500000Y-100309523D01*
X83547619Y-100261904D01*
X83642857Y-100214285D01*
X83690476Y-100214285D01*
X83785714Y-100261904D01*
X83833333Y-100309523D01*
X83880952Y-100404761D01*
X83880952Y-100595238D01*
X83928571Y-100690476D01*
X83976190Y-100738095D01*
X84071428Y-100785714D01*
X84261904Y-100785714D01*
X84357142Y-100738095D01*
X84404761Y-100690476D01*
X84452380Y-100595238D01*
X84452380Y-100404761D01*
X84404761Y-100309523D01*
X84357142Y-100261904D01*
X84261904Y-100214285D01*
X84071428Y-100214285D01*
X83976190Y-100261904D01*
X83928571Y-100309523D01*
X83880952Y-100404761D01*
X108357142Y-136952380D02*
X108023809Y-136476190D01*
X107785714Y-136952380D02*
X107785714Y-135952380D01*
X108166666Y-135952380D01*
X108261904Y-136000000D01*
X108309523Y-136047619D01*
X108357142Y-136142857D01*
X108357142Y-136285714D01*
X108309523Y-136380952D01*
X108261904Y-136428571D01*
X108166666Y-136476190D01*
X107785714Y-136476190D01*
X109214285Y-136285714D02*
X109214285Y-136952380D01*
X108976190Y-135904761D02*
X108738095Y-136619047D01*
X109357142Y-136619047D01*
X109928571Y-135952380D02*
X110023809Y-135952380D01*
X110119047Y-136000000D01*
X110166666Y-136047619D01*
X110214285Y-136142857D01*
X110261904Y-136333333D01*
X110261904Y-136571428D01*
X110214285Y-136761904D01*
X110166666Y-136857142D01*
X110119047Y-136904761D01*
X110023809Y-136952380D01*
X109928571Y-136952380D01*
X109833333Y-136904761D01*
X109785714Y-136857142D01*
X109738095Y-136761904D01*
X109690476Y-136571428D01*
X109690476Y-136333333D01*
X109738095Y-136142857D01*
X109785714Y-136047619D01*
X109833333Y-136000000D01*
X109928571Y-135952380D01*
X108205714Y-146952380D02*
X108205714Y-145952380D01*
X108443809Y-145952380D01*
X108586666Y-146000000D01*
X108681904Y-146095238D01*
X108729523Y-146190476D01*
X108777142Y-146380952D01*
X108777142Y-146523809D01*
X108729523Y-146714285D01*
X108681904Y-146809523D01*
X108586666Y-146904761D01*
X108443809Y-146952380D01*
X108205714Y-146952380D01*
X109158095Y-146047619D02*
X109205714Y-146000000D01*
X109300952Y-145952380D01*
X109539047Y-145952380D01*
X109634285Y-146000000D01*
X109681904Y-146047619D01*
X109729523Y-146142857D01*
X109729523Y-146238095D01*
X109681904Y-146380952D01*
X109110476Y-146952380D01*
X109729523Y-146952380D01*
X110634285Y-145952380D02*
X110158095Y-145952380D01*
X110110476Y-146428571D01*
X110158095Y-146380952D01*
X110253333Y-146333333D01*
X110491428Y-146333333D01*
X110586666Y-146380952D01*
X110634285Y-146428571D01*
X110681904Y-146523809D01*
X110681904Y-146761904D01*
X110634285Y-146857142D01*
X110586666Y-146904761D01*
X110491428Y-146952380D01*
X110253333Y-146952380D01*
X110158095Y-146904761D01*
X110110476Y-146857142D01*
X103904761Y-140047619D02*
X103809523Y-140000000D01*
X103714285Y-139904761D01*
X103571428Y-139761904D01*
X103476190Y-139714285D01*
X103380952Y-139714285D01*
X103428571Y-139952380D02*
X103333333Y-139904761D01*
X103238095Y-139809523D01*
X103190476Y-139619047D01*
X103190476Y-139285714D01*
X103238095Y-139095238D01*
X103333333Y-139000000D01*
X103428571Y-138952380D01*
X103619047Y-138952380D01*
X103714285Y-139000000D01*
X103809523Y-139095238D01*
X103857142Y-139285714D01*
X103857142Y-139619047D01*
X103809523Y-139809523D01*
X103714285Y-139904761D01*
X103619047Y-139952380D01*
X103428571Y-139952380D01*
X104238095Y-139047619D02*
X104285714Y-139000000D01*
X104380952Y-138952380D01*
X104619047Y-138952380D01*
X104714285Y-139000000D01*
X104761904Y-139047619D01*
X104809523Y-139142857D01*
X104809523Y-139238095D01*
X104761904Y-139380952D01*
X104190476Y-139952380D01*
X104809523Y-139952380D01*
X103904761Y-135047619D02*
X103809523Y-135000000D01*
X103714285Y-134904761D01*
X103571428Y-134761904D01*
X103476190Y-134714285D01*
X103380952Y-134714285D01*
X103428571Y-134952380D02*
X103333333Y-134904761D01*
X103238095Y-134809523D01*
X103190476Y-134619047D01*
X103190476Y-134285714D01*
X103238095Y-134095238D01*
X103333333Y-134000000D01*
X103428571Y-133952380D01*
X103619047Y-133952380D01*
X103714285Y-134000000D01*
X103809523Y-134095238D01*
X103857142Y-134285714D01*
X103857142Y-134619047D01*
X103809523Y-134809523D01*
X103714285Y-134904761D01*
X103619047Y-134952380D01*
X103428571Y-134952380D01*
X104809523Y-134952380D02*
X104238095Y-134952380D01*
X104523809Y-134952380D02*
X104523809Y-133952380D01*
X104428571Y-134095238D01*
X104333333Y-134190476D01*
X104238095Y-134238095D01*
X137684523Y-112552380D02*
X137684523Y-111552380D01*
X138351190Y-111552380D02*
X138446428Y-111552380D01*
X138541666Y-111600000D01*
X138589285Y-111647619D01*
X138636904Y-111742857D01*
X138684523Y-111933333D01*
X138684523Y-112171428D01*
X138636904Y-112361904D01*
X138589285Y-112457142D01*
X138541666Y-112504761D01*
X138446428Y-112552380D01*
X138351190Y-112552380D01*
X138255952Y-112504761D01*
X138208333Y-112457142D01*
X138160714Y-112361904D01*
X138113095Y-112171428D01*
X138113095Y-111933333D01*
X138160714Y-111742857D01*
X138208333Y-111647619D01*
X138255952Y-111600000D01*
X138351190Y-111552380D01*
X139113095Y-112457142D02*
X139160714Y-112504761D01*
X139113095Y-112552380D01*
X139065476Y-112504761D01*
X139113095Y-112457142D01*
X139113095Y-112552380D01*
X139494047Y-111552380D02*
X140113095Y-111552380D01*
X139779761Y-111933333D01*
X139922619Y-111933333D01*
X140017857Y-111980952D01*
X140065476Y-112028571D01*
X140113095Y-112123809D01*
X140113095Y-112361904D01*
X140065476Y-112457142D01*
X140017857Y-112504761D01*
X139922619Y-112552380D01*
X139636904Y-112552380D01*
X139541666Y-112504761D01*
X139494047Y-112457142D01*
X134134523Y-112602380D02*
X134134523Y-111602380D01*
X134801190Y-111602380D02*
X134896428Y-111602380D01*
X134991666Y-111650000D01*
X135039285Y-111697619D01*
X135086904Y-111792857D01*
X135134523Y-111983333D01*
X135134523Y-112221428D01*
X135086904Y-112411904D01*
X135039285Y-112507142D01*
X134991666Y-112554761D01*
X134896428Y-112602380D01*
X134801190Y-112602380D01*
X134705952Y-112554761D01*
X134658333Y-112507142D01*
X134610714Y-112411904D01*
X134563095Y-112221428D01*
X134563095Y-111983333D01*
X134610714Y-111792857D01*
X134658333Y-111697619D01*
X134705952Y-111650000D01*
X134801190Y-111602380D01*
X135563095Y-112507142D02*
X135610714Y-112554761D01*
X135563095Y-112602380D01*
X135515476Y-112554761D01*
X135563095Y-112507142D01*
X135563095Y-112602380D01*
X135991666Y-111697619D02*
X136039285Y-111650000D01*
X136134523Y-111602380D01*
X136372619Y-111602380D01*
X136467857Y-111650000D01*
X136515476Y-111697619D01*
X136563095Y-111792857D01*
X136563095Y-111888095D01*
X136515476Y-112030952D01*
X135944047Y-112602380D01*
X136563095Y-112602380D01*
X130574523Y-112622380D02*
X130574523Y-111622380D01*
X131241190Y-111622380D02*
X131336428Y-111622380D01*
X131431666Y-111670000D01*
X131479285Y-111717619D01*
X131526904Y-111812857D01*
X131574523Y-112003333D01*
X131574523Y-112241428D01*
X131526904Y-112431904D01*
X131479285Y-112527142D01*
X131431666Y-112574761D01*
X131336428Y-112622380D01*
X131241190Y-112622380D01*
X131145952Y-112574761D01*
X131098333Y-112527142D01*
X131050714Y-112431904D01*
X131003095Y-112241428D01*
X131003095Y-112003333D01*
X131050714Y-111812857D01*
X131098333Y-111717619D01*
X131145952Y-111670000D01*
X131241190Y-111622380D01*
X132003095Y-112527142D02*
X132050714Y-112574761D01*
X132003095Y-112622380D01*
X131955476Y-112574761D01*
X132003095Y-112527142D01*
X132003095Y-112622380D01*
X133003095Y-112622380D02*
X132431666Y-112622380D01*
X132717380Y-112622380D02*
X132717380Y-111622380D01*
X132622142Y-111765238D01*
X132526904Y-111860476D01*
X132431666Y-111908095D01*
X127034523Y-112652380D02*
X127034523Y-111652380D01*
X127701190Y-111652380D02*
X127796428Y-111652380D01*
X127891666Y-111700000D01*
X127939285Y-111747619D01*
X127986904Y-111842857D01*
X128034523Y-112033333D01*
X128034523Y-112271428D01*
X127986904Y-112461904D01*
X127939285Y-112557142D01*
X127891666Y-112604761D01*
X127796428Y-112652380D01*
X127701190Y-112652380D01*
X127605952Y-112604761D01*
X127558333Y-112557142D01*
X127510714Y-112461904D01*
X127463095Y-112271428D01*
X127463095Y-112033333D01*
X127510714Y-111842857D01*
X127558333Y-111747619D01*
X127605952Y-111700000D01*
X127701190Y-111652380D01*
X128463095Y-112557142D02*
X128510714Y-112604761D01*
X128463095Y-112652380D01*
X128415476Y-112604761D01*
X128463095Y-112557142D01*
X128463095Y-112652380D01*
X129129761Y-111652380D02*
X129225000Y-111652380D01*
X129320238Y-111700000D01*
X129367857Y-111747619D01*
X129415476Y-111842857D01*
X129463095Y-112033333D01*
X129463095Y-112271428D01*
X129415476Y-112461904D01*
X129367857Y-112557142D01*
X129320238Y-112604761D01*
X129225000Y-112652380D01*
X129129761Y-112652380D01*
X129034523Y-112604761D01*
X128986904Y-112557142D01*
X128939285Y-112461904D01*
X128891666Y-112271428D01*
X128891666Y-112033333D01*
X128939285Y-111842857D01*
X128986904Y-111747619D01*
X129034523Y-111700000D01*
X129129761Y-111652380D01*
X132857142Y-150952380D02*
X132523809Y-150476190D01*
X132285714Y-150952380D02*
X132285714Y-149952380D01*
X132666666Y-149952380D01*
X132761904Y-150000000D01*
X132809523Y-150047619D01*
X132857142Y-150142857D01*
X132857142Y-150285714D01*
X132809523Y-150380952D01*
X132761904Y-150428571D01*
X132666666Y-150476190D01*
X132285714Y-150476190D01*
X133190476Y-149952380D02*
X133809523Y-149952380D01*
X133476190Y-150333333D01*
X133619047Y-150333333D01*
X133714285Y-150380952D01*
X133761904Y-150428571D01*
X133809523Y-150523809D01*
X133809523Y-150761904D01*
X133761904Y-150857142D01*
X133714285Y-150904761D01*
X133619047Y-150952380D01*
X133333333Y-150952380D01*
X133238095Y-150904761D01*
X133190476Y-150857142D01*
X134142857Y-149952380D02*
X134761904Y-149952380D01*
X134428571Y-150333333D01*
X134571428Y-150333333D01*
X134666666Y-150380952D01*
X134714285Y-150428571D01*
X134761904Y-150523809D01*
X134761904Y-150761904D01*
X134714285Y-150857142D01*
X134666666Y-150904761D01*
X134571428Y-150952380D01*
X134285714Y-150952380D01*
X134190476Y-150904761D01*
X134142857Y-150857142D01*
X135952380Y-101833333D02*
X134952380Y-101833333D01*
X135666666Y-101500000D01*
X134952380Y-101166666D01*
X135952380Y-101166666D01*
X134952380Y-100500000D02*
X134952380Y-100309523D01*
X135000000Y-100214285D01*
X135095238Y-100119047D01*
X135285714Y-100071428D01*
X135619047Y-100071428D01*
X135809523Y-100119047D01*
X135904761Y-100214285D01*
X135952380Y-100309523D01*
X135952380Y-100500000D01*
X135904761Y-100595238D01*
X135809523Y-100690476D01*
X135619047Y-100738095D01*
X135285714Y-100738095D01*
X135095238Y-100690476D01*
X135000000Y-100595238D01*
X134952380Y-100500000D01*
X135857142Y-99071428D02*
X135904761Y-99119047D01*
X135952380Y-99261904D01*
X135952380Y-99357142D01*
X135904761Y-99500000D01*
X135809523Y-99595238D01*
X135714285Y-99642857D01*
X135523809Y-99690476D01*
X135380952Y-99690476D01*
X135190476Y-99642857D01*
X135095238Y-99595238D01*
X135000000Y-99500000D01*
X134952380Y-99357142D01*
X134952380Y-99261904D01*
X135000000Y-99119047D01*
X135047619Y-99071428D01*
X134952380Y-98738095D02*
X134952380Y-98119047D01*
X135333333Y-98452380D01*
X135333333Y-98309523D01*
X135380952Y-98214285D01*
X135428571Y-98166666D01*
X135523809Y-98119047D01*
X135761904Y-98119047D01*
X135857142Y-98166666D01*
X135904761Y-98214285D01*
X135952380Y-98309523D01*
X135952380Y-98595238D01*
X135904761Y-98690476D01*
X135857142Y-98738095D01*
X134952380Y-97500000D02*
X134952380Y-97404761D01*
X135000000Y-97309523D01*
X135047619Y-97261904D01*
X135142857Y-97214285D01*
X135333333Y-97166666D01*
X135571428Y-97166666D01*
X135761904Y-97214285D01*
X135857142Y-97261904D01*
X135904761Y-97309523D01*
X135952380Y-97404761D01*
X135952380Y-97500000D01*
X135904761Y-97595238D01*
X135857142Y-97642857D01*
X135761904Y-97690476D01*
X135571428Y-97738095D01*
X135333333Y-97738095D01*
X135142857Y-97690476D01*
X135047619Y-97642857D01*
X135000000Y-97595238D01*
X134952380Y-97500000D01*
X135047619Y-96785714D02*
X135000000Y-96738095D01*
X134952380Y-96642857D01*
X134952380Y-96404761D01*
X135000000Y-96309523D01*
X135047619Y-96261904D01*
X135142857Y-96214285D01*
X135238095Y-96214285D01*
X135380952Y-96261904D01*
X135952380Y-96833333D01*
X135952380Y-96214285D01*
X135952380Y-95261904D02*
X135952380Y-95833333D01*
X135952380Y-95547619D02*
X134952380Y-95547619D01*
X135095238Y-95642857D01*
X135190476Y-95738095D01*
X135238095Y-95833333D01*
X135952380Y-94833333D02*
X134952380Y-94833333D01*
X135666666Y-94500000D01*
X134952380Y-94166666D01*
X135952380Y-94166666D01*
X116952380Y-111440476D02*
X115952380Y-111440476D01*
X115952380Y-111059523D01*
X116000000Y-110964285D01*
X116047619Y-110916666D01*
X116142857Y-110869047D01*
X116285714Y-110869047D01*
X116380952Y-110916666D01*
X116428571Y-110964285D01*
X116476190Y-111059523D01*
X116476190Y-111440476D01*
X116857142Y-109869047D02*
X116904761Y-109916666D01*
X116952380Y-110059523D01*
X116952380Y-110154761D01*
X116904761Y-110297619D01*
X116809523Y-110392857D01*
X116714285Y-110440476D01*
X116523809Y-110488095D01*
X116380952Y-110488095D01*
X116190476Y-110440476D01*
X116095238Y-110392857D01*
X116000000Y-110297619D01*
X115952380Y-110154761D01*
X115952380Y-110059523D01*
X116000000Y-109916666D01*
X116047619Y-109869047D01*
X116380952Y-109297619D02*
X116333333Y-109392857D01*
X116285714Y-109440476D01*
X116190476Y-109488095D01*
X116142857Y-109488095D01*
X116047619Y-109440476D01*
X116000000Y-109392857D01*
X115952380Y-109297619D01*
X115952380Y-109107142D01*
X116000000Y-109011904D01*
X116047619Y-108964285D01*
X116142857Y-108916666D01*
X116190476Y-108916666D01*
X116285714Y-108964285D01*
X116333333Y-109011904D01*
X116380952Y-109107142D01*
X116380952Y-109297619D01*
X116428571Y-109392857D01*
X116476190Y-109440476D01*
X116571428Y-109488095D01*
X116761904Y-109488095D01*
X116857142Y-109440476D01*
X116904761Y-109392857D01*
X116952380Y-109297619D01*
X116952380Y-109107142D01*
X116904761Y-109011904D01*
X116857142Y-108964285D01*
X116761904Y-108916666D01*
X116571428Y-108916666D01*
X116476190Y-108964285D01*
X116428571Y-109011904D01*
X116380952Y-109107142D01*
X116952380Y-107964285D02*
X116952380Y-108535714D01*
X116952380Y-108250000D02*
X115952380Y-108250000D01*
X116095238Y-108345238D01*
X116190476Y-108440476D01*
X116238095Y-108535714D01*
X115952380Y-107630952D02*
X115952380Y-106964285D01*
X116952380Y-107392857D01*
X154857142Y-122452380D02*
X154523809Y-121976190D01*
X154285714Y-122452380D02*
X154285714Y-121452380D01*
X154666666Y-121452380D01*
X154761904Y-121500000D01*
X154809523Y-121547619D01*
X154857142Y-121642857D01*
X154857142Y-121785714D01*
X154809523Y-121880952D01*
X154761904Y-121928571D01*
X154666666Y-121976190D01*
X154285714Y-121976190D01*
X155190476Y-121452380D02*
X155809523Y-121452380D01*
X155476190Y-121833333D01*
X155619047Y-121833333D01*
X155714285Y-121880952D01*
X155761904Y-121928571D01*
X155809523Y-122023809D01*
X155809523Y-122261904D01*
X155761904Y-122357142D01*
X155714285Y-122404761D01*
X155619047Y-122452380D01*
X155333333Y-122452380D01*
X155238095Y-122404761D01*
X155190476Y-122357142D01*
X156380952Y-121880952D02*
X156285714Y-121833333D01*
X156238095Y-121785714D01*
X156190476Y-121690476D01*
X156190476Y-121642857D01*
X156238095Y-121547619D01*
X156285714Y-121500000D01*
X156380952Y-121452380D01*
X156571428Y-121452380D01*
X156666666Y-121500000D01*
X156714285Y-121547619D01*
X156761904Y-121642857D01*
X156761904Y-121690476D01*
X156714285Y-121785714D01*
X156666666Y-121833333D01*
X156571428Y-121880952D01*
X156380952Y-121880952D01*
X156285714Y-121928571D01*
X156238095Y-121976190D01*
X156190476Y-122071428D01*
X156190476Y-122261904D01*
X156238095Y-122357142D01*
X156285714Y-122404761D01*
X156380952Y-122452380D01*
X156571428Y-122452380D01*
X156666666Y-122404761D01*
X156714285Y-122357142D01*
X156761904Y-122261904D01*
X156761904Y-122071428D01*
X156714285Y-121976190D01*
X156666666Y-121928571D01*
X156571428Y-121880952D01*
X159357142Y-122452380D02*
X159023809Y-121976190D01*
X158785714Y-122452380D02*
X158785714Y-121452380D01*
X159166666Y-121452380D01*
X159261904Y-121500000D01*
X159309523Y-121547619D01*
X159357142Y-121642857D01*
X159357142Y-121785714D01*
X159309523Y-121880952D01*
X159261904Y-121928571D01*
X159166666Y-121976190D01*
X158785714Y-121976190D01*
X159690476Y-121452380D02*
X160309523Y-121452380D01*
X159976190Y-121833333D01*
X160119047Y-121833333D01*
X160214285Y-121880952D01*
X160261904Y-121928571D01*
X160309523Y-122023809D01*
X160309523Y-122261904D01*
X160261904Y-122357142D01*
X160214285Y-122404761D01*
X160119047Y-122452380D01*
X159833333Y-122452380D01*
X159738095Y-122404761D01*
X159690476Y-122357142D01*
X160642857Y-121452380D02*
X161309523Y-121452380D01*
X160880952Y-122452380D01*
X145857142Y-151002380D02*
X145523809Y-150526190D01*
X145285714Y-151002380D02*
X145285714Y-150002380D01*
X145666666Y-150002380D01*
X145761904Y-150050000D01*
X145809523Y-150097619D01*
X145857142Y-150192857D01*
X145857142Y-150335714D01*
X145809523Y-150430952D01*
X145761904Y-150478571D01*
X145666666Y-150526190D01*
X145285714Y-150526190D01*
X146190476Y-150002380D02*
X146809523Y-150002380D01*
X146476190Y-150383333D01*
X146619047Y-150383333D01*
X146714285Y-150430952D01*
X146761904Y-150478571D01*
X146809523Y-150573809D01*
X146809523Y-150811904D01*
X146761904Y-150907142D01*
X146714285Y-150954761D01*
X146619047Y-151002380D01*
X146333333Y-151002380D01*
X146238095Y-150954761D01*
X146190476Y-150907142D01*
X147666666Y-150002380D02*
X147476190Y-150002380D01*
X147380952Y-150050000D01*
X147333333Y-150097619D01*
X147238095Y-150240476D01*
X147190476Y-150430952D01*
X147190476Y-150811904D01*
X147238095Y-150907142D01*
X147285714Y-150954761D01*
X147380952Y-151002380D01*
X147571428Y-151002380D01*
X147666666Y-150954761D01*
X147714285Y-150907142D01*
X147761904Y-150811904D01*
X147761904Y-150573809D01*
X147714285Y-150478571D01*
X147666666Y-150430952D01*
X147571428Y-150383333D01*
X147380952Y-150383333D01*
X147285714Y-150430952D01*
X147238095Y-150478571D01*
X147190476Y-150573809D01*
X159897142Y-145952380D02*
X159563809Y-145476190D01*
X159325714Y-145952380D02*
X159325714Y-144952380D01*
X159706666Y-144952380D01*
X159801904Y-145000000D01*
X159849523Y-145047619D01*
X159897142Y-145142857D01*
X159897142Y-145285714D01*
X159849523Y-145380952D01*
X159801904Y-145428571D01*
X159706666Y-145476190D01*
X159325714Y-145476190D01*
X160230476Y-144952380D02*
X160849523Y-144952380D01*
X160516190Y-145333333D01*
X160659047Y-145333333D01*
X160754285Y-145380952D01*
X160801904Y-145428571D01*
X160849523Y-145523809D01*
X160849523Y-145761904D01*
X160801904Y-145857142D01*
X160754285Y-145904761D01*
X160659047Y-145952380D01*
X160373333Y-145952380D01*
X160278095Y-145904761D01*
X160230476Y-145857142D01*
X161754285Y-144952380D02*
X161278095Y-144952380D01*
X161230476Y-145428571D01*
X161278095Y-145380952D01*
X161373333Y-145333333D01*
X161611428Y-145333333D01*
X161706666Y-145380952D01*
X161754285Y-145428571D01*
X161801904Y-145523809D01*
X161801904Y-145761904D01*
X161754285Y-145857142D01*
X161706666Y-145904761D01*
X161611428Y-145952380D01*
X161373333Y-145952380D01*
X161278095Y-145904761D01*
X161230476Y-145857142D01*
X159857142Y-149352380D02*
X159523809Y-148876190D01*
X159285714Y-149352380D02*
X159285714Y-148352380D01*
X159666666Y-148352380D01*
X159761904Y-148400000D01*
X159809523Y-148447619D01*
X159857142Y-148542857D01*
X159857142Y-148685714D01*
X159809523Y-148780952D01*
X159761904Y-148828571D01*
X159666666Y-148876190D01*
X159285714Y-148876190D01*
X160190476Y-148352380D02*
X160809523Y-148352380D01*
X160476190Y-148733333D01*
X160619047Y-148733333D01*
X160714285Y-148780952D01*
X160761904Y-148828571D01*
X160809523Y-148923809D01*
X160809523Y-149161904D01*
X160761904Y-149257142D01*
X160714285Y-149304761D01*
X160619047Y-149352380D01*
X160333333Y-149352380D01*
X160238095Y-149304761D01*
X160190476Y-149257142D01*
X161190476Y-148447619D02*
X161238095Y-148400000D01*
X161333333Y-148352380D01*
X161571428Y-148352380D01*
X161666666Y-148400000D01*
X161714285Y-148447619D01*
X161761904Y-148542857D01*
X161761904Y-148638095D01*
X161714285Y-148780952D01*
X161142857Y-149352380D01*
X161761904Y-149352380D01*
X119757142Y-151127380D02*
X119423809Y-150651190D01*
X119185714Y-151127380D02*
X119185714Y-150127380D01*
X119566666Y-150127380D01*
X119661904Y-150175000D01*
X119709523Y-150222619D01*
X119757142Y-150317857D01*
X119757142Y-150460714D01*
X119709523Y-150555952D01*
X119661904Y-150603571D01*
X119566666Y-150651190D01*
X119185714Y-150651190D01*
X120090476Y-150127380D02*
X120709523Y-150127380D01*
X120376190Y-150508333D01*
X120519047Y-150508333D01*
X120614285Y-150555952D01*
X120661904Y-150603571D01*
X120709523Y-150698809D01*
X120709523Y-150936904D01*
X120661904Y-151032142D01*
X120614285Y-151079761D01*
X120519047Y-151127380D01*
X120233333Y-151127380D01*
X120138095Y-151079761D01*
X120090476Y-151032142D01*
X121661904Y-151127380D02*
X121090476Y-151127380D01*
X121376190Y-151127380D02*
X121376190Y-150127380D01*
X121280952Y-150270238D01*
X121185714Y-150365476D01*
X121090476Y-150413095D01*
X155337142Y-145802380D02*
X155003809Y-145326190D01*
X154765714Y-145802380D02*
X154765714Y-144802380D01*
X155146666Y-144802380D01*
X155241904Y-144850000D01*
X155289523Y-144897619D01*
X155337142Y-144992857D01*
X155337142Y-145135714D01*
X155289523Y-145230952D01*
X155241904Y-145278571D01*
X155146666Y-145326190D01*
X154765714Y-145326190D01*
X155670476Y-144802380D02*
X156289523Y-144802380D01*
X155956190Y-145183333D01*
X156099047Y-145183333D01*
X156194285Y-145230952D01*
X156241904Y-145278571D01*
X156289523Y-145373809D01*
X156289523Y-145611904D01*
X156241904Y-145707142D01*
X156194285Y-145754761D01*
X156099047Y-145802380D01*
X155813333Y-145802380D01*
X155718095Y-145754761D01*
X155670476Y-145707142D01*
X156908571Y-144802380D02*
X157003809Y-144802380D01*
X157099047Y-144850000D01*
X157146666Y-144897619D01*
X157194285Y-144992857D01*
X157241904Y-145183333D01*
X157241904Y-145421428D01*
X157194285Y-145611904D01*
X157146666Y-145707142D01*
X157099047Y-145754761D01*
X157003809Y-145802380D01*
X156908571Y-145802380D01*
X156813333Y-145754761D01*
X156765714Y-145707142D01*
X156718095Y-145611904D01*
X156670476Y-145421428D01*
X156670476Y-145183333D01*
X156718095Y-144992857D01*
X156765714Y-144897619D01*
X156813333Y-144850000D01*
X156908571Y-144802380D01*
X155357142Y-149452380D02*
X155023809Y-148976190D01*
X154785714Y-149452380D02*
X154785714Y-148452380D01*
X155166666Y-148452380D01*
X155261904Y-148500000D01*
X155309523Y-148547619D01*
X155357142Y-148642857D01*
X155357142Y-148785714D01*
X155309523Y-148880952D01*
X155261904Y-148928571D01*
X155166666Y-148976190D01*
X154785714Y-148976190D01*
X155738095Y-148547619D02*
X155785714Y-148500000D01*
X155880952Y-148452380D01*
X156119047Y-148452380D01*
X156214285Y-148500000D01*
X156261904Y-148547619D01*
X156309523Y-148642857D01*
X156309523Y-148738095D01*
X156261904Y-148880952D01*
X155690476Y-149452380D01*
X156309523Y-149452380D01*
X156880952Y-148880952D02*
X156785714Y-148833333D01*
X156738095Y-148785714D01*
X156690476Y-148690476D01*
X156690476Y-148642857D01*
X156738095Y-148547619D01*
X156785714Y-148500000D01*
X156880952Y-148452380D01*
X157071428Y-148452380D01*
X157166666Y-148500000D01*
X157214285Y-148547619D01*
X157261904Y-148642857D01*
X157261904Y-148690476D01*
X157214285Y-148785714D01*
X157166666Y-148833333D01*
X157071428Y-148880952D01*
X156880952Y-148880952D01*
X156785714Y-148928571D01*
X156738095Y-148976190D01*
X156690476Y-149071428D01*
X156690476Y-149261904D01*
X156738095Y-149357142D01*
X156785714Y-149404761D01*
X156880952Y-149452380D01*
X157071428Y-149452380D01*
X157166666Y-149404761D01*
X157214285Y-149357142D01*
X157261904Y-149261904D01*
X157261904Y-149071428D01*
X157214285Y-148976190D01*
X157166666Y-148928571D01*
X157071428Y-148880952D01*
X106777142Y-151077380D02*
X106443809Y-150601190D01*
X106205714Y-151077380D02*
X106205714Y-150077380D01*
X106586666Y-150077380D01*
X106681904Y-150125000D01*
X106729523Y-150172619D01*
X106777142Y-150267857D01*
X106777142Y-150410714D01*
X106729523Y-150505952D01*
X106681904Y-150553571D01*
X106586666Y-150601190D01*
X106205714Y-150601190D01*
X107158095Y-150172619D02*
X107205714Y-150125000D01*
X107300952Y-150077380D01*
X107539047Y-150077380D01*
X107634285Y-150125000D01*
X107681904Y-150172619D01*
X107729523Y-150267857D01*
X107729523Y-150363095D01*
X107681904Y-150505952D01*
X107110476Y-151077380D01*
X107729523Y-151077380D01*
X108062857Y-150077380D02*
X108729523Y-150077380D01*
X108300952Y-151077380D01*
X162052380Y-84622857D02*
X161576190Y-84956190D01*
X162052380Y-85194285D02*
X161052380Y-85194285D01*
X161052380Y-84813333D01*
X161100000Y-84718095D01*
X161147619Y-84670476D01*
X161242857Y-84622857D01*
X161385714Y-84622857D01*
X161480952Y-84670476D01*
X161528571Y-84718095D01*
X161576190Y-84813333D01*
X161576190Y-85194285D01*
X161147619Y-84241904D02*
X161100000Y-84194285D01*
X161052380Y-84099047D01*
X161052380Y-83860952D01*
X161100000Y-83765714D01*
X161147619Y-83718095D01*
X161242857Y-83670476D01*
X161338095Y-83670476D01*
X161480952Y-83718095D01*
X162052380Y-84289523D01*
X162052380Y-83670476D01*
X161052380Y-82813333D02*
X161052380Y-83003809D01*
X161100000Y-83099047D01*
X161147619Y-83146666D01*
X161290476Y-83241904D01*
X161480952Y-83289523D01*
X161861904Y-83289523D01*
X161957142Y-83241904D01*
X162004761Y-83194285D01*
X162052380Y-83099047D01*
X162052380Y-82908571D01*
X162004761Y-82813333D01*
X161957142Y-82765714D01*
X161861904Y-82718095D01*
X161623809Y-82718095D01*
X161528571Y-82765714D01*
X161480952Y-82813333D01*
X161433333Y-82908571D01*
X161433333Y-83099047D01*
X161480952Y-83194285D01*
X161528571Y-83241904D01*
X161623809Y-83289523D01*
X152052380Y-84842857D02*
X151576190Y-85176190D01*
X152052380Y-85414285D02*
X151052380Y-85414285D01*
X151052380Y-85033333D01*
X151100000Y-84938095D01*
X151147619Y-84890476D01*
X151242857Y-84842857D01*
X151385714Y-84842857D01*
X151480952Y-84890476D01*
X151528571Y-84938095D01*
X151576190Y-85033333D01*
X151576190Y-85414285D01*
X151147619Y-84461904D02*
X151100000Y-84414285D01*
X151052380Y-84319047D01*
X151052380Y-84080952D01*
X151100000Y-83985714D01*
X151147619Y-83938095D01*
X151242857Y-83890476D01*
X151338095Y-83890476D01*
X151480952Y-83938095D01*
X152052380Y-84509523D01*
X152052380Y-83890476D01*
X151052380Y-82985714D02*
X151052380Y-83461904D01*
X151528571Y-83509523D01*
X151480952Y-83461904D01*
X151433333Y-83366666D01*
X151433333Y-83128571D01*
X151480952Y-83033333D01*
X151528571Y-82985714D01*
X151623809Y-82938095D01*
X151861904Y-82938095D01*
X151957142Y-82985714D01*
X152004761Y-83033333D01*
X152052380Y-83128571D01*
X152052380Y-83366666D01*
X152004761Y-83461904D01*
X151957142Y-83509523D01*
X142152380Y-85142857D02*
X141676190Y-85476190D01*
X142152380Y-85714285D02*
X141152380Y-85714285D01*
X141152380Y-85333333D01*
X141200000Y-85238095D01*
X141247619Y-85190476D01*
X141342857Y-85142857D01*
X141485714Y-85142857D01*
X141580952Y-85190476D01*
X141628571Y-85238095D01*
X141676190Y-85333333D01*
X141676190Y-85714285D01*
X141247619Y-84761904D02*
X141200000Y-84714285D01*
X141152380Y-84619047D01*
X141152380Y-84380952D01*
X141200000Y-84285714D01*
X141247619Y-84238095D01*
X141342857Y-84190476D01*
X141438095Y-84190476D01*
X141580952Y-84238095D01*
X142152380Y-84809523D01*
X142152380Y-84190476D01*
X141247619Y-83809523D02*
X141200000Y-83761904D01*
X141152380Y-83666666D01*
X141152380Y-83428571D01*
X141200000Y-83333333D01*
X141247619Y-83285714D01*
X141342857Y-83238095D01*
X141438095Y-83238095D01*
X141580952Y-83285714D01*
X142152380Y-83857142D01*
X142152380Y-83238095D01*
X132952380Y-84947857D02*
X132476190Y-85281190D01*
X132952380Y-85519285D02*
X131952380Y-85519285D01*
X131952380Y-85138333D01*
X132000000Y-85043095D01*
X132047619Y-84995476D01*
X132142857Y-84947857D01*
X132285714Y-84947857D01*
X132380952Y-84995476D01*
X132428571Y-85043095D01*
X132476190Y-85138333D01*
X132476190Y-85519285D01*
X132047619Y-84566904D02*
X132000000Y-84519285D01*
X131952380Y-84424047D01*
X131952380Y-84185952D01*
X132000000Y-84090714D01*
X132047619Y-84043095D01*
X132142857Y-83995476D01*
X132238095Y-83995476D01*
X132380952Y-84043095D01*
X132952380Y-84614523D01*
X132952380Y-83995476D01*
X132952380Y-83043095D02*
X132952380Y-83614523D01*
X132952380Y-83328809D02*
X131952380Y-83328809D01*
X132095238Y-83424047D01*
X132190476Y-83519285D01*
X132238095Y-83614523D01*
X171952380Y-84522857D02*
X171476190Y-84856190D01*
X171952380Y-85094285D02*
X170952380Y-85094285D01*
X170952380Y-84713333D01*
X171000000Y-84618095D01*
X171047619Y-84570476D01*
X171142857Y-84522857D01*
X171285714Y-84522857D01*
X171380952Y-84570476D01*
X171428571Y-84618095D01*
X171476190Y-84713333D01*
X171476190Y-85094285D01*
X171047619Y-84141904D02*
X171000000Y-84094285D01*
X170952380Y-83999047D01*
X170952380Y-83760952D01*
X171000000Y-83665714D01*
X171047619Y-83618095D01*
X171142857Y-83570476D01*
X171238095Y-83570476D01*
X171380952Y-83618095D01*
X171952380Y-84189523D01*
X171952380Y-83570476D01*
X170952380Y-82951428D02*
X170952380Y-82856190D01*
X171000000Y-82760952D01*
X171047619Y-82713333D01*
X171142857Y-82665714D01*
X171333333Y-82618095D01*
X171571428Y-82618095D01*
X171761904Y-82665714D01*
X171857142Y-82713333D01*
X171904761Y-82760952D01*
X171952380Y-82856190D01*
X171952380Y-82951428D01*
X171904761Y-83046666D01*
X171857142Y-83094285D01*
X171761904Y-83141904D01*
X171571428Y-83189523D01*
X171333333Y-83189523D01*
X171142857Y-83141904D01*
X171047619Y-83094285D01*
X171000000Y-83046666D01*
X170952380Y-82951428D01*
X108357142Y-133452380D02*
X108023809Y-132976190D01*
X107785714Y-133452380D02*
X107785714Y-132452380D01*
X108166666Y-132452380D01*
X108261904Y-132500000D01*
X108309523Y-132547619D01*
X108357142Y-132642857D01*
X108357142Y-132785714D01*
X108309523Y-132880952D01*
X108261904Y-132928571D01*
X108166666Y-132976190D01*
X107785714Y-132976190D01*
X109309523Y-133452380D02*
X108738095Y-133452380D01*
X109023809Y-133452380D02*
X109023809Y-132452380D01*
X108928571Y-132595238D01*
X108833333Y-132690476D01*
X108738095Y-132738095D01*
X109928571Y-132452380D02*
X110023809Y-132452380D01*
X110119047Y-132500000D01*
X110166666Y-132547619D01*
X110214285Y-132642857D01*
X110261904Y-132833333D01*
X110261904Y-133071428D01*
X110214285Y-133261904D01*
X110166666Y-133357142D01*
X110119047Y-133404761D01*
X110023809Y-133452380D01*
X109928571Y-133452380D01*
X109833333Y-133404761D01*
X109785714Y-133357142D01*
X109738095Y-133261904D01*
X109690476Y-133071428D01*
X109690476Y-132833333D01*
X109738095Y-132642857D01*
X109785714Y-132547619D01*
X109833333Y-132500000D01*
X109928571Y-132452380D01*
X108833333Y-129952380D02*
X108500000Y-129476190D01*
X108261904Y-129952380D02*
X108261904Y-128952380D01*
X108642857Y-128952380D01*
X108738095Y-129000000D01*
X108785714Y-129047619D01*
X108833333Y-129142857D01*
X108833333Y-129285714D01*
X108785714Y-129380952D01*
X108738095Y-129428571D01*
X108642857Y-129476190D01*
X108261904Y-129476190D01*
X109309523Y-129952380D02*
X109500000Y-129952380D01*
X109595238Y-129904761D01*
X109642857Y-129857142D01*
X109738095Y-129714285D01*
X109785714Y-129523809D01*
X109785714Y-129142857D01*
X109738095Y-129047619D01*
X109690476Y-129000000D01*
X109595238Y-128952380D01*
X109404761Y-128952380D01*
X109309523Y-129000000D01*
X109261904Y-129047619D01*
X109214285Y-129142857D01*
X109214285Y-129380952D01*
X109261904Y-129476190D01*
X109309523Y-129523809D01*
X109404761Y-129571428D01*
X109595238Y-129571428D01*
X109690476Y-129523809D01*
X109738095Y-129476190D01*
X109785714Y-129380952D01*
X99333333Y-116452380D02*
X99000000Y-115976190D01*
X98761904Y-116452380D02*
X98761904Y-115452380D01*
X99142857Y-115452380D01*
X99238095Y-115500000D01*
X99285714Y-115547619D01*
X99333333Y-115642857D01*
X99333333Y-115785714D01*
X99285714Y-115880952D01*
X99238095Y-115928571D01*
X99142857Y-115976190D01*
X98761904Y-115976190D01*
X99904761Y-115880952D02*
X99809523Y-115833333D01*
X99761904Y-115785714D01*
X99714285Y-115690476D01*
X99714285Y-115642857D01*
X99761904Y-115547619D01*
X99809523Y-115500000D01*
X99904761Y-115452380D01*
X100095238Y-115452380D01*
X100190476Y-115500000D01*
X100238095Y-115547619D01*
X100285714Y-115642857D01*
X100285714Y-115690476D01*
X100238095Y-115785714D01*
X100190476Y-115833333D01*
X100095238Y-115880952D01*
X99904761Y-115880952D01*
X99809523Y-115928571D01*
X99761904Y-115976190D01*
X99714285Y-116071428D01*
X99714285Y-116261904D01*
X99761904Y-116357142D01*
X99809523Y-116404761D01*
X99904761Y-116452380D01*
X100095238Y-116452380D01*
X100190476Y-116404761D01*
X100238095Y-116357142D01*
X100285714Y-116261904D01*
X100285714Y-116071428D01*
X100238095Y-115976190D01*
X100190476Y-115928571D01*
X100095238Y-115880952D01*
X103333333Y-116452380D02*
X103000000Y-115976190D01*
X102761904Y-116452380D02*
X102761904Y-115452380D01*
X103142857Y-115452380D01*
X103238095Y-115500000D01*
X103285714Y-115547619D01*
X103333333Y-115642857D01*
X103333333Y-115785714D01*
X103285714Y-115880952D01*
X103238095Y-115928571D01*
X103142857Y-115976190D01*
X102761904Y-115976190D01*
X103666666Y-115452380D02*
X104333333Y-115452380D01*
X103904761Y-116452380D01*
X129547619Y-100325238D02*
X129500000Y-100420476D01*
X129404761Y-100515714D01*
X129261904Y-100658571D01*
X129214285Y-100753809D01*
X129214285Y-100849047D01*
X129452380Y-100801428D02*
X129404761Y-100896666D01*
X129309523Y-100991904D01*
X129119047Y-101039523D01*
X128785714Y-101039523D01*
X128595238Y-100991904D01*
X128500000Y-100896666D01*
X128452380Y-100801428D01*
X128452380Y-100610952D01*
X128500000Y-100515714D01*
X128595238Y-100420476D01*
X128785714Y-100372857D01*
X129119047Y-100372857D01*
X129309523Y-100420476D01*
X129404761Y-100515714D01*
X129452380Y-100610952D01*
X129452380Y-100801428D01*
X128452380Y-99468095D02*
X128452380Y-99944285D01*
X128928571Y-99991904D01*
X128880952Y-99944285D01*
X128833333Y-99849047D01*
X128833333Y-99610952D01*
X128880952Y-99515714D01*
X128928571Y-99468095D01*
X129023809Y-99420476D01*
X129261904Y-99420476D01*
X129357142Y-99468095D01*
X129404761Y-99515714D01*
X129452380Y-99610952D01*
X129452380Y-99849047D01*
X129404761Y-99944285D01*
X129357142Y-99991904D01*
X112047619Y-100325238D02*
X112000000Y-100420476D01*
X111904761Y-100515714D01*
X111761904Y-100658571D01*
X111714285Y-100753809D01*
X111714285Y-100849047D01*
X111952380Y-100801428D02*
X111904761Y-100896666D01*
X111809523Y-100991904D01*
X111619047Y-101039523D01*
X111285714Y-101039523D01*
X111095238Y-100991904D01*
X111000000Y-100896666D01*
X110952380Y-100801428D01*
X110952380Y-100610952D01*
X111000000Y-100515714D01*
X111095238Y-100420476D01*
X111285714Y-100372857D01*
X111619047Y-100372857D01*
X111809523Y-100420476D01*
X111904761Y-100515714D01*
X111952380Y-100610952D01*
X111952380Y-100801428D01*
X111285714Y-99515714D02*
X111952380Y-99515714D01*
X110904761Y-99753809D02*
X111619047Y-99991904D01*
X111619047Y-99372857D01*
X95547619Y-100325238D02*
X95500000Y-100420476D01*
X95404761Y-100515714D01*
X95261904Y-100658571D01*
X95214285Y-100753809D01*
X95214285Y-100849047D01*
X95452380Y-100801428D02*
X95404761Y-100896666D01*
X95309523Y-100991904D01*
X95119047Y-101039523D01*
X94785714Y-101039523D01*
X94595238Y-100991904D01*
X94500000Y-100896666D01*
X94452380Y-100801428D01*
X94452380Y-100610952D01*
X94500000Y-100515714D01*
X94595238Y-100420476D01*
X94785714Y-100372857D01*
X95119047Y-100372857D01*
X95309523Y-100420476D01*
X95404761Y-100515714D01*
X95452380Y-100610952D01*
X95452380Y-100801428D01*
X94452380Y-100039523D02*
X94452380Y-99420476D01*
X94833333Y-99753809D01*
X94833333Y-99610952D01*
X94880952Y-99515714D01*
X94928571Y-99468095D01*
X95023809Y-99420476D01*
X95261904Y-99420476D01*
X95357142Y-99468095D01*
X95404761Y-99515714D01*
X95452380Y-99610952D01*
X95452380Y-99896666D01*
X95404761Y-99991904D01*
X95357142Y-100039523D01*
X158757380Y-136919285D02*
X157757380Y-136919285D01*
X157757380Y-136681190D01*
X157805000Y-136538333D01*
X157900238Y-136443095D01*
X157995476Y-136395476D01*
X158185952Y-136347857D01*
X158328809Y-136347857D01*
X158519285Y-136395476D01*
X158614523Y-136443095D01*
X158709761Y-136538333D01*
X158757380Y-136681190D01*
X158757380Y-136919285D01*
X157852619Y-135966904D02*
X157805000Y-135919285D01*
X157757380Y-135824047D01*
X157757380Y-135585952D01*
X157805000Y-135490714D01*
X157852619Y-135443095D01*
X157947857Y-135395476D01*
X158043095Y-135395476D01*
X158185952Y-135443095D01*
X158757380Y-136014523D01*
X158757380Y-135395476D01*
X157757380Y-135062142D02*
X157757380Y-134443095D01*
X158138333Y-134776428D01*
X158138333Y-134633571D01*
X158185952Y-134538333D01*
X158233571Y-134490714D01*
X158328809Y-134443095D01*
X158566904Y-134443095D01*
X158662142Y-134490714D01*
X158709761Y-134538333D01*
X158757380Y-134633571D01*
X158757380Y-134919285D01*
X158709761Y-135014523D01*
X158662142Y-135062142D01*
X154702380Y-137134285D02*
X153702380Y-137134285D01*
X153702380Y-136896190D01*
X153750000Y-136753333D01*
X153845238Y-136658095D01*
X153940476Y-136610476D01*
X154130952Y-136562857D01*
X154273809Y-136562857D01*
X154464285Y-136610476D01*
X154559523Y-136658095D01*
X154654761Y-136753333D01*
X154702380Y-136896190D01*
X154702380Y-137134285D01*
X153797619Y-136181904D02*
X153750000Y-136134285D01*
X153702380Y-136039047D01*
X153702380Y-135800952D01*
X153750000Y-135705714D01*
X153797619Y-135658095D01*
X153892857Y-135610476D01*
X153988095Y-135610476D01*
X154130952Y-135658095D01*
X154702380Y-136229523D01*
X154702380Y-135610476D01*
X154702380Y-134658095D02*
X154702380Y-135229523D01*
X154702380Y-134943809D02*
X153702380Y-134943809D01*
X153845238Y-135039047D01*
X153940476Y-135134285D01*
X153988095Y-135229523D01*
X141990476Y-108922619D02*
X141895238Y-108875000D01*
X141800000Y-108779761D01*
X141657142Y-108636904D01*
X141561904Y-108589285D01*
X141466666Y-108589285D01*
X141514285Y-108827380D02*
X141419047Y-108779761D01*
X141323809Y-108684523D01*
X141276190Y-108494047D01*
X141276190Y-108160714D01*
X141323809Y-107970238D01*
X141419047Y-107875000D01*
X141514285Y-107827380D01*
X141704761Y-107827380D01*
X141800000Y-107875000D01*
X141895238Y-107970238D01*
X141942857Y-108160714D01*
X141942857Y-108494047D01*
X141895238Y-108684523D01*
X141800000Y-108779761D01*
X141704761Y-108827380D01*
X141514285Y-108827380D01*
X142561904Y-107827380D02*
X142657142Y-107827380D01*
X142752380Y-107875000D01*
X142800000Y-107922619D01*
X142847619Y-108017857D01*
X142895238Y-108208333D01*
X142895238Y-108446428D01*
X142847619Y-108636904D01*
X142800000Y-108732142D01*
X142752380Y-108779761D01*
X142657142Y-108827380D01*
X142561904Y-108827380D01*
X142466666Y-108779761D01*
X142419047Y-108732142D01*
X142371428Y-108636904D01*
X142323809Y-108446428D01*
X142323809Y-108208333D01*
X142371428Y-108017857D01*
X142419047Y-107922619D01*
X142466666Y-107875000D01*
X142561904Y-107827380D01*
X143323809Y-108732142D02*
X143371428Y-108779761D01*
X143323809Y-108827380D01*
X143276190Y-108779761D01*
X143323809Y-108732142D01*
X143323809Y-108827380D01*
X144228571Y-107827380D02*
X144038095Y-107827380D01*
X143942857Y-107875000D01*
X143895238Y-107922619D01*
X143800000Y-108065476D01*
X143752380Y-108255952D01*
X143752380Y-108636904D01*
X143800000Y-108732142D01*
X143847619Y-108779761D01*
X143942857Y-108827380D01*
X144133333Y-108827380D01*
X144228571Y-108779761D01*
X144276190Y-108732142D01*
X144323809Y-108636904D01*
X144323809Y-108398809D01*
X144276190Y-108303571D01*
X144228571Y-108255952D01*
X144133333Y-108208333D01*
X143942857Y-108208333D01*
X143847619Y-108255952D01*
X143800000Y-108303571D01*
X143752380Y-108398809D01*
X138365476Y-108897619D02*
X138270238Y-108850000D01*
X138175000Y-108754761D01*
X138032142Y-108611904D01*
X137936904Y-108564285D01*
X137841666Y-108564285D01*
X137889285Y-108802380D02*
X137794047Y-108754761D01*
X137698809Y-108659523D01*
X137651190Y-108469047D01*
X137651190Y-108135714D01*
X137698809Y-107945238D01*
X137794047Y-107850000D01*
X137889285Y-107802380D01*
X138079761Y-107802380D01*
X138175000Y-107850000D01*
X138270238Y-107945238D01*
X138317857Y-108135714D01*
X138317857Y-108469047D01*
X138270238Y-108659523D01*
X138175000Y-108754761D01*
X138079761Y-108802380D01*
X137889285Y-108802380D01*
X138936904Y-107802380D02*
X139032142Y-107802380D01*
X139127380Y-107850000D01*
X139175000Y-107897619D01*
X139222619Y-107992857D01*
X139270238Y-108183333D01*
X139270238Y-108421428D01*
X139222619Y-108611904D01*
X139175000Y-108707142D01*
X139127380Y-108754761D01*
X139032142Y-108802380D01*
X138936904Y-108802380D01*
X138841666Y-108754761D01*
X138794047Y-108707142D01*
X138746428Y-108611904D01*
X138698809Y-108421428D01*
X138698809Y-108183333D01*
X138746428Y-107992857D01*
X138794047Y-107897619D01*
X138841666Y-107850000D01*
X138936904Y-107802380D01*
X139698809Y-108707142D02*
X139746428Y-108754761D01*
X139698809Y-108802380D01*
X139651190Y-108754761D01*
X139698809Y-108707142D01*
X139698809Y-108802380D01*
X140651190Y-107802380D02*
X140175000Y-107802380D01*
X140127380Y-108278571D01*
X140175000Y-108230952D01*
X140270238Y-108183333D01*
X140508333Y-108183333D01*
X140603571Y-108230952D01*
X140651190Y-108278571D01*
X140698809Y-108373809D01*
X140698809Y-108611904D01*
X140651190Y-108707142D01*
X140603571Y-108754761D01*
X140508333Y-108802380D01*
X140270238Y-108802380D01*
X140175000Y-108754761D01*
X140127380Y-108707142D01*
X134765476Y-108922619D02*
X134670238Y-108875000D01*
X134575000Y-108779761D01*
X134432142Y-108636904D01*
X134336904Y-108589285D01*
X134241666Y-108589285D01*
X134289285Y-108827380D02*
X134194047Y-108779761D01*
X134098809Y-108684523D01*
X134051190Y-108494047D01*
X134051190Y-108160714D01*
X134098809Y-107970238D01*
X134194047Y-107875000D01*
X134289285Y-107827380D01*
X134479761Y-107827380D01*
X134575000Y-107875000D01*
X134670238Y-107970238D01*
X134717857Y-108160714D01*
X134717857Y-108494047D01*
X134670238Y-108684523D01*
X134575000Y-108779761D01*
X134479761Y-108827380D01*
X134289285Y-108827380D01*
X135336904Y-107827380D02*
X135432142Y-107827380D01*
X135527380Y-107875000D01*
X135575000Y-107922619D01*
X135622619Y-108017857D01*
X135670238Y-108208333D01*
X135670238Y-108446428D01*
X135622619Y-108636904D01*
X135575000Y-108732142D01*
X135527380Y-108779761D01*
X135432142Y-108827380D01*
X135336904Y-108827380D01*
X135241666Y-108779761D01*
X135194047Y-108732142D01*
X135146428Y-108636904D01*
X135098809Y-108446428D01*
X135098809Y-108208333D01*
X135146428Y-108017857D01*
X135194047Y-107922619D01*
X135241666Y-107875000D01*
X135336904Y-107827380D01*
X136098809Y-108732142D02*
X136146428Y-108779761D01*
X136098809Y-108827380D01*
X136051190Y-108779761D01*
X136098809Y-108732142D01*
X136098809Y-108827380D01*
X137003571Y-108160714D02*
X137003571Y-108827380D01*
X136765476Y-107779761D02*
X136527380Y-108494047D01*
X137146428Y-108494047D01*
X131165476Y-108947619D02*
X131070238Y-108900000D01*
X130975000Y-108804761D01*
X130832142Y-108661904D01*
X130736904Y-108614285D01*
X130641666Y-108614285D01*
X130689285Y-108852380D02*
X130594047Y-108804761D01*
X130498809Y-108709523D01*
X130451190Y-108519047D01*
X130451190Y-108185714D01*
X130498809Y-107995238D01*
X130594047Y-107900000D01*
X130689285Y-107852380D01*
X130879761Y-107852380D01*
X130975000Y-107900000D01*
X131070238Y-107995238D01*
X131117857Y-108185714D01*
X131117857Y-108519047D01*
X131070238Y-108709523D01*
X130975000Y-108804761D01*
X130879761Y-108852380D01*
X130689285Y-108852380D01*
X131736904Y-107852380D02*
X131832142Y-107852380D01*
X131927380Y-107900000D01*
X131975000Y-107947619D01*
X132022619Y-108042857D01*
X132070238Y-108233333D01*
X132070238Y-108471428D01*
X132022619Y-108661904D01*
X131975000Y-108757142D01*
X131927380Y-108804761D01*
X131832142Y-108852380D01*
X131736904Y-108852380D01*
X131641666Y-108804761D01*
X131594047Y-108757142D01*
X131546428Y-108661904D01*
X131498809Y-108471428D01*
X131498809Y-108233333D01*
X131546428Y-108042857D01*
X131594047Y-107947619D01*
X131641666Y-107900000D01*
X131736904Y-107852380D01*
X132498809Y-108757142D02*
X132546428Y-108804761D01*
X132498809Y-108852380D01*
X132451190Y-108804761D01*
X132498809Y-108757142D01*
X132498809Y-108852380D01*
X132879761Y-107852380D02*
X133498809Y-107852380D01*
X133165476Y-108233333D01*
X133308333Y-108233333D01*
X133403571Y-108280952D01*
X133451190Y-108328571D01*
X133498809Y-108423809D01*
X133498809Y-108661904D01*
X133451190Y-108757142D01*
X133403571Y-108804761D01*
X133308333Y-108852380D01*
X133022619Y-108852380D01*
X132927380Y-108804761D01*
X132879761Y-108757142D01*
X145590476Y-108972619D02*
X145495238Y-108925000D01*
X145400000Y-108829761D01*
X145257142Y-108686904D01*
X145161904Y-108639285D01*
X145066666Y-108639285D01*
X145114285Y-108877380D02*
X145019047Y-108829761D01*
X144923809Y-108734523D01*
X144876190Y-108544047D01*
X144876190Y-108210714D01*
X144923809Y-108020238D01*
X145019047Y-107925000D01*
X145114285Y-107877380D01*
X145304761Y-107877380D01*
X145400000Y-107925000D01*
X145495238Y-108020238D01*
X145542857Y-108210714D01*
X145542857Y-108544047D01*
X145495238Y-108734523D01*
X145400000Y-108829761D01*
X145304761Y-108877380D01*
X145114285Y-108877380D01*
X146161904Y-107877380D02*
X146257142Y-107877380D01*
X146352380Y-107925000D01*
X146400000Y-107972619D01*
X146447619Y-108067857D01*
X146495238Y-108258333D01*
X146495238Y-108496428D01*
X146447619Y-108686904D01*
X146400000Y-108782142D01*
X146352380Y-108829761D01*
X146257142Y-108877380D01*
X146161904Y-108877380D01*
X146066666Y-108829761D01*
X146019047Y-108782142D01*
X145971428Y-108686904D01*
X145923809Y-108496428D01*
X145923809Y-108258333D01*
X145971428Y-108067857D01*
X146019047Y-107972619D01*
X146066666Y-107925000D01*
X146161904Y-107877380D01*
X146923809Y-108782142D02*
X146971428Y-108829761D01*
X146923809Y-108877380D01*
X146876190Y-108829761D01*
X146923809Y-108782142D01*
X146923809Y-108877380D01*
X147304761Y-107877380D02*
X147971428Y-107877380D01*
X147542857Y-108877380D01*
X127540476Y-108997619D02*
X127445238Y-108950000D01*
X127350000Y-108854761D01*
X127207142Y-108711904D01*
X127111904Y-108664285D01*
X127016666Y-108664285D01*
X127064285Y-108902380D02*
X126969047Y-108854761D01*
X126873809Y-108759523D01*
X126826190Y-108569047D01*
X126826190Y-108235714D01*
X126873809Y-108045238D01*
X126969047Y-107950000D01*
X127064285Y-107902380D01*
X127254761Y-107902380D01*
X127350000Y-107950000D01*
X127445238Y-108045238D01*
X127492857Y-108235714D01*
X127492857Y-108569047D01*
X127445238Y-108759523D01*
X127350000Y-108854761D01*
X127254761Y-108902380D01*
X127064285Y-108902380D01*
X128111904Y-107902380D02*
X128207142Y-107902380D01*
X128302380Y-107950000D01*
X128350000Y-107997619D01*
X128397619Y-108092857D01*
X128445238Y-108283333D01*
X128445238Y-108521428D01*
X128397619Y-108711904D01*
X128350000Y-108807142D01*
X128302380Y-108854761D01*
X128207142Y-108902380D01*
X128111904Y-108902380D01*
X128016666Y-108854761D01*
X127969047Y-108807142D01*
X127921428Y-108711904D01*
X127873809Y-108521428D01*
X127873809Y-108283333D01*
X127921428Y-108092857D01*
X127969047Y-107997619D01*
X128016666Y-107950000D01*
X128111904Y-107902380D01*
X128873809Y-108807142D02*
X128921428Y-108854761D01*
X128873809Y-108902380D01*
X128826190Y-108854761D01*
X128873809Y-108807142D01*
X128873809Y-108902380D01*
X129302380Y-107997619D02*
X129350000Y-107950000D01*
X129445238Y-107902380D01*
X129683333Y-107902380D01*
X129778571Y-107950000D01*
X129826190Y-107997619D01*
X129873809Y-108092857D01*
X129873809Y-108188095D01*
X129826190Y-108330952D01*
X129254761Y-108902380D01*
X129873809Y-108902380D01*
X123945476Y-108997619D02*
X123850238Y-108950000D01*
X123755000Y-108854761D01*
X123612142Y-108711904D01*
X123516904Y-108664285D01*
X123421666Y-108664285D01*
X123469285Y-108902380D02*
X123374047Y-108854761D01*
X123278809Y-108759523D01*
X123231190Y-108569047D01*
X123231190Y-108235714D01*
X123278809Y-108045238D01*
X123374047Y-107950000D01*
X123469285Y-107902380D01*
X123659761Y-107902380D01*
X123755000Y-107950000D01*
X123850238Y-108045238D01*
X123897857Y-108235714D01*
X123897857Y-108569047D01*
X123850238Y-108759523D01*
X123755000Y-108854761D01*
X123659761Y-108902380D01*
X123469285Y-108902380D01*
X124516904Y-107902380D02*
X124612142Y-107902380D01*
X124707380Y-107950000D01*
X124755000Y-107997619D01*
X124802619Y-108092857D01*
X124850238Y-108283333D01*
X124850238Y-108521428D01*
X124802619Y-108711904D01*
X124755000Y-108807142D01*
X124707380Y-108854761D01*
X124612142Y-108902380D01*
X124516904Y-108902380D01*
X124421666Y-108854761D01*
X124374047Y-108807142D01*
X124326428Y-108711904D01*
X124278809Y-108521428D01*
X124278809Y-108283333D01*
X124326428Y-108092857D01*
X124374047Y-107997619D01*
X124421666Y-107950000D01*
X124516904Y-107902380D01*
X125278809Y-108807142D02*
X125326428Y-108854761D01*
X125278809Y-108902380D01*
X125231190Y-108854761D01*
X125278809Y-108807142D01*
X125278809Y-108902380D01*
X126278809Y-108902380D02*
X125707380Y-108902380D01*
X125993095Y-108902380D02*
X125993095Y-107902380D01*
X125897857Y-108045238D01*
X125802619Y-108140476D01*
X125707380Y-108188095D01*
X120390476Y-108997619D02*
X120295238Y-108950000D01*
X120200000Y-108854761D01*
X120057142Y-108711904D01*
X119961904Y-108664285D01*
X119866666Y-108664285D01*
X119914285Y-108902380D02*
X119819047Y-108854761D01*
X119723809Y-108759523D01*
X119676190Y-108569047D01*
X119676190Y-108235714D01*
X119723809Y-108045238D01*
X119819047Y-107950000D01*
X119914285Y-107902380D01*
X120104761Y-107902380D01*
X120200000Y-107950000D01*
X120295238Y-108045238D01*
X120342857Y-108235714D01*
X120342857Y-108569047D01*
X120295238Y-108759523D01*
X120200000Y-108854761D01*
X120104761Y-108902380D01*
X119914285Y-108902380D01*
X120961904Y-107902380D02*
X121057142Y-107902380D01*
X121152380Y-107950000D01*
X121200000Y-107997619D01*
X121247619Y-108092857D01*
X121295238Y-108283333D01*
X121295238Y-108521428D01*
X121247619Y-108711904D01*
X121200000Y-108807142D01*
X121152380Y-108854761D01*
X121057142Y-108902380D01*
X120961904Y-108902380D01*
X120866666Y-108854761D01*
X120819047Y-108807142D01*
X120771428Y-108711904D01*
X120723809Y-108521428D01*
X120723809Y-108283333D01*
X120771428Y-108092857D01*
X120819047Y-107997619D01*
X120866666Y-107950000D01*
X120961904Y-107902380D01*
X121723809Y-108807142D02*
X121771428Y-108854761D01*
X121723809Y-108902380D01*
X121676190Y-108854761D01*
X121723809Y-108807142D01*
X121723809Y-108902380D01*
X122390476Y-107902380D02*
X122485714Y-107902380D01*
X122580952Y-107950000D01*
X122628571Y-107997619D01*
X122676190Y-108092857D01*
X122723809Y-108283333D01*
X122723809Y-108521428D01*
X122676190Y-108711904D01*
X122628571Y-108807142D01*
X122580952Y-108854761D01*
X122485714Y-108902380D01*
X122390476Y-108902380D01*
X122295238Y-108854761D01*
X122247619Y-108807142D01*
X122200000Y-108711904D01*
X122152380Y-108521428D01*
X122152380Y-108283333D01*
X122200000Y-108092857D01*
X122247619Y-107997619D01*
X122295238Y-107950000D01*
X122390476Y-107902380D01*
X108681904Y-142952380D02*
X108681904Y-141952380D01*
X108920000Y-141952380D01*
X109062857Y-142000000D01*
X109158095Y-142095238D01*
X109205714Y-142190476D01*
X109253333Y-142380952D01*
X109253333Y-142523809D01*
X109205714Y-142714285D01*
X109158095Y-142809523D01*
X109062857Y-142904761D01*
X108920000Y-142952380D01*
X108681904Y-142952380D01*
X110158095Y-141952380D02*
X109681904Y-141952380D01*
X109634285Y-142428571D01*
X109681904Y-142380952D01*
X109777142Y-142333333D01*
X110015238Y-142333333D01*
X110110476Y-142380952D01*
X110158095Y-142428571D01*
X110205714Y-142523809D01*
X110205714Y-142761904D01*
X110158095Y-142857142D01*
X110110476Y-142904761D01*
X110015238Y-142952380D01*
X109777142Y-142952380D01*
X109681904Y-142904761D01*
X109634285Y-142857142D01*
X112833333Y-139857142D02*
X112785714Y-139904761D01*
X112642857Y-139952380D01*
X112547619Y-139952380D01*
X112404761Y-139904761D01*
X112309523Y-139809523D01*
X112261904Y-139714285D01*
X112214285Y-139523809D01*
X112214285Y-139380952D01*
X112261904Y-139190476D01*
X112309523Y-139095238D01*
X112404761Y-139000000D01*
X112547619Y-138952380D01*
X112642857Y-138952380D01*
X112785714Y-139000000D01*
X112833333Y-139047619D01*
X113166666Y-138952380D02*
X113833333Y-138952380D01*
X113404761Y-139952380D01*
X84333333Y-115357142D02*
X84285714Y-115404761D01*
X84142857Y-115452380D01*
X84047619Y-115452380D01*
X83904761Y-115404761D01*
X83809523Y-115309523D01*
X83761904Y-115214285D01*
X83714285Y-115023809D01*
X83714285Y-114880952D01*
X83761904Y-114690476D01*
X83809523Y-114595238D01*
X83904761Y-114500000D01*
X84047619Y-114452380D01*
X84142857Y-114452380D01*
X84285714Y-114500000D01*
X84333333Y-114547619D01*
X85190476Y-114785714D02*
X85190476Y-115452380D01*
X84952380Y-114404761D02*
X84714285Y-115119047D01*
X85333333Y-115119047D01*
X81833333Y-115357142D02*
X81785714Y-115404761D01*
X81642857Y-115452380D01*
X81547619Y-115452380D01*
X81404761Y-115404761D01*
X81309523Y-115309523D01*
X81261904Y-115214285D01*
X81214285Y-115023809D01*
X81214285Y-114880952D01*
X81261904Y-114690476D01*
X81309523Y-114595238D01*
X81404761Y-114500000D01*
X81547619Y-114452380D01*
X81642857Y-114452380D01*
X81785714Y-114500000D01*
X81833333Y-114547619D01*
X82166666Y-114452380D02*
X82785714Y-114452380D01*
X82452380Y-114833333D01*
X82595238Y-114833333D01*
X82690476Y-114880952D01*
X82738095Y-114928571D01*
X82785714Y-115023809D01*
X82785714Y-115261904D01*
X82738095Y-115357142D01*
X82690476Y-115404761D01*
X82595238Y-115452380D01*
X82309523Y-115452380D01*
X82214285Y-115404761D01*
X82166666Y-115357142D01*
X86833333Y-115357142D02*
X86785714Y-115404761D01*
X86642857Y-115452380D01*
X86547619Y-115452380D01*
X86404761Y-115404761D01*
X86309523Y-115309523D01*
X86261904Y-115214285D01*
X86214285Y-115023809D01*
X86214285Y-114880952D01*
X86261904Y-114690476D01*
X86309523Y-114595238D01*
X86404761Y-114500000D01*
X86547619Y-114452380D01*
X86642857Y-114452380D01*
X86785714Y-114500000D01*
X86833333Y-114547619D01*
X87214285Y-114547619D02*
X87261904Y-114500000D01*
X87357142Y-114452380D01*
X87595238Y-114452380D01*
X87690476Y-114500000D01*
X87738095Y-114547619D01*
X87785714Y-114642857D01*
X87785714Y-114738095D01*
X87738095Y-114880952D01*
X87166666Y-115452380D01*
X87785714Y-115452380D01*
X98833333Y-143857142D02*
X98785714Y-143904761D01*
X98642857Y-143952380D01*
X98547619Y-143952380D01*
X98404761Y-143904761D01*
X98309523Y-143809523D01*
X98261904Y-143714285D01*
X98214285Y-143523809D01*
X98214285Y-143380952D01*
X98261904Y-143190476D01*
X98309523Y-143095238D01*
X98404761Y-143000000D01*
X98547619Y-142952380D01*
X98642857Y-142952380D01*
X98785714Y-143000000D01*
X98833333Y-143047619D01*
X99785714Y-143952380D02*
X99214285Y-143952380D01*
X99500000Y-143952380D02*
X99500000Y-142952380D01*
X99404761Y-143095238D01*
X99309523Y-143190476D01*
X99214285Y-143238095D01*
X169609047Y-107031428D02*
X170370952Y-107031428D01*
X169990000Y-107412380D02*
X169990000Y-106650476D01*
M02*
