G04 #@! TF.GenerationSoftware,KiCad,Pcbnew,(5.1.4)-1*
G04 #@! TF.CreationDate,2021-08-26T23:09:31-03:00*
G04 #@! TF.ProjectId,PLC_ESP32,504c435f-4553-4503-9332-2e6b69636164,rev?*
G04 #@! TF.SameCoordinates,Original*
G04 #@! TF.FileFunction,Copper,L2,Bot*
G04 #@! TF.FilePolarity,Positive*
%FSLAX46Y46*%
G04 Gerber Fmt 4.6, Leading zero omitted, Abs format (unit mm)*
G04 Created by KiCad (PCBNEW (5.1.4)-1) date 2021-08-26 23:09:31*
%MOMM*%
%LPD*%
G04 APERTURE LIST*
%ADD10O,1.700000X1.700000*%
%ADD11R,1.700000X1.700000*%
%ADD12R,2.000000X2.000000*%
%ADD13C,2.000000*%
%ADD14R,2.500000X3.000000*%
%ADD15O,2.200000X2.200000*%
%ADD16R,2.200000X2.200000*%
%ADD17C,3.000000*%
%ADD18C,2.500000*%
%ADD19C,6.400000*%
%ADD20O,1.600000X1.600000*%
%ADD21C,1.600000*%
%ADD22O,1.600000X2.000000*%
%ADD23O,1.600000X2.400000*%
%ADD24R,1.600000X2.400000*%
%ADD25O,2.000000X1.905000*%
%ADD26R,2.000000X1.905000*%
%ADD27R,1.500000X1.050000*%
%ADD28O,1.500000X1.050000*%
%ADD29C,2.600000*%
%ADD30R,2.600000X2.600000*%
%ADD31C,1.524000*%
%ADD32O,1.300000X1.100000*%
%ADD33O,2.000000X1.200000*%
%ADD34R,1.600000X1.600000*%
%ADD35C,0.800000*%
%ADD36C,0.250000*%
%ADD37C,0.500000*%
%ADD38C,2.500000*%
%ADD39C,0.254000*%
G04 APERTURE END LIST*
D10*
X92600000Y-110880000D03*
X92600000Y-113420000D03*
X92600000Y-115960000D03*
D11*
X92600000Y-118500000D03*
D12*
X156500000Y-163300000D03*
D13*
X159000000Y-163300000D03*
X161500000Y-163300000D03*
D14*
X153400000Y-155800000D03*
X164600000Y-155800000D03*
D13*
X156500000Y-148800000D03*
X161500000Y-148800000D03*
D10*
X171040000Y-157400000D03*
D11*
X168500000Y-157400000D03*
D10*
X160180000Y-115200000D03*
X157640000Y-115200000D03*
D11*
X155100000Y-115200000D03*
D10*
X160180000Y-109400000D03*
X157640000Y-109400000D03*
D11*
X155100000Y-109400000D03*
D10*
X150980000Y-115200000D03*
X148440000Y-115200000D03*
D11*
X145900000Y-115200000D03*
D10*
X150980000Y-109400000D03*
X148440000Y-109400000D03*
D11*
X145900000Y-109400000D03*
D15*
X105940000Y-137300000D03*
D16*
X116100000Y-137300000D03*
D17*
X121500000Y-96100000D03*
D18*
X115550000Y-94150000D03*
D17*
X115500000Y-81900000D03*
X127550000Y-81950000D03*
D18*
X127550000Y-94150000D03*
D19*
X176000000Y-161000000D03*
X83500000Y-161000000D03*
X84000000Y-69000000D03*
X176000000Y-69000000D03*
D20*
X92715000Y-147500000D03*
D21*
X102875000Y-147500000D03*
D22*
X150770000Y-121400000D03*
X148230000Y-121400000D03*
X153310000Y-121400000D03*
X155850000Y-121400000D03*
D23*
X130850000Y-142630000D03*
X133390000Y-150250000D03*
X133390000Y-142630000D03*
D24*
X130850000Y-150250000D03*
D23*
X124850000Y-142630000D03*
X127390000Y-150250000D03*
X127390000Y-142630000D03*
D24*
X124850000Y-150250000D03*
D23*
X118850000Y-142630000D03*
X121390000Y-150250000D03*
X121390000Y-142630000D03*
D24*
X118850000Y-150250000D03*
D23*
X112750000Y-142580000D03*
X115290000Y-150200000D03*
X115290000Y-142580000D03*
D24*
X112750000Y-150200000D03*
D25*
X83500000Y-136420000D03*
X83500000Y-138960000D03*
D26*
X83500000Y-141500000D03*
D25*
X90000000Y-136420000D03*
X90000000Y-138960000D03*
D26*
X90000000Y-141500000D03*
D23*
X172500000Y-94080000D03*
X177580000Y-101700000D03*
X175040000Y-94080000D03*
X175040000Y-101700000D03*
X177580000Y-94080000D03*
D24*
X172500000Y-101700000D03*
D23*
X164000000Y-94080000D03*
X169080000Y-101700000D03*
X166540000Y-94080000D03*
X166540000Y-101700000D03*
X169080000Y-94080000D03*
D24*
X164000000Y-101700000D03*
D23*
X155500000Y-94080000D03*
X160580000Y-101700000D03*
X158040000Y-94080000D03*
X158040000Y-101700000D03*
X160580000Y-94080000D03*
D24*
X155500000Y-101700000D03*
D23*
X147000000Y-94080000D03*
X152080000Y-101700000D03*
X149540000Y-94080000D03*
X149540000Y-101700000D03*
X152080000Y-94080000D03*
D24*
X147000000Y-101700000D03*
D23*
X138500000Y-94080000D03*
X143580000Y-101700000D03*
X141040000Y-94080000D03*
X141040000Y-101700000D03*
X143580000Y-94080000D03*
D24*
X138500000Y-101700000D03*
D23*
X110100000Y-105380000D03*
X112640000Y-113000000D03*
X112640000Y-105380000D03*
D24*
X110100000Y-113000000D03*
D23*
X103850000Y-105480000D03*
X106390000Y-113100000D03*
X106390000Y-105480000D03*
D24*
X103850000Y-113100000D03*
D23*
X97800000Y-105480000D03*
X100340000Y-113100000D03*
X100340000Y-105480000D03*
D24*
X97800000Y-113100000D03*
D13*
X89950000Y-106150000D03*
X89950000Y-110650000D03*
X83450000Y-106150000D03*
X83450000Y-110650000D03*
X89950000Y-113850000D03*
X89950000Y-118350000D03*
X83450000Y-113850000D03*
X83450000Y-118350000D03*
D20*
X92715000Y-150700000D03*
D21*
X102875000Y-150700000D03*
D20*
X109125000Y-150610000D03*
D21*
X109125000Y-140450000D03*
D20*
X105975000Y-150610000D03*
D21*
X105975000Y-140450000D03*
D20*
X161600000Y-89060000D03*
D21*
X161600000Y-78900000D03*
D20*
X151625000Y-89160000D03*
D21*
X151625000Y-79000000D03*
D20*
X141775000Y-89360000D03*
D21*
X141775000Y-79200000D03*
D20*
X132375000Y-89385000D03*
D21*
X132375000Y-79225000D03*
D20*
X171500000Y-88960000D03*
D21*
X171500000Y-78800000D03*
D25*
X167450000Y-80570000D03*
X167450000Y-83110000D03*
D26*
X167450000Y-85650000D03*
D25*
X157550000Y-80620000D03*
X157550000Y-83160000D03*
D26*
X157550000Y-85700000D03*
D25*
X147600000Y-80820000D03*
X147600000Y-83360000D03*
D26*
X147600000Y-85900000D03*
D25*
X138000000Y-80920000D03*
X138000000Y-83460000D03*
D26*
X138000000Y-86000000D03*
D25*
X177500000Y-80420000D03*
X177500000Y-82960000D03*
D26*
X177500000Y-85500000D03*
D27*
X132800000Y-102000000D03*
D28*
X132800000Y-99460000D03*
X132800000Y-100730000D03*
D27*
X114600000Y-102000000D03*
D28*
X114600000Y-99460000D03*
X114600000Y-100730000D03*
D27*
X96500000Y-102000000D03*
D28*
X96500000Y-99460000D03*
X96500000Y-100730000D03*
D17*
X105000000Y-96100000D03*
D18*
X99050000Y-94150000D03*
D17*
X99000000Y-81900000D03*
X111050000Y-81950000D03*
D18*
X111050000Y-94150000D03*
D17*
X88500000Y-96100000D03*
D18*
X82550000Y-94150000D03*
D17*
X82500000Y-81900000D03*
X94550000Y-81950000D03*
D18*
X94550000Y-94150000D03*
D10*
X168420000Y-152100000D03*
X170960000Y-152100000D03*
D11*
X173500000Y-152100000D03*
D10*
X89500000Y-124790000D03*
D11*
X89500000Y-122250000D03*
D29*
X147450000Y-157250000D03*
D30*
X142450000Y-157250000D03*
D29*
X136950000Y-157250000D03*
D30*
X131950000Y-157250000D03*
D29*
X126450000Y-157250000D03*
X121450000Y-157250000D03*
D30*
X116450000Y-157250000D03*
D29*
X110950000Y-157250000D03*
X105950000Y-157250000D03*
D30*
X100950000Y-157250000D03*
D29*
X171850000Y-120900000D03*
X171850000Y-125900000D03*
D30*
X171850000Y-130900000D03*
D29*
X171850000Y-136400000D03*
X171850000Y-141400000D03*
D30*
X171850000Y-146400000D03*
D31*
X156400000Y-140700000D03*
X153700000Y-140700000D03*
X151000000Y-140700000D03*
X148400000Y-140700000D03*
X145700000Y-140700000D03*
X143000000Y-140700000D03*
X153450000Y-104700000D03*
X150950000Y-104700000D03*
X148450000Y-104700000D03*
X145950000Y-104700000D03*
D10*
X168600000Y-113820000D03*
X168600000Y-111280000D03*
X168600000Y-108740000D03*
D11*
X168600000Y-106200000D03*
D29*
X95300000Y-157250000D03*
D30*
X90300000Y-157250000D03*
D29*
X148250000Y-72700000D03*
X153250000Y-72700000D03*
D30*
X158250000Y-72700000D03*
D29*
X132750000Y-72700000D03*
X137750000Y-72700000D03*
D30*
X142750000Y-72700000D03*
D29*
X117250000Y-72700000D03*
X122250000Y-72700000D03*
D30*
X127250000Y-72700000D03*
D29*
X101750000Y-72700000D03*
X106750000Y-72700000D03*
D30*
X111750000Y-72700000D03*
D32*
X85550000Y-127475000D03*
X85550000Y-122625000D03*
D33*
X82800000Y-128625000D03*
X82800000Y-121475000D03*
D15*
X163695000Y-128835000D03*
D16*
X163695000Y-138995000D03*
D15*
X160250000Y-128840000D03*
D16*
X160250000Y-139000000D03*
D15*
X101800000Y-144260000D03*
D16*
X101800000Y-134100000D03*
D15*
X98250000Y-144260000D03*
D16*
X98250000Y-134100000D03*
D15*
X128360000Y-100700000D03*
D16*
X118200000Y-100700000D03*
D15*
X110260000Y-99600000D03*
D16*
X100100000Y-99600000D03*
D15*
X92360000Y-100000000D03*
D16*
X82200000Y-100000000D03*
D15*
X94700000Y-144260000D03*
D16*
X94700000Y-134100000D03*
D21*
X162800000Y-144600000D03*
X160300000Y-144600000D03*
X157050000Y-144600000D03*
X154550000Y-144600000D03*
X145600000Y-144600000D03*
X143100000Y-144600000D03*
X151300000Y-144600000D03*
X148800000Y-144600000D03*
X88500000Y-148750000D03*
D34*
X88500000Y-146750000D03*
D21*
X82750000Y-148800000D03*
D34*
X82750000Y-146800000D03*
D13*
X173200000Y-106700000D03*
D12*
X173200000Y-114300000D03*
D35*
X145938800Y-129584000D03*
X162992800Y-131256500D03*
X106029100Y-125077900D03*
X84577100Y-128974500D03*
X103650000Y-115354000D03*
X150770200Y-124648500D03*
X84577100Y-133423400D03*
X132089000Y-129998000D03*
X111041900Y-124634000D03*
X116445300Y-140708200D03*
X90389100Y-132251500D03*
X90578000Y-126487300D03*
X114346000Y-105606800D03*
X111909500Y-133598100D03*
X145989400Y-125462500D03*
X94803800Y-123750000D03*
X98376000Y-130223700D03*
X98881200Y-117797500D03*
X128440300Y-118550600D03*
X154704200Y-132054200D03*
X136932600Y-137727800D03*
X100374600Y-136015100D03*
X113628600Y-118498900D03*
X115801500Y-118463300D03*
X124836400Y-130092300D03*
X135756700Y-138102200D03*
X93544500Y-131015300D03*
X92188800Y-137395600D03*
X98894800Y-116755900D03*
X103766000Y-132020500D03*
X117488300Y-114207400D03*
X119583000Y-114028200D03*
X114963500Y-147841100D03*
X126808500Y-111719300D03*
X132479700Y-144789900D03*
X129150000Y-123599400D03*
X140442800Y-142487500D03*
X128927300Y-113215200D03*
X138556400Y-136346900D03*
X148798100Y-128254800D03*
X154763200Y-106581400D03*
X141012200Y-131973300D03*
X148718300Y-125564100D03*
X139911400Y-136318400D03*
X142192100Y-122082500D03*
X102574100Y-128849100D03*
X89279900Y-116123500D03*
X107636500Y-139290700D03*
X110631300Y-140109600D03*
X103600000Y-118511000D03*
X93127700Y-129067000D03*
X95206100Y-129876800D03*
X99826300Y-129155400D03*
X101849700Y-124659400D03*
X96301200Y-120017400D03*
X96767500Y-128535200D03*
X95017200Y-126784900D03*
X97523100Y-125869100D03*
X90943800Y-128947900D03*
X96951800Y-118972700D03*
X99686800Y-126160000D03*
X108292000Y-135886300D03*
X95798300Y-113704000D03*
X123959600Y-104672800D03*
X135855400Y-102932700D03*
X136435100Y-102097600D03*
X139425900Y-148529900D03*
X147151900Y-144522100D03*
X147846900Y-135079000D03*
X141060300Y-141642900D03*
X111132600Y-135874700D03*
X129656300Y-138102100D03*
X129640300Y-132182200D03*
X109060000Y-131192400D03*
X118773100Y-135914400D03*
X118847600Y-118460900D03*
X129075400Y-105192900D03*
X117638200Y-119557000D03*
X123748500Y-119332000D03*
X112876300Y-132703200D03*
X162635900Y-135405400D03*
X146136400Y-113748200D03*
X139311500Y-119584100D03*
X141562700Y-130946000D03*
X141442500Y-129246100D03*
X161103500Y-146815200D03*
X147356700Y-114100800D03*
X138081500Y-119560400D03*
X166307600Y-153569700D03*
X154771400Y-129789800D03*
X156567800Y-138498700D03*
D36*
X90658900Y-113141100D02*
X92302500Y-114784700D01*
X92302500Y-114784700D02*
X92600000Y-114784700D01*
X91424800Y-112238400D02*
X90658900Y-113004300D01*
X90658900Y-113004300D02*
X90658900Y-113141100D01*
X90658900Y-113141100D02*
X89950000Y-113850000D01*
X92600000Y-115960000D02*
X92600000Y-114784700D01*
X91424800Y-112238400D02*
X91296300Y-112109900D01*
X91296300Y-112109900D02*
X91296300Y-107496300D01*
X91296300Y-107496300D02*
X89950000Y-106150000D01*
X103650000Y-115354000D02*
X103610500Y-115354000D01*
X103610500Y-115354000D02*
X102023900Y-113767400D01*
X102023900Y-113767400D02*
X102023900Y-112672200D01*
X102023900Y-112672200D02*
X100899800Y-111548100D01*
X100899800Y-111548100D02*
X99859500Y-111548100D01*
X99859500Y-111548100D02*
X98925400Y-112482200D01*
X98925400Y-112482200D02*
X98925400Y-114516800D01*
X98925400Y-114516800D02*
X98737200Y-114705000D01*
X98737200Y-114705000D02*
X95706400Y-114705000D01*
X95706400Y-114705000D02*
X93239800Y-112238400D01*
X93239800Y-112238400D02*
X91424800Y-112238400D01*
X150770200Y-124648500D02*
X150741800Y-124648500D01*
X150741800Y-124648500D02*
X145938800Y-129451500D01*
X145938800Y-129451500D02*
X145938800Y-129584000D01*
X150770000Y-121400000D02*
X150770000Y-124648300D01*
X150770000Y-124648300D02*
X150770200Y-124648500D01*
X96500000Y-99460000D02*
X95424700Y-99460000D01*
X89950000Y-106150000D02*
X95424700Y-100675300D01*
X95424700Y-100675300D02*
X95424700Y-99460000D01*
X83500000Y-138960000D02*
X81624600Y-140835400D01*
X81624600Y-140835400D02*
X81624600Y-147800100D01*
X81624600Y-147800100D02*
X82624500Y-148800000D01*
X82624500Y-148800000D02*
X82750000Y-148800000D01*
X84577100Y-133423400D02*
X82144900Y-135855600D01*
X82144900Y-135855600D02*
X82144900Y-137604900D01*
X82144900Y-137604900D02*
X83500000Y-138960000D01*
X163695000Y-131256500D02*
X163695000Y-128835000D01*
X171850000Y-120900000D02*
X173521200Y-122571200D01*
X173521200Y-122571200D02*
X173521200Y-132294400D01*
X173521200Y-132294400D02*
X173259800Y-132555800D01*
X173259800Y-132555800D02*
X164994300Y-132555800D01*
X164994300Y-132555800D02*
X163695000Y-131256500D01*
X163695000Y-131256500D02*
X162992800Y-131256500D01*
X103650000Y-115354000D02*
X106029100Y-117733100D01*
X106029100Y-117733100D02*
X106029100Y-125077900D01*
X88500000Y-148750000D02*
X95300000Y-155550000D01*
X95300000Y-155550000D02*
X95300000Y-157250000D01*
X84577100Y-128974500D02*
X84540400Y-128937800D01*
X84540400Y-128937800D02*
X84540400Y-122027600D01*
X84540400Y-122027600D02*
X84775400Y-121792600D01*
X84775400Y-121792600D02*
X84775400Y-115175400D01*
X84775400Y-115175400D02*
X83450000Y-113850000D01*
X84577100Y-133423400D02*
X84577100Y-128974500D01*
X168600000Y-113820000D02*
X168600000Y-117650000D01*
X168600000Y-117650000D02*
X171850000Y-120900000D01*
X171850000Y-136400000D02*
X173500000Y-138050000D01*
X173500000Y-138050000D02*
X173500000Y-152100000D01*
X168600000Y-113820000D02*
X168600000Y-112644700D01*
X173200000Y-106700000D02*
X173200000Y-108412000D01*
X173200000Y-108412000D02*
X168967300Y-112644700D01*
X168967300Y-112644700D02*
X168600000Y-112644700D01*
X148440000Y-110575300D02*
X146040900Y-110575300D01*
X146040900Y-110575300D02*
X132089000Y-124527200D01*
X132089000Y-124527200D02*
X132089000Y-129998000D01*
X148440000Y-109400000D02*
X148440000Y-110575300D01*
X87320200Y-104040700D02*
X83625300Y-100345800D01*
X83625300Y-100345800D02*
X83625300Y-100000000D01*
X99050000Y-98550800D02*
X95633800Y-98550800D01*
X95633800Y-98550800D02*
X94539200Y-99645400D01*
X94539200Y-99645400D02*
X94539200Y-99885400D01*
X94539200Y-99885400D02*
X90383900Y-104040700D01*
X90383900Y-104040700D02*
X87320200Y-104040700D01*
X87320200Y-104040700D02*
X87320200Y-129042600D01*
X87320200Y-129042600D02*
X90459100Y-132181500D01*
X110100000Y-104946500D02*
X109108200Y-103954700D01*
X109108200Y-103954700D02*
X103850000Y-103954700D01*
X110634300Y-105388200D02*
X110192600Y-104946500D01*
X110192600Y-104946500D02*
X110100000Y-104946500D01*
X100100000Y-102132800D02*
X102028100Y-102132800D01*
X102028100Y-102132800D02*
X103850000Y-103954700D01*
X97800000Y-103954700D02*
X99621900Y-102132800D01*
X99621900Y-102132800D02*
X100100000Y-102132800D01*
X100100000Y-102132800D02*
X100100000Y-99600000D01*
X103850000Y-105480000D02*
X103850000Y-103954700D01*
X116100000Y-138725300D02*
X116445300Y-139070600D01*
X116445300Y-139070600D02*
X116445300Y-140708200D01*
X116445300Y-140708200D02*
X116445300Y-143450000D01*
X116445300Y-143450000D02*
X115779900Y-144115400D01*
X115779900Y-144115400D02*
X112229200Y-144115400D01*
X112229200Y-144115400D02*
X111610400Y-143496600D01*
X111610400Y-143496600D02*
X111610400Y-141579200D01*
X111610400Y-141579200D02*
X111903500Y-141286100D01*
X111903500Y-141286100D02*
X111903500Y-135531700D01*
X111903500Y-135531700D02*
X111041900Y-134670100D01*
X111041900Y-134670100D02*
X111041900Y-124634000D01*
X111041900Y-124634000D02*
X111041900Y-116589600D01*
X111041900Y-116589600D02*
X114698100Y-112933400D01*
X114698100Y-112933400D02*
X114698100Y-108803700D01*
X114698100Y-108803700D02*
X113170800Y-107276400D01*
X113170800Y-107276400D02*
X112522500Y-107276400D01*
X112522500Y-107276400D02*
X110634300Y-105388200D01*
X110634300Y-105388200D02*
X112432700Y-103589800D01*
X112432700Y-103589800D02*
X114775700Y-103589800D01*
X114775700Y-103589800D02*
X116774700Y-101590800D01*
X116774700Y-101590800D02*
X116774700Y-100700000D01*
X118200000Y-100700000D02*
X116774700Y-100700000D01*
X110100000Y-105380000D02*
X110100000Y-104946500D01*
X82200000Y-100000000D02*
X83625300Y-100000000D01*
X116100000Y-137300000D02*
X116100000Y-138725300D01*
X100100000Y-99600000D02*
X99050800Y-98550800D01*
X99050800Y-98550800D02*
X99050000Y-98550800D01*
X90459100Y-132181500D02*
X90389100Y-132251500D01*
X90459100Y-132181500D02*
X91356200Y-132181500D01*
X91356200Y-132181500D02*
X93274700Y-134100000D01*
X94700000Y-134100000D02*
X93274700Y-134100000D01*
X97800000Y-105480000D02*
X97800000Y-103954700D01*
D37*
X82200000Y-94500000D02*
X82550000Y-94150000D01*
X82200000Y-100000000D02*
X82200000Y-94500000D01*
X100100000Y-95200000D02*
X99050000Y-94150000D01*
X100100000Y-99600000D02*
X100100000Y-95200000D01*
X115550000Y-95917766D02*
X115550000Y-94150000D01*
X115550000Y-96450000D02*
X115550000Y-95917766D01*
X118200000Y-100700000D02*
X118200000Y-99100000D01*
X118200000Y-99100000D02*
X115550000Y-96450000D01*
D36*
X92600000Y-123750000D02*
X92600000Y-124465300D01*
X92600000Y-124465300D02*
X90578000Y-126487300D01*
X92600000Y-119087600D02*
X92600000Y-123750000D01*
X94803800Y-123750000D02*
X92600000Y-123750000D01*
X92600000Y-118500000D02*
X92600000Y-119087600D01*
X115170600Y-106431400D02*
X114346000Y-105606800D01*
X111909500Y-133598100D02*
X111909500Y-117567600D01*
X111909500Y-117567600D02*
X115170600Y-114306500D01*
X115170600Y-114306500D02*
X115170600Y-106431400D01*
X115170600Y-106431400D02*
X123226800Y-106431400D01*
X123226800Y-106431400D02*
X126433000Y-103225200D01*
X126433000Y-103225200D02*
X133320700Y-103225200D01*
X133320700Y-103225200D02*
X135467800Y-101078100D01*
X135467800Y-101078100D02*
X135467800Y-100965200D01*
X135467800Y-100965200D02*
X137213000Y-99220000D01*
X137213000Y-99220000D02*
X157729900Y-99220000D01*
X157729900Y-99220000D02*
X159174000Y-100664100D01*
X159174000Y-100664100D02*
X159174000Y-102587500D01*
X159174000Y-102587500D02*
X155974100Y-105787400D01*
X155974100Y-105787400D02*
X152037400Y-105787400D01*
X152037400Y-105787400D02*
X150950000Y-104700000D01*
X145989400Y-125462500D02*
X148230000Y-123221900D01*
X148230000Y-123221900D02*
X148230000Y-121400000D01*
X145989400Y-125462500D02*
X145989400Y-125729400D01*
X145989400Y-125729400D02*
X141498100Y-130220700D01*
X141498100Y-130220700D02*
X141102200Y-130220700D01*
X141102200Y-130220700D02*
X130850000Y-140472900D01*
X130850000Y-140472900D02*
X130850000Y-141104700D01*
X112750000Y-142580000D02*
X112750000Y-134438600D01*
X112750000Y-134438600D02*
X111909500Y-133598100D01*
X148800000Y-144600000D02*
X149925400Y-145725400D01*
X149925400Y-145725400D02*
X153424600Y-145725400D01*
X153424600Y-145725400D02*
X154550000Y-144600000D01*
X130850000Y-142630000D02*
X130850000Y-141104700D01*
X156500000Y-146550000D02*
X156500000Y-148800000D01*
X154550000Y-144600000D02*
X156500000Y-146550000D01*
X160300000Y-144600000D02*
X158350000Y-146550000D01*
X158350000Y-146550000D02*
X156500000Y-146550000D01*
X98881200Y-117797500D02*
X100412200Y-119328500D01*
X100412200Y-119328500D02*
X100412200Y-126696400D01*
X100412200Y-126696400D02*
X98376000Y-128732600D01*
X98376000Y-128732600D02*
X98376000Y-130223700D01*
X89950000Y-110650000D02*
X88623900Y-111976100D01*
X88623900Y-111976100D02*
X88623900Y-114402200D01*
X88623900Y-114402200D02*
X91522600Y-117300900D01*
X91522600Y-117300900D02*
X98384600Y-117300900D01*
X98384600Y-117300900D02*
X98881200Y-117797500D01*
X83450000Y-110650000D02*
X81161400Y-112938600D01*
X81161400Y-112938600D02*
X81161400Y-151190300D01*
X81161400Y-151190300D02*
X89793800Y-159822700D01*
X89793800Y-159822700D02*
X110708600Y-159822700D01*
X110708600Y-159822700D02*
X117636200Y-152895100D01*
X117636200Y-152895100D02*
X117636200Y-148927700D01*
X117636200Y-148927700D02*
X117963000Y-148600900D01*
X117963000Y-148600900D02*
X118737100Y-148600900D01*
X118737100Y-148600900D02*
X123530100Y-143807900D01*
X123530100Y-143807900D02*
X123530100Y-123460800D01*
X123530100Y-123460800D02*
X128440300Y-118550600D01*
X89950000Y-118350000D02*
X87792300Y-120507700D01*
X87792300Y-120507700D02*
X87792300Y-127603500D01*
X87792300Y-127603500D02*
X92853000Y-132664200D01*
X92853000Y-132664200D02*
X99546900Y-132664200D01*
X99546900Y-132664200D02*
X100374600Y-133491900D01*
X100374600Y-133491900D02*
X100374600Y-136015100D01*
X136932600Y-137727800D02*
X142600900Y-137727800D01*
X142600900Y-137727800D02*
X148274500Y-132054200D01*
X148274500Y-132054200D02*
X154704200Y-132054200D01*
X115290000Y-141054700D02*
X113628600Y-139393300D01*
X113628600Y-139393300D02*
X113628600Y-118498900D01*
X115290000Y-142580000D02*
X115290000Y-141054700D01*
X115801500Y-118463300D02*
X115801500Y-118746000D01*
X115801500Y-118746000D02*
X121390000Y-124334500D01*
X121390000Y-124334500D02*
X121390000Y-142630000D01*
X127390000Y-142630000D02*
X127390000Y-132645900D01*
X127390000Y-132645900D02*
X124836400Y-130092300D01*
X135756700Y-138102200D02*
X135756700Y-138738000D01*
X135756700Y-138738000D02*
X133390000Y-141104700D01*
X162800000Y-144600000D02*
X161607400Y-143407400D01*
X161607400Y-143407400D02*
X134167400Y-143407400D01*
X134167400Y-143407400D02*
X133390000Y-142630000D01*
X133390000Y-142630000D02*
X133390000Y-141104700D01*
X93544500Y-131015300D02*
X93544500Y-130522800D01*
X93544500Y-130522800D02*
X89500000Y-126478300D01*
X89500000Y-126478300D02*
X89500000Y-125965300D01*
X89500000Y-124790000D02*
X89500000Y-125965300D01*
X94700000Y-144260000D02*
X94700000Y-142834700D01*
X92188800Y-137395600D02*
X92188800Y-140323500D01*
X92188800Y-140323500D02*
X94700000Y-142834700D01*
X103766000Y-132020500D02*
X103766000Y-129015200D01*
X103766000Y-129015200D02*
X103149600Y-128398800D01*
X103149600Y-128398800D02*
X103149600Y-121010700D01*
X103149600Y-121010700D02*
X98894800Y-116755900D01*
D37*
X94550000Y-97810000D02*
X94550000Y-94150000D01*
X92360000Y-100000000D02*
X94550000Y-97810000D01*
D36*
X111050000Y-99600000D02*
X111685300Y-99600000D01*
X110260000Y-99600000D02*
X111050000Y-99600000D01*
X114600000Y-102000000D02*
X113524700Y-102000000D01*
X113524700Y-102000000D02*
X113524700Y-101439400D01*
X113524700Y-101439400D02*
X111685300Y-99600000D01*
D37*
X110260000Y-94940000D02*
X111050000Y-94150000D01*
X110260000Y-99600000D02*
X110260000Y-94940000D01*
D36*
X128360000Y-100700000D02*
X129785300Y-100700000D01*
X132800000Y-102000000D02*
X131085300Y-102000000D01*
X131085300Y-102000000D02*
X129785300Y-100700000D01*
D37*
X128360000Y-94960000D02*
X127550000Y-94150000D01*
X128360000Y-100700000D02*
X128360000Y-94960000D01*
D36*
X83500000Y-135142200D02*
X90961200Y-135142200D01*
X90961200Y-135142200D02*
X98250000Y-142431000D01*
X98250000Y-142431000D02*
X98250000Y-142834700D01*
X98250000Y-144260000D02*
X98250000Y-149550000D01*
X98250000Y-149550000D02*
X105950000Y-157250000D01*
X98250000Y-144260000D02*
X98250000Y-142834700D01*
X83500000Y-136420000D02*
X83500000Y-135142200D01*
X117488300Y-114207400D02*
X114625800Y-117069900D01*
X114625800Y-117069900D02*
X114625800Y-121110900D01*
X114625800Y-121110900D02*
X119509900Y-125995000D01*
X119509900Y-125995000D02*
X119509900Y-139978600D01*
X119509900Y-139978600D02*
X117443200Y-142045300D01*
X117443200Y-142045300D02*
X117443200Y-143725900D01*
X117443200Y-143725900D02*
X116149200Y-145019900D01*
X116149200Y-145019900D02*
X111809900Y-145019900D01*
X111809900Y-145019900D02*
X107905500Y-141115500D01*
X107905500Y-141115500D02*
X107905500Y-140746900D01*
X107905500Y-140746900D02*
X106479900Y-139321300D01*
X106479900Y-139321300D02*
X105503100Y-139321300D01*
X105503100Y-139321300D02*
X104846300Y-139978100D01*
X104846300Y-139978100D02*
X104846300Y-148356000D01*
X104846300Y-148356000D02*
X105975000Y-149484700D01*
X105975000Y-150610000D02*
X105975000Y-149484700D01*
X119583000Y-114028200D02*
X119183600Y-114028200D01*
X119183600Y-114028200D02*
X115076100Y-118135700D01*
X115076100Y-118135700D02*
X115076100Y-118850900D01*
X115076100Y-118850900D02*
X119979200Y-123754000D01*
X119979200Y-123754000D02*
X119979200Y-143507900D01*
X119979200Y-143507900D02*
X115646000Y-147841100D01*
X115646000Y-147841100D02*
X114963500Y-147841100D01*
X157640000Y-114024700D02*
X156464700Y-112849400D01*
X156464700Y-112849400D02*
X156464700Y-108848900D01*
X156464700Y-108848900D02*
X157089200Y-108224400D01*
X157089200Y-108224400D02*
X158128400Y-108224400D01*
X158128400Y-108224400D02*
X158830400Y-108926400D01*
X158830400Y-108926400D02*
X158830400Y-112187500D01*
X158830400Y-112187500D02*
X161910600Y-115267700D01*
X161910600Y-115267700D02*
X161910600Y-135748900D01*
X161910600Y-135748900D02*
X163285900Y-137124200D01*
X163285900Y-137124200D02*
X164512600Y-137124200D01*
X164512600Y-137124200D02*
X165144700Y-137756300D01*
X165144700Y-137756300D02*
X165144700Y-140212100D01*
X165144700Y-140212100D02*
X164936400Y-140420400D01*
X164936400Y-140420400D02*
X162385400Y-140420400D01*
X162385400Y-140420400D02*
X161675300Y-139710300D01*
X161675300Y-139710300D02*
X161675300Y-139000000D01*
X157640000Y-115200000D02*
X157640000Y-114024700D01*
X160250000Y-139000000D02*
X161675300Y-139000000D01*
X92715000Y-147500000D02*
X94955800Y-147500000D01*
X94955800Y-147500000D02*
X104310300Y-156854500D01*
X104310300Y-156854500D02*
X104310300Y-157950100D01*
X104310300Y-157950100D02*
X105235600Y-158875400D01*
X105235600Y-158875400D02*
X106625600Y-158875400D01*
X106625600Y-158875400D02*
X108472800Y-157028200D01*
X108472800Y-157028200D02*
X108472800Y-156756200D01*
X108472800Y-156756200D02*
X113201600Y-152027400D01*
X113201600Y-152027400D02*
X115473800Y-152027400D01*
X115473800Y-152027400D02*
X116646900Y-150854300D01*
X116646900Y-150854300D02*
X116646900Y-148614700D01*
X116646900Y-148614700D02*
X119327100Y-145934500D01*
X119327100Y-145934500D02*
X120093900Y-145934500D01*
X120093900Y-145934500D02*
X122563500Y-143464900D01*
X122563500Y-143464900D02*
X122563500Y-115964300D01*
X122563500Y-115964300D02*
X126808500Y-111719300D01*
X140442800Y-142487500D02*
X153518100Y-142487500D01*
X153518100Y-142487500D02*
X154890700Y-141114900D01*
X154890700Y-141114900D02*
X154890700Y-140634700D01*
X154890700Y-140634700D02*
X156301400Y-139224000D01*
X156301400Y-139224000D02*
X156868300Y-139224000D01*
X156868300Y-139224000D02*
X158517700Y-137574600D01*
X158517700Y-137574600D02*
X161559600Y-137574600D01*
X161559600Y-137574600D02*
X162269700Y-138284700D01*
X162269700Y-138284700D02*
X162269700Y-138995000D01*
X129150000Y-123599400D02*
X128915000Y-123834400D01*
X128915000Y-123834400D02*
X128915000Y-142715400D01*
X128915000Y-142715400D02*
X130989500Y-144789900D01*
X130989500Y-144789900D02*
X132479700Y-144789900D01*
X163695000Y-138995000D02*
X162269700Y-138995000D01*
X128927300Y-113215200D02*
X128826500Y-113215200D01*
X128826500Y-113215200D02*
X123023200Y-119018500D01*
X123023200Y-119018500D02*
X123023200Y-143642100D01*
X123023200Y-143642100D02*
X120280500Y-146384800D01*
X120280500Y-146384800D02*
X119542100Y-146384800D01*
X119542100Y-146384800D02*
X117097200Y-148829700D01*
X117097200Y-148829700D02*
X117097200Y-151040900D01*
X117097200Y-151040900D02*
X115501400Y-152636700D01*
X115501400Y-152636700D02*
X113262400Y-152636700D01*
X113262400Y-152636700D02*
X109082400Y-156816700D01*
X109082400Y-156816700D02*
X109082400Y-157055500D01*
X109082400Y-157055500D02*
X106812200Y-159325700D01*
X106812200Y-159325700D02*
X105049000Y-159325700D01*
X105049000Y-159325700D02*
X103860000Y-158136700D01*
X103860000Y-158136700D02*
X103860000Y-157041100D01*
X103860000Y-157041100D02*
X97518900Y-150700000D01*
X97518900Y-150700000D02*
X92715000Y-150700000D01*
D38*
X111750000Y-72700000D02*
X111750000Y-75450300D01*
X111750000Y-75450300D02*
X105000000Y-82200300D01*
X105000000Y-82200300D02*
X105000000Y-96100000D01*
X106750000Y-72700000D02*
X102573600Y-76876400D01*
X102573600Y-76876400D02*
X99623600Y-76876400D01*
X99623600Y-76876400D02*
X94550000Y-81950000D01*
X88500000Y-83633998D02*
X88500000Y-96100000D01*
X101750000Y-72700000D02*
X99433998Y-72700000D01*
X99433998Y-72700000D02*
X88500000Y-83633998D01*
X127250000Y-72700000D02*
X127250000Y-75450300D01*
X127250000Y-75450300D02*
X127550000Y-75750300D01*
X127550000Y-75750300D02*
X127550000Y-81950000D01*
X122250000Y-72700000D02*
X121500000Y-73450000D01*
X121500000Y-73450000D02*
X121500000Y-96100000D01*
X117250000Y-75750000D02*
X117250000Y-72700000D01*
X111050000Y-81950000D02*
X117250000Y-75750000D01*
X142750000Y-75450300D02*
X141775000Y-76425300D01*
X141775000Y-76425300D02*
X141775000Y-79200000D01*
X142750000Y-72700000D02*
X142750000Y-75450300D01*
X145935000Y-83360000D02*
X141775000Y-79200000D01*
X147600000Y-83360000D02*
X145935000Y-83360000D01*
X137750000Y-72700000D02*
X137750000Y-73850000D01*
X137750000Y-73850000D02*
X132375000Y-79225000D01*
X136610000Y-83460000D02*
X132375000Y-79225000D01*
X138000000Y-83460000D02*
X136610000Y-83460000D01*
X165400000Y-72700000D02*
X171500000Y-78800000D01*
X158250000Y-72700000D02*
X165400000Y-72700000D01*
X175660000Y-82960000D02*
X177500000Y-82960000D01*
X171500000Y-78800000D02*
X175660000Y-82960000D01*
X159450000Y-78900000D02*
X161600000Y-78900000D01*
X153250000Y-72700000D02*
X159450000Y-78900000D01*
X165810000Y-83110000D02*
X161600000Y-78900000D01*
X167450000Y-83110000D02*
X165810000Y-83110000D01*
X148250000Y-75625000D02*
X151625000Y-79000000D01*
X148250000Y-72700000D02*
X148250000Y-75625000D01*
X155785000Y-83160000D02*
X151625000Y-79000000D01*
X157550000Y-83160000D02*
X155785000Y-83160000D01*
D36*
X90300000Y-155624700D02*
X83880800Y-149205500D01*
X83880800Y-149205500D02*
X83880800Y-143158600D01*
X83880800Y-143158600D02*
X83500000Y-142777800D01*
X83500000Y-141500000D02*
X83500000Y-142777800D01*
X90300000Y-157250000D02*
X90300000Y-155624700D01*
X138556400Y-136346900D02*
X139254300Y-137044800D01*
X139254300Y-137044800D02*
X140225700Y-137044800D01*
X140225700Y-137044800D02*
X148798100Y-128472400D01*
X148798100Y-128472400D02*
X148798100Y-128254800D01*
X155850000Y-121400000D02*
X148995200Y-128254800D01*
X148995200Y-128254800D02*
X148798100Y-128254800D01*
X149667200Y-108417200D02*
X149667200Y-118482600D01*
X149667200Y-118482600D02*
X150768600Y-119584000D01*
X145950000Y-104700000D02*
X149667200Y-108417200D01*
X149667200Y-108417200D02*
X151503000Y-106581400D01*
X151503000Y-106581400D02*
X154763200Y-106581400D01*
X150768600Y-119584000D02*
X152184700Y-121000100D01*
X152184700Y-121000100D02*
X152184700Y-121400000D01*
X148718300Y-125564100D02*
X149615400Y-124667000D01*
X149615400Y-124667000D02*
X149615400Y-120737200D01*
X149615400Y-120737200D02*
X150768600Y-119584000D01*
X141012200Y-131973300D02*
X142309100Y-131973300D01*
X142309100Y-131973300D02*
X148718300Y-125564100D01*
X153310000Y-121400000D02*
X152184700Y-121400000D01*
X157640000Y-109400000D02*
X157640000Y-113299800D01*
X157640000Y-113299800D02*
X158830600Y-114490400D01*
X158830600Y-114490400D02*
X158830600Y-115740600D01*
X158830600Y-115740600D02*
X154580000Y-119991200D01*
X154580000Y-119991200D02*
X154580000Y-121968600D01*
X154580000Y-121968600D02*
X149019100Y-127529500D01*
X149019100Y-127529500D02*
X148497700Y-127529500D01*
X148497700Y-127529500D02*
X148072800Y-127954400D01*
X148072800Y-127954400D02*
X148072800Y-128475800D01*
X148072800Y-128475800D02*
X140230200Y-136318400D01*
X140230200Y-136318400D02*
X139911400Y-136318400D01*
X148440000Y-115200000D02*
X148440000Y-116375300D01*
X142192100Y-122082500D02*
X147899300Y-116375300D01*
X147899300Y-116375300D02*
X148440000Y-116375300D01*
X102574100Y-132213900D02*
X102897300Y-132213900D01*
X102897300Y-132213900D02*
X107636500Y-136953100D01*
X107636500Y-136953100D02*
X107636500Y-139290700D01*
X89279900Y-116123500D02*
X89647600Y-116123500D01*
X89647600Y-116123500D02*
X91275400Y-117751300D01*
X91275400Y-117751300D02*
X91275400Y-118948500D01*
X91275400Y-118948500D02*
X89611600Y-120612300D01*
X89611600Y-120612300D02*
X88968000Y-120612300D01*
X88968000Y-120612300D02*
X88255600Y-121324700D01*
X88255600Y-121324700D02*
X88255600Y-127429800D01*
X88255600Y-127429800D02*
X93039700Y-132213900D01*
X93039700Y-132213900D02*
X102574100Y-132213900D01*
X102574100Y-132213900D02*
X102574100Y-128849100D01*
X103600000Y-118511000D02*
X103600000Y-124959200D01*
X103600000Y-124959200D02*
X106728300Y-128087500D01*
X106728300Y-128087500D02*
X106728300Y-135380400D01*
X106728300Y-135380400D02*
X108546100Y-137198200D01*
X108546100Y-137198200D02*
X108546100Y-138024400D01*
X108546100Y-138024400D02*
X110631300Y-140109600D01*
X103600000Y-118511000D02*
X101119600Y-116030600D01*
X101119600Y-116030600D02*
X96385900Y-116030600D01*
X96385900Y-116030600D02*
X93775300Y-113420000D01*
X92600000Y-113420000D02*
X93775300Y-113420000D01*
X130850000Y-150250000D02*
X130850000Y-151775300D01*
X136950000Y-157250000D02*
X131475300Y-151775300D01*
X131475300Y-151775300D02*
X130850000Y-151775300D01*
X95206100Y-129876800D02*
X94396300Y-129067000D01*
X94396300Y-129067000D02*
X93127700Y-129067000D01*
X101849700Y-124659400D02*
X101849700Y-127132000D01*
X101849700Y-127132000D02*
X99826300Y-129155400D01*
X96767500Y-128535200D02*
X95017200Y-126784900D01*
X96301200Y-120017400D02*
X96301200Y-125500900D01*
X96301200Y-125500900D02*
X95017200Y-126784900D01*
X138000000Y-80920000D02*
X139325300Y-80920000D01*
X152080000Y-94080000D02*
X152080000Y-92554700D01*
X152080000Y-92554700D02*
X150960000Y-92554700D01*
X150960000Y-92554700D02*
X139325300Y-80920000D01*
X160580000Y-94080000D02*
X160580000Y-92554700D01*
X160580000Y-92554700D02*
X159334700Y-92554700D01*
X159334700Y-92554700D02*
X147600000Y-80820000D01*
X169080000Y-94080000D02*
X169080000Y-92150000D01*
X169080000Y-92150000D02*
X157550000Y-80620000D01*
X177580000Y-94080000D02*
X177580000Y-90700000D01*
X177580000Y-90700000D02*
X167450000Y-80570000D01*
X90943800Y-128947900D02*
X90943800Y-129481100D01*
X90943800Y-129481100D02*
X93226300Y-131763600D01*
X93226300Y-131763600D02*
X94604400Y-131763600D01*
X94604400Y-131763600D02*
X97523100Y-128844900D01*
X97523100Y-128844900D02*
X97523100Y-125869100D01*
X96951800Y-118972700D02*
X99686800Y-121707700D01*
X99686800Y-121707700D02*
X99686800Y-126160000D01*
X100340000Y-114625300D02*
X100816700Y-114625300D01*
X100816700Y-114625300D02*
X104725700Y-118534300D01*
X104725700Y-118534300D02*
X104725700Y-124800300D01*
X104725700Y-124800300D02*
X108292000Y-128366600D01*
X108292000Y-128366600D02*
X108292000Y-135886300D01*
X100340000Y-113100000D02*
X100340000Y-114625300D01*
X106390000Y-113100000D02*
X106390000Y-111574700D01*
X106390000Y-111574700D02*
X105414500Y-110599200D01*
X105414500Y-110599200D02*
X97808300Y-110599200D01*
X97808300Y-110599200D02*
X95798300Y-112609200D01*
X95798300Y-112609200D02*
X95798300Y-113704000D01*
X112640000Y-105380000D02*
X113347200Y-104672800D01*
X113347200Y-104672800D02*
X123959600Y-104672800D01*
X149540000Y-101700000D02*
X149540000Y-100174700D01*
X149540000Y-100174700D02*
X137565200Y-100174700D01*
X137565200Y-100174700D02*
X137371200Y-100368700D01*
X137371200Y-100368700D02*
X137371200Y-102237900D01*
X137371200Y-102237900D02*
X136676400Y-102932700D01*
X136676400Y-102932700D02*
X135855400Y-102932700D01*
X158040000Y-100174700D02*
X157589700Y-99724400D01*
X157589700Y-99724400D02*
X137378600Y-99724400D01*
X137378600Y-99724400D02*
X136435100Y-100667900D01*
X136435100Y-100667900D02*
X136435100Y-102097600D01*
X158040000Y-101700000D02*
X158040000Y-100174700D01*
X132375000Y-89385000D02*
X133500300Y-89385000D01*
X147000000Y-94080000D02*
X147000000Y-92554700D01*
X147000000Y-92554700D02*
X136670000Y-92554700D01*
X136670000Y-92554700D02*
X133500300Y-89385000D01*
X141775000Y-89360000D02*
X142900300Y-89360000D01*
X155500000Y-94080000D02*
X155500000Y-95605300D01*
X155500000Y-95605300D02*
X151556700Y-95605300D01*
X151556700Y-95605300D02*
X150698200Y-94746800D01*
X150698200Y-94746800D02*
X150698200Y-93219300D01*
X150698200Y-93219300D02*
X146838900Y-89360000D01*
X146838900Y-89360000D02*
X142900300Y-89360000D01*
X151625000Y-89160000D02*
X152750300Y-89160000D01*
X164000000Y-94080000D02*
X164000000Y-95605300D01*
X164000000Y-95605300D02*
X157516700Y-95605300D01*
X157516700Y-95605300D02*
X156735200Y-94823800D01*
X156735200Y-94823800D02*
X156735200Y-93144900D01*
X156735200Y-93144900D02*
X152750300Y-89160000D01*
X172500000Y-94080000D02*
X172500000Y-95605300D01*
X172500000Y-95605300D02*
X168556700Y-95605300D01*
X168556700Y-95605300D02*
X167810000Y-94858600D01*
X167810000Y-94858600D02*
X167810000Y-93320100D01*
X167810000Y-93320100D02*
X163549900Y-89060000D01*
X163549900Y-89060000D02*
X161600000Y-89060000D01*
X105975000Y-140450000D02*
X114199700Y-148674700D01*
X114199700Y-148674700D02*
X115290000Y-148674700D01*
X115290000Y-150200000D02*
X115290000Y-148674700D01*
X147151900Y-144522100D02*
X147151900Y-144690600D01*
X147151900Y-144690600D02*
X143312600Y-148529900D01*
X143312600Y-148529900D02*
X139425900Y-148529900D01*
X147846900Y-135079000D02*
X147083300Y-135079000D01*
X147083300Y-135079000D02*
X141060300Y-141102000D01*
X141060300Y-141102000D02*
X141060300Y-141642900D01*
X129640300Y-132182200D02*
X129640300Y-138086100D01*
X129640300Y-138086100D02*
X129656300Y-138102100D01*
X110100000Y-114525300D02*
X110278400Y-114703700D01*
X110278400Y-114703700D02*
X110278400Y-135020600D01*
X110278400Y-135020600D02*
X110278500Y-135020600D01*
X110278500Y-135020600D02*
X111132600Y-135874700D01*
X110100000Y-113000000D02*
X110100000Y-114525300D01*
X103850000Y-113100000D02*
X103850000Y-114625300D01*
X109060000Y-131192400D02*
X109060000Y-119723700D01*
X109060000Y-119723700D02*
X103961600Y-114625300D01*
X103961600Y-114625300D02*
X103850000Y-114625300D01*
X97800000Y-111574700D02*
X98319400Y-111055300D01*
X98319400Y-111055300D02*
X104346500Y-111055300D01*
X104346500Y-111055300D02*
X104975400Y-111684200D01*
X104975400Y-111684200D02*
X104975400Y-114550300D01*
X104975400Y-114550300D02*
X109828000Y-119402900D01*
X109828000Y-119402900D02*
X109828000Y-138262300D01*
X109828000Y-138262300D02*
X111385300Y-139819600D01*
X111385300Y-139819600D02*
X111385300Y-140942100D01*
X111385300Y-140942100D02*
X111160100Y-141167300D01*
X111160100Y-141167300D02*
X111160100Y-143683200D01*
X111160100Y-143683200D02*
X112042600Y-144565700D01*
X112042600Y-144565700D02*
X115966500Y-144565700D01*
X115966500Y-144565700D02*
X116992800Y-143539400D01*
X116992800Y-143539400D02*
X116992800Y-141186700D01*
X116992800Y-141186700D02*
X118773100Y-139406400D01*
X118773100Y-139406400D02*
X118773100Y-135914400D01*
X97800000Y-113100000D02*
X97800000Y-111574700D01*
X118847600Y-118460900D02*
X128068100Y-109240400D01*
X128068100Y-109240400D02*
X138737300Y-109240400D01*
X138737300Y-109240400D02*
X146277700Y-101700000D01*
X146277700Y-101700000D02*
X147000000Y-101700000D01*
X117638200Y-119557000D02*
X117638200Y-116998800D01*
X117638200Y-116998800D02*
X129075400Y-105561600D01*
X129075400Y-105561600D02*
X129075400Y-105192900D01*
X155500000Y-103225300D02*
X145412800Y-103225300D01*
X145412800Y-103225300D02*
X131475700Y-117162400D01*
X131475700Y-117162400D02*
X125918100Y-117162400D01*
X125918100Y-117162400D02*
X123748500Y-119332000D01*
X155500000Y-101700000D02*
X155500000Y-103225300D01*
X112876300Y-132703200D02*
X112876300Y-117793700D01*
X112876300Y-117793700D02*
X126994400Y-103675600D01*
X126994400Y-103675600D02*
X138049700Y-103675600D01*
X138049700Y-103675600D02*
X138500000Y-103225300D01*
X138500000Y-101700000D02*
X138500000Y-103225300D01*
X162635900Y-135405400D02*
X163801800Y-134239500D01*
X163801800Y-134239500D02*
X172223700Y-134239500D01*
X172223700Y-134239500D02*
X174525400Y-131937800D01*
X174525400Y-131937800D02*
X174525400Y-106103700D01*
X174525400Y-106103700D02*
X172500000Y-104078300D01*
X172500000Y-104078300D02*
X172500000Y-101700000D01*
X139311500Y-119584100D02*
X145147400Y-113748200D01*
X145147400Y-113748200D02*
X146136400Y-113748200D01*
X105940000Y-138725300D02*
X105396400Y-138725300D01*
X105396400Y-138725300D02*
X101800000Y-142321700D01*
X101800000Y-142321700D02*
X101800000Y-142834700D01*
X88500000Y-146750000D02*
X88500000Y-145624700D01*
X88500000Y-145624700D02*
X88500000Y-137920000D01*
X88500000Y-137920000D02*
X90000000Y-136420000D01*
X101800000Y-144260000D02*
X101800000Y-142834700D01*
X105940000Y-137300000D02*
X105940000Y-138725300D01*
X171850000Y-125900000D02*
X171850000Y-123470600D01*
X171850000Y-123470600D02*
X160180000Y-111800600D01*
X160180000Y-111800600D02*
X160180000Y-110575300D01*
X160180000Y-109400000D02*
X160180000Y-110575300D01*
X141562700Y-130946000D02*
X141013800Y-130946000D01*
X141013800Y-130946000D02*
X132230000Y-139729800D01*
X132230000Y-139729800D02*
X132230000Y-143487900D01*
X132230000Y-143487900D02*
X140711100Y-151969000D01*
X140711100Y-151969000D02*
X144506300Y-151969000D01*
X144506300Y-151969000D02*
X155174700Y-162637400D01*
X155174700Y-162637400D02*
X155174700Y-163300000D01*
X156500000Y-163300000D02*
X155174700Y-163300000D01*
X145900000Y-115200000D02*
X145900000Y-116375300D01*
X145900000Y-116375300D02*
X141442500Y-120832800D01*
X141442500Y-120832800D02*
X141442500Y-129246100D01*
X168054300Y-153476200D02*
X161393300Y-146815200D01*
X161393300Y-146815200D02*
X161103500Y-146815200D01*
X161500000Y-163300000D02*
X161500000Y-162236000D01*
X161500000Y-162236000D02*
X168054300Y-155681700D01*
X168054300Y-155681700D02*
X168054300Y-153476200D01*
X168054300Y-153476200D02*
X174320600Y-153476200D01*
X174320600Y-153476200D02*
X175039800Y-152757000D01*
X175039800Y-152757000D02*
X175039800Y-104639800D01*
X175039800Y-104639800D02*
X173625400Y-103225400D01*
X173625400Y-103225400D02*
X173625400Y-100286100D01*
X173625400Y-100286100D02*
X173513900Y-100174600D01*
X173513900Y-100174600D02*
X168597800Y-100174600D01*
X168597800Y-100174600D02*
X167810000Y-100962400D01*
X167810000Y-100962400D02*
X167810000Y-102466500D01*
X167810000Y-102466500D02*
X164498100Y-105778400D01*
X164498100Y-105778400D02*
X158721600Y-105778400D01*
X158721600Y-105778400D02*
X155100000Y-109400000D01*
X138081500Y-119560400D02*
X144680000Y-112961900D01*
X144680000Y-112961900D02*
X146377500Y-112961900D01*
X146377500Y-112961900D02*
X147356700Y-113941100D01*
X147356700Y-113941100D02*
X147356700Y-114100800D01*
X166307600Y-153569700D02*
X166269700Y-153569700D01*
X166269700Y-153569700D02*
X161500000Y-148800000D01*
X156567800Y-138498700D02*
X156567800Y-131586200D01*
X156567800Y-131586200D02*
X154771400Y-129789800D01*
D39*
G36*
X174087800Y-146873000D02*
G01*
X173981001Y-146873000D01*
X173981001Y-145100000D01*
X173965034Y-144937880D01*
X173917745Y-144781990D01*
X173840952Y-144638321D01*
X173737606Y-144512394D01*
X173611679Y-144409048D01*
X173468010Y-144332255D01*
X173312120Y-144284966D01*
X173150000Y-144268999D01*
X170550000Y-144268999D01*
X170387880Y-144284966D01*
X170231990Y-144332255D01*
X170088321Y-144409048D01*
X169962394Y-144512394D01*
X169859048Y-144638321D01*
X169782255Y-144781990D01*
X169734966Y-144937880D01*
X169718999Y-145100000D01*
X169718999Y-146873000D01*
X162797430Y-146873000D01*
X162213781Y-146289351D01*
X162190853Y-146233998D01*
X162075125Y-146060798D01*
X162325422Y-146164475D01*
X162639755Y-146227000D01*
X162960245Y-146227000D01*
X163274578Y-146164475D01*
X163570673Y-146041828D01*
X163837152Y-145863773D01*
X164063773Y-145637152D01*
X164241828Y-145370673D01*
X164364475Y-145074578D01*
X164427000Y-144760245D01*
X164427000Y-144439755D01*
X164364475Y-144125422D01*
X164241828Y-143829327D01*
X164063773Y-143562848D01*
X163837152Y-143336227D01*
X163570673Y-143158172D01*
X163274578Y-143035525D01*
X162960245Y-142973000D01*
X162639755Y-142973000D01*
X162539310Y-142992980D01*
X162313643Y-142767313D01*
X162283823Y-142730977D01*
X162138862Y-142612011D01*
X161973477Y-142523611D01*
X161794025Y-142469175D01*
X161654165Y-142455400D01*
X161607400Y-142450794D01*
X161560635Y-142455400D01*
X154896531Y-142455400D01*
X155405416Y-141946514D01*
X155647326Y-142108153D01*
X155936506Y-142227935D01*
X156243497Y-142289000D01*
X156556503Y-142289000D01*
X156863494Y-142227935D01*
X157152674Y-142108153D01*
X157412928Y-141934257D01*
X157634257Y-141712928D01*
X157808153Y-141452674D01*
X157927935Y-141163494D01*
X157989000Y-140856503D01*
X157989000Y-140543497D01*
X157927935Y-140236506D01*
X157808153Y-139947326D01*
X157681241Y-139757389D01*
X158318999Y-139119631D01*
X158318999Y-140100000D01*
X158334966Y-140262120D01*
X158382255Y-140418010D01*
X158459048Y-140561679D01*
X158562394Y-140687606D01*
X158688321Y-140790952D01*
X158831990Y-140867745D01*
X158987880Y-140915034D01*
X159150000Y-140931001D01*
X161350000Y-140931001D01*
X161512120Y-140915034D01*
X161528680Y-140910011D01*
X161679161Y-141060492D01*
X161708977Y-141096823D01*
X161853938Y-141215789D01*
X162019323Y-141304189D01*
X162183278Y-141353924D01*
X162198775Y-141358625D01*
X162385399Y-141377006D01*
X162432164Y-141372400D01*
X164889635Y-141372400D01*
X164936400Y-141377006D01*
X164983165Y-141372400D01*
X165123025Y-141358625D01*
X165302477Y-141304189D01*
X165467862Y-141215789D01*
X165498665Y-141190509D01*
X169723000Y-141190509D01*
X169723000Y-141609491D01*
X169804739Y-142020423D01*
X169965077Y-142407512D01*
X170197851Y-142755884D01*
X170494116Y-143052149D01*
X170842488Y-143284923D01*
X171229577Y-143445261D01*
X171640509Y-143527000D01*
X172059491Y-143527000D01*
X172470423Y-143445261D01*
X172857512Y-143284923D01*
X173205884Y-143052149D01*
X173502149Y-142755884D01*
X173734923Y-142407512D01*
X173895261Y-142020423D01*
X173977000Y-141609491D01*
X173977000Y-141190509D01*
X173895261Y-140779577D01*
X173734923Y-140392488D01*
X173502149Y-140044116D01*
X173205884Y-139747851D01*
X172857512Y-139515077D01*
X172470423Y-139354739D01*
X172059491Y-139273000D01*
X171640509Y-139273000D01*
X171229577Y-139354739D01*
X170842488Y-139515077D01*
X170494116Y-139747851D01*
X170197851Y-140044116D01*
X169965077Y-140392488D01*
X169804739Y-140779577D01*
X169723000Y-141190509D01*
X165498665Y-141190509D01*
X165612823Y-141096823D01*
X165642643Y-141060487D01*
X165784787Y-140918343D01*
X165821123Y-140888523D01*
X165940089Y-140743562D01*
X166028489Y-140578177D01*
X166082925Y-140398725D01*
X166086443Y-140363006D01*
X166101306Y-140212100D01*
X166096700Y-140165335D01*
X166096700Y-137803064D01*
X166101306Y-137756299D01*
X166100610Y-137749224D01*
X170680381Y-137749224D01*
X170812317Y-138044312D01*
X171153045Y-138215159D01*
X171520557Y-138316250D01*
X171900729Y-138343701D01*
X172278951Y-138296457D01*
X172640690Y-138176333D01*
X172887683Y-138044312D01*
X173019619Y-137749224D01*
X171850000Y-136579605D01*
X170680381Y-137749224D01*
X166100610Y-137749224D01*
X166082925Y-137569675D01*
X166074280Y-137541175D01*
X166028489Y-137390223D01*
X165940089Y-137224838D01*
X165821123Y-137079877D01*
X165784792Y-137050061D01*
X165218843Y-136484113D01*
X165189023Y-136447777D01*
X165044062Y-136328811D01*
X164878677Y-136240411D01*
X164699225Y-136185975D01*
X164559365Y-136172200D01*
X164512600Y-136167594D01*
X164465835Y-136172200D01*
X163680231Y-136172200D01*
X163631681Y-136123650D01*
X163723253Y-135986602D01*
X163815747Y-135763303D01*
X163862900Y-135526249D01*
X163862900Y-135524730D01*
X164196131Y-135191500D01*
X170461892Y-135191500D01*
X170500774Y-135230382D01*
X170205688Y-135362317D01*
X170034841Y-135703045D01*
X169933750Y-136070557D01*
X169906299Y-136450729D01*
X169953543Y-136828951D01*
X170073667Y-137190690D01*
X170205688Y-137437683D01*
X170500776Y-137569619D01*
X171670395Y-136400000D01*
X172029605Y-136400000D01*
X173199224Y-137569619D01*
X173494312Y-137437683D01*
X173665159Y-137096955D01*
X173766250Y-136729443D01*
X173793701Y-136349271D01*
X173746457Y-135971049D01*
X173626333Y-135609310D01*
X173494312Y-135362317D01*
X173199224Y-135230381D01*
X172029605Y-136400000D01*
X171670395Y-136400000D01*
X171656253Y-136385858D01*
X171835858Y-136206253D01*
X171850000Y-136220395D01*
X173019619Y-135050776D01*
X172939021Y-134870510D01*
X174087800Y-133721731D01*
X174087800Y-146873000D01*
X174087800Y-146873000D01*
G37*
X174087800Y-146873000D02*
X173981001Y-146873000D01*
X173981001Y-145100000D01*
X173965034Y-144937880D01*
X173917745Y-144781990D01*
X173840952Y-144638321D01*
X173737606Y-144512394D01*
X173611679Y-144409048D01*
X173468010Y-144332255D01*
X173312120Y-144284966D01*
X173150000Y-144268999D01*
X170550000Y-144268999D01*
X170387880Y-144284966D01*
X170231990Y-144332255D01*
X170088321Y-144409048D01*
X169962394Y-144512394D01*
X169859048Y-144638321D01*
X169782255Y-144781990D01*
X169734966Y-144937880D01*
X169718999Y-145100000D01*
X169718999Y-146873000D01*
X162797430Y-146873000D01*
X162213781Y-146289351D01*
X162190853Y-146233998D01*
X162075125Y-146060798D01*
X162325422Y-146164475D01*
X162639755Y-146227000D01*
X162960245Y-146227000D01*
X163274578Y-146164475D01*
X163570673Y-146041828D01*
X163837152Y-145863773D01*
X164063773Y-145637152D01*
X164241828Y-145370673D01*
X164364475Y-145074578D01*
X164427000Y-144760245D01*
X164427000Y-144439755D01*
X164364475Y-144125422D01*
X164241828Y-143829327D01*
X164063773Y-143562848D01*
X163837152Y-143336227D01*
X163570673Y-143158172D01*
X163274578Y-143035525D01*
X162960245Y-142973000D01*
X162639755Y-142973000D01*
X162539310Y-142992980D01*
X162313643Y-142767313D01*
X162283823Y-142730977D01*
X162138862Y-142612011D01*
X161973477Y-142523611D01*
X161794025Y-142469175D01*
X161654165Y-142455400D01*
X161607400Y-142450794D01*
X161560635Y-142455400D01*
X154896531Y-142455400D01*
X155405416Y-141946514D01*
X155647326Y-142108153D01*
X155936506Y-142227935D01*
X156243497Y-142289000D01*
X156556503Y-142289000D01*
X156863494Y-142227935D01*
X157152674Y-142108153D01*
X157412928Y-141934257D01*
X157634257Y-141712928D01*
X157808153Y-141452674D01*
X157927935Y-141163494D01*
X157989000Y-140856503D01*
X157989000Y-140543497D01*
X157927935Y-140236506D01*
X157808153Y-139947326D01*
X157681241Y-139757389D01*
X158318999Y-139119631D01*
X158318999Y-140100000D01*
X158334966Y-140262120D01*
X158382255Y-140418010D01*
X158459048Y-140561679D01*
X158562394Y-140687606D01*
X158688321Y-140790952D01*
X158831990Y-140867745D01*
X158987880Y-140915034D01*
X159150000Y-140931001D01*
X161350000Y-140931001D01*
X161512120Y-140915034D01*
X161528680Y-140910011D01*
X161679161Y-141060492D01*
X161708977Y-141096823D01*
X161853938Y-141215789D01*
X162019323Y-141304189D01*
X162183278Y-141353924D01*
X162198775Y-141358625D01*
X162385399Y-141377006D01*
X162432164Y-141372400D01*
X164889635Y-141372400D01*
X164936400Y-141377006D01*
X164983165Y-141372400D01*
X165123025Y-141358625D01*
X165302477Y-141304189D01*
X165467862Y-141215789D01*
X165498665Y-141190509D01*
X169723000Y-141190509D01*
X169723000Y-141609491D01*
X169804739Y-142020423D01*
X169965077Y-142407512D01*
X170197851Y-142755884D01*
X170494116Y-143052149D01*
X170842488Y-143284923D01*
X171229577Y-143445261D01*
X171640509Y-143527000D01*
X172059491Y-143527000D01*
X172470423Y-143445261D01*
X172857512Y-143284923D01*
X173205884Y-143052149D01*
X173502149Y-142755884D01*
X173734923Y-142407512D01*
X173895261Y-142020423D01*
X173977000Y-141609491D01*
X173977000Y-141190509D01*
X173895261Y-140779577D01*
X173734923Y-140392488D01*
X173502149Y-140044116D01*
X173205884Y-139747851D01*
X172857512Y-139515077D01*
X172470423Y-139354739D01*
X172059491Y-139273000D01*
X171640509Y-139273000D01*
X171229577Y-139354739D01*
X170842488Y-139515077D01*
X170494116Y-139747851D01*
X170197851Y-140044116D01*
X169965077Y-140392488D01*
X169804739Y-140779577D01*
X169723000Y-141190509D01*
X165498665Y-141190509D01*
X165612823Y-141096823D01*
X165642643Y-141060487D01*
X165784787Y-140918343D01*
X165821123Y-140888523D01*
X165940089Y-140743562D01*
X166028489Y-140578177D01*
X166082925Y-140398725D01*
X166086443Y-140363006D01*
X166101306Y-140212100D01*
X166096700Y-140165335D01*
X166096700Y-137803064D01*
X166101306Y-137756299D01*
X166100610Y-137749224D01*
X170680381Y-137749224D01*
X170812317Y-138044312D01*
X171153045Y-138215159D01*
X171520557Y-138316250D01*
X171900729Y-138343701D01*
X172278951Y-138296457D01*
X172640690Y-138176333D01*
X172887683Y-138044312D01*
X173019619Y-137749224D01*
X171850000Y-136579605D01*
X170680381Y-137749224D01*
X166100610Y-137749224D01*
X166082925Y-137569675D01*
X166074280Y-137541175D01*
X166028489Y-137390223D01*
X165940089Y-137224838D01*
X165821123Y-137079877D01*
X165784792Y-137050061D01*
X165218843Y-136484113D01*
X165189023Y-136447777D01*
X165044062Y-136328811D01*
X164878677Y-136240411D01*
X164699225Y-136185975D01*
X164559365Y-136172200D01*
X164512600Y-136167594D01*
X164465835Y-136172200D01*
X163680231Y-136172200D01*
X163631681Y-136123650D01*
X163723253Y-135986602D01*
X163815747Y-135763303D01*
X163862900Y-135526249D01*
X163862900Y-135524730D01*
X164196131Y-135191500D01*
X170461892Y-135191500D01*
X170500774Y-135230382D01*
X170205688Y-135362317D01*
X170034841Y-135703045D01*
X169933750Y-136070557D01*
X169906299Y-136450729D01*
X169953543Y-136828951D01*
X170073667Y-137190690D01*
X170205688Y-137437683D01*
X170500776Y-137569619D01*
X171670395Y-136400000D01*
X172029605Y-136400000D01*
X173199224Y-137569619D01*
X173494312Y-137437683D01*
X173665159Y-137096955D01*
X173766250Y-136729443D01*
X173793701Y-136349271D01*
X173746457Y-135971049D01*
X173626333Y-135609310D01*
X173494312Y-135362317D01*
X173199224Y-135230381D01*
X172029605Y-136400000D01*
X171670395Y-136400000D01*
X171656253Y-136385858D01*
X171835858Y-136206253D01*
X171850000Y-136220395D01*
X173019619Y-135050776D01*
X172939021Y-134870510D01*
X174087800Y-133721731D01*
X174087800Y-146873000D01*
G36*
X88164390Y-136420000D02*
G01*
X88198748Y-136768843D01*
X88223437Y-136850232D01*
X87859908Y-137213762D01*
X87823578Y-137243577D01*
X87719910Y-137369897D01*
X87704611Y-137388539D01*
X87616212Y-137553923D01*
X87561775Y-137733376D01*
X87543394Y-137920000D01*
X87548001Y-137966775D01*
X87548000Y-145133969D01*
X87537880Y-145134966D01*
X87381990Y-145182255D01*
X87238321Y-145259048D01*
X87112394Y-145362394D01*
X87009048Y-145488321D01*
X86932255Y-145631990D01*
X86884966Y-145787880D01*
X86868999Y-145950000D01*
X86868999Y-146873000D01*
X84832800Y-146873000D01*
X84832800Y-143212340D01*
X84961679Y-143143452D01*
X85087606Y-143040106D01*
X85190952Y-142914179D01*
X85267745Y-142770510D01*
X85315034Y-142614620D01*
X85331001Y-142452500D01*
X85331001Y-140547500D01*
X85315034Y-140385380D01*
X85267745Y-140229490D01*
X85190952Y-140085821D01*
X85087606Y-139959894D01*
X84961679Y-139856548D01*
X84882562Y-139814259D01*
X85019571Y-139551094D01*
X85090563Y-139332980D01*
X84970594Y-139087000D01*
X83627000Y-139087000D01*
X83627000Y-139107000D01*
X83373000Y-139107000D01*
X83373000Y-139087000D01*
X83353000Y-139087000D01*
X83353000Y-138833000D01*
X83373000Y-138833000D01*
X83373000Y-138813000D01*
X83627000Y-138813000D01*
X83627000Y-138833000D01*
X84970594Y-138833000D01*
X85090563Y-138587020D01*
X85019571Y-138368906D01*
X84875969Y-138093077D01*
X84681315Y-137850563D01*
X84645753Y-137820726D01*
X84811885Y-137684385D01*
X85034259Y-137413421D01*
X85199498Y-137104280D01*
X85301252Y-136768843D01*
X85335610Y-136420000D01*
X85303522Y-136094200D01*
X88196478Y-136094200D01*
X88164390Y-136420000D01*
X88164390Y-136420000D01*
G37*
X88164390Y-136420000D02*
X88198748Y-136768843D01*
X88223437Y-136850232D01*
X87859908Y-137213762D01*
X87823578Y-137243577D01*
X87719910Y-137369897D01*
X87704611Y-137388539D01*
X87616212Y-137553923D01*
X87561775Y-137733376D01*
X87543394Y-137920000D01*
X87548001Y-137966775D01*
X87548000Y-145133969D01*
X87537880Y-145134966D01*
X87381990Y-145182255D01*
X87238321Y-145259048D01*
X87112394Y-145362394D01*
X87009048Y-145488321D01*
X86932255Y-145631990D01*
X86884966Y-145787880D01*
X86868999Y-145950000D01*
X86868999Y-146873000D01*
X84832800Y-146873000D01*
X84832800Y-143212340D01*
X84961679Y-143143452D01*
X85087606Y-143040106D01*
X85190952Y-142914179D01*
X85267745Y-142770510D01*
X85315034Y-142614620D01*
X85331001Y-142452500D01*
X85331001Y-140547500D01*
X85315034Y-140385380D01*
X85267745Y-140229490D01*
X85190952Y-140085821D01*
X85087606Y-139959894D01*
X84961679Y-139856548D01*
X84882562Y-139814259D01*
X85019571Y-139551094D01*
X85090563Y-139332980D01*
X84970594Y-139087000D01*
X83627000Y-139087000D01*
X83627000Y-139107000D01*
X83373000Y-139107000D01*
X83373000Y-139087000D01*
X83353000Y-139087000D01*
X83353000Y-138833000D01*
X83373000Y-138833000D01*
X83373000Y-138813000D01*
X83627000Y-138813000D01*
X83627000Y-138833000D01*
X84970594Y-138833000D01*
X85090563Y-138587020D01*
X85019571Y-138368906D01*
X84875969Y-138093077D01*
X84681315Y-137850563D01*
X84645753Y-137820726D01*
X84811885Y-137684385D01*
X85034259Y-137413421D01*
X85199498Y-137104280D01*
X85301252Y-136768843D01*
X85335610Y-136420000D01*
X85303522Y-136094200D01*
X88196478Y-136094200D01*
X88164390Y-136420000D01*
G36*
X84681279Y-128625473D02*
G01*
X84920495Y-128753337D01*
X85180061Y-128832075D01*
X85382360Y-128852000D01*
X85717640Y-128852000D01*
X85919939Y-128832075D01*
X86179505Y-128753337D01*
X86368201Y-128652477D01*
X86368201Y-128995825D01*
X86363594Y-129042600D01*
X86381975Y-129229224D01*
X86436412Y-129408677D01*
X86516256Y-129558054D01*
X86524812Y-129574062D01*
X86643778Y-129719023D01*
X86680109Y-129748839D01*
X89162100Y-132230831D01*
X89162100Y-132372349D01*
X89209253Y-132609403D01*
X89301747Y-132832702D01*
X89436027Y-133033667D01*
X89606933Y-133204573D01*
X89807898Y-133338853D01*
X90031197Y-133431347D01*
X90268251Y-133478500D01*
X90509949Y-133478500D01*
X90747003Y-133431347D01*
X90970302Y-133338853D01*
X91088348Y-133259978D01*
X92568461Y-134740092D01*
X92598277Y-134776423D01*
X92743238Y-134895389D01*
X92768999Y-134909159D01*
X92768999Y-135200000D01*
X92784966Y-135362120D01*
X92832255Y-135518010D01*
X92909048Y-135661679D01*
X93012394Y-135787606D01*
X93138321Y-135890952D01*
X93281990Y-135967745D01*
X93437880Y-136015034D01*
X93600000Y-136031001D01*
X95800000Y-136031001D01*
X95962120Y-136015034D01*
X96118010Y-135967745D01*
X96261679Y-135890952D01*
X96387606Y-135787606D01*
X96475000Y-135681116D01*
X96562394Y-135787606D01*
X96688321Y-135890952D01*
X96831990Y-135967745D01*
X96987880Y-136015034D01*
X97150000Y-136031001D01*
X99147600Y-136031001D01*
X99147600Y-136135949D01*
X99194753Y-136373003D01*
X99287247Y-136596302D01*
X99421527Y-136797267D01*
X99592433Y-136968173D01*
X99793398Y-137102453D01*
X100016697Y-137194947D01*
X100253751Y-137242100D01*
X100495449Y-137242100D01*
X100732503Y-137194947D01*
X100955802Y-137102453D01*
X101156767Y-136968173D01*
X101327673Y-136797267D01*
X101461953Y-136596302D01*
X101554447Y-136373003D01*
X101601600Y-136135949D01*
X101601600Y-136031001D01*
X102900000Y-136031001D01*
X103062120Y-136015034D01*
X103218010Y-135967745D01*
X103361679Y-135890952D01*
X103487606Y-135787606D01*
X103590952Y-135661679D01*
X103667745Y-135518010D01*
X103715034Y-135362120D01*
X103731001Y-135200000D01*
X103731001Y-134393931D01*
X104970354Y-135633285D01*
X104864237Y-135690006D01*
X104570813Y-135930813D01*
X104330006Y-136224237D01*
X104151071Y-136559001D01*
X104040883Y-136922242D01*
X104003677Y-137300000D01*
X104040883Y-137677758D01*
X104151071Y-138040999D01*
X104330006Y-138375763D01*
X104361379Y-138413991D01*
X101159913Y-141615457D01*
X101123577Y-141645277D01*
X101004611Y-141790238D01*
X100916211Y-141955624D01*
X100872392Y-142100076D01*
X100861775Y-142135076D01*
X100843394Y-142321700D01*
X100848000Y-142368465D01*
X100848000Y-142583853D01*
X100724237Y-142650006D01*
X100430813Y-142890813D01*
X100190006Y-143184237D01*
X100025000Y-143492942D01*
X99859994Y-143184237D01*
X99619187Y-142890813D01*
X99325763Y-142650006D01*
X99202000Y-142583853D01*
X99202000Y-142477765D01*
X99206606Y-142431000D01*
X99188225Y-142244375D01*
X99175369Y-142201994D01*
X99133789Y-142064923D01*
X99045389Y-141899538D01*
X98926423Y-141754577D01*
X98890092Y-141724761D01*
X91667443Y-134502113D01*
X91637623Y-134465777D01*
X91492662Y-134346811D01*
X91327277Y-134258411D01*
X91147825Y-134203975D01*
X91007965Y-134190200D01*
X90961200Y-134185594D01*
X90914435Y-134190200D01*
X83546765Y-134190200D01*
X83500000Y-134185594D01*
X83453235Y-134190200D01*
X83313375Y-134203975D01*
X83133923Y-134258411D01*
X82968538Y-134346811D01*
X82823577Y-134465777D01*
X82704611Y-134610738D01*
X82616211Y-134776123D01*
X82589735Y-134863404D01*
X82459079Y-134933241D01*
X82188115Y-135155615D01*
X82113400Y-135246656D01*
X82113400Y-130029271D01*
X82120259Y-130031352D01*
X82329902Y-130052000D01*
X83270098Y-130052000D01*
X83479741Y-130031352D01*
X83748731Y-129949755D01*
X83996634Y-129817248D01*
X84213923Y-129638923D01*
X84392248Y-129421634D01*
X84524755Y-129173731D01*
X84606352Y-128904741D01*
X84633904Y-128625000D01*
X84629789Y-128583216D01*
X84681279Y-128625473D01*
X84681279Y-128625473D01*
G37*
X84681279Y-128625473D02*
X84920495Y-128753337D01*
X85180061Y-128832075D01*
X85382360Y-128852000D01*
X85717640Y-128852000D01*
X85919939Y-128832075D01*
X86179505Y-128753337D01*
X86368201Y-128652477D01*
X86368201Y-128995825D01*
X86363594Y-129042600D01*
X86381975Y-129229224D01*
X86436412Y-129408677D01*
X86516256Y-129558054D01*
X86524812Y-129574062D01*
X86643778Y-129719023D01*
X86680109Y-129748839D01*
X89162100Y-132230831D01*
X89162100Y-132372349D01*
X89209253Y-132609403D01*
X89301747Y-132832702D01*
X89436027Y-133033667D01*
X89606933Y-133204573D01*
X89807898Y-133338853D01*
X90031197Y-133431347D01*
X90268251Y-133478500D01*
X90509949Y-133478500D01*
X90747003Y-133431347D01*
X90970302Y-133338853D01*
X91088348Y-133259978D01*
X92568461Y-134740092D01*
X92598277Y-134776423D01*
X92743238Y-134895389D01*
X92768999Y-134909159D01*
X92768999Y-135200000D01*
X92784966Y-135362120D01*
X92832255Y-135518010D01*
X92909048Y-135661679D01*
X93012394Y-135787606D01*
X93138321Y-135890952D01*
X93281990Y-135967745D01*
X93437880Y-136015034D01*
X93600000Y-136031001D01*
X95800000Y-136031001D01*
X95962120Y-136015034D01*
X96118010Y-135967745D01*
X96261679Y-135890952D01*
X96387606Y-135787606D01*
X96475000Y-135681116D01*
X96562394Y-135787606D01*
X96688321Y-135890952D01*
X96831990Y-135967745D01*
X96987880Y-136015034D01*
X97150000Y-136031001D01*
X99147600Y-136031001D01*
X99147600Y-136135949D01*
X99194753Y-136373003D01*
X99287247Y-136596302D01*
X99421527Y-136797267D01*
X99592433Y-136968173D01*
X99793398Y-137102453D01*
X100016697Y-137194947D01*
X100253751Y-137242100D01*
X100495449Y-137242100D01*
X100732503Y-137194947D01*
X100955802Y-137102453D01*
X101156767Y-136968173D01*
X101327673Y-136797267D01*
X101461953Y-136596302D01*
X101554447Y-136373003D01*
X101601600Y-136135949D01*
X101601600Y-136031001D01*
X102900000Y-136031001D01*
X103062120Y-136015034D01*
X103218010Y-135967745D01*
X103361679Y-135890952D01*
X103487606Y-135787606D01*
X103590952Y-135661679D01*
X103667745Y-135518010D01*
X103715034Y-135362120D01*
X103731001Y-135200000D01*
X103731001Y-134393931D01*
X104970354Y-135633285D01*
X104864237Y-135690006D01*
X104570813Y-135930813D01*
X104330006Y-136224237D01*
X104151071Y-136559001D01*
X104040883Y-136922242D01*
X104003677Y-137300000D01*
X104040883Y-137677758D01*
X104151071Y-138040999D01*
X104330006Y-138375763D01*
X104361379Y-138413991D01*
X101159913Y-141615457D01*
X101123577Y-141645277D01*
X101004611Y-141790238D01*
X100916211Y-141955624D01*
X100872392Y-142100076D01*
X100861775Y-142135076D01*
X100843394Y-142321700D01*
X100848000Y-142368465D01*
X100848000Y-142583853D01*
X100724237Y-142650006D01*
X100430813Y-142890813D01*
X100190006Y-143184237D01*
X100025000Y-143492942D01*
X99859994Y-143184237D01*
X99619187Y-142890813D01*
X99325763Y-142650006D01*
X99202000Y-142583853D01*
X99202000Y-142477765D01*
X99206606Y-142431000D01*
X99188225Y-142244375D01*
X99175369Y-142201994D01*
X99133789Y-142064923D01*
X99045389Y-141899538D01*
X98926423Y-141754577D01*
X98890092Y-141724761D01*
X91667443Y-134502113D01*
X91637623Y-134465777D01*
X91492662Y-134346811D01*
X91327277Y-134258411D01*
X91147825Y-134203975D01*
X91007965Y-134190200D01*
X90961200Y-134185594D01*
X90914435Y-134190200D01*
X83546765Y-134190200D01*
X83500000Y-134185594D01*
X83453235Y-134190200D01*
X83313375Y-134203975D01*
X83133923Y-134258411D01*
X82968538Y-134346811D01*
X82823577Y-134465777D01*
X82704611Y-134610738D01*
X82616211Y-134776123D01*
X82589735Y-134863404D01*
X82459079Y-134933241D01*
X82188115Y-135155615D01*
X82113400Y-135246656D01*
X82113400Y-130029271D01*
X82120259Y-130031352D01*
X82329902Y-130052000D01*
X83270098Y-130052000D01*
X83479741Y-130031352D01*
X83748731Y-129949755D01*
X83996634Y-129817248D01*
X84213923Y-129638923D01*
X84392248Y-129421634D01*
X84524755Y-129173731D01*
X84606352Y-128904741D01*
X84633904Y-128625000D01*
X84629789Y-128583216D01*
X84681279Y-128625473D01*
G36*
X144541847Y-105452674D02*
G01*
X144715743Y-105712928D01*
X144937072Y-105934257D01*
X145197326Y-106108153D01*
X145486506Y-106227935D01*
X145793497Y-106289000D01*
X146106503Y-106289000D01*
X146178374Y-106274704D01*
X147763654Y-107859985D01*
X147503801Y-107998879D01*
X147273966Y-108187499D01*
X147201185Y-108098815D01*
X147104494Y-108019463D01*
X146994180Y-107960498D01*
X146874482Y-107924188D01*
X146750000Y-107911928D01*
X146185750Y-107915000D01*
X146027000Y-108073750D01*
X146027000Y-109273000D01*
X146047000Y-109273000D01*
X146047000Y-109527000D01*
X146027000Y-109527000D01*
X146027000Y-109547000D01*
X145773000Y-109547000D01*
X145773000Y-109527000D01*
X144573750Y-109527000D01*
X144415000Y-109685750D01*
X144411928Y-110250000D01*
X144424188Y-110374482D01*
X144460498Y-110494180D01*
X144519463Y-110604494D01*
X144585233Y-110684636D01*
X131448913Y-123820957D01*
X131412577Y-123850777D01*
X131293611Y-123995738D01*
X131205211Y-124161124D01*
X131153619Y-124331202D01*
X131150775Y-124340576D01*
X131132394Y-124527200D01*
X131137000Y-124573965D01*
X131137001Y-129214759D01*
X131135927Y-129215833D01*
X131001647Y-129416798D01*
X130909153Y-129640097D01*
X130862000Y-129877151D01*
X130862000Y-130118849D01*
X130909153Y-130355903D01*
X131001647Y-130579202D01*
X131135927Y-130780167D01*
X131306833Y-130951073D01*
X131507798Y-131085353D01*
X131731097Y-131177847D01*
X131968151Y-131225000D01*
X132209849Y-131225000D01*
X132446903Y-131177847D01*
X132670202Y-131085353D01*
X132871167Y-130951073D01*
X133042073Y-130780167D01*
X133176353Y-130579202D01*
X133268847Y-130355903D01*
X133316000Y-130118849D01*
X133316000Y-129877151D01*
X133268847Y-129640097D01*
X133176353Y-129416798D01*
X133042073Y-129215833D01*
X133041000Y-129214760D01*
X133041000Y-124921530D01*
X137389086Y-120573444D01*
X137500298Y-120647753D01*
X137723597Y-120740247D01*
X137960651Y-120787400D01*
X138202349Y-120787400D01*
X138439403Y-120740247D01*
X138662702Y-120647753D01*
X138678765Y-120637020D01*
X138730298Y-120671453D01*
X138953597Y-120763947D01*
X139190651Y-120811100D01*
X139432349Y-120811100D01*
X139669403Y-120763947D01*
X139892702Y-120671453D01*
X140093667Y-120537173D01*
X140264573Y-120366267D01*
X140398853Y-120165302D01*
X140491347Y-119942003D01*
X140538500Y-119704949D01*
X140538500Y-119703430D01*
X144218999Y-116022932D01*
X144218999Y-116050000D01*
X144234966Y-116212120D01*
X144282255Y-116368010D01*
X144359048Y-116511679D01*
X144385301Y-116543668D01*
X140802413Y-120126557D01*
X140766077Y-120156377D01*
X140647111Y-120301338D01*
X140558711Y-120466724D01*
X140516884Y-120604611D01*
X140504275Y-120646176D01*
X140485894Y-120832800D01*
X140490500Y-120879565D01*
X140490501Y-128462859D01*
X140489427Y-128463933D01*
X140355147Y-128664898D01*
X140262653Y-128888197D01*
X140215500Y-129125251D01*
X140215500Y-129366949D01*
X140262653Y-129604003D01*
X140294846Y-129681722D01*
X130209913Y-139766657D01*
X130173577Y-139796477D01*
X130054611Y-139941438D01*
X129966211Y-140106824D01*
X129923242Y-140248475D01*
X129911775Y-140286276D01*
X129893394Y-140472900D01*
X129898000Y-140519665D01*
X129898000Y-140906529D01*
X129867000Y-140931970D01*
X129867000Y-139311228D01*
X130014203Y-139281947D01*
X130237502Y-139189453D01*
X130438467Y-139055173D01*
X130609373Y-138884267D01*
X130743653Y-138683302D01*
X130836147Y-138460003D01*
X130883300Y-138222949D01*
X130883300Y-137981251D01*
X130836147Y-137744197D01*
X130743653Y-137520898D01*
X130609373Y-137319933D01*
X130592300Y-137302860D01*
X130592300Y-132965440D01*
X130593373Y-132964367D01*
X130727653Y-132763402D01*
X130820147Y-132540103D01*
X130867300Y-132303049D01*
X130867300Y-132061351D01*
X130820147Y-131824297D01*
X130727653Y-131600998D01*
X130593373Y-131400033D01*
X130422467Y-131229127D01*
X130221502Y-131094847D01*
X129998203Y-131002353D01*
X129867000Y-130976255D01*
X129867000Y-124596016D01*
X129932167Y-124552473D01*
X130103073Y-124381567D01*
X130237353Y-124180602D01*
X130329847Y-123957303D01*
X130377000Y-123720249D01*
X130377000Y-123478551D01*
X130329847Y-123241497D01*
X130237353Y-123018198D01*
X130103073Y-122817233D01*
X129932167Y-122646327D01*
X129731202Y-122512047D01*
X129507903Y-122419553D01*
X129270849Y-122372400D01*
X129029151Y-122372400D01*
X128792097Y-122419553D01*
X128568798Y-122512047D01*
X128367833Y-122646327D01*
X128196927Y-122817233D01*
X128062647Y-123018198D01*
X127970153Y-123241497D01*
X127923000Y-123478551D01*
X127923000Y-123720249D01*
X127963000Y-123921342D01*
X127963000Y-131872569D01*
X126063400Y-129972970D01*
X126063400Y-129971451D01*
X126016247Y-129734397D01*
X125923753Y-129511098D01*
X125789473Y-129310133D01*
X125618567Y-129139227D01*
X125417602Y-129004947D01*
X125194303Y-128912453D01*
X124957249Y-128865300D01*
X124715551Y-128865300D01*
X124482100Y-128911736D01*
X124482100Y-123855130D01*
X128559632Y-119777600D01*
X128561149Y-119777600D01*
X128798203Y-119730447D01*
X129021502Y-119637953D01*
X129222467Y-119503673D01*
X129393373Y-119332767D01*
X129527653Y-119131802D01*
X129620147Y-118908503D01*
X129667300Y-118671449D01*
X129667300Y-118429751D01*
X129620147Y-118192697D01*
X129587715Y-118114400D01*
X131428935Y-118114400D01*
X131475700Y-118119006D01*
X131522465Y-118114400D01*
X131662325Y-118100625D01*
X131841777Y-118046189D01*
X132007162Y-117957789D01*
X132152123Y-117838823D01*
X132181943Y-117802487D01*
X141434430Y-108550000D01*
X144411928Y-108550000D01*
X144415000Y-109114250D01*
X144573750Y-109273000D01*
X145773000Y-109273000D01*
X145773000Y-108073750D01*
X145614250Y-107915000D01*
X145050000Y-107911928D01*
X144925518Y-107924188D01*
X144805820Y-107960498D01*
X144695506Y-108019463D01*
X144598815Y-108098815D01*
X144519463Y-108195506D01*
X144460498Y-108305820D01*
X144424188Y-108425518D01*
X144411928Y-108550000D01*
X141434430Y-108550000D01*
X144538892Y-105445539D01*
X144541847Y-105452674D01*
X144541847Y-105452674D01*
G37*
X144541847Y-105452674D02*
X144715743Y-105712928D01*
X144937072Y-105934257D01*
X145197326Y-106108153D01*
X145486506Y-106227935D01*
X145793497Y-106289000D01*
X146106503Y-106289000D01*
X146178374Y-106274704D01*
X147763654Y-107859985D01*
X147503801Y-107998879D01*
X147273966Y-108187499D01*
X147201185Y-108098815D01*
X147104494Y-108019463D01*
X146994180Y-107960498D01*
X146874482Y-107924188D01*
X146750000Y-107911928D01*
X146185750Y-107915000D01*
X146027000Y-108073750D01*
X146027000Y-109273000D01*
X146047000Y-109273000D01*
X146047000Y-109527000D01*
X146027000Y-109527000D01*
X146027000Y-109547000D01*
X145773000Y-109547000D01*
X145773000Y-109527000D01*
X144573750Y-109527000D01*
X144415000Y-109685750D01*
X144411928Y-110250000D01*
X144424188Y-110374482D01*
X144460498Y-110494180D01*
X144519463Y-110604494D01*
X144585233Y-110684636D01*
X131448913Y-123820957D01*
X131412577Y-123850777D01*
X131293611Y-123995738D01*
X131205211Y-124161124D01*
X131153619Y-124331202D01*
X131150775Y-124340576D01*
X131132394Y-124527200D01*
X131137000Y-124573965D01*
X131137001Y-129214759D01*
X131135927Y-129215833D01*
X131001647Y-129416798D01*
X130909153Y-129640097D01*
X130862000Y-129877151D01*
X130862000Y-130118849D01*
X130909153Y-130355903D01*
X131001647Y-130579202D01*
X131135927Y-130780167D01*
X131306833Y-130951073D01*
X131507798Y-131085353D01*
X131731097Y-131177847D01*
X131968151Y-131225000D01*
X132209849Y-131225000D01*
X132446903Y-131177847D01*
X132670202Y-131085353D01*
X132871167Y-130951073D01*
X133042073Y-130780167D01*
X133176353Y-130579202D01*
X133268847Y-130355903D01*
X133316000Y-130118849D01*
X133316000Y-129877151D01*
X133268847Y-129640097D01*
X133176353Y-129416798D01*
X133042073Y-129215833D01*
X133041000Y-129214760D01*
X133041000Y-124921530D01*
X137389086Y-120573444D01*
X137500298Y-120647753D01*
X137723597Y-120740247D01*
X137960651Y-120787400D01*
X138202349Y-120787400D01*
X138439403Y-120740247D01*
X138662702Y-120647753D01*
X138678765Y-120637020D01*
X138730298Y-120671453D01*
X138953597Y-120763947D01*
X139190651Y-120811100D01*
X139432349Y-120811100D01*
X139669403Y-120763947D01*
X139892702Y-120671453D01*
X140093667Y-120537173D01*
X140264573Y-120366267D01*
X140398853Y-120165302D01*
X140491347Y-119942003D01*
X140538500Y-119704949D01*
X140538500Y-119703430D01*
X144218999Y-116022932D01*
X144218999Y-116050000D01*
X144234966Y-116212120D01*
X144282255Y-116368010D01*
X144359048Y-116511679D01*
X144385301Y-116543668D01*
X140802413Y-120126557D01*
X140766077Y-120156377D01*
X140647111Y-120301338D01*
X140558711Y-120466724D01*
X140516884Y-120604611D01*
X140504275Y-120646176D01*
X140485894Y-120832800D01*
X140490500Y-120879565D01*
X140490501Y-128462859D01*
X140489427Y-128463933D01*
X140355147Y-128664898D01*
X140262653Y-128888197D01*
X140215500Y-129125251D01*
X140215500Y-129366949D01*
X140262653Y-129604003D01*
X140294846Y-129681722D01*
X130209913Y-139766657D01*
X130173577Y-139796477D01*
X130054611Y-139941438D01*
X129966211Y-140106824D01*
X129923242Y-140248475D01*
X129911775Y-140286276D01*
X129893394Y-140472900D01*
X129898000Y-140519665D01*
X129898000Y-140906529D01*
X129867000Y-140931970D01*
X129867000Y-139311228D01*
X130014203Y-139281947D01*
X130237502Y-139189453D01*
X130438467Y-139055173D01*
X130609373Y-138884267D01*
X130743653Y-138683302D01*
X130836147Y-138460003D01*
X130883300Y-138222949D01*
X130883300Y-137981251D01*
X130836147Y-137744197D01*
X130743653Y-137520898D01*
X130609373Y-137319933D01*
X130592300Y-137302860D01*
X130592300Y-132965440D01*
X130593373Y-132964367D01*
X130727653Y-132763402D01*
X130820147Y-132540103D01*
X130867300Y-132303049D01*
X130867300Y-132061351D01*
X130820147Y-131824297D01*
X130727653Y-131600998D01*
X130593373Y-131400033D01*
X130422467Y-131229127D01*
X130221502Y-131094847D01*
X129998203Y-131002353D01*
X129867000Y-130976255D01*
X129867000Y-124596016D01*
X129932167Y-124552473D01*
X130103073Y-124381567D01*
X130237353Y-124180602D01*
X130329847Y-123957303D01*
X130377000Y-123720249D01*
X130377000Y-123478551D01*
X130329847Y-123241497D01*
X130237353Y-123018198D01*
X130103073Y-122817233D01*
X129932167Y-122646327D01*
X129731202Y-122512047D01*
X129507903Y-122419553D01*
X129270849Y-122372400D01*
X129029151Y-122372400D01*
X128792097Y-122419553D01*
X128568798Y-122512047D01*
X128367833Y-122646327D01*
X128196927Y-122817233D01*
X128062647Y-123018198D01*
X127970153Y-123241497D01*
X127923000Y-123478551D01*
X127923000Y-123720249D01*
X127963000Y-123921342D01*
X127963000Y-131872569D01*
X126063400Y-129972970D01*
X126063400Y-129971451D01*
X126016247Y-129734397D01*
X125923753Y-129511098D01*
X125789473Y-129310133D01*
X125618567Y-129139227D01*
X125417602Y-129004947D01*
X125194303Y-128912453D01*
X124957249Y-128865300D01*
X124715551Y-128865300D01*
X124482100Y-128911736D01*
X124482100Y-123855130D01*
X128559632Y-119777600D01*
X128561149Y-119777600D01*
X128798203Y-119730447D01*
X129021502Y-119637953D01*
X129222467Y-119503673D01*
X129393373Y-119332767D01*
X129527653Y-119131802D01*
X129620147Y-118908503D01*
X129667300Y-118671449D01*
X129667300Y-118429751D01*
X129620147Y-118192697D01*
X129587715Y-118114400D01*
X131428935Y-118114400D01*
X131475700Y-118119006D01*
X131522465Y-118114400D01*
X131662325Y-118100625D01*
X131841777Y-118046189D01*
X132007162Y-117957789D01*
X132152123Y-117838823D01*
X132181943Y-117802487D01*
X141434430Y-108550000D01*
X144411928Y-108550000D01*
X144415000Y-109114250D01*
X144573750Y-109273000D01*
X145773000Y-109273000D01*
X145773000Y-108073750D01*
X145614250Y-107915000D01*
X145050000Y-107911928D01*
X144925518Y-107924188D01*
X144805820Y-107960498D01*
X144695506Y-108019463D01*
X144598815Y-108098815D01*
X144519463Y-108195506D01*
X144460498Y-108305820D01*
X144424188Y-108425518D01*
X144411928Y-108550000D01*
X141434430Y-108550000D01*
X144538892Y-105445539D01*
X144541847Y-105452674D01*
G36*
X90127000Y-138833000D02*
G01*
X90147000Y-138833000D01*
X90147000Y-139087000D01*
X90127000Y-139087000D01*
X90127000Y-139107000D01*
X89873000Y-139107000D01*
X89873000Y-139087000D01*
X89853000Y-139087000D01*
X89853000Y-138833000D01*
X89873000Y-138833000D01*
X89873000Y-138813000D01*
X90127000Y-138813000D01*
X90127000Y-138833000D01*
X90127000Y-138833000D01*
G37*
X90127000Y-138833000D02*
X90147000Y-138833000D01*
X90147000Y-139087000D01*
X90127000Y-139087000D01*
X90127000Y-139107000D01*
X89873000Y-139107000D01*
X89873000Y-139087000D01*
X89853000Y-139087000D01*
X89853000Y-138833000D01*
X89873000Y-138833000D01*
X89873000Y-138813000D01*
X90127000Y-138813000D01*
X90127000Y-138833000D01*
G36*
X82188115Y-137684385D02*
G01*
X82354247Y-137820726D01*
X82318685Y-137850563D01*
X82124031Y-138093077D01*
X82113400Y-138113497D01*
X82113400Y-137593344D01*
X82188115Y-137684385D01*
X82188115Y-137684385D01*
G37*
X82188115Y-137684385D02*
X82354247Y-137820726D01*
X82318685Y-137850563D01*
X82124031Y-138093077D01*
X82113400Y-138113497D01*
X82113400Y-137593344D01*
X82188115Y-137684385D01*
G36*
X159535135Y-116756842D02*
G01*
X159851251Y-116852735D01*
X160097617Y-116877000D01*
X160262383Y-116877000D01*
X160508749Y-116852735D01*
X160824865Y-116756842D01*
X160958600Y-116685359D01*
X160958601Y-127264339D01*
X160859094Y-127215425D01*
X160646122Y-127150825D01*
X160377000Y-127268875D01*
X160377000Y-128713000D01*
X160397000Y-128713000D01*
X160397000Y-128967000D01*
X160377000Y-128967000D01*
X160377000Y-130411125D01*
X160646122Y-130529175D01*
X160859094Y-130464575D01*
X160958601Y-130415661D01*
X160958601Y-135702125D01*
X160953994Y-135748900D01*
X160972375Y-135935524D01*
X161026812Y-136114977D01*
X161100254Y-136252377D01*
X161115212Y-136280362D01*
X161234178Y-136425323D01*
X161270509Y-136455139D01*
X161437970Y-136622600D01*
X158564465Y-136622600D01*
X158517700Y-136617994D01*
X158470935Y-136622600D01*
X158331075Y-136636375D01*
X158151623Y-136690811D01*
X157986238Y-136779211D01*
X157841277Y-136898177D01*
X157811461Y-136934508D01*
X157519800Y-137226169D01*
X157519800Y-131632964D01*
X157524406Y-131586199D01*
X157506025Y-131399575D01*
X157485891Y-131333203D01*
X157451589Y-131220123D01*
X157363189Y-131054738D01*
X157244223Y-130909777D01*
X157207892Y-130879961D01*
X155998400Y-129670470D01*
X155998400Y-129668951D01*
X155951247Y-129431897D01*
X155870155Y-129236123D01*
X158560821Y-129236123D01*
X158670558Y-129558054D01*
X158840992Y-129852391D01*
X159065573Y-130107822D01*
X159335671Y-130314531D01*
X159640906Y-130464575D01*
X159853878Y-130529175D01*
X160123000Y-130411125D01*
X160123000Y-128967000D01*
X158678400Y-128967000D01*
X158560821Y-129236123D01*
X155870155Y-129236123D01*
X155858753Y-129208598D01*
X155724473Y-129007633D01*
X155553567Y-128836727D01*
X155352602Y-128702447D01*
X155129303Y-128609953D01*
X154892249Y-128562800D01*
X154650551Y-128562800D01*
X154413497Y-128609953D01*
X154190198Y-128702447D01*
X153989233Y-128836727D01*
X153818327Y-129007633D01*
X153684047Y-129208598D01*
X153591553Y-129431897D01*
X153544400Y-129668951D01*
X153544400Y-129910649D01*
X153591553Y-130147703D01*
X153684047Y-130371002D01*
X153818327Y-130571967D01*
X153989233Y-130742873D01*
X154190198Y-130877153D01*
X154264868Y-130908082D01*
X154122998Y-130966847D01*
X153922033Y-131101127D01*
X153920960Y-131102200D01*
X148321264Y-131102200D01*
X148274499Y-131097594D01*
X148087875Y-131115975D01*
X147908423Y-131170411D01*
X147743038Y-131258811D01*
X147598077Y-131377777D01*
X147568261Y-131414108D01*
X142206570Y-136775800D01*
X141841030Y-136775800D01*
X149200699Y-129416133D01*
X149379302Y-129342153D01*
X149580267Y-129207873D01*
X149751173Y-129036967D01*
X149885453Y-128836002D01*
X149973931Y-128622399D01*
X150152453Y-128443877D01*
X158560821Y-128443877D01*
X158678400Y-128713000D01*
X160123000Y-128713000D01*
X160123000Y-127268875D01*
X159853878Y-127150825D01*
X159640906Y-127215425D01*
X159335671Y-127365469D01*
X159065573Y-127572178D01*
X158840992Y-127827609D01*
X158670558Y-128121946D01*
X158560821Y-128443877D01*
X150152453Y-128443877D01*
X155425033Y-123171297D01*
X155531053Y-123203458D01*
X155850000Y-123234872D01*
X156168948Y-123203458D01*
X156475638Y-123110425D01*
X156758286Y-122959346D01*
X157006029Y-122756029D01*
X157209346Y-122508286D01*
X157360425Y-122225637D01*
X157453458Y-121918947D01*
X157477000Y-121679924D01*
X157477000Y-121120075D01*
X157453458Y-120881052D01*
X157360425Y-120574362D01*
X157209346Y-120291714D01*
X157006029Y-120043971D01*
X156758285Y-119840654D01*
X156475637Y-119689575D01*
X156285602Y-119631929D01*
X159291118Y-116626413D01*
X159535135Y-116756842D01*
X159535135Y-116756842D01*
G37*
X159535135Y-116756842D02*
X159851251Y-116852735D01*
X160097617Y-116877000D01*
X160262383Y-116877000D01*
X160508749Y-116852735D01*
X160824865Y-116756842D01*
X160958600Y-116685359D01*
X160958601Y-127264339D01*
X160859094Y-127215425D01*
X160646122Y-127150825D01*
X160377000Y-127268875D01*
X160377000Y-128713000D01*
X160397000Y-128713000D01*
X160397000Y-128967000D01*
X160377000Y-128967000D01*
X160377000Y-130411125D01*
X160646122Y-130529175D01*
X160859094Y-130464575D01*
X160958601Y-130415661D01*
X160958601Y-135702125D01*
X160953994Y-135748900D01*
X160972375Y-135935524D01*
X161026812Y-136114977D01*
X161100254Y-136252377D01*
X161115212Y-136280362D01*
X161234178Y-136425323D01*
X161270509Y-136455139D01*
X161437970Y-136622600D01*
X158564465Y-136622600D01*
X158517700Y-136617994D01*
X158470935Y-136622600D01*
X158331075Y-136636375D01*
X158151623Y-136690811D01*
X157986238Y-136779211D01*
X157841277Y-136898177D01*
X157811461Y-136934508D01*
X157519800Y-137226169D01*
X157519800Y-131632964D01*
X157524406Y-131586199D01*
X157506025Y-131399575D01*
X157485891Y-131333203D01*
X157451589Y-131220123D01*
X157363189Y-131054738D01*
X157244223Y-130909777D01*
X157207892Y-130879961D01*
X155998400Y-129670470D01*
X155998400Y-129668951D01*
X155951247Y-129431897D01*
X155870155Y-129236123D01*
X158560821Y-129236123D01*
X158670558Y-129558054D01*
X158840992Y-129852391D01*
X159065573Y-130107822D01*
X159335671Y-130314531D01*
X159640906Y-130464575D01*
X159853878Y-130529175D01*
X160123000Y-130411125D01*
X160123000Y-128967000D01*
X158678400Y-128967000D01*
X158560821Y-129236123D01*
X155870155Y-129236123D01*
X155858753Y-129208598D01*
X155724473Y-129007633D01*
X155553567Y-128836727D01*
X155352602Y-128702447D01*
X155129303Y-128609953D01*
X154892249Y-128562800D01*
X154650551Y-128562800D01*
X154413497Y-128609953D01*
X154190198Y-128702447D01*
X153989233Y-128836727D01*
X153818327Y-129007633D01*
X153684047Y-129208598D01*
X153591553Y-129431897D01*
X153544400Y-129668951D01*
X153544400Y-129910649D01*
X153591553Y-130147703D01*
X153684047Y-130371002D01*
X153818327Y-130571967D01*
X153989233Y-130742873D01*
X154190198Y-130877153D01*
X154264868Y-130908082D01*
X154122998Y-130966847D01*
X153922033Y-131101127D01*
X153920960Y-131102200D01*
X148321264Y-131102200D01*
X148274499Y-131097594D01*
X148087875Y-131115975D01*
X147908423Y-131170411D01*
X147743038Y-131258811D01*
X147598077Y-131377777D01*
X147568261Y-131414108D01*
X142206570Y-136775800D01*
X141841030Y-136775800D01*
X149200699Y-129416133D01*
X149379302Y-129342153D01*
X149580267Y-129207873D01*
X149751173Y-129036967D01*
X149885453Y-128836002D01*
X149973931Y-128622399D01*
X150152453Y-128443877D01*
X158560821Y-128443877D01*
X158678400Y-128713000D01*
X160123000Y-128713000D01*
X160123000Y-127268875D01*
X159853878Y-127150825D01*
X159640906Y-127215425D01*
X159335671Y-127365469D01*
X159065573Y-127572178D01*
X158840992Y-127827609D01*
X158670558Y-128121946D01*
X158560821Y-128443877D01*
X150152453Y-128443877D01*
X155425033Y-123171297D01*
X155531053Y-123203458D01*
X155850000Y-123234872D01*
X156168948Y-123203458D01*
X156475638Y-123110425D01*
X156758286Y-122959346D01*
X157006029Y-122756029D01*
X157209346Y-122508286D01*
X157360425Y-122225637D01*
X157453458Y-121918947D01*
X157477000Y-121679924D01*
X157477000Y-121120075D01*
X157453458Y-120881052D01*
X157360425Y-120574362D01*
X157209346Y-120291714D01*
X157006029Y-120043971D01*
X156758285Y-119840654D01*
X156475637Y-119689575D01*
X156285602Y-119631929D01*
X159291118Y-116626413D01*
X159535135Y-116756842D01*
G36*
X170898001Y-123864933D02*
G01*
X170898001Y-123992083D01*
X170842488Y-124015077D01*
X170494116Y-124247851D01*
X170197851Y-124544116D01*
X169965077Y-124892488D01*
X169804739Y-125279577D01*
X169723000Y-125690509D01*
X169723000Y-126109491D01*
X169804739Y-126520423D01*
X169965077Y-126907512D01*
X170197851Y-127255884D01*
X170494116Y-127552149D01*
X170842488Y-127784923D01*
X171229577Y-127945261D01*
X171640509Y-128027000D01*
X172059491Y-128027000D01*
X172470423Y-127945261D01*
X172857512Y-127784923D01*
X173205884Y-127552149D01*
X173502149Y-127255884D01*
X173573400Y-127149249D01*
X173573400Y-128888587D01*
X173468010Y-128832255D01*
X173312120Y-128784966D01*
X173150000Y-128768999D01*
X170550000Y-128768999D01*
X170387880Y-128784966D01*
X170231990Y-128832255D01*
X170088321Y-128909048D01*
X169962394Y-129012394D01*
X169859048Y-129138321D01*
X169782255Y-129281990D01*
X169734966Y-129437880D01*
X169718999Y-129600000D01*
X169718999Y-132200000D01*
X169734966Y-132362120D01*
X169782255Y-132518010D01*
X169859048Y-132661679D01*
X169962394Y-132787606D01*
X170088321Y-132890952D01*
X170231990Y-132967745D01*
X170387880Y-133015034D01*
X170550000Y-133031001D01*
X172085869Y-133031001D01*
X171829370Y-133287500D01*
X163848565Y-133287500D01*
X163801800Y-133282894D01*
X163615175Y-133301275D01*
X163435722Y-133355711D01*
X163335652Y-133409200D01*
X163270338Y-133444111D01*
X163125377Y-133563077D01*
X163095561Y-133599408D01*
X162862600Y-133832369D01*
X162862600Y-130349805D01*
X163085906Y-130459575D01*
X163298878Y-130524175D01*
X163568000Y-130406125D01*
X163568000Y-128962000D01*
X163822000Y-128962000D01*
X163822000Y-130406125D01*
X164091122Y-130524175D01*
X164304094Y-130459575D01*
X164609329Y-130309531D01*
X164879427Y-130102822D01*
X165104008Y-129847391D01*
X165274442Y-129553054D01*
X165384179Y-129231123D01*
X165266600Y-128962000D01*
X163822000Y-128962000D01*
X163568000Y-128962000D01*
X163548000Y-128962000D01*
X163548000Y-128708000D01*
X163568000Y-128708000D01*
X163568000Y-127263875D01*
X163822000Y-127263875D01*
X163822000Y-128708000D01*
X165266600Y-128708000D01*
X165384179Y-128438877D01*
X165274442Y-128116946D01*
X165104008Y-127822609D01*
X164879427Y-127567178D01*
X164609329Y-127360469D01*
X164304094Y-127210425D01*
X164091122Y-127145825D01*
X163822000Y-127263875D01*
X163568000Y-127263875D01*
X163298878Y-127145825D01*
X163085906Y-127210425D01*
X162862600Y-127320195D01*
X162862600Y-115829531D01*
X170898001Y-123864933D01*
X170898001Y-123864933D01*
G37*
X170898001Y-123864933D02*
X170898001Y-123992083D01*
X170842488Y-124015077D01*
X170494116Y-124247851D01*
X170197851Y-124544116D01*
X169965077Y-124892488D01*
X169804739Y-125279577D01*
X169723000Y-125690509D01*
X169723000Y-126109491D01*
X169804739Y-126520423D01*
X169965077Y-126907512D01*
X170197851Y-127255884D01*
X170494116Y-127552149D01*
X170842488Y-127784923D01*
X171229577Y-127945261D01*
X171640509Y-128027000D01*
X172059491Y-128027000D01*
X172470423Y-127945261D01*
X172857512Y-127784923D01*
X173205884Y-127552149D01*
X173502149Y-127255884D01*
X173573400Y-127149249D01*
X173573400Y-128888587D01*
X173468010Y-128832255D01*
X173312120Y-128784966D01*
X173150000Y-128768999D01*
X170550000Y-128768999D01*
X170387880Y-128784966D01*
X170231990Y-128832255D01*
X170088321Y-128909048D01*
X169962394Y-129012394D01*
X169859048Y-129138321D01*
X169782255Y-129281990D01*
X169734966Y-129437880D01*
X169718999Y-129600000D01*
X169718999Y-132200000D01*
X169734966Y-132362120D01*
X169782255Y-132518010D01*
X169859048Y-132661679D01*
X169962394Y-132787606D01*
X170088321Y-132890952D01*
X170231990Y-132967745D01*
X170387880Y-133015034D01*
X170550000Y-133031001D01*
X172085869Y-133031001D01*
X171829370Y-133287500D01*
X163848565Y-133287500D01*
X163801800Y-133282894D01*
X163615175Y-133301275D01*
X163435722Y-133355711D01*
X163335652Y-133409200D01*
X163270338Y-133444111D01*
X163125377Y-133563077D01*
X163095561Y-133599408D01*
X162862600Y-133832369D01*
X162862600Y-130349805D01*
X163085906Y-130459575D01*
X163298878Y-130524175D01*
X163568000Y-130406125D01*
X163568000Y-128962000D01*
X163822000Y-128962000D01*
X163822000Y-130406125D01*
X164091122Y-130524175D01*
X164304094Y-130459575D01*
X164609329Y-130309531D01*
X164879427Y-130102822D01*
X165104008Y-129847391D01*
X165274442Y-129553054D01*
X165384179Y-129231123D01*
X165266600Y-128962000D01*
X163822000Y-128962000D01*
X163568000Y-128962000D01*
X163548000Y-128962000D01*
X163548000Y-128708000D01*
X163568000Y-128708000D01*
X163568000Y-127263875D01*
X163822000Y-127263875D01*
X163822000Y-128708000D01*
X165266600Y-128708000D01*
X165384179Y-128438877D01*
X165274442Y-128116946D01*
X165104008Y-127822609D01*
X164879427Y-127567178D01*
X164609329Y-127360469D01*
X164304094Y-127210425D01*
X164091122Y-127145825D01*
X163822000Y-127263875D01*
X163568000Y-127263875D01*
X163298878Y-127145825D01*
X163085906Y-127210425D01*
X162862600Y-127320195D01*
X162862600Y-115829531D01*
X170898001Y-123864933D01*
G36*
X102218999Y-114300000D02*
G01*
X102234966Y-114462120D01*
X102282255Y-114618010D01*
X102359048Y-114761679D01*
X102462394Y-114887606D01*
X102588321Y-114990952D01*
X102731990Y-115067745D01*
X102887880Y-115115034D01*
X103040333Y-115130049D01*
X103054611Y-115156762D01*
X103173577Y-115301723D01*
X103318538Y-115420689D01*
X103483923Y-115509089D01*
X103505650Y-115515680D01*
X108108001Y-120118033D01*
X108108000Y-126836270D01*
X105677700Y-124405970D01*
X105677700Y-118581065D01*
X105682306Y-118534300D01*
X105663925Y-118347675D01*
X105655360Y-118319439D01*
X105609489Y-118168223D01*
X105521089Y-118002838D01*
X105402123Y-117857877D01*
X105365792Y-117828061D01*
X101785268Y-114247538D01*
X101850425Y-114125638D01*
X101943458Y-113818948D01*
X101967000Y-113579924D01*
X101967000Y-112620075D01*
X101943458Y-112381052D01*
X101850425Y-112074362D01*
X101814579Y-112007300D01*
X102218999Y-112007300D01*
X102218999Y-114300000D01*
X102218999Y-114300000D01*
G37*
X102218999Y-114300000D02*
X102234966Y-114462120D01*
X102282255Y-114618010D01*
X102359048Y-114761679D01*
X102462394Y-114887606D01*
X102588321Y-114990952D01*
X102731990Y-115067745D01*
X102887880Y-115115034D01*
X103040333Y-115130049D01*
X103054611Y-115156762D01*
X103173577Y-115301723D01*
X103318538Y-115420689D01*
X103483923Y-115509089D01*
X103505650Y-115515680D01*
X108108001Y-120118033D01*
X108108000Y-126836270D01*
X105677700Y-124405970D01*
X105677700Y-118581065D01*
X105682306Y-118534300D01*
X105663925Y-118347675D01*
X105655360Y-118319439D01*
X105609489Y-118168223D01*
X105521089Y-118002838D01*
X105402123Y-117857877D01*
X105365792Y-117828061D01*
X101785268Y-114247538D01*
X101850425Y-114125638D01*
X101943458Y-113818948D01*
X101967000Y-113579924D01*
X101967000Y-112620075D01*
X101943458Y-112381052D01*
X101850425Y-112074362D01*
X101814579Y-112007300D01*
X102218999Y-112007300D01*
X102218999Y-114300000D01*
G36*
X170868999Y-102900000D02*
G01*
X170884966Y-103062120D01*
X170932255Y-103218010D01*
X171009048Y-103361679D01*
X171112394Y-103487606D01*
X171238321Y-103590952D01*
X171381990Y-103667745D01*
X171537880Y-103715034D01*
X171548000Y-103716031D01*
X171548000Y-104031534D01*
X171543394Y-104078300D01*
X171549603Y-104141338D01*
X171561775Y-104264924D01*
X171616211Y-104444376D01*
X171704611Y-104609762D01*
X171823577Y-104754723D01*
X171859913Y-104784543D01*
X172363155Y-105287786D01*
X172339956Y-105300186D01*
X172244192Y-105564587D01*
X173200000Y-106520395D01*
X173214143Y-106506253D01*
X173393748Y-106685858D01*
X173379605Y-106700000D01*
X173393748Y-106714143D01*
X173214143Y-106893748D01*
X173200000Y-106879605D01*
X172244192Y-107835413D01*
X172339956Y-108099814D01*
X172629571Y-108240704D01*
X172941108Y-108322384D01*
X173262595Y-108341718D01*
X173573401Y-108299096D01*
X173573401Y-112468999D01*
X172200000Y-112468999D01*
X172037880Y-112484966D01*
X171881990Y-112532255D01*
X171738321Y-112609048D01*
X171612394Y-112712394D01*
X171509048Y-112838321D01*
X171432255Y-112981990D01*
X171384966Y-113137880D01*
X171368999Y-113300000D01*
X171368999Y-115300000D01*
X171384966Y-115462120D01*
X171432255Y-115618010D01*
X171509048Y-115761679D01*
X171612394Y-115887606D01*
X171738321Y-115990952D01*
X171881990Y-116067745D01*
X172037880Y-116115034D01*
X172200000Y-116131001D01*
X173573401Y-116131001D01*
X173573400Y-120010281D01*
X173494312Y-119862317D01*
X173199224Y-119730381D01*
X172029605Y-120900000D01*
X173199224Y-122069619D01*
X173494312Y-121937683D01*
X173573400Y-121779953D01*
X173573400Y-124650751D01*
X173502149Y-124544116D01*
X173205884Y-124247851D01*
X172857512Y-124015077D01*
X172802000Y-123992083D01*
X172802000Y-123517364D01*
X172806606Y-123470599D01*
X172788225Y-123283975D01*
X172733789Y-123104523D01*
X172645389Y-122939138D01*
X172526423Y-122794177D01*
X172490098Y-122764366D01*
X172461552Y-122735820D01*
X172640690Y-122676333D01*
X172887683Y-122544312D01*
X173019619Y-122249224D01*
X171850000Y-121079605D01*
X171835858Y-121093748D01*
X171656253Y-120914143D01*
X171670395Y-120900000D01*
X170500776Y-119730381D01*
X170205688Y-119862317D01*
X170034841Y-120203045D01*
X170011960Y-120286228D01*
X169276508Y-119550776D01*
X170680381Y-119550776D01*
X171850000Y-120720395D01*
X173019619Y-119550776D01*
X172887683Y-119255688D01*
X172546955Y-119084841D01*
X172179443Y-118983750D01*
X171799271Y-118956299D01*
X171421049Y-119003543D01*
X171059310Y-119123667D01*
X170812317Y-119255688D01*
X170680381Y-119550776D01*
X169276508Y-119550776D01*
X163902621Y-114176890D01*
X167158524Y-114176890D01*
X167203175Y-114324099D01*
X167328359Y-114586920D01*
X167502412Y-114820269D01*
X167718645Y-115015178D01*
X167968748Y-115164157D01*
X168243109Y-115261481D01*
X168473000Y-115140814D01*
X168473000Y-113947000D01*
X168727000Y-113947000D01*
X168727000Y-115140814D01*
X168956891Y-115261481D01*
X169231252Y-115164157D01*
X169481355Y-115015178D01*
X169697588Y-114820269D01*
X169871641Y-114586920D01*
X169996825Y-114324099D01*
X170041476Y-114176890D01*
X169920155Y-113947000D01*
X168727000Y-113947000D01*
X168473000Y-113947000D01*
X167279845Y-113947000D01*
X167158524Y-114176890D01*
X163902621Y-114176890D01*
X161132000Y-111406270D01*
X161132000Y-110788154D01*
X161371556Y-110591556D01*
X161581121Y-110336199D01*
X161736842Y-110044865D01*
X161832735Y-109728749D01*
X161865114Y-109400000D01*
X161832735Y-109071251D01*
X161736842Y-108755135D01*
X161728753Y-108740000D01*
X166914886Y-108740000D01*
X166947265Y-109068749D01*
X167043158Y-109384865D01*
X167198879Y-109676199D01*
X167408444Y-109931556D01*
X167504029Y-110010000D01*
X167408444Y-110088444D01*
X167198879Y-110343801D01*
X167043158Y-110635135D01*
X166947265Y-110951251D01*
X166914886Y-111280000D01*
X166947265Y-111608749D01*
X167043158Y-111924865D01*
X167198879Y-112216199D01*
X167408444Y-112471556D01*
X167659815Y-112677850D01*
X167502412Y-112819731D01*
X167328359Y-113053080D01*
X167203175Y-113315901D01*
X167158524Y-113463110D01*
X167279845Y-113693000D01*
X168473000Y-113693000D01*
X168473000Y-113673000D01*
X168727000Y-113673000D01*
X168727000Y-113693000D01*
X169920155Y-113693000D01*
X170041476Y-113463110D01*
X169996825Y-113315901D01*
X169871641Y-113053080D01*
X169697588Y-112819731D01*
X169540185Y-112677850D01*
X169791556Y-112471556D01*
X170001121Y-112216199D01*
X170156842Y-111924865D01*
X170252735Y-111608749D01*
X170285114Y-111280000D01*
X170252735Y-110951251D01*
X170156842Y-110635135D01*
X170001121Y-110343801D01*
X169791556Y-110088444D01*
X169695971Y-110010000D01*
X169791556Y-109931556D01*
X170001121Y-109676199D01*
X170156842Y-109384865D01*
X170252735Y-109068749D01*
X170285114Y-108740000D01*
X170252735Y-108411251D01*
X170156842Y-108095135D01*
X170001121Y-107803801D01*
X169934304Y-107722384D01*
X170037606Y-107637606D01*
X170140952Y-107511679D01*
X170217745Y-107368010D01*
X170265034Y-107212120D01*
X170281001Y-107050000D01*
X170281001Y-106762595D01*
X171558282Y-106762595D01*
X171602039Y-107081675D01*
X171707205Y-107386088D01*
X171800186Y-107560044D01*
X172064587Y-107655808D01*
X173020395Y-106700000D01*
X172064587Y-105744192D01*
X171800186Y-105839956D01*
X171659296Y-106129571D01*
X171577616Y-106441108D01*
X171558282Y-106762595D01*
X170281001Y-106762595D01*
X170281001Y-105350000D01*
X170265034Y-105187880D01*
X170217745Y-105031990D01*
X170140952Y-104888321D01*
X170037606Y-104762394D01*
X169911679Y-104659048D01*
X169768010Y-104582255D01*
X169612120Y-104534966D01*
X169450000Y-104518999D01*
X167750000Y-104518999D01*
X167587880Y-104534966D01*
X167431990Y-104582255D01*
X167288321Y-104659048D01*
X167162394Y-104762394D01*
X167059048Y-104888321D01*
X166982255Y-105031990D01*
X166934966Y-105187880D01*
X166918999Y-105350000D01*
X166918999Y-107050000D01*
X166934966Y-107212120D01*
X166982255Y-107368010D01*
X167059048Y-107511679D01*
X167162394Y-107637606D01*
X167265696Y-107722384D01*
X167198879Y-107803801D01*
X167043158Y-108095135D01*
X166947265Y-108411251D01*
X166914886Y-108740000D01*
X161728753Y-108740000D01*
X161581121Y-108463801D01*
X161371556Y-108208444D01*
X161116199Y-107998879D01*
X160824865Y-107843158D01*
X160508749Y-107747265D01*
X160262383Y-107723000D01*
X160097617Y-107723000D01*
X159851251Y-107747265D01*
X159535135Y-107843158D01*
X159247326Y-107996995D01*
X158834643Y-107584313D01*
X158804823Y-107547977D01*
X158659862Y-107429011D01*
X158501804Y-107344527D01*
X159115931Y-106730400D01*
X164451335Y-106730400D01*
X164498100Y-106735006D01*
X164544865Y-106730400D01*
X164684725Y-106716625D01*
X164864177Y-106662189D01*
X165029562Y-106573789D01*
X165174523Y-106454823D01*
X165204343Y-106418487D01*
X168167195Y-103455636D01*
X168171715Y-103459346D01*
X168454363Y-103610425D01*
X168761053Y-103703458D01*
X169080000Y-103734872D01*
X169398948Y-103703458D01*
X169705638Y-103610425D01*
X169988286Y-103459346D01*
X170236029Y-103256029D01*
X170439346Y-103008286D01*
X170590425Y-102725638D01*
X170683458Y-102418948D01*
X170707000Y-102179924D01*
X170707000Y-101220075D01*
X170697793Y-101126600D01*
X170868999Y-101126600D01*
X170868999Y-102900000D01*
X170868999Y-102900000D01*
G37*
X170868999Y-102900000D02*
X170884966Y-103062120D01*
X170932255Y-103218010D01*
X171009048Y-103361679D01*
X171112394Y-103487606D01*
X171238321Y-103590952D01*
X171381990Y-103667745D01*
X171537880Y-103715034D01*
X171548000Y-103716031D01*
X171548000Y-104031534D01*
X171543394Y-104078300D01*
X171549603Y-104141338D01*
X171561775Y-104264924D01*
X171616211Y-104444376D01*
X171704611Y-104609762D01*
X171823577Y-104754723D01*
X171859913Y-104784543D01*
X172363155Y-105287786D01*
X172339956Y-105300186D01*
X172244192Y-105564587D01*
X173200000Y-106520395D01*
X173214143Y-106506253D01*
X173393748Y-106685858D01*
X173379605Y-106700000D01*
X173393748Y-106714143D01*
X173214143Y-106893748D01*
X173200000Y-106879605D01*
X172244192Y-107835413D01*
X172339956Y-108099814D01*
X172629571Y-108240704D01*
X172941108Y-108322384D01*
X173262595Y-108341718D01*
X173573401Y-108299096D01*
X173573401Y-112468999D01*
X172200000Y-112468999D01*
X172037880Y-112484966D01*
X171881990Y-112532255D01*
X171738321Y-112609048D01*
X171612394Y-112712394D01*
X171509048Y-112838321D01*
X171432255Y-112981990D01*
X171384966Y-113137880D01*
X171368999Y-113300000D01*
X171368999Y-115300000D01*
X171384966Y-115462120D01*
X171432255Y-115618010D01*
X171509048Y-115761679D01*
X171612394Y-115887606D01*
X171738321Y-115990952D01*
X171881990Y-116067745D01*
X172037880Y-116115034D01*
X172200000Y-116131001D01*
X173573401Y-116131001D01*
X173573400Y-120010281D01*
X173494312Y-119862317D01*
X173199224Y-119730381D01*
X172029605Y-120900000D01*
X173199224Y-122069619D01*
X173494312Y-121937683D01*
X173573400Y-121779953D01*
X173573400Y-124650751D01*
X173502149Y-124544116D01*
X173205884Y-124247851D01*
X172857512Y-124015077D01*
X172802000Y-123992083D01*
X172802000Y-123517364D01*
X172806606Y-123470599D01*
X172788225Y-123283975D01*
X172733789Y-123104523D01*
X172645389Y-122939138D01*
X172526423Y-122794177D01*
X172490098Y-122764366D01*
X172461552Y-122735820D01*
X172640690Y-122676333D01*
X172887683Y-122544312D01*
X173019619Y-122249224D01*
X171850000Y-121079605D01*
X171835858Y-121093748D01*
X171656253Y-120914143D01*
X171670395Y-120900000D01*
X170500776Y-119730381D01*
X170205688Y-119862317D01*
X170034841Y-120203045D01*
X170011960Y-120286228D01*
X169276508Y-119550776D01*
X170680381Y-119550776D01*
X171850000Y-120720395D01*
X173019619Y-119550776D01*
X172887683Y-119255688D01*
X172546955Y-119084841D01*
X172179443Y-118983750D01*
X171799271Y-118956299D01*
X171421049Y-119003543D01*
X171059310Y-119123667D01*
X170812317Y-119255688D01*
X170680381Y-119550776D01*
X169276508Y-119550776D01*
X163902621Y-114176890D01*
X167158524Y-114176890D01*
X167203175Y-114324099D01*
X167328359Y-114586920D01*
X167502412Y-114820269D01*
X167718645Y-115015178D01*
X167968748Y-115164157D01*
X168243109Y-115261481D01*
X168473000Y-115140814D01*
X168473000Y-113947000D01*
X168727000Y-113947000D01*
X168727000Y-115140814D01*
X168956891Y-115261481D01*
X169231252Y-115164157D01*
X169481355Y-115015178D01*
X169697588Y-114820269D01*
X169871641Y-114586920D01*
X169996825Y-114324099D01*
X170041476Y-114176890D01*
X169920155Y-113947000D01*
X168727000Y-113947000D01*
X168473000Y-113947000D01*
X167279845Y-113947000D01*
X167158524Y-114176890D01*
X163902621Y-114176890D01*
X161132000Y-111406270D01*
X161132000Y-110788154D01*
X161371556Y-110591556D01*
X161581121Y-110336199D01*
X161736842Y-110044865D01*
X161832735Y-109728749D01*
X161865114Y-109400000D01*
X161832735Y-109071251D01*
X161736842Y-108755135D01*
X161728753Y-108740000D01*
X166914886Y-108740000D01*
X166947265Y-109068749D01*
X167043158Y-109384865D01*
X167198879Y-109676199D01*
X167408444Y-109931556D01*
X167504029Y-110010000D01*
X167408444Y-110088444D01*
X167198879Y-110343801D01*
X167043158Y-110635135D01*
X166947265Y-110951251D01*
X166914886Y-111280000D01*
X166947265Y-111608749D01*
X167043158Y-111924865D01*
X167198879Y-112216199D01*
X167408444Y-112471556D01*
X167659815Y-112677850D01*
X167502412Y-112819731D01*
X167328359Y-113053080D01*
X167203175Y-113315901D01*
X167158524Y-113463110D01*
X167279845Y-113693000D01*
X168473000Y-113693000D01*
X168473000Y-113673000D01*
X168727000Y-113673000D01*
X168727000Y-113693000D01*
X169920155Y-113693000D01*
X170041476Y-113463110D01*
X169996825Y-113315901D01*
X169871641Y-113053080D01*
X169697588Y-112819731D01*
X169540185Y-112677850D01*
X169791556Y-112471556D01*
X170001121Y-112216199D01*
X170156842Y-111924865D01*
X170252735Y-111608749D01*
X170285114Y-111280000D01*
X170252735Y-110951251D01*
X170156842Y-110635135D01*
X170001121Y-110343801D01*
X169791556Y-110088444D01*
X169695971Y-110010000D01*
X169791556Y-109931556D01*
X170001121Y-109676199D01*
X170156842Y-109384865D01*
X170252735Y-109068749D01*
X170285114Y-108740000D01*
X170252735Y-108411251D01*
X170156842Y-108095135D01*
X170001121Y-107803801D01*
X169934304Y-107722384D01*
X170037606Y-107637606D01*
X170140952Y-107511679D01*
X170217745Y-107368010D01*
X170265034Y-107212120D01*
X170281001Y-107050000D01*
X170281001Y-106762595D01*
X171558282Y-106762595D01*
X171602039Y-107081675D01*
X171707205Y-107386088D01*
X171800186Y-107560044D01*
X172064587Y-107655808D01*
X173020395Y-106700000D01*
X172064587Y-105744192D01*
X171800186Y-105839956D01*
X171659296Y-106129571D01*
X171577616Y-106441108D01*
X171558282Y-106762595D01*
X170281001Y-106762595D01*
X170281001Y-105350000D01*
X170265034Y-105187880D01*
X170217745Y-105031990D01*
X170140952Y-104888321D01*
X170037606Y-104762394D01*
X169911679Y-104659048D01*
X169768010Y-104582255D01*
X169612120Y-104534966D01*
X169450000Y-104518999D01*
X167750000Y-104518999D01*
X167587880Y-104534966D01*
X167431990Y-104582255D01*
X167288321Y-104659048D01*
X167162394Y-104762394D01*
X167059048Y-104888321D01*
X166982255Y-105031990D01*
X166934966Y-105187880D01*
X166918999Y-105350000D01*
X166918999Y-107050000D01*
X166934966Y-107212120D01*
X166982255Y-107368010D01*
X167059048Y-107511679D01*
X167162394Y-107637606D01*
X167265696Y-107722384D01*
X167198879Y-107803801D01*
X167043158Y-108095135D01*
X166947265Y-108411251D01*
X166914886Y-108740000D01*
X161728753Y-108740000D01*
X161581121Y-108463801D01*
X161371556Y-108208444D01*
X161116199Y-107998879D01*
X160824865Y-107843158D01*
X160508749Y-107747265D01*
X160262383Y-107723000D01*
X160097617Y-107723000D01*
X159851251Y-107747265D01*
X159535135Y-107843158D01*
X159247326Y-107996995D01*
X158834643Y-107584313D01*
X158804823Y-107547977D01*
X158659862Y-107429011D01*
X158501804Y-107344527D01*
X159115931Y-106730400D01*
X164451335Y-106730400D01*
X164498100Y-106735006D01*
X164544865Y-106730400D01*
X164684725Y-106716625D01*
X164864177Y-106662189D01*
X165029562Y-106573789D01*
X165174523Y-106454823D01*
X165204343Y-106418487D01*
X168167195Y-103455636D01*
X168171715Y-103459346D01*
X168454363Y-103610425D01*
X168761053Y-103703458D01*
X169080000Y-103734872D01*
X169398948Y-103703458D01*
X169705638Y-103610425D01*
X169988286Y-103459346D01*
X170236029Y-103256029D01*
X170439346Y-103008286D01*
X170590425Y-102725638D01*
X170683458Y-102418948D01*
X170707000Y-102179924D01*
X170707000Y-101220075D01*
X170697793Y-101126600D01*
X170868999Y-101126600D01*
X170868999Y-102900000D01*
G36*
X150897000Y-121273000D02*
G01*
X150917000Y-121273000D01*
X150917000Y-121527000D01*
X150897000Y-121527000D01*
X150897000Y-122869915D01*
X151119039Y-122991904D01*
X151176730Y-122981444D01*
X151438421Y-122875551D01*
X151674425Y-122720639D01*
X151875673Y-122522662D01*
X151921960Y-122454603D01*
X151950654Y-122508286D01*
X152153971Y-122756029D01*
X152314499Y-122887770D01*
X150568712Y-124633557D01*
X150567400Y-124620235D01*
X150567400Y-122911450D01*
X150643000Y-122869915D01*
X150643000Y-121527000D01*
X150623000Y-121527000D01*
X150623000Y-121273000D01*
X150643000Y-121273000D01*
X150643000Y-121253000D01*
X150897000Y-121253000D01*
X150897000Y-121273000D01*
X150897000Y-121273000D01*
G37*
X150897000Y-121273000D02*
X150917000Y-121273000D01*
X150917000Y-121527000D01*
X150897000Y-121527000D01*
X150897000Y-122869915D01*
X151119039Y-122991904D01*
X151176730Y-122981444D01*
X151438421Y-122875551D01*
X151674425Y-122720639D01*
X151875673Y-122522662D01*
X151921960Y-122454603D01*
X151950654Y-122508286D01*
X152153971Y-122756029D01*
X152314499Y-122887770D01*
X150568712Y-124633557D01*
X150567400Y-124620235D01*
X150567400Y-122911450D01*
X150643000Y-122869915D01*
X150643000Y-121527000D01*
X150623000Y-121527000D01*
X150623000Y-121273000D01*
X150643000Y-121273000D01*
X150643000Y-121253000D01*
X150897000Y-121253000D01*
X150897000Y-121273000D01*
G36*
X86368201Y-121447523D02*
G01*
X86179505Y-121346663D01*
X85919939Y-121267925D01*
X85717640Y-121248000D01*
X85382360Y-121248000D01*
X85180061Y-121267925D01*
X84920495Y-121346663D01*
X84681279Y-121474527D01*
X84629789Y-121516784D01*
X84633904Y-121475000D01*
X84606352Y-121195259D01*
X84524755Y-120926269D01*
X84392248Y-120678366D01*
X84213923Y-120461077D01*
X83996634Y-120282752D01*
X83752994Y-120152524D01*
X83982916Y-120106789D01*
X84315409Y-119969066D01*
X84614645Y-119769124D01*
X84869124Y-119514645D01*
X85069066Y-119215409D01*
X85206789Y-118882916D01*
X85277000Y-118529944D01*
X85277000Y-118170056D01*
X85206789Y-117817084D01*
X85069066Y-117484591D01*
X84869124Y-117185355D01*
X84614645Y-116930876D01*
X84315409Y-116730934D01*
X83982916Y-116593211D01*
X83629944Y-116523000D01*
X83270056Y-116523000D01*
X82917084Y-116593211D01*
X82584591Y-116730934D01*
X82285355Y-116930876D01*
X82113400Y-117102831D01*
X82113400Y-114985413D01*
X82494192Y-114985413D01*
X82589956Y-115249814D01*
X82879571Y-115390704D01*
X83191108Y-115472384D01*
X83512595Y-115491718D01*
X83831675Y-115447961D01*
X84136088Y-115342795D01*
X84310044Y-115249814D01*
X84405808Y-114985413D01*
X83450000Y-114029605D01*
X82494192Y-114985413D01*
X82113400Y-114985413D01*
X82113400Y-114732940D01*
X82314587Y-114805808D01*
X83270395Y-113850000D01*
X83629605Y-113850000D01*
X84585413Y-114805808D01*
X84849814Y-114710044D01*
X84990704Y-114420429D01*
X85072384Y-114108892D01*
X85091718Y-113787405D01*
X85047961Y-113468325D01*
X84942795Y-113163912D01*
X84849814Y-112989956D01*
X84585413Y-112894192D01*
X83629605Y-113850000D01*
X83270395Y-113850000D01*
X83256253Y-113835858D01*
X83435858Y-113656253D01*
X83450000Y-113670395D01*
X84405808Y-112714587D01*
X84310044Y-112450186D01*
X84111420Y-112353561D01*
X84315409Y-112269066D01*
X84614645Y-112069124D01*
X84869124Y-111814645D01*
X85069066Y-111515409D01*
X85206789Y-111182916D01*
X85277000Y-110829944D01*
X85277000Y-110470056D01*
X85208761Y-110127000D01*
X86368200Y-110127000D01*
X86368201Y-121447523D01*
X86368201Y-121447523D01*
G37*
X86368201Y-121447523D02*
X86179505Y-121346663D01*
X85919939Y-121267925D01*
X85717640Y-121248000D01*
X85382360Y-121248000D01*
X85180061Y-121267925D01*
X84920495Y-121346663D01*
X84681279Y-121474527D01*
X84629789Y-121516784D01*
X84633904Y-121475000D01*
X84606352Y-121195259D01*
X84524755Y-120926269D01*
X84392248Y-120678366D01*
X84213923Y-120461077D01*
X83996634Y-120282752D01*
X83752994Y-120152524D01*
X83982916Y-120106789D01*
X84315409Y-119969066D01*
X84614645Y-119769124D01*
X84869124Y-119514645D01*
X85069066Y-119215409D01*
X85206789Y-118882916D01*
X85277000Y-118529944D01*
X85277000Y-118170056D01*
X85206789Y-117817084D01*
X85069066Y-117484591D01*
X84869124Y-117185355D01*
X84614645Y-116930876D01*
X84315409Y-116730934D01*
X83982916Y-116593211D01*
X83629944Y-116523000D01*
X83270056Y-116523000D01*
X82917084Y-116593211D01*
X82584591Y-116730934D01*
X82285355Y-116930876D01*
X82113400Y-117102831D01*
X82113400Y-114985413D01*
X82494192Y-114985413D01*
X82589956Y-115249814D01*
X82879571Y-115390704D01*
X83191108Y-115472384D01*
X83512595Y-115491718D01*
X83831675Y-115447961D01*
X84136088Y-115342795D01*
X84310044Y-115249814D01*
X84405808Y-114985413D01*
X83450000Y-114029605D01*
X82494192Y-114985413D01*
X82113400Y-114985413D01*
X82113400Y-114732940D01*
X82314587Y-114805808D01*
X83270395Y-113850000D01*
X83629605Y-113850000D01*
X84585413Y-114805808D01*
X84849814Y-114710044D01*
X84990704Y-114420429D01*
X85072384Y-114108892D01*
X85091718Y-113787405D01*
X85047961Y-113468325D01*
X84942795Y-113163912D01*
X84849814Y-112989956D01*
X84585413Y-112894192D01*
X83629605Y-113850000D01*
X83270395Y-113850000D01*
X83256253Y-113835858D01*
X83435858Y-113656253D01*
X83450000Y-113670395D01*
X84405808Y-112714587D01*
X84310044Y-112450186D01*
X84111420Y-112353561D01*
X84315409Y-112269066D01*
X84614645Y-112069124D01*
X84869124Y-111814645D01*
X85069066Y-111515409D01*
X85206789Y-111182916D01*
X85277000Y-110829944D01*
X85277000Y-110470056D01*
X85208761Y-110127000D01*
X86368200Y-110127000D01*
X86368201Y-121447523D01*
G36*
X95357869Y-116348900D02*
G01*
X94031767Y-116348900D01*
X94041476Y-116316890D01*
X93920155Y-116087000D01*
X92727000Y-116087000D01*
X92727000Y-116107000D01*
X92473000Y-116107000D01*
X92473000Y-116087000D01*
X92453000Y-116087000D01*
X92453000Y-115833000D01*
X92473000Y-115833000D01*
X92473000Y-115813000D01*
X92727000Y-115813000D01*
X92727000Y-115833000D01*
X93920155Y-115833000D01*
X94041476Y-115603110D01*
X93996825Y-115455901D01*
X93871641Y-115193080D01*
X93697588Y-114959731D01*
X93540185Y-114817850D01*
X93697618Y-114688648D01*
X95357869Y-116348900D01*
X95357869Y-116348900D01*
G37*
X95357869Y-116348900D02*
X94031767Y-116348900D01*
X94041476Y-116316890D01*
X93920155Y-116087000D01*
X92727000Y-116087000D01*
X92727000Y-116107000D01*
X92473000Y-116107000D01*
X92473000Y-116087000D01*
X92453000Y-116087000D01*
X92453000Y-115833000D01*
X92473000Y-115833000D01*
X92473000Y-115813000D01*
X92727000Y-115813000D01*
X92727000Y-115833000D01*
X93920155Y-115833000D01*
X94041476Y-115603110D01*
X93996825Y-115455901D01*
X93871641Y-115193080D01*
X93697588Y-114959731D01*
X93540185Y-114817850D01*
X93697618Y-114688648D01*
X95357869Y-116348900D01*
G36*
X90143748Y-113835858D02*
G01*
X90129605Y-113850000D01*
X91085413Y-114805808D01*
X91349814Y-114710044D01*
X91401715Y-114603356D01*
X91408444Y-114611556D01*
X91659815Y-114817850D01*
X91502412Y-114959731D01*
X91328359Y-115193080D01*
X91203175Y-115455901D01*
X91161460Y-115593430D01*
X90812118Y-115244088D01*
X90905808Y-114985413D01*
X89950000Y-114029605D01*
X89935858Y-114043748D01*
X89756253Y-113864143D01*
X89770395Y-113850000D01*
X89756253Y-113835858D01*
X89935858Y-113656253D01*
X89950000Y-113670395D01*
X89964143Y-113656253D01*
X90143748Y-113835858D01*
X90143748Y-113835858D01*
G37*
X90143748Y-113835858D02*
X90129605Y-113850000D01*
X91085413Y-114805808D01*
X91349814Y-114710044D01*
X91401715Y-114603356D01*
X91408444Y-114611556D01*
X91659815Y-114817850D01*
X91502412Y-114959731D01*
X91328359Y-115193080D01*
X91203175Y-115455901D01*
X91161460Y-115593430D01*
X90812118Y-115244088D01*
X90905808Y-114985413D01*
X89950000Y-114029605D01*
X89935858Y-114043748D01*
X89756253Y-113864143D01*
X89770395Y-113850000D01*
X89756253Y-113835858D01*
X89935858Y-113656253D01*
X89950000Y-113670395D01*
X89964143Y-113656253D01*
X90143748Y-113835858D01*
G36*
X91408444Y-112071556D02*
G01*
X91504029Y-112150000D01*
X91408444Y-112228444D01*
X91198879Y-112483801D01*
X91096987Y-112674429D01*
X91021475Y-112598917D01*
X90905807Y-112714585D01*
X90810044Y-112450186D01*
X90611420Y-112353561D01*
X90815409Y-112269066D01*
X91114645Y-112069124D01*
X91274917Y-111908852D01*
X91408444Y-112071556D01*
X91408444Y-112071556D01*
G37*
X91408444Y-112071556D02*
X91504029Y-112150000D01*
X91408444Y-112228444D01*
X91198879Y-112483801D01*
X91096987Y-112674429D01*
X91021475Y-112598917D01*
X90905807Y-112714585D01*
X90810044Y-112450186D01*
X90611420Y-112353561D01*
X90815409Y-112269066D01*
X91114645Y-112069124D01*
X91274917Y-111908852D01*
X91408444Y-112071556D01*
G36*
X153643748Y-104685858D02*
G01*
X153629605Y-104700000D01*
X153643748Y-104714143D01*
X153522490Y-104835400D01*
X153377510Y-104835400D01*
X153256253Y-104714143D01*
X153270395Y-104700000D01*
X153256253Y-104685858D01*
X153435858Y-104506253D01*
X153450000Y-104520395D01*
X153464143Y-104506253D01*
X153643748Y-104685858D01*
X153643748Y-104685858D01*
G37*
X153643748Y-104685858D02*
X153629605Y-104700000D01*
X153643748Y-104714143D01*
X153522490Y-104835400D01*
X153377510Y-104835400D01*
X153256253Y-104714143D01*
X153270395Y-104700000D01*
X153256253Y-104685858D01*
X153435858Y-104506253D01*
X153450000Y-104520395D01*
X153464143Y-104506253D01*
X153643748Y-104685858D01*
M02*
