M48
; DRILL file {KiCad (5.1.4)-1} date 26/8/2021 23:10:19
; FORMAT={-:-/ absolute / inch / decimal}
; #@! TF.CreationDate,2021-08-26T23:10:19-03:00
; #@! TF.GenerationSoftware,Kicad,Pcbnew,(5.1.4)-1
; #@! TF.FileFunction,Plated,1,2,PTH
FMAT,2
INCH
T1C0.0157
T2C0.0197
T3C0.0236
T4C0.0295
T5C0.0300
T6C0.0315
T7C0.0394
T8C0.0433
T9C0.0512
T10C0.0787
T11C0.1260
%
G90
G05
T1
X3.3298Y-5.0777
X3.3298Y-5.2529
X3.515Y-4.5718
X3.5586Y-5.2068
X3.5661Y-4.9798
X3.5805Y-5.0767
X3.6295Y-5.4093
X3.6664Y-5.0814
X3.6829Y-5.1581
X3.7324Y-4.872
X3.7408Y-4.9915
X3.7483Y-5.1133
X3.7716Y-4.4765
X3.7914Y-4.7251
X3.8097Y-5.0604
X3.817Y-4.684
X3.8395Y-4.9555
X3.8731Y-5.1269
X3.893Y-4.6377
X3.8935Y-4.5967
X3.9247Y-4.9669
X3.9302Y-5.0849
X3.9518Y-5.3549
X4.0098Y-4.9079
X4.0384Y-5.0728
X4.0787Y-4.6658
X4.0807Y-4.5415
X4.0853Y-5.1977
X4.1744Y-4.9243
X4.2377Y-5.4839
X4.2635Y-5.3499
X4.2937Y-5.1651
X4.3556Y-5.5161
X4.3717Y-4.9069
X4.3753Y-5.3494
X4.4059Y-5.2598
X4.4439Y-5.2245
X4.4736Y-4.6653
X4.5018Y-4.1577
X4.5261Y-5.8205
X4.5591Y-4.6639
X4.5845Y-5.5397
X4.6255Y-4.4964
X4.6314Y-4.707
X4.6761Y-5.351
X4.679Y-4.6638
X4.708Y-4.4893
X4.872Y-4.6981
X4.8803Y-4.121
X4.9148Y-5.1217
X4.9925Y-4.3984
X5.0567Y-4.6673
X5.0759Y-4.4573
X5.0817Y-4.1415
X5.0846Y-4.8661
X5.1039Y-5.204
X5.1046Y-5.4371
X5.2004Y-5.118
X5.2157Y-5.7004
X5.3448Y-5.4371
X5.3486Y-4.0525
X5.3715Y-4.0196
X5.391Y-5.4224
X5.4363Y-4.7071
X5.455Y-5.368
X5.4847Y-4.708
X5.4892Y-5.8476
X5.5083Y-5.3669
X5.5292Y-5.6097
X5.5517Y-5.1958
X5.5536Y-5.5765
X5.5686Y-5.0884
X5.5733Y-5.1554
X5.5981Y-4.8064
X5.7456Y-5.1017
X5.7476Y-4.9395
X5.7534Y-4.4783
X5.7934Y-5.6898
X5.8014Y-4.4922
X5.8207Y-5.3181
X5.8551Y-4.9435
X5.8582Y-5.0494
X5.9358Y-4.9074
X6.0907Y-5.199
X6.093Y-4.1961
X6.0934Y-5.1098
X6.1641Y-5.4527
X6.3427Y-5.7801
X6.403Y-5.3309
X6.417Y-5.1676
X6.5475Y-6.0461
T4
X3.7992Y-3.9157
X3.7992Y-3.9657
X3.7992Y-4.0157
X5.2283Y-3.9157
X5.2283Y-3.9657
X5.2283Y-4.0157
X4.5118Y-3.9157
X4.5118Y-3.9657
X4.5118Y-4.0157
T5
X5.6299Y-5.5394
X5.7362Y-5.5394
X5.7461Y-4.122
X5.8425Y-5.5394
X5.8445Y-4.122
X5.9429Y-4.122
X5.9449Y-5.5394
X6.0413Y-4.122
X6.0512Y-5.5394
X6.1575Y-5.5394
T6
X4.3346Y-4.1488
X4.3346Y-4.4488
X4.4346Y-4.1488
X4.4346Y-4.4488
X6.3622Y-3.1063
X6.3622Y-3.5063
X5.5817Y-3.1181
X5.5817Y-3.5181
X5.1516Y-5.6154
X5.1516Y-5.9154
X5.2516Y-5.6154
X5.2516Y-5.9154
X4.9154Y-5.6154
X4.9154Y-5.9154
X5.0154Y-5.6154
X5.0154Y-5.9154
X3.2579Y-5.7795
X3.2579Y-5.8583
X5.8583Y-5.6929
X5.9567Y-5.6929
X5.9695Y-3.1102
X5.9695Y-3.5102
X5.2116Y-3.1191
X5.2116Y-3.5191
X6.122Y-3.7039
X6.122Y-4.0039
X6.222Y-3.7039
X6.222Y-4.0039
X6.322Y-3.7039
X6.322Y-4.0039
X6.7913Y-3.7039
X6.7913Y-4.0039
X6.8913Y-3.7039
X6.8913Y-4.0039
X6.9913Y-3.7039
X6.9913Y-4.0039
X6.311Y-5.6929
X6.4094Y-5.6929
X5.6339Y-5.6929
X5.7323Y-5.6929
X4.6791Y-5.6154
X4.6791Y-5.9154
X4.7791Y-5.6154
X4.7791Y-5.9154
X3.4843Y-5.7776
X3.4843Y-5.8563
X4.439Y-5.6134
X4.439Y-5.9134
X4.539Y-5.6134
X4.539Y-5.9134
X3.6502Y-5.9331
X4.0502Y-5.9331
X6.4567Y-3.7039
X6.4567Y-4.0039
X6.5567Y-3.7039
X6.5567Y-4.0039
X6.6567Y-3.7039
X6.6567Y-4.0039
X4.1722Y-5.5295
X4.1722Y-5.9295
X6.752Y-3.1024
X6.752Y-3.5024
X3.8504Y-4.1528
X3.8504Y-4.4528
X3.9504Y-4.1528
X3.9504Y-4.4528
X4.2963Y-5.5295
X4.2963Y-5.9295
X5.4528Y-3.7039
X5.4528Y-4.0039
X5.5528Y-3.7039
X5.5528Y-4.0039
X5.6528Y-3.7039
X5.6528Y-4.0039
X6.0846Y-5.6929
X6.1831Y-5.6929
X3.6502Y-5.8071
X4.0502Y-5.8071
X5.7874Y-3.7039
X5.7874Y-4.0039
X5.8874Y-3.7039
X5.8874Y-4.0039
X5.9874Y-3.7039
X5.9874Y-4.0039
X4.0886Y-4.1528
X4.0886Y-4.4528
X4.1886Y-4.1528
X4.1886Y-4.4528
T7
X6.1614Y-5.8583
X6.1614Y-6.4291
X6.2598Y-6.4291
X6.3583Y-5.8583
X6.3583Y-6.4291
X3.25Y-3.7067
X3.7224Y-3.7067
X5.7441Y-4.5354
X5.8441Y-4.5354
X5.9441Y-4.5354
X6.6339Y-6.1969
X6.7339Y-6.1969
X5.7441Y-4.3071
X5.8441Y-4.3071
X5.9441Y-4.3071
X3.6457Y-4.3654
X3.6457Y-4.4654
X3.6457Y-4.5654
X3.6457Y-4.6654
X4.5492Y-3.7067
X5.0217Y-3.7067
X3.5236Y-4.813
X3.5236Y-4.913
X6.1063Y-4.3071
X6.2063Y-4.3071
X6.3063Y-4.3071
X6.6378Y-4.1811
X6.6378Y-4.2811
X6.6378Y-4.3811
X6.6378Y-4.4811
X6.8189Y-4.2008
X6.8189Y-4.5
X5.8358Y-4.7795
X5.9358Y-4.7795
X6.0358Y-4.7795
X6.1358Y-4.7795
X6.1063Y-4.5354
X6.2063Y-4.5354
X6.3063Y-4.5354
X3.8996Y-3.7067
X4.372Y-3.7067
X6.6307Y-5.9882
X6.7307Y-5.9882
X6.8307Y-5.9882
T8
X4.1709Y-5.4055
X4.5709Y-5.4055
X3.2874Y-5.3709
X3.2874Y-5.4709
X3.2874Y-5.5709
X3.7283Y-5.2795
X3.7283Y-5.6795
X3.5433Y-5.3709
X3.5433Y-5.4709
X3.5433Y-5.5709
X3.8681Y-5.2795
X3.8681Y-5.6795
X4.6535Y-3.9646
X5.0535Y-3.9646
X5.811Y-3.1819
X5.811Y-3.2819
X5.811Y-3.3819
X3.2854Y-4.1791
X3.2854Y-4.3563
X3.5413Y-4.1791
X3.5413Y-4.3563
X6.3091Y-5.0724
X6.3091Y-5.4724
X6.4447Y-5.0722
X6.4447Y-5.4722
X6.2028Y-3.174
X6.2028Y-3.274
X6.2028Y-3.374
X3.9409Y-3.9213
X4.3409Y-3.9213
X6.9882Y-3.1661
X6.9882Y-3.2661
X6.9882Y-3.3661
X3.2362Y-3.937
X3.6362Y-3.937
X4.0079Y-5.2795
X4.0079Y-5.6795
X6.5925Y-3.172
X6.5925Y-3.272
X6.5925Y-3.372
X3.2854Y-4.4823
X3.2854Y-4.6594
X3.5413Y-4.4823
X3.5413Y-4.6594
X5.4331Y-3.1858
X5.4331Y-3.2858
X5.4331Y-3.3858
T9
X4.5472Y-3.2244
X4.7835Y-3.7835
X5.0217Y-3.2264
X3.9744Y-6.1909
X4.1713Y-6.1909
X4.3681Y-6.1909
X5.8366Y-2.8622
X6.0335Y-2.8622
X6.2303Y-2.8622
X6.7657Y-4.7598
X6.7657Y-4.9567
X6.7657Y-5.1535
X5.1949Y-6.1909
X5.3917Y-6.1909
X3.5551Y-6.1909
X3.752Y-6.1909
X3.8976Y-3.2244
X4.1339Y-3.7835
X4.372Y-3.2264
X6.7657Y-5.3701
X6.7657Y-5.5669
X6.7657Y-5.7638
X5.6083Y-6.1909
X5.8051Y-6.1909
X4.6161Y-2.8622
X4.813Y-2.8622
X5.0098Y-2.8622
X5.2264Y-2.8622
X5.4232Y-2.8622
X5.6201Y-2.8622
X3.248Y-3.2244
X3.4843Y-3.7835
X3.7224Y-3.2264
X4.5846Y-6.1909
X4.7815Y-6.1909
X4.9783Y-6.1909
X4.0059Y-2.8622
X4.2028Y-2.8622
X4.3996Y-2.8622
T11
X3.2874Y-6.3386
X3.3071Y-2.7165
X6.9291Y-6.3386
X6.9291Y-2.7165
T2
G00X3.2736Y-4.7825
M15
G01X3.2461Y-4.7825
M16
G05
G00X3.2736Y-5.064
M15
G01X3.2461Y-5.064
M16
G05
T3
G00X3.372Y-4.8278
M15
G01X3.3642Y-4.8278
M16
G05
G00X3.372Y-5.0187
M15
G01X3.3642Y-5.0187
M16
G05
T10
G00X6.0394Y-6.1437
M15
G01X6.0394Y-6.124
M16
G05
G00X6.4803Y-6.1437
M15
G01X6.4803Y-6.124
M16
G05
T0
M30
