M48
; DRILL file {KiCad (5.1.4)-1} date 15/11/2021 14:39:12
; FORMAT={-:-/ absolute / metric / decimal}
; #@! TF.CreationDate,2021-11-15T14:39:12-03:00
; #@! TF.GenerationSoftware,Kicad,Pcbnew,(5.1.4)-1
; #@! TF.FileFunction,Plated,1,2,PTH
FMAT,2
METRIC
T1C0.400
T2C0.500
T3C0.600
T4C0.750
T5C0.800
T6C0.900
T7C1.000
T8C1.100
T9C1.300
T10C1.500
%
G90
G05
T1
X95.181Y-126.646
X96.732Y-120.434
X96.875Y-122.637
X98.916Y-121.583
X100.802Y-132.45
X102.0Y-118.958
X102.908Y-131.0
X103.211Y-115.663
X104.979Y-128.51
X105.093Y-139.079
X105.463Y-129.489
X106.966Y-138.0
X107.385Y-129.689
X110.964Y-128.003
X114.879Y-135.588
X115.059Y-130.499
X115.366Y-118.593
X115.985Y-131.243
X116.316Y-122.974
X117.025Y-137.801
X117.719Y-114.543
X118.579Y-118.382
X118.951Y-114.686
X120.271Y-115.738
X120.808Y-132.992
X120.983Y-116.714
X126.744Y-113.07
X127.443Y-127.854
X128.394Y-128.647
X129.31Y-129.643
X129.887Y-108.065
X130.209Y-112.697
X130.41Y-129.485
X130.591Y-105.013
X131.8Y-108.294
X133.839Y-125.78
X134.158Y-108.468
X135.318Y-134.207
X135.756Y-117.027
X136.674Y-108.346
X138.937Y-108.448
X139.452Y-123.247
X140.615Y-116.35
X140.905Y-110.456
X140.968Y-122.521
X141.327Y-124.457
X142.027Y-110.36
X146.608Y-123.832
X151.672Y-120.944
X166.318Y-128.338
X167.016Y-121.649
X169.385Y-128.305
X169.669Y-129.332
T4
X113.0Y-98.96
X113.0Y-100.23
X113.0Y-101.5
X130.5Y-98.96
X130.5Y-100.23
X130.5Y-101.5
X96.5Y-98.96
X96.5Y-100.23
X96.5Y-101.5
T5
X133.35Y-139.63
X133.35Y-147.25
X135.89Y-139.63
X135.89Y-147.25
X172.5Y-94.08
X172.5Y-101.7
X175.04Y-94.08
X175.04Y-101.7
X177.58Y-94.08
X177.58Y-101.7
X147.0Y-94.08
X147.0Y-101.7
X149.54Y-94.08
X149.54Y-101.7
X152.08Y-94.08
X152.08Y-101.7
X115.34Y-150.5
X125.5Y-150.5
X171.5Y-78.8
X171.5Y-88.96
X87.5Y-148.5
X87.5Y-150.5
X102.34Y-150.55
X112.5Y-150.55
X132.375Y-79.225
X132.375Y-89.385
X93.5Y-148.5
X93.5Y-150.5
X126.85Y-139.63
X126.85Y-147.25
X129.39Y-139.63
X129.39Y-147.25
X164.0Y-94.08
X164.0Y-101.7
X166.54Y-94.08
X166.54Y-101.7
X169.08Y-94.08
X169.08Y-101.7
X100.0Y-105.48
X100.0Y-113.1
X102.54Y-105.48
X102.54Y-113.1
X138.5Y-94.08
X138.5Y-101.7
X141.04Y-94.08
X141.04Y-101.7
X143.58Y-94.08
X143.58Y-101.7
X111.5Y-105.38
X111.5Y-113.0
X114.04Y-105.38
X114.04Y-113.0
X141.34Y-150.5
X151.5Y-150.5
X141.775Y-79.2
X141.775Y-89.36
X151.625Y-79.0
X151.625Y-89.16
X128.34Y-150.5
X138.5Y-150.5
X140.0Y-139.63
X140.0Y-147.25
X142.54Y-139.63
X142.54Y-147.25
X120.25Y-139.58
X120.25Y-147.2
X122.79Y-139.58
X122.79Y-147.2
X155.5Y-94.08
X155.5Y-101.7
X158.04Y-94.08
X158.04Y-101.7
X160.58Y-94.08
X160.58Y-101.7
X161.6Y-78.9
X161.6Y-89.06
X105.85Y-105.48
X105.85Y-113.1
X108.39Y-105.48
X108.39Y-113.1
T6
X111.5Y-117.0
X111.5Y-118.27
X111.5Y-119.54
X111.5Y-120.81
T7
X165.25Y-107.42
X165.25Y-109.96
X165.25Y-112.5
X169.5Y-134.0
X169.5Y-136.54
X169.5Y-139.08
X169.5Y-141.62
X115.55Y-93.65
X127.55Y-93.65
X176.0Y-147.5
X176.0Y-150.04
X176.0Y-152.58
X99.05Y-93.65
X111.05Y-93.65
X170.0Y-109.5
X177.6Y-109.5
X161.88Y-118.9
X164.42Y-118.9
X166.96Y-118.9
X169.5Y-118.9
X82.55Y-93.65
X94.55Y-93.65
X91.5Y-124.96
X91.5Y-127.5
X90.5Y-112.38
X90.5Y-114.92
X90.5Y-117.46
X90.5Y-120.0
T8
X154.25Y-130.84
X154.25Y-141.0
X81.5Y-104.5
X81.5Y-109.0
X88.0Y-104.5
X88.0Y-109.0
X167.45Y-80.57
X167.45Y-83.11
X167.45Y-85.65
X177.5Y-80.42
X177.5Y-82.96
X177.5Y-85.5
X90.75Y-104.5
X90.75Y-109.0
X97.25Y-104.5
X97.25Y-109.0
X82.25Y-144.5
X82.25Y-147.04
X82.25Y-149.58
X104.34Y-146.5
X114.5Y-146.5
X158.25Y-130.84
X158.25Y-141.0
X157.55Y-80.62
X157.55Y-83.16
X157.55Y-85.7
X147.6Y-80.82
X147.6Y-83.36
X147.6Y-85.9
X82.25Y-133.0
X82.25Y-135.54
X82.25Y-138.08
X104.34Y-142.5
X114.5Y-142.5
X138.0Y-80.92
X138.0Y-83.46
X138.0Y-86.0
T9
X118.45Y-157.25
X123.45Y-157.25
X128.45Y-157.25
X99.0Y-81.4
X105.0Y-95.6
X111.05Y-81.45
X133.95Y-157.25
X138.95Y-157.25
X90.3Y-157.25
X95.3Y-157.25
X157.1Y-157.25
X162.1Y-157.25
X167.1Y-157.25
X82.5Y-81.4
X88.5Y-95.6
X94.55Y-81.45
X117.25Y-72.7
X122.25Y-72.7
X127.25Y-72.7
X100.95Y-157.25
X105.95Y-157.25
X110.95Y-157.25
X148.25Y-72.7
X153.25Y-72.7
X158.25Y-72.7
X101.75Y-72.7
X106.75Y-72.7
X111.75Y-72.7
X144.45Y-157.25
X149.45Y-157.25
X132.75Y-72.7
X137.75Y-72.7
X142.75Y-72.7
X115.5Y-81.4
X121.5Y-95.6
X127.55Y-81.45
T10
X149.0Y-122.01
X149.0Y-142.5
T2
G00X83.15Y-122.925
M15
G01X82.45Y-122.925
M16
G05
G00X83.15Y-130.075
M15
G01X82.45Y-130.075
M16
G05
T3
G00X85.65Y-124.075
M15
G01X85.45Y-124.075
M16
G05
G00X85.65Y-128.925
M15
G01X85.45Y-128.925
M16
G05
T0
M30
