G04 #@! TF.GenerationSoftware,KiCad,Pcbnew,(5.1.4)-1*
G04 #@! TF.CreationDate,2021-08-26T23:09:31-03:00*
G04 #@! TF.ProjectId,PLC_ESP32,504c435f-4553-4503-9332-2e6b69636164,rev?*
G04 #@! TF.SameCoordinates,Original*
G04 #@! TF.FileFunction,Legend,Top*
G04 #@! TF.FilePolarity,Positive*
%FSLAX46Y46*%
G04 Gerber Fmt 4.6, Leading zero omitted, Abs format (unit mm)*
G04 Created by KiCad (PCBNEW (5.1.4)-1) date 2021-08-26 23:09:31*
%MOMM*%
%LPD*%
G04 APERTURE LIST*
%ADD10C,0.250000*%
%ADD11C,0.150000*%
%ADD12C,0.175000*%
%ADD13C,0.125000*%
%ADD14C,0.300000*%
%ADD15C,0.120000*%
G04 APERTURE END LIST*
D10*
X179378571Y-132685714D02*
X177878571Y-132685714D01*
X177878571Y-132304761D01*
X177950000Y-132209523D01*
X178021428Y-132161904D01*
X178164285Y-132114285D01*
X178378571Y-132114285D01*
X178521428Y-132161904D01*
X178592857Y-132209523D01*
X178664285Y-132304761D01*
X178664285Y-132685714D01*
X177878571Y-131780952D02*
X179378571Y-131542857D01*
X178307142Y-131352380D01*
X179378571Y-131161904D01*
X177878571Y-130923809D01*
X179378571Y-130542857D02*
X177878571Y-130542857D01*
X178950000Y-130209523D01*
X177878571Y-129876190D01*
X179378571Y-129876190D01*
X179378571Y-128876190D02*
X179378571Y-129447619D01*
X179378571Y-129161904D02*
X177878571Y-129161904D01*
X178092857Y-129257142D01*
X178235714Y-129352380D01*
X178307142Y-129447619D01*
X179378571Y-127685714D02*
X177878571Y-127685714D01*
X177878571Y-127304761D01*
X177950000Y-127209523D01*
X178021428Y-127161904D01*
X178164285Y-127114285D01*
X178378571Y-127114285D01*
X178521428Y-127161904D01*
X178592857Y-127209523D01*
X178664285Y-127304761D01*
X178664285Y-127685714D01*
X177878571Y-126780952D02*
X179378571Y-126542857D01*
X178307142Y-126352380D01*
X179378571Y-126161904D01*
X177878571Y-125923809D01*
X179378571Y-125542857D02*
X177878571Y-125542857D01*
X178950000Y-125209523D01*
X177878571Y-124876190D01*
X179378571Y-124876190D01*
X178021428Y-124447619D02*
X177950000Y-124400000D01*
X177878571Y-124304761D01*
X177878571Y-124066666D01*
X177950000Y-123971428D01*
X178021428Y-123923809D01*
X178164285Y-123876190D01*
X178307142Y-123876190D01*
X178521428Y-123923809D01*
X179378571Y-124495238D01*
X179378571Y-123876190D01*
X177950000Y-122161904D02*
X177878571Y-122257142D01*
X177878571Y-122400000D01*
X177950000Y-122542857D01*
X178092857Y-122638095D01*
X178235714Y-122685714D01*
X178521428Y-122733333D01*
X178735714Y-122733333D01*
X179021428Y-122685714D01*
X179164285Y-122638095D01*
X179307142Y-122542857D01*
X179378571Y-122400000D01*
X179378571Y-122304761D01*
X179307142Y-122161904D01*
X179235714Y-122114285D01*
X178735714Y-122114285D01*
X178735714Y-122304761D01*
X179378571Y-121685714D02*
X177878571Y-121685714D01*
X179378571Y-121114285D01*
X177878571Y-121114285D01*
X179378571Y-120638095D02*
X177878571Y-120638095D01*
X177878571Y-120400000D01*
X177950000Y-120257142D01*
X178092857Y-120161904D01*
X178235714Y-120114285D01*
X178521428Y-120066666D01*
X178735714Y-120066666D01*
X179021428Y-120114285D01*
X179164285Y-120161904D01*
X179307142Y-120257142D01*
X179378571Y-120400000D01*
X179378571Y-120638095D01*
X179478571Y-148985714D02*
X177978571Y-148985714D01*
X177978571Y-148747619D01*
X178050000Y-148604761D01*
X178192857Y-148509523D01*
X178335714Y-148461904D01*
X178621428Y-148414285D01*
X178835714Y-148414285D01*
X179121428Y-148461904D01*
X179264285Y-148509523D01*
X179407142Y-148604761D01*
X179478571Y-148747619D01*
X179478571Y-148985714D01*
X179050000Y-148033333D02*
X179050000Y-147557142D01*
X179478571Y-148128571D02*
X177978571Y-147795238D01*
X179478571Y-147461904D01*
X179335714Y-146557142D02*
X179407142Y-146604761D01*
X179478571Y-146747619D01*
X179478571Y-146842857D01*
X179407142Y-146985714D01*
X179264285Y-147080952D01*
X179121428Y-147128571D01*
X178835714Y-147176190D01*
X178621428Y-147176190D01*
X178335714Y-147128571D01*
X178192857Y-147080952D01*
X178050000Y-146985714D01*
X177978571Y-146842857D01*
X177978571Y-146747619D01*
X178050000Y-146604761D01*
X178121428Y-146557142D01*
X177978571Y-145938095D02*
X177978571Y-145842857D01*
X178050000Y-145747619D01*
X178121428Y-145700000D01*
X178264285Y-145652380D01*
X178550000Y-145604761D01*
X178907142Y-145604761D01*
X179192857Y-145652380D01*
X179335714Y-145700000D01*
X179407142Y-145747619D01*
X179478571Y-145842857D01*
X179478571Y-145938095D01*
X179407142Y-146033333D01*
X179335714Y-146080952D01*
X179192857Y-146128571D01*
X178907142Y-146176190D01*
X178550000Y-146176190D01*
X178264285Y-146128571D01*
X178121428Y-146080952D01*
X178050000Y-146033333D01*
X177978571Y-145938095D01*
X179335714Y-145176190D02*
X179407142Y-145128571D01*
X179478571Y-145176190D01*
X179407142Y-145223809D01*
X179335714Y-145176190D01*
X179478571Y-145176190D01*
X177978571Y-144509523D02*
X177978571Y-144414285D01*
X178050000Y-144319047D01*
X178121428Y-144271428D01*
X178264285Y-144223809D01*
X178550000Y-144176190D01*
X178907142Y-144176190D01*
X179192857Y-144223809D01*
X179335714Y-144271428D01*
X179407142Y-144319047D01*
X179478571Y-144414285D01*
X179478571Y-144509523D01*
X179407142Y-144604761D01*
X179335714Y-144652380D01*
X179192857Y-144700000D01*
X178907142Y-144747619D01*
X178550000Y-144747619D01*
X178264285Y-144700000D01*
X178121428Y-144652380D01*
X178050000Y-144604761D01*
X177978571Y-144509523D01*
X179478571Y-142985714D02*
X177978571Y-142985714D01*
X177978571Y-142747619D01*
X178050000Y-142604761D01*
X178192857Y-142509523D01*
X178335714Y-142461904D01*
X178621428Y-142414285D01*
X178835714Y-142414285D01*
X179121428Y-142461904D01*
X179264285Y-142509523D01*
X179407142Y-142604761D01*
X179478571Y-142747619D01*
X179478571Y-142985714D01*
X179050000Y-142033333D02*
X179050000Y-141557142D01*
X179478571Y-142128571D02*
X177978571Y-141795238D01*
X179478571Y-141461904D01*
X179335714Y-140557142D02*
X179407142Y-140604761D01*
X179478571Y-140747619D01*
X179478571Y-140842857D01*
X179407142Y-140985714D01*
X179264285Y-141080952D01*
X179121428Y-141128571D01*
X178835714Y-141176190D01*
X178621428Y-141176190D01*
X178335714Y-141128571D01*
X178192857Y-141080952D01*
X178050000Y-140985714D01*
X177978571Y-140842857D01*
X177978571Y-140747619D01*
X178050000Y-140604761D01*
X178121428Y-140557142D01*
X177978571Y-139938095D02*
X177978571Y-139842857D01*
X178050000Y-139747619D01*
X178121428Y-139700000D01*
X178264285Y-139652380D01*
X178550000Y-139604761D01*
X178907142Y-139604761D01*
X179192857Y-139652380D01*
X179335714Y-139700000D01*
X179407142Y-139747619D01*
X179478571Y-139842857D01*
X179478571Y-139938095D01*
X179407142Y-140033333D01*
X179335714Y-140080952D01*
X179192857Y-140128571D01*
X178907142Y-140176190D01*
X178550000Y-140176190D01*
X178264285Y-140128571D01*
X178121428Y-140080952D01*
X178050000Y-140033333D01*
X177978571Y-139938095D01*
X179335714Y-139176190D02*
X179407142Y-139128571D01*
X179478571Y-139176190D01*
X179407142Y-139223809D01*
X179335714Y-139176190D01*
X179478571Y-139176190D01*
X179478571Y-138176190D02*
X179478571Y-138747619D01*
X179478571Y-138461904D02*
X177978571Y-138461904D01*
X178192857Y-138557142D01*
X178335714Y-138652380D01*
X178407142Y-138747619D01*
X178050000Y-136461904D02*
X177978571Y-136557142D01*
X177978571Y-136700000D01*
X178050000Y-136842857D01*
X178192857Y-136938095D01*
X178335714Y-136985714D01*
X178621428Y-137033333D01*
X178835714Y-137033333D01*
X179121428Y-136985714D01*
X179264285Y-136938095D01*
X179407142Y-136842857D01*
X179478571Y-136700000D01*
X179478571Y-136604761D01*
X179407142Y-136461904D01*
X179335714Y-136414285D01*
X178835714Y-136414285D01*
X178835714Y-136604761D01*
X179478571Y-135985714D02*
X177978571Y-135985714D01*
X179478571Y-135414285D01*
X177978571Y-135414285D01*
X179478571Y-134938095D02*
X177978571Y-134938095D01*
X177978571Y-134700000D01*
X178050000Y-134557142D01*
X178192857Y-134461904D01*
X178335714Y-134414285D01*
X178621428Y-134366666D01*
X178835714Y-134366666D01*
X179121428Y-134414285D01*
X179264285Y-134461904D01*
X179407142Y-134557142D01*
X179478571Y-134700000D01*
X179478571Y-134938095D01*
D11*
X168471428Y-160652380D02*
X168471428Y-159652380D01*
X169138095Y-159652380D02*
X169233333Y-159652380D01*
X169328571Y-159700000D01*
X169376190Y-159747619D01*
X169423809Y-159842857D01*
X169471428Y-160033333D01*
X169471428Y-160271428D01*
X169423809Y-160461904D01*
X169376190Y-160557142D01*
X169328571Y-160604761D01*
X169233333Y-160652380D01*
X169138095Y-160652380D01*
X169042857Y-160604761D01*
X168995238Y-160557142D01*
X168947619Y-160461904D01*
X168900000Y-160271428D01*
X168900000Y-160033333D01*
X168947619Y-159842857D01*
X168995238Y-159747619D01*
X169042857Y-159700000D01*
X169138095Y-159652380D01*
X169804761Y-159652380D02*
X170423809Y-159652380D01*
X170090476Y-160033333D01*
X170233333Y-160033333D01*
X170328571Y-160080952D01*
X170376190Y-160128571D01*
X170423809Y-160223809D01*
X170423809Y-160461904D01*
X170376190Y-160557142D01*
X170328571Y-160604761D01*
X170233333Y-160652380D01*
X169947619Y-160652380D01*
X169852380Y-160604761D01*
X169804761Y-160557142D01*
X171280952Y-159985714D02*
X171280952Y-160652380D01*
X171042857Y-159604761D02*
X170804761Y-160319047D01*
X171423809Y-160319047D01*
X153433333Y-118452380D02*
X153433333Y-117452380D01*
X153900000Y-117452380D02*
X153966666Y-117452380D01*
X154033333Y-117500000D01*
X154066666Y-117547619D01*
X154100000Y-117642857D01*
X154133333Y-117833333D01*
X154133333Y-118071428D01*
X154100000Y-118261904D01*
X154066666Y-118357142D01*
X154033333Y-118404761D01*
X153966666Y-118452380D01*
X153900000Y-118452380D01*
X153833333Y-118404761D01*
X153800000Y-118357142D01*
X153766666Y-118261904D01*
X153733333Y-118071428D01*
X153733333Y-117833333D01*
X153766666Y-117642857D01*
X153800000Y-117547619D01*
X153833333Y-117500000D01*
X153900000Y-117452380D01*
X154366666Y-117452380D02*
X154800000Y-117452380D01*
X154566666Y-117833333D01*
X154666666Y-117833333D01*
X154733333Y-117880952D01*
X154766666Y-117928571D01*
X154800000Y-118023809D01*
X154800000Y-118261904D01*
X154766666Y-118357142D01*
X154733333Y-118404761D01*
X154666666Y-118452380D01*
X154466666Y-118452380D01*
X154400000Y-118404761D01*
X154366666Y-118357142D01*
X155400000Y-117785714D02*
X155400000Y-118452380D01*
X155233333Y-117404761D02*
X155066666Y-118119047D01*
X155500000Y-118119047D01*
X155933333Y-118785714D02*
X155933333Y-117357142D01*
X156400000Y-118166666D02*
X156733333Y-118166666D01*
X156333333Y-118452380D02*
X156566666Y-117452380D01*
X156800000Y-118452380D01*
X157166666Y-117452380D02*
X157233333Y-117452380D01*
X157300000Y-117500000D01*
X157333333Y-117547619D01*
X157366666Y-117642857D01*
X157400000Y-117833333D01*
X157400000Y-118071428D01*
X157366666Y-118261904D01*
X157333333Y-118357142D01*
X157300000Y-118404761D01*
X157233333Y-118452380D01*
X157166666Y-118452380D01*
X157100000Y-118404761D01*
X157066666Y-118357142D01*
X157033333Y-118261904D01*
X157000000Y-118071428D01*
X157000000Y-117833333D01*
X157033333Y-117642857D01*
X157066666Y-117547619D01*
X157100000Y-117500000D01*
X157166666Y-117452380D01*
X157700000Y-118357142D02*
X157733333Y-118404761D01*
X157700000Y-118452380D01*
X157666666Y-118404761D01*
X157700000Y-118357142D01*
X157700000Y-118452380D01*
X158166666Y-117452380D02*
X158233333Y-117452380D01*
X158300000Y-117500000D01*
X158333333Y-117547619D01*
X158366666Y-117642857D01*
X158400000Y-117833333D01*
X158400000Y-118071428D01*
X158366666Y-118261904D01*
X158333333Y-118357142D01*
X158300000Y-118404761D01*
X158233333Y-118452380D01*
X158166666Y-118452380D01*
X158100000Y-118404761D01*
X158066666Y-118357142D01*
X158033333Y-118261904D01*
X158000000Y-118071428D01*
X158000000Y-117833333D01*
X158033333Y-117642857D01*
X158066666Y-117547619D01*
X158100000Y-117500000D01*
X158166666Y-117452380D01*
X158866666Y-118785714D02*
X158866666Y-117357142D01*
X159333333Y-118404761D02*
X159433333Y-118452380D01*
X159600000Y-118452380D01*
X159666666Y-118404761D01*
X159700000Y-118357142D01*
X159733333Y-118261904D01*
X159733333Y-118166666D01*
X159700000Y-118071428D01*
X159666666Y-118023809D01*
X159600000Y-117976190D01*
X159466666Y-117928571D01*
X159400000Y-117880952D01*
X159366666Y-117833333D01*
X159333333Y-117738095D01*
X159333333Y-117642857D01*
X159366666Y-117547619D01*
X159400000Y-117500000D01*
X159466666Y-117452380D01*
X159633333Y-117452380D01*
X159733333Y-117500000D01*
X160033333Y-117928571D02*
X160266666Y-117928571D01*
X160366666Y-118452380D02*
X160033333Y-118452380D01*
X160033333Y-117452380D01*
X160366666Y-117452380D01*
X160666666Y-118452380D02*
X160666666Y-117452380D01*
X161066666Y-118452380D01*
X161066666Y-117452380D01*
X161300000Y-117452380D02*
X161533333Y-118452380D01*
X161766666Y-117452380D01*
X162000000Y-118452380D02*
X162000000Y-117452380D01*
X162266666Y-117452380D01*
X162333333Y-117500000D01*
X162366666Y-117547619D01*
X162400000Y-117642857D01*
X162400000Y-117785714D01*
X162366666Y-117880952D01*
X162333333Y-117928571D01*
X162266666Y-117976190D01*
X162000000Y-117976190D01*
X154050000Y-111828571D02*
X154283333Y-111828571D01*
X154383333Y-112352380D02*
X154050000Y-112352380D01*
X154050000Y-111352380D01*
X154383333Y-111352380D01*
X154683333Y-112352380D02*
X154683333Y-111352380D01*
X155083333Y-112352380D01*
X155083333Y-111352380D01*
X155816666Y-112257142D02*
X155783333Y-112304761D01*
X155683333Y-112352380D01*
X155616666Y-112352380D01*
X155516666Y-112304761D01*
X155450000Y-112209523D01*
X155416666Y-112114285D01*
X155383333Y-111923809D01*
X155383333Y-111780952D01*
X155416666Y-111590476D01*
X155450000Y-111495238D01*
X155516666Y-111400000D01*
X155616666Y-111352380D01*
X155683333Y-111352380D01*
X155783333Y-111400000D01*
X155816666Y-111447619D01*
X156283333Y-112685714D02*
X156283333Y-111257142D01*
X156783333Y-112352380D02*
X156783333Y-111352380D01*
X157250000Y-111352380D02*
X157383333Y-111352380D01*
X157450000Y-111400000D01*
X157516666Y-111495238D01*
X157550000Y-111685714D01*
X157550000Y-112019047D01*
X157516666Y-112209523D01*
X157450000Y-112304761D01*
X157383333Y-112352380D01*
X157250000Y-112352380D01*
X157183333Y-112304761D01*
X157116666Y-112209523D01*
X157083333Y-112019047D01*
X157083333Y-111685714D01*
X157116666Y-111495238D01*
X157183333Y-111400000D01*
X157250000Y-111352380D01*
X158183333Y-111352380D02*
X157850000Y-111352380D01*
X157816666Y-111828571D01*
X157850000Y-111780952D01*
X157916666Y-111733333D01*
X158083333Y-111733333D01*
X158150000Y-111780952D01*
X158183333Y-111828571D01*
X158216666Y-111923809D01*
X158216666Y-112161904D01*
X158183333Y-112257142D01*
X158150000Y-112304761D01*
X158083333Y-112352380D01*
X157916666Y-112352380D01*
X157850000Y-112304761D01*
X157816666Y-112257142D01*
X158683333Y-112685714D02*
X158683333Y-111257142D01*
X159183333Y-112352380D02*
X159183333Y-111352380D01*
X159450000Y-111352380D01*
X159516666Y-111400000D01*
X159550000Y-111447619D01*
X159583333Y-111542857D01*
X159583333Y-111685714D01*
X159550000Y-111780952D01*
X159516666Y-111828571D01*
X159450000Y-111876190D01*
X159183333Y-111876190D01*
X159816666Y-111352380D02*
X159983333Y-112352380D01*
X160116666Y-111638095D01*
X160250000Y-112352380D01*
X160416666Y-111352380D01*
X160683333Y-112352380D02*
X160683333Y-111352380D01*
X160916666Y-112066666D01*
X161150000Y-111352380D01*
X161150000Y-112352380D01*
X144516666Y-117628571D02*
X144750000Y-117628571D01*
X144850000Y-118152380D02*
X144516666Y-118152380D01*
X144516666Y-117152380D01*
X144850000Y-117152380D01*
X145150000Y-118152380D02*
X145150000Y-117152380D01*
X145550000Y-118152380D01*
X145550000Y-117152380D01*
X146283333Y-118057142D02*
X146250000Y-118104761D01*
X146150000Y-118152380D01*
X146083333Y-118152380D01*
X145983333Y-118104761D01*
X145916666Y-118009523D01*
X145883333Y-117914285D01*
X145850000Y-117723809D01*
X145850000Y-117580952D01*
X145883333Y-117390476D01*
X145916666Y-117295238D01*
X145983333Y-117200000D01*
X146083333Y-117152380D01*
X146150000Y-117152380D01*
X146250000Y-117200000D01*
X146283333Y-117247619D01*
X146750000Y-118485714D02*
X146750000Y-117057142D01*
X147250000Y-118152380D02*
X147250000Y-117152380D01*
X147716666Y-117152380D02*
X147850000Y-117152380D01*
X147916666Y-117200000D01*
X147983333Y-117295238D01*
X148016666Y-117485714D01*
X148016666Y-117819047D01*
X147983333Y-118009523D01*
X147916666Y-118104761D01*
X147850000Y-118152380D01*
X147716666Y-118152380D01*
X147650000Y-118104761D01*
X147583333Y-118009523D01*
X147550000Y-117819047D01*
X147550000Y-117485714D01*
X147583333Y-117295238D01*
X147650000Y-117200000D01*
X147716666Y-117152380D01*
X148683333Y-118152380D02*
X148283333Y-118152380D01*
X148483333Y-118152380D02*
X148483333Y-117152380D01*
X148416666Y-117295238D01*
X148350000Y-117390476D01*
X148283333Y-117438095D01*
X148916666Y-117152380D02*
X149350000Y-117152380D01*
X149116666Y-117533333D01*
X149216666Y-117533333D01*
X149283333Y-117580952D01*
X149316666Y-117628571D01*
X149350000Y-117723809D01*
X149350000Y-117961904D01*
X149316666Y-118057142D01*
X149283333Y-118104761D01*
X149216666Y-118152380D01*
X149016666Y-118152380D01*
X148950000Y-118104761D01*
X148916666Y-118057142D01*
X149816666Y-118485714D02*
X149816666Y-117057142D01*
X150316666Y-118152380D02*
X150316666Y-117152380D01*
X150583333Y-117152380D01*
X150650000Y-117200000D01*
X150683333Y-117247619D01*
X150716666Y-117342857D01*
X150716666Y-117485714D01*
X150683333Y-117580952D01*
X150650000Y-117628571D01*
X150583333Y-117676190D01*
X150316666Y-117676190D01*
X150950000Y-117152380D02*
X151116666Y-118152380D01*
X151250000Y-117438095D01*
X151383333Y-118152380D01*
X151550000Y-117152380D01*
X151816666Y-118152380D02*
X151816666Y-117152380D01*
X152050000Y-117866666D01*
X152283333Y-117152380D01*
X152283333Y-118152380D01*
X145616666Y-111700000D02*
X145550000Y-111652380D01*
X145450000Y-111652380D01*
X145350000Y-111700000D01*
X145283333Y-111795238D01*
X145250000Y-111890476D01*
X145216666Y-112080952D01*
X145216666Y-112223809D01*
X145250000Y-112414285D01*
X145283333Y-112509523D01*
X145350000Y-112604761D01*
X145450000Y-112652380D01*
X145516666Y-112652380D01*
X145616666Y-112604761D01*
X145650000Y-112557142D01*
X145650000Y-112223809D01*
X145516666Y-112223809D01*
X145950000Y-112652380D02*
X145950000Y-111652380D01*
X146350000Y-112652380D01*
X146350000Y-111652380D01*
X146683333Y-112652380D02*
X146683333Y-111652380D01*
X146850000Y-111652380D01*
X146950000Y-111700000D01*
X147016666Y-111795238D01*
X147050000Y-111890476D01*
X147083333Y-112080952D01*
X147083333Y-112223809D01*
X147050000Y-112414285D01*
X147016666Y-112509523D01*
X146950000Y-112604761D01*
X146850000Y-112652380D01*
X146683333Y-112652380D01*
X147550000Y-112985714D02*
X147550000Y-111557142D01*
X148050000Y-112652380D02*
X148050000Y-111652380D01*
X148516666Y-111652380D02*
X148583333Y-111652380D01*
X148650000Y-111700000D01*
X148683333Y-111747619D01*
X148716666Y-111842857D01*
X148750000Y-112033333D01*
X148750000Y-112271428D01*
X148716666Y-112461904D01*
X148683333Y-112557142D01*
X148650000Y-112604761D01*
X148583333Y-112652380D01*
X148516666Y-112652380D01*
X148450000Y-112604761D01*
X148416666Y-112557142D01*
X148383333Y-112461904D01*
X148350000Y-112271428D01*
X148350000Y-112033333D01*
X148383333Y-111842857D01*
X148416666Y-111747619D01*
X148450000Y-111700000D01*
X148516666Y-111652380D01*
X149016666Y-111747619D02*
X149050000Y-111700000D01*
X149116666Y-111652380D01*
X149283333Y-111652380D01*
X149350000Y-111700000D01*
X149383333Y-111747619D01*
X149416666Y-111842857D01*
X149416666Y-111938095D01*
X149383333Y-112080952D01*
X148983333Y-112652380D01*
X149416666Y-112652380D01*
X149883333Y-112985714D02*
X149883333Y-111557142D01*
X150616666Y-112128571D02*
X150716666Y-112176190D01*
X150750000Y-112223809D01*
X150783333Y-112319047D01*
X150783333Y-112461904D01*
X150750000Y-112557142D01*
X150716666Y-112604761D01*
X150650000Y-112652380D01*
X150383333Y-112652380D01*
X150383333Y-111652380D01*
X150616666Y-111652380D01*
X150683333Y-111700000D01*
X150716666Y-111747619D01*
X150750000Y-111842857D01*
X150750000Y-111938095D01*
X150716666Y-112033333D01*
X150683333Y-112080952D01*
X150616666Y-112128571D01*
X150383333Y-112128571D01*
X151083333Y-111652380D02*
X151083333Y-112461904D01*
X151116666Y-112557142D01*
X151150000Y-112604761D01*
X151216666Y-112652380D01*
X151350000Y-112652380D01*
X151416666Y-112604761D01*
X151450000Y-112557142D01*
X151483333Y-112461904D01*
X151483333Y-111652380D01*
X151750000Y-111652380D02*
X152216666Y-111652380D01*
X151750000Y-112652380D01*
X152216666Y-112652380D01*
D12*
X158519047Y-65278571D02*
X158595238Y-65350000D01*
X158671428Y-65492857D01*
X158785714Y-65707142D01*
X158861904Y-65778571D01*
X158938095Y-65778571D01*
X158900000Y-65421428D02*
X158976190Y-65492857D01*
X159052380Y-65635714D01*
X159090476Y-65921428D01*
X159090476Y-66421428D01*
X159052380Y-66707142D01*
X158976190Y-66850000D01*
X158900000Y-66921428D01*
X158747619Y-66921428D01*
X158671428Y-66850000D01*
X158595238Y-66707142D01*
X158557142Y-66421428D01*
X158557142Y-65921428D01*
X158595238Y-65635714D01*
X158671428Y-65492857D01*
X158747619Y-65421428D01*
X158900000Y-65421428D01*
X158061904Y-66921428D02*
X157985714Y-66921428D01*
X157909523Y-66850000D01*
X157871428Y-66778571D01*
X157833333Y-66635714D01*
X157795238Y-66350000D01*
X157795238Y-65992857D01*
X157833333Y-65707142D01*
X157871428Y-65564285D01*
X157909523Y-65492857D01*
X157985714Y-65421428D01*
X158061904Y-65421428D01*
X158138095Y-65492857D01*
X158176190Y-65564285D01*
X158214285Y-65707142D01*
X158252380Y-65992857D01*
X158252380Y-66350000D01*
X158214285Y-66635714D01*
X158176190Y-66778571D01*
X158138095Y-66850000D01*
X158061904Y-66921428D01*
X157452380Y-65564285D02*
X157414285Y-65492857D01*
X157452380Y-65421428D01*
X157490476Y-65492857D01*
X157452380Y-65564285D01*
X157452380Y-65421428D01*
X157147619Y-66921428D02*
X156614285Y-66921428D01*
X156957142Y-65421428D01*
X153947619Y-65278571D02*
X154023809Y-65350000D01*
X154100000Y-65492857D01*
X154214285Y-65707142D01*
X154290476Y-65778571D01*
X154366666Y-65778571D01*
X154328571Y-65421428D02*
X154404761Y-65492857D01*
X154480952Y-65635714D01*
X154519047Y-65921428D01*
X154519047Y-66421428D01*
X154480952Y-66707142D01*
X154404761Y-66850000D01*
X154328571Y-66921428D01*
X154176190Y-66921428D01*
X154100000Y-66850000D01*
X154023809Y-66707142D01*
X153985714Y-66421428D01*
X153985714Y-65921428D01*
X154023809Y-65635714D01*
X154100000Y-65492857D01*
X154176190Y-65421428D01*
X154328571Y-65421428D01*
X153490476Y-66921428D02*
X153414285Y-66921428D01*
X153338095Y-66850000D01*
X153300000Y-66778571D01*
X153261904Y-66635714D01*
X153223809Y-66350000D01*
X153223809Y-65992857D01*
X153261904Y-65707142D01*
X153300000Y-65564285D01*
X153338095Y-65492857D01*
X153414285Y-65421428D01*
X153490476Y-65421428D01*
X153566666Y-65492857D01*
X153604761Y-65564285D01*
X153642857Y-65707142D01*
X153680952Y-65992857D01*
X153680952Y-66350000D01*
X153642857Y-66635714D01*
X153604761Y-66778571D01*
X153566666Y-66850000D01*
X153490476Y-66921428D01*
X152880952Y-65564285D02*
X152842857Y-65492857D01*
X152880952Y-65421428D01*
X152919047Y-65492857D01*
X152880952Y-65564285D01*
X152880952Y-65421428D01*
X152157142Y-66921428D02*
X152309523Y-66921428D01*
X152385714Y-66850000D01*
X152423809Y-66778571D01*
X152500000Y-66564285D01*
X152538095Y-66278571D01*
X152538095Y-65707142D01*
X152500000Y-65564285D01*
X152461904Y-65492857D01*
X152385714Y-65421428D01*
X152233333Y-65421428D01*
X152157142Y-65492857D01*
X152119047Y-65564285D01*
X152080952Y-65707142D01*
X152080952Y-66064285D01*
X152119047Y-66207142D01*
X152157142Y-66278571D01*
X152233333Y-66350000D01*
X152385714Y-66350000D01*
X152461904Y-66278571D01*
X152500000Y-66207142D01*
X152538095Y-66064285D01*
X149376190Y-65278571D02*
X149452380Y-65350000D01*
X149528571Y-65492857D01*
X149642857Y-65707142D01*
X149719047Y-65778571D01*
X149795238Y-65778571D01*
X149757142Y-65421428D02*
X149833333Y-65492857D01*
X149909523Y-65635714D01*
X149947619Y-65921428D01*
X149947619Y-66421428D01*
X149909523Y-66707142D01*
X149833333Y-66850000D01*
X149757142Y-66921428D01*
X149604761Y-66921428D01*
X149528571Y-66850000D01*
X149452380Y-66707142D01*
X149414285Y-66421428D01*
X149414285Y-65921428D01*
X149452380Y-65635714D01*
X149528571Y-65492857D01*
X149604761Y-65421428D01*
X149757142Y-65421428D01*
X148919047Y-66921428D02*
X148842857Y-66921428D01*
X148766666Y-66850000D01*
X148728571Y-66778571D01*
X148690476Y-66635714D01*
X148652380Y-66350000D01*
X148652380Y-65992857D01*
X148690476Y-65707142D01*
X148728571Y-65564285D01*
X148766666Y-65492857D01*
X148842857Y-65421428D01*
X148919047Y-65421428D01*
X148995238Y-65492857D01*
X149033333Y-65564285D01*
X149071428Y-65707142D01*
X149109523Y-65992857D01*
X149109523Y-66350000D01*
X149071428Y-66635714D01*
X149033333Y-66778571D01*
X148995238Y-66850000D01*
X148919047Y-66921428D01*
X148309523Y-65564285D02*
X148271428Y-65492857D01*
X148309523Y-65421428D01*
X148347619Y-65492857D01*
X148309523Y-65564285D01*
X148309523Y-65421428D01*
X147547619Y-66921428D02*
X147928571Y-66921428D01*
X147966666Y-66207142D01*
X147928571Y-66278571D01*
X147852380Y-66350000D01*
X147661904Y-66350000D01*
X147585714Y-66278571D01*
X147547619Y-66207142D01*
X147509523Y-66064285D01*
X147509523Y-65707142D01*
X147547619Y-65564285D01*
X147585714Y-65492857D01*
X147661904Y-65421428D01*
X147852380Y-65421428D01*
X147928571Y-65492857D01*
X147966666Y-65564285D01*
X143333333Y-65278571D02*
X143409523Y-65350000D01*
X143485714Y-65492857D01*
X143600000Y-65707142D01*
X143676190Y-65778571D01*
X143752380Y-65778571D01*
X143714285Y-65421428D02*
X143790476Y-65492857D01*
X143866666Y-65635714D01*
X143904761Y-65921428D01*
X143904761Y-66421428D01*
X143866666Y-66707142D01*
X143790476Y-66850000D01*
X143714285Y-66921428D01*
X143561904Y-66921428D01*
X143485714Y-66850000D01*
X143409523Y-66707142D01*
X143371428Y-66421428D01*
X143371428Y-65921428D01*
X143409523Y-65635714D01*
X143485714Y-65492857D01*
X143561904Y-65421428D01*
X143714285Y-65421428D01*
X142876190Y-66921428D02*
X142800000Y-66921428D01*
X142723809Y-66850000D01*
X142685714Y-66778571D01*
X142647619Y-66635714D01*
X142609523Y-66350000D01*
X142609523Y-65992857D01*
X142647619Y-65707142D01*
X142685714Y-65564285D01*
X142723809Y-65492857D01*
X142800000Y-65421428D01*
X142876190Y-65421428D01*
X142952380Y-65492857D01*
X142990476Y-65564285D01*
X143028571Y-65707142D01*
X143066666Y-65992857D01*
X143066666Y-66350000D01*
X143028571Y-66635714D01*
X142990476Y-66778571D01*
X142952380Y-66850000D01*
X142876190Y-66921428D01*
X142266666Y-65564285D02*
X142228571Y-65492857D01*
X142266666Y-65421428D01*
X142304761Y-65492857D01*
X142266666Y-65564285D01*
X142266666Y-65421428D01*
X141542857Y-66421428D02*
X141542857Y-65421428D01*
X141733333Y-66992857D02*
X141923809Y-65921428D01*
X141428571Y-65921428D01*
X138761904Y-65278571D02*
X138838095Y-65350000D01*
X138914285Y-65492857D01*
X139028571Y-65707142D01*
X139104761Y-65778571D01*
X139180952Y-65778571D01*
X139142857Y-65421428D02*
X139219047Y-65492857D01*
X139295238Y-65635714D01*
X139333333Y-65921428D01*
X139333333Y-66421428D01*
X139295238Y-66707142D01*
X139219047Y-66850000D01*
X139142857Y-66921428D01*
X138990476Y-66921428D01*
X138914285Y-66850000D01*
X138838095Y-66707142D01*
X138800000Y-66421428D01*
X138800000Y-65921428D01*
X138838095Y-65635714D01*
X138914285Y-65492857D01*
X138990476Y-65421428D01*
X139142857Y-65421428D01*
X138304761Y-66921428D02*
X138228571Y-66921428D01*
X138152380Y-66850000D01*
X138114285Y-66778571D01*
X138076190Y-66635714D01*
X138038095Y-66350000D01*
X138038095Y-65992857D01*
X138076190Y-65707142D01*
X138114285Y-65564285D01*
X138152380Y-65492857D01*
X138228571Y-65421428D01*
X138304761Y-65421428D01*
X138380952Y-65492857D01*
X138419047Y-65564285D01*
X138457142Y-65707142D01*
X138495238Y-65992857D01*
X138495238Y-66350000D01*
X138457142Y-66635714D01*
X138419047Y-66778571D01*
X138380952Y-66850000D01*
X138304761Y-66921428D01*
X137695238Y-65564285D02*
X137657142Y-65492857D01*
X137695238Y-65421428D01*
X137733333Y-65492857D01*
X137695238Y-65564285D01*
X137695238Y-65421428D01*
X137390476Y-66921428D02*
X136895238Y-66921428D01*
X137161904Y-66350000D01*
X137047619Y-66350000D01*
X136971428Y-66278571D01*
X136933333Y-66207142D01*
X136895238Y-66064285D01*
X136895238Y-65707142D01*
X136933333Y-65564285D01*
X136971428Y-65492857D01*
X137047619Y-65421428D01*
X137276190Y-65421428D01*
X137352380Y-65492857D01*
X137390476Y-65564285D01*
X134266666Y-65564285D02*
X134304761Y-65492857D01*
X134419047Y-65421428D01*
X134495238Y-65421428D01*
X134609523Y-65492857D01*
X134685714Y-65635714D01*
X134723809Y-65778571D01*
X134761904Y-66064285D01*
X134761904Y-66278571D01*
X134723809Y-66564285D01*
X134685714Y-66707142D01*
X134609523Y-66850000D01*
X134495238Y-66921428D01*
X134419047Y-66921428D01*
X134304761Y-66850000D01*
X134266666Y-66778571D01*
X133771428Y-66921428D02*
X133619047Y-66921428D01*
X133542857Y-66850000D01*
X133466666Y-66707142D01*
X133428571Y-66421428D01*
X133428571Y-65921428D01*
X133466666Y-65635714D01*
X133542857Y-65492857D01*
X133619047Y-65421428D01*
X133771428Y-65421428D01*
X133847619Y-65492857D01*
X133923809Y-65635714D01*
X133961904Y-65921428D01*
X133961904Y-66421428D01*
X133923809Y-66707142D01*
X133847619Y-66850000D01*
X133771428Y-66921428D01*
X133085714Y-65421428D02*
X133085714Y-66921428D01*
X132819047Y-65850000D01*
X132552380Y-66921428D01*
X132552380Y-65421428D01*
X132361904Y-65278571D02*
X131752380Y-65278571D01*
X131676190Y-66921428D02*
X131219047Y-66921428D01*
X131447619Y-65421428D02*
X131447619Y-66921428D01*
X128309523Y-65278571D02*
X128385714Y-65350000D01*
X128461904Y-65492857D01*
X128576190Y-65707142D01*
X128652380Y-65778571D01*
X128728571Y-65778571D01*
X128690476Y-65421428D02*
X128766666Y-65492857D01*
X128842857Y-65635714D01*
X128880952Y-65921428D01*
X128880952Y-66421428D01*
X128842857Y-66707142D01*
X128766666Y-66850000D01*
X128690476Y-66921428D01*
X128538095Y-66921428D01*
X128461904Y-66850000D01*
X128385714Y-66707142D01*
X128347619Y-66421428D01*
X128347619Y-65921428D01*
X128385714Y-65635714D01*
X128461904Y-65492857D01*
X128538095Y-65421428D01*
X128690476Y-65421428D01*
X127852380Y-66921428D02*
X127776190Y-66921428D01*
X127700000Y-66850000D01*
X127661904Y-66778571D01*
X127623809Y-66635714D01*
X127585714Y-66350000D01*
X127585714Y-65992857D01*
X127623809Y-65707142D01*
X127661904Y-65564285D01*
X127700000Y-65492857D01*
X127776190Y-65421428D01*
X127852380Y-65421428D01*
X127928571Y-65492857D01*
X127966666Y-65564285D01*
X128004761Y-65707142D01*
X128042857Y-65992857D01*
X128042857Y-66350000D01*
X128004761Y-66635714D01*
X127966666Y-66778571D01*
X127928571Y-66850000D01*
X127852380Y-66921428D01*
X127242857Y-65564285D02*
X127204761Y-65492857D01*
X127242857Y-65421428D01*
X127280952Y-65492857D01*
X127242857Y-65564285D01*
X127242857Y-65421428D01*
X126900000Y-66778571D02*
X126861904Y-66850000D01*
X126785714Y-66921428D01*
X126595238Y-66921428D01*
X126519047Y-66850000D01*
X126480952Y-66778571D01*
X126442857Y-66635714D01*
X126442857Y-66492857D01*
X126480952Y-66278571D01*
X126938095Y-65421428D01*
X126442857Y-65421428D01*
X123814285Y-65564285D02*
X123852380Y-65492857D01*
X123966666Y-65421428D01*
X124042857Y-65421428D01*
X124157142Y-65492857D01*
X124233333Y-65635714D01*
X124271428Y-65778571D01*
X124309523Y-66064285D01*
X124309523Y-66278571D01*
X124271428Y-66564285D01*
X124233333Y-66707142D01*
X124157142Y-66850000D01*
X124042857Y-66921428D01*
X123966666Y-66921428D01*
X123852380Y-66850000D01*
X123814285Y-66778571D01*
X123319047Y-66921428D02*
X123166666Y-66921428D01*
X123090476Y-66850000D01*
X123014285Y-66707142D01*
X122976190Y-66421428D01*
X122976190Y-65921428D01*
X123014285Y-65635714D01*
X123090476Y-65492857D01*
X123166666Y-65421428D01*
X123319047Y-65421428D01*
X123395238Y-65492857D01*
X123471428Y-65635714D01*
X123509523Y-65921428D01*
X123509523Y-66421428D01*
X123471428Y-66707142D01*
X123395238Y-66850000D01*
X123319047Y-66921428D01*
X122633333Y-65421428D02*
X122633333Y-66921428D01*
X122366666Y-65850000D01*
X122100000Y-66921428D01*
X122100000Y-65421428D01*
X121909523Y-65278571D02*
X121300000Y-65278571D01*
X120652380Y-65421428D02*
X120919047Y-66135714D01*
X121109523Y-65421428D02*
X121109523Y-66921428D01*
X120804761Y-66921428D01*
X120728571Y-66850000D01*
X120690476Y-66778571D01*
X120652380Y-66635714D01*
X120652380Y-66421428D01*
X120690476Y-66278571D01*
X120728571Y-66207142D01*
X120804761Y-66135714D01*
X121109523Y-66135714D01*
X120347619Y-66778571D02*
X120309523Y-66850000D01*
X120233333Y-66921428D01*
X120042857Y-66921428D01*
X119966666Y-66850000D01*
X119928571Y-66778571D01*
X119890476Y-66635714D01*
X119890476Y-66492857D01*
X119928571Y-66278571D01*
X120385714Y-65421428D01*
X119890476Y-65421428D01*
X117185714Y-65278571D02*
X117261904Y-65350000D01*
X117338095Y-65492857D01*
X117452380Y-65707142D01*
X117528571Y-65778571D01*
X117604761Y-65778571D01*
X117566666Y-65421428D02*
X117642857Y-65492857D01*
X117719047Y-65635714D01*
X117757142Y-65921428D01*
X117757142Y-66421428D01*
X117719047Y-66707142D01*
X117642857Y-66850000D01*
X117566666Y-66921428D01*
X117414285Y-66921428D01*
X117338095Y-66850000D01*
X117261904Y-66707142D01*
X117223809Y-66421428D01*
X117223809Y-65921428D01*
X117261904Y-65635714D01*
X117338095Y-65492857D01*
X117414285Y-65421428D01*
X117566666Y-65421428D01*
X116728571Y-66921428D02*
X116652380Y-66921428D01*
X116576190Y-66850000D01*
X116538095Y-66778571D01*
X116500000Y-66635714D01*
X116461904Y-66350000D01*
X116461904Y-65992857D01*
X116500000Y-65707142D01*
X116538095Y-65564285D01*
X116576190Y-65492857D01*
X116652380Y-65421428D01*
X116728571Y-65421428D01*
X116804761Y-65492857D01*
X116842857Y-65564285D01*
X116880952Y-65707142D01*
X116919047Y-65992857D01*
X116919047Y-66350000D01*
X116880952Y-66635714D01*
X116842857Y-66778571D01*
X116804761Y-66850000D01*
X116728571Y-66921428D01*
X116119047Y-65564285D02*
X116080952Y-65492857D01*
X116119047Y-65421428D01*
X116157142Y-65492857D01*
X116119047Y-65564285D01*
X116119047Y-65421428D01*
X115319047Y-65421428D02*
X115776190Y-65421428D01*
X115547619Y-65421428D02*
X115547619Y-66921428D01*
X115623809Y-66707142D01*
X115700000Y-66564285D01*
X115776190Y-66492857D01*
X112757142Y-65664285D02*
X112795238Y-65592857D01*
X112909523Y-65521428D01*
X112985714Y-65521428D01*
X113100000Y-65592857D01*
X113176190Y-65735714D01*
X113214285Y-65878571D01*
X113252380Y-66164285D01*
X113252380Y-66378571D01*
X113214285Y-66664285D01*
X113176190Y-66807142D01*
X113100000Y-66950000D01*
X112985714Y-67021428D01*
X112909523Y-67021428D01*
X112795238Y-66950000D01*
X112757142Y-66878571D01*
X112261904Y-67021428D02*
X112109523Y-67021428D01*
X112033333Y-66950000D01*
X111957142Y-66807142D01*
X111919047Y-66521428D01*
X111919047Y-66021428D01*
X111957142Y-65735714D01*
X112033333Y-65592857D01*
X112109523Y-65521428D01*
X112261904Y-65521428D01*
X112338095Y-65592857D01*
X112414285Y-65735714D01*
X112452380Y-66021428D01*
X112452380Y-66521428D01*
X112414285Y-66807142D01*
X112338095Y-66950000D01*
X112261904Y-67021428D01*
X111576190Y-65521428D02*
X111576190Y-67021428D01*
X111309523Y-65950000D01*
X111042857Y-67021428D01*
X111042857Y-65521428D01*
X109595238Y-65521428D02*
X109861904Y-66235714D01*
X110052380Y-65521428D02*
X110052380Y-67021428D01*
X109747619Y-67021428D01*
X109671428Y-66950000D01*
X109633333Y-66878571D01*
X109595238Y-66735714D01*
X109595238Y-66521428D01*
X109633333Y-66378571D01*
X109671428Y-66307142D01*
X109747619Y-66235714D01*
X110052380Y-66235714D01*
X108833333Y-65521428D02*
X109290476Y-65521428D01*
X109061904Y-65521428D02*
X109061904Y-67021428D01*
X109138095Y-66807142D01*
X109214285Y-66664285D01*
X109290476Y-66592857D01*
X107347619Y-65378571D02*
X107423809Y-65450000D01*
X107500000Y-65592857D01*
X107614285Y-65807142D01*
X107690476Y-65878571D01*
X107766666Y-65878571D01*
X107728571Y-65521428D02*
X107804761Y-65592857D01*
X107880952Y-65735714D01*
X107919047Y-66021428D01*
X107919047Y-66521428D01*
X107880952Y-66807142D01*
X107804761Y-66950000D01*
X107728571Y-67021428D01*
X107576190Y-67021428D01*
X107500000Y-66950000D01*
X107423809Y-66807142D01*
X107385714Y-66521428D01*
X107385714Y-66021428D01*
X107423809Y-65735714D01*
X107500000Y-65592857D01*
X107576190Y-65521428D01*
X107728571Y-65521428D01*
X106890476Y-67021428D02*
X106814285Y-67021428D01*
X106738095Y-66950000D01*
X106700000Y-66878571D01*
X106661904Y-66735714D01*
X106623809Y-66450000D01*
X106623809Y-66092857D01*
X106661904Y-65807142D01*
X106700000Y-65664285D01*
X106738095Y-65592857D01*
X106814285Y-65521428D01*
X106890476Y-65521428D01*
X106966666Y-65592857D01*
X107004761Y-65664285D01*
X107042857Y-65807142D01*
X107080952Y-66092857D01*
X107080952Y-66450000D01*
X107042857Y-66735714D01*
X107004761Y-66878571D01*
X106966666Y-66950000D01*
X106890476Y-67021428D01*
X106280952Y-65664285D02*
X106242857Y-65592857D01*
X106280952Y-65521428D01*
X106319047Y-65592857D01*
X106280952Y-65664285D01*
X106280952Y-65521428D01*
X105747619Y-67021428D02*
X105671428Y-67021428D01*
X105595238Y-66950000D01*
X105557142Y-66878571D01*
X105519047Y-66735714D01*
X105480952Y-66450000D01*
X105480952Y-66092857D01*
X105519047Y-65807142D01*
X105557142Y-65664285D01*
X105595238Y-65592857D01*
X105671428Y-65521428D01*
X105747619Y-65521428D01*
X105823809Y-65592857D01*
X105861904Y-65664285D01*
X105900000Y-65807142D01*
X105938095Y-66092857D01*
X105938095Y-66450000D01*
X105900000Y-66735714D01*
X105861904Y-66878571D01*
X105823809Y-66950000D01*
X105747619Y-67021428D01*
X104071428Y-65664285D02*
X104109523Y-65592857D01*
X104223809Y-65521428D01*
X104300000Y-65521428D01*
X104414285Y-65592857D01*
X104490476Y-65735714D01*
X104528571Y-65878571D01*
X104566666Y-66164285D01*
X104566666Y-66378571D01*
X104528571Y-66664285D01*
X104490476Y-66807142D01*
X104414285Y-66950000D01*
X104300000Y-67021428D01*
X104223809Y-67021428D01*
X104109523Y-66950000D01*
X104071428Y-66878571D01*
X103576190Y-67021428D02*
X103423809Y-67021428D01*
X103347619Y-66950000D01*
X103271428Y-66807142D01*
X103233333Y-66521428D01*
X103233333Y-66021428D01*
X103271428Y-65735714D01*
X103347619Y-65592857D01*
X103423809Y-65521428D01*
X103576190Y-65521428D01*
X103652380Y-65592857D01*
X103728571Y-65735714D01*
X103766666Y-66021428D01*
X103766666Y-66521428D01*
X103728571Y-66807142D01*
X103652380Y-66950000D01*
X103576190Y-67021428D01*
X102890476Y-65521428D02*
X102890476Y-67021428D01*
X102623809Y-65950000D01*
X102357142Y-67021428D01*
X102357142Y-65521428D01*
X102166666Y-65378571D02*
X101557142Y-65378571D01*
X100909523Y-65521428D02*
X101176190Y-66235714D01*
X101366666Y-65521428D02*
X101366666Y-67021428D01*
X101061904Y-67021428D01*
X100985714Y-66950000D01*
X100947619Y-66878571D01*
X100909523Y-66735714D01*
X100909523Y-66521428D01*
X100947619Y-66378571D01*
X100985714Y-66307142D01*
X101061904Y-66235714D01*
X101366666Y-66235714D01*
X100414285Y-67021428D02*
X100338095Y-67021428D01*
X100261904Y-66950000D01*
X100223809Y-66878571D01*
X100185714Y-66735714D01*
X100147619Y-66450000D01*
X100147619Y-66092857D01*
X100185714Y-65807142D01*
X100223809Y-65664285D01*
X100261904Y-65592857D01*
X100338095Y-65521428D01*
X100414285Y-65521428D01*
X100490476Y-65592857D01*
X100528571Y-65664285D01*
X100566666Y-65807142D01*
X100604761Y-66092857D01*
X100604761Y-66450000D01*
X100566666Y-66735714D01*
X100528571Y-66878571D01*
X100490476Y-66950000D01*
X100414285Y-67021428D01*
D13*
X167500000Y-155102380D02*
X167500000Y-154102380D01*
X167700000Y-154816666D01*
X167900000Y-154102380D01*
X167900000Y-155102380D01*
X168500000Y-155102380D02*
X168157142Y-155102380D01*
X168328571Y-155102380D02*
X168328571Y-154102380D01*
X168271428Y-154245238D01*
X168214285Y-154340476D01*
X168157142Y-154388095D01*
X169557142Y-155007142D02*
X169528571Y-155054761D01*
X169442857Y-155102380D01*
X169385714Y-155102380D01*
X169300000Y-155054761D01*
X169242857Y-154959523D01*
X169214285Y-154864285D01*
X169185714Y-154673809D01*
X169185714Y-154530952D01*
X169214285Y-154340476D01*
X169242857Y-154245238D01*
X169300000Y-154150000D01*
X169385714Y-154102380D01*
X169442857Y-154102380D01*
X169528571Y-154150000D01*
X169557142Y-154197619D01*
X169928571Y-154102380D02*
X170042857Y-154102380D01*
X170100000Y-154150000D01*
X170157142Y-154245238D01*
X170185714Y-154435714D01*
X170185714Y-154769047D01*
X170157142Y-154959523D01*
X170100000Y-155054761D01*
X170042857Y-155102380D01*
X169928571Y-155102380D01*
X169871428Y-155054761D01*
X169814285Y-154959523D01*
X169785714Y-154769047D01*
X169785714Y-154435714D01*
X169814285Y-154245238D01*
X169871428Y-154150000D01*
X169928571Y-154102380D01*
X170442857Y-155102380D02*
X170442857Y-154102380D01*
X170642857Y-154816666D01*
X170842857Y-154102380D01*
X170842857Y-155102380D01*
X170985714Y-155197619D02*
X171442857Y-155197619D01*
X171585714Y-155102380D02*
X171585714Y-154102380D01*
X171871428Y-155102380D02*
X171871428Y-154102380D01*
X172214285Y-155102380D01*
X172214285Y-154102380D01*
X173271428Y-154150000D02*
X173214285Y-154102380D01*
X173128571Y-154102380D01*
X173042857Y-154150000D01*
X172985714Y-154245238D01*
X172957142Y-154340476D01*
X172928571Y-154530952D01*
X172928571Y-154673809D01*
X172957142Y-154864285D01*
X172985714Y-154959523D01*
X173042857Y-155054761D01*
X173128571Y-155102380D01*
X173185714Y-155102380D01*
X173271428Y-155054761D01*
X173300000Y-155007142D01*
X173300000Y-154673809D01*
X173185714Y-154673809D01*
X173557142Y-155102380D02*
X173557142Y-154102380D01*
X173900000Y-155102380D01*
X173900000Y-154102380D01*
X174185714Y-155102380D02*
X174185714Y-154102380D01*
X174328571Y-154102380D01*
X174414285Y-154150000D01*
X174471428Y-154245238D01*
X174500000Y-154340476D01*
X174528571Y-154530952D01*
X174528571Y-154673809D01*
X174500000Y-154864285D01*
X174471428Y-154959523D01*
X174414285Y-155054761D01*
X174328571Y-155102380D01*
X174185714Y-155102380D01*
D14*
X140057142Y-164250000D02*
X140771428Y-164250000D01*
X139914285Y-164678571D02*
X140414285Y-163178571D01*
X140914285Y-164678571D01*
X141700000Y-163178571D02*
X141842857Y-163178571D01*
X141985714Y-163250000D01*
X142057142Y-163321428D01*
X142128571Y-163464285D01*
X142200000Y-163750000D01*
X142200000Y-164107142D01*
X142128571Y-164392857D01*
X142057142Y-164535714D01*
X141985714Y-164607142D01*
X141842857Y-164678571D01*
X141700000Y-164678571D01*
X141557142Y-164607142D01*
X141485714Y-164535714D01*
X141414285Y-164392857D01*
X141342857Y-164107142D01*
X141342857Y-163750000D01*
X141414285Y-163464285D01*
X141485714Y-163321428D01*
X141557142Y-163250000D01*
X141700000Y-163178571D01*
X142842857Y-164535714D02*
X142914285Y-164607142D01*
X142842857Y-164678571D01*
X142771428Y-164607142D01*
X142842857Y-164535714D01*
X142842857Y-164678571D01*
X143842857Y-163178571D02*
X143985714Y-163178571D01*
X144128571Y-163250000D01*
X144200000Y-163321428D01*
X144271428Y-163464285D01*
X144342857Y-163750000D01*
X144342857Y-164107142D01*
X144271428Y-164392857D01*
X144200000Y-164535714D01*
X144128571Y-164607142D01*
X143985714Y-164678571D01*
X143842857Y-164678571D01*
X143700000Y-164607142D01*
X143628571Y-164535714D01*
X143557142Y-164392857D01*
X143485714Y-164107142D01*
X143485714Y-163750000D01*
X143557142Y-163464285D01*
X143628571Y-163321428D01*
X143700000Y-163250000D01*
X143842857Y-163178571D01*
X146057142Y-164250000D02*
X146771428Y-164250000D01*
X145914285Y-164678571D02*
X146414285Y-163178571D01*
X146914285Y-164678571D01*
X147414285Y-164535714D02*
X147485714Y-164607142D01*
X147414285Y-164678571D01*
X147342857Y-164607142D01*
X147414285Y-164535714D01*
X147414285Y-164678571D01*
X148414285Y-163178571D02*
X148557142Y-163178571D01*
X148700000Y-163250000D01*
X148771428Y-163321428D01*
X148842857Y-163464285D01*
X148914285Y-163750000D01*
X148914285Y-164107142D01*
X148842857Y-164392857D01*
X148771428Y-164535714D01*
X148700000Y-164607142D01*
X148557142Y-164678571D01*
X148414285Y-164678571D01*
X148271428Y-164607142D01*
X148200000Y-164535714D01*
X148128571Y-164392857D01*
X148057142Y-164107142D01*
X148057142Y-163750000D01*
X148128571Y-163464285D01*
X148200000Y-163321428D01*
X148271428Y-163250000D01*
X148414285Y-163178571D01*
X150342857Y-164678571D02*
X149485714Y-164678571D01*
X149914285Y-164678571D02*
X149914285Y-163178571D01*
X149771428Y-163392857D01*
X149628571Y-163535714D01*
X149485714Y-163607142D01*
X129700000Y-164678571D02*
X129700000Y-163178571D01*
X130700000Y-163178571D02*
X130842857Y-163178571D01*
X130985714Y-163250000D01*
X131057142Y-163321428D01*
X131128571Y-163464285D01*
X131200000Y-163750000D01*
X131200000Y-164107142D01*
X131128571Y-164392857D01*
X131057142Y-164535714D01*
X130985714Y-164607142D01*
X130842857Y-164678571D01*
X130700000Y-164678571D01*
X130557142Y-164607142D01*
X130485714Y-164535714D01*
X130414285Y-164392857D01*
X130342857Y-164107142D01*
X130342857Y-163750000D01*
X130414285Y-163464285D01*
X130485714Y-163321428D01*
X130557142Y-163250000D01*
X130700000Y-163178571D01*
X131842857Y-164535714D02*
X131914285Y-164607142D01*
X131842857Y-164678571D01*
X131771428Y-164607142D01*
X131842857Y-164535714D01*
X131842857Y-164678571D01*
X132485714Y-163321428D02*
X132557142Y-163250000D01*
X132700000Y-163178571D01*
X133057142Y-163178571D01*
X133200000Y-163250000D01*
X133271428Y-163321428D01*
X133342857Y-163464285D01*
X133342857Y-163607142D01*
X133271428Y-163821428D01*
X132414285Y-164678571D01*
X133342857Y-164678571D01*
X135128571Y-164678571D02*
X135128571Y-163178571D01*
X136128571Y-163178571D02*
X136271428Y-163178571D01*
X136414285Y-163250000D01*
X136485714Y-163321428D01*
X136557142Y-163464285D01*
X136628571Y-163750000D01*
X136628571Y-164107142D01*
X136557142Y-164392857D01*
X136485714Y-164535714D01*
X136414285Y-164607142D01*
X136271428Y-164678571D01*
X136128571Y-164678571D01*
X135985714Y-164607142D01*
X135914285Y-164535714D01*
X135842857Y-164392857D01*
X135771428Y-164107142D01*
X135771428Y-163750000D01*
X135842857Y-163464285D01*
X135914285Y-163321428D01*
X135985714Y-163250000D01*
X136128571Y-163178571D01*
X137271428Y-164535714D02*
X137342857Y-164607142D01*
X137271428Y-164678571D01*
X137200000Y-164607142D01*
X137271428Y-164535714D01*
X137271428Y-164678571D01*
X137842857Y-163178571D02*
X138771428Y-163178571D01*
X138271428Y-163750000D01*
X138485714Y-163750000D01*
X138628571Y-163821428D01*
X138700000Y-163892857D01*
X138771428Y-164035714D01*
X138771428Y-164392857D01*
X138700000Y-164535714D01*
X138628571Y-164607142D01*
X138485714Y-164678571D01*
X138057142Y-164678571D01*
X137914285Y-164607142D01*
X137842857Y-164535714D01*
X115057142Y-164678571D02*
X115057142Y-163178571D01*
X115557142Y-164250000D01*
X116057142Y-163178571D01*
X116057142Y-164678571D01*
X117557142Y-164678571D02*
X116700000Y-164678571D01*
X117128571Y-164678571D02*
X117128571Y-163178571D01*
X116985714Y-163392857D01*
X116842857Y-163535714D01*
X116700000Y-163607142D01*
X119342857Y-164678571D02*
X119342857Y-163178571D01*
X120342857Y-163178571D02*
X120485714Y-163178571D01*
X120628571Y-163250000D01*
X120700000Y-163321428D01*
X120771428Y-163464285D01*
X120842857Y-163750000D01*
X120842857Y-164107142D01*
X120771428Y-164392857D01*
X120700000Y-164535714D01*
X120628571Y-164607142D01*
X120485714Y-164678571D01*
X120342857Y-164678571D01*
X120200000Y-164607142D01*
X120128571Y-164535714D01*
X120057142Y-164392857D01*
X119985714Y-164107142D01*
X119985714Y-163750000D01*
X120057142Y-163464285D01*
X120128571Y-163321428D01*
X120200000Y-163250000D01*
X120342857Y-163178571D01*
X121485714Y-164535714D02*
X121557142Y-164607142D01*
X121485714Y-164678571D01*
X121414285Y-164607142D01*
X121485714Y-164535714D01*
X121485714Y-164678571D01*
X122485714Y-163178571D02*
X122628571Y-163178571D01*
X122771428Y-163250000D01*
X122842857Y-163321428D01*
X122914285Y-163464285D01*
X122985714Y-163750000D01*
X122985714Y-164107142D01*
X122914285Y-164392857D01*
X122842857Y-164535714D01*
X122771428Y-164607142D01*
X122628571Y-164678571D01*
X122485714Y-164678571D01*
X122342857Y-164607142D01*
X122271428Y-164535714D01*
X122200000Y-164392857D01*
X122128571Y-164107142D01*
X122128571Y-163750000D01*
X122200000Y-163464285D01*
X122271428Y-163321428D01*
X122342857Y-163250000D01*
X122485714Y-163178571D01*
X124771428Y-164678571D02*
X124771428Y-163178571D01*
X125771428Y-163178571D02*
X125914285Y-163178571D01*
X126057142Y-163250000D01*
X126128571Y-163321428D01*
X126200000Y-163464285D01*
X126271428Y-163750000D01*
X126271428Y-164107142D01*
X126200000Y-164392857D01*
X126128571Y-164535714D01*
X126057142Y-164607142D01*
X125914285Y-164678571D01*
X125771428Y-164678571D01*
X125628571Y-164607142D01*
X125557142Y-164535714D01*
X125485714Y-164392857D01*
X125414285Y-164107142D01*
X125414285Y-163750000D01*
X125485714Y-163464285D01*
X125557142Y-163321428D01*
X125628571Y-163250000D01*
X125771428Y-163178571D01*
X126914285Y-164535714D02*
X126985714Y-164607142D01*
X126914285Y-164678571D01*
X126842857Y-164607142D01*
X126914285Y-164535714D01*
X126914285Y-164678571D01*
X128414285Y-164678571D02*
X127557142Y-164678571D01*
X127985714Y-164678571D02*
X127985714Y-163178571D01*
X127842857Y-163392857D01*
X127700000Y-163535714D01*
X127557142Y-163607142D01*
X98414285Y-163321428D02*
X98485714Y-163250000D01*
X98628571Y-163178571D01*
X98985714Y-163178571D01*
X99128571Y-163250000D01*
X99200000Y-163321428D01*
X99271428Y-163464285D01*
X99271428Y-163607142D01*
X99200000Y-163821428D01*
X98342857Y-164678571D01*
X99271428Y-164678571D01*
X100557142Y-163678571D02*
X100557142Y-164678571D01*
X100200000Y-163107142D02*
X99842857Y-164178571D01*
X100771428Y-164178571D01*
X101128571Y-163178571D02*
X101628571Y-164678571D01*
X102128571Y-163178571D01*
X104557142Y-164678571D02*
X103700000Y-164678571D01*
X104128571Y-164678571D02*
X104128571Y-163178571D01*
X103985714Y-163392857D01*
X103842857Y-163535714D01*
X103700000Y-163607142D01*
X105485714Y-163178571D02*
X105628571Y-163178571D01*
X105771428Y-163250000D01*
X105842857Y-163321428D01*
X105914285Y-163464285D01*
X105985714Y-163750000D01*
X105985714Y-164107142D01*
X105914285Y-164392857D01*
X105842857Y-164535714D01*
X105771428Y-164607142D01*
X105628571Y-164678571D01*
X105485714Y-164678571D01*
X105342857Y-164607142D01*
X105271428Y-164535714D01*
X105200000Y-164392857D01*
X105128571Y-164107142D01*
X105128571Y-163750000D01*
X105200000Y-163464285D01*
X105271428Y-163321428D01*
X105342857Y-163250000D01*
X105485714Y-163178571D01*
X106414285Y-163178571D02*
X106914285Y-164678571D01*
X107414285Y-163178571D01*
X109842857Y-163250000D02*
X109700000Y-163178571D01*
X109485714Y-163178571D01*
X109271428Y-163250000D01*
X109128571Y-163392857D01*
X109057142Y-163535714D01*
X108985714Y-163821428D01*
X108985714Y-164035714D01*
X109057142Y-164321428D01*
X109128571Y-164464285D01*
X109271428Y-164607142D01*
X109485714Y-164678571D01*
X109628571Y-164678571D01*
X109842857Y-164607142D01*
X109914285Y-164535714D01*
X109914285Y-164035714D01*
X109628571Y-164035714D01*
X110557142Y-164678571D02*
X110557142Y-163178571D01*
X111414285Y-164678571D01*
X111414285Y-163178571D01*
X112128571Y-164678571D02*
X112128571Y-163178571D01*
X112485714Y-163178571D01*
X112700000Y-163250000D01*
X112842857Y-163392857D01*
X112914285Y-163535714D01*
X112985714Y-163821428D01*
X112985714Y-164035714D01*
X112914285Y-164321428D01*
X112842857Y-164464285D01*
X112700000Y-164607142D01*
X112485714Y-164678571D01*
X112128571Y-164678571D01*
X88157142Y-163321428D02*
X88228571Y-163250000D01*
X88371428Y-163178571D01*
X88728571Y-163178571D01*
X88871428Y-163250000D01*
X88942857Y-163321428D01*
X89014285Y-163464285D01*
X89014285Y-163607142D01*
X88942857Y-163821428D01*
X88085714Y-164678571D01*
X89014285Y-164678571D01*
X90300000Y-163678571D02*
X90300000Y-164678571D01*
X89942857Y-163107142D02*
X89585714Y-164178571D01*
X90514285Y-164178571D01*
X90871428Y-163178571D02*
X91371428Y-164678571D01*
X91871428Y-163178571D01*
X94300000Y-163250000D02*
X94157142Y-163178571D01*
X93942857Y-163178571D01*
X93728571Y-163250000D01*
X93585714Y-163392857D01*
X93514285Y-163535714D01*
X93442857Y-163821428D01*
X93442857Y-164035714D01*
X93514285Y-164321428D01*
X93585714Y-164464285D01*
X93728571Y-164607142D01*
X93942857Y-164678571D01*
X94085714Y-164678571D01*
X94300000Y-164607142D01*
X94371428Y-164535714D01*
X94371428Y-164035714D01*
X94085714Y-164035714D01*
X95014285Y-164678571D02*
X95014285Y-163178571D01*
X95871428Y-164678571D01*
X95871428Y-163178571D01*
X96585714Y-164678571D02*
X96585714Y-163178571D01*
X96942857Y-163178571D01*
X97157142Y-163250000D01*
X97300000Y-163392857D01*
X97371428Y-163535714D01*
X97442857Y-163821428D01*
X97442857Y-164035714D01*
X97371428Y-164321428D01*
X97300000Y-164464285D01*
X97157142Y-164607142D01*
X96942857Y-164678571D01*
X96585714Y-164678571D01*
X81007142Y-106464285D02*
X80935714Y-106678571D01*
X80864285Y-106750000D01*
X80721428Y-106821428D01*
X80507142Y-106821428D01*
X80364285Y-106750000D01*
X80292857Y-106678571D01*
X80221428Y-106535714D01*
X80221428Y-105964285D01*
X81721428Y-105964285D01*
X81721428Y-106464285D01*
X81650000Y-106607142D01*
X81578571Y-106678571D01*
X81435714Y-106750000D01*
X81292857Y-106750000D01*
X81150000Y-106678571D01*
X81078571Y-106607142D01*
X81007142Y-106464285D01*
X81007142Y-105964285D01*
X81721428Y-107750000D02*
X81721428Y-108035714D01*
X81650000Y-108178571D01*
X81507142Y-108321428D01*
X81221428Y-108392857D01*
X80721428Y-108392857D01*
X80435714Y-108321428D01*
X80292857Y-108178571D01*
X80221428Y-108035714D01*
X80221428Y-107750000D01*
X80292857Y-107607142D01*
X80435714Y-107464285D01*
X80721428Y-107392857D01*
X81221428Y-107392857D01*
X81507142Y-107464285D01*
X81650000Y-107607142D01*
X81721428Y-107750000D01*
X81721428Y-109321428D02*
X81721428Y-109607142D01*
X81650000Y-109750000D01*
X81507142Y-109892857D01*
X81221428Y-109964285D01*
X80721428Y-109964285D01*
X80435714Y-109892857D01*
X80292857Y-109750000D01*
X80221428Y-109607142D01*
X80221428Y-109321428D01*
X80292857Y-109178571D01*
X80435714Y-109035714D01*
X80721428Y-108964285D01*
X81221428Y-108964285D01*
X81507142Y-109035714D01*
X81650000Y-109178571D01*
X81721428Y-109321428D01*
X81721428Y-110392857D02*
X81721428Y-111250000D01*
X80221428Y-110821428D02*
X81721428Y-110821428D01*
X80221428Y-114300000D02*
X81721428Y-114300000D01*
X81721428Y-115300000D02*
X81721428Y-115585714D01*
X81650000Y-115728571D01*
X81507142Y-115871428D01*
X81221428Y-115942857D01*
X80721428Y-115942857D01*
X80435714Y-115871428D01*
X80292857Y-115728571D01*
X80221428Y-115585714D01*
X80221428Y-115300000D01*
X80292857Y-115157142D01*
X80435714Y-115014285D01*
X80721428Y-114942857D01*
X81221428Y-114942857D01*
X81507142Y-115014285D01*
X81650000Y-115157142D01*
X81721428Y-115300000D01*
X81721428Y-116871428D02*
X81721428Y-117014285D01*
X81650000Y-117157142D01*
X81578571Y-117228571D01*
X81435714Y-117300000D01*
X81150000Y-117371428D01*
X80792857Y-117371428D01*
X80507142Y-117300000D01*
X80364285Y-117228571D01*
X80292857Y-117157142D01*
X80221428Y-117014285D01*
X80221428Y-116871428D01*
X80292857Y-116728571D01*
X80364285Y-116657142D01*
X80507142Y-116585714D01*
X80792857Y-116514285D01*
X81150000Y-116514285D01*
X81435714Y-116585714D01*
X81578571Y-116657142D01*
X81650000Y-116728571D01*
X81721428Y-116871428D01*
D15*
X162000000Y-155800000D02*
G75*
G03X162000000Y-155800000I-3000000J0D01*
G01*
X152700000Y-154000000D02*
X152700000Y-149100000D01*
X165300000Y-149100000D02*
X165300000Y-154000000D01*
X165300000Y-157600000D02*
X165300000Y-162500000D01*
X165300000Y-162500000D02*
X162500000Y-162500000D01*
X152700000Y-157700000D02*
X152700000Y-162500000D01*
X152700000Y-162500000D02*
X155200000Y-162500000D01*
X155200000Y-163300000D02*
X154900000Y-163600000D01*
X154900000Y-163600000D02*
X154900000Y-163000000D01*
X154900000Y-163000000D02*
X155200000Y-163300000D01*
X152700000Y-149100000D02*
X155300000Y-149100000D01*
X157700000Y-149100000D02*
X160300000Y-149100000D01*
X162700000Y-149100000D02*
X165300000Y-149100000D01*
X158500000Y-155800000D02*
X159500000Y-155800000D01*
X159000000Y-156300000D02*
X159000000Y-155300000D01*
X156241422Y-133810000D02*
X156758578Y-133810000D01*
X156241422Y-132390000D02*
X156758578Y-132390000D01*
X156241422Y-131610000D02*
X156758578Y-131610000D01*
X156241422Y-130190000D02*
X156758578Y-130190000D01*
X152541422Y-133810000D02*
X153058578Y-133810000D01*
X152541422Y-132390000D02*
X153058578Y-132390000D01*
X152531422Y-131610000D02*
X153048578Y-131610000D01*
X152531422Y-130190000D02*
X153048578Y-130190000D01*
X167170000Y-158730000D02*
X167170000Y-157400000D01*
X168500000Y-158730000D02*
X167170000Y-158730000D01*
X169770000Y-158730000D02*
X169770000Y-156070000D01*
X169770000Y-156070000D02*
X172370000Y-156070000D01*
X169770000Y-158730000D02*
X172370000Y-158730000D01*
X172370000Y-158730000D02*
X172370000Y-156070000D01*
X153770000Y-116530000D02*
X153770000Y-115200000D01*
X155100000Y-116530000D02*
X153770000Y-116530000D01*
X156370000Y-116530000D02*
X156370000Y-113870000D01*
X156370000Y-113870000D02*
X161510000Y-113870000D01*
X156370000Y-116530000D02*
X161510000Y-116530000D01*
X161510000Y-116530000D02*
X161510000Y-113870000D01*
X153770000Y-110730000D02*
X153770000Y-109400000D01*
X155100000Y-110730000D02*
X153770000Y-110730000D01*
X156370000Y-110730000D02*
X156370000Y-108070000D01*
X156370000Y-108070000D02*
X161510000Y-108070000D01*
X156370000Y-110730000D02*
X161510000Y-110730000D01*
X161510000Y-110730000D02*
X161510000Y-108070000D01*
X144570000Y-116530000D02*
X144570000Y-115200000D01*
X145900000Y-116530000D02*
X144570000Y-116530000D01*
X147170000Y-116530000D02*
X147170000Y-113870000D01*
X147170000Y-113870000D02*
X152310000Y-113870000D01*
X147170000Y-116530000D02*
X152310000Y-116530000D01*
X152310000Y-116530000D02*
X152310000Y-113870000D01*
X144570000Y-110730000D02*
X144570000Y-109400000D01*
X145900000Y-110730000D02*
X144570000Y-110730000D01*
X147170000Y-110730000D02*
X147170000Y-108070000D01*
X147170000Y-108070000D02*
X152310000Y-108070000D01*
X147170000Y-110730000D02*
X152310000Y-110730000D01*
X152310000Y-110730000D02*
X152310000Y-108070000D01*
X112960000Y-138770000D02*
X112960000Y-135830000D01*
X112720000Y-138770000D02*
X112720000Y-135830000D01*
X112840000Y-138770000D02*
X112840000Y-135830000D01*
X107280000Y-137300000D02*
X108300000Y-137300000D01*
X114760000Y-137300000D02*
X113740000Y-137300000D01*
X108300000Y-138770000D02*
X113740000Y-138770000D01*
X108300000Y-135830000D02*
X108300000Y-138770000D01*
X113740000Y-135830000D02*
X108300000Y-135830000D01*
X113740000Y-138770000D02*
X113740000Y-135830000D01*
X123350000Y-88050000D02*
X123350000Y-92050000D01*
X119750000Y-88050000D02*
X123350000Y-88050000D01*
X119750000Y-92050000D02*
X119750000Y-88050000D01*
X123350000Y-92050000D02*
X119750000Y-92050000D01*
X123350000Y-88050000D02*
X119750000Y-92050000D01*
X123350000Y-90050000D02*
X127550000Y-90050000D01*
X115550000Y-90050000D02*
X119750000Y-90050000D01*
X121550000Y-93450000D02*
X125150000Y-93450000D01*
X121550000Y-86650000D02*
X125150000Y-86650000D01*
X125150000Y-86650000D02*
X125150000Y-93450000D01*
X121550000Y-85150000D02*
X119050000Y-80550000D01*
X121550000Y-86650000D02*
X121550000Y-85150000D01*
X115550000Y-90050000D02*
X115550000Y-92550000D01*
X121550000Y-93450000D02*
X121550000Y-94250000D01*
X127550000Y-92550000D02*
X127550000Y-90050000D01*
X117300000Y-81950000D02*
X119800000Y-81950000D01*
X125700000Y-81950000D02*
X123250000Y-81950000D01*
X129300000Y-77700000D02*
X129300000Y-97500000D01*
X113700000Y-77700000D02*
X129300000Y-77700000D01*
X113700000Y-97500000D02*
X113700000Y-77700000D01*
X113700000Y-97500000D02*
X120300000Y-97500000D01*
X122700000Y-97500000D02*
X129300000Y-97500000D01*
X102880000Y-129915000D02*
X102880000Y-131375000D01*
X99720000Y-129915000D02*
X99720000Y-132075000D01*
X99720000Y-129915000D02*
X100650000Y-129915000D01*
X102880000Y-129915000D02*
X101950000Y-129915000D01*
X98330000Y-129915000D02*
X98330000Y-131375000D01*
X95170000Y-129915000D02*
X95170000Y-132075000D01*
X95170000Y-129915000D02*
X96100000Y-129915000D01*
X98330000Y-129915000D02*
X97400000Y-129915000D01*
X111135000Y-117240000D02*
X108450000Y-117240000D01*
X111135000Y-119160000D02*
X111135000Y-117240000D01*
X108450000Y-119160000D02*
X111135000Y-119160000D01*
X125190000Y-113710000D02*
X127875000Y-113710000D01*
X125190000Y-111790000D02*
X125190000Y-113710000D01*
X127875000Y-111790000D02*
X125190000Y-111790000D01*
X121640000Y-113760000D02*
X124325000Y-113760000D01*
X121640000Y-111840000D02*
X121640000Y-113760000D01*
X124325000Y-111840000D02*
X121640000Y-111840000D01*
X118080000Y-113780000D02*
X120765000Y-113780000D01*
X118080000Y-111860000D02*
X118080000Y-113780000D01*
X120765000Y-111860000D02*
X118080000Y-111860000D01*
X114540000Y-113810000D02*
X117225000Y-113810000D01*
X114540000Y-111890000D02*
X114540000Y-113810000D01*
X117225000Y-111890000D02*
X114540000Y-111890000D01*
X93755000Y-147500000D02*
X94525000Y-147500000D01*
X101835000Y-147500000D02*
X101065000Y-147500000D01*
X94525000Y-148870000D02*
X101065000Y-148870000D01*
X94525000Y-146130000D02*
X94525000Y-148870000D01*
X101065000Y-146130000D02*
X94525000Y-146130000D01*
X101065000Y-148870000D02*
X101065000Y-146130000D01*
X138450000Y-119700000D02*
X165850000Y-119700000D01*
X165850000Y-119700000D02*
X165850000Y-147000000D01*
X165850000Y-147000000D02*
X138450000Y-147000000D01*
X138450000Y-147000000D02*
X138450000Y-119700000D01*
X161972000Y-139595000D02*
X138872000Y-139595000D01*
X138872000Y-139595000D02*
X138872000Y-122995000D01*
X138872000Y-122995000D02*
X161972000Y-122995000D01*
X147151000Y-120189000D02*
X156930000Y-120189000D01*
X156930000Y-120189000D02*
X156930000Y-122602000D01*
X156930000Y-122602000D02*
X147151000Y-122602000D01*
X147151000Y-120189000D02*
X147151000Y-122602000D01*
X161972000Y-122995000D02*
X165058000Y-122995000D01*
X161972000Y-139595000D02*
X165312000Y-139620000D01*
X165312000Y-139620000D02*
X165312000Y-122983000D01*
X165312000Y-122983000D02*
X165058000Y-122995000D01*
X135940000Y-148000000D02*
X135940000Y-151450000D01*
X135940000Y-148000000D02*
X135940000Y-146050000D01*
X141060000Y-148000000D02*
X141060000Y-149950000D01*
X141060000Y-148000000D02*
X141060000Y-146050000D01*
X129520000Y-144190000D02*
X129520000Y-145440000D01*
X134720000Y-144190000D02*
X129520000Y-144190000D01*
X134720000Y-148690000D02*
X134720000Y-144190000D01*
X129520000Y-148690000D02*
X134720000Y-148690000D01*
X129520000Y-147440000D02*
X129520000Y-148690000D01*
X129520000Y-145440000D02*
G75*
G02X129520000Y-147440000I0J-1000000D01*
G01*
X123520000Y-144190000D02*
X123520000Y-145440000D01*
X128720000Y-144190000D02*
X123520000Y-144190000D01*
X128720000Y-148690000D02*
X128720000Y-144190000D01*
X123520000Y-148690000D02*
X128720000Y-148690000D01*
X123520000Y-147440000D02*
X123520000Y-148690000D01*
X123520000Y-145440000D02*
G75*
G02X123520000Y-147440000I0J-1000000D01*
G01*
X117520000Y-144190000D02*
X117520000Y-145440000D01*
X122720000Y-144190000D02*
X117520000Y-144190000D01*
X122720000Y-148690000D02*
X122720000Y-144190000D01*
X117520000Y-148690000D02*
X122720000Y-148690000D01*
X117520000Y-147440000D02*
X117520000Y-148690000D01*
X117520000Y-145440000D02*
G75*
G02X117520000Y-147440000I0J-1000000D01*
G01*
X111420000Y-144140000D02*
X111420000Y-145390000D01*
X116620000Y-144140000D02*
X111420000Y-144140000D01*
X116620000Y-148640000D02*
X116620000Y-144140000D01*
X111420000Y-148640000D02*
X116620000Y-148640000D01*
X111420000Y-147390000D02*
X111420000Y-148640000D01*
X111420000Y-145390000D02*
G75*
G02X111420000Y-147390000I0J-1000000D01*
G01*
X80230000Y-137109000D02*
X81740000Y-137109000D01*
X80230000Y-140810000D02*
X81740000Y-140810000D01*
X81740000Y-144080000D02*
X81740000Y-133840000D01*
X80230000Y-133840000D02*
X84871000Y-133840000D01*
X80230000Y-144080000D02*
X84871000Y-144080000D01*
X84871000Y-144080000D02*
X84871000Y-133840000D01*
X80230000Y-144080000D02*
X80230000Y-133840000D01*
X86730000Y-137109000D02*
X88240000Y-137109000D01*
X86730000Y-140810000D02*
X88240000Y-140810000D01*
X88240000Y-144080000D02*
X88240000Y-133840000D01*
X86730000Y-133840000D02*
X91371000Y-133840000D01*
X86730000Y-144080000D02*
X91371000Y-144080000D01*
X91371000Y-144080000D02*
X91371000Y-133840000D01*
X86730000Y-144080000D02*
X86730000Y-133840000D01*
X171170000Y-95640000D02*
X171170000Y-96890000D01*
X178910000Y-95640000D02*
X171170000Y-95640000D01*
X178910000Y-100140000D02*
X178910000Y-95640000D01*
X171170000Y-100140000D02*
X178910000Y-100140000D01*
X171170000Y-98890000D02*
X171170000Y-100140000D01*
X171170000Y-96890000D02*
G75*
G02X171170000Y-98890000I0J-1000000D01*
G01*
X162670000Y-95640000D02*
X162670000Y-96890000D01*
X170410000Y-95640000D02*
X162670000Y-95640000D01*
X170410000Y-100140000D02*
X170410000Y-95640000D01*
X162670000Y-100140000D02*
X170410000Y-100140000D01*
X162670000Y-98890000D02*
X162670000Y-100140000D01*
X162670000Y-96890000D02*
G75*
G02X162670000Y-98890000I0J-1000000D01*
G01*
X154170000Y-95640000D02*
X154170000Y-96890000D01*
X161910000Y-95640000D02*
X154170000Y-95640000D01*
X161910000Y-100140000D02*
X161910000Y-95640000D01*
X154170000Y-100140000D02*
X161910000Y-100140000D01*
X154170000Y-98890000D02*
X154170000Y-100140000D01*
X154170000Y-96890000D02*
G75*
G02X154170000Y-98890000I0J-1000000D01*
G01*
X145670000Y-95640000D02*
X145670000Y-96890000D01*
X153410000Y-95640000D02*
X145670000Y-95640000D01*
X153410000Y-100140000D02*
X153410000Y-95640000D01*
X145670000Y-100140000D02*
X153410000Y-100140000D01*
X145670000Y-98890000D02*
X145670000Y-100140000D01*
X145670000Y-96890000D02*
G75*
G02X145670000Y-98890000I0J-1000000D01*
G01*
X137170000Y-95640000D02*
X137170000Y-96890000D01*
X144910000Y-95640000D02*
X137170000Y-95640000D01*
X144910000Y-100140000D02*
X144910000Y-95640000D01*
X137170000Y-100140000D02*
X144910000Y-100140000D01*
X137170000Y-98890000D02*
X137170000Y-100140000D01*
X137170000Y-96890000D02*
G75*
G02X137170000Y-98890000I0J-1000000D01*
G01*
X108770000Y-106940000D02*
X108770000Y-108190000D01*
X113970000Y-106940000D02*
X108770000Y-106940000D01*
X113970000Y-111440000D02*
X113970000Y-106940000D01*
X108770000Y-111440000D02*
X113970000Y-111440000D01*
X108770000Y-110190000D02*
X108770000Y-111440000D01*
X108770000Y-108190000D02*
G75*
G02X108770000Y-110190000I0J-1000000D01*
G01*
X102520000Y-107040000D02*
X102520000Y-108290000D01*
X107720000Y-107040000D02*
X102520000Y-107040000D01*
X107720000Y-111540000D02*
X107720000Y-107040000D01*
X102520000Y-111540000D02*
X107720000Y-111540000D01*
X102520000Y-110290000D02*
X102520000Y-111540000D01*
X102520000Y-108290000D02*
G75*
G02X102520000Y-110290000I0J-1000000D01*
G01*
X96470000Y-107040000D02*
X96470000Y-108290000D01*
X101670000Y-107040000D02*
X96470000Y-107040000D01*
X101670000Y-111540000D02*
X101670000Y-107040000D01*
X96470000Y-111540000D02*
X101670000Y-111540000D01*
X96470000Y-110290000D02*
X96470000Y-111540000D01*
X96470000Y-108290000D02*
G75*
G02X96470000Y-110290000I0J-1000000D01*
G01*
X131745000Y-116180000D02*
X131745000Y-115800000D01*
X138165000Y-116180000D02*
X131745000Y-116180000D01*
X138165000Y-134420000D02*
X131745000Y-134420000D01*
X138165000Y-116180000D02*
X138165000Y-134420000D01*
X112420000Y-134420000D02*
X112420000Y-133420000D01*
X113200000Y-134420000D02*
X112420000Y-134420000D01*
X112420000Y-116180000D02*
X112420000Y-117180000D01*
X113200000Y-116180000D02*
X112420000Y-116180000D01*
X97115000Y-119640000D02*
X96390000Y-119640000D01*
X101610000Y-124860000D02*
X101610000Y-124135000D01*
X100885000Y-124860000D02*
X101610000Y-124860000D01*
X96390000Y-124860000D02*
X96390000Y-124135000D01*
X97115000Y-124860000D02*
X96390000Y-124860000D01*
X101610000Y-119640000D02*
X101610000Y-120365000D01*
X100885000Y-119640000D02*
X101610000Y-119640000D01*
X104190000Y-130400000D02*
X104190000Y-124390000D01*
X111010000Y-128150000D02*
X111010000Y-124390000D01*
X104190000Y-124390000D02*
X105450000Y-124390000D01*
X111010000Y-124390000D02*
X109750000Y-124390000D01*
X90200000Y-109150000D02*
X90200000Y-107650000D01*
X88950000Y-105150000D02*
X84450000Y-105150000D01*
X83200000Y-107650000D02*
X83200000Y-109150000D01*
X84450000Y-111650000D02*
X88950000Y-111650000D01*
X90200000Y-116850000D02*
X90200000Y-115350000D01*
X88950000Y-112850000D02*
X84450000Y-112850000D01*
X83200000Y-115350000D02*
X83200000Y-116850000D01*
X84450000Y-119350000D02*
X88950000Y-119350000D01*
X148841422Y-127610000D02*
X149358578Y-127610000D01*
X148841422Y-126190000D02*
X149358578Y-126190000D01*
X145783578Y-126215000D02*
X145266422Y-126215000D01*
X145783578Y-127635000D02*
X145266422Y-127635000D01*
X93755000Y-150700000D02*
X94525000Y-150700000D01*
X101835000Y-150700000D02*
X101065000Y-150700000D01*
X94525000Y-152070000D02*
X101065000Y-152070000D01*
X94525000Y-149330000D02*
X94525000Y-152070000D01*
X101065000Y-149330000D02*
X94525000Y-149330000D01*
X101065000Y-152070000D02*
X101065000Y-149330000D01*
X148781422Y-132435000D02*
X149298578Y-132435000D01*
X148781422Y-133855000D02*
X149298578Y-133855000D01*
X148791422Y-131810000D02*
X149308578Y-131810000D01*
X148791422Y-130390000D02*
X149308578Y-130390000D01*
X109125000Y-149570000D02*
X109125000Y-148800000D01*
X109125000Y-141490000D02*
X109125000Y-142260000D01*
X110495000Y-148800000D02*
X110495000Y-142260000D01*
X107755000Y-148800000D02*
X110495000Y-148800000D01*
X107755000Y-142260000D02*
X107755000Y-148800000D01*
X110495000Y-142260000D02*
X107755000Y-142260000D01*
X145221422Y-132435000D02*
X145738578Y-132435000D01*
X145221422Y-133855000D02*
X145738578Y-133855000D01*
X145216422Y-130390000D02*
X145733578Y-130390000D01*
X145216422Y-131810000D02*
X145733578Y-131810000D01*
X105975000Y-149570000D02*
X105975000Y-148800000D01*
X105975000Y-141490000D02*
X105975000Y-142260000D01*
X107345000Y-148800000D02*
X107345000Y-142260000D01*
X104605000Y-148800000D02*
X107345000Y-148800000D01*
X104605000Y-142260000D02*
X104605000Y-148800000D01*
X107345000Y-142260000D02*
X104605000Y-142260000D01*
X161600000Y-88020000D02*
X161600000Y-87250000D01*
X161600000Y-79940000D02*
X161600000Y-80710000D01*
X162970000Y-87250000D02*
X162970000Y-80710000D01*
X160230000Y-87250000D02*
X162970000Y-87250000D01*
X160230000Y-80710000D02*
X160230000Y-87250000D01*
X162970000Y-80710000D02*
X160230000Y-80710000D01*
X151625000Y-88120000D02*
X151625000Y-87350000D01*
X151625000Y-80040000D02*
X151625000Y-80810000D01*
X152995000Y-87350000D02*
X152995000Y-80810000D01*
X150255000Y-87350000D02*
X152995000Y-87350000D01*
X150255000Y-80810000D02*
X150255000Y-87350000D01*
X152995000Y-80810000D02*
X150255000Y-80810000D01*
X142115000Y-105016422D02*
X142115000Y-105533578D01*
X143535000Y-105016422D02*
X143535000Y-105533578D01*
X140040000Y-105016422D02*
X140040000Y-105533578D01*
X141460000Y-105016422D02*
X141460000Y-105533578D01*
X141775000Y-88320000D02*
X141775000Y-87550000D01*
X141775000Y-80240000D02*
X141775000Y-81010000D01*
X143145000Y-87550000D02*
X143145000Y-81010000D01*
X140405000Y-87550000D02*
X143145000Y-87550000D01*
X140405000Y-81010000D02*
X140405000Y-87550000D01*
X143145000Y-81010000D02*
X140405000Y-81010000D01*
X132375000Y-88345000D02*
X132375000Y-87575000D01*
X132375000Y-80265000D02*
X132375000Y-81035000D01*
X133745000Y-87575000D02*
X133745000Y-81035000D01*
X131005000Y-87575000D02*
X133745000Y-87575000D01*
X131005000Y-81035000D02*
X131005000Y-87575000D01*
X133745000Y-81035000D02*
X131005000Y-81035000D01*
X171500000Y-87920000D02*
X171500000Y-87150000D01*
X171500000Y-79840000D02*
X171500000Y-80610000D01*
X172870000Y-87150000D02*
X172870000Y-80610000D01*
X170130000Y-87150000D02*
X172870000Y-87150000D01*
X170130000Y-80610000D02*
X170130000Y-87150000D01*
X172870000Y-80610000D02*
X170130000Y-80610000D01*
X137940000Y-104991422D02*
X137940000Y-105508578D01*
X139360000Y-104991422D02*
X139360000Y-105508578D01*
X135865000Y-104991422D02*
X135865000Y-105508578D01*
X137285000Y-104991422D02*
X137285000Y-105508578D01*
X133790000Y-104991422D02*
X133790000Y-105508578D01*
X135210000Y-104991422D02*
X135210000Y-105508578D01*
X127766422Y-104110000D02*
X128283578Y-104110000D01*
X127766422Y-102690000D02*
X128283578Y-102690000D01*
X96865000Y-116666422D02*
X96865000Y-117183578D01*
X98285000Y-116666422D02*
X98285000Y-117183578D01*
X109691422Y-103160000D02*
X110208578Y-103160000D01*
X109691422Y-101740000D02*
X110208578Y-101740000D01*
X91541422Y-103360000D02*
X92058578Y-103360000D01*
X91541422Y-101940000D02*
X92058578Y-101940000D01*
X94765000Y-116641422D02*
X94765000Y-117158578D01*
X96185000Y-116641422D02*
X96185000Y-117158578D01*
X106310000Y-133558578D02*
X106310000Y-133041422D01*
X104890000Y-133558578D02*
X104890000Y-133041422D01*
X105958578Y-115290000D02*
X105441422Y-115290000D01*
X105958578Y-116710000D02*
X105441422Y-116710000D01*
X97758578Y-126490000D02*
X97241422Y-126490000D01*
X97758578Y-127910000D02*
X97241422Y-127910000D01*
X92741422Y-128685000D02*
X93258578Y-128685000D01*
X92741422Y-127265000D02*
X93258578Y-127265000D01*
X101758578Y-126490000D02*
X101241422Y-126490000D01*
X101758578Y-127910000D02*
X101241422Y-127910000D01*
X105441422Y-118960000D02*
X105958578Y-118960000D01*
X105441422Y-117540000D02*
X105958578Y-117540000D01*
X81810000Y-131608578D02*
X81810000Y-131091422D01*
X80390000Y-131608578D02*
X80390000Y-131091422D01*
X89258578Y-127190000D02*
X88741422Y-127190000D01*
X89258578Y-128610000D02*
X88741422Y-128610000D01*
X83040000Y-131091422D02*
X83040000Y-131608578D01*
X84460000Y-131091422D02*
X84460000Y-131608578D01*
X86960000Y-131608578D02*
X86960000Y-131091422D01*
X85540000Y-131608578D02*
X85540000Y-131091422D01*
X109141422Y-121210000D02*
X109658578Y-121210000D01*
X109141422Y-119790000D02*
X109658578Y-119790000D01*
X164180000Y-81259000D02*
X165690000Y-81259000D01*
X164180000Y-84960000D02*
X165690000Y-84960000D01*
X165690000Y-88230000D02*
X165690000Y-77990000D01*
X164180000Y-77990000D02*
X168821000Y-77990000D01*
X164180000Y-88230000D02*
X168821000Y-88230000D01*
X168821000Y-88230000D02*
X168821000Y-77990000D01*
X164180000Y-88230000D02*
X164180000Y-77990000D01*
X154280000Y-81309000D02*
X155790000Y-81309000D01*
X154280000Y-85010000D02*
X155790000Y-85010000D01*
X155790000Y-88280000D02*
X155790000Y-78040000D01*
X154280000Y-78040000D02*
X158921000Y-78040000D01*
X154280000Y-88280000D02*
X158921000Y-88280000D01*
X158921000Y-88280000D02*
X158921000Y-78040000D01*
X154280000Y-88280000D02*
X154280000Y-78040000D01*
X144330000Y-81509000D02*
X145840000Y-81509000D01*
X144330000Y-85210000D02*
X145840000Y-85210000D01*
X145840000Y-88480000D02*
X145840000Y-78240000D01*
X144330000Y-78240000D02*
X148971000Y-78240000D01*
X144330000Y-88480000D02*
X148971000Y-88480000D01*
X148971000Y-88480000D02*
X148971000Y-78240000D01*
X144330000Y-88480000D02*
X144330000Y-78240000D01*
X134730000Y-81609000D02*
X136240000Y-81609000D01*
X134730000Y-85310000D02*
X136240000Y-85310000D01*
X136240000Y-88580000D02*
X136240000Y-78340000D01*
X134730000Y-78340000D02*
X139371000Y-78340000D01*
X134730000Y-88580000D02*
X139371000Y-88580000D01*
X139371000Y-88580000D02*
X139371000Y-78340000D01*
X134730000Y-88580000D02*
X134730000Y-78340000D01*
X174230000Y-81109000D02*
X175740000Y-81109000D01*
X174230000Y-84810000D02*
X175740000Y-84810000D01*
X175740000Y-88080000D02*
X175740000Y-77840000D01*
X174230000Y-77840000D02*
X178871000Y-77840000D01*
X174230000Y-88080000D02*
X178871000Y-88080000D01*
X178871000Y-88080000D02*
X178871000Y-77840000D01*
X174230000Y-88080000D02*
X174230000Y-77840000D01*
X134638478Y-98891522D02*
G75*
G03X130200000Y-100730000I-1838478J-1838478D01*
G01*
X134638478Y-102568478D02*
G75*
G02X130200000Y-100730000I-1838478J1838478D01*
G01*
X134650000Y-102530000D02*
X134650000Y-98930000D01*
X116438478Y-98891522D02*
G75*
G03X112000000Y-100730000I-1838478J-1838478D01*
G01*
X116438478Y-102568478D02*
G75*
G02X112000000Y-100730000I-1838478J1838478D01*
G01*
X116450000Y-102530000D02*
X116450000Y-98930000D01*
X98338478Y-98891522D02*
G75*
G03X93900000Y-100730000I-1838478J-1838478D01*
G01*
X98338478Y-102568478D02*
G75*
G02X93900000Y-100730000I-1838478J1838478D01*
G01*
X98350000Y-102530000D02*
X98350000Y-98930000D01*
X106850000Y-88050000D02*
X106850000Y-92050000D01*
X103250000Y-88050000D02*
X106850000Y-88050000D01*
X103250000Y-92050000D02*
X103250000Y-88050000D01*
X106850000Y-92050000D02*
X103250000Y-92050000D01*
X106850000Y-88050000D02*
X103250000Y-92050000D01*
X106850000Y-90050000D02*
X111050000Y-90050000D01*
X99050000Y-90050000D02*
X103250000Y-90050000D01*
X105050000Y-93450000D02*
X108650000Y-93450000D01*
X105050000Y-86650000D02*
X108650000Y-86650000D01*
X108650000Y-86650000D02*
X108650000Y-93450000D01*
X105050000Y-85150000D02*
X102550000Y-80550000D01*
X105050000Y-86650000D02*
X105050000Y-85150000D01*
X99050000Y-90050000D02*
X99050000Y-92550000D01*
X105050000Y-93450000D02*
X105050000Y-94250000D01*
X111050000Y-92550000D02*
X111050000Y-90050000D01*
X100800000Y-81950000D02*
X103300000Y-81950000D01*
X109200000Y-81950000D02*
X106750000Y-81950000D01*
X112800000Y-77700000D02*
X112800000Y-97500000D01*
X97200000Y-77700000D02*
X112800000Y-77700000D01*
X97200000Y-97500000D02*
X97200000Y-77700000D01*
X97200000Y-97500000D02*
X103800000Y-97500000D01*
X106200000Y-97500000D02*
X112800000Y-97500000D01*
X90350000Y-88050000D02*
X90350000Y-92050000D01*
X86750000Y-88050000D02*
X90350000Y-88050000D01*
X86750000Y-92050000D02*
X86750000Y-88050000D01*
X90350000Y-92050000D02*
X86750000Y-92050000D01*
X90350000Y-88050000D02*
X86750000Y-92050000D01*
X90350000Y-90050000D02*
X94550000Y-90050000D01*
X82550000Y-90050000D02*
X86750000Y-90050000D01*
X88550000Y-93450000D02*
X92150000Y-93450000D01*
X88550000Y-86650000D02*
X92150000Y-86650000D01*
X92150000Y-86650000D02*
X92150000Y-93450000D01*
X88550000Y-85150000D02*
X86050000Y-80550000D01*
X88550000Y-86650000D02*
X88550000Y-85150000D01*
X82550000Y-90050000D02*
X82550000Y-92550000D01*
X88550000Y-93450000D02*
X88550000Y-94250000D01*
X94550000Y-92550000D02*
X94550000Y-90050000D01*
X84300000Y-81950000D02*
X86800000Y-81950000D01*
X92700000Y-81950000D02*
X90250000Y-81950000D01*
X96300000Y-77700000D02*
X96300000Y-97500000D01*
X80700000Y-77700000D02*
X96300000Y-77700000D01*
X80700000Y-97500000D02*
X80700000Y-77700000D01*
X80700000Y-97500000D02*
X87300000Y-97500000D01*
X89700000Y-97500000D02*
X96300000Y-97500000D01*
X174830000Y-150770000D02*
X174830000Y-152100000D01*
X173500000Y-150770000D02*
X174830000Y-150770000D01*
X172230000Y-150770000D02*
X172230000Y-153430000D01*
X172230000Y-153430000D02*
X167090000Y-153430000D01*
X172230000Y-150770000D02*
X167090000Y-150770000D01*
X167090000Y-150770000D02*
X167090000Y-153430000D01*
X88170000Y-120920000D02*
X89500000Y-120920000D01*
X88170000Y-122250000D02*
X88170000Y-120920000D01*
X88170000Y-123520000D02*
X90830000Y-123520000D01*
X90830000Y-123520000D02*
X90830000Y-126120000D01*
X88170000Y-123520000D02*
X88170000Y-126120000D01*
X88170000Y-126120000D02*
X90830000Y-126120000D01*
X139650000Y-162550000D02*
X140050000Y-162550000D01*
X139650000Y-161910000D02*
X139650000Y-162550000D01*
X146192000Y-158242000D02*
X145797000Y-158638000D01*
X148838000Y-155596000D02*
X148458000Y-155976000D01*
X146443000Y-158524000D02*
X146063000Y-158904000D01*
X149104000Y-155862000D02*
X148709000Y-156258000D01*
X140902000Y-158531000D02*
X140796000Y-158638000D01*
X143838000Y-155596000D02*
X143731000Y-155703000D01*
X141168000Y-158797000D02*
X141062000Y-158904000D01*
X144104000Y-155862000D02*
X143997000Y-155969000D01*
X150010000Y-153190000D02*
X150010000Y-162310000D01*
X139890000Y-153190000D02*
X139890000Y-162310000D01*
X139890000Y-162310000D02*
X150010000Y-162310000D01*
X139890000Y-153190000D02*
X150010000Y-153190000D01*
X139890000Y-160750000D02*
X150010000Y-160750000D01*
X139890000Y-161850000D02*
X150010000Y-161850000D01*
X149630000Y-157250000D02*
G75*
G03X149630000Y-157250000I-2180000J0D01*
G01*
X144630000Y-157250000D02*
G75*
G03X144630000Y-157250000I-2180000J0D01*
G01*
X129150000Y-162550000D02*
X129550000Y-162550000D01*
X129150000Y-161910000D02*
X129150000Y-162550000D01*
X135692000Y-158242000D02*
X135297000Y-158638000D01*
X138338000Y-155596000D02*
X137958000Y-155976000D01*
X135943000Y-158524000D02*
X135563000Y-158904000D01*
X138604000Y-155862000D02*
X138209000Y-156258000D01*
X130402000Y-158531000D02*
X130296000Y-158638000D01*
X133338000Y-155596000D02*
X133231000Y-155703000D01*
X130668000Y-158797000D02*
X130562000Y-158904000D01*
X133604000Y-155862000D02*
X133497000Y-155969000D01*
X139510000Y-153190000D02*
X139510000Y-162310000D01*
X129390000Y-153190000D02*
X129390000Y-162310000D01*
X129390000Y-162310000D02*
X139510000Y-162310000D01*
X129390000Y-153190000D02*
X139510000Y-153190000D01*
X129390000Y-160750000D02*
X139510000Y-160750000D01*
X129390000Y-161850000D02*
X139510000Y-161850000D01*
X139130000Y-157250000D02*
G75*
G03X139130000Y-157250000I-2180000J0D01*
G01*
X134130000Y-157250000D02*
G75*
G03X134130000Y-157250000I-2180000J0D01*
G01*
X113650000Y-162550000D02*
X114050000Y-162550000D01*
X113650000Y-161910000D02*
X113650000Y-162550000D01*
X125192000Y-158242000D02*
X124797000Y-158638000D01*
X127838000Y-155596000D02*
X127458000Y-155976000D01*
X125443000Y-158524000D02*
X125063000Y-158904000D01*
X128104000Y-155862000D02*
X127709000Y-156258000D01*
X120192000Y-158242000D02*
X119797000Y-158638000D01*
X122838000Y-155596000D02*
X122458000Y-155976000D01*
X120443000Y-158524000D02*
X120063000Y-158904000D01*
X123104000Y-155862000D02*
X122709000Y-156258000D01*
X114902000Y-158531000D02*
X114796000Y-158638000D01*
X117838000Y-155596000D02*
X117731000Y-155703000D01*
X115168000Y-158797000D02*
X115062000Y-158904000D01*
X118104000Y-155862000D02*
X117997000Y-155969000D01*
X129010000Y-153190000D02*
X129010000Y-162310000D01*
X113890000Y-153190000D02*
X113890000Y-162310000D01*
X113890000Y-162310000D02*
X129010000Y-162310000D01*
X113890000Y-153190000D02*
X129010000Y-153190000D01*
X113890000Y-160750000D02*
X129010000Y-160750000D01*
X113890000Y-161850000D02*
X129010000Y-161850000D01*
X128630000Y-157250000D02*
G75*
G03X128630000Y-157250000I-2180000J0D01*
G01*
X123630000Y-157250000D02*
G75*
G03X123630000Y-157250000I-2180000J0D01*
G01*
X118630000Y-157250000D02*
G75*
G03X118630000Y-157250000I-2180000J0D01*
G01*
X98150000Y-162550000D02*
X98550000Y-162550000D01*
X98150000Y-161910000D02*
X98150000Y-162550000D01*
X109692000Y-158242000D02*
X109297000Y-158638000D01*
X112338000Y-155596000D02*
X111958000Y-155976000D01*
X109943000Y-158524000D02*
X109563000Y-158904000D01*
X112604000Y-155862000D02*
X112209000Y-156258000D01*
X104692000Y-158242000D02*
X104297000Y-158638000D01*
X107338000Y-155596000D02*
X106958000Y-155976000D01*
X104943000Y-158524000D02*
X104563000Y-158904000D01*
X107604000Y-155862000D02*
X107209000Y-156258000D01*
X99402000Y-158531000D02*
X99296000Y-158638000D01*
X102338000Y-155596000D02*
X102231000Y-155703000D01*
X99668000Y-158797000D02*
X99562000Y-158904000D01*
X102604000Y-155862000D02*
X102497000Y-155969000D01*
X113510000Y-153190000D02*
X113510000Y-162310000D01*
X98390000Y-153190000D02*
X98390000Y-162310000D01*
X98390000Y-162310000D02*
X113510000Y-162310000D01*
X98390000Y-153190000D02*
X113510000Y-153190000D01*
X98390000Y-160750000D02*
X113510000Y-160750000D01*
X98390000Y-161850000D02*
X113510000Y-161850000D01*
X113130000Y-157250000D02*
G75*
G03X113130000Y-157250000I-2180000J0D01*
G01*
X108130000Y-157250000D02*
G75*
G03X108130000Y-157250000I-2180000J0D01*
G01*
X103130000Y-157250000D02*
G75*
G03X103130000Y-157250000I-2180000J0D01*
G01*
X177150000Y-133700000D02*
X177150000Y-133300000D01*
X176510000Y-133700000D02*
X177150000Y-133700000D01*
X172842000Y-122158000D02*
X173238000Y-122553000D01*
X170196000Y-119512000D02*
X170576000Y-119892000D01*
X173124000Y-121907000D02*
X173504000Y-122287000D01*
X170462000Y-119246000D02*
X170858000Y-119641000D01*
X172842000Y-127158000D02*
X173238000Y-127553000D01*
X170196000Y-124512000D02*
X170576000Y-124892000D01*
X173124000Y-126907000D02*
X173504000Y-127287000D01*
X170462000Y-124246000D02*
X170858000Y-124641000D01*
X173131000Y-132448000D02*
X173238000Y-132554000D01*
X170196000Y-129512000D02*
X170303000Y-129619000D01*
X173397000Y-132182000D02*
X173504000Y-132288000D01*
X170462000Y-129246000D02*
X170569000Y-129353000D01*
X167790000Y-118340000D02*
X176910000Y-118340000D01*
X167790000Y-133460000D02*
X176910000Y-133460000D01*
X176910000Y-133460000D02*
X176910000Y-118340000D01*
X167790000Y-133460000D02*
X167790000Y-118340000D01*
X175350000Y-133460000D02*
X175350000Y-118340000D01*
X176450000Y-133460000D02*
X176450000Y-118340000D01*
X174030000Y-120900000D02*
G75*
G03X174030000Y-120900000I-2180000J0D01*
G01*
X174030000Y-125900000D02*
G75*
G03X174030000Y-125900000I-2180000J0D01*
G01*
X174030000Y-130900000D02*
G75*
G03X174030000Y-130900000I-2180000J0D01*
G01*
X177150000Y-149200000D02*
X177150000Y-148800000D01*
X176510000Y-149200000D02*
X177150000Y-149200000D01*
X172842000Y-137658000D02*
X173238000Y-138053000D01*
X170196000Y-135012000D02*
X170576000Y-135392000D01*
X173124000Y-137407000D02*
X173504000Y-137787000D01*
X170462000Y-134746000D02*
X170858000Y-135141000D01*
X172842000Y-142658000D02*
X173238000Y-143053000D01*
X170196000Y-140012000D02*
X170576000Y-140392000D01*
X173124000Y-142407000D02*
X173504000Y-142787000D01*
X170462000Y-139746000D02*
X170858000Y-140141000D01*
X173131000Y-147948000D02*
X173238000Y-148054000D01*
X170196000Y-145012000D02*
X170303000Y-145119000D01*
X173397000Y-147682000D02*
X173504000Y-147788000D01*
X170462000Y-144746000D02*
X170569000Y-144853000D01*
X167790000Y-133840000D02*
X176910000Y-133840000D01*
X167790000Y-148960000D02*
X176910000Y-148960000D01*
X176910000Y-148960000D02*
X176910000Y-133840000D01*
X167790000Y-148960000D02*
X167790000Y-133840000D01*
X175350000Y-148960000D02*
X175350000Y-133840000D01*
X176450000Y-148960000D02*
X176450000Y-133840000D01*
X174030000Y-136400000D02*
G75*
G03X174030000Y-136400000I-2180000J0D01*
G01*
X174030000Y-141400000D02*
G75*
G03X174030000Y-141400000I-2180000J0D01*
G01*
X174030000Y-146400000D02*
G75*
G03X174030000Y-146400000I-2180000J0D01*
G01*
X87500000Y-162550000D02*
X87900000Y-162550000D01*
X87500000Y-161910000D02*
X87500000Y-162550000D01*
X94042000Y-158242000D02*
X93647000Y-158638000D01*
X96688000Y-155596000D02*
X96308000Y-155976000D01*
X94293000Y-158524000D02*
X93913000Y-158904000D01*
X96954000Y-155862000D02*
X96559000Y-156258000D01*
X88752000Y-158531000D02*
X88646000Y-158638000D01*
X91688000Y-155596000D02*
X91581000Y-155703000D01*
X89018000Y-158797000D02*
X88912000Y-158904000D01*
X91954000Y-155862000D02*
X91847000Y-155969000D01*
X97860000Y-153190000D02*
X97860000Y-162310000D01*
X87740000Y-153190000D02*
X87740000Y-162310000D01*
X87740000Y-162310000D02*
X97860000Y-162310000D01*
X87740000Y-153190000D02*
X97860000Y-153190000D01*
X87740000Y-160750000D02*
X97860000Y-160750000D01*
X87740000Y-161850000D02*
X97860000Y-161850000D01*
X97480000Y-157250000D02*
G75*
G03X97480000Y-157250000I-2180000J0D01*
G01*
X92480000Y-157250000D02*
G75*
G03X92480000Y-157250000I-2180000J0D01*
G01*
X161050000Y-67400000D02*
X160650000Y-67400000D01*
X161050000Y-68040000D02*
X161050000Y-67400000D01*
X149508000Y-71708000D02*
X149903000Y-71312000D01*
X146862000Y-74354000D02*
X147242000Y-73974000D01*
X149257000Y-71426000D02*
X149637000Y-71046000D01*
X146596000Y-74088000D02*
X146991000Y-73692000D01*
X154508000Y-71708000D02*
X154903000Y-71312000D01*
X151862000Y-74354000D02*
X152242000Y-73974000D01*
X154257000Y-71426000D02*
X154637000Y-71046000D01*
X151596000Y-74088000D02*
X151991000Y-73692000D01*
X159798000Y-71419000D02*
X159904000Y-71312000D01*
X156862000Y-74354000D02*
X156969000Y-74247000D01*
X159532000Y-71153000D02*
X159638000Y-71046000D01*
X156596000Y-74088000D02*
X156703000Y-73981000D01*
X145690000Y-76760000D02*
X145690000Y-67640000D01*
X160810000Y-76760000D02*
X160810000Y-67640000D01*
X160810000Y-67640000D02*
X145690000Y-67640000D01*
X160810000Y-76760000D02*
X145690000Y-76760000D01*
X160810000Y-69200000D02*
X145690000Y-69200000D01*
X160810000Y-68100000D02*
X145690000Y-68100000D01*
X150430000Y-72700000D02*
G75*
G03X150430000Y-72700000I-2180000J0D01*
G01*
X155430000Y-72700000D02*
G75*
G03X155430000Y-72700000I-2180000J0D01*
G01*
X160430000Y-72700000D02*
G75*
G03X160430000Y-72700000I-2180000J0D01*
G01*
X145550000Y-67400000D02*
X145150000Y-67400000D01*
X145550000Y-68040000D02*
X145550000Y-67400000D01*
X134008000Y-71708000D02*
X134403000Y-71312000D01*
X131362000Y-74354000D02*
X131742000Y-73974000D01*
X133757000Y-71426000D02*
X134137000Y-71046000D01*
X131096000Y-74088000D02*
X131491000Y-73692000D01*
X139008000Y-71708000D02*
X139403000Y-71312000D01*
X136362000Y-74354000D02*
X136742000Y-73974000D01*
X138757000Y-71426000D02*
X139137000Y-71046000D01*
X136096000Y-74088000D02*
X136491000Y-73692000D01*
X144298000Y-71419000D02*
X144404000Y-71312000D01*
X141362000Y-74354000D02*
X141469000Y-74247000D01*
X144032000Y-71153000D02*
X144138000Y-71046000D01*
X141096000Y-74088000D02*
X141203000Y-73981000D01*
X130190000Y-76760000D02*
X130190000Y-67640000D01*
X145310000Y-76760000D02*
X145310000Y-67640000D01*
X145310000Y-67640000D02*
X130190000Y-67640000D01*
X145310000Y-76760000D02*
X130190000Y-76760000D01*
X145310000Y-69200000D02*
X130190000Y-69200000D01*
X145310000Y-68100000D02*
X130190000Y-68100000D01*
X134930000Y-72700000D02*
G75*
G03X134930000Y-72700000I-2180000J0D01*
G01*
X139930000Y-72700000D02*
G75*
G03X139930000Y-72700000I-2180000J0D01*
G01*
X144930000Y-72700000D02*
G75*
G03X144930000Y-72700000I-2180000J0D01*
G01*
X130050000Y-67400000D02*
X129650000Y-67400000D01*
X130050000Y-68040000D02*
X130050000Y-67400000D01*
X118508000Y-71708000D02*
X118903000Y-71312000D01*
X115862000Y-74354000D02*
X116242000Y-73974000D01*
X118257000Y-71426000D02*
X118637000Y-71046000D01*
X115596000Y-74088000D02*
X115991000Y-73692000D01*
X123508000Y-71708000D02*
X123903000Y-71312000D01*
X120862000Y-74354000D02*
X121242000Y-73974000D01*
X123257000Y-71426000D02*
X123637000Y-71046000D01*
X120596000Y-74088000D02*
X120991000Y-73692000D01*
X128798000Y-71419000D02*
X128904000Y-71312000D01*
X125862000Y-74354000D02*
X125969000Y-74247000D01*
X128532000Y-71153000D02*
X128638000Y-71046000D01*
X125596000Y-74088000D02*
X125703000Y-73981000D01*
X114690000Y-76760000D02*
X114690000Y-67640000D01*
X129810000Y-76760000D02*
X129810000Y-67640000D01*
X129810000Y-67640000D02*
X114690000Y-67640000D01*
X129810000Y-76760000D02*
X114690000Y-76760000D01*
X129810000Y-69200000D02*
X114690000Y-69200000D01*
X129810000Y-68100000D02*
X114690000Y-68100000D01*
X119430000Y-72700000D02*
G75*
G03X119430000Y-72700000I-2180000J0D01*
G01*
X124430000Y-72700000D02*
G75*
G03X124430000Y-72700000I-2180000J0D01*
G01*
X129430000Y-72700000D02*
G75*
G03X129430000Y-72700000I-2180000J0D01*
G01*
X114550000Y-67400000D02*
X114150000Y-67400000D01*
X114550000Y-68040000D02*
X114550000Y-67400000D01*
X103008000Y-71708000D02*
X103403000Y-71312000D01*
X100362000Y-74354000D02*
X100742000Y-73974000D01*
X102757000Y-71426000D02*
X103137000Y-71046000D01*
X100096000Y-74088000D02*
X100491000Y-73692000D01*
X108008000Y-71708000D02*
X108403000Y-71312000D01*
X105362000Y-74354000D02*
X105742000Y-73974000D01*
X107757000Y-71426000D02*
X108137000Y-71046000D01*
X105096000Y-74088000D02*
X105491000Y-73692000D01*
X113298000Y-71419000D02*
X113404000Y-71312000D01*
X110362000Y-74354000D02*
X110469000Y-74247000D01*
X113032000Y-71153000D02*
X113138000Y-71046000D01*
X110096000Y-74088000D02*
X110203000Y-73981000D01*
X99190000Y-76760000D02*
X99190000Y-67640000D01*
X114310000Y-76760000D02*
X114310000Y-67640000D01*
X114310000Y-67640000D02*
X99190000Y-67640000D01*
X114310000Y-76760000D02*
X99190000Y-76760000D01*
X114310000Y-69200000D02*
X99190000Y-69200000D01*
X114310000Y-68100000D02*
X99190000Y-68100000D01*
X103930000Y-72700000D02*
G75*
G03X103930000Y-72700000I-2180000J0D01*
G01*
X108930000Y-72700000D02*
G75*
G03X108930000Y-72700000I-2180000J0D01*
G01*
X113930000Y-72700000D02*
G75*
G03X113930000Y-72700000I-2180000J0D01*
G01*
D11*
X85800000Y-121250000D02*
X85800000Y-121850000D01*
X84200000Y-121250000D02*
X85800000Y-121250000D01*
X85800000Y-128850000D02*
X85800000Y-128250000D01*
X84000000Y-128850000D02*
X85800000Y-128850000D01*
X86300000Y-123350000D02*
X85800000Y-123350000D01*
X86300000Y-124050000D02*
X86300000Y-123350000D01*
D15*
X162225000Y-135855000D02*
X165165000Y-135855000D01*
X162225000Y-135615000D02*
X165165000Y-135615000D01*
X162225000Y-135735000D02*
X165165000Y-135735000D01*
X163695000Y-130175000D02*
X163695000Y-131195000D01*
X163695000Y-137655000D02*
X163695000Y-136635000D01*
X162225000Y-131195000D02*
X162225000Y-136635000D01*
X165165000Y-131195000D02*
X162225000Y-131195000D01*
X165165000Y-136635000D02*
X165165000Y-131195000D01*
X162225000Y-136635000D02*
X165165000Y-136635000D01*
X158780000Y-135860000D02*
X161720000Y-135860000D01*
X158780000Y-135620000D02*
X161720000Y-135620000D01*
X158780000Y-135740000D02*
X161720000Y-135740000D01*
X160250000Y-130180000D02*
X160250000Y-131200000D01*
X160250000Y-137660000D02*
X160250000Y-136640000D01*
X158780000Y-131200000D02*
X158780000Y-136640000D01*
X161720000Y-131200000D02*
X158780000Y-131200000D01*
X161720000Y-136640000D02*
X161720000Y-131200000D01*
X158780000Y-136640000D02*
X161720000Y-136640000D01*
X103270000Y-137240000D02*
X100330000Y-137240000D01*
X103270000Y-137480000D02*
X100330000Y-137480000D01*
X103270000Y-137360000D02*
X100330000Y-137360000D01*
X101800000Y-142920000D02*
X101800000Y-141900000D01*
X101800000Y-135440000D02*
X101800000Y-136460000D01*
X103270000Y-141900000D02*
X103270000Y-136460000D01*
X100330000Y-141900000D02*
X103270000Y-141900000D01*
X100330000Y-136460000D02*
X100330000Y-141900000D01*
X103270000Y-136460000D02*
X100330000Y-136460000D01*
X99720000Y-137240000D02*
X96780000Y-137240000D01*
X99720000Y-137480000D02*
X96780000Y-137480000D01*
X99720000Y-137360000D02*
X96780000Y-137360000D01*
X98250000Y-142920000D02*
X98250000Y-141900000D01*
X98250000Y-135440000D02*
X98250000Y-136460000D01*
X99720000Y-141900000D02*
X99720000Y-136460000D01*
X96780000Y-141900000D02*
X99720000Y-141900000D01*
X96780000Y-136460000D02*
X96780000Y-141900000D01*
X99720000Y-136460000D02*
X96780000Y-136460000D01*
X136115000Y-109485000D02*
X138800000Y-109485000D01*
X136115000Y-107565000D02*
X136115000Y-109485000D01*
X138800000Y-107565000D02*
X136115000Y-107565000D01*
X132490000Y-109460000D02*
X135175000Y-109460000D01*
X132490000Y-107540000D02*
X132490000Y-109460000D01*
X135175000Y-107540000D02*
X132490000Y-107540000D01*
X128890000Y-109485000D02*
X131575000Y-109485000D01*
X128890000Y-107565000D02*
X128890000Y-109485000D01*
X131575000Y-107565000D02*
X128890000Y-107565000D01*
X125290000Y-109510000D02*
X127975000Y-109510000D01*
X125290000Y-107590000D02*
X125290000Y-109510000D01*
X127975000Y-107590000D02*
X125290000Y-107590000D01*
X139715000Y-109535000D02*
X142400000Y-109535000D01*
X139715000Y-107615000D02*
X139715000Y-109535000D01*
X142400000Y-107615000D02*
X139715000Y-107615000D01*
X121340000Y-99230000D02*
X121340000Y-102170000D01*
X121580000Y-99230000D02*
X121580000Y-102170000D01*
X121460000Y-99230000D02*
X121460000Y-102170000D01*
X127020000Y-100700000D02*
X126000000Y-100700000D01*
X119540000Y-100700000D02*
X120560000Y-100700000D01*
X126000000Y-99230000D02*
X120560000Y-99230000D01*
X126000000Y-102170000D02*
X126000000Y-99230000D01*
X120560000Y-102170000D02*
X126000000Y-102170000D01*
X120560000Y-99230000D02*
X120560000Y-102170000D01*
X121665000Y-109560000D02*
X124350000Y-109560000D01*
X121665000Y-107640000D02*
X121665000Y-109560000D01*
X124350000Y-107640000D02*
X121665000Y-107640000D01*
X103240000Y-98130000D02*
X103240000Y-101070000D01*
X103480000Y-98130000D02*
X103480000Y-101070000D01*
X103360000Y-98130000D02*
X103360000Y-101070000D01*
X108920000Y-99600000D02*
X107900000Y-99600000D01*
X101440000Y-99600000D02*
X102460000Y-99600000D01*
X107900000Y-98130000D02*
X102460000Y-98130000D01*
X107900000Y-101070000D02*
X107900000Y-98130000D01*
X102460000Y-101070000D02*
X107900000Y-101070000D01*
X102460000Y-98130000D02*
X102460000Y-101070000D01*
X85340000Y-98530000D02*
X85340000Y-101470000D01*
X85580000Y-98530000D02*
X85580000Y-101470000D01*
X85460000Y-98530000D02*
X85460000Y-101470000D01*
X91020000Y-100000000D02*
X90000000Y-100000000D01*
X83540000Y-100000000D02*
X84560000Y-100000000D01*
X90000000Y-98530000D02*
X84560000Y-98530000D01*
X90000000Y-101470000D02*
X90000000Y-98530000D01*
X84560000Y-101470000D02*
X90000000Y-101470000D01*
X84560000Y-98530000D02*
X84560000Y-101470000D01*
X118070000Y-109560000D02*
X120755000Y-109560000D01*
X118070000Y-107640000D02*
X118070000Y-109560000D01*
X120755000Y-107640000D02*
X118070000Y-107640000D01*
X114515000Y-109560000D02*
X117200000Y-109560000D01*
X114515000Y-107640000D02*
X114515000Y-109560000D01*
X117200000Y-107640000D02*
X114515000Y-107640000D01*
X96170000Y-137240000D02*
X93230000Y-137240000D01*
X96170000Y-137480000D02*
X93230000Y-137480000D01*
X96170000Y-137360000D02*
X93230000Y-137360000D01*
X94700000Y-142920000D02*
X94700000Y-141900000D01*
X94700000Y-135440000D02*
X94700000Y-136460000D01*
X96170000Y-141900000D02*
X96170000Y-136460000D01*
X93230000Y-141900000D02*
X96170000Y-141900000D01*
X93230000Y-136460000D02*
X93230000Y-141900000D01*
X96170000Y-136460000D02*
X93230000Y-136460000D01*
X164170000Y-143230000D02*
X164170000Y-145970000D01*
X158930000Y-143230000D02*
X158930000Y-145970000D01*
X158930000Y-145970000D02*
X164170000Y-145970000D01*
X158930000Y-143230000D02*
X164170000Y-143230000D01*
X158420000Y-143230000D02*
X158420000Y-145970000D01*
X153180000Y-143230000D02*
X153180000Y-145970000D01*
X153180000Y-145970000D02*
X158420000Y-145970000D01*
X153180000Y-143230000D02*
X158420000Y-143230000D01*
X146970000Y-143230000D02*
X146970000Y-145970000D01*
X141730000Y-143230000D02*
X141730000Y-145970000D01*
X141730000Y-145970000D02*
X146970000Y-145970000D01*
X141730000Y-143230000D02*
X146970000Y-143230000D01*
X152670000Y-143230000D02*
X152670000Y-145970000D01*
X147430000Y-143230000D02*
X147430000Y-145970000D01*
X147430000Y-145970000D02*
X152670000Y-145970000D01*
X147430000Y-143230000D02*
X152670000Y-143230000D01*
X90225000Y-145195225D02*
X89725000Y-145195225D01*
X89975000Y-144945225D02*
X89975000Y-145445225D01*
X88784000Y-150351000D02*
X88216000Y-150351000D01*
X89018000Y-150311000D02*
X87982000Y-150311000D01*
X89177000Y-150271000D02*
X87823000Y-150271000D01*
X89305000Y-150231000D02*
X87695000Y-150231000D01*
X89415000Y-150191000D02*
X87585000Y-150191000D01*
X89511000Y-150151000D02*
X87489000Y-150151000D01*
X89598000Y-150111000D02*
X87402000Y-150111000D01*
X89678000Y-150071000D02*
X87322000Y-150071000D01*
X89751000Y-150031000D02*
X87249000Y-150031000D01*
X89819000Y-149991000D02*
X87181000Y-149991000D01*
X89883000Y-149951000D02*
X87117000Y-149951000D01*
X89943000Y-149911000D02*
X87057000Y-149911000D01*
X90000000Y-149871000D02*
X87000000Y-149871000D01*
X90054000Y-149831000D02*
X86946000Y-149831000D01*
X90105000Y-149791000D02*
X86895000Y-149791000D01*
X87460000Y-149751000D02*
X86847000Y-149751000D01*
X90153000Y-149751000D02*
X89540000Y-149751000D01*
X87460000Y-149711000D02*
X86801000Y-149711000D01*
X90199000Y-149711000D02*
X89540000Y-149711000D01*
X87460000Y-149671000D02*
X86757000Y-149671000D01*
X90243000Y-149671000D02*
X89540000Y-149671000D01*
X87460000Y-149631000D02*
X86715000Y-149631000D01*
X90285000Y-149631000D02*
X89540000Y-149631000D01*
X87460000Y-149591000D02*
X86674000Y-149591000D01*
X90326000Y-149591000D02*
X89540000Y-149591000D01*
X87460000Y-149551000D02*
X86636000Y-149551000D01*
X90364000Y-149551000D02*
X89540000Y-149551000D01*
X87460000Y-149511000D02*
X86599000Y-149511000D01*
X90401000Y-149511000D02*
X89540000Y-149511000D01*
X87460000Y-149471000D02*
X86563000Y-149471000D01*
X90437000Y-149471000D02*
X89540000Y-149471000D01*
X87460000Y-149431000D02*
X86529000Y-149431000D01*
X90471000Y-149431000D02*
X89540000Y-149431000D01*
X87460000Y-149391000D02*
X86496000Y-149391000D01*
X90504000Y-149391000D02*
X89540000Y-149391000D01*
X87460000Y-149351000D02*
X86465000Y-149351000D01*
X90535000Y-149351000D02*
X89540000Y-149351000D01*
X87460000Y-149311000D02*
X86435000Y-149311000D01*
X90565000Y-149311000D02*
X89540000Y-149311000D01*
X87460000Y-149271000D02*
X86405000Y-149271000D01*
X90595000Y-149271000D02*
X89540000Y-149271000D01*
X87460000Y-149231000D02*
X86378000Y-149231000D01*
X90622000Y-149231000D02*
X89540000Y-149231000D01*
X87460000Y-149191000D02*
X86351000Y-149191000D01*
X90649000Y-149191000D02*
X89540000Y-149191000D01*
X87460000Y-149151000D02*
X86325000Y-149151000D01*
X90675000Y-149151000D02*
X89540000Y-149151000D01*
X87460000Y-149111000D02*
X86300000Y-149111000D01*
X90700000Y-149111000D02*
X89540000Y-149111000D01*
X87460000Y-149071000D02*
X86276000Y-149071000D01*
X90724000Y-149071000D02*
X89540000Y-149071000D01*
X87460000Y-149031000D02*
X86253000Y-149031000D01*
X90747000Y-149031000D02*
X89540000Y-149031000D01*
X87460000Y-148991000D02*
X86232000Y-148991000D01*
X90768000Y-148991000D02*
X89540000Y-148991000D01*
X87460000Y-148951000D02*
X86210000Y-148951000D01*
X90790000Y-148951000D02*
X89540000Y-148951000D01*
X87460000Y-148911000D02*
X86190000Y-148911000D01*
X90810000Y-148911000D02*
X89540000Y-148911000D01*
X87460000Y-148871000D02*
X86171000Y-148871000D01*
X90829000Y-148871000D02*
X89540000Y-148871000D01*
X87460000Y-148831000D02*
X86152000Y-148831000D01*
X90848000Y-148831000D02*
X89540000Y-148831000D01*
X87460000Y-148791000D02*
X86135000Y-148791000D01*
X90865000Y-148791000D02*
X89540000Y-148791000D01*
X87460000Y-148751000D02*
X86118000Y-148751000D01*
X90882000Y-148751000D02*
X89540000Y-148751000D01*
X87460000Y-148711000D02*
X86102000Y-148711000D01*
X90898000Y-148711000D02*
X89540000Y-148711000D01*
X87460000Y-148671000D02*
X86086000Y-148671000D01*
X90914000Y-148671000D02*
X89540000Y-148671000D01*
X87460000Y-148631000D02*
X86072000Y-148631000D01*
X90928000Y-148631000D02*
X89540000Y-148631000D01*
X87460000Y-148591000D02*
X86058000Y-148591000D01*
X90942000Y-148591000D02*
X89540000Y-148591000D01*
X87460000Y-148551000D02*
X86045000Y-148551000D01*
X90955000Y-148551000D02*
X89540000Y-148551000D01*
X87460000Y-148511000D02*
X86032000Y-148511000D01*
X90968000Y-148511000D02*
X89540000Y-148511000D01*
X87460000Y-148471000D02*
X86020000Y-148471000D01*
X90980000Y-148471000D02*
X89540000Y-148471000D01*
X87460000Y-148430000D02*
X86009000Y-148430000D01*
X90991000Y-148430000D02*
X89540000Y-148430000D01*
X87460000Y-148390000D02*
X85999000Y-148390000D01*
X91001000Y-148390000D02*
X89540000Y-148390000D01*
X87460000Y-148350000D02*
X85989000Y-148350000D01*
X91011000Y-148350000D02*
X89540000Y-148350000D01*
X87460000Y-148310000D02*
X85980000Y-148310000D01*
X91020000Y-148310000D02*
X89540000Y-148310000D01*
X87460000Y-148270000D02*
X85972000Y-148270000D01*
X91028000Y-148270000D02*
X89540000Y-148270000D01*
X87460000Y-148230000D02*
X85964000Y-148230000D01*
X91036000Y-148230000D02*
X89540000Y-148230000D01*
X87460000Y-148190000D02*
X85957000Y-148190000D01*
X91043000Y-148190000D02*
X89540000Y-148190000D01*
X87460000Y-148150000D02*
X85950000Y-148150000D01*
X91050000Y-148150000D02*
X89540000Y-148150000D01*
X87460000Y-148110000D02*
X85944000Y-148110000D01*
X91056000Y-148110000D02*
X89540000Y-148110000D01*
X87460000Y-148070000D02*
X85939000Y-148070000D01*
X91061000Y-148070000D02*
X89540000Y-148070000D01*
X87460000Y-148030000D02*
X85935000Y-148030000D01*
X91065000Y-148030000D02*
X89540000Y-148030000D01*
X87460000Y-147990000D02*
X85931000Y-147990000D01*
X91069000Y-147990000D02*
X89540000Y-147990000D01*
X87460000Y-147950000D02*
X85927000Y-147950000D01*
X91073000Y-147950000D02*
X89540000Y-147950000D01*
X87460000Y-147910000D02*
X85924000Y-147910000D01*
X91076000Y-147910000D02*
X89540000Y-147910000D01*
X87460000Y-147870000D02*
X85922000Y-147870000D01*
X91078000Y-147870000D02*
X89540000Y-147870000D01*
X87460000Y-147830000D02*
X85921000Y-147830000D01*
X91079000Y-147830000D02*
X89540000Y-147830000D01*
X91080000Y-147790000D02*
X89540000Y-147790000D01*
X87460000Y-147790000D02*
X85920000Y-147790000D01*
X91080000Y-147750000D02*
X89540000Y-147750000D01*
X87460000Y-147750000D02*
X85920000Y-147750000D01*
X91120000Y-147750000D02*
G75*
G03X91120000Y-147750000I-2620000J0D01*
G01*
X84475000Y-145245225D02*
X83975000Y-145245225D01*
X84225000Y-144995225D02*
X84225000Y-145495225D01*
X83034000Y-150401000D02*
X82466000Y-150401000D01*
X83268000Y-150361000D02*
X82232000Y-150361000D01*
X83427000Y-150321000D02*
X82073000Y-150321000D01*
X83555000Y-150281000D02*
X81945000Y-150281000D01*
X83665000Y-150241000D02*
X81835000Y-150241000D01*
X83761000Y-150201000D02*
X81739000Y-150201000D01*
X83848000Y-150161000D02*
X81652000Y-150161000D01*
X83928000Y-150121000D02*
X81572000Y-150121000D01*
X84001000Y-150081000D02*
X81499000Y-150081000D01*
X84069000Y-150041000D02*
X81431000Y-150041000D01*
X84133000Y-150001000D02*
X81367000Y-150001000D01*
X84193000Y-149961000D02*
X81307000Y-149961000D01*
X84250000Y-149921000D02*
X81250000Y-149921000D01*
X84304000Y-149881000D02*
X81196000Y-149881000D01*
X84355000Y-149841000D02*
X81145000Y-149841000D01*
X81710000Y-149801000D02*
X81097000Y-149801000D01*
X84403000Y-149801000D02*
X83790000Y-149801000D01*
X81710000Y-149761000D02*
X81051000Y-149761000D01*
X84449000Y-149761000D02*
X83790000Y-149761000D01*
X81710000Y-149721000D02*
X81007000Y-149721000D01*
X84493000Y-149721000D02*
X83790000Y-149721000D01*
X81710000Y-149681000D02*
X80965000Y-149681000D01*
X84535000Y-149681000D02*
X83790000Y-149681000D01*
X81710000Y-149641000D02*
X80924000Y-149641000D01*
X84576000Y-149641000D02*
X83790000Y-149641000D01*
X81710000Y-149601000D02*
X80886000Y-149601000D01*
X84614000Y-149601000D02*
X83790000Y-149601000D01*
X81710000Y-149561000D02*
X80849000Y-149561000D01*
X84651000Y-149561000D02*
X83790000Y-149561000D01*
X81710000Y-149521000D02*
X80813000Y-149521000D01*
X84687000Y-149521000D02*
X83790000Y-149521000D01*
X81710000Y-149481000D02*
X80779000Y-149481000D01*
X84721000Y-149481000D02*
X83790000Y-149481000D01*
X81710000Y-149441000D02*
X80746000Y-149441000D01*
X84754000Y-149441000D02*
X83790000Y-149441000D01*
X81710000Y-149401000D02*
X80715000Y-149401000D01*
X84785000Y-149401000D02*
X83790000Y-149401000D01*
X81710000Y-149361000D02*
X80685000Y-149361000D01*
X84815000Y-149361000D02*
X83790000Y-149361000D01*
X81710000Y-149321000D02*
X80655000Y-149321000D01*
X84845000Y-149321000D02*
X83790000Y-149321000D01*
X81710000Y-149281000D02*
X80628000Y-149281000D01*
X84872000Y-149281000D02*
X83790000Y-149281000D01*
X81710000Y-149241000D02*
X80601000Y-149241000D01*
X84899000Y-149241000D02*
X83790000Y-149241000D01*
X81710000Y-149201000D02*
X80575000Y-149201000D01*
X84925000Y-149201000D02*
X83790000Y-149201000D01*
X81710000Y-149161000D02*
X80550000Y-149161000D01*
X84950000Y-149161000D02*
X83790000Y-149161000D01*
X81710000Y-149121000D02*
X80526000Y-149121000D01*
X84974000Y-149121000D02*
X83790000Y-149121000D01*
X81710000Y-149081000D02*
X80503000Y-149081000D01*
X84997000Y-149081000D02*
X83790000Y-149081000D01*
X81710000Y-149041000D02*
X80482000Y-149041000D01*
X85018000Y-149041000D02*
X83790000Y-149041000D01*
X81710000Y-149001000D02*
X80460000Y-149001000D01*
X85040000Y-149001000D02*
X83790000Y-149001000D01*
X81710000Y-148961000D02*
X80440000Y-148961000D01*
X85060000Y-148961000D02*
X83790000Y-148961000D01*
X81710000Y-148921000D02*
X80421000Y-148921000D01*
X85079000Y-148921000D02*
X83790000Y-148921000D01*
X81710000Y-148881000D02*
X80402000Y-148881000D01*
X85098000Y-148881000D02*
X83790000Y-148881000D01*
X81710000Y-148841000D02*
X80385000Y-148841000D01*
X85115000Y-148841000D02*
X83790000Y-148841000D01*
X81710000Y-148801000D02*
X80368000Y-148801000D01*
X85132000Y-148801000D02*
X83790000Y-148801000D01*
X81710000Y-148761000D02*
X80352000Y-148761000D01*
X85148000Y-148761000D02*
X83790000Y-148761000D01*
X81710000Y-148721000D02*
X80336000Y-148721000D01*
X85164000Y-148721000D02*
X83790000Y-148721000D01*
X81710000Y-148681000D02*
X80322000Y-148681000D01*
X85178000Y-148681000D02*
X83790000Y-148681000D01*
X81710000Y-148641000D02*
X80308000Y-148641000D01*
X85192000Y-148641000D02*
X83790000Y-148641000D01*
X81710000Y-148601000D02*
X80295000Y-148601000D01*
X85205000Y-148601000D02*
X83790000Y-148601000D01*
X81710000Y-148561000D02*
X80282000Y-148561000D01*
X85218000Y-148561000D02*
X83790000Y-148561000D01*
X81710000Y-148521000D02*
X80270000Y-148521000D01*
X85230000Y-148521000D02*
X83790000Y-148521000D01*
X81710000Y-148480000D02*
X80259000Y-148480000D01*
X85241000Y-148480000D02*
X83790000Y-148480000D01*
X81710000Y-148440000D02*
X80249000Y-148440000D01*
X85251000Y-148440000D02*
X83790000Y-148440000D01*
X81710000Y-148400000D02*
X80239000Y-148400000D01*
X85261000Y-148400000D02*
X83790000Y-148400000D01*
X81710000Y-148360000D02*
X80230000Y-148360000D01*
X85270000Y-148360000D02*
X83790000Y-148360000D01*
X81710000Y-148320000D02*
X80222000Y-148320000D01*
X85278000Y-148320000D02*
X83790000Y-148320000D01*
X81710000Y-148280000D02*
X80214000Y-148280000D01*
X85286000Y-148280000D02*
X83790000Y-148280000D01*
X81710000Y-148240000D02*
X80207000Y-148240000D01*
X85293000Y-148240000D02*
X83790000Y-148240000D01*
X81710000Y-148200000D02*
X80200000Y-148200000D01*
X85300000Y-148200000D02*
X83790000Y-148200000D01*
X81710000Y-148160000D02*
X80194000Y-148160000D01*
X85306000Y-148160000D02*
X83790000Y-148160000D01*
X81710000Y-148120000D02*
X80189000Y-148120000D01*
X85311000Y-148120000D02*
X83790000Y-148120000D01*
X81710000Y-148080000D02*
X80185000Y-148080000D01*
X85315000Y-148080000D02*
X83790000Y-148080000D01*
X81710000Y-148040000D02*
X80181000Y-148040000D01*
X85319000Y-148040000D02*
X83790000Y-148040000D01*
X81710000Y-148000000D02*
X80177000Y-148000000D01*
X85323000Y-148000000D02*
X83790000Y-148000000D01*
X81710000Y-147960000D02*
X80174000Y-147960000D01*
X85326000Y-147960000D02*
X83790000Y-147960000D01*
X81710000Y-147920000D02*
X80172000Y-147920000D01*
X85328000Y-147920000D02*
X83790000Y-147920000D01*
X81710000Y-147880000D02*
X80171000Y-147880000D01*
X85329000Y-147880000D02*
X83790000Y-147880000D01*
X85330000Y-147840000D02*
X83790000Y-147840000D01*
X81710000Y-147840000D02*
X80170000Y-147840000D01*
X85330000Y-147800000D02*
X83790000Y-147800000D01*
X81710000Y-147800000D02*
X80170000Y-147800000D01*
X85370000Y-147800000D02*
G75*
G03X85370000Y-147800000I-2620000J0D01*
G01*
X101615000Y-116591422D02*
X101615000Y-117108578D01*
X103035000Y-116591422D02*
X103035000Y-117108578D01*
X105416422Y-121210000D02*
X105933578Y-121210000D01*
X105416422Y-119790000D02*
X105933578Y-119790000D01*
X145758578Y-123290000D02*
X145241422Y-123290000D01*
X145758578Y-124710000D02*
X145241422Y-124710000D01*
X109708578Y-115290000D02*
X109191422Y-115290000D01*
X109708578Y-116710000D02*
X109191422Y-116710000D01*
X100930000Y-117118578D02*
X100930000Y-116601422D01*
X99510000Y-117118578D02*
X99510000Y-116601422D01*
X91040000Y-130991422D02*
X91040000Y-131508578D01*
X92460000Y-130991422D02*
X92460000Y-131508578D01*
X108510000Y-133558578D02*
X108510000Y-133041422D01*
X107090000Y-133558578D02*
X107090000Y-133041422D01*
X93960000Y-125108578D02*
X93960000Y-124591422D01*
X92540000Y-125108578D02*
X92540000Y-124591422D01*
X89710000Y-131608578D02*
X89710000Y-131091422D01*
X88290000Y-131608578D02*
X88290000Y-131091422D01*
X179300000Y-110500000D02*
G75*
G03X179300000Y-110500000I-6100000J0D01*
G01*
D11*
X125684523Y-115052380D02*
X125684523Y-114052380D01*
X126351190Y-114052380D02*
X126446428Y-114052380D01*
X126541666Y-114100000D01*
X126589285Y-114147619D01*
X126636904Y-114242857D01*
X126684523Y-114433333D01*
X126684523Y-114671428D01*
X126636904Y-114861904D01*
X126589285Y-114957142D01*
X126541666Y-115004761D01*
X126446428Y-115052380D01*
X126351190Y-115052380D01*
X126255952Y-115004761D01*
X126208333Y-114957142D01*
X126160714Y-114861904D01*
X126113095Y-114671428D01*
X126113095Y-114433333D01*
X126160714Y-114242857D01*
X126208333Y-114147619D01*
X126255952Y-114100000D01*
X126351190Y-114052380D01*
X127113095Y-114957142D02*
X127160714Y-115004761D01*
X127113095Y-115052380D01*
X127065476Y-115004761D01*
X127113095Y-114957142D01*
X127113095Y-115052380D01*
X127494047Y-114052380D02*
X128113095Y-114052380D01*
X127779761Y-114433333D01*
X127922619Y-114433333D01*
X128017857Y-114480952D01*
X128065476Y-114528571D01*
X128113095Y-114623809D01*
X128113095Y-114861904D01*
X128065476Y-114957142D01*
X128017857Y-115004761D01*
X127922619Y-115052380D01*
X127636904Y-115052380D01*
X127541666Y-115004761D01*
X127494047Y-114957142D01*
X122134523Y-115102380D02*
X122134523Y-114102380D01*
X122801190Y-114102380D02*
X122896428Y-114102380D01*
X122991666Y-114150000D01*
X123039285Y-114197619D01*
X123086904Y-114292857D01*
X123134523Y-114483333D01*
X123134523Y-114721428D01*
X123086904Y-114911904D01*
X123039285Y-115007142D01*
X122991666Y-115054761D01*
X122896428Y-115102380D01*
X122801190Y-115102380D01*
X122705952Y-115054761D01*
X122658333Y-115007142D01*
X122610714Y-114911904D01*
X122563095Y-114721428D01*
X122563095Y-114483333D01*
X122610714Y-114292857D01*
X122658333Y-114197619D01*
X122705952Y-114150000D01*
X122801190Y-114102380D01*
X123563095Y-115007142D02*
X123610714Y-115054761D01*
X123563095Y-115102380D01*
X123515476Y-115054761D01*
X123563095Y-115007142D01*
X123563095Y-115102380D01*
X123991666Y-114197619D02*
X124039285Y-114150000D01*
X124134523Y-114102380D01*
X124372619Y-114102380D01*
X124467857Y-114150000D01*
X124515476Y-114197619D01*
X124563095Y-114292857D01*
X124563095Y-114388095D01*
X124515476Y-114530952D01*
X123944047Y-115102380D01*
X124563095Y-115102380D01*
X118574523Y-115122380D02*
X118574523Y-114122380D01*
X119241190Y-114122380D02*
X119336428Y-114122380D01*
X119431666Y-114170000D01*
X119479285Y-114217619D01*
X119526904Y-114312857D01*
X119574523Y-114503333D01*
X119574523Y-114741428D01*
X119526904Y-114931904D01*
X119479285Y-115027142D01*
X119431666Y-115074761D01*
X119336428Y-115122380D01*
X119241190Y-115122380D01*
X119145952Y-115074761D01*
X119098333Y-115027142D01*
X119050714Y-114931904D01*
X119003095Y-114741428D01*
X119003095Y-114503333D01*
X119050714Y-114312857D01*
X119098333Y-114217619D01*
X119145952Y-114170000D01*
X119241190Y-114122380D01*
X120003095Y-115027142D02*
X120050714Y-115074761D01*
X120003095Y-115122380D01*
X119955476Y-115074761D01*
X120003095Y-115027142D01*
X120003095Y-115122380D01*
X121003095Y-115122380D02*
X120431666Y-115122380D01*
X120717380Y-115122380D02*
X120717380Y-114122380D01*
X120622142Y-114265238D01*
X120526904Y-114360476D01*
X120431666Y-114408095D01*
X115034523Y-115152380D02*
X115034523Y-114152380D01*
X115701190Y-114152380D02*
X115796428Y-114152380D01*
X115891666Y-114200000D01*
X115939285Y-114247619D01*
X115986904Y-114342857D01*
X116034523Y-114533333D01*
X116034523Y-114771428D01*
X115986904Y-114961904D01*
X115939285Y-115057142D01*
X115891666Y-115104761D01*
X115796428Y-115152380D01*
X115701190Y-115152380D01*
X115605952Y-115104761D01*
X115558333Y-115057142D01*
X115510714Y-114961904D01*
X115463095Y-114771428D01*
X115463095Y-114533333D01*
X115510714Y-114342857D01*
X115558333Y-114247619D01*
X115605952Y-114200000D01*
X115701190Y-114152380D01*
X116463095Y-115057142D02*
X116510714Y-115104761D01*
X116463095Y-115152380D01*
X116415476Y-115104761D01*
X116463095Y-115057142D01*
X116463095Y-115152380D01*
X117129761Y-114152380D02*
X117225000Y-114152380D01*
X117320238Y-114200000D01*
X117367857Y-114247619D01*
X117415476Y-114342857D01*
X117463095Y-114533333D01*
X117463095Y-114771428D01*
X117415476Y-114961904D01*
X117367857Y-115057142D01*
X117320238Y-115104761D01*
X117225000Y-115152380D01*
X117129761Y-115152380D01*
X117034523Y-115104761D01*
X116986904Y-115057142D01*
X116939285Y-114961904D01*
X116891666Y-114771428D01*
X116891666Y-114533333D01*
X116939285Y-114342857D01*
X116986904Y-114247619D01*
X117034523Y-114200000D01*
X117129761Y-114152380D01*
X86252380Y-143780952D02*
X86252380Y-144257142D01*
X85252380Y-144257142D01*
X86252380Y-143447619D02*
X85252380Y-143447619D01*
X85966666Y-143114285D01*
X85252380Y-142780952D01*
X86252380Y-142780952D01*
X85252380Y-142400000D02*
X85252380Y-141733333D01*
X86252380Y-142161904D01*
X85680952Y-141209523D02*
X85633333Y-141304761D01*
X85585714Y-141352380D01*
X85490476Y-141400000D01*
X85442857Y-141400000D01*
X85347619Y-141352380D01*
X85300000Y-141304761D01*
X85252380Y-141209523D01*
X85252380Y-141019047D01*
X85300000Y-140923809D01*
X85347619Y-140876190D01*
X85442857Y-140828571D01*
X85490476Y-140828571D01*
X85585714Y-140876190D01*
X85633333Y-140923809D01*
X85680952Y-141019047D01*
X85680952Y-141209523D01*
X85728571Y-141304761D01*
X85776190Y-141352380D01*
X85871428Y-141400000D01*
X86061904Y-141400000D01*
X86157142Y-141352380D01*
X86204761Y-141304761D01*
X86252380Y-141209523D01*
X86252380Y-141019047D01*
X86204761Y-140923809D01*
X86157142Y-140876190D01*
X86061904Y-140828571D01*
X85871428Y-140828571D01*
X85776190Y-140876190D01*
X85728571Y-140923809D01*
X85680952Y-141019047D01*
X86252380Y-139876190D02*
X86252380Y-140447619D01*
X86252380Y-140161904D02*
X85252380Y-140161904D01*
X85395238Y-140257142D01*
X85490476Y-140352380D01*
X85538095Y-140447619D01*
X85252380Y-139257142D02*
X85252380Y-139161904D01*
X85300000Y-139066666D01*
X85347619Y-139019047D01*
X85442857Y-138971428D01*
X85633333Y-138923809D01*
X85871428Y-138923809D01*
X86061904Y-138971428D01*
X86157142Y-139019047D01*
X86204761Y-139066666D01*
X86252380Y-139161904D01*
X86252380Y-139257142D01*
X86204761Y-139352380D01*
X86157142Y-139400000D01*
X86061904Y-139447619D01*
X85871428Y-139495238D01*
X85633333Y-139495238D01*
X85442857Y-139447619D01*
X85347619Y-139400000D01*
X85300000Y-139352380D01*
X85252380Y-139257142D01*
X86347619Y-138733333D02*
X86347619Y-137971428D01*
X85252380Y-137876190D02*
X85252380Y-137304761D01*
X86252380Y-137590476D02*
X85252380Y-137590476D01*
X85252380Y-136780952D02*
X85252380Y-136590476D01*
X85300000Y-136495238D01*
X85395238Y-136400000D01*
X85585714Y-136352380D01*
X85919047Y-136352380D01*
X86109523Y-136400000D01*
X86204761Y-136495238D01*
X86252380Y-136590476D01*
X86252380Y-136780952D01*
X86204761Y-136876190D01*
X86109523Y-136971428D01*
X85919047Y-137019047D01*
X85585714Y-137019047D01*
X85395238Y-136971428D01*
X85300000Y-136876190D01*
X85252380Y-136780952D01*
X85347619Y-135971428D02*
X85300000Y-135923809D01*
X85252380Y-135828571D01*
X85252380Y-135590476D01*
X85300000Y-135495238D01*
X85347619Y-135447619D01*
X85442857Y-135400000D01*
X85538095Y-135400000D01*
X85680952Y-135447619D01*
X86252380Y-136019047D01*
X86252380Y-135400000D01*
X85347619Y-135019047D02*
X85300000Y-134971428D01*
X85252380Y-134876190D01*
X85252380Y-134638095D01*
X85300000Y-134542857D01*
X85347619Y-134495238D01*
X85442857Y-134447619D01*
X85538095Y-134447619D01*
X85680952Y-134495238D01*
X86252380Y-135066666D01*
X86252380Y-134447619D01*
X85252380Y-133828571D02*
X85252380Y-133733333D01*
X85300000Y-133638095D01*
X85347619Y-133590476D01*
X85442857Y-133542857D01*
X85633333Y-133495238D01*
X85871428Y-133495238D01*
X86061904Y-133542857D01*
X86157142Y-133590476D01*
X86204761Y-133638095D01*
X86252380Y-133733333D01*
X86252380Y-133828571D01*
X86204761Y-133923809D01*
X86157142Y-133971428D01*
X86061904Y-134019047D01*
X85871428Y-134066666D01*
X85633333Y-134066666D01*
X85442857Y-134019047D01*
X85347619Y-133971428D01*
X85300000Y-133923809D01*
X85252380Y-133828571D01*
X92752380Y-143780952D02*
X92752380Y-144257142D01*
X91752380Y-144257142D01*
X92752380Y-143447619D02*
X91752380Y-143447619D01*
X92466666Y-143114285D01*
X91752380Y-142780952D01*
X92752380Y-142780952D01*
X91752380Y-142400000D02*
X91752380Y-141733333D01*
X92752380Y-142161904D01*
X92180952Y-141209523D02*
X92133333Y-141304761D01*
X92085714Y-141352380D01*
X91990476Y-141400000D01*
X91942857Y-141400000D01*
X91847619Y-141352380D01*
X91800000Y-141304761D01*
X91752380Y-141209523D01*
X91752380Y-141019047D01*
X91800000Y-140923809D01*
X91847619Y-140876190D01*
X91942857Y-140828571D01*
X91990476Y-140828571D01*
X92085714Y-140876190D01*
X92133333Y-140923809D01*
X92180952Y-141019047D01*
X92180952Y-141209523D01*
X92228571Y-141304761D01*
X92276190Y-141352380D01*
X92371428Y-141400000D01*
X92561904Y-141400000D01*
X92657142Y-141352380D01*
X92704761Y-141304761D01*
X92752380Y-141209523D01*
X92752380Y-141019047D01*
X92704761Y-140923809D01*
X92657142Y-140876190D01*
X92561904Y-140828571D01*
X92371428Y-140828571D01*
X92276190Y-140876190D01*
X92228571Y-140923809D01*
X92180952Y-141019047D01*
X91752380Y-140209523D02*
X91752380Y-140114285D01*
X91800000Y-140019047D01*
X91847619Y-139971428D01*
X91942857Y-139923809D01*
X92133333Y-139876190D01*
X92371428Y-139876190D01*
X92561904Y-139923809D01*
X92657142Y-139971428D01*
X92704761Y-140019047D01*
X92752380Y-140114285D01*
X92752380Y-140209523D01*
X92704761Y-140304761D01*
X92657142Y-140352380D01*
X92561904Y-140400000D01*
X92371428Y-140447619D01*
X92133333Y-140447619D01*
X91942857Y-140400000D01*
X91847619Y-140352380D01*
X91800000Y-140304761D01*
X91752380Y-140209523D01*
X91752380Y-138971428D02*
X91752380Y-139447619D01*
X92228571Y-139495238D01*
X92180952Y-139447619D01*
X92133333Y-139352380D01*
X92133333Y-139114285D01*
X92180952Y-139019047D01*
X92228571Y-138971428D01*
X92323809Y-138923809D01*
X92561904Y-138923809D01*
X92657142Y-138971428D01*
X92704761Y-139019047D01*
X92752380Y-139114285D01*
X92752380Y-139352380D01*
X92704761Y-139447619D01*
X92657142Y-139495238D01*
X92847619Y-138733333D02*
X92847619Y-137971428D01*
X91752380Y-137876190D02*
X91752380Y-137304761D01*
X92752380Y-137590476D02*
X91752380Y-137590476D01*
X91752380Y-136780952D02*
X91752380Y-136590476D01*
X91800000Y-136495238D01*
X91895238Y-136400000D01*
X92085714Y-136352380D01*
X92419047Y-136352380D01*
X92609523Y-136400000D01*
X92704761Y-136495238D01*
X92752380Y-136590476D01*
X92752380Y-136780952D01*
X92704761Y-136876190D01*
X92609523Y-136971428D01*
X92419047Y-137019047D01*
X92085714Y-137019047D01*
X91895238Y-136971428D01*
X91800000Y-136876190D01*
X91752380Y-136780952D01*
X91847619Y-135971428D02*
X91800000Y-135923809D01*
X91752380Y-135828571D01*
X91752380Y-135590476D01*
X91800000Y-135495238D01*
X91847619Y-135447619D01*
X91942857Y-135400000D01*
X92038095Y-135400000D01*
X92180952Y-135447619D01*
X92752380Y-136019047D01*
X92752380Y-135400000D01*
X91847619Y-135019047D02*
X91800000Y-134971428D01*
X91752380Y-134876190D01*
X91752380Y-134638095D01*
X91800000Y-134542857D01*
X91847619Y-134495238D01*
X91942857Y-134447619D01*
X92038095Y-134447619D01*
X92180952Y-134495238D01*
X92752380Y-135066666D01*
X92752380Y-134447619D01*
X91752380Y-133828571D02*
X91752380Y-133733333D01*
X91800000Y-133638095D01*
X91847619Y-133590476D01*
X91942857Y-133542857D01*
X92133333Y-133495238D01*
X92371428Y-133495238D01*
X92561904Y-133542857D01*
X92657142Y-133590476D01*
X92704761Y-133638095D01*
X92752380Y-133733333D01*
X92752380Y-133828571D01*
X92704761Y-133923809D01*
X92657142Y-133971428D01*
X92561904Y-134019047D01*
X92371428Y-134066666D01*
X92133333Y-134066666D01*
X91942857Y-134019047D01*
X91847619Y-133971428D01*
X91800000Y-133923809D01*
X91752380Y-133828571D01*
X136990476Y-110922619D02*
X136895238Y-110875000D01*
X136800000Y-110779761D01*
X136657142Y-110636904D01*
X136561904Y-110589285D01*
X136466666Y-110589285D01*
X136514285Y-110827380D02*
X136419047Y-110779761D01*
X136323809Y-110684523D01*
X136276190Y-110494047D01*
X136276190Y-110160714D01*
X136323809Y-109970238D01*
X136419047Y-109875000D01*
X136514285Y-109827380D01*
X136704761Y-109827380D01*
X136800000Y-109875000D01*
X136895238Y-109970238D01*
X136942857Y-110160714D01*
X136942857Y-110494047D01*
X136895238Y-110684523D01*
X136800000Y-110779761D01*
X136704761Y-110827380D01*
X136514285Y-110827380D01*
X137561904Y-109827380D02*
X137657142Y-109827380D01*
X137752380Y-109875000D01*
X137800000Y-109922619D01*
X137847619Y-110017857D01*
X137895238Y-110208333D01*
X137895238Y-110446428D01*
X137847619Y-110636904D01*
X137800000Y-110732142D01*
X137752380Y-110779761D01*
X137657142Y-110827380D01*
X137561904Y-110827380D01*
X137466666Y-110779761D01*
X137419047Y-110732142D01*
X137371428Y-110636904D01*
X137323809Y-110446428D01*
X137323809Y-110208333D01*
X137371428Y-110017857D01*
X137419047Y-109922619D01*
X137466666Y-109875000D01*
X137561904Y-109827380D01*
X138323809Y-110732142D02*
X138371428Y-110779761D01*
X138323809Y-110827380D01*
X138276190Y-110779761D01*
X138323809Y-110732142D01*
X138323809Y-110827380D01*
X139228571Y-109827380D02*
X139038095Y-109827380D01*
X138942857Y-109875000D01*
X138895238Y-109922619D01*
X138800000Y-110065476D01*
X138752380Y-110255952D01*
X138752380Y-110636904D01*
X138800000Y-110732142D01*
X138847619Y-110779761D01*
X138942857Y-110827380D01*
X139133333Y-110827380D01*
X139228571Y-110779761D01*
X139276190Y-110732142D01*
X139323809Y-110636904D01*
X139323809Y-110398809D01*
X139276190Y-110303571D01*
X139228571Y-110255952D01*
X139133333Y-110208333D01*
X138942857Y-110208333D01*
X138847619Y-110255952D01*
X138800000Y-110303571D01*
X138752380Y-110398809D01*
X133365476Y-110897619D02*
X133270238Y-110850000D01*
X133175000Y-110754761D01*
X133032142Y-110611904D01*
X132936904Y-110564285D01*
X132841666Y-110564285D01*
X132889285Y-110802380D02*
X132794047Y-110754761D01*
X132698809Y-110659523D01*
X132651190Y-110469047D01*
X132651190Y-110135714D01*
X132698809Y-109945238D01*
X132794047Y-109850000D01*
X132889285Y-109802380D01*
X133079761Y-109802380D01*
X133175000Y-109850000D01*
X133270238Y-109945238D01*
X133317857Y-110135714D01*
X133317857Y-110469047D01*
X133270238Y-110659523D01*
X133175000Y-110754761D01*
X133079761Y-110802380D01*
X132889285Y-110802380D01*
X133936904Y-109802380D02*
X134032142Y-109802380D01*
X134127380Y-109850000D01*
X134175000Y-109897619D01*
X134222619Y-109992857D01*
X134270238Y-110183333D01*
X134270238Y-110421428D01*
X134222619Y-110611904D01*
X134175000Y-110707142D01*
X134127380Y-110754761D01*
X134032142Y-110802380D01*
X133936904Y-110802380D01*
X133841666Y-110754761D01*
X133794047Y-110707142D01*
X133746428Y-110611904D01*
X133698809Y-110421428D01*
X133698809Y-110183333D01*
X133746428Y-109992857D01*
X133794047Y-109897619D01*
X133841666Y-109850000D01*
X133936904Y-109802380D01*
X134698809Y-110707142D02*
X134746428Y-110754761D01*
X134698809Y-110802380D01*
X134651190Y-110754761D01*
X134698809Y-110707142D01*
X134698809Y-110802380D01*
X135651190Y-109802380D02*
X135175000Y-109802380D01*
X135127380Y-110278571D01*
X135175000Y-110230952D01*
X135270238Y-110183333D01*
X135508333Y-110183333D01*
X135603571Y-110230952D01*
X135651190Y-110278571D01*
X135698809Y-110373809D01*
X135698809Y-110611904D01*
X135651190Y-110707142D01*
X135603571Y-110754761D01*
X135508333Y-110802380D01*
X135270238Y-110802380D01*
X135175000Y-110754761D01*
X135127380Y-110707142D01*
X129765476Y-110922619D02*
X129670238Y-110875000D01*
X129575000Y-110779761D01*
X129432142Y-110636904D01*
X129336904Y-110589285D01*
X129241666Y-110589285D01*
X129289285Y-110827380D02*
X129194047Y-110779761D01*
X129098809Y-110684523D01*
X129051190Y-110494047D01*
X129051190Y-110160714D01*
X129098809Y-109970238D01*
X129194047Y-109875000D01*
X129289285Y-109827380D01*
X129479761Y-109827380D01*
X129575000Y-109875000D01*
X129670238Y-109970238D01*
X129717857Y-110160714D01*
X129717857Y-110494047D01*
X129670238Y-110684523D01*
X129575000Y-110779761D01*
X129479761Y-110827380D01*
X129289285Y-110827380D01*
X130336904Y-109827380D02*
X130432142Y-109827380D01*
X130527380Y-109875000D01*
X130575000Y-109922619D01*
X130622619Y-110017857D01*
X130670238Y-110208333D01*
X130670238Y-110446428D01*
X130622619Y-110636904D01*
X130575000Y-110732142D01*
X130527380Y-110779761D01*
X130432142Y-110827380D01*
X130336904Y-110827380D01*
X130241666Y-110779761D01*
X130194047Y-110732142D01*
X130146428Y-110636904D01*
X130098809Y-110446428D01*
X130098809Y-110208333D01*
X130146428Y-110017857D01*
X130194047Y-109922619D01*
X130241666Y-109875000D01*
X130336904Y-109827380D01*
X131098809Y-110732142D02*
X131146428Y-110779761D01*
X131098809Y-110827380D01*
X131051190Y-110779761D01*
X131098809Y-110732142D01*
X131098809Y-110827380D01*
X132003571Y-110160714D02*
X132003571Y-110827380D01*
X131765476Y-109779761D02*
X131527380Y-110494047D01*
X132146428Y-110494047D01*
X126165476Y-110947619D02*
X126070238Y-110900000D01*
X125975000Y-110804761D01*
X125832142Y-110661904D01*
X125736904Y-110614285D01*
X125641666Y-110614285D01*
X125689285Y-110852380D02*
X125594047Y-110804761D01*
X125498809Y-110709523D01*
X125451190Y-110519047D01*
X125451190Y-110185714D01*
X125498809Y-109995238D01*
X125594047Y-109900000D01*
X125689285Y-109852380D01*
X125879761Y-109852380D01*
X125975000Y-109900000D01*
X126070238Y-109995238D01*
X126117857Y-110185714D01*
X126117857Y-110519047D01*
X126070238Y-110709523D01*
X125975000Y-110804761D01*
X125879761Y-110852380D01*
X125689285Y-110852380D01*
X126736904Y-109852380D02*
X126832142Y-109852380D01*
X126927380Y-109900000D01*
X126975000Y-109947619D01*
X127022619Y-110042857D01*
X127070238Y-110233333D01*
X127070238Y-110471428D01*
X127022619Y-110661904D01*
X126975000Y-110757142D01*
X126927380Y-110804761D01*
X126832142Y-110852380D01*
X126736904Y-110852380D01*
X126641666Y-110804761D01*
X126594047Y-110757142D01*
X126546428Y-110661904D01*
X126498809Y-110471428D01*
X126498809Y-110233333D01*
X126546428Y-110042857D01*
X126594047Y-109947619D01*
X126641666Y-109900000D01*
X126736904Y-109852380D01*
X127498809Y-110757142D02*
X127546428Y-110804761D01*
X127498809Y-110852380D01*
X127451190Y-110804761D01*
X127498809Y-110757142D01*
X127498809Y-110852380D01*
X127879761Y-109852380D02*
X128498809Y-109852380D01*
X128165476Y-110233333D01*
X128308333Y-110233333D01*
X128403571Y-110280952D01*
X128451190Y-110328571D01*
X128498809Y-110423809D01*
X128498809Y-110661904D01*
X128451190Y-110757142D01*
X128403571Y-110804761D01*
X128308333Y-110852380D01*
X128022619Y-110852380D01*
X127927380Y-110804761D01*
X127879761Y-110757142D01*
X140590476Y-110972619D02*
X140495238Y-110925000D01*
X140400000Y-110829761D01*
X140257142Y-110686904D01*
X140161904Y-110639285D01*
X140066666Y-110639285D01*
X140114285Y-110877380D02*
X140019047Y-110829761D01*
X139923809Y-110734523D01*
X139876190Y-110544047D01*
X139876190Y-110210714D01*
X139923809Y-110020238D01*
X140019047Y-109925000D01*
X140114285Y-109877380D01*
X140304761Y-109877380D01*
X140400000Y-109925000D01*
X140495238Y-110020238D01*
X140542857Y-110210714D01*
X140542857Y-110544047D01*
X140495238Y-110734523D01*
X140400000Y-110829761D01*
X140304761Y-110877380D01*
X140114285Y-110877380D01*
X141161904Y-109877380D02*
X141257142Y-109877380D01*
X141352380Y-109925000D01*
X141400000Y-109972619D01*
X141447619Y-110067857D01*
X141495238Y-110258333D01*
X141495238Y-110496428D01*
X141447619Y-110686904D01*
X141400000Y-110782142D01*
X141352380Y-110829761D01*
X141257142Y-110877380D01*
X141161904Y-110877380D01*
X141066666Y-110829761D01*
X141019047Y-110782142D01*
X140971428Y-110686904D01*
X140923809Y-110496428D01*
X140923809Y-110258333D01*
X140971428Y-110067857D01*
X141019047Y-109972619D01*
X141066666Y-109925000D01*
X141161904Y-109877380D01*
X141923809Y-110782142D02*
X141971428Y-110829761D01*
X141923809Y-110877380D01*
X141876190Y-110829761D01*
X141923809Y-110782142D01*
X141923809Y-110877380D01*
X142304761Y-109877380D02*
X142971428Y-109877380D01*
X142542857Y-110877380D01*
X122540476Y-110997619D02*
X122445238Y-110950000D01*
X122350000Y-110854761D01*
X122207142Y-110711904D01*
X122111904Y-110664285D01*
X122016666Y-110664285D01*
X122064285Y-110902380D02*
X121969047Y-110854761D01*
X121873809Y-110759523D01*
X121826190Y-110569047D01*
X121826190Y-110235714D01*
X121873809Y-110045238D01*
X121969047Y-109950000D01*
X122064285Y-109902380D01*
X122254761Y-109902380D01*
X122350000Y-109950000D01*
X122445238Y-110045238D01*
X122492857Y-110235714D01*
X122492857Y-110569047D01*
X122445238Y-110759523D01*
X122350000Y-110854761D01*
X122254761Y-110902380D01*
X122064285Y-110902380D01*
X123111904Y-109902380D02*
X123207142Y-109902380D01*
X123302380Y-109950000D01*
X123350000Y-109997619D01*
X123397619Y-110092857D01*
X123445238Y-110283333D01*
X123445238Y-110521428D01*
X123397619Y-110711904D01*
X123350000Y-110807142D01*
X123302380Y-110854761D01*
X123207142Y-110902380D01*
X123111904Y-110902380D01*
X123016666Y-110854761D01*
X122969047Y-110807142D01*
X122921428Y-110711904D01*
X122873809Y-110521428D01*
X122873809Y-110283333D01*
X122921428Y-110092857D01*
X122969047Y-109997619D01*
X123016666Y-109950000D01*
X123111904Y-109902380D01*
X123873809Y-110807142D02*
X123921428Y-110854761D01*
X123873809Y-110902380D01*
X123826190Y-110854761D01*
X123873809Y-110807142D01*
X123873809Y-110902380D01*
X124302380Y-109997619D02*
X124350000Y-109950000D01*
X124445238Y-109902380D01*
X124683333Y-109902380D01*
X124778571Y-109950000D01*
X124826190Y-109997619D01*
X124873809Y-110092857D01*
X124873809Y-110188095D01*
X124826190Y-110330952D01*
X124254761Y-110902380D01*
X124873809Y-110902380D01*
X118945476Y-110997619D02*
X118850238Y-110950000D01*
X118755000Y-110854761D01*
X118612142Y-110711904D01*
X118516904Y-110664285D01*
X118421666Y-110664285D01*
X118469285Y-110902380D02*
X118374047Y-110854761D01*
X118278809Y-110759523D01*
X118231190Y-110569047D01*
X118231190Y-110235714D01*
X118278809Y-110045238D01*
X118374047Y-109950000D01*
X118469285Y-109902380D01*
X118659761Y-109902380D01*
X118755000Y-109950000D01*
X118850238Y-110045238D01*
X118897857Y-110235714D01*
X118897857Y-110569047D01*
X118850238Y-110759523D01*
X118755000Y-110854761D01*
X118659761Y-110902380D01*
X118469285Y-110902380D01*
X119516904Y-109902380D02*
X119612142Y-109902380D01*
X119707380Y-109950000D01*
X119755000Y-109997619D01*
X119802619Y-110092857D01*
X119850238Y-110283333D01*
X119850238Y-110521428D01*
X119802619Y-110711904D01*
X119755000Y-110807142D01*
X119707380Y-110854761D01*
X119612142Y-110902380D01*
X119516904Y-110902380D01*
X119421666Y-110854761D01*
X119374047Y-110807142D01*
X119326428Y-110711904D01*
X119278809Y-110521428D01*
X119278809Y-110283333D01*
X119326428Y-110092857D01*
X119374047Y-109997619D01*
X119421666Y-109950000D01*
X119516904Y-109902380D01*
X120278809Y-110807142D02*
X120326428Y-110854761D01*
X120278809Y-110902380D01*
X120231190Y-110854761D01*
X120278809Y-110807142D01*
X120278809Y-110902380D01*
X121278809Y-110902380D02*
X120707380Y-110902380D01*
X120993095Y-110902380D02*
X120993095Y-109902380D01*
X120897857Y-110045238D01*
X120802619Y-110140476D01*
X120707380Y-110188095D01*
X115390476Y-110997619D02*
X115295238Y-110950000D01*
X115200000Y-110854761D01*
X115057142Y-110711904D01*
X114961904Y-110664285D01*
X114866666Y-110664285D01*
X114914285Y-110902380D02*
X114819047Y-110854761D01*
X114723809Y-110759523D01*
X114676190Y-110569047D01*
X114676190Y-110235714D01*
X114723809Y-110045238D01*
X114819047Y-109950000D01*
X114914285Y-109902380D01*
X115104761Y-109902380D01*
X115200000Y-109950000D01*
X115295238Y-110045238D01*
X115342857Y-110235714D01*
X115342857Y-110569047D01*
X115295238Y-110759523D01*
X115200000Y-110854761D01*
X115104761Y-110902380D01*
X114914285Y-110902380D01*
X115961904Y-109902380D02*
X116057142Y-109902380D01*
X116152380Y-109950000D01*
X116200000Y-109997619D01*
X116247619Y-110092857D01*
X116295238Y-110283333D01*
X116295238Y-110521428D01*
X116247619Y-110711904D01*
X116200000Y-110807142D01*
X116152380Y-110854761D01*
X116057142Y-110902380D01*
X115961904Y-110902380D01*
X115866666Y-110854761D01*
X115819047Y-110807142D01*
X115771428Y-110711904D01*
X115723809Y-110521428D01*
X115723809Y-110283333D01*
X115771428Y-110092857D01*
X115819047Y-109997619D01*
X115866666Y-109950000D01*
X115961904Y-109902380D01*
X116723809Y-110807142D02*
X116771428Y-110854761D01*
X116723809Y-110902380D01*
X116676190Y-110854761D01*
X116723809Y-110807142D01*
X116723809Y-110902380D01*
X117390476Y-109902380D02*
X117485714Y-109902380D01*
X117580952Y-109950000D01*
X117628571Y-109997619D01*
X117676190Y-110092857D01*
X117723809Y-110283333D01*
X117723809Y-110521428D01*
X117676190Y-110711904D01*
X117628571Y-110807142D01*
X117580952Y-110854761D01*
X117485714Y-110902380D01*
X117390476Y-110902380D01*
X117295238Y-110854761D01*
X117247619Y-110807142D01*
X117200000Y-110711904D01*
X117152380Y-110521428D01*
X117152380Y-110283333D01*
X117200000Y-110092857D01*
X117247619Y-109997619D01*
X117295238Y-109950000D01*
X117390476Y-109902380D01*
X170731428Y-114690952D02*
X170731428Y-113929047D01*
X171112380Y-114310000D02*
X170350476Y-114310000D01*
M02*
