G04 #@! TF.GenerationSoftware,KiCad,Pcbnew,(5.1.4)-1*
G04 #@! TF.CreationDate,2022-02-09T09:53:18-03:00*
G04 #@! TF.ProjectId,PLC_ESP32,504c435f-4553-4503-9332-2e6b69636164,rev?*
G04 #@! TF.SameCoordinates,Original*
G04 #@! TF.FileFunction,Profile,NP*
%FSLAX46Y46*%
G04 Gerber Fmt 4.6, Leading zero omitted, Abs format (unit mm)*
G04 Created by KiCad (PCBNEW (5.1.4)-1) date 2022-02-09 09:53:18*
%MOMM*%
%LPD*%
G04 APERTURE LIST*
%ADD10C,0.050000*%
%ADD11C,0.100000*%
G04 APERTURE END LIST*
D10*
X180000000Y-162500000D02*
G75*
G02X177500000Y-165000000I-2500000J0D01*
G01*
X177500000Y-65000000D02*
G75*
G02X180000000Y-67500000I0J-2500000D01*
G01*
X80000000Y-67500000D02*
G75*
G02X82500000Y-65000000I2500000J0D01*
G01*
X82500000Y-165000000D02*
G75*
G02X80000000Y-162500000I0J2500000D01*
G01*
X90650000Y-92600000D02*
X90650000Y-97350000D01*
X92150000Y-92600000D02*
X90650000Y-92600000D01*
X86900000Y-97850000D02*
X86400000Y-97350000D01*
X92150000Y-97850000D02*
X92150000Y-92600000D01*
X84900000Y-97850000D02*
X86150000Y-99100000D01*
X90650000Y-97350000D02*
X90150000Y-97850000D01*
X90900000Y-99100000D02*
X92150000Y-97850000D01*
X86400000Y-92600000D02*
X84900000Y-92600000D01*
X86400000Y-97350000D02*
X86400000Y-92600000D01*
X90150000Y-97850000D02*
X86900000Y-97850000D01*
X86150000Y-99100000D02*
X90900000Y-99100000D01*
X84900000Y-92600000D02*
X84900000Y-97850000D01*
X107150000Y-92300000D02*
X107150000Y-97050000D01*
X108650000Y-92300000D02*
X107150000Y-92300000D01*
X103400000Y-97550000D02*
X102900000Y-97050000D01*
X108650000Y-97550000D02*
X108650000Y-92300000D01*
X101400000Y-97550000D02*
X102650000Y-98800000D01*
X107150000Y-97050000D02*
X106650000Y-97550000D01*
X107400000Y-98800000D02*
X108650000Y-97550000D01*
X102900000Y-92300000D02*
X101400000Y-92300000D01*
X102900000Y-97050000D02*
X102900000Y-92300000D01*
X106650000Y-97550000D02*
X103400000Y-97550000D01*
X102650000Y-98800000D02*
X107400000Y-98800000D01*
X101400000Y-92300000D02*
X101400000Y-97550000D01*
X117900000Y-92300000D02*
X117900000Y-97550000D01*
X119150000Y-98800000D02*
X123900000Y-98800000D01*
X123150000Y-97550000D02*
X119900000Y-97550000D01*
X119400000Y-97050000D02*
X119400000Y-92300000D01*
X119400000Y-92300000D02*
X117900000Y-92300000D01*
X123900000Y-98800000D02*
X125150000Y-97550000D01*
X123650000Y-97050000D02*
X123150000Y-97550000D01*
X117900000Y-97550000D02*
X119150000Y-98800000D01*
X125150000Y-97550000D02*
X125150000Y-92300000D01*
X119900000Y-97550000D02*
X119400000Y-97050000D01*
X125150000Y-92300000D02*
X123650000Y-92300000D01*
X123650000Y-92300000D02*
X123650000Y-97050000D01*
X137750000Y-98750000D02*
G75*
G02X137750000Y-97250000I0J750000D01*
G01*
X178000000Y-98750000D02*
X137750000Y-98750000D01*
X137750000Y-97250000D02*
X178000000Y-97250000D01*
X178000000Y-97250000D02*
G75*
G02X178000000Y-98750000I0J-750000D01*
G01*
X115000000Y-108500000D02*
G75*
G02X115000000Y-110000000I0J-750000D01*
G01*
X100000000Y-110000000D02*
G75*
G02X100000000Y-108500000I0J750000D01*
G01*
X115000000Y-110000000D02*
X100000000Y-110000000D01*
X100000000Y-108500000D02*
X115000000Y-108500000D01*
D11*
X80000000Y-162500000D02*
X80000000Y-67500000D01*
X177500000Y-165000000D02*
X82500000Y-165000000D01*
X180000000Y-67500000D02*
X180000000Y-162500000D01*
X82500000Y-65000000D02*
X177500000Y-65000000D01*
M02*
