G04 #@! TF.GenerationSoftware,KiCad,Pcbnew,(5.1.4)-1*
G04 #@! TF.CreationDate,2021-08-26T23:09:31-03:00*
G04 #@! TF.ProjectId,PLC_ESP32,504c435f-4553-4503-9332-2e6b69636164,rev?*
G04 #@! TF.SameCoordinates,Original*
G04 #@! TF.FileFunction,Legend,Bot*
G04 #@! TF.FilePolarity,Positive*
%FSLAX46Y46*%
G04 Gerber Fmt 4.6, Leading zero omitted, Abs format (unit mm)*
G04 Created by KiCad (PCBNEW (5.1.4)-1) date 2021-08-26 23:09:31*
%MOMM*%
%LPD*%
G04 APERTURE LIST*
%ADD10C,0.300000*%
%ADD11C,0.175000*%
%ADD12C,0.120000*%
%ADD13C,0.010000*%
%ADD14C,0.150000*%
G04 APERTURE END LIST*
D10*
X133892857Y-109378571D02*
X133892857Y-107878571D01*
X133321428Y-107878571D01*
X133178571Y-107950000D01*
X133107142Y-108021428D01*
X133035714Y-108164285D01*
X133035714Y-108378571D01*
X133107142Y-108521428D01*
X133178571Y-108592857D01*
X133321428Y-108664285D01*
X133892857Y-108664285D01*
X131678571Y-109378571D02*
X132392857Y-109378571D01*
X132392857Y-107878571D01*
X130321428Y-109235714D02*
X130392857Y-109307142D01*
X130607142Y-109378571D01*
X130750000Y-109378571D01*
X130964285Y-109307142D01*
X131107142Y-109164285D01*
X131178571Y-109021428D01*
X131250000Y-108735714D01*
X131250000Y-108521428D01*
X131178571Y-108235714D01*
X131107142Y-108092857D01*
X130964285Y-107950000D01*
X130750000Y-107878571D01*
X130607142Y-107878571D01*
X130392857Y-107950000D01*
X130321428Y-108021428D01*
X128535714Y-108592857D02*
X128035714Y-108592857D01*
X127821428Y-109378571D02*
X128535714Y-109378571D01*
X128535714Y-107878571D01*
X127821428Y-107878571D01*
X127250000Y-109307142D02*
X127035714Y-109378571D01*
X126678571Y-109378571D01*
X126535714Y-109307142D01*
X126464285Y-109235714D01*
X126392857Y-109092857D01*
X126392857Y-108950000D01*
X126464285Y-108807142D01*
X126535714Y-108735714D01*
X126678571Y-108664285D01*
X126964285Y-108592857D01*
X127107142Y-108521428D01*
X127178571Y-108450000D01*
X127250000Y-108307142D01*
X127250000Y-108164285D01*
X127178571Y-108021428D01*
X127107142Y-107950000D01*
X126964285Y-107878571D01*
X126607142Y-107878571D01*
X126392857Y-107950000D01*
X125750000Y-109378571D02*
X125750000Y-107878571D01*
X125178571Y-107878571D01*
X125035714Y-107950000D01*
X124964285Y-108021428D01*
X124892857Y-108164285D01*
X124892857Y-108378571D01*
X124964285Y-108521428D01*
X125035714Y-108592857D01*
X125178571Y-108664285D01*
X125750000Y-108664285D01*
X124392857Y-107878571D02*
X123464285Y-107878571D01*
X123964285Y-108450000D01*
X123750000Y-108450000D01*
X123607142Y-108521428D01*
X123535714Y-108592857D01*
X123464285Y-108735714D01*
X123464285Y-109092857D01*
X123535714Y-109235714D01*
X123607142Y-109307142D01*
X123750000Y-109378571D01*
X124178571Y-109378571D01*
X124321428Y-109307142D01*
X124392857Y-109235714D01*
X122892857Y-108021428D02*
X122821428Y-107950000D01*
X122678571Y-107878571D01*
X122321428Y-107878571D01*
X122178571Y-107950000D01*
X122107142Y-108021428D01*
X122035714Y-108164285D01*
X122035714Y-108307142D01*
X122107142Y-108521428D01*
X122964285Y-109378571D01*
X122035714Y-109378571D01*
X130285714Y-110428571D02*
X129785714Y-111928571D01*
X129285714Y-110428571D01*
X128000000Y-111928571D02*
X128857142Y-111928571D01*
X128428571Y-111928571D02*
X128428571Y-110428571D01*
X128571428Y-110642857D01*
X128714285Y-110785714D01*
X128857142Y-110857142D01*
X127357142Y-111785714D02*
X127285714Y-111857142D01*
X127357142Y-111928571D01*
X127428571Y-111857142D01*
X127357142Y-111785714D01*
X127357142Y-111928571D01*
X126357142Y-110428571D02*
X126214285Y-110428571D01*
X126071428Y-110500000D01*
X126000000Y-110571428D01*
X125928571Y-110714285D01*
X125857142Y-111000000D01*
X125857142Y-111357142D01*
X125928571Y-111642857D01*
X126000000Y-111785714D01*
X126071428Y-111857142D01*
X126214285Y-111928571D01*
X126357142Y-111928571D01*
X126500000Y-111857142D01*
X126571428Y-111785714D01*
X126642857Y-111642857D01*
X126714285Y-111357142D01*
X126714285Y-111000000D01*
X126642857Y-110714285D01*
X126571428Y-110571428D01*
X126500000Y-110500000D01*
X126357142Y-110428571D01*
X136214285Y-114050000D02*
X135500000Y-114050000D01*
X136357142Y-114478571D02*
X135857142Y-112978571D01*
X135357142Y-114478571D01*
X134214285Y-113478571D02*
X134214285Y-114692857D01*
X134285714Y-114835714D01*
X134357142Y-114907142D01*
X134500000Y-114978571D01*
X134714285Y-114978571D01*
X134857142Y-114907142D01*
X134214285Y-114407142D02*
X134357142Y-114478571D01*
X134642857Y-114478571D01*
X134785714Y-114407142D01*
X134857142Y-114335714D01*
X134928571Y-114192857D01*
X134928571Y-113764285D01*
X134857142Y-113621428D01*
X134785714Y-113550000D01*
X134642857Y-113478571D01*
X134357142Y-113478571D01*
X134214285Y-113550000D01*
X132857142Y-113478571D02*
X132857142Y-114478571D01*
X133500000Y-113478571D02*
X133500000Y-114264285D01*
X133428571Y-114407142D01*
X133285714Y-114478571D01*
X133071428Y-114478571D01*
X132928571Y-114407142D01*
X132857142Y-114335714D01*
X132214285Y-114407142D02*
X132071428Y-114478571D01*
X131785714Y-114478571D01*
X131642857Y-114407142D01*
X131571428Y-114264285D01*
X131571428Y-114192857D01*
X131642857Y-114050000D01*
X131785714Y-113978571D01*
X132000000Y-113978571D01*
X132142857Y-113907142D01*
X132214285Y-113764285D01*
X132214285Y-113692857D01*
X132142857Y-113550000D01*
X132000000Y-113478571D01*
X131785714Y-113478571D01*
X131642857Y-113550000D01*
X131142857Y-113478571D02*
X130571428Y-113478571D01*
X130928571Y-112978571D02*
X130928571Y-114264285D01*
X130857142Y-114407142D01*
X130714285Y-114478571D01*
X130571428Y-114478571D01*
X130071428Y-114478571D02*
X130071428Y-113478571D01*
X130071428Y-112978571D02*
X130142857Y-113050000D01*
X130071428Y-113121428D01*
X130000000Y-113050000D01*
X130071428Y-112978571D01*
X130071428Y-113121428D01*
X129357142Y-113478571D02*
X129357142Y-114478571D01*
X129357142Y-113621428D02*
X129285714Y-113550000D01*
X129142857Y-113478571D01*
X128928571Y-113478571D01*
X128785714Y-113550000D01*
X128714285Y-113692857D01*
X128714285Y-114478571D01*
X127000000Y-112978571D02*
X126000000Y-112978571D01*
X127000000Y-114478571D01*
X126000000Y-114478571D01*
X124785714Y-113478571D02*
X124785714Y-114478571D01*
X125428571Y-113478571D02*
X125428571Y-114264285D01*
X125357142Y-114407142D01*
X125214285Y-114478571D01*
X125000000Y-114478571D01*
X124857142Y-114407142D01*
X124785714Y-114335714D01*
X123857142Y-114478571D02*
X124000000Y-114407142D01*
X124071428Y-114264285D01*
X124071428Y-112978571D01*
X123285714Y-114478571D02*
X123285714Y-113478571D01*
X123285714Y-112978571D02*
X123357142Y-113050000D01*
X123285714Y-113121428D01*
X123214285Y-113050000D01*
X123285714Y-112978571D01*
X123285714Y-113121428D01*
X121928571Y-114478571D02*
X121928571Y-113692857D01*
X122000000Y-113550000D01*
X122142857Y-113478571D01*
X122428571Y-113478571D01*
X122571428Y-113550000D01*
X121928571Y-114407142D02*
X122071428Y-114478571D01*
X122428571Y-114478571D01*
X122571428Y-114407142D01*
X122642857Y-114264285D01*
X122642857Y-114121428D01*
X122571428Y-113978571D01*
X122428571Y-113907142D01*
X122071428Y-113907142D01*
X121928571Y-113835714D01*
X121214285Y-113478571D02*
X121214285Y-114478571D01*
X121214285Y-113621428D02*
X121142857Y-113550000D01*
X121000000Y-113478571D01*
X120785714Y-113478571D01*
X120642857Y-113550000D01*
X120571428Y-113692857D01*
X120571428Y-114478571D01*
X119857142Y-114478571D02*
X119857142Y-113478571D01*
X119857142Y-112978571D02*
X119928571Y-113050000D01*
X119857142Y-113121428D01*
X119785714Y-113050000D01*
X119857142Y-112978571D01*
X119857142Y-113121428D01*
X163557142Y-114475000D02*
X163414285Y-114546428D01*
X163200000Y-114546428D01*
X162985714Y-114475000D01*
X162842857Y-114332142D01*
X162771428Y-114189285D01*
X162700000Y-113903571D01*
X162700000Y-113689285D01*
X162771428Y-113403571D01*
X162842857Y-113260714D01*
X162985714Y-113117857D01*
X163200000Y-113046428D01*
X163342857Y-113046428D01*
X163557142Y-113117857D01*
X163628571Y-113189285D01*
X163628571Y-113689285D01*
X163342857Y-113689285D01*
X164271428Y-113046428D02*
X164271428Y-114546428D01*
X165128571Y-113046428D01*
X165128571Y-114546428D01*
X165842857Y-113046428D02*
X165842857Y-114546428D01*
X166200000Y-114546428D01*
X166414285Y-114475000D01*
X166557142Y-114332142D01*
X166628571Y-114189285D01*
X166700000Y-113903571D01*
X166700000Y-113689285D01*
X166628571Y-113403571D01*
X166557142Y-113260714D01*
X166414285Y-113117857D01*
X166200000Y-113046428D01*
X165842857Y-113046428D01*
X162485714Y-111996428D02*
X163414285Y-111996428D01*
X162914285Y-111425000D01*
X163128571Y-111425000D01*
X163271428Y-111353571D01*
X163342857Y-111282142D01*
X163414285Y-111139285D01*
X163414285Y-110782142D01*
X163342857Y-110639285D01*
X163271428Y-110567857D01*
X163128571Y-110496428D01*
X162700000Y-110496428D01*
X162557142Y-110567857D01*
X162485714Y-110639285D01*
X164057142Y-110639285D02*
X164128571Y-110567857D01*
X164057142Y-110496428D01*
X163985714Y-110567857D01*
X164057142Y-110639285D01*
X164057142Y-110496428D01*
X164628571Y-111996428D02*
X165557142Y-111996428D01*
X165057142Y-111425000D01*
X165271428Y-111425000D01*
X165414285Y-111353571D01*
X165485714Y-111282142D01*
X165557142Y-111139285D01*
X165557142Y-110782142D01*
X165485714Y-110639285D01*
X165414285Y-110567857D01*
X165271428Y-110496428D01*
X164842857Y-110496428D01*
X164700000Y-110567857D01*
X164628571Y-110639285D01*
X165985714Y-111996428D02*
X166485714Y-110496428D01*
X166985714Y-111996428D01*
X162878571Y-108017857D02*
X163092857Y-107946428D01*
X163450000Y-107946428D01*
X163592857Y-108017857D01*
X163664285Y-108089285D01*
X163735714Y-108232142D01*
X163735714Y-108375000D01*
X163664285Y-108517857D01*
X163592857Y-108589285D01*
X163450000Y-108660714D01*
X163164285Y-108732142D01*
X163021428Y-108803571D01*
X162950000Y-108875000D01*
X162878571Y-109017857D01*
X162878571Y-109160714D01*
X162950000Y-109303571D01*
X163021428Y-109375000D01*
X163164285Y-109446428D01*
X163521428Y-109446428D01*
X163735714Y-109375000D01*
X164378571Y-107946428D02*
X164378571Y-109446428D01*
X164735714Y-109446428D01*
X164950000Y-109375000D01*
X165092857Y-109232142D01*
X165164285Y-109089285D01*
X165235714Y-108803571D01*
X165235714Y-108589285D01*
X165164285Y-108303571D01*
X165092857Y-108160714D01*
X164950000Y-108017857D01*
X164735714Y-107946428D01*
X164378571Y-107946428D01*
X165807142Y-108375000D02*
X166521428Y-108375000D01*
X165664285Y-107946428D02*
X166164285Y-109446428D01*
X166664285Y-107946428D01*
X162914285Y-105467857D02*
X163128571Y-105396428D01*
X163485714Y-105396428D01*
X163628571Y-105467857D01*
X163700000Y-105539285D01*
X163771428Y-105682142D01*
X163771428Y-105825000D01*
X163700000Y-105967857D01*
X163628571Y-106039285D01*
X163485714Y-106110714D01*
X163200000Y-106182142D01*
X163057142Y-106253571D01*
X162985714Y-106325000D01*
X162914285Y-106467857D01*
X162914285Y-106610714D01*
X162985714Y-106753571D01*
X163057142Y-106825000D01*
X163200000Y-106896428D01*
X163557142Y-106896428D01*
X163771428Y-106825000D01*
X165271428Y-105539285D02*
X165200000Y-105467857D01*
X164985714Y-105396428D01*
X164842857Y-105396428D01*
X164628571Y-105467857D01*
X164485714Y-105610714D01*
X164414285Y-105753571D01*
X164342857Y-106039285D01*
X164342857Y-106253571D01*
X164414285Y-106539285D01*
X164485714Y-106682142D01*
X164628571Y-106825000D01*
X164842857Y-106896428D01*
X164985714Y-106896428D01*
X165200000Y-106825000D01*
X165271428Y-106753571D01*
X166628571Y-105396428D02*
X165914285Y-105396428D01*
X165914285Y-106896428D01*
D11*
X94000000Y-119158928D02*
X94433333Y-119158928D01*
X94200000Y-118587500D01*
X94300000Y-118587500D01*
X94366666Y-118516071D01*
X94400000Y-118444642D01*
X94433333Y-118301785D01*
X94433333Y-117944642D01*
X94400000Y-117801785D01*
X94366666Y-117730357D01*
X94300000Y-117658928D01*
X94100000Y-117658928D01*
X94033333Y-117730357D01*
X94000000Y-117801785D01*
X94733333Y-117801785D02*
X94766666Y-117730357D01*
X94733333Y-117658928D01*
X94700000Y-117730357D01*
X94733333Y-117801785D01*
X94733333Y-117658928D01*
X95000000Y-119158928D02*
X95433333Y-119158928D01*
X95200000Y-118587500D01*
X95300000Y-118587500D01*
X95366666Y-118516071D01*
X95400000Y-118444642D01*
X95433333Y-118301785D01*
X95433333Y-117944642D01*
X95400000Y-117801785D01*
X95366666Y-117730357D01*
X95300000Y-117658928D01*
X95100000Y-117658928D01*
X95033333Y-117730357D01*
X95000000Y-117801785D01*
X95633333Y-119158928D02*
X95866666Y-117658928D01*
X96100000Y-119158928D01*
X94500000Y-116662500D02*
X94433333Y-116733928D01*
X94333333Y-116733928D01*
X94233333Y-116662500D01*
X94166666Y-116519642D01*
X94133333Y-116376785D01*
X94100000Y-116091071D01*
X94100000Y-115876785D01*
X94133333Y-115591071D01*
X94166666Y-115448214D01*
X94233333Y-115305357D01*
X94333333Y-115233928D01*
X94400000Y-115233928D01*
X94500000Y-115305357D01*
X94533333Y-115376785D01*
X94533333Y-115876785D01*
X94400000Y-115876785D01*
X94833333Y-115233928D02*
X94833333Y-116733928D01*
X95233333Y-115233928D01*
X95233333Y-116733928D01*
X95566666Y-115233928D02*
X95566666Y-116733928D01*
X95733333Y-116733928D01*
X95833333Y-116662500D01*
X95900000Y-116519642D01*
X95933333Y-116376785D01*
X95966666Y-116091071D01*
X95966666Y-115876785D01*
X95933333Y-115591071D01*
X95900000Y-115448214D01*
X95833333Y-115305357D01*
X95733333Y-115233928D01*
X95566666Y-115233928D01*
X93816666Y-114308928D02*
X94216666Y-114308928D01*
X94016666Y-112808928D02*
X94016666Y-114308928D01*
X94383333Y-114308928D02*
X94850000Y-112808928D01*
X94850000Y-114308928D02*
X94383333Y-112808928D01*
X95116666Y-112808928D02*
X95116666Y-114308928D01*
X95283333Y-114308928D01*
X95383333Y-114237500D01*
X95450000Y-114094642D01*
X95483333Y-113951785D01*
X95516666Y-113666071D01*
X95516666Y-113451785D01*
X95483333Y-113166071D01*
X95450000Y-113023214D01*
X95383333Y-112880357D01*
X95283333Y-112808928D01*
X95116666Y-112808928D01*
X95950000Y-114308928D02*
X96016666Y-114308928D01*
X96083333Y-114237500D01*
X96116666Y-114166071D01*
X96150000Y-114023214D01*
X96183333Y-113737500D01*
X96183333Y-113380357D01*
X96150000Y-113094642D01*
X96116666Y-112951785D01*
X96083333Y-112880357D01*
X96016666Y-112808928D01*
X95950000Y-112808928D01*
X95883333Y-112880357D01*
X95850000Y-112951785D01*
X95816666Y-113094642D01*
X95783333Y-113380357D01*
X95783333Y-113737500D01*
X95816666Y-114023214D01*
X95850000Y-114166071D01*
X95883333Y-114237500D01*
X95950000Y-114308928D01*
X94500000Y-110383928D02*
X94266666Y-111098214D01*
X94100000Y-110383928D02*
X94100000Y-111883928D01*
X94366666Y-111883928D01*
X94433333Y-111812500D01*
X94466666Y-111741071D01*
X94500000Y-111598214D01*
X94500000Y-111383928D01*
X94466666Y-111241071D01*
X94433333Y-111169642D01*
X94366666Y-111098214D01*
X94100000Y-111098214D01*
X94733333Y-111883928D02*
X95200000Y-110383928D01*
X95200000Y-111883928D02*
X94733333Y-110383928D01*
X95466666Y-110383928D02*
X95466666Y-111883928D01*
X95633333Y-111883928D01*
X95733333Y-111812500D01*
X95800000Y-111669642D01*
X95833333Y-111526785D01*
X95866666Y-111241071D01*
X95866666Y-111026785D01*
X95833333Y-110741071D01*
X95800000Y-110598214D01*
X95733333Y-110455357D01*
X95633333Y-110383928D01*
X95466666Y-110383928D01*
X96300000Y-111883928D02*
X96366666Y-111883928D01*
X96433333Y-111812500D01*
X96466666Y-111741071D01*
X96500000Y-111598214D01*
X96533333Y-111312500D01*
X96533333Y-110955357D01*
X96500000Y-110669642D01*
X96466666Y-110526785D01*
X96433333Y-110455357D01*
X96366666Y-110383928D01*
X96300000Y-110383928D01*
X96233333Y-110455357D01*
X96200000Y-110526785D01*
X96166666Y-110669642D01*
X96133333Y-110955357D01*
X96133333Y-111312500D01*
X96166666Y-111598214D01*
X96200000Y-111741071D01*
X96233333Y-111812500D01*
X96300000Y-111883928D01*
D12*
X92600000Y-119830000D02*
X93710000Y-119830000D01*
X93710000Y-119830000D02*
X93710000Y-118500000D01*
X82510000Y-119830000D02*
X82510000Y-109550000D01*
X82510000Y-109550000D02*
X91140000Y-109550000D01*
X91140000Y-119830000D02*
X91140000Y-109550000D01*
X82510000Y-119830000D02*
X91140000Y-119830000D01*
X82510000Y-112150000D02*
X91140000Y-112150000D01*
X82510000Y-114690000D02*
X91140000Y-114690000D01*
X82510000Y-117230000D02*
X91140000Y-117230000D01*
X91140000Y-110520000D02*
X91550000Y-110520000D01*
X91140000Y-111240000D02*
X91550000Y-111240000D01*
X91140000Y-113060000D02*
X91550000Y-113060000D01*
X91140000Y-113780000D02*
X91550000Y-113780000D01*
X91140000Y-115600000D02*
X91550000Y-115600000D01*
X91140000Y-116320000D02*
X91550000Y-116320000D01*
X91140000Y-118140000D02*
X91490000Y-118140000D01*
X91140000Y-118860000D02*
X91490000Y-118860000D01*
X82510000Y-117348100D02*
X91140000Y-117348100D01*
X82510000Y-117466195D02*
X91140000Y-117466195D01*
X82510000Y-117584290D02*
X91140000Y-117584290D01*
X82510000Y-117702385D02*
X91140000Y-117702385D01*
X82510000Y-117820480D02*
X91140000Y-117820480D01*
X82510000Y-117938575D02*
X91140000Y-117938575D01*
X82510000Y-118056670D02*
X91140000Y-118056670D01*
X82510000Y-118174765D02*
X91140000Y-118174765D01*
X82510000Y-118292860D02*
X91140000Y-118292860D01*
X82510000Y-118410955D02*
X91140000Y-118410955D01*
X82510000Y-118529050D02*
X91140000Y-118529050D01*
X82510000Y-118647145D02*
X91140000Y-118647145D01*
X82510000Y-118765240D02*
X91140000Y-118765240D01*
X82510000Y-118883335D02*
X91140000Y-118883335D01*
X82510000Y-119001430D02*
X91140000Y-119001430D01*
X82510000Y-119119525D02*
X91140000Y-119119525D01*
X82510000Y-119237620D02*
X91140000Y-119237620D01*
X82510000Y-119355715D02*
X91140000Y-119355715D01*
X82510000Y-119473810D02*
X91140000Y-119473810D01*
X82510000Y-119591905D02*
X91140000Y-119591905D01*
X82510000Y-119710000D02*
X91140000Y-119710000D01*
D13*
G36*
X132704571Y-138573553D02*
G01*
X132572963Y-138574891D01*
X132187333Y-138584195D01*
X131864369Y-138611834D01*
X131593064Y-138660773D01*
X131362410Y-138733975D01*
X131161400Y-138834407D01*
X130979027Y-138965033D01*
X130913888Y-139021775D01*
X130805834Y-139154544D01*
X130708400Y-139334709D01*
X130633304Y-139534412D01*
X130592264Y-139725797D01*
X130588000Y-139796519D01*
X130614722Y-139992565D01*
X130686331Y-140206709D01*
X130789997Y-140409403D01*
X130912887Y-140571099D01*
X130932848Y-140590608D01*
X131101928Y-140727737D01*
X131287083Y-140834782D01*
X131498987Y-140914550D01*
X131748314Y-140969844D01*
X132045740Y-141003469D01*
X132401938Y-141018231D01*
X132565093Y-141019482D01*
X132772539Y-141018483D01*
X132918425Y-141014307D01*
X133016438Y-141005181D01*
X133080264Y-140989337D01*
X133123591Y-140965003D01*
X133146815Y-140944223D01*
X133168751Y-140918979D01*
X133185959Y-140886413D01*
X133199010Y-140837801D01*
X133208477Y-140764420D01*
X133214932Y-140657546D01*
X133218947Y-140508454D01*
X133221093Y-140308421D01*
X133221943Y-140048723D01*
X133222074Y-139796519D01*
X133222903Y-139460138D01*
X133222724Y-139191422D01*
X133219523Y-139062741D01*
X132732889Y-139062741D01*
X132732889Y-140530297D01*
X132422445Y-140530012D01*
X132235643Y-140524655D01*
X132039996Y-140510853D01*
X131876760Y-140491548D01*
X131871794Y-140490752D01*
X131607971Y-140426967D01*
X131403341Y-140327625D01*
X131247684Y-140186260D01*
X131148783Y-140033203D01*
X131087844Y-139863419D01*
X131092569Y-139703999D01*
X131163292Y-139533111D01*
X131301629Y-139356329D01*
X131493327Y-139225332D01*
X131742499Y-139137771D01*
X131909025Y-139106783D01*
X132098054Y-139085022D01*
X132298397Y-139069272D01*
X132468796Y-139062724D01*
X132478889Y-139062693D01*
X132732889Y-139062741D01*
X133219523Y-139062741D01*
X133217534Y-138982838D01*
X133203327Y-138826851D01*
X133176100Y-138715927D01*
X133131852Y-138642532D01*
X133066578Y-138599131D01*
X132976276Y-138578190D01*
X132856941Y-138572176D01*
X132704571Y-138573553D01*
X132704571Y-138573553D01*
G37*
X132704571Y-138573553D02*
X132572963Y-138574891D01*
X132187333Y-138584195D01*
X131864369Y-138611834D01*
X131593064Y-138660773D01*
X131362410Y-138733975D01*
X131161400Y-138834407D01*
X130979027Y-138965033D01*
X130913888Y-139021775D01*
X130805834Y-139154544D01*
X130708400Y-139334709D01*
X130633304Y-139534412D01*
X130592264Y-139725797D01*
X130588000Y-139796519D01*
X130614722Y-139992565D01*
X130686331Y-140206709D01*
X130789997Y-140409403D01*
X130912887Y-140571099D01*
X130932848Y-140590608D01*
X131101928Y-140727737D01*
X131287083Y-140834782D01*
X131498987Y-140914550D01*
X131748314Y-140969844D01*
X132045740Y-141003469D01*
X132401938Y-141018231D01*
X132565093Y-141019482D01*
X132772539Y-141018483D01*
X132918425Y-141014307D01*
X133016438Y-141005181D01*
X133080264Y-140989337D01*
X133123591Y-140965003D01*
X133146815Y-140944223D01*
X133168751Y-140918979D01*
X133185959Y-140886413D01*
X133199010Y-140837801D01*
X133208477Y-140764420D01*
X133214932Y-140657546D01*
X133218947Y-140508454D01*
X133221093Y-140308421D01*
X133221943Y-140048723D01*
X133222074Y-139796519D01*
X133222903Y-139460138D01*
X133222724Y-139191422D01*
X133219523Y-139062741D01*
X132732889Y-139062741D01*
X132732889Y-140530297D01*
X132422445Y-140530012D01*
X132235643Y-140524655D01*
X132039996Y-140510853D01*
X131876760Y-140491548D01*
X131871794Y-140490752D01*
X131607971Y-140426967D01*
X131403341Y-140327625D01*
X131247684Y-140186260D01*
X131148783Y-140033203D01*
X131087844Y-139863419D01*
X131092569Y-139703999D01*
X131163292Y-139533111D01*
X131301629Y-139356329D01*
X131493327Y-139225332D01*
X131742499Y-139137771D01*
X131909025Y-139106783D01*
X132098054Y-139085022D01*
X132298397Y-139069272D01*
X132468796Y-139062724D01*
X132478889Y-139062693D01*
X132732889Y-139062741D01*
X133219523Y-139062741D01*
X133217534Y-138982838D01*
X133203327Y-138826851D01*
X133176100Y-138715927D01*
X133131852Y-138642532D01*
X133066578Y-138599131D01*
X132976276Y-138578190D01*
X132856941Y-138572176D01*
X132704571Y-138573553D01*
G36*
X128009314Y-138573821D02*
G01*
X127777952Y-138575062D01*
X127603321Y-138577949D01*
X127476157Y-138583153D01*
X127387197Y-138591344D01*
X127327176Y-138603191D01*
X127286831Y-138619366D01*
X127256898Y-138640537D01*
X127246059Y-138650281D01*
X127180142Y-138753808D01*
X127168272Y-138872762D01*
X127211635Y-138978367D01*
X127231686Y-138999710D01*
X127264117Y-139020404D01*
X127316335Y-139036368D01*
X127398025Y-139048379D01*
X127518869Y-139057215D01*
X127688551Y-139063651D01*
X127916754Y-139068464D01*
X128125389Y-139071394D01*
X128951112Y-139081556D01*
X128962397Y-139297926D01*
X128973682Y-139514297D01*
X128413192Y-139514297D01*
X128169862Y-139516396D01*
X127991722Y-139525177D01*
X127868758Y-139544364D01*
X127790959Y-139577681D01*
X127748313Y-139628854D01*
X127730807Y-139701605D01*
X127728149Y-139769126D01*
X127736411Y-139851974D01*
X127767590Y-139913021D01*
X127831276Y-139955457D01*
X127937059Y-139982471D01*
X128094529Y-139997255D01*
X128313276Y-140002997D01*
X128432670Y-140003482D01*
X128969926Y-140003482D01*
X128969926Y-140530297D01*
X128142074Y-140530297D01*
X127870710Y-140530675D01*
X127664472Y-140532372D01*
X127513228Y-140536233D01*
X127406846Y-140543101D01*
X127335196Y-140553822D01*
X127288144Y-140569239D01*
X127255559Y-140590196D01*
X127238963Y-140605556D01*
X127182033Y-140695202D01*
X127163704Y-140774889D01*
X127189876Y-140872225D01*
X127238963Y-140944223D01*
X127265152Y-140966888D01*
X127298959Y-140984488D01*
X127349479Y-140997660D01*
X127425804Y-141007043D01*
X127537029Y-141013274D01*
X127692248Y-141016992D01*
X127900556Y-141018836D01*
X128171045Y-141019442D01*
X128311408Y-141019482D01*
X128611992Y-141019216D01*
X128846412Y-141017993D01*
X129023762Y-141015174D01*
X129153134Y-141010122D01*
X129243624Y-141002198D01*
X129304325Y-140990764D01*
X129344332Y-140975182D01*
X129372738Y-140954813D01*
X129383852Y-140944223D01*
X129405849Y-140918900D01*
X129423090Y-140886232D01*
X129436152Y-140837463D01*
X129445613Y-140763840D01*
X129452050Y-140656607D01*
X129456040Y-140507011D01*
X129458161Y-140306296D01*
X129458990Y-140045710D01*
X129459112Y-139803078D01*
X129458999Y-139492357D01*
X129458218Y-139248103D01*
X129456100Y-139061527D01*
X129451978Y-138923836D01*
X129445186Y-138826240D01*
X129435056Y-138759947D01*
X129420921Y-138716166D01*
X129402115Y-138686107D01*
X129377969Y-138660978D01*
X129372020Y-138655375D01*
X129343151Y-138630572D01*
X129309607Y-138611365D01*
X129262083Y-138597039D01*
X129191276Y-138586879D01*
X129087879Y-138580171D01*
X128942590Y-138576199D01*
X128746103Y-138574251D01*
X128489114Y-138573610D01*
X128306671Y-138573556D01*
X128009314Y-138573821D01*
X128009314Y-138573821D01*
G37*
X128009314Y-138573821D02*
X127777952Y-138575062D01*
X127603321Y-138577949D01*
X127476157Y-138583153D01*
X127387197Y-138591344D01*
X127327176Y-138603191D01*
X127286831Y-138619366D01*
X127256898Y-138640537D01*
X127246059Y-138650281D01*
X127180142Y-138753808D01*
X127168272Y-138872762D01*
X127211635Y-138978367D01*
X127231686Y-138999710D01*
X127264117Y-139020404D01*
X127316335Y-139036368D01*
X127398025Y-139048379D01*
X127518869Y-139057215D01*
X127688551Y-139063651D01*
X127916754Y-139068464D01*
X128125389Y-139071394D01*
X128951112Y-139081556D01*
X128962397Y-139297926D01*
X128973682Y-139514297D01*
X128413192Y-139514297D01*
X128169862Y-139516396D01*
X127991722Y-139525177D01*
X127868758Y-139544364D01*
X127790959Y-139577681D01*
X127748313Y-139628854D01*
X127730807Y-139701605D01*
X127728149Y-139769126D01*
X127736411Y-139851974D01*
X127767590Y-139913021D01*
X127831276Y-139955457D01*
X127937059Y-139982471D01*
X128094529Y-139997255D01*
X128313276Y-140002997D01*
X128432670Y-140003482D01*
X128969926Y-140003482D01*
X128969926Y-140530297D01*
X128142074Y-140530297D01*
X127870710Y-140530675D01*
X127664472Y-140532372D01*
X127513228Y-140536233D01*
X127406846Y-140543101D01*
X127335196Y-140553822D01*
X127288144Y-140569239D01*
X127255559Y-140590196D01*
X127238963Y-140605556D01*
X127182033Y-140695202D01*
X127163704Y-140774889D01*
X127189876Y-140872225D01*
X127238963Y-140944223D01*
X127265152Y-140966888D01*
X127298959Y-140984488D01*
X127349479Y-140997660D01*
X127425804Y-141007043D01*
X127537029Y-141013274D01*
X127692248Y-141016992D01*
X127900556Y-141018836D01*
X128171045Y-141019442D01*
X128311408Y-141019482D01*
X128611992Y-141019216D01*
X128846412Y-141017993D01*
X129023762Y-141015174D01*
X129153134Y-141010122D01*
X129243624Y-141002198D01*
X129304325Y-140990764D01*
X129344332Y-140975182D01*
X129372738Y-140954813D01*
X129383852Y-140944223D01*
X129405849Y-140918900D01*
X129423090Y-140886232D01*
X129436152Y-140837463D01*
X129445613Y-140763840D01*
X129452050Y-140656607D01*
X129456040Y-140507011D01*
X129458161Y-140306296D01*
X129458990Y-140045710D01*
X129459112Y-139803078D01*
X129458999Y-139492357D01*
X129458218Y-139248103D01*
X129456100Y-139061527D01*
X129451978Y-138923836D01*
X129445186Y-138826240D01*
X129435056Y-138759947D01*
X129420921Y-138716166D01*
X129402115Y-138686107D01*
X129377969Y-138660978D01*
X129372020Y-138655375D01*
X129343151Y-138630572D01*
X129309607Y-138611365D01*
X129262083Y-138597039D01*
X129191276Y-138586879D01*
X129087879Y-138580171D01*
X128942590Y-138576199D01*
X128746103Y-138574251D01*
X128489114Y-138573610D01*
X128306671Y-138573556D01*
X128009314Y-138573821D01*
G36*
X124605675Y-138577837D02*
G01*
X124356292Y-138595271D01*
X124124353Y-138622501D01*
X123923339Y-138658500D01*
X123766734Y-138702244D01*
X123668019Y-138752709D01*
X123652867Y-138767563D01*
X123600178Y-138882834D01*
X123616155Y-139001172D01*
X123697879Y-139102418D01*
X123701778Y-139105319D01*
X123749847Y-139136515D01*
X123800026Y-139152919D01*
X123870017Y-139154911D01*
X123977523Y-139142872D01*
X124140244Y-139117182D01*
X124153334Y-139115018D01*
X124395796Y-139085231D01*
X124657390Y-139070538D01*
X124919756Y-139070395D01*
X125164536Y-139084263D01*
X125373370Y-139111598D01*
X125527900Y-139151858D01*
X125538054Y-139155904D01*
X125650160Y-139218716D01*
X125689547Y-139282282D01*
X125658713Y-139344798D01*
X125560155Y-139404458D01*
X125396370Y-139459456D01*
X125169855Y-139507986D01*
X125018815Y-139531352D01*
X124704852Y-139576296D01*
X124455145Y-139617381D01*
X124259056Y-139658165D01*
X124105948Y-139702204D01*
X123985184Y-139753058D01*
X123886127Y-139814282D01*
X123798140Y-139889435D01*
X123727434Y-139963236D01*
X123643550Y-140066064D01*
X123602268Y-140154483D01*
X123589358Y-140263422D01*
X123588889Y-140303318D01*
X123598586Y-140435706D01*
X123637339Y-140534198D01*
X123704410Y-140621619D01*
X123840720Y-140755252D01*
X123992722Y-140857164D01*
X124171708Y-140930677D01*
X124388974Y-140979116D01*
X124655814Y-141005803D01*
X124983522Y-141014062D01*
X125037630Y-141013922D01*
X125256162Y-141009392D01*
X125472885Y-140999099D01*
X125664174Y-140984521D01*
X125806405Y-140967133D01*
X125817908Y-140965136D01*
X125959320Y-140931638D01*
X126079265Y-140889321D01*
X126147167Y-140850635D01*
X126210357Y-140748572D01*
X126214756Y-140629726D01*
X126160283Y-140523813D01*
X126148095Y-140511836D01*
X126097718Y-140476253D01*
X126034715Y-140460921D01*
X125937207Y-140463530D01*
X125818836Y-140477091D01*
X125686567Y-140489206D01*
X125501149Y-140499427D01*
X125284687Y-140506844D01*
X125059283Y-140510547D01*
X125000000Y-140510792D01*
X124773758Y-140509879D01*
X124608181Y-140505487D01*
X124488700Y-140496091D01*
X124400746Y-140480167D01*
X124329751Y-140456191D01*
X124287087Y-140436223D01*
X124193334Y-140380776D01*
X124133560Y-140330560D01*
X124124824Y-140316325D01*
X124143254Y-140257544D01*
X124230867Y-140200640D01*
X124381592Y-140148195D01*
X124589358Y-140102793D01*
X124650571Y-140092679D01*
X124970300Y-140042461D01*
X125225471Y-140000486D01*
X125425932Y-139963705D01*
X125581533Y-139929066D01*
X125702122Y-139893520D01*
X125797548Y-139854016D01*
X125877661Y-139807505D01*
X125952308Y-139750937D01*
X126031339Y-139681260D01*
X126057933Y-139656831D01*
X126151175Y-139565663D01*
X126200532Y-139493430D01*
X126219841Y-139410773D01*
X126222963Y-139306610D01*
X126188584Y-139102350D01*
X126085839Y-138928801D01*
X125915317Y-138786526D01*
X125677609Y-138676084D01*
X125508000Y-138626547D01*
X125323665Y-138594553D01*
X125102844Y-138576453D01*
X124859020Y-138571223D01*
X124605675Y-138577837D01*
X124605675Y-138577837D01*
G37*
X124605675Y-138577837D02*
X124356292Y-138595271D01*
X124124353Y-138622501D01*
X123923339Y-138658500D01*
X123766734Y-138702244D01*
X123668019Y-138752709D01*
X123652867Y-138767563D01*
X123600178Y-138882834D01*
X123616155Y-139001172D01*
X123697879Y-139102418D01*
X123701778Y-139105319D01*
X123749847Y-139136515D01*
X123800026Y-139152919D01*
X123870017Y-139154911D01*
X123977523Y-139142872D01*
X124140244Y-139117182D01*
X124153334Y-139115018D01*
X124395796Y-139085231D01*
X124657390Y-139070538D01*
X124919756Y-139070395D01*
X125164536Y-139084263D01*
X125373370Y-139111598D01*
X125527900Y-139151858D01*
X125538054Y-139155904D01*
X125650160Y-139218716D01*
X125689547Y-139282282D01*
X125658713Y-139344798D01*
X125560155Y-139404458D01*
X125396370Y-139459456D01*
X125169855Y-139507986D01*
X125018815Y-139531352D01*
X124704852Y-139576296D01*
X124455145Y-139617381D01*
X124259056Y-139658165D01*
X124105948Y-139702204D01*
X123985184Y-139753058D01*
X123886127Y-139814282D01*
X123798140Y-139889435D01*
X123727434Y-139963236D01*
X123643550Y-140066064D01*
X123602268Y-140154483D01*
X123589358Y-140263422D01*
X123588889Y-140303318D01*
X123598586Y-140435706D01*
X123637339Y-140534198D01*
X123704410Y-140621619D01*
X123840720Y-140755252D01*
X123992722Y-140857164D01*
X124171708Y-140930677D01*
X124388974Y-140979116D01*
X124655814Y-141005803D01*
X124983522Y-141014062D01*
X125037630Y-141013922D01*
X125256162Y-141009392D01*
X125472885Y-140999099D01*
X125664174Y-140984521D01*
X125806405Y-140967133D01*
X125817908Y-140965136D01*
X125959320Y-140931638D01*
X126079265Y-140889321D01*
X126147167Y-140850635D01*
X126210357Y-140748572D01*
X126214756Y-140629726D01*
X126160283Y-140523813D01*
X126148095Y-140511836D01*
X126097718Y-140476253D01*
X126034715Y-140460921D01*
X125937207Y-140463530D01*
X125818836Y-140477091D01*
X125686567Y-140489206D01*
X125501149Y-140499427D01*
X125284687Y-140506844D01*
X125059283Y-140510547D01*
X125000000Y-140510792D01*
X124773758Y-140509879D01*
X124608181Y-140505487D01*
X124488700Y-140496091D01*
X124400746Y-140480167D01*
X124329751Y-140456191D01*
X124287087Y-140436223D01*
X124193334Y-140380776D01*
X124133560Y-140330560D01*
X124124824Y-140316325D01*
X124143254Y-140257544D01*
X124230867Y-140200640D01*
X124381592Y-140148195D01*
X124589358Y-140102793D01*
X124650571Y-140092679D01*
X124970300Y-140042461D01*
X125225471Y-140000486D01*
X125425932Y-139963705D01*
X125581533Y-139929066D01*
X125702122Y-139893520D01*
X125797548Y-139854016D01*
X125877661Y-139807505D01*
X125952308Y-139750937D01*
X126031339Y-139681260D01*
X126057933Y-139656831D01*
X126151175Y-139565663D01*
X126200532Y-139493430D01*
X126219841Y-139410773D01*
X126222963Y-139306610D01*
X126188584Y-139102350D01*
X126085839Y-138928801D01*
X125915317Y-138786526D01*
X125677609Y-138676084D01*
X125508000Y-138626547D01*
X125323665Y-138594553D01*
X125102844Y-138576453D01*
X124859020Y-138571223D01*
X124605675Y-138577837D01*
G36*
X122046074Y-138648815D02*
G01*
X122024138Y-138674059D01*
X122006931Y-138706625D01*
X121993879Y-138755237D01*
X121984412Y-138828618D01*
X121977958Y-138935492D01*
X121973943Y-139084584D01*
X121971797Y-139284617D01*
X121970947Y-139544315D01*
X121970815Y-139796519D01*
X121971047Y-140109342D01*
X121972125Y-140355630D01*
X121974621Y-140544106D01*
X121979106Y-140683496D01*
X121986153Y-140782523D01*
X121996334Y-140849910D01*
X122010220Y-140894381D01*
X122028385Y-140924661D01*
X122046074Y-140944223D01*
X122156086Y-141009824D01*
X122273304Y-141003937D01*
X122378182Y-140932390D01*
X122402279Y-140904456D01*
X122421112Y-140872047D01*
X122435328Y-140826203D01*
X122445577Y-140757965D01*
X122452507Y-140658374D01*
X122456766Y-140518471D01*
X122459002Y-140329296D01*
X122459864Y-140081891D01*
X122460000Y-139801791D01*
X122460000Y-138758283D01*
X122367637Y-138665920D01*
X122253788Y-138588211D01*
X122143353Y-138585411D01*
X122046074Y-138648815D01*
X122046074Y-138648815D01*
G37*
X122046074Y-138648815D02*
X122024138Y-138674059D01*
X122006931Y-138706625D01*
X121993879Y-138755237D01*
X121984412Y-138828618D01*
X121977958Y-138935492D01*
X121973943Y-139084584D01*
X121971797Y-139284617D01*
X121970947Y-139544315D01*
X121970815Y-139796519D01*
X121971047Y-140109342D01*
X121972125Y-140355630D01*
X121974621Y-140544106D01*
X121979106Y-140683496D01*
X121986153Y-140782523D01*
X121996334Y-140849910D01*
X122010220Y-140894381D01*
X122028385Y-140924661D01*
X122046074Y-140944223D01*
X122156086Y-141009824D01*
X122273304Y-141003937D01*
X122378182Y-140932390D01*
X122402279Y-140904456D01*
X122421112Y-140872047D01*
X122435328Y-140826203D01*
X122445577Y-140757965D01*
X122452507Y-140658374D01*
X122456766Y-140518471D01*
X122459002Y-140329296D01*
X122459864Y-140081891D01*
X122460000Y-139801791D01*
X122460000Y-138758283D01*
X122367637Y-138665920D01*
X122253788Y-138588211D01*
X122143353Y-138585411D01*
X122046074Y-138648815D01*
G36*
X118800271Y-138591996D02*
G01*
X118571882Y-138630318D01*
X118396475Y-138689890D01*
X118282360Y-138768329D01*
X118251264Y-138813079D01*
X118219642Y-138917160D01*
X118240922Y-139011317D01*
X118308101Y-139100607D01*
X118412484Y-139142378D01*
X118563942Y-139138986D01*
X118681087Y-139116354D01*
X118941396Y-139073237D01*
X119207420Y-139069139D01*
X119505182Y-139104137D01*
X119587431Y-139118966D01*
X119864304Y-139197028D01*
X120080908Y-139313149D01*
X120234871Y-139465347D01*
X120323815Y-139651646D01*
X120342211Y-139747962D01*
X120330169Y-139943375D01*
X120252431Y-140116264D01*
X120116078Y-140263261D01*
X119928195Y-140380995D01*
X119695865Y-140466097D01*
X119426173Y-140515198D01*
X119126201Y-140524928D01*
X118803033Y-140491916D01*
X118784786Y-140488804D01*
X118656248Y-140464863D01*
X118584979Y-140441738D01*
X118554088Y-140407425D01*
X118546686Y-140349922D01*
X118546519Y-140319471D01*
X118546519Y-140191630D01*
X118774771Y-140191630D01*
X118976332Y-140177822D01*
X119113883Y-140133822D01*
X119193915Y-140055765D01*
X119222922Y-139939786D01*
X119223276Y-139924647D01*
X119206305Y-139825515D01*
X119148108Y-139754729D01*
X119039796Y-139707885D01*
X118872476Y-139680577D01*
X118710408Y-139670537D01*
X118474853Y-139664777D01*
X118303993Y-139673566D01*
X118187463Y-139706001D01*
X118114898Y-139771177D01*
X118075933Y-139878187D01*
X118060200Y-140036128D01*
X118057334Y-140243570D01*
X118062030Y-140475118D01*
X118076160Y-140632620D01*
X118099785Y-140716706D01*
X118104371Y-140723293D01*
X118234092Y-140828361D01*
X118424286Y-140911568D01*
X118662895Y-140971135D01*
X118937861Y-141005285D01*
X119237128Y-141012242D01*
X119548638Y-140990228D01*
X119731852Y-140963186D01*
X120019220Y-140881848D01*
X120286305Y-140748873D01*
X120509923Y-140576291D01*
X120543911Y-140541797D01*
X120654339Y-140396783D01*
X120753979Y-140217060D01*
X120831188Y-140028639D01*
X120874328Y-139857531D01*
X120879526Y-139791813D01*
X120857392Y-139654731D01*
X120798561Y-139484174D01*
X120714321Y-139304647D01*
X120615962Y-139140651D01*
X120529062Y-139031112D01*
X120325881Y-138868173D01*
X120063230Y-138738485D01*
X119750522Y-138644981D01*
X119397168Y-138590596D01*
X119073334Y-138577307D01*
X118800271Y-138591996D01*
X118800271Y-138591996D01*
G37*
X118800271Y-138591996D02*
X118571882Y-138630318D01*
X118396475Y-138689890D01*
X118282360Y-138768329D01*
X118251264Y-138813079D01*
X118219642Y-138917160D01*
X118240922Y-139011317D01*
X118308101Y-139100607D01*
X118412484Y-139142378D01*
X118563942Y-139138986D01*
X118681087Y-139116354D01*
X118941396Y-139073237D01*
X119207420Y-139069139D01*
X119505182Y-139104137D01*
X119587431Y-139118966D01*
X119864304Y-139197028D01*
X120080908Y-139313149D01*
X120234871Y-139465347D01*
X120323815Y-139651646D01*
X120342211Y-139747962D01*
X120330169Y-139943375D01*
X120252431Y-140116264D01*
X120116078Y-140263261D01*
X119928195Y-140380995D01*
X119695865Y-140466097D01*
X119426173Y-140515198D01*
X119126201Y-140524928D01*
X118803033Y-140491916D01*
X118784786Y-140488804D01*
X118656248Y-140464863D01*
X118584979Y-140441738D01*
X118554088Y-140407425D01*
X118546686Y-140349922D01*
X118546519Y-140319471D01*
X118546519Y-140191630D01*
X118774771Y-140191630D01*
X118976332Y-140177822D01*
X119113883Y-140133822D01*
X119193915Y-140055765D01*
X119222922Y-139939786D01*
X119223276Y-139924647D01*
X119206305Y-139825515D01*
X119148108Y-139754729D01*
X119039796Y-139707885D01*
X118872476Y-139680577D01*
X118710408Y-139670537D01*
X118474853Y-139664777D01*
X118303993Y-139673566D01*
X118187463Y-139706001D01*
X118114898Y-139771177D01*
X118075933Y-139878187D01*
X118060200Y-140036128D01*
X118057334Y-140243570D01*
X118062030Y-140475118D01*
X118076160Y-140632620D01*
X118099785Y-140716706D01*
X118104371Y-140723293D01*
X118234092Y-140828361D01*
X118424286Y-140911568D01*
X118662895Y-140971135D01*
X118937861Y-141005285D01*
X119237128Y-141012242D01*
X119548638Y-140990228D01*
X119731852Y-140963186D01*
X120019220Y-140881848D01*
X120286305Y-140748873D01*
X120509923Y-140576291D01*
X120543911Y-140541797D01*
X120654339Y-140396783D01*
X120753979Y-140217060D01*
X120831188Y-140028639D01*
X120874328Y-139857531D01*
X120879526Y-139791813D01*
X120857392Y-139654731D01*
X120798561Y-139484174D01*
X120714321Y-139304647D01*
X120615962Y-139140651D01*
X120529062Y-139031112D01*
X120325881Y-138868173D01*
X120063230Y-138738485D01*
X119750522Y-138644981D01*
X119397168Y-138590596D01*
X119073334Y-138577307D01*
X118800271Y-138591996D01*
G36*
X116633713Y-138588161D02*
G01*
X116555159Y-138634242D01*
X116452449Y-138709602D01*
X116320259Y-138817792D01*
X116153265Y-138962361D01*
X115946143Y-139146859D01*
X115693571Y-139374836D01*
X115404445Y-139636947D01*
X114802371Y-140182928D01*
X114783556Y-139450096D01*
X114776763Y-139197838D01*
X114770209Y-139009981D01*
X114762445Y-138875687D01*
X114752019Y-138784116D01*
X114737483Y-138724431D01*
X114717386Y-138685791D01*
X114690278Y-138657359D01*
X114675906Y-138645410D01*
X114560804Y-138582235D01*
X114451275Y-138591471D01*
X114364391Y-138645443D01*
X114275556Y-138717329D01*
X114264507Y-139767170D01*
X114261449Y-140075929D01*
X114259893Y-140318480D01*
X114260377Y-140503869D01*
X114263441Y-140641141D01*
X114269624Y-140739342D01*
X114279464Y-140807517D01*
X114293501Y-140854710D01*
X114312273Y-140889969D01*
X114333090Y-140918247D01*
X114378131Y-140970691D01*
X114422944Y-141005454D01*
X114473747Y-141018798D01*
X114536754Y-141006980D01*
X114618181Y-140966262D01*
X114724244Y-140892903D01*
X114861159Y-140783164D01*
X115035141Y-140633304D01*
X115252405Y-140439584D01*
X115498519Y-140216996D01*
X116382815Y-139414861D01*
X116401630Y-140145297D01*
X116408435Y-140397095D01*
X116415005Y-140584514D01*
X116422798Y-140718413D01*
X116433270Y-140809653D01*
X116447878Y-140869095D01*
X116468081Y-140907598D01*
X116495334Y-140936023D01*
X116509280Y-140947607D01*
X116632550Y-141011242D01*
X116749025Y-141001643D01*
X116850454Y-140920333D01*
X116873657Y-140887621D01*
X116891742Y-140849419D01*
X116905343Y-140796559D01*
X116915097Y-140719878D01*
X116921641Y-140610208D01*
X116925610Y-140458386D01*
X116927641Y-140255245D01*
X116928369Y-139991620D01*
X116928445Y-139796519D01*
X116928200Y-139491358D01*
X116927042Y-139252291D01*
X116924335Y-139070151D01*
X116919443Y-138935773D01*
X116911728Y-138839992D01*
X116900557Y-138773643D01*
X116885292Y-138727559D01*
X116865297Y-138692575D01*
X116850454Y-138672705D01*
X116812831Y-138625636D01*
X116777669Y-138590097D01*
X116739644Y-138569639D01*
X116693433Y-138567810D01*
X116633713Y-138588161D01*
X116633713Y-138588161D01*
G37*
X116633713Y-138588161D02*
X116555159Y-138634242D01*
X116452449Y-138709602D01*
X116320259Y-138817792D01*
X116153265Y-138962361D01*
X115946143Y-139146859D01*
X115693571Y-139374836D01*
X115404445Y-139636947D01*
X114802371Y-140182928D01*
X114783556Y-139450096D01*
X114776763Y-139197838D01*
X114770209Y-139009981D01*
X114762445Y-138875687D01*
X114752019Y-138784116D01*
X114737483Y-138724431D01*
X114717386Y-138685791D01*
X114690278Y-138657359D01*
X114675906Y-138645410D01*
X114560804Y-138582235D01*
X114451275Y-138591471D01*
X114364391Y-138645443D01*
X114275556Y-138717329D01*
X114264507Y-139767170D01*
X114261449Y-140075929D01*
X114259893Y-140318480D01*
X114260377Y-140503869D01*
X114263441Y-140641141D01*
X114269624Y-140739342D01*
X114279464Y-140807517D01*
X114293501Y-140854710D01*
X114312273Y-140889969D01*
X114333090Y-140918247D01*
X114378131Y-140970691D01*
X114422944Y-141005454D01*
X114473747Y-141018798D01*
X114536754Y-141006980D01*
X114618181Y-140966262D01*
X114724244Y-140892903D01*
X114861159Y-140783164D01*
X115035141Y-140633304D01*
X115252405Y-140439584D01*
X115498519Y-140216996D01*
X116382815Y-139414861D01*
X116401630Y-140145297D01*
X116408435Y-140397095D01*
X116415005Y-140584514D01*
X116422798Y-140718413D01*
X116433270Y-140809653D01*
X116447878Y-140869095D01*
X116468081Y-140907598D01*
X116495334Y-140936023D01*
X116509280Y-140947607D01*
X116632550Y-141011242D01*
X116749025Y-141001643D01*
X116850454Y-140920333D01*
X116873657Y-140887621D01*
X116891742Y-140849419D01*
X116905343Y-140796559D01*
X116915097Y-140719878D01*
X116921641Y-140610208D01*
X116925610Y-140458386D01*
X116927641Y-140255245D01*
X116928369Y-139991620D01*
X116928445Y-139796519D01*
X116928200Y-139491358D01*
X116927042Y-139252291D01*
X116924335Y-139070151D01*
X116919443Y-138935773D01*
X116911728Y-138839992D01*
X116900557Y-138773643D01*
X116885292Y-138727559D01*
X116865297Y-138692575D01*
X116850454Y-138672705D01*
X116812831Y-138625636D01*
X116777669Y-138590097D01*
X116739644Y-138569639D01*
X116693433Y-138567810D01*
X116633713Y-138588161D01*
G36*
X111532191Y-138574199D02*
G01*
X111277662Y-138577246D01*
X111082611Y-138584371D01*
X110939149Y-138597249D01*
X110839389Y-138617555D01*
X110775440Y-138646965D01*
X110739414Y-138687154D01*
X110723422Y-138739795D01*
X110719576Y-138806565D01*
X110719556Y-138814450D01*
X110722895Y-138889974D01*
X110738679Y-138948342D01*
X110775555Y-138991914D01*
X110842173Y-139023043D01*
X110947180Y-139044089D01*
X111099225Y-139057407D01*
X111306956Y-139065354D01*
X111579021Y-139070286D01*
X111662409Y-139071379D01*
X112469334Y-139081556D01*
X112480619Y-139297926D01*
X112491904Y-139514297D01*
X111931414Y-139514297D01*
X111712445Y-139515104D01*
X111556093Y-139518521D01*
X111449722Y-139526036D01*
X111380698Y-139539141D01*
X111336385Y-139559326D01*
X111304150Y-139588081D01*
X111303944Y-139588309D01*
X111245480Y-139700373D01*
X111247593Y-139821494D01*
X111308952Y-139924744D01*
X111321095Y-139935356D01*
X111364195Y-139962708D01*
X111423254Y-139981736D01*
X111511433Y-139993874D01*
X111641892Y-140000556D01*
X111827792Y-140003214D01*
X111946688Y-140003482D01*
X112488149Y-140003482D01*
X112488149Y-140530297D01*
X111666129Y-140530297D01*
X111394732Y-140530771D01*
X111188633Y-140532712D01*
X111037877Y-140536893D01*
X110932506Y-140544091D01*
X110862562Y-140555078D01*
X110818090Y-140570631D01*
X110789131Y-140591524D01*
X110781833Y-140599111D01*
X110727951Y-140704266D01*
X110724010Y-140823895D01*
X110768213Y-140927616D01*
X110803188Y-140960904D01*
X110839570Y-140979229D01*
X110895944Y-140993406D01*
X110981224Y-141003933D01*
X111104330Y-141011305D01*
X111274179Y-141016020D01*
X111499686Y-141018573D01*
X111789770Y-141019460D01*
X111855352Y-141019482D01*
X112150297Y-141019289D01*
X112379243Y-141018224D01*
X112551452Y-141015556D01*
X112676184Y-141010557D01*
X112762699Y-141002497D01*
X112820260Y-140990646D01*
X112858126Y-140974274D01*
X112885558Y-140952652D01*
X112900609Y-140937127D01*
X112923262Y-140909629D01*
X112940960Y-140875564D01*
X112954313Y-140826001D01*
X112963929Y-140752006D01*
X112970420Y-140644645D01*
X112974395Y-140494985D01*
X112976464Y-140294093D01*
X112977237Y-140033036D01*
X112977334Y-139813313D01*
X112977097Y-139505428D01*
X112975973Y-139263724D01*
X112973341Y-139079124D01*
X112968581Y-138942551D01*
X112961071Y-138844928D01*
X112950191Y-138777178D01*
X112935321Y-138730222D01*
X112915839Y-138694984D01*
X112899343Y-138672705D01*
X112821353Y-138573556D01*
X111854087Y-138573556D01*
X111532191Y-138574199D01*
X111532191Y-138574199D01*
G37*
X111532191Y-138574199D02*
X111277662Y-138577246D01*
X111082611Y-138584371D01*
X110939149Y-138597249D01*
X110839389Y-138617555D01*
X110775440Y-138646965D01*
X110739414Y-138687154D01*
X110723422Y-138739795D01*
X110719576Y-138806565D01*
X110719556Y-138814450D01*
X110722895Y-138889974D01*
X110738679Y-138948342D01*
X110775555Y-138991914D01*
X110842173Y-139023043D01*
X110947180Y-139044089D01*
X111099225Y-139057407D01*
X111306956Y-139065354D01*
X111579021Y-139070286D01*
X111662409Y-139071379D01*
X112469334Y-139081556D01*
X112480619Y-139297926D01*
X112491904Y-139514297D01*
X111931414Y-139514297D01*
X111712445Y-139515104D01*
X111556093Y-139518521D01*
X111449722Y-139526036D01*
X111380698Y-139539141D01*
X111336385Y-139559326D01*
X111304150Y-139588081D01*
X111303944Y-139588309D01*
X111245480Y-139700373D01*
X111247593Y-139821494D01*
X111308952Y-139924744D01*
X111321095Y-139935356D01*
X111364195Y-139962708D01*
X111423254Y-139981736D01*
X111511433Y-139993874D01*
X111641892Y-140000556D01*
X111827792Y-140003214D01*
X111946688Y-140003482D01*
X112488149Y-140003482D01*
X112488149Y-140530297D01*
X111666129Y-140530297D01*
X111394732Y-140530771D01*
X111188633Y-140532712D01*
X111037877Y-140536893D01*
X110932506Y-140544091D01*
X110862562Y-140555078D01*
X110818090Y-140570631D01*
X110789131Y-140591524D01*
X110781833Y-140599111D01*
X110727951Y-140704266D01*
X110724010Y-140823895D01*
X110768213Y-140927616D01*
X110803188Y-140960904D01*
X110839570Y-140979229D01*
X110895944Y-140993406D01*
X110981224Y-141003933D01*
X111104330Y-141011305D01*
X111274179Y-141016020D01*
X111499686Y-141018573D01*
X111789770Y-141019460D01*
X111855352Y-141019482D01*
X112150297Y-141019289D01*
X112379243Y-141018224D01*
X112551452Y-141015556D01*
X112676184Y-141010557D01*
X112762699Y-141002497D01*
X112820260Y-140990646D01*
X112858126Y-140974274D01*
X112885558Y-140952652D01*
X112900609Y-140937127D01*
X112923262Y-140909629D01*
X112940960Y-140875564D01*
X112954313Y-140826001D01*
X112963929Y-140752006D01*
X112970420Y-140644645D01*
X112974395Y-140494985D01*
X112976464Y-140294093D01*
X112977237Y-140033036D01*
X112977334Y-139813313D01*
X112977097Y-139505428D01*
X112975973Y-139263724D01*
X112973341Y-139079124D01*
X112968581Y-138942551D01*
X112961071Y-138844928D01*
X112950191Y-138777178D01*
X112935321Y-138730222D01*
X112915839Y-138694984D01*
X112899343Y-138672705D01*
X112821353Y-138573556D01*
X111854087Y-138573556D01*
X111532191Y-138574199D01*
G36*
X108905637Y-138574249D02*
G01*
X108475706Y-138588786D01*
X108110030Y-138632869D01*
X107802580Y-138709138D01*
X107547327Y-138820233D01*
X107338242Y-138968792D01*
X107169294Y-139157455D01*
X107034455Y-139388860D01*
X107031803Y-139394503D01*
X106951330Y-139601610D01*
X106922658Y-139785032D01*
X106945895Y-139969625D01*
X107021153Y-140180245D01*
X107035426Y-140212296D01*
X107132759Y-140399886D01*
X107242148Y-140544838D01*
X107383327Y-140668057D01*
X107576033Y-140790451D01*
X107587228Y-140796840D01*
X107754985Y-140877424D01*
X107944596Y-140937607D01*
X108168244Y-140979465D01*
X108438116Y-141005074D01*
X108766394Y-141016509D01*
X108882380Y-141017502D01*
X109434686Y-141019482D01*
X109512677Y-140920333D01*
X109535811Y-140887730D01*
X109553858Y-140849657D01*
X109567448Y-140796984D01*
X109577211Y-140720582D01*
X109583776Y-140611320D01*
X109585917Y-140530297D01*
X109063852Y-140530297D01*
X108750911Y-140530297D01*
X108567787Y-140524942D01*
X108379800Y-140510849D01*
X108225515Y-140490974D01*
X108216202Y-140489301D01*
X107942172Y-140415786D01*
X107729621Y-140305335D01*
X107571825Y-140152824D01*
X107462060Y-139953129D01*
X107442973Y-139900203D01*
X107424264Y-139817775D01*
X107432364Y-139736339D01*
X107471777Y-139628000D01*
X107495534Y-139574779D01*
X107573332Y-139433352D01*
X107667066Y-139334132D01*
X107770198Y-139265038D01*
X107976781Y-139175124D01*
X108241164Y-139109993D01*
X108549158Y-139072488D01*
X108772223Y-139064235D01*
X109063852Y-139062741D01*
X109063852Y-140530297D01*
X109585917Y-140530297D01*
X109587773Y-140460070D01*
X109589832Y-140257702D01*
X109590582Y-139995086D01*
X109590667Y-139789734D01*
X109590667Y-138758283D01*
X109498303Y-138665920D01*
X109457312Y-138628481D01*
X109412988Y-138602842D01*
X109351091Y-138586801D01*
X109257379Y-138578155D01*
X109117610Y-138574700D01*
X108917543Y-138574234D01*
X108905637Y-138574249D01*
X108905637Y-138574249D01*
G37*
X108905637Y-138574249D02*
X108475706Y-138588786D01*
X108110030Y-138632869D01*
X107802580Y-138709138D01*
X107547327Y-138820233D01*
X107338242Y-138968792D01*
X107169294Y-139157455D01*
X107034455Y-139388860D01*
X107031803Y-139394503D01*
X106951330Y-139601610D01*
X106922658Y-139785032D01*
X106945895Y-139969625D01*
X107021153Y-140180245D01*
X107035426Y-140212296D01*
X107132759Y-140399886D01*
X107242148Y-140544838D01*
X107383327Y-140668057D01*
X107576033Y-140790451D01*
X107587228Y-140796840D01*
X107754985Y-140877424D01*
X107944596Y-140937607D01*
X108168244Y-140979465D01*
X108438116Y-141005074D01*
X108766394Y-141016509D01*
X108882380Y-141017502D01*
X109434686Y-141019482D01*
X109512677Y-140920333D01*
X109535811Y-140887730D01*
X109553858Y-140849657D01*
X109567448Y-140796984D01*
X109577211Y-140720582D01*
X109583776Y-140611320D01*
X109585917Y-140530297D01*
X109063852Y-140530297D01*
X108750911Y-140530297D01*
X108567787Y-140524942D01*
X108379800Y-140510849D01*
X108225515Y-140490974D01*
X108216202Y-140489301D01*
X107942172Y-140415786D01*
X107729621Y-140305335D01*
X107571825Y-140152824D01*
X107462060Y-139953129D01*
X107442973Y-139900203D01*
X107424264Y-139817775D01*
X107432364Y-139736339D01*
X107471777Y-139628000D01*
X107495534Y-139574779D01*
X107573332Y-139433352D01*
X107667066Y-139334132D01*
X107770198Y-139265038D01*
X107976781Y-139175124D01*
X108241164Y-139109993D01*
X108549158Y-139072488D01*
X108772223Y-139064235D01*
X109063852Y-139062741D01*
X109063852Y-140530297D01*
X109585917Y-140530297D01*
X109587773Y-140460070D01*
X109589832Y-140257702D01*
X109590582Y-139995086D01*
X109590667Y-139789734D01*
X109590667Y-138758283D01*
X109498303Y-138665920D01*
X109457312Y-138628481D01*
X109412988Y-138602842D01*
X109351091Y-138586801D01*
X109257379Y-138578155D01*
X109117610Y-138574700D01*
X108917543Y-138574234D01*
X108905637Y-138574249D01*
G36*
X99817783Y-138580114D02*
G01*
X99752484Y-138603449D01*
X99749965Y-138604591D01*
X99661290Y-138672262D01*
X99612433Y-138741869D01*
X99602873Y-138774506D01*
X99603345Y-138817871D01*
X99616798Y-138879649D01*
X99646178Y-138967522D01*
X99694435Y-139089175D01*
X99764517Y-139252290D01*
X99859372Y-139464551D01*
X99981948Y-139733642D01*
X100049417Y-139880720D01*
X100171249Y-140143285D01*
X100285618Y-140384743D01*
X100388159Y-140596266D01*
X100474508Y-140769027D01*
X100540298Y-140894197D01*
X100581165Y-140962948D01*
X100589252Y-140972445D01*
X100692722Y-141014341D01*
X100809596Y-141008730D01*
X100903333Y-140957774D01*
X100907151Y-140953630D01*
X100944439Y-140897181D01*
X101006987Y-140787232D01*
X101087081Y-140637934D01*
X101177011Y-140463441D01*
X101209330Y-140399139D01*
X101453286Y-139910500D01*
X101719198Y-140441311D01*
X101814111Y-140624716D01*
X101902168Y-140783774D01*
X101976174Y-140906309D01*
X102028937Y-140980146D01*
X102046818Y-140995802D01*
X102185810Y-141017008D01*
X102300502Y-140972445D01*
X102334239Y-140924820D01*
X102392620Y-140818974D01*
X102470883Y-140665323D01*
X102564265Y-140474282D01*
X102668003Y-140256266D01*
X102777335Y-140021690D01*
X102887498Y-139780969D01*
X102993730Y-139544517D01*
X103091268Y-139322752D01*
X103175350Y-139126086D01*
X103241212Y-138964936D01*
X103284093Y-138849716D01*
X103299229Y-138790842D01*
X103299075Y-138788711D01*
X103262246Y-138714628D01*
X103188633Y-138639176D01*
X103184298Y-138635892D01*
X103093823Y-138584751D01*
X103010138Y-138585246D01*
X102978773Y-138594888D01*
X102940553Y-138615725D01*
X102899966Y-138656715D01*
X102852142Y-138726360D01*
X102792213Y-138833163D01*
X102715310Y-138985628D01*
X102616565Y-139192258D01*
X102527516Y-139382994D01*
X102425065Y-139604088D01*
X102333261Y-139802914D01*
X102256874Y-139969084D01*
X102200671Y-140092213D01*
X102169423Y-140161912D01*
X102164866Y-140172815D01*
X102144368Y-140154991D01*
X102097260Y-140080362D01*
X102029809Y-139959820D01*
X101948283Y-139804258D01*
X101915840Y-139740074D01*
X101805941Y-139523347D01*
X101721188Y-139365513D01*
X101654625Y-139257396D01*
X101599298Y-139189820D01*
X101548252Y-139153608D01*
X101494531Y-139139584D01*
X101459523Y-139138000D01*
X101397768Y-139143472D01*
X101343652Y-139166105D01*
X101289883Y-139215221D01*
X101229164Y-139300146D01*
X101154203Y-139430202D01*
X101057703Y-139614715D01*
X101004461Y-139719676D01*
X100918099Y-139886957D01*
X100842777Y-140025680D01*
X100785139Y-140124140D01*
X100751833Y-140170632D01*
X100747304Y-140172568D01*
X100725795Y-140135978D01*
X100677638Y-140040967D01*
X100607657Y-139897479D01*
X100520675Y-139715459D01*
X100421512Y-139504848D01*
X100372733Y-139400238D01*
X100245834Y-139130262D01*
X100143650Y-138922520D01*
X100060876Y-138770236D01*
X99992208Y-138666631D01*
X99932340Y-138604927D01*
X99875966Y-138578348D01*
X99817783Y-138580114D01*
X99817783Y-138580114D01*
G37*
X99817783Y-138580114D02*
X99752484Y-138603449D01*
X99749965Y-138604591D01*
X99661290Y-138672262D01*
X99612433Y-138741869D01*
X99602873Y-138774506D01*
X99603345Y-138817871D01*
X99616798Y-138879649D01*
X99646178Y-138967522D01*
X99694435Y-139089175D01*
X99764517Y-139252290D01*
X99859372Y-139464551D01*
X99981948Y-139733642D01*
X100049417Y-139880720D01*
X100171249Y-140143285D01*
X100285618Y-140384743D01*
X100388159Y-140596266D01*
X100474508Y-140769027D01*
X100540298Y-140894197D01*
X100581165Y-140962948D01*
X100589252Y-140972445D01*
X100692722Y-141014341D01*
X100809596Y-141008730D01*
X100903333Y-140957774D01*
X100907151Y-140953630D01*
X100944439Y-140897181D01*
X101006987Y-140787232D01*
X101087081Y-140637934D01*
X101177011Y-140463441D01*
X101209330Y-140399139D01*
X101453286Y-139910500D01*
X101719198Y-140441311D01*
X101814111Y-140624716D01*
X101902168Y-140783774D01*
X101976174Y-140906309D01*
X102028937Y-140980146D01*
X102046818Y-140995802D01*
X102185810Y-141017008D01*
X102300502Y-140972445D01*
X102334239Y-140924820D01*
X102392620Y-140818974D01*
X102470883Y-140665323D01*
X102564265Y-140474282D01*
X102668003Y-140256266D01*
X102777335Y-140021690D01*
X102887498Y-139780969D01*
X102993730Y-139544517D01*
X103091268Y-139322752D01*
X103175350Y-139126086D01*
X103241212Y-138964936D01*
X103284093Y-138849716D01*
X103299229Y-138790842D01*
X103299075Y-138788711D01*
X103262246Y-138714628D01*
X103188633Y-138639176D01*
X103184298Y-138635892D01*
X103093823Y-138584751D01*
X103010138Y-138585246D01*
X102978773Y-138594888D01*
X102940553Y-138615725D01*
X102899966Y-138656715D01*
X102852142Y-138726360D01*
X102792213Y-138833163D01*
X102715310Y-138985628D01*
X102616565Y-139192258D01*
X102527516Y-139382994D01*
X102425065Y-139604088D01*
X102333261Y-139802914D01*
X102256874Y-139969084D01*
X102200671Y-140092213D01*
X102169423Y-140161912D01*
X102164866Y-140172815D01*
X102144368Y-140154991D01*
X102097260Y-140080362D01*
X102029809Y-139959820D01*
X101948283Y-139804258D01*
X101915840Y-139740074D01*
X101805941Y-139523347D01*
X101721188Y-139365513D01*
X101654625Y-139257396D01*
X101599298Y-139189820D01*
X101548252Y-139153608D01*
X101494531Y-139139584D01*
X101459523Y-139138000D01*
X101397768Y-139143472D01*
X101343652Y-139166105D01*
X101289883Y-139215221D01*
X101229164Y-139300146D01*
X101154203Y-139430202D01*
X101057703Y-139614715D01*
X101004461Y-139719676D01*
X100918099Y-139886957D01*
X100842777Y-140025680D01*
X100785139Y-140124140D01*
X100751833Y-140170632D01*
X100747304Y-140172568D01*
X100725795Y-140135978D01*
X100677638Y-140040967D01*
X100607657Y-139897479D01*
X100520675Y-139715459D01*
X100421512Y-139504848D01*
X100372733Y-139400238D01*
X100245834Y-139130262D01*
X100143650Y-138922520D01*
X100060876Y-138770236D01*
X99992208Y-138666631D01*
X99932340Y-138604927D01*
X99875966Y-138578348D01*
X99817783Y-138580114D01*
G36*
X98337953Y-138596256D02*
G01*
X98258910Y-138645490D01*
X98170074Y-138717425D01*
X98170074Y-139789244D01*
X98170357Y-140102766D01*
X98171569Y-140349774D01*
X98174254Y-140539013D01*
X98178957Y-140679227D01*
X98186222Y-140779160D01*
X98196595Y-140847558D01*
X98210619Y-140893163D01*
X98228839Y-140924722D01*
X98241758Y-140940272D01*
X98346554Y-141008582D01*
X98465889Y-141005796D01*
X98570424Y-140947547D01*
X98659260Y-140875613D01*
X98659260Y-138717425D01*
X98570424Y-138645490D01*
X98484685Y-138593164D01*
X98414667Y-138573556D01*
X98337953Y-138596256D01*
X98337953Y-138596256D01*
G37*
X98337953Y-138596256D02*
X98258910Y-138645490D01*
X98170074Y-138717425D01*
X98170074Y-139789244D01*
X98170357Y-140102766D01*
X98171569Y-140349774D01*
X98174254Y-140539013D01*
X98178957Y-140679227D01*
X98186222Y-140779160D01*
X98196595Y-140847558D01*
X98210619Y-140893163D01*
X98228839Y-140924722D01*
X98241758Y-140940272D01*
X98346554Y-141008582D01*
X98465889Y-141005796D01*
X98570424Y-140947547D01*
X98659260Y-140875613D01*
X98659260Y-138717425D01*
X98570424Y-138645490D01*
X98484685Y-138593164D01*
X98414667Y-138573556D01*
X98337953Y-138596256D01*
G36*
X95756450Y-138573878D02*
G01*
X95494092Y-138575139D01*
X95290457Y-138577777D01*
X95137277Y-138582232D01*
X95026285Y-138588944D01*
X94949213Y-138598352D01*
X94897794Y-138610896D01*
X94863761Y-138627016D01*
X94847291Y-138639408D01*
X94761811Y-138747860D01*
X94751470Y-138860462D01*
X94804295Y-138962754D01*
X94838839Y-139003630D01*
X94876012Y-139031501D01*
X94929884Y-139048858D01*
X95014525Y-139058190D01*
X95144007Y-139061987D01*
X95332399Y-139062737D01*
X95369398Y-139062741D01*
X95855852Y-139062741D01*
X95855852Y-139965852D01*
X95856173Y-140250514D01*
X95857628Y-140469547D01*
X95860959Y-140632580D01*
X95866905Y-140749243D01*
X95876209Y-140829165D01*
X95889611Y-140881975D01*
X95907850Y-140917304D01*
X95931112Y-140944223D01*
X96040887Y-141010374D01*
X96155485Y-141005162D01*
X96259411Y-140929687D01*
X96267047Y-140920333D01*
X96291904Y-140884974D01*
X96310842Y-140843603D01*
X96324662Y-140786167D01*
X96334165Y-140702613D01*
X96340152Y-140582889D01*
X96343426Y-140416943D01*
X96344786Y-140194722D01*
X96345037Y-139941963D01*
X96345037Y-139062741D01*
X96809576Y-139062741D01*
X97008927Y-139061392D01*
X97146940Y-139056135D01*
X97237505Y-139045155D01*
X97294513Y-139026639D01*
X97331856Y-138998771D01*
X97336391Y-138993926D01*
X97390916Y-138883131D01*
X97386094Y-138757874D01*
X97323408Y-138648815D01*
X97299165Y-138627661D01*
X97267909Y-138610887D01*
X97221304Y-138597988D01*
X97151013Y-138588455D01*
X97048703Y-138581783D01*
X96906038Y-138577465D01*
X96714682Y-138574993D01*
X96466300Y-138573860D01*
X96152557Y-138573561D01*
X96085799Y-138573556D01*
X95756450Y-138573878D01*
X95756450Y-138573878D01*
G37*
X95756450Y-138573878D02*
X95494092Y-138575139D01*
X95290457Y-138577777D01*
X95137277Y-138582232D01*
X95026285Y-138588944D01*
X94949213Y-138598352D01*
X94897794Y-138610896D01*
X94863761Y-138627016D01*
X94847291Y-138639408D01*
X94761811Y-138747860D01*
X94751470Y-138860462D01*
X94804295Y-138962754D01*
X94838839Y-139003630D01*
X94876012Y-139031501D01*
X94929884Y-139048858D01*
X95014525Y-139058190D01*
X95144007Y-139061987D01*
X95332399Y-139062737D01*
X95369398Y-139062741D01*
X95855852Y-139062741D01*
X95855852Y-139965852D01*
X95856173Y-140250514D01*
X95857628Y-140469547D01*
X95860959Y-140632580D01*
X95866905Y-140749243D01*
X95876209Y-140829165D01*
X95889611Y-140881975D01*
X95907850Y-140917304D01*
X95931112Y-140944223D01*
X96040887Y-141010374D01*
X96155485Y-141005162D01*
X96259411Y-140929687D01*
X96267047Y-140920333D01*
X96291904Y-140884974D01*
X96310842Y-140843603D01*
X96324662Y-140786167D01*
X96334165Y-140702613D01*
X96340152Y-140582889D01*
X96343426Y-140416943D01*
X96344786Y-140194722D01*
X96345037Y-139941963D01*
X96345037Y-139062741D01*
X96809576Y-139062741D01*
X97008927Y-139061392D01*
X97146940Y-139056135D01*
X97237505Y-139045155D01*
X97294513Y-139026639D01*
X97331856Y-138998771D01*
X97336391Y-138993926D01*
X97390916Y-138883131D01*
X97386094Y-138757874D01*
X97323408Y-138648815D01*
X97299165Y-138627661D01*
X97267909Y-138610887D01*
X97221304Y-138597988D01*
X97151013Y-138588455D01*
X97048703Y-138581783D01*
X96906038Y-138577465D01*
X96714682Y-138574993D01*
X96466300Y-138573860D01*
X96152557Y-138573561D01*
X96085799Y-138573556D01*
X95756450Y-138573878D01*
G36*
X91537255Y-138591777D02*
G01*
X91432660Y-138665920D01*
X91340297Y-138758283D01*
X91340297Y-139789734D01*
X91340538Y-140095998D01*
X91341682Y-140336133D01*
X91344358Y-140519268D01*
X91349197Y-140654533D01*
X91356827Y-140751057D01*
X91367880Y-140817971D01*
X91382983Y-140864403D01*
X91402768Y-140899484D01*
X91418287Y-140920333D01*
X91520724Y-141002245D01*
X91638345Y-141011136D01*
X91745850Y-140960904D01*
X91781373Y-140931248D01*
X91805119Y-140891855D01*
X91819441Y-140828421D01*
X91826696Y-140726640D01*
X91829239Y-140572206D01*
X91829482Y-140452904D01*
X91829482Y-140003482D01*
X93485186Y-140003482D01*
X93485186Y-140412333D01*
X93486898Y-140599289D01*
X93493748Y-140727776D01*
X93508307Y-140814538D01*
X93533146Y-140876323D01*
X93563176Y-140920333D01*
X93666186Y-141002015D01*
X93782680Y-141011687D01*
X93894205Y-140953630D01*
X93924653Y-140923195D01*
X93946158Y-140882849D01*
X93960342Y-140820002D01*
X93968827Y-140722068D01*
X93973236Y-140576457D01*
X93975189Y-140370583D01*
X93975418Y-140323334D01*
X93977030Y-139935436D01*
X93977862Y-139615757D01*
X93977591Y-139357256D01*
X93975897Y-139152895D01*
X93972459Y-138995634D01*
X93966957Y-138878434D01*
X93959069Y-138794255D01*
X93948475Y-138736057D01*
X93934854Y-138696802D01*
X93917886Y-138669449D01*
X93899112Y-138648815D01*
X93792907Y-138582812D01*
X93682144Y-138591777D01*
X93577549Y-138665920D01*
X93535224Y-138713754D01*
X93508245Y-138766592D01*
X93493191Y-138841846D01*
X93486645Y-138956928D01*
X93485187Y-139129252D01*
X93485186Y-139136290D01*
X93485186Y-139514297D01*
X91829482Y-139514297D01*
X91829482Y-139119186D01*
X91827792Y-138937159D01*
X91821007Y-138814249D01*
X91806548Y-138734357D01*
X91781842Y-138681383D01*
X91754223Y-138648815D01*
X91648018Y-138582812D01*
X91537255Y-138591777D01*
X91537255Y-138591777D01*
G37*
X91537255Y-138591777D02*
X91432660Y-138665920D01*
X91340297Y-138758283D01*
X91340297Y-139789734D01*
X91340538Y-140095998D01*
X91341682Y-140336133D01*
X91344358Y-140519268D01*
X91349197Y-140654533D01*
X91356827Y-140751057D01*
X91367880Y-140817971D01*
X91382983Y-140864403D01*
X91402768Y-140899484D01*
X91418287Y-140920333D01*
X91520724Y-141002245D01*
X91638345Y-141011136D01*
X91745850Y-140960904D01*
X91781373Y-140931248D01*
X91805119Y-140891855D01*
X91819441Y-140828421D01*
X91826696Y-140726640D01*
X91829239Y-140572206D01*
X91829482Y-140452904D01*
X91829482Y-140003482D01*
X93485186Y-140003482D01*
X93485186Y-140412333D01*
X93486898Y-140599289D01*
X93493748Y-140727776D01*
X93508307Y-140814538D01*
X93533146Y-140876323D01*
X93563176Y-140920333D01*
X93666186Y-141002015D01*
X93782680Y-141011687D01*
X93894205Y-140953630D01*
X93924653Y-140923195D01*
X93946158Y-140882849D01*
X93960342Y-140820002D01*
X93968827Y-140722068D01*
X93973236Y-140576457D01*
X93975189Y-140370583D01*
X93975418Y-140323334D01*
X93977030Y-139935436D01*
X93977862Y-139615757D01*
X93977591Y-139357256D01*
X93975897Y-139152895D01*
X93972459Y-138995634D01*
X93966957Y-138878434D01*
X93959069Y-138794255D01*
X93948475Y-138736057D01*
X93934854Y-138696802D01*
X93917886Y-138669449D01*
X93899112Y-138648815D01*
X93792907Y-138582812D01*
X93682144Y-138591777D01*
X93577549Y-138665920D01*
X93535224Y-138713754D01*
X93508245Y-138766592D01*
X93493191Y-138841846D01*
X93486645Y-138956928D01*
X93485187Y-139129252D01*
X93485186Y-139136290D01*
X93485186Y-139514297D01*
X91829482Y-139514297D01*
X91829482Y-139119186D01*
X91827792Y-138937159D01*
X91821007Y-138814249D01*
X91806548Y-138734357D01*
X91781842Y-138681383D01*
X91754223Y-138648815D01*
X91648018Y-138582812D01*
X91537255Y-138591777D01*
G36*
X121338074Y-117374740D02*
G01*
X120996237Y-117493262D01*
X120677974Y-117679815D01*
X120393738Y-117934375D01*
X120153979Y-118256918D01*
X120046279Y-118460215D01*
X119953070Y-118744572D01*
X119907892Y-119072851D01*
X119912896Y-119410342D01*
X119968444Y-119716166D01*
X120120269Y-120089873D01*
X120340430Y-120414037D01*
X120617736Y-120682279D01*
X120940996Y-120888222D01*
X121299023Y-121025487D01*
X121680625Y-121087695D01*
X122074612Y-121068470D01*
X122268818Y-121027383D01*
X122647308Y-120880151D01*
X122983469Y-120655483D01*
X123269191Y-120360305D01*
X123496366Y-120001544D01*
X123515586Y-119962365D01*
X123582029Y-119815342D01*
X123623748Y-119691517D01*
X123646398Y-119560892D01*
X123655636Y-119393466D01*
X123657169Y-119211290D01*
X123654634Y-118992414D01*
X123643190Y-118834182D01*
X123617083Y-118706254D01*
X123570554Y-118578289D01*
X123513121Y-118452039D01*
X123298896Y-118093650D01*
X123035086Y-117803466D01*
X122732144Y-117581461D01*
X122400521Y-117427610D01*
X122050667Y-117341890D01*
X121693034Y-117324275D01*
X121338074Y-117374740D01*
X121338074Y-117374740D01*
G37*
X121338074Y-117374740D02*
X120996237Y-117493262D01*
X120677974Y-117679815D01*
X120393738Y-117934375D01*
X120153979Y-118256918D01*
X120046279Y-118460215D01*
X119953070Y-118744572D01*
X119907892Y-119072851D01*
X119912896Y-119410342D01*
X119968444Y-119716166D01*
X120120269Y-120089873D01*
X120340430Y-120414037D01*
X120617736Y-120682279D01*
X120940996Y-120888222D01*
X121299023Y-121025487D01*
X121680625Y-121087695D01*
X122074612Y-121068470D01*
X122268818Y-121027383D01*
X122647308Y-120880151D01*
X122983469Y-120655483D01*
X123269191Y-120360305D01*
X123496366Y-120001544D01*
X123515586Y-119962365D01*
X123582029Y-119815342D01*
X123623748Y-119691517D01*
X123646398Y-119560892D01*
X123655636Y-119393466D01*
X123657169Y-119211290D01*
X123654634Y-118992414D01*
X123643190Y-118834182D01*
X123617083Y-118706254D01*
X123570554Y-118578289D01*
X123513121Y-118452039D01*
X123298896Y-118093650D01*
X123035086Y-117803466D01*
X122732144Y-117581461D01*
X122400521Y-117427610D01*
X122050667Y-117341890D01*
X121693034Y-117324275D01*
X121338074Y-117374740D01*
G36*
X89615055Y-120426030D02*
G01*
X89227910Y-120427618D01*
X89096327Y-120428420D01*
X87286918Y-120440322D01*
X87264158Y-127382079D01*
X87261152Y-128323401D01*
X87258486Y-129178107D01*
X87255990Y-129950619D01*
X87253490Y-130645356D01*
X87250818Y-131266742D01*
X87247800Y-131819198D01*
X87244267Y-132307144D01*
X87240046Y-132735003D01*
X87234967Y-133107196D01*
X87228858Y-133428145D01*
X87221548Y-133702271D01*
X87212866Y-133933996D01*
X87202640Y-134127741D01*
X87190700Y-134287927D01*
X87176874Y-134418977D01*
X87160991Y-134525311D01*
X87142879Y-134611352D01*
X87122368Y-134681520D01*
X87099286Y-134740238D01*
X87073462Y-134791926D01*
X87044725Y-134841007D01*
X87012903Y-134891901D01*
X86977825Y-134949031D01*
X86970635Y-134961199D01*
X86850007Y-135167036D01*
X90336739Y-135143190D01*
X90359499Y-134760237D01*
X90371891Y-134576455D01*
X90384805Y-134470204D01*
X90402328Y-134428044D01*
X90428546Y-134436537D01*
X90450538Y-134460830D01*
X90546339Y-134549319D01*
X90702478Y-134663061D01*
X90896958Y-134788466D01*
X91107781Y-134911944D01*
X91312947Y-135019905D01*
X91470478Y-135090935D01*
X91839543Y-135207658D01*
X92262989Y-135290340D01*
X92709556Y-135335824D01*
X93147982Y-135340948D01*
X93547008Y-135302554D01*
X93553578Y-135301455D01*
X94099578Y-135164449D01*
X94610687Y-134946167D01*
X95081976Y-134651301D01*
X95508513Y-134284543D01*
X95885370Y-133850585D01*
X96207617Y-133354120D01*
X96470324Y-132799839D01*
X96613360Y-132389247D01*
X96707685Y-132045742D01*
X96777636Y-131713112D01*
X96825351Y-131371150D01*
X96852969Y-130999651D01*
X96862629Y-130578408D01*
X96858351Y-130234436D01*
X93499457Y-130234436D01*
X93483563Y-130811220D01*
X93433422Y-131307445D01*
X93347494Y-131727516D01*
X93224236Y-132075836D01*
X93062104Y-132356811D01*
X92859556Y-132574843D01*
X92625757Y-132728975D01*
X92504100Y-132786515D01*
X92398588Y-132821012D01*
X92280954Y-132836794D01*
X92122929Y-132838192D01*
X91952689Y-132832047D01*
X91617898Y-132802517D01*
X91353109Y-132744689D01*
X91269893Y-132715722D01*
X91079875Y-132630170D01*
X90879462Y-132522738D01*
X90791936Y-132468960D01*
X90564337Y-132319675D01*
X90564337Y-127587843D01*
X90814696Y-127437775D01*
X91163847Y-127268204D01*
X91520569Y-127167919D01*
X91871817Y-127136326D01*
X92204545Y-127172836D01*
X92505705Y-127276855D01*
X92762252Y-127447793D01*
X92845031Y-127529843D01*
X93044563Y-127798686D01*
X93206060Y-128124118D01*
X93330871Y-128511718D01*
X93420345Y-128967064D01*
X93475834Y-129495735D01*
X93498685Y-130103307D01*
X93499457Y-130234436D01*
X96858351Y-130234436D01*
X96856569Y-130091260D01*
X96818196Y-129341931D01*
X96741037Y-128666046D01*
X96623059Y-128053761D01*
X96462231Y-127495229D01*
X96256521Y-126980605D01*
X96183114Y-126828036D01*
X95887432Y-126330494D01*
X95530116Y-125888346D01*
X95119568Y-125508729D01*
X94664187Y-125198780D01*
X94172377Y-124965637D01*
X93877568Y-124869464D01*
X93588036Y-124812370D01*
X93239659Y-124778401D01*
X92861643Y-124767542D01*
X92483192Y-124779777D01*
X92133513Y-124815091D01*
X91852747Y-124870492D01*
X91518571Y-124979136D01*
X91194675Y-125118845D01*
X90911292Y-125275466D01*
X90760465Y-125381763D01*
X90656427Y-125460806D01*
X90583578Y-125508935D01*
X90567007Y-125515770D01*
X90561869Y-125471735D01*
X90557078Y-125345565D01*
X90552741Y-125146164D01*
X90548964Y-124882437D01*
X90545853Y-124563289D01*
X90543515Y-124197623D01*
X90542054Y-123794344D01*
X90541578Y-123383578D01*
X90541844Y-122857459D01*
X90543153Y-122413895D01*
X90546269Y-122044401D01*
X90551958Y-121740493D01*
X90560985Y-121493687D01*
X90574114Y-121295498D01*
X90592111Y-121137442D01*
X90615741Y-121011034D01*
X90645768Y-120907790D01*
X90682958Y-120819226D01*
X90728077Y-120736858D01*
X90781888Y-120652201D01*
X90788811Y-120641719D01*
X90858215Y-120532075D01*
X90900117Y-120456679D01*
X90905735Y-120440776D01*
X90861829Y-120435758D01*
X90736552Y-120431676D01*
X90539571Y-120428597D01*
X90280551Y-120426585D01*
X89969157Y-120425707D01*
X89615055Y-120426030D01*
X89615055Y-120426030D01*
G37*
X89615055Y-120426030D02*
X89227910Y-120427618D01*
X89096327Y-120428420D01*
X87286918Y-120440322D01*
X87264158Y-127382079D01*
X87261152Y-128323401D01*
X87258486Y-129178107D01*
X87255990Y-129950619D01*
X87253490Y-130645356D01*
X87250818Y-131266742D01*
X87247800Y-131819198D01*
X87244267Y-132307144D01*
X87240046Y-132735003D01*
X87234967Y-133107196D01*
X87228858Y-133428145D01*
X87221548Y-133702271D01*
X87212866Y-133933996D01*
X87202640Y-134127741D01*
X87190700Y-134287927D01*
X87176874Y-134418977D01*
X87160991Y-134525311D01*
X87142879Y-134611352D01*
X87122368Y-134681520D01*
X87099286Y-134740238D01*
X87073462Y-134791926D01*
X87044725Y-134841007D01*
X87012903Y-134891901D01*
X86977825Y-134949031D01*
X86970635Y-134961199D01*
X86850007Y-135167036D01*
X90336739Y-135143190D01*
X90359499Y-134760237D01*
X90371891Y-134576455D01*
X90384805Y-134470204D01*
X90402328Y-134428044D01*
X90428546Y-134436537D01*
X90450538Y-134460830D01*
X90546339Y-134549319D01*
X90702478Y-134663061D01*
X90896958Y-134788466D01*
X91107781Y-134911944D01*
X91312947Y-135019905D01*
X91470478Y-135090935D01*
X91839543Y-135207658D01*
X92262989Y-135290340D01*
X92709556Y-135335824D01*
X93147982Y-135340948D01*
X93547008Y-135302554D01*
X93553578Y-135301455D01*
X94099578Y-135164449D01*
X94610687Y-134946167D01*
X95081976Y-134651301D01*
X95508513Y-134284543D01*
X95885370Y-133850585D01*
X96207617Y-133354120D01*
X96470324Y-132799839D01*
X96613360Y-132389247D01*
X96707685Y-132045742D01*
X96777636Y-131713112D01*
X96825351Y-131371150D01*
X96852969Y-130999651D01*
X96862629Y-130578408D01*
X96858351Y-130234436D01*
X93499457Y-130234436D01*
X93483563Y-130811220D01*
X93433422Y-131307445D01*
X93347494Y-131727516D01*
X93224236Y-132075836D01*
X93062104Y-132356811D01*
X92859556Y-132574843D01*
X92625757Y-132728975D01*
X92504100Y-132786515D01*
X92398588Y-132821012D01*
X92280954Y-132836794D01*
X92122929Y-132838192D01*
X91952689Y-132832047D01*
X91617898Y-132802517D01*
X91353109Y-132744689D01*
X91269893Y-132715722D01*
X91079875Y-132630170D01*
X90879462Y-132522738D01*
X90791936Y-132468960D01*
X90564337Y-132319675D01*
X90564337Y-127587843D01*
X90814696Y-127437775D01*
X91163847Y-127268204D01*
X91520569Y-127167919D01*
X91871817Y-127136326D01*
X92204545Y-127172836D01*
X92505705Y-127276855D01*
X92762252Y-127447793D01*
X92845031Y-127529843D01*
X93044563Y-127798686D01*
X93206060Y-128124118D01*
X93330871Y-128511718D01*
X93420345Y-128967064D01*
X93475834Y-129495735D01*
X93498685Y-130103307D01*
X93499457Y-130234436D01*
X96858351Y-130234436D01*
X96856569Y-130091260D01*
X96818196Y-129341931D01*
X96741037Y-128666046D01*
X96623059Y-128053761D01*
X96462231Y-127495229D01*
X96256521Y-126980605D01*
X96183114Y-126828036D01*
X95887432Y-126330494D01*
X95530116Y-125888346D01*
X95119568Y-125508729D01*
X94664187Y-125198780D01*
X94172377Y-124965637D01*
X93877568Y-124869464D01*
X93588036Y-124812370D01*
X93239659Y-124778401D01*
X92861643Y-124767542D01*
X92483192Y-124779777D01*
X92133513Y-124815091D01*
X91852747Y-124870492D01*
X91518571Y-124979136D01*
X91194675Y-125118845D01*
X90911292Y-125275466D01*
X90760465Y-125381763D01*
X90656427Y-125460806D01*
X90583578Y-125508935D01*
X90567007Y-125515770D01*
X90561869Y-125471735D01*
X90557078Y-125345565D01*
X90552741Y-125146164D01*
X90548964Y-124882437D01*
X90545853Y-124563289D01*
X90543515Y-124197623D01*
X90542054Y-123794344D01*
X90541578Y-123383578D01*
X90541844Y-122857459D01*
X90543153Y-122413895D01*
X90546269Y-122044401D01*
X90551958Y-121740493D01*
X90560985Y-121493687D01*
X90574114Y-121295498D01*
X90592111Y-121137442D01*
X90615741Y-121011034D01*
X90645768Y-120907790D01*
X90682958Y-120819226D01*
X90728077Y-120736858D01*
X90781888Y-120652201D01*
X90788811Y-120641719D01*
X90858215Y-120532075D01*
X90900117Y-120456679D01*
X90905735Y-120440776D01*
X90861829Y-120435758D01*
X90736552Y-120431676D01*
X90539571Y-120428597D01*
X90280551Y-120426585D01*
X89969157Y-120425707D01*
X89615055Y-120426030D01*
G36*
X101798415Y-124760613D02*
G01*
X101572880Y-124777685D01*
X100927597Y-124863537D01*
X100356131Y-125000471D01*
X99855700Y-125190371D01*
X99423519Y-125435120D01*
X99056806Y-125736603D01*
X98752777Y-126096704D01*
X98508648Y-126517307D01*
X98330381Y-126972401D01*
X98285131Y-127117569D01*
X98245727Y-127253512D01*
X98211705Y-127387548D01*
X98182601Y-127526998D01*
X98157950Y-127679180D01*
X98137287Y-127851412D01*
X98120149Y-128051015D01*
X98106070Y-128285305D01*
X98094586Y-128561603D01*
X98085232Y-128887227D01*
X98077544Y-129269496D01*
X98071057Y-129715729D01*
X98065308Y-130233245D01*
X98059830Y-130829363D01*
X98055914Y-131296774D01*
X98029570Y-134505914D01*
X97858871Y-134814739D01*
X97778041Y-134963518D01*
X97717890Y-135079080D01*
X97689194Y-135140590D01*
X97688173Y-135144757D01*
X97732033Y-135149525D01*
X97856982Y-135153919D01*
X98053065Y-135157814D01*
X98310333Y-135161088D01*
X98618833Y-135163616D01*
X98968612Y-135165275D01*
X99349721Y-135165942D01*
X99395162Y-135165950D01*
X101102151Y-135165950D01*
X101102151Y-134779032D01*
X101105062Y-134604178D01*
X101112829Y-134470451D01*
X101124006Y-134398752D01*
X101128946Y-134392114D01*
X101174128Y-134419917D01*
X101267115Y-134492885D01*
X101387974Y-134595359D01*
X101390684Y-134597730D01*
X101611237Y-134761933D01*
X101889778Y-134926815D01*
X102194833Y-135076177D01*
X102494929Y-135193821D01*
X102627061Y-135234024D01*
X102890015Y-135285086D01*
X103212671Y-135317670D01*
X103565494Y-135331311D01*
X103918947Y-135325545D01*
X104243493Y-135299908D01*
X104470610Y-135263018D01*
X105027576Y-135099460D01*
X105528995Y-134866365D01*
X105971601Y-134566623D01*
X106352132Y-134203127D01*
X106667323Y-133778769D01*
X106913912Y-133296440D01*
X107020292Y-133003763D01*
X107086962Y-132719294D01*
X107131145Y-132377797D01*
X107151588Y-132010773D01*
X107150916Y-131957367D01*
X104072312Y-131957367D01*
X104046783Y-132230088D01*
X103961775Y-132456737D01*
X103804659Y-132667013D01*
X103744315Y-132728672D01*
X103529800Y-132895368D01*
X103281859Y-133002156D01*
X102984811Y-133053849D01*
X102672002Y-133057654D01*
X102375310Y-133032523D01*
X102148146Y-132983368D01*
X102049490Y-132946448D01*
X101871675Y-132845826D01*
X101683271Y-132704315D01*
X101511375Y-132545492D01*
X101383082Y-132392933D01*
X101349015Y-132336969D01*
X101322532Y-132258595D01*
X101303703Y-132133888D01*
X101291652Y-131950933D01*
X101285500Y-131697820D01*
X101284230Y-131456925D01*
X101285090Y-131176073D01*
X101288566Y-130972998D01*
X101295997Y-130834443D01*
X101308724Y-130747154D01*
X101328089Y-130697876D01*
X101355432Y-130673354D01*
X101363889Y-130669449D01*
X101437382Y-130657421D01*
X101582332Y-130647583D01*
X101779166Y-130640822D01*
X102008310Y-130638025D01*
X102058065Y-130638022D01*
X102364357Y-130642910D01*
X102600988Y-130657449D01*
X102789015Y-130683628D01*
X102944329Y-130721863D01*
X103329590Y-130867559D01*
X103631711Y-131046684D01*
X103853309Y-131262103D01*
X103996998Y-131516683D01*
X104065396Y-131813287D01*
X104072312Y-131957367D01*
X107150916Y-131957367D01*
X107147040Y-131649723D01*
X107116246Y-131326148D01*
X107092226Y-131195420D01*
X106938850Y-130710029D01*
X106705627Y-130263423D01*
X106396961Y-129859886D01*
X106017253Y-129503702D01*
X105570905Y-129199153D01*
X105062321Y-128950524D01*
X104629929Y-128799545D01*
X104340943Y-128720226D01*
X104064530Y-128658592D01*
X103782785Y-128612642D01*
X103477804Y-128580374D01*
X103131684Y-128559786D01*
X102726521Y-128548877D01*
X102360213Y-128545805D01*
X101274010Y-128542831D01*
X101294817Y-128216330D01*
X101353905Y-127862071D01*
X101479598Y-127557572D01*
X101666545Y-127310436D01*
X101909394Y-127128266D01*
X102123227Y-127039373D01*
X102429608Y-126983349D01*
X102794343Y-126975304D01*
X103200334Y-127012272D01*
X103630482Y-127091286D01*
X104067691Y-127209382D01*
X104494863Y-127363592D01*
X104805293Y-127504630D01*
X104954648Y-127577052D01*
X105068569Y-127627634D01*
X105126504Y-127647371D01*
X105129649Y-127646738D01*
X105149641Y-127602529D01*
X105199563Y-127485350D01*
X105274717Y-127306425D01*
X105370405Y-127076983D01*
X105481930Y-126808249D01*
X105595293Y-126533992D01*
X106048505Y-125435547D01*
X105726134Y-125382598D01*
X105586409Y-125356031D01*
X105376362Y-125311412D01*
X105113987Y-125252789D01*
X104817278Y-125184214D01*
X104504228Y-125109737D01*
X104379570Y-125079471D01*
X103840270Y-124954385D01*
X103368113Y-124860604D01*
X102945475Y-124796231D01*
X102554730Y-124759371D01*
X102178252Y-124748130D01*
X101798415Y-124760613D01*
X101798415Y-124760613D01*
G37*
X101798415Y-124760613D02*
X101572880Y-124777685D01*
X100927597Y-124863537D01*
X100356131Y-125000471D01*
X99855700Y-125190371D01*
X99423519Y-125435120D01*
X99056806Y-125736603D01*
X98752777Y-126096704D01*
X98508648Y-126517307D01*
X98330381Y-126972401D01*
X98285131Y-127117569D01*
X98245727Y-127253512D01*
X98211705Y-127387548D01*
X98182601Y-127526998D01*
X98157950Y-127679180D01*
X98137287Y-127851412D01*
X98120149Y-128051015D01*
X98106070Y-128285305D01*
X98094586Y-128561603D01*
X98085232Y-128887227D01*
X98077544Y-129269496D01*
X98071057Y-129715729D01*
X98065308Y-130233245D01*
X98059830Y-130829363D01*
X98055914Y-131296774D01*
X98029570Y-134505914D01*
X97858871Y-134814739D01*
X97778041Y-134963518D01*
X97717890Y-135079080D01*
X97689194Y-135140590D01*
X97688173Y-135144757D01*
X97732033Y-135149525D01*
X97856982Y-135153919D01*
X98053065Y-135157814D01*
X98310333Y-135161088D01*
X98618833Y-135163616D01*
X98968612Y-135165275D01*
X99349721Y-135165942D01*
X99395162Y-135165950D01*
X101102151Y-135165950D01*
X101102151Y-134779032D01*
X101105062Y-134604178D01*
X101112829Y-134470451D01*
X101124006Y-134398752D01*
X101128946Y-134392114D01*
X101174128Y-134419917D01*
X101267115Y-134492885D01*
X101387974Y-134595359D01*
X101390684Y-134597730D01*
X101611237Y-134761933D01*
X101889778Y-134926815D01*
X102194833Y-135076177D01*
X102494929Y-135193821D01*
X102627061Y-135234024D01*
X102890015Y-135285086D01*
X103212671Y-135317670D01*
X103565494Y-135331311D01*
X103918947Y-135325545D01*
X104243493Y-135299908D01*
X104470610Y-135263018D01*
X105027576Y-135099460D01*
X105528995Y-134866365D01*
X105971601Y-134566623D01*
X106352132Y-134203127D01*
X106667323Y-133778769D01*
X106913912Y-133296440D01*
X107020292Y-133003763D01*
X107086962Y-132719294D01*
X107131145Y-132377797D01*
X107151588Y-132010773D01*
X107150916Y-131957367D01*
X104072312Y-131957367D01*
X104046783Y-132230088D01*
X103961775Y-132456737D01*
X103804659Y-132667013D01*
X103744315Y-132728672D01*
X103529800Y-132895368D01*
X103281859Y-133002156D01*
X102984811Y-133053849D01*
X102672002Y-133057654D01*
X102375310Y-133032523D01*
X102148146Y-132983368D01*
X102049490Y-132946448D01*
X101871675Y-132845826D01*
X101683271Y-132704315D01*
X101511375Y-132545492D01*
X101383082Y-132392933D01*
X101349015Y-132336969D01*
X101322532Y-132258595D01*
X101303703Y-132133888D01*
X101291652Y-131950933D01*
X101285500Y-131697820D01*
X101284230Y-131456925D01*
X101285090Y-131176073D01*
X101288566Y-130972998D01*
X101295997Y-130834443D01*
X101308724Y-130747154D01*
X101328089Y-130697876D01*
X101355432Y-130673354D01*
X101363889Y-130669449D01*
X101437382Y-130657421D01*
X101582332Y-130647583D01*
X101779166Y-130640822D01*
X102008310Y-130638025D01*
X102058065Y-130638022D01*
X102364357Y-130642910D01*
X102600988Y-130657449D01*
X102789015Y-130683628D01*
X102944329Y-130721863D01*
X103329590Y-130867559D01*
X103631711Y-131046684D01*
X103853309Y-131262103D01*
X103996998Y-131516683D01*
X104065396Y-131813287D01*
X104072312Y-131957367D01*
X107150916Y-131957367D01*
X107147040Y-131649723D01*
X107116246Y-131326148D01*
X107092226Y-131195420D01*
X106938850Y-130710029D01*
X106705627Y-130263423D01*
X106396961Y-129859886D01*
X106017253Y-129503702D01*
X105570905Y-129199153D01*
X105062321Y-128950524D01*
X104629929Y-128799545D01*
X104340943Y-128720226D01*
X104064530Y-128658592D01*
X103782785Y-128612642D01*
X103477804Y-128580374D01*
X103131684Y-128559786D01*
X102726521Y-128548877D01*
X102360213Y-128545805D01*
X101274010Y-128542831D01*
X101294817Y-128216330D01*
X101353905Y-127862071D01*
X101479598Y-127557572D01*
X101666545Y-127310436D01*
X101909394Y-127128266D01*
X102123227Y-127039373D01*
X102429608Y-126983349D01*
X102794343Y-126975304D01*
X103200334Y-127012272D01*
X103630482Y-127091286D01*
X104067691Y-127209382D01*
X104494863Y-127363592D01*
X104805293Y-127504630D01*
X104954648Y-127577052D01*
X105068569Y-127627634D01*
X105126504Y-127647371D01*
X105129649Y-127646738D01*
X105149641Y-127602529D01*
X105199563Y-127485350D01*
X105274717Y-127306425D01*
X105370405Y-127076983D01*
X105481930Y-126808249D01*
X105595293Y-126533992D01*
X106048505Y-125435547D01*
X105726134Y-125382598D01*
X105586409Y-125356031D01*
X105376362Y-125311412D01*
X105113987Y-125252789D01*
X104817278Y-125184214D01*
X104504228Y-125109737D01*
X104379570Y-125079471D01*
X103840270Y-124954385D01*
X103368113Y-124860604D01*
X102945475Y-124796231D01*
X102554730Y-124759371D01*
X102178252Y-124748130D01*
X101798415Y-124760613D01*
G36*
X110841345Y-121101295D02*
G01*
X110350490Y-121155032D01*
X109874934Y-121251216D01*
X109395333Y-121394862D01*
X108892340Y-121590989D01*
X108346610Y-121844612D01*
X108248331Y-121893739D01*
X108022794Y-122004850D01*
X107810081Y-122104899D01*
X107631187Y-122184332D01*
X107507106Y-122233592D01*
X107488045Y-122239794D01*
X107305377Y-122294523D01*
X108123074Y-123484089D01*
X108322990Y-123774825D01*
X108505769Y-124040450D01*
X108665195Y-124271947D01*
X108795052Y-124460297D01*
X108889125Y-124596483D01*
X108941198Y-124671485D01*
X108949658Y-124683364D01*
X108984019Y-124658528D01*
X109068601Y-124583867D01*
X109188277Y-124472942D01*
X109254324Y-124410245D01*
X109628529Y-124112613D01*
X110048789Y-123886446D01*
X110410932Y-123762562D01*
X110628321Y-123723655D01*
X110900511Y-123699946D01*
X111195489Y-123691873D01*
X111481240Y-123699877D01*
X111725752Y-123724397D01*
X111823322Y-123743175D01*
X112263088Y-123894474D01*
X112659370Y-124125493D01*
X113011874Y-124435808D01*
X113320306Y-124824998D01*
X113584374Y-125292640D01*
X113803784Y-125838312D01*
X113978243Y-126461591D01*
X114081925Y-126995161D01*
X114108976Y-127230711D01*
X114127406Y-127535007D01*
X114137395Y-127886182D01*
X114139121Y-128262370D01*
X114132761Y-128641703D01*
X114118494Y-129002314D01*
X114096498Y-129322337D01*
X114066950Y-129579904D01*
X114060554Y-129619644D01*
X113919582Y-130259767D01*
X113727507Y-130826306D01*
X113483162Y-131321797D01*
X113185376Y-131748780D01*
X112974000Y-131979625D01*
X112594124Y-132293046D01*
X112177520Y-132525367D01*
X111731216Y-132675325D01*
X111262239Y-132741656D01*
X110777617Y-132723095D01*
X110284378Y-132618377D01*
X109992767Y-132515912D01*
X109589224Y-132310727D01*
X109173300Y-132016395D01*
X108940318Y-131817353D01*
X108809498Y-131702151D01*
X108706716Y-131617632D01*
X108648212Y-131576906D01*
X108640950Y-131575663D01*
X108614838Y-131617278D01*
X108547179Y-131727247D01*
X108443738Y-131896142D01*
X108310278Y-132114536D01*
X108152562Y-132373000D01*
X107976356Y-132662108D01*
X107878277Y-132823160D01*
X107129122Y-134053669D01*
X108064472Y-134515916D01*
X108402660Y-134681954D01*
X108676621Y-134812882D01*
X108903101Y-134915204D01*
X109098848Y-134995422D01*
X109280606Y-135060038D01*
X109465123Y-135115555D01*
X109669144Y-135168476D01*
X109864696Y-135214949D01*
X110038508Y-135250909D01*
X110220280Y-135278085D01*
X110428211Y-135297985D01*
X110680495Y-135312116D01*
X110995332Y-135321987D01*
X111207527Y-135326248D01*
X111510295Y-135329156D01*
X111800611Y-135327690D01*
X112059262Y-135322267D01*
X112267037Y-135313306D01*
X112404723Y-135301225D01*
X112412882Y-135300020D01*
X113127848Y-135145341D01*
X113799251Y-134910749D01*
X114426853Y-134596398D01*
X115010419Y-134202444D01*
X115549713Y-133729040D01*
X116044499Y-133176342D01*
X116402835Y-132685125D01*
X116784315Y-132042164D01*
X117092685Y-131363159D01*
X117329436Y-130642667D01*
X117496060Y-129875243D01*
X117594047Y-129055445D01*
X117624918Y-128222999D01*
X117599528Y-127417723D01*
X117519740Y-126674737D01*
X117383019Y-125981509D01*
X117186828Y-125325506D01*
X116928634Y-124694196D01*
X116897804Y-124628791D01*
X116558157Y-124017399D01*
X116140996Y-123435599D01*
X115658141Y-122895433D01*
X115121410Y-122408944D01*
X114542623Y-121988174D01*
X114003311Y-121679524D01*
X113458493Y-121437783D01*
X112912518Y-121262672D01*
X112344252Y-121149421D01*
X111732558Y-121093267D01*
X111366846Y-121084987D01*
X110841345Y-121101295D01*
X110841345Y-121101295D01*
G37*
X110841345Y-121101295D02*
X110350490Y-121155032D01*
X109874934Y-121251216D01*
X109395333Y-121394862D01*
X108892340Y-121590989D01*
X108346610Y-121844612D01*
X108248331Y-121893739D01*
X108022794Y-122004850D01*
X107810081Y-122104899D01*
X107631187Y-122184332D01*
X107507106Y-122233592D01*
X107488045Y-122239794D01*
X107305377Y-122294523D01*
X108123074Y-123484089D01*
X108322990Y-123774825D01*
X108505769Y-124040450D01*
X108665195Y-124271947D01*
X108795052Y-124460297D01*
X108889125Y-124596483D01*
X108941198Y-124671485D01*
X108949658Y-124683364D01*
X108984019Y-124658528D01*
X109068601Y-124583867D01*
X109188277Y-124472942D01*
X109254324Y-124410245D01*
X109628529Y-124112613D01*
X110048789Y-123886446D01*
X110410932Y-123762562D01*
X110628321Y-123723655D01*
X110900511Y-123699946D01*
X111195489Y-123691873D01*
X111481240Y-123699877D01*
X111725752Y-123724397D01*
X111823322Y-123743175D01*
X112263088Y-123894474D01*
X112659370Y-124125493D01*
X113011874Y-124435808D01*
X113320306Y-124824998D01*
X113584374Y-125292640D01*
X113803784Y-125838312D01*
X113978243Y-126461591D01*
X114081925Y-126995161D01*
X114108976Y-127230711D01*
X114127406Y-127535007D01*
X114137395Y-127886182D01*
X114139121Y-128262370D01*
X114132761Y-128641703D01*
X114118494Y-129002314D01*
X114096498Y-129322337D01*
X114066950Y-129579904D01*
X114060554Y-129619644D01*
X113919582Y-130259767D01*
X113727507Y-130826306D01*
X113483162Y-131321797D01*
X113185376Y-131748780D01*
X112974000Y-131979625D01*
X112594124Y-132293046D01*
X112177520Y-132525367D01*
X111731216Y-132675325D01*
X111262239Y-132741656D01*
X110777617Y-132723095D01*
X110284378Y-132618377D01*
X109992767Y-132515912D01*
X109589224Y-132310727D01*
X109173300Y-132016395D01*
X108940318Y-131817353D01*
X108809498Y-131702151D01*
X108706716Y-131617632D01*
X108648212Y-131576906D01*
X108640950Y-131575663D01*
X108614838Y-131617278D01*
X108547179Y-131727247D01*
X108443738Y-131896142D01*
X108310278Y-132114536D01*
X108152562Y-132373000D01*
X107976356Y-132662108D01*
X107878277Y-132823160D01*
X107129122Y-134053669D01*
X108064472Y-134515916D01*
X108402660Y-134681954D01*
X108676621Y-134812882D01*
X108903101Y-134915204D01*
X109098848Y-134995422D01*
X109280606Y-135060038D01*
X109465123Y-135115555D01*
X109669144Y-135168476D01*
X109864696Y-135214949D01*
X110038508Y-135250909D01*
X110220280Y-135278085D01*
X110428211Y-135297985D01*
X110680495Y-135312116D01*
X110995332Y-135321987D01*
X111207527Y-135326248D01*
X111510295Y-135329156D01*
X111800611Y-135327690D01*
X112059262Y-135322267D01*
X112267037Y-135313306D01*
X112404723Y-135301225D01*
X112412882Y-135300020D01*
X113127848Y-135145341D01*
X113799251Y-134910749D01*
X114426853Y-134596398D01*
X115010419Y-134202444D01*
X115549713Y-133729040D01*
X116044499Y-133176342D01*
X116402835Y-132685125D01*
X116784315Y-132042164D01*
X117092685Y-131363159D01*
X117329436Y-130642667D01*
X117496060Y-129875243D01*
X117594047Y-129055445D01*
X117624918Y-128222999D01*
X117599528Y-127417723D01*
X117519740Y-126674737D01*
X117383019Y-125981509D01*
X117186828Y-125325506D01*
X116928634Y-124694196D01*
X116897804Y-124628791D01*
X116558157Y-124017399D01*
X116140996Y-123435599D01*
X115658141Y-122895433D01*
X115121410Y-122408944D01*
X114542623Y-121988174D01*
X114003311Y-121679524D01*
X113458493Y-121437783D01*
X112912518Y-121262672D01*
X112344252Y-121149421D01*
X111732558Y-121093267D01*
X111366846Y-121084987D01*
X110841345Y-121101295D01*
G36*
X132045743Y-118824236D02*
G01*
X131168739Y-118824354D01*
X130760505Y-118824372D01*
X124226165Y-118824372D01*
X124226165Y-119209556D01*
X124185053Y-119678293D01*
X124060973Y-120110598D01*
X123852810Y-120509040D01*
X123559450Y-120876189D01*
X123460197Y-120975349D01*
X123103159Y-121256618D01*
X122709482Y-121461754D01*
X122290861Y-121590850D01*
X121858988Y-121643999D01*
X121425555Y-121621294D01*
X121002255Y-121522828D01*
X120600781Y-121348696D01*
X120232826Y-121098988D01*
X120067572Y-120948335D01*
X119759622Y-120578960D01*
X119533806Y-120172769D01*
X119392094Y-119734404D01*
X119336453Y-119268510D01*
X119335714Y-119222677D01*
X119332796Y-118824387D01*
X119157741Y-118824380D01*
X119002450Y-118845455D01*
X118860593Y-118896734D01*
X118851218Y-118902032D01*
X118819179Y-118918656D01*
X118789757Y-118931603D01*
X118762847Y-118944644D01*
X118738342Y-118961550D01*
X118716135Y-118986092D01*
X118696120Y-119022041D01*
X118678192Y-119073169D01*
X118662243Y-119143245D01*
X118648168Y-119236043D01*
X118635859Y-119355332D01*
X118625212Y-119504884D01*
X118616118Y-119688469D01*
X118608473Y-119909860D01*
X118602169Y-120172827D01*
X118597100Y-120481141D01*
X118593161Y-120838573D01*
X118590244Y-121248895D01*
X118588244Y-121715878D01*
X118587054Y-122243292D01*
X118586567Y-122834909D01*
X118586678Y-123494501D01*
X118587279Y-124225837D01*
X118588266Y-125032689D01*
X118589531Y-125918829D01*
X118590968Y-126888028D01*
X118592470Y-127944056D01*
X118592645Y-128072715D01*
X118593992Y-129135478D01*
X118595135Y-130110971D01*
X118596195Y-131002964D01*
X118597294Y-131815226D01*
X118598551Y-132551528D01*
X118600088Y-133215637D01*
X118602027Y-133811324D01*
X118604488Y-134342359D01*
X118607592Y-134812509D01*
X118611460Y-135225546D01*
X118616214Y-135585238D01*
X118621975Y-135895355D01*
X118628863Y-136159666D01*
X118637000Y-136381940D01*
X118646506Y-136565948D01*
X118657503Y-136715458D01*
X118670112Y-136834240D01*
X118684454Y-136926063D01*
X118700650Y-136994696D01*
X118718821Y-137043910D01*
X118739088Y-137077474D01*
X118761572Y-137099156D01*
X118786394Y-137112726D01*
X118813676Y-137121955D01*
X118843538Y-137130610D01*
X118876101Y-137142462D01*
X118884056Y-137146070D01*
X118909057Y-137154177D01*
X118950901Y-137161626D01*
X119013243Y-137168443D01*
X119099736Y-137174655D01*
X119214033Y-137180288D01*
X119359788Y-137185368D01*
X119540656Y-137189923D01*
X119760290Y-137193979D01*
X120022343Y-137197561D01*
X120330469Y-137200698D01*
X120688322Y-137203415D01*
X121099556Y-137205739D01*
X121567824Y-137207696D01*
X122096780Y-137209312D01*
X122690077Y-137210616D01*
X123351370Y-137211632D01*
X124084313Y-137212387D01*
X124892558Y-137212909D01*
X125779760Y-137213223D01*
X126749571Y-137213355D01*
X127805647Y-137213334D01*
X128147740Y-137213300D01*
X129227244Y-137213127D01*
X130219407Y-137212844D01*
X131127925Y-137212421D01*
X131956495Y-137211831D01*
X132708816Y-137211044D01*
X133388585Y-137210031D01*
X133999499Y-137208763D01*
X134545256Y-137207212D01*
X135029552Y-137205349D01*
X135456086Y-137203144D01*
X135828555Y-137200569D01*
X136150656Y-137197595D01*
X136426087Y-137194193D01*
X136658545Y-137190334D01*
X136851728Y-137185990D01*
X137009332Y-137181130D01*
X137135056Y-137175727D01*
X137232597Y-137169752D01*
X137305652Y-137163176D01*
X137357919Y-137155969D01*
X137393095Y-137148103D01*
X137412271Y-137140900D01*
X137446352Y-137126527D01*
X137477645Y-137115928D01*
X137506267Y-137105339D01*
X137532337Y-137090995D01*
X137555974Y-137069133D01*
X137577295Y-137035989D01*
X137596420Y-136987799D01*
X137613467Y-136920798D01*
X137628554Y-136831222D01*
X137641800Y-136715308D01*
X137653323Y-136569290D01*
X137663242Y-136389407D01*
X137671675Y-136171892D01*
X137678741Y-135912982D01*
X137684558Y-135608913D01*
X137689245Y-135255921D01*
X137690472Y-135120430D01*
X136475601Y-135120430D01*
X132181645Y-135120430D01*
X132264268Y-134995251D01*
X132346462Y-134866613D01*
X132416066Y-134744116D01*
X132474068Y-134619187D01*
X132521461Y-134483255D01*
X132559233Y-134327746D01*
X132588375Y-134144088D01*
X132609876Y-133923708D01*
X132624728Y-133658033D01*
X132633919Y-133338492D01*
X132638440Y-132956512D01*
X132639281Y-132503519D01*
X132637432Y-131970943D01*
X132636383Y-131773220D01*
X132624552Y-129653539D01*
X131281721Y-131481684D01*
X130901299Y-132000306D01*
X130571709Y-132451905D01*
X130289391Y-132842464D01*
X130050789Y-133177967D01*
X129852341Y-133464395D01*
X129690491Y-133707733D01*
X129561678Y-133913964D01*
X129462344Y-134089069D01*
X129388931Y-134239033D01*
X129337879Y-134369838D01*
X129305630Y-134487467D01*
X129288625Y-134597903D01*
X129283305Y-134707129D01*
X129286112Y-134821128D01*
X129286828Y-134835457D01*
X129301613Y-135120621D01*
X126948727Y-135120525D01*
X124595841Y-135120430D01*
X124945860Y-134767499D01*
X125040840Y-134670970D01*
X125130943Y-134577042D01*
X125220126Y-134480537D01*
X125312340Y-134376274D01*
X125411542Y-134259072D01*
X125521685Y-134123752D01*
X125646723Y-133965134D01*
X125790612Y-133778038D01*
X125957304Y-133557283D01*
X126150756Y-133297689D01*
X126374920Y-132994077D01*
X126633751Y-132641266D01*
X126931204Y-132234077D01*
X127271232Y-131767328D01*
X127657791Y-131235841D01*
X127974636Y-130799866D01*
X128372287Y-130252153D01*
X128719180Y-129773262D01*
X129018457Y-129358645D01*
X129273261Y-129003756D01*
X129486734Y-128704049D01*
X129662019Y-128454977D01*
X129802259Y-128251993D01*
X129910595Y-128090551D01*
X129990171Y-127966104D01*
X130044128Y-127874105D01*
X130075610Y-127810007D01*
X130087759Y-127769264D01*
X130084107Y-127747844D01*
X130039855Y-127690840D01*
X129944180Y-127570180D01*
X129802855Y-127393034D01*
X129621653Y-127166575D01*
X129406346Y-126897974D01*
X129162709Y-126594404D01*
X128896514Y-126263037D01*
X128613534Y-125911045D01*
X128319542Y-125545599D01*
X128020311Y-125173872D01*
X127855725Y-124969534D01*
X123769246Y-124969534D01*
X123429570Y-125584050D01*
X123429570Y-134505914D01*
X123769246Y-135120430D01*
X121760185Y-135120430D01*
X121280568Y-135120290D01*
X120884411Y-135119661D01*
X120564136Y-135118225D01*
X120312163Y-135115666D01*
X120120914Y-135111667D01*
X119982809Y-135105911D01*
X119890269Y-135098081D01*
X119835716Y-135087862D01*
X119811571Y-135074935D01*
X119810254Y-135058985D01*
X119824188Y-135039695D01*
X119824332Y-135039536D01*
X119881726Y-134956512D01*
X119957728Y-134821517D01*
X120024846Y-134686758D01*
X120152151Y-134414874D01*
X120165135Y-129692204D01*
X120178118Y-124969534D01*
X123769246Y-124969534D01*
X127855725Y-124969534D01*
X127721615Y-124803035D01*
X127429226Y-124440261D01*
X127148916Y-124092722D01*
X126886461Y-123767589D01*
X126647631Y-123472035D01*
X126438201Y-123213231D01*
X126263943Y-122998350D01*
X126130631Y-122834563D01*
X126052329Y-122739068D01*
X125748272Y-122381967D01*
X125455753Y-122059717D01*
X125185026Y-121782866D01*
X124946341Y-121561966D01*
X124776952Y-121426535D01*
X124576664Y-121282437D01*
X129183066Y-121282437D01*
X129181773Y-121552744D01*
X129194647Y-121751471D01*
X129243047Y-121935711D01*
X129317970Y-122110360D01*
X129366673Y-122209026D01*
X129419038Y-122306791D01*
X129479847Y-122410144D01*
X129553885Y-122525576D01*
X129645935Y-122659576D01*
X129760781Y-122818636D01*
X129903205Y-123009244D01*
X130077992Y-123237892D01*
X130289925Y-123511070D01*
X130543788Y-123835267D01*
X130844364Y-124216974D01*
X131196436Y-124662681D01*
X131236201Y-124712972D01*
X132624552Y-126468658D01*
X132637993Y-124524203D01*
X132640699Y-123941782D01*
X132640123Y-123448717D01*
X132636236Y-123043383D01*
X132629011Y-122724154D01*
X132618418Y-122489406D01*
X132604431Y-122337513D01*
X132599730Y-122308700D01*
X132525973Y-122005195D01*
X132429336Y-121731584D01*
X132319061Y-121511590D01*
X132252812Y-121418286D01*
X132138503Y-121282437D01*
X134307422Y-121282437D01*
X134824808Y-121282879D01*
X135257462Y-121284319D01*
X135611689Y-121286924D01*
X135893794Y-121290862D01*
X136110080Y-121296301D01*
X136266851Y-121303409D01*
X136370413Y-121312354D01*
X136427069Y-121323305D01*
X136443123Y-121336430D01*
X136442013Y-121339337D01*
X136396034Y-121408739D01*
X136319273Y-121518747D01*
X136279559Y-121574384D01*
X136238498Y-121629906D01*
X136201592Y-121679557D01*
X136168606Y-121728222D01*
X136139309Y-121780789D01*
X136113468Y-121842144D01*
X136090851Y-121917172D01*
X136071226Y-122010759D01*
X136054360Y-122127792D01*
X136040021Y-122273157D01*
X136027976Y-122451739D01*
X136017993Y-122668425D01*
X136009840Y-122928102D01*
X136003285Y-123235654D01*
X135998094Y-123595969D01*
X135994036Y-124013932D01*
X135990879Y-124494430D01*
X135988389Y-125042348D01*
X135986335Y-125662572D01*
X135984483Y-126359989D01*
X135982603Y-127139486D01*
X135980846Y-127855590D01*
X135979186Y-128653921D01*
X135978324Y-129415604D01*
X135978235Y-130135773D01*
X135978896Y-130809563D01*
X135980286Y-131432108D01*
X135982381Y-131998544D01*
X135985157Y-132504006D01*
X135988593Y-132943628D01*
X135992665Y-133312545D01*
X135997350Y-133605892D01*
X136002626Y-133818804D01*
X136008469Y-133946416D01*
X136009575Y-133959902D01*
X136049841Y-134269280D01*
X136112706Y-134517744D01*
X136208439Y-134734584D01*
X136347314Y-134949087D01*
X136364685Y-134972491D01*
X136475601Y-135120430D01*
X137690472Y-135120430D01*
X137692920Y-134850242D01*
X137695701Y-134388111D01*
X137697707Y-133865765D01*
X137699057Y-133279440D01*
X137699869Y-132625371D01*
X137700260Y-131899795D01*
X137700351Y-131098947D01*
X137700260Y-130219063D01*
X137700104Y-129256379D01*
X137700003Y-128207132D01*
X137700000Y-127998835D01*
X137699941Y-126938537D01*
X137699744Y-125965542D01*
X137699380Y-125076113D01*
X137698820Y-124266515D01*
X137698036Y-123533009D01*
X137696997Y-122871860D01*
X137695676Y-122279332D01*
X137694043Y-121751687D01*
X137692069Y-121285189D01*
X137689726Y-120876102D01*
X137686984Y-120520689D01*
X137683814Y-120215214D01*
X137680187Y-119955940D01*
X137676075Y-119739130D01*
X137671448Y-119561049D01*
X137666278Y-119417959D01*
X137660535Y-119306124D01*
X137654191Y-119221807D01*
X137647216Y-119161273D01*
X137639581Y-119120784D01*
X137631258Y-119096604D01*
X137630950Y-119096001D01*
X137613807Y-119059062D01*
X137599529Y-119025620D01*
X137583735Y-118995502D01*
X137562042Y-118968534D01*
X137530072Y-118944543D01*
X137483442Y-118923356D01*
X137417771Y-118904800D01*
X137328679Y-118888701D01*
X137211784Y-118874886D01*
X137062706Y-118863183D01*
X136877062Y-118853417D01*
X136650473Y-118845416D01*
X136378558Y-118839006D01*
X136056934Y-118834015D01*
X135681222Y-118830269D01*
X135247039Y-118827594D01*
X134750006Y-118825818D01*
X134185741Y-118824767D01*
X133549862Y-118824269D01*
X132837990Y-118824149D01*
X132045743Y-118824236D01*
X132045743Y-118824236D01*
G37*
X132045743Y-118824236D02*
X131168739Y-118824354D01*
X130760505Y-118824372D01*
X124226165Y-118824372D01*
X124226165Y-119209556D01*
X124185053Y-119678293D01*
X124060973Y-120110598D01*
X123852810Y-120509040D01*
X123559450Y-120876189D01*
X123460197Y-120975349D01*
X123103159Y-121256618D01*
X122709482Y-121461754D01*
X122290861Y-121590850D01*
X121858988Y-121643999D01*
X121425555Y-121621294D01*
X121002255Y-121522828D01*
X120600781Y-121348696D01*
X120232826Y-121098988D01*
X120067572Y-120948335D01*
X119759622Y-120578960D01*
X119533806Y-120172769D01*
X119392094Y-119734404D01*
X119336453Y-119268510D01*
X119335714Y-119222677D01*
X119332796Y-118824387D01*
X119157741Y-118824380D01*
X119002450Y-118845455D01*
X118860593Y-118896734D01*
X118851218Y-118902032D01*
X118819179Y-118918656D01*
X118789757Y-118931603D01*
X118762847Y-118944644D01*
X118738342Y-118961550D01*
X118716135Y-118986092D01*
X118696120Y-119022041D01*
X118678192Y-119073169D01*
X118662243Y-119143245D01*
X118648168Y-119236043D01*
X118635859Y-119355332D01*
X118625212Y-119504884D01*
X118616118Y-119688469D01*
X118608473Y-119909860D01*
X118602169Y-120172827D01*
X118597100Y-120481141D01*
X118593161Y-120838573D01*
X118590244Y-121248895D01*
X118588244Y-121715878D01*
X118587054Y-122243292D01*
X118586567Y-122834909D01*
X118586678Y-123494501D01*
X118587279Y-124225837D01*
X118588266Y-125032689D01*
X118589531Y-125918829D01*
X118590968Y-126888028D01*
X118592470Y-127944056D01*
X118592645Y-128072715D01*
X118593992Y-129135478D01*
X118595135Y-130110971D01*
X118596195Y-131002964D01*
X118597294Y-131815226D01*
X118598551Y-132551528D01*
X118600088Y-133215637D01*
X118602027Y-133811324D01*
X118604488Y-134342359D01*
X118607592Y-134812509D01*
X118611460Y-135225546D01*
X118616214Y-135585238D01*
X118621975Y-135895355D01*
X118628863Y-136159666D01*
X118637000Y-136381940D01*
X118646506Y-136565948D01*
X118657503Y-136715458D01*
X118670112Y-136834240D01*
X118684454Y-136926063D01*
X118700650Y-136994696D01*
X118718821Y-137043910D01*
X118739088Y-137077474D01*
X118761572Y-137099156D01*
X118786394Y-137112726D01*
X118813676Y-137121955D01*
X118843538Y-137130610D01*
X118876101Y-137142462D01*
X118884056Y-137146070D01*
X118909057Y-137154177D01*
X118950901Y-137161626D01*
X119013243Y-137168443D01*
X119099736Y-137174655D01*
X119214033Y-137180288D01*
X119359788Y-137185368D01*
X119540656Y-137189923D01*
X119760290Y-137193979D01*
X120022343Y-137197561D01*
X120330469Y-137200698D01*
X120688322Y-137203415D01*
X121099556Y-137205739D01*
X121567824Y-137207696D01*
X122096780Y-137209312D01*
X122690077Y-137210616D01*
X123351370Y-137211632D01*
X124084313Y-137212387D01*
X124892558Y-137212909D01*
X125779760Y-137213223D01*
X126749571Y-137213355D01*
X127805647Y-137213334D01*
X128147740Y-137213300D01*
X129227244Y-137213127D01*
X130219407Y-137212844D01*
X131127925Y-137212421D01*
X131956495Y-137211831D01*
X132708816Y-137211044D01*
X133388585Y-137210031D01*
X133999499Y-137208763D01*
X134545256Y-137207212D01*
X135029552Y-137205349D01*
X135456086Y-137203144D01*
X135828555Y-137200569D01*
X136150656Y-137197595D01*
X136426087Y-137194193D01*
X136658545Y-137190334D01*
X136851728Y-137185990D01*
X137009332Y-137181130D01*
X137135056Y-137175727D01*
X137232597Y-137169752D01*
X137305652Y-137163176D01*
X137357919Y-137155969D01*
X137393095Y-137148103D01*
X137412271Y-137140900D01*
X137446352Y-137126527D01*
X137477645Y-137115928D01*
X137506267Y-137105339D01*
X137532337Y-137090995D01*
X137555974Y-137069133D01*
X137577295Y-137035989D01*
X137596420Y-136987799D01*
X137613467Y-136920798D01*
X137628554Y-136831222D01*
X137641800Y-136715308D01*
X137653323Y-136569290D01*
X137663242Y-136389407D01*
X137671675Y-136171892D01*
X137678741Y-135912982D01*
X137684558Y-135608913D01*
X137689245Y-135255921D01*
X137690472Y-135120430D01*
X136475601Y-135120430D01*
X132181645Y-135120430D01*
X132264268Y-134995251D01*
X132346462Y-134866613D01*
X132416066Y-134744116D01*
X132474068Y-134619187D01*
X132521461Y-134483255D01*
X132559233Y-134327746D01*
X132588375Y-134144088D01*
X132609876Y-133923708D01*
X132624728Y-133658033D01*
X132633919Y-133338492D01*
X132638440Y-132956512D01*
X132639281Y-132503519D01*
X132637432Y-131970943D01*
X132636383Y-131773220D01*
X132624552Y-129653539D01*
X131281721Y-131481684D01*
X130901299Y-132000306D01*
X130571709Y-132451905D01*
X130289391Y-132842464D01*
X130050789Y-133177967D01*
X129852341Y-133464395D01*
X129690491Y-133707733D01*
X129561678Y-133913964D01*
X129462344Y-134089069D01*
X129388931Y-134239033D01*
X129337879Y-134369838D01*
X129305630Y-134487467D01*
X129288625Y-134597903D01*
X129283305Y-134707129D01*
X129286112Y-134821128D01*
X129286828Y-134835457D01*
X129301613Y-135120621D01*
X126948727Y-135120525D01*
X124595841Y-135120430D01*
X124945860Y-134767499D01*
X125040840Y-134670970D01*
X125130943Y-134577042D01*
X125220126Y-134480537D01*
X125312340Y-134376274D01*
X125411542Y-134259072D01*
X125521685Y-134123752D01*
X125646723Y-133965134D01*
X125790612Y-133778038D01*
X125957304Y-133557283D01*
X126150756Y-133297689D01*
X126374920Y-132994077D01*
X126633751Y-132641266D01*
X126931204Y-132234077D01*
X127271232Y-131767328D01*
X127657791Y-131235841D01*
X127974636Y-130799866D01*
X128372287Y-130252153D01*
X128719180Y-129773262D01*
X129018457Y-129358645D01*
X129273261Y-129003756D01*
X129486734Y-128704049D01*
X129662019Y-128454977D01*
X129802259Y-128251993D01*
X129910595Y-128090551D01*
X129990171Y-127966104D01*
X130044128Y-127874105D01*
X130075610Y-127810007D01*
X130087759Y-127769264D01*
X130084107Y-127747844D01*
X130039855Y-127690840D01*
X129944180Y-127570180D01*
X129802855Y-127393034D01*
X129621653Y-127166575D01*
X129406346Y-126897974D01*
X129162709Y-126594404D01*
X128896514Y-126263037D01*
X128613534Y-125911045D01*
X128319542Y-125545599D01*
X128020311Y-125173872D01*
X127855725Y-124969534D01*
X123769246Y-124969534D01*
X123429570Y-125584050D01*
X123429570Y-134505914D01*
X123769246Y-135120430D01*
X121760185Y-135120430D01*
X121280568Y-135120290D01*
X120884411Y-135119661D01*
X120564136Y-135118225D01*
X120312163Y-135115666D01*
X120120914Y-135111667D01*
X119982809Y-135105911D01*
X119890269Y-135098081D01*
X119835716Y-135087862D01*
X119811571Y-135074935D01*
X119810254Y-135058985D01*
X119824188Y-135039695D01*
X119824332Y-135039536D01*
X119881726Y-134956512D01*
X119957728Y-134821517D01*
X120024846Y-134686758D01*
X120152151Y-134414874D01*
X120165135Y-129692204D01*
X120178118Y-124969534D01*
X123769246Y-124969534D01*
X127855725Y-124969534D01*
X127721615Y-124803035D01*
X127429226Y-124440261D01*
X127148916Y-124092722D01*
X126886461Y-123767589D01*
X126647631Y-123472035D01*
X126438201Y-123213231D01*
X126263943Y-122998350D01*
X126130631Y-122834563D01*
X126052329Y-122739068D01*
X125748272Y-122381967D01*
X125455753Y-122059717D01*
X125185026Y-121782866D01*
X124946341Y-121561966D01*
X124776952Y-121426535D01*
X124576664Y-121282437D01*
X129183066Y-121282437D01*
X129181773Y-121552744D01*
X129194647Y-121751471D01*
X129243047Y-121935711D01*
X129317970Y-122110360D01*
X129366673Y-122209026D01*
X129419038Y-122306791D01*
X129479847Y-122410144D01*
X129553885Y-122525576D01*
X129645935Y-122659576D01*
X129760781Y-122818636D01*
X129903205Y-123009244D01*
X130077992Y-123237892D01*
X130289925Y-123511070D01*
X130543788Y-123835267D01*
X130844364Y-124216974D01*
X131196436Y-124662681D01*
X131236201Y-124712972D01*
X132624552Y-126468658D01*
X132637993Y-124524203D01*
X132640699Y-123941782D01*
X132640123Y-123448717D01*
X132636236Y-123043383D01*
X132629011Y-122724154D01*
X132618418Y-122489406D01*
X132604431Y-122337513D01*
X132599730Y-122308700D01*
X132525973Y-122005195D01*
X132429336Y-121731584D01*
X132319061Y-121511590D01*
X132252812Y-121418286D01*
X132138503Y-121282437D01*
X134307422Y-121282437D01*
X134824808Y-121282879D01*
X135257462Y-121284319D01*
X135611689Y-121286924D01*
X135893794Y-121290862D01*
X136110080Y-121296301D01*
X136266851Y-121303409D01*
X136370413Y-121312354D01*
X136427069Y-121323305D01*
X136443123Y-121336430D01*
X136442013Y-121339337D01*
X136396034Y-121408739D01*
X136319273Y-121518747D01*
X136279559Y-121574384D01*
X136238498Y-121629906D01*
X136201592Y-121679557D01*
X136168606Y-121728222D01*
X136139309Y-121780789D01*
X136113468Y-121842144D01*
X136090851Y-121917172D01*
X136071226Y-122010759D01*
X136054360Y-122127792D01*
X136040021Y-122273157D01*
X136027976Y-122451739D01*
X136017993Y-122668425D01*
X136009840Y-122928102D01*
X136003285Y-123235654D01*
X135998094Y-123595969D01*
X135994036Y-124013932D01*
X135990879Y-124494430D01*
X135988389Y-125042348D01*
X135986335Y-125662572D01*
X135984483Y-126359989D01*
X135982603Y-127139486D01*
X135980846Y-127855590D01*
X135979186Y-128653921D01*
X135978324Y-129415604D01*
X135978235Y-130135773D01*
X135978896Y-130809563D01*
X135980286Y-131432108D01*
X135982381Y-131998544D01*
X135985157Y-132504006D01*
X135988593Y-132943628D01*
X135992665Y-133312545D01*
X135997350Y-133605892D01*
X136002626Y-133818804D01*
X136008469Y-133946416D01*
X136009575Y-133959902D01*
X136049841Y-134269280D01*
X136112706Y-134517744D01*
X136208439Y-134734584D01*
X136347314Y-134949087D01*
X136364685Y-134972491D01*
X136475601Y-135120430D01*
X137690472Y-135120430D01*
X137692920Y-134850242D01*
X137695701Y-134388111D01*
X137697707Y-133865765D01*
X137699057Y-133279440D01*
X137699869Y-132625371D01*
X137700260Y-131899795D01*
X137700351Y-131098947D01*
X137700260Y-130219063D01*
X137700104Y-129256379D01*
X137700003Y-128207132D01*
X137700000Y-127998835D01*
X137699941Y-126938537D01*
X137699744Y-125965542D01*
X137699380Y-125076113D01*
X137698820Y-124266515D01*
X137698036Y-123533009D01*
X137696997Y-122871860D01*
X137695676Y-122279332D01*
X137694043Y-121751687D01*
X137692069Y-121285189D01*
X137689726Y-120876102D01*
X137686984Y-120520689D01*
X137683814Y-120215214D01*
X137680187Y-119955940D01*
X137676075Y-119739130D01*
X137671448Y-119561049D01*
X137666278Y-119417959D01*
X137660535Y-119306124D01*
X137654191Y-119221807D01*
X137647216Y-119161273D01*
X137639581Y-119120784D01*
X137631258Y-119096604D01*
X137630950Y-119096001D01*
X137613807Y-119059062D01*
X137599529Y-119025620D01*
X137583735Y-118995502D01*
X137562042Y-118968534D01*
X137530072Y-118944543D01*
X137483442Y-118923356D01*
X137417771Y-118904800D01*
X137328679Y-118888701D01*
X137211784Y-118874886D01*
X137062706Y-118863183D01*
X136877062Y-118853417D01*
X136650473Y-118845416D01*
X136378558Y-118839006D01*
X136056934Y-118834015D01*
X135681222Y-118830269D01*
X135247039Y-118827594D01*
X134750006Y-118825818D01*
X134185741Y-118824767D01*
X133549862Y-118824269D01*
X132837990Y-118824149D01*
X132045743Y-118824236D01*
D12*
X155000000Y-142200000D02*
X155000000Y-139200000D01*
X152300000Y-142200000D02*
X152300000Y-139200000D01*
X144300000Y-142200000D02*
X144300000Y-139200000D01*
X149700000Y-142200000D02*
X149700000Y-139200000D01*
X147000000Y-142200000D02*
X147000000Y-139200000D01*
X157700000Y-139200000D02*
X157700000Y-142200000D01*
X141700000Y-139200000D02*
X157700000Y-139200000D01*
X141700000Y-142200000D02*
X141700000Y-139200000D01*
X161200000Y-122700000D02*
G75*
G03X161200000Y-122700000I-11500000J0D01*
G01*
X152200000Y-103200000D02*
X152200000Y-106200000D01*
X149700000Y-103200000D02*
X149700000Y-106200000D01*
X147200000Y-103200000D02*
X147200000Y-106200000D01*
X154700000Y-106200000D02*
X154700000Y-103200000D01*
X144700000Y-106200000D02*
X154700000Y-106200000D01*
X144700000Y-103200000D02*
X144700000Y-106200000D01*
X138200000Y-142200000D02*
X138200000Y-103200000D01*
X161200000Y-142200000D02*
X138200000Y-142200000D01*
X161200000Y-103200000D02*
X161200000Y-142200000D01*
X138200000Y-103200000D02*
X161200000Y-103200000D01*
X168600000Y-104870000D02*
X167490000Y-104870000D01*
X167490000Y-104870000D02*
X167490000Y-106200000D01*
X178690000Y-104870000D02*
X178690000Y-115150000D01*
X178690000Y-115150000D02*
X170060000Y-115150000D01*
X170060000Y-104870000D02*
X170060000Y-115150000D01*
X178690000Y-104870000D02*
X170060000Y-104870000D01*
X178690000Y-112550000D02*
X170060000Y-112550000D01*
X178690000Y-110010000D02*
X170060000Y-110010000D01*
X178690000Y-107470000D02*
X170060000Y-107470000D01*
X170060000Y-114180000D02*
X169650000Y-114180000D01*
X170060000Y-113460000D02*
X169650000Y-113460000D01*
X170060000Y-111640000D02*
X169650000Y-111640000D01*
X170060000Y-110920000D02*
X169650000Y-110920000D01*
X170060000Y-109100000D02*
X169650000Y-109100000D01*
X170060000Y-108380000D02*
X169650000Y-108380000D01*
X170060000Y-106560000D02*
X169710000Y-106560000D01*
X170060000Y-105840000D02*
X169710000Y-105840000D01*
X178690000Y-107351900D02*
X170060000Y-107351900D01*
X178690000Y-107233805D02*
X170060000Y-107233805D01*
X178690000Y-107115710D02*
X170060000Y-107115710D01*
X178690000Y-106997615D02*
X170060000Y-106997615D01*
X178690000Y-106879520D02*
X170060000Y-106879520D01*
X178690000Y-106761425D02*
X170060000Y-106761425D01*
X178690000Y-106643330D02*
X170060000Y-106643330D01*
X178690000Y-106525235D02*
X170060000Y-106525235D01*
X178690000Y-106407140D02*
X170060000Y-106407140D01*
X178690000Y-106289045D02*
X170060000Y-106289045D01*
X178690000Y-106170950D02*
X170060000Y-106170950D01*
X178690000Y-106052855D02*
X170060000Y-106052855D01*
X178690000Y-105934760D02*
X170060000Y-105934760D01*
X178690000Y-105816665D02*
X170060000Y-105816665D01*
X178690000Y-105698570D02*
X170060000Y-105698570D01*
X178690000Y-105580475D02*
X170060000Y-105580475D01*
X178690000Y-105462380D02*
X170060000Y-105462380D01*
X178690000Y-105344285D02*
X170060000Y-105344285D01*
X178690000Y-105226190D02*
X170060000Y-105226190D01*
X178690000Y-105108095D02*
X170060000Y-105108095D01*
X178690000Y-104990000D02*
X170060000Y-104990000D01*
D14*
X155950000Y-136688095D02*
X155902380Y-136592857D01*
X155902380Y-136450000D01*
X155950000Y-136307142D01*
X156045238Y-136211904D01*
X156140476Y-136164285D01*
X156330952Y-136116666D01*
X156473809Y-136116666D01*
X156664285Y-136164285D01*
X156759523Y-136211904D01*
X156854761Y-136307142D01*
X156902380Y-136450000D01*
X156902380Y-136545238D01*
X156854761Y-136688095D01*
X156807142Y-136735714D01*
X156473809Y-136735714D01*
X156473809Y-136545238D01*
X156902380Y-137164285D02*
X155902380Y-137164285D01*
X156902380Y-137735714D01*
X155902380Y-137735714D01*
X156902380Y-138211904D02*
X155902380Y-138211904D01*
X155902380Y-138450000D01*
X155950000Y-138592857D01*
X156045238Y-138688095D01*
X156140476Y-138735714D01*
X156330952Y-138783333D01*
X156473809Y-138783333D01*
X156664285Y-138735714D01*
X156759523Y-138688095D01*
X156854761Y-138592857D01*
X156902380Y-138450000D01*
X156902380Y-138211904D01*
X153152380Y-136116666D02*
X154152380Y-136450000D01*
X153152380Y-136783333D01*
X154057142Y-137688095D02*
X154104761Y-137640476D01*
X154152380Y-137497619D01*
X154152380Y-137402380D01*
X154104761Y-137259523D01*
X154009523Y-137164285D01*
X153914285Y-137116666D01*
X153723809Y-137069047D01*
X153580952Y-137069047D01*
X153390476Y-137116666D01*
X153295238Y-137164285D01*
X153200000Y-137259523D01*
X153152380Y-137402380D01*
X153152380Y-137497619D01*
X153200000Y-137640476D01*
X153247619Y-137688095D01*
X154057142Y-138688095D02*
X154104761Y-138640476D01*
X154152380Y-138497619D01*
X154152380Y-138402380D01*
X154104761Y-138259523D01*
X154009523Y-138164285D01*
X153914285Y-138116666D01*
X153723809Y-138069047D01*
X153580952Y-138069047D01*
X153390476Y-138116666D01*
X153295238Y-138164285D01*
X153200000Y-138259523D01*
X153152380Y-138402380D01*
X153152380Y-138497619D01*
X153200000Y-138640476D01*
X153247619Y-138688095D01*
X151354761Y-136235714D02*
X151402380Y-136378571D01*
X151402380Y-136616666D01*
X151354761Y-136711904D01*
X151307142Y-136759523D01*
X151211904Y-136807142D01*
X151116666Y-136807142D01*
X151021428Y-136759523D01*
X150973809Y-136711904D01*
X150926190Y-136616666D01*
X150878571Y-136426190D01*
X150830952Y-136330952D01*
X150783333Y-136283333D01*
X150688095Y-136235714D01*
X150592857Y-136235714D01*
X150497619Y-136283333D01*
X150450000Y-136330952D01*
X150402380Y-136426190D01*
X150402380Y-136664285D01*
X150450000Y-136807142D01*
X151402380Y-137235714D02*
X150402380Y-137235714D01*
X150402380Y-137473809D01*
X150450000Y-137616666D01*
X150545238Y-137711904D01*
X150640476Y-137759523D01*
X150830952Y-137807142D01*
X150973809Y-137807142D01*
X151164285Y-137759523D01*
X151259523Y-137711904D01*
X151354761Y-137616666D01*
X151402380Y-137473809D01*
X151402380Y-137235714D01*
X151116666Y-138188095D02*
X151116666Y-138664285D01*
X151402380Y-138092857D02*
X150402380Y-138426190D01*
X151402380Y-138759523D01*
X148604761Y-136259523D02*
X148652380Y-136402380D01*
X148652380Y-136640476D01*
X148604761Y-136735714D01*
X148557142Y-136783333D01*
X148461904Y-136830952D01*
X148366666Y-136830952D01*
X148271428Y-136783333D01*
X148223809Y-136735714D01*
X148176190Y-136640476D01*
X148128571Y-136450000D01*
X148080952Y-136354761D01*
X148033333Y-136307142D01*
X147938095Y-136259523D01*
X147842857Y-136259523D01*
X147747619Y-136307142D01*
X147700000Y-136354761D01*
X147652380Y-136450000D01*
X147652380Y-136688095D01*
X147700000Y-136830952D01*
X148557142Y-137830952D02*
X148604761Y-137783333D01*
X148652380Y-137640476D01*
X148652380Y-137545238D01*
X148604761Y-137402380D01*
X148509523Y-137307142D01*
X148414285Y-137259523D01*
X148223809Y-137211904D01*
X148080952Y-137211904D01*
X147890476Y-137259523D01*
X147795238Y-137307142D01*
X147700000Y-137402380D01*
X147652380Y-137545238D01*
X147652380Y-137640476D01*
X147700000Y-137783333D01*
X147747619Y-137830952D01*
X148652380Y-138735714D02*
X148652380Y-138259523D01*
X147652380Y-138259523D01*
X146104761Y-136069047D02*
X146152380Y-136211904D01*
X146152380Y-136450000D01*
X146104761Y-136545238D01*
X146057142Y-136592857D01*
X145961904Y-136640476D01*
X145866666Y-136640476D01*
X145771428Y-136592857D01*
X145723809Y-136545238D01*
X145676190Y-136450000D01*
X145628571Y-136259523D01*
X145580952Y-136164285D01*
X145533333Y-136116666D01*
X145438095Y-136069047D01*
X145342857Y-136069047D01*
X145247619Y-136116666D01*
X145200000Y-136164285D01*
X145152380Y-136259523D01*
X145152380Y-136497619D01*
X145200000Y-136640476D01*
X146247619Y-137735714D02*
X146200000Y-137640476D01*
X146104761Y-137545238D01*
X145961904Y-137402380D01*
X145914285Y-137307142D01*
X145914285Y-137211904D01*
X146152380Y-137259523D02*
X146104761Y-137164285D01*
X146009523Y-137069047D01*
X145819047Y-137021428D01*
X145485714Y-137021428D01*
X145295238Y-137069047D01*
X145200000Y-137164285D01*
X145152380Y-137259523D01*
X145152380Y-137450000D01*
X145200000Y-137545238D01*
X145295238Y-137640476D01*
X145485714Y-137688095D01*
X145819047Y-137688095D01*
X146009523Y-137640476D01*
X146104761Y-137545238D01*
X146152380Y-137450000D01*
X146152380Y-137259523D01*
X145152380Y-138021428D02*
X146152380Y-138259523D01*
X145438095Y-138450000D01*
X146152380Y-138640476D01*
X145152380Y-138878571D01*
X142652380Y-136140476D02*
X142652380Y-136759523D01*
X143033333Y-136426190D01*
X143033333Y-136569047D01*
X143080952Y-136664285D01*
X143128571Y-136711904D01*
X143223809Y-136759523D01*
X143461904Y-136759523D01*
X143557142Y-136711904D01*
X143604761Y-136664285D01*
X143652380Y-136569047D01*
X143652380Y-136283333D01*
X143604761Y-136188095D01*
X143557142Y-136140476D01*
X142747619Y-137140476D02*
X142700000Y-137188095D01*
X142652380Y-137283333D01*
X142652380Y-137521428D01*
X142700000Y-137616666D01*
X142747619Y-137664285D01*
X142842857Y-137711904D01*
X142938095Y-137711904D01*
X143080952Y-137664285D01*
X143652380Y-137092857D01*
X143652380Y-137711904D01*
X143652380Y-138140476D02*
X142652380Y-138140476D01*
X143652380Y-138711904D02*
X143080952Y-138283333D01*
X142652380Y-138711904D02*
X143223809Y-138140476D01*
X152950000Y-107438095D02*
X152902380Y-107342857D01*
X152902380Y-107200000D01*
X152950000Y-107057142D01*
X153045238Y-106961904D01*
X153140476Y-106914285D01*
X153330952Y-106866666D01*
X153473809Y-106866666D01*
X153664285Y-106914285D01*
X153759523Y-106961904D01*
X153854761Y-107057142D01*
X153902380Y-107200000D01*
X153902380Y-107295238D01*
X153854761Y-107438095D01*
X153807142Y-107485714D01*
X153473809Y-107485714D01*
X153473809Y-107295238D01*
X153902380Y-107914285D02*
X152902380Y-107914285D01*
X153902380Y-108485714D01*
X152902380Y-108485714D01*
X153902380Y-108961904D02*
X152902380Y-108961904D01*
X152902380Y-109200000D01*
X152950000Y-109342857D01*
X153045238Y-109438095D01*
X153140476Y-109485714D01*
X153330952Y-109533333D01*
X153473809Y-109533333D01*
X153664285Y-109485714D01*
X153759523Y-109438095D01*
X153854761Y-109342857D01*
X153902380Y-109200000D01*
X153902380Y-108961904D01*
X150402380Y-106866666D02*
X151402380Y-107200000D01*
X150402380Y-107533333D01*
X151307142Y-108438095D02*
X151354761Y-108390476D01*
X151402380Y-108247619D01*
X151402380Y-108152380D01*
X151354761Y-108009523D01*
X151259523Y-107914285D01*
X151164285Y-107866666D01*
X150973809Y-107819047D01*
X150830952Y-107819047D01*
X150640476Y-107866666D01*
X150545238Y-107914285D01*
X150450000Y-108009523D01*
X150402380Y-108152380D01*
X150402380Y-108247619D01*
X150450000Y-108390476D01*
X150497619Y-108438095D01*
X151307142Y-109438095D02*
X151354761Y-109390476D01*
X151402380Y-109247619D01*
X151402380Y-109152380D01*
X151354761Y-109009523D01*
X151259523Y-108914285D01*
X151164285Y-108866666D01*
X150973809Y-108819047D01*
X150830952Y-108819047D01*
X150640476Y-108866666D01*
X150545238Y-108914285D01*
X150450000Y-109009523D01*
X150402380Y-109152380D01*
X150402380Y-109247619D01*
X150450000Y-109390476D01*
X150497619Y-109438095D01*
X148854761Y-106885714D02*
X148902380Y-107028571D01*
X148902380Y-107266666D01*
X148854761Y-107361904D01*
X148807142Y-107409523D01*
X148711904Y-107457142D01*
X148616666Y-107457142D01*
X148521428Y-107409523D01*
X148473809Y-107361904D01*
X148426190Y-107266666D01*
X148378571Y-107076190D01*
X148330952Y-106980952D01*
X148283333Y-106933333D01*
X148188095Y-106885714D01*
X148092857Y-106885714D01*
X147997619Y-106933333D01*
X147950000Y-106980952D01*
X147902380Y-107076190D01*
X147902380Y-107314285D01*
X147950000Y-107457142D01*
X148902380Y-107885714D02*
X147902380Y-107885714D01*
X147902380Y-108123809D01*
X147950000Y-108266666D01*
X148045238Y-108361904D01*
X148140476Y-108409523D01*
X148330952Y-108457142D01*
X148473809Y-108457142D01*
X148664285Y-108409523D01*
X148759523Y-108361904D01*
X148854761Y-108266666D01*
X148902380Y-108123809D01*
X148902380Y-107885714D01*
X148616666Y-108838095D02*
X148616666Y-109314285D01*
X148902380Y-108742857D02*
X147902380Y-109076190D01*
X148902380Y-109409523D01*
X146354761Y-106909523D02*
X146402380Y-107052380D01*
X146402380Y-107290476D01*
X146354761Y-107385714D01*
X146307142Y-107433333D01*
X146211904Y-107480952D01*
X146116666Y-107480952D01*
X146021428Y-107433333D01*
X145973809Y-107385714D01*
X145926190Y-107290476D01*
X145878571Y-107100000D01*
X145830952Y-107004761D01*
X145783333Y-106957142D01*
X145688095Y-106909523D01*
X145592857Y-106909523D01*
X145497619Y-106957142D01*
X145450000Y-107004761D01*
X145402380Y-107100000D01*
X145402380Y-107338095D01*
X145450000Y-107480952D01*
X146307142Y-108480952D02*
X146354761Y-108433333D01*
X146402380Y-108290476D01*
X146402380Y-108195238D01*
X146354761Y-108052380D01*
X146259523Y-107957142D01*
X146164285Y-107909523D01*
X145973809Y-107861904D01*
X145830952Y-107861904D01*
X145640476Y-107909523D01*
X145545238Y-107957142D01*
X145450000Y-108052380D01*
X145402380Y-108195238D01*
X145402380Y-108290476D01*
X145450000Y-108433333D01*
X145497619Y-108480952D01*
X146402380Y-109385714D02*
X146402380Y-108909523D01*
X145402380Y-108909523D01*
M02*
