M48
; DRILL file {KiCad (5.1.4)-1} date 9/2/2022 09:53:20
; FORMAT={-:-/ absolute / inch / decimal}
; #@! TF.CreationDate,2022-02-09T09:53:20-03:00
; #@! TF.GenerationSoftware,Kicad,Pcbnew,(5.1.4)-1
; #@! TF.FileFunction,Plated,1,2,PTH
FMAT,2
INCH
T1C0.0157
T2C0.0197
T3C0.0236
T4C0.0295
T5C0.0315
T6C0.0354
T7C0.0394
T8C0.0433
T9C0.0512
T10C0.0591
T11C0.1260
%
G90
G05
T1
X3.7473Y-4.9861
X3.8084Y-4.7415
X3.814Y-4.8282
X3.8943Y-4.7867
X3.9686Y-5.2146
X4.0157Y-4.6834
X4.0515Y-5.1575
X4.0634Y-4.5537
X4.133Y-5.0595
X4.1375Y-5.4755
X4.1521Y-5.098
X4.2113Y-5.4331
X4.2277Y-5.1058
X4.3687Y-5.0395
X4.5228Y-5.3381
X4.5299Y-5.1377
X4.542Y-4.669
X4.5663Y-5.167
X4.5794Y-4.8415
X4.6073Y-5.4252
X4.6346Y-4.5096
X4.6685Y-4.6607
X4.6831Y-4.5152
X4.7351Y-4.5566
X4.7562Y-5.2359
X4.7631Y-4.595
X4.9899Y-4.4516
X5.0174Y-5.0336
X5.0549Y-5.0648
X5.0909Y-5.1041
X5.1137Y-4.2545
X5.1263Y-4.4369
X5.1343Y-5.0978
X5.1414Y-4.1344
X5.189Y-4.2636
X5.2693Y-4.952
X5.2818Y-4.2704
X5.3275Y-5.2837
X5.3447Y-4.6074
X5.3809Y-4.2656
X5.47Y-4.2696
X5.4902Y-4.8522
X5.536Y-4.5807
X5.5475Y-4.3487
X5.5499Y-4.8237
X5.5641Y-4.8999
X5.5916Y-4.3449
X5.772Y-4.8753
X5.9713Y-4.7616
X6.548Y-5.0527
X6.5754Y-4.7893
X6.6687Y-5.0514
X6.6799Y-5.0918
T2
X6.8445Y-6.3386
X6.8722Y-6.2718
X6.8722Y-6.4054
X6.939Y-6.2441
X6.939Y-6.4331
X7.0058Y-6.2718
X7.0058Y-6.4054
X7.0335Y-6.3386
X6.8445Y-2.7165
X6.8722Y-2.6497
X6.8722Y-2.7833
X6.939Y-2.622
X6.939Y-2.811
X7.0058Y-2.6497
X7.0058Y-2.7833
X7.0335Y-2.7165
X3.2224Y-2.7165
X3.2501Y-2.6497
X3.2501Y-2.7833
X3.3169Y-2.622
X3.3169Y-2.811
X3.3837Y-2.6497
X3.3837Y-2.7833
X3.4114Y-2.7165
X3.2028Y-6.3386
X3.2304Y-6.2718
X3.2304Y-6.4054
X3.2972Y-6.2441
X3.2972Y-6.4331
X3.3641Y-6.2718
X3.3641Y-6.4054
X3.3917Y-6.3386
T4
X5.1378Y-3.8961
X5.1378Y-3.9461
X5.1378Y-3.9961
X3.7992Y-3.8961
X3.7992Y-3.9461
X3.7992Y-3.9961
X4.4488Y-3.8961
X4.4488Y-3.9461
X4.4488Y-3.9961
T5
X4.7343Y-5.4953
X4.7343Y-5.7953
X4.8343Y-5.4953
X4.8343Y-5.7953
X5.4528Y-3.7039
X5.4528Y-4.0039
X5.5528Y-3.7039
X5.5528Y-4.0039
X5.6528Y-3.7039
X5.6528Y-4.0039
X4.5409Y-5.9252
X4.9409Y-5.9252
X4.3898Y-4.1488
X4.3898Y-4.4488
X4.4898Y-4.1488
X4.4898Y-4.4488
X6.3622Y-3.1063
X6.3622Y-3.5063
X3.937Y-4.1528
X3.937Y-4.4528
X4.037Y-4.1528
X4.037Y-4.4528
X5.2116Y-3.1191
X5.2116Y-3.5191
X5.0528Y-5.9252
X5.4528Y-5.9252
X3.4449Y-5.8465
X3.4449Y-5.9252
X5.25Y-5.4972
X5.25Y-5.7972
X5.35Y-5.4972
X5.35Y-5.7972
X6.7913Y-3.7039
X6.7913Y-4.0039
X6.8913Y-3.7039
X6.8913Y-4.0039
X6.9913Y-3.7039
X6.9913Y-4.0039
X6.752Y-3.1024
X6.752Y-3.5024
X6.4567Y-3.7039
X6.4567Y-4.0039
X6.5567Y-3.7039
X6.5567Y-4.0039
X6.6567Y-3.7039
X6.6567Y-4.0039
X4.0291Y-5.9272
X4.4291Y-5.9272
X4.1673Y-4.1528
X4.1673Y-4.4528
X4.2673Y-4.1528
X4.2673Y-4.4528
X4.9941Y-5.4972
X4.9941Y-5.7972
X5.0941Y-5.4972
X5.0941Y-5.7972
X5.7874Y-3.7039
X5.7874Y-4.0039
X5.8874Y-3.7039
X5.8874Y-4.0039
X5.9874Y-3.7039
X5.9874Y-4.0039
X5.9695Y-3.1102
X5.9695Y-3.5102
X5.5118Y-5.4972
X5.5118Y-5.7972
X5.6118Y-5.4972
X5.6118Y-5.7972
X6.122Y-3.7039
X6.122Y-4.0039
X6.222Y-3.7039
X6.222Y-4.0039
X6.322Y-3.7039
X6.322Y-4.0039
X5.5817Y-3.1181
X5.5817Y-3.5181
X3.6811Y-5.8465
X3.6811Y-5.9252
X5.5646Y-5.9252
X5.9646Y-5.9252
T6
X4.3898Y-4.6063
X4.3898Y-4.6563
X4.3898Y-4.7063
X4.3898Y-4.7563
T7
X6.9291Y-5.8071
X6.9291Y-5.9071
X6.9291Y-6.0071
X6.3732Y-4.6811
X6.4732Y-4.6811
X6.5732Y-4.6811
X6.6732Y-4.6811
X3.563Y-4.4244
X3.563Y-4.5244
X3.563Y-4.6244
X3.563Y-4.7244
X3.8996Y-3.687
X4.372Y-3.687
X4.5492Y-3.687
X5.0217Y-3.687
X3.6024Y-4.9197
X3.6024Y-5.0197
X6.6929Y-4.311
X6.9921Y-4.311
X6.6732Y-5.2756
X6.6732Y-5.3756
X6.6732Y-5.4756
X6.6732Y-5.5756
X3.25Y-3.687
X3.7224Y-3.687
X6.5059Y-4.2291
X6.5059Y-4.3291
X6.5059Y-4.4291
T8
X5.811Y-3.1819
X5.811Y-3.2819
X5.811Y-3.3819
X3.5728Y-4.1142
X3.5728Y-4.2913
X3.8287Y-4.1142
X3.8287Y-4.2913
X6.2028Y-3.174
X6.2028Y-3.274
X6.2028Y-3.374
X3.2382Y-5.2362
X3.2382Y-5.3362
X3.2382Y-5.4362
X3.2087Y-4.1142
X3.2087Y-4.2913
X3.4646Y-4.1142
X3.4646Y-4.2913
X6.0728Y-5.1512
X6.0728Y-5.5512
X3.2382Y-5.689
X3.2382Y-5.789
X3.2382Y-5.889
X6.9882Y-3.1661
X6.9882Y-3.2661
X6.9882Y-3.3661
X4.1079Y-5.6102
X4.5079Y-5.6102
X6.5925Y-3.172
X6.5925Y-3.272
X6.5925Y-3.372
X5.4331Y-3.1858
X5.4331Y-3.2858
X5.4331Y-3.3858
X6.2303Y-5.1512
X6.2303Y-5.5512
X4.1079Y-5.7677
X4.5079Y-5.7677
T9
X3.248Y-3.2047
X3.4843Y-3.7638
X3.7224Y-3.2067
X5.687Y-6.1909
X5.8839Y-6.1909
X3.9744Y-6.1909
X4.1713Y-6.1909
X4.3681Y-6.1909
X3.5551Y-6.1909
X3.752Y-6.1909
X5.2264Y-2.8622
X5.4232Y-2.8622
X5.6201Y-2.8622
X5.2736Y-6.1909
X5.4705Y-6.1909
X6.185Y-6.1909
X6.3819Y-6.1909
X6.5787Y-6.1909
X4.6161Y-2.8622
X4.813Y-2.8622
X5.0098Y-2.8622
X3.8976Y-3.2047
X4.1339Y-3.7638
X4.372Y-3.2067
X4.5472Y-3.2047
X4.7835Y-3.7638
X5.0217Y-3.2067
X4.6634Y-6.1909
X4.8602Y-6.1909
X5.0571Y-6.1909
X5.8366Y-2.8622
X6.0335Y-2.8622
X6.2303Y-2.8622
X4.0059Y-2.8622
X4.2028Y-2.8622
X4.3996Y-2.8622
T10
X5.8661Y-4.8035
X5.8661Y-5.6102
T11
X6.939Y-6.3386
X6.939Y-2.7165
X3.3169Y-2.7165
X3.2972Y-6.3386
T2
G00X3.2736Y-4.8396
M15
G01X3.2461Y-4.8396
M16
G05
G00X3.2736Y-5.1211
M15
G01X3.2461Y-5.1211
M16
G05
T3
G00X3.372Y-4.8848
M15
G01X3.3642Y-4.8848
M16
G05
G00X3.372Y-5.0758
M15
G01X3.3642Y-5.0758
M16
G05
T0
M30
