G04 #@! TF.GenerationSoftware,KiCad,Pcbnew,(6.0.4)*
G04 #@! TF.CreationDate,2022-05-04T19:00:33-03:00*
G04 #@! TF.ProjectId,P_Inyectores_Rpi_pico,505f496e-7965-4637-946f-7265735f5270,rev?*
G04 #@! TF.SameCoordinates,Original*
G04 #@! TF.FileFunction,Legend,Top*
G04 #@! TF.FilePolarity,Positive*
%FSLAX46Y46*%
G04 Gerber Fmt 4.6, Leading zero omitted, Abs format (unit mm)*
G04 Created by KiCad (PCBNEW (6.0.4)) date 2022-05-04 19:00:33*
%MOMM*%
%LPD*%
G01*
G04 APERTURE LIST*
%ADD10C,0.150000*%
%ADD11C,0.175000*%
%ADD12C,0.125000*%
%ADD13C,0.300000*%
%ADD14C,0.120000*%
G04 APERTURE END LIST*
D10*
X22857142Y-98226190D02*
X22857142Y-99750000D01*
X22095238Y-98988095D02*
X23619047Y-98988095D01*
X22857142Y-103750000D02*
X22857142Y-105273809D01*
X22547619Y-133488095D02*
X23023809Y-133154761D01*
X22547619Y-132916666D02*
X23547619Y-132916666D01*
X23547619Y-133297619D01*
X23500000Y-133392857D01*
X23452380Y-133440476D01*
X23357142Y-133488095D01*
X23214285Y-133488095D01*
X23119047Y-133440476D01*
X23071428Y-133392857D01*
X23023809Y-133297619D01*
X23023809Y-132916666D01*
X22595238Y-134297619D02*
X22547619Y-134202380D01*
X22547619Y-134011904D01*
X22595238Y-133916666D01*
X22690476Y-133869047D01*
X23071428Y-133869047D01*
X23166666Y-133916666D01*
X23214285Y-134011904D01*
X23214285Y-134202380D01*
X23166666Y-134297619D01*
X23071428Y-134345238D01*
X22976190Y-134345238D01*
X22880952Y-133869047D01*
X22547619Y-134916666D02*
X22595238Y-134821428D01*
X22690476Y-134773809D01*
X23547619Y-134773809D01*
X22595238Y-135678571D02*
X22547619Y-135583333D01*
X22547619Y-135392857D01*
X22595238Y-135297619D01*
X22690476Y-135250000D01*
X23071428Y-135250000D01*
X23166666Y-135297619D01*
X23214285Y-135392857D01*
X23214285Y-135583333D01*
X23166666Y-135678571D01*
X23071428Y-135726190D01*
X22976190Y-135726190D01*
X22880952Y-135250000D01*
X23452380Y-136107142D02*
X23500000Y-136154761D01*
X23547619Y-136250000D01*
X23547619Y-136488095D01*
X23500000Y-136583333D01*
X23452380Y-136630952D01*
X23357142Y-136678571D01*
X23261904Y-136678571D01*
X23119047Y-136630952D01*
X22547619Y-136059523D01*
X22547619Y-136678571D01*
X22642857Y-138440476D02*
X22595238Y-138392857D01*
X22547619Y-138250000D01*
X22547619Y-138154761D01*
X22595238Y-138011904D01*
X22690476Y-137916666D01*
X22785714Y-137869047D01*
X22976190Y-137821428D01*
X23119047Y-137821428D01*
X23309523Y-137869047D01*
X23404761Y-137916666D01*
X23500000Y-138011904D01*
X23547619Y-138154761D01*
X23547619Y-138250000D01*
X23500000Y-138392857D01*
X23452380Y-138440476D01*
X22547619Y-139011904D02*
X22595238Y-138916666D01*
X22642857Y-138869047D01*
X22738095Y-138821428D01*
X23023809Y-138821428D01*
X23119047Y-138869047D01*
X23166666Y-138916666D01*
X23214285Y-139011904D01*
X23214285Y-139154761D01*
X23166666Y-139250000D01*
X23119047Y-139297619D01*
X23023809Y-139345238D01*
X22738095Y-139345238D01*
X22642857Y-139297619D01*
X22595238Y-139250000D01*
X22547619Y-139154761D01*
X22547619Y-139011904D01*
X22547619Y-139773809D02*
X23214285Y-139773809D01*
X23119047Y-139773809D02*
X23166666Y-139821428D01*
X23214285Y-139916666D01*
X23214285Y-140059523D01*
X23166666Y-140154761D01*
X23071428Y-140202380D01*
X22547619Y-140202380D01*
X23071428Y-140202380D02*
X23166666Y-140250000D01*
X23214285Y-140345238D01*
X23214285Y-140488095D01*
X23166666Y-140583333D01*
X23071428Y-140630952D01*
X22547619Y-140630952D01*
X23452380Y-141059523D02*
X23500000Y-141107142D01*
X23547619Y-141202380D01*
X23547619Y-141440476D01*
X23500000Y-141535714D01*
X23452380Y-141583333D01*
X23357142Y-141630952D01*
X23261904Y-141630952D01*
X23119047Y-141583333D01*
X22547619Y-141011904D01*
X22547619Y-141630952D01*
X22047619Y-39214285D02*
X22047619Y-38642857D01*
X22047619Y-38928571D02*
X23047619Y-38928571D01*
X22904761Y-38833333D01*
X22809523Y-38738095D01*
X22761904Y-38642857D01*
X22952380Y-39595238D02*
X23000000Y-39642857D01*
X23047619Y-39738095D01*
X23047619Y-39976190D01*
X23000000Y-40071428D01*
X22952380Y-40119047D01*
X22857142Y-40166666D01*
X22761904Y-40166666D01*
X22619047Y-40119047D01*
X22047619Y-39547619D01*
X22047619Y-40166666D01*
X23047619Y-40452380D02*
X22047619Y-40785714D01*
X23047619Y-41119047D01*
X22047619Y-41880952D02*
X23047619Y-41880952D01*
X22095238Y-41880952D02*
X22047619Y-41785714D01*
X22047619Y-41595238D01*
X22095238Y-41500000D01*
X22142857Y-41452380D01*
X22238095Y-41404761D01*
X22523809Y-41404761D01*
X22619047Y-41452380D01*
X22666666Y-41500000D01*
X22714285Y-41595238D01*
X22714285Y-41785714D01*
X22666666Y-41880952D01*
X22095238Y-42785714D02*
X22047619Y-42690476D01*
X22047619Y-42500000D01*
X22095238Y-42404761D01*
X22142857Y-42357142D01*
X22238095Y-42309523D01*
X22523809Y-42309523D01*
X22619047Y-42357142D01*
X22666666Y-42404761D01*
X22714285Y-42500000D01*
X22714285Y-42690476D01*
X22666666Y-42785714D01*
X23000000Y-45261904D02*
X23047619Y-45166666D01*
X23047619Y-45023809D01*
X23000000Y-44880952D01*
X22904761Y-44785714D01*
X22809523Y-44738095D01*
X22619047Y-44690476D01*
X22476190Y-44690476D01*
X22285714Y-44738095D01*
X22190476Y-44785714D01*
X22095238Y-44880952D01*
X22047619Y-45023809D01*
X22047619Y-45119047D01*
X22095238Y-45261904D01*
X22142857Y-45309523D01*
X22476190Y-45309523D01*
X22476190Y-45119047D01*
X22047619Y-45738095D02*
X23047619Y-45738095D01*
X22047619Y-46309523D01*
X23047619Y-46309523D01*
X22047619Y-46785714D02*
X23047619Y-46785714D01*
X23047619Y-47023809D01*
X23000000Y-47166666D01*
X22904761Y-47261904D01*
X22809523Y-47309523D01*
X22619047Y-47357142D01*
X22476190Y-47357142D01*
X22285714Y-47309523D01*
X22190476Y-47261904D01*
X22095238Y-47166666D01*
X22047619Y-47023809D01*
X22047619Y-46785714D01*
D11*
X71783333Y-139428571D02*
X71883333Y-139476190D01*
X71916666Y-139523809D01*
X71950000Y-139619047D01*
X71950000Y-139761904D01*
X71916666Y-139857142D01*
X71883333Y-139904761D01*
X71816666Y-139952380D01*
X71550000Y-139952380D01*
X71550000Y-138952380D01*
X71783333Y-138952380D01*
X71850000Y-139000000D01*
X71883333Y-139047619D01*
X71916666Y-139142857D01*
X71916666Y-139238095D01*
X71883333Y-139333333D01*
X71850000Y-139380952D01*
X71783333Y-139428571D01*
X71550000Y-139428571D01*
X72350000Y-139952380D02*
X72283333Y-139904761D01*
X72250000Y-139857142D01*
X72216666Y-139761904D01*
X72216666Y-139476190D01*
X72250000Y-139380952D01*
X72283333Y-139333333D01*
X72350000Y-139285714D01*
X72450000Y-139285714D01*
X72516666Y-139333333D01*
X72550000Y-139380952D01*
X72583333Y-139476190D01*
X72583333Y-139761904D01*
X72550000Y-139857142D01*
X72516666Y-139904761D01*
X72450000Y-139952380D01*
X72350000Y-139952380D01*
X72883333Y-139952380D02*
X72883333Y-139285714D01*
X72883333Y-139380952D02*
X72916666Y-139333333D01*
X72983333Y-139285714D01*
X73083333Y-139285714D01*
X73150000Y-139333333D01*
X73183333Y-139428571D01*
X73183333Y-139952380D01*
X73183333Y-139428571D02*
X73216666Y-139333333D01*
X73283333Y-139285714D01*
X73383333Y-139285714D01*
X73450000Y-139333333D01*
X73483333Y-139428571D01*
X73483333Y-139952380D01*
X73816666Y-139952380D02*
X73816666Y-138952380D01*
X73816666Y-139333333D02*
X73883333Y-139285714D01*
X74016666Y-139285714D01*
X74083333Y-139333333D01*
X74116666Y-139380952D01*
X74150000Y-139476190D01*
X74150000Y-139761904D01*
X74116666Y-139857142D01*
X74083333Y-139904761D01*
X74016666Y-139952380D01*
X73883333Y-139952380D01*
X73816666Y-139904761D01*
X74750000Y-139952380D02*
X74750000Y-139428571D01*
X74716666Y-139333333D01*
X74650000Y-139285714D01*
X74516666Y-139285714D01*
X74450000Y-139333333D01*
X74750000Y-139904761D02*
X74683333Y-139952380D01*
X74516666Y-139952380D01*
X74450000Y-139904761D01*
X74416666Y-139809523D01*
X74416666Y-139714285D01*
X74450000Y-139619047D01*
X74516666Y-139571428D01*
X74683333Y-139571428D01*
X74750000Y-139523809D01*
X75583333Y-139047619D02*
X75616666Y-139000000D01*
X75683333Y-138952380D01*
X75850000Y-138952380D01*
X75916666Y-139000000D01*
X75950000Y-139047619D01*
X75983333Y-139142857D01*
X75983333Y-139238095D01*
X75950000Y-139380952D01*
X75550000Y-139952380D01*
X75983333Y-139952380D01*
D10*
X133238095Y-97269000D02*
X133142857Y-97235666D01*
X133000000Y-97235666D01*
X132857142Y-97269000D01*
X132761904Y-97335666D01*
X132714285Y-97402333D01*
X132666666Y-97535666D01*
X132666666Y-97635666D01*
X132714285Y-97769000D01*
X132761904Y-97835666D01*
X132857142Y-97902333D01*
X133000000Y-97935666D01*
X133095238Y-97935666D01*
X133238095Y-97902333D01*
X133285714Y-97869000D01*
X133285714Y-97635666D01*
X133095238Y-97635666D01*
X133714285Y-97935666D02*
X133714285Y-97235666D01*
X134285714Y-97935666D01*
X134285714Y-97235666D01*
X134761904Y-97935666D02*
X134761904Y-97235666D01*
X135000000Y-97235666D01*
X135142857Y-97269000D01*
X135238095Y-97335666D01*
X135285714Y-97402333D01*
X135333333Y-97535666D01*
X135333333Y-97635666D01*
X135285714Y-97769000D01*
X135238095Y-97835666D01*
X135142857Y-97902333D01*
X135000000Y-97935666D01*
X134761904Y-97935666D01*
X133238095Y-99489666D02*
X133809523Y-99489666D01*
X133523809Y-100189666D02*
X133523809Y-99489666D01*
X134047619Y-99489666D02*
X134714285Y-100189666D01*
X134714285Y-99489666D02*
X134047619Y-100189666D01*
X133833333Y-102443666D02*
X133500000Y-102110333D01*
X133261904Y-102443666D02*
X133261904Y-101743666D01*
X133642857Y-101743666D01*
X133738095Y-101777000D01*
X133785714Y-101810333D01*
X133833333Y-101877000D01*
X133833333Y-101977000D01*
X133785714Y-102043666D01*
X133738095Y-102077000D01*
X133642857Y-102110333D01*
X133261904Y-102110333D01*
X134166666Y-101743666D02*
X134833333Y-102443666D01*
X134833333Y-101743666D02*
X134166666Y-102443666D01*
X132714285Y-104431000D02*
X133476190Y-104431000D01*
X133095238Y-104697666D02*
X133095238Y-104164333D01*
X134428571Y-103997666D02*
X133952380Y-103997666D01*
X133904761Y-104331000D01*
X133952380Y-104297666D01*
X134047619Y-104264333D01*
X134285714Y-104264333D01*
X134380952Y-104297666D01*
X134428571Y-104331000D01*
X134476190Y-104397666D01*
X134476190Y-104564333D01*
X134428571Y-104631000D01*
X134380952Y-104664333D01*
X134285714Y-104697666D01*
X134047619Y-104697666D01*
X133952380Y-104664333D01*
X133904761Y-104631000D01*
X134761904Y-103997666D02*
X135095238Y-104697666D01*
X135428571Y-103997666D01*
D12*
X67366666Y-70750000D02*
X67300000Y-70702380D01*
X67200000Y-70702380D01*
X67100000Y-70750000D01*
X67033333Y-70845238D01*
X67000000Y-70940476D01*
X66966666Y-71130952D01*
X66966666Y-71273809D01*
X67000000Y-71464285D01*
X67033333Y-71559523D01*
X67100000Y-71654761D01*
X67200000Y-71702380D01*
X67266666Y-71702380D01*
X67366666Y-71654761D01*
X67400000Y-71607142D01*
X67400000Y-71273809D01*
X67266666Y-71273809D01*
X67700000Y-71702380D02*
X67700000Y-70702380D01*
X67966666Y-70702380D01*
X68033333Y-70750000D01*
X68066666Y-70797619D01*
X68100000Y-70892857D01*
X68100000Y-71035714D01*
X68066666Y-71130952D01*
X68033333Y-71178571D01*
X67966666Y-71226190D01*
X67700000Y-71226190D01*
X68400000Y-71702380D02*
X68400000Y-70702380D01*
X68866666Y-70702380D02*
X69000000Y-70702380D01*
X69066666Y-70750000D01*
X69133333Y-70845238D01*
X69166666Y-71035714D01*
X69166666Y-71369047D01*
X69133333Y-71559523D01*
X69066666Y-71654761D01*
X69000000Y-71702380D01*
X68866666Y-71702380D01*
X68800000Y-71654761D01*
X68733333Y-71559523D01*
X68700000Y-71369047D01*
X68700000Y-71035714D01*
X68733333Y-70845238D01*
X68800000Y-70750000D01*
X68866666Y-70702380D01*
X69966666Y-70797619D02*
X70000000Y-70750000D01*
X70066666Y-70702380D01*
X70233333Y-70702380D01*
X70300000Y-70750000D01*
X70333333Y-70797619D01*
X70366666Y-70892857D01*
X70366666Y-70988095D01*
X70333333Y-71130952D01*
X69933333Y-71702380D01*
X70366666Y-71702380D01*
X71033333Y-71702380D02*
X70633333Y-71702380D01*
X70833333Y-71702380D02*
X70833333Y-70702380D01*
X70766666Y-70845238D01*
X70700000Y-70940476D01*
X70633333Y-70988095D01*
X67366666Y-60750000D02*
X67300000Y-60702380D01*
X67200000Y-60702380D01*
X67100000Y-60750000D01*
X67033333Y-60845238D01*
X67000000Y-60940476D01*
X66966666Y-61130952D01*
X66966666Y-61273809D01*
X67000000Y-61464285D01*
X67033333Y-61559523D01*
X67100000Y-61654761D01*
X67200000Y-61702380D01*
X67266666Y-61702380D01*
X67366666Y-61654761D01*
X67400000Y-61607142D01*
X67400000Y-61273809D01*
X67266666Y-61273809D01*
X67700000Y-61702380D02*
X67700000Y-60702380D01*
X67966666Y-60702380D01*
X68033333Y-60750000D01*
X68066666Y-60797619D01*
X68100000Y-60892857D01*
X68100000Y-61035714D01*
X68066666Y-61130952D01*
X68033333Y-61178571D01*
X67966666Y-61226190D01*
X67700000Y-61226190D01*
X68400000Y-61702380D02*
X68400000Y-60702380D01*
X68866666Y-60702380D02*
X69000000Y-60702380D01*
X69066666Y-60750000D01*
X69133333Y-60845238D01*
X69166666Y-61035714D01*
X69166666Y-61369047D01*
X69133333Y-61559523D01*
X69066666Y-61654761D01*
X69000000Y-61702380D01*
X68866666Y-61702380D01*
X68800000Y-61654761D01*
X68733333Y-61559523D01*
X68700000Y-61369047D01*
X68700000Y-61035714D01*
X68733333Y-60845238D01*
X68800000Y-60750000D01*
X68866666Y-60702380D01*
X70366666Y-61702380D02*
X69966666Y-61702380D01*
X70166666Y-61702380D02*
X70166666Y-60702380D01*
X70100000Y-60845238D01*
X70033333Y-60940476D01*
X69966666Y-60988095D01*
X71000000Y-60702380D02*
X70666666Y-60702380D01*
X70633333Y-61178571D01*
X70666666Y-61130952D01*
X70733333Y-61083333D01*
X70900000Y-61083333D01*
X70966666Y-61130952D01*
X71000000Y-61178571D01*
X71033333Y-61273809D01*
X71033333Y-61511904D01*
X71000000Y-61607142D01*
X70966666Y-61654761D01*
X70900000Y-61702380D01*
X70733333Y-61702380D01*
X70666666Y-61654761D01*
X70633333Y-61607142D01*
X67366666Y-63250000D02*
X67300000Y-63202380D01*
X67200000Y-63202380D01*
X67100000Y-63250000D01*
X67033333Y-63345238D01*
X67000000Y-63440476D01*
X66966666Y-63630952D01*
X66966666Y-63773809D01*
X67000000Y-63964285D01*
X67033333Y-64059523D01*
X67100000Y-64154761D01*
X67200000Y-64202380D01*
X67266666Y-64202380D01*
X67366666Y-64154761D01*
X67400000Y-64107142D01*
X67400000Y-63773809D01*
X67266666Y-63773809D01*
X67700000Y-64202380D02*
X67700000Y-63202380D01*
X67966666Y-63202380D01*
X68033333Y-63250000D01*
X68066666Y-63297619D01*
X68100000Y-63392857D01*
X68100000Y-63535714D01*
X68066666Y-63630952D01*
X68033333Y-63678571D01*
X67966666Y-63726190D01*
X67700000Y-63726190D01*
X68400000Y-64202380D02*
X68400000Y-63202380D01*
X68866666Y-63202380D02*
X69000000Y-63202380D01*
X69066666Y-63250000D01*
X69133333Y-63345238D01*
X69166666Y-63535714D01*
X69166666Y-63869047D01*
X69133333Y-64059523D01*
X69066666Y-64154761D01*
X69000000Y-64202380D01*
X68866666Y-64202380D01*
X68800000Y-64154761D01*
X68733333Y-64059523D01*
X68700000Y-63869047D01*
X68700000Y-63535714D01*
X68733333Y-63345238D01*
X68800000Y-63250000D01*
X68866666Y-63202380D01*
X70366666Y-64202380D02*
X69966666Y-64202380D01*
X70166666Y-64202380D02*
X70166666Y-63202380D01*
X70100000Y-63345238D01*
X70033333Y-63440476D01*
X69966666Y-63488095D01*
X70966666Y-63202380D02*
X70833333Y-63202380D01*
X70766666Y-63250000D01*
X70733333Y-63297619D01*
X70666666Y-63440476D01*
X70633333Y-63630952D01*
X70633333Y-64011904D01*
X70666666Y-64107142D01*
X70700000Y-64154761D01*
X70766666Y-64202380D01*
X70900000Y-64202380D01*
X70966666Y-64154761D01*
X71000000Y-64107142D01*
X71033333Y-64011904D01*
X71033333Y-63773809D01*
X71000000Y-63678571D01*
X70966666Y-63630952D01*
X70900000Y-63583333D01*
X70766666Y-63583333D01*
X70700000Y-63630952D01*
X70666666Y-63678571D01*
X70633333Y-63773809D01*
X67366666Y-65750000D02*
X67300000Y-65702380D01*
X67200000Y-65702380D01*
X67100000Y-65750000D01*
X67033333Y-65845238D01*
X67000000Y-65940476D01*
X66966666Y-66130952D01*
X66966666Y-66273809D01*
X67000000Y-66464285D01*
X67033333Y-66559523D01*
X67100000Y-66654761D01*
X67200000Y-66702380D01*
X67266666Y-66702380D01*
X67366666Y-66654761D01*
X67400000Y-66607142D01*
X67400000Y-66273809D01*
X67266666Y-66273809D01*
X67700000Y-66702380D02*
X67700000Y-65702380D01*
X67966666Y-65702380D01*
X68033333Y-65750000D01*
X68066666Y-65797619D01*
X68100000Y-65892857D01*
X68100000Y-66035714D01*
X68066666Y-66130952D01*
X68033333Y-66178571D01*
X67966666Y-66226190D01*
X67700000Y-66226190D01*
X68400000Y-66702380D02*
X68400000Y-65702380D01*
X68866666Y-65702380D02*
X69000000Y-65702380D01*
X69066666Y-65750000D01*
X69133333Y-65845238D01*
X69166666Y-66035714D01*
X69166666Y-66369047D01*
X69133333Y-66559523D01*
X69066666Y-66654761D01*
X69000000Y-66702380D01*
X68866666Y-66702380D01*
X68800000Y-66654761D01*
X68733333Y-66559523D01*
X68700000Y-66369047D01*
X68700000Y-66035714D01*
X68733333Y-65845238D01*
X68800000Y-65750000D01*
X68866666Y-65702380D01*
X70366666Y-66702380D02*
X69966666Y-66702380D01*
X70166666Y-66702380D02*
X70166666Y-65702380D01*
X70100000Y-65845238D01*
X70033333Y-65940476D01*
X69966666Y-65988095D01*
X70600000Y-65702380D02*
X71066666Y-65702380D01*
X70766666Y-66702380D01*
X67366666Y-73500000D02*
X67300000Y-73452380D01*
X67200000Y-73452380D01*
X67100000Y-73500000D01*
X67033333Y-73595238D01*
X67000000Y-73690476D01*
X66966666Y-73880952D01*
X66966666Y-74023809D01*
X67000000Y-74214285D01*
X67033333Y-74309523D01*
X67100000Y-74404761D01*
X67200000Y-74452380D01*
X67266666Y-74452380D01*
X67366666Y-74404761D01*
X67400000Y-74357142D01*
X67400000Y-74023809D01*
X67266666Y-74023809D01*
X67700000Y-74452380D02*
X67700000Y-73452380D01*
X67966666Y-73452380D01*
X68033333Y-73500000D01*
X68066666Y-73547619D01*
X68100000Y-73642857D01*
X68100000Y-73785714D01*
X68066666Y-73880952D01*
X68033333Y-73928571D01*
X67966666Y-73976190D01*
X67700000Y-73976190D01*
X68400000Y-74452380D02*
X68400000Y-73452380D01*
X68866666Y-73452380D02*
X69000000Y-73452380D01*
X69066666Y-73500000D01*
X69133333Y-73595238D01*
X69166666Y-73785714D01*
X69166666Y-74119047D01*
X69133333Y-74309523D01*
X69066666Y-74404761D01*
X69000000Y-74452380D01*
X68866666Y-74452380D01*
X68800000Y-74404761D01*
X68733333Y-74309523D01*
X68700000Y-74119047D01*
X68700000Y-73785714D01*
X68733333Y-73595238D01*
X68800000Y-73500000D01*
X68866666Y-73452380D01*
X69966666Y-73547619D02*
X70000000Y-73500000D01*
X70066666Y-73452380D01*
X70233333Y-73452380D01*
X70300000Y-73500000D01*
X70333333Y-73547619D01*
X70366666Y-73642857D01*
X70366666Y-73738095D01*
X70333333Y-73880952D01*
X69933333Y-74452380D01*
X70366666Y-74452380D01*
X70633333Y-73547619D02*
X70666666Y-73500000D01*
X70733333Y-73452380D01*
X70900000Y-73452380D01*
X70966666Y-73500000D01*
X71000000Y-73547619D01*
X71033333Y-73642857D01*
X71033333Y-73738095D01*
X71000000Y-73880952D01*
X70600000Y-74452380D01*
X71033333Y-74452380D01*
X67366666Y-68250000D02*
X67300000Y-68202380D01*
X67200000Y-68202380D01*
X67100000Y-68250000D01*
X67033333Y-68345238D01*
X67000000Y-68440476D01*
X66966666Y-68630952D01*
X66966666Y-68773809D01*
X67000000Y-68964285D01*
X67033333Y-69059523D01*
X67100000Y-69154761D01*
X67200000Y-69202380D01*
X67266666Y-69202380D01*
X67366666Y-69154761D01*
X67400000Y-69107142D01*
X67400000Y-68773809D01*
X67266666Y-68773809D01*
X67700000Y-69202380D02*
X67700000Y-68202380D01*
X67966666Y-68202380D01*
X68033333Y-68250000D01*
X68066666Y-68297619D01*
X68100000Y-68392857D01*
X68100000Y-68535714D01*
X68066666Y-68630952D01*
X68033333Y-68678571D01*
X67966666Y-68726190D01*
X67700000Y-68726190D01*
X68400000Y-69202380D02*
X68400000Y-68202380D01*
X68866666Y-68202380D02*
X69000000Y-68202380D01*
X69066666Y-68250000D01*
X69133333Y-68345238D01*
X69166666Y-68535714D01*
X69166666Y-68869047D01*
X69133333Y-69059523D01*
X69066666Y-69154761D01*
X69000000Y-69202380D01*
X68866666Y-69202380D01*
X68800000Y-69154761D01*
X68733333Y-69059523D01*
X68700000Y-68869047D01*
X68700000Y-68535714D01*
X68733333Y-68345238D01*
X68800000Y-68250000D01*
X68866666Y-68202380D01*
X69966666Y-68297619D02*
X70000000Y-68250000D01*
X70066666Y-68202380D01*
X70233333Y-68202380D01*
X70300000Y-68250000D01*
X70333333Y-68297619D01*
X70366666Y-68392857D01*
X70366666Y-68488095D01*
X70333333Y-68630952D01*
X69933333Y-69202380D01*
X70366666Y-69202380D01*
X70800000Y-68202380D02*
X70866666Y-68202380D01*
X70933333Y-68250000D01*
X70966666Y-68297619D01*
X71000000Y-68392857D01*
X71033333Y-68583333D01*
X71033333Y-68821428D01*
X71000000Y-69011904D01*
X70966666Y-69107142D01*
X70933333Y-69154761D01*
X70866666Y-69202380D01*
X70800000Y-69202380D01*
X70733333Y-69154761D01*
X70700000Y-69107142D01*
X70666666Y-69011904D01*
X70633333Y-68821428D01*
X70633333Y-68583333D01*
X70666666Y-68392857D01*
X70700000Y-68297619D01*
X70733333Y-68250000D01*
X70800000Y-68202380D01*
X67366666Y-58250000D02*
X67300000Y-58202380D01*
X67200000Y-58202380D01*
X67100000Y-58250000D01*
X67033333Y-58345238D01*
X67000000Y-58440476D01*
X66966666Y-58630952D01*
X66966666Y-58773809D01*
X67000000Y-58964285D01*
X67033333Y-59059523D01*
X67100000Y-59154761D01*
X67200000Y-59202380D01*
X67266666Y-59202380D01*
X67366666Y-59154761D01*
X67400000Y-59107142D01*
X67400000Y-58773809D01*
X67266666Y-58773809D01*
X67700000Y-59202380D02*
X67700000Y-58202380D01*
X67966666Y-58202380D01*
X68033333Y-58250000D01*
X68066666Y-58297619D01*
X68100000Y-58392857D01*
X68100000Y-58535714D01*
X68066666Y-58630952D01*
X68033333Y-58678571D01*
X67966666Y-58726190D01*
X67700000Y-58726190D01*
X68400000Y-59202380D02*
X68400000Y-58202380D01*
X68866666Y-58202380D02*
X69000000Y-58202380D01*
X69066666Y-58250000D01*
X69133333Y-58345238D01*
X69166666Y-58535714D01*
X69166666Y-58869047D01*
X69133333Y-59059523D01*
X69066666Y-59154761D01*
X69000000Y-59202380D01*
X68866666Y-59202380D01*
X68800000Y-59154761D01*
X68733333Y-59059523D01*
X68700000Y-58869047D01*
X68700000Y-58535714D01*
X68733333Y-58345238D01*
X68800000Y-58250000D01*
X68866666Y-58202380D01*
X70366666Y-59202380D02*
X69966666Y-59202380D01*
X70166666Y-59202380D02*
X70166666Y-58202380D01*
X70100000Y-58345238D01*
X70033333Y-58440476D01*
X69966666Y-58488095D01*
X70966666Y-58535714D02*
X70966666Y-59202380D01*
X70800000Y-58154761D02*
X70633333Y-58869047D01*
X71066666Y-58869047D01*
D13*
X104928571Y-120678571D02*
X104928571Y-119178571D01*
X105571428Y-120678571D02*
X105571428Y-119892857D01*
X105500000Y-119750000D01*
X105357142Y-119678571D01*
X105142857Y-119678571D01*
X105000000Y-119750000D01*
X104928571Y-119821428D01*
X106500000Y-120678571D02*
X106357142Y-120607142D01*
X106285714Y-120535714D01*
X106214285Y-120392857D01*
X106214285Y-119964285D01*
X106285714Y-119821428D01*
X106357142Y-119750000D01*
X106500000Y-119678571D01*
X106714285Y-119678571D01*
X106857142Y-119750000D01*
X106928571Y-119821428D01*
X107000000Y-119964285D01*
X107000000Y-120392857D01*
X106928571Y-120535714D01*
X106857142Y-120607142D01*
X106714285Y-120678571D01*
X106500000Y-120678571D01*
X107857142Y-120678571D02*
X107714285Y-120607142D01*
X107642857Y-120464285D01*
X107642857Y-119178571D01*
X109071428Y-120678571D02*
X109071428Y-119892857D01*
X109000000Y-119750000D01*
X108857142Y-119678571D01*
X108571428Y-119678571D01*
X108428571Y-119750000D01*
X109071428Y-120607142D02*
X108928571Y-120678571D01*
X108571428Y-120678571D01*
X108428571Y-120607142D01*
X108357142Y-120464285D01*
X108357142Y-120321428D01*
X108428571Y-120178571D01*
X108571428Y-120107142D01*
X108928571Y-120107142D01*
X109071428Y-120035714D01*
D10*
X22857142Y-51226190D02*
X22857142Y-52750000D01*
X22095238Y-51988095D02*
X23619047Y-51988095D01*
X22857142Y-56750000D02*
X22857142Y-58273809D01*
X22857142Y-66726190D02*
X22857142Y-68250000D01*
X22095238Y-67488095D02*
X23619047Y-67488095D01*
X22857142Y-72250000D02*
X22857142Y-73773809D01*
X22547619Y-116238095D02*
X23023809Y-115904761D01*
X22547619Y-115666666D02*
X23547619Y-115666666D01*
X23547619Y-116047619D01*
X23500000Y-116142857D01*
X23452380Y-116190476D01*
X23357142Y-116238095D01*
X23214285Y-116238095D01*
X23119047Y-116190476D01*
X23071428Y-116142857D01*
X23023809Y-116047619D01*
X23023809Y-115666666D01*
X22595238Y-117047619D02*
X22547619Y-116952380D01*
X22547619Y-116761904D01*
X22595238Y-116666666D01*
X22690476Y-116619047D01*
X23071428Y-116619047D01*
X23166666Y-116666666D01*
X23214285Y-116761904D01*
X23214285Y-116952380D01*
X23166666Y-117047619D01*
X23071428Y-117095238D01*
X22976190Y-117095238D01*
X22880952Y-116619047D01*
X22547619Y-117666666D02*
X22595238Y-117571428D01*
X22690476Y-117523809D01*
X23547619Y-117523809D01*
X22595238Y-118428571D02*
X22547619Y-118333333D01*
X22547619Y-118142857D01*
X22595238Y-118047619D01*
X22690476Y-118000000D01*
X23071428Y-118000000D01*
X23166666Y-118047619D01*
X23214285Y-118142857D01*
X23214285Y-118333333D01*
X23166666Y-118428571D01*
X23071428Y-118476190D01*
X22976190Y-118476190D01*
X22880952Y-118000000D01*
X22547619Y-119428571D02*
X22547619Y-118857142D01*
X22547619Y-119142857D02*
X23547619Y-119142857D01*
X23404761Y-119047619D01*
X23309523Y-118952380D01*
X23261904Y-118857142D01*
X22642857Y-121190476D02*
X22595238Y-121142857D01*
X22547619Y-121000000D01*
X22547619Y-120904761D01*
X22595238Y-120761904D01*
X22690476Y-120666666D01*
X22785714Y-120619047D01*
X22976190Y-120571428D01*
X23119047Y-120571428D01*
X23309523Y-120619047D01*
X23404761Y-120666666D01*
X23500000Y-120761904D01*
X23547619Y-120904761D01*
X23547619Y-121000000D01*
X23500000Y-121142857D01*
X23452380Y-121190476D01*
X22547619Y-121761904D02*
X22595238Y-121666666D01*
X22642857Y-121619047D01*
X22738095Y-121571428D01*
X23023809Y-121571428D01*
X23119047Y-121619047D01*
X23166666Y-121666666D01*
X23214285Y-121761904D01*
X23214285Y-121904761D01*
X23166666Y-122000000D01*
X23119047Y-122047619D01*
X23023809Y-122095238D01*
X22738095Y-122095238D01*
X22642857Y-122047619D01*
X22595238Y-122000000D01*
X22547619Y-121904761D01*
X22547619Y-121761904D01*
X22547619Y-122523809D02*
X23214285Y-122523809D01*
X23119047Y-122523809D02*
X23166666Y-122571428D01*
X23214285Y-122666666D01*
X23214285Y-122809523D01*
X23166666Y-122904761D01*
X23071428Y-122952380D01*
X22547619Y-122952380D01*
X23071428Y-122952380D02*
X23166666Y-123000000D01*
X23214285Y-123095238D01*
X23214285Y-123238095D01*
X23166666Y-123333333D01*
X23071428Y-123380952D01*
X22547619Y-123380952D01*
X22547619Y-124380952D02*
X22547619Y-123809523D01*
X22547619Y-124095238D02*
X23547619Y-124095238D01*
X23404761Y-124000000D01*
X23309523Y-123904761D01*
X23261904Y-123809523D01*
D11*
X72033333Y-120428571D02*
X72133333Y-120476190D01*
X72166666Y-120523809D01*
X72200000Y-120619047D01*
X72200000Y-120761904D01*
X72166666Y-120857142D01*
X72133333Y-120904761D01*
X72066666Y-120952380D01*
X71800000Y-120952380D01*
X71800000Y-119952380D01*
X72033333Y-119952380D01*
X72100000Y-120000000D01*
X72133333Y-120047619D01*
X72166666Y-120142857D01*
X72166666Y-120238095D01*
X72133333Y-120333333D01*
X72100000Y-120380952D01*
X72033333Y-120428571D01*
X71800000Y-120428571D01*
X72600000Y-120952380D02*
X72533333Y-120904761D01*
X72500000Y-120857142D01*
X72466666Y-120761904D01*
X72466666Y-120476190D01*
X72500000Y-120380952D01*
X72533333Y-120333333D01*
X72600000Y-120285714D01*
X72700000Y-120285714D01*
X72766666Y-120333333D01*
X72800000Y-120380952D01*
X72833333Y-120476190D01*
X72833333Y-120761904D01*
X72800000Y-120857142D01*
X72766666Y-120904761D01*
X72700000Y-120952380D01*
X72600000Y-120952380D01*
X73133333Y-120952380D02*
X73133333Y-120285714D01*
X73133333Y-120380952D02*
X73166666Y-120333333D01*
X73233333Y-120285714D01*
X73333333Y-120285714D01*
X73400000Y-120333333D01*
X73433333Y-120428571D01*
X73433333Y-120952380D01*
X73433333Y-120428571D02*
X73466666Y-120333333D01*
X73533333Y-120285714D01*
X73633333Y-120285714D01*
X73700000Y-120333333D01*
X73733333Y-120428571D01*
X73733333Y-120952380D01*
X74066666Y-120952380D02*
X74066666Y-119952380D01*
X74066666Y-120333333D02*
X74133333Y-120285714D01*
X74266666Y-120285714D01*
X74333333Y-120333333D01*
X74366666Y-120380952D01*
X74400000Y-120476190D01*
X74400000Y-120761904D01*
X74366666Y-120857142D01*
X74333333Y-120904761D01*
X74266666Y-120952380D01*
X74133333Y-120952380D01*
X74066666Y-120904761D01*
X75000000Y-120952380D02*
X75000000Y-120428571D01*
X74966666Y-120333333D01*
X74900000Y-120285714D01*
X74766666Y-120285714D01*
X74700000Y-120333333D01*
X75000000Y-120904761D02*
X74933333Y-120952380D01*
X74766666Y-120952380D01*
X74700000Y-120904761D01*
X74666666Y-120809523D01*
X74666666Y-120714285D01*
X74700000Y-120619047D01*
X74766666Y-120571428D01*
X74933333Y-120571428D01*
X75000000Y-120523809D01*
X76233333Y-120952380D02*
X75833333Y-120952380D01*
X76033333Y-120952380D02*
X76033333Y-119952380D01*
X75966666Y-120095238D01*
X75900000Y-120190476D01*
X75833333Y-120238095D01*
D10*
X23057142Y-82926190D02*
X23057142Y-84450000D01*
X22295238Y-83688095D02*
X23819047Y-83688095D01*
X23057142Y-88450000D02*
X23057142Y-89973809D01*
X64952380Y-102892857D02*
X64476190Y-103226190D01*
X64952380Y-103464285D02*
X63952380Y-103464285D01*
X63952380Y-103083333D01*
X64000000Y-102988095D01*
X64047619Y-102940476D01*
X64142857Y-102892857D01*
X64285714Y-102892857D01*
X64380952Y-102940476D01*
X64428571Y-102988095D01*
X64476190Y-103083333D01*
X64476190Y-103464285D01*
X64952380Y-101940476D02*
X64952380Y-102511904D01*
X64952380Y-102226190D02*
X63952380Y-102226190D01*
X64095238Y-102321428D01*
X64190476Y-102416666D01*
X64238095Y-102511904D01*
X63952380Y-101321428D02*
X63952380Y-101226190D01*
X64000000Y-101130952D01*
X64047619Y-101083333D01*
X64142857Y-101035714D01*
X64333333Y-100988095D01*
X64571428Y-100988095D01*
X64761904Y-101035714D01*
X64857142Y-101083333D01*
X64904761Y-101130952D01*
X64952380Y-101226190D01*
X64952380Y-101321428D01*
X64904761Y-101416666D01*
X64857142Y-101464285D01*
X64761904Y-101511904D01*
X64571428Y-101559523D01*
X64333333Y-101559523D01*
X64142857Y-101511904D01*
X64047619Y-101464285D01*
X64000000Y-101416666D01*
X63952380Y-101321428D01*
X65452380Y-122722857D02*
X64976190Y-123056190D01*
X65452380Y-123294285D02*
X64452380Y-123294285D01*
X64452380Y-122913333D01*
X64500000Y-122818095D01*
X64547619Y-122770476D01*
X64642857Y-122722857D01*
X64785714Y-122722857D01*
X64880952Y-122770476D01*
X64928571Y-122818095D01*
X64976190Y-122913333D01*
X64976190Y-123294285D01*
X65452380Y-121770476D02*
X65452380Y-122341904D01*
X65452380Y-122056190D02*
X64452380Y-122056190D01*
X64595238Y-122151428D01*
X64690476Y-122246666D01*
X64738095Y-122341904D01*
X64452380Y-121437142D02*
X64452380Y-120818095D01*
X64833333Y-121151428D01*
X64833333Y-121008571D01*
X64880952Y-120913333D01*
X64928571Y-120865714D01*
X65023809Y-120818095D01*
X65261904Y-120818095D01*
X65357142Y-120865714D01*
X65404761Y-120913333D01*
X65452380Y-121008571D01*
X65452380Y-121294285D01*
X65404761Y-121389523D01*
X65357142Y-121437142D01*
X65452380Y-142022857D02*
X64976190Y-142356190D01*
X65452380Y-142594285D02*
X64452380Y-142594285D01*
X64452380Y-142213333D01*
X64500000Y-142118095D01*
X64547619Y-142070476D01*
X64642857Y-142022857D01*
X64785714Y-142022857D01*
X64880952Y-142070476D01*
X64928571Y-142118095D01*
X64976190Y-142213333D01*
X64976190Y-142594285D01*
X65452380Y-141070476D02*
X65452380Y-141641904D01*
X65452380Y-141356190D02*
X64452380Y-141356190D01*
X64595238Y-141451428D01*
X64690476Y-141546666D01*
X64738095Y-141641904D01*
X64880952Y-140499047D02*
X64833333Y-140594285D01*
X64785714Y-140641904D01*
X64690476Y-140689523D01*
X64642857Y-140689523D01*
X64547619Y-140641904D01*
X64500000Y-140594285D01*
X64452380Y-140499047D01*
X64452380Y-140308571D01*
X64500000Y-140213333D01*
X64547619Y-140165714D01*
X64642857Y-140118095D01*
X64690476Y-140118095D01*
X64785714Y-140165714D01*
X64833333Y-140213333D01*
X64880952Y-140308571D01*
X64880952Y-140499047D01*
X64928571Y-140594285D01*
X64976190Y-140641904D01*
X65071428Y-140689523D01*
X65261904Y-140689523D01*
X65357142Y-140641904D01*
X65404761Y-140594285D01*
X65452380Y-140499047D01*
X65452380Y-140308571D01*
X65404761Y-140213333D01*
X65357142Y-140165714D01*
X65261904Y-140118095D01*
X65071428Y-140118095D01*
X64976190Y-140165714D01*
X64928571Y-140213333D01*
X64880952Y-140308571D01*
X137904761Y-45833333D02*
X137952380Y-45690476D01*
X137952380Y-45452380D01*
X137904761Y-45357142D01*
X137857142Y-45309523D01*
X137761904Y-45261904D01*
X137666666Y-45261904D01*
X137571428Y-45309523D01*
X137523809Y-45357142D01*
X137476190Y-45452380D01*
X137428571Y-45642857D01*
X137380952Y-45738095D01*
X137333333Y-45785714D01*
X137238095Y-45833333D01*
X137142857Y-45833333D01*
X137047619Y-45785714D01*
X137000000Y-45738095D01*
X136952380Y-45642857D01*
X136952380Y-45404761D01*
X137000000Y-45261904D01*
X136952380Y-44928571D02*
X137952380Y-44690476D01*
X137238095Y-44500000D01*
X137952380Y-44309523D01*
X136952380Y-44071428D01*
X136952380Y-43785714D02*
X136952380Y-43166666D01*
X137333333Y-43500000D01*
X137333333Y-43357142D01*
X137380952Y-43261904D01*
X137428571Y-43214285D01*
X137523809Y-43166666D01*
X137761904Y-43166666D01*
X137857142Y-43214285D01*
X137904761Y-43261904D01*
X137952380Y-43357142D01*
X137952380Y-43642857D01*
X137904761Y-43738095D01*
X137857142Y-43785714D01*
X50777142Y-82952380D02*
X50443809Y-82476190D01*
X50205714Y-82952380D02*
X50205714Y-81952380D01*
X50586666Y-81952380D01*
X50681904Y-82000000D01*
X50729523Y-82047619D01*
X50777142Y-82142857D01*
X50777142Y-82285714D01*
X50729523Y-82380952D01*
X50681904Y-82428571D01*
X50586666Y-82476190D01*
X50205714Y-82476190D01*
X51729523Y-82952380D02*
X51158095Y-82952380D01*
X51443809Y-82952380D02*
X51443809Y-81952380D01*
X51348571Y-82095238D01*
X51253333Y-82190476D01*
X51158095Y-82238095D01*
X52110476Y-82047619D02*
X52158095Y-82000000D01*
X52253333Y-81952380D01*
X52491428Y-81952380D01*
X52586666Y-82000000D01*
X52634285Y-82047619D01*
X52681904Y-82142857D01*
X52681904Y-82238095D01*
X52634285Y-82380952D01*
X52062857Y-82952380D01*
X52681904Y-82952380D01*
X61452380Y-102892857D02*
X60976190Y-103226190D01*
X61452380Y-103464285D02*
X60452380Y-103464285D01*
X60452380Y-103083333D01*
X60500000Y-102988095D01*
X60547619Y-102940476D01*
X60642857Y-102892857D01*
X60785714Y-102892857D01*
X60880952Y-102940476D01*
X60928571Y-102988095D01*
X60976190Y-103083333D01*
X60976190Y-103464285D01*
X61452380Y-101940476D02*
X61452380Y-102511904D01*
X61452380Y-102226190D02*
X60452380Y-102226190D01*
X60595238Y-102321428D01*
X60690476Y-102416666D01*
X60738095Y-102511904D01*
X60452380Y-101035714D02*
X60452380Y-101511904D01*
X60928571Y-101559523D01*
X60880952Y-101511904D01*
X60833333Y-101416666D01*
X60833333Y-101178571D01*
X60880952Y-101083333D01*
X60928571Y-101035714D01*
X61023809Y-100988095D01*
X61261904Y-100988095D01*
X61357142Y-101035714D01*
X61404761Y-101083333D01*
X61452380Y-101178571D01*
X61452380Y-101416666D01*
X61404761Y-101511904D01*
X61357142Y-101559523D01*
X50777142Y-99452380D02*
X50443809Y-98976190D01*
X50205714Y-99452380D02*
X50205714Y-98452380D01*
X50586666Y-98452380D01*
X50681904Y-98500000D01*
X50729523Y-98547619D01*
X50777142Y-98642857D01*
X50777142Y-98785714D01*
X50729523Y-98880952D01*
X50681904Y-98928571D01*
X50586666Y-98976190D01*
X50205714Y-98976190D01*
X51729523Y-99452380D02*
X51158095Y-99452380D01*
X51443809Y-99452380D02*
X51443809Y-98452380D01*
X51348571Y-98595238D01*
X51253333Y-98690476D01*
X51158095Y-98738095D01*
X52062857Y-98452380D02*
X52729523Y-98452380D01*
X52300952Y-99452380D01*
X30261904Y-94952380D02*
X30261904Y-93952380D01*
X30500000Y-93952380D01*
X30642857Y-94000000D01*
X30738095Y-94095238D01*
X30785714Y-94190476D01*
X30833333Y-94380952D01*
X30833333Y-94523809D01*
X30785714Y-94714285D01*
X30738095Y-94809523D01*
X30642857Y-94904761D01*
X30500000Y-94952380D01*
X30261904Y-94952380D01*
X31166666Y-93952380D02*
X31785714Y-93952380D01*
X31452380Y-94333333D01*
X31595238Y-94333333D01*
X31690476Y-94380952D01*
X31738095Y-94428571D01*
X31785714Y-94523809D01*
X31785714Y-94761904D01*
X31738095Y-94857142D01*
X31690476Y-94904761D01*
X31595238Y-94952380D01*
X31309523Y-94952380D01*
X31214285Y-94904761D01*
X31166666Y-94857142D01*
X25738095Y-92952380D02*
X25738095Y-91952380D01*
X26309523Y-92952380D02*
X25880952Y-92380952D01*
X26309523Y-91952380D02*
X25738095Y-92523809D01*
X30261904Y-78952380D02*
X30261904Y-77952380D01*
X30500000Y-77952380D01*
X30642857Y-78000000D01*
X30738095Y-78095238D01*
X30785714Y-78190476D01*
X30833333Y-78380952D01*
X30833333Y-78523809D01*
X30785714Y-78714285D01*
X30738095Y-78809523D01*
X30642857Y-78904761D01*
X30500000Y-78952380D01*
X30261904Y-78952380D01*
X31214285Y-78047619D02*
X31261904Y-78000000D01*
X31357142Y-77952380D01*
X31595238Y-77952380D01*
X31690476Y-78000000D01*
X31738095Y-78047619D01*
X31785714Y-78142857D01*
X31785714Y-78238095D01*
X31738095Y-78380952D01*
X31166666Y-78952380D01*
X31785714Y-78952380D01*
X25738095Y-76952380D02*
X25738095Y-75952380D01*
X26309523Y-76952380D02*
X25880952Y-76380952D01*
X26309523Y-75952380D02*
X25738095Y-76523809D01*
X51833333Y-71357142D02*
X51785714Y-71404761D01*
X51642857Y-71452380D01*
X51547619Y-71452380D01*
X51404761Y-71404761D01*
X51309523Y-71309523D01*
X51261904Y-71214285D01*
X51214285Y-71023809D01*
X51214285Y-70880952D01*
X51261904Y-70690476D01*
X51309523Y-70595238D01*
X51404761Y-70500000D01*
X51547619Y-70452380D01*
X51642857Y-70452380D01*
X51785714Y-70500000D01*
X51833333Y-70547619D01*
X52738095Y-70452380D02*
X52261904Y-70452380D01*
X52214285Y-70928571D01*
X52261904Y-70880952D01*
X52357142Y-70833333D01*
X52595238Y-70833333D01*
X52690476Y-70880952D01*
X52738095Y-70928571D01*
X52785714Y-71023809D01*
X52785714Y-71261904D01*
X52738095Y-71357142D01*
X52690476Y-71404761D01*
X52595238Y-71452380D01*
X52357142Y-71452380D01*
X52261904Y-71404761D01*
X52214285Y-71357142D01*
X122428571Y-96880952D02*
X122476190Y-96738095D01*
X122523809Y-96690476D01*
X122619047Y-96642857D01*
X122761904Y-96642857D01*
X122857142Y-96690476D01*
X122904761Y-96738095D01*
X122952380Y-96833333D01*
X122952380Y-97214285D01*
X121952380Y-97214285D01*
X121952380Y-96880952D01*
X122000000Y-96785714D01*
X122047619Y-96738095D01*
X122142857Y-96690476D01*
X122238095Y-96690476D01*
X122333333Y-96738095D01*
X122380952Y-96785714D01*
X122428571Y-96880952D01*
X122428571Y-97214285D01*
X121952380Y-96309523D02*
X121952380Y-95642857D01*
X122952380Y-96309523D01*
X122952380Y-95642857D01*
X122952380Y-94738095D02*
X122952380Y-95309523D01*
X122952380Y-95023809D02*
X121952380Y-95023809D01*
X122095238Y-95119047D01*
X122190476Y-95214285D01*
X122238095Y-95309523D01*
X120531428Y-100390952D02*
X120531428Y-99629047D01*
X120912380Y-100010000D02*
X120150476Y-100010000D01*
X61452380Y-122714285D02*
X60452380Y-122714285D01*
X60452380Y-122476190D01*
X60500000Y-122333333D01*
X60595238Y-122238095D01*
X60690476Y-122190476D01*
X60880952Y-122142857D01*
X61023809Y-122142857D01*
X61214285Y-122190476D01*
X61309523Y-122238095D01*
X61404761Y-122333333D01*
X61452380Y-122476190D01*
X61452380Y-122714285D01*
X61452380Y-121190476D02*
X61452380Y-121761904D01*
X61452380Y-121476190D02*
X60452380Y-121476190D01*
X60595238Y-121571428D01*
X60690476Y-121666666D01*
X60738095Y-121761904D01*
X60452380Y-120571428D02*
X60452380Y-120476190D01*
X60500000Y-120380952D01*
X60547619Y-120333333D01*
X60642857Y-120285714D01*
X60833333Y-120238095D01*
X61071428Y-120238095D01*
X61261904Y-120285714D01*
X61357142Y-120333333D01*
X61404761Y-120380952D01*
X61452380Y-120476190D01*
X61452380Y-120571428D01*
X61404761Y-120666666D01*
X61357142Y-120714285D01*
X61261904Y-120761904D01*
X61071428Y-120809523D01*
X60833333Y-120809523D01*
X60642857Y-120761904D01*
X60547619Y-120714285D01*
X60500000Y-120666666D01*
X60452380Y-120571428D01*
X59452380Y-127261904D02*
X58452380Y-127261904D01*
X59452380Y-126690476D02*
X58880952Y-127119047D01*
X58452380Y-126690476D02*
X59023809Y-127261904D01*
X61452380Y-142714285D02*
X60452380Y-142714285D01*
X60452380Y-142476190D01*
X60500000Y-142333333D01*
X60595238Y-142238095D01*
X60690476Y-142190476D01*
X60880952Y-142142857D01*
X61023809Y-142142857D01*
X61214285Y-142190476D01*
X61309523Y-142238095D01*
X61404761Y-142333333D01*
X61452380Y-142476190D01*
X61452380Y-142714285D01*
X61452380Y-141190476D02*
X61452380Y-141761904D01*
X61452380Y-141476190D02*
X60452380Y-141476190D01*
X60595238Y-141571428D01*
X60690476Y-141666666D01*
X60738095Y-141761904D01*
X60547619Y-140809523D02*
X60500000Y-140761904D01*
X60452380Y-140666666D01*
X60452380Y-140428571D01*
X60500000Y-140333333D01*
X60547619Y-140285714D01*
X60642857Y-140238095D01*
X60738095Y-140238095D01*
X60880952Y-140285714D01*
X61452380Y-140857142D01*
X61452380Y-140238095D01*
X59452380Y-147261904D02*
X58452380Y-147261904D01*
X59452380Y-146690476D02*
X58880952Y-147119047D01*
X58452380Y-146690476D02*
X59023809Y-147261904D01*
X51833333Y-103857142D02*
X51785714Y-103904761D01*
X51642857Y-103952380D01*
X51547619Y-103952380D01*
X51404761Y-103904761D01*
X51309523Y-103809523D01*
X51261904Y-103714285D01*
X51214285Y-103523809D01*
X51214285Y-103380952D01*
X51261904Y-103190476D01*
X51309523Y-103095238D01*
X51404761Y-103000000D01*
X51547619Y-102952380D01*
X51642857Y-102952380D01*
X51785714Y-103000000D01*
X51833333Y-103047619D01*
X52690476Y-102952380D02*
X52500000Y-102952380D01*
X52404761Y-103000000D01*
X52357142Y-103047619D01*
X52261904Y-103190476D01*
X52214285Y-103380952D01*
X52214285Y-103761904D01*
X52261904Y-103857142D01*
X52309523Y-103904761D01*
X52404761Y-103952380D01*
X52595238Y-103952380D01*
X52690476Y-103904761D01*
X52738095Y-103857142D01*
X52785714Y-103761904D01*
X52785714Y-103523809D01*
X52738095Y-103428571D01*
X52690476Y-103380952D01*
X52595238Y-103333333D01*
X52404761Y-103333333D01*
X52309523Y-103380952D01*
X52261904Y-103428571D01*
X52214285Y-103523809D01*
X51833333Y-87357142D02*
X51785714Y-87404761D01*
X51642857Y-87452380D01*
X51547619Y-87452380D01*
X51404761Y-87404761D01*
X51309523Y-87309523D01*
X51261904Y-87214285D01*
X51214285Y-87023809D01*
X51214285Y-86880952D01*
X51261904Y-86690476D01*
X51309523Y-86595238D01*
X51404761Y-86500000D01*
X51547619Y-86452380D01*
X51642857Y-86452380D01*
X51785714Y-86500000D01*
X51833333Y-86547619D01*
X52690476Y-86785714D02*
X52690476Y-87452380D01*
X52452380Y-86404761D02*
X52214285Y-87119047D01*
X52833333Y-87119047D01*
X44317619Y-54635238D02*
X44270000Y-54730476D01*
X44174761Y-54825714D01*
X44031904Y-54968571D01*
X43984285Y-55063809D01*
X43984285Y-55159047D01*
X44222380Y-55111428D02*
X44174761Y-55206666D01*
X44079523Y-55301904D01*
X43889047Y-55349523D01*
X43555714Y-55349523D01*
X43365238Y-55301904D01*
X43270000Y-55206666D01*
X43222380Y-55111428D01*
X43222380Y-54920952D01*
X43270000Y-54825714D01*
X43365238Y-54730476D01*
X43555714Y-54682857D01*
X43889047Y-54682857D01*
X44079523Y-54730476D01*
X44174761Y-54825714D01*
X44222380Y-54920952D01*
X44222380Y-55111428D01*
X44222380Y-53730476D02*
X44222380Y-54301904D01*
X44222380Y-54016190D02*
X43222380Y-54016190D01*
X43365238Y-54111428D01*
X43460476Y-54206666D01*
X43508095Y-54301904D01*
X111913333Y-52952380D02*
X111580000Y-52476190D01*
X111341904Y-52952380D02*
X111341904Y-51952380D01*
X111722857Y-51952380D01*
X111818095Y-52000000D01*
X111865714Y-52047619D01*
X111913333Y-52142857D01*
X111913333Y-52285714D01*
X111865714Y-52380952D01*
X111818095Y-52428571D01*
X111722857Y-52476190D01*
X111341904Y-52476190D01*
X112770476Y-51952380D02*
X112580000Y-51952380D01*
X112484761Y-52000000D01*
X112437142Y-52047619D01*
X112341904Y-52190476D01*
X112294285Y-52380952D01*
X112294285Y-52761904D01*
X112341904Y-52857142D01*
X112389523Y-52904761D01*
X112484761Y-52952380D01*
X112675238Y-52952380D01*
X112770476Y-52904761D01*
X112818095Y-52857142D01*
X112865714Y-52761904D01*
X112865714Y-52523809D01*
X112818095Y-52428571D01*
X112770476Y-52380952D01*
X112675238Y-52333333D01*
X112484761Y-52333333D01*
X112389523Y-52380952D01*
X112341904Y-52428571D01*
X112294285Y-52523809D01*
X44317619Y-102635238D02*
X44270000Y-102730476D01*
X44174761Y-102825714D01*
X44031904Y-102968571D01*
X43984285Y-103063809D01*
X43984285Y-103159047D01*
X44222380Y-103111428D02*
X44174761Y-103206666D01*
X44079523Y-103301904D01*
X43889047Y-103349523D01*
X43555714Y-103349523D01*
X43365238Y-103301904D01*
X43270000Y-103206666D01*
X43222380Y-103111428D01*
X43222380Y-102920952D01*
X43270000Y-102825714D01*
X43365238Y-102730476D01*
X43555714Y-102682857D01*
X43889047Y-102682857D01*
X44079523Y-102730476D01*
X44174761Y-102825714D01*
X44222380Y-102920952D01*
X44222380Y-103111428D01*
X43555714Y-101825714D02*
X44222380Y-101825714D01*
X43174761Y-102063809D02*
X43889047Y-102301904D01*
X43889047Y-101682857D01*
X45261904Y-121702380D02*
X45261904Y-120702380D01*
X45833333Y-121702380D02*
X45404761Y-121130952D01*
X45833333Y-120702380D02*
X45261904Y-121273809D01*
X46785714Y-121702380D02*
X46214285Y-121702380D01*
X46500000Y-121702380D02*
X46500000Y-120702380D01*
X46404761Y-120845238D01*
X46309523Y-120940476D01*
X46214285Y-120988095D01*
X111833333Y-57452380D02*
X111500000Y-56976190D01*
X111261904Y-57452380D02*
X111261904Y-56452380D01*
X111642857Y-56452380D01*
X111738095Y-56500000D01*
X111785714Y-56547619D01*
X111833333Y-56642857D01*
X111833333Y-56785714D01*
X111785714Y-56880952D01*
X111738095Y-56928571D01*
X111642857Y-56976190D01*
X111261904Y-56976190D01*
X112166666Y-56452380D02*
X112785714Y-56452380D01*
X112452380Y-56833333D01*
X112595238Y-56833333D01*
X112690476Y-56880952D01*
X112738095Y-56928571D01*
X112785714Y-57023809D01*
X112785714Y-57261904D01*
X112738095Y-57357142D01*
X112690476Y-57404761D01*
X112595238Y-57452380D01*
X112309523Y-57452380D01*
X112214285Y-57404761D01*
X112166666Y-57357142D01*
X123452380Y-78916666D02*
X122976190Y-79250000D01*
X123452380Y-79488095D02*
X122452380Y-79488095D01*
X122452380Y-79107142D01*
X122500000Y-79011904D01*
X122547619Y-78964285D01*
X122642857Y-78916666D01*
X122785714Y-78916666D01*
X122880952Y-78964285D01*
X122928571Y-79011904D01*
X122976190Y-79107142D01*
X122976190Y-79488095D01*
X122452380Y-78583333D02*
X122452380Y-77916666D01*
X123452380Y-78345238D01*
X67904761Y-113547619D02*
X67809523Y-113500000D01*
X67714285Y-113404761D01*
X67571428Y-113261904D01*
X67476190Y-113214285D01*
X67380952Y-113214285D01*
X67428571Y-113452380D02*
X67333333Y-113404761D01*
X67238095Y-113309523D01*
X67190476Y-113119047D01*
X67190476Y-112785714D01*
X67238095Y-112595238D01*
X67333333Y-112500000D01*
X67428571Y-112452380D01*
X67619047Y-112452380D01*
X67714285Y-112500000D01*
X67809523Y-112595238D01*
X67857142Y-112785714D01*
X67857142Y-113119047D01*
X67809523Y-113309523D01*
X67714285Y-113404761D01*
X67619047Y-113452380D01*
X67428571Y-113452380D01*
X68714285Y-112452380D02*
X68523809Y-112452380D01*
X68428571Y-112500000D01*
X68380952Y-112547619D01*
X68285714Y-112690476D01*
X68238095Y-112880952D01*
X68238095Y-113261904D01*
X68285714Y-113357142D01*
X68333333Y-113404761D01*
X68428571Y-113452380D01*
X68619047Y-113452380D01*
X68714285Y-113404761D01*
X68761904Y-113357142D01*
X68809523Y-113261904D01*
X68809523Y-113023809D01*
X68761904Y-112928571D01*
X68714285Y-112880952D01*
X68619047Y-112833333D01*
X68428571Y-112833333D01*
X68333333Y-112880952D01*
X68285714Y-112928571D01*
X68238095Y-113023809D01*
X78452380Y-136714285D02*
X77452380Y-136714285D01*
X77452380Y-136476190D01*
X77500000Y-136333333D01*
X77595238Y-136238095D01*
X77690476Y-136190476D01*
X77880952Y-136142857D01*
X78023809Y-136142857D01*
X78214285Y-136190476D01*
X78309523Y-136238095D01*
X78404761Y-136333333D01*
X78452380Y-136476190D01*
X78452380Y-136714285D01*
X78452380Y-135190476D02*
X78452380Y-135761904D01*
X78452380Y-135476190D02*
X77452380Y-135476190D01*
X77595238Y-135571428D01*
X77690476Y-135666666D01*
X77738095Y-135761904D01*
X77452380Y-134857142D02*
X77452380Y-134238095D01*
X77833333Y-134571428D01*
X77833333Y-134428571D01*
X77880952Y-134333333D01*
X77928571Y-134285714D01*
X78023809Y-134238095D01*
X78261904Y-134238095D01*
X78357142Y-134285714D01*
X78404761Y-134333333D01*
X78452380Y-134428571D01*
X78452380Y-134714285D01*
X78404761Y-134809523D01*
X78357142Y-134857142D01*
X67904761Y-133547619D02*
X67809523Y-133500000D01*
X67714285Y-133404761D01*
X67571428Y-133261904D01*
X67476190Y-133214285D01*
X67380952Y-133214285D01*
X67428571Y-133452380D02*
X67333333Y-133404761D01*
X67238095Y-133309523D01*
X67190476Y-133119047D01*
X67190476Y-132785714D01*
X67238095Y-132595238D01*
X67333333Y-132500000D01*
X67428571Y-132452380D01*
X67619047Y-132452380D01*
X67714285Y-132500000D01*
X67809523Y-132595238D01*
X67857142Y-132785714D01*
X67857142Y-133119047D01*
X67809523Y-133309523D01*
X67714285Y-133404761D01*
X67619047Y-133452380D01*
X67428571Y-133452380D01*
X68190476Y-132452380D02*
X68857142Y-132452380D01*
X68428571Y-133452380D01*
X118902380Y-78826666D02*
X118426190Y-79160000D01*
X118902380Y-79398095D02*
X117902380Y-79398095D01*
X117902380Y-79017142D01*
X117950000Y-78921904D01*
X117997619Y-78874285D01*
X118092857Y-78826666D01*
X118235714Y-78826666D01*
X118330952Y-78874285D01*
X118378571Y-78921904D01*
X118426190Y-79017142D01*
X118426190Y-79398095D01*
X117902380Y-77921904D02*
X117902380Y-78398095D01*
X118378571Y-78445714D01*
X118330952Y-78398095D01*
X118283333Y-78302857D01*
X118283333Y-78064761D01*
X118330952Y-77969523D01*
X118378571Y-77921904D01*
X118473809Y-77874285D01*
X118711904Y-77874285D01*
X118807142Y-77921904D01*
X118854761Y-77969523D01*
X118902380Y-78064761D01*
X118902380Y-78302857D01*
X118854761Y-78398095D01*
X118807142Y-78445714D01*
X44761904Y-139202380D02*
X44761904Y-138202380D01*
X45333333Y-139202380D02*
X44904761Y-138630952D01*
X45333333Y-138202380D02*
X44761904Y-138773809D01*
X45714285Y-138297619D02*
X45761904Y-138250000D01*
X45857142Y-138202380D01*
X46095238Y-138202380D01*
X46190476Y-138250000D01*
X46238095Y-138297619D01*
X46285714Y-138392857D01*
X46285714Y-138488095D01*
X46238095Y-138630952D01*
X45666666Y-139202380D01*
X46285714Y-139202380D01*
X44857142Y-95142857D02*
X44904761Y-95190476D01*
X44952380Y-95333333D01*
X44952380Y-95428571D01*
X44904761Y-95571428D01*
X44809523Y-95666666D01*
X44714285Y-95714285D01*
X44523809Y-95761904D01*
X44380952Y-95761904D01*
X44190476Y-95714285D01*
X44095238Y-95666666D01*
X44000000Y-95571428D01*
X43952380Y-95428571D01*
X43952380Y-95333333D01*
X44000000Y-95190476D01*
X44047619Y-95142857D01*
X44952380Y-94190476D02*
X44952380Y-94761904D01*
X44952380Y-94476190D02*
X43952380Y-94476190D01*
X44095238Y-94571428D01*
X44190476Y-94666666D01*
X44238095Y-94761904D01*
X44047619Y-93809523D02*
X44000000Y-93761904D01*
X43952380Y-93666666D01*
X43952380Y-93428571D01*
X44000000Y-93333333D01*
X44047619Y-93285714D01*
X44142857Y-93238095D01*
X44238095Y-93238095D01*
X44380952Y-93285714D01*
X44952380Y-93857142D01*
X44952380Y-93238095D01*
X140404761Y-65583333D02*
X140452380Y-65440476D01*
X140452380Y-65202380D01*
X140404761Y-65107142D01*
X140357142Y-65059523D01*
X140261904Y-65011904D01*
X140166666Y-65011904D01*
X140071428Y-65059523D01*
X140023809Y-65107142D01*
X139976190Y-65202380D01*
X139928571Y-65392857D01*
X139880952Y-65488095D01*
X139833333Y-65535714D01*
X139738095Y-65583333D01*
X139642857Y-65583333D01*
X139547619Y-65535714D01*
X139500000Y-65488095D01*
X139452380Y-65392857D01*
X139452380Y-65154761D01*
X139500000Y-65011904D01*
X139452380Y-64678571D02*
X140452380Y-64440476D01*
X139738095Y-64250000D01*
X140452380Y-64059523D01*
X139452380Y-63821428D01*
X140452380Y-62916666D02*
X140452380Y-63488095D01*
X140452380Y-63202380D02*
X139452380Y-63202380D01*
X139595238Y-63297619D01*
X139690476Y-63392857D01*
X139738095Y-63488095D01*
X140404761Y-82833333D02*
X140452380Y-82690476D01*
X140452380Y-82452380D01*
X140404761Y-82357142D01*
X140357142Y-82309523D01*
X140261904Y-82261904D01*
X140166666Y-82261904D01*
X140071428Y-82309523D01*
X140023809Y-82357142D01*
X139976190Y-82452380D01*
X139928571Y-82642857D01*
X139880952Y-82738095D01*
X139833333Y-82785714D01*
X139738095Y-82833333D01*
X139642857Y-82833333D01*
X139547619Y-82785714D01*
X139500000Y-82738095D01*
X139452380Y-82642857D01*
X139452380Y-82404761D01*
X139500000Y-82261904D01*
X139452380Y-81928571D02*
X140452380Y-81690476D01*
X139738095Y-81500000D01*
X140452380Y-81309523D01*
X139452380Y-81071428D01*
X139785714Y-80261904D02*
X140452380Y-80261904D01*
X139404761Y-80500000D02*
X140119047Y-80738095D01*
X140119047Y-80119047D01*
X44857142Y-63142857D02*
X44904761Y-63190476D01*
X44952380Y-63333333D01*
X44952380Y-63428571D01*
X44904761Y-63571428D01*
X44809523Y-63666666D01*
X44714285Y-63714285D01*
X44523809Y-63761904D01*
X44380952Y-63761904D01*
X44190476Y-63714285D01*
X44095238Y-63666666D01*
X44000000Y-63571428D01*
X43952380Y-63428571D01*
X43952380Y-63333333D01*
X44000000Y-63190476D01*
X44047619Y-63142857D01*
X44952380Y-62190476D02*
X44952380Y-62761904D01*
X44952380Y-62476190D02*
X43952380Y-62476190D01*
X44095238Y-62571428D01*
X44190476Y-62666666D01*
X44238095Y-62761904D01*
X44952380Y-61238095D02*
X44952380Y-61809523D01*
X44952380Y-61523809D02*
X43952380Y-61523809D01*
X44095238Y-61619047D01*
X44190476Y-61714285D01*
X44238095Y-61809523D01*
X44857142Y-111142857D02*
X44904761Y-111190476D01*
X44952380Y-111333333D01*
X44952380Y-111428571D01*
X44904761Y-111571428D01*
X44809523Y-111666666D01*
X44714285Y-111714285D01*
X44523809Y-111761904D01*
X44380952Y-111761904D01*
X44190476Y-111714285D01*
X44095238Y-111666666D01*
X44000000Y-111571428D01*
X43952380Y-111428571D01*
X43952380Y-111333333D01*
X44000000Y-111190476D01*
X44047619Y-111142857D01*
X44952380Y-110190476D02*
X44952380Y-110761904D01*
X44952380Y-110476190D02*
X43952380Y-110476190D01*
X44095238Y-110571428D01*
X44190476Y-110666666D01*
X44238095Y-110761904D01*
X44285714Y-109333333D02*
X44952380Y-109333333D01*
X43904761Y-109571428D02*
X44619047Y-109809523D01*
X44619047Y-109190476D01*
X44857142Y-79142857D02*
X44904761Y-79190476D01*
X44952380Y-79333333D01*
X44952380Y-79428571D01*
X44904761Y-79571428D01*
X44809523Y-79666666D01*
X44714285Y-79714285D01*
X44523809Y-79761904D01*
X44380952Y-79761904D01*
X44190476Y-79714285D01*
X44095238Y-79666666D01*
X44000000Y-79571428D01*
X43952380Y-79428571D01*
X43952380Y-79333333D01*
X44000000Y-79190476D01*
X44047619Y-79142857D01*
X44952380Y-78190476D02*
X44952380Y-78761904D01*
X44952380Y-78476190D02*
X43952380Y-78476190D01*
X44095238Y-78571428D01*
X44190476Y-78666666D01*
X44238095Y-78761904D01*
X43952380Y-77857142D02*
X43952380Y-77238095D01*
X44333333Y-77571428D01*
X44333333Y-77428571D01*
X44380952Y-77333333D01*
X44428571Y-77285714D01*
X44523809Y-77238095D01*
X44761904Y-77238095D01*
X44857142Y-77285714D01*
X44904761Y-77333333D01*
X44952380Y-77428571D01*
X44952380Y-77714285D01*
X44904761Y-77809523D01*
X44857142Y-77857142D01*
X107857142Y-39357142D02*
X107809523Y-39404761D01*
X107666666Y-39452380D01*
X107571428Y-39452380D01*
X107428571Y-39404761D01*
X107333333Y-39309523D01*
X107285714Y-39214285D01*
X107238095Y-39023809D01*
X107238095Y-38880952D01*
X107285714Y-38690476D01*
X107333333Y-38595238D01*
X107428571Y-38500000D01*
X107571428Y-38452380D01*
X107666666Y-38452380D01*
X107809523Y-38500000D01*
X107857142Y-38547619D01*
X108809523Y-39452380D02*
X108238095Y-39452380D01*
X108523809Y-39452380D02*
X108523809Y-38452380D01*
X108428571Y-38595238D01*
X108333333Y-38690476D01*
X108238095Y-38738095D01*
X109428571Y-38452380D02*
X109523809Y-38452380D01*
X109619047Y-38500000D01*
X109666666Y-38547619D01*
X109714285Y-38642857D01*
X109761904Y-38833333D01*
X109761904Y-39071428D01*
X109714285Y-39261904D01*
X109666666Y-39357142D01*
X109619047Y-39404761D01*
X109523809Y-39452380D01*
X109428571Y-39452380D01*
X109333333Y-39404761D01*
X109285714Y-39357142D01*
X109238095Y-39261904D01*
X109190476Y-39071428D01*
X109190476Y-38833333D01*
X109238095Y-38642857D01*
X109285714Y-38547619D01*
X109333333Y-38500000D01*
X109428571Y-38452380D01*
X32452380Y-42833333D02*
X33166666Y-42833333D01*
X33309523Y-42880952D01*
X33404761Y-42976190D01*
X33452380Y-43119047D01*
X33452380Y-43214285D01*
X33452380Y-41833333D02*
X33452380Y-42404761D01*
X33452380Y-42119047D02*
X32452380Y-42119047D01*
X32595238Y-42214285D01*
X32690476Y-42309523D01*
X32738095Y-42404761D01*
X78452380Y-117214285D02*
X77452380Y-117214285D01*
X77452380Y-116976190D01*
X77500000Y-116833333D01*
X77595238Y-116738095D01*
X77690476Y-116690476D01*
X77880952Y-116642857D01*
X78023809Y-116642857D01*
X78214285Y-116690476D01*
X78309523Y-116738095D01*
X78404761Y-116833333D01*
X78452380Y-116976190D01*
X78452380Y-117214285D01*
X78452380Y-115690476D02*
X78452380Y-116261904D01*
X78452380Y-115976190D02*
X77452380Y-115976190D01*
X77595238Y-116071428D01*
X77690476Y-116166666D01*
X77738095Y-116261904D01*
X78452380Y-114738095D02*
X78452380Y-115309523D01*
X78452380Y-115023809D02*
X77452380Y-115023809D01*
X77595238Y-115119047D01*
X77690476Y-115214285D01*
X77738095Y-115309523D01*
X44317619Y-86635238D02*
X44270000Y-86730476D01*
X44174761Y-86825714D01*
X44031904Y-86968571D01*
X43984285Y-87063809D01*
X43984285Y-87159047D01*
X44222380Y-87111428D02*
X44174761Y-87206666D01*
X44079523Y-87301904D01*
X43889047Y-87349523D01*
X43555714Y-87349523D01*
X43365238Y-87301904D01*
X43270000Y-87206666D01*
X43222380Y-87111428D01*
X43222380Y-86920952D01*
X43270000Y-86825714D01*
X43365238Y-86730476D01*
X43555714Y-86682857D01*
X43889047Y-86682857D01*
X44079523Y-86730476D01*
X44174761Y-86825714D01*
X44222380Y-86920952D01*
X44222380Y-87111428D01*
X43222380Y-86349523D02*
X43222380Y-85730476D01*
X43603333Y-86063809D01*
X43603333Y-85920952D01*
X43650952Y-85825714D01*
X43698571Y-85778095D01*
X43793809Y-85730476D01*
X44031904Y-85730476D01*
X44127142Y-85778095D01*
X44174761Y-85825714D01*
X44222380Y-85920952D01*
X44222380Y-86206666D01*
X44174761Y-86301904D01*
X44127142Y-86349523D01*
X44317619Y-70635238D02*
X44270000Y-70730476D01*
X44174761Y-70825714D01*
X44031904Y-70968571D01*
X43984285Y-71063809D01*
X43984285Y-71159047D01*
X44222380Y-71111428D02*
X44174761Y-71206666D01*
X44079523Y-71301904D01*
X43889047Y-71349523D01*
X43555714Y-71349523D01*
X43365238Y-71301904D01*
X43270000Y-71206666D01*
X43222380Y-71111428D01*
X43222380Y-70920952D01*
X43270000Y-70825714D01*
X43365238Y-70730476D01*
X43555714Y-70682857D01*
X43889047Y-70682857D01*
X44079523Y-70730476D01*
X44174761Y-70825714D01*
X44222380Y-70920952D01*
X44222380Y-71111428D01*
X43317619Y-70301904D02*
X43270000Y-70254285D01*
X43222380Y-70159047D01*
X43222380Y-69920952D01*
X43270000Y-69825714D01*
X43317619Y-69778095D01*
X43412857Y-69730476D01*
X43508095Y-69730476D01*
X43650952Y-69778095D01*
X44222380Y-70349523D01*
X44222380Y-69730476D01*
X50777142Y-67452380D02*
X50443809Y-66976190D01*
X50205714Y-67452380D02*
X50205714Y-66452380D01*
X50586666Y-66452380D01*
X50681904Y-66500000D01*
X50729523Y-66547619D01*
X50777142Y-66642857D01*
X50777142Y-66785714D01*
X50729523Y-66880952D01*
X50681904Y-66928571D01*
X50586666Y-66976190D01*
X50205714Y-66976190D01*
X51729523Y-67452380D02*
X51158095Y-67452380D01*
X51443809Y-67452380D02*
X51443809Y-66452380D01*
X51348571Y-66595238D01*
X51253333Y-66690476D01*
X51158095Y-66738095D01*
X52586666Y-66452380D02*
X52396190Y-66452380D01*
X52300952Y-66500000D01*
X52253333Y-66547619D01*
X52158095Y-66690476D01*
X52110476Y-66880952D01*
X52110476Y-67261904D01*
X52158095Y-67357142D01*
X52205714Y-67404761D01*
X52300952Y-67452380D01*
X52491428Y-67452380D01*
X52586666Y-67404761D01*
X52634285Y-67357142D01*
X52681904Y-67261904D01*
X52681904Y-67023809D01*
X52634285Y-66928571D01*
X52586666Y-66880952D01*
X52491428Y-66833333D01*
X52300952Y-66833333D01*
X52205714Y-66880952D01*
X52158095Y-66928571D01*
X52110476Y-67023809D01*
X49928095Y-76202380D02*
X49928095Y-77011904D01*
X49975714Y-77107142D01*
X50023333Y-77154761D01*
X50118571Y-77202380D01*
X50309047Y-77202380D01*
X50404285Y-77154761D01*
X50451904Y-77107142D01*
X50499523Y-77011904D01*
X50499523Y-76202380D01*
X50928095Y-76297619D02*
X50975714Y-76250000D01*
X51070952Y-76202380D01*
X51309047Y-76202380D01*
X51404285Y-76250000D01*
X51451904Y-76297619D01*
X51499523Y-76392857D01*
X51499523Y-76488095D01*
X51451904Y-76630952D01*
X50880476Y-77202380D01*
X51499523Y-77202380D01*
X121023404Y-61202380D02*
X121023404Y-60202380D01*
X121261500Y-60202380D01*
X121404357Y-60250000D01*
X121499595Y-60345238D01*
X121547214Y-60440476D01*
X121594833Y-60630952D01*
X121594833Y-60773809D01*
X121547214Y-60964285D01*
X121499595Y-61059523D01*
X121404357Y-61154761D01*
X121261500Y-61202380D01*
X121023404Y-61202380D01*
X122071023Y-61202380D02*
X122261500Y-61202380D01*
X122356738Y-61154761D01*
X122404357Y-61107142D01*
X122499595Y-60964285D01*
X122547214Y-60773809D01*
X122547214Y-60392857D01*
X122499595Y-60297619D01*
X122451976Y-60250000D01*
X122356738Y-60202380D01*
X122166261Y-60202380D01*
X122071023Y-60250000D01*
X122023404Y-60297619D01*
X121975785Y-60392857D01*
X121975785Y-60630952D01*
X122023404Y-60726190D01*
X122071023Y-60773809D01*
X122166261Y-60821428D01*
X122356738Y-60821428D01*
X122451976Y-60773809D01*
X122499595Y-60726190D01*
X122547214Y-60630952D01*
X60452380Y-57666666D02*
X59976190Y-58000000D01*
X60452380Y-58238095D02*
X59452380Y-58238095D01*
X59452380Y-57857142D01*
X59500000Y-57761904D01*
X59547619Y-57714285D01*
X59642857Y-57666666D01*
X59785714Y-57666666D01*
X59880952Y-57714285D01*
X59928571Y-57761904D01*
X59976190Y-57857142D01*
X59976190Y-58238095D01*
X60452380Y-57190476D02*
X60452380Y-57000000D01*
X60404761Y-56904761D01*
X60357142Y-56857142D01*
X60214285Y-56761904D01*
X60023809Y-56714285D01*
X59642857Y-56714285D01*
X59547619Y-56761904D01*
X59500000Y-56809523D01*
X59452380Y-56904761D01*
X59452380Y-57095238D01*
X59500000Y-57190476D01*
X59547619Y-57238095D01*
X59642857Y-57285714D01*
X59880952Y-57285714D01*
X59976190Y-57238095D01*
X60023809Y-57190476D01*
X60071428Y-57095238D01*
X60071428Y-56904761D01*
X60023809Y-56809523D01*
X59976190Y-56761904D01*
X59880952Y-56714285D01*
X60452380Y-74142857D02*
X59976190Y-74476190D01*
X60452380Y-74714285D02*
X59452380Y-74714285D01*
X59452380Y-74333333D01*
X59500000Y-74238095D01*
X59547619Y-74190476D01*
X59642857Y-74142857D01*
X59785714Y-74142857D01*
X59880952Y-74190476D01*
X59928571Y-74238095D01*
X59976190Y-74333333D01*
X59976190Y-74714285D01*
X60452380Y-73190476D02*
X60452380Y-73761904D01*
X60452380Y-73476190D02*
X59452380Y-73476190D01*
X59595238Y-73571428D01*
X59690476Y-73666666D01*
X59738095Y-73761904D01*
X59785714Y-72333333D02*
X60452380Y-72333333D01*
X59404761Y-72571428D02*
X60119047Y-72809523D01*
X60119047Y-72190476D01*
X111833333Y-48452380D02*
X111500000Y-47976190D01*
X111261904Y-48452380D02*
X111261904Y-47452380D01*
X111642857Y-47452380D01*
X111738095Y-47500000D01*
X111785714Y-47547619D01*
X111833333Y-47642857D01*
X111833333Y-47785714D01*
X111785714Y-47880952D01*
X111738095Y-47928571D01*
X111642857Y-47976190D01*
X111261904Y-47976190D01*
X112690476Y-47785714D02*
X112690476Y-48452380D01*
X112452380Y-47404761D02*
X112214285Y-48119047D01*
X112833333Y-48119047D01*
X94738095Y-88452380D02*
X94738095Y-89261904D01*
X94785714Y-89357142D01*
X94833333Y-89404761D01*
X94928571Y-89452380D01*
X95119047Y-89452380D01*
X95214285Y-89404761D01*
X95261904Y-89357142D01*
X95309523Y-89261904D01*
X95309523Y-88452380D01*
X95690476Y-88452380D02*
X96357142Y-88452380D01*
X95928571Y-89452380D01*
X107586158Y-70098155D02*
X107505346Y-70125093D01*
X107424534Y-70205905D01*
X107370659Y-70313654D01*
X107370659Y-70421404D01*
X107397597Y-70502216D01*
X107478409Y-70636903D01*
X107559221Y-70717715D01*
X107693908Y-70798528D01*
X107774720Y-70825465D01*
X107882470Y-70825465D01*
X107990219Y-70771590D01*
X108044094Y-70717715D01*
X108097969Y-70609966D01*
X108097969Y-70556091D01*
X107909407Y-70367529D01*
X107801658Y-70475279D01*
X108394280Y-70367529D02*
X107828595Y-69801844D01*
X108717529Y-70044280D01*
X108151844Y-69478595D01*
X108986903Y-69774906D02*
X108421218Y-69209221D01*
X108555905Y-69074534D01*
X108663654Y-69020659D01*
X108771404Y-69020659D01*
X108852216Y-69047597D01*
X108986903Y-69128409D01*
X109067715Y-69209221D01*
X109148528Y-69343908D01*
X109175465Y-69424720D01*
X109175465Y-69532470D01*
X109121590Y-69640219D01*
X108986903Y-69774906D01*
X107713096Y-105631218D02*
X107632284Y-105658155D01*
X107551471Y-105738967D01*
X107497597Y-105846717D01*
X107497597Y-105954467D01*
X107524534Y-106035279D01*
X107605346Y-106169966D01*
X107686158Y-106250778D01*
X107820845Y-106331590D01*
X107901658Y-106358528D01*
X108009407Y-106358528D01*
X108117157Y-106304653D01*
X108171032Y-106250778D01*
X108224906Y-106143028D01*
X108224906Y-106089154D01*
X108036345Y-105900592D01*
X107928595Y-106008341D01*
X108521218Y-105900592D02*
X107955532Y-105334906D01*
X108171032Y-105119407D01*
X108251844Y-105092470D01*
X108305719Y-105092470D01*
X108386531Y-105119407D01*
X108467343Y-105200219D01*
X108494280Y-105281032D01*
X108494280Y-105334906D01*
X108467343Y-105415719D01*
X108251844Y-105631218D01*
X108548155Y-104850033D02*
X108548155Y-104796158D01*
X108575093Y-104715346D01*
X108709780Y-104580659D01*
X108790592Y-104553722D01*
X108844467Y-104553722D01*
X108925279Y-104580659D01*
X108979154Y-104634534D01*
X109033028Y-104742284D01*
X109033028Y-105388781D01*
X109383215Y-105038595D01*
X107613096Y-113251218D02*
X107532284Y-113278155D01*
X107451471Y-113358967D01*
X107397597Y-113466717D01*
X107397597Y-113574467D01*
X107424534Y-113655279D01*
X107505346Y-113789966D01*
X107586158Y-113870778D01*
X107720845Y-113951590D01*
X107801658Y-113978528D01*
X107909407Y-113978528D01*
X108017157Y-113924653D01*
X108071032Y-113870778D01*
X108124906Y-113763028D01*
X108124906Y-113709154D01*
X107936345Y-113520592D01*
X107828595Y-113628341D01*
X108421218Y-113520592D02*
X107855532Y-112954906D01*
X108071032Y-112739407D01*
X108151844Y-112712470D01*
X108205719Y-112712470D01*
X108286531Y-112739407D01*
X108367343Y-112820219D01*
X108394280Y-112901032D01*
X108394280Y-112954906D01*
X108367343Y-113035719D01*
X108151844Y-113251218D01*
X108528967Y-112281471D02*
X108582842Y-112227597D01*
X108663654Y-112200659D01*
X108717529Y-112200659D01*
X108798341Y-112227597D01*
X108933028Y-112308409D01*
X109067715Y-112443096D01*
X109148528Y-112577783D01*
X109175465Y-112658595D01*
X109175465Y-112712470D01*
X109148528Y-112793282D01*
X109094653Y-112847157D01*
X109013841Y-112874094D01*
X108959966Y-112874094D01*
X108879154Y-112847157D01*
X108744467Y-112766345D01*
X108609780Y-112631658D01*
X108528967Y-112496971D01*
X108502030Y-112416158D01*
X108502030Y-112362284D01*
X108528967Y-112281471D01*
X81986158Y-108198155D02*
X81905346Y-108225093D01*
X81824534Y-108305905D01*
X81770659Y-108413654D01*
X81770659Y-108521404D01*
X81797597Y-108602216D01*
X81878409Y-108736903D01*
X81959221Y-108817715D01*
X82093908Y-108898528D01*
X82174720Y-108925465D01*
X82282470Y-108925465D01*
X82390219Y-108871590D01*
X82444094Y-108817715D01*
X82497969Y-108709966D01*
X82497969Y-108656091D01*
X82309407Y-108467529D01*
X82201658Y-108575279D01*
X82794280Y-108467529D02*
X82228595Y-107901844D01*
X83117529Y-108144280D01*
X82551844Y-107578595D01*
X83386903Y-107874906D02*
X82821218Y-107309221D01*
X82955905Y-107174534D01*
X83063654Y-107120659D01*
X83171404Y-107120659D01*
X83252216Y-107147597D01*
X83386903Y-107228409D01*
X83467715Y-107309221D01*
X83548528Y-107443908D01*
X83575465Y-107524720D01*
X83575465Y-107632470D01*
X83521590Y-107740219D01*
X83386903Y-107874906D01*
X107613096Y-85311218D02*
X107532284Y-85338155D01*
X107451471Y-85418967D01*
X107397597Y-85526717D01*
X107397597Y-85634467D01*
X107424534Y-85715279D01*
X107505346Y-85849966D01*
X107586158Y-85930778D01*
X107720845Y-86011590D01*
X107801658Y-86038528D01*
X107909407Y-86038528D01*
X108017157Y-85984653D01*
X108071032Y-85930778D01*
X108124906Y-85823028D01*
X108124906Y-85769154D01*
X107936345Y-85580592D01*
X107828595Y-85688341D01*
X108421218Y-85580592D02*
X107855532Y-85014906D01*
X108071032Y-84799407D01*
X108151844Y-84772470D01*
X108205719Y-84772470D01*
X108286531Y-84799407D01*
X108367343Y-84880219D01*
X108394280Y-84961032D01*
X108394280Y-85014906D01*
X108367343Y-85095719D01*
X108151844Y-85311218D01*
X109013841Y-84987969D02*
X109121590Y-84880219D01*
X109148528Y-84799407D01*
X109148528Y-84745532D01*
X109121590Y-84610845D01*
X109040778Y-84476158D01*
X108825279Y-84260659D01*
X108744467Y-84233722D01*
X108690592Y-84233722D01*
X108609780Y-84260659D01*
X108502030Y-84368409D01*
X108475093Y-84449221D01*
X108475093Y-84503096D01*
X108502030Y-84583908D01*
X108636717Y-84718595D01*
X108717529Y-84745532D01*
X108771404Y-84745532D01*
X108852216Y-84718595D01*
X108959966Y-84610845D01*
X108986903Y-84530033D01*
X108986903Y-84476158D01*
X108959966Y-84395346D01*
X107586158Y-108198155D02*
X107505346Y-108225093D01*
X107424534Y-108305905D01*
X107370659Y-108413654D01*
X107370659Y-108521404D01*
X107397597Y-108602216D01*
X107478409Y-108736903D01*
X107559221Y-108817715D01*
X107693908Y-108898528D01*
X107774720Y-108925465D01*
X107882470Y-108925465D01*
X107990219Y-108871590D01*
X108044094Y-108817715D01*
X108097969Y-108709966D01*
X108097969Y-108656091D01*
X107909407Y-108467529D01*
X107801658Y-108575279D01*
X108394280Y-108467529D02*
X107828595Y-107901844D01*
X108717529Y-108144280D01*
X108151844Y-107578595D01*
X108986903Y-107874906D02*
X108421218Y-107309221D01*
X108555905Y-107174534D01*
X108663654Y-107120659D01*
X108771404Y-107120659D01*
X108852216Y-107147597D01*
X108986903Y-107228409D01*
X109067715Y-107309221D01*
X109148528Y-107443908D01*
X109175465Y-107524720D01*
X109175465Y-107632470D01*
X109121590Y-107740219D01*
X108986903Y-107874906D01*
X81589847Y-103290592D02*
X81940033Y-102940406D01*
X81966971Y-103344467D01*
X82047783Y-103263654D01*
X82128595Y-103236717D01*
X82182470Y-103236717D01*
X82263282Y-103263654D01*
X82397969Y-103398341D01*
X82424906Y-103479154D01*
X82424906Y-103533028D01*
X82397969Y-103613841D01*
X82236345Y-103775465D01*
X82155532Y-103802402D01*
X82101658Y-103802402D01*
X82101658Y-102778781D02*
X82855905Y-103155905D01*
X82478781Y-102401658D01*
X82613468Y-102266971D02*
X82963654Y-101916784D01*
X82990592Y-102320845D01*
X83071404Y-102240033D01*
X83152216Y-102213096D01*
X83206091Y-102213096D01*
X83286903Y-102240033D01*
X83421590Y-102374720D01*
X83448528Y-102455532D01*
X83448528Y-102509407D01*
X83421590Y-102590219D01*
X83259966Y-102751844D01*
X83179154Y-102778781D01*
X83125279Y-102778781D01*
X81489722Y-90660592D02*
X81408910Y-90687529D01*
X81328097Y-90768341D01*
X81274223Y-90876091D01*
X81274223Y-90983841D01*
X81301160Y-91064653D01*
X81381972Y-91199340D01*
X81462784Y-91280152D01*
X81597471Y-91360964D01*
X81678284Y-91387902D01*
X81786033Y-91387902D01*
X81893783Y-91334027D01*
X81947658Y-91280152D01*
X82001532Y-91172402D01*
X82001532Y-91118528D01*
X81812971Y-90929966D01*
X81705221Y-91037715D01*
X82297844Y-90929966D02*
X81732158Y-90364280D01*
X81947658Y-90148781D01*
X82028470Y-90121844D01*
X82082345Y-90121844D01*
X82163157Y-90148781D01*
X82243969Y-90229593D01*
X82270906Y-90310406D01*
X82270906Y-90364280D01*
X82243969Y-90445093D01*
X82028470Y-90660592D01*
X82324781Y-89879407D02*
X82324781Y-89825532D01*
X82351719Y-89744720D01*
X82486406Y-89610033D01*
X82567218Y-89583096D01*
X82621093Y-89583096D01*
X82701905Y-89610033D01*
X82755780Y-89663908D01*
X82809654Y-89771658D01*
X82809654Y-90418155D01*
X83159841Y-90067969D01*
X83079028Y-89017410D02*
X82971279Y-89125160D01*
X82944341Y-89205972D01*
X82944341Y-89259847D01*
X82971279Y-89394534D01*
X83052091Y-89529221D01*
X83267590Y-89744720D01*
X83348402Y-89771658D01*
X83402277Y-89771658D01*
X83483089Y-89744720D01*
X83590839Y-89636971D01*
X83617776Y-89556158D01*
X83617776Y-89502284D01*
X83590839Y-89421471D01*
X83456152Y-89286784D01*
X83375340Y-89259847D01*
X83321465Y-89259847D01*
X83240653Y-89286784D01*
X83132903Y-89394534D01*
X83105966Y-89475346D01*
X83105966Y-89529221D01*
X83132903Y-89610033D01*
X81489722Y-72880592D02*
X81408910Y-72907529D01*
X81328097Y-72988341D01*
X81274223Y-73096091D01*
X81274223Y-73203841D01*
X81301160Y-73284653D01*
X81381972Y-73419340D01*
X81462784Y-73500152D01*
X81597471Y-73580964D01*
X81678284Y-73607902D01*
X81786033Y-73607902D01*
X81893783Y-73554027D01*
X81947658Y-73500152D01*
X82001532Y-73392402D01*
X82001532Y-73338528D01*
X81812971Y-73149966D01*
X81705221Y-73257715D01*
X82297844Y-73149966D02*
X81732158Y-72584280D01*
X81947658Y-72368781D01*
X82028470Y-72341844D01*
X82082345Y-72341844D01*
X82163157Y-72368781D01*
X82243969Y-72449593D01*
X82270906Y-72530406D01*
X82270906Y-72584280D01*
X82243969Y-72665093D01*
X82028470Y-72880592D01*
X83159841Y-72287969D02*
X82836592Y-72611218D01*
X82998216Y-72449593D02*
X82432531Y-71883908D01*
X82459468Y-72018595D01*
X82459468Y-72126345D01*
X82432531Y-72207157D01*
X83159841Y-71641471D02*
X83079028Y-71668409D01*
X83025154Y-71668409D01*
X82944341Y-71641471D01*
X82917404Y-71614534D01*
X82890467Y-71533722D01*
X82890467Y-71479847D01*
X82917404Y-71399035D01*
X83025154Y-71291285D01*
X83105966Y-71264348D01*
X83159841Y-71264348D01*
X83240653Y-71291285D01*
X83267590Y-71318223D01*
X83294528Y-71399035D01*
X83294528Y-71452910D01*
X83267590Y-71533722D01*
X83159841Y-71641471D01*
X83132903Y-71722284D01*
X83132903Y-71776158D01*
X83159841Y-71856971D01*
X83267590Y-71964720D01*
X83348402Y-71991658D01*
X83402277Y-71991658D01*
X83483089Y-71964720D01*
X83590839Y-71856971D01*
X83617776Y-71776158D01*
X83617776Y-71722284D01*
X83590839Y-71641471D01*
X83483089Y-71533722D01*
X83402277Y-71506784D01*
X83348402Y-71506784D01*
X83267590Y-71533722D01*
X99390476Y-63123809D02*
X99504761Y-63161904D01*
X99695238Y-63161904D01*
X99771428Y-63123809D01*
X99809523Y-63085714D01*
X99847619Y-63009523D01*
X99847619Y-62933333D01*
X99809523Y-62857142D01*
X99771428Y-62819047D01*
X99695238Y-62780952D01*
X99542857Y-62742857D01*
X99466666Y-62704761D01*
X99428571Y-62666666D01*
X99390476Y-62590476D01*
X99390476Y-62514285D01*
X99428571Y-62438095D01*
X99466666Y-62400000D01*
X99542857Y-62361904D01*
X99733333Y-62361904D01*
X99847619Y-62400000D01*
X100114285Y-62361904D02*
X100304761Y-63161904D01*
X100457142Y-62590476D01*
X100609523Y-63161904D01*
X100800000Y-62361904D01*
X101561904Y-63085714D02*
X101523809Y-63123809D01*
X101409523Y-63161904D01*
X101333333Y-63161904D01*
X101219047Y-63123809D01*
X101142857Y-63047619D01*
X101104761Y-62971428D01*
X101066666Y-62819047D01*
X101066666Y-62704761D01*
X101104761Y-62552380D01*
X101142857Y-62476190D01*
X101219047Y-62400000D01*
X101333333Y-62361904D01*
X101409523Y-62361904D01*
X101523809Y-62400000D01*
X101561904Y-62438095D01*
X102285714Y-63161904D02*
X101904761Y-63161904D01*
X101904761Y-62361904D01*
X102552380Y-63161904D02*
X102552380Y-62361904D01*
X103009523Y-63161904D02*
X102666666Y-62704761D01*
X103009523Y-62361904D02*
X102552380Y-62819047D01*
X81489722Y-93190592D02*
X81408910Y-93217529D01*
X81328097Y-93298341D01*
X81274223Y-93406091D01*
X81274223Y-93513841D01*
X81301160Y-93594653D01*
X81381972Y-93729340D01*
X81462784Y-93810152D01*
X81597471Y-93890964D01*
X81678284Y-93917902D01*
X81786033Y-93917902D01*
X81893783Y-93864027D01*
X81947658Y-93810152D01*
X82001532Y-93702402D01*
X82001532Y-93648528D01*
X81812971Y-93459966D01*
X81705221Y-93567715D01*
X82297844Y-93459966D02*
X81732158Y-92894280D01*
X81947658Y-92678781D01*
X82028470Y-92651844D01*
X82082345Y-92651844D01*
X82163157Y-92678781D01*
X82243969Y-92759593D01*
X82270906Y-92840406D01*
X82270906Y-92894280D01*
X82243969Y-92975093D01*
X82028470Y-93190592D01*
X82324781Y-92409407D02*
X82324781Y-92355532D01*
X82351719Y-92274720D01*
X82486406Y-92140033D01*
X82567218Y-92113096D01*
X82621093Y-92113096D01*
X82701905Y-92140033D01*
X82755780Y-92193908D01*
X82809654Y-92301658D01*
X82809654Y-92948155D01*
X83159841Y-92597969D01*
X82782717Y-91843722D02*
X83159841Y-91466598D01*
X83483089Y-92274720D01*
X81489722Y-77960592D02*
X81408910Y-77987529D01*
X81328097Y-78068341D01*
X81274223Y-78176091D01*
X81274223Y-78283841D01*
X81301160Y-78364653D01*
X81381972Y-78499340D01*
X81462784Y-78580152D01*
X81597471Y-78660964D01*
X81678284Y-78687902D01*
X81786033Y-78687902D01*
X81893783Y-78634027D01*
X81947658Y-78580152D01*
X82001532Y-78472402D01*
X82001532Y-78418528D01*
X81812971Y-78229966D01*
X81705221Y-78337715D01*
X82297844Y-78229966D02*
X81732158Y-77664280D01*
X81947658Y-77448781D01*
X82028470Y-77421844D01*
X82082345Y-77421844D01*
X82163157Y-77448781D01*
X82243969Y-77529593D01*
X82270906Y-77610406D01*
X82270906Y-77664280D01*
X82243969Y-77745093D01*
X82028470Y-77960592D01*
X82324781Y-77179407D02*
X82324781Y-77125532D01*
X82351719Y-77044720D01*
X82486406Y-76910033D01*
X82567218Y-76883096D01*
X82621093Y-76883096D01*
X82701905Y-76910033D01*
X82755780Y-76963908D01*
X82809654Y-77071658D01*
X82809654Y-77718155D01*
X83159841Y-77367969D01*
X82944341Y-76452097D02*
X82998216Y-76398223D01*
X83079028Y-76371285D01*
X83132903Y-76371285D01*
X83213715Y-76398223D01*
X83348402Y-76479035D01*
X83483089Y-76613722D01*
X83563902Y-76748409D01*
X83590839Y-76829221D01*
X83590839Y-76883096D01*
X83563902Y-76963908D01*
X83510027Y-77017783D01*
X83429215Y-77044720D01*
X83375340Y-77044720D01*
X83294528Y-77017783D01*
X83159841Y-76936971D01*
X83025154Y-76802284D01*
X82944341Y-76667597D01*
X82917404Y-76586784D01*
X82917404Y-76532910D01*
X82944341Y-76452097D01*
X81489722Y-67800592D02*
X81408910Y-67827529D01*
X81328097Y-67908341D01*
X81274223Y-68016091D01*
X81274223Y-68123841D01*
X81301160Y-68204653D01*
X81381972Y-68339340D01*
X81462784Y-68420152D01*
X81597471Y-68500964D01*
X81678284Y-68527902D01*
X81786033Y-68527902D01*
X81893783Y-68474027D01*
X81947658Y-68420152D01*
X82001532Y-68312402D01*
X82001532Y-68258528D01*
X81812971Y-68069966D01*
X81705221Y-68177715D01*
X82297844Y-68069966D02*
X81732158Y-67504280D01*
X81947658Y-67288781D01*
X82028470Y-67261844D01*
X82082345Y-67261844D01*
X82163157Y-67288781D01*
X82243969Y-67369593D01*
X82270906Y-67450406D01*
X82270906Y-67504280D01*
X82243969Y-67585093D01*
X82028470Y-67800592D01*
X83159841Y-67207969D02*
X82836592Y-67531218D01*
X82998216Y-67369593D02*
X82432531Y-66803908D01*
X82459468Y-66938595D01*
X82459468Y-67046345D01*
X82432531Y-67127157D01*
X82782717Y-66453722D02*
X83159841Y-66076598D01*
X83483089Y-66884720D01*
X81489722Y-80490592D02*
X81408910Y-80517529D01*
X81328097Y-80598341D01*
X81274223Y-80706091D01*
X81274223Y-80813841D01*
X81301160Y-80894653D01*
X81381972Y-81029340D01*
X81462784Y-81110152D01*
X81597471Y-81190964D01*
X81678284Y-81217902D01*
X81786033Y-81217902D01*
X81893783Y-81164027D01*
X81947658Y-81110152D01*
X82001532Y-81002402D01*
X82001532Y-80948528D01*
X81812971Y-80759966D01*
X81705221Y-80867715D01*
X82297844Y-80759966D02*
X81732158Y-80194280D01*
X81947658Y-79978781D01*
X82028470Y-79951844D01*
X82082345Y-79951844D01*
X82163157Y-79978781D01*
X82243969Y-80059593D01*
X82270906Y-80140406D01*
X82270906Y-80194280D01*
X82243969Y-80275093D01*
X82028470Y-80490592D01*
X82324781Y-79709407D02*
X82324781Y-79655532D01*
X82351719Y-79574720D01*
X82486406Y-79440033D01*
X82567218Y-79413096D01*
X82621093Y-79413096D01*
X82701905Y-79440033D01*
X82755780Y-79493908D01*
X82809654Y-79601658D01*
X82809654Y-80248155D01*
X83159841Y-79897969D01*
X83698589Y-79359221D02*
X83375340Y-79682470D01*
X83536964Y-79520845D02*
X82971279Y-78955160D01*
X82998216Y-79089847D01*
X82998216Y-79197597D01*
X82971279Y-79278409D01*
X88204761Y-63123809D02*
X88319047Y-63161904D01*
X88509523Y-63161904D01*
X88585714Y-63123809D01*
X88623809Y-63085714D01*
X88661904Y-63009523D01*
X88661904Y-62933333D01*
X88623809Y-62857142D01*
X88585714Y-62819047D01*
X88509523Y-62780952D01*
X88357142Y-62742857D01*
X88280952Y-62704761D01*
X88242857Y-62666666D01*
X88204761Y-62590476D01*
X88204761Y-62514285D01*
X88242857Y-62438095D01*
X88280952Y-62400000D01*
X88357142Y-62361904D01*
X88547619Y-62361904D01*
X88661904Y-62400000D01*
X88928571Y-62361904D02*
X89119047Y-63161904D01*
X89271428Y-62590476D01*
X89423809Y-63161904D01*
X89614285Y-62361904D01*
X89919047Y-63161904D02*
X89919047Y-62361904D01*
X90109523Y-62361904D01*
X90223809Y-62400000D01*
X90300000Y-62476190D01*
X90338095Y-62552380D01*
X90376190Y-62704761D01*
X90376190Y-62819047D01*
X90338095Y-62971428D01*
X90300000Y-63047619D01*
X90223809Y-63123809D01*
X90109523Y-63161904D01*
X89919047Y-63161904D01*
X90719047Y-63161904D02*
X90719047Y-62361904D01*
X91252380Y-62361904D02*
X91404761Y-62361904D01*
X91480952Y-62400000D01*
X91557142Y-62476190D01*
X91595238Y-62628571D01*
X91595238Y-62895238D01*
X91557142Y-63047619D01*
X91480952Y-63123809D01*
X91404761Y-63161904D01*
X91252380Y-63161904D01*
X91176190Y-63123809D01*
X91100000Y-63047619D01*
X91061904Y-62895238D01*
X91061904Y-62628571D01*
X91100000Y-62476190D01*
X91176190Y-62400000D01*
X91252380Y-62361904D01*
X107743722Y-75420592D02*
X107662910Y-75447529D01*
X107582097Y-75528341D01*
X107528223Y-75636091D01*
X107528223Y-75743841D01*
X107555160Y-75824653D01*
X107635972Y-75959340D01*
X107716784Y-76040152D01*
X107851471Y-76120964D01*
X107932284Y-76147902D01*
X108040033Y-76147902D01*
X108147783Y-76094027D01*
X108201658Y-76040152D01*
X108255532Y-75932402D01*
X108255532Y-75878528D01*
X108066971Y-75689966D01*
X107959221Y-75797715D01*
X108551844Y-75689966D02*
X107986158Y-75124280D01*
X108201658Y-74908781D01*
X108282470Y-74881844D01*
X108336345Y-74881844D01*
X108417157Y-74908781D01*
X108497969Y-74989593D01*
X108524906Y-75070406D01*
X108524906Y-75124280D01*
X108497969Y-75205093D01*
X108282470Y-75420592D01*
X109413841Y-74827969D02*
X109090592Y-75151218D01*
X109252216Y-74989593D02*
X108686531Y-74423908D01*
X108713468Y-74558595D01*
X108713468Y-74666345D01*
X108686531Y-74747157D01*
X109117529Y-74100659D02*
X109117529Y-74046784D01*
X109144467Y-73965972D01*
X109279154Y-73831285D01*
X109359966Y-73804348D01*
X109413841Y-73804348D01*
X109494653Y-73831285D01*
X109548528Y-73885160D01*
X109602402Y-73992910D01*
X109602402Y-74639407D01*
X109952589Y-74289221D01*
X107613096Y-98011218D02*
X107532284Y-98038155D01*
X107451471Y-98118967D01*
X107397597Y-98226717D01*
X107397597Y-98334467D01*
X107424534Y-98415279D01*
X107505346Y-98549966D01*
X107586158Y-98630778D01*
X107720845Y-98711590D01*
X107801658Y-98738528D01*
X107909407Y-98738528D01*
X108017157Y-98684653D01*
X108071032Y-98630778D01*
X108124906Y-98523028D01*
X108124906Y-98469154D01*
X107936345Y-98280592D01*
X107828595Y-98388341D01*
X108421218Y-98280592D02*
X107855532Y-97714906D01*
X108071032Y-97499407D01*
X108151844Y-97472470D01*
X108205719Y-97472470D01*
X108286531Y-97499407D01*
X108367343Y-97580219D01*
X108394280Y-97661032D01*
X108394280Y-97714906D01*
X108367343Y-97795719D01*
X108151844Y-98011218D01*
X108690592Y-96879847D02*
X108421218Y-97149221D01*
X108663654Y-97445532D01*
X108663654Y-97391658D01*
X108690592Y-97310845D01*
X108825279Y-97176158D01*
X108906091Y-97149221D01*
X108959966Y-97149221D01*
X109040778Y-97176158D01*
X109175465Y-97310845D01*
X109202402Y-97391658D01*
X109202402Y-97445532D01*
X109175465Y-97526345D01*
X109040778Y-97661032D01*
X108959966Y-97687969D01*
X108906091Y-97687969D01*
X82338375Y-88403435D02*
X81880439Y-88322622D01*
X82015126Y-88726683D02*
X81449441Y-88160998D01*
X81664940Y-87945499D01*
X81745752Y-87918561D01*
X81799627Y-87918561D01*
X81880439Y-87945499D01*
X81961251Y-88026311D01*
X81988189Y-88107123D01*
X81988189Y-88160998D01*
X81961251Y-88241810D01*
X81745752Y-88457309D01*
X82015126Y-87595312D02*
X82473062Y-88053248D01*
X82553874Y-88080186D01*
X82607749Y-88080186D01*
X82688561Y-88053248D01*
X82796311Y-87945499D01*
X82823248Y-87864687D01*
X82823248Y-87810812D01*
X82796311Y-87730000D01*
X82338375Y-87272064D01*
X83173435Y-87568375D02*
X82607749Y-87002690D01*
X83496683Y-87245126D01*
X82930998Y-86679441D01*
X107597722Y-65260592D02*
X107516910Y-65287529D01*
X107436097Y-65368341D01*
X107382223Y-65476091D01*
X107382223Y-65583841D01*
X107409160Y-65664653D01*
X107489972Y-65799340D01*
X107570784Y-65880152D01*
X107705471Y-65960964D01*
X107786284Y-65987902D01*
X107894033Y-65987902D01*
X108001783Y-65934027D01*
X108055658Y-65880152D01*
X108109532Y-65772402D01*
X108109532Y-65718528D01*
X107920971Y-65529966D01*
X107813221Y-65637715D01*
X108405844Y-65529966D02*
X107840158Y-64964280D01*
X108055658Y-64748781D01*
X108136470Y-64721844D01*
X108190345Y-64721844D01*
X108271157Y-64748781D01*
X108351969Y-64829593D01*
X108378906Y-64910406D01*
X108378906Y-64964280D01*
X108351969Y-65045093D01*
X108136470Y-65260592D01*
X109267841Y-64667969D02*
X108944592Y-64991218D01*
X109106216Y-64829593D02*
X108540531Y-64263908D01*
X108567468Y-64398595D01*
X108567468Y-64506345D01*
X108540531Y-64587157D01*
X109213966Y-63590473D02*
X108944592Y-63859847D01*
X109187028Y-64156158D01*
X109187028Y-64102284D01*
X109213966Y-64021471D01*
X109348653Y-63886784D01*
X109429465Y-63859847D01*
X109483340Y-63859847D01*
X109564152Y-63886784D01*
X109698839Y-64021471D01*
X109725776Y-64102284D01*
X109725776Y-64156158D01*
X109698839Y-64236971D01*
X109564152Y-64371658D01*
X109483340Y-64398595D01*
X109429465Y-64398595D01*
X80022131Y-107358308D02*
X80372317Y-107008122D01*
X80399255Y-107412183D01*
X80480067Y-107331370D01*
X80560879Y-107304433D01*
X80614754Y-107304433D01*
X80695566Y-107331370D01*
X80830253Y-107466057D01*
X80857190Y-107546870D01*
X80857190Y-107600744D01*
X80830253Y-107681557D01*
X80668629Y-107843181D01*
X80587816Y-107870118D01*
X80533942Y-107870118D01*
X80533942Y-106846497D02*
X81288189Y-107223621D01*
X80911065Y-106469374D01*
X81045752Y-106334687D02*
X81395938Y-105984500D01*
X81422876Y-106388561D01*
X81503688Y-106307749D01*
X81584500Y-106280812D01*
X81638375Y-106280812D01*
X81719187Y-106307749D01*
X81853874Y-106442436D01*
X81880812Y-106523248D01*
X81880812Y-106577123D01*
X81853874Y-106657935D01*
X81692250Y-106819560D01*
X81611438Y-106846497D01*
X81557563Y-106846497D01*
X82123248Y-106496311D02*
X82554247Y-106065312D01*
X82338748Y-105580439D02*
X82527309Y-105391877D01*
X82904433Y-105607377D02*
X82635059Y-105876751D01*
X82069374Y-105311065D01*
X82338748Y-105041691D01*
X83146870Y-105364940D02*
X82581184Y-104799255D01*
X83470118Y-105041691D01*
X82904433Y-104476006D01*
X81489722Y-75420592D02*
X81408910Y-75447529D01*
X81328097Y-75528341D01*
X81274223Y-75636091D01*
X81274223Y-75743841D01*
X81301160Y-75824653D01*
X81381972Y-75959340D01*
X81462784Y-76040152D01*
X81597471Y-76120964D01*
X81678284Y-76147902D01*
X81786033Y-76147902D01*
X81893783Y-76094027D01*
X81947658Y-76040152D01*
X82001532Y-75932402D01*
X82001532Y-75878528D01*
X81812971Y-75689966D01*
X81705221Y-75797715D01*
X82297844Y-75689966D02*
X81732158Y-75124280D01*
X81947658Y-74908781D01*
X82028470Y-74881844D01*
X82082345Y-74881844D01*
X82163157Y-74908781D01*
X82243969Y-74989593D01*
X82270906Y-75070406D01*
X82270906Y-75124280D01*
X82243969Y-75205093D01*
X82028470Y-75420592D01*
X83159841Y-74827969D02*
X82836592Y-75151218D01*
X82998216Y-74989593D02*
X82432531Y-74423908D01*
X82459468Y-74558595D01*
X82459468Y-74666345D01*
X82432531Y-74747157D01*
X83429215Y-74558595D02*
X83536964Y-74450845D01*
X83563902Y-74370033D01*
X83563902Y-74316158D01*
X83536964Y-74181471D01*
X83456152Y-74046784D01*
X83240653Y-73831285D01*
X83159841Y-73804348D01*
X83105966Y-73804348D01*
X83025154Y-73831285D01*
X82917404Y-73939035D01*
X82890467Y-74019847D01*
X82890467Y-74073722D01*
X82917404Y-74154534D01*
X83052091Y-74289221D01*
X83132903Y-74316158D01*
X83186778Y-74316158D01*
X83267590Y-74289221D01*
X83375340Y-74181471D01*
X83402277Y-74100659D01*
X83402277Y-74046784D01*
X83375340Y-73965972D01*
X107513096Y-90421218D02*
X107432284Y-90448155D01*
X107351471Y-90528967D01*
X107297597Y-90636717D01*
X107297597Y-90744467D01*
X107324534Y-90825279D01*
X107405346Y-90959966D01*
X107486158Y-91040778D01*
X107620845Y-91121590D01*
X107701658Y-91148528D01*
X107809407Y-91148528D01*
X107917157Y-91094653D01*
X107971032Y-91040778D01*
X108024906Y-90933028D01*
X108024906Y-90879154D01*
X107836345Y-90690592D01*
X107728595Y-90798341D01*
X108321218Y-90690592D02*
X107755532Y-90124906D01*
X107971032Y-89909407D01*
X108051844Y-89882470D01*
X108105719Y-89882470D01*
X108186531Y-89909407D01*
X108267343Y-89990219D01*
X108294280Y-90071032D01*
X108294280Y-90124906D01*
X108267343Y-90205719D01*
X108051844Y-90421218D01*
X108267343Y-89613096D02*
X108644467Y-89235972D01*
X108967715Y-90044094D01*
X81489722Y-65260592D02*
X81408910Y-65287529D01*
X81328097Y-65368341D01*
X81274223Y-65476091D01*
X81274223Y-65583841D01*
X81301160Y-65664653D01*
X81381972Y-65799340D01*
X81462784Y-65880152D01*
X81597471Y-65960964D01*
X81678284Y-65987902D01*
X81786033Y-65987902D01*
X81893783Y-65934027D01*
X81947658Y-65880152D01*
X82001532Y-65772402D01*
X82001532Y-65718528D01*
X81812971Y-65529966D01*
X81705221Y-65637715D01*
X82297844Y-65529966D02*
X81732158Y-64964280D01*
X81947658Y-64748781D01*
X82028470Y-64721844D01*
X82082345Y-64721844D01*
X82163157Y-64748781D01*
X82243969Y-64829593D01*
X82270906Y-64910406D01*
X82270906Y-64964280D01*
X82243969Y-65045093D01*
X82028470Y-65260592D01*
X83159841Y-64667969D02*
X82836592Y-64991218D01*
X82998216Y-64829593D02*
X82432531Y-64263908D01*
X82459468Y-64398595D01*
X82459468Y-64506345D01*
X82432531Y-64587157D01*
X83079028Y-63617410D02*
X82971279Y-63725160D01*
X82944341Y-63805972D01*
X82944341Y-63859847D01*
X82971279Y-63994534D01*
X83052091Y-64129221D01*
X83267590Y-64344720D01*
X83348402Y-64371658D01*
X83402277Y-64371658D01*
X83483089Y-64344720D01*
X83590839Y-64236971D01*
X83617776Y-64156158D01*
X83617776Y-64102284D01*
X83590839Y-64021471D01*
X83456152Y-63886784D01*
X83375340Y-63859847D01*
X83321465Y-63859847D01*
X83240653Y-63886784D01*
X83132903Y-63994534D01*
X83105966Y-64075346D01*
X83105966Y-64129221D01*
X83132903Y-64210033D01*
X107613096Y-87851218D02*
X107532284Y-87878155D01*
X107451471Y-87958967D01*
X107397597Y-88066717D01*
X107397597Y-88174467D01*
X107424534Y-88255279D01*
X107505346Y-88389966D01*
X107586158Y-88470778D01*
X107720845Y-88551590D01*
X107801658Y-88578528D01*
X107909407Y-88578528D01*
X108017157Y-88524653D01*
X108071032Y-88470778D01*
X108124906Y-88363028D01*
X108124906Y-88309154D01*
X107936345Y-88120592D01*
X107828595Y-88228341D01*
X108421218Y-88120592D02*
X107855532Y-87554906D01*
X108071032Y-87339407D01*
X108151844Y-87312470D01*
X108205719Y-87312470D01*
X108286531Y-87339407D01*
X108367343Y-87420219D01*
X108394280Y-87501032D01*
X108394280Y-87554906D01*
X108367343Y-87635719D01*
X108151844Y-87851218D01*
X108744467Y-87150845D02*
X108663654Y-87177783D01*
X108609780Y-87177783D01*
X108528967Y-87150845D01*
X108502030Y-87123908D01*
X108475093Y-87043096D01*
X108475093Y-86989221D01*
X108502030Y-86908409D01*
X108609780Y-86800659D01*
X108690592Y-86773722D01*
X108744467Y-86773722D01*
X108825279Y-86800659D01*
X108852216Y-86827597D01*
X108879154Y-86908409D01*
X108879154Y-86962284D01*
X108852216Y-87043096D01*
X108744467Y-87150845D01*
X108717529Y-87231658D01*
X108717529Y-87285532D01*
X108744467Y-87366345D01*
X108852216Y-87474094D01*
X108933028Y-87501032D01*
X108986903Y-87501032D01*
X109067715Y-87474094D01*
X109175465Y-87366345D01*
X109202402Y-87285532D01*
X109202402Y-87231658D01*
X109175465Y-87150845D01*
X109067715Y-87043096D01*
X108986903Y-87016158D01*
X108933028Y-87016158D01*
X108852216Y-87043096D01*
X107597722Y-80500592D02*
X107516910Y-80527529D01*
X107436097Y-80608341D01*
X107382223Y-80716091D01*
X107382223Y-80823841D01*
X107409160Y-80904653D01*
X107489972Y-81039340D01*
X107570784Y-81120152D01*
X107705471Y-81200964D01*
X107786284Y-81227902D01*
X107894033Y-81227902D01*
X108001783Y-81174027D01*
X108055658Y-81120152D01*
X108109532Y-81012402D01*
X108109532Y-80958528D01*
X107920971Y-80769966D01*
X107813221Y-80877715D01*
X108405844Y-80769966D02*
X107840158Y-80204280D01*
X108055658Y-79988781D01*
X108136470Y-79961844D01*
X108190345Y-79961844D01*
X108271157Y-79988781D01*
X108351969Y-80069593D01*
X108378906Y-80150406D01*
X108378906Y-80204280D01*
X108351969Y-80285093D01*
X108136470Y-80500592D01*
X109267841Y-79907969D02*
X108944592Y-80231218D01*
X109106216Y-80069593D02*
X108540531Y-79503908D01*
X108567468Y-79638595D01*
X108567468Y-79746345D01*
X108540531Y-79827157D01*
X109052341Y-78992097D02*
X109106216Y-78938223D01*
X109187028Y-78911285D01*
X109240903Y-78911285D01*
X109321715Y-78938223D01*
X109456402Y-79019035D01*
X109591089Y-79153722D01*
X109671902Y-79288409D01*
X109698839Y-79369221D01*
X109698839Y-79423096D01*
X109671902Y-79503908D01*
X109618027Y-79557783D01*
X109537215Y-79584720D01*
X109483340Y-79584720D01*
X109402528Y-79557783D01*
X109267841Y-79476971D01*
X109133154Y-79342284D01*
X109052341Y-79207597D01*
X109025404Y-79126784D01*
X109025404Y-79072910D01*
X109052341Y-78992097D01*
X107743722Y-77960592D02*
X107662910Y-77987529D01*
X107582097Y-78068341D01*
X107528223Y-78176091D01*
X107528223Y-78283841D01*
X107555160Y-78364653D01*
X107635972Y-78499340D01*
X107716784Y-78580152D01*
X107851471Y-78660964D01*
X107932284Y-78687902D01*
X108040033Y-78687902D01*
X108147783Y-78634027D01*
X108201658Y-78580152D01*
X108255532Y-78472402D01*
X108255532Y-78418528D01*
X108066971Y-78229966D01*
X107959221Y-78337715D01*
X108551844Y-78229966D02*
X107986158Y-77664280D01*
X108201658Y-77448781D01*
X108282470Y-77421844D01*
X108336345Y-77421844D01*
X108417157Y-77448781D01*
X108497969Y-77529593D01*
X108524906Y-77610406D01*
X108524906Y-77664280D01*
X108497969Y-77745093D01*
X108282470Y-77960592D01*
X109413841Y-77367969D02*
X109090592Y-77691218D01*
X109252216Y-77529593D02*
X108686531Y-76963908D01*
X108713468Y-77098595D01*
X108713468Y-77206345D01*
X108686531Y-77287157D01*
X109952589Y-76829221D02*
X109629340Y-77152470D01*
X109790964Y-76990845D02*
X109225279Y-76425160D01*
X109252216Y-76559847D01*
X109252216Y-76667597D01*
X109225279Y-76748409D01*
X107586158Y-82798155D02*
X107505346Y-82825093D01*
X107424534Y-82905905D01*
X107370659Y-83013654D01*
X107370659Y-83121404D01*
X107397597Y-83202216D01*
X107478409Y-83336903D01*
X107559221Y-83417715D01*
X107693908Y-83498528D01*
X107774720Y-83525465D01*
X107882470Y-83525465D01*
X107990219Y-83471590D01*
X108044094Y-83417715D01*
X108097969Y-83309966D01*
X108097969Y-83256091D01*
X107909407Y-83067529D01*
X107801658Y-83175279D01*
X108394280Y-83067529D02*
X107828595Y-82501844D01*
X108717529Y-82744280D01*
X108151844Y-82178595D01*
X108986903Y-82474906D02*
X108421218Y-81909221D01*
X108555905Y-81774534D01*
X108663654Y-81720659D01*
X108771404Y-81720659D01*
X108852216Y-81747597D01*
X108986903Y-81828409D01*
X109067715Y-81909221D01*
X109148528Y-82043908D01*
X109175465Y-82124720D01*
X109175465Y-82232470D01*
X109121590Y-82340219D01*
X108986903Y-82474906D01*
X107586158Y-95498155D02*
X107505346Y-95525093D01*
X107424534Y-95605905D01*
X107370659Y-95713654D01*
X107370659Y-95821404D01*
X107397597Y-95902216D01*
X107478409Y-96036903D01*
X107559221Y-96117715D01*
X107693908Y-96198528D01*
X107774720Y-96225465D01*
X107882470Y-96225465D01*
X107990219Y-96171590D01*
X108044094Y-96117715D01*
X108097969Y-96009966D01*
X108097969Y-95956091D01*
X107909407Y-95767529D01*
X107801658Y-95875279D01*
X108394280Y-95767529D02*
X107828595Y-95201844D01*
X108717529Y-95444280D01*
X108151844Y-94878595D01*
X108986903Y-95174906D02*
X108421218Y-94609221D01*
X108555905Y-94474534D01*
X108663654Y-94420659D01*
X108771404Y-94420659D01*
X108852216Y-94447597D01*
X108986903Y-94528409D01*
X109067715Y-94609221D01*
X109148528Y-94743908D01*
X109175465Y-94824720D01*
X109175465Y-94932470D01*
X109121590Y-95040219D01*
X108986903Y-95174906D01*
X81986158Y-82798155D02*
X81905346Y-82825093D01*
X81824534Y-82905905D01*
X81770659Y-83013654D01*
X81770659Y-83121404D01*
X81797597Y-83202216D01*
X81878409Y-83336903D01*
X81959221Y-83417715D01*
X82093908Y-83498528D01*
X82174720Y-83525465D01*
X82282470Y-83525465D01*
X82390219Y-83471590D01*
X82444094Y-83417715D01*
X82497969Y-83309966D01*
X82497969Y-83256091D01*
X82309407Y-83067529D01*
X82201658Y-83175279D01*
X82794280Y-83067529D02*
X82228595Y-82501844D01*
X83117529Y-82744280D01*
X82551844Y-82178595D01*
X83386903Y-82474906D02*
X82821218Y-81909221D01*
X82955905Y-81774534D01*
X83063654Y-81720659D01*
X83171404Y-81720659D01*
X83252216Y-81747597D01*
X83386903Y-81828409D01*
X83467715Y-81909221D01*
X83548528Y-82043908D01*
X83575465Y-82124720D01*
X83575465Y-82232470D01*
X83521590Y-82340219D01*
X83386903Y-82474906D01*
X81543597Y-96440964D02*
X81812971Y-96171590D01*
X81651346Y-96656463D02*
X81274223Y-95902216D01*
X82028470Y-96279340D01*
X81974595Y-95255719D02*
X81893783Y-95282656D01*
X81812971Y-95363468D01*
X81759096Y-95471218D01*
X81759096Y-95578967D01*
X81786033Y-95659780D01*
X81866845Y-95794467D01*
X81947658Y-95875279D01*
X82082345Y-95956091D01*
X82163157Y-95983028D01*
X82270906Y-95983028D01*
X82378656Y-95929154D01*
X82432531Y-95875279D01*
X82486406Y-95767529D01*
X82486406Y-95713654D01*
X82297844Y-95525093D01*
X82190094Y-95632842D01*
X82782717Y-95525093D02*
X82217032Y-94959407D01*
X83105966Y-95201844D01*
X82540280Y-94636158D01*
X83375340Y-94932470D02*
X82809654Y-94366784D01*
X82944341Y-94232097D01*
X83052091Y-94178223D01*
X83159841Y-94178223D01*
X83240653Y-94205160D01*
X83375340Y-94285972D01*
X83456152Y-94366784D01*
X83536964Y-94501471D01*
X83563902Y-94582284D01*
X83563902Y-94690033D01*
X83510027Y-94797783D01*
X83375340Y-94932470D01*
X80853129Y-113927309D02*
X81607377Y-114304433D01*
X81230253Y-113550186D01*
X81876751Y-113442436D02*
X81984500Y-113388561D01*
X82038375Y-113388561D01*
X82119187Y-113415499D01*
X82199999Y-113496311D01*
X82226937Y-113577123D01*
X82226937Y-113630998D01*
X82200000Y-113711810D01*
X81984500Y-113927309D01*
X81418815Y-113361624D01*
X81607377Y-113173062D01*
X81688189Y-113146125D01*
X81742064Y-113146125D01*
X81822876Y-113173062D01*
X81876751Y-113226937D01*
X81903688Y-113307749D01*
X81903688Y-113361624D01*
X81876751Y-113442436D01*
X81688189Y-113630998D01*
X81984500Y-112795938D02*
X82442436Y-113253874D01*
X82523248Y-113280812D01*
X82577123Y-113280812D01*
X82657935Y-113253874D01*
X82765685Y-113146125D01*
X82792622Y-113065312D01*
X82792622Y-113011438D01*
X82765685Y-112930625D01*
X82307749Y-112472690D01*
X83088934Y-112769001D02*
X83196683Y-112715126D01*
X83331370Y-112580439D01*
X83358308Y-112499627D01*
X83358308Y-112445752D01*
X83331370Y-112364940D01*
X83277496Y-112311065D01*
X83196683Y-112284128D01*
X83142809Y-112284128D01*
X83061996Y-112311065D01*
X82927309Y-112391877D01*
X82846497Y-112418815D01*
X82792622Y-112418815D01*
X82711810Y-112391877D01*
X82657935Y-112338003D01*
X82630998Y-112257190D01*
X82630998Y-112203316D01*
X82657935Y-112122503D01*
X82792622Y-111987816D01*
X82900372Y-111933942D01*
X81489722Y-85580592D02*
X81408910Y-85607529D01*
X81328097Y-85688341D01*
X81274223Y-85796091D01*
X81274223Y-85903841D01*
X81301160Y-85984653D01*
X81381972Y-86119340D01*
X81462784Y-86200152D01*
X81597471Y-86280964D01*
X81678284Y-86307902D01*
X81786033Y-86307902D01*
X81893783Y-86254027D01*
X81947658Y-86200152D01*
X82001532Y-86092402D01*
X82001532Y-86038528D01*
X81812971Y-85849966D01*
X81705221Y-85957715D01*
X82297844Y-85849966D02*
X81732158Y-85284280D01*
X81947658Y-85068781D01*
X82028470Y-85041844D01*
X82082345Y-85041844D01*
X82163157Y-85068781D01*
X82243969Y-85149593D01*
X82270906Y-85230406D01*
X82270906Y-85284280D01*
X82243969Y-85365093D01*
X82028470Y-85580592D01*
X82324781Y-84799407D02*
X82324781Y-84745532D01*
X82351719Y-84664720D01*
X82486406Y-84530033D01*
X82567218Y-84503096D01*
X82621093Y-84503096D01*
X82701905Y-84530033D01*
X82755780Y-84583908D01*
X82809654Y-84691658D01*
X82809654Y-85338155D01*
X83159841Y-84987969D01*
X82863529Y-84260659D02*
X82863529Y-84206784D01*
X82890467Y-84125972D01*
X83025154Y-83991285D01*
X83105966Y-83964348D01*
X83159841Y-83964348D01*
X83240653Y-83991285D01*
X83294528Y-84045160D01*
X83348402Y-84152910D01*
X83348402Y-84799407D01*
X83698589Y-84449221D01*
X81986158Y-70098155D02*
X81905346Y-70125093D01*
X81824534Y-70205905D01*
X81770659Y-70313654D01*
X81770659Y-70421404D01*
X81797597Y-70502216D01*
X81878409Y-70636903D01*
X81959221Y-70717715D01*
X82093908Y-70798528D01*
X82174720Y-70825465D01*
X82282470Y-70825465D01*
X82390219Y-70771590D01*
X82444094Y-70717715D01*
X82497969Y-70609966D01*
X82497969Y-70556091D01*
X82309407Y-70367529D01*
X82201658Y-70475279D01*
X82794280Y-70367529D02*
X82228595Y-69801844D01*
X83117529Y-70044280D01*
X82551844Y-69478595D01*
X83386903Y-69774906D02*
X82821218Y-69209221D01*
X82955905Y-69074534D01*
X83063654Y-69020659D01*
X83171404Y-69020659D01*
X83252216Y-69047597D01*
X83386903Y-69128409D01*
X83467715Y-69209221D01*
X83548528Y-69343908D01*
X83575465Y-69424720D01*
X83575465Y-69532470D01*
X83521590Y-69640219D01*
X83386903Y-69774906D01*
X107643722Y-67800592D02*
X107562910Y-67827529D01*
X107482097Y-67908341D01*
X107428223Y-68016091D01*
X107428223Y-68123841D01*
X107455160Y-68204653D01*
X107535972Y-68339340D01*
X107616784Y-68420152D01*
X107751471Y-68500964D01*
X107832284Y-68527902D01*
X107940033Y-68527902D01*
X108047783Y-68474027D01*
X108101658Y-68420152D01*
X108155532Y-68312402D01*
X108155532Y-68258528D01*
X107966971Y-68069966D01*
X107859221Y-68177715D01*
X108451844Y-68069966D02*
X107886158Y-67504280D01*
X108101658Y-67288781D01*
X108182470Y-67261844D01*
X108236345Y-67261844D01*
X108317157Y-67288781D01*
X108397969Y-67369593D01*
X108424906Y-67450406D01*
X108424906Y-67504280D01*
X108397969Y-67585093D01*
X108182470Y-67800592D01*
X109313841Y-67207969D02*
X108990592Y-67531218D01*
X109152216Y-67369593D02*
X108586531Y-66803908D01*
X108613468Y-66938595D01*
X108613468Y-67046345D01*
X108586531Y-67127157D01*
X109421590Y-66345972D02*
X109798714Y-66723096D01*
X109071404Y-66265160D02*
X109340778Y-66803908D01*
X109690964Y-66453722D01*
X107613096Y-92931218D02*
X107532284Y-92958155D01*
X107451471Y-93038967D01*
X107397597Y-93146717D01*
X107397597Y-93254467D01*
X107424534Y-93335279D01*
X107505346Y-93469966D01*
X107586158Y-93550778D01*
X107720845Y-93631590D01*
X107801658Y-93658528D01*
X107909407Y-93658528D01*
X108017157Y-93604653D01*
X108071032Y-93550778D01*
X108124906Y-93443028D01*
X108124906Y-93389154D01*
X107936345Y-93200592D01*
X107828595Y-93308341D01*
X108421218Y-93200592D02*
X107855532Y-92634906D01*
X108071032Y-92419407D01*
X108151844Y-92392470D01*
X108205719Y-92392470D01*
X108286531Y-92419407D01*
X108367343Y-92500219D01*
X108394280Y-92581032D01*
X108394280Y-92634906D01*
X108367343Y-92715719D01*
X108151844Y-92931218D01*
X108663654Y-91826784D02*
X108555905Y-91934534D01*
X108528967Y-92015346D01*
X108528967Y-92069221D01*
X108555905Y-92203908D01*
X108636717Y-92338595D01*
X108852216Y-92554094D01*
X108933028Y-92581032D01*
X108986903Y-92581032D01*
X109067715Y-92554094D01*
X109175465Y-92446345D01*
X109202402Y-92365532D01*
X109202402Y-92311658D01*
X109175465Y-92230845D01*
X109040778Y-92096158D01*
X108959966Y-92069221D01*
X108906091Y-92069221D01*
X108825279Y-92096158D01*
X108717529Y-92203908D01*
X108690592Y-92284720D01*
X108690592Y-92338595D01*
X108717529Y-92419407D01*
X81489722Y-98534592D02*
X81408910Y-98561529D01*
X81328097Y-98642341D01*
X81274223Y-98750091D01*
X81274223Y-98857841D01*
X81301160Y-98938653D01*
X81381972Y-99073340D01*
X81462784Y-99154152D01*
X81597471Y-99234964D01*
X81678284Y-99261902D01*
X81786033Y-99261902D01*
X81893783Y-99208027D01*
X81947658Y-99154152D01*
X82001532Y-99046402D01*
X82001532Y-98992528D01*
X81812971Y-98803966D01*
X81705221Y-98911715D01*
X82297844Y-98803966D02*
X81732158Y-98238280D01*
X81947658Y-98022781D01*
X82028470Y-97995844D01*
X82082345Y-97995844D01*
X82163157Y-98022781D01*
X82243969Y-98103593D01*
X82270906Y-98184406D01*
X82270906Y-98238280D01*
X82243969Y-98319093D01*
X82028470Y-98534592D01*
X82324781Y-97753407D02*
X82324781Y-97699532D01*
X82351719Y-97618720D01*
X82486406Y-97484033D01*
X82567218Y-97457096D01*
X82621093Y-97457096D01*
X82701905Y-97484033D01*
X82755780Y-97537908D01*
X82809654Y-97645658D01*
X82809654Y-98292155D01*
X83159841Y-97941969D01*
X83159841Y-97295471D02*
X83079028Y-97322409D01*
X83025154Y-97322409D01*
X82944341Y-97295471D01*
X82917404Y-97268534D01*
X82890467Y-97187722D01*
X82890467Y-97133847D01*
X82917404Y-97053035D01*
X83025154Y-96945285D01*
X83105966Y-96918348D01*
X83159841Y-96918348D01*
X83240653Y-96945285D01*
X83267590Y-96972223D01*
X83294528Y-97053035D01*
X83294528Y-97106910D01*
X83267590Y-97187722D01*
X83159841Y-97295471D01*
X83132903Y-97376284D01*
X83132903Y-97430158D01*
X83159841Y-97510971D01*
X83267590Y-97618720D01*
X83348402Y-97645658D01*
X83402277Y-97645658D01*
X83483089Y-97618720D01*
X83590839Y-97510971D01*
X83617776Y-97430158D01*
X83617776Y-97376284D01*
X83590839Y-97295471D01*
X83483089Y-97187722D01*
X83402277Y-97160784D01*
X83348402Y-97160784D01*
X83267590Y-97187722D01*
X81020473Y-111249966D02*
X81774720Y-111627089D01*
X81397597Y-110872842D01*
X82097969Y-111249966D02*
X82205719Y-111196091D01*
X82340406Y-111061404D01*
X82367343Y-110980592D01*
X82367343Y-110926717D01*
X82340406Y-110845905D01*
X82286531Y-110792030D01*
X82205719Y-110765093D01*
X82151844Y-110765093D01*
X82071032Y-110792030D01*
X81936345Y-110872842D01*
X81855532Y-110899780D01*
X81801658Y-110899780D01*
X81720845Y-110872842D01*
X81666971Y-110818967D01*
X81640033Y-110738155D01*
X81640033Y-110684280D01*
X81666971Y-110603468D01*
X81801658Y-110468781D01*
X81909407Y-110414906D01*
X82528967Y-110334094D02*
X82798341Y-110603468D01*
X82044094Y-110226345D02*
X82528967Y-110334094D01*
X82421218Y-109849221D01*
X83121590Y-110226345D02*
X83229340Y-110172470D01*
X83364027Y-110037783D01*
X83390964Y-109956971D01*
X83390964Y-109903096D01*
X83364027Y-109822284D01*
X83310152Y-109768409D01*
X83229340Y-109741471D01*
X83175465Y-109741471D01*
X83094653Y-109768409D01*
X82959966Y-109849221D01*
X82879154Y-109876158D01*
X82825279Y-109876158D01*
X82744467Y-109849221D01*
X82690592Y-109795346D01*
X82663654Y-109714534D01*
X82663654Y-109660659D01*
X82690592Y-109579847D01*
X82825279Y-109445160D01*
X82933028Y-109391285D01*
X107613096Y-103091218D02*
X107532284Y-103118155D01*
X107451471Y-103198967D01*
X107397597Y-103306717D01*
X107397597Y-103414467D01*
X107424534Y-103495279D01*
X107505346Y-103629966D01*
X107586158Y-103710778D01*
X107720845Y-103791590D01*
X107801658Y-103818528D01*
X107909407Y-103818528D01*
X108017157Y-103764653D01*
X108071032Y-103710778D01*
X108124906Y-103603028D01*
X108124906Y-103549154D01*
X107936345Y-103360592D01*
X107828595Y-103468341D01*
X108421218Y-103360592D02*
X107855532Y-102794906D01*
X108071032Y-102579407D01*
X108151844Y-102552470D01*
X108205719Y-102552470D01*
X108286531Y-102579407D01*
X108367343Y-102660219D01*
X108394280Y-102741032D01*
X108394280Y-102794906D01*
X108367343Y-102875719D01*
X108151844Y-103091218D01*
X108367343Y-102283096D02*
X108717529Y-101932910D01*
X108744467Y-102336971D01*
X108825279Y-102256158D01*
X108906091Y-102229221D01*
X108959966Y-102229221D01*
X109040778Y-102256158D01*
X109175465Y-102390845D01*
X109202402Y-102471658D01*
X109202402Y-102525532D01*
X109175465Y-102606345D01*
X109013841Y-102767969D01*
X108933028Y-102794906D01*
X108879154Y-102794906D01*
X107597722Y-72880592D02*
X107516910Y-72907529D01*
X107436097Y-72988341D01*
X107382223Y-73096091D01*
X107382223Y-73203841D01*
X107409160Y-73284653D01*
X107489972Y-73419340D01*
X107570784Y-73500152D01*
X107705471Y-73580964D01*
X107786284Y-73607902D01*
X107894033Y-73607902D01*
X108001783Y-73554027D01*
X108055658Y-73500152D01*
X108109532Y-73392402D01*
X108109532Y-73338528D01*
X107920971Y-73149966D01*
X107813221Y-73257715D01*
X108405844Y-73149966D02*
X107840158Y-72584280D01*
X108055658Y-72368781D01*
X108136470Y-72341844D01*
X108190345Y-72341844D01*
X108271157Y-72368781D01*
X108351969Y-72449593D01*
X108378906Y-72530406D01*
X108378906Y-72584280D01*
X108351969Y-72665093D01*
X108136470Y-72880592D01*
X109267841Y-72287969D02*
X108944592Y-72611218D01*
X109106216Y-72449593D02*
X108540531Y-71883908D01*
X108567468Y-72018595D01*
X108567468Y-72126345D01*
X108540531Y-72207157D01*
X108890717Y-71533722D02*
X109240903Y-71183536D01*
X109267841Y-71587597D01*
X109348653Y-71506784D01*
X109429465Y-71479847D01*
X109483340Y-71479847D01*
X109564152Y-71506784D01*
X109698839Y-71641471D01*
X109725776Y-71722284D01*
X109725776Y-71776158D01*
X109698839Y-71856971D01*
X109537215Y-72018595D01*
X109456402Y-72045532D01*
X109402528Y-72045532D01*
X79654788Y-103533773D02*
X79924162Y-103264399D01*
X79762537Y-103749272D02*
X79385414Y-102995025D01*
X80139661Y-103372149D01*
X80328223Y-103183587D02*
X79762537Y-102617902D01*
X79897224Y-102483215D01*
X80004974Y-102429340D01*
X80112723Y-102429340D01*
X80193536Y-102456277D01*
X80328223Y-102537089D01*
X80409035Y-102617902D01*
X80489847Y-102752589D01*
X80516784Y-102833401D01*
X80516784Y-102941150D01*
X80462910Y-103048900D01*
X80328223Y-103183587D01*
X81163282Y-102240778D02*
X81163282Y-102294653D01*
X81109407Y-102402402D01*
X81055532Y-102456277D01*
X80947783Y-102510152D01*
X80840033Y-102510152D01*
X80759221Y-102483215D01*
X80624534Y-102402402D01*
X80543722Y-102321590D01*
X80462910Y-102186903D01*
X80435972Y-102106091D01*
X80435972Y-101998341D01*
X80489847Y-101890592D01*
X80543722Y-101836717D01*
X80651471Y-101782842D01*
X80705346Y-101782842D01*
X81378781Y-102240778D02*
X81809780Y-101809780D01*
X81244094Y-101136345D02*
X81998341Y-101513468D01*
X81621218Y-100759221D01*
X82698714Y-100813096D02*
X82240778Y-100732284D01*
X82375465Y-101136345D02*
X81809780Y-100570659D01*
X82025279Y-100355160D01*
X82106091Y-100328223D01*
X82159966Y-100328223D01*
X82240778Y-100355160D01*
X82321590Y-100435972D01*
X82348528Y-100516784D01*
X82348528Y-100570659D01*
X82321590Y-100651471D01*
X82106091Y-100866971D01*
X82644839Y-100274348D02*
X82833401Y-100085786D01*
X83210524Y-100301285D02*
X82941150Y-100570659D01*
X82375465Y-100004974D01*
X82644839Y-99735600D01*
X83345211Y-99573975D02*
X83156650Y-99762537D01*
X83452961Y-100058849D02*
X82887276Y-99493163D01*
X83156650Y-99223789D01*
X107613096Y-100551218D02*
X107532284Y-100578155D01*
X107451471Y-100658967D01*
X107397597Y-100766717D01*
X107397597Y-100874467D01*
X107424534Y-100955279D01*
X107505346Y-101089966D01*
X107586158Y-101170778D01*
X107720845Y-101251590D01*
X107801658Y-101278528D01*
X107909407Y-101278528D01*
X108017157Y-101224653D01*
X108071032Y-101170778D01*
X108124906Y-101063028D01*
X108124906Y-101009154D01*
X107936345Y-100820592D01*
X107828595Y-100928341D01*
X108421218Y-100820592D02*
X107855532Y-100254906D01*
X108071032Y-100039407D01*
X108151844Y-100012470D01*
X108205719Y-100012470D01*
X108286531Y-100039407D01*
X108367343Y-100120219D01*
X108394280Y-100201032D01*
X108394280Y-100254906D01*
X108367343Y-100335719D01*
X108151844Y-100551218D01*
X108852216Y-99635346D02*
X109229340Y-100012470D01*
X108502030Y-99554534D02*
X108771404Y-100093282D01*
X109121590Y-99743096D01*
X107713096Y-110721218D02*
X107632284Y-110748155D01*
X107551471Y-110828967D01*
X107497597Y-110936717D01*
X107497597Y-111044467D01*
X107524534Y-111125279D01*
X107605346Y-111259966D01*
X107686158Y-111340778D01*
X107820845Y-111421590D01*
X107901658Y-111448528D01*
X108009407Y-111448528D01*
X108117157Y-111394653D01*
X108171032Y-111340778D01*
X108224906Y-111233028D01*
X108224906Y-111179154D01*
X108036345Y-110990592D01*
X107928595Y-111098341D01*
X108521218Y-110990592D02*
X107955532Y-110424906D01*
X108171032Y-110209407D01*
X108251844Y-110182470D01*
X108305719Y-110182470D01*
X108386531Y-110209407D01*
X108467343Y-110290219D01*
X108494280Y-110371032D01*
X108494280Y-110424906D01*
X108467343Y-110505719D01*
X108251844Y-110721218D01*
X109383215Y-110128595D02*
X109059966Y-110451844D01*
X109221590Y-110290219D02*
X108655905Y-109724534D01*
X108682842Y-109859221D01*
X108682842Y-109966971D01*
X108655905Y-110047783D01*
X70952380Y-104488095D02*
X69952380Y-104488095D01*
X69952380Y-104250000D01*
X70000000Y-104107142D01*
X70095238Y-104011904D01*
X70190476Y-103964285D01*
X70380952Y-103916666D01*
X70523809Y-103916666D01*
X70714285Y-103964285D01*
X70809523Y-104011904D01*
X70904761Y-104107142D01*
X70952380Y-104250000D01*
X70952380Y-104488095D01*
X70380952Y-103345238D02*
X70333333Y-103440476D01*
X70285714Y-103488095D01*
X70190476Y-103535714D01*
X70142857Y-103535714D01*
X70047619Y-103488095D01*
X70000000Y-103440476D01*
X69952380Y-103345238D01*
X69952380Y-103154761D01*
X70000000Y-103059523D01*
X70047619Y-103011904D01*
X70142857Y-102964285D01*
X70190476Y-102964285D01*
X70285714Y-103011904D01*
X70333333Y-103059523D01*
X70380952Y-103154761D01*
X70380952Y-103345238D01*
X70428571Y-103440476D01*
X70476190Y-103488095D01*
X70571428Y-103535714D01*
X70761904Y-103535714D01*
X70857142Y-103488095D01*
X70904761Y-103440476D01*
X70952380Y-103345238D01*
X70952380Y-103154761D01*
X70904761Y-103059523D01*
X70857142Y-103011904D01*
X70761904Y-102964285D01*
X70571428Y-102964285D01*
X70476190Y-103011904D01*
X70428571Y-103059523D01*
X70380952Y-103154761D01*
X72752380Y-100011904D02*
X71752380Y-100011904D01*
X72752380Y-99440476D02*
X72180952Y-99869047D01*
X71752380Y-99440476D02*
X72323809Y-100011904D01*
X117333333Y-39357142D02*
X117285714Y-39404761D01*
X117142857Y-39452380D01*
X117047619Y-39452380D01*
X116904761Y-39404761D01*
X116809523Y-39309523D01*
X116761904Y-39214285D01*
X116714285Y-39023809D01*
X116714285Y-38880952D01*
X116761904Y-38690476D01*
X116809523Y-38595238D01*
X116904761Y-38500000D01*
X117047619Y-38452380D01*
X117142857Y-38452380D01*
X117285714Y-38500000D01*
X117333333Y-38547619D01*
X117809523Y-39452380D02*
X118000000Y-39452380D01*
X118095238Y-39404761D01*
X118142857Y-39357142D01*
X118238095Y-39214285D01*
X118285714Y-39023809D01*
X118285714Y-38642857D01*
X118238095Y-38547619D01*
X118190476Y-38500000D01*
X118095238Y-38452380D01*
X117904761Y-38452380D01*
X117809523Y-38500000D01*
X117761904Y-38547619D01*
X117714285Y-38642857D01*
X117714285Y-38880952D01*
X117761904Y-38976190D01*
X117809523Y-39023809D01*
X117904761Y-39071428D01*
X118095238Y-39071428D01*
X118190476Y-39023809D01*
X118238095Y-38976190D01*
X118285714Y-38880952D01*
X73166666Y-55182380D02*
X73166666Y-55896666D01*
X73119047Y-56039523D01*
X73023809Y-56134761D01*
X72880952Y-56182380D01*
X72785714Y-56182380D01*
X73595238Y-55277619D02*
X73642857Y-55230000D01*
X73738095Y-55182380D01*
X73976190Y-55182380D01*
X74071428Y-55230000D01*
X74119047Y-55277619D01*
X74166666Y-55372857D01*
X74166666Y-55468095D01*
X74119047Y-55610952D01*
X73547619Y-56182380D01*
X74166666Y-56182380D01*
X82928571Y-43285714D02*
X82976190Y-43142857D01*
X83023809Y-43095238D01*
X83119047Y-43047619D01*
X83261904Y-43047619D01*
X83357142Y-43095238D01*
X83404761Y-43142857D01*
X83452380Y-43238095D01*
X83452380Y-43619047D01*
X82452380Y-43619047D01*
X82452380Y-43285714D01*
X82500000Y-43190476D01*
X82547619Y-43142857D01*
X82642857Y-43095238D01*
X82738095Y-43095238D01*
X82833333Y-43142857D01*
X82880952Y-43190476D01*
X82928571Y-43285714D01*
X82928571Y-43619047D01*
X82452380Y-42761904D02*
X82452380Y-42190476D01*
X83452380Y-42476190D02*
X82452380Y-42476190D01*
X83452380Y-41333333D02*
X83452380Y-41904761D01*
X83452380Y-41619047D02*
X82452380Y-41619047D01*
X82595238Y-41714285D01*
X82690476Y-41809523D01*
X82738095Y-41904761D01*
X83107142Y-45821428D02*
X83107142Y-44678571D01*
X83678571Y-45250000D02*
X82535714Y-45250000D01*
X132452380Y-79642857D02*
X131976190Y-79976190D01*
X132452380Y-80214285D02*
X131452380Y-80214285D01*
X131452380Y-79833333D01*
X131500000Y-79738095D01*
X131547619Y-79690476D01*
X131642857Y-79642857D01*
X131785714Y-79642857D01*
X131880952Y-79690476D01*
X131928571Y-79738095D01*
X131976190Y-79833333D01*
X131976190Y-80214285D01*
X131547619Y-79261904D02*
X131500000Y-79214285D01*
X131452380Y-79119047D01*
X131452380Y-78880952D01*
X131500000Y-78785714D01*
X131547619Y-78738095D01*
X131642857Y-78690476D01*
X131738095Y-78690476D01*
X131880952Y-78738095D01*
X132452380Y-79309523D01*
X132452380Y-78690476D01*
X131452380Y-77833333D02*
X131452380Y-78023809D01*
X131500000Y-78119047D01*
X131547619Y-78166666D01*
X131690476Y-78261904D01*
X131880952Y-78309523D01*
X132261904Y-78309523D01*
X132357142Y-78261904D01*
X132404761Y-78214285D01*
X132452380Y-78119047D01*
X132452380Y-77928571D01*
X132404761Y-77833333D01*
X132357142Y-77785714D01*
X132261904Y-77738095D01*
X132023809Y-77738095D01*
X131928571Y-77785714D01*
X131880952Y-77833333D01*
X131833333Y-77928571D01*
X131833333Y-78119047D01*
X131880952Y-78214285D01*
X131928571Y-78261904D01*
X132023809Y-78309523D01*
X98952380Y-52714285D02*
X97952380Y-52714285D01*
X97952380Y-52476190D01*
X98000000Y-52333333D01*
X98095238Y-52238095D01*
X98190476Y-52190476D01*
X98380952Y-52142857D01*
X98523809Y-52142857D01*
X98714285Y-52190476D01*
X98809523Y-52238095D01*
X98904761Y-52333333D01*
X98952380Y-52476190D01*
X98952380Y-52714285D01*
X98952380Y-51190476D02*
X98952380Y-51761904D01*
X98952380Y-51476190D02*
X97952380Y-51476190D01*
X98095238Y-51571428D01*
X98190476Y-51666666D01*
X98238095Y-51761904D01*
X98285714Y-50333333D02*
X98952380Y-50333333D01*
X97904761Y-50571428D02*
X98619047Y-50809523D01*
X98619047Y-50190476D01*
X97152380Y-55761904D02*
X96152380Y-55761904D01*
X97152380Y-55190476D02*
X96580952Y-55619047D01*
X96152380Y-55190476D02*
X96723809Y-55761904D01*
X43833333Y-21357142D02*
X43785714Y-21404761D01*
X43642857Y-21452380D01*
X43547619Y-21452380D01*
X43404761Y-21404761D01*
X43309523Y-21309523D01*
X43261904Y-21214285D01*
X43214285Y-21023809D01*
X43214285Y-20880952D01*
X43261904Y-20690476D01*
X43309523Y-20595238D01*
X43404761Y-20500000D01*
X43547619Y-20452380D01*
X43642857Y-20452380D01*
X43785714Y-20500000D01*
X43833333Y-20547619D01*
X44785714Y-21452380D02*
X44214285Y-21452380D01*
X44500000Y-21452380D02*
X44500000Y-20452380D01*
X44404761Y-20595238D01*
X44309523Y-20690476D01*
X44214285Y-20738095D01*
X36833333Y-21357142D02*
X36785714Y-21404761D01*
X36642857Y-21452380D01*
X36547619Y-21452380D01*
X36404761Y-21404761D01*
X36309523Y-21309523D01*
X36261904Y-21214285D01*
X36214285Y-21023809D01*
X36214285Y-20880952D01*
X36261904Y-20690476D01*
X36309523Y-20595238D01*
X36404761Y-20500000D01*
X36547619Y-20452380D01*
X36642857Y-20452380D01*
X36785714Y-20500000D01*
X36833333Y-20547619D01*
X37214285Y-20547619D02*
X37261904Y-20500000D01*
X37357142Y-20452380D01*
X37595238Y-20452380D01*
X37690476Y-20500000D01*
X37738095Y-20547619D01*
X37785714Y-20642857D01*
X37785714Y-20738095D01*
X37738095Y-20880952D01*
X37166666Y-21452380D01*
X37785714Y-21452380D01*
X52778095Y-20182380D02*
X52778095Y-20991904D01*
X52825714Y-21087142D01*
X52873333Y-21134761D01*
X52968571Y-21182380D01*
X53159047Y-21182380D01*
X53254285Y-21134761D01*
X53301904Y-21087142D01*
X53349523Y-20991904D01*
X53349523Y-20182380D01*
X54301904Y-20182380D02*
X53825714Y-20182380D01*
X53778095Y-20658571D01*
X53825714Y-20610952D01*
X53920952Y-20563333D01*
X54159047Y-20563333D01*
X54254285Y-20610952D01*
X54301904Y-20658571D01*
X54349523Y-20753809D01*
X54349523Y-20991904D01*
X54301904Y-21087142D01*
X54254285Y-21134761D01*
X54159047Y-21182380D01*
X53920952Y-21182380D01*
X53825714Y-21134761D01*
X53778095Y-21087142D01*
X57952380Y-36738095D02*
X56952380Y-36738095D01*
X56952380Y-36500000D01*
X57000000Y-36357142D01*
X57095238Y-36261904D01*
X57190476Y-36214285D01*
X57380952Y-36166666D01*
X57523809Y-36166666D01*
X57714285Y-36214285D01*
X57809523Y-36261904D01*
X57904761Y-36357142D01*
X57952380Y-36500000D01*
X57952380Y-36738095D01*
X56952380Y-35833333D02*
X56952380Y-35166666D01*
X57952380Y-35595238D01*
X69416666Y-86404761D02*
X69559523Y-86452380D01*
X69797619Y-86452380D01*
X69892857Y-86404761D01*
X69940476Y-86357142D01*
X69988095Y-86261904D01*
X69988095Y-86166666D01*
X69940476Y-86071428D01*
X69892857Y-86023809D01*
X69797619Y-85976190D01*
X69607142Y-85928571D01*
X69511904Y-85880952D01*
X69464285Y-85833333D01*
X69416666Y-85738095D01*
X69416666Y-85642857D01*
X69464285Y-85547619D01*
X69511904Y-85500000D01*
X69607142Y-85452380D01*
X69845238Y-85452380D01*
X69988095Y-85500000D01*
X70321428Y-85452380D02*
X70559523Y-86452380D01*
X70750000Y-85738095D01*
X70940476Y-86452380D01*
X71178571Y-85452380D01*
X71511904Y-85547619D02*
X71559523Y-85500000D01*
X71654761Y-85452380D01*
X71892857Y-85452380D01*
X71988095Y-85500000D01*
X72035714Y-85547619D01*
X72083333Y-85642857D01*
X72083333Y-85738095D01*
X72035714Y-85880952D01*
X71464285Y-86452380D01*
X72083333Y-86452380D01*
X54952380Y-37746666D02*
X54476190Y-38080000D01*
X54952380Y-38318095D02*
X53952380Y-38318095D01*
X53952380Y-37937142D01*
X54000000Y-37841904D01*
X54047619Y-37794285D01*
X54142857Y-37746666D01*
X54285714Y-37746666D01*
X54380952Y-37794285D01*
X54428571Y-37841904D01*
X54476190Y-37937142D01*
X54476190Y-38318095D01*
X54952380Y-36794285D02*
X54952380Y-37365714D01*
X54952380Y-37080000D02*
X53952380Y-37080000D01*
X54095238Y-37175238D01*
X54190476Y-37270476D01*
X54238095Y-37365714D01*
X42761904Y-39452380D02*
X42761904Y-38452380D01*
X43000000Y-38452380D01*
X43142857Y-38500000D01*
X43238095Y-38595238D01*
X43285714Y-38690476D01*
X43333333Y-38880952D01*
X43333333Y-39023809D01*
X43285714Y-39214285D01*
X43238095Y-39309523D01*
X43142857Y-39404761D01*
X43000000Y-39452380D01*
X42761904Y-39452380D01*
X44238095Y-38452380D02*
X43761904Y-38452380D01*
X43714285Y-38928571D01*
X43761904Y-38880952D01*
X43857142Y-38833333D01*
X44095238Y-38833333D01*
X44190476Y-38880952D01*
X44238095Y-38928571D01*
X44285714Y-39023809D01*
X44285714Y-39261904D01*
X44238095Y-39357142D01*
X44190476Y-39404761D01*
X44095238Y-39452380D01*
X43857142Y-39452380D01*
X43761904Y-39404761D01*
X43714285Y-39357142D01*
X50738095Y-39452380D02*
X50738095Y-38452380D01*
X51309523Y-39452380D02*
X50880952Y-38880952D01*
X51309523Y-38452380D02*
X50738095Y-39023809D01*
X114342380Y-79086666D02*
X113866190Y-79420000D01*
X114342380Y-79658095D02*
X113342380Y-79658095D01*
X113342380Y-79277142D01*
X113390000Y-79181904D01*
X113437619Y-79134285D01*
X113532857Y-79086666D01*
X113675714Y-79086666D01*
X113770952Y-79134285D01*
X113818571Y-79181904D01*
X113866190Y-79277142D01*
X113866190Y-79658095D01*
X113437619Y-78705714D02*
X113390000Y-78658095D01*
X113342380Y-78562857D01*
X113342380Y-78324761D01*
X113390000Y-78229523D01*
X113437619Y-78181904D01*
X113532857Y-78134285D01*
X113628095Y-78134285D01*
X113770952Y-78181904D01*
X114342380Y-78753333D01*
X114342380Y-78134285D01*
X127952380Y-78996666D02*
X127476190Y-79330000D01*
X127952380Y-79568095D02*
X126952380Y-79568095D01*
X126952380Y-79187142D01*
X127000000Y-79091904D01*
X127047619Y-79044285D01*
X127142857Y-78996666D01*
X127285714Y-78996666D01*
X127380952Y-79044285D01*
X127428571Y-79091904D01*
X127476190Y-79187142D01*
X127476190Y-79568095D01*
X127380952Y-78425238D02*
X127333333Y-78520476D01*
X127285714Y-78568095D01*
X127190476Y-78615714D01*
X127142857Y-78615714D01*
X127047619Y-78568095D01*
X127000000Y-78520476D01*
X126952380Y-78425238D01*
X126952380Y-78234761D01*
X127000000Y-78139523D01*
X127047619Y-78091904D01*
X127142857Y-78044285D01*
X127190476Y-78044285D01*
X127285714Y-78091904D01*
X127333333Y-78139523D01*
X127380952Y-78234761D01*
X127380952Y-78425238D01*
X127428571Y-78520476D01*
X127476190Y-78568095D01*
X127571428Y-78615714D01*
X127761904Y-78615714D01*
X127857142Y-78568095D01*
X127904761Y-78520476D01*
X127952380Y-78425238D01*
X127952380Y-78234761D01*
X127904761Y-78139523D01*
X127857142Y-78091904D01*
X127761904Y-78044285D01*
X127571428Y-78044285D01*
X127476190Y-78091904D01*
X127428571Y-78139523D01*
X127380952Y-78234761D01*
X119987619Y-112555238D02*
X119940000Y-112650476D01*
X119844761Y-112745714D01*
X119701904Y-112888571D01*
X119654285Y-112983809D01*
X119654285Y-113079047D01*
X119892380Y-113031428D02*
X119844761Y-113126666D01*
X119749523Y-113221904D01*
X119559047Y-113269523D01*
X119225714Y-113269523D01*
X119035238Y-113221904D01*
X118940000Y-113126666D01*
X118892380Y-113031428D01*
X118892380Y-112840952D01*
X118940000Y-112745714D01*
X119035238Y-112650476D01*
X119225714Y-112602857D01*
X119559047Y-112602857D01*
X119749523Y-112650476D01*
X119844761Y-112745714D01*
X119892380Y-112840952D01*
X119892380Y-113031428D01*
X118892380Y-111698095D02*
X118892380Y-112174285D01*
X119368571Y-112221904D01*
X119320952Y-112174285D01*
X119273333Y-112079047D01*
X119273333Y-111840952D01*
X119320952Y-111745714D01*
X119368571Y-111698095D01*
X119463809Y-111650476D01*
X119701904Y-111650476D01*
X119797142Y-111698095D01*
X119844761Y-111745714D01*
X119892380Y-111840952D01*
X119892380Y-112079047D01*
X119844761Y-112174285D01*
X119797142Y-112221904D01*
X51357142Y-50952380D02*
X51023809Y-50476190D01*
X50785714Y-50952380D02*
X50785714Y-49952380D01*
X51166666Y-49952380D01*
X51261904Y-50000000D01*
X51309523Y-50047619D01*
X51357142Y-50142857D01*
X51357142Y-50285714D01*
X51309523Y-50380952D01*
X51261904Y-50428571D01*
X51166666Y-50476190D01*
X50785714Y-50476190D01*
X52309523Y-50952380D02*
X51738095Y-50952380D01*
X52023809Y-50952380D02*
X52023809Y-49952380D01*
X51928571Y-50095238D01*
X51833333Y-50190476D01*
X51738095Y-50238095D01*
X53261904Y-50952380D02*
X52690476Y-50952380D01*
X52976190Y-50952380D02*
X52976190Y-49952380D01*
X52880952Y-50095238D01*
X52785714Y-50190476D01*
X52690476Y-50238095D01*
X52333333Y-55357142D02*
X52285714Y-55404761D01*
X52142857Y-55452380D01*
X52047619Y-55452380D01*
X51904761Y-55404761D01*
X51809523Y-55309523D01*
X51761904Y-55214285D01*
X51714285Y-55023809D01*
X51714285Y-54880952D01*
X51761904Y-54690476D01*
X51809523Y-54595238D01*
X51904761Y-54500000D01*
X52047619Y-54452380D01*
X52142857Y-54452380D01*
X52285714Y-54500000D01*
X52333333Y-54547619D01*
X52666666Y-54452380D02*
X53285714Y-54452380D01*
X52952380Y-54833333D01*
X53095238Y-54833333D01*
X53190476Y-54880952D01*
X53238095Y-54928571D01*
X53285714Y-55023809D01*
X53285714Y-55261904D01*
X53238095Y-55357142D01*
X53190476Y-55404761D01*
X53095238Y-55452380D01*
X52809523Y-55452380D01*
X52714285Y-55404761D01*
X52666666Y-55357142D01*
X50428095Y-60202380D02*
X50428095Y-61011904D01*
X50475714Y-61107142D01*
X50523333Y-61154761D01*
X50618571Y-61202380D01*
X50809047Y-61202380D01*
X50904285Y-61154761D01*
X50951904Y-61107142D01*
X50999523Y-61011904D01*
X50999523Y-60202380D01*
X51999523Y-61202380D02*
X51428095Y-61202380D01*
X51713809Y-61202380D02*
X51713809Y-60202380D01*
X51618571Y-60345238D01*
X51523333Y-60440476D01*
X51428095Y-60488095D01*
X30261904Y-62952380D02*
X30261904Y-61952380D01*
X30500000Y-61952380D01*
X30642857Y-62000000D01*
X30738095Y-62095238D01*
X30785714Y-62190476D01*
X30833333Y-62380952D01*
X30833333Y-62523809D01*
X30785714Y-62714285D01*
X30738095Y-62809523D01*
X30642857Y-62904761D01*
X30500000Y-62952380D01*
X30261904Y-62952380D01*
X31785714Y-62952380D02*
X31214285Y-62952380D01*
X31500000Y-62952380D02*
X31500000Y-61952380D01*
X31404761Y-62095238D01*
X31309523Y-62190476D01*
X31214285Y-62238095D01*
X25738095Y-60952380D02*
X25738095Y-59952380D01*
X26309523Y-60952380D02*
X25880952Y-60380952D01*
X26309523Y-59952380D02*
X25738095Y-60523809D01*
X30261904Y-110952380D02*
X30261904Y-109952380D01*
X30500000Y-109952380D01*
X30642857Y-110000000D01*
X30738095Y-110095238D01*
X30785714Y-110190476D01*
X30833333Y-110380952D01*
X30833333Y-110523809D01*
X30785714Y-110714285D01*
X30738095Y-110809523D01*
X30642857Y-110904761D01*
X30500000Y-110952380D01*
X30261904Y-110952380D01*
X31690476Y-110285714D02*
X31690476Y-110952380D01*
X31452380Y-109904761D02*
X31214285Y-110619047D01*
X31833333Y-110619047D01*
X23238095Y-110952380D02*
X23238095Y-109952380D01*
X23809523Y-110952380D02*
X23380952Y-110380952D01*
X23809523Y-109952380D02*
X23238095Y-110523809D01*
X42761904Y-43452380D02*
X42761904Y-42452380D01*
X43000000Y-42452380D01*
X43142857Y-42500000D01*
X43238095Y-42595238D01*
X43285714Y-42690476D01*
X43333333Y-42880952D01*
X43333333Y-43023809D01*
X43285714Y-43214285D01*
X43238095Y-43309523D01*
X43142857Y-43404761D01*
X43000000Y-43452380D01*
X42761904Y-43452380D01*
X44190476Y-42452380D02*
X44000000Y-42452380D01*
X43904761Y-42500000D01*
X43857142Y-42547619D01*
X43761904Y-42690476D01*
X43714285Y-42880952D01*
X43714285Y-43261904D01*
X43761904Y-43357142D01*
X43809523Y-43404761D01*
X43904761Y-43452380D01*
X44095238Y-43452380D01*
X44190476Y-43404761D01*
X44238095Y-43357142D01*
X44285714Y-43261904D01*
X44285714Y-43023809D01*
X44238095Y-42928571D01*
X44190476Y-42880952D01*
X44095238Y-42833333D01*
X43904761Y-42833333D01*
X43809523Y-42880952D01*
X43761904Y-42928571D01*
X43714285Y-43023809D01*
X50738095Y-43452380D02*
X50738095Y-42452380D01*
X51309523Y-43452380D02*
X50880952Y-42880952D01*
X51309523Y-42452380D02*
X50738095Y-43023809D01*
X49928095Y-108202380D02*
X49928095Y-109011904D01*
X49975714Y-109107142D01*
X50023333Y-109154761D01*
X50118571Y-109202380D01*
X50309047Y-109202380D01*
X50404285Y-109154761D01*
X50451904Y-109107142D01*
X50499523Y-109011904D01*
X50499523Y-108202380D01*
X51404285Y-108535714D02*
X51404285Y-109202380D01*
X51166190Y-108154761D02*
X50928095Y-108869047D01*
X51547142Y-108869047D01*
X49928095Y-92202380D02*
X49928095Y-93011904D01*
X49975714Y-93107142D01*
X50023333Y-93154761D01*
X50118571Y-93202380D01*
X50309047Y-93202380D01*
X50404285Y-93154761D01*
X50451904Y-93107142D01*
X50499523Y-93011904D01*
X50499523Y-92202380D01*
X50880476Y-92202380D02*
X51499523Y-92202380D01*
X51166190Y-92583333D01*
X51309047Y-92583333D01*
X51404285Y-92630952D01*
X51451904Y-92678571D01*
X51499523Y-92773809D01*
X51499523Y-93011904D01*
X51451904Y-93107142D01*
X51404285Y-93154761D01*
X51309047Y-93202380D01*
X51023333Y-93202380D01*
X50928095Y-93154761D01*
X50880476Y-93107142D01*
X132452380Y-64642857D02*
X131976190Y-64976190D01*
X132452380Y-65214285D02*
X131452380Y-65214285D01*
X131452380Y-64833333D01*
X131500000Y-64738095D01*
X131547619Y-64690476D01*
X131642857Y-64642857D01*
X131785714Y-64642857D01*
X131880952Y-64690476D01*
X131928571Y-64738095D01*
X131976190Y-64833333D01*
X131976190Y-65214285D01*
X131547619Y-64261904D02*
X131500000Y-64214285D01*
X131452380Y-64119047D01*
X131452380Y-63880952D01*
X131500000Y-63785714D01*
X131547619Y-63738095D01*
X131642857Y-63690476D01*
X131738095Y-63690476D01*
X131880952Y-63738095D01*
X132452380Y-64309523D01*
X132452380Y-63690476D01*
X131452380Y-62785714D02*
X131452380Y-63261904D01*
X131928571Y-63309523D01*
X131880952Y-63261904D01*
X131833333Y-63166666D01*
X131833333Y-62928571D01*
X131880952Y-62833333D01*
X131928571Y-62785714D01*
X132023809Y-62738095D01*
X132261904Y-62738095D01*
X132357142Y-62785714D01*
X132404761Y-62833333D01*
X132452380Y-62928571D01*
X132452380Y-63166666D01*
X132404761Y-63261904D01*
X132357142Y-63309523D01*
X141452380Y-102309523D02*
X142261904Y-102309523D01*
X142357142Y-102261904D01*
X142404761Y-102214285D01*
X142452380Y-102119047D01*
X142452380Y-101928571D01*
X142404761Y-101833333D01*
X142357142Y-101785714D01*
X142261904Y-101738095D01*
X141452380Y-101738095D01*
X142452380Y-100833333D02*
X141928571Y-100833333D01*
X141833333Y-100880952D01*
X141785714Y-100976190D01*
X141785714Y-101166666D01*
X141833333Y-101261904D01*
X142404761Y-100833333D02*
X142452380Y-100928571D01*
X142452380Y-101166666D01*
X142404761Y-101261904D01*
X142309523Y-101309523D01*
X142214285Y-101309523D01*
X142119047Y-101261904D01*
X142071428Y-101166666D01*
X142071428Y-100928571D01*
X142023809Y-100833333D01*
X142452380Y-100357142D02*
X141785714Y-100357142D01*
X141976190Y-100357142D02*
X141880952Y-100309523D01*
X141833333Y-100261904D01*
X141785714Y-100166666D01*
X141785714Y-100071428D01*
X141785714Y-99880952D02*
X141785714Y-99500000D01*
X141452380Y-99738095D02*
X142309523Y-99738095D01*
X142404761Y-99690476D01*
X142452380Y-99595238D01*
X142452380Y-99500000D01*
X142452380Y-98642857D02*
X142452380Y-99214285D01*
X142452380Y-98928571D02*
X141452380Y-98928571D01*
X141595238Y-99023809D01*
X141690476Y-99119047D01*
X141738095Y-99214285D01*
D14*
X65870000Y-99060000D02*
X63130000Y-99060000D01*
X63130000Y-99060000D02*
X63130000Y-105600000D01*
X65870000Y-105600000D02*
X65870000Y-99060000D01*
X64500000Y-98290000D02*
X64500000Y-99060000D01*
X63130000Y-105600000D02*
X65870000Y-105600000D01*
X64500000Y-106370000D02*
X64500000Y-105600000D01*
X63630000Y-118810000D02*
X63630000Y-125350000D01*
X65000000Y-118040000D02*
X65000000Y-118810000D01*
X66370000Y-125350000D02*
X66370000Y-118810000D01*
X65000000Y-126120000D02*
X65000000Y-125350000D01*
X63630000Y-125350000D02*
X66370000Y-125350000D01*
X66370000Y-118810000D02*
X63630000Y-118810000D01*
X25400000Y-65440000D02*
X25400000Y-75560000D01*
X25340000Y-65200000D02*
X24700000Y-65200000D01*
X26500000Y-65440000D02*
X26500000Y-75560000D01*
X31388000Y-69654000D02*
X31281000Y-69547000D01*
X34060000Y-75560000D02*
X24940000Y-75560000D01*
X31654000Y-69388000D02*
X31547000Y-69281000D01*
X28453000Y-66718000D02*
X28346000Y-66612000D01*
X31388000Y-74654000D02*
X30992000Y-74259000D01*
X31654000Y-74388000D02*
X31274000Y-74008000D01*
X24700000Y-65200000D02*
X24700000Y-65600000D01*
X24940000Y-65440000D02*
X24940000Y-75560000D01*
X34060000Y-65440000D02*
X24940000Y-65440000D01*
X34060000Y-65440000D02*
X34060000Y-75560000D01*
X28719000Y-66452000D02*
X28612000Y-66346000D01*
X29008000Y-71742000D02*
X28612000Y-71347000D01*
X28726000Y-71993000D02*
X28346000Y-71613000D01*
X32180000Y-73000000D02*
G75*
G03*
X32180000Y-73000000I-2180000J0D01*
G01*
X32180000Y-68000000D02*
G75*
G03*
X32180000Y-68000000I-2180000J0D01*
G01*
X66370000Y-144650000D02*
X66370000Y-138110000D01*
X63630000Y-144650000D02*
X66370000Y-144650000D01*
X65000000Y-145420000D02*
X65000000Y-144650000D01*
X65000000Y-137340000D02*
X65000000Y-138110000D01*
X63630000Y-138110000D02*
X63630000Y-144650000D01*
X66370000Y-138110000D02*
X63630000Y-138110000D01*
X142200000Y-48200000D02*
X142200000Y-50800000D01*
X128800000Y-38200000D02*
X128800000Y-40700000D01*
X142200000Y-50800000D02*
X137300000Y-50800000D01*
X135500000Y-44000000D02*
X135500000Y-45000000D01*
X142200000Y-43200000D02*
X142200000Y-45800000D01*
X128800000Y-50800000D02*
X128800000Y-48000000D01*
X127700000Y-40400000D02*
X128300000Y-40400000D01*
X135000000Y-44500000D02*
X136000000Y-44500000D01*
X142200000Y-38200000D02*
X142200000Y-40800000D01*
X128000000Y-40700000D02*
X127700000Y-40400000D01*
X128300000Y-40400000D02*
X128000000Y-40700000D01*
X137300000Y-38200000D02*
X142200000Y-38200000D01*
X133600000Y-38200000D02*
X128800000Y-38200000D01*
X133700000Y-50800000D02*
X128800000Y-50800000D01*
X138500000Y-44500000D02*
G75*
G03*
X138500000Y-44500000I-3000000J0D01*
G01*
X55460000Y-82500000D02*
X54690000Y-82500000D01*
X48150000Y-83870000D02*
X54690000Y-83870000D01*
X47380000Y-82500000D02*
X48150000Y-82500000D01*
X48150000Y-81130000D02*
X48150000Y-83870000D01*
X54690000Y-81130000D02*
X48150000Y-81130000D01*
X54690000Y-83870000D02*
X54690000Y-81130000D01*
X61000000Y-106370000D02*
X61000000Y-105600000D01*
X59630000Y-99060000D02*
X59630000Y-105600000D01*
X62370000Y-105600000D02*
X62370000Y-99060000D01*
X62370000Y-99060000D02*
X59630000Y-99060000D01*
X61000000Y-98290000D02*
X61000000Y-99060000D01*
X59630000Y-105600000D02*
X62370000Y-105600000D01*
X48150000Y-97630000D02*
X48150000Y-100370000D01*
X55460000Y-99000000D02*
X54690000Y-99000000D01*
X47380000Y-99000000D02*
X48150000Y-99000000D01*
X54690000Y-97630000D02*
X48150000Y-97630000D01*
X48150000Y-100370000D02*
X54690000Y-100370000D01*
X54690000Y-100370000D02*
X54690000Y-97630000D01*
X34820000Y-94500000D02*
X33800000Y-94500000D01*
X33800000Y-93030000D02*
X28360000Y-93030000D01*
X29140000Y-93030000D02*
X29140000Y-95970000D01*
X28360000Y-93030000D02*
X28360000Y-95970000D01*
X29380000Y-93030000D02*
X29380000Y-95970000D01*
X33800000Y-95970000D02*
X33800000Y-93030000D01*
X27340000Y-94500000D02*
X28360000Y-94500000D01*
X29260000Y-93030000D02*
X29260000Y-95970000D01*
X28360000Y-95970000D02*
X33800000Y-95970000D01*
X29140000Y-77030000D02*
X29140000Y-79970000D01*
X28360000Y-77030000D02*
X28360000Y-79970000D01*
X29260000Y-77030000D02*
X29260000Y-79970000D01*
X29380000Y-77030000D02*
X29380000Y-79970000D01*
X28360000Y-79970000D02*
X33800000Y-79970000D01*
X34820000Y-78500000D02*
X33800000Y-78500000D01*
X33800000Y-77030000D02*
X28360000Y-77030000D01*
X27340000Y-78500000D02*
X28360000Y-78500000D01*
X33800000Y-79970000D02*
X33800000Y-77030000D01*
X50870000Y-69630000D02*
X50870000Y-72370000D01*
X45630000Y-69630000D02*
X50870000Y-69630000D01*
X45630000Y-72370000D02*
X50870000Y-72370000D01*
X45630000Y-69630000D02*
X45630000Y-72370000D01*
X129100000Y-96200000D02*
G75*
G03*
X129100000Y-96200000I-6100000J0D01*
G01*
X62470000Y-119200000D02*
X59530000Y-119200000D01*
X59530000Y-123860000D02*
X62470000Y-123860000D01*
X59530000Y-124640000D02*
X62470000Y-124640000D01*
X62470000Y-124640000D02*
X62470000Y-119200000D01*
X61000000Y-118180000D02*
X61000000Y-119200000D01*
X61000000Y-125660000D02*
X61000000Y-124640000D01*
X59530000Y-119200000D02*
X59530000Y-124640000D01*
X59530000Y-123620000D02*
X62470000Y-123620000D01*
X59530000Y-123740000D02*
X62470000Y-123740000D01*
X59530000Y-143740000D02*
X62470000Y-143740000D01*
X59530000Y-144640000D02*
X62470000Y-144640000D01*
X59530000Y-139200000D02*
X59530000Y-144640000D01*
X62470000Y-144640000D02*
X62470000Y-139200000D01*
X59530000Y-143860000D02*
X62470000Y-143860000D01*
X59530000Y-143620000D02*
X62470000Y-143620000D01*
X61000000Y-138180000D02*
X61000000Y-139200000D01*
X61000000Y-145660000D02*
X61000000Y-144640000D01*
X62470000Y-139200000D02*
X59530000Y-139200000D01*
X31388000Y-123654000D02*
X30992000Y-123259000D01*
X31654000Y-118388000D02*
X31547000Y-118281000D01*
X24700000Y-114200000D02*
X24700000Y-114600000D01*
X28719000Y-115452000D02*
X28612000Y-115346000D01*
X25400000Y-114440000D02*
X25400000Y-124560000D01*
X25340000Y-114200000D02*
X24700000Y-114200000D01*
X28453000Y-115718000D02*
X28346000Y-115612000D01*
X34060000Y-124560000D02*
X24940000Y-124560000D01*
X24940000Y-114440000D02*
X24940000Y-124560000D01*
X28726000Y-120993000D02*
X28346000Y-120613000D01*
X31388000Y-118654000D02*
X31281000Y-118547000D01*
X34060000Y-114440000D02*
X34060000Y-124560000D01*
X31654000Y-123388000D02*
X31274000Y-123008000D01*
X29008000Y-120742000D02*
X28612000Y-120347000D01*
X26500000Y-114440000D02*
X26500000Y-124560000D01*
X34060000Y-114440000D02*
X24940000Y-114440000D01*
X32180000Y-117000000D02*
G75*
G03*
X32180000Y-117000000I-2180000J0D01*
G01*
X32180000Y-122000000D02*
G75*
G03*
X32180000Y-122000000I-2180000J0D01*
G01*
X45630000Y-102130000D02*
X50870000Y-102130000D01*
X50870000Y-102130000D02*
X50870000Y-104870000D01*
X45630000Y-102130000D02*
X45630000Y-104870000D01*
X45630000Y-104870000D02*
X50870000Y-104870000D01*
X45630000Y-85630000D02*
X45630000Y-88370000D01*
X45630000Y-88370000D02*
X50870000Y-88370000D01*
X45630000Y-85630000D02*
X50870000Y-85630000D01*
X50870000Y-85630000D02*
X50870000Y-88370000D01*
X38129000Y-49420000D02*
X38129000Y-59660000D01*
X42770000Y-49420000D02*
X42770000Y-59660000D01*
X42770000Y-49420000D02*
X38129000Y-49420000D01*
X42770000Y-52690000D02*
X41260000Y-52690000D01*
X42770000Y-59660000D02*
X38129000Y-59660000D01*
X42770000Y-56391000D02*
X41260000Y-56391000D01*
X41260000Y-49420000D02*
X41260000Y-59660000D01*
X108040000Y-52500000D02*
X108810000Y-52500000D01*
X108810000Y-53870000D02*
X115350000Y-53870000D01*
X115350000Y-51130000D02*
X108810000Y-51130000D01*
X108810000Y-51130000D02*
X108810000Y-53870000D01*
X116120000Y-52500000D02*
X115350000Y-52500000D01*
X115350000Y-53870000D02*
X115350000Y-51130000D01*
X38129000Y-97420000D02*
X38129000Y-107660000D01*
X42770000Y-104391000D02*
X41260000Y-104391000D01*
X42770000Y-100690000D02*
X41260000Y-100690000D01*
X42770000Y-97420000D02*
X42770000Y-107660000D01*
X42770000Y-97420000D02*
X38129000Y-97420000D01*
X42770000Y-107660000D02*
X38129000Y-107660000D01*
X41260000Y-97420000D02*
X41260000Y-107660000D01*
X48450000Y-127200000D02*
X48450000Y-123000000D01*
X55900000Y-129050000D02*
X36100000Y-129050000D01*
X55900000Y-129050000D02*
X55900000Y-122450000D01*
X51850000Y-121200000D02*
X51850000Y-117600000D01*
X48450000Y-127200000D02*
X50950000Y-127200000D01*
X55900000Y-120050000D02*
X55900000Y-113450000D01*
X45050000Y-121200000D02*
X45050000Y-117600000D01*
X36100000Y-129050000D02*
X36100000Y-113450000D01*
X46450000Y-119400000D02*
X50450000Y-123000000D01*
X46450000Y-123000000D02*
X46450000Y-119400000D01*
X45050000Y-121200000D02*
X43550000Y-121200000D01*
X46450000Y-119400000D02*
X50450000Y-119400000D01*
X50450000Y-123000000D02*
X46450000Y-123000000D01*
X43550000Y-121200000D02*
X38950000Y-123700000D01*
X36100000Y-113450000D02*
X55900000Y-113450000D01*
X50450000Y-119400000D02*
X50450000Y-123000000D01*
X51850000Y-121200000D02*
X52650000Y-121200000D01*
X48450000Y-119400000D02*
X48450000Y-115200000D01*
X40350000Y-125450000D02*
X40350000Y-122950000D01*
X40350000Y-117050000D02*
X40350000Y-119500000D01*
X45050000Y-117600000D02*
X51850000Y-117600000D01*
X50950000Y-115200000D02*
X48450000Y-115200000D01*
X116120000Y-57000000D02*
X115350000Y-57000000D01*
X108040000Y-57000000D02*
X108810000Y-57000000D01*
X115350000Y-55630000D02*
X108810000Y-55630000D01*
X115350000Y-58370000D02*
X115350000Y-55630000D01*
X108810000Y-58370000D02*
X115350000Y-58370000D01*
X108810000Y-55630000D02*
X108810000Y-58370000D01*
X123000000Y-82870000D02*
X123000000Y-82100000D01*
X121630000Y-82100000D02*
X124370000Y-82100000D01*
X124370000Y-82100000D02*
X124370000Y-75560000D01*
X121630000Y-75560000D02*
X121630000Y-82100000D01*
X123000000Y-74790000D02*
X123000000Y-75560000D01*
X124370000Y-75560000D02*
X121630000Y-75560000D01*
X60740000Y-114850000D02*
X64340000Y-114850000D01*
X60215816Y-114122795D02*
G75*
G03*
X60740000Y-114850000I2324184J1122795D01*
G01*
X62540000Y-110400000D02*
G75*
G03*
X60183600Y-111901193I0J-2600000D01*
G01*
X64340000Y-114850000D02*
G75*
G03*
X64864184Y-114122795I-1800000J1850000D01*
G01*
X64896400Y-111901193D02*
G75*
G03*
X62540000Y-110400000I-2356400J-1098807D01*
G01*
X71210000Y-133705000D02*
X71210000Y-136795000D01*
X76760000Y-135250462D02*
G75*
G03*
X71210000Y-133705170I-2990000J462D01*
G01*
X71210000Y-136794830D02*
G75*
G03*
X76760000Y-135249538I2560000J1544830D01*
G01*
X76270000Y-135250000D02*
G75*
G03*
X76270000Y-135250000I-2500000J0D01*
G01*
X60740000Y-134850000D02*
X64340000Y-134850000D01*
X62540000Y-130400000D02*
G75*
G03*
X60183600Y-131901193I0J-2600000D01*
G01*
X60215816Y-134122795D02*
G75*
G03*
X60740000Y-134850000I2324184J1122795D01*
G01*
X64340000Y-134850000D02*
G75*
G03*
X64864184Y-134122795I-1800000J1850000D01*
G01*
X64896400Y-131901193D02*
G75*
G03*
X62540000Y-130400000I-2356400J-1098807D01*
G01*
X118500000Y-82870000D02*
X118500000Y-82100000D01*
X119870000Y-82100000D02*
X119870000Y-75560000D01*
X117130000Y-75560000D02*
X117130000Y-82100000D01*
X118500000Y-74790000D02*
X118500000Y-75560000D01*
X117130000Y-82100000D02*
X119870000Y-82100000D01*
X119870000Y-75560000D02*
X117130000Y-75560000D01*
X46450000Y-140500000D02*
X46450000Y-136900000D01*
X45050000Y-138700000D02*
X45050000Y-135100000D01*
X55900000Y-146550000D02*
X55900000Y-139950000D01*
X48450000Y-136900000D02*
X48450000Y-132700000D01*
X45050000Y-138700000D02*
X43550000Y-138700000D01*
X46450000Y-136900000D02*
X50450000Y-140500000D01*
X43550000Y-138700000D02*
X38950000Y-141200000D01*
X50450000Y-136900000D02*
X50450000Y-140500000D01*
X51850000Y-138700000D02*
X52650000Y-138700000D01*
X36100000Y-130950000D02*
X55900000Y-130950000D01*
X45050000Y-135100000D02*
X51850000Y-135100000D01*
X50450000Y-140500000D02*
X46450000Y-140500000D01*
X51850000Y-138700000D02*
X51850000Y-135100000D01*
X55900000Y-146550000D02*
X36100000Y-146550000D01*
X36100000Y-146550000D02*
X36100000Y-130950000D01*
X46450000Y-136900000D02*
X50450000Y-136900000D01*
X48450000Y-144700000D02*
X50950000Y-144700000D01*
X40350000Y-142950000D02*
X40350000Y-140450000D01*
X55900000Y-137550000D02*
X55900000Y-130950000D01*
X40350000Y-134550000D02*
X40350000Y-137000000D01*
X48450000Y-144700000D02*
X48450000Y-140500000D01*
X50950000Y-132700000D02*
X48450000Y-132700000D01*
X43370000Y-95870000D02*
X38130000Y-95870000D01*
X38130000Y-95870000D02*
X38130000Y-93130000D01*
X43370000Y-93130000D02*
X38130000Y-93130000D01*
X43370000Y-95870000D02*
X43370000Y-93130000D01*
X143000000Y-66500000D02*
X143000000Y-62000000D01*
X139000000Y-67750000D02*
X140500000Y-67750000D01*
X136500000Y-62000000D02*
X136500000Y-66500000D01*
X140500000Y-60750000D02*
X139000000Y-60750000D01*
X140500000Y-77750000D02*
X139000000Y-77750000D01*
X143000000Y-83500000D02*
X143000000Y-79000000D01*
X136500000Y-79000000D02*
X136500000Y-83500000D01*
X139000000Y-84750000D02*
X140500000Y-84750000D01*
X43370000Y-61130000D02*
X38130000Y-61130000D01*
X43370000Y-63870000D02*
X43370000Y-61130000D01*
X43370000Y-63870000D02*
X38130000Y-63870000D01*
X38130000Y-63870000D02*
X38130000Y-61130000D01*
X43370000Y-111870000D02*
X43370000Y-109130000D01*
X43370000Y-111870000D02*
X38130000Y-111870000D01*
X38130000Y-111870000D02*
X38130000Y-109130000D01*
X43370000Y-109130000D02*
X38130000Y-109130000D01*
X43370000Y-77130000D02*
X38130000Y-77130000D01*
X38130000Y-79870000D02*
X38130000Y-77130000D01*
X43370000Y-79870000D02*
X43370000Y-77130000D01*
X43370000Y-79870000D02*
X38130000Y-79870000D01*
X105630000Y-40130000D02*
X105630000Y-42870000D01*
X110870000Y-40130000D02*
X110870000Y-42870000D01*
X105630000Y-42870000D02*
X110870000Y-42870000D01*
X105630000Y-40130000D02*
X110870000Y-40130000D01*
X25340000Y-37200000D02*
X24700000Y-37200000D01*
X28726000Y-43993000D02*
X28346000Y-43613000D01*
X28453000Y-38718000D02*
X28346000Y-38612000D01*
X25400000Y-37440000D02*
X25400000Y-47560000D01*
X24940000Y-37440000D02*
X24940000Y-47560000D01*
X34060000Y-37440000D02*
X24940000Y-37440000D01*
X28719000Y-38452000D02*
X28612000Y-38346000D01*
X34060000Y-37440000D02*
X34060000Y-47560000D01*
X31388000Y-41654000D02*
X31281000Y-41547000D01*
X31654000Y-46388000D02*
X31274000Y-46008000D01*
X31388000Y-46654000D02*
X30992000Y-46259000D01*
X34060000Y-47560000D02*
X24940000Y-47560000D01*
X26500000Y-37440000D02*
X26500000Y-47560000D01*
X31654000Y-41388000D02*
X31547000Y-41281000D01*
X29008000Y-43742000D02*
X28612000Y-43347000D01*
X24700000Y-37200000D02*
X24700000Y-37600000D01*
X32180000Y-40000000D02*
G75*
G03*
X32180000Y-40000000I-2180000J0D01*
G01*
X32180000Y-45000000D02*
G75*
G03*
X32180000Y-45000000I-2180000J0D01*
G01*
X34060000Y-97440000D02*
X24940000Y-97440000D01*
X26500000Y-97440000D02*
X26500000Y-107560000D01*
X31654000Y-101388000D02*
X31547000Y-101281000D01*
X29008000Y-103742000D02*
X28612000Y-103347000D01*
X25340000Y-97200000D02*
X24700000Y-97200000D01*
X34060000Y-107560000D02*
X24940000Y-107560000D01*
X31388000Y-101654000D02*
X31281000Y-101547000D01*
X24700000Y-97200000D02*
X24700000Y-97600000D01*
X28453000Y-98718000D02*
X28346000Y-98612000D01*
X31654000Y-106388000D02*
X31274000Y-106008000D01*
X31388000Y-106654000D02*
X30992000Y-106259000D01*
X28726000Y-103993000D02*
X28346000Y-103613000D01*
X25400000Y-97440000D02*
X25400000Y-107560000D01*
X28719000Y-98452000D02*
X28612000Y-98346000D01*
X24940000Y-97440000D02*
X24940000Y-107560000D01*
X34060000Y-97440000D02*
X34060000Y-107560000D01*
X32180000Y-100000000D02*
G75*
G03*
X32180000Y-100000000I-2180000J0D01*
G01*
X32180000Y-105000000D02*
G75*
G03*
X32180000Y-105000000I-2180000J0D01*
G01*
X34060000Y-81440000D02*
X24940000Y-81440000D01*
X28719000Y-82452000D02*
X28612000Y-82346000D01*
X34060000Y-81440000D02*
X34060000Y-91560000D01*
X31388000Y-85654000D02*
X31281000Y-85547000D01*
X31388000Y-90654000D02*
X30992000Y-90259000D01*
X24940000Y-81440000D02*
X24940000Y-91560000D01*
X28453000Y-82718000D02*
X28346000Y-82612000D01*
X25340000Y-81200000D02*
X24700000Y-81200000D01*
X28726000Y-87993000D02*
X28346000Y-87613000D01*
X31654000Y-90388000D02*
X31274000Y-90008000D01*
X26500000Y-81440000D02*
X26500000Y-91560000D01*
X34060000Y-91560000D02*
X24940000Y-91560000D01*
X24700000Y-81200000D02*
X24700000Y-81600000D01*
X29008000Y-87742000D02*
X28612000Y-87347000D01*
X25400000Y-81440000D02*
X25400000Y-91560000D01*
X31654000Y-85388000D02*
X31547000Y-85281000D01*
X32180000Y-89000000D02*
G75*
G03*
X32180000Y-89000000I-2180000J0D01*
G01*
X32180000Y-84000000D02*
G75*
G03*
X32180000Y-84000000I-2180000J0D01*
G01*
X31654000Y-135638000D02*
X31547000Y-135531000D01*
X24940000Y-131690000D02*
X24940000Y-141810000D01*
X28453000Y-132968000D02*
X28346000Y-132862000D01*
X25340000Y-131450000D02*
X24700000Y-131450000D01*
X34060000Y-131690000D02*
X24940000Y-131690000D01*
X26500000Y-131690000D02*
X26500000Y-141810000D01*
X31654000Y-140638000D02*
X31274000Y-140258000D01*
X29008000Y-137992000D02*
X28612000Y-137597000D01*
X31388000Y-135904000D02*
X31281000Y-135797000D01*
X31388000Y-140904000D02*
X30992000Y-140509000D01*
X34060000Y-131690000D02*
X34060000Y-141810000D01*
X28726000Y-138243000D02*
X28346000Y-137863000D01*
X25400000Y-131690000D02*
X25400000Y-141810000D01*
X28719000Y-132702000D02*
X28612000Y-132596000D01*
X24700000Y-131450000D02*
X24700000Y-131850000D01*
X34060000Y-141810000D02*
X24940000Y-141810000D01*
X32180000Y-134250000D02*
G75*
G03*
X32180000Y-134250000I-2180000J0D01*
G01*
X32180000Y-139250000D02*
G75*
G03*
X32180000Y-139250000I-2180000J0D01*
G01*
X75940000Y-122380000D02*
X71440000Y-122380000D01*
X74690000Y-127580000D02*
X75940000Y-127580000D01*
X75940000Y-127580000D02*
X75940000Y-122380000D01*
X71440000Y-122380000D02*
X71440000Y-127580000D01*
X71440000Y-127580000D02*
X72690000Y-127580000D01*
X74690000Y-127580000D02*
G75*
G03*
X72690000Y-127580000I-1000000J0D01*
G01*
X74690000Y-146580000D02*
X75940000Y-146580000D01*
X71440000Y-141380000D02*
X71440000Y-146580000D01*
X71440000Y-146580000D02*
X72690000Y-146580000D01*
X75940000Y-146580000D02*
X75940000Y-141380000D01*
X75940000Y-141380000D02*
X71440000Y-141380000D01*
X74690000Y-146580000D02*
G75*
G03*
X72690000Y-146580000I-1000000J0D01*
G01*
X71210000Y-114455000D02*
X71210000Y-117545000D01*
X76760000Y-116000462D02*
G75*
G03*
X71210000Y-114455170I-2990000J462D01*
G01*
X71210000Y-117544830D02*
G75*
G03*
X76760000Y-115999538I2560000J1544830D01*
G01*
X76270000Y-116000000D02*
G75*
G03*
X76270000Y-116000000I-2500000J0D01*
G01*
X38129000Y-81420000D02*
X38129000Y-91660000D01*
X41260000Y-81420000D02*
X41260000Y-91660000D01*
X42770000Y-84690000D02*
X41260000Y-84690000D01*
X42770000Y-91660000D02*
X38129000Y-91660000D01*
X42770000Y-88391000D02*
X41260000Y-88391000D01*
X42770000Y-81420000D02*
X38129000Y-81420000D01*
X42770000Y-81420000D02*
X42770000Y-91660000D01*
X42770000Y-75660000D02*
X38129000Y-75660000D01*
X41260000Y-65420000D02*
X41260000Y-75660000D01*
X42770000Y-65420000D02*
X42770000Y-75660000D01*
X38129000Y-65420000D02*
X38129000Y-75660000D01*
X42770000Y-72391000D02*
X41260000Y-72391000D01*
X42770000Y-68690000D02*
X41260000Y-68690000D01*
X42770000Y-65420000D02*
X38129000Y-65420000D01*
X54690000Y-68370000D02*
X54690000Y-65630000D01*
X48150000Y-68370000D02*
X54690000Y-68370000D01*
X55460000Y-67000000D02*
X54690000Y-67000000D01*
X54690000Y-65630000D02*
X48150000Y-65630000D01*
X48150000Y-65630000D02*
X48150000Y-68370000D01*
X47380000Y-67000000D02*
X48150000Y-67000000D01*
X48440000Y-74380000D02*
X48440000Y-79580000D01*
X52940000Y-74380000D02*
X48440000Y-74380000D01*
X48440000Y-79580000D02*
X49690000Y-79580000D01*
X52940000Y-79580000D02*
X52940000Y-74380000D01*
X51690000Y-79580000D02*
X52940000Y-79580000D01*
X51690000Y-79580000D02*
G75*
G03*
X49690000Y-79580000I-1000000J0D01*
G01*
X124321500Y-66545000D02*
X124321500Y-66080000D01*
X124321500Y-63920000D02*
X124321500Y-63455000D01*
X124016184Y-63920000D02*
G75*
G03*
X119507021Y-63919571I-2254684J-1080000D01*
G01*
X124321500Y-63455170D02*
G75*
G03*
X118973685Y-63919173I-2560000J-1544830D01*
G01*
X119507021Y-66080429D02*
G75*
G03*
X124016184Y-66080000I2254479J1080429D01*
G01*
X118973685Y-66080827D02*
G75*
G03*
X124321500Y-66544830I2787815J1080827D01*
G01*
X58630000Y-60850000D02*
X61370000Y-60850000D01*
X60000000Y-53540000D02*
X60000000Y-54310000D01*
X61370000Y-60850000D02*
X61370000Y-54310000D01*
X60000000Y-61620000D02*
X60000000Y-60850000D01*
X61370000Y-54310000D02*
X58630000Y-54310000D01*
X58630000Y-54310000D02*
X58630000Y-60850000D01*
X58630000Y-76690000D02*
X61370000Y-76690000D01*
X58630000Y-70150000D02*
X58630000Y-76690000D01*
X61370000Y-76690000D02*
X61370000Y-70150000D01*
X60000000Y-69380000D02*
X60000000Y-70150000D01*
X61370000Y-70150000D02*
X58630000Y-70150000D01*
X60000000Y-77460000D02*
X60000000Y-76690000D01*
X108810000Y-49370000D02*
X115350000Y-49370000D01*
X116120000Y-48000000D02*
X115350000Y-48000000D01*
X115350000Y-49370000D02*
X115350000Y-46630000D01*
X108040000Y-48000000D02*
X108810000Y-48000000D01*
X115350000Y-46630000D02*
X108810000Y-46630000D01*
X108810000Y-46630000D02*
X108810000Y-49370000D01*
X106000000Y-76500000D02*
X106000000Y-76100000D01*
X85000000Y-86700000D02*
X85000000Y-86300000D01*
X85000000Y-84100000D02*
X85000000Y-83700000D01*
X106000000Y-66300000D02*
X106000000Y-65900000D01*
X85000000Y-63500000D02*
X91800000Y-63500000D01*
X85000000Y-94300000D02*
X85000000Y-93900000D01*
X106000000Y-104400000D02*
X106000000Y-104000000D01*
X106000000Y-96800000D02*
X106000000Y-96400000D01*
X106000000Y-99400000D02*
X106000000Y-99000000D01*
X106000000Y-91700000D02*
X106000000Y-91300000D01*
X106000000Y-109500000D02*
X106000000Y-109100000D01*
X85000000Y-96800000D02*
X85000000Y-96400000D01*
X85000000Y-112100000D02*
X85000000Y-111700000D01*
X85000000Y-107000000D02*
X85000000Y-106600000D01*
X85000000Y-109500000D02*
X85000000Y-109100000D01*
X106000000Y-73900000D02*
X106000000Y-73500000D01*
X85000000Y-76500000D02*
X85000000Y-76100000D01*
X106000000Y-68900000D02*
X106000000Y-68500000D01*
X106000000Y-86700000D02*
X106000000Y-86300000D01*
X106000000Y-84100000D02*
X106000000Y-83700000D01*
X106000000Y-101900000D02*
X106000000Y-101500000D01*
X106000000Y-71400000D02*
X106000000Y-71000000D01*
X106000000Y-112100000D02*
X106000000Y-111700000D01*
X99200000Y-63500000D02*
X106000000Y-63500000D01*
X85000000Y-91700000D02*
X85000000Y-91300000D01*
X85000000Y-79000000D02*
X85000000Y-78600000D01*
X94400000Y-63500000D02*
X94000000Y-63500000D01*
X106000000Y-114500000D02*
X106000000Y-114200000D01*
X97000000Y-63500000D02*
X96600000Y-63500000D01*
X106000000Y-114500000D02*
X85000000Y-114500000D01*
X106000000Y-81600000D02*
X106000000Y-81200000D01*
X85000000Y-101900000D02*
X85000000Y-101500000D01*
X102993000Y-111833000D02*
X102993000Y-114500000D01*
X106000000Y-107000000D02*
X106000000Y-106600000D01*
X85000000Y-114500000D02*
X85000000Y-114200000D01*
X85000000Y-81600000D02*
X85000000Y-81200000D01*
X85000000Y-89200000D02*
X85000000Y-88800000D01*
X106000000Y-79000000D02*
X106000000Y-78600000D01*
X106000000Y-89200000D02*
X106000000Y-88800000D01*
X85000000Y-73900000D02*
X85000000Y-73500000D01*
X85000000Y-104400000D02*
X85000000Y-104000000D01*
X85000000Y-71400000D02*
X85000000Y-71000000D01*
X85000000Y-99400000D02*
X85000000Y-99000000D01*
X85000000Y-68900000D02*
X85000000Y-68500000D01*
X85000000Y-66300000D02*
X85000000Y-65900000D01*
X106000000Y-94300000D02*
X106000000Y-93900000D01*
X106000000Y-111833000D02*
X102993000Y-111833000D01*
X71620000Y-105680000D02*
X71620000Y-101440000D01*
X71620000Y-101440000D02*
X69380000Y-101440000D01*
X71620000Y-102280000D02*
X69380000Y-102280000D01*
X71620000Y-102040000D02*
X69380000Y-102040000D01*
X71620000Y-102160000D02*
X69380000Y-102160000D01*
X70500000Y-100790000D02*
X70500000Y-101440000D01*
X70500000Y-106330000D02*
X70500000Y-105680000D01*
X69380000Y-105680000D02*
X71620000Y-105680000D01*
X69380000Y-101440000D02*
X69380000Y-105680000D01*
X120370000Y-40130000D02*
X115130000Y-40130000D01*
X115130000Y-42870000D02*
X115130000Y-40130000D01*
X120370000Y-42870000D02*
X115130000Y-42870000D01*
X120370000Y-42870000D02*
X120370000Y-40130000D01*
X73500000Y-57170000D02*
X74830000Y-57170000D01*
X72170000Y-59770000D02*
X74830000Y-59770000D01*
X74830000Y-57170000D02*
X74830000Y-58500000D01*
X72170000Y-59770000D02*
X72170000Y-75070000D01*
X74830000Y-59770000D02*
X74830000Y-75070000D01*
X72170000Y-75070000D02*
X74830000Y-75070000D01*
X86000000Y-50200000D02*
X86000000Y-44500000D01*
X80000000Y-50200000D02*
X80000000Y-44500000D01*
X86000000Y-50200000D02*
X80000000Y-50200000D01*
X80000000Y-44500000D02*
G75*
G03*
X79473616Y-43748246I-800000J0D01*
G01*
X86500000Y-43750000D02*
G75*
G03*
X82954719Y-21304329I-3500000J10950000D01*
G01*
X86526384Y-43748246D02*
G75*
G03*
X86000000Y-44500000I273616J-751754D01*
G01*
X83045281Y-21304329D02*
G75*
G03*
X79500000Y-43750000I-45281J-11495671D01*
G01*
X133370000Y-75650000D02*
X130630000Y-75650000D01*
X130630000Y-75650000D02*
X130630000Y-82190000D01*
X130630000Y-82190000D02*
X133370000Y-82190000D01*
X133370000Y-82190000D02*
X133370000Y-75650000D01*
X132000000Y-74880000D02*
X132000000Y-75650000D01*
X132000000Y-82960000D02*
X132000000Y-82190000D01*
X98500000Y-48920000D02*
X98500000Y-49570000D01*
X97380000Y-53210000D02*
X99620000Y-53210000D01*
X97380000Y-53090000D02*
X99620000Y-53090000D01*
X97380000Y-52970000D02*
X99620000Y-52970000D01*
X99620000Y-53810000D02*
X99620000Y-49570000D01*
X99620000Y-49570000D02*
X97380000Y-49570000D01*
X98500000Y-54460000D02*
X98500000Y-53810000D01*
X97380000Y-49570000D02*
X97380000Y-53810000D01*
X97380000Y-53810000D02*
X99620000Y-53810000D01*
X42879000Y-27329000D02*
X42879000Y-26040000D01*
X42319000Y-23960000D02*
X42319000Y-23029000D01*
X43480000Y-23960000D02*
X43480000Y-22472000D01*
X44000000Y-27580000D02*
X44000000Y-26040000D01*
X42079000Y-23960000D02*
X42079000Y-23257000D01*
X43560000Y-27543000D02*
X43560000Y-26040000D01*
X43119000Y-23960000D02*
X43119000Y-22572000D01*
X42359000Y-27004000D02*
X42359000Y-26040000D01*
X43039000Y-27398000D02*
X43039000Y-26040000D01*
X41399000Y-25284000D02*
X41399000Y-24716000D01*
X43440000Y-27520000D02*
X43440000Y-26040000D01*
X42519000Y-23960000D02*
X42519000Y-22878000D01*
X42839000Y-27310000D02*
X42839000Y-26040000D01*
X42039000Y-23960000D02*
X42039000Y-23301000D01*
X42199000Y-26864000D02*
X42199000Y-26040000D01*
X43960000Y-27580000D02*
X43960000Y-26040000D01*
X42519000Y-27122000D02*
X42519000Y-26040000D01*
X43199000Y-27455000D02*
X43199000Y-26040000D01*
X42919000Y-27348000D02*
X42919000Y-26040000D01*
X42999000Y-23960000D02*
X42999000Y-22618000D01*
X42599000Y-23960000D02*
X42599000Y-22825000D01*
X43800000Y-27573000D02*
X43800000Y-26040000D01*
X42559000Y-23960000D02*
X42559000Y-22851000D01*
X42439000Y-27065000D02*
X42439000Y-26040000D01*
X42879000Y-23960000D02*
X42879000Y-22671000D01*
X41999000Y-26653000D02*
X41999000Y-26040000D01*
X41999000Y-23960000D02*
X41999000Y-23347000D01*
X43400000Y-27511000D02*
X43400000Y-26040000D01*
X42399000Y-27035000D02*
X42399000Y-26040000D01*
X43159000Y-27442000D02*
X43159000Y-26040000D01*
X43400000Y-23960000D02*
X43400000Y-22489000D01*
X42079000Y-26743000D02*
X42079000Y-26040000D01*
X41519000Y-25805000D02*
X41519000Y-24195000D01*
X42479000Y-27095000D02*
X42479000Y-26040000D01*
X41599000Y-26011000D02*
X41599000Y-23989000D01*
X46554775Y-26725000D02*
X46554775Y-26225000D01*
X42679000Y-23960000D02*
X42679000Y-22776000D01*
X42279000Y-23960000D02*
X42279000Y-23063000D01*
X43360000Y-27501000D02*
X43360000Y-26040000D01*
X41799000Y-26383000D02*
X41799000Y-23617000D01*
X41479000Y-25677000D02*
X41479000Y-24323000D01*
X42159000Y-26826000D02*
X42159000Y-26040000D01*
X42439000Y-23960000D02*
X42439000Y-22935000D01*
X43279000Y-27480000D02*
X43279000Y-26040000D01*
X43159000Y-23960000D02*
X43159000Y-22558000D01*
X43600000Y-23960000D02*
X43600000Y-22450000D01*
X42319000Y-26971000D02*
X42319000Y-26040000D01*
X43520000Y-27536000D02*
X43520000Y-26040000D01*
X43960000Y-23960000D02*
X43960000Y-22420000D01*
X43720000Y-27565000D02*
X43720000Y-26040000D01*
X43600000Y-27550000D02*
X43600000Y-26040000D01*
X43520000Y-23960000D02*
X43520000Y-22464000D01*
X42799000Y-27290000D02*
X42799000Y-26040000D01*
X43920000Y-27579000D02*
X43920000Y-26040000D01*
X41919000Y-26554000D02*
X41919000Y-23446000D01*
X43720000Y-23960000D02*
X43720000Y-22435000D01*
X44000000Y-23960000D02*
X44000000Y-22420000D01*
X43480000Y-27528000D02*
X43480000Y-26040000D01*
X43199000Y-23960000D02*
X43199000Y-22545000D01*
X41679000Y-26178000D02*
X41679000Y-23822000D01*
X41759000Y-26319000D02*
X41759000Y-23681000D01*
X42239000Y-23960000D02*
X42239000Y-23099000D01*
X43640000Y-23960000D02*
X43640000Y-22444000D01*
X42479000Y-23960000D02*
X42479000Y-22905000D01*
X42719000Y-23960000D02*
X42719000Y-22753000D01*
X43039000Y-23960000D02*
X43039000Y-22602000D01*
X42759000Y-27268000D02*
X42759000Y-26040000D01*
X43320000Y-27491000D02*
X43320000Y-26040000D01*
X42399000Y-23960000D02*
X42399000Y-22965000D01*
X42199000Y-23960000D02*
X42199000Y-23136000D01*
X42919000Y-23960000D02*
X42919000Y-22652000D01*
X46804775Y-26475000D02*
X46304775Y-26475000D01*
X42959000Y-23960000D02*
X42959000Y-22635000D01*
X42679000Y-27224000D02*
X42679000Y-26040000D01*
X42599000Y-27175000D02*
X42599000Y-26040000D01*
X43320000Y-23960000D02*
X43320000Y-22509000D01*
X43640000Y-27556000D02*
X43640000Y-26040000D01*
X42719000Y-27247000D02*
X42719000Y-26040000D01*
X42959000Y-27365000D02*
X42959000Y-26040000D01*
X42159000Y-23960000D02*
X42159000Y-23174000D01*
X43760000Y-27569000D02*
X43760000Y-26040000D01*
X41879000Y-26500000D02*
X41879000Y-23500000D01*
X42119000Y-23960000D02*
X42119000Y-23215000D01*
X43760000Y-23960000D02*
X43760000Y-22431000D01*
X43880000Y-23960000D02*
X43880000Y-22422000D01*
X43079000Y-23960000D02*
X43079000Y-22586000D01*
X41839000Y-26443000D02*
X41839000Y-23557000D01*
X43880000Y-27578000D02*
X43880000Y-26040000D01*
X42639000Y-23960000D02*
X42639000Y-22800000D01*
X43079000Y-27414000D02*
X43079000Y-26040000D01*
X43680000Y-27561000D02*
X43680000Y-26040000D01*
X42999000Y-27382000D02*
X42999000Y-26040000D01*
X42119000Y-26785000D02*
X42119000Y-26040000D01*
X43680000Y-23960000D02*
X43680000Y-22439000D01*
X43840000Y-27576000D02*
X43840000Y-26040000D01*
X43239000Y-23960000D02*
X43239000Y-22532000D01*
X42839000Y-23960000D02*
X42839000Y-22690000D01*
X42279000Y-26937000D02*
X42279000Y-26040000D01*
X43279000Y-23960000D02*
X43279000Y-22520000D01*
X41719000Y-26251000D02*
X41719000Y-23749000D01*
X41639000Y-26098000D02*
X41639000Y-23902000D01*
X42239000Y-26901000D02*
X42239000Y-26040000D01*
X42759000Y-23960000D02*
X42759000Y-22732000D01*
X41559000Y-25915000D02*
X41559000Y-24085000D01*
X41439000Y-25518000D02*
X41439000Y-24482000D01*
X42359000Y-23960000D02*
X42359000Y-22996000D01*
X42559000Y-27149000D02*
X42559000Y-26040000D01*
X43119000Y-27428000D02*
X43119000Y-26040000D01*
X41959000Y-26605000D02*
X41959000Y-23395000D01*
X43560000Y-23960000D02*
X43560000Y-22457000D01*
X42039000Y-26699000D02*
X42039000Y-26040000D01*
X43920000Y-23960000D02*
X43920000Y-22421000D01*
X43840000Y-23960000D02*
X43840000Y-22424000D01*
X43360000Y-23960000D02*
X43360000Y-22499000D01*
X42799000Y-23960000D02*
X42799000Y-22710000D01*
X43239000Y-27468000D02*
X43239000Y-26040000D01*
X43800000Y-23960000D02*
X43800000Y-22427000D01*
X42639000Y-27200000D02*
X42639000Y-26040000D01*
X43440000Y-23960000D02*
X43440000Y-22480000D01*
X46620000Y-25000000D02*
G75*
G03*
X46620000Y-25000000I-2620000J0D01*
G01*
X37280000Y-22435000D02*
X37280000Y-23960000D01*
X38521000Y-22905000D02*
X38521000Y-23960000D01*
X37320000Y-26040000D02*
X37320000Y-27561000D01*
X37080000Y-22421000D02*
X37080000Y-23960000D01*
X37000000Y-22420000D02*
X37000000Y-23960000D01*
X37200000Y-26040000D02*
X37200000Y-27573000D01*
X37440000Y-22457000D02*
X37440000Y-23960000D01*
X39441000Y-24085000D02*
X39441000Y-25915000D01*
X37040000Y-22420000D02*
X37040000Y-23960000D01*
X37000000Y-26040000D02*
X37000000Y-27580000D01*
X38201000Y-22710000D02*
X38201000Y-23960000D01*
X38961000Y-23301000D02*
X38961000Y-23960000D01*
X38081000Y-22652000D02*
X38081000Y-23960000D01*
X37200000Y-22427000D02*
X37200000Y-23960000D01*
X37360000Y-22444000D02*
X37360000Y-23960000D01*
X39201000Y-23617000D02*
X39201000Y-26383000D01*
X37961000Y-22602000D02*
X37961000Y-23960000D01*
X38961000Y-26040000D02*
X38961000Y-26699000D01*
X38001000Y-26040000D02*
X38001000Y-27382000D01*
X37520000Y-26040000D02*
X37520000Y-27528000D01*
X38281000Y-26040000D02*
X38281000Y-27247000D01*
X38441000Y-22851000D02*
X38441000Y-23960000D01*
X37120000Y-22422000D02*
X37120000Y-23960000D01*
X37160000Y-26040000D02*
X37160000Y-27576000D01*
X34445225Y-23275000D02*
X34445225Y-23775000D01*
X37841000Y-26040000D02*
X37841000Y-27442000D01*
X38001000Y-22618000D02*
X38001000Y-23960000D01*
X37721000Y-26040000D02*
X37721000Y-27480000D01*
X38761000Y-23099000D02*
X38761000Y-23960000D01*
X39121000Y-23500000D02*
X39121000Y-26500000D01*
X37480000Y-26040000D02*
X37480000Y-27536000D01*
X37040000Y-26040000D02*
X37040000Y-27580000D01*
X37600000Y-22489000D02*
X37600000Y-23960000D01*
X38361000Y-22800000D02*
X38361000Y-23960000D01*
X38761000Y-26040000D02*
X38761000Y-26901000D01*
X38321000Y-26040000D02*
X38321000Y-27224000D01*
X37841000Y-22558000D02*
X37841000Y-23960000D01*
X37480000Y-22464000D02*
X37480000Y-23960000D01*
X39281000Y-23749000D02*
X39281000Y-26251000D01*
X37160000Y-22424000D02*
X37160000Y-23960000D01*
X38721000Y-26040000D02*
X38721000Y-26937000D01*
X37400000Y-26040000D02*
X37400000Y-27550000D01*
X38721000Y-23063000D02*
X38721000Y-23960000D01*
X37440000Y-26040000D02*
X37440000Y-27543000D01*
X37881000Y-22572000D02*
X37881000Y-23960000D01*
X38121000Y-26040000D02*
X38121000Y-27329000D01*
X37320000Y-22439000D02*
X37320000Y-23960000D01*
X38121000Y-22671000D02*
X38121000Y-23960000D01*
X37400000Y-22450000D02*
X37400000Y-23960000D01*
X39241000Y-23681000D02*
X39241000Y-26319000D01*
X37680000Y-22509000D02*
X37680000Y-23960000D01*
X37240000Y-22431000D02*
X37240000Y-23960000D01*
X38041000Y-26040000D02*
X38041000Y-27365000D01*
X38481000Y-22878000D02*
X38481000Y-23960000D01*
X38601000Y-22965000D02*
X38601000Y-23960000D01*
X38801000Y-23136000D02*
X38801000Y-23960000D01*
X38321000Y-22776000D02*
X38321000Y-23960000D01*
X38881000Y-23215000D02*
X38881000Y-23960000D01*
X39601000Y-24716000D02*
X39601000Y-25284000D01*
X38561000Y-22935000D02*
X38561000Y-23960000D01*
X37881000Y-26040000D02*
X37881000Y-27428000D01*
X39561000Y-24482000D02*
X39561000Y-25518000D01*
X38081000Y-26040000D02*
X38081000Y-27348000D01*
X38921000Y-23257000D02*
X38921000Y-23960000D01*
X37520000Y-22472000D02*
X37520000Y-23960000D01*
X37080000Y-26040000D02*
X37080000Y-27579000D01*
X39041000Y-23395000D02*
X39041000Y-26605000D01*
X38641000Y-22996000D02*
X38641000Y-23960000D01*
X39001000Y-23347000D02*
X39001000Y-23960000D01*
X37360000Y-26040000D02*
X37360000Y-27556000D01*
X39161000Y-23557000D02*
X39161000Y-26443000D01*
X37280000Y-26040000D02*
X37280000Y-27565000D01*
X38681000Y-26040000D02*
X38681000Y-26971000D01*
X39401000Y-23989000D02*
X39401000Y-26011000D01*
X38881000Y-26040000D02*
X38881000Y-26785000D01*
X38601000Y-26040000D02*
X38601000Y-27035000D01*
X37801000Y-26040000D02*
X37801000Y-27455000D01*
X37761000Y-22532000D02*
X37761000Y-23960000D01*
X38361000Y-26040000D02*
X38361000Y-27200000D01*
X37600000Y-26040000D02*
X37600000Y-27511000D01*
X37640000Y-22499000D02*
X37640000Y-23960000D01*
X38801000Y-26040000D02*
X38801000Y-26864000D01*
X38401000Y-22825000D02*
X38401000Y-23960000D01*
X39081000Y-23446000D02*
X39081000Y-26554000D01*
X37240000Y-26040000D02*
X37240000Y-27569000D01*
X39521000Y-24323000D02*
X39521000Y-25677000D01*
X38641000Y-26040000D02*
X38641000Y-27004000D01*
X38441000Y-26040000D02*
X38441000Y-27149000D01*
X38921000Y-26040000D02*
X38921000Y-26743000D01*
X34195225Y-23525000D02*
X34695225Y-23525000D01*
X38841000Y-23174000D02*
X38841000Y-23960000D01*
X39321000Y-23822000D02*
X39321000Y-26178000D01*
X38681000Y-23029000D02*
X38681000Y-23960000D01*
X37801000Y-22545000D02*
X37801000Y-23960000D01*
X38241000Y-22732000D02*
X38241000Y-23960000D01*
X39481000Y-24195000D02*
X39481000Y-25805000D01*
X38841000Y-26040000D02*
X38841000Y-26826000D01*
X38401000Y-26040000D02*
X38401000Y-27175000D01*
X38241000Y-26040000D02*
X38241000Y-27268000D01*
X38481000Y-26040000D02*
X38481000Y-27122000D01*
X37761000Y-26040000D02*
X37761000Y-27468000D01*
X38561000Y-26040000D02*
X38561000Y-27065000D01*
X38521000Y-26040000D02*
X38521000Y-27095000D01*
X37120000Y-26040000D02*
X37120000Y-27578000D01*
X37921000Y-26040000D02*
X37921000Y-27414000D01*
X39001000Y-26040000D02*
X39001000Y-26653000D01*
X37640000Y-26040000D02*
X37640000Y-27501000D01*
X38161000Y-22690000D02*
X38161000Y-23960000D01*
X37560000Y-26040000D02*
X37560000Y-27520000D01*
X38161000Y-26040000D02*
X38161000Y-27310000D01*
X37961000Y-26040000D02*
X37961000Y-27398000D01*
X37680000Y-26040000D02*
X37680000Y-27491000D01*
X38201000Y-26040000D02*
X38201000Y-27290000D01*
X37560000Y-22480000D02*
X37560000Y-23960000D01*
X38281000Y-22753000D02*
X38281000Y-23960000D01*
X39361000Y-23902000D02*
X39361000Y-26098000D01*
X37921000Y-22586000D02*
X37921000Y-23960000D01*
X37721000Y-22520000D02*
X37721000Y-23960000D01*
X38041000Y-22635000D02*
X38041000Y-23960000D01*
X39620000Y-25000000D02*
G75*
G03*
X39620000Y-25000000I-2620000J0D01*
G01*
X51690000Y-21730000D02*
X51690000Y-23240000D01*
X48420000Y-23240000D02*
X58660000Y-23240000D01*
X48420000Y-21730000D02*
X58660000Y-21730000D01*
X55391000Y-21730000D02*
X55391000Y-23240000D01*
X48420000Y-26371000D02*
X58660000Y-26371000D01*
X48420000Y-21730000D02*
X48420000Y-26371000D01*
X58660000Y-21730000D02*
X58660000Y-26371000D01*
X63045000Y-33210000D02*
X59955000Y-33210000D01*
X61499538Y-38760000D02*
G75*
G03*
X63044830Y-33210000I462J2990000D01*
G01*
X59955170Y-33210000D02*
G75*
G03*
X61500462Y-38760000I1544830J-2560000D01*
G01*
X64000000Y-35770000D02*
G75*
G03*
X64000000Y-35770000I-2500000J0D01*
G01*
X68500000Y-89000000D02*
X73000000Y-89000000D01*
X74250000Y-86500000D02*
X74250000Y-85000000D01*
X67250000Y-85000000D02*
X67250000Y-86500000D01*
X73000000Y-82500000D02*
X68500000Y-82500000D01*
X53130000Y-40850000D02*
X55870000Y-40850000D01*
X55870000Y-40850000D02*
X55870000Y-34310000D01*
X54500000Y-33540000D02*
X54500000Y-34310000D01*
X54500000Y-41620000D02*
X54500000Y-40850000D01*
X53130000Y-34310000D02*
X53130000Y-40850000D01*
X55870000Y-34310000D02*
X53130000Y-34310000D01*
X41200000Y-40470000D02*
X46640000Y-40470000D01*
X40180000Y-39000000D02*
X41200000Y-39000000D01*
X45740000Y-40470000D02*
X45740000Y-37530000D01*
X45620000Y-40470000D02*
X45620000Y-37530000D01*
X47660000Y-39000000D02*
X46640000Y-39000000D01*
X46640000Y-37530000D02*
X41200000Y-37530000D01*
X46640000Y-40470000D02*
X46640000Y-37530000D01*
X45860000Y-40470000D02*
X45860000Y-37530000D01*
X41200000Y-37530000D02*
X41200000Y-40470000D01*
X112630000Y-82190000D02*
X115370000Y-82190000D01*
X115370000Y-82190000D02*
X115370000Y-75650000D01*
X114000000Y-82960000D02*
X114000000Y-82190000D01*
X114000000Y-74880000D02*
X114000000Y-75650000D01*
X115370000Y-75650000D02*
X112630000Y-75650000D01*
X112630000Y-75650000D02*
X112630000Y-82190000D01*
X126130000Y-75560000D02*
X126130000Y-82100000D01*
X127500000Y-82870000D02*
X127500000Y-82100000D01*
X127500000Y-74790000D02*
X127500000Y-75560000D01*
X128870000Y-82100000D02*
X128870000Y-75560000D01*
X126130000Y-82100000D02*
X128870000Y-82100000D01*
X128870000Y-75560000D02*
X126130000Y-75560000D01*
X124850000Y-114260000D02*
X124850000Y-110660000D01*
X120400000Y-112460000D02*
G75*
G03*
X121901193Y-114816400I2600000J0D01*
G01*
X124850000Y-110660000D02*
G75*
G03*
X124122795Y-110135816I-1850000J-1800000D01*
G01*
X121901193Y-110103600D02*
G75*
G03*
X120400000Y-112460000I1098807J-2356400D01*
G01*
X124122795Y-114784184D02*
G75*
G03*
X124850000Y-114260000I-1122795J2324184D01*
G01*
X55190000Y-49130000D02*
X48650000Y-49130000D01*
X55190000Y-51870000D02*
X55190000Y-49130000D01*
X47880000Y-50500000D02*
X48650000Y-50500000D01*
X55960000Y-50500000D02*
X55190000Y-50500000D01*
X48650000Y-49130000D02*
X48650000Y-51870000D01*
X48650000Y-51870000D02*
X55190000Y-51870000D01*
X51370000Y-53630000D02*
X51370000Y-56370000D01*
X46130000Y-53630000D02*
X46130000Y-56370000D01*
X46130000Y-56370000D02*
X51370000Y-56370000D01*
X46130000Y-53630000D02*
X51370000Y-53630000D01*
X53440000Y-63580000D02*
X53440000Y-58380000D01*
X48940000Y-58380000D02*
X48940000Y-63580000D01*
X53440000Y-58380000D02*
X48940000Y-58380000D01*
X48940000Y-63580000D02*
X50190000Y-63580000D01*
X52190000Y-63580000D02*
X53440000Y-63580000D01*
X52190000Y-63580000D02*
G75*
G03*
X50190000Y-63580000I-1000000J0D01*
G01*
X29380000Y-61030000D02*
X29380000Y-63970000D01*
X29140000Y-61030000D02*
X29140000Y-63970000D01*
X33800000Y-63970000D02*
X33800000Y-61030000D01*
X28360000Y-63970000D02*
X33800000Y-63970000D01*
X34820000Y-62500000D02*
X33800000Y-62500000D01*
X33800000Y-61030000D02*
X28360000Y-61030000D01*
X29260000Y-61030000D02*
X29260000Y-63970000D01*
X27340000Y-62500000D02*
X28360000Y-62500000D01*
X28360000Y-61030000D02*
X28360000Y-63970000D01*
X28360000Y-111970000D02*
X33800000Y-111970000D01*
X29380000Y-109030000D02*
X29380000Y-111970000D01*
X34820000Y-110500000D02*
X33800000Y-110500000D01*
X29260000Y-109030000D02*
X29260000Y-111970000D01*
X29140000Y-109030000D02*
X29140000Y-111970000D01*
X27340000Y-110500000D02*
X28360000Y-110500000D01*
X33800000Y-109030000D02*
X28360000Y-109030000D01*
X33800000Y-111970000D02*
X33800000Y-109030000D01*
X28360000Y-109030000D02*
X28360000Y-111970000D01*
X31388000Y-58654000D02*
X30992000Y-58259000D01*
X28453000Y-50718000D02*
X28346000Y-50612000D01*
X26500000Y-49440000D02*
X26500000Y-59560000D01*
X24700000Y-49200000D02*
X24700000Y-49600000D01*
X34060000Y-49440000D02*
X24940000Y-49440000D01*
X31388000Y-53654000D02*
X31281000Y-53547000D01*
X25340000Y-49200000D02*
X24700000Y-49200000D01*
X34060000Y-49440000D02*
X34060000Y-59560000D01*
X28726000Y-55993000D02*
X28346000Y-55613000D01*
X31654000Y-53388000D02*
X31547000Y-53281000D01*
X25400000Y-49440000D02*
X25400000Y-59560000D01*
X34060000Y-59560000D02*
X24940000Y-59560000D01*
X28719000Y-50452000D02*
X28612000Y-50346000D01*
X24940000Y-49440000D02*
X24940000Y-59560000D01*
X31654000Y-58388000D02*
X31274000Y-58008000D01*
X29008000Y-55742000D02*
X28612000Y-55347000D01*
X32180000Y-52000000D02*
G75*
G03*
X32180000Y-52000000I-2180000J0D01*
G01*
X32180000Y-57000000D02*
G75*
G03*
X32180000Y-57000000I-2180000J0D01*
G01*
X41200000Y-41530000D02*
X41200000Y-44470000D01*
X46640000Y-41530000D02*
X41200000Y-41530000D01*
X45740000Y-44470000D02*
X45740000Y-41530000D01*
X41200000Y-44470000D02*
X46640000Y-44470000D01*
X40180000Y-43000000D02*
X41200000Y-43000000D01*
X45860000Y-44470000D02*
X45860000Y-41530000D01*
X45620000Y-44470000D02*
X45620000Y-41530000D01*
X47660000Y-43000000D02*
X46640000Y-43000000D01*
X46640000Y-44470000D02*
X46640000Y-41530000D01*
X48440000Y-111580000D02*
X49690000Y-111580000D01*
X52940000Y-106380000D02*
X48440000Y-106380000D01*
X48440000Y-106380000D02*
X48440000Y-111580000D01*
X52940000Y-111580000D02*
X52940000Y-106380000D01*
X51690000Y-111580000D02*
X52940000Y-111580000D01*
X51690000Y-111580000D02*
G75*
G03*
X49690000Y-111580000I-1000000J0D01*
G01*
X52940000Y-95580000D02*
X52940000Y-90380000D01*
X48440000Y-90380000D02*
X48440000Y-95580000D01*
X48440000Y-95580000D02*
X49690000Y-95580000D01*
X51690000Y-95580000D02*
X52940000Y-95580000D01*
X52940000Y-90380000D02*
X48440000Y-90380000D01*
X51690000Y-95580000D02*
G75*
G03*
X49690000Y-95580000I-1000000J0D01*
G01*
X130630000Y-60650000D02*
X130630000Y-67190000D01*
X133370000Y-67190000D02*
X133370000Y-60650000D01*
X130630000Y-67190000D02*
X133370000Y-67190000D01*
X132000000Y-59880000D02*
X132000000Y-60650000D01*
X133370000Y-60650000D02*
X130630000Y-60650000D01*
X132000000Y-67960000D02*
X132000000Y-67190000D01*
X137070000Y-103700000D02*
X136470000Y-103700000D01*
X140960000Y-97130000D02*
X141490000Y-96880000D01*
X142490000Y-97130000D02*
X141490000Y-97130000D01*
X136470000Y-102760000D02*
X137070000Y-102760000D01*
X142490000Y-105880000D02*
X142490000Y-95500000D01*
X137070000Y-100220000D02*
X137070000Y-98620000D01*
X136470000Y-100220000D02*
X137070000Y-100220000D01*
X136470000Y-105880000D02*
X142490000Y-105880000D01*
X136470000Y-95500000D02*
X136470000Y-105880000D01*
X140960000Y-104250000D02*
X140960000Y-97130000D01*
X136470000Y-97680000D02*
X137070000Y-97680000D01*
X137070000Y-96080000D02*
X136470000Y-96080000D01*
X136470000Y-105300000D02*
X137070000Y-105300000D01*
X137070000Y-102760000D02*
X137070000Y-101160000D01*
X137500000Y-106170000D02*
X141500000Y-106170000D01*
X141490000Y-96880000D02*
X142490000Y-96880000D01*
X142490000Y-95500000D02*
X136470000Y-95500000D01*
X137070000Y-105300000D02*
X137070000Y-103700000D01*
X141490000Y-104500000D02*
X140960000Y-104250000D01*
X141490000Y-104500000D02*
X141490000Y-96880000D01*
X142490000Y-104250000D02*
X141490000Y-104250000D01*
X137070000Y-101160000D02*
X136470000Y-101160000D01*
X142490000Y-104500000D02*
X141490000Y-104500000D01*
X137070000Y-98620000D02*
X136470000Y-98620000D01*
X137070000Y-97680000D02*
X137070000Y-96080000D01*
M02*
