G04 #@! TF.GenerationSoftware,KiCad,Pcbnew,(6.0.4)*
G04 #@! TF.CreationDate,2022-05-04T19:00:34-03:00*
G04 #@! TF.ProjectId,P_Inyectores_Rpi_pico,505f496e-7965-4637-946f-7265735f5270,rev?*
G04 #@! TF.SameCoordinates,Original*
G04 #@! TF.FileFunction,Profile,NP*
%FSLAX46Y46*%
G04 Gerber Fmt 4.6, Leading zero omitted, Abs format (unit mm)*
G04 Created by KiCad (PCBNEW (6.0.4)) date 2022-05-04 19:00:34*
%MOMM*%
%LPD*%
G01*
G04 APERTURE LIST*
G04 #@! TA.AperFunction,Profile*
%ADD10C,0.050000*%
G04 #@! TD*
G04 #@! TA.AperFunction,Profile*
%ADD11C,0.100000*%
G04 #@! TD*
G04 APERTURE END LIST*
D10*
X52000000Y-142750000D02*
X56500000Y-142750000D01*
X58000000Y-141250000D02*
X56500000Y-142750000D01*
X52000000Y-141250000D02*
X52000000Y-142750000D01*
X55000000Y-141250000D02*
X52000000Y-141250000D01*
X55000000Y-141250000D02*
X56500000Y-139750000D01*
X52000000Y-125250000D02*
X56500000Y-125250000D01*
X58000000Y-123750000D02*
X58000000Y-118750000D01*
X52000000Y-117250000D02*
X52000000Y-118750000D01*
X74500000Y-123000000D02*
G75*
G03*
X73000000Y-123000000I-750000J0D01*
G01*
X56500000Y-117250000D02*
X52000000Y-117250000D01*
X52000000Y-123750000D02*
X52000000Y-125250000D01*
X52000000Y-118750000D02*
X55000000Y-118750000D01*
X58000000Y-123750000D02*
X56500000Y-125250000D01*
X56500000Y-117250000D02*
X58000000Y-118750000D01*
X56500000Y-134750000D02*
X58000000Y-136250000D01*
X55000000Y-118750000D02*
X56500000Y-120250000D01*
X52000000Y-134750000D02*
X52000000Y-136250000D01*
X56500000Y-120250000D02*
X56500000Y-122250000D01*
X56500000Y-134750000D02*
X52000000Y-134750000D01*
X52000000Y-136250000D02*
X55000000Y-136250000D01*
X55000000Y-123750000D02*
X52000000Y-123750000D01*
X55000000Y-123750000D02*
X56500000Y-122250000D01*
X58000000Y-141250000D02*
X58000000Y-136250000D01*
X56500000Y-137750000D02*
X56500000Y-139750000D01*
X55000000Y-136250000D02*
X56500000Y-137750000D01*
X74500000Y-146000000D02*
X74500000Y-142000000D01*
X73000000Y-123000000D02*
X73000000Y-127000000D01*
X73000000Y-127000000D02*
G75*
G03*
X74500000Y-127000000I750000J0D01*
G01*
X74500000Y-127000000D02*
X74500000Y-123000000D01*
X73000000Y-146000000D02*
G75*
G03*
X74500000Y-146000000I750000J0D01*
G01*
X73000000Y-142000000D02*
X73000000Y-146000000D01*
X74500000Y-142000000D02*
G75*
G03*
X73000000Y-142000000I-750000J0D01*
G01*
X51500000Y-79000000D02*
X51500000Y-75000000D01*
X50000000Y-75000000D02*
X50000000Y-79000000D01*
X51500000Y-75000000D02*
G75*
G03*
X50000000Y-75000000I-750000J0D01*
G01*
X50000000Y-79000000D02*
G75*
G03*
X51500000Y-79000000I750000J0D01*
G01*
X141000000Y-126000000D02*
G75*
G03*
X147000000Y-120000000I0J6000000D01*
G01*
X32000000Y-153000000D02*
X32000000Y-150000000D01*
X50500000Y-63000000D02*
G75*
G03*
X52000000Y-63000000I750000J0D01*
G01*
X52000000Y-59000000D02*
G75*
G03*
X50500000Y-59000000I-750000J0D01*
G01*
X52000000Y-63000000D02*
X52000000Y-59000000D01*
X50500000Y-59000000D02*
X50500000Y-63000000D01*
X50000000Y-107000000D02*
X50000000Y-111000000D01*
X51500000Y-107000000D02*
G75*
G03*
X50000000Y-107000000I-750000J0D01*
G01*
X50000000Y-111000000D02*
G75*
G03*
X51500000Y-111000000I750000J0D01*
G01*
X51500000Y-111000000D02*
X51500000Y-107000000D01*
X51500000Y-91000000D02*
G75*
G03*
X50000000Y-91000000I-750000J0D01*
G01*
X50000000Y-95000000D02*
G75*
G03*
X51500000Y-95000000I750000J0D01*
G01*
X50000000Y-91000000D02*
X50000000Y-95000000D01*
X51500000Y-95000000D02*
X51500000Y-91000000D01*
X95000000Y-126000000D02*
X141000000Y-126000000D01*
X83000000Y-150000000D02*
G75*
G03*
X89000000Y-144000000I0J6000000D01*
G01*
X89000000Y-144000000D02*
X89000000Y-132000000D01*
D11*
X147000000Y-26000000D02*
X147000000Y-120000000D01*
D10*
X95000000Y-126000000D02*
G75*
G03*
X89000000Y-132000000I0J-6000000D01*
G01*
X26000000Y-20000000D02*
G75*
G03*
X20000000Y-26000000I0J-6000000D01*
G01*
X147000000Y-26000000D02*
G75*
G03*
X141000000Y-20000000I-6000000J0D01*
G01*
X20000000Y-153000000D02*
G75*
G03*
X26000000Y-159000000I6000000J0D01*
G01*
D11*
X83000000Y-150000000D02*
X32000000Y-150000000D01*
D10*
X26000000Y-159000000D02*
G75*
G03*
X32000000Y-153000000I0J6000000D01*
G01*
D11*
X26000000Y-20000000D02*
X141000000Y-20000000D01*
X20000000Y-153000000D02*
X20000000Y-26000000D01*
D10*
X21666666Y-160000000D02*
G75*
G03*
X21666666Y-160000000I-1666666J0D01*
G01*
X17500000Y-160000000D02*
X22500000Y-160000000D01*
X20000000Y-157500000D02*
X20000000Y-162500000D01*
X21666666Y-160000000D02*
G75*
G03*
X21666666Y-160000000I-1666666J0D01*
G01*
X17500000Y-160000000D02*
X22500000Y-160000000D01*
X20000000Y-157500000D02*
X20000000Y-162500000D01*
M02*
