G04 #@! TF.GenerationSoftware,KiCad,Pcbnew,(6.0.4)*
G04 #@! TF.CreationDate,2022-05-04T19:00:33-03:00*
G04 #@! TF.ProjectId,P_Inyectores_Rpi_pico,505f496e-7965-4637-946f-7265735f5270,rev?*
G04 #@! TF.SameCoordinates,Original*
G04 #@! TF.FileFunction,Soldermask,Top*
G04 #@! TF.FilePolarity,Negative*
%FSLAX46Y46*%
G04 Gerber Fmt 4.6, Leading zero omitted, Abs format (unit mm)*
G04 Created by KiCad (PCBNEW (6.0.4)) date 2022-05-04 19:00:33*
%MOMM*%
%LPD*%
G01*
G04 APERTURE LIST*
G04 Aperture macros list*
%AMRoundRect*
0 Rectangle with rounded corners*
0 $1 Rounding radius*
0 $2 $3 $4 $5 $6 $7 $8 $9 X,Y pos of 4 corners*
0 Add a 4 corners polygon primitive as box body*
4,1,4,$2,$3,$4,$5,$6,$7,$8,$9,$2,$3,0*
0 Add four circle primitives for the rounded corners*
1,1,$1+$1,$2,$3*
1,1,$1+$1,$4,$5*
1,1,$1+$1,$6,$7*
1,1,$1+$1,$8,$9*
0 Add four rect primitives between the rounded corners*
20,1,$1+$1,$2,$3,$4,$5,0*
20,1,$1+$1,$4,$5,$6,$7,0*
20,1,$1+$1,$6,$7,$8,$9,0*
20,1,$1+$1,$8,$9,$2,$3,0*%
G04 Aperture macros list end*
%ADD10C,6.502000*%
%ADD11O,1.702000X2.502000*%
%ADD12RoundRect,0.051000X-1.300000X1.300000X-1.300000X-1.300000X1.300000X-1.300000X1.300000X1.300000X0*%
%ADD13C,2.702000*%
%ADD14RoundRect,0.051000X-1.000000X-1.000000X1.000000X-1.000000X1.000000X1.000000X-1.000000X1.000000X0*%
%ADD15C,2.502000*%
%ADD16RoundRect,0.051000X-1.500000X-1.250000X1.500000X-1.250000X1.500000X1.250000X-1.500000X1.250000X0*%
%ADD17O,2.502000X1.702000*%
%ADD18RoundRect,0.051000X-1.100000X-1.100000X1.100000X-1.100000X1.100000X1.100000X-1.100000X1.100000X0*%
%ADD19O,2.502000X2.302000*%
%ADD20O,2.102000X1.702000*%
%ADD21RoundRect,0.051000X1.000000X-1.000000X1.000000X1.000000X-1.000000X1.000000X-1.000000X-1.000000X0*%
%ADD22C,2.102000*%
%ADD23RoundRect,0.051000X1.100000X-1.100000X1.100000X1.100000X-1.100000X1.100000X-1.100000X-1.100000X0*%
%ADD24O,2.302000X2.502000*%
%ADD25RoundRect,0.051000X-1.200000X0.952500X-1.200000X-0.952500X1.200000X-0.952500X1.200000X0.952500X0*%
%ADD26O,2.502000X2.007000*%
%ADD27C,3.102000*%
%ADD28C,2.602000*%
%ADD29O,1.602000X2.102000*%
%ADD30RoundRect,0.051000X-0.900000X-1.200000X0.900000X-1.200000X0.900000X1.200000X-0.900000X1.200000X0*%
%ADD31C,1.902000*%
%ADD32RoundRect,0.051000X1.200000X0.800000X-1.200000X0.800000X-1.200000X-0.800000X1.200000X-0.800000X0*%
%ADD33O,1.902000X2.502000*%
%ADD34RoundRect,0.051000X0.900000X0.900000X-0.900000X0.900000X-0.900000X-0.900000X0.900000X-0.900000X0*%
%ADD35O,2.602000X1.902000*%
%ADD36RoundRect,0.051000X1.750000X0.850000X-1.750000X0.850000X-1.750000X-0.850000X1.750000X-0.850000X0*%
%ADD37RoundRect,0.051000X1.250000X0.850000X-1.250000X0.850000X-1.250000X-0.850000X1.250000X-0.850000X0*%
%ADD38RoundRect,0.051000X-0.850000X1.750000X-0.850000X-1.750000X0.850000X-1.750000X0.850000X1.750000X0*%
%ADD39RoundRect,0.051000X1.000000X0.750000X-1.000000X0.750000X-1.000000X-0.750000X1.000000X-0.750000X0*%
%ADD40RoundRect,0.051000X-0.800000X1.250000X-0.800000X-1.250000X0.800000X-1.250000X0.800000X1.250000X0*%
%ADD41RoundRect,0.051000X-1.250000X-0.850000X1.250000X-0.850000X1.250000X0.850000X-1.250000X0.850000X0*%
%ADD42O,2.402000X1.802000*%
%ADD43RoundRect,0.051000X1.500000X-1.500000X1.500000X1.500000X-1.500000X1.500000X-1.500000X-1.500000X0*%
%ADD44RoundRect,0.051000X0.800000X-1.250000X0.800000X1.250000X-0.800000X1.250000X-0.800000X-1.250000X0*%
%ADD45RoundRect,0.051000X0.800000X0.800000X-0.800000X0.800000X-0.800000X-0.800000X0.800000X-0.800000X0*%
%ADD46C,1.702000*%
%ADD47RoundRect,0.051000X-0.800000X-0.800000X0.800000X-0.800000X0.800000X0.800000X-0.800000X0.800000X0*%
%ADD48RoundRect,0.051000X-0.952500X-1.200000X0.952500X-1.200000X0.952500X1.200000X-0.952500X1.200000X0*%
%ADD49O,2.007000X2.502000*%
%ADD50RoundRect,0.051000X-1.200000X0.900000X-1.200000X-0.900000X1.200000X-0.900000X1.200000X0.900000X0*%
%ADD51RoundRect,0.051000X1.100000X1.100000X-1.100000X1.100000X-1.100000X-1.100000X1.100000X-1.100000X0*%
%ADD52O,2.102000X1.602000*%
%ADD53RoundRect,0.338356X0.812644X-0.712644X0.812644X0.712644X-0.812644X0.712644X-0.812644X-0.712644X0*%
%ADD54O,3.102000X2.102000*%
G04 APERTURE END LIST*
D10*
X26000000Y-153000000D03*
X141000000Y-26000000D03*
D11*
X64500000Y-97250000D03*
X64500000Y-107410000D03*
X65000000Y-117000000D03*
X65000000Y-127160000D03*
D12*
X30000000Y-68000000D03*
D13*
X30000000Y-73000000D03*
D11*
X65000000Y-136300000D03*
X65000000Y-146460000D03*
D14*
X128000000Y-42000000D03*
D15*
X128000000Y-47250000D03*
X128000000Y-44500000D03*
D16*
X135500000Y-38900000D03*
X135500000Y-50100000D03*
D15*
X142500000Y-42000000D03*
X142500000Y-47000000D03*
D17*
X56500000Y-82500000D03*
X46340000Y-82500000D03*
D11*
X61000000Y-97250000D03*
X61000000Y-107410000D03*
D17*
X56500000Y-99000000D03*
X46340000Y-99000000D03*
D10*
X26000000Y-26000000D03*
D18*
X26000000Y-94500000D03*
D19*
X36160000Y-94500000D03*
D18*
X26000000Y-78500000D03*
D19*
X36160000Y-78500000D03*
D20*
X47000000Y-71000000D03*
X49500000Y-71000000D03*
D21*
X123000000Y-100000000D03*
D22*
X123000000Y-92400000D03*
D23*
X61000000Y-127000000D03*
D24*
X61000000Y-116840000D03*
D23*
X61000000Y-147000000D03*
D24*
X61000000Y-136840000D03*
D12*
X30000000Y-117000000D03*
D13*
X30000000Y-122000000D03*
D20*
X47000000Y-103500000D03*
X49500000Y-103500000D03*
X47000000Y-87000000D03*
X49500000Y-87000000D03*
D25*
X39500000Y-52000000D03*
D26*
X39500000Y-54540000D03*
X39500000Y-57080000D03*
D17*
X107000000Y-52500000D03*
X117160000Y-52500000D03*
D25*
X39500000Y-100000000D03*
D26*
X39500000Y-102540000D03*
X39500000Y-105080000D03*
D27*
X54500000Y-121250000D03*
D28*
X52550000Y-115200000D03*
D27*
X40350000Y-115200000D03*
X40300000Y-127250000D03*
D28*
X52550000Y-127200000D03*
D17*
X107000000Y-57000000D03*
X117160000Y-57000000D03*
D11*
X123000000Y-73750000D03*
X123000000Y-83910000D03*
D29*
X60000000Y-113000000D03*
X62540000Y-113000000D03*
X65080000Y-113000000D03*
D30*
X72500000Y-135250000D03*
D31*
X75040000Y-135250000D03*
D29*
X60000000Y-133000000D03*
X62540000Y-133000000D03*
X65080000Y-133000000D03*
D11*
X118500000Y-73750000D03*
X118500000Y-83910000D03*
D27*
X54500000Y-138750000D03*
D28*
X52550000Y-132700000D03*
D27*
X40350000Y-132700000D03*
X40300000Y-144750000D03*
D28*
X52550000Y-144700000D03*
D20*
X42000000Y-94500000D03*
X39500000Y-94500000D03*
D22*
X142000000Y-61000000D03*
X142000000Y-67500000D03*
X137500000Y-61000000D03*
X137500000Y-67500000D03*
X142000000Y-78000000D03*
X142000000Y-84500000D03*
X137500000Y-78000000D03*
X137500000Y-84500000D03*
D20*
X42000000Y-62500000D03*
X39500000Y-62500000D03*
X42000000Y-110500000D03*
X39500000Y-110500000D03*
X42000000Y-78500000D03*
X39500000Y-78500000D03*
X107000000Y-41500000D03*
X109500000Y-41500000D03*
D12*
X30000000Y-40000000D03*
D13*
X30000000Y-45000000D03*
D12*
X30000000Y-100000000D03*
D13*
X30000000Y-105000000D03*
D12*
X30000000Y-84000000D03*
D13*
X30000000Y-89000000D03*
D12*
X30000000Y-134250000D03*
D13*
X30000000Y-139250000D03*
D32*
X77500000Y-126250000D03*
D17*
X77500000Y-123710000D03*
X69880000Y-123710000D03*
X69880000Y-126250000D03*
D32*
X77500000Y-145250000D03*
D17*
X77500000Y-142710000D03*
X69880000Y-142710000D03*
X69880000Y-145250000D03*
D30*
X72500000Y-116000000D03*
D33*
X75040000Y-116000000D03*
D25*
X39500000Y-84000000D03*
D26*
X39500000Y-86540000D03*
X39500000Y-89080000D03*
D25*
X39500000Y-68000000D03*
D26*
X39500000Y-70540000D03*
X39500000Y-73080000D03*
D17*
X56500000Y-67000000D03*
X46340000Y-67000000D03*
D32*
X54500000Y-78250000D03*
D17*
X54500000Y-75710000D03*
X46880000Y-75710000D03*
X46880000Y-78250000D03*
D34*
X125000000Y-65000000D03*
D31*
X122841000Y-65000000D03*
X120682000Y-65000000D03*
X118523000Y-65000000D03*
D11*
X60000000Y-52500000D03*
X60000000Y-62660000D03*
X60000000Y-78500000D03*
X60000000Y-68340000D03*
D17*
X107000000Y-48000000D03*
X117160000Y-48000000D03*
D35*
X97925000Y-109970000D03*
X93075000Y-109970000D03*
X92775000Y-113000000D03*
X98225000Y-113000000D03*
D36*
X105290000Y-113130000D03*
D35*
X104390000Y-113130000D03*
D36*
X105290000Y-110590000D03*
D35*
X104390000Y-110590000D03*
D37*
X104390000Y-108050000D03*
D36*
X105290000Y-108050000D03*
D35*
X104390000Y-105510000D03*
D36*
X105290000Y-105510000D03*
D35*
X104390000Y-102970000D03*
D36*
X105290000Y-102970000D03*
X105290000Y-100430000D03*
D35*
X104390000Y-100430000D03*
X104390000Y-97890000D03*
D36*
X105290000Y-97890000D03*
X105290000Y-95350000D03*
D37*
X104390000Y-95350000D03*
D35*
X104390000Y-92810000D03*
D36*
X105290000Y-92810000D03*
D35*
X104390000Y-90270000D03*
D36*
X105290000Y-90270000D03*
D35*
X104390000Y-87730000D03*
D36*
X105290000Y-87730000D03*
D35*
X104390000Y-85190000D03*
D36*
X105290000Y-85190000D03*
D37*
X104390000Y-82650000D03*
D36*
X105290000Y-82650000D03*
D35*
X104390000Y-80110000D03*
D36*
X105290000Y-80110000D03*
D35*
X104390000Y-77570000D03*
D36*
X105290000Y-77570000D03*
X105290000Y-75030000D03*
D35*
X104390000Y-75030000D03*
X104390000Y-72490000D03*
D36*
X105290000Y-72490000D03*
X105290000Y-69950000D03*
D37*
X104390000Y-69950000D03*
D35*
X104390000Y-67410000D03*
D36*
X105290000Y-67410000D03*
X105290000Y-64870000D03*
D35*
X104390000Y-64870000D03*
D36*
X85710000Y-64870000D03*
D35*
X86610000Y-64870000D03*
X86610000Y-67410000D03*
D36*
X85710000Y-67410000D03*
D37*
X86610000Y-69950000D03*
D36*
X85710000Y-69950000D03*
D35*
X86610000Y-72490000D03*
D36*
X85710000Y-72490000D03*
D35*
X86610000Y-75030000D03*
D36*
X85710000Y-75030000D03*
X85710000Y-77570000D03*
D35*
X86610000Y-77570000D03*
X86610000Y-80110000D03*
D36*
X85710000Y-80110000D03*
X85710000Y-82650000D03*
D37*
X86610000Y-82650000D03*
D36*
X85710000Y-85190000D03*
D35*
X86610000Y-85190000D03*
D36*
X85710000Y-87730000D03*
D35*
X86610000Y-87730000D03*
X86610000Y-90270000D03*
D36*
X85710000Y-90270000D03*
D35*
X86610000Y-92810000D03*
D36*
X85710000Y-92810000D03*
D37*
X86610000Y-95350000D03*
D36*
X85710000Y-95350000D03*
X85710000Y-97890000D03*
D35*
X86610000Y-97890000D03*
X86610000Y-100430000D03*
D36*
X85710000Y-100430000D03*
D35*
X86610000Y-102970000D03*
D36*
X85710000Y-102970000D03*
D35*
X86610000Y-105510000D03*
D36*
X85710000Y-105510000D03*
D37*
X86610000Y-108050000D03*
D36*
X85710000Y-108050000D03*
X85710000Y-110590000D03*
D35*
X86610000Y-110590000D03*
D36*
X85710000Y-113130000D03*
D35*
X86610000Y-113130000D03*
D38*
X98040000Y-64200000D03*
D35*
X98040000Y-65100000D03*
D38*
X95500000Y-64200000D03*
D39*
X95500000Y-65100000D03*
D38*
X92960000Y-64200000D03*
D35*
X92960000Y-65100000D03*
D40*
X70500000Y-99750000D03*
D11*
X70500000Y-107370000D03*
D20*
X119000000Y-41500000D03*
X116500000Y-41500000D03*
D41*
X73500000Y-58500000D03*
D42*
X73500000Y-61040000D03*
X73500000Y-63580000D03*
X73500000Y-66120000D03*
X73500000Y-68660000D03*
X73500000Y-71200000D03*
X73500000Y-73740000D03*
D43*
X83000000Y-48000000D03*
D27*
X83000000Y-27510000D03*
D11*
X132000000Y-84000000D03*
X132000000Y-73840000D03*
D10*
X141000000Y-120000000D03*
D44*
X98500000Y-55500000D03*
D11*
X98500000Y-47880000D03*
D45*
X45000000Y-25000000D03*
D46*
X43000000Y-25000000D03*
D47*
X36000000Y-25000000D03*
D46*
X38000000Y-25000000D03*
D48*
X51000000Y-25000000D03*
D49*
X53540000Y-25000000D03*
X56080000Y-25000000D03*
D50*
X61500000Y-34500000D03*
D31*
X61500000Y-37040000D03*
D22*
X67500000Y-88000000D03*
X74000000Y-88000000D03*
X67500000Y-83500000D03*
X74000000Y-83500000D03*
D11*
X54500000Y-32500000D03*
X54500000Y-42660000D03*
D51*
X49000000Y-39000000D03*
D19*
X38840000Y-39000000D03*
D11*
X114000000Y-84000000D03*
X114000000Y-73840000D03*
X127500000Y-73750000D03*
X127500000Y-83910000D03*
D52*
X123000000Y-115000000D03*
X123000000Y-112460000D03*
X123000000Y-109920000D03*
D17*
X57000000Y-50500000D03*
X46840000Y-50500000D03*
D20*
X47500000Y-55000000D03*
X50000000Y-55000000D03*
D32*
X55000000Y-62250000D03*
D17*
X55000000Y-59710000D03*
X47380000Y-59710000D03*
X47380000Y-62250000D03*
D18*
X26000000Y-62500000D03*
D19*
X36160000Y-62500000D03*
D18*
X26000000Y-110500000D03*
D19*
X36160000Y-110500000D03*
D12*
X30000000Y-52000000D03*
D13*
X30000000Y-57000000D03*
D51*
X49000000Y-43000000D03*
D19*
X38840000Y-43000000D03*
D32*
X54500000Y-110250000D03*
D17*
X54500000Y-107710000D03*
X46880000Y-107710000D03*
X46880000Y-110250000D03*
D32*
X54500000Y-94250000D03*
D17*
X54500000Y-91710000D03*
X46880000Y-91710000D03*
X46880000Y-94250000D03*
D11*
X132000000Y-69000000D03*
X132000000Y-58840000D03*
D53*
X139500000Y-104500000D03*
D54*
X139500000Y-101960000D03*
X139500000Y-99420000D03*
X139500000Y-96880000D03*
G36*
X96552919Y-64754225D02*
G01*
X96572595Y-64821237D01*
X96624938Y-64866592D01*
X96693491Y-64876449D01*
X96756513Y-64847667D01*
X96788295Y-64800761D01*
X96790095Y-64799888D01*
X96791750Y-64801010D01*
X96791886Y-64802387D01*
X96752181Y-64954817D01*
X96742143Y-65146354D01*
X96770825Y-65336006D01*
X96816083Y-65459014D01*
X96815743Y-65460985D01*
X96813866Y-65461676D01*
X96812385Y-65460533D01*
X96788086Y-65407088D01*
X96742624Y-65354445D01*
X96676203Y-65334821D01*
X96609718Y-65354224D01*
X96564228Y-65406545D01*
X96552954Y-65458163D01*
X96551607Y-65459642D01*
X96549653Y-65459215D01*
X96549000Y-65457736D01*
X96549000Y-64754788D01*
X96550000Y-64753056D01*
X96552000Y-64753056D01*
X96552919Y-64754225D01*
G37*
G36*
X94187615Y-64739467D02*
G01*
X94211914Y-64792912D01*
X94257376Y-64845555D01*
X94323797Y-64865179D01*
X94390282Y-64845776D01*
X94435772Y-64793455D01*
X94447046Y-64741837D01*
X94448393Y-64740358D01*
X94450347Y-64740785D01*
X94451000Y-64742264D01*
X94451000Y-65445212D01*
X94450000Y-65446944D01*
X94448000Y-65446944D01*
X94447081Y-65445775D01*
X94427405Y-65378763D01*
X94375062Y-65333408D01*
X94306509Y-65323551D01*
X94243487Y-65352333D01*
X94211705Y-65399239D01*
X94209905Y-65400112D01*
X94208250Y-65398990D01*
X94208114Y-65397613D01*
X94247819Y-65245183D01*
X94257857Y-65053646D01*
X94229175Y-64863994D01*
X94183917Y-64740986D01*
X94184257Y-64739015D01*
X94186134Y-64738324D01*
X94187615Y-64739467D01*
G37*
G36*
X128371143Y-43050000D02*
G01*
X128371143Y-43052000D01*
X128369974Y-43052919D01*
X128302962Y-43072595D01*
X128257607Y-43124938D01*
X128247750Y-43193491D01*
X128276533Y-43256517D01*
X128328600Y-43292028D01*
X128372164Y-43307456D01*
X128373463Y-43308977D01*
X128372795Y-43310862D01*
X128370978Y-43311273D01*
X128216882Y-43269982D01*
X128000000Y-43251007D01*
X127783118Y-43269982D01*
X127643008Y-43307525D01*
X127641076Y-43307007D01*
X127640558Y-43305075D01*
X127641869Y-43303692D01*
X127674575Y-43293002D01*
X127731926Y-43253639D01*
X127758775Y-43189796D01*
X127746846Y-43121574D01*
X127699914Y-43070618D01*
X127636103Y-43052927D01*
X127634701Y-43051501D01*
X127635235Y-43049574D01*
X127636637Y-43049000D01*
X128369411Y-43049000D01*
X128371143Y-43050000D01*
G37*
M02*
