G04 #@! TF.GenerationSoftware,KiCad,Pcbnew,(5.1.4)-1*
G04 #@! TF.CreationDate,2022-02-09T09:31:32-03:00*
G04 #@! TF.ProjectId,P_Inyectores_Rpi_pico,505f496e-7965-4637-946f-7265735f5270,rev?*
G04 #@! TF.SameCoordinates,Original*
G04 #@! TF.FileFunction,Paste,Bot*
G04 #@! TF.FilePolarity,Positive*
%FSLAX46Y46*%
G04 Gerber Fmt 4.6, Leading zero omitted, Abs format (unit mm)*
G04 Created by KiCad (PCBNEW (5.1.4)-1) date 2022-02-09 09:31:32*
%MOMM*%
%LPD*%
G04 APERTURE LIST*
%ADD10C,0.100000*%
%ADD11C,0.975000*%
%ADD12R,0.450000X1.450000*%
%ADD13C,0.600000*%
G04 APERTURE END LIST*
D10*
G36*
X188830142Y-69301174D02*
G01*
X188853803Y-69304684D01*
X188877007Y-69310496D01*
X188899529Y-69318554D01*
X188921153Y-69328782D01*
X188941670Y-69341079D01*
X188960883Y-69355329D01*
X188978607Y-69371393D01*
X188994671Y-69389117D01*
X189008921Y-69408330D01*
X189021218Y-69428847D01*
X189031446Y-69450471D01*
X189039504Y-69472993D01*
X189045316Y-69496197D01*
X189048826Y-69519858D01*
X189050000Y-69543750D01*
X189050000Y-70456250D01*
X189048826Y-70480142D01*
X189045316Y-70503803D01*
X189039504Y-70527007D01*
X189031446Y-70549529D01*
X189021218Y-70571153D01*
X189008921Y-70591670D01*
X188994671Y-70610883D01*
X188978607Y-70628607D01*
X188960883Y-70644671D01*
X188941670Y-70658921D01*
X188921153Y-70671218D01*
X188899529Y-70681446D01*
X188877007Y-70689504D01*
X188853803Y-70695316D01*
X188830142Y-70698826D01*
X188806250Y-70700000D01*
X188318750Y-70700000D01*
X188294858Y-70698826D01*
X188271197Y-70695316D01*
X188247993Y-70689504D01*
X188225471Y-70681446D01*
X188203847Y-70671218D01*
X188183330Y-70658921D01*
X188164117Y-70644671D01*
X188146393Y-70628607D01*
X188130329Y-70610883D01*
X188116079Y-70591670D01*
X188103782Y-70571153D01*
X188093554Y-70549529D01*
X188085496Y-70527007D01*
X188079684Y-70503803D01*
X188076174Y-70480142D01*
X188075000Y-70456250D01*
X188075000Y-69543750D01*
X188076174Y-69519858D01*
X188079684Y-69496197D01*
X188085496Y-69472993D01*
X188093554Y-69450471D01*
X188103782Y-69428847D01*
X188116079Y-69408330D01*
X188130329Y-69389117D01*
X188146393Y-69371393D01*
X188164117Y-69355329D01*
X188183330Y-69341079D01*
X188203847Y-69328782D01*
X188225471Y-69318554D01*
X188247993Y-69310496D01*
X188271197Y-69304684D01*
X188294858Y-69301174D01*
X188318750Y-69300000D01*
X188806250Y-69300000D01*
X188830142Y-69301174D01*
X188830142Y-69301174D01*
G37*
D11*
X188562500Y-70000000D03*
D10*
G36*
X190705142Y-69301174D02*
G01*
X190728803Y-69304684D01*
X190752007Y-69310496D01*
X190774529Y-69318554D01*
X190796153Y-69328782D01*
X190816670Y-69341079D01*
X190835883Y-69355329D01*
X190853607Y-69371393D01*
X190869671Y-69389117D01*
X190883921Y-69408330D01*
X190896218Y-69428847D01*
X190906446Y-69450471D01*
X190914504Y-69472993D01*
X190920316Y-69496197D01*
X190923826Y-69519858D01*
X190925000Y-69543750D01*
X190925000Y-70456250D01*
X190923826Y-70480142D01*
X190920316Y-70503803D01*
X190914504Y-70527007D01*
X190906446Y-70549529D01*
X190896218Y-70571153D01*
X190883921Y-70591670D01*
X190869671Y-70610883D01*
X190853607Y-70628607D01*
X190835883Y-70644671D01*
X190816670Y-70658921D01*
X190796153Y-70671218D01*
X190774529Y-70681446D01*
X190752007Y-70689504D01*
X190728803Y-70695316D01*
X190705142Y-70698826D01*
X190681250Y-70700000D01*
X190193750Y-70700000D01*
X190169858Y-70698826D01*
X190146197Y-70695316D01*
X190122993Y-70689504D01*
X190100471Y-70681446D01*
X190078847Y-70671218D01*
X190058330Y-70658921D01*
X190039117Y-70644671D01*
X190021393Y-70628607D01*
X190005329Y-70610883D01*
X189991079Y-70591670D01*
X189978782Y-70571153D01*
X189968554Y-70549529D01*
X189960496Y-70527007D01*
X189954684Y-70503803D01*
X189951174Y-70480142D01*
X189950000Y-70456250D01*
X189950000Y-69543750D01*
X189951174Y-69519858D01*
X189954684Y-69496197D01*
X189960496Y-69472993D01*
X189968554Y-69450471D01*
X189978782Y-69428847D01*
X189991079Y-69408330D01*
X190005329Y-69389117D01*
X190021393Y-69371393D01*
X190039117Y-69355329D01*
X190058330Y-69341079D01*
X190078847Y-69328782D01*
X190100471Y-69318554D01*
X190122993Y-69310496D01*
X190146197Y-69304684D01*
X190169858Y-69301174D01*
X190193750Y-69300000D01*
X190681250Y-69300000D01*
X190705142Y-69301174D01*
X190705142Y-69301174D01*
G37*
D11*
X190437500Y-70000000D03*
D12*
X183475000Y-61550000D03*
X182825000Y-61550000D03*
X182175000Y-61550000D03*
X181525000Y-61550000D03*
X181525000Y-67450000D03*
X182175000Y-67450000D03*
X182825000Y-67450000D03*
X183475000Y-67450000D03*
D10*
G36*
X170539703Y-78145722D02*
G01*
X170554264Y-78147882D01*
X170568543Y-78151459D01*
X170582403Y-78156418D01*
X170595710Y-78162712D01*
X170608336Y-78170280D01*
X170620159Y-78179048D01*
X170631066Y-78188934D01*
X170640952Y-78199841D01*
X170649720Y-78211664D01*
X170657288Y-78224290D01*
X170663582Y-78237597D01*
X170668541Y-78251457D01*
X170672118Y-78265736D01*
X170674278Y-78280297D01*
X170675000Y-78295000D01*
X170675000Y-78595000D01*
X170674278Y-78609703D01*
X170672118Y-78624264D01*
X170668541Y-78638543D01*
X170663582Y-78652403D01*
X170657288Y-78665710D01*
X170649720Y-78678336D01*
X170640952Y-78690159D01*
X170631066Y-78701066D01*
X170620159Y-78710952D01*
X170608336Y-78719720D01*
X170595710Y-78727288D01*
X170582403Y-78733582D01*
X170568543Y-78738541D01*
X170554264Y-78742118D01*
X170539703Y-78744278D01*
X170525000Y-78745000D01*
X168775000Y-78745000D01*
X168760297Y-78744278D01*
X168745736Y-78742118D01*
X168731457Y-78738541D01*
X168717597Y-78733582D01*
X168704290Y-78727288D01*
X168691664Y-78719720D01*
X168679841Y-78710952D01*
X168668934Y-78701066D01*
X168659048Y-78690159D01*
X168650280Y-78678336D01*
X168642712Y-78665710D01*
X168636418Y-78652403D01*
X168631459Y-78638543D01*
X168627882Y-78624264D01*
X168625722Y-78609703D01*
X168625000Y-78595000D01*
X168625000Y-78295000D01*
X168625722Y-78280297D01*
X168627882Y-78265736D01*
X168631459Y-78251457D01*
X168636418Y-78237597D01*
X168642712Y-78224290D01*
X168650280Y-78211664D01*
X168659048Y-78199841D01*
X168668934Y-78188934D01*
X168679841Y-78179048D01*
X168691664Y-78170280D01*
X168704290Y-78162712D01*
X168717597Y-78156418D01*
X168731457Y-78151459D01*
X168745736Y-78147882D01*
X168760297Y-78145722D01*
X168775000Y-78145000D01*
X170525000Y-78145000D01*
X170539703Y-78145722D01*
X170539703Y-78145722D01*
G37*
D13*
X169650000Y-78445000D03*
D10*
G36*
X170539703Y-76875722D02*
G01*
X170554264Y-76877882D01*
X170568543Y-76881459D01*
X170582403Y-76886418D01*
X170595710Y-76892712D01*
X170608336Y-76900280D01*
X170620159Y-76909048D01*
X170631066Y-76918934D01*
X170640952Y-76929841D01*
X170649720Y-76941664D01*
X170657288Y-76954290D01*
X170663582Y-76967597D01*
X170668541Y-76981457D01*
X170672118Y-76995736D01*
X170674278Y-77010297D01*
X170675000Y-77025000D01*
X170675000Y-77325000D01*
X170674278Y-77339703D01*
X170672118Y-77354264D01*
X170668541Y-77368543D01*
X170663582Y-77382403D01*
X170657288Y-77395710D01*
X170649720Y-77408336D01*
X170640952Y-77420159D01*
X170631066Y-77431066D01*
X170620159Y-77440952D01*
X170608336Y-77449720D01*
X170595710Y-77457288D01*
X170582403Y-77463582D01*
X170568543Y-77468541D01*
X170554264Y-77472118D01*
X170539703Y-77474278D01*
X170525000Y-77475000D01*
X168775000Y-77475000D01*
X168760297Y-77474278D01*
X168745736Y-77472118D01*
X168731457Y-77468541D01*
X168717597Y-77463582D01*
X168704290Y-77457288D01*
X168691664Y-77449720D01*
X168679841Y-77440952D01*
X168668934Y-77431066D01*
X168659048Y-77420159D01*
X168650280Y-77408336D01*
X168642712Y-77395710D01*
X168636418Y-77382403D01*
X168631459Y-77368543D01*
X168627882Y-77354264D01*
X168625722Y-77339703D01*
X168625000Y-77325000D01*
X168625000Y-77025000D01*
X168625722Y-77010297D01*
X168627882Y-76995736D01*
X168631459Y-76981457D01*
X168636418Y-76967597D01*
X168642712Y-76954290D01*
X168650280Y-76941664D01*
X168659048Y-76929841D01*
X168668934Y-76918934D01*
X168679841Y-76909048D01*
X168691664Y-76900280D01*
X168704290Y-76892712D01*
X168717597Y-76886418D01*
X168731457Y-76881459D01*
X168745736Y-76877882D01*
X168760297Y-76875722D01*
X168775000Y-76875000D01*
X170525000Y-76875000D01*
X170539703Y-76875722D01*
X170539703Y-76875722D01*
G37*
D13*
X169650000Y-77175000D03*
D10*
G36*
X170539703Y-75605722D02*
G01*
X170554264Y-75607882D01*
X170568543Y-75611459D01*
X170582403Y-75616418D01*
X170595710Y-75622712D01*
X170608336Y-75630280D01*
X170620159Y-75639048D01*
X170631066Y-75648934D01*
X170640952Y-75659841D01*
X170649720Y-75671664D01*
X170657288Y-75684290D01*
X170663582Y-75697597D01*
X170668541Y-75711457D01*
X170672118Y-75725736D01*
X170674278Y-75740297D01*
X170675000Y-75755000D01*
X170675000Y-76055000D01*
X170674278Y-76069703D01*
X170672118Y-76084264D01*
X170668541Y-76098543D01*
X170663582Y-76112403D01*
X170657288Y-76125710D01*
X170649720Y-76138336D01*
X170640952Y-76150159D01*
X170631066Y-76161066D01*
X170620159Y-76170952D01*
X170608336Y-76179720D01*
X170595710Y-76187288D01*
X170582403Y-76193582D01*
X170568543Y-76198541D01*
X170554264Y-76202118D01*
X170539703Y-76204278D01*
X170525000Y-76205000D01*
X168775000Y-76205000D01*
X168760297Y-76204278D01*
X168745736Y-76202118D01*
X168731457Y-76198541D01*
X168717597Y-76193582D01*
X168704290Y-76187288D01*
X168691664Y-76179720D01*
X168679841Y-76170952D01*
X168668934Y-76161066D01*
X168659048Y-76150159D01*
X168650280Y-76138336D01*
X168642712Y-76125710D01*
X168636418Y-76112403D01*
X168631459Y-76098543D01*
X168627882Y-76084264D01*
X168625722Y-76069703D01*
X168625000Y-76055000D01*
X168625000Y-75755000D01*
X168625722Y-75740297D01*
X168627882Y-75725736D01*
X168631459Y-75711457D01*
X168636418Y-75697597D01*
X168642712Y-75684290D01*
X168650280Y-75671664D01*
X168659048Y-75659841D01*
X168668934Y-75648934D01*
X168679841Y-75639048D01*
X168691664Y-75630280D01*
X168704290Y-75622712D01*
X168717597Y-75616418D01*
X168731457Y-75611459D01*
X168745736Y-75607882D01*
X168760297Y-75605722D01*
X168775000Y-75605000D01*
X170525000Y-75605000D01*
X170539703Y-75605722D01*
X170539703Y-75605722D01*
G37*
D13*
X169650000Y-75905000D03*
D10*
G36*
X170539703Y-74335722D02*
G01*
X170554264Y-74337882D01*
X170568543Y-74341459D01*
X170582403Y-74346418D01*
X170595710Y-74352712D01*
X170608336Y-74360280D01*
X170620159Y-74369048D01*
X170631066Y-74378934D01*
X170640952Y-74389841D01*
X170649720Y-74401664D01*
X170657288Y-74414290D01*
X170663582Y-74427597D01*
X170668541Y-74441457D01*
X170672118Y-74455736D01*
X170674278Y-74470297D01*
X170675000Y-74485000D01*
X170675000Y-74785000D01*
X170674278Y-74799703D01*
X170672118Y-74814264D01*
X170668541Y-74828543D01*
X170663582Y-74842403D01*
X170657288Y-74855710D01*
X170649720Y-74868336D01*
X170640952Y-74880159D01*
X170631066Y-74891066D01*
X170620159Y-74900952D01*
X170608336Y-74909720D01*
X170595710Y-74917288D01*
X170582403Y-74923582D01*
X170568543Y-74928541D01*
X170554264Y-74932118D01*
X170539703Y-74934278D01*
X170525000Y-74935000D01*
X168775000Y-74935000D01*
X168760297Y-74934278D01*
X168745736Y-74932118D01*
X168731457Y-74928541D01*
X168717597Y-74923582D01*
X168704290Y-74917288D01*
X168691664Y-74909720D01*
X168679841Y-74900952D01*
X168668934Y-74891066D01*
X168659048Y-74880159D01*
X168650280Y-74868336D01*
X168642712Y-74855710D01*
X168636418Y-74842403D01*
X168631459Y-74828543D01*
X168627882Y-74814264D01*
X168625722Y-74799703D01*
X168625000Y-74785000D01*
X168625000Y-74485000D01*
X168625722Y-74470297D01*
X168627882Y-74455736D01*
X168631459Y-74441457D01*
X168636418Y-74427597D01*
X168642712Y-74414290D01*
X168650280Y-74401664D01*
X168659048Y-74389841D01*
X168668934Y-74378934D01*
X168679841Y-74369048D01*
X168691664Y-74360280D01*
X168704290Y-74352712D01*
X168717597Y-74346418D01*
X168731457Y-74341459D01*
X168745736Y-74337882D01*
X168760297Y-74335722D01*
X168775000Y-74335000D01*
X170525000Y-74335000D01*
X170539703Y-74335722D01*
X170539703Y-74335722D01*
G37*
D13*
X169650000Y-74635000D03*
D10*
G36*
X170539703Y-73065722D02*
G01*
X170554264Y-73067882D01*
X170568543Y-73071459D01*
X170582403Y-73076418D01*
X170595710Y-73082712D01*
X170608336Y-73090280D01*
X170620159Y-73099048D01*
X170631066Y-73108934D01*
X170640952Y-73119841D01*
X170649720Y-73131664D01*
X170657288Y-73144290D01*
X170663582Y-73157597D01*
X170668541Y-73171457D01*
X170672118Y-73185736D01*
X170674278Y-73200297D01*
X170675000Y-73215000D01*
X170675000Y-73515000D01*
X170674278Y-73529703D01*
X170672118Y-73544264D01*
X170668541Y-73558543D01*
X170663582Y-73572403D01*
X170657288Y-73585710D01*
X170649720Y-73598336D01*
X170640952Y-73610159D01*
X170631066Y-73621066D01*
X170620159Y-73630952D01*
X170608336Y-73639720D01*
X170595710Y-73647288D01*
X170582403Y-73653582D01*
X170568543Y-73658541D01*
X170554264Y-73662118D01*
X170539703Y-73664278D01*
X170525000Y-73665000D01*
X168775000Y-73665000D01*
X168760297Y-73664278D01*
X168745736Y-73662118D01*
X168731457Y-73658541D01*
X168717597Y-73653582D01*
X168704290Y-73647288D01*
X168691664Y-73639720D01*
X168679841Y-73630952D01*
X168668934Y-73621066D01*
X168659048Y-73610159D01*
X168650280Y-73598336D01*
X168642712Y-73585710D01*
X168636418Y-73572403D01*
X168631459Y-73558543D01*
X168627882Y-73544264D01*
X168625722Y-73529703D01*
X168625000Y-73515000D01*
X168625000Y-73215000D01*
X168625722Y-73200297D01*
X168627882Y-73185736D01*
X168631459Y-73171457D01*
X168636418Y-73157597D01*
X168642712Y-73144290D01*
X168650280Y-73131664D01*
X168659048Y-73119841D01*
X168668934Y-73108934D01*
X168679841Y-73099048D01*
X168691664Y-73090280D01*
X168704290Y-73082712D01*
X168717597Y-73076418D01*
X168731457Y-73071459D01*
X168745736Y-73067882D01*
X168760297Y-73065722D01*
X168775000Y-73065000D01*
X170525000Y-73065000D01*
X170539703Y-73065722D01*
X170539703Y-73065722D01*
G37*
D13*
X169650000Y-73365000D03*
D10*
G36*
X170539703Y-71795722D02*
G01*
X170554264Y-71797882D01*
X170568543Y-71801459D01*
X170582403Y-71806418D01*
X170595710Y-71812712D01*
X170608336Y-71820280D01*
X170620159Y-71829048D01*
X170631066Y-71838934D01*
X170640952Y-71849841D01*
X170649720Y-71861664D01*
X170657288Y-71874290D01*
X170663582Y-71887597D01*
X170668541Y-71901457D01*
X170672118Y-71915736D01*
X170674278Y-71930297D01*
X170675000Y-71945000D01*
X170675000Y-72245000D01*
X170674278Y-72259703D01*
X170672118Y-72274264D01*
X170668541Y-72288543D01*
X170663582Y-72302403D01*
X170657288Y-72315710D01*
X170649720Y-72328336D01*
X170640952Y-72340159D01*
X170631066Y-72351066D01*
X170620159Y-72360952D01*
X170608336Y-72369720D01*
X170595710Y-72377288D01*
X170582403Y-72383582D01*
X170568543Y-72388541D01*
X170554264Y-72392118D01*
X170539703Y-72394278D01*
X170525000Y-72395000D01*
X168775000Y-72395000D01*
X168760297Y-72394278D01*
X168745736Y-72392118D01*
X168731457Y-72388541D01*
X168717597Y-72383582D01*
X168704290Y-72377288D01*
X168691664Y-72369720D01*
X168679841Y-72360952D01*
X168668934Y-72351066D01*
X168659048Y-72340159D01*
X168650280Y-72328336D01*
X168642712Y-72315710D01*
X168636418Y-72302403D01*
X168631459Y-72288543D01*
X168627882Y-72274264D01*
X168625722Y-72259703D01*
X168625000Y-72245000D01*
X168625000Y-71945000D01*
X168625722Y-71930297D01*
X168627882Y-71915736D01*
X168631459Y-71901457D01*
X168636418Y-71887597D01*
X168642712Y-71874290D01*
X168650280Y-71861664D01*
X168659048Y-71849841D01*
X168668934Y-71838934D01*
X168679841Y-71829048D01*
X168691664Y-71820280D01*
X168704290Y-71812712D01*
X168717597Y-71806418D01*
X168731457Y-71801459D01*
X168745736Y-71797882D01*
X168760297Y-71795722D01*
X168775000Y-71795000D01*
X170525000Y-71795000D01*
X170539703Y-71795722D01*
X170539703Y-71795722D01*
G37*
D13*
X169650000Y-72095000D03*
D10*
G36*
X170539703Y-70525722D02*
G01*
X170554264Y-70527882D01*
X170568543Y-70531459D01*
X170582403Y-70536418D01*
X170595710Y-70542712D01*
X170608336Y-70550280D01*
X170620159Y-70559048D01*
X170631066Y-70568934D01*
X170640952Y-70579841D01*
X170649720Y-70591664D01*
X170657288Y-70604290D01*
X170663582Y-70617597D01*
X170668541Y-70631457D01*
X170672118Y-70645736D01*
X170674278Y-70660297D01*
X170675000Y-70675000D01*
X170675000Y-70975000D01*
X170674278Y-70989703D01*
X170672118Y-71004264D01*
X170668541Y-71018543D01*
X170663582Y-71032403D01*
X170657288Y-71045710D01*
X170649720Y-71058336D01*
X170640952Y-71070159D01*
X170631066Y-71081066D01*
X170620159Y-71090952D01*
X170608336Y-71099720D01*
X170595710Y-71107288D01*
X170582403Y-71113582D01*
X170568543Y-71118541D01*
X170554264Y-71122118D01*
X170539703Y-71124278D01*
X170525000Y-71125000D01*
X168775000Y-71125000D01*
X168760297Y-71124278D01*
X168745736Y-71122118D01*
X168731457Y-71118541D01*
X168717597Y-71113582D01*
X168704290Y-71107288D01*
X168691664Y-71099720D01*
X168679841Y-71090952D01*
X168668934Y-71081066D01*
X168659048Y-71070159D01*
X168650280Y-71058336D01*
X168642712Y-71045710D01*
X168636418Y-71032403D01*
X168631459Y-71018543D01*
X168627882Y-71004264D01*
X168625722Y-70989703D01*
X168625000Y-70975000D01*
X168625000Y-70675000D01*
X168625722Y-70660297D01*
X168627882Y-70645736D01*
X168631459Y-70631457D01*
X168636418Y-70617597D01*
X168642712Y-70604290D01*
X168650280Y-70591664D01*
X168659048Y-70579841D01*
X168668934Y-70568934D01*
X168679841Y-70559048D01*
X168691664Y-70550280D01*
X168704290Y-70542712D01*
X168717597Y-70536418D01*
X168731457Y-70531459D01*
X168745736Y-70527882D01*
X168760297Y-70525722D01*
X168775000Y-70525000D01*
X170525000Y-70525000D01*
X170539703Y-70525722D01*
X170539703Y-70525722D01*
G37*
D13*
X169650000Y-70825000D03*
D10*
G36*
X170539703Y-69255722D02*
G01*
X170554264Y-69257882D01*
X170568543Y-69261459D01*
X170582403Y-69266418D01*
X170595710Y-69272712D01*
X170608336Y-69280280D01*
X170620159Y-69289048D01*
X170631066Y-69298934D01*
X170640952Y-69309841D01*
X170649720Y-69321664D01*
X170657288Y-69334290D01*
X170663582Y-69347597D01*
X170668541Y-69361457D01*
X170672118Y-69375736D01*
X170674278Y-69390297D01*
X170675000Y-69405000D01*
X170675000Y-69705000D01*
X170674278Y-69719703D01*
X170672118Y-69734264D01*
X170668541Y-69748543D01*
X170663582Y-69762403D01*
X170657288Y-69775710D01*
X170649720Y-69788336D01*
X170640952Y-69800159D01*
X170631066Y-69811066D01*
X170620159Y-69820952D01*
X170608336Y-69829720D01*
X170595710Y-69837288D01*
X170582403Y-69843582D01*
X170568543Y-69848541D01*
X170554264Y-69852118D01*
X170539703Y-69854278D01*
X170525000Y-69855000D01*
X168775000Y-69855000D01*
X168760297Y-69854278D01*
X168745736Y-69852118D01*
X168731457Y-69848541D01*
X168717597Y-69843582D01*
X168704290Y-69837288D01*
X168691664Y-69829720D01*
X168679841Y-69820952D01*
X168668934Y-69811066D01*
X168659048Y-69800159D01*
X168650280Y-69788336D01*
X168642712Y-69775710D01*
X168636418Y-69762403D01*
X168631459Y-69748543D01*
X168627882Y-69734264D01*
X168625722Y-69719703D01*
X168625000Y-69705000D01*
X168625000Y-69405000D01*
X168625722Y-69390297D01*
X168627882Y-69375736D01*
X168631459Y-69361457D01*
X168636418Y-69347597D01*
X168642712Y-69334290D01*
X168650280Y-69321664D01*
X168659048Y-69309841D01*
X168668934Y-69298934D01*
X168679841Y-69289048D01*
X168691664Y-69280280D01*
X168704290Y-69272712D01*
X168717597Y-69266418D01*
X168731457Y-69261459D01*
X168745736Y-69257882D01*
X168760297Y-69255722D01*
X168775000Y-69255000D01*
X170525000Y-69255000D01*
X170539703Y-69255722D01*
X170539703Y-69255722D01*
G37*
D13*
X169650000Y-69555000D03*
D10*
G36*
X161239703Y-69255722D02*
G01*
X161254264Y-69257882D01*
X161268543Y-69261459D01*
X161282403Y-69266418D01*
X161295710Y-69272712D01*
X161308336Y-69280280D01*
X161320159Y-69289048D01*
X161331066Y-69298934D01*
X161340952Y-69309841D01*
X161349720Y-69321664D01*
X161357288Y-69334290D01*
X161363582Y-69347597D01*
X161368541Y-69361457D01*
X161372118Y-69375736D01*
X161374278Y-69390297D01*
X161375000Y-69405000D01*
X161375000Y-69705000D01*
X161374278Y-69719703D01*
X161372118Y-69734264D01*
X161368541Y-69748543D01*
X161363582Y-69762403D01*
X161357288Y-69775710D01*
X161349720Y-69788336D01*
X161340952Y-69800159D01*
X161331066Y-69811066D01*
X161320159Y-69820952D01*
X161308336Y-69829720D01*
X161295710Y-69837288D01*
X161282403Y-69843582D01*
X161268543Y-69848541D01*
X161254264Y-69852118D01*
X161239703Y-69854278D01*
X161225000Y-69855000D01*
X159475000Y-69855000D01*
X159460297Y-69854278D01*
X159445736Y-69852118D01*
X159431457Y-69848541D01*
X159417597Y-69843582D01*
X159404290Y-69837288D01*
X159391664Y-69829720D01*
X159379841Y-69820952D01*
X159368934Y-69811066D01*
X159359048Y-69800159D01*
X159350280Y-69788336D01*
X159342712Y-69775710D01*
X159336418Y-69762403D01*
X159331459Y-69748543D01*
X159327882Y-69734264D01*
X159325722Y-69719703D01*
X159325000Y-69705000D01*
X159325000Y-69405000D01*
X159325722Y-69390297D01*
X159327882Y-69375736D01*
X159331459Y-69361457D01*
X159336418Y-69347597D01*
X159342712Y-69334290D01*
X159350280Y-69321664D01*
X159359048Y-69309841D01*
X159368934Y-69298934D01*
X159379841Y-69289048D01*
X159391664Y-69280280D01*
X159404290Y-69272712D01*
X159417597Y-69266418D01*
X159431457Y-69261459D01*
X159445736Y-69257882D01*
X159460297Y-69255722D01*
X159475000Y-69255000D01*
X161225000Y-69255000D01*
X161239703Y-69255722D01*
X161239703Y-69255722D01*
G37*
D13*
X160350000Y-69555000D03*
D10*
G36*
X161239703Y-70525722D02*
G01*
X161254264Y-70527882D01*
X161268543Y-70531459D01*
X161282403Y-70536418D01*
X161295710Y-70542712D01*
X161308336Y-70550280D01*
X161320159Y-70559048D01*
X161331066Y-70568934D01*
X161340952Y-70579841D01*
X161349720Y-70591664D01*
X161357288Y-70604290D01*
X161363582Y-70617597D01*
X161368541Y-70631457D01*
X161372118Y-70645736D01*
X161374278Y-70660297D01*
X161375000Y-70675000D01*
X161375000Y-70975000D01*
X161374278Y-70989703D01*
X161372118Y-71004264D01*
X161368541Y-71018543D01*
X161363582Y-71032403D01*
X161357288Y-71045710D01*
X161349720Y-71058336D01*
X161340952Y-71070159D01*
X161331066Y-71081066D01*
X161320159Y-71090952D01*
X161308336Y-71099720D01*
X161295710Y-71107288D01*
X161282403Y-71113582D01*
X161268543Y-71118541D01*
X161254264Y-71122118D01*
X161239703Y-71124278D01*
X161225000Y-71125000D01*
X159475000Y-71125000D01*
X159460297Y-71124278D01*
X159445736Y-71122118D01*
X159431457Y-71118541D01*
X159417597Y-71113582D01*
X159404290Y-71107288D01*
X159391664Y-71099720D01*
X159379841Y-71090952D01*
X159368934Y-71081066D01*
X159359048Y-71070159D01*
X159350280Y-71058336D01*
X159342712Y-71045710D01*
X159336418Y-71032403D01*
X159331459Y-71018543D01*
X159327882Y-71004264D01*
X159325722Y-70989703D01*
X159325000Y-70975000D01*
X159325000Y-70675000D01*
X159325722Y-70660297D01*
X159327882Y-70645736D01*
X159331459Y-70631457D01*
X159336418Y-70617597D01*
X159342712Y-70604290D01*
X159350280Y-70591664D01*
X159359048Y-70579841D01*
X159368934Y-70568934D01*
X159379841Y-70559048D01*
X159391664Y-70550280D01*
X159404290Y-70542712D01*
X159417597Y-70536418D01*
X159431457Y-70531459D01*
X159445736Y-70527882D01*
X159460297Y-70525722D01*
X159475000Y-70525000D01*
X161225000Y-70525000D01*
X161239703Y-70525722D01*
X161239703Y-70525722D01*
G37*
D13*
X160350000Y-70825000D03*
D10*
G36*
X161239703Y-71795722D02*
G01*
X161254264Y-71797882D01*
X161268543Y-71801459D01*
X161282403Y-71806418D01*
X161295710Y-71812712D01*
X161308336Y-71820280D01*
X161320159Y-71829048D01*
X161331066Y-71838934D01*
X161340952Y-71849841D01*
X161349720Y-71861664D01*
X161357288Y-71874290D01*
X161363582Y-71887597D01*
X161368541Y-71901457D01*
X161372118Y-71915736D01*
X161374278Y-71930297D01*
X161375000Y-71945000D01*
X161375000Y-72245000D01*
X161374278Y-72259703D01*
X161372118Y-72274264D01*
X161368541Y-72288543D01*
X161363582Y-72302403D01*
X161357288Y-72315710D01*
X161349720Y-72328336D01*
X161340952Y-72340159D01*
X161331066Y-72351066D01*
X161320159Y-72360952D01*
X161308336Y-72369720D01*
X161295710Y-72377288D01*
X161282403Y-72383582D01*
X161268543Y-72388541D01*
X161254264Y-72392118D01*
X161239703Y-72394278D01*
X161225000Y-72395000D01*
X159475000Y-72395000D01*
X159460297Y-72394278D01*
X159445736Y-72392118D01*
X159431457Y-72388541D01*
X159417597Y-72383582D01*
X159404290Y-72377288D01*
X159391664Y-72369720D01*
X159379841Y-72360952D01*
X159368934Y-72351066D01*
X159359048Y-72340159D01*
X159350280Y-72328336D01*
X159342712Y-72315710D01*
X159336418Y-72302403D01*
X159331459Y-72288543D01*
X159327882Y-72274264D01*
X159325722Y-72259703D01*
X159325000Y-72245000D01*
X159325000Y-71945000D01*
X159325722Y-71930297D01*
X159327882Y-71915736D01*
X159331459Y-71901457D01*
X159336418Y-71887597D01*
X159342712Y-71874290D01*
X159350280Y-71861664D01*
X159359048Y-71849841D01*
X159368934Y-71838934D01*
X159379841Y-71829048D01*
X159391664Y-71820280D01*
X159404290Y-71812712D01*
X159417597Y-71806418D01*
X159431457Y-71801459D01*
X159445736Y-71797882D01*
X159460297Y-71795722D01*
X159475000Y-71795000D01*
X161225000Y-71795000D01*
X161239703Y-71795722D01*
X161239703Y-71795722D01*
G37*
D13*
X160350000Y-72095000D03*
D10*
G36*
X161239703Y-73065722D02*
G01*
X161254264Y-73067882D01*
X161268543Y-73071459D01*
X161282403Y-73076418D01*
X161295710Y-73082712D01*
X161308336Y-73090280D01*
X161320159Y-73099048D01*
X161331066Y-73108934D01*
X161340952Y-73119841D01*
X161349720Y-73131664D01*
X161357288Y-73144290D01*
X161363582Y-73157597D01*
X161368541Y-73171457D01*
X161372118Y-73185736D01*
X161374278Y-73200297D01*
X161375000Y-73215000D01*
X161375000Y-73515000D01*
X161374278Y-73529703D01*
X161372118Y-73544264D01*
X161368541Y-73558543D01*
X161363582Y-73572403D01*
X161357288Y-73585710D01*
X161349720Y-73598336D01*
X161340952Y-73610159D01*
X161331066Y-73621066D01*
X161320159Y-73630952D01*
X161308336Y-73639720D01*
X161295710Y-73647288D01*
X161282403Y-73653582D01*
X161268543Y-73658541D01*
X161254264Y-73662118D01*
X161239703Y-73664278D01*
X161225000Y-73665000D01*
X159475000Y-73665000D01*
X159460297Y-73664278D01*
X159445736Y-73662118D01*
X159431457Y-73658541D01*
X159417597Y-73653582D01*
X159404290Y-73647288D01*
X159391664Y-73639720D01*
X159379841Y-73630952D01*
X159368934Y-73621066D01*
X159359048Y-73610159D01*
X159350280Y-73598336D01*
X159342712Y-73585710D01*
X159336418Y-73572403D01*
X159331459Y-73558543D01*
X159327882Y-73544264D01*
X159325722Y-73529703D01*
X159325000Y-73515000D01*
X159325000Y-73215000D01*
X159325722Y-73200297D01*
X159327882Y-73185736D01*
X159331459Y-73171457D01*
X159336418Y-73157597D01*
X159342712Y-73144290D01*
X159350280Y-73131664D01*
X159359048Y-73119841D01*
X159368934Y-73108934D01*
X159379841Y-73099048D01*
X159391664Y-73090280D01*
X159404290Y-73082712D01*
X159417597Y-73076418D01*
X159431457Y-73071459D01*
X159445736Y-73067882D01*
X159460297Y-73065722D01*
X159475000Y-73065000D01*
X161225000Y-73065000D01*
X161239703Y-73065722D01*
X161239703Y-73065722D01*
G37*
D13*
X160350000Y-73365000D03*
D10*
G36*
X161239703Y-74335722D02*
G01*
X161254264Y-74337882D01*
X161268543Y-74341459D01*
X161282403Y-74346418D01*
X161295710Y-74352712D01*
X161308336Y-74360280D01*
X161320159Y-74369048D01*
X161331066Y-74378934D01*
X161340952Y-74389841D01*
X161349720Y-74401664D01*
X161357288Y-74414290D01*
X161363582Y-74427597D01*
X161368541Y-74441457D01*
X161372118Y-74455736D01*
X161374278Y-74470297D01*
X161375000Y-74485000D01*
X161375000Y-74785000D01*
X161374278Y-74799703D01*
X161372118Y-74814264D01*
X161368541Y-74828543D01*
X161363582Y-74842403D01*
X161357288Y-74855710D01*
X161349720Y-74868336D01*
X161340952Y-74880159D01*
X161331066Y-74891066D01*
X161320159Y-74900952D01*
X161308336Y-74909720D01*
X161295710Y-74917288D01*
X161282403Y-74923582D01*
X161268543Y-74928541D01*
X161254264Y-74932118D01*
X161239703Y-74934278D01*
X161225000Y-74935000D01*
X159475000Y-74935000D01*
X159460297Y-74934278D01*
X159445736Y-74932118D01*
X159431457Y-74928541D01*
X159417597Y-74923582D01*
X159404290Y-74917288D01*
X159391664Y-74909720D01*
X159379841Y-74900952D01*
X159368934Y-74891066D01*
X159359048Y-74880159D01*
X159350280Y-74868336D01*
X159342712Y-74855710D01*
X159336418Y-74842403D01*
X159331459Y-74828543D01*
X159327882Y-74814264D01*
X159325722Y-74799703D01*
X159325000Y-74785000D01*
X159325000Y-74485000D01*
X159325722Y-74470297D01*
X159327882Y-74455736D01*
X159331459Y-74441457D01*
X159336418Y-74427597D01*
X159342712Y-74414290D01*
X159350280Y-74401664D01*
X159359048Y-74389841D01*
X159368934Y-74378934D01*
X159379841Y-74369048D01*
X159391664Y-74360280D01*
X159404290Y-74352712D01*
X159417597Y-74346418D01*
X159431457Y-74341459D01*
X159445736Y-74337882D01*
X159460297Y-74335722D01*
X159475000Y-74335000D01*
X161225000Y-74335000D01*
X161239703Y-74335722D01*
X161239703Y-74335722D01*
G37*
D13*
X160350000Y-74635000D03*
D10*
G36*
X161239703Y-75605722D02*
G01*
X161254264Y-75607882D01*
X161268543Y-75611459D01*
X161282403Y-75616418D01*
X161295710Y-75622712D01*
X161308336Y-75630280D01*
X161320159Y-75639048D01*
X161331066Y-75648934D01*
X161340952Y-75659841D01*
X161349720Y-75671664D01*
X161357288Y-75684290D01*
X161363582Y-75697597D01*
X161368541Y-75711457D01*
X161372118Y-75725736D01*
X161374278Y-75740297D01*
X161375000Y-75755000D01*
X161375000Y-76055000D01*
X161374278Y-76069703D01*
X161372118Y-76084264D01*
X161368541Y-76098543D01*
X161363582Y-76112403D01*
X161357288Y-76125710D01*
X161349720Y-76138336D01*
X161340952Y-76150159D01*
X161331066Y-76161066D01*
X161320159Y-76170952D01*
X161308336Y-76179720D01*
X161295710Y-76187288D01*
X161282403Y-76193582D01*
X161268543Y-76198541D01*
X161254264Y-76202118D01*
X161239703Y-76204278D01*
X161225000Y-76205000D01*
X159475000Y-76205000D01*
X159460297Y-76204278D01*
X159445736Y-76202118D01*
X159431457Y-76198541D01*
X159417597Y-76193582D01*
X159404290Y-76187288D01*
X159391664Y-76179720D01*
X159379841Y-76170952D01*
X159368934Y-76161066D01*
X159359048Y-76150159D01*
X159350280Y-76138336D01*
X159342712Y-76125710D01*
X159336418Y-76112403D01*
X159331459Y-76098543D01*
X159327882Y-76084264D01*
X159325722Y-76069703D01*
X159325000Y-76055000D01*
X159325000Y-75755000D01*
X159325722Y-75740297D01*
X159327882Y-75725736D01*
X159331459Y-75711457D01*
X159336418Y-75697597D01*
X159342712Y-75684290D01*
X159350280Y-75671664D01*
X159359048Y-75659841D01*
X159368934Y-75648934D01*
X159379841Y-75639048D01*
X159391664Y-75630280D01*
X159404290Y-75622712D01*
X159417597Y-75616418D01*
X159431457Y-75611459D01*
X159445736Y-75607882D01*
X159460297Y-75605722D01*
X159475000Y-75605000D01*
X161225000Y-75605000D01*
X161239703Y-75605722D01*
X161239703Y-75605722D01*
G37*
D13*
X160350000Y-75905000D03*
D10*
G36*
X161239703Y-76875722D02*
G01*
X161254264Y-76877882D01*
X161268543Y-76881459D01*
X161282403Y-76886418D01*
X161295710Y-76892712D01*
X161308336Y-76900280D01*
X161320159Y-76909048D01*
X161331066Y-76918934D01*
X161340952Y-76929841D01*
X161349720Y-76941664D01*
X161357288Y-76954290D01*
X161363582Y-76967597D01*
X161368541Y-76981457D01*
X161372118Y-76995736D01*
X161374278Y-77010297D01*
X161375000Y-77025000D01*
X161375000Y-77325000D01*
X161374278Y-77339703D01*
X161372118Y-77354264D01*
X161368541Y-77368543D01*
X161363582Y-77382403D01*
X161357288Y-77395710D01*
X161349720Y-77408336D01*
X161340952Y-77420159D01*
X161331066Y-77431066D01*
X161320159Y-77440952D01*
X161308336Y-77449720D01*
X161295710Y-77457288D01*
X161282403Y-77463582D01*
X161268543Y-77468541D01*
X161254264Y-77472118D01*
X161239703Y-77474278D01*
X161225000Y-77475000D01*
X159475000Y-77475000D01*
X159460297Y-77474278D01*
X159445736Y-77472118D01*
X159431457Y-77468541D01*
X159417597Y-77463582D01*
X159404290Y-77457288D01*
X159391664Y-77449720D01*
X159379841Y-77440952D01*
X159368934Y-77431066D01*
X159359048Y-77420159D01*
X159350280Y-77408336D01*
X159342712Y-77395710D01*
X159336418Y-77382403D01*
X159331459Y-77368543D01*
X159327882Y-77354264D01*
X159325722Y-77339703D01*
X159325000Y-77325000D01*
X159325000Y-77025000D01*
X159325722Y-77010297D01*
X159327882Y-76995736D01*
X159331459Y-76981457D01*
X159336418Y-76967597D01*
X159342712Y-76954290D01*
X159350280Y-76941664D01*
X159359048Y-76929841D01*
X159368934Y-76918934D01*
X159379841Y-76909048D01*
X159391664Y-76900280D01*
X159404290Y-76892712D01*
X159417597Y-76886418D01*
X159431457Y-76881459D01*
X159445736Y-76877882D01*
X159460297Y-76875722D01*
X159475000Y-76875000D01*
X161225000Y-76875000D01*
X161239703Y-76875722D01*
X161239703Y-76875722D01*
G37*
D13*
X160350000Y-77175000D03*
D10*
G36*
X161239703Y-78145722D02*
G01*
X161254264Y-78147882D01*
X161268543Y-78151459D01*
X161282403Y-78156418D01*
X161295710Y-78162712D01*
X161308336Y-78170280D01*
X161320159Y-78179048D01*
X161331066Y-78188934D01*
X161340952Y-78199841D01*
X161349720Y-78211664D01*
X161357288Y-78224290D01*
X161363582Y-78237597D01*
X161368541Y-78251457D01*
X161372118Y-78265736D01*
X161374278Y-78280297D01*
X161375000Y-78295000D01*
X161375000Y-78595000D01*
X161374278Y-78609703D01*
X161372118Y-78624264D01*
X161368541Y-78638543D01*
X161363582Y-78652403D01*
X161357288Y-78665710D01*
X161349720Y-78678336D01*
X161340952Y-78690159D01*
X161331066Y-78701066D01*
X161320159Y-78710952D01*
X161308336Y-78719720D01*
X161295710Y-78727288D01*
X161282403Y-78733582D01*
X161268543Y-78738541D01*
X161254264Y-78742118D01*
X161239703Y-78744278D01*
X161225000Y-78745000D01*
X159475000Y-78745000D01*
X159460297Y-78744278D01*
X159445736Y-78742118D01*
X159431457Y-78738541D01*
X159417597Y-78733582D01*
X159404290Y-78727288D01*
X159391664Y-78719720D01*
X159379841Y-78710952D01*
X159368934Y-78701066D01*
X159359048Y-78690159D01*
X159350280Y-78678336D01*
X159342712Y-78665710D01*
X159336418Y-78652403D01*
X159331459Y-78638543D01*
X159327882Y-78624264D01*
X159325722Y-78609703D01*
X159325000Y-78595000D01*
X159325000Y-78295000D01*
X159325722Y-78280297D01*
X159327882Y-78265736D01*
X159331459Y-78251457D01*
X159336418Y-78237597D01*
X159342712Y-78224290D01*
X159350280Y-78211664D01*
X159359048Y-78199841D01*
X159368934Y-78188934D01*
X159379841Y-78179048D01*
X159391664Y-78170280D01*
X159404290Y-78162712D01*
X159417597Y-78156418D01*
X159431457Y-78151459D01*
X159445736Y-78147882D01*
X159460297Y-78145722D01*
X159475000Y-78145000D01*
X161225000Y-78145000D01*
X161239703Y-78145722D01*
X161239703Y-78145722D01*
G37*
D13*
X160350000Y-78445000D03*
D10*
G36*
X190945142Y-64846374D02*
G01*
X190968803Y-64849884D01*
X190992007Y-64855696D01*
X191014529Y-64863754D01*
X191036153Y-64873982D01*
X191056670Y-64886279D01*
X191075883Y-64900529D01*
X191093607Y-64916593D01*
X191109671Y-64934317D01*
X191123921Y-64953530D01*
X191136218Y-64974047D01*
X191146446Y-64995671D01*
X191154504Y-65018193D01*
X191160316Y-65041397D01*
X191163826Y-65065058D01*
X191165000Y-65088950D01*
X191165000Y-66001450D01*
X191163826Y-66025342D01*
X191160316Y-66049003D01*
X191154504Y-66072207D01*
X191146446Y-66094729D01*
X191136218Y-66116353D01*
X191123921Y-66136870D01*
X191109671Y-66156083D01*
X191093607Y-66173807D01*
X191075883Y-66189871D01*
X191056670Y-66204121D01*
X191036153Y-66216418D01*
X191014529Y-66226646D01*
X190992007Y-66234704D01*
X190968803Y-66240516D01*
X190945142Y-66244026D01*
X190921250Y-66245200D01*
X190433750Y-66245200D01*
X190409858Y-66244026D01*
X190386197Y-66240516D01*
X190362993Y-66234704D01*
X190340471Y-66226646D01*
X190318847Y-66216418D01*
X190298330Y-66204121D01*
X190279117Y-66189871D01*
X190261393Y-66173807D01*
X190245329Y-66156083D01*
X190231079Y-66136870D01*
X190218782Y-66116353D01*
X190208554Y-66094729D01*
X190200496Y-66072207D01*
X190194684Y-66049003D01*
X190191174Y-66025342D01*
X190190000Y-66001450D01*
X190190000Y-65088950D01*
X190191174Y-65065058D01*
X190194684Y-65041397D01*
X190200496Y-65018193D01*
X190208554Y-64995671D01*
X190218782Y-64974047D01*
X190231079Y-64953530D01*
X190245329Y-64934317D01*
X190261393Y-64916593D01*
X190279117Y-64900529D01*
X190298330Y-64886279D01*
X190318847Y-64873982D01*
X190340471Y-64863754D01*
X190362993Y-64855696D01*
X190386197Y-64849884D01*
X190409858Y-64846374D01*
X190433750Y-64845200D01*
X190921250Y-64845200D01*
X190945142Y-64846374D01*
X190945142Y-64846374D01*
G37*
D11*
X190677500Y-65545200D03*
D10*
G36*
X189070142Y-64846374D02*
G01*
X189093803Y-64849884D01*
X189117007Y-64855696D01*
X189139529Y-64863754D01*
X189161153Y-64873982D01*
X189181670Y-64886279D01*
X189200883Y-64900529D01*
X189218607Y-64916593D01*
X189234671Y-64934317D01*
X189248921Y-64953530D01*
X189261218Y-64974047D01*
X189271446Y-64995671D01*
X189279504Y-65018193D01*
X189285316Y-65041397D01*
X189288826Y-65065058D01*
X189290000Y-65088950D01*
X189290000Y-66001450D01*
X189288826Y-66025342D01*
X189285316Y-66049003D01*
X189279504Y-66072207D01*
X189271446Y-66094729D01*
X189261218Y-66116353D01*
X189248921Y-66136870D01*
X189234671Y-66156083D01*
X189218607Y-66173807D01*
X189200883Y-66189871D01*
X189181670Y-66204121D01*
X189161153Y-66216418D01*
X189139529Y-66226646D01*
X189117007Y-66234704D01*
X189093803Y-66240516D01*
X189070142Y-66244026D01*
X189046250Y-66245200D01*
X188558750Y-66245200D01*
X188534858Y-66244026D01*
X188511197Y-66240516D01*
X188487993Y-66234704D01*
X188465471Y-66226646D01*
X188443847Y-66216418D01*
X188423330Y-66204121D01*
X188404117Y-66189871D01*
X188386393Y-66173807D01*
X188370329Y-66156083D01*
X188356079Y-66136870D01*
X188343782Y-66116353D01*
X188333554Y-66094729D01*
X188325496Y-66072207D01*
X188319684Y-66049003D01*
X188316174Y-66025342D01*
X188315000Y-66001450D01*
X188315000Y-65088950D01*
X188316174Y-65065058D01*
X188319684Y-65041397D01*
X188325496Y-65018193D01*
X188333554Y-64995671D01*
X188343782Y-64974047D01*
X188356079Y-64953530D01*
X188370329Y-64934317D01*
X188386393Y-64916593D01*
X188404117Y-64900529D01*
X188423330Y-64886279D01*
X188443847Y-64873982D01*
X188465471Y-64863754D01*
X188487993Y-64855696D01*
X188511197Y-64849884D01*
X188534858Y-64846374D01*
X188558750Y-64845200D01*
X189046250Y-64845200D01*
X189070142Y-64846374D01*
X189070142Y-64846374D01*
G37*
D11*
X188802500Y-65545200D03*
D10*
G36*
X190945142Y-61896374D02*
G01*
X190968803Y-61899884D01*
X190992007Y-61905696D01*
X191014529Y-61913754D01*
X191036153Y-61923982D01*
X191056670Y-61936279D01*
X191075883Y-61950529D01*
X191093607Y-61966593D01*
X191109671Y-61984317D01*
X191123921Y-62003530D01*
X191136218Y-62024047D01*
X191146446Y-62045671D01*
X191154504Y-62068193D01*
X191160316Y-62091397D01*
X191163826Y-62115058D01*
X191165000Y-62138950D01*
X191165000Y-63051450D01*
X191163826Y-63075342D01*
X191160316Y-63099003D01*
X191154504Y-63122207D01*
X191146446Y-63144729D01*
X191136218Y-63166353D01*
X191123921Y-63186870D01*
X191109671Y-63206083D01*
X191093607Y-63223807D01*
X191075883Y-63239871D01*
X191056670Y-63254121D01*
X191036153Y-63266418D01*
X191014529Y-63276646D01*
X190992007Y-63284704D01*
X190968803Y-63290516D01*
X190945142Y-63294026D01*
X190921250Y-63295200D01*
X190433750Y-63295200D01*
X190409858Y-63294026D01*
X190386197Y-63290516D01*
X190362993Y-63284704D01*
X190340471Y-63276646D01*
X190318847Y-63266418D01*
X190298330Y-63254121D01*
X190279117Y-63239871D01*
X190261393Y-63223807D01*
X190245329Y-63206083D01*
X190231079Y-63186870D01*
X190218782Y-63166353D01*
X190208554Y-63144729D01*
X190200496Y-63122207D01*
X190194684Y-63099003D01*
X190191174Y-63075342D01*
X190190000Y-63051450D01*
X190190000Y-62138950D01*
X190191174Y-62115058D01*
X190194684Y-62091397D01*
X190200496Y-62068193D01*
X190208554Y-62045671D01*
X190218782Y-62024047D01*
X190231079Y-62003530D01*
X190245329Y-61984317D01*
X190261393Y-61966593D01*
X190279117Y-61950529D01*
X190298330Y-61936279D01*
X190318847Y-61923982D01*
X190340471Y-61913754D01*
X190362993Y-61905696D01*
X190386197Y-61899884D01*
X190409858Y-61896374D01*
X190433750Y-61895200D01*
X190921250Y-61895200D01*
X190945142Y-61896374D01*
X190945142Y-61896374D01*
G37*
D11*
X190677500Y-62595200D03*
D10*
G36*
X189070142Y-61896374D02*
G01*
X189093803Y-61899884D01*
X189117007Y-61905696D01*
X189139529Y-61913754D01*
X189161153Y-61923982D01*
X189181670Y-61936279D01*
X189200883Y-61950529D01*
X189218607Y-61966593D01*
X189234671Y-61984317D01*
X189248921Y-62003530D01*
X189261218Y-62024047D01*
X189271446Y-62045671D01*
X189279504Y-62068193D01*
X189285316Y-62091397D01*
X189288826Y-62115058D01*
X189290000Y-62138950D01*
X189290000Y-63051450D01*
X189288826Y-63075342D01*
X189285316Y-63099003D01*
X189279504Y-63122207D01*
X189271446Y-63144729D01*
X189261218Y-63166353D01*
X189248921Y-63186870D01*
X189234671Y-63206083D01*
X189218607Y-63223807D01*
X189200883Y-63239871D01*
X189181670Y-63254121D01*
X189161153Y-63266418D01*
X189139529Y-63276646D01*
X189117007Y-63284704D01*
X189093803Y-63290516D01*
X189070142Y-63294026D01*
X189046250Y-63295200D01*
X188558750Y-63295200D01*
X188534858Y-63294026D01*
X188511197Y-63290516D01*
X188487993Y-63284704D01*
X188465471Y-63276646D01*
X188443847Y-63266418D01*
X188423330Y-63254121D01*
X188404117Y-63239871D01*
X188386393Y-63223807D01*
X188370329Y-63206083D01*
X188356079Y-63186870D01*
X188343782Y-63166353D01*
X188333554Y-63144729D01*
X188325496Y-63122207D01*
X188319684Y-63099003D01*
X188316174Y-63075342D01*
X188315000Y-63051450D01*
X188315000Y-62138950D01*
X188316174Y-62115058D01*
X188319684Y-62091397D01*
X188325496Y-62068193D01*
X188333554Y-62045671D01*
X188343782Y-62024047D01*
X188356079Y-62003530D01*
X188370329Y-61984317D01*
X188386393Y-61966593D01*
X188404117Y-61950529D01*
X188423330Y-61936279D01*
X188443847Y-61923982D01*
X188465471Y-61913754D01*
X188487993Y-61905696D01*
X188511197Y-61899884D01*
X188534858Y-61896374D01*
X188558750Y-61895200D01*
X189046250Y-61895200D01*
X189070142Y-61896374D01*
X189070142Y-61896374D01*
G37*
D11*
X188802500Y-62595200D03*
M02*
