M48
; DRILL file {KiCad (6.0.4)} date Wed May  4 19:00:46 2022
; FORMAT={-:-/ absolute / inch / decimal}
; #@! TF.CreationDate,2022-05-04T19:00:46-03:00
; #@! TF.GenerationSoftware,Kicad,Pcbnew,(6.0.4)
; #@! TF.FileFunction,Plated,1,2,PTH
FMAT,2
INCH
; #@! TA.AperFunction,Plated,PTH,ViaDrill
T1C0.0157
; #@! TA.AperFunction,Plated,PTH,ComponentDrill
T2C0.0315
; #@! TA.AperFunction,Plated,PTH,ComponentDrill
T3C0.0354
; #@! TA.AperFunction,Plated,PTH,ComponentDrill
T4C0.0394
; #@! TA.AperFunction,Plated,PTH,ComponentDrill
T5C0.0402
; #@! TA.AperFunction,Plated,PTH,ComponentDrill
T6C0.0433
; #@! TA.AperFunction,Plated,PTH,ComponentDrill
T7C0.0472
; #@! TA.AperFunction,Plated,PTH,ComponentDrill
T8C0.0512
; #@! TA.AperFunction,Plated,PTH,ComponentDrill
T9C0.0591
; #@! TA.AperFunction,Plated,PTH,ComponentDrill
T10C0.0787
; #@! TA.AperFunction,Plated,PTH,ComponentDrill
T11C0.1260
%
G90
G05
T1
X1.3189Y-1.7717
X1.6535Y-3.5039
X1.6732Y-1.8307
X1.752Y-2.874
X1.7717Y-2.2441
X1.7717Y-4.1437
X1.9291Y-1.0827
X1.9488Y-2.874
X1.9488Y-3.3268
X1.9685Y-2.2441
X2.0866Y-4.1339
X2.1063Y-1.0827
X2.1457Y-3.3858
X2.1457Y-3.5433
X2.2441Y-2.7362
X2.2441Y-2.9724
X2.3819Y-3.2874
X2.5689Y-4.5177
X2.5787Y-3.2087
X2.6516Y-5.1969
X2.7264Y-4.5177
X2.815Y-5.1969
X2.8543Y-4.4685
X2.8642Y-3.75
X3.6122Y-2.3031
X3.6122Y-2.4016
X3.7008Y-1.0039
X3.8287Y-1.0138
X3.937Y-1.6437
X4.002Y-1.7618
X4.0354Y-1.1122
X4.0354Y-1.5354
X4.2297Y-2.4534
X4.2618Y-4.5768
X4.2717Y-1.7717
X4.2913Y-1.8898
X4.2913Y-2.2441
X4.311Y-1.5354
X4.311Y-2.4473
X4.3209Y-1.2894
X4.3504Y-3.5433
X4.3504Y-4.872
X4.3575Y-3.6516
X4.3941Y-1.1953
X4.4291Y-1.0138
X4.4658Y-3.0547
X4.4685Y-1.4764
X4.4685Y-4.5768
X4.4783Y-2.0472
X4.4882Y-2.6772
X4.5768Y-3.4154
X4.7146Y-1.1909
X4.7146Y-1.378
X4.7343Y-1.8799
X4.9508Y-0.9154
X4.9508Y-1.1203
X4.9508Y-1.2611
X4.9508Y-1.3949
X5.128Y-2.4705
X5.1378Y-1.752
X5.1969Y-3.3957
X5.1969Y-3.5728
X5.5118Y-1.7618
X5.5118Y-2.313
X5.584Y-3.8451
X5.5906Y-3.5039
T2
X1.4173Y-0.9843
X1.4961Y-0.9843
X1.5551Y-2.4606
X1.5551Y-3.0906
X1.5551Y-3.7205
X1.5551Y-4.3504
X1.6535Y-2.4606
X1.6535Y-3.0906
X1.6535Y-3.7205
X1.6535Y-4.3504
X1.6929Y-0.9843
X1.7717Y-0.9843
X1.8244Y-2.6378
X1.8244Y-3.248
X1.8244Y-3.8976
X1.8441Y-1.9882
X1.8457Y-2.9807
X1.8457Y-3.0807
X1.8457Y-3.6106
X1.8457Y-3.7106
X1.8457Y-4.2406
X1.8457Y-4.3406
X1.8504Y-2.7953
X1.8504Y-3.4252
X1.8504Y-4.0748
X1.8654Y-2.3508
X1.8654Y-2.4508
X1.8701Y-2.1654
X1.9488Y-2.7953
X1.9488Y-3.4252
X1.9488Y-4.0748
X1.9685Y-2.1654
X2.1457Y-1.2795
X2.1457Y-1.6795
X2.1457Y-2.9807
X2.1457Y-3.0807
X2.1457Y-3.6106
X2.1457Y-3.7106
X2.1457Y-4.2406
X2.1457Y-4.3406
X2.1654Y-2.3508
X2.1654Y-2.4508
X2.2244Y-2.6378
X2.2244Y-3.248
X2.2244Y-3.8976
X2.2441Y-1.9882
X2.3622Y-2.0669
X2.3622Y-2.4669
X2.3622Y-2.6906
X2.3622Y-3.0906
X2.3622Y-4.4488
X2.3622Y-5.2362
X2.4016Y-3.8287
X2.4016Y-4.2287
X2.4622Y-4.4488
X2.4622Y-5.2362
X2.5394Y-3.8287
X2.5394Y-4.2287
X2.5591Y-4.6063
X2.5591Y-5.0063
X2.5591Y-5.3661
X2.5591Y-5.7661
X2.5622Y-4.4488
X2.5622Y-5.2362
X2.7512Y-4.8705
X2.7512Y-4.9705
X2.7512Y-5.6185
X2.7512Y-5.7185
X2.7756Y-3.9272
X2.7756Y-4.2272
X3.0512Y-4.8705
X3.0512Y-4.9705
X3.0512Y-5.6185
X3.0512Y-5.7185
X3.878Y-1.885
X3.878Y-2.185
X4.2126Y-1.6339
X4.2126Y-1.8898
X4.2126Y-2.0669
X4.2126Y-2.2441
X4.311Y-1.6339
X4.4882Y-2.9071
X4.4882Y-3.3071
X4.5866Y-1.6339
X4.6126Y-1.8898
X4.6126Y-2.0669
X4.6126Y-2.2441
X4.6654Y-2.9035
X4.6654Y-3.3035
X4.685Y-1.6339
X4.8425Y-2.9035
X4.8425Y-3.3035
X4.8425Y-4.3276
X4.8425Y-4.4276
X4.8425Y-4.5276
X5.0197Y-2.9035
X5.0197Y-3.3035
X5.1969Y-2.3165
X5.1969Y-2.7165
X5.1969Y-2.9071
X5.1969Y-3.3071
T3
X2.4213Y-1.3583
X2.4213Y-1.4583
X2.8543Y-4.5669
X2.8543Y-5.3248
X2.9543Y-4.5669
X2.9543Y-5.3248
X4.6663Y-2.5591
X4.7513Y-2.5591
X4.8363Y-2.5591
X4.9213Y-2.5591
T4
X2.0689Y-4.5354
X2.0689Y-5.0079
X2.0689Y-5.2244
X2.0689Y-5.6969
X2.8937Y-2.3031
X2.8937Y-2.4031
X2.8937Y-2.5031
X2.8937Y-2.6031
X2.8937Y-2.7031
X2.8937Y-2.8031
X2.8937Y-2.9031
X4.8425Y-3.6378
X4.8425Y-3.937
X5.0394Y-1.6535
X5.0394Y-1.752
X5.0394Y-1.8602
X5.6102Y-1.6535
X5.6102Y-1.8504
T5
X3.4098Y-2.5539
X3.4098Y-2.6539
X3.4098Y-2.7539
X3.4098Y-2.8539
X3.4098Y-2.9539
X3.4098Y-3.0539
X3.4098Y-3.1539
X3.4098Y-3.2539
X3.4098Y-3.3539
X3.4098Y-3.4539
X3.4098Y-3.5539
X3.4098Y-3.6539
X3.4098Y-3.7539
X3.4098Y-3.8539
X3.4098Y-3.9539
X3.4098Y-4.0539
X3.4098Y-4.1539
X3.4098Y-4.2539
X3.4098Y-4.3539
X3.4098Y-4.4539
X3.6526Y-4.4488
X3.6598Y-2.563
X3.6644Y-4.3295
X3.7598Y-2.563
X3.8553Y-4.3295
X3.8598Y-2.563
X3.8671Y-4.4488
X4.1098Y-2.5539
X4.1098Y-2.6539
X4.1098Y-2.7539
X4.1098Y-2.8539
X4.1098Y-2.9539
X4.1098Y-3.0539
X4.1098Y-3.1539
X4.1098Y-3.2539
X4.1098Y-3.3539
X4.1098Y-3.4539
X4.1098Y-3.5539
X4.1098Y-3.6539
X4.1098Y-3.7539
X4.1098Y-3.8539
X4.1098Y-3.9539
X4.1098Y-4.0539
X4.1098Y-4.1539
X4.1098Y-4.2539
X4.1098Y-4.3539
X4.1098Y-4.4539
T6
X1.0236Y-2.4606
X1.0236Y-3.0906
X1.0236Y-3.7205
X1.0236Y-4.3504
X1.4236Y-2.4606
X1.4236Y-3.0906
X1.4236Y-3.7205
X1.4236Y-4.3504
X1.5291Y-1.5354
X1.5291Y-1.6929
X1.5551Y-2.0472
X1.5551Y-2.1472
X1.5551Y-2.2472
X1.5551Y-2.6772
X1.5551Y-2.7772
X1.5551Y-2.8772
X1.5551Y-3.3071
X1.5551Y-3.4071
X1.5551Y-3.5071
X1.5551Y-3.937
X1.5551Y-4.037
X1.5551Y-4.137
X1.9291Y-1.5354
X1.9291Y-1.6929
X2.0079Y-0.9843
X2.1079Y-0.9843
X2.2079Y-0.9843
X2.4016Y-4.6
X2.4016Y-5.0
X2.4016Y-5.3874
X2.4016Y-5.7874
X2.6575Y-3.2874
X2.6575Y-3.4646
X2.9134Y-3.2874
X2.9134Y-3.4646
X5.4134Y-2.4016
X5.4134Y-2.6575
X5.4134Y-3.0709
X5.4134Y-3.3268
X5.5906Y-2.4016
X5.5906Y-2.6575
X5.5906Y-3.0709
X5.5906Y-3.3268
T7
X5.4921Y-3.8142
X5.4921Y-3.9142
X5.4921Y-4.0142
X5.4921Y-4.1142
T8
X1.1811Y-1.5748
X1.1811Y-1.7717
X1.1811Y-2.0472
X1.1811Y-2.2441
X1.1811Y-2.6772
X1.1811Y-2.874
X1.1811Y-3.3071
X1.1811Y-3.5039
X1.1811Y-3.937
X1.1811Y-4.1339
X1.1811Y-4.6063
X1.1811Y-4.8031
X1.1811Y-5.2854
X1.1811Y-5.4823
X1.5866Y-5.0098
X1.5866Y-5.6988
X1.5886Y-4.5354
X1.5886Y-5.2244
X2.1457Y-4.7736
X2.1457Y-5.4626
T9
X3.2677Y-1.0831
X3.2677Y-1.8898
T11
X1.0236Y-1.0236
X1.0236Y-6.0236
X5.5512Y-1.0236
X5.5512Y-4.7244
T10
G00X5.3248Y-1.5315
M15
G01X5.3445Y-1.5315
M16
G05
G00X5.3248Y-1.9724
M15
G01X5.3445Y-1.9724
M16
G05
T0
M30
