G04 #@! TF.GenerationSoftware,KiCad,Pcbnew,(6.0.4)*
G04 #@! TF.CreationDate,2022-05-04T19:00:33-03:00*
G04 #@! TF.ProjectId,P_Inyectores_Rpi_pico,505f496e-7965-4637-946f-7265735f5270,rev?*
G04 #@! TF.SameCoordinates,Original*
G04 #@! TF.FileFunction,Soldermask,Bot*
G04 #@! TF.FilePolarity,Negative*
%FSLAX46Y46*%
G04 Gerber Fmt 4.6, Leading zero omitted, Abs format (unit mm)*
G04 Created by KiCad (PCBNEW (6.0.4)) date 2022-05-04 19:00:33*
%MOMM*%
%LPD*%
G01*
G04 APERTURE LIST*
G04 Aperture macros list*
%AMRoundRect*
0 Rectangle with rounded corners*
0 $1 Rounding radius*
0 $2 $3 $4 $5 $6 $7 $8 $9 X,Y pos of 4 corners*
0 Add a 4 corners polygon primitive as box body*
4,1,4,$2,$3,$4,$5,$6,$7,$8,$9,$2,$3,0*
0 Add four circle primitives for the rounded corners*
1,1,$1+$1,$2,$3*
1,1,$1+$1,$4,$5*
1,1,$1+$1,$6,$7*
1,1,$1+$1,$8,$9*
0 Add four rect primitives between the rounded corners*
20,1,$1+$1,$2,$3,$4,$5,0*
20,1,$1+$1,$4,$5,$6,$7,0*
20,1,$1+$1,$6,$7,$8,$9,0*
20,1,$1+$1,$8,$9,$2,$3,0*%
G04 Aperture macros list end*
%ADD10C,6.502000*%
%ADD11O,1.702000X2.502000*%
%ADD12RoundRect,0.051000X-1.300000X1.300000X-1.300000X-1.300000X1.300000X-1.300000X1.300000X1.300000X0*%
%ADD13C,2.702000*%
%ADD14RoundRect,0.051000X-1.000000X-1.000000X1.000000X-1.000000X1.000000X1.000000X-1.000000X1.000000X0*%
%ADD15C,2.502000*%
%ADD16RoundRect,0.051000X-1.500000X-1.250000X1.500000X-1.250000X1.500000X1.250000X-1.500000X1.250000X0*%
%ADD17O,2.502000X1.702000*%
%ADD18RoundRect,0.051000X-1.100000X-1.100000X1.100000X-1.100000X1.100000X1.100000X-1.100000X1.100000X0*%
%ADD19O,2.502000X2.302000*%
%ADD20O,2.102000X1.702000*%
%ADD21RoundRect,0.051000X1.000000X-1.000000X1.000000X1.000000X-1.000000X1.000000X-1.000000X-1.000000X0*%
%ADD22C,2.102000*%
%ADD23RoundRect,0.051000X1.100000X-1.100000X1.100000X1.100000X-1.100000X1.100000X-1.100000X-1.100000X0*%
%ADD24O,2.302000X2.502000*%
%ADD25RoundRect,0.051000X-1.200000X0.952500X-1.200000X-0.952500X1.200000X-0.952500X1.200000X0.952500X0*%
%ADD26O,2.502000X2.007000*%
%ADD27C,3.102000*%
%ADD28C,2.602000*%
%ADD29O,1.602000X2.102000*%
%ADD30RoundRect,0.051000X-0.900000X-1.200000X0.900000X-1.200000X0.900000X1.200000X-0.900000X1.200000X0*%
%ADD31C,1.902000*%
%ADD32RoundRect,0.051000X1.200000X0.800000X-1.200000X0.800000X-1.200000X-0.800000X1.200000X-0.800000X0*%
%ADD33O,1.902000X2.502000*%
%ADD34RoundRect,0.051000X0.900000X0.900000X-0.900000X0.900000X-0.900000X-0.900000X0.900000X-0.900000X0*%
%ADD35O,2.602000X1.902000*%
%ADD36RoundRect,0.051000X1.250000X0.850000X-1.250000X0.850000X-1.250000X-0.850000X1.250000X-0.850000X0*%
%ADD37RoundRect,0.051000X1.000000X0.750000X-1.000000X0.750000X-1.000000X-0.750000X1.000000X-0.750000X0*%
%ADD38RoundRect,0.051000X-0.800000X1.250000X-0.800000X-1.250000X0.800000X-1.250000X0.800000X1.250000X0*%
%ADD39RoundRect,0.051000X-1.250000X-0.850000X1.250000X-0.850000X1.250000X0.850000X-1.250000X0.850000X0*%
%ADD40O,2.402000X1.802000*%
%ADD41RoundRect,0.051000X1.500000X-1.500000X1.500000X1.500000X-1.500000X1.500000X-1.500000X-1.500000X0*%
%ADD42RoundRect,0.051000X0.800000X-1.250000X0.800000X1.250000X-0.800000X1.250000X-0.800000X-1.250000X0*%
%ADD43RoundRect,0.051000X0.800000X0.800000X-0.800000X0.800000X-0.800000X-0.800000X0.800000X-0.800000X0*%
%ADD44C,1.702000*%
%ADD45RoundRect,0.051000X-0.800000X-0.800000X0.800000X-0.800000X0.800000X0.800000X-0.800000X0.800000X0*%
%ADD46RoundRect,0.051000X-0.952500X-1.200000X0.952500X-1.200000X0.952500X1.200000X-0.952500X1.200000X0*%
%ADD47O,2.007000X2.502000*%
%ADD48RoundRect,0.051000X-1.200000X0.900000X-1.200000X-0.900000X1.200000X-0.900000X1.200000X0.900000X0*%
%ADD49RoundRect,0.051000X1.100000X1.100000X-1.100000X1.100000X-1.100000X-1.100000X1.100000X-1.100000X0*%
%ADD50O,2.102000X1.602000*%
%ADD51RoundRect,0.338356X0.812644X-0.712644X0.812644X0.712644X-0.812644X0.712644X-0.812644X-0.712644X0*%
%ADD52O,3.102000X2.102000*%
%ADD53RoundRect,0.294750X0.243750X0.456250X-0.243750X0.456250X-0.243750X-0.456250X0.243750X-0.456250X0*%
%ADD54RoundRect,0.051000X0.500000X0.750000X-0.500000X0.750000X-0.500000X-0.750000X0.500000X-0.750000X0*%
%ADD55RoundRect,0.301000X0.775000X0.250000X-0.775000X0.250000X-0.775000X-0.250000X0.775000X-0.250000X0*%
%ADD56RoundRect,0.051000X2.000000X2.500000X-2.000000X2.500000X-2.000000X-2.500000X2.000000X-2.500000X0*%
%ADD57RoundRect,0.051000X0.750000X-1.000000X0.750000X1.000000X-0.750000X1.000000X-0.750000X-1.000000X0*%
%ADD58RoundRect,0.051000X1.900000X-1.000000X1.900000X1.000000X-1.900000X1.000000X-1.900000X-1.000000X0*%
%ADD59RoundRect,0.301000X0.250000X-0.750000X0.250000X0.750000X-0.250000X0.750000X-0.250000X-0.750000X0*%
%ADD60RoundRect,0.294750X-0.243750X-0.456250X0.243750X-0.456250X0.243750X0.456250X-0.243750X0.456250X0*%
G04 APERTURE END LIST*
D10*
X26000000Y-153000000D03*
X141000000Y-26000000D03*
D11*
X64500000Y-97250000D03*
X64500000Y-107410000D03*
X65000000Y-117000000D03*
X65000000Y-127160000D03*
D12*
X30000000Y-68000000D03*
D13*
X30000000Y-73000000D03*
D11*
X65000000Y-136300000D03*
X65000000Y-146460000D03*
D14*
X128000000Y-42000000D03*
D15*
X128000000Y-47250000D03*
X128000000Y-44500000D03*
D16*
X135500000Y-38900000D03*
X135500000Y-50100000D03*
D15*
X142500000Y-42000000D03*
X142500000Y-47000000D03*
D17*
X56500000Y-82500000D03*
X46340000Y-82500000D03*
D11*
X61000000Y-97250000D03*
X61000000Y-107410000D03*
D17*
X56500000Y-99000000D03*
X46340000Y-99000000D03*
D10*
X26000000Y-26000000D03*
D18*
X26000000Y-94500000D03*
D19*
X36160000Y-94500000D03*
D18*
X26000000Y-78500000D03*
D19*
X36160000Y-78500000D03*
D20*
X47000000Y-71000000D03*
X49500000Y-71000000D03*
D21*
X123000000Y-100000000D03*
D22*
X123000000Y-92400000D03*
D23*
X61000000Y-127000000D03*
D24*
X61000000Y-116840000D03*
D23*
X61000000Y-147000000D03*
D24*
X61000000Y-136840000D03*
D12*
X30000000Y-117000000D03*
D13*
X30000000Y-122000000D03*
D20*
X47000000Y-103500000D03*
X49500000Y-103500000D03*
X47000000Y-87000000D03*
X49500000Y-87000000D03*
D25*
X39500000Y-52000000D03*
D26*
X39500000Y-54540000D03*
X39500000Y-57080000D03*
D17*
X107000000Y-52500000D03*
X117160000Y-52500000D03*
D25*
X39500000Y-100000000D03*
D26*
X39500000Y-102540000D03*
X39500000Y-105080000D03*
D27*
X54500000Y-121250000D03*
D28*
X52550000Y-115200000D03*
D27*
X40350000Y-115200000D03*
X40300000Y-127250000D03*
D28*
X52550000Y-127200000D03*
D17*
X107000000Y-57000000D03*
X117160000Y-57000000D03*
D11*
X123000000Y-73750000D03*
X123000000Y-83910000D03*
D29*
X60000000Y-113000000D03*
X62540000Y-113000000D03*
X65080000Y-113000000D03*
D30*
X72500000Y-135250000D03*
D31*
X75040000Y-135250000D03*
D29*
X60000000Y-133000000D03*
X62540000Y-133000000D03*
X65080000Y-133000000D03*
D11*
X118500000Y-73750000D03*
X118500000Y-83910000D03*
D27*
X54500000Y-138750000D03*
D28*
X52550000Y-132700000D03*
D27*
X40350000Y-132700000D03*
X40300000Y-144750000D03*
D28*
X52550000Y-144700000D03*
D20*
X42000000Y-94500000D03*
X39500000Y-94500000D03*
D22*
X142000000Y-61000000D03*
X142000000Y-67500000D03*
X137500000Y-61000000D03*
X137500000Y-67500000D03*
X142000000Y-78000000D03*
X142000000Y-84500000D03*
X137500000Y-78000000D03*
X137500000Y-84500000D03*
D20*
X42000000Y-62500000D03*
X39500000Y-62500000D03*
X42000000Y-110500000D03*
X39500000Y-110500000D03*
X42000000Y-78500000D03*
X39500000Y-78500000D03*
X107000000Y-41500000D03*
X109500000Y-41500000D03*
D12*
X30000000Y-40000000D03*
D13*
X30000000Y-45000000D03*
D12*
X30000000Y-100000000D03*
D13*
X30000000Y-105000000D03*
D12*
X30000000Y-84000000D03*
D13*
X30000000Y-89000000D03*
D12*
X30000000Y-134250000D03*
D13*
X30000000Y-139250000D03*
D32*
X77500000Y-126250000D03*
D17*
X77500000Y-123710000D03*
X69880000Y-123710000D03*
X69880000Y-126250000D03*
D32*
X77500000Y-145250000D03*
D17*
X77500000Y-142710000D03*
X69880000Y-142710000D03*
X69880000Y-145250000D03*
D30*
X72500000Y-116000000D03*
D33*
X75040000Y-116000000D03*
D25*
X39500000Y-84000000D03*
D26*
X39500000Y-86540000D03*
X39500000Y-89080000D03*
D25*
X39500000Y-68000000D03*
D26*
X39500000Y-70540000D03*
X39500000Y-73080000D03*
D17*
X56500000Y-67000000D03*
X46340000Y-67000000D03*
D32*
X54500000Y-78250000D03*
D17*
X54500000Y-75710000D03*
X46880000Y-75710000D03*
X46880000Y-78250000D03*
D34*
X125000000Y-65000000D03*
D31*
X122841000Y-65000000D03*
X120682000Y-65000000D03*
X118523000Y-65000000D03*
D11*
X60000000Y-52500000D03*
X60000000Y-62660000D03*
X60000000Y-78500000D03*
X60000000Y-68340000D03*
D17*
X107000000Y-48000000D03*
X117160000Y-48000000D03*
D35*
X97925000Y-109970000D03*
X93075000Y-109970000D03*
X92775000Y-113000000D03*
X98225000Y-113000000D03*
X104390000Y-113130000D03*
X104390000Y-110590000D03*
D36*
X104390000Y-108050000D03*
D35*
X104390000Y-105510000D03*
X104390000Y-102970000D03*
X104390000Y-100430000D03*
X104390000Y-97890000D03*
D36*
X104390000Y-95350000D03*
D35*
X104390000Y-92810000D03*
X104390000Y-90270000D03*
X104390000Y-87730000D03*
X104390000Y-85190000D03*
D36*
X104390000Y-82650000D03*
D35*
X104390000Y-80110000D03*
X104390000Y-77570000D03*
X104390000Y-75030000D03*
X104390000Y-72490000D03*
D36*
X104390000Y-69950000D03*
D35*
X104390000Y-67410000D03*
X104390000Y-64870000D03*
X86610000Y-64870000D03*
X86610000Y-67410000D03*
D36*
X86610000Y-69950000D03*
D35*
X86610000Y-72490000D03*
X86610000Y-75030000D03*
X86610000Y-77570000D03*
X86610000Y-80110000D03*
D36*
X86610000Y-82650000D03*
D35*
X86610000Y-85190000D03*
X86610000Y-87730000D03*
X86610000Y-90270000D03*
X86610000Y-92810000D03*
D36*
X86610000Y-95350000D03*
D35*
X86610000Y-97890000D03*
X86610000Y-100430000D03*
X86610000Y-102970000D03*
X86610000Y-105510000D03*
D36*
X86610000Y-108050000D03*
D35*
X86610000Y-110590000D03*
X86610000Y-113130000D03*
X98040000Y-65100000D03*
D37*
X95500000Y-65100000D03*
D35*
X92960000Y-65100000D03*
D38*
X70500000Y-99750000D03*
D11*
X70500000Y-107370000D03*
D20*
X119000000Y-41500000D03*
X116500000Y-41500000D03*
D39*
X73500000Y-58500000D03*
D40*
X73500000Y-61040000D03*
X73500000Y-63580000D03*
X73500000Y-66120000D03*
X73500000Y-68660000D03*
X73500000Y-71200000D03*
X73500000Y-73740000D03*
D41*
X83000000Y-48000000D03*
D27*
X83000000Y-27510000D03*
D11*
X132000000Y-84000000D03*
X132000000Y-73840000D03*
D10*
X141000000Y-120000000D03*
D42*
X98500000Y-55500000D03*
D11*
X98500000Y-47880000D03*
D43*
X45000000Y-25000000D03*
D44*
X43000000Y-25000000D03*
D45*
X36000000Y-25000000D03*
D44*
X38000000Y-25000000D03*
D46*
X51000000Y-25000000D03*
D47*
X53540000Y-25000000D03*
X56080000Y-25000000D03*
D48*
X61500000Y-34500000D03*
D31*
X61500000Y-37040000D03*
D22*
X67500000Y-88000000D03*
X74000000Y-88000000D03*
X67500000Y-83500000D03*
X74000000Y-83500000D03*
D11*
X54500000Y-32500000D03*
X54500000Y-42660000D03*
D49*
X49000000Y-39000000D03*
D19*
X38840000Y-39000000D03*
D11*
X114000000Y-84000000D03*
X114000000Y-73840000D03*
X127500000Y-73750000D03*
X127500000Y-83910000D03*
D50*
X123000000Y-115000000D03*
X123000000Y-112460000D03*
X123000000Y-109920000D03*
D17*
X57000000Y-50500000D03*
X46840000Y-50500000D03*
D20*
X47500000Y-55000000D03*
X50000000Y-55000000D03*
D32*
X55000000Y-62250000D03*
D17*
X55000000Y-59710000D03*
X47380000Y-59710000D03*
X47380000Y-62250000D03*
D18*
X26000000Y-62500000D03*
D19*
X36160000Y-62500000D03*
D18*
X26000000Y-110500000D03*
D19*
X36160000Y-110500000D03*
D12*
X30000000Y-52000000D03*
D13*
X30000000Y-57000000D03*
D49*
X49000000Y-43000000D03*
D19*
X38840000Y-43000000D03*
D32*
X54500000Y-110250000D03*
D17*
X54500000Y-107710000D03*
X46880000Y-107710000D03*
X46880000Y-110250000D03*
D32*
X54500000Y-94250000D03*
D17*
X54500000Y-91710000D03*
X46880000Y-91710000D03*
X46880000Y-94250000D03*
D11*
X132000000Y-69000000D03*
X132000000Y-58840000D03*
D51*
X139500000Y-104500000D03*
D52*
X139500000Y-101960000D03*
X139500000Y-99420000D03*
X139500000Y-96880000D03*
D53*
X123875500Y-28500000D03*
X122000500Y-28500000D03*
D54*
X131150000Y-32000000D03*
X129850000Y-32000000D03*
D53*
X116437500Y-23000000D03*
X114562500Y-23000000D03*
D54*
X131150000Y-35500000D03*
X129850000Y-35500000D03*
D55*
X105650000Y-28055000D03*
X105650000Y-29325000D03*
X105650000Y-30595000D03*
X105650000Y-31865000D03*
X105650000Y-33135000D03*
X105650000Y-34405000D03*
X105650000Y-35675000D03*
X105650000Y-36945000D03*
X96350000Y-36945000D03*
X96350000Y-35675000D03*
X96350000Y-34405000D03*
X96350000Y-33135000D03*
X96350000Y-31865000D03*
X96350000Y-30595000D03*
X96350000Y-29325000D03*
X96350000Y-28055000D03*
D53*
X123875500Y-35500000D03*
X122000500Y-35500000D03*
D56*
X48000000Y-32500000D03*
X32000000Y-32500000D03*
D54*
X131050000Y-28500000D03*
X129750000Y-28500000D03*
D57*
X68300000Y-28150000D03*
D58*
X66000000Y-21850000D03*
D57*
X66000000Y-28150000D03*
X63700000Y-28150000D03*
D59*
X117405000Y-30025000D03*
X116135000Y-30025000D03*
X114865000Y-30025000D03*
X113595000Y-30025000D03*
X113595000Y-34975000D03*
X114865000Y-34975000D03*
X116135000Y-34975000D03*
X117405000Y-34975000D03*
D53*
X116437500Y-26000000D03*
X114562500Y-26000000D03*
D60*
X98000000Y-44000000D03*
X99875000Y-44000000D03*
D53*
X100500500Y-23000000D03*
X102375500Y-23000000D03*
X123875500Y-32000000D03*
X122000500Y-32000000D03*
X108337500Y-22600000D03*
X106462500Y-22600000D03*
G36*
X96552919Y-64754225D02*
G01*
X96572595Y-64821237D01*
X96624938Y-64866592D01*
X96693491Y-64876449D01*
X96756513Y-64847667D01*
X96788295Y-64800761D01*
X96790095Y-64799888D01*
X96791750Y-64801010D01*
X96791886Y-64802387D01*
X96752181Y-64954817D01*
X96742143Y-65146354D01*
X96770825Y-65336006D01*
X96816083Y-65459014D01*
X96815743Y-65460985D01*
X96813866Y-65461676D01*
X96812385Y-65460533D01*
X96788086Y-65407088D01*
X96742624Y-65354445D01*
X96676203Y-65334821D01*
X96609718Y-65354224D01*
X96564228Y-65406545D01*
X96552954Y-65458163D01*
X96551607Y-65459642D01*
X96549653Y-65459215D01*
X96549000Y-65457736D01*
X96549000Y-64754788D01*
X96550000Y-64753056D01*
X96552000Y-64753056D01*
X96552919Y-64754225D01*
G37*
G36*
X94187615Y-64739467D02*
G01*
X94211914Y-64792912D01*
X94257376Y-64845555D01*
X94323797Y-64865179D01*
X94390282Y-64845776D01*
X94435772Y-64793455D01*
X94447046Y-64741837D01*
X94448393Y-64740358D01*
X94450347Y-64740785D01*
X94451000Y-64742264D01*
X94451000Y-65445212D01*
X94450000Y-65446944D01*
X94448000Y-65446944D01*
X94447081Y-65445775D01*
X94427405Y-65378763D01*
X94375062Y-65333408D01*
X94306509Y-65323551D01*
X94243487Y-65352333D01*
X94211705Y-65399239D01*
X94209905Y-65400112D01*
X94208250Y-65398990D01*
X94208114Y-65397613D01*
X94247819Y-65245183D01*
X94257857Y-65053646D01*
X94229175Y-64863994D01*
X94183917Y-64740986D01*
X94184257Y-64739015D01*
X94186134Y-64738324D01*
X94187615Y-64739467D01*
G37*
G36*
X128371143Y-43050000D02*
G01*
X128371143Y-43052000D01*
X128369974Y-43052919D01*
X128302962Y-43072595D01*
X128257607Y-43124938D01*
X128247750Y-43193491D01*
X128276533Y-43256517D01*
X128328600Y-43292028D01*
X128372164Y-43307456D01*
X128373463Y-43308977D01*
X128372795Y-43310862D01*
X128370978Y-43311273D01*
X128216882Y-43269982D01*
X128000000Y-43251007D01*
X127783118Y-43269982D01*
X127643008Y-43307525D01*
X127641076Y-43307007D01*
X127640558Y-43305075D01*
X127641869Y-43303692D01*
X127674575Y-43293002D01*
X127731926Y-43253639D01*
X127758775Y-43189796D01*
X127746846Y-43121574D01*
X127699914Y-43070618D01*
X127636103Y-43052927D01*
X127634701Y-43051501D01*
X127635235Y-43049574D01*
X127636637Y-43049000D01*
X128369411Y-43049000D01*
X128371143Y-43050000D01*
G37*
G36*
X97250804Y-36191816D02*
G01*
X97251616Y-36193644D01*
X97250535Y-36195215D01*
X97240601Y-36200277D01*
X97190031Y-36248037D01*
X97173383Y-36315263D01*
X97195738Y-36380863D01*
X97240564Y-36419705D01*
X97250391Y-36424711D01*
X97251480Y-36426388D01*
X97250572Y-36428170D01*
X97248674Y-36428322D01*
X97193715Y-36404025D01*
X97124880Y-36396000D01*
X95575114Y-36396000D01*
X95505781Y-36404144D01*
X95451185Y-36428395D01*
X95449196Y-36428184D01*
X95448384Y-36426356D01*
X95449465Y-36424785D01*
X95459399Y-36419723D01*
X95509969Y-36371963D01*
X95526617Y-36304737D01*
X95504262Y-36239137D01*
X95459436Y-36200295D01*
X95449609Y-36195289D01*
X95448520Y-36193612D01*
X95449428Y-36191830D01*
X95451326Y-36191678D01*
X95506285Y-36215975D01*
X95575120Y-36224000D01*
X97124886Y-36224000D01*
X97194219Y-36215856D01*
X97248815Y-36191605D01*
X97250804Y-36191816D01*
G37*
G36*
X106550804Y-36191816D02*
G01*
X106551616Y-36193644D01*
X106550535Y-36195215D01*
X106540601Y-36200277D01*
X106490031Y-36248037D01*
X106473383Y-36315263D01*
X106495738Y-36380863D01*
X106540564Y-36419705D01*
X106550391Y-36424711D01*
X106551480Y-36426388D01*
X106550572Y-36428170D01*
X106548674Y-36428322D01*
X106493715Y-36404025D01*
X106424880Y-36396000D01*
X104875114Y-36396000D01*
X104805781Y-36404144D01*
X104751185Y-36428395D01*
X104749196Y-36428184D01*
X104748384Y-36426356D01*
X104749465Y-36424785D01*
X104759399Y-36419723D01*
X104809969Y-36371963D01*
X104826617Y-36304737D01*
X104804262Y-36239137D01*
X104759436Y-36200295D01*
X104749609Y-36195289D01*
X104748520Y-36193612D01*
X104749428Y-36191830D01*
X104751326Y-36191678D01*
X104806285Y-36215975D01*
X104875120Y-36224000D01*
X106424886Y-36224000D01*
X106494219Y-36215856D01*
X106548815Y-36191605D01*
X106550804Y-36191816D01*
G37*
G36*
X130399267Y-34733301D02*
G01*
X130450946Y-34776489D01*
X130519661Y-34785120D01*
X130582291Y-34755156D01*
X130600348Y-34734318D01*
X130602238Y-34733664D01*
X130603749Y-34734974D01*
X130603821Y-34736018D01*
X130601000Y-34750199D01*
X130601000Y-36249801D01*
X130603978Y-36264774D01*
X130603335Y-36266668D01*
X130601373Y-36267058D01*
X130600733Y-36266699D01*
X130549054Y-36223511D01*
X130480339Y-36214880D01*
X130417709Y-36244844D01*
X130399652Y-36265682D01*
X130397762Y-36266336D01*
X130396251Y-36265026D01*
X130396179Y-36263982D01*
X130399000Y-36249801D01*
X130399000Y-34750199D01*
X130396022Y-34735226D01*
X130396665Y-34733332D01*
X130398627Y-34732942D01*
X130399267Y-34733301D01*
G37*
G36*
X114115215Y-34099465D02*
G01*
X114120277Y-34109399D01*
X114168037Y-34159969D01*
X114235263Y-34176617D01*
X114300863Y-34154262D01*
X114339705Y-34109436D01*
X114344711Y-34099609D01*
X114346388Y-34098520D01*
X114348170Y-34099428D01*
X114348322Y-34101326D01*
X114324025Y-34156285D01*
X114316000Y-34225120D01*
X114316000Y-35724886D01*
X114324144Y-35794219D01*
X114348395Y-35848815D01*
X114348184Y-35850804D01*
X114346356Y-35851616D01*
X114344785Y-35850535D01*
X114339723Y-35840601D01*
X114291963Y-35790031D01*
X114224737Y-35773383D01*
X114159137Y-35795738D01*
X114120295Y-35840564D01*
X114115289Y-35850391D01*
X114113612Y-35851480D01*
X114111830Y-35850572D01*
X114111678Y-35848674D01*
X114135975Y-35793715D01*
X114144000Y-35724880D01*
X114144000Y-34225114D01*
X114135856Y-34155781D01*
X114111605Y-34101185D01*
X114111816Y-34099196D01*
X114113644Y-34098384D01*
X114115215Y-34099465D01*
G37*
G36*
X115385215Y-34099465D02*
G01*
X115390277Y-34109399D01*
X115438037Y-34159969D01*
X115505263Y-34176617D01*
X115570863Y-34154262D01*
X115609705Y-34109436D01*
X115614711Y-34099609D01*
X115616388Y-34098520D01*
X115618170Y-34099428D01*
X115618322Y-34101326D01*
X115594025Y-34156285D01*
X115586000Y-34225120D01*
X115586000Y-35724886D01*
X115594144Y-35794219D01*
X115618395Y-35848815D01*
X115618184Y-35850804D01*
X115616356Y-35851616D01*
X115614785Y-35850535D01*
X115609723Y-35840601D01*
X115561963Y-35790031D01*
X115494737Y-35773383D01*
X115429137Y-35795738D01*
X115390295Y-35840564D01*
X115385289Y-35850391D01*
X115383612Y-35851480D01*
X115381830Y-35850572D01*
X115381678Y-35848674D01*
X115405975Y-35793715D01*
X115414000Y-35724880D01*
X115414000Y-34225114D01*
X115405856Y-34155781D01*
X115381605Y-34101185D01*
X115381816Y-34099196D01*
X115383644Y-34098384D01*
X115385215Y-34099465D01*
G37*
G36*
X116655215Y-34099465D02*
G01*
X116660277Y-34109399D01*
X116708037Y-34159969D01*
X116775263Y-34176617D01*
X116840863Y-34154262D01*
X116879705Y-34109436D01*
X116884711Y-34099609D01*
X116886388Y-34098520D01*
X116888170Y-34099428D01*
X116888322Y-34101326D01*
X116864025Y-34156285D01*
X116856000Y-34225120D01*
X116856000Y-35724886D01*
X116864144Y-35794219D01*
X116888395Y-35848815D01*
X116888184Y-35850804D01*
X116886356Y-35851616D01*
X116884785Y-35850535D01*
X116879723Y-35840601D01*
X116831963Y-35790031D01*
X116764737Y-35773383D01*
X116699137Y-35795738D01*
X116660295Y-35840564D01*
X116655289Y-35850391D01*
X116653612Y-35851480D01*
X116651830Y-35850572D01*
X116651678Y-35848674D01*
X116675975Y-35793715D01*
X116684000Y-35724880D01*
X116684000Y-34225114D01*
X116675856Y-34155781D01*
X116651605Y-34101185D01*
X116651816Y-34099196D01*
X116653644Y-34098384D01*
X116655215Y-34099465D01*
G37*
G36*
X106550804Y-34921816D02*
G01*
X106551616Y-34923644D01*
X106550535Y-34925215D01*
X106540601Y-34930277D01*
X106490031Y-34978037D01*
X106473383Y-35045263D01*
X106495738Y-35110863D01*
X106540564Y-35149705D01*
X106550391Y-35154711D01*
X106551480Y-35156388D01*
X106550572Y-35158170D01*
X106548674Y-35158322D01*
X106493715Y-35134025D01*
X106424880Y-35126000D01*
X104875114Y-35126000D01*
X104805781Y-35134144D01*
X104751185Y-35158395D01*
X104749196Y-35158184D01*
X104748384Y-35156356D01*
X104749465Y-35154785D01*
X104759399Y-35149723D01*
X104809969Y-35101963D01*
X104826617Y-35034737D01*
X104804262Y-34969137D01*
X104759436Y-34930295D01*
X104749609Y-34925289D01*
X104748520Y-34923612D01*
X104749428Y-34921830D01*
X104751326Y-34921678D01*
X104806285Y-34945975D01*
X104875120Y-34954000D01*
X106424886Y-34954000D01*
X106494219Y-34945856D01*
X106548815Y-34921605D01*
X106550804Y-34921816D01*
G37*
G36*
X97250804Y-34921816D02*
G01*
X97251616Y-34923644D01*
X97250535Y-34925215D01*
X97240601Y-34930277D01*
X97190031Y-34978037D01*
X97173383Y-35045263D01*
X97195738Y-35110863D01*
X97240564Y-35149705D01*
X97250391Y-35154711D01*
X97251480Y-35156388D01*
X97250572Y-35158170D01*
X97248674Y-35158322D01*
X97193715Y-35134025D01*
X97124880Y-35126000D01*
X95575114Y-35126000D01*
X95505781Y-35134144D01*
X95451185Y-35158395D01*
X95449196Y-35158184D01*
X95448384Y-35156356D01*
X95449465Y-35154785D01*
X95459399Y-35149723D01*
X95509969Y-35101963D01*
X95526617Y-35034737D01*
X95504262Y-34969137D01*
X95459436Y-34930295D01*
X95449609Y-34925289D01*
X95448520Y-34923612D01*
X95449428Y-34921830D01*
X95451326Y-34921678D01*
X95506285Y-34945975D01*
X95575120Y-34954000D01*
X97124886Y-34954000D01*
X97194219Y-34945856D01*
X97248815Y-34921605D01*
X97250804Y-34921816D01*
G37*
G36*
X97250804Y-33651816D02*
G01*
X97251616Y-33653644D01*
X97250535Y-33655215D01*
X97240601Y-33660277D01*
X97190031Y-33708037D01*
X97173383Y-33775263D01*
X97195738Y-33840863D01*
X97240564Y-33879705D01*
X97250391Y-33884711D01*
X97251480Y-33886388D01*
X97250572Y-33888170D01*
X97248674Y-33888322D01*
X97193715Y-33864025D01*
X97124880Y-33856000D01*
X95575114Y-33856000D01*
X95505781Y-33864144D01*
X95451185Y-33888395D01*
X95449196Y-33888184D01*
X95448384Y-33886356D01*
X95449465Y-33884785D01*
X95459399Y-33879723D01*
X95509969Y-33831963D01*
X95526617Y-33764737D01*
X95504262Y-33699137D01*
X95459436Y-33660295D01*
X95449609Y-33655289D01*
X95448520Y-33653612D01*
X95449428Y-33651830D01*
X95451326Y-33651678D01*
X95506285Y-33675975D01*
X95575120Y-33684000D01*
X97124886Y-33684000D01*
X97194219Y-33675856D01*
X97248815Y-33651605D01*
X97250804Y-33651816D01*
G37*
G36*
X106550804Y-33651816D02*
G01*
X106551616Y-33653644D01*
X106550535Y-33655215D01*
X106540601Y-33660277D01*
X106490031Y-33708037D01*
X106473383Y-33775263D01*
X106495738Y-33840863D01*
X106540564Y-33879705D01*
X106550391Y-33884711D01*
X106551480Y-33886388D01*
X106550572Y-33888170D01*
X106548674Y-33888322D01*
X106493715Y-33864025D01*
X106424880Y-33856000D01*
X104875114Y-33856000D01*
X104805781Y-33864144D01*
X104751185Y-33888395D01*
X104749196Y-33888184D01*
X104748384Y-33886356D01*
X104749465Y-33884785D01*
X104759399Y-33879723D01*
X104809969Y-33831963D01*
X104826617Y-33764737D01*
X104804262Y-33699137D01*
X104759436Y-33660295D01*
X104749609Y-33655289D01*
X104748520Y-33653612D01*
X104749428Y-33651830D01*
X104751326Y-33651678D01*
X104806285Y-33675975D01*
X104875120Y-33684000D01*
X106424886Y-33684000D01*
X106494219Y-33675856D01*
X106548815Y-33651605D01*
X106550804Y-33651816D01*
G37*
G36*
X130399267Y-31233301D02*
G01*
X130450946Y-31276489D01*
X130519661Y-31285120D01*
X130582291Y-31255156D01*
X130600348Y-31234318D01*
X130602238Y-31233664D01*
X130603749Y-31234974D01*
X130603821Y-31236018D01*
X130601000Y-31250199D01*
X130601000Y-32749801D01*
X130603978Y-32764774D01*
X130603335Y-32766668D01*
X130601373Y-32767058D01*
X130600733Y-32766699D01*
X130549054Y-32723511D01*
X130480339Y-32714880D01*
X130417709Y-32744844D01*
X130399652Y-32765682D01*
X130397762Y-32766336D01*
X130396251Y-32765026D01*
X130396179Y-32763982D01*
X130399000Y-32749801D01*
X130399000Y-31250199D01*
X130396022Y-31235226D01*
X130396665Y-31233332D01*
X130398627Y-31232942D01*
X130399267Y-31233301D01*
G37*
G36*
X97250804Y-32381816D02*
G01*
X97251616Y-32383644D01*
X97250535Y-32385215D01*
X97240601Y-32390277D01*
X97190031Y-32438037D01*
X97173383Y-32505263D01*
X97195738Y-32570863D01*
X97240564Y-32609705D01*
X97250391Y-32614711D01*
X97251480Y-32616388D01*
X97250572Y-32618170D01*
X97248674Y-32618322D01*
X97193715Y-32594025D01*
X97124880Y-32586000D01*
X95575114Y-32586000D01*
X95505781Y-32594144D01*
X95451185Y-32618395D01*
X95449196Y-32618184D01*
X95448384Y-32616356D01*
X95449465Y-32614785D01*
X95459399Y-32609723D01*
X95509969Y-32561963D01*
X95526617Y-32494737D01*
X95504262Y-32429137D01*
X95459436Y-32390295D01*
X95449609Y-32385289D01*
X95448520Y-32383612D01*
X95449428Y-32381830D01*
X95451326Y-32381678D01*
X95506285Y-32405975D01*
X95575120Y-32414000D01*
X97124886Y-32414000D01*
X97194219Y-32405856D01*
X97248815Y-32381605D01*
X97250804Y-32381816D01*
G37*
G36*
X106550804Y-32381816D02*
G01*
X106551616Y-32383644D01*
X106550535Y-32385215D01*
X106540601Y-32390277D01*
X106490031Y-32438037D01*
X106473383Y-32505263D01*
X106495738Y-32570863D01*
X106540564Y-32609705D01*
X106550391Y-32614711D01*
X106551480Y-32616388D01*
X106550572Y-32618170D01*
X106548674Y-32618322D01*
X106493715Y-32594025D01*
X106424880Y-32586000D01*
X104875114Y-32586000D01*
X104805781Y-32594144D01*
X104751185Y-32618395D01*
X104749196Y-32618184D01*
X104748384Y-32616356D01*
X104749465Y-32614785D01*
X104759399Y-32609723D01*
X104809969Y-32561963D01*
X104826617Y-32494737D01*
X104804262Y-32429137D01*
X104759436Y-32390295D01*
X104749609Y-32385289D01*
X104748520Y-32383612D01*
X104749428Y-32381830D01*
X104751326Y-32381678D01*
X104806285Y-32405975D01*
X104875120Y-32414000D01*
X106424886Y-32414000D01*
X106494219Y-32405856D01*
X106548815Y-32381605D01*
X106550804Y-32381816D01*
G37*
G36*
X97250804Y-31111816D02*
G01*
X97251616Y-31113644D01*
X97250535Y-31115215D01*
X97240601Y-31120277D01*
X97190031Y-31168037D01*
X97173383Y-31235263D01*
X97195738Y-31300863D01*
X97240564Y-31339705D01*
X97250391Y-31344711D01*
X97251480Y-31346388D01*
X97250572Y-31348170D01*
X97248674Y-31348322D01*
X97193715Y-31324025D01*
X97124880Y-31316000D01*
X95575114Y-31316000D01*
X95505781Y-31324144D01*
X95451185Y-31348395D01*
X95449196Y-31348184D01*
X95448384Y-31346356D01*
X95449465Y-31344785D01*
X95459399Y-31339723D01*
X95509969Y-31291963D01*
X95526617Y-31224737D01*
X95504262Y-31159137D01*
X95459436Y-31120295D01*
X95449609Y-31115289D01*
X95448520Y-31113612D01*
X95449428Y-31111830D01*
X95451326Y-31111678D01*
X95506285Y-31135975D01*
X95575120Y-31144000D01*
X97124886Y-31144000D01*
X97194219Y-31135856D01*
X97248815Y-31111605D01*
X97250804Y-31111816D01*
G37*
G36*
X106550804Y-31111816D02*
G01*
X106551616Y-31113644D01*
X106550535Y-31115215D01*
X106540601Y-31120277D01*
X106490031Y-31168037D01*
X106473383Y-31235263D01*
X106495738Y-31300863D01*
X106540564Y-31339705D01*
X106550391Y-31344711D01*
X106551480Y-31346388D01*
X106550572Y-31348170D01*
X106548674Y-31348322D01*
X106493715Y-31324025D01*
X106424880Y-31316000D01*
X104875114Y-31316000D01*
X104805781Y-31324144D01*
X104751185Y-31348395D01*
X104749196Y-31348184D01*
X104748384Y-31346356D01*
X104749465Y-31344785D01*
X104759399Y-31339723D01*
X104809969Y-31291963D01*
X104826617Y-31224737D01*
X104804262Y-31159137D01*
X104759436Y-31120295D01*
X104749609Y-31115289D01*
X104748520Y-31113612D01*
X104749428Y-31111830D01*
X104751326Y-31111678D01*
X104806285Y-31135975D01*
X104875120Y-31144000D01*
X106424886Y-31144000D01*
X106494219Y-31135856D01*
X106548815Y-31111605D01*
X106550804Y-31111816D01*
G37*
G36*
X115385215Y-29149465D02*
G01*
X115390277Y-29159399D01*
X115438037Y-29209969D01*
X115505263Y-29226617D01*
X115570863Y-29204262D01*
X115609705Y-29159436D01*
X115614711Y-29149609D01*
X115616388Y-29148520D01*
X115618170Y-29149428D01*
X115618322Y-29151326D01*
X115594025Y-29206285D01*
X115586000Y-29275120D01*
X115586000Y-30774886D01*
X115594144Y-30844219D01*
X115618395Y-30898815D01*
X115618184Y-30900804D01*
X115616356Y-30901616D01*
X115614785Y-30900535D01*
X115609723Y-30890601D01*
X115561963Y-30840031D01*
X115494737Y-30823383D01*
X115429137Y-30845738D01*
X115390295Y-30890564D01*
X115385289Y-30900391D01*
X115383612Y-30901480D01*
X115381830Y-30900572D01*
X115381678Y-30898674D01*
X115405975Y-30843715D01*
X115414000Y-30774880D01*
X115414000Y-29275114D01*
X115405856Y-29205781D01*
X115381605Y-29151185D01*
X115381816Y-29149196D01*
X115383644Y-29148384D01*
X115385215Y-29149465D01*
G37*
G36*
X114115215Y-29149465D02*
G01*
X114120277Y-29159399D01*
X114168037Y-29209969D01*
X114235263Y-29226617D01*
X114300863Y-29204262D01*
X114339705Y-29159436D01*
X114344711Y-29149609D01*
X114346388Y-29148520D01*
X114348170Y-29149428D01*
X114348322Y-29151326D01*
X114324025Y-29206285D01*
X114316000Y-29275120D01*
X114316000Y-30774886D01*
X114324144Y-30844219D01*
X114348395Y-30898815D01*
X114348184Y-30900804D01*
X114346356Y-30901616D01*
X114344785Y-30900535D01*
X114339723Y-30890601D01*
X114291963Y-30840031D01*
X114224737Y-30823383D01*
X114159137Y-30845738D01*
X114120295Y-30890564D01*
X114115289Y-30900391D01*
X114113612Y-30901480D01*
X114111830Y-30900572D01*
X114111678Y-30898674D01*
X114135975Y-30843715D01*
X114144000Y-30774880D01*
X114144000Y-29275114D01*
X114135856Y-29205781D01*
X114111605Y-29151185D01*
X114111816Y-29149196D01*
X114113644Y-29148384D01*
X114115215Y-29149465D01*
G37*
G36*
X116655215Y-29149465D02*
G01*
X116660277Y-29159399D01*
X116708037Y-29209969D01*
X116775263Y-29226617D01*
X116840863Y-29204262D01*
X116879705Y-29159436D01*
X116884711Y-29149609D01*
X116886388Y-29148520D01*
X116888170Y-29149428D01*
X116888322Y-29151326D01*
X116864025Y-29206285D01*
X116856000Y-29275120D01*
X116856000Y-30774886D01*
X116864144Y-30844219D01*
X116888395Y-30898815D01*
X116888184Y-30900804D01*
X116886356Y-30901616D01*
X116884785Y-30900535D01*
X116879723Y-30890601D01*
X116831963Y-30840031D01*
X116764737Y-30823383D01*
X116699137Y-30845738D01*
X116660295Y-30890564D01*
X116655289Y-30900391D01*
X116653612Y-30901480D01*
X116651830Y-30900572D01*
X116651678Y-30898674D01*
X116675975Y-30843715D01*
X116684000Y-30774880D01*
X116684000Y-29275114D01*
X116675856Y-29205781D01*
X116651605Y-29151185D01*
X116651816Y-29149196D01*
X116653644Y-29148384D01*
X116655215Y-29149465D01*
G37*
G36*
X106550804Y-29841816D02*
G01*
X106551616Y-29843644D01*
X106550535Y-29845215D01*
X106540601Y-29850277D01*
X106490031Y-29898037D01*
X106473383Y-29965263D01*
X106495738Y-30030863D01*
X106540564Y-30069705D01*
X106550391Y-30074711D01*
X106551480Y-30076388D01*
X106550572Y-30078170D01*
X106548674Y-30078322D01*
X106493715Y-30054025D01*
X106424880Y-30046000D01*
X104875114Y-30046000D01*
X104805781Y-30054144D01*
X104751185Y-30078395D01*
X104749196Y-30078184D01*
X104748384Y-30076356D01*
X104749465Y-30074785D01*
X104759399Y-30069723D01*
X104809969Y-30021963D01*
X104826617Y-29954737D01*
X104804262Y-29889137D01*
X104759436Y-29850295D01*
X104749609Y-29845289D01*
X104748520Y-29843612D01*
X104749428Y-29841830D01*
X104751326Y-29841678D01*
X104806285Y-29865975D01*
X104875120Y-29874000D01*
X106424886Y-29874000D01*
X106494219Y-29865856D01*
X106548815Y-29841605D01*
X106550804Y-29841816D01*
G37*
G36*
X97250804Y-29841816D02*
G01*
X97251616Y-29843644D01*
X97250535Y-29845215D01*
X97240601Y-29850277D01*
X97190031Y-29898037D01*
X97173383Y-29965263D01*
X97195738Y-30030863D01*
X97240564Y-30069705D01*
X97250391Y-30074711D01*
X97251480Y-30076388D01*
X97250572Y-30078170D01*
X97248674Y-30078322D01*
X97193715Y-30054025D01*
X97124880Y-30046000D01*
X95575114Y-30046000D01*
X95505781Y-30054144D01*
X95451185Y-30078395D01*
X95449196Y-30078184D01*
X95448384Y-30076356D01*
X95449465Y-30074785D01*
X95459399Y-30069723D01*
X95509969Y-30021963D01*
X95526617Y-29954737D01*
X95504262Y-29889137D01*
X95459436Y-29850295D01*
X95449609Y-29845289D01*
X95448520Y-29843612D01*
X95449428Y-29841830D01*
X95451326Y-29841678D01*
X95506285Y-29865975D01*
X95575120Y-29874000D01*
X97124886Y-29874000D01*
X97194219Y-29865856D01*
X97248815Y-29841605D01*
X97250804Y-29841816D01*
G37*
G36*
X130299267Y-27733301D02*
G01*
X130350946Y-27776489D01*
X130419661Y-27785120D01*
X130482291Y-27755156D01*
X130500348Y-27734318D01*
X130502238Y-27733664D01*
X130503749Y-27734974D01*
X130503821Y-27736018D01*
X130501000Y-27750199D01*
X130501000Y-29249801D01*
X130503978Y-29264774D01*
X130503335Y-29266668D01*
X130501373Y-29267058D01*
X130500733Y-29266699D01*
X130449054Y-29223511D01*
X130380339Y-29214880D01*
X130317709Y-29244844D01*
X130299652Y-29265682D01*
X130297762Y-29266336D01*
X130296251Y-29265026D01*
X130296179Y-29263982D01*
X130299000Y-29249801D01*
X130299000Y-27750199D01*
X130296022Y-27735226D01*
X130296665Y-27733332D01*
X130298627Y-27732942D01*
X130299267Y-27733301D01*
G37*
G36*
X97250804Y-28571816D02*
G01*
X97251616Y-28573644D01*
X97250535Y-28575215D01*
X97240601Y-28580277D01*
X97190031Y-28628037D01*
X97173383Y-28695263D01*
X97195738Y-28760863D01*
X97240564Y-28799705D01*
X97250391Y-28804711D01*
X97251480Y-28806388D01*
X97250572Y-28808170D01*
X97248674Y-28808322D01*
X97193715Y-28784025D01*
X97124880Y-28776000D01*
X95575114Y-28776000D01*
X95505781Y-28784144D01*
X95451185Y-28808395D01*
X95449196Y-28808184D01*
X95448384Y-28806356D01*
X95449465Y-28804785D01*
X95459399Y-28799723D01*
X95509969Y-28751963D01*
X95526617Y-28684737D01*
X95504262Y-28619137D01*
X95459436Y-28580295D01*
X95449609Y-28575289D01*
X95448520Y-28573612D01*
X95449428Y-28571830D01*
X95451326Y-28571678D01*
X95506285Y-28595975D01*
X95575120Y-28604000D01*
X97124886Y-28604000D01*
X97194219Y-28595856D01*
X97248815Y-28571605D01*
X97250804Y-28571816D01*
G37*
G36*
X106550804Y-28571816D02*
G01*
X106551616Y-28573644D01*
X106550535Y-28575215D01*
X106540601Y-28580277D01*
X106490031Y-28628037D01*
X106473383Y-28695263D01*
X106495738Y-28760863D01*
X106540564Y-28799705D01*
X106550391Y-28804711D01*
X106551480Y-28806388D01*
X106550572Y-28808170D01*
X106548674Y-28808322D01*
X106493715Y-28784025D01*
X106424880Y-28776000D01*
X104875114Y-28776000D01*
X104805781Y-28784144D01*
X104751185Y-28808395D01*
X104749196Y-28808184D01*
X104748384Y-28806356D01*
X104749465Y-28804785D01*
X104759399Y-28799723D01*
X104809969Y-28751963D01*
X104826617Y-28684737D01*
X104804262Y-28619137D01*
X104759436Y-28580295D01*
X104749609Y-28575289D01*
X104748520Y-28573612D01*
X104749428Y-28571830D01*
X104751326Y-28571678D01*
X104806285Y-28595975D01*
X104875120Y-28604000D01*
X106424886Y-28604000D01*
X106494219Y-28595856D01*
X106548815Y-28571605D01*
X106550804Y-28571816D01*
G37*
M02*
