M48
; DRILL file {KiCad (5.1.4)-1} date 9/2/2022 09:31:37
; FORMAT={-:-/ absolute / inch / decimal}
; #@! TF.CreationDate,2022-02-09T09:31:37-03:00
; #@! TF.GenerationSoftware,Kicad,Pcbnew,(5.1.4)-1
; #@! TF.FileFunction,Plated,1,2,PTH
FMAT,2
INCH
T1C0.0157
T2C0.0295
T3C0.0315
T4C0.0354
T5C0.0394
T6C0.0402
T7C0.0433
T8C0.0472
T9C0.0512
T10C0.0591
T11C0.0787
T12C0.1260
%
G90
G05
T1
X6.2428Y-3.4583
X6.4396Y-3.6511
X6.4651Y-3.4603
X6.774Y-3.3063
X6.7934Y-3.3399
X7.0696Y-3.1047
T2
X5.5512Y-4.3882
X5.5512Y-4.4382
X5.5512Y-4.4882
X5.374Y-5.215
X5.374Y-5.265
X5.374Y-5.315
X6.624Y-2.1654
X6.624Y-2.2154
X6.624Y-2.2654
T3
X5.4724Y-3.3205
X5.4724Y-3.7205
X6.3142Y-3.3858
X6.6142Y-3.3858
X5.8071Y-3.3268
X5.9055Y-3.3268
X6.1614Y-2.4409
X6.5614Y-2.4409
X6.6535Y-3.5433
X6.752Y-3.5433
X6.0433Y-3.3268
X6.1417Y-3.3268
X4.9346Y-4.0748
X5.3346Y-4.0748
X5.0394Y-2.4606
X5.1181Y-2.4606
X5.9646Y-4.0291
X5.9646Y-4.4291
X5.8071Y-3.2087
X5.9055Y-3.2087
X4.9756Y-2.8134
X4.9756Y-2.9134
X5.2756Y-2.8134
X5.2756Y-2.9134
X4.9346Y-3.937
X5.3346Y-3.937
X4.9346Y-4.2126
X5.3346Y-4.2126
X6.1024Y-3.4843
X6.1024Y-3.8843
X5.689Y-5.2559
X5.689Y-5.3559
X5.989Y-5.2559
X5.989Y-5.3559
X4.9756Y-3.0496
X4.9756Y-3.1496
X5.2756Y-3.0496
X5.2756Y-3.1496
X6.1024Y-4.0291
X6.1024Y-4.4291
X4.5213Y-2.3031
X4.9213Y-2.3031
X5.1969Y-4.4882
X5.2953Y-4.4882
X5.6102Y-2.789
X5.6102Y-3.189
X6.6535Y-3.7205
X6.752Y-3.7205
X4.9756Y-3.522
X4.9756Y-3.622
X5.2756Y-3.522
X5.2756Y-3.622
X5.9646Y-3.4843
X5.9646Y-3.8843
X4.9016Y-4.4882
X5.0Y-4.4882
X5.4921Y-5.4331
X5.4921Y-5.8331
X4.9346Y-3.7992
X5.3346Y-3.7992
X6.3142Y-3.248
X6.6142Y-3.248
X5.8268Y-3.4843
X5.8268Y-3.8843
X5.1969Y-4.3701
X5.2953Y-4.3701
X6.0433Y-3.2087
X6.1417Y-3.2087
X5.689Y-5.0197
X5.689Y-5.1197
X5.989Y-5.0197
X5.989Y-5.1197
X5.6102Y-3.3205
X5.6102Y-3.7205
X4.9016Y-4.3701
X5.0Y-4.3701
X4.9756Y-3.2858
X4.9756Y-3.3858
X5.2756Y-3.2858
X5.2756Y-3.3858
X5.8268Y-4.0291
X5.8268Y-4.4291
X7.0079Y-3.3402
X7.0079Y-3.7402
X5.4724Y-2.789
X5.4724Y-3.189
X7.1457Y-3.3402
X7.1457Y-3.7402
X4.8031Y-2.4606
X4.8819Y-2.4606
X5.4921Y-4.685
X5.4921Y-5.085
T4
X5.9449Y-4.6654
X5.9949Y-4.6654
X6.0449Y-4.6654
X6.0949Y-4.6654
X5.6693Y-5.5906
X5.7693Y-5.5906
X5.9646Y-5.5906
X6.0646Y-5.5906
X4.5374Y-2.4705
X4.6374Y-2.4705
T5
X5.8268Y-2.874
X6.126Y-2.874
X5.0807Y-4.6831
X5.0807Y-5.1555
X5.0807Y-5.3327
X5.0807Y-5.8051
X7.7953Y-3.9961
X7.7953Y-4.0961
X7.7953Y-4.1961
X7.7953Y-4.2961
X7.7953Y-4.3961
X7.7953Y-4.4961
X7.7953Y-4.5961
X7.4606Y-3.2087
X7.4606Y-3.7795
X7.5591Y-3.7795
X7.6575Y-3.2087
X7.6575Y-3.7795
T6
X6.5398Y-3.9319
X6.5398Y-4.0319
X6.5398Y-4.1319
X6.5398Y-4.2319
X6.5398Y-4.3319
X6.5398Y-4.4319
X6.5398Y-4.5319
X6.5398Y-4.6319
X6.5398Y-4.7319
X6.5398Y-4.8319
X6.5398Y-4.9319
X6.5398Y-5.0319
X6.5398Y-5.1319
X6.5398Y-5.2319
X6.5398Y-5.3319
X6.5398Y-5.4319
X6.5398Y-5.5319
X6.5398Y-5.6319
X6.5398Y-5.7319
X6.5398Y-5.8319
X6.7898Y-3.9409
X6.8898Y-3.9409
X6.9898Y-3.9409
X7.2398Y-3.9319
X7.2398Y-4.0319
X7.2398Y-4.1319
X7.2398Y-4.2319
X7.2398Y-4.3319
X7.2398Y-4.4319
X7.2398Y-4.5319
X7.2398Y-4.6319
X7.2398Y-4.7319
X7.2398Y-4.8319
X7.2398Y-4.9319
X7.2398Y-5.0319
X7.2398Y-5.1319
X7.2398Y-5.2319
X7.2398Y-5.3319
X7.2398Y-5.4319
X7.2398Y-5.5319
X7.2398Y-5.6319
X7.2398Y-5.7319
X7.2398Y-5.8319
T7
X6.1811Y-2.0866
X6.1811Y-2.2638
X6.437Y-2.0866
X6.437Y-2.2638
X5.3346Y-4.685
X5.3346Y-5.085
X5.2756Y-2.3622
X5.2756Y-2.4622
X5.2756Y-2.5622
X5.2102Y-2.2146
X5.6102Y-2.2146
X4.685Y-3.2874
X4.685Y-3.3874
X4.685Y-3.4874
X5.3346Y-5.4331
X5.3346Y-5.8331
X4.5276Y-4.0157
X4.5276Y-4.4157
X4.5276Y-2.7362
X4.5276Y-3.1362
X4.685Y-4.1535
X4.685Y-4.2535
X4.685Y-4.3535
X4.5276Y-3.2677
X4.5276Y-3.6677
X5.2102Y-2.0669
X5.6102Y-2.0669
X4.685Y-3.7205
X4.685Y-3.8205
X4.685Y-3.9205
X4.685Y-2.8543
X4.685Y-2.9543
X4.685Y-3.0543
X7.6181Y-5.1969
X7.6181Y-5.4528
X7.7953Y-5.1969
X7.7953Y-5.4528
X4.5276Y-3.7992
X4.5276Y-4.1992
X7.6181Y-4.8031
X7.6181Y-5.0591
X7.7953Y-4.8031
X7.7953Y-5.0591
T8
X7.7362Y-2.6134
X7.7362Y-2.7134
X7.7362Y-2.8134
X7.7362Y-2.9134
T9
X4.252Y-3.7992
X4.252Y-3.9961
X4.2323Y-4.7638
X4.2323Y-4.9606
X4.252Y-4.2323
X4.252Y-4.4291
X4.2323Y-2.4606
X4.2323Y-2.6575
X4.2323Y-5.1969
X4.2323Y-5.3937
X4.252Y-3.3661
X4.252Y-3.563
X4.252Y-2.9331
X4.252Y-3.1299
X4.5984Y-5.1575
X4.6004Y-4.6831
X5.1575Y-4.9213
X4.5984Y-5.8071
X4.6004Y-5.3327
X5.1575Y-5.5709
T10
X7.0669Y-2.1063
X7.0669Y-2.913
T12
X4.0945Y-2.126
X7.7165Y-2.126
X4.0945Y-5.748
X7.7165Y-5.748
T11
G00X7.3386Y-3.4941
M15
G01X7.3386Y-3.4744
M16
G05
G00X7.7795Y-3.4941
M15
G01X7.7795Y-3.4744
M16
G05
T0
M30
