G04 #@! TF.GenerationSoftware,KiCad,Pcbnew,(6.0.4)*
G04 #@! TF.CreationDate,2022-05-04T19:00:33-03:00*
G04 #@! TF.ProjectId,P_Inyectores_Rpi_pico,505f496e-7965-4637-946f-7265735f5270,rev?*
G04 #@! TF.SameCoordinates,Original*
G04 #@! TF.FileFunction,Legend,Bot*
G04 #@! TF.FilePolarity,Positive*
%FSLAX46Y46*%
G04 Gerber Fmt 4.6, Leading zero omitted, Abs format (unit mm)*
G04 Created by KiCad (PCBNEW (6.0.4)) date 2022-05-04 19:00:33*
%MOMM*%
%LPD*%
G01*
G04 APERTURE LIST*
%ADD10C,0.300000*%
%ADD11C,0.150000*%
%ADD12C,0.120000*%
%ADD13C,0.010000*%
G04 APERTURE END LIST*
D10*
X110678571Y-46357142D02*
X110678571Y-47357142D01*
X112178571Y-46357142D01*
X112178571Y-47357142D01*
X111178571Y-48571428D02*
X112178571Y-48571428D01*
X111178571Y-47928571D02*
X111964285Y-47928571D01*
X112107142Y-48000000D01*
X112178571Y-48142857D01*
X112178571Y-48357142D01*
X112107142Y-48500000D01*
X112035714Y-48571428D01*
X112178571Y-49500000D02*
X112107142Y-49357142D01*
X111964285Y-49285714D01*
X110678571Y-49285714D01*
X112178571Y-50071428D02*
X111178571Y-50071428D01*
X110678571Y-50071428D02*
X110750000Y-50000000D01*
X110821428Y-50071428D01*
X110750000Y-50142857D01*
X110678571Y-50071428D01*
X110821428Y-50071428D01*
X112178571Y-51428571D02*
X111392857Y-51428571D01*
X111250000Y-51357142D01*
X111178571Y-51214285D01*
X111178571Y-50928571D01*
X111250000Y-50785714D01*
X112107142Y-51428571D02*
X112178571Y-51285714D01*
X112178571Y-50928571D01*
X112107142Y-50785714D01*
X111964285Y-50714285D01*
X111821428Y-50714285D01*
X111678571Y-50785714D01*
X111607142Y-50928571D01*
X111607142Y-51285714D01*
X111535714Y-51428571D01*
X111178571Y-52142857D02*
X112178571Y-52142857D01*
X111321428Y-52142857D02*
X111250000Y-52214285D01*
X111178571Y-52357142D01*
X111178571Y-52571428D01*
X111250000Y-52714285D01*
X111392857Y-52785714D01*
X112178571Y-52785714D01*
X112178571Y-53500000D02*
X111178571Y-53500000D01*
X110678571Y-53500000D02*
X110750000Y-53428571D01*
X110821428Y-53500000D01*
X110750000Y-53571428D01*
X110678571Y-53500000D01*
X110821428Y-53500000D01*
X112107142Y-54285714D02*
X112178571Y-54285714D01*
X112321428Y-54214285D01*
X112392857Y-54142857D01*
X111750000Y-56000000D02*
X111750000Y-56714285D01*
X112178571Y-55857142D02*
X110678571Y-56357142D01*
X112178571Y-56857142D01*
X111178571Y-58000000D02*
X112392857Y-58000000D01*
X112535714Y-57928571D01*
X112607142Y-57857142D01*
X112678571Y-57714285D01*
X112678571Y-57500000D01*
X112607142Y-57357142D01*
X112107142Y-58000000D02*
X112178571Y-57857142D01*
X112178571Y-57571428D01*
X112107142Y-57428571D01*
X112035714Y-57357142D01*
X111892857Y-57285714D01*
X111464285Y-57285714D01*
X111321428Y-57357142D01*
X111250000Y-57428571D01*
X111178571Y-57571428D01*
X111178571Y-57857142D01*
X111250000Y-58000000D01*
X111178571Y-59357142D02*
X112178571Y-59357142D01*
X111178571Y-58714285D02*
X111964285Y-58714285D01*
X112107142Y-58785714D01*
X112178571Y-58928571D01*
X112178571Y-59142857D01*
X112107142Y-59285714D01*
X112035714Y-59357142D01*
X112107142Y-60000000D02*
X112178571Y-60142857D01*
X112178571Y-60428571D01*
X112107142Y-60571428D01*
X111964285Y-60642857D01*
X111892857Y-60642857D01*
X111750000Y-60571428D01*
X111678571Y-60428571D01*
X111678571Y-60214285D01*
X111607142Y-60071428D01*
X111464285Y-60000000D01*
X111392857Y-60000000D01*
X111250000Y-60071428D01*
X111178571Y-60214285D01*
X111178571Y-60428571D01*
X111250000Y-60571428D01*
X111178571Y-61071428D02*
X111178571Y-61642857D01*
X110678571Y-61285714D02*
X111964285Y-61285714D01*
X112107142Y-61357142D01*
X112178571Y-61500000D01*
X112178571Y-61642857D01*
X112178571Y-62142857D02*
X111178571Y-62142857D01*
X110678571Y-62142857D02*
X110750000Y-62071428D01*
X110821428Y-62142857D01*
X110750000Y-62214285D01*
X110678571Y-62142857D01*
X110821428Y-62142857D01*
X111178571Y-62857142D02*
X112178571Y-62857142D01*
X111321428Y-62857142D02*
X111250000Y-62928571D01*
X111178571Y-63071428D01*
X111178571Y-63285714D01*
X111250000Y-63428571D01*
X111392857Y-63500000D01*
X112178571Y-63500000D01*
D11*
X123580857Y-27302380D02*
X123914190Y-26826190D01*
X124152285Y-27302380D02*
X124152285Y-26302380D01*
X123771333Y-26302380D01*
X123676095Y-26350000D01*
X123628476Y-26397619D01*
X123580857Y-26492857D01*
X123580857Y-26635714D01*
X123628476Y-26730952D01*
X123676095Y-26778571D01*
X123771333Y-26826190D01*
X124152285Y-26826190D01*
X123199904Y-26397619D02*
X123152285Y-26350000D01*
X123057047Y-26302380D01*
X122818952Y-26302380D01*
X122723714Y-26350000D01*
X122676095Y-26397619D01*
X122628476Y-26492857D01*
X122628476Y-26588095D01*
X122676095Y-26730952D01*
X123247523Y-27302380D01*
X122628476Y-27302380D01*
X121771333Y-26635714D02*
X121771333Y-27302380D01*
X122009428Y-26254761D02*
X122247523Y-26969047D01*
X121628476Y-26969047D01*
X128714285Y-32166666D02*
X128238095Y-32166666D01*
X128809523Y-32452380D02*
X128476190Y-31452380D01*
X128142857Y-32452380D01*
X127285714Y-32452380D02*
X127857142Y-32452380D01*
X127571428Y-32452380D02*
X127571428Y-31452380D01*
X127666666Y-31595238D01*
X127761904Y-31690476D01*
X127857142Y-31738095D01*
X115666666Y-21707142D02*
X115714285Y-21754761D01*
X115857142Y-21802380D01*
X115952380Y-21802380D01*
X116095238Y-21754761D01*
X116190476Y-21659523D01*
X116238095Y-21564285D01*
X116285714Y-21373809D01*
X116285714Y-21230952D01*
X116238095Y-21040476D01*
X116190476Y-20945238D01*
X116095238Y-20850000D01*
X115952380Y-20802380D01*
X115857142Y-20802380D01*
X115714285Y-20850000D01*
X115666666Y-20897619D01*
X115095238Y-21230952D02*
X115190476Y-21183333D01*
X115238095Y-21135714D01*
X115285714Y-21040476D01*
X115285714Y-20992857D01*
X115238095Y-20897619D01*
X115190476Y-20850000D01*
X115095238Y-20802380D01*
X114904761Y-20802380D01*
X114809523Y-20850000D01*
X114761904Y-20897619D01*
X114714285Y-20992857D01*
X114714285Y-21040476D01*
X114761904Y-21135714D01*
X114809523Y-21183333D01*
X114904761Y-21230952D01*
X115095238Y-21230952D01*
X115190476Y-21278571D01*
X115238095Y-21326190D01*
X115285714Y-21421428D01*
X115285714Y-21611904D01*
X115238095Y-21707142D01*
X115190476Y-21754761D01*
X115095238Y-21802380D01*
X114904761Y-21802380D01*
X114809523Y-21754761D01*
X114761904Y-21707142D01*
X114714285Y-21611904D01*
X114714285Y-21421428D01*
X114761904Y-21326190D01*
X114809523Y-21278571D01*
X114904761Y-21230952D01*
X128714285Y-35666666D02*
X128238095Y-35666666D01*
X128809523Y-35952380D02*
X128476190Y-34952380D01*
X128142857Y-35952380D01*
X127857142Y-35047619D02*
X127809523Y-35000000D01*
X127714285Y-34952380D01*
X127476190Y-34952380D01*
X127380952Y-35000000D01*
X127333333Y-35047619D01*
X127285714Y-35142857D01*
X127285714Y-35238095D01*
X127333333Y-35380952D01*
X127904761Y-35952380D01*
X127285714Y-35952380D01*
X102238095Y-25852380D02*
X102238095Y-26661904D01*
X102190476Y-26757142D01*
X102142857Y-26804761D01*
X102047619Y-26852380D01*
X101857142Y-26852380D01*
X101761904Y-26804761D01*
X101714285Y-26757142D01*
X101666666Y-26661904D01*
X101666666Y-25852380D01*
X100666666Y-26852380D02*
X101238095Y-26852380D01*
X100952380Y-26852380D02*
X100952380Y-25852380D01*
X101047619Y-25995238D01*
X101142857Y-26090476D01*
X101238095Y-26138095D01*
X100047619Y-25852380D02*
X99952380Y-25852380D01*
X99857142Y-25900000D01*
X99809523Y-25947619D01*
X99761904Y-26042857D01*
X99714285Y-26233333D01*
X99714285Y-26471428D01*
X99761904Y-26661904D01*
X99809523Y-26757142D01*
X99857142Y-26804761D01*
X99952380Y-26852380D01*
X100047619Y-26852380D01*
X100142857Y-26804761D01*
X100190476Y-26757142D01*
X100238095Y-26661904D01*
X100285714Y-26471428D01*
X100285714Y-26233333D01*
X100238095Y-26042857D01*
X100190476Y-25947619D01*
X100142857Y-25900000D01*
X100047619Y-25852380D01*
X123580857Y-34302380D02*
X123914190Y-33826190D01*
X124152285Y-34302380D02*
X124152285Y-33302380D01*
X123771333Y-33302380D01*
X123676095Y-33350000D01*
X123628476Y-33397619D01*
X123580857Y-33492857D01*
X123580857Y-33635714D01*
X123628476Y-33730952D01*
X123676095Y-33778571D01*
X123771333Y-33826190D01*
X124152285Y-33826190D01*
X123199904Y-33397619D02*
X123152285Y-33350000D01*
X123057047Y-33302380D01*
X122818952Y-33302380D01*
X122723714Y-33350000D01*
X122676095Y-33397619D01*
X122628476Y-33492857D01*
X122628476Y-33588095D01*
X122676095Y-33730952D01*
X123247523Y-34302380D01*
X122628476Y-34302380D01*
X122247523Y-33397619D02*
X122199904Y-33350000D01*
X122104666Y-33302380D01*
X121866571Y-33302380D01*
X121771333Y-33350000D01*
X121723714Y-33397619D01*
X121676095Y-33492857D01*
X121676095Y-33588095D01*
X121723714Y-33730952D01*
X122295142Y-34302380D01*
X121676095Y-34302380D01*
X39833333Y-32678571D02*
X40166666Y-32678571D01*
X40166666Y-33202380D02*
X40166666Y-32202380D01*
X39690476Y-32202380D01*
X38785714Y-33202380D02*
X39357142Y-33202380D01*
X39071428Y-33202380D02*
X39071428Y-32202380D01*
X39166666Y-32345238D01*
X39261904Y-32440476D01*
X39357142Y-32488095D01*
X128614285Y-28666666D02*
X128138095Y-28666666D01*
X128709523Y-28952380D02*
X128376190Y-27952380D01*
X128042857Y-28952380D01*
X127519047Y-27952380D02*
X127423809Y-27952380D01*
X127328571Y-28000000D01*
X127280952Y-28047619D01*
X127233333Y-28142857D01*
X127185714Y-28333333D01*
X127185714Y-28571428D01*
X127233333Y-28761904D01*
X127280952Y-28857142D01*
X127328571Y-28904761D01*
X127423809Y-28952380D01*
X127519047Y-28952380D01*
X127614285Y-28904761D01*
X127661904Y-28857142D01*
X127709523Y-28761904D01*
X127757142Y-28571428D01*
X127757142Y-28333333D01*
X127709523Y-28142857D01*
X127661904Y-28047619D01*
X127614285Y-28000000D01*
X127519047Y-27952380D01*
X66761904Y-24452380D02*
X66761904Y-25261904D01*
X66714285Y-25357142D01*
X66666666Y-25404761D01*
X66571428Y-25452380D01*
X66380952Y-25452380D01*
X66285714Y-25404761D01*
X66238095Y-25357142D01*
X66190476Y-25261904D01*
X66190476Y-24452380D01*
X65285714Y-24452380D02*
X65476190Y-24452380D01*
X65571428Y-24500000D01*
X65619047Y-24547619D01*
X65714285Y-24690476D01*
X65761904Y-24880952D01*
X65761904Y-25261904D01*
X65714285Y-25357142D01*
X65666666Y-25404761D01*
X65571428Y-25452380D01*
X65380952Y-25452380D01*
X65285714Y-25404761D01*
X65238095Y-25357142D01*
X65190476Y-25261904D01*
X65190476Y-25023809D01*
X65238095Y-24928571D01*
X65285714Y-24880952D01*
X65380952Y-24833333D01*
X65571428Y-24833333D01*
X65666666Y-24880952D01*
X65714285Y-24928571D01*
X65761904Y-25023809D01*
X118352380Y-31261904D02*
X119161904Y-31261904D01*
X119257142Y-31309523D01*
X119304761Y-31357142D01*
X119352380Y-31452380D01*
X119352380Y-31642857D01*
X119304761Y-31738095D01*
X119257142Y-31785714D01*
X119161904Y-31833333D01*
X118352380Y-31833333D01*
X119352380Y-32833333D02*
X119352380Y-32261904D01*
X119352380Y-32547619D02*
X118352380Y-32547619D01*
X118495238Y-32452380D01*
X118590476Y-32357142D01*
X118638095Y-32261904D01*
X119352380Y-33785714D02*
X119352380Y-33214285D01*
X119352380Y-33500000D02*
X118352380Y-33500000D01*
X118495238Y-33404761D01*
X118590476Y-33309523D01*
X118638095Y-33214285D01*
X115666666Y-24707142D02*
X115714285Y-24754761D01*
X115857142Y-24802380D01*
X115952380Y-24802380D01*
X116095238Y-24754761D01*
X116190476Y-24659523D01*
X116238095Y-24564285D01*
X116285714Y-24373809D01*
X116285714Y-24230952D01*
X116238095Y-24040476D01*
X116190476Y-23945238D01*
X116095238Y-23850000D01*
X115952380Y-23802380D01*
X115857142Y-23802380D01*
X115714285Y-23850000D01*
X115666666Y-23897619D01*
X115333333Y-23802380D02*
X114666666Y-23802380D01*
X115095238Y-24802380D01*
X99580357Y-46102380D02*
X99913690Y-45626190D01*
X100151785Y-46102380D02*
X100151785Y-45102380D01*
X99770833Y-45102380D01*
X99675595Y-45150000D01*
X99627976Y-45197619D01*
X99580357Y-45292857D01*
X99580357Y-45435714D01*
X99627976Y-45530952D01*
X99675595Y-45578571D01*
X99770833Y-45626190D01*
X100151785Y-45626190D01*
X98627976Y-46102380D02*
X99199404Y-46102380D01*
X98913690Y-46102380D02*
X98913690Y-45102380D01*
X99008928Y-45245238D01*
X99104166Y-45340476D01*
X99199404Y-45388095D01*
X98151785Y-46102380D02*
X97961309Y-46102380D01*
X97866071Y-46054761D01*
X97818452Y-46007142D01*
X97723214Y-45864285D01*
X97675595Y-45673809D01*
X97675595Y-45292857D01*
X97723214Y-45197619D01*
X97770833Y-45150000D01*
X97866071Y-45102380D01*
X98056547Y-45102380D01*
X98151785Y-45150000D01*
X98199404Y-45197619D01*
X98247023Y-45292857D01*
X98247023Y-45530952D01*
X98199404Y-45626190D01*
X98151785Y-45673809D01*
X98056547Y-45721428D01*
X97866071Y-45721428D01*
X97770833Y-45673809D01*
X97723214Y-45626190D01*
X97675595Y-45530952D01*
X102080857Y-21802380D02*
X102414190Y-21326190D01*
X102652285Y-21802380D02*
X102652285Y-20802380D01*
X102271333Y-20802380D01*
X102176095Y-20850000D01*
X102128476Y-20897619D01*
X102080857Y-20992857D01*
X102080857Y-21135714D01*
X102128476Y-21230952D01*
X102176095Y-21278571D01*
X102271333Y-21326190D01*
X102652285Y-21326190D01*
X101699904Y-20897619D02*
X101652285Y-20850000D01*
X101557047Y-20802380D01*
X101318952Y-20802380D01*
X101223714Y-20850000D01*
X101176095Y-20897619D01*
X101128476Y-20992857D01*
X101128476Y-21088095D01*
X101176095Y-21230952D01*
X101747523Y-21802380D01*
X101128476Y-21802380D01*
X100176095Y-21802380D02*
X100747523Y-21802380D01*
X100461809Y-21802380D02*
X100461809Y-20802380D01*
X100557047Y-20945238D01*
X100652285Y-21040476D01*
X100747523Y-21088095D01*
X123580857Y-30802380D02*
X123914190Y-30326190D01*
X124152285Y-30802380D02*
X124152285Y-29802380D01*
X123771333Y-29802380D01*
X123676095Y-29850000D01*
X123628476Y-29897619D01*
X123580857Y-29992857D01*
X123580857Y-30135714D01*
X123628476Y-30230952D01*
X123676095Y-30278571D01*
X123771333Y-30326190D01*
X124152285Y-30326190D01*
X123199904Y-29897619D02*
X123152285Y-29850000D01*
X123057047Y-29802380D01*
X122818952Y-29802380D01*
X122723714Y-29850000D01*
X122676095Y-29897619D01*
X122628476Y-29992857D01*
X122628476Y-30088095D01*
X122676095Y-30230952D01*
X123247523Y-30802380D01*
X122628476Y-30802380D01*
X122295142Y-29802380D02*
X121676095Y-29802380D01*
X122009428Y-30183333D01*
X121866571Y-30183333D01*
X121771333Y-30230952D01*
X121723714Y-30278571D01*
X121676095Y-30373809D01*
X121676095Y-30611904D01*
X121723714Y-30707142D01*
X121771333Y-30754761D01*
X121866571Y-30802380D01*
X122152285Y-30802380D01*
X122247523Y-30754761D01*
X122295142Y-30707142D01*
X108042857Y-21402380D02*
X108376190Y-20926190D01*
X108614285Y-21402380D02*
X108614285Y-20402380D01*
X108233333Y-20402380D01*
X108138095Y-20450000D01*
X108090476Y-20497619D01*
X108042857Y-20592857D01*
X108042857Y-20735714D01*
X108090476Y-20830952D01*
X108138095Y-20878571D01*
X108233333Y-20926190D01*
X108614285Y-20926190D01*
X107661904Y-20497619D02*
X107614285Y-20450000D01*
X107519047Y-20402380D01*
X107280952Y-20402380D01*
X107185714Y-20450000D01*
X107138095Y-20497619D01*
X107090476Y-20592857D01*
X107090476Y-20688095D01*
X107138095Y-20830952D01*
X107709523Y-21402380D01*
X107090476Y-21402380D01*
X106471428Y-20402380D02*
X106376190Y-20402380D01*
X106280952Y-20450000D01*
X106233333Y-20497619D01*
X106185714Y-20592857D01*
X106138095Y-20783333D01*
X106138095Y-21021428D01*
X106185714Y-21211904D01*
X106233333Y-21307142D01*
X106280952Y-21354761D01*
X106376190Y-21402380D01*
X106471428Y-21402380D01*
X106566666Y-21354761D01*
X106614285Y-21307142D01*
X106661904Y-21211904D01*
X106709523Y-21021428D01*
X106709523Y-20783333D01*
X106661904Y-20592857D01*
X106614285Y-20497619D01*
X106566666Y-20450000D01*
X106471428Y-20402380D01*
D12*
X123196578Y-27790000D02*
X122679422Y-27790000D01*
X123196578Y-29210000D02*
X122679422Y-29210000D01*
X129100000Y-31000000D02*
X129100000Y-33000000D01*
X129100000Y-33000000D02*
X131900000Y-33000000D01*
X131900000Y-33000000D02*
X131900000Y-31000000D01*
X131900000Y-31000000D02*
X129100000Y-31000000D01*
X115758578Y-23710000D02*
X115241422Y-23710000D01*
X115758578Y-22290000D02*
X115241422Y-22290000D01*
X131900000Y-36500000D02*
X131900000Y-34500000D01*
X129100000Y-36500000D02*
X131900000Y-36500000D01*
X129100000Y-34500000D02*
X129100000Y-36500000D01*
X131900000Y-34500000D02*
X129100000Y-34500000D01*
X101000000Y-27240000D02*
X104860000Y-27240000D01*
X104860000Y-27495000D02*
X106675000Y-27495000D01*
X101000000Y-27240000D02*
X97140000Y-27240000D01*
X104860000Y-27240000D02*
X104860000Y-27495000D01*
X101000000Y-37760000D02*
X97140000Y-37760000D01*
X97140000Y-37760000D02*
X97140000Y-37505000D01*
X97140000Y-27240000D02*
X97140000Y-27495000D01*
X101000000Y-37760000D02*
X104860000Y-37760000D01*
X104860000Y-37760000D02*
X104860000Y-37505000D01*
X123196578Y-34790000D02*
X122679422Y-34790000D01*
X123196578Y-36210000D02*
X122679422Y-36210000D01*
X50000000Y-30000000D02*
X30000000Y-30000000D01*
X50000000Y-35000000D02*
X50000000Y-30000000D01*
X30000000Y-30000000D02*
X30000000Y-35000000D01*
X30000000Y-35000000D02*
X50000000Y-35000000D01*
X129000000Y-27500000D02*
X129000000Y-29500000D01*
X131800000Y-29500000D02*
X131800000Y-27500000D01*
X131800000Y-27500000D02*
X129000000Y-27500000D01*
X129000000Y-29500000D02*
X131800000Y-29500000D01*
X69410000Y-23090000D02*
X68150000Y-23090000D01*
X62590000Y-23090000D02*
X63850000Y-23090000D01*
X62590000Y-26850000D02*
X62590000Y-23090000D01*
X69410000Y-29100000D02*
X69410000Y-23090000D01*
X112940000Y-32500000D02*
X112940000Y-34450000D01*
X118060000Y-32500000D02*
X118060000Y-30550000D01*
X112940000Y-32500000D02*
X112940000Y-30550000D01*
X118060000Y-32500000D02*
X118060000Y-35950000D01*
X115758578Y-25290000D02*
X115241422Y-25290000D01*
X115758578Y-26710000D02*
X115241422Y-26710000D01*
X98678922Y-44710000D02*
X99196078Y-44710000D01*
X98678922Y-43290000D02*
X99196078Y-43290000D01*
X101696578Y-22290000D02*
X101179422Y-22290000D01*
X101696578Y-23710000D02*
X101179422Y-23710000D01*
X123196578Y-31290000D02*
X122679422Y-31290000D01*
X123196578Y-32710000D02*
X122679422Y-32710000D01*
G36*
X81504798Y-87382033D02*
G01*
X81594444Y-87438963D01*
X81609804Y-87455559D01*
X81630761Y-87488144D01*
X81646178Y-87535196D01*
X81656899Y-87606846D01*
X81663767Y-87713228D01*
X81667628Y-87864472D01*
X81669325Y-88070710D01*
X81669703Y-88342074D01*
X81669703Y-89169926D01*
X82196518Y-89169926D01*
X82196518Y-88632670D01*
X82197003Y-88513276D01*
X82202745Y-88294529D01*
X82217529Y-88137059D01*
X82244543Y-88031276D01*
X82286979Y-87967590D01*
X82348026Y-87936411D01*
X82430874Y-87928149D01*
X82498395Y-87930807D01*
X82571146Y-87948313D01*
X82622319Y-87990959D01*
X82655636Y-88068758D01*
X82674823Y-88191722D01*
X82683604Y-88369862D01*
X82685703Y-88613192D01*
X82685703Y-89173682D01*
X82902074Y-89162397D01*
X83118444Y-89151112D01*
X83128606Y-88325389D01*
X83131536Y-88116754D01*
X83136349Y-87888551D01*
X83142785Y-87718869D01*
X83151621Y-87598025D01*
X83163632Y-87516335D01*
X83179596Y-87464117D01*
X83200290Y-87431686D01*
X83221633Y-87411635D01*
X83327238Y-87368272D01*
X83446192Y-87380142D01*
X83549719Y-87446059D01*
X83559463Y-87456898D01*
X83580634Y-87486831D01*
X83596809Y-87527176D01*
X83608656Y-87587197D01*
X83616847Y-87676157D01*
X83622051Y-87803321D01*
X83624938Y-87977952D01*
X83626179Y-88209314D01*
X83626444Y-88506671D01*
X83626390Y-88689114D01*
X83625749Y-88946103D01*
X83623801Y-89142590D01*
X83619829Y-89287879D01*
X83613121Y-89391276D01*
X83602961Y-89462083D01*
X83588635Y-89509607D01*
X83569428Y-89543151D01*
X83544625Y-89572020D01*
X83539022Y-89577969D01*
X83513893Y-89602115D01*
X83483834Y-89620921D01*
X83440053Y-89635056D01*
X83373760Y-89645186D01*
X83276164Y-89651978D01*
X83138473Y-89656100D01*
X82951897Y-89658218D01*
X82707643Y-89658999D01*
X82396922Y-89659112D01*
X82154290Y-89658990D01*
X81893704Y-89658161D01*
X81692989Y-89656040D01*
X81543393Y-89652050D01*
X81436160Y-89645613D01*
X81362537Y-89636152D01*
X81313768Y-89623090D01*
X81281100Y-89605849D01*
X81255777Y-89583852D01*
X81245187Y-89572738D01*
X81224818Y-89544332D01*
X81209236Y-89504325D01*
X81197802Y-89443624D01*
X81189878Y-89353134D01*
X81184826Y-89223762D01*
X81182007Y-89046412D01*
X81180784Y-88811992D01*
X81180518Y-88511408D01*
X81180558Y-88371045D01*
X81181164Y-88100556D01*
X81183008Y-87892248D01*
X81186726Y-87737029D01*
X81192957Y-87625804D01*
X81202340Y-87549479D01*
X81215512Y-87498959D01*
X81233112Y-87465152D01*
X81255777Y-87438963D01*
X81327775Y-87389876D01*
X81425111Y-87363704D01*
X81504798Y-87382033D01*
G37*
D13*
X81504798Y-87382033D02*
X81594444Y-87438963D01*
X81609804Y-87455559D01*
X81630761Y-87488144D01*
X81646178Y-87535196D01*
X81656899Y-87606846D01*
X81663767Y-87713228D01*
X81667628Y-87864472D01*
X81669325Y-88070710D01*
X81669703Y-88342074D01*
X81669703Y-89169926D01*
X82196518Y-89169926D01*
X82196518Y-88632670D01*
X82197003Y-88513276D01*
X82202745Y-88294529D01*
X82217529Y-88137059D01*
X82244543Y-88031276D01*
X82286979Y-87967590D01*
X82348026Y-87936411D01*
X82430874Y-87928149D01*
X82498395Y-87930807D01*
X82571146Y-87948313D01*
X82622319Y-87990959D01*
X82655636Y-88068758D01*
X82674823Y-88191722D01*
X82683604Y-88369862D01*
X82685703Y-88613192D01*
X82685703Y-89173682D01*
X82902074Y-89162397D01*
X83118444Y-89151112D01*
X83128606Y-88325389D01*
X83131536Y-88116754D01*
X83136349Y-87888551D01*
X83142785Y-87718869D01*
X83151621Y-87598025D01*
X83163632Y-87516335D01*
X83179596Y-87464117D01*
X83200290Y-87431686D01*
X83221633Y-87411635D01*
X83327238Y-87368272D01*
X83446192Y-87380142D01*
X83549719Y-87446059D01*
X83559463Y-87456898D01*
X83580634Y-87486831D01*
X83596809Y-87527176D01*
X83608656Y-87587197D01*
X83616847Y-87676157D01*
X83622051Y-87803321D01*
X83624938Y-87977952D01*
X83626179Y-88209314D01*
X83626444Y-88506671D01*
X83626390Y-88689114D01*
X83625749Y-88946103D01*
X83623801Y-89142590D01*
X83619829Y-89287879D01*
X83613121Y-89391276D01*
X83602961Y-89462083D01*
X83588635Y-89509607D01*
X83569428Y-89543151D01*
X83544625Y-89572020D01*
X83539022Y-89577969D01*
X83513893Y-89602115D01*
X83483834Y-89620921D01*
X83440053Y-89635056D01*
X83373760Y-89645186D01*
X83276164Y-89651978D01*
X83138473Y-89656100D01*
X82951897Y-89658218D01*
X82707643Y-89658999D01*
X82396922Y-89659112D01*
X82154290Y-89658990D01*
X81893704Y-89658161D01*
X81692989Y-89656040D01*
X81543393Y-89652050D01*
X81436160Y-89645613D01*
X81362537Y-89636152D01*
X81313768Y-89623090D01*
X81281100Y-89605849D01*
X81255777Y-89583852D01*
X81245187Y-89572738D01*
X81224818Y-89544332D01*
X81209236Y-89504325D01*
X81197802Y-89443624D01*
X81189878Y-89353134D01*
X81184826Y-89223762D01*
X81182007Y-89046412D01*
X81180784Y-88811992D01*
X81180518Y-88511408D01*
X81180558Y-88371045D01*
X81181164Y-88100556D01*
X81183008Y-87892248D01*
X81186726Y-87737029D01*
X81192957Y-87625804D01*
X81202340Y-87549479D01*
X81215512Y-87498959D01*
X81233112Y-87465152D01*
X81255777Y-87438963D01*
X81327775Y-87389876D01*
X81425111Y-87363704D01*
X81504798Y-87382033D01*
G36*
X90189227Y-67351588D02*
G01*
X89822203Y-67331145D01*
X89480706Y-67286962D01*
X89196237Y-67220292D01*
X88903560Y-67113912D01*
X88421231Y-66867323D01*
X87996873Y-66552132D01*
X87633377Y-66171601D01*
X87333635Y-65728995D01*
X87100540Y-65227576D01*
X86936982Y-64670610D01*
X86900092Y-64443493D01*
X86874455Y-64118947D01*
X86868689Y-63765494D01*
X86882330Y-63412671D01*
X86914914Y-63090015D01*
X86957249Y-62872002D01*
X89142346Y-62872002D01*
X89146151Y-63184811D01*
X89197844Y-63481859D01*
X89304632Y-63729800D01*
X89471328Y-63944315D01*
X89532987Y-64004659D01*
X89743263Y-64161775D01*
X89969912Y-64246783D01*
X90242633Y-64272312D01*
X90386713Y-64265396D01*
X90683317Y-64196998D01*
X90937897Y-64053309D01*
X91153316Y-63831711D01*
X91332441Y-63529590D01*
X91478137Y-63144329D01*
X91516372Y-62989015D01*
X91542551Y-62800988D01*
X91557090Y-62564357D01*
X91561978Y-62258065D01*
X91561975Y-62208310D01*
X91559178Y-61979166D01*
X91552417Y-61782332D01*
X91542579Y-61637382D01*
X91530551Y-61563889D01*
X91526646Y-61555432D01*
X91502124Y-61528089D01*
X91452846Y-61508724D01*
X91365557Y-61495997D01*
X91227002Y-61488566D01*
X91023927Y-61485090D01*
X90743075Y-61484230D01*
X90502180Y-61485500D01*
X90249067Y-61491652D01*
X90066112Y-61503703D01*
X89941405Y-61522532D01*
X89863031Y-61549015D01*
X89807067Y-61583082D01*
X89654508Y-61711375D01*
X89495685Y-61883271D01*
X89354174Y-62071675D01*
X89253552Y-62249490D01*
X89216632Y-62348146D01*
X89167477Y-62575310D01*
X89142346Y-62872002D01*
X86957249Y-62872002D01*
X86965976Y-62827061D01*
X87006179Y-62694929D01*
X87123823Y-62394833D01*
X87273185Y-62089778D01*
X87438067Y-61811237D01*
X87602270Y-61590684D01*
X87604641Y-61587974D01*
X87707115Y-61467115D01*
X87780083Y-61374128D01*
X87807886Y-61328946D01*
X87801248Y-61324006D01*
X87729549Y-61312829D01*
X87595822Y-61305062D01*
X87420968Y-61302151D01*
X87034050Y-61302151D01*
X87034050Y-59595162D01*
X87034058Y-59549721D01*
X87034725Y-59168612D01*
X87036384Y-58818833D01*
X87038912Y-58510333D01*
X87042186Y-58253065D01*
X87046081Y-58056982D01*
X87050475Y-57932033D01*
X87055243Y-57888173D01*
X87059410Y-57889194D01*
X87120920Y-57917890D01*
X87236482Y-57978041D01*
X87385261Y-58058871D01*
X87694086Y-58229570D01*
X90903226Y-58255914D01*
X91370637Y-58259830D01*
X91966755Y-58265308D01*
X92484271Y-58271057D01*
X92930504Y-58277544D01*
X93312773Y-58285232D01*
X93638397Y-58294586D01*
X93914695Y-58306070D01*
X94148985Y-58320149D01*
X94348588Y-58337287D01*
X94520820Y-58357950D01*
X94673002Y-58382601D01*
X94812452Y-58411705D01*
X94946488Y-58445727D01*
X95082431Y-58485131D01*
X95227599Y-58530381D01*
X95682693Y-58708648D01*
X96103296Y-58952777D01*
X96463397Y-59256806D01*
X96764880Y-59623519D01*
X97009629Y-60055700D01*
X97199529Y-60556131D01*
X97336463Y-61127597D01*
X97422315Y-61772880D01*
X97439387Y-61998415D01*
X97451870Y-62378252D01*
X97440629Y-62754730D01*
X97403769Y-63145475D01*
X97339396Y-63568113D01*
X97245615Y-64040270D01*
X97120529Y-64579570D01*
X97090263Y-64704228D01*
X97015786Y-65017278D01*
X96947211Y-65313987D01*
X96888588Y-65576362D01*
X96843969Y-65786409D01*
X96817402Y-65926134D01*
X96764453Y-66248505D01*
X95666008Y-65795293D01*
X95391751Y-65681930D01*
X95123017Y-65570405D01*
X94893575Y-65474717D01*
X94714650Y-65399563D01*
X94597471Y-65349641D01*
X94553262Y-65329649D01*
X94552629Y-65326504D01*
X94572366Y-65268569D01*
X94622948Y-65154648D01*
X94695370Y-65005293D01*
X94836408Y-64694863D01*
X94990618Y-64267691D01*
X95108714Y-63830482D01*
X95187728Y-63400334D01*
X95224696Y-62994343D01*
X95216651Y-62629608D01*
X95160627Y-62323227D01*
X95071734Y-62109394D01*
X94889564Y-61866545D01*
X94642428Y-61679598D01*
X94337929Y-61553905D01*
X93983670Y-61494817D01*
X93657169Y-61474010D01*
X93654195Y-62560213D01*
X93651123Y-62926521D01*
X93640214Y-63331684D01*
X93619626Y-63677804D01*
X93587358Y-63982785D01*
X93541408Y-64264530D01*
X93479774Y-64540943D01*
X93400455Y-64829929D01*
X93249476Y-65262321D01*
X93000847Y-65770905D01*
X92696298Y-66217253D01*
X92340114Y-66596961D01*
X91936577Y-66905627D01*
X91489971Y-67138850D01*
X91004580Y-67292226D01*
X90873852Y-67316246D01*
X90550277Y-67347040D01*
X90242633Y-67350916D01*
X90189227Y-67351588D01*
G37*
X90189227Y-67351588D02*
X89822203Y-67331145D01*
X89480706Y-67286962D01*
X89196237Y-67220292D01*
X88903560Y-67113912D01*
X88421231Y-66867323D01*
X87996873Y-66552132D01*
X87633377Y-66171601D01*
X87333635Y-65728995D01*
X87100540Y-65227576D01*
X86936982Y-64670610D01*
X86900092Y-64443493D01*
X86874455Y-64118947D01*
X86868689Y-63765494D01*
X86882330Y-63412671D01*
X86914914Y-63090015D01*
X86957249Y-62872002D01*
X89142346Y-62872002D01*
X89146151Y-63184811D01*
X89197844Y-63481859D01*
X89304632Y-63729800D01*
X89471328Y-63944315D01*
X89532987Y-64004659D01*
X89743263Y-64161775D01*
X89969912Y-64246783D01*
X90242633Y-64272312D01*
X90386713Y-64265396D01*
X90683317Y-64196998D01*
X90937897Y-64053309D01*
X91153316Y-63831711D01*
X91332441Y-63529590D01*
X91478137Y-63144329D01*
X91516372Y-62989015D01*
X91542551Y-62800988D01*
X91557090Y-62564357D01*
X91561978Y-62258065D01*
X91561975Y-62208310D01*
X91559178Y-61979166D01*
X91552417Y-61782332D01*
X91542579Y-61637382D01*
X91530551Y-61563889D01*
X91526646Y-61555432D01*
X91502124Y-61528089D01*
X91452846Y-61508724D01*
X91365557Y-61495997D01*
X91227002Y-61488566D01*
X91023927Y-61485090D01*
X90743075Y-61484230D01*
X90502180Y-61485500D01*
X90249067Y-61491652D01*
X90066112Y-61503703D01*
X89941405Y-61522532D01*
X89863031Y-61549015D01*
X89807067Y-61583082D01*
X89654508Y-61711375D01*
X89495685Y-61883271D01*
X89354174Y-62071675D01*
X89253552Y-62249490D01*
X89216632Y-62348146D01*
X89167477Y-62575310D01*
X89142346Y-62872002D01*
X86957249Y-62872002D01*
X86965976Y-62827061D01*
X87006179Y-62694929D01*
X87123823Y-62394833D01*
X87273185Y-62089778D01*
X87438067Y-61811237D01*
X87602270Y-61590684D01*
X87604641Y-61587974D01*
X87707115Y-61467115D01*
X87780083Y-61374128D01*
X87807886Y-61328946D01*
X87801248Y-61324006D01*
X87729549Y-61312829D01*
X87595822Y-61305062D01*
X87420968Y-61302151D01*
X87034050Y-61302151D01*
X87034050Y-59595162D01*
X87034058Y-59549721D01*
X87034725Y-59168612D01*
X87036384Y-58818833D01*
X87038912Y-58510333D01*
X87042186Y-58253065D01*
X87046081Y-58056982D01*
X87050475Y-57932033D01*
X87055243Y-57888173D01*
X87059410Y-57889194D01*
X87120920Y-57917890D01*
X87236482Y-57978041D01*
X87385261Y-58058871D01*
X87694086Y-58229570D01*
X90903226Y-58255914D01*
X91370637Y-58259830D01*
X91966755Y-58265308D01*
X92484271Y-58271057D01*
X92930504Y-58277544D01*
X93312773Y-58285232D01*
X93638397Y-58294586D01*
X93914695Y-58306070D01*
X94148985Y-58320149D01*
X94348588Y-58337287D01*
X94520820Y-58357950D01*
X94673002Y-58382601D01*
X94812452Y-58411705D01*
X94946488Y-58445727D01*
X95082431Y-58485131D01*
X95227599Y-58530381D01*
X95682693Y-58708648D01*
X96103296Y-58952777D01*
X96463397Y-59256806D01*
X96764880Y-59623519D01*
X97009629Y-60055700D01*
X97199529Y-60556131D01*
X97336463Y-61127597D01*
X97422315Y-61772880D01*
X97439387Y-61998415D01*
X97451870Y-62378252D01*
X97440629Y-62754730D01*
X97403769Y-63145475D01*
X97339396Y-63568113D01*
X97245615Y-64040270D01*
X97120529Y-64579570D01*
X97090263Y-64704228D01*
X97015786Y-65017278D01*
X96947211Y-65313987D01*
X96888588Y-65576362D01*
X96843969Y-65786409D01*
X96817402Y-65926134D01*
X96764453Y-66248505D01*
X95666008Y-65795293D01*
X95391751Y-65681930D01*
X95123017Y-65570405D01*
X94893575Y-65474717D01*
X94714650Y-65399563D01*
X94597471Y-65349641D01*
X94553262Y-65329649D01*
X94552629Y-65326504D01*
X94572366Y-65268569D01*
X94622948Y-65154648D01*
X94695370Y-65005293D01*
X94836408Y-64694863D01*
X94990618Y-64267691D01*
X95108714Y-63830482D01*
X95187728Y-63400334D01*
X95224696Y-62994343D01*
X95216651Y-62629608D01*
X95160627Y-62323227D01*
X95071734Y-62109394D01*
X94889564Y-61866545D01*
X94642428Y-61679598D01*
X94337929Y-61553905D01*
X93983670Y-61494817D01*
X93657169Y-61474010D01*
X93654195Y-62560213D01*
X93651123Y-62926521D01*
X93640214Y-63331684D01*
X93619626Y-63677804D01*
X93587358Y-63982785D01*
X93541408Y-64264530D01*
X93479774Y-64540943D01*
X93400455Y-64829929D01*
X93249476Y-65262321D01*
X93000847Y-65770905D01*
X92696298Y-66217253D01*
X92340114Y-66596961D01*
X91936577Y-66905627D01*
X91489971Y-67138850D01*
X91004580Y-67292226D01*
X90873852Y-67316246D01*
X90550277Y-67347040D01*
X90242633Y-67350916D01*
X90189227Y-67351588D01*
G36*
X83534080Y-51632660D02*
G01*
X83608223Y-51737255D01*
X83617188Y-51848018D01*
X83551185Y-51954223D01*
X83518617Y-51981842D01*
X83465643Y-52006548D01*
X83385751Y-52021007D01*
X83262841Y-52027792D01*
X83080814Y-52029482D01*
X82685703Y-52029482D01*
X82685703Y-53685186D01*
X83063710Y-53685186D01*
X83070748Y-53685187D01*
X83243072Y-53686645D01*
X83358154Y-53693191D01*
X83433408Y-53708245D01*
X83486246Y-53735224D01*
X83534080Y-53777549D01*
X83608223Y-53882144D01*
X83617188Y-53992907D01*
X83551185Y-54099112D01*
X83530551Y-54117886D01*
X83503198Y-54134854D01*
X83463943Y-54148475D01*
X83405745Y-54159069D01*
X83321566Y-54166957D01*
X83204366Y-54172459D01*
X83047105Y-54175897D01*
X82842744Y-54177591D01*
X82584243Y-54177862D01*
X82264564Y-54177030D01*
X81876666Y-54175418D01*
X81829417Y-54175189D01*
X81623543Y-54173236D01*
X81477932Y-54168827D01*
X81379998Y-54160342D01*
X81317151Y-54146158D01*
X81276805Y-54124653D01*
X81246370Y-54094205D01*
X81188313Y-53982680D01*
X81197985Y-53866186D01*
X81279667Y-53763176D01*
X81323677Y-53733146D01*
X81385462Y-53708307D01*
X81472224Y-53693748D01*
X81600711Y-53686898D01*
X81787667Y-53685186D01*
X82196518Y-53685186D01*
X82196518Y-52029482D01*
X81747096Y-52029482D01*
X81627794Y-52029239D01*
X81473360Y-52026696D01*
X81371579Y-52019441D01*
X81308145Y-52005119D01*
X81268752Y-51981373D01*
X81239096Y-51945850D01*
X81188864Y-51838345D01*
X81197755Y-51720724D01*
X81279667Y-51618287D01*
X81300516Y-51602768D01*
X81335597Y-51582983D01*
X81382029Y-51567880D01*
X81448943Y-51556827D01*
X81545467Y-51549197D01*
X81680732Y-51544358D01*
X81863867Y-51541682D01*
X82104002Y-51540538D01*
X82410266Y-51540297D01*
X83441717Y-51540297D01*
X83534080Y-51632660D01*
G37*
X83534080Y-51632660D02*
X83608223Y-51737255D01*
X83617188Y-51848018D01*
X83551185Y-51954223D01*
X83518617Y-51981842D01*
X83465643Y-52006548D01*
X83385751Y-52021007D01*
X83262841Y-52027792D01*
X83080814Y-52029482D01*
X82685703Y-52029482D01*
X82685703Y-53685186D01*
X83063710Y-53685186D01*
X83070748Y-53685187D01*
X83243072Y-53686645D01*
X83358154Y-53693191D01*
X83433408Y-53708245D01*
X83486246Y-53735224D01*
X83534080Y-53777549D01*
X83608223Y-53882144D01*
X83617188Y-53992907D01*
X83551185Y-54099112D01*
X83530551Y-54117886D01*
X83503198Y-54134854D01*
X83463943Y-54148475D01*
X83405745Y-54159069D01*
X83321566Y-54166957D01*
X83204366Y-54172459D01*
X83047105Y-54175897D01*
X82842744Y-54177591D01*
X82584243Y-54177862D01*
X82264564Y-54177030D01*
X81876666Y-54175418D01*
X81829417Y-54175189D01*
X81623543Y-54173236D01*
X81477932Y-54168827D01*
X81379998Y-54160342D01*
X81317151Y-54146158D01*
X81276805Y-54124653D01*
X81246370Y-54094205D01*
X81188313Y-53982680D01*
X81197985Y-53866186D01*
X81279667Y-53763176D01*
X81323677Y-53733146D01*
X81385462Y-53708307D01*
X81472224Y-53693748D01*
X81600711Y-53686898D01*
X81787667Y-53685186D01*
X82196518Y-53685186D01*
X82196518Y-52029482D01*
X81747096Y-52029482D01*
X81627794Y-52029239D01*
X81473360Y-52026696D01*
X81371579Y-52019441D01*
X81308145Y-52005119D01*
X81268752Y-51981373D01*
X81239096Y-51945850D01*
X81188864Y-51838345D01*
X81197755Y-51720724D01*
X81279667Y-51618287D01*
X81300516Y-51602768D01*
X81335597Y-51582983D01*
X81382029Y-51567880D01*
X81448943Y-51556827D01*
X81545467Y-51549197D01*
X81680732Y-51544358D01*
X81863867Y-51541682D01*
X82104002Y-51540538D01*
X82410266Y-51540297D01*
X83441717Y-51540297D01*
X83534080Y-51632660D01*
G36*
X83393435Y-70919576D02*
G01*
X83460205Y-70923422D01*
X83512846Y-70939414D01*
X83553035Y-70975440D01*
X83582445Y-71039389D01*
X83602751Y-71139149D01*
X83615629Y-71282611D01*
X83622754Y-71477662D01*
X83625801Y-71732191D01*
X83626444Y-72054087D01*
X83626444Y-73021353D01*
X83527295Y-73099343D01*
X83505016Y-73115839D01*
X83469778Y-73135321D01*
X83422822Y-73150191D01*
X83355072Y-73161071D01*
X83257449Y-73168581D01*
X83120876Y-73173341D01*
X82936276Y-73175973D01*
X82694572Y-73177097D01*
X82386687Y-73177334D01*
X82166964Y-73177237D01*
X81905907Y-73176464D01*
X81705015Y-73174395D01*
X81555355Y-73170420D01*
X81447994Y-73163929D01*
X81373999Y-73154313D01*
X81324436Y-73140960D01*
X81290371Y-73123262D01*
X81262873Y-73100609D01*
X81247348Y-73085558D01*
X81225726Y-73058126D01*
X81209354Y-73020260D01*
X81197503Y-72962699D01*
X81189443Y-72876184D01*
X81184444Y-72751452D01*
X81181776Y-72579243D01*
X81180711Y-72350297D01*
X81180518Y-72055352D01*
X81180540Y-71989770D01*
X81181427Y-71699686D01*
X81183980Y-71474179D01*
X81188695Y-71304330D01*
X81196067Y-71181224D01*
X81206594Y-71095944D01*
X81220771Y-71039570D01*
X81239096Y-71003188D01*
X81272384Y-70968213D01*
X81376105Y-70924010D01*
X81495734Y-70927951D01*
X81600889Y-70981833D01*
X81608476Y-70989131D01*
X81629369Y-71018090D01*
X81644922Y-71062562D01*
X81655909Y-71132506D01*
X81663107Y-71237877D01*
X81667288Y-71388633D01*
X81669229Y-71594732D01*
X81669703Y-71866129D01*
X81669703Y-72688149D01*
X82196518Y-72688149D01*
X82196518Y-72146688D01*
X82196786Y-72027792D01*
X82199444Y-71841892D01*
X82206126Y-71711433D01*
X82218264Y-71623254D01*
X82237292Y-71564195D01*
X82264644Y-71521095D01*
X82275256Y-71508952D01*
X82378506Y-71447593D01*
X82499627Y-71445480D01*
X82611691Y-71503944D01*
X82611919Y-71504150D01*
X82640674Y-71536385D01*
X82660859Y-71580698D01*
X82673964Y-71649722D01*
X82681479Y-71756093D01*
X82684896Y-71912445D01*
X82685703Y-72131414D01*
X82685703Y-72691904D01*
X82902074Y-72680619D01*
X83118444Y-72669334D01*
X83128621Y-71862409D01*
X83129714Y-71779021D01*
X83134646Y-71506956D01*
X83142593Y-71299225D01*
X83155911Y-71147180D01*
X83176957Y-71042173D01*
X83208086Y-70975555D01*
X83251658Y-70938679D01*
X83310026Y-70922895D01*
X83385550Y-70919556D01*
X83393435Y-70919576D01*
G37*
X83393435Y-70919576D02*
X83460205Y-70923422D01*
X83512846Y-70939414D01*
X83553035Y-70975440D01*
X83582445Y-71039389D01*
X83602751Y-71139149D01*
X83615629Y-71282611D01*
X83622754Y-71477662D01*
X83625801Y-71732191D01*
X83626444Y-72054087D01*
X83626444Y-73021353D01*
X83527295Y-73099343D01*
X83505016Y-73115839D01*
X83469778Y-73135321D01*
X83422822Y-73150191D01*
X83355072Y-73161071D01*
X83257449Y-73168581D01*
X83120876Y-73173341D01*
X82936276Y-73175973D01*
X82694572Y-73177097D01*
X82386687Y-73177334D01*
X82166964Y-73177237D01*
X81905907Y-73176464D01*
X81705015Y-73174395D01*
X81555355Y-73170420D01*
X81447994Y-73163929D01*
X81373999Y-73154313D01*
X81324436Y-73140960D01*
X81290371Y-73123262D01*
X81262873Y-73100609D01*
X81247348Y-73085558D01*
X81225726Y-73058126D01*
X81209354Y-73020260D01*
X81197503Y-72962699D01*
X81189443Y-72876184D01*
X81184444Y-72751452D01*
X81181776Y-72579243D01*
X81180711Y-72350297D01*
X81180518Y-72055352D01*
X81180540Y-71989770D01*
X81181427Y-71699686D01*
X81183980Y-71474179D01*
X81188695Y-71304330D01*
X81196067Y-71181224D01*
X81206594Y-71095944D01*
X81220771Y-71039570D01*
X81239096Y-71003188D01*
X81272384Y-70968213D01*
X81376105Y-70924010D01*
X81495734Y-70927951D01*
X81600889Y-70981833D01*
X81608476Y-70989131D01*
X81629369Y-71018090D01*
X81644922Y-71062562D01*
X81655909Y-71132506D01*
X81663107Y-71237877D01*
X81667288Y-71388633D01*
X81669229Y-71594732D01*
X81669703Y-71866129D01*
X81669703Y-72688149D01*
X82196518Y-72688149D01*
X82196518Y-72146688D01*
X82196786Y-72027792D01*
X82199444Y-71841892D01*
X82206126Y-71711433D01*
X82218264Y-71623254D01*
X82237292Y-71564195D01*
X82264644Y-71521095D01*
X82275256Y-71508952D01*
X82378506Y-71447593D01*
X82499627Y-71445480D01*
X82611691Y-71503944D01*
X82611919Y-71504150D01*
X82640674Y-71536385D01*
X82660859Y-71580698D01*
X82673964Y-71649722D01*
X82681479Y-71756093D01*
X82684896Y-71912445D01*
X82685703Y-72131414D01*
X82685703Y-72691904D01*
X82902074Y-72680619D01*
X83118444Y-72669334D01*
X83128621Y-71862409D01*
X83129714Y-71779021D01*
X83134646Y-71506956D01*
X83142593Y-71299225D01*
X83155911Y-71147180D01*
X83176957Y-71042173D01*
X83208086Y-70975555D01*
X83251658Y-70938679D01*
X83310026Y-70922895D01*
X83385550Y-70919556D01*
X83393435Y-70919576D01*
G36*
X83554510Y-58458910D02*
G01*
X83603744Y-58537953D01*
X83626444Y-58614667D01*
X83606836Y-58684685D01*
X83554510Y-58770424D01*
X83482575Y-58859260D01*
X81324387Y-58859260D01*
X81252453Y-58770424D01*
X81194204Y-58665889D01*
X81191418Y-58546554D01*
X81259728Y-58441758D01*
X81275278Y-58428839D01*
X81306837Y-58410619D01*
X81352442Y-58396595D01*
X81420840Y-58386222D01*
X81520773Y-58378957D01*
X81660987Y-58374254D01*
X81850226Y-58371569D01*
X82097234Y-58370357D01*
X82410756Y-58370074D01*
X83482575Y-58370074D01*
X83554510Y-58458910D01*
G37*
X83554510Y-58458910D02*
X83603744Y-58537953D01*
X83626444Y-58614667D01*
X83606836Y-58684685D01*
X83554510Y-58770424D01*
X83482575Y-58859260D01*
X81324387Y-58859260D01*
X81252453Y-58770424D01*
X81194204Y-58665889D01*
X81191418Y-58546554D01*
X81259728Y-58441758D01*
X81275278Y-58428839D01*
X81306837Y-58410619D01*
X81352442Y-58396595D01*
X81420840Y-58386222D01*
X81520773Y-58378957D01*
X81660987Y-58374254D01*
X81850226Y-58371569D01*
X82097234Y-58370357D01*
X82410756Y-58370074D01*
X83482575Y-58370074D01*
X83554510Y-58458910D01*
G36*
X83452140Y-54961811D02*
G01*
X83560592Y-55047291D01*
X83572984Y-55063761D01*
X83589104Y-55097794D01*
X83601648Y-55149213D01*
X83611056Y-55226285D01*
X83617768Y-55337277D01*
X83622223Y-55490457D01*
X83624861Y-55694092D01*
X83626122Y-55956450D01*
X83626444Y-56285799D01*
X83626439Y-56352557D01*
X83626140Y-56666300D01*
X83625007Y-56914682D01*
X83622535Y-57106038D01*
X83618217Y-57248703D01*
X83611545Y-57351013D01*
X83602012Y-57421304D01*
X83589113Y-57467909D01*
X83572339Y-57499165D01*
X83551185Y-57523408D01*
X83442126Y-57586094D01*
X83316869Y-57590916D01*
X83206074Y-57536391D01*
X83201229Y-57531856D01*
X83173361Y-57494513D01*
X83154845Y-57437505D01*
X83143865Y-57346940D01*
X83138608Y-57208927D01*
X83137259Y-57009576D01*
X83137259Y-56545037D01*
X82258037Y-56545037D01*
X82005278Y-56544786D01*
X81783057Y-56543426D01*
X81617111Y-56540152D01*
X81497387Y-56534165D01*
X81413833Y-56524662D01*
X81356397Y-56510842D01*
X81315026Y-56491904D01*
X81279667Y-56467047D01*
X81270313Y-56459411D01*
X81194838Y-56355485D01*
X81189626Y-56240887D01*
X81255777Y-56131112D01*
X81282696Y-56107850D01*
X81318025Y-56089611D01*
X81370835Y-56076209D01*
X81450757Y-56066905D01*
X81567420Y-56060959D01*
X81730453Y-56057628D01*
X81949486Y-56056173D01*
X82234148Y-56055852D01*
X83137259Y-56055852D01*
X83137259Y-55569398D01*
X83137263Y-55532399D01*
X83138013Y-55344007D01*
X83141810Y-55214525D01*
X83151142Y-55129884D01*
X83168499Y-55076012D01*
X83196370Y-55038839D01*
X83237246Y-55004295D01*
X83339538Y-54951470D01*
X83452140Y-54961811D01*
G37*
X83452140Y-54961811D02*
X83560592Y-55047291D01*
X83572984Y-55063761D01*
X83589104Y-55097794D01*
X83601648Y-55149213D01*
X83611056Y-55226285D01*
X83617768Y-55337277D01*
X83622223Y-55490457D01*
X83624861Y-55694092D01*
X83626122Y-55956450D01*
X83626444Y-56285799D01*
X83626439Y-56352557D01*
X83626140Y-56666300D01*
X83625007Y-56914682D01*
X83622535Y-57106038D01*
X83618217Y-57248703D01*
X83611545Y-57351013D01*
X83602012Y-57421304D01*
X83589113Y-57467909D01*
X83572339Y-57499165D01*
X83551185Y-57523408D01*
X83442126Y-57586094D01*
X83316869Y-57590916D01*
X83206074Y-57536391D01*
X83201229Y-57531856D01*
X83173361Y-57494513D01*
X83154845Y-57437505D01*
X83143865Y-57346940D01*
X83138608Y-57208927D01*
X83137259Y-57009576D01*
X83137259Y-56545037D01*
X82258037Y-56545037D01*
X82005278Y-56544786D01*
X81783057Y-56543426D01*
X81617111Y-56540152D01*
X81497387Y-56534165D01*
X81413833Y-56524662D01*
X81356397Y-56510842D01*
X81315026Y-56491904D01*
X81279667Y-56467047D01*
X81270313Y-56459411D01*
X81194838Y-56355485D01*
X81189626Y-56240887D01*
X81255777Y-56131112D01*
X81282696Y-56107850D01*
X81318025Y-56089611D01*
X81370835Y-56076209D01*
X81450757Y-56066905D01*
X81567420Y-56060959D01*
X81730453Y-56057628D01*
X81949486Y-56056173D01*
X82234148Y-56055852D01*
X83137259Y-56055852D01*
X83137259Y-55569398D01*
X83137263Y-55532399D01*
X83138013Y-55344007D01*
X83141810Y-55214525D01*
X83151142Y-55129884D01*
X83168499Y-55076012D01*
X83196370Y-55038839D01*
X83237246Y-55004295D01*
X83339538Y-54951470D01*
X83452140Y-54961811D01*
G36*
X103455428Y-80153070D02*
G01*
X103739785Y-80246279D01*
X103943082Y-80353979D01*
X104265625Y-80593738D01*
X104520185Y-80877974D01*
X104706738Y-81196237D01*
X104825260Y-81538074D01*
X104875725Y-81893034D01*
X104858110Y-82250667D01*
X104772390Y-82600521D01*
X104618539Y-82932144D01*
X104396534Y-83235086D01*
X104106350Y-83498896D01*
X103747961Y-83713121D01*
X103621711Y-83770554D01*
X103493746Y-83817083D01*
X103365818Y-83843190D01*
X103207586Y-83854634D01*
X102988710Y-83857169D01*
X102806534Y-83855636D01*
X102639108Y-83846398D01*
X102508483Y-83823748D01*
X102384658Y-83782029D01*
X102237635Y-83715586D01*
X102198456Y-83696366D01*
X101839695Y-83469191D01*
X101544517Y-83183469D01*
X101319849Y-82847308D01*
X101172617Y-82468818D01*
X101131530Y-82274612D01*
X101112305Y-81880625D01*
X101174513Y-81499023D01*
X101311778Y-81140996D01*
X101517721Y-80817736D01*
X101785963Y-80540430D01*
X102110127Y-80320269D01*
X102483834Y-80168444D01*
X102789658Y-80112896D01*
X103127149Y-80107892D01*
X103455428Y-80153070D01*
G37*
X103455428Y-80153070D02*
X103739785Y-80246279D01*
X103943082Y-80353979D01*
X104265625Y-80593738D01*
X104520185Y-80877974D01*
X104706738Y-81196237D01*
X104825260Y-81538074D01*
X104875725Y-81893034D01*
X104858110Y-82250667D01*
X104772390Y-82600521D01*
X104618539Y-82932144D01*
X104396534Y-83235086D01*
X104106350Y-83498896D01*
X103747961Y-83713121D01*
X103621711Y-83770554D01*
X103493746Y-83817083D01*
X103365818Y-83843190D01*
X103207586Y-83854634D01*
X102988710Y-83857169D01*
X102806534Y-83855636D01*
X102639108Y-83846398D01*
X102508483Y-83823748D01*
X102384658Y-83782029D01*
X102237635Y-83715586D01*
X102198456Y-83696366D01*
X101839695Y-83469191D01*
X101544517Y-83183469D01*
X101319849Y-82847308D01*
X101172617Y-82468818D01*
X101131530Y-82274612D01*
X101112305Y-81880625D01*
X101174513Y-81499023D01*
X101311778Y-81140996D01*
X101517721Y-80817736D01*
X101785963Y-80540430D01*
X102110127Y-80320269D01*
X102483834Y-80168444D01*
X102789658Y-80112896D01*
X103127149Y-80107892D01*
X103455428Y-80153070D01*
G36*
X91621592Y-57062629D02*
G01*
X91200349Y-57052969D01*
X90828850Y-57025351D01*
X90486888Y-56977636D01*
X90154258Y-56907685D01*
X89810753Y-56813360D01*
X89400161Y-56670324D01*
X88845880Y-56407617D01*
X88349415Y-56085370D01*
X87915457Y-55708513D01*
X87548699Y-55281976D01*
X87253833Y-54810687D01*
X87035551Y-54299578D01*
X86898545Y-53753578D01*
X86897446Y-53747008D01*
X86859052Y-53347982D01*
X86864176Y-52909556D01*
X86909660Y-52462989D01*
X86937008Y-52322929D01*
X89361808Y-52322929D01*
X89363206Y-52480954D01*
X89378988Y-52598588D01*
X89413485Y-52704100D01*
X89471025Y-52825757D01*
X89625157Y-53059556D01*
X89843189Y-53262104D01*
X90124164Y-53424236D01*
X90472484Y-53547494D01*
X90892555Y-53633422D01*
X91388780Y-53683563D01*
X91965564Y-53699457D01*
X92096693Y-53698685D01*
X92704265Y-53675834D01*
X93232936Y-53620345D01*
X93688282Y-53530871D01*
X94075882Y-53406060D01*
X94401314Y-53244563D01*
X94670157Y-53045031D01*
X94752207Y-52962252D01*
X94923145Y-52705705D01*
X95027164Y-52404545D01*
X95063674Y-52071817D01*
X95032081Y-51720569D01*
X94931796Y-51363847D01*
X94762225Y-51014696D01*
X94612157Y-50764337D01*
X89880325Y-50764337D01*
X89731040Y-50991936D01*
X89677262Y-51079462D01*
X89569830Y-51279875D01*
X89484278Y-51469893D01*
X89455311Y-51553109D01*
X89397483Y-51817898D01*
X89367953Y-52152689D01*
X89361808Y-52322929D01*
X86937008Y-52322929D01*
X86992342Y-52039543D01*
X87109065Y-51670478D01*
X87180095Y-51512947D01*
X87288056Y-51307781D01*
X87411534Y-51096958D01*
X87536939Y-50902478D01*
X87650681Y-50746339D01*
X87739170Y-50650538D01*
X87763463Y-50628546D01*
X87771956Y-50602328D01*
X87729796Y-50584805D01*
X87623545Y-50571891D01*
X87439763Y-50559499D01*
X87056810Y-50536739D01*
X87032964Y-47050007D01*
X87238801Y-47170635D01*
X87250969Y-47177825D01*
X87308099Y-47212903D01*
X87358993Y-47244725D01*
X87408074Y-47273462D01*
X87459762Y-47299286D01*
X87518480Y-47322368D01*
X87588648Y-47342879D01*
X87674689Y-47360991D01*
X87781023Y-47376874D01*
X87912073Y-47390700D01*
X88072259Y-47402640D01*
X88266004Y-47412866D01*
X88497729Y-47421548D01*
X88771855Y-47428858D01*
X89092804Y-47434967D01*
X89464997Y-47440046D01*
X89892856Y-47444267D01*
X90380802Y-47447800D01*
X90933258Y-47450818D01*
X91554644Y-47453490D01*
X92249381Y-47455990D01*
X93021893Y-47458486D01*
X93876599Y-47461152D01*
X94817921Y-47464158D01*
X101759678Y-47486918D01*
X101771580Y-49296327D01*
X101772382Y-49427910D01*
X101773970Y-49815055D01*
X101774293Y-50169157D01*
X101773415Y-50480551D01*
X101771403Y-50739571D01*
X101768324Y-50936552D01*
X101764242Y-51061829D01*
X101759224Y-51105735D01*
X101743321Y-51100117D01*
X101667925Y-51058215D01*
X101558281Y-50988811D01*
X101547799Y-50981888D01*
X101463142Y-50928077D01*
X101380774Y-50882958D01*
X101292210Y-50845768D01*
X101188966Y-50815741D01*
X101062558Y-50792111D01*
X100904502Y-50774114D01*
X100706313Y-50760985D01*
X100459507Y-50751958D01*
X100155599Y-50746269D01*
X99786105Y-50743153D01*
X99342541Y-50741844D01*
X98816422Y-50741578D01*
X98405656Y-50742054D01*
X98002377Y-50743515D01*
X97636711Y-50745853D01*
X97317563Y-50748964D01*
X97053836Y-50752741D01*
X96854435Y-50757078D01*
X96728265Y-50761869D01*
X96684230Y-50767007D01*
X96691065Y-50783578D01*
X96739194Y-50856427D01*
X96818237Y-50960465D01*
X96924534Y-51111292D01*
X97081155Y-51394675D01*
X97220864Y-51718571D01*
X97329508Y-52052747D01*
X97384909Y-52333513D01*
X97420223Y-52683192D01*
X97432458Y-53061643D01*
X97421599Y-53439659D01*
X97387630Y-53788036D01*
X97330536Y-54077568D01*
X97234363Y-54372377D01*
X97001220Y-54864187D01*
X96691271Y-55319568D01*
X96311654Y-55730116D01*
X95869506Y-56087432D01*
X95371964Y-56383114D01*
X95219395Y-56456521D01*
X94704771Y-56662231D01*
X94146239Y-56823059D01*
X93533954Y-56941037D01*
X92858069Y-57018196D01*
X92108740Y-57056569D01*
X91965564Y-57058351D01*
X91621592Y-57062629D01*
G37*
X91621592Y-57062629D02*
X91200349Y-57052969D01*
X90828850Y-57025351D01*
X90486888Y-56977636D01*
X90154258Y-56907685D01*
X89810753Y-56813360D01*
X89400161Y-56670324D01*
X88845880Y-56407617D01*
X88349415Y-56085370D01*
X87915457Y-55708513D01*
X87548699Y-55281976D01*
X87253833Y-54810687D01*
X87035551Y-54299578D01*
X86898545Y-53753578D01*
X86897446Y-53747008D01*
X86859052Y-53347982D01*
X86864176Y-52909556D01*
X86909660Y-52462989D01*
X86937008Y-52322929D01*
X89361808Y-52322929D01*
X89363206Y-52480954D01*
X89378988Y-52598588D01*
X89413485Y-52704100D01*
X89471025Y-52825757D01*
X89625157Y-53059556D01*
X89843189Y-53262104D01*
X90124164Y-53424236D01*
X90472484Y-53547494D01*
X90892555Y-53633422D01*
X91388780Y-53683563D01*
X91965564Y-53699457D01*
X92096693Y-53698685D01*
X92704265Y-53675834D01*
X93232936Y-53620345D01*
X93688282Y-53530871D01*
X94075882Y-53406060D01*
X94401314Y-53244563D01*
X94670157Y-53045031D01*
X94752207Y-52962252D01*
X94923145Y-52705705D01*
X95027164Y-52404545D01*
X95063674Y-52071817D01*
X95032081Y-51720569D01*
X94931796Y-51363847D01*
X94762225Y-51014696D01*
X94612157Y-50764337D01*
X89880325Y-50764337D01*
X89731040Y-50991936D01*
X89677262Y-51079462D01*
X89569830Y-51279875D01*
X89484278Y-51469893D01*
X89455311Y-51553109D01*
X89397483Y-51817898D01*
X89367953Y-52152689D01*
X89361808Y-52322929D01*
X86937008Y-52322929D01*
X86992342Y-52039543D01*
X87109065Y-51670478D01*
X87180095Y-51512947D01*
X87288056Y-51307781D01*
X87411534Y-51096958D01*
X87536939Y-50902478D01*
X87650681Y-50746339D01*
X87739170Y-50650538D01*
X87763463Y-50628546D01*
X87771956Y-50602328D01*
X87729796Y-50584805D01*
X87623545Y-50571891D01*
X87439763Y-50559499D01*
X87056810Y-50536739D01*
X87032964Y-47050007D01*
X87238801Y-47170635D01*
X87250969Y-47177825D01*
X87308099Y-47212903D01*
X87358993Y-47244725D01*
X87408074Y-47273462D01*
X87459762Y-47299286D01*
X87518480Y-47322368D01*
X87588648Y-47342879D01*
X87674689Y-47360991D01*
X87781023Y-47376874D01*
X87912073Y-47390700D01*
X88072259Y-47402640D01*
X88266004Y-47412866D01*
X88497729Y-47421548D01*
X88771855Y-47428858D01*
X89092804Y-47434967D01*
X89464997Y-47440046D01*
X89892856Y-47444267D01*
X90380802Y-47447800D01*
X90933258Y-47450818D01*
X91554644Y-47453490D01*
X92249381Y-47455990D01*
X93021893Y-47458486D01*
X93876599Y-47461152D01*
X94817921Y-47464158D01*
X101759678Y-47486918D01*
X101771580Y-49296327D01*
X101772382Y-49427910D01*
X101773970Y-49815055D01*
X101774293Y-50169157D01*
X101773415Y-50480551D01*
X101771403Y-50739571D01*
X101768324Y-50936552D01*
X101764242Y-51061829D01*
X101759224Y-51105735D01*
X101743321Y-51100117D01*
X101667925Y-51058215D01*
X101558281Y-50988811D01*
X101547799Y-50981888D01*
X101463142Y-50928077D01*
X101380774Y-50882958D01*
X101292210Y-50845768D01*
X101188966Y-50815741D01*
X101062558Y-50792111D01*
X100904502Y-50774114D01*
X100706313Y-50760985D01*
X100459507Y-50751958D01*
X100155599Y-50746269D01*
X99786105Y-50743153D01*
X99342541Y-50741844D01*
X98816422Y-50741578D01*
X98405656Y-50742054D01*
X98002377Y-50743515D01*
X97636711Y-50745853D01*
X97317563Y-50748964D01*
X97053836Y-50752741D01*
X96854435Y-50757078D01*
X96728265Y-50761869D01*
X96684230Y-50767007D01*
X96691065Y-50783578D01*
X96739194Y-50856427D01*
X96818237Y-50960465D01*
X96924534Y-51111292D01*
X97081155Y-51394675D01*
X97220864Y-51718571D01*
X97329508Y-52052747D01*
X97384909Y-52333513D01*
X97420223Y-52683192D01*
X97432458Y-53061643D01*
X97421599Y-53439659D01*
X97387630Y-53788036D01*
X97330536Y-54077568D01*
X97234363Y-54372377D01*
X97001220Y-54864187D01*
X96691271Y-55319568D01*
X96311654Y-55730116D01*
X95869506Y-56087432D01*
X95371964Y-56383114D01*
X95219395Y-56456521D01*
X94704771Y-56662231D01*
X94146239Y-56823059D01*
X93533954Y-56941037D01*
X92858069Y-57018196D01*
X92108740Y-57056569D01*
X91965564Y-57058351D01*
X91621592Y-57062629D01*
G36*
X89376840Y-68078277D02*
G01*
X89537892Y-68176356D01*
X89827000Y-68352562D01*
X90085464Y-68510278D01*
X90303858Y-68643738D01*
X90472753Y-68747179D01*
X90582722Y-68814838D01*
X90624337Y-68840950D01*
X90623094Y-68848212D01*
X90582368Y-68906716D01*
X90497849Y-69009498D01*
X90382647Y-69140318D01*
X90183605Y-69373300D01*
X89889273Y-69789224D01*
X89684088Y-70192767D01*
X89581623Y-70484378D01*
X89476905Y-70977617D01*
X89458344Y-71462239D01*
X89524675Y-71931216D01*
X89674633Y-72377520D01*
X89906954Y-72794124D01*
X90220375Y-73174000D01*
X90451220Y-73385376D01*
X90878203Y-73683162D01*
X91373694Y-73927507D01*
X91940233Y-74119582D01*
X92580356Y-74260554D01*
X92620096Y-74266950D01*
X92877663Y-74296498D01*
X93197686Y-74318494D01*
X93558297Y-74332761D01*
X93937630Y-74339121D01*
X94313818Y-74337395D01*
X94664993Y-74327406D01*
X94969289Y-74308976D01*
X95204839Y-74281925D01*
X95738409Y-74178243D01*
X96361688Y-74003784D01*
X96907360Y-73784374D01*
X97375002Y-73520306D01*
X97764192Y-73211874D01*
X98074507Y-72859370D01*
X98305526Y-72463088D01*
X98456825Y-72023322D01*
X98475603Y-71925752D01*
X98500123Y-71681240D01*
X98508127Y-71395489D01*
X98500054Y-71100511D01*
X98476345Y-70828321D01*
X98437438Y-70610932D01*
X98313554Y-70248789D01*
X98087387Y-69828529D01*
X97789755Y-69454324D01*
X97727058Y-69388277D01*
X97616133Y-69268601D01*
X97541472Y-69184019D01*
X97516636Y-69149658D01*
X97528515Y-69141198D01*
X97603517Y-69089125D01*
X97739703Y-68995052D01*
X97928053Y-68865195D01*
X98159550Y-68705769D01*
X98425175Y-68522990D01*
X98715911Y-68323074D01*
X99905477Y-67505377D01*
X99960206Y-67688045D01*
X99966408Y-67707106D01*
X100015668Y-67831187D01*
X100095101Y-68010081D01*
X100195150Y-68222794D01*
X100306261Y-68448331D01*
X100355388Y-68546610D01*
X100609011Y-69092340D01*
X100805138Y-69595333D01*
X100948784Y-70074934D01*
X101044968Y-70550490D01*
X101098705Y-71041345D01*
X101115013Y-71566846D01*
X101106733Y-71932558D01*
X101050579Y-72544252D01*
X100937328Y-73112518D01*
X100762217Y-73658493D01*
X100520476Y-74203311D01*
X100211826Y-74742623D01*
X99791056Y-75321410D01*
X99304567Y-75858141D01*
X98764401Y-76340996D01*
X98182601Y-76758157D01*
X97571209Y-77097804D01*
X97505804Y-77128634D01*
X96874494Y-77386828D01*
X96218491Y-77583019D01*
X95525263Y-77719740D01*
X94782277Y-77799528D01*
X93977001Y-77824918D01*
X93144555Y-77794047D01*
X92324757Y-77696060D01*
X91557333Y-77529436D01*
X90836841Y-77292685D01*
X90157836Y-76984315D01*
X89514875Y-76602835D01*
X89023658Y-76244499D01*
X88470960Y-75749713D01*
X87997556Y-75210419D01*
X87603602Y-74626853D01*
X87289251Y-73999251D01*
X87054659Y-73327848D01*
X86899980Y-72612882D01*
X86898775Y-72604723D01*
X86886694Y-72467037D01*
X86877733Y-72259262D01*
X86872310Y-72000611D01*
X86870844Y-71710295D01*
X86873752Y-71407527D01*
X86878013Y-71195332D01*
X86887884Y-70880495D01*
X86902015Y-70628211D01*
X86921915Y-70420280D01*
X86949091Y-70238508D01*
X86985051Y-70064696D01*
X87031524Y-69869144D01*
X87084445Y-69665123D01*
X87139962Y-69480606D01*
X87204578Y-69298848D01*
X87284796Y-69103101D01*
X87387118Y-68876621D01*
X87518046Y-68602660D01*
X87684084Y-68264472D01*
X88146331Y-67329122D01*
X89376840Y-68078277D01*
G37*
X89376840Y-68078277D02*
X89537892Y-68176356D01*
X89827000Y-68352562D01*
X90085464Y-68510278D01*
X90303858Y-68643738D01*
X90472753Y-68747179D01*
X90582722Y-68814838D01*
X90624337Y-68840950D01*
X90623094Y-68848212D01*
X90582368Y-68906716D01*
X90497849Y-69009498D01*
X90382647Y-69140318D01*
X90183605Y-69373300D01*
X89889273Y-69789224D01*
X89684088Y-70192767D01*
X89581623Y-70484378D01*
X89476905Y-70977617D01*
X89458344Y-71462239D01*
X89524675Y-71931216D01*
X89674633Y-72377520D01*
X89906954Y-72794124D01*
X90220375Y-73174000D01*
X90451220Y-73385376D01*
X90878203Y-73683162D01*
X91373694Y-73927507D01*
X91940233Y-74119582D01*
X92580356Y-74260554D01*
X92620096Y-74266950D01*
X92877663Y-74296498D01*
X93197686Y-74318494D01*
X93558297Y-74332761D01*
X93937630Y-74339121D01*
X94313818Y-74337395D01*
X94664993Y-74327406D01*
X94969289Y-74308976D01*
X95204839Y-74281925D01*
X95738409Y-74178243D01*
X96361688Y-74003784D01*
X96907360Y-73784374D01*
X97375002Y-73520306D01*
X97764192Y-73211874D01*
X98074507Y-72859370D01*
X98305526Y-72463088D01*
X98456825Y-72023322D01*
X98475603Y-71925752D01*
X98500123Y-71681240D01*
X98508127Y-71395489D01*
X98500054Y-71100511D01*
X98476345Y-70828321D01*
X98437438Y-70610932D01*
X98313554Y-70248789D01*
X98087387Y-69828529D01*
X97789755Y-69454324D01*
X97727058Y-69388277D01*
X97616133Y-69268601D01*
X97541472Y-69184019D01*
X97516636Y-69149658D01*
X97528515Y-69141198D01*
X97603517Y-69089125D01*
X97739703Y-68995052D01*
X97928053Y-68865195D01*
X98159550Y-68705769D01*
X98425175Y-68522990D01*
X98715911Y-68323074D01*
X99905477Y-67505377D01*
X99960206Y-67688045D01*
X99966408Y-67707106D01*
X100015668Y-67831187D01*
X100095101Y-68010081D01*
X100195150Y-68222794D01*
X100306261Y-68448331D01*
X100355388Y-68546610D01*
X100609011Y-69092340D01*
X100805138Y-69595333D01*
X100948784Y-70074934D01*
X101044968Y-70550490D01*
X101098705Y-71041345D01*
X101115013Y-71566846D01*
X101106733Y-71932558D01*
X101050579Y-72544252D01*
X100937328Y-73112518D01*
X100762217Y-73658493D01*
X100520476Y-74203311D01*
X100211826Y-74742623D01*
X99791056Y-75321410D01*
X99304567Y-75858141D01*
X98764401Y-76340996D01*
X98182601Y-76758157D01*
X97571209Y-77097804D01*
X97505804Y-77128634D01*
X96874494Y-77386828D01*
X96218491Y-77583019D01*
X95525263Y-77719740D01*
X94782277Y-77799528D01*
X93977001Y-77824918D01*
X93144555Y-77794047D01*
X92324757Y-77696060D01*
X91557333Y-77529436D01*
X90836841Y-77292685D01*
X90157836Y-76984315D01*
X89514875Y-76602835D01*
X89023658Y-76244499D01*
X88470960Y-75749713D01*
X87997556Y-75210419D01*
X87603602Y-74626853D01*
X87289251Y-73999251D01*
X87054659Y-73327848D01*
X86899980Y-72612882D01*
X86898775Y-72604723D01*
X86886694Y-72467037D01*
X86877733Y-72259262D01*
X86872310Y-72000611D01*
X86870844Y-71710295D01*
X86873752Y-71407527D01*
X86878013Y-71195332D01*
X86887884Y-70880495D01*
X86902015Y-70628211D01*
X86921915Y-70420280D01*
X86949091Y-70238508D01*
X86985051Y-70064696D01*
X87031524Y-69869144D01*
X87084445Y-69665123D01*
X87139962Y-69480606D01*
X87204578Y-69298848D01*
X87284796Y-69103101D01*
X87387118Y-68876621D01*
X87518046Y-68602660D01*
X87684084Y-68264472D01*
X88146331Y-67329122D01*
X89376840Y-68078277D01*
G36*
X86591087Y-97884558D02*
G01*
X86287018Y-97878741D01*
X86028108Y-97871675D01*
X85810593Y-97863242D01*
X85630710Y-97853323D01*
X85484692Y-97841800D01*
X85368778Y-97828554D01*
X85279202Y-97813467D01*
X85212201Y-97796420D01*
X85164011Y-97777295D01*
X85130867Y-97755974D01*
X85109005Y-97732337D01*
X85094661Y-97706267D01*
X85084072Y-97677645D01*
X85073473Y-97646352D01*
X85059100Y-97612271D01*
X85051897Y-97593095D01*
X85044031Y-97557919D01*
X85036824Y-97505652D01*
X85030248Y-97432597D01*
X85024273Y-97335056D01*
X85018870Y-97209332D01*
X85014010Y-97051728D01*
X85009666Y-96858545D01*
X85005807Y-96626087D01*
X85002405Y-96350656D01*
X84999431Y-96028555D01*
X84996856Y-95656086D01*
X84994651Y-95229552D01*
X84992788Y-94745256D01*
X84991237Y-94199499D01*
X84989969Y-93588585D01*
X84988956Y-92908816D01*
X84988169Y-92156495D01*
X84987579Y-91327925D01*
X84987156Y-90419407D01*
X84986894Y-89501613D01*
X87079379Y-89501613D01*
X87364543Y-89486828D01*
X87378872Y-89486112D01*
X87492871Y-89483305D01*
X87602097Y-89488625D01*
X87712533Y-89505630D01*
X87830162Y-89537879D01*
X87960967Y-89588931D01*
X88110931Y-89662344D01*
X88286036Y-89761678D01*
X88492267Y-89890491D01*
X88735605Y-90052341D01*
X89022033Y-90250789D01*
X89357536Y-90489391D01*
X89748095Y-90771709D01*
X90199694Y-91101299D01*
X90718316Y-91481721D01*
X92546461Y-92824552D01*
X90426780Y-92836383D01*
X90229057Y-92837432D01*
X89696481Y-92839281D01*
X89243488Y-92838440D01*
X88861508Y-92833919D01*
X88541967Y-92824728D01*
X88276292Y-92809876D01*
X88055912Y-92788375D01*
X87872254Y-92759233D01*
X87716745Y-92721461D01*
X87580813Y-92674068D01*
X87455884Y-92616066D01*
X87333387Y-92546462D01*
X87204749Y-92464268D01*
X87079570Y-92381645D01*
X87079570Y-96675601D01*
X87227509Y-96564685D01*
X87250913Y-96547314D01*
X87465416Y-96408439D01*
X87682256Y-96312706D01*
X87930720Y-96249841D01*
X88240098Y-96209575D01*
X88253584Y-96208469D01*
X88381196Y-96202626D01*
X88594108Y-96197350D01*
X88887455Y-96192665D01*
X89256372Y-96188593D01*
X89695994Y-96185157D01*
X90201456Y-96182381D01*
X90767892Y-96180286D01*
X91390437Y-96178896D01*
X92064227Y-96178235D01*
X92784396Y-96178324D01*
X93546079Y-96179186D01*
X94344410Y-96180846D01*
X95060514Y-96182603D01*
X95840011Y-96184483D01*
X96537428Y-96186335D01*
X97157652Y-96188389D01*
X97705570Y-96190879D01*
X98186068Y-96194036D01*
X98604031Y-96198094D01*
X98964346Y-96203285D01*
X99271898Y-96209840D01*
X99531575Y-96217993D01*
X99748261Y-96227976D01*
X99926843Y-96240021D01*
X100072208Y-96254360D01*
X100189241Y-96271226D01*
X100282828Y-96290851D01*
X100357856Y-96313468D01*
X100419211Y-96339309D01*
X100471778Y-96368606D01*
X100520443Y-96401592D01*
X100570094Y-96438498D01*
X100625616Y-96479559D01*
X100681253Y-96519273D01*
X100791261Y-96596034D01*
X100860663Y-96642013D01*
X100863570Y-96643123D01*
X100876695Y-96627069D01*
X100887646Y-96570413D01*
X100896591Y-96466851D01*
X100903699Y-96310080D01*
X100909138Y-96093794D01*
X100913076Y-95811689D01*
X100915681Y-95457462D01*
X100917121Y-95024808D01*
X100917563Y-94507422D01*
X100917563Y-92338503D01*
X100781714Y-92452812D01*
X100688410Y-92519061D01*
X100468416Y-92629336D01*
X100194805Y-92725973D01*
X99891300Y-92799730D01*
X99862487Y-92804431D01*
X99710594Y-92818418D01*
X99475846Y-92829011D01*
X99156617Y-92836236D01*
X98751283Y-92840123D01*
X98258218Y-92840699D01*
X97675797Y-92837993D01*
X95731342Y-92824552D01*
X97487028Y-91436201D01*
X97537319Y-91396436D01*
X97983026Y-91044364D01*
X98364733Y-90743788D01*
X98688930Y-90489925D01*
X98962108Y-90277992D01*
X99190756Y-90103205D01*
X99381364Y-89960781D01*
X99540424Y-89845935D01*
X99674424Y-89753885D01*
X99789856Y-89679847D01*
X99893209Y-89619038D01*
X99990974Y-89566673D01*
X100089640Y-89517970D01*
X100264289Y-89443047D01*
X100448529Y-89394647D01*
X100647256Y-89381773D01*
X100917563Y-89383066D01*
X100917563Y-84776664D01*
X100773465Y-84976952D01*
X100638034Y-85146341D01*
X100417134Y-85385026D01*
X100140283Y-85655753D01*
X99818033Y-85948272D01*
X99460932Y-86252329D01*
X99365437Y-86330631D01*
X99201650Y-86463943D01*
X98986769Y-86638201D01*
X98727965Y-86847631D01*
X98432411Y-87086461D01*
X98107278Y-87348916D01*
X97759739Y-87629226D01*
X97396965Y-87921615D01*
X97230466Y-88055725D01*
X97026128Y-88220311D01*
X96654401Y-88519542D01*
X96288955Y-88813534D01*
X95936963Y-89096514D01*
X95605596Y-89362709D01*
X95302026Y-89606346D01*
X95033425Y-89821653D01*
X94806966Y-90002855D01*
X94629820Y-90144180D01*
X94509160Y-90239855D01*
X94452156Y-90284107D01*
X94430736Y-90287759D01*
X94389993Y-90275610D01*
X94325895Y-90244128D01*
X94233896Y-90190171D01*
X94109449Y-90110595D01*
X93948007Y-90002259D01*
X93745023Y-89862019D01*
X93495951Y-89686734D01*
X93196244Y-89473261D01*
X92841355Y-89218457D01*
X92426738Y-88919180D01*
X91947847Y-88572287D01*
X91400134Y-88174636D01*
X90964159Y-87857791D01*
X90432672Y-87471232D01*
X89965923Y-87131204D01*
X89558734Y-86833751D01*
X89205923Y-86574920D01*
X88902311Y-86350756D01*
X88642717Y-86157304D01*
X88421962Y-85990612D01*
X88234866Y-85846723D01*
X88076248Y-85721685D01*
X87940928Y-85611542D01*
X87823726Y-85512340D01*
X87719463Y-85420126D01*
X87622958Y-85330943D01*
X87529030Y-85240840D01*
X87432501Y-85145860D01*
X87079570Y-84795841D01*
X87079475Y-87148727D01*
X87079379Y-89501613D01*
X84986894Y-89501613D01*
X84986873Y-89427244D01*
X84986700Y-88347740D01*
X84986666Y-88005647D01*
X84986645Y-86949571D01*
X84986777Y-85979760D01*
X84987091Y-85092558D01*
X84987613Y-84284313D01*
X84987938Y-83969246D01*
X87079570Y-83969246D01*
X87694086Y-83629570D01*
X96615950Y-83629570D01*
X97230466Y-83969246D01*
X97230466Y-80378118D01*
X92507796Y-80365135D01*
X87785126Y-80352151D01*
X87513242Y-80224846D01*
X87378483Y-80157728D01*
X87243488Y-80081726D01*
X87160464Y-80024332D01*
X87160305Y-80024188D01*
X87141015Y-80010254D01*
X87125065Y-80011571D01*
X87112138Y-80035716D01*
X87101919Y-80090269D01*
X87094089Y-80182809D01*
X87088333Y-80320914D01*
X87084334Y-80512163D01*
X87081775Y-80764136D01*
X87080339Y-81084411D01*
X87079710Y-81480568D01*
X87079570Y-81960185D01*
X87079570Y-83969246D01*
X84987938Y-83969246D01*
X84988368Y-83551370D01*
X84989384Y-82890077D01*
X84990688Y-82296780D01*
X84992304Y-81767824D01*
X84994261Y-81299556D01*
X84996585Y-80888322D01*
X84999302Y-80530469D01*
X85002439Y-80222343D01*
X85006021Y-79960290D01*
X85010077Y-79740656D01*
X85014632Y-79559788D01*
X85019712Y-79414033D01*
X85025345Y-79299736D01*
X85031557Y-79213243D01*
X85038374Y-79150901D01*
X85045823Y-79109057D01*
X85053930Y-79084056D01*
X85057538Y-79076101D01*
X85069390Y-79043538D01*
X85078045Y-79013676D01*
X85087274Y-78986394D01*
X85100844Y-78961572D01*
X85122526Y-78939088D01*
X85156090Y-78918821D01*
X85205304Y-78900650D01*
X85273937Y-78884454D01*
X85365760Y-78870112D01*
X85484542Y-78857503D01*
X85634052Y-78846506D01*
X85818060Y-78837000D01*
X86040334Y-78828863D01*
X86304645Y-78821975D01*
X86614762Y-78816214D01*
X86974454Y-78811460D01*
X87387491Y-78807592D01*
X87857641Y-78804488D01*
X88388676Y-78802027D01*
X88984363Y-78800088D01*
X89648472Y-78798551D01*
X90384774Y-78797294D01*
X91197036Y-78796195D01*
X92089029Y-78795135D01*
X93064522Y-78793992D01*
X94127285Y-78792645D01*
X94255944Y-78792470D01*
X95311972Y-78790968D01*
X96281171Y-78789531D01*
X97167311Y-78788266D01*
X97974163Y-78787279D01*
X98705499Y-78786678D01*
X99365091Y-78786567D01*
X99956708Y-78787054D01*
X100484122Y-78788244D01*
X100951105Y-78790244D01*
X101361427Y-78793161D01*
X101718859Y-78797100D01*
X102027173Y-78802169D01*
X102290140Y-78808473D01*
X102511531Y-78816118D01*
X102695116Y-78825212D01*
X102844668Y-78835859D01*
X102963957Y-78848168D01*
X103056755Y-78862243D01*
X103126831Y-78878192D01*
X103177959Y-78896120D01*
X103213908Y-78916135D01*
X103238450Y-78938342D01*
X103255356Y-78962847D01*
X103268397Y-78989757D01*
X103281344Y-79019179D01*
X103297968Y-79051218D01*
X103303266Y-79060593D01*
X103354545Y-79202450D01*
X103375620Y-79357741D01*
X103375613Y-79532796D01*
X102977323Y-79535714D01*
X102931490Y-79536453D01*
X102465596Y-79592094D01*
X102027231Y-79733806D01*
X101621040Y-79959622D01*
X101251665Y-80267572D01*
X101101012Y-80432826D01*
X100851304Y-80800781D01*
X100677172Y-81202255D01*
X100578706Y-81625555D01*
X100556001Y-82058988D01*
X100609150Y-82490861D01*
X100738246Y-82909482D01*
X100943382Y-83303159D01*
X101224651Y-83660197D01*
X101323811Y-83759450D01*
X101690960Y-84052810D01*
X102089402Y-84260973D01*
X102521707Y-84385053D01*
X102990444Y-84426165D01*
X103375628Y-84426165D01*
X103375628Y-90960505D01*
X103375646Y-91368739D01*
X103375764Y-92245743D01*
X103375851Y-93037990D01*
X103375731Y-93749862D01*
X103375233Y-94385741D01*
X103374182Y-94950006D01*
X103372406Y-95447039D01*
X103369731Y-95881222D01*
X103365985Y-96256934D01*
X103360994Y-96578558D01*
X103354584Y-96850473D01*
X103346583Y-97077062D01*
X103336817Y-97262706D01*
X103325114Y-97411784D01*
X103311299Y-97528679D01*
X103295200Y-97617771D01*
X103276644Y-97683442D01*
X103255457Y-97730072D01*
X103231466Y-97762042D01*
X103204498Y-97783735D01*
X103174380Y-97799529D01*
X103140938Y-97813807D01*
X103103999Y-97830950D01*
X103103396Y-97831258D01*
X103079216Y-97839581D01*
X103038727Y-97847216D01*
X102978193Y-97854191D01*
X102893876Y-97860535D01*
X102782041Y-97866278D01*
X102638951Y-97871448D01*
X102460870Y-97876075D01*
X102244060Y-97880187D01*
X101984786Y-97883814D01*
X101679311Y-97886984D01*
X101323898Y-97889726D01*
X100914811Y-97892069D01*
X100448313Y-97894043D01*
X99920668Y-97895676D01*
X99328140Y-97896997D01*
X98666991Y-97898036D01*
X97933485Y-97898820D01*
X97123887Y-97899380D01*
X96234458Y-97899744D01*
X95261463Y-97899941D01*
X94201165Y-97900000D01*
X93992868Y-97900003D01*
X92943621Y-97900104D01*
X91980937Y-97900260D01*
X91101053Y-97900351D01*
X90300205Y-97900260D01*
X89574629Y-97899869D01*
X88920560Y-97899057D01*
X88334235Y-97897707D01*
X87811889Y-97895701D01*
X87349758Y-97892920D01*
X87079570Y-97890472D01*
X86944079Y-97889245D01*
X86591087Y-97884558D01*
G37*
X86591087Y-97884558D02*
X86287018Y-97878741D01*
X86028108Y-97871675D01*
X85810593Y-97863242D01*
X85630710Y-97853323D01*
X85484692Y-97841800D01*
X85368778Y-97828554D01*
X85279202Y-97813467D01*
X85212201Y-97796420D01*
X85164011Y-97777295D01*
X85130867Y-97755974D01*
X85109005Y-97732337D01*
X85094661Y-97706267D01*
X85084072Y-97677645D01*
X85073473Y-97646352D01*
X85059100Y-97612271D01*
X85051897Y-97593095D01*
X85044031Y-97557919D01*
X85036824Y-97505652D01*
X85030248Y-97432597D01*
X85024273Y-97335056D01*
X85018870Y-97209332D01*
X85014010Y-97051728D01*
X85009666Y-96858545D01*
X85005807Y-96626087D01*
X85002405Y-96350656D01*
X84999431Y-96028555D01*
X84996856Y-95656086D01*
X84994651Y-95229552D01*
X84992788Y-94745256D01*
X84991237Y-94199499D01*
X84989969Y-93588585D01*
X84988956Y-92908816D01*
X84988169Y-92156495D01*
X84987579Y-91327925D01*
X84987156Y-90419407D01*
X84986894Y-89501613D01*
X87079379Y-89501613D01*
X87364543Y-89486828D01*
X87378872Y-89486112D01*
X87492871Y-89483305D01*
X87602097Y-89488625D01*
X87712533Y-89505630D01*
X87830162Y-89537879D01*
X87960967Y-89588931D01*
X88110931Y-89662344D01*
X88286036Y-89761678D01*
X88492267Y-89890491D01*
X88735605Y-90052341D01*
X89022033Y-90250789D01*
X89357536Y-90489391D01*
X89748095Y-90771709D01*
X90199694Y-91101299D01*
X90718316Y-91481721D01*
X92546461Y-92824552D01*
X90426780Y-92836383D01*
X90229057Y-92837432D01*
X89696481Y-92839281D01*
X89243488Y-92838440D01*
X88861508Y-92833919D01*
X88541967Y-92824728D01*
X88276292Y-92809876D01*
X88055912Y-92788375D01*
X87872254Y-92759233D01*
X87716745Y-92721461D01*
X87580813Y-92674068D01*
X87455884Y-92616066D01*
X87333387Y-92546462D01*
X87204749Y-92464268D01*
X87079570Y-92381645D01*
X87079570Y-96675601D01*
X87227509Y-96564685D01*
X87250913Y-96547314D01*
X87465416Y-96408439D01*
X87682256Y-96312706D01*
X87930720Y-96249841D01*
X88240098Y-96209575D01*
X88253584Y-96208469D01*
X88381196Y-96202626D01*
X88594108Y-96197350D01*
X88887455Y-96192665D01*
X89256372Y-96188593D01*
X89695994Y-96185157D01*
X90201456Y-96182381D01*
X90767892Y-96180286D01*
X91390437Y-96178896D01*
X92064227Y-96178235D01*
X92784396Y-96178324D01*
X93546079Y-96179186D01*
X94344410Y-96180846D01*
X95060514Y-96182603D01*
X95840011Y-96184483D01*
X96537428Y-96186335D01*
X97157652Y-96188389D01*
X97705570Y-96190879D01*
X98186068Y-96194036D01*
X98604031Y-96198094D01*
X98964346Y-96203285D01*
X99271898Y-96209840D01*
X99531575Y-96217993D01*
X99748261Y-96227976D01*
X99926843Y-96240021D01*
X100072208Y-96254360D01*
X100189241Y-96271226D01*
X100282828Y-96290851D01*
X100357856Y-96313468D01*
X100419211Y-96339309D01*
X100471778Y-96368606D01*
X100520443Y-96401592D01*
X100570094Y-96438498D01*
X100625616Y-96479559D01*
X100681253Y-96519273D01*
X100791261Y-96596034D01*
X100860663Y-96642013D01*
X100863570Y-96643123D01*
X100876695Y-96627069D01*
X100887646Y-96570413D01*
X100896591Y-96466851D01*
X100903699Y-96310080D01*
X100909138Y-96093794D01*
X100913076Y-95811689D01*
X100915681Y-95457462D01*
X100917121Y-95024808D01*
X100917563Y-94507422D01*
X100917563Y-92338503D01*
X100781714Y-92452812D01*
X100688410Y-92519061D01*
X100468416Y-92629336D01*
X100194805Y-92725973D01*
X99891300Y-92799730D01*
X99862487Y-92804431D01*
X99710594Y-92818418D01*
X99475846Y-92829011D01*
X99156617Y-92836236D01*
X98751283Y-92840123D01*
X98258218Y-92840699D01*
X97675797Y-92837993D01*
X95731342Y-92824552D01*
X97487028Y-91436201D01*
X97537319Y-91396436D01*
X97983026Y-91044364D01*
X98364733Y-90743788D01*
X98688930Y-90489925D01*
X98962108Y-90277992D01*
X99190756Y-90103205D01*
X99381364Y-89960781D01*
X99540424Y-89845935D01*
X99674424Y-89753885D01*
X99789856Y-89679847D01*
X99893209Y-89619038D01*
X99990974Y-89566673D01*
X100089640Y-89517970D01*
X100264289Y-89443047D01*
X100448529Y-89394647D01*
X100647256Y-89381773D01*
X100917563Y-89383066D01*
X100917563Y-84776664D01*
X100773465Y-84976952D01*
X100638034Y-85146341D01*
X100417134Y-85385026D01*
X100140283Y-85655753D01*
X99818033Y-85948272D01*
X99460932Y-86252329D01*
X99365437Y-86330631D01*
X99201650Y-86463943D01*
X98986769Y-86638201D01*
X98727965Y-86847631D01*
X98432411Y-87086461D01*
X98107278Y-87348916D01*
X97759739Y-87629226D01*
X97396965Y-87921615D01*
X97230466Y-88055725D01*
X97026128Y-88220311D01*
X96654401Y-88519542D01*
X96288955Y-88813534D01*
X95936963Y-89096514D01*
X95605596Y-89362709D01*
X95302026Y-89606346D01*
X95033425Y-89821653D01*
X94806966Y-90002855D01*
X94629820Y-90144180D01*
X94509160Y-90239855D01*
X94452156Y-90284107D01*
X94430736Y-90287759D01*
X94389993Y-90275610D01*
X94325895Y-90244128D01*
X94233896Y-90190171D01*
X94109449Y-90110595D01*
X93948007Y-90002259D01*
X93745023Y-89862019D01*
X93495951Y-89686734D01*
X93196244Y-89473261D01*
X92841355Y-89218457D01*
X92426738Y-88919180D01*
X91947847Y-88572287D01*
X91400134Y-88174636D01*
X90964159Y-87857791D01*
X90432672Y-87471232D01*
X89965923Y-87131204D01*
X89558734Y-86833751D01*
X89205923Y-86574920D01*
X88902311Y-86350756D01*
X88642717Y-86157304D01*
X88421962Y-85990612D01*
X88234866Y-85846723D01*
X88076248Y-85721685D01*
X87940928Y-85611542D01*
X87823726Y-85512340D01*
X87719463Y-85420126D01*
X87622958Y-85330943D01*
X87529030Y-85240840D01*
X87432501Y-85145860D01*
X87079570Y-84795841D01*
X87079475Y-87148727D01*
X87079379Y-89501613D01*
X84986894Y-89501613D01*
X84986873Y-89427244D01*
X84986700Y-88347740D01*
X84986666Y-88005647D01*
X84986645Y-86949571D01*
X84986777Y-85979760D01*
X84987091Y-85092558D01*
X84987613Y-84284313D01*
X84987938Y-83969246D01*
X87079570Y-83969246D01*
X87694086Y-83629570D01*
X96615950Y-83629570D01*
X97230466Y-83969246D01*
X97230466Y-80378118D01*
X92507796Y-80365135D01*
X87785126Y-80352151D01*
X87513242Y-80224846D01*
X87378483Y-80157728D01*
X87243488Y-80081726D01*
X87160464Y-80024332D01*
X87160305Y-80024188D01*
X87141015Y-80010254D01*
X87125065Y-80011571D01*
X87112138Y-80035716D01*
X87101919Y-80090269D01*
X87094089Y-80182809D01*
X87088333Y-80320914D01*
X87084334Y-80512163D01*
X87081775Y-80764136D01*
X87080339Y-81084411D01*
X87079710Y-81480568D01*
X87079570Y-81960185D01*
X87079570Y-83969246D01*
X84987938Y-83969246D01*
X84988368Y-83551370D01*
X84989384Y-82890077D01*
X84990688Y-82296780D01*
X84992304Y-81767824D01*
X84994261Y-81299556D01*
X84996585Y-80888322D01*
X84999302Y-80530469D01*
X85002439Y-80222343D01*
X85006021Y-79960290D01*
X85010077Y-79740656D01*
X85014632Y-79559788D01*
X85019712Y-79414033D01*
X85025345Y-79299736D01*
X85031557Y-79213243D01*
X85038374Y-79150901D01*
X85045823Y-79109057D01*
X85053930Y-79084056D01*
X85057538Y-79076101D01*
X85069390Y-79043538D01*
X85078045Y-79013676D01*
X85087274Y-78986394D01*
X85100844Y-78961572D01*
X85122526Y-78939088D01*
X85156090Y-78918821D01*
X85205304Y-78900650D01*
X85273937Y-78884454D01*
X85365760Y-78870112D01*
X85484542Y-78857503D01*
X85634052Y-78846506D01*
X85818060Y-78837000D01*
X86040334Y-78828863D01*
X86304645Y-78821975D01*
X86614762Y-78816214D01*
X86974454Y-78811460D01*
X87387491Y-78807592D01*
X87857641Y-78804488D01*
X88388676Y-78802027D01*
X88984363Y-78800088D01*
X89648472Y-78798551D01*
X90384774Y-78797294D01*
X91197036Y-78796195D01*
X92089029Y-78795135D01*
X93064522Y-78793992D01*
X94127285Y-78792645D01*
X94255944Y-78792470D01*
X95311972Y-78790968D01*
X96281171Y-78789531D01*
X97167311Y-78788266D01*
X97974163Y-78787279D01*
X98705499Y-78786678D01*
X99365091Y-78786567D01*
X99956708Y-78787054D01*
X100484122Y-78788244D01*
X100951105Y-78790244D01*
X101361427Y-78793161D01*
X101718859Y-78797100D01*
X102027173Y-78802169D01*
X102290140Y-78808473D01*
X102511531Y-78816118D01*
X102695116Y-78825212D01*
X102844668Y-78835859D01*
X102963957Y-78848168D01*
X103056755Y-78862243D01*
X103126831Y-78878192D01*
X103177959Y-78896120D01*
X103213908Y-78916135D01*
X103238450Y-78938342D01*
X103255356Y-78962847D01*
X103268397Y-78989757D01*
X103281344Y-79019179D01*
X103297968Y-79051218D01*
X103303266Y-79060593D01*
X103354545Y-79202450D01*
X103375620Y-79357741D01*
X103375613Y-79532796D01*
X102977323Y-79535714D01*
X102931490Y-79536453D01*
X102465596Y-79592094D01*
X102027231Y-79733806D01*
X101621040Y-79959622D01*
X101251665Y-80267572D01*
X101101012Y-80432826D01*
X100851304Y-80800781D01*
X100677172Y-81202255D01*
X100578706Y-81625555D01*
X100556001Y-82058988D01*
X100609150Y-82490861D01*
X100738246Y-82909482D01*
X100943382Y-83303159D01*
X101224651Y-83660197D01*
X101323811Y-83759450D01*
X101690960Y-84052810D01*
X102089402Y-84260973D01*
X102521707Y-84385053D01*
X102990444Y-84426165D01*
X103375628Y-84426165D01*
X103375628Y-90960505D01*
X103375646Y-91368739D01*
X103375764Y-92245743D01*
X103375851Y-93037990D01*
X103375731Y-93749862D01*
X103375233Y-94385741D01*
X103374182Y-94950006D01*
X103372406Y-95447039D01*
X103369731Y-95881222D01*
X103365985Y-96256934D01*
X103360994Y-96578558D01*
X103354584Y-96850473D01*
X103346583Y-97077062D01*
X103336817Y-97262706D01*
X103325114Y-97411784D01*
X103311299Y-97528679D01*
X103295200Y-97617771D01*
X103276644Y-97683442D01*
X103255457Y-97730072D01*
X103231466Y-97762042D01*
X103204498Y-97783735D01*
X103174380Y-97799529D01*
X103140938Y-97813807D01*
X103103999Y-97830950D01*
X103103396Y-97831258D01*
X103079216Y-97839581D01*
X103038727Y-97847216D01*
X102978193Y-97854191D01*
X102893876Y-97860535D01*
X102782041Y-97866278D01*
X102638951Y-97871448D01*
X102460870Y-97876075D01*
X102244060Y-97880187D01*
X101984786Y-97883814D01*
X101679311Y-97886984D01*
X101323898Y-97889726D01*
X100914811Y-97892069D01*
X100448313Y-97894043D01*
X99920668Y-97895676D01*
X99328140Y-97896997D01*
X98666991Y-97898036D01*
X97933485Y-97898820D01*
X97123887Y-97899380D01*
X96234458Y-97899744D01*
X95261463Y-97899941D01*
X94201165Y-97900000D01*
X93992868Y-97900003D01*
X92943621Y-97900104D01*
X91980937Y-97900260D01*
X91101053Y-97900351D01*
X90300205Y-97900260D01*
X89574629Y-97899869D01*
X88920560Y-97899057D01*
X88334235Y-97897707D01*
X87811889Y-97895701D01*
X87349758Y-97892920D01*
X87079570Y-97890472D01*
X86944079Y-97889245D01*
X86591087Y-97884558D01*
G36*
X82163872Y-78260200D02*
G01*
X82321813Y-78275933D01*
X82428823Y-78314898D01*
X82493999Y-78387463D01*
X82526434Y-78503993D01*
X82535223Y-78674853D01*
X82529463Y-78910408D01*
X82519423Y-79072476D01*
X82492115Y-79239796D01*
X82445271Y-79348108D01*
X82374485Y-79406305D01*
X82275353Y-79423276D01*
X82260214Y-79422922D01*
X82144235Y-79393915D01*
X82066178Y-79313883D01*
X82022178Y-79176332D01*
X82008370Y-78974771D01*
X82008370Y-78746519D01*
X81880529Y-78746519D01*
X81850078Y-78746686D01*
X81792575Y-78754088D01*
X81758262Y-78784979D01*
X81735137Y-78856248D01*
X81711196Y-78984786D01*
X81708084Y-79003033D01*
X81675072Y-79326201D01*
X81684802Y-79626173D01*
X81733903Y-79895865D01*
X81819005Y-80128195D01*
X81936739Y-80316078D01*
X82083736Y-80452431D01*
X82256625Y-80530169D01*
X82452038Y-80542211D01*
X82548354Y-80523815D01*
X82734653Y-80434871D01*
X82886851Y-80280908D01*
X83002972Y-80064304D01*
X83081034Y-79787431D01*
X83095863Y-79705182D01*
X83130861Y-79407420D01*
X83126763Y-79141396D01*
X83083646Y-78881087D01*
X83061014Y-78763942D01*
X83057622Y-78612484D01*
X83099393Y-78508101D01*
X83188683Y-78440922D01*
X83282840Y-78419642D01*
X83386921Y-78451264D01*
X83431671Y-78482360D01*
X83510110Y-78596475D01*
X83569682Y-78771882D01*
X83608004Y-79000271D01*
X83622693Y-79273334D01*
X83609404Y-79597168D01*
X83555019Y-79950522D01*
X83461515Y-80263230D01*
X83331827Y-80525881D01*
X83168888Y-80729062D01*
X83059349Y-80815962D01*
X82895353Y-80914321D01*
X82715826Y-80998561D01*
X82545269Y-81057392D01*
X82408187Y-81079526D01*
X82342469Y-81074328D01*
X82171361Y-81031188D01*
X81982940Y-80953979D01*
X81803217Y-80854339D01*
X81658203Y-80743911D01*
X81623709Y-80709923D01*
X81451127Y-80486305D01*
X81318152Y-80219220D01*
X81236814Y-79931852D01*
X81209772Y-79748638D01*
X81187758Y-79437128D01*
X81194715Y-79137861D01*
X81228865Y-78862895D01*
X81288432Y-78624286D01*
X81371639Y-78434092D01*
X81476707Y-78304371D01*
X81483294Y-78299785D01*
X81567380Y-78276160D01*
X81724882Y-78262030D01*
X81956430Y-78257334D01*
X82163872Y-78260200D01*
G37*
X82163872Y-78260200D02*
X82321813Y-78275933D01*
X82428823Y-78314898D01*
X82493999Y-78387463D01*
X82526434Y-78503993D01*
X82535223Y-78674853D01*
X82529463Y-78910408D01*
X82519423Y-79072476D01*
X82492115Y-79239796D01*
X82445271Y-79348108D01*
X82374485Y-79406305D01*
X82275353Y-79423276D01*
X82260214Y-79422922D01*
X82144235Y-79393915D01*
X82066178Y-79313883D01*
X82022178Y-79176332D01*
X82008370Y-78974771D01*
X82008370Y-78746519D01*
X81880529Y-78746519D01*
X81850078Y-78746686D01*
X81792575Y-78754088D01*
X81758262Y-78784979D01*
X81735137Y-78856248D01*
X81711196Y-78984786D01*
X81708084Y-79003033D01*
X81675072Y-79326201D01*
X81684802Y-79626173D01*
X81733903Y-79895865D01*
X81819005Y-80128195D01*
X81936739Y-80316078D01*
X82083736Y-80452431D01*
X82256625Y-80530169D01*
X82452038Y-80542211D01*
X82548354Y-80523815D01*
X82734653Y-80434871D01*
X82886851Y-80280908D01*
X83002972Y-80064304D01*
X83081034Y-79787431D01*
X83095863Y-79705182D01*
X83130861Y-79407420D01*
X83126763Y-79141396D01*
X83083646Y-78881087D01*
X83061014Y-78763942D01*
X83057622Y-78612484D01*
X83099393Y-78508101D01*
X83188683Y-78440922D01*
X83282840Y-78419642D01*
X83386921Y-78451264D01*
X83431671Y-78482360D01*
X83510110Y-78596475D01*
X83569682Y-78771882D01*
X83608004Y-79000271D01*
X83622693Y-79273334D01*
X83609404Y-79597168D01*
X83555019Y-79950522D01*
X83461515Y-80263230D01*
X83331827Y-80525881D01*
X83168888Y-80729062D01*
X83059349Y-80815962D01*
X82895353Y-80914321D01*
X82715826Y-80998561D01*
X82545269Y-81057392D01*
X82408187Y-81079526D01*
X82342469Y-81074328D01*
X82171361Y-81031188D01*
X81982940Y-80953979D01*
X81803217Y-80854339D01*
X81658203Y-80743911D01*
X81623709Y-80709923D01*
X81451127Y-80486305D01*
X81318152Y-80219220D01*
X81236814Y-79931852D01*
X81209772Y-79748638D01*
X81187758Y-79437128D01*
X81194715Y-79137861D01*
X81228865Y-78862895D01*
X81288432Y-78624286D01*
X81371639Y-78434092D01*
X81476707Y-78304371D01*
X81483294Y-78299785D01*
X81567380Y-78276160D01*
X81724882Y-78262030D01*
X81956430Y-78257334D01*
X82163872Y-78260200D01*
G36*
X83458131Y-59812433D02*
G01*
X83527738Y-59861290D01*
X83595409Y-59949965D01*
X83596551Y-59952484D01*
X83619886Y-60017783D01*
X83621652Y-60075966D01*
X83595073Y-60132340D01*
X83533369Y-60192208D01*
X83429764Y-60260876D01*
X83277480Y-60343650D01*
X83069738Y-60445834D01*
X82799762Y-60572733D01*
X82695152Y-60621512D01*
X82484541Y-60720675D01*
X82302521Y-60807657D01*
X82159033Y-60877638D01*
X82064022Y-60925795D01*
X82027432Y-60947304D01*
X82029368Y-60951833D01*
X82075860Y-60985139D01*
X82174320Y-61042777D01*
X82313043Y-61118099D01*
X82480324Y-61204461D01*
X82585285Y-61257703D01*
X82769798Y-61354203D01*
X82899854Y-61429164D01*
X82984779Y-61489883D01*
X83033895Y-61543652D01*
X83056528Y-61597768D01*
X83062000Y-61659523D01*
X83060416Y-61694531D01*
X83046392Y-61748252D01*
X83010180Y-61799298D01*
X82942604Y-61854625D01*
X82834487Y-61921188D01*
X82676653Y-62005941D01*
X82459926Y-62115840D01*
X82395742Y-62148283D01*
X82240180Y-62229809D01*
X82119638Y-62297260D01*
X82045009Y-62344368D01*
X82027185Y-62364866D01*
X82038088Y-62369423D01*
X82107787Y-62400671D01*
X82230916Y-62456874D01*
X82397086Y-62533261D01*
X82595912Y-62625065D01*
X82817006Y-62727516D01*
X83007742Y-62816565D01*
X83214372Y-62915310D01*
X83366837Y-62992213D01*
X83473640Y-63052142D01*
X83543285Y-63099966D01*
X83584275Y-63140553D01*
X83605112Y-63178773D01*
X83614754Y-63210138D01*
X83615249Y-63293823D01*
X83564108Y-63384298D01*
X83560824Y-63388633D01*
X83485372Y-63462246D01*
X83411289Y-63499075D01*
X83409158Y-63499229D01*
X83350284Y-63484093D01*
X83235064Y-63441212D01*
X83073914Y-63375350D01*
X82877248Y-63291268D01*
X82655483Y-63193730D01*
X82419031Y-63087498D01*
X82178310Y-62977335D01*
X81943734Y-62868003D01*
X81725718Y-62764265D01*
X81534677Y-62670883D01*
X81381026Y-62592620D01*
X81275180Y-62534239D01*
X81227555Y-62500502D01*
X81182992Y-62385810D01*
X81204198Y-62246818D01*
X81219854Y-62228937D01*
X81293691Y-62176174D01*
X81416226Y-62102168D01*
X81575284Y-62014111D01*
X81758689Y-61919198D01*
X82289500Y-61653286D01*
X81800861Y-61409330D01*
X81736559Y-61377011D01*
X81562066Y-61287081D01*
X81412768Y-61206987D01*
X81302819Y-61144439D01*
X81246370Y-61107151D01*
X81242226Y-61103333D01*
X81191270Y-61009596D01*
X81185659Y-60892722D01*
X81227555Y-60789252D01*
X81237052Y-60781165D01*
X81305803Y-60740298D01*
X81430973Y-60674508D01*
X81603734Y-60588159D01*
X81815257Y-60485618D01*
X82056715Y-60371249D01*
X82319280Y-60249417D01*
X82466358Y-60181948D01*
X82735449Y-60059372D01*
X82947710Y-59964517D01*
X83110825Y-59894435D01*
X83232478Y-59846178D01*
X83320351Y-59816798D01*
X83382129Y-59803345D01*
X83425494Y-59802873D01*
X83458131Y-59812433D01*
G37*
X83458131Y-59812433D02*
X83527738Y-59861290D01*
X83595409Y-59949965D01*
X83596551Y-59952484D01*
X83619886Y-60017783D01*
X83621652Y-60075966D01*
X83595073Y-60132340D01*
X83533369Y-60192208D01*
X83429764Y-60260876D01*
X83277480Y-60343650D01*
X83069738Y-60445834D01*
X82799762Y-60572733D01*
X82695152Y-60621512D01*
X82484541Y-60720675D01*
X82302521Y-60807657D01*
X82159033Y-60877638D01*
X82064022Y-60925795D01*
X82027432Y-60947304D01*
X82029368Y-60951833D01*
X82075860Y-60985139D01*
X82174320Y-61042777D01*
X82313043Y-61118099D01*
X82480324Y-61204461D01*
X82585285Y-61257703D01*
X82769798Y-61354203D01*
X82899854Y-61429164D01*
X82984779Y-61489883D01*
X83033895Y-61543652D01*
X83056528Y-61597768D01*
X83062000Y-61659523D01*
X83060416Y-61694531D01*
X83046392Y-61748252D01*
X83010180Y-61799298D01*
X82942604Y-61854625D01*
X82834487Y-61921188D01*
X82676653Y-62005941D01*
X82459926Y-62115840D01*
X82395742Y-62148283D01*
X82240180Y-62229809D01*
X82119638Y-62297260D01*
X82045009Y-62344368D01*
X82027185Y-62364866D01*
X82038088Y-62369423D01*
X82107787Y-62400671D01*
X82230916Y-62456874D01*
X82397086Y-62533261D01*
X82595912Y-62625065D01*
X82817006Y-62727516D01*
X83007742Y-62816565D01*
X83214372Y-62915310D01*
X83366837Y-62992213D01*
X83473640Y-63052142D01*
X83543285Y-63099966D01*
X83584275Y-63140553D01*
X83605112Y-63178773D01*
X83614754Y-63210138D01*
X83615249Y-63293823D01*
X83564108Y-63384298D01*
X83560824Y-63388633D01*
X83485372Y-63462246D01*
X83411289Y-63499075D01*
X83409158Y-63499229D01*
X83350284Y-63484093D01*
X83235064Y-63441212D01*
X83073914Y-63375350D01*
X82877248Y-63291268D01*
X82655483Y-63193730D01*
X82419031Y-63087498D01*
X82178310Y-62977335D01*
X81943734Y-62868003D01*
X81725718Y-62764265D01*
X81534677Y-62670883D01*
X81381026Y-62592620D01*
X81275180Y-62534239D01*
X81227555Y-62500502D01*
X81182992Y-62385810D01*
X81204198Y-62246818D01*
X81219854Y-62228937D01*
X81293691Y-62176174D01*
X81416226Y-62102168D01*
X81575284Y-62014111D01*
X81758689Y-61919198D01*
X82289500Y-61653286D01*
X81800861Y-61409330D01*
X81736559Y-61377011D01*
X81562066Y-61287081D01*
X81412768Y-61206987D01*
X81302819Y-61144439D01*
X81246370Y-61107151D01*
X81242226Y-61103333D01*
X81191270Y-61009596D01*
X81185659Y-60892722D01*
X81227555Y-60789252D01*
X81237052Y-60781165D01*
X81305803Y-60740298D01*
X81430973Y-60674508D01*
X81603734Y-60588159D01*
X81815257Y-60485618D01*
X82056715Y-60371249D01*
X82319280Y-60249417D01*
X82466358Y-60181948D01*
X82735449Y-60059372D01*
X82947710Y-59964517D01*
X83110825Y-59894435D01*
X83232478Y-59846178D01*
X83320351Y-59816798D01*
X83382129Y-59803345D01*
X83425494Y-59802873D01*
X83458131Y-59812433D01*
G36*
X81479418Y-69777211D02*
G01*
X81403016Y-69767448D01*
X81350343Y-69753858D01*
X81312270Y-69735811D01*
X81279667Y-69712677D01*
X81180518Y-69634686D01*
X81181847Y-69263852D01*
X81669703Y-69263852D01*
X83137259Y-69263852D01*
X83135765Y-68972223D01*
X83127512Y-68749158D01*
X83090007Y-68441164D01*
X83024876Y-68176781D01*
X82934962Y-67970198D01*
X82865868Y-67867066D01*
X82766648Y-67773332D01*
X82625221Y-67695534D01*
X82572000Y-67671777D01*
X82463661Y-67632364D01*
X82382225Y-67624264D01*
X82299797Y-67642973D01*
X82246871Y-67662060D01*
X82047176Y-67771825D01*
X81894665Y-67929621D01*
X81784214Y-68142172D01*
X81710699Y-68416202D01*
X81709026Y-68425515D01*
X81689151Y-68579800D01*
X81675058Y-68767787D01*
X81669703Y-68950911D01*
X81669703Y-69263852D01*
X81181847Y-69263852D01*
X81182498Y-69082380D01*
X81183491Y-68966394D01*
X81194926Y-68638116D01*
X81220535Y-68368244D01*
X81262393Y-68144596D01*
X81322576Y-67954985D01*
X81403160Y-67787228D01*
X81409549Y-67776033D01*
X81531943Y-67583327D01*
X81655162Y-67442148D01*
X81800114Y-67332759D01*
X81987704Y-67235426D01*
X82019755Y-67221153D01*
X82230375Y-67145895D01*
X82414968Y-67122658D01*
X82598390Y-67151330D01*
X82805497Y-67231803D01*
X82811140Y-67234455D01*
X83042545Y-67369294D01*
X83231208Y-67538242D01*
X83379767Y-67747327D01*
X83490862Y-68002580D01*
X83567131Y-68310030D01*
X83611214Y-68675706D01*
X83625751Y-69105637D01*
X83625766Y-69117543D01*
X83625300Y-69317610D01*
X83621845Y-69457379D01*
X83613199Y-69551091D01*
X83597158Y-69612988D01*
X83571519Y-69657312D01*
X83534080Y-69698303D01*
X83441717Y-69790667D01*
X82410266Y-69790667D01*
X82204914Y-69790582D01*
X81942298Y-69789832D01*
X81739930Y-69787773D01*
X81669703Y-69785917D01*
X81588680Y-69783776D01*
X81479418Y-69777211D01*
G37*
X81479418Y-69777211D02*
X81403016Y-69767448D01*
X81350343Y-69753858D01*
X81312270Y-69735811D01*
X81279667Y-69712677D01*
X81180518Y-69634686D01*
X81181847Y-69263852D01*
X81669703Y-69263852D01*
X83137259Y-69263852D01*
X83135765Y-68972223D01*
X83127512Y-68749158D01*
X83090007Y-68441164D01*
X83024876Y-68176781D01*
X82934962Y-67970198D01*
X82865868Y-67867066D01*
X82766648Y-67773332D01*
X82625221Y-67695534D01*
X82572000Y-67671777D01*
X82463661Y-67632364D01*
X82382225Y-67624264D01*
X82299797Y-67642973D01*
X82246871Y-67662060D01*
X82047176Y-67771825D01*
X81894665Y-67929621D01*
X81784214Y-68142172D01*
X81710699Y-68416202D01*
X81709026Y-68425515D01*
X81689151Y-68579800D01*
X81675058Y-68767787D01*
X81669703Y-68950911D01*
X81669703Y-69263852D01*
X81181847Y-69263852D01*
X81182498Y-69082380D01*
X81183491Y-68966394D01*
X81194926Y-68638116D01*
X81220535Y-68368244D01*
X81262393Y-68144596D01*
X81322576Y-67954985D01*
X81403160Y-67787228D01*
X81409549Y-67776033D01*
X81531943Y-67583327D01*
X81655162Y-67442148D01*
X81800114Y-67332759D01*
X81987704Y-67235426D01*
X82019755Y-67221153D01*
X82230375Y-67145895D01*
X82414968Y-67122658D01*
X82598390Y-67151330D01*
X82805497Y-67231803D01*
X82811140Y-67234455D01*
X83042545Y-67369294D01*
X83231208Y-67538242D01*
X83379767Y-67747327D01*
X83490862Y-68002580D01*
X83567131Y-68310030D01*
X83611214Y-68675706D01*
X83625751Y-69105637D01*
X83625766Y-69117543D01*
X83625300Y-69317610D01*
X83621845Y-69457379D01*
X83613199Y-69551091D01*
X83597158Y-69612988D01*
X83571519Y-69657312D01*
X83534080Y-69698303D01*
X83441717Y-69790667D01*
X82410266Y-69790667D01*
X82204914Y-69790582D01*
X81942298Y-69789832D01*
X81739930Y-69787773D01*
X81669703Y-69785917D01*
X81588680Y-69783776D01*
X81479418Y-69777211D01*
G36*
X83008578Y-93422724D02*
G01*
X82739862Y-93422903D01*
X82403481Y-93422074D01*
X82151277Y-93421943D01*
X81891579Y-93421093D01*
X81691546Y-93418947D01*
X81542454Y-93414932D01*
X81435580Y-93408477D01*
X81362199Y-93399010D01*
X81313587Y-93385959D01*
X81281021Y-93368751D01*
X81255777Y-93346815D01*
X81234997Y-93323591D01*
X81210663Y-93280264D01*
X81194819Y-93216438D01*
X81185693Y-93118425D01*
X81181517Y-92972539D01*
X81181326Y-92932889D01*
X81669703Y-92932889D01*
X83137259Y-92932889D01*
X83137307Y-92678889D01*
X83137276Y-92668796D01*
X83130728Y-92498397D01*
X83114978Y-92298054D01*
X83093217Y-92109025D01*
X83062229Y-91942499D01*
X82974668Y-91693327D01*
X82843671Y-91501629D01*
X82666889Y-91363292D01*
X82496001Y-91292569D01*
X82336581Y-91287844D01*
X82166797Y-91348783D01*
X82013740Y-91447684D01*
X81872375Y-91603341D01*
X81773033Y-91807971D01*
X81709248Y-92071794D01*
X81708452Y-92076760D01*
X81689147Y-92239996D01*
X81675345Y-92435643D01*
X81669988Y-92622445D01*
X81669703Y-92932889D01*
X81181326Y-92932889D01*
X81180518Y-92765093D01*
X81181769Y-92601938D01*
X81196531Y-92245740D01*
X81230156Y-91948314D01*
X81285450Y-91698987D01*
X81365218Y-91487083D01*
X81472263Y-91301928D01*
X81609392Y-91132848D01*
X81628901Y-91112887D01*
X81790597Y-90989997D01*
X81993291Y-90886331D01*
X82207435Y-90814722D01*
X82403481Y-90788000D01*
X82474203Y-90792264D01*
X82665588Y-90833304D01*
X82865291Y-90908400D01*
X83045456Y-91005834D01*
X83178225Y-91113888D01*
X83234967Y-91179027D01*
X83365593Y-91361400D01*
X83466025Y-91562410D01*
X83539227Y-91793064D01*
X83588166Y-92064369D01*
X83615805Y-92387333D01*
X83625109Y-92772963D01*
X83626447Y-92904571D01*
X83627824Y-93056941D01*
X83621810Y-93176276D01*
X83600869Y-93266578D01*
X83557468Y-93331852D01*
X83484073Y-93376100D01*
X83373149Y-93403327D01*
X83217162Y-93417534D01*
X83137259Y-93419523D01*
X83008578Y-93422724D01*
G37*
X83008578Y-93422724D02*
X82739862Y-93422903D01*
X82403481Y-93422074D01*
X82151277Y-93421943D01*
X81891579Y-93421093D01*
X81691546Y-93418947D01*
X81542454Y-93414932D01*
X81435580Y-93408477D01*
X81362199Y-93399010D01*
X81313587Y-93385959D01*
X81281021Y-93368751D01*
X81255777Y-93346815D01*
X81234997Y-93323591D01*
X81210663Y-93280264D01*
X81194819Y-93216438D01*
X81185693Y-93118425D01*
X81181517Y-92972539D01*
X81181326Y-92932889D01*
X81669703Y-92932889D01*
X83137259Y-92932889D01*
X83137307Y-92678889D01*
X83137276Y-92668796D01*
X83130728Y-92498397D01*
X83114978Y-92298054D01*
X83093217Y-92109025D01*
X83062229Y-91942499D01*
X82974668Y-91693327D01*
X82843671Y-91501629D01*
X82666889Y-91363292D01*
X82496001Y-91292569D01*
X82336581Y-91287844D01*
X82166797Y-91348783D01*
X82013740Y-91447684D01*
X81872375Y-91603341D01*
X81773033Y-91807971D01*
X81709248Y-92071794D01*
X81708452Y-92076760D01*
X81689147Y-92239996D01*
X81675345Y-92435643D01*
X81669988Y-92622445D01*
X81669703Y-92932889D01*
X81181326Y-92932889D01*
X81180518Y-92765093D01*
X81181769Y-92601938D01*
X81196531Y-92245740D01*
X81230156Y-91948314D01*
X81285450Y-91698987D01*
X81365218Y-91487083D01*
X81472263Y-91301928D01*
X81609392Y-91132848D01*
X81628901Y-91112887D01*
X81790597Y-90989997D01*
X81993291Y-90886331D01*
X82207435Y-90814722D01*
X82403481Y-90788000D01*
X82474203Y-90792264D01*
X82665588Y-90833304D01*
X82865291Y-90908400D01*
X83045456Y-91005834D01*
X83178225Y-91113888D01*
X83234967Y-91179027D01*
X83365593Y-91361400D01*
X83466025Y-91562410D01*
X83539227Y-91793064D01*
X83588166Y-92064369D01*
X83615805Y-92387333D01*
X83625109Y-92772963D01*
X83626447Y-92904571D01*
X83627824Y-93056941D01*
X83621810Y-93176276D01*
X83600869Y-93266578D01*
X83557468Y-93331852D01*
X83484073Y-93376100D01*
X83373149Y-93403327D01*
X83217162Y-93417534D01*
X83137259Y-93419523D01*
X83008578Y-93422724D01*
G36*
X82124071Y-74461449D02*
G01*
X82432830Y-74464507D01*
X83482671Y-74475556D01*
X83554557Y-74564391D01*
X83608529Y-74651275D01*
X83617765Y-74760804D01*
X83554590Y-74875906D01*
X83542641Y-74890278D01*
X83514209Y-74917386D01*
X83475569Y-74937483D01*
X83415884Y-74952019D01*
X83324313Y-74962445D01*
X83190019Y-74970209D01*
X83002162Y-74976763D01*
X82749904Y-74983556D01*
X82017072Y-75002371D01*
X82563053Y-75604445D01*
X82825164Y-75893571D01*
X83053141Y-76146143D01*
X83237639Y-76353265D01*
X83382208Y-76520259D01*
X83490398Y-76652449D01*
X83565758Y-76755159D01*
X83611839Y-76833713D01*
X83632190Y-76893433D01*
X83630361Y-76939644D01*
X83609903Y-76977669D01*
X83574364Y-77012831D01*
X83527295Y-77050454D01*
X83507425Y-77065297D01*
X83472441Y-77085292D01*
X83426357Y-77100557D01*
X83360008Y-77111728D01*
X83264227Y-77119443D01*
X83129849Y-77124335D01*
X82947709Y-77127042D01*
X82708642Y-77128200D01*
X82403481Y-77128445D01*
X82208380Y-77128369D01*
X81944755Y-77127641D01*
X81741614Y-77125610D01*
X81589792Y-77121641D01*
X81480122Y-77115097D01*
X81403441Y-77105343D01*
X81350581Y-77091742D01*
X81312379Y-77073657D01*
X81279667Y-77050454D01*
X81198357Y-76949025D01*
X81188758Y-76832550D01*
X81252393Y-76709280D01*
X81263977Y-76695334D01*
X81292402Y-76668081D01*
X81330905Y-76647878D01*
X81390347Y-76633270D01*
X81481587Y-76622798D01*
X81615486Y-76615005D01*
X81802905Y-76608435D01*
X82054703Y-76601630D01*
X82785139Y-76582815D01*
X81983004Y-75698519D01*
X81760416Y-75452405D01*
X81566696Y-75235141D01*
X81416836Y-75061159D01*
X81307097Y-74924244D01*
X81233738Y-74818181D01*
X81193020Y-74736754D01*
X81181202Y-74673747D01*
X81194546Y-74622944D01*
X81229309Y-74578131D01*
X81281753Y-74533090D01*
X81310031Y-74512273D01*
X81345290Y-74493501D01*
X81392483Y-74479464D01*
X81460658Y-74469624D01*
X81558859Y-74463441D01*
X81696131Y-74460377D01*
X81881520Y-74459893D01*
X82124071Y-74461449D01*
G37*
X82124071Y-74461449D02*
X82432830Y-74464507D01*
X83482671Y-74475556D01*
X83554557Y-74564391D01*
X83608529Y-74651275D01*
X83617765Y-74760804D01*
X83554590Y-74875906D01*
X83542641Y-74890278D01*
X83514209Y-74917386D01*
X83475569Y-74937483D01*
X83415884Y-74952019D01*
X83324313Y-74962445D01*
X83190019Y-74970209D01*
X83002162Y-74976763D01*
X82749904Y-74983556D01*
X82017072Y-75002371D01*
X82563053Y-75604445D01*
X82825164Y-75893571D01*
X83053141Y-76146143D01*
X83237639Y-76353265D01*
X83382208Y-76520259D01*
X83490398Y-76652449D01*
X83565758Y-76755159D01*
X83611839Y-76833713D01*
X83632190Y-76893433D01*
X83630361Y-76939644D01*
X83609903Y-76977669D01*
X83574364Y-77012831D01*
X83527295Y-77050454D01*
X83507425Y-77065297D01*
X83472441Y-77085292D01*
X83426357Y-77100557D01*
X83360008Y-77111728D01*
X83264227Y-77119443D01*
X83129849Y-77124335D01*
X82947709Y-77127042D01*
X82708642Y-77128200D01*
X82403481Y-77128445D01*
X82208380Y-77128369D01*
X81944755Y-77127641D01*
X81741614Y-77125610D01*
X81589792Y-77121641D01*
X81480122Y-77115097D01*
X81403441Y-77105343D01*
X81350581Y-77091742D01*
X81312379Y-77073657D01*
X81279667Y-77050454D01*
X81198357Y-76949025D01*
X81188758Y-76832550D01*
X81252393Y-76709280D01*
X81263977Y-76695334D01*
X81292402Y-76668081D01*
X81330905Y-76647878D01*
X81390347Y-76633270D01*
X81481587Y-76622798D01*
X81615486Y-76615005D01*
X81802905Y-76608435D01*
X82054703Y-76601630D01*
X82785139Y-76582815D01*
X81983004Y-75698519D01*
X81760416Y-75452405D01*
X81566696Y-75235141D01*
X81416836Y-75061159D01*
X81307097Y-74924244D01*
X81233738Y-74818181D01*
X81193020Y-74736754D01*
X81181202Y-74673747D01*
X81194546Y-74622944D01*
X81229309Y-74578131D01*
X81281753Y-74533090D01*
X81310031Y-74512273D01*
X81345290Y-74493501D01*
X81392483Y-74479464D01*
X81460658Y-74469624D01*
X81558859Y-74463441D01*
X81696131Y-74460377D01*
X81881520Y-74459893D01*
X82124071Y-74461449D01*
G36*
X82655685Y-82170947D02*
G01*
X82915383Y-82171797D01*
X83115416Y-82173943D01*
X83264508Y-82177958D01*
X83371382Y-82184412D01*
X83444763Y-82193879D01*
X83493375Y-82206931D01*
X83525941Y-82224138D01*
X83551185Y-82246074D01*
X83614589Y-82343353D01*
X83611789Y-82453788D01*
X83534080Y-82567637D01*
X83441717Y-82660000D01*
X82398209Y-82660000D01*
X82118109Y-82659864D01*
X81870704Y-82659002D01*
X81681529Y-82656766D01*
X81541626Y-82652507D01*
X81442035Y-82645577D01*
X81373797Y-82635328D01*
X81327953Y-82621112D01*
X81295544Y-82602279D01*
X81267610Y-82578182D01*
X81196063Y-82473304D01*
X81190176Y-82356086D01*
X81255777Y-82246074D01*
X81275339Y-82228385D01*
X81305619Y-82210220D01*
X81350090Y-82196334D01*
X81417477Y-82186153D01*
X81516504Y-82179106D01*
X81655894Y-82174621D01*
X81844370Y-82172125D01*
X82090658Y-82171047D01*
X82403481Y-82170815D01*
X82655685Y-82170947D01*
G37*
X82655685Y-82170947D02*
X82915383Y-82171797D01*
X83115416Y-82173943D01*
X83264508Y-82177958D01*
X83371382Y-82184412D01*
X83444763Y-82193879D01*
X83493375Y-82206931D01*
X83525941Y-82224138D01*
X83551185Y-82246074D01*
X83614589Y-82343353D01*
X83611789Y-82453788D01*
X83534080Y-82567637D01*
X83441717Y-82660000D01*
X82398209Y-82660000D01*
X82118109Y-82659864D01*
X81870704Y-82659002D01*
X81681529Y-82656766D01*
X81541626Y-82652507D01*
X81442035Y-82645577D01*
X81373797Y-82635328D01*
X81327953Y-82621112D01*
X81295544Y-82602279D01*
X81267610Y-82578182D01*
X81196063Y-82473304D01*
X81190176Y-82356086D01*
X81255777Y-82246074D01*
X81275339Y-82228385D01*
X81305619Y-82210220D01*
X81350090Y-82196334D01*
X81417477Y-82186153D01*
X81516504Y-82179106D01*
X81655894Y-82174621D01*
X81844370Y-82172125D01*
X82090658Y-82171047D01*
X82403481Y-82170815D01*
X82655685Y-82170947D01*
G36*
X81936578Y-83789358D02*
G01*
X82045517Y-83802268D01*
X82133936Y-83843550D01*
X82236764Y-83927434D01*
X82310565Y-83998140D01*
X82385718Y-84086127D01*
X82446942Y-84185184D01*
X82497796Y-84305948D01*
X82541835Y-84459056D01*
X82582619Y-84655145D01*
X82623704Y-84904852D01*
X82668648Y-85218815D01*
X82692014Y-85369855D01*
X82740544Y-85596370D01*
X82795542Y-85760155D01*
X82855202Y-85858713D01*
X82917718Y-85889547D01*
X82981284Y-85850160D01*
X83044096Y-85738054D01*
X83048142Y-85727900D01*
X83088402Y-85573370D01*
X83115737Y-85364536D01*
X83129605Y-85119756D01*
X83129462Y-84857390D01*
X83114769Y-84595796D01*
X83084982Y-84353334D01*
X83082818Y-84340244D01*
X83057128Y-84177523D01*
X83045089Y-84070017D01*
X83047081Y-84000026D01*
X83063485Y-83949847D01*
X83094681Y-83901778D01*
X83097582Y-83897879D01*
X83198828Y-83816155D01*
X83317166Y-83800178D01*
X83432437Y-83852867D01*
X83447291Y-83868019D01*
X83497756Y-83966734D01*
X83541500Y-84123339D01*
X83577499Y-84324353D01*
X83604729Y-84556292D01*
X83622163Y-84805675D01*
X83628777Y-85059020D01*
X83623547Y-85302844D01*
X83605447Y-85523665D01*
X83573453Y-85708000D01*
X83523916Y-85877609D01*
X83413474Y-86115317D01*
X83271199Y-86285839D01*
X83097650Y-86388584D01*
X82893390Y-86422963D01*
X82789227Y-86419841D01*
X82706570Y-86400532D01*
X82634337Y-86351175D01*
X82543169Y-86257933D01*
X82518740Y-86231339D01*
X82449063Y-86152308D01*
X82392495Y-86077661D01*
X82345984Y-85997548D01*
X82306480Y-85902122D01*
X82270934Y-85781533D01*
X82236295Y-85625932D01*
X82199514Y-85425471D01*
X82157539Y-85170300D01*
X82107321Y-84850571D01*
X82097207Y-84789358D01*
X82051805Y-84581592D01*
X81999360Y-84430867D01*
X81942456Y-84343254D01*
X81883675Y-84324824D01*
X81869440Y-84333560D01*
X81819224Y-84393334D01*
X81763777Y-84487087D01*
X81743809Y-84529751D01*
X81719833Y-84600746D01*
X81703909Y-84688700D01*
X81694513Y-84808181D01*
X81690121Y-84973758D01*
X81689208Y-85200000D01*
X81689453Y-85259283D01*
X81693156Y-85484687D01*
X81700573Y-85701149D01*
X81710794Y-85886567D01*
X81722909Y-86018836D01*
X81736470Y-86137207D01*
X81739079Y-86234715D01*
X81723747Y-86297718D01*
X81688164Y-86348095D01*
X81676187Y-86360283D01*
X81570274Y-86414756D01*
X81451428Y-86410357D01*
X81349365Y-86347167D01*
X81310679Y-86279265D01*
X81268362Y-86159320D01*
X81234864Y-86017908D01*
X81232867Y-86006405D01*
X81215479Y-85864174D01*
X81200901Y-85672885D01*
X81190608Y-85456162D01*
X81186078Y-85237630D01*
X81185938Y-85183522D01*
X81194197Y-84855814D01*
X81220884Y-84588974D01*
X81269323Y-84371708D01*
X81342836Y-84192722D01*
X81444748Y-84040720D01*
X81578381Y-83904410D01*
X81665802Y-83837339D01*
X81764294Y-83798586D01*
X81896682Y-83788889D01*
X81936578Y-83789358D01*
G37*
X81936578Y-83789358D02*
X82045517Y-83802268D01*
X82133936Y-83843550D01*
X82236764Y-83927434D01*
X82310565Y-83998140D01*
X82385718Y-84086127D01*
X82446942Y-84185184D01*
X82497796Y-84305948D01*
X82541835Y-84459056D01*
X82582619Y-84655145D01*
X82623704Y-84904852D01*
X82668648Y-85218815D01*
X82692014Y-85369855D01*
X82740544Y-85596370D01*
X82795542Y-85760155D01*
X82855202Y-85858713D01*
X82917718Y-85889547D01*
X82981284Y-85850160D01*
X83044096Y-85738054D01*
X83048142Y-85727900D01*
X83088402Y-85573370D01*
X83115737Y-85364536D01*
X83129605Y-85119756D01*
X83129462Y-84857390D01*
X83114769Y-84595796D01*
X83084982Y-84353334D01*
X83082818Y-84340244D01*
X83057128Y-84177523D01*
X83045089Y-84070017D01*
X83047081Y-84000026D01*
X83063485Y-83949847D01*
X83094681Y-83901778D01*
X83097582Y-83897879D01*
X83198828Y-83816155D01*
X83317166Y-83800178D01*
X83432437Y-83852867D01*
X83447291Y-83868019D01*
X83497756Y-83966734D01*
X83541500Y-84123339D01*
X83577499Y-84324353D01*
X83604729Y-84556292D01*
X83622163Y-84805675D01*
X83628777Y-85059020D01*
X83623547Y-85302844D01*
X83605447Y-85523665D01*
X83573453Y-85708000D01*
X83523916Y-85877609D01*
X83413474Y-86115317D01*
X83271199Y-86285839D01*
X83097650Y-86388584D01*
X82893390Y-86422963D01*
X82789227Y-86419841D01*
X82706570Y-86400532D01*
X82634337Y-86351175D01*
X82543169Y-86257933D01*
X82518740Y-86231339D01*
X82449063Y-86152308D01*
X82392495Y-86077661D01*
X82345984Y-85997548D01*
X82306480Y-85902122D01*
X82270934Y-85781533D01*
X82236295Y-85625932D01*
X82199514Y-85425471D01*
X82157539Y-85170300D01*
X82107321Y-84850571D01*
X82097207Y-84789358D01*
X82051805Y-84581592D01*
X81999360Y-84430867D01*
X81942456Y-84343254D01*
X81883675Y-84324824D01*
X81869440Y-84333560D01*
X81819224Y-84393334D01*
X81763777Y-84487087D01*
X81743809Y-84529751D01*
X81719833Y-84600746D01*
X81703909Y-84688700D01*
X81694513Y-84808181D01*
X81690121Y-84973758D01*
X81689208Y-85200000D01*
X81689453Y-85259283D01*
X81693156Y-85484687D01*
X81700573Y-85701149D01*
X81710794Y-85886567D01*
X81722909Y-86018836D01*
X81736470Y-86137207D01*
X81739079Y-86234715D01*
X81723747Y-86297718D01*
X81688164Y-86348095D01*
X81676187Y-86360283D01*
X81570274Y-86414756D01*
X81451428Y-86410357D01*
X81349365Y-86347167D01*
X81310679Y-86279265D01*
X81268362Y-86159320D01*
X81234864Y-86017908D01*
X81232867Y-86006405D01*
X81215479Y-85864174D01*
X81200901Y-85672885D01*
X81190608Y-85456162D01*
X81186078Y-85237630D01*
X81185938Y-85183522D01*
X81194197Y-84855814D01*
X81220884Y-84588974D01*
X81269323Y-84371708D01*
X81342836Y-84192722D01*
X81444748Y-84040720D01*
X81578381Y-83904410D01*
X81665802Y-83837339D01*
X81764294Y-83798586D01*
X81896682Y-83788889D01*
X81936578Y-83789358D01*
D12*
X107658578Y-23310000D02*
X107141422Y-23310000D01*
X107658578Y-21890000D02*
X107141422Y-21890000D01*
M02*
