G04 #@! TF.GenerationSoftware,KiCad,Pcbnew,(5.1.4)-1*
G04 #@! TF.CreationDate,2022-02-09T09:31:32-03:00*
G04 #@! TF.ProjectId,P_Inyectores_Rpi_pico,505f496e-7965-4637-946f-7265735f5270,rev?*
G04 #@! TF.SameCoordinates,Original*
G04 #@! TF.FileFunction,Legend,Top*
G04 #@! TF.FilePolarity,Positive*
%FSLAX46Y46*%
G04 Gerber Fmt 4.6, Leading zero omitted, Abs format (unit mm)*
G04 Created by KiCad (PCBNEW (5.1.4)-1) date 2022-02-09 09:31:32*
%MOMM*%
%LPD*%
G04 APERTURE LIST*
%ADD10C,0.175000*%
%ADD11C,0.125000*%
%ADD12C,0.150000*%
%ADD13C,0.120000*%
G04 APERTURE END LIST*
D10*
X150783333Y-146678571D02*
X150883333Y-146726190D01*
X150916666Y-146773809D01*
X150950000Y-146869047D01*
X150950000Y-147011904D01*
X150916666Y-147107142D01*
X150883333Y-147154761D01*
X150816666Y-147202380D01*
X150550000Y-147202380D01*
X150550000Y-146202380D01*
X150783333Y-146202380D01*
X150850000Y-146250000D01*
X150883333Y-146297619D01*
X150916666Y-146392857D01*
X150916666Y-146488095D01*
X150883333Y-146583333D01*
X150850000Y-146630952D01*
X150783333Y-146678571D01*
X150550000Y-146678571D01*
X151350000Y-147202380D02*
X151283333Y-147154761D01*
X151250000Y-147107142D01*
X151216666Y-147011904D01*
X151216666Y-146726190D01*
X151250000Y-146630952D01*
X151283333Y-146583333D01*
X151350000Y-146535714D01*
X151450000Y-146535714D01*
X151516666Y-146583333D01*
X151550000Y-146630952D01*
X151583333Y-146726190D01*
X151583333Y-147011904D01*
X151550000Y-147107142D01*
X151516666Y-147154761D01*
X151450000Y-147202380D01*
X151350000Y-147202380D01*
X151883333Y-147202380D02*
X151883333Y-146535714D01*
X151883333Y-146630952D02*
X151916666Y-146583333D01*
X151983333Y-146535714D01*
X152083333Y-146535714D01*
X152150000Y-146583333D01*
X152183333Y-146678571D01*
X152183333Y-147202380D01*
X152183333Y-146678571D02*
X152216666Y-146583333D01*
X152283333Y-146535714D01*
X152383333Y-146535714D01*
X152450000Y-146583333D01*
X152483333Y-146678571D01*
X152483333Y-147202380D01*
X152816666Y-147202380D02*
X152816666Y-146202380D01*
X152816666Y-146583333D02*
X152883333Y-146535714D01*
X153016666Y-146535714D01*
X153083333Y-146583333D01*
X153116666Y-146630952D01*
X153150000Y-146726190D01*
X153150000Y-147011904D01*
X153116666Y-147107142D01*
X153083333Y-147154761D01*
X153016666Y-147202380D01*
X152883333Y-147202380D01*
X152816666Y-147154761D01*
X153750000Y-147202380D02*
X153750000Y-146678571D01*
X153716666Y-146583333D01*
X153650000Y-146535714D01*
X153516666Y-146535714D01*
X153450000Y-146583333D01*
X153750000Y-147154761D02*
X153683333Y-147202380D01*
X153516666Y-147202380D01*
X153450000Y-147154761D01*
X153416666Y-147059523D01*
X153416666Y-146964285D01*
X153450000Y-146869047D01*
X153516666Y-146821428D01*
X153683333Y-146821428D01*
X153750000Y-146773809D01*
X154583333Y-146297619D02*
X154616666Y-146250000D01*
X154683333Y-146202380D01*
X154850000Y-146202380D01*
X154916666Y-146250000D01*
X154950000Y-146297619D01*
X154983333Y-146392857D01*
X154983333Y-146488095D01*
X154950000Y-146630952D01*
X154550000Y-147202380D01*
X154983333Y-147202380D01*
X143283333Y-146678571D02*
X143383333Y-146726190D01*
X143416666Y-146773809D01*
X143450000Y-146869047D01*
X143450000Y-147011904D01*
X143416666Y-147107142D01*
X143383333Y-147154761D01*
X143316666Y-147202380D01*
X143050000Y-147202380D01*
X143050000Y-146202380D01*
X143283333Y-146202380D01*
X143350000Y-146250000D01*
X143383333Y-146297619D01*
X143416666Y-146392857D01*
X143416666Y-146488095D01*
X143383333Y-146583333D01*
X143350000Y-146630952D01*
X143283333Y-146678571D01*
X143050000Y-146678571D01*
X143850000Y-147202380D02*
X143783333Y-147154761D01*
X143750000Y-147107142D01*
X143716666Y-147011904D01*
X143716666Y-146726190D01*
X143750000Y-146630952D01*
X143783333Y-146583333D01*
X143850000Y-146535714D01*
X143950000Y-146535714D01*
X144016666Y-146583333D01*
X144050000Y-146630952D01*
X144083333Y-146726190D01*
X144083333Y-147011904D01*
X144050000Y-147107142D01*
X144016666Y-147154761D01*
X143950000Y-147202380D01*
X143850000Y-147202380D01*
X144383333Y-147202380D02*
X144383333Y-146535714D01*
X144383333Y-146630952D02*
X144416666Y-146583333D01*
X144483333Y-146535714D01*
X144583333Y-146535714D01*
X144650000Y-146583333D01*
X144683333Y-146678571D01*
X144683333Y-147202380D01*
X144683333Y-146678571D02*
X144716666Y-146583333D01*
X144783333Y-146535714D01*
X144883333Y-146535714D01*
X144950000Y-146583333D01*
X144983333Y-146678571D01*
X144983333Y-147202380D01*
X145316666Y-147202380D02*
X145316666Y-146202380D01*
X145316666Y-146583333D02*
X145383333Y-146535714D01*
X145516666Y-146535714D01*
X145583333Y-146583333D01*
X145616666Y-146630952D01*
X145650000Y-146726190D01*
X145650000Y-147011904D01*
X145616666Y-147107142D01*
X145583333Y-147154761D01*
X145516666Y-147202380D01*
X145383333Y-147202380D01*
X145316666Y-147154761D01*
X146250000Y-147202380D02*
X146250000Y-146678571D01*
X146216666Y-146583333D01*
X146150000Y-146535714D01*
X146016666Y-146535714D01*
X145950000Y-146583333D01*
X146250000Y-147154761D02*
X146183333Y-147202380D01*
X146016666Y-147202380D01*
X145950000Y-147154761D01*
X145916666Y-147059523D01*
X145916666Y-146964285D01*
X145950000Y-146869047D01*
X146016666Y-146821428D01*
X146183333Y-146821428D01*
X146250000Y-146773809D01*
X147483333Y-147202380D02*
X147083333Y-147202380D01*
X147283333Y-147202380D02*
X147283333Y-146202380D01*
X147216666Y-146345238D01*
X147150000Y-146440476D01*
X147083333Y-146488095D01*
D11*
X191866666Y-116500000D02*
X191800000Y-116452380D01*
X191700000Y-116452380D01*
X191600000Y-116500000D01*
X191533333Y-116595238D01*
X191500000Y-116690476D01*
X191466666Y-116880952D01*
X191466666Y-117023809D01*
X191500000Y-117214285D01*
X191533333Y-117309523D01*
X191600000Y-117404761D01*
X191700000Y-117452380D01*
X191766666Y-117452380D01*
X191866666Y-117404761D01*
X191900000Y-117357142D01*
X191900000Y-117023809D01*
X191766666Y-117023809D01*
X192200000Y-117452380D02*
X192200000Y-116452380D01*
X192466666Y-116452380D01*
X192533333Y-116500000D01*
X192566666Y-116547619D01*
X192600000Y-116642857D01*
X192600000Y-116785714D01*
X192566666Y-116880952D01*
X192533333Y-116928571D01*
X192466666Y-116976190D01*
X192200000Y-116976190D01*
X192900000Y-117452380D02*
X192900000Y-116452380D01*
X193366666Y-116452380D02*
X193500000Y-116452380D01*
X193566666Y-116500000D01*
X193633333Y-116595238D01*
X193666666Y-116785714D01*
X193666666Y-117119047D01*
X193633333Y-117309523D01*
X193566666Y-117404761D01*
X193500000Y-117452380D01*
X193366666Y-117452380D01*
X193300000Y-117404761D01*
X193233333Y-117309523D01*
X193200000Y-117119047D01*
X193200000Y-116785714D01*
X193233333Y-116595238D01*
X193300000Y-116500000D01*
X193366666Y-116452380D01*
X194466666Y-116547619D02*
X194500000Y-116500000D01*
X194566666Y-116452380D01*
X194733333Y-116452380D01*
X194800000Y-116500000D01*
X194833333Y-116547619D01*
X194866666Y-116642857D01*
X194866666Y-116738095D01*
X194833333Y-116880952D01*
X194433333Y-117452380D01*
X194866666Y-117452380D01*
X195133333Y-116547619D02*
X195166666Y-116500000D01*
X195233333Y-116452380D01*
X195400000Y-116452380D01*
X195466666Y-116500000D01*
X195500000Y-116547619D01*
X195533333Y-116642857D01*
X195533333Y-116738095D01*
X195500000Y-116880952D01*
X195100000Y-117452380D01*
X195533333Y-117452380D01*
X191866666Y-113500000D02*
X191800000Y-113452380D01*
X191700000Y-113452380D01*
X191600000Y-113500000D01*
X191533333Y-113595238D01*
X191500000Y-113690476D01*
X191466666Y-113880952D01*
X191466666Y-114023809D01*
X191500000Y-114214285D01*
X191533333Y-114309523D01*
X191600000Y-114404761D01*
X191700000Y-114452380D01*
X191766666Y-114452380D01*
X191866666Y-114404761D01*
X191900000Y-114357142D01*
X191900000Y-114023809D01*
X191766666Y-114023809D01*
X192200000Y-114452380D02*
X192200000Y-113452380D01*
X192466666Y-113452380D01*
X192533333Y-113500000D01*
X192566666Y-113547619D01*
X192600000Y-113642857D01*
X192600000Y-113785714D01*
X192566666Y-113880952D01*
X192533333Y-113928571D01*
X192466666Y-113976190D01*
X192200000Y-113976190D01*
X192900000Y-114452380D02*
X192900000Y-113452380D01*
X193366666Y-113452380D02*
X193500000Y-113452380D01*
X193566666Y-113500000D01*
X193633333Y-113595238D01*
X193666666Y-113785714D01*
X193666666Y-114119047D01*
X193633333Y-114309523D01*
X193566666Y-114404761D01*
X193500000Y-114452380D01*
X193366666Y-114452380D01*
X193300000Y-114404761D01*
X193233333Y-114309523D01*
X193200000Y-114119047D01*
X193200000Y-113785714D01*
X193233333Y-113595238D01*
X193300000Y-113500000D01*
X193366666Y-113452380D01*
X194466666Y-113547619D02*
X194500000Y-113500000D01*
X194566666Y-113452380D01*
X194733333Y-113452380D01*
X194800000Y-113500000D01*
X194833333Y-113547619D01*
X194866666Y-113642857D01*
X194866666Y-113738095D01*
X194833333Y-113880952D01*
X194433333Y-114452380D01*
X194866666Y-114452380D01*
X195533333Y-114452380D02*
X195133333Y-114452380D01*
X195333333Y-114452380D02*
X195333333Y-113452380D01*
X195266666Y-113595238D01*
X195200000Y-113690476D01*
X195133333Y-113738095D01*
X191866666Y-111000000D02*
X191800000Y-110952380D01*
X191700000Y-110952380D01*
X191600000Y-111000000D01*
X191533333Y-111095238D01*
X191500000Y-111190476D01*
X191466666Y-111380952D01*
X191466666Y-111523809D01*
X191500000Y-111714285D01*
X191533333Y-111809523D01*
X191600000Y-111904761D01*
X191700000Y-111952380D01*
X191766666Y-111952380D01*
X191866666Y-111904761D01*
X191900000Y-111857142D01*
X191900000Y-111523809D01*
X191766666Y-111523809D01*
X192200000Y-111952380D02*
X192200000Y-110952380D01*
X192466666Y-110952380D01*
X192533333Y-111000000D01*
X192566666Y-111047619D01*
X192600000Y-111142857D01*
X192600000Y-111285714D01*
X192566666Y-111380952D01*
X192533333Y-111428571D01*
X192466666Y-111476190D01*
X192200000Y-111476190D01*
X192900000Y-111952380D02*
X192900000Y-110952380D01*
X193366666Y-110952380D02*
X193500000Y-110952380D01*
X193566666Y-111000000D01*
X193633333Y-111095238D01*
X193666666Y-111285714D01*
X193666666Y-111619047D01*
X193633333Y-111809523D01*
X193566666Y-111904761D01*
X193500000Y-111952380D01*
X193366666Y-111952380D01*
X193300000Y-111904761D01*
X193233333Y-111809523D01*
X193200000Y-111619047D01*
X193200000Y-111285714D01*
X193233333Y-111095238D01*
X193300000Y-111000000D01*
X193366666Y-110952380D01*
X194466666Y-111047619D02*
X194500000Y-111000000D01*
X194566666Y-110952380D01*
X194733333Y-110952380D01*
X194800000Y-111000000D01*
X194833333Y-111047619D01*
X194866666Y-111142857D01*
X194866666Y-111238095D01*
X194833333Y-111380952D01*
X194433333Y-111952380D01*
X194866666Y-111952380D01*
X195300000Y-110952380D02*
X195366666Y-110952380D01*
X195433333Y-111000000D01*
X195466666Y-111047619D01*
X195500000Y-111142857D01*
X195533333Y-111333333D01*
X195533333Y-111571428D01*
X195500000Y-111761904D01*
X195466666Y-111857142D01*
X195433333Y-111904761D01*
X195366666Y-111952380D01*
X195300000Y-111952380D01*
X195233333Y-111904761D01*
X195200000Y-111857142D01*
X195166666Y-111761904D01*
X195133333Y-111571428D01*
X195133333Y-111333333D01*
X195166666Y-111142857D01*
X195200000Y-111047619D01*
X195233333Y-111000000D01*
X195300000Y-110952380D01*
X191866666Y-108500000D02*
X191800000Y-108452380D01*
X191700000Y-108452380D01*
X191600000Y-108500000D01*
X191533333Y-108595238D01*
X191500000Y-108690476D01*
X191466666Y-108880952D01*
X191466666Y-109023809D01*
X191500000Y-109214285D01*
X191533333Y-109309523D01*
X191600000Y-109404761D01*
X191700000Y-109452380D01*
X191766666Y-109452380D01*
X191866666Y-109404761D01*
X191900000Y-109357142D01*
X191900000Y-109023809D01*
X191766666Y-109023809D01*
X192200000Y-109452380D02*
X192200000Y-108452380D01*
X192466666Y-108452380D01*
X192533333Y-108500000D01*
X192566666Y-108547619D01*
X192600000Y-108642857D01*
X192600000Y-108785714D01*
X192566666Y-108880952D01*
X192533333Y-108928571D01*
X192466666Y-108976190D01*
X192200000Y-108976190D01*
X192900000Y-109452380D02*
X192900000Y-108452380D01*
X193366666Y-108452380D02*
X193500000Y-108452380D01*
X193566666Y-108500000D01*
X193633333Y-108595238D01*
X193666666Y-108785714D01*
X193666666Y-109119047D01*
X193633333Y-109309523D01*
X193566666Y-109404761D01*
X193500000Y-109452380D01*
X193366666Y-109452380D01*
X193300000Y-109404761D01*
X193233333Y-109309523D01*
X193200000Y-109119047D01*
X193200000Y-108785714D01*
X193233333Y-108595238D01*
X193300000Y-108500000D01*
X193366666Y-108452380D01*
X194866666Y-109452380D02*
X194466666Y-109452380D01*
X194666666Y-109452380D02*
X194666666Y-108452380D01*
X194600000Y-108595238D01*
X194533333Y-108690476D01*
X194466666Y-108738095D01*
X195100000Y-108452380D02*
X195566666Y-108452380D01*
X195266666Y-109452380D01*
X191866666Y-106000000D02*
X191800000Y-105952380D01*
X191700000Y-105952380D01*
X191600000Y-106000000D01*
X191533333Y-106095238D01*
X191500000Y-106190476D01*
X191466666Y-106380952D01*
X191466666Y-106523809D01*
X191500000Y-106714285D01*
X191533333Y-106809523D01*
X191600000Y-106904761D01*
X191700000Y-106952380D01*
X191766666Y-106952380D01*
X191866666Y-106904761D01*
X191900000Y-106857142D01*
X191900000Y-106523809D01*
X191766666Y-106523809D01*
X192200000Y-106952380D02*
X192200000Y-105952380D01*
X192466666Y-105952380D01*
X192533333Y-106000000D01*
X192566666Y-106047619D01*
X192600000Y-106142857D01*
X192600000Y-106285714D01*
X192566666Y-106380952D01*
X192533333Y-106428571D01*
X192466666Y-106476190D01*
X192200000Y-106476190D01*
X192900000Y-106952380D02*
X192900000Y-105952380D01*
X193366666Y-105952380D02*
X193500000Y-105952380D01*
X193566666Y-106000000D01*
X193633333Y-106095238D01*
X193666666Y-106285714D01*
X193666666Y-106619047D01*
X193633333Y-106809523D01*
X193566666Y-106904761D01*
X193500000Y-106952380D01*
X193366666Y-106952380D01*
X193300000Y-106904761D01*
X193233333Y-106809523D01*
X193200000Y-106619047D01*
X193200000Y-106285714D01*
X193233333Y-106095238D01*
X193300000Y-106000000D01*
X193366666Y-105952380D01*
X194866666Y-106952380D02*
X194466666Y-106952380D01*
X194666666Y-106952380D02*
X194666666Y-105952380D01*
X194600000Y-106095238D01*
X194533333Y-106190476D01*
X194466666Y-106238095D01*
X195466666Y-105952380D02*
X195333333Y-105952380D01*
X195266666Y-106000000D01*
X195233333Y-106047619D01*
X195166666Y-106190476D01*
X195133333Y-106380952D01*
X195133333Y-106761904D01*
X195166666Y-106857142D01*
X195200000Y-106904761D01*
X195266666Y-106952380D01*
X195400000Y-106952380D01*
X195466666Y-106904761D01*
X195500000Y-106857142D01*
X195533333Y-106761904D01*
X195533333Y-106523809D01*
X195500000Y-106428571D01*
X195466666Y-106380952D01*
X195400000Y-106333333D01*
X195266666Y-106333333D01*
X195200000Y-106380952D01*
X195166666Y-106428571D01*
X195133333Y-106523809D01*
X191866666Y-103500000D02*
X191800000Y-103452380D01*
X191700000Y-103452380D01*
X191600000Y-103500000D01*
X191533333Y-103595238D01*
X191500000Y-103690476D01*
X191466666Y-103880952D01*
X191466666Y-104023809D01*
X191500000Y-104214285D01*
X191533333Y-104309523D01*
X191600000Y-104404761D01*
X191700000Y-104452380D01*
X191766666Y-104452380D01*
X191866666Y-104404761D01*
X191900000Y-104357142D01*
X191900000Y-104023809D01*
X191766666Y-104023809D01*
X192200000Y-104452380D02*
X192200000Y-103452380D01*
X192466666Y-103452380D01*
X192533333Y-103500000D01*
X192566666Y-103547619D01*
X192600000Y-103642857D01*
X192600000Y-103785714D01*
X192566666Y-103880952D01*
X192533333Y-103928571D01*
X192466666Y-103976190D01*
X192200000Y-103976190D01*
X192900000Y-104452380D02*
X192900000Y-103452380D01*
X193366666Y-103452380D02*
X193500000Y-103452380D01*
X193566666Y-103500000D01*
X193633333Y-103595238D01*
X193666666Y-103785714D01*
X193666666Y-104119047D01*
X193633333Y-104309523D01*
X193566666Y-104404761D01*
X193500000Y-104452380D01*
X193366666Y-104452380D01*
X193300000Y-104404761D01*
X193233333Y-104309523D01*
X193200000Y-104119047D01*
X193200000Y-103785714D01*
X193233333Y-103595238D01*
X193300000Y-103500000D01*
X193366666Y-103452380D01*
X194866666Y-104452380D02*
X194466666Y-104452380D01*
X194666666Y-104452380D02*
X194666666Y-103452380D01*
X194600000Y-103595238D01*
X194533333Y-103690476D01*
X194466666Y-103738095D01*
X195500000Y-103452380D02*
X195166666Y-103452380D01*
X195133333Y-103928571D01*
X195166666Y-103880952D01*
X195233333Y-103833333D01*
X195400000Y-103833333D01*
X195466666Y-103880952D01*
X195500000Y-103928571D01*
X195533333Y-104023809D01*
X195533333Y-104261904D01*
X195500000Y-104357142D01*
X195466666Y-104404761D01*
X195400000Y-104452380D01*
X195233333Y-104452380D01*
X195166666Y-104404761D01*
X195133333Y-104357142D01*
X191866666Y-101000000D02*
X191800000Y-100952380D01*
X191700000Y-100952380D01*
X191600000Y-101000000D01*
X191533333Y-101095238D01*
X191500000Y-101190476D01*
X191466666Y-101380952D01*
X191466666Y-101523809D01*
X191500000Y-101714285D01*
X191533333Y-101809523D01*
X191600000Y-101904761D01*
X191700000Y-101952380D01*
X191766666Y-101952380D01*
X191866666Y-101904761D01*
X191900000Y-101857142D01*
X191900000Y-101523809D01*
X191766666Y-101523809D01*
X192200000Y-101952380D02*
X192200000Y-100952380D01*
X192466666Y-100952380D01*
X192533333Y-101000000D01*
X192566666Y-101047619D01*
X192600000Y-101142857D01*
X192600000Y-101285714D01*
X192566666Y-101380952D01*
X192533333Y-101428571D01*
X192466666Y-101476190D01*
X192200000Y-101476190D01*
X192900000Y-101952380D02*
X192900000Y-100952380D01*
X193366666Y-100952380D02*
X193500000Y-100952380D01*
X193566666Y-101000000D01*
X193633333Y-101095238D01*
X193666666Y-101285714D01*
X193666666Y-101619047D01*
X193633333Y-101809523D01*
X193566666Y-101904761D01*
X193500000Y-101952380D01*
X193366666Y-101952380D01*
X193300000Y-101904761D01*
X193233333Y-101809523D01*
X193200000Y-101619047D01*
X193200000Y-101285714D01*
X193233333Y-101095238D01*
X193300000Y-101000000D01*
X193366666Y-100952380D01*
X194866666Y-101952380D02*
X194466666Y-101952380D01*
X194666666Y-101952380D02*
X194666666Y-100952380D01*
X194600000Y-101095238D01*
X194533333Y-101190476D01*
X194466666Y-101238095D01*
X195466666Y-101285714D02*
X195466666Y-101952380D01*
X195300000Y-100904761D02*
X195133333Y-101619047D01*
X195566666Y-101619047D01*
D12*
X195238095Y-58025000D02*
X195142857Y-57977380D01*
X195000000Y-57977380D01*
X194857142Y-58025000D01*
X194761904Y-58120238D01*
X194714285Y-58215476D01*
X194666666Y-58405952D01*
X194666666Y-58548809D01*
X194714285Y-58739285D01*
X194761904Y-58834523D01*
X194857142Y-58929761D01*
X195000000Y-58977380D01*
X195095238Y-58977380D01*
X195238095Y-58929761D01*
X195285714Y-58882142D01*
X195285714Y-58548809D01*
X195095238Y-58548809D01*
X195714285Y-58977380D02*
X195714285Y-57977380D01*
X196285714Y-58977380D01*
X196285714Y-57977380D01*
X196761904Y-58977380D02*
X196761904Y-57977380D01*
X197000000Y-57977380D01*
X197142857Y-58025000D01*
X197238095Y-58120238D01*
X197285714Y-58215476D01*
X197333333Y-58405952D01*
X197333333Y-58548809D01*
X197285714Y-58739285D01*
X197238095Y-58834523D01*
X197142857Y-58929761D01*
X197000000Y-58977380D01*
X196761904Y-58977380D01*
X195238095Y-59627380D02*
X195809523Y-59627380D01*
X195523809Y-60627380D02*
X195523809Y-59627380D01*
X196047619Y-59627380D02*
X196714285Y-60627380D01*
X196714285Y-59627380D02*
X196047619Y-60627380D01*
X195833333Y-62277380D02*
X195500000Y-61801190D01*
X195261904Y-62277380D02*
X195261904Y-61277380D01*
X195642857Y-61277380D01*
X195738095Y-61325000D01*
X195785714Y-61372619D01*
X195833333Y-61467857D01*
X195833333Y-61610714D01*
X195785714Y-61705952D01*
X195738095Y-61753571D01*
X195642857Y-61801190D01*
X195261904Y-61801190D01*
X196166666Y-61277380D02*
X196833333Y-62277380D01*
X196833333Y-61277380D02*
X196166666Y-62277380D01*
X194714285Y-63546428D02*
X195476190Y-63546428D01*
X195095238Y-63927380D02*
X195095238Y-63165476D01*
X196428571Y-62927380D02*
X195952380Y-62927380D01*
X195904761Y-63403571D01*
X195952380Y-63355952D01*
X196047619Y-63308333D01*
X196285714Y-63308333D01*
X196380952Y-63355952D01*
X196428571Y-63403571D01*
X196476190Y-63498809D01*
X196476190Y-63736904D01*
X196428571Y-63832142D01*
X196380952Y-63879761D01*
X196285714Y-63927380D01*
X196047619Y-63927380D01*
X195952380Y-63879761D01*
X195904761Y-63832142D01*
X196761904Y-62927380D02*
X197095238Y-63927380D01*
X197428571Y-62927380D01*
X100547619Y-61214285D02*
X100547619Y-60642857D01*
X100547619Y-60928571D02*
X101547619Y-60928571D01*
X101404761Y-60833333D01*
X101309523Y-60738095D01*
X101261904Y-60642857D01*
X101452380Y-61595238D02*
X101500000Y-61642857D01*
X101547619Y-61738095D01*
X101547619Y-61976190D01*
X101500000Y-62071428D01*
X101452380Y-62119047D01*
X101357142Y-62166666D01*
X101261904Y-62166666D01*
X101119047Y-62119047D01*
X100547619Y-61547619D01*
X100547619Y-62166666D01*
X101547619Y-62452380D02*
X100547619Y-62785714D01*
X101547619Y-63119047D01*
X100547619Y-63880952D02*
X101547619Y-63880952D01*
X100595238Y-63880952D02*
X100547619Y-63785714D01*
X100547619Y-63595238D01*
X100595238Y-63500000D01*
X100642857Y-63452380D01*
X100738095Y-63404761D01*
X101023809Y-63404761D01*
X101119047Y-63452380D01*
X101166666Y-63500000D01*
X101214285Y-63595238D01*
X101214285Y-63785714D01*
X101166666Y-63880952D01*
X100595238Y-64785714D02*
X100547619Y-64690476D01*
X100547619Y-64500000D01*
X100595238Y-64404761D01*
X100642857Y-64357142D01*
X100738095Y-64309523D01*
X101023809Y-64309523D01*
X101119047Y-64357142D01*
X101166666Y-64404761D01*
X101214285Y-64500000D01*
X101214285Y-64690476D01*
X101166666Y-64785714D01*
X101500000Y-67261904D02*
X101547619Y-67166666D01*
X101547619Y-67023809D01*
X101500000Y-66880952D01*
X101404761Y-66785714D01*
X101309523Y-66738095D01*
X101119047Y-66690476D01*
X100976190Y-66690476D01*
X100785714Y-66738095D01*
X100690476Y-66785714D01*
X100595238Y-66880952D01*
X100547619Y-67023809D01*
X100547619Y-67119047D01*
X100595238Y-67261904D01*
X100642857Y-67309523D01*
X100976190Y-67309523D01*
X100976190Y-67119047D01*
X100547619Y-67738095D02*
X101547619Y-67738095D01*
X100547619Y-68309523D01*
X101547619Y-68309523D01*
X100547619Y-68785714D02*
X101547619Y-68785714D01*
X101547619Y-69023809D01*
X101500000Y-69166666D01*
X101404761Y-69261904D01*
X101309523Y-69309523D01*
X101119047Y-69357142D01*
X100976190Y-69357142D01*
X100785714Y-69309523D01*
X100690476Y-69261904D01*
X100595238Y-69166666D01*
X100547619Y-69023809D01*
X100547619Y-68785714D01*
X100547619Y-131238095D02*
X101023809Y-130904761D01*
X100547619Y-130666666D02*
X101547619Y-130666666D01*
X101547619Y-131047619D01*
X101500000Y-131142857D01*
X101452380Y-131190476D01*
X101357142Y-131238095D01*
X101214285Y-131238095D01*
X101119047Y-131190476D01*
X101071428Y-131142857D01*
X101023809Y-131047619D01*
X101023809Y-130666666D01*
X100595238Y-132047619D02*
X100547619Y-131952380D01*
X100547619Y-131761904D01*
X100595238Y-131666666D01*
X100690476Y-131619047D01*
X101071428Y-131619047D01*
X101166666Y-131666666D01*
X101214285Y-131761904D01*
X101214285Y-131952380D01*
X101166666Y-132047619D01*
X101071428Y-132095238D01*
X100976190Y-132095238D01*
X100880952Y-131619047D01*
X100547619Y-132666666D02*
X100595238Y-132571428D01*
X100690476Y-132523809D01*
X101547619Y-132523809D01*
X100595238Y-133428571D02*
X100547619Y-133333333D01*
X100547619Y-133142857D01*
X100595238Y-133047619D01*
X100690476Y-133000000D01*
X101071428Y-133000000D01*
X101166666Y-133047619D01*
X101214285Y-133142857D01*
X101214285Y-133333333D01*
X101166666Y-133428571D01*
X101071428Y-133476190D01*
X100976190Y-133476190D01*
X100880952Y-133000000D01*
X101452380Y-133857142D02*
X101500000Y-133904761D01*
X101547619Y-134000000D01*
X101547619Y-134238095D01*
X101500000Y-134333333D01*
X101452380Y-134380952D01*
X101357142Y-134428571D01*
X101261904Y-134428571D01*
X101119047Y-134380952D01*
X100547619Y-133809523D01*
X100547619Y-134428571D01*
X100642857Y-136190476D02*
X100595238Y-136142857D01*
X100547619Y-136000000D01*
X100547619Y-135904761D01*
X100595238Y-135761904D01*
X100690476Y-135666666D01*
X100785714Y-135619047D01*
X100976190Y-135571428D01*
X101119047Y-135571428D01*
X101309523Y-135619047D01*
X101404761Y-135666666D01*
X101500000Y-135761904D01*
X101547619Y-135904761D01*
X101547619Y-136000000D01*
X101500000Y-136142857D01*
X101452380Y-136190476D01*
X100547619Y-136761904D02*
X100595238Y-136666666D01*
X100642857Y-136619047D01*
X100738095Y-136571428D01*
X101023809Y-136571428D01*
X101119047Y-136619047D01*
X101166666Y-136666666D01*
X101214285Y-136761904D01*
X101214285Y-136904761D01*
X101166666Y-137000000D01*
X101119047Y-137047619D01*
X101023809Y-137095238D01*
X100738095Y-137095238D01*
X100642857Y-137047619D01*
X100595238Y-137000000D01*
X100547619Y-136904761D01*
X100547619Y-136761904D01*
X100547619Y-137523809D02*
X101214285Y-137523809D01*
X101119047Y-137523809D02*
X101166666Y-137571428D01*
X101214285Y-137666666D01*
X101214285Y-137809523D01*
X101166666Y-137904761D01*
X101071428Y-137952380D01*
X100547619Y-137952380D01*
X101071428Y-137952380D02*
X101166666Y-138000000D01*
X101214285Y-138095238D01*
X101214285Y-138238095D01*
X101166666Y-138333333D01*
X101071428Y-138380952D01*
X100547619Y-138380952D01*
X101452380Y-138809523D02*
X101500000Y-138857142D01*
X101547619Y-138952380D01*
X101547619Y-139190476D01*
X101500000Y-139285714D01*
X101452380Y-139333333D01*
X101357142Y-139380952D01*
X101261904Y-139380952D01*
X101119047Y-139333333D01*
X100547619Y-138761904D01*
X100547619Y-139380952D01*
X100547619Y-120238095D02*
X101023809Y-119904761D01*
X100547619Y-119666666D02*
X101547619Y-119666666D01*
X101547619Y-120047619D01*
X101500000Y-120142857D01*
X101452380Y-120190476D01*
X101357142Y-120238095D01*
X101214285Y-120238095D01*
X101119047Y-120190476D01*
X101071428Y-120142857D01*
X101023809Y-120047619D01*
X101023809Y-119666666D01*
X100595238Y-121047619D02*
X100547619Y-120952380D01*
X100547619Y-120761904D01*
X100595238Y-120666666D01*
X100690476Y-120619047D01*
X101071428Y-120619047D01*
X101166666Y-120666666D01*
X101214285Y-120761904D01*
X101214285Y-120952380D01*
X101166666Y-121047619D01*
X101071428Y-121095238D01*
X100976190Y-121095238D01*
X100880952Y-120619047D01*
X100547619Y-121666666D02*
X100595238Y-121571428D01*
X100690476Y-121523809D01*
X101547619Y-121523809D01*
X100595238Y-122428571D02*
X100547619Y-122333333D01*
X100547619Y-122142857D01*
X100595238Y-122047619D01*
X100690476Y-122000000D01*
X101071428Y-122000000D01*
X101166666Y-122047619D01*
X101214285Y-122142857D01*
X101214285Y-122333333D01*
X101166666Y-122428571D01*
X101071428Y-122476190D01*
X100976190Y-122476190D01*
X100880952Y-122000000D01*
X100547619Y-123428571D02*
X100547619Y-122857142D01*
X100547619Y-123142857D02*
X101547619Y-123142857D01*
X101404761Y-123047619D01*
X101309523Y-122952380D01*
X101261904Y-122857142D01*
X100642857Y-125190476D02*
X100595238Y-125142857D01*
X100547619Y-125000000D01*
X100547619Y-124904761D01*
X100595238Y-124761904D01*
X100690476Y-124666666D01*
X100785714Y-124619047D01*
X100976190Y-124571428D01*
X101119047Y-124571428D01*
X101309523Y-124619047D01*
X101404761Y-124666666D01*
X101500000Y-124761904D01*
X101547619Y-124904761D01*
X101547619Y-125000000D01*
X101500000Y-125142857D01*
X101452380Y-125190476D01*
X100547619Y-125761904D02*
X100595238Y-125666666D01*
X100642857Y-125619047D01*
X100738095Y-125571428D01*
X101023809Y-125571428D01*
X101119047Y-125619047D01*
X101166666Y-125666666D01*
X101214285Y-125761904D01*
X101214285Y-125904761D01*
X101166666Y-126000000D01*
X101119047Y-126047619D01*
X101023809Y-126095238D01*
X100738095Y-126095238D01*
X100642857Y-126047619D01*
X100595238Y-126000000D01*
X100547619Y-125904761D01*
X100547619Y-125761904D01*
X100547619Y-126523809D02*
X101214285Y-126523809D01*
X101119047Y-126523809D02*
X101166666Y-126571428D01*
X101214285Y-126666666D01*
X101214285Y-126809523D01*
X101166666Y-126904761D01*
X101071428Y-126952380D01*
X100547619Y-126952380D01*
X101071428Y-126952380D02*
X101166666Y-127000000D01*
X101214285Y-127095238D01*
X101214285Y-127238095D01*
X101166666Y-127333333D01*
X101071428Y-127380952D01*
X100547619Y-127380952D01*
X100547619Y-128380952D02*
X100547619Y-127809523D01*
X100547619Y-128095238D02*
X101547619Y-128095238D01*
X101404761Y-128000000D01*
X101309523Y-127904761D01*
X101261904Y-127809523D01*
X101357142Y-106476190D02*
X101357142Y-108000000D01*
X100595238Y-107238095D02*
X102119047Y-107238095D01*
X101357142Y-112000000D02*
X101357142Y-113523809D01*
X101557142Y-95676190D02*
X101557142Y-97200000D01*
X100795238Y-96438095D02*
X102319047Y-96438095D01*
X101557142Y-101200000D02*
X101557142Y-102723809D01*
X101357142Y-84476190D02*
X101357142Y-86000000D01*
X100595238Y-85238095D02*
X102119047Y-85238095D01*
X101357142Y-90000000D02*
X101357142Y-91523809D01*
X101357142Y-73476190D02*
X101357142Y-75000000D01*
X100595238Y-74238095D02*
X102119047Y-74238095D01*
X101357142Y-79000000D02*
X101357142Y-80523809D01*
X146857142Y-120547619D02*
X146904761Y-120595238D01*
X146952380Y-120738095D01*
X146952380Y-120833333D01*
X146904761Y-120976190D01*
X146809523Y-121071428D01*
X146714285Y-121119047D01*
X146523809Y-121166666D01*
X146380952Y-121166666D01*
X146190476Y-121119047D01*
X146095238Y-121071428D01*
X146000000Y-120976190D01*
X145952380Y-120833333D01*
X145952380Y-120738095D01*
X146000000Y-120595238D01*
X146047619Y-120547619D01*
X145952380Y-119928571D02*
X145952380Y-119738095D01*
X146000000Y-119642857D01*
X146095238Y-119547619D01*
X146285714Y-119500000D01*
X146619047Y-119500000D01*
X146809523Y-119547619D01*
X146904761Y-119642857D01*
X146952380Y-119738095D01*
X146952380Y-119928571D01*
X146904761Y-120023809D01*
X146809523Y-120119047D01*
X146619047Y-120166666D01*
X146285714Y-120166666D01*
X146095238Y-120119047D01*
X146000000Y-120023809D01*
X145952380Y-119928571D01*
X146952380Y-119071428D02*
X145952380Y-119071428D01*
X146952380Y-118500000D01*
X145952380Y-118500000D01*
X145952380Y-118166666D02*
X145952380Y-117595238D01*
X146952380Y-117880952D02*
X145952380Y-117880952D01*
X146952380Y-116690476D02*
X146476190Y-117023809D01*
X146952380Y-117261904D02*
X145952380Y-117261904D01*
X145952380Y-116880952D01*
X146000000Y-116785714D01*
X146047619Y-116738095D01*
X146142857Y-116690476D01*
X146285714Y-116690476D01*
X146380952Y-116738095D01*
X146428571Y-116785714D01*
X146476190Y-116880952D01*
X146476190Y-117261904D01*
X145952380Y-116071428D02*
X145952380Y-115880952D01*
X146000000Y-115785714D01*
X146095238Y-115690476D01*
X146285714Y-115642857D01*
X146619047Y-115642857D01*
X146809523Y-115690476D01*
X146904761Y-115785714D01*
X146952380Y-115880952D01*
X146952380Y-116071428D01*
X146904761Y-116166666D01*
X146809523Y-116261904D01*
X146619047Y-116309523D01*
X146285714Y-116309523D01*
X146095238Y-116261904D01*
X146000000Y-116166666D01*
X145952380Y-116071428D01*
X146952380Y-114738095D02*
X146952380Y-115214285D01*
X145952380Y-115214285D01*
X138226190Y-67416666D02*
X138702380Y-67416666D01*
X138130952Y-67702380D02*
X138464285Y-66702380D01*
X138797619Y-67702380D01*
X139607142Y-67702380D02*
X139130952Y-67702380D01*
X139130952Y-66702380D01*
X139940476Y-67702380D02*
X139940476Y-66702380D01*
X140416666Y-67702380D02*
X140416666Y-66702380D01*
X140750000Y-67416666D01*
X141083333Y-66702380D01*
X141083333Y-67702380D01*
X141559523Y-67178571D02*
X141892857Y-67178571D01*
X142035714Y-67702380D02*
X141559523Y-67702380D01*
X141559523Y-66702380D01*
X142035714Y-66702380D01*
X142464285Y-67702380D02*
X142464285Y-66702380D01*
X143035714Y-67702380D01*
X143035714Y-66702380D01*
X143369047Y-66702380D02*
X143940476Y-66702380D01*
X143654761Y-67702380D02*
X143654761Y-66702380D01*
X144226190Y-67416666D02*
X144702380Y-67416666D01*
X144130952Y-67702380D02*
X144464285Y-66702380D01*
X144797619Y-67702380D01*
X145702380Y-67607142D02*
X145654761Y-67654761D01*
X145511904Y-67702380D01*
X145416666Y-67702380D01*
X145273809Y-67654761D01*
X145178571Y-67559523D01*
X145130952Y-67464285D01*
X145083333Y-67273809D01*
X145083333Y-67130952D01*
X145130952Y-66940476D01*
X145178571Y-66845238D01*
X145273809Y-66750000D01*
X145416666Y-66702380D01*
X145511904Y-66702380D01*
X145654761Y-66750000D01*
X145702380Y-66797619D01*
X146130952Y-67702380D02*
X146130952Y-66702380D01*
X146797619Y-66702380D02*
X146988095Y-66702380D01*
X147083333Y-66750000D01*
X147178571Y-66845238D01*
X147226190Y-67035714D01*
X147226190Y-67369047D01*
X147178571Y-67559523D01*
X147083333Y-67654761D01*
X146988095Y-67702380D01*
X146797619Y-67702380D01*
X146702380Y-67654761D01*
X146607142Y-67559523D01*
X146559523Y-67369047D01*
X146559523Y-67035714D01*
X146607142Y-66845238D01*
X146702380Y-66750000D01*
X146797619Y-66702380D01*
X147654761Y-67702380D02*
X147654761Y-66702380D01*
X148226190Y-67702380D01*
X148226190Y-66702380D01*
X144702380Y-107059523D02*
X143702380Y-107059523D01*
X143702380Y-106678571D01*
X143750000Y-106583333D01*
X143797619Y-106535714D01*
X143892857Y-106488095D01*
X144035714Y-106488095D01*
X144130952Y-106535714D01*
X144178571Y-106583333D01*
X144226190Y-106678571D01*
X144226190Y-107059523D01*
X143702380Y-105869047D02*
X143702380Y-105678571D01*
X143750000Y-105583333D01*
X143845238Y-105488095D01*
X144035714Y-105440476D01*
X144369047Y-105440476D01*
X144559523Y-105488095D01*
X144654761Y-105583333D01*
X144702380Y-105678571D01*
X144702380Y-105869047D01*
X144654761Y-105964285D01*
X144559523Y-106059523D01*
X144369047Y-106107142D01*
X144035714Y-106107142D01*
X143845238Y-106059523D01*
X143750000Y-105964285D01*
X143702380Y-105869047D01*
X143702380Y-105154761D02*
X143702380Y-104583333D01*
X144702380Y-104869047D02*
X143702380Y-104869047D01*
X144178571Y-104250000D02*
X144178571Y-103916666D01*
X144702380Y-103773809D02*
X144702380Y-104250000D01*
X143702380Y-104250000D01*
X143702380Y-103773809D01*
X144702380Y-103345238D02*
X143702380Y-103345238D01*
X144702380Y-102773809D01*
X143702380Y-102773809D01*
X144607142Y-101726190D02*
X144654761Y-101773809D01*
X144702380Y-101916666D01*
X144702380Y-102011904D01*
X144654761Y-102154761D01*
X144559523Y-102250000D01*
X144464285Y-102297619D01*
X144273809Y-102345238D01*
X144130952Y-102345238D01*
X143940476Y-102297619D01*
X143845238Y-102250000D01*
X143750000Y-102154761D01*
X143702380Y-102011904D01*
X143702380Y-101916666D01*
X143750000Y-101773809D01*
X143797619Y-101726190D01*
X144702380Y-101297619D02*
X143702380Y-101297619D01*
X144416666Y-100869047D02*
X144416666Y-100392857D01*
X144702380Y-100964285D02*
X143702380Y-100630952D01*
X144702380Y-100297619D01*
D13*
X157000000Y-125000000D02*
X157000000Y-150000000D01*
X145250000Y-125000000D02*
X157000000Y-125000000D01*
X145250000Y-68500000D02*
X145250000Y-125000000D01*
D12*
X153500000Y-68500000D02*
X153500000Y-50000000D01*
X132000000Y-68500000D02*
X153500000Y-68500000D01*
X132000000Y-67500000D02*
X132000000Y-68500000D01*
X112500000Y-67500000D02*
X132000000Y-67500000D01*
X112500000Y-71000000D02*
X112500000Y-67500000D01*
X100000000Y-71000000D02*
X112500000Y-71000000D01*
D13*
X152130000Y-85870000D02*
X152130000Y-83130000D01*
X157370000Y-85870000D02*
X157370000Y-83130000D01*
X157370000Y-83130000D02*
X152130000Y-83130000D01*
X157370000Y-85870000D02*
X152130000Y-85870000D01*
X152130000Y-82870000D02*
X152130000Y-80130000D01*
X157370000Y-82870000D02*
X157370000Y-80130000D01*
X157370000Y-80130000D02*
X152130000Y-80130000D01*
X157370000Y-82870000D02*
X152130000Y-82870000D01*
X151370000Y-83130000D02*
X151370000Y-85870000D01*
X146130000Y-83130000D02*
X146130000Y-85870000D01*
X146130000Y-85870000D02*
X151370000Y-85870000D01*
X146130000Y-83130000D02*
X151370000Y-83130000D01*
X151370000Y-80130000D02*
X151370000Y-82870000D01*
X146130000Y-80130000D02*
X146130000Y-82870000D01*
X146130000Y-82870000D02*
X151370000Y-82870000D01*
X146130000Y-80130000D02*
X151370000Y-80130000D01*
X172870000Y-93130000D02*
X172870000Y-95870000D01*
X167630000Y-93130000D02*
X167630000Y-95870000D01*
X167630000Y-95870000D02*
X172870000Y-95870000D01*
X167630000Y-93130000D02*
X172870000Y-93130000D01*
X172870000Y-88630000D02*
X172870000Y-91370000D01*
X167630000Y-88630000D02*
X167630000Y-91370000D01*
X167630000Y-91370000D02*
X172870000Y-91370000D01*
X167630000Y-88630000D02*
X172870000Y-88630000D01*
X195000000Y-138750000D02*
X196500000Y-138750000D01*
X199000000Y-137500000D02*
X199000000Y-133000000D01*
X196500000Y-131750000D02*
X195000000Y-131750000D01*
X192500000Y-133000000D02*
X192500000Y-137500000D01*
X195000000Y-128750000D02*
X196500000Y-128750000D01*
X199000000Y-127500000D02*
X199000000Y-123000000D01*
X196500000Y-121750000D02*
X195000000Y-121750000D01*
X192500000Y-123000000D02*
X192500000Y-127500000D01*
X181500000Y-85880000D02*
X181500000Y-86650000D01*
X181500000Y-93960000D02*
X181500000Y-93190000D01*
X180130000Y-86650000D02*
X180130000Y-93190000D01*
X182870000Y-86650000D02*
X180130000Y-86650000D01*
X182870000Y-93190000D02*
X182870000Y-86650000D01*
X180130000Y-93190000D02*
X182870000Y-93190000D01*
X178000000Y-85880000D02*
X178000000Y-86650000D01*
X178000000Y-93960000D02*
X178000000Y-93190000D01*
X176630000Y-86650000D02*
X176630000Y-93190000D01*
X179370000Y-86650000D02*
X176630000Y-86650000D01*
X179370000Y-93190000D02*
X179370000Y-86650000D01*
X176630000Y-93190000D02*
X179370000Y-93190000D01*
X163210000Y-90258578D02*
X163210000Y-89741422D01*
X161790000Y-90258578D02*
X161790000Y-89741422D01*
X159710000Y-90258578D02*
X159710000Y-89741422D01*
X158290000Y-90258578D02*
X158290000Y-89741422D01*
X159710000Y-94758578D02*
X159710000Y-94241422D01*
X158290000Y-94758578D02*
X158290000Y-94241422D01*
X166710000Y-90258578D02*
X166710000Y-89741422D01*
X165290000Y-90258578D02*
X165290000Y-89741422D01*
X161790000Y-94241422D02*
X161790000Y-94758578D01*
X163210000Y-94241422D02*
X163210000Y-94758578D01*
X198000000Y-100170000D02*
X199330000Y-100170000D01*
X199330000Y-100170000D02*
X199330000Y-101500000D01*
X199330000Y-102770000D02*
X199330000Y-118070000D01*
X196670000Y-118070000D02*
X199330000Y-118070000D01*
X196670000Y-102770000D02*
X196670000Y-118070000D01*
X196670000Y-102770000D02*
X199330000Y-102770000D01*
X194070000Y-65580000D02*
X193470000Y-65580000D01*
X194070000Y-67180000D02*
X194070000Y-65580000D01*
X193470000Y-67180000D02*
X194070000Y-67180000D01*
X194070000Y-68120000D02*
X193470000Y-68120000D01*
X194070000Y-69720000D02*
X194070000Y-68120000D01*
X193470000Y-69720000D02*
X194070000Y-69720000D01*
X194070000Y-70660000D02*
X193470000Y-70660000D01*
X194070000Y-72260000D02*
X194070000Y-70660000D01*
X193470000Y-72260000D02*
X194070000Y-72260000D01*
X194070000Y-73200000D02*
X193470000Y-73200000D01*
X194070000Y-74800000D02*
X194070000Y-73200000D01*
X193470000Y-74800000D02*
X194070000Y-74800000D01*
X199490000Y-66630000D02*
X198490000Y-66630000D01*
X199490000Y-73750000D02*
X198490000Y-73750000D01*
X197960000Y-66630000D02*
X198490000Y-66380000D01*
X197960000Y-73750000D02*
X197960000Y-66630000D01*
X198490000Y-74000000D02*
X197960000Y-73750000D01*
X198490000Y-66380000D02*
X199490000Y-66380000D01*
X198490000Y-74000000D02*
X198490000Y-66380000D01*
X199490000Y-74000000D02*
X198490000Y-74000000D01*
X194500000Y-75670000D02*
X198500000Y-75670000D01*
X193470000Y-65000000D02*
X193470000Y-75380000D01*
X199490000Y-65000000D02*
X193470000Y-65000000D01*
X199490000Y-75380000D02*
X199490000Y-65000000D01*
X193470000Y-75380000D02*
X199490000Y-75380000D01*
X109500000Y-51500000D02*
X129500000Y-51500000D01*
X109500000Y-56500000D02*
X109500000Y-51500000D01*
X129500000Y-56500000D02*
X109500000Y-56500000D01*
X129500000Y-51500000D02*
X129500000Y-56500000D01*
X176500000Y-51300000D02*
X176500000Y-57000000D01*
X176500000Y-51300000D02*
X182500000Y-51300000D01*
X182500000Y-51300000D02*
X182500000Y-57000000D01*
X183026384Y-57751754D02*
G75*
G02X182500000Y-57000000I273616J751754D01*
G01*
X179454719Y-80195671D02*
G75*
G03X183000000Y-57750000I45281J11495671D01*
G01*
X175973616Y-57751754D02*
G75*
G03X176500000Y-57000000I-273616J751754D01*
G01*
X179545281Y-80195671D02*
G75*
G02X176000000Y-57750000I-45281J11495671D01*
G01*
X165710000Y-87120000D02*
X165710000Y-84880000D01*
X165470000Y-87120000D02*
X165470000Y-84880000D01*
X165590000Y-87120000D02*
X165590000Y-84880000D01*
X161420000Y-86000000D02*
X162070000Y-86000000D01*
X166960000Y-86000000D02*
X166310000Y-86000000D01*
X162070000Y-87120000D02*
X166310000Y-87120000D01*
X162070000Y-84880000D02*
X162070000Y-87120000D01*
X166310000Y-84880000D02*
X162070000Y-84880000D01*
X166310000Y-87120000D02*
X166310000Y-84880000D01*
X139360000Y-53970000D02*
X139360000Y-51030000D01*
X139120000Y-53970000D02*
X139120000Y-51030000D01*
X139240000Y-53970000D02*
X139240000Y-51030000D01*
X133680000Y-52500000D02*
X134700000Y-52500000D01*
X141160000Y-52500000D02*
X140140000Y-52500000D01*
X134700000Y-53970000D02*
X140140000Y-53970000D01*
X134700000Y-51030000D02*
X134700000Y-53970000D01*
X140140000Y-51030000D02*
X134700000Y-51030000D01*
X140140000Y-53970000D02*
X140140000Y-51030000D01*
X139360000Y-57720000D02*
X139360000Y-54780000D01*
X139120000Y-57720000D02*
X139120000Y-54780000D01*
X139240000Y-57720000D02*
X139240000Y-54780000D01*
X133680000Y-56250000D02*
X134700000Y-56250000D01*
X141160000Y-56250000D02*
X140140000Y-56250000D01*
X134700000Y-57720000D02*
X140140000Y-57720000D01*
X134700000Y-54780000D02*
X134700000Y-57720000D01*
X140140000Y-54780000D02*
X134700000Y-54780000D01*
X140140000Y-57720000D02*
X140140000Y-54780000D01*
X116470000Y-99640000D02*
X113530000Y-99640000D01*
X116470000Y-99880000D02*
X113530000Y-99880000D01*
X116470000Y-99760000D02*
X113530000Y-99760000D01*
X115000000Y-105320000D02*
X115000000Y-104300000D01*
X115000000Y-97840000D02*
X115000000Y-98860000D01*
X116470000Y-104300000D02*
X116470000Y-98860000D01*
X113530000Y-104300000D02*
X116470000Y-104300000D01*
X113530000Y-98860000D02*
X113530000Y-104300000D01*
X116470000Y-98860000D02*
X113530000Y-98860000D01*
X116470000Y-86140000D02*
X113530000Y-86140000D01*
X116470000Y-86380000D02*
X113530000Y-86380000D01*
X116470000Y-86260000D02*
X113530000Y-86260000D01*
X115000000Y-91820000D02*
X115000000Y-90800000D01*
X115000000Y-84340000D02*
X115000000Y-85360000D01*
X116470000Y-90800000D02*
X116470000Y-85360000D01*
X113530000Y-90800000D02*
X116470000Y-90800000D01*
X113530000Y-85360000D02*
X113530000Y-90800000D01*
X116470000Y-85360000D02*
X113530000Y-85360000D01*
X116470000Y-72640000D02*
X113530000Y-72640000D01*
X116470000Y-72880000D02*
X113530000Y-72880000D01*
X116470000Y-72760000D02*
X113530000Y-72760000D01*
X115000000Y-78320000D02*
X115000000Y-77300000D01*
X115000000Y-70840000D02*
X115000000Y-71860000D01*
X116470000Y-77300000D02*
X116470000Y-71860000D01*
X113530000Y-77300000D02*
X116470000Y-77300000D01*
X113530000Y-71860000D02*
X113530000Y-77300000D01*
X116470000Y-71860000D02*
X113530000Y-71860000D01*
X150560000Y-132170000D02*
X149310000Y-132170000D01*
X150560000Y-137370000D02*
X150560000Y-132170000D01*
X146060000Y-137370000D02*
X150560000Y-137370000D01*
X146060000Y-132170000D02*
X146060000Y-137370000D01*
X147310000Y-132170000D02*
X146060000Y-132170000D01*
X149310000Y-132170000D02*
G75*
G02X147310000Y-132170000I-1000000J0D01*
G01*
X150560000Y-126170000D02*
X149310000Y-126170000D01*
X150560000Y-131370000D02*
X150560000Y-126170000D01*
X146060000Y-131370000D02*
X150560000Y-131370000D01*
X146060000Y-126170000D02*
X146060000Y-131370000D01*
X147310000Y-126170000D02*
X146060000Y-126170000D01*
X149310000Y-126170000D02*
G75*
G02X147310000Y-126170000I-1000000J0D01*
G01*
X185500000Y-149500000D02*
X164500000Y-149500000D01*
X178700000Y-98500000D02*
X185500000Y-98500000D01*
X185500000Y-146833000D02*
X182493000Y-146833000D01*
X182493000Y-146833000D02*
X182493000Y-149500000D01*
X185500000Y-149500000D02*
X185500000Y-149200000D01*
X185500000Y-147100000D02*
X185500000Y-146700000D01*
X185500000Y-144500000D02*
X185500000Y-144100000D01*
X185500000Y-142000000D02*
X185500000Y-141600000D01*
X185500000Y-139400000D02*
X185500000Y-139000000D01*
X185500000Y-136900000D02*
X185500000Y-136500000D01*
X185500000Y-134400000D02*
X185500000Y-134000000D01*
X185500000Y-131800000D02*
X185500000Y-131400000D01*
X185500000Y-129300000D02*
X185500000Y-128900000D01*
X185500000Y-126700000D02*
X185500000Y-126300000D01*
X185500000Y-124200000D02*
X185500000Y-123800000D01*
X185500000Y-121700000D02*
X185500000Y-121300000D01*
X185500000Y-119100000D02*
X185500000Y-118700000D01*
X185500000Y-116600000D02*
X185500000Y-116200000D01*
X185500000Y-114000000D02*
X185500000Y-113600000D01*
X185500000Y-111500000D02*
X185500000Y-111100000D01*
X185500000Y-108900000D02*
X185500000Y-108500000D01*
X185500000Y-106400000D02*
X185500000Y-106000000D01*
X185500000Y-103900000D02*
X185500000Y-103500000D01*
X185500000Y-101300000D02*
X185500000Y-100900000D01*
X164500000Y-134400000D02*
X164500000Y-134000000D01*
X164500000Y-129300000D02*
X164500000Y-128900000D01*
X164500000Y-121700000D02*
X164500000Y-121300000D01*
X164500000Y-114000000D02*
X164500000Y-113600000D01*
X164500000Y-144500000D02*
X164500000Y-144100000D01*
X164500000Y-147100000D02*
X164500000Y-146700000D01*
X164500000Y-139400000D02*
X164500000Y-139000000D01*
X164500000Y-106400000D02*
X164500000Y-106000000D01*
X164500000Y-101300000D02*
X164500000Y-100900000D01*
X164500000Y-103900000D02*
X164500000Y-103500000D01*
X164500000Y-119100000D02*
X164500000Y-118700000D01*
X164500000Y-124200000D02*
X164500000Y-123800000D01*
X164500000Y-136900000D02*
X164500000Y-136500000D01*
X164500000Y-131800000D02*
X164500000Y-131400000D01*
X164500000Y-111500000D02*
X164500000Y-111100000D01*
X164500000Y-126700000D02*
X164500000Y-126300000D01*
X164500000Y-149500000D02*
X164500000Y-149200000D01*
X164500000Y-142000000D02*
X164500000Y-141600000D01*
X164500000Y-116600000D02*
X164500000Y-116200000D01*
X164500000Y-108900000D02*
X164500000Y-108500000D01*
X164500000Y-98500000D02*
X171300000Y-98500000D01*
X176500000Y-98500000D02*
X176100000Y-98500000D01*
X173900000Y-98500000D02*
X173500000Y-98500000D01*
X145590000Y-59350000D02*
X145590000Y-53340000D01*
X152410000Y-57100000D02*
X152410000Y-53340000D01*
X145590000Y-53340000D02*
X146850000Y-53340000D01*
X152410000Y-53340000D02*
X151150000Y-53340000D01*
X127940000Y-93330000D02*
X129190000Y-93330000D01*
X127940000Y-88130000D02*
X127940000Y-93330000D01*
X132440000Y-88130000D02*
X127940000Y-88130000D01*
X132440000Y-93330000D02*
X132440000Y-88130000D01*
X131190000Y-93330000D02*
X132440000Y-93330000D01*
X129190000Y-93330000D02*
G75*
G02X131190000Y-93330000I1000000J0D01*
G01*
X127940000Y-87330000D02*
X129190000Y-87330000D01*
X127940000Y-82130000D02*
X127940000Y-87330000D01*
X132440000Y-82130000D02*
X127940000Y-82130000D01*
X132440000Y-87330000D02*
X132440000Y-82130000D01*
X131190000Y-87330000D02*
X132440000Y-87330000D01*
X129190000Y-87330000D02*
G75*
G02X131190000Y-87330000I1000000J0D01*
G01*
X127940000Y-81330000D02*
X129190000Y-81330000D01*
X127940000Y-76130000D02*
X127940000Y-81330000D01*
X132440000Y-76130000D02*
X127940000Y-76130000D01*
X132440000Y-81330000D02*
X132440000Y-76130000D01*
X131190000Y-81330000D02*
X132440000Y-81330000D01*
X129190000Y-81330000D02*
G75*
G02X131190000Y-81330000I1000000J0D01*
G01*
X127940000Y-75330000D02*
X129190000Y-75330000D01*
X127940000Y-70130000D02*
X127940000Y-75330000D01*
X132440000Y-70130000D02*
X127940000Y-70130000D01*
X132440000Y-75330000D02*
X132440000Y-70130000D01*
X131190000Y-75330000D02*
X132440000Y-75330000D01*
X129190000Y-75330000D02*
G75*
G02X131190000Y-75330000I1000000J0D01*
G01*
X192000000Y-89000000D02*
X192000000Y-88000000D01*
X191500000Y-88500000D02*
X192500000Y-88500000D01*
X195700000Y-81800000D02*
X198300000Y-81800000D01*
X190700000Y-81800000D02*
X193300000Y-81800000D01*
X185700000Y-81800000D02*
X188300000Y-81800000D01*
X187900000Y-95700000D02*
X188200000Y-96000000D01*
X187900000Y-96300000D02*
X187900000Y-95700000D01*
X188200000Y-96000000D02*
X187900000Y-96300000D01*
X185700000Y-95200000D02*
X188200000Y-95200000D01*
X185700000Y-90400000D02*
X185700000Y-95200000D01*
X198300000Y-95200000D02*
X195500000Y-95200000D01*
X198300000Y-90300000D02*
X198300000Y-95200000D01*
X198300000Y-81800000D02*
X198300000Y-86700000D01*
X185700000Y-86700000D02*
X185700000Y-81800000D01*
X195000000Y-88500000D02*
G75*
G03X195000000Y-88500000I-3000000J0D01*
G01*
X156750000Y-54500000D02*
X156750000Y-56000000D01*
X158000000Y-58500000D02*
X162500000Y-58500000D01*
X163750000Y-56000000D02*
X163750000Y-54500000D01*
X162500000Y-52000000D02*
X158000000Y-52000000D01*
X102700000Y-104700000D02*
X102700000Y-105100000D01*
X103340000Y-104700000D02*
X102700000Y-104700000D01*
X107008000Y-111242000D02*
X106612000Y-110847000D01*
X109654000Y-113888000D02*
X109274000Y-113508000D01*
X106726000Y-111493000D02*
X106346000Y-111113000D01*
X109388000Y-114154000D02*
X108992000Y-113759000D01*
X106719000Y-105952000D02*
X106612000Y-105846000D01*
X109654000Y-108888000D02*
X109547000Y-108781000D01*
X106453000Y-106218000D02*
X106346000Y-106112000D01*
X109388000Y-109154000D02*
X109281000Y-109047000D01*
X112060000Y-115060000D02*
X102940000Y-115060000D01*
X112060000Y-104940000D02*
X102940000Y-104940000D01*
X102940000Y-104940000D02*
X102940000Y-115060000D01*
X112060000Y-104940000D02*
X112060000Y-115060000D01*
X104500000Y-104940000D02*
X104500000Y-115060000D01*
X103400000Y-104940000D02*
X103400000Y-115060000D01*
X110180000Y-112500000D02*
G75*
G03X110180000Y-112500000I-2180000J0D01*
G01*
X110180000Y-107500000D02*
G75*
G03X110180000Y-107500000I-2180000J0D01*
G01*
X102700000Y-93700000D02*
X102700000Y-94100000D01*
X103340000Y-93700000D02*
X102700000Y-93700000D01*
X107008000Y-100242000D02*
X106612000Y-99847000D01*
X109654000Y-102888000D02*
X109274000Y-102508000D01*
X106726000Y-100493000D02*
X106346000Y-100113000D01*
X109388000Y-103154000D02*
X108992000Y-102759000D01*
X106719000Y-94952000D02*
X106612000Y-94846000D01*
X109654000Y-97888000D02*
X109547000Y-97781000D01*
X106453000Y-95218000D02*
X106346000Y-95112000D01*
X109388000Y-98154000D02*
X109281000Y-98047000D01*
X112060000Y-104060000D02*
X102940000Y-104060000D01*
X112060000Y-93940000D02*
X102940000Y-93940000D01*
X102940000Y-93940000D02*
X102940000Y-104060000D01*
X112060000Y-93940000D02*
X112060000Y-104060000D01*
X104500000Y-93940000D02*
X104500000Y-104060000D01*
X103400000Y-93940000D02*
X103400000Y-104060000D01*
X110180000Y-101500000D02*
G75*
G03X110180000Y-101500000I-2180000J0D01*
G01*
X110180000Y-96500000D02*
G75*
G03X110180000Y-96500000I-2180000J0D01*
G01*
X102700000Y-82700000D02*
X102700000Y-83100000D01*
X103340000Y-82700000D02*
X102700000Y-82700000D01*
X107008000Y-89242000D02*
X106612000Y-88847000D01*
X109654000Y-91888000D02*
X109274000Y-91508000D01*
X106726000Y-89493000D02*
X106346000Y-89113000D01*
X109388000Y-92154000D02*
X108992000Y-91759000D01*
X106719000Y-83952000D02*
X106612000Y-83846000D01*
X109654000Y-86888000D02*
X109547000Y-86781000D01*
X106453000Y-84218000D02*
X106346000Y-84112000D01*
X109388000Y-87154000D02*
X109281000Y-87047000D01*
X112060000Y-93060000D02*
X102940000Y-93060000D01*
X112060000Y-82940000D02*
X102940000Y-82940000D01*
X102940000Y-82940000D02*
X102940000Y-93060000D01*
X112060000Y-82940000D02*
X112060000Y-93060000D01*
X104500000Y-82940000D02*
X104500000Y-93060000D01*
X103400000Y-82940000D02*
X103400000Y-93060000D01*
X110180000Y-90500000D02*
G75*
G03X110180000Y-90500000I-2180000J0D01*
G01*
X110180000Y-85500000D02*
G75*
G03X110180000Y-85500000I-2180000J0D01*
G01*
X102700000Y-71700000D02*
X102700000Y-72100000D01*
X103340000Y-71700000D02*
X102700000Y-71700000D01*
X107008000Y-78242000D02*
X106612000Y-77847000D01*
X109654000Y-80888000D02*
X109274000Y-80508000D01*
X106726000Y-78493000D02*
X106346000Y-78113000D01*
X109388000Y-81154000D02*
X108992000Y-80759000D01*
X106719000Y-72952000D02*
X106612000Y-72846000D01*
X109654000Y-75888000D02*
X109547000Y-75781000D01*
X106453000Y-73218000D02*
X106346000Y-73112000D01*
X109388000Y-76154000D02*
X109281000Y-76047000D01*
X112060000Y-82060000D02*
X102940000Y-82060000D01*
X112060000Y-71940000D02*
X102940000Y-71940000D01*
X102940000Y-71940000D02*
X102940000Y-82060000D01*
X112060000Y-71940000D02*
X112060000Y-82060000D01*
X104500000Y-71940000D02*
X104500000Y-82060000D01*
X103400000Y-71940000D02*
X103400000Y-82060000D01*
X110180000Y-79500000D02*
G75*
G03X110180000Y-79500000I-2180000J0D01*
G01*
X110180000Y-74500000D02*
G75*
G03X110180000Y-74500000I-2180000J0D01*
G01*
X139500000Y-147120000D02*
X139500000Y-146350000D01*
X139500000Y-139040000D02*
X139500000Y-139810000D01*
X140870000Y-146350000D02*
X140870000Y-139810000D01*
X138130000Y-146350000D02*
X140870000Y-146350000D01*
X138130000Y-139810000D02*
X138130000Y-146350000D01*
X140870000Y-139810000D02*
X138130000Y-139810000D01*
X126380000Y-107000000D02*
X127150000Y-107000000D01*
X134460000Y-107000000D02*
X133690000Y-107000000D01*
X127150000Y-108370000D02*
X133690000Y-108370000D01*
X127150000Y-105630000D02*
X127150000Y-108370000D01*
X133690000Y-105630000D02*
X127150000Y-105630000D01*
X133690000Y-108370000D02*
X133690000Y-105630000D01*
X126380000Y-100000000D02*
X127150000Y-100000000D01*
X134460000Y-100000000D02*
X133690000Y-100000000D01*
X127150000Y-101370000D02*
X133690000Y-101370000D01*
X127150000Y-98630000D02*
X127150000Y-101370000D01*
X133690000Y-98630000D02*
X127150000Y-98630000D01*
X133690000Y-101370000D02*
X133690000Y-98630000D01*
X142500000Y-85380000D02*
X142500000Y-86150000D01*
X142500000Y-93460000D02*
X142500000Y-92690000D01*
X141130000Y-86150000D02*
X141130000Y-92690000D01*
X143870000Y-86150000D02*
X141130000Y-86150000D01*
X143870000Y-92690000D02*
X143870000Y-86150000D01*
X141130000Y-92690000D02*
X143870000Y-92690000D01*
X142500000Y-71880000D02*
X142500000Y-72650000D01*
X142500000Y-79960000D02*
X142500000Y-79190000D01*
X141130000Y-72650000D02*
X141130000Y-79190000D01*
X143870000Y-72650000D02*
X141130000Y-72650000D01*
X143870000Y-79190000D02*
X143870000Y-72650000D01*
X141130000Y-79190000D02*
X143870000Y-79190000D01*
X139500000Y-128120000D02*
X139500000Y-127350000D01*
X139500000Y-120040000D02*
X139500000Y-120810000D01*
X140870000Y-127350000D02*
X140870000Y-120810000D01*
X138130000Y-127350000D02*
X140870000Y-127350000D01*
X138130000Y-120810000D02*
X138130000Y-127350000D01*
X140870000Y-120810000D02*
X138130000Y-120810000D01*
X126380000Y-103500000D02*
X127150000Y-103500000D01*
X134460000Y-103500000D02*
X133690000Y-103500000D01*
X127150000Y-104870000D02*
X133690000Y-104870000D01*
X127150000Y-102130000D02*
X127150000Y-104870000D01*
X133690000Y-102130000D02*
X127150000Y-102130000D01*
X133690000Y-104870000D02*
X133690000Y-102130000D01*
X126380000Y-96500000D02*
X127150000Y-96500000D01*
X134460000Y-96500000D02*
X133690000Y-96500000D01*
X127150000Y-97870000D02*
X133690000Y-97870000D01*
X127150000Y-95130000D02*
X127150000Y-97870000D01*
X133690000Y-95130000D02*
X127150000Y-95130000D01*
X133690000Y-97870000D02*
X133690000Y-95130000D01*
X139000000Y-85380000D02*
X139000000Y-86150000D01*
X139000000Y-93460000D02*
X139000000Y-92690000D01*
X137630000Y-86150000D02*
X137630000Y-92690000D01*
X140370000Y-86150000D02*
X137630000Y-86150000D01*
X140370000Y-92690000D02*
X140370000Y-86150000D01*
X137630000Y-92690000D02*
X140370000Y-92690000D01*
X139000000Y-71880000D02*
X139000000Y-72650000D01*
X139000000Y-79960000D02*
X139000000Y-79190000D01*
X137630000Y-72650000D02*
X137630000Y-79190000D01*
X140370000Y-72650000D02*
X137630000Y-72650000D01*
X140370000Y-79190000D02*
X140370000Y-72650000D01*
X137630000Y-79190000D02*
X140370000Y-79190000D01*
X148000000Y-103380000D02*
X148000000Y-104150000D01*
X148000000Y-111460000D02*
X148000000Y-110690000D01*
X146630000Y-104150000D02*
X146630000Y-110690000D01*
X149370000Y-104150000D02*
X146630000Y-104150000D01*
X149370000Y-110690000D02*
X149370000Y-104150000D01*
X146630000Y-110690000D02*
X149370000Y-110690000D01*
X151500000Y-103380000D02*
X151500000Y-104150000D01*
X151500000Y-111460000D02*
X151500000Y-110690000D01*
X150130000Y-104150000D02*
X150130000Y-110690000D01*
X152870000Y-104150000D02*
X150130000Y-104150000D01*
X152870000Y-110690000D02*
X152870000Y-104150000D01*
X150130000Y-110690000D02*
X152870000Y-110690000D01*
X155000000Y-97620000D02*
X155000000Y-96850000D01*
X155000000Y-89540000D02*
X155000000Y-90310000D01*
X156370000Y-96850000D02*
X156370000Y-90310000D01*
X153630000Y-96850000D02*
X156370000Y-96850000D01*
X153630000Y-90310000D02*
X153630000Y-96850000D01*
X156370000Y-90310000D02*
X153630000Y-90310000D01*
X155000000Y-103380000D02*
X155000000Y-104150000D01*
X155000000Y-111460000D02*
X155000000Y-110690000D01*
X153630000Y-104150000D02*
X153630000Y-110690000D01*
X156370000Y-104150000D02*
X153630000Y-104150000D01*
X156370000Y-110690000D02*
X156370000Y-104150000D01*
X153630000Y-110690000D02*
X156370000Y-110690000D01*
X148000000Y-97620000D02*
X148000000Y-96850000D01*
X148000000Y-89540000D02*
X148000000Y-90310000D01*
X149370000Y-96850000D02*
X149370000Y-90310000D01*
X146630000Y-96850000D02*
X149370000Y-96850000D01*
X146630000Y-90310000D02*
X146630000Y-96850000D01*
X149370000Y-90310000D02*
X146630000Y-90310000D01*
X151500000Y-97620000D02*
X151500000Y-96850000D01*
X151500000Y-89540000D02*
X151500000Y-90310000D01*
X152870000Y-96850000D02*
X152870000Y-90310000D01*
X150130000Y-96850000D02*
X152870000Y-96850000D01*
X150130000Y-90310000D02*
X150130000Y-96850000D01*
X152870000Y-90310000D02*
X150130000Y-90310000D01*
X165620000Y-62000000D02*
X164850000Y-62000000D01*
X157540000Y-62000000D02*
X158310000Y-62000000D01*
X164850000Y-60630000D02*
X158310000Y-60630000D01*
X164850000Y-63370000D02*
X164850000Y-60630000D01*
X158310000Y-63370000D02*
X164850000Y-63370000D01*
X158310000Y-60630000D02*
X158310000Y-63370000D01*
X138338478Y-131891522D02*
G75*
G03X133900000Y-133730000I-1838478J-1838478D01*
G01*
X138338478Y-135568478D02*
G75*
G02X133900000Y-133730000I-1838478J1838478D01*
G01*
X138350000Y-135530000D02*
X138350000Y-131930000D01*
X142838478Y-110891522D02*
G75*
G03X138400000Y-112730000I-1838478J-1838478D01*
G01*
X142838478Y-114568478D02*
G75*
G02X138400000Y-112730000I-1838478J1838478D01*
G01*
X142850000Y-114530000D02*
X142850000Y-110930000D01*
X166411522Y-58108478D02*
G75*
G03X170850000Y-56270000I1838478J1838478D01*
G01*
X166411522Y-54431522D02*
G75*
G02X170850000Y-56270000I1838478J-1838478D01*
G01*
X166400000Y-54470000D02*
X166400000Y-58070000D01*
X122270000Y-109891000D02*
X120760000Y-109891000D01*
X122270000Y-106190000D02*
X120760000Y-106190000D01*
X120760000Y-102920000D02*
X120760000Y-113160000D01*
X122270000Y-113160000D02*
X117629000Y-113160000D01*
X122270000Y-102920000D02*
X117629000Y-102920000D01*
X117629000Y-102920000D02*
X117629000Y-113160000D01*
X122270000Y-102920000D02*
X122270000Y-113160000D01*
X122270000Y-98891000D02*
X120760000Y-98891000D01*
X122270000Y-95190000D02*
X120760000Y-95190000D01*
X120760000Y-91920000D02*
X120760000Y-102160000D01*
X122270000Y-102160000D02*
X117629000Y-102160000D01*
X122270000Y-91920000D02*
X117629000Y-91920000D01*
X117629000Y-91920000D02*
X117629000Y-102160000D01*
X122270000Y-91920000D02*
X122270000Y-102160000D01*
X122270000Y-87891000D02*
X120760000Y-87891000D01*
X122270000Y-84190000D02*
X120760000Y-84190000D01*
X120760000Y-80920000D02*
X120760000Y-91160000D01*
X122270000Y-91160000D02*
X117629000Y-91160000D01*
X122270000Y-80920000D02*
X117629000Y-80920000D01*
X117629000Y-80920000D02*
X117629000Y-91160000D01*
X122270000Y-80920000D02*
X122270000Y-91160000D01*
X122270000Y-76891000D02*
X120760000Y-76891000D01*
X122270000Y-73190000D02*
X120760000Y-73190000D01*
X120760000Y-69920000D02*
X120760000Y-80160000D01*
X122270000Y-80160000D02*
X117629000Y-80160000D01*
X122270000Y-69920000D02*
X117629000Y-69920000D01*
X117629000Y-69920000D02*
X117629000Y-80160000D01*
X122270000Y-69920000D02*
X122270000Y-80160000D01*
X122950000Y-139650000D02*
X126950000Y-139650000D01*
X122950000Y-143250000D02*
X122950000Y-139650000D01*
X126950000Y-143250000D02*
X122950000Y-143250000D01*
X126950000Y-139650000D02*
X126950000Y-143250000D01*
X122950000Y-139650000D02*
X126950000Y-143250000D01*
X124950000Y-139650000D02*
X124950000Y-135450000D01*
X124950000Y-147450000D02*
X124950000Y-143250000D01*
X128350000Y-141450000D02*
X128350000Y-137850000D01*
X121550000Y-141450000D02*
X121550000Y-137850000D01*
X121550000Y-137850000D02*
X128350000Y-137850000D01*
X120050000Y-141450000D02*
X115450000Y-143950000D01*
X121550000Y-141450000D02*
X120050000Y-141450000D01*
X124950000Y-147450000D02*
X127450000Y-147450000D01*
X128350000Y-141450000D02*
X129150000Y-141450000D01*
X127450000Y-135450000D02*
X124950000Y-135450000D01*
X116850000Y-145700000D02*
X116850000Y-143200000D01*
X116850000Y-137300000D02*
X116850000Y-139750000D01*
X112600000Y-133700000D02*
X132400000Y-133700000D01*
X112600000Y-149300000D02*
X112600000Y-133700000D01*
X132400000Y-149300000D02*
X112600000Y-149300000D01*
X132400000Y-149300000D02*
X132400000Y-142700000D01*
X132400000Y-140300000D02*
X132400000Y-133700000D01*
X122950000Y-123150000D02*
X126950000Y-123150000D01*
X122950000Y-126750000D02*
X122950000Y-123150000D01*
X126950000Y-126750000D02*
X122950000Y-126750000D01*
X126950000Y-123150000D02*
X126950000Y-126750000D01*
X122950000Y-123150000D02*
X126950000Y-126750000D01*
X124950000Y-123150000D02*
X124950000Y-118950000D01*
X124950000Y-130950000D02*
X124950000Y-126750000D01*
X128350000Y-124950000D02*
X128350000Y-121350000D01*
X121550000Y-124950000D02*
X121550000Y-121350000D01*
X121550000Y-121350000D02*
X128350000Y-121350000D01*
X120050000Y-124950000D02*
X115450000Y-127450000D01*
X121550000Y-124950000D02*
X120050000Y-124950000D01*
X124950000Y-130950000D02*
X127450000Y-130950000D01*
X128350000Y-124950000D02*
X129150000Y-124950000D01*
X127450000Y-118950000D02*
X124950000Y-118950000D01*
X116850000Y-129200000D02*
X116850000Y-126700000D01*
X116850000Y-120800000D02*
X116850000Y-123250000D01*
X112600000Y-117200000D02*
X132400000Y-117200000D01*
X112600000Y-132800000D02*
X112600000Y-117200000D01*
X132400000Y-132800000D02*
X112600000Y-132800000D01*
X132400000Y-132800000D02*
X132400000Y-126200000D01*
X132400000Y-123800000D02*
X132400000Y-117200000D01*
X109680000Y-62500000D02*
G75*
G03X109680000Y-62500000I-2180000J0D01*
G01*
X109680000Y-67500000D02*
G75*
G03X109680000Y-67500000I-2180000J0D01*
G01*
X102900000Y-59940000D02*
X102900000Y-70060000D01*
X104000000Y-59940000D02*
X104000000Y-70060000D01*
X111560000Y-59940000D02*
X111560000Y-70060000D01*
X102440000Y-59940000D02*
X102440000Y-70060000D01*
X111560000Y-59940000D02*
X102440000Y-59940000D01*
X111560000Y-70060000D02*
X102440000Y-70060000D01*
X108888000Y-64154000D02*
X108781000Y-64047000D01*
X105953000Y-61218000D02*
X105846000Y-61112000D01*
X109154000Y-63888000D02*
X109047000Y-63781000D01*
X106219000Y-60952000D02*
X106112000Y-60846000D01*
X108888000Y-69154000D02*
X108492000Y-68759000D01*
X106226000Y-66493000D02*
X105846000Y-66113000D01*
X109154000Y-68888000D02*
X108774000Y-68508000D01*
X106508000Y-66242000D02*
X106112000Y-65847000D01*
X102840000Y-59700000D02*
X102200000Y-59700000D01*
X102200000Y-59700000D02*
X102200000Y-60100000D01*
X150210000Y-140455000D02*
X150210000Y-143545000D01*
X155270000Y-142000000D02*
G75*
G03X155270000Y-142000000I-2500000J0D01*
G01*
X155760000Y-141999538D02*
G75*
G02X150210000Y-143544830I-2990000J-462D01*
G01*
X155760000Y-142000462D02*
G75*
G03X150210000Y-140455170I-2990000J462D01*
G01*
X136970000Y-141140000D02*
X134030000Y-141140000D01*
X136970000Y-141380000D02*
X134030000Y-141380000D01*
X136970000Y-141260000D02*
X134030000Y-141260000D01*
X135500000Y-146820000D02*
X135500000Y-145800000D01*
X135500000Y-139340000D02*
X135500000Y-140360000D01*
X136970000Y-145800000D02*
X136970000Y-140360000D01*
X134030000Y-145800000D02*
X136970000Y-145800000D01*
X134030000Y-140360000D02*
X134030000Y-145800000D01*
X136970000Y-140360000D02*
X134030000Y-140360000D01*
X142710000Y-140455000D02*
X142710000Y-143545000D01*
X147770000Y-142000000D02*
G75*
G03X147770000Y-142000000I-2500000J0D01*
G01*
X148260000Y-141999538D02*
G75*
G02X142710000Y-143544830I-2990000J-462D01*
G01*
X148260000Y-142000462D02*
G75*
G03X142710000Y-140455170I-2990000J462D01*
G01*
X136970000Y-122140000D02*
X134030000Y-122140000D01*
X136970000Y-122380000D02*
X134030000Y-122380000D01*
X136970000Y-122260000D02*
X134030000Y-122260000D01*
X135500000Y-127820000D02*
X135500000Y-126800000D01*
X135500000Y-120340000D02*
X135500000Y-121360000D01*
X136970000Y-126800000D02*
X136970000Y-121360000D01*
X134030000Y-126800000D02*
X136970000Y-126800000D01*
X134030000Y-121360000D02*
X134030000Y-126800000D01*
X136970000Y-121360000D02*
X134030000Y-121360000D01*
X150345000Y-119580000D02*
X150345000Y-120045000D01*
X150345000Y-116955000D02*
X150345000Y-117420000D01*
X155159479Y-119580429D02*
G75*
G02X150650316Y-119580000I-2254479J1080429D01*
G01*
X155159479Y-117419571D02*
G75*
G03X150650316Y-117420000I-2254479J-1080429D01*
G01*
X155692815Y-119580827D02*
G75*
G02X150345000Y-120044830I-2787815J1080827D01*
G01*
X155692815Y-117419173D02*
G75*
G03X150345000Y-116955170I-2787815J-1080827D01*
G01*
X165710000Y-83620000D02*
X165710000Y-81380000D01*
X165470000Y-83620000D02*
X165470000Y-81380000D01*
X165590000Y-83620000D02*
X165590000Y-81380000D01*
X161420000Y-82500000D02*
X162070000Y-82500000D01*
X166960000Y-82500000D02*
X166310000Y-82500000D01*
X162070000Y-83620000D02*
X166310000Y-83620000D01*
X162070000Y-81380000D02*
X162070000Y-83620000D01*
X166310000Y-81380000D02*
X162070000Y-81380000D01*
X166310000Y-83620000D02*
X166310000Y-81380000D01*
X113960000Y-61205000D02*
X113960000Y-64295000D01*
X119020000Y-62750000D02*
G75*
G03X119020000Y-62750000I-2500000J0D01*
G01*
X119510000Y-62749538D02*
G75*
G02X113960000Y-64294830I-2990000J-462D01*
G01*
X119510000Y-62750462D02*
G75*
G03X113960000Y-61205170I-2990000J462D01*
G01*
X135870000Y-112630000D02*
X135870000Y-115370000D01*
X130630000Y-112630000D02*
X130630000Y-115370000D01*
X130630000Y-115370000D02*
X135870000Y-115370000D01*
X130630000Y-112630000D02*
X135870000Y-112630000D01*
X135870000Y-109630000D02*
X135870000Y-112370000D01*
X130630000Y-109630000D02*
X130630000Y-112370000D01*
X130630000Y-112370000D02*
X135870000Y-112370000D01*
X130630000Y-109630000D02*
X135870000Y-109630000D01*
X128370000Y-112630000D02*
X128370000Y-115370000D01*
X123130000Y-112630000D02*
X123130000Y-115370000D01*
X123130000Y-115370000D02*
X128370000Y-115370000D01*
X123130000Y-112630000D02*
X128370000Y-112630000D01*
X128370000Y-109630000D02*
X128370000Y-112370000D01*
X123130000Y-109630000D02*
X123130000Y-112370000D01*
X123130000Y-112370000D02*
X128370000Y-112370000D01*
X123130000Y-109630000D02*
X128370000Y-109630000D01*
X131554775Y-64225000D02*
X131554775Y-63725000D01*
X131804775Y-63975000D02*
X131304775Y-63975000D01*
X126399000Y-62784000D02*
X126399000Y-62216000D01*
X126439000Y-63018000D02*
X126439000Y-61982000D01*
X126479000Y-63177000D02*
X126479000Y-61823000D01*
X126519000Y-63305000D02*
X126519000Y-61695000D01*
X126559000Y-63415000D02*
X126559000Y-61585000D01*
X126599000Y-63511000D02*
X126599000Y-61489000D01*
X126639000Y-63598000D02*
X126639000Y-61402000D01*
X126679000Y-63678000D02*
X126679000Y-61322000D01*
X126719000Y-63751000D02*
X126719000Y-61249000D01*
X126759000Y-63819000D02*
X126759000Y-61181000D01*
X126799000Y-63883000D02*
X126799000Y-61117000D01*
X126839000Y-63943000D02*
X126839000Y-61057000D01*
X126879000Y-64000000D02*
X126879000Y-61000000D01*
X126919000Y-64054000D02*
X126919000Y-60946000D01*
X126959000Y-64105000D02*
X126959000Y-60895000D01*
X126999000Y-61460000D02*
X126999000Y-60847000D01*
X126999000Y-64153000D02*
X126999000Y-63540000D01*
X127039000Y-61460000D02*
X127039000Y-60801000D01*
X127039000Y-64199000D02*
X127039000Y-63540000D01*
X127079000Y-61460000D02*
X127079000Y-60757000D01*
X127079000Y-64243000D02*
X127079000Y-63540000D01*
X127119000Y-61460000D02*
X127119000Y-60715000D01*
X127119000Y-64285000D02*
X127119000Y-63540000D01*
X127159000Y-61460000D02*
X127159000Y-60674000D01*
X127159000Y-64326000D02*
X127159000Y-63540000D01*
X127199000Y-61460000D02*
X127199000Y-60636000D01*
X127199000Y-64364000D02*
X127199000Y-63540000D01*
X127239000Y-61460000D02*
X127239000Y-60599000D01*
X127239000Y-64401000D02*
X127239000Y-63540000D01*
X127279000Y-61460000D02*
X127279000Y-60563000D01*
X127279000Y-64437000D02*
X127279000Y-63540000D01*
X127319000Y-61460000D02*
X127319000Y-60529000D01*
X127319000Y-64471000D02*
X127319000Y-63540000D01*
X127359000Y-61460000D02*
X127359000Y-60496000D01*
X127359000Y-64504000D02*
X127359000Y-63540000D01*
X127399000Y-61460000D02*
X127399000Y-60465000D01*
X127399000Y-64535000D02*
X127399000Y-63540000D01*
X127439000Y-61460000D02*
X127439000Y-60435000D01*
X127439000Y-64565000D02*
X127439000Y-63540000D01*
X127479000Y-61460000D02*
X127479000Y-60405000D01*
X127479000Y-64595000D02*
X127479000Y-63540000D01*
X127519000Y-61460000D02*
X127519000Y-60378000D01*
X127519000Y-64622000D02*
X127519000Y-63540000D01*
X127559000Y-61460000D02*
X127559000Y-60351000D01*
X127559000Y-64649000D02*
X127559000Y-63540000D01*
X127599000Y-61460000D02*
X127599000Y-60325000D01*
X127599000Y-64675000D02*
X127599000Y-63540000D01*
X127639000Y-61460000D02*
X127639000Y-60300000D01*
X127639000Y-64700000D02*
X127639000Y-63540000D01*
X127679000Y-61460000D02*
X127679000Y-60276000D01*
X127679000Y-64724000D02*
X127679000Y-63540000D01*
X127719000Y-61460000D02*
X127719000Y-60253000D01*
X127719000Y-64747000D02*
X127719000Y-63540000D01*
X127759000Y-61460000D02*
X127759000Y-60232000D01*
X127759000Y-64768000D02*
X127759000Y-63540000D01*
X127799000Y-61460000D02*
X127799000Y-60210000D01*
X127799000Y-64790000D02*
X127799000Y-63540000D01*
X127839000Y-61460000D02*
X127839000Y-60190000D01*
X127839000Y-64810000D02*
X127839000Y-63540000D01*
X127879000Y-61460000D02*
X127879000Y-60171000D01*
X127879000Y-64829000D02*
X127879000Y-63540000D01*
X127919000Y-61460000D02*
X127919000Y-60152000D01*
X127919000Y-64848000D02*
X127919000Y-63540000D01*
X127959000Y-61460000D02*
X127959000Y-60135000D01*
X127959000Y-64865000D02*
X127959000Y-63540000D01*
X127999000Y-61460000D02*
X127999000Y-60118000D01*
X127999000Y-64882000D02*
X127999000Y-63540000D01*
X128039000Y-61460000D02*
X128039000Y-60102000D01*
X128039000Y-64898000D02*
X128039000Y-63540000D01*
X128079000Y-61460000D02*
X128079000Y-60086000D01*
X128079000Y-64914000D02*
X128079000Y-63540000D01*
X128119000Y-61460000D02*
X128119000Y-60072000D01*
X128119000Y-64928000D02*
X128119000Y-63540000D01*
X128159000Y-61460000D02*
X128159000Y-60058000D01*
X128159000Y-64942000D02*
X128159000Y-63540000D01*
X128199000Y-61460000D02*
X128199000Y-60045000D01*
X128199000Y-64955000D02*
X128199000Y-63540000D01*
X128239000Y-61460000D02*
X128239000Y-60032000D01*
X128239000Y-64968000D02*
X128239000Y-63540000D01*
X128279000Y-61460000D02*
X128279000Y-60020000D01*
X128279000Y-64980000D02*
X128279000Y-63540000D01*
X128320000Y-61460000D02*
X128320000Y-60009000D01*
X128320000Y-64991000D02*
X128320000Y-63540000D01*
X128360000Y-61460000D02*
X128360000Y-59999000D01*
X128360000Y-65001000D02*
X128360000Y-63540000D01*
X128400000Y-61460000D02*
X128400000Y-59989000D01*
X128400000Y-65011000D02*
X128400000Y-63540000D01*
X128440000Y-61460000D02*
X128440000Y-59980000D01*
X128440000Y-65020000D02*
X128440000Y-63540000D01*
X128480000Y-61460000D02*
X128480000Y-59972000D01*
X128480000Y-65028000D02*
X128480000Y-63540000D01*
X128520000Y-61460000D02*
X128520000Y-59964000D01*
X128520000Y-65036000D02*
X128520000Y-63540000D01*
X128560000Y-61460000D02*
X128560000Y-59957000D01*
X128560000Y-65043000D02*
X128560000Y-63540000D01*
X128600000Y-61460000D02*
X128600000Y-59950000D01*
X128600000Y-65050000D02*
X128600000Y-63540000D01*
X128640000Y-61460000D02*
X128640000Y-59944000D01*
X128640000Y-65056000D02*
X128640000Y-63540000D01*
X128680000Y-61460000D02*
X128680000Y-59939000D01*
X128680000Y-65061000D02*
X128680000Y-63540000D01*
X128720000Y-61460000D02*
X128720000Y-59935000D01*
X128720000Y-65065000D02*
X128720000Y-63540000D01*
X128760000Y-61460000D02*
X128760000Y-59931000D01*
X128760000Y-65069000D02*
X128760000Y-63540000D01*
X128800000Y-61460000D02*
X128800000Y-59927000D01*
X128800000Y-65073000D02*
X128800000Y-63540000D01*
X128840000Y-61460000D02*
X128840000Y-59924000D01*
X128840000Y-65076000D02*
X128840000Y-63540000D01*
X128880000Y-61460000D02*
X128880000Y-59922000D01*
X128880000Y-65078000D02*
X128880000Y-63540000D01*
X128920000Y-61460000D02*
X128920000Y-59921000D01*
X128920000Y-65079000D02*
X128920000Y-63540000D01*
X128960000Y-65080000D02*
X128960000Y-63540000D01*
X128960000Y-61460000D02*
X128960000Y-59920000D01*
X129000000Y-65080000D02*
X129000000Y-63540000D01*
X129000000Y-61460000D02*
X129000000Y-59920000D01*
X131620000Y-62500000D02*
G75*
G03X131620000Y-62500000I-2620000J0D01*
G01*
X120445225Y-60775000D02*
X120445225Y-61275000D01*
X120195225Y-61025000D02*
X120695225Y-61025000D01*
X125601000Y-62216000D02*
X125601000Y-62784000D01*
X125561000Y-61982000D02*
X125561000Y-63018000D01*
X125521000Y-61823000D02*
X125521000Y-63177000D01*
X125481000Y-61695000D02*
X125481000Y-63305000D01*
X125441000Y-61585000D02*
X125441000Y-63415000D01*
X125401000Y-61489000D02*
X125401000Y-63511000D01*
X125361000Y-61402000D02*
X125361000Y-63598000D01*
X125321000Y-61322000D02*
X125321000Y-63678000D01*
X125281000Y-61249000D02*
X125281000Y-63751000D01*
X125241000Y-61181000D02*
X125241000Y-63819000D01*
X125201000Y-61117000D02*
X125201000Y-63883000D01*
X125161000Y-61057000D02*
X125161000Y-63943000D01*
X125121000Y-61000000D02*
X125121000Y-64000000D01*
X125081000Y-60946000D02*
X125081000Y-64054000D01*
X125041000Y-60895000D02*
X125041000Y-64105000D01*
X125001000Y-63540000D02*
X125001000Y-64153000D01*
X125001000Y-60847000D02*
X125001000Y-61460000D01*
X124961000Y-63540000D02*
X124961000Y-64199000D01*
X124961000Y-60801000D02*
X124961000Y-61460000D01*
X124921000Y-63540000D02*
X124921000Y-64243000D01*
X124921000Y-60757000D02*
X124921000Y-61460000D01*
X124881000Y-63540000D02*
X124881000Y-64285000D01*
X124881000Y-60715000D02*
X124881000Y-61460000D01*
X124841000Y-63540000D02*
X124841000Y-64326000D01*
X124841000Y-60674000D02*
X124841000Y-61460000D01*
X124801000Y-63540000D02*
X124801000Y-64364000D01*
X124801000Y-60636000D02*
X124801000Y-61460000D01*
X124761000Y-63540000D02*
X124761000Y-64401000D01*
X124761000Y-60599000D02*
X124761000Y-61460000D01*
X124721000Y-63540000D02*
X124721000Y-64437000D01*
X124721000Y-60563000D02*
X124721000Y-61460000D01*
X124681000Y-63540000D02*
X124681000Y-64471000D01*
X124681000Y-60529000D02*
X124681000Y-61460000D01*
X124641000Y-63540000D02*
X124641000Y-64504000D01*
X124641000Y-60496000D02*
X124641000Y-61460000D01*
X124601000Y-63540000D02*
X124601000Y-64535000D01*
X124601000Y-60465000D02*
X124601000Y-61460000D01*
X124561000Y-63540000D02*
X124561000Y-64565000D01*
X124561000Y-60435000D02*
X124561000Y-61460000D01*
X124521000Y-63540000D02*
X124521000Y-64595000D01*
X124521000Y-60405000D02*
X124521000Y-61460000D01*
X124481000Y-63540000D02*
X124481000Y-64622000D01*
X124481000Y-60378000D02*
X124481000Y-61460000D01*
X124441000Y-63540000D02*
X124441000Y-64649000D01*
X124441000Y-60351000D02*
X124441000Y-61460000D01*
X124401000Y-63540000D02*
X124401000Y-64675000D01*
X124401000Y-60325000D02*
X124401000Y-61460000D01*
X124361000Y-63540000D02*
X124361000Y-64700000D01*
X124361000Y-60300000D02*
X124361000Y-61460000D01*
X124321000Y-63540000D02*
X124321000Y-64724000D01*
X124321000Y-60276000D02*
X124321000Y-61460000D01*
X124281000Y-63540000D02*
X124281000Y-64747000D01*
X124281000Y-60253000D02*
X124281000Y-61460000D01*
X124241000Y-63540000D02*
X124241000Y-64768000D01*
X124241000Y-60232000D02*
X124241000Y-61460000D01*
X124201000Y-63540000D02*
X124201000Y-64790000D01*
X124201000Y-60210000D02*
X124201000Y-61460000D01*
X124161000Y-63540000D02*
X124161000Y-64810000D01*
X124161000Y-60190000D02*
X124161000Y-61460000D01*
X124121000Y-63540000D02*
X124121000Y-64829000D01*
X124121000Y-60171000D02*
X124121000Y-61460000D01*
X124081000Y-63540000D02*
X124081000Y-64848000D01*
X124081000Y-60152000D02*
X124081000Y-61460000D01*
X124041000Y-63540000D02*
X124041000Y-64865000D01*
X124041000Y-60135000D02*
X124041000Y-61460000D01*
X124001000Y-63540000D02*
X124001000Y-64882000D01*
X124001000Y-60118000D02*
X124001000Y-61460000D01*
X123961000Y-63540000D02*
X123961000Y-64898000D01*
X123961000Y-60102000D02*
X123961000Y-61460000D01*
X123921000Y-63540000D02*
X123921000Y-64914000D01*
X123921000Y-60086000D02*
X123921000Y-61460000D01*
X123881000Y-63540000D02*
X123881000Y-64928000D01*
X123881000Y-60072000D02*
X123881000Y-61460000D01*
X123841000Y-63540000D02*
X123841000Y-64942000D01*
X123841000Y-60058000D02*
X123841000Y-61460000D01*
X123801000Y-63540000D02*
X123801000Y-64955000D01*
X123801000Y-60045000D02*
X123801000Y-61460000D01*
X123761000Y-63540000D02*
X123761000Y-64968000D01*
X123761000Y-60032000D02*
X123761000Y-61460000D01*
X123721000Y-63540000D02*
X123721000Y-64980000D01*
X123721000Y-60020000D02*
X123721000Y-61460000D01*
X123680000Y-63540000D02*
X123680000Y-64991000D01*
X123680000Y-60009000D02*
X123680000Y-61460000D01*
X123640000Y-63540000D02*
X123640000Y-65001000D01*
X123640000Y-59999000D02*
X123640000Y-61460000D01*
X123600000Y-63540000D02*
X123600000Y-65011000D01*
X123600000Y-59989000D02*
X123600000Y-61460000D01*
X123560000Y-63540000D02*
X123560000Y-65020000D01*
X123560000Y-59980000D02*
X123560000Y-61460000D01*
X123520000Y-63540000D02*
X123520000Y-65028000D01*
X123520000Y-59972000D02*
X123520000Y-61460000D01*
X123480000Y-63540000D02*
X123480000Y-65036000D01*
X123480000Y-59964000D02*
X123480000Y-61460000D01*
X123440000Y-63540000D02*
X123440000Y-65043000D01*
X123440000Y-59957000D02*
X123440000Y-61460000D01*
X123400000Y-63540000D02*
X123400000Y-65050000D01*
X123400000Y-59950000D02*
X123400000Y-61460000D01*
X123360000Y-63540000D02*
X123360000Y-65056000D01*
X123360000Y-59944000D02*
X123360000Y-61460000D01*
X123320000Y-63540000D02*
X123320000Y-65061000D01*
X123320000Y-59939000D02*
X123320000Y-61460000D01*
X123280000Y-63540000D02*
X123280000Y-65065000D01*
X123280000Y-59935000D02*
X123280000Y-61460000D01*
X123240000Y-63540000D02*
X123240000Y-65069000D01*
X123240000Y-59931000D02*
X123240000Y-61460000D01*
X123200000Y-63540000D02*
X123200000Y-65073000D01*
X123200000Y-59927000D02*
X123200000Y-61460000D01*
X123160000Y-63540000D02*
X123160000Y-65076000D01*
X123160000Y-59924000D02*
X123160000Y-61460000D01*
X123120000Y-63540000D02*
X123120000Y-65078000D01*
X123120000Y-59922000D02*
X123120000Y-61460000D01*
X123080000Y-63540000D02*
X123080000Y-65079000D01*
X123080000Y-59921000D02*
X123080000Y-61460000D01*
X123040000Y-59920000D02*
X123040000Y-61460000D01*
X123040000Y-63540000D02*
X123040000Y-65080000D01*
X123000000Y-59920000D02*
X123000000Y-61460000D01*
X123000000Y-63540000D02*
X123000000Y-65080000D01*
X125620000Y-62500000D02*
G75*
G03X125620000Y-62500000I-2620000J0D01*
G01*
X157900000Y-73000000D02*
G75*
G03X157900000Y-73000000I-6100000J0D01*
G01*
X102200000Y-129200000D02*
X102200000Y-129600000D01*
X102840000Y-129200000D02*
X102200000Y-129200000D01*
X106508000Y-135742000D02*
X106112000Y-135347000D01*
X109154000Y-138388000D02*
X108774000Y-138008000D01*
X106226000Y-135993000D02*
X105846000Y-135613000D01*
X108888000Y-138654000D02*
X108492000Y-138259000D01*
X106219000Y-130452000D02*
X106112000Y-130346000D01*
X109154000Y-133388000D02*
X109047000Y-133281000D01*
X105953000Y-130718000D02*
X105846000Y-130612000D01*
X108888000Y-133654000D02*
X108781000Y-133547000D01*
X111560000Y-139560000D02*
X102440000Y-139560000D01*
X111560000Y-129440000D02*
X102440000Y-129440000D01*
X102440000Y-129440000D02*
X102440000Y-139560000D01*
X111560000Y-129440000D02*
X111560000Y-139560000D01*
X104000000Y-129440000D02*
X104000000Y-139560000D01*
X102900000Y-129440000D02*
X102900000Y-139560000D01*
X109680000Y-137000000D02*
G75*
G03X109680000Y-137000000I-2180000J0D01*
G01*
X109680000Y-132000000D02*
G75*
G03X109680000Y-132000000I-2180000J0D01*
G01*
X102200000Y-118200000D02*
X102200000Y-118600000D01*
X102840000Y-118200000D02*
X102200000Y-118200000D01*
X106508000Y-124742000D02*
X106112000Y-124347000D01*
X109154000Y-127388000D02*
X108774000Y-127008000D01*
X106226000Y-124993000D02*
X105846000Y-124613000D01*
X108888000Y-127654000D02*
X108492000Y-127259000D01*
X106219000Y-119452000D02*
X106112000Y-119346000D01*
X109154000Y-122388000D02*
X109047000Y-122281000D01*
X105953000Y-119718000D02*
X105846000Y-119612000D01*
X108888000Y-122654000D02*
X108781000Y-122547000D01*
X111560000Y-128560000D02*
X102440000Y-128560000D01*
X111560000Y-118440000D02*
X102440000Y-118440000D01*
X102440000Y-118440000D02*
X102440000Y-128560000D01*
X111560000Y-118440000D02*
X111560000Y-128560000D01*
X104000000Y-118440000D02*
X104000000Y-128560000D01*
X102900000Y-118440000D02*
X102900000Y-128560000D01*
X109680000Y-126000000D02*
G75*
G03X109680000Y-126000000I-2180000J0D01*
G01*
X109680000Y-121000000D02*
G75*
G03X109680000Y-121000000I-2180000J0D01*
G01*
D12*
X155357142Y-86857142D02*
X155309523Y-86904761D01*
X155166666Y-86952380D01*
X155071428Y-86952380D01*
X154928571Y-86904761D01*
X154833333Y-86809523D01*
X154785714Y-86714285D01*
X154738095Y-86523809D01*
X154738095Y-86380952D01*
X154785714Y-86190476D01*
X154833333Y-86095238D01*
X154928571Y-86000000D01*
X155071428Y-85952380D01*
X155166666Y-85952380D01*
X155309523Y-86000000D01*
X155357142Y-86047619D01*
X156309523Y-86952380D02*
X155738095Y-86952380D01*
X156023809Y-86952380D02*
X156023809Y-85952380D01*
X155928571Y-86095238D01*
X155833333Y-86190476D01*
X155738095Y-86238095D01*
X157166666Y-86285714D02*
X157166666Y-86952380D01*
X156928571Y-85904761D02*
X156690476Y-86619047D01*
X157309523Y-86619047D01*
X155857142Y-79357142D02*
X155809523Y-79404761D01*
X155666666Y-79452380D01*
X155571428Y-79452380D01*
X155428571Y-79404761D01*
X155333333Y-79309523D01*
X155285714Y-79214285D01*
X155238095Y-79023809D01*
X155238095Y-78880952D01*
X155285714Y-78690476D01*
X155333333Y-78595238D01*
X155428571Y-78500000D01*
X155571428Y-78452380D01*
X155666666Y-78452380D01*
X155809523Y-78500000D01*
X155857142Y-78547619D01*
X156809523Y-79452380D02*
X156238095Y-79452380D01*
X156523809Y-79452380D02*
X156523809Y-78452380D01*
X156428571Y-78595238D01*
X156333333Y-78690476D01*
X156238095Y-78738095D01*
X157142857Y-78452380D02*
X157761904Y-78452380D01*
X157428571Y-78833333D01*
X157571428Y-78833333D01*
X157666666Y-78880952D01*
X157714285Y-78928571D01*
X157761904Y-79023809D01*
X157761904Y-79261904D01*
X157714285Y-79357142D01*
X157666666Y-79404761D01*
X157571428Y-79452380D01*
X157285714Y-79452380D01*
X157190476Y-79404761D01*
X157142857Y-79357142D01*
X146357142Y-86857142D02*
X146309523Y-86904761D01*
X146166666Y-86952380D01*
X146071428Y-86952380D01*
X145928571Y-86904761D01*
X145833333Y-86809523D01*
X145785714Y-86714285D01*
X145738095Y-86523809D01*
X145738095Y-86380952D01*
X145785714Y-86190476D01*
X145833333Y-86095238D01*
X145928571Y-86000000D01*
X146071428Y-85952380D01*
X146166666Y-85952380D01*
X146309523Y-86000000D01*
X146357142Y-86047619D01*
X147309523Y-86952380D02*
X146738095Y-86952380D01*
X147023809Y-86952380D02*
X147023809Y-85952380D01*
X146928571Y-86095238D01*
X146833333Y-86190476D01*
X146738095Y-86238095D01*
X147690476Y-86047619D02*
X147738095Y-86000000D01*
X147833333Y-85952380D01*
X148071428Y-85952380D01*
X148166666Y-86000000D01*
X148214285Y-86047619D01*
X148261904Y-86142857D01*
X148261904Y-86238095D01*
X148214285Y-86380952D01*
X147642857Y-86952380D01*
X148261904Y-86952380D01*
X146357142Y-79357142D02*
X146309523Y-79404761D01*
X146166666Y-79452380D01*
X146071428Y-79452380D01*
X145928571Y-79404761D01*
X145833333Y-79309523D01*
X145785714Y-79214285D01*
X145738095Y-79023809D01*
X145738095Y-78880952D01*
X145785714Y-78690476D01*
X145833333Y-78595238D01*
X145928571Y-78500000D01*
X146071428Y-78452380D01*
X146166666Y-78452380D01*
X146309523Y-78500000D01*
X146357142Y-78547619D01*
X147309523Y-79452380D02*
X146738095Y-79452380D01*
X147023809Y-79452380D02*
X147023809Y-78452380D01*
X146928571Y-78595238D01*
X146833333Y-78690476D01*
X146738095Y-78738095D01*
X148261904Y-79452380D02*
X147690476Y-79452380D01*
X147976190Y-79452380D02*
X147976190Y-78452380D01*
X147880952Y-78595238D01*
X147785714Y-78690476D01*
X147690476Y-78738095D01*
X174357142Y-94857142D02*
X174309523Y-94904761D01*
X174166666Y-94952380D01*
X174071428Y-94952380D01*
X173928571Y-94904761D01*
X173833333Y-94809523D01*
X173785714Y-94714285D01*
X173738095Y-94523809D01*
X173738095Y-94380952D01*
X173785714Y-94190476D01*
X173833333Y-94095238D01*
X173928571Y-94000000D01*
X174071428Y-93952380D01*
X174166666Y-93952380D01*
X174309523Y-94000000D01*
X174357142Y-94047619D01*
X175309523Y-94952380D02*
X174738095Y-94952380D01*
X175023809Y-94952380D02*
X175023809Y-93952380D01*
X174928571Y-94095238D01*
X174833333Y-94190476D01*
X174738095Y-94238095D01*
X175928571Y-93952380D02*
X176023809Y-93952380D01*
X176119047Y-94000000D01*
X176166666Y-94047619D01*
X176214285Y-94142857D01*
X176261904Y-94333333D01*
X176261904Y-94571428D01*
X176214285Y-94761904D01*
X176166666Y-94857142D01*
X176119047Y-94904761D01*
X176023809Y-94952380D01*
X175928571Y-94952380D01*
X175833333Y-94904761D01*
X175785714Y-94857142D01*
X175738095Y-94761904D01*
X175690476Y-94571428D01*
X175690476Y-94333333D01*
X175738095Y-94142857D01*
X175785714Y-94047619D01*
X175833333Y-94000000D01*
X175928571Y-93952380D01*
X174333333Y-90357142D02*
X174285714Y-90404761D01*
X174142857Y-90452380D01*
X174047619Y-90452380D01*
X173904761Y-90404761D01*
X173809523Y-90309523D01*
X173761904Y-90214285D01*
X173714285Y-90023809D01*
X173714285Y-89880952D01*
X173761904Y-89690476D01*
X173809523Y-89595238D01*
X173904761Y-89500000D01*
X174047619Y-89452380D01*
X174142857Y-89452380D01*
X174285714Y-89500000D01*
X174333333Y-89547619D01*
X174809523Y-90452380D02*
X175000000Y-90452380D01*
X175095238Y-90404761D01*
X175142857Y-90357142D01*
X175238095Y-90214285D01*
X175285714Y-90023809D01*
X175285714Y-89642857D01*
X175238095Y-89547619D01*
X175190476Y-89500000D01*
X175095238Y-89452380D01*
X174904761Y-89452380D01*
X174809523Y-89500000D01*
X174761904Y-89547619D01*
X174714285Y-89642857D01*
X174714285Y-89880952D01*
X174761904Y-89976190D01*
X174809523Y-90023809D01*
X174904761Y-90071428D01*
X175095238Y-90071428D01*
X175190476Y-90023809D01*
X175238095Y-89976190D01*
X175285714Y-89880952D01*
X196404761Y-136833333D02*
X196452380Y-136690476D01*
X196452380Y-136452380D01*
X196404761Y-136357142D01*
X196357142Y-136309523D01*
X196261904Y-136261904D01*
X196166666Y-136261904D01*
X196071428Y-136309523D01*
X196023809Y-136357142D01*
X195976190Y-136452380D01*
X195928571Y-136642857D01*
X195880952Y-136738095D01*
X195833333Y-136785714D01*
X195738095Y-136833333D01*
X195642857Y-136833333D01*
X195547619Y-136785714D01*
X195500000Y-136738095D01*
X195452380Y-136642857D01*
X195452380Y-136404761D01*
X195500000Y-136261904D01*
X195452380Y-135928571D02*
X196452380Y-135690476D01*
X195738095Y-135500000D01*
X196452380Y-135309523D01*
X195452380Y-135071428D01*
X195785714Y-134261904D02*
X196452380Y-134261904D01*
X195404761Y-134500000D02*
X196119047Y-134738095D01*
X196119047Y-134119047D01*
X196404761Y-126583333D02*
X196452380Y-126440476D01*
X196452380Y-126202380D01*
X196404761Y-126107142D01*
X196357142Y-126059523D01*
X196261904Y-126011904D01*
X196166666Y-126011904D01*
X196071428Y-126059523D01*
X196023809Y-126107142D01*
X195976190Y-126202380D01*
X195928571Y-126392857D01*
X195880952Y-126488095D01*
X195833333Y-126535714D01*
X195738095Y-126583333D01*
X195642857Y-126583333D01*
X195547619Y-126535714D01*
X195500000Y-126488095D01*
X195452380Y-126392857D01*
X195452380Y-126154761D01*
X195500000Y-126011904D01*
X195452380Y-125678571D02*
X196452380Y-125440476D01*
X195738095Y-125250000D01*
X196452380Y-125059523D01*
X195452380Y-124821428D01*
X196452380Y-123916666D02*
X196452380Y-124488095D01*
X196452380Y-124202380D02*
X195452380Y-124202380D01*
X195595238Y-124297619D01*
X195690476Y-124392857D01*
X195738095Y-124488095D01*
X181952380Y-90642857D02*
X181476190Y-90976190D01*
X181952380Y-91214285D02*
X180952380Y-91214285D01*
X180952380Y-90833333D01*
X181000000Y-90738095D01*
X181047619Y-90690476D01*
X181142857Y-90642857D01*
X181285714Y-90642857D01*
X181380952Y-90690476D01*
X181428571Y-90738095D01*
X181476190Y-90833333D01*
X181476190Y-91214285D01*
X181047619Y-90261904D02*
X181000000Y-90214285D01*
X180952380Y-90119047D01*
X180952380Y-89880952D01*
X181000000Y-89785714D01*
X181047619Y-89738095D01*
X181142857Y-89690476D01*
X181238095Y-89690476D01*
X181380952Y-89738095D01*
X181952380Y-90309523D01*
X181952380Y-89690476D01*
X180952380Y-88833333D02*
X180952380Y-89023809D01*
X181000000Y-89119047D01*
X181047619Y-89166666D01*
X181190476Y-89261904D01*
X181380952Y-89309523D01*
X181761904Y-89309523D01*
X181857142Y-89261904D01*
X181904761Y-89214285D01*
X181952380Y-89119047D01*
X181952380Y-88928571D01*
X181904761Y-88833333D01*
X181857142Y-88785714D01*
X181761904Y-88738095D01*
X181523809Y-88738095D01*
X181428571Y-88785714D01*
X181380952Y-88833333D01*
X181333333Y-88928571D01*
X181333333Y-89119047D01*
X181380952Y-89214285D01*
X181428571Y-89261904D01*
X181523809Y-89309523D01*
X178452380Y-90642857D02*
X177976190Y-90976190D01*
X178452380Y-91214285D02*
X177452380Y-91214285D01*
X177452380Y-90833333D01*
X177500000Y-90738095D01*
X177547619Y-90690476D01*
X177642857Y-90642857D01*
X177785714Y-90642857D01*
X177880952Y-90690476D01*
X177928571Y-90738095D01*
X177976190Y-90833333D01*
X177976190Y-91214285D01*
X177547619Y-90261904D02*
X177500000Y-90214285D01*
X177452380Y-90119047D01*
X177452380Y-89880952D01*
X177500000Y-89785714D01*
X177547619Y-89738095D01*
X177642857Y-89690476D01*
X177738095Y-89690476D01*
X177880952Y-89738095D01*
X178452380Y-90309523D01*
X178452380Y-89690476D01*
X177452380Y-88785714D02*
X177452380Y-89261904D01*
X177928571Y-89309523D01*
X177880952Y-89261904D01*
X177833333Y-89166666D01*
X177833333Y-88928571D01*
X177880952Y-88833333D01*
X177928571Y-88785714D01*
X178023809Y-88738095D01*
X178261904Y-88738095D01*
X178357142Y-88785714D01*
X178404761Y-88833333D01*
X178452380Y-88928571D01*
X178452380Y-89166666D01*
X178404761Y-89261904D01*
X178357142Y-89309523D01*
X161302380Y-90642857D02*
X160826190Y-90976190D01*
X161302380Y-91214285D02*
X160302380Y-91214285D01*
X160302380Y-90833333D01*
X160350000Y-90738095D01*
X160397619Y-90690476D01*
X160492857Y-90642857D01*
X160635714Y-90642857D01*
X160730952Y-90690476D01*
X160778571Y-90738095D01*
X160826190Y-90833333D01*
X160826190Y-91214285D01*
X160397619Y-90261904D02*
X160350000Y-90214285D01*
X160302380Y-90119047D01*
X160302380Y-89880952D01*
X160350000Y-89785714D01*
X160397619Y-89738095D01*
X160492857Y-89690476D01*
X160588095Y-89690476D01*
X160730952Y-89738095D01*
X161302380Y-90309523D01*
X161302380Y-89690476D01*
X160302380Y-89357142D02*
X160302380Y-88738095D01*
X160683333Y-89071428D01*
X160683333Y-88928571D01*
X160730952Y-88833333D01*
X160778571Y-88785714D01*
X160873809Y-88738095D01*
X161111904Y-88738095D01*
X161207142Y-88785714D01*
X161254761Y-88833333D01*
X161302380Y-88928571D01*
X161302380Y-89214285D01*
X161254761Y-89309523D01*
X161207142Y-89357142D01*
X157802380Y-90642857D02*
X157326190Y-90976190D01*
X157802380Y-91214285D02*
X156802380Y-91214285D01*
X156802380Y-90833333D01*
X156850000Y-90738095D01*
X156897619Y-90690476D01*
X156992857Y-90642857D01*
X157135714Y-90642857D01*
X157230952Y-90690476D01*
X157278571Y-90738095D01*
X157326190Y-90833333D01*
X157326190Y-91214285D01*
X156897619Y-90261904D02*
X156850000Y-90214285D01*
X156802380Y-90119047D01*
X156802380Y-89880952D01*
X156850000Y-89785714D01*
X156897619Y-89738095D01*
X156992857Y-89690476D01*
X157088095Y-89690476D01*
X157230952Y-89738095D01*
X157802380Y-90309523D01*
X157802380Y-89690476D01*
X156897619Y-89309523D02*
X156850000Y-89261904D01*
X156802380Y-89166666D01*
X156802380Y-88928571D01*
X156850000Y-88833333D01*
X156897619Y-88785714D01*
X156992857Y-88738095D01*
X157088095Y-88738095D01*
X157230952Y-88785714D01*
X157802380Y-89357142D01*
X157802380Y-88738095D01*
X157802380Y-95142857D02*
X157326190Y-95476190D01*
X157802380Y-95714285D02*
X156802380Y-95714285D01*
X156802380Y-95333333D01*
X156850000Y-95238095D01*
X156897619Y-95190476D01*
X156992857Y-95142857D01*
X157135714Y-95142857D01*
X157230952Y-95190476D01*
X157278571Y-95238095D01*
X157326190Y-95333333D01*
X157326190Y-95714285D01*
X156897619Y-94761904D02*
X156850000Y-94714285D01*
X156802380Y-94619047D01*
X156802380Y-94380952D01*
X156850000Y-94285714D01*
X156897619Y-94238095D01*
X156992857Y-94190476D01*
X157088095Y-94190476D01*
X157230952Y-94238095D01*
X157802380Y-94809523D01*
X157802380Y-94190476D01*
X157802380Y-93238095D02*
X157802380Y-93809523D01*
X157802380Y-93523809D02*
X156802380Y-93523809D01*
X156945238Y-93619047D01*
X157040476Y-93714285D01*
X157088095Y-93809523D01*
X164802380Y-90642857D02*
X164326190Y-90976190D01*
X164802380Y-91214285D02*
X163802380Y-91214285D01*
X163802380Y-90833333D01*
X163850000Y-90738095D01*
X163897619Y-90690476D01*
X163992857Y-90642857D01*
X164135714Y-90642857D01*
X164230952Y-90690476D01*
X164278571Y-90738095D01*
X164326190Y-90833333D01*
X164326190Y-91214285D01*
X163897619Y-90261904D02*
X163850000Y-90214285D01*
X163802380Y-90119047D01*
X163802380Y-89880952D01*
X163850000Y-89785714D01*
X163897619Y-89738095D01*
X163992857Y-89690476D01*
X164088095Y-89690476D01*
X164230952Y-89738095D01*
X164802380Y-90309523D01*
X164802380Y-89690476D01*
X163802380Y-89071428D02*
X163802380Y-88976190D01*
X163850000Y-88880952D01*
X163897619Y-88833333D01*
X163992857Y-88785714D01*
X164183333Y-88738095D01*
X164421428Y-88738095D01*
X164611904Y-88785714D01*
X164707142Y-88833333D01*
X164754761Y-88880952D01*
X164802380Y-88976190D01*
X164802380Y-89071428D01*
X164754761Y-89166666D01*
X164707142Y-89214285D01*
X164611904Y-89261904D01*
X164421428Y-89309523D01*
X164183333Y-89309523D01*
X163992857Y-89261904D01*
X163897619Y-89214285D01*
X163850000Y-89166666D01*
X163802380Y-89071428D01*
X164602380Y-95142857D02*
X164126190Y-95476190D01*
X164602380Y-95714285D02*
X163602380Y-95714285D01*
X163602380Y-95333333D01*
X163650000Y-95238095D01*
X163697619Y-95190476D01*
X163792857Y-95142857D01*
X163935714Y-95142857D01*
X164030952Y-95190476D01*
X164078571Y-95238095D01*
X164126190Y-95333333D01*
X164126190Y-95714285D01*
X164602380Y-94190476D02*
X164602380Y-94761904D01*
X164602380Y-94476190D02*
X163602380Y-94476190D01*
X163745238Y-94571428D01*
X163840476Y-94666666D01*
X163888095Y-94761904D01*
X164602380Y-93714285D02*
X164602380Y-93523809D01*
X164554761Y-93428571D01*
X164507142Y-93380952D01*
X164364285Y-93285714D01*
X164173809Y-93238095D01*
X163792857Y-93238095D01*
X163697619Y-93285714D01*
X163650000Y-93333333D01*
X163602380Y-93428571D01*
X163602380Y-93619047D01*
X163650000Y-93714285D01*
X163697619Y-93761904D01*
X163792857Y-93809523D01*
X164030952Y-93809523D01*
X164126190Y-93761904D01*
X164173809Y-93714285D01*
X164221428Y-93619047D01*
X164221428Y-93428571D01*
X164173809Y-93333333D01*
X164126190Y-93285714D01*
X164030952Y-93238095D01*
X197666666Y-98182380D02*
X197666666Y-98896666D01*
X197619047Y-99039523D01*
X197523809Y-99134761D01*
X197380952Y-99182380D01*
X197285714Y-99182380D01*
X198095238Y-98277619D02*
X198142857Y-98230000D01*
X198238095Y-98182380D01*
X198476190Y-98182380D01*
X198571428Y-98230000D01*
X198619047Y-98277619D01*
X198666666Y-98372857D01*
X198666666Y-98468095D01*
X198619047Y-98610952D01*
X198047619Y-99182380D01*
X198666666Y-99182380D01*
X198452380Y-71809523D02*
X199261904Y-71809523D01*
X199357142Y-71761904D01*
X199404761Y-71714285D01*
X199452380Y-71619047D01*
X199452380Y-71428571D01*
X199404761Y-71333333D01*
X199357142Y-71285714D01*
X199261904Y-71238095D01*
X198452380Y-71238095D01*
X199452380Y-70333333D02*
X198928571Y-70333333D01*
X198833333Y-70380952D01*
X198785714Y-70476190D01*
X198785714Y-70666666D01*
X198833333Y-70761904D01*
X199404761Y-70333333D02*
X199452380Y-70428571D01*
X199452380Y-70666666D01*
X199404761Y-70761904D01*
X199309523Y-70809523D01*
X199214285Y-70809523D01*
X199119047Y-70761904D01*
X199071428Y-70666666D01*
X199071428Y-70428571D01*
X199023809Y-70333333D01*
X199452380Y-69857142D02*
X198785714Y-69857142D01*
X198976190Y-69857142D02*
X198880952Y-69809523D01*
X198833333Y-69761904D01*
X198785714Y-69666666D01*
X198785714Y-69571428D01*
X198785714Y-69380952D02*
X198785714Y-69000000D01*
X198452380Y-69238095D02*
X199309523Y-69238095D01*
X199404761Y-69190476D01*
X199452380Y-69095238D01*
X199452380Y-69000000D01*
X199452380Y-68142857D02*
X199452380Y-68714285D01*
X199452380Y-68428571D02*
X198452380Y-68428571D01*
X198595238Y-68523809D01*
X198690476Y-68619047D01*
X198738095Y-68714285D01*
X118666666Y-53678571D02*
X118333333Y-53678571D01*
X118333333Y-54202380D02*
X118333333Y-53202380D01*
X118809523Y-53202380D01*
X119714285Y-54202380D02*
X119142857Y-54202380D01*
X119428571Y-54202380D02*
X119428571Y-53202380D01*
X119333333Y-53345238D01*
X119238095Y-53440476D01*
X119142857Y-53488095D01*
X179428571Y-59785714D02*
X179476190Y-59642857D01*
X179523809Y-59595238D01*
X179619047Y-59547619D01*
X179761904Y-59547619D01*
X179857142Y-59595238D01*
X179904761Y-59642857D01*
X179952380Y-59738095D01*
X179952380Y-60119047D01*
X178952380Y-60119047D01*
X178952380Y-59785714D01*
X179000000Y-59690476D01*
X179047619Y-59642857D01*
X179142857Y-59595238D01*
X179238095Y-59595238D01*
X179333333Y-59642857D01*
X179380952Y-59690476D01*
X179428571Y-59785714D01*
X179428571Y-60119047D01*
X178952380Y-59261904D02*
X178952380Y-58690476D01*
X179952380Y-58976190D02*
X178952380Y-58976190D01*
X179952380Y-57833333D02*
X179952380Y-58404761D01*
X179952380Y-58119047D02*
X178952380Y-58119047D01*
X179095238Y-58214285D01*
X179190476Y-58309523D01*
X179238095Y-58404761D01*
X179607142Y-56821428D02*
X179607142Y-55678571D01*
X180178571Y-56250000D02*
X179035714Y-56250000D01*
X162785714Y-86452380D02*
X162785714Y-85452380D01*
X163023809Y-85452380D01*
X163166666Y-85500000D01*
X163261904Y-85595238D01*
X163309523Y-85690476D01*
X163357142Y-85880952D01*
X163357142Y-86023809D01*
X163309523Y-86214285D01*
X163261904Y-86309523D01*
X163166666Y-86404761D01*
X163023809Y-86452380D01*
X162785714Y-86452380D01*
X164309523Y-86452380D02*
X163738095Y-86452380D01*
X164023809Y-86452380D02*
X164023809Y-85452380D01*
X163928571Y-85595238D01*
X163833333Y-85690476D01*
X163738095Y-85738095D01*
X165166666Y-85785714D02*
X165166666Y-86452380D01*
X164928571Y-85404761D02*
X164690476Y-86119047D01*
X165309523Y-86119047D01*
X167738095Y-88252380D02*
X167738095Y-87252380D01*
X168309523Y-88252380D02*
X167880952Y-87680952D01*
X168309523Y-87252380D02*
X167738095Y-87823809D01*
X136261904Y-52952380D02*
X136261904Y-51952380D01*
X136500000Y-51952380D01*
X136642857Y-52000000D01*
X136738095Y-52095238D01*
X136785714Y-52190476D01*
X136833333Y-52380952D01*
X136833333Y-52523809D01*
X136785714Y-52714285D01*
X136738095Y-52809523D01*
X136642857Y-52904761D01*
X136500000Y-52952380D01*
X136261904Y-52952380D01*
X137690476Y-51952380D02*
X137500000Y-51952380D01*
X137404761Y-52000000D01*
X137357142Y-52047619D01*
X137261904Y-52190476D01*
X137214285Y-52380952D01*
X137214285Y-52761904D01*
X137261904Y-52857142D01*
X137309523Y-52904761D01*
X137404761Y-52952380D01*
X137595238Y-52952380D01*
X137690476Y-52904761D01*
X137738095Y-52857142D01*
X137785714Y-52761904D01*
X137785714Y-52523809D01*
X137738095Y-52428571D01*
X137690476Y-52380952D01*
X137595238Y-52333333D01*
X137404761Y-52333333D01*
X137309523Y-52380952D01*
X137261904Y-52428571D01*
X137214285Y-52523809D01*
X144238095Y-52952380D02*
X144238095Y-51952380D01*
X144809523Y-52952380D02*
X144380952Y-52380952D01*
X144809523Y-51952380D02*
X144238095Y-52523809D01*
X136261904Y-56702380D02*
X136261904Y-55702380D01*
X136500000Y-55702380D01*
X136642857Y-55750000D01*
X136738095Y-55845238D01*
X136785714Y-55940476D01*
X136833333Y-56130952D01*
X136833333Y-56273809D01*
X136785714Y-56464285D01*
X136738095Y-56559523D01*
X136642857Y-56654761D01*
X136500000Y-56702380D01*
X136261904Y-56702380D01*
X137738095Y-55702380D02*
X137261904Y-55702380D01*
X137214285Y-56178571D01*
X137261904Y-56130952D01*
X137357142Y-56083333D01*
X137595238Y-56083333D01*
X137690476Y-56130952D01*
X137738095Y-56178571D01*
X137785714Y-56273809D01*
X137785714Y-56511904D01*
X137738095Y-56607142D01*
X137690476Y-56654761D01*
X137595238Y-56702380D01*
X137357142Y-56702380D01*
X137261904Y-56654761D01*
X137214285Y-56607142D01*
X144238095Y-56702380D02*
X144238095Y-55702380D01*
X144809523Y-56702380D02*
X144380952Y-56130952D01*
X144809523Y-55702380D02*
X144238095Y-56273809D01*
X115452380Y-102238095D02*
X114452380Y-102238095D01*
X114452380Y-102000000D01*
X114500000Y-101857142D01*
X114595238Y-101761904D01*
X114690476Y-101714285D01*
X114880952Y-101666666D01*
X115023809Y-101666666D01*
X115214285Y-101714285D01*
X115309523Y-101761904D01*
X115404761Y-101857142D01*
X115452380Y-102000000D01*
X115452380Y-102238095D01*
X114452380Y-101333333D02*
X114452380Y-100714285D01*
X114833333Y-101047619D01*
X114833333Y-100904761D01*
X114880952Y-100809523D01*
X114928571Y-100761904D01*
X115023809Y-100714285D01*
X115261904Y-100714285D01*
X115357142Y-100761904D01*
X115404761Y-100809523D01*
X115452380Y-100904761D01*
X115452380Y-101190476D01*
X115404761Y-101285714D01*
X115357142Y-101333333D01*
X117452380Y-96761904D02*
X116452380Y-96761904D01*
X117452380Y-96190476D02*
X116880952Y-96619047D01*
X116452380Y-96190476D02*
X117023809Y-96761904D01*
X115452380Y-88738095D02*
X114452380Y-88738095D01*
X114452380Y-88500000D01*
X114500000Y-88357142D01*
X114595238Y-88261904D01*
X114690476Y-88214285D01*
X114880952Y-88166666D01*
X115023809Y-88166666D01*
X115214285Y-88214285D01*
X115309523Y-88261904D01*
X115404761Y-88357142D01*
X115452380Y-88500000D01*
X115452380Y-88738095D01*
X114547619Y-87785714D02*
X114500000Y-87738095D01*
X114452380Y-87642857D01*
X114452380Y-87404761D01*
X114500000Y-87309523D01*
X114547619Y-87261904D01*
X114642857Y-87214285D01*
X114738095Y-87214285D01*
X114880952Y-87261904D01*
X115452380Y-87833333D01*
X115452380Y-87214285D01*
X117452380Y-83261904D02*
X116452380Y-83261904D01*
X117452380Y-82690476D02*
X116880952Y-83119047D01*
X116452380Y-82690476D02*
X117023809Y-83261904D01*
X115452380Y-75238095D02*
X114452380Y-75238095D01*
X114452380Y-75000000D01*
X114500000Y-74857142D01*
X114595238Y-74761904D01*
X114690476Y-74714285D01*
X114880952Y-74666666D01*
X115023809Y-74666666D01*
X115214285Y-74714285D01*
X115309523Y-74761904D01*
X115404761Y-74857142D01*
X115452380Y-75000000D01*
X115452380Y-75238095D01*
X115452380Y-73714285D02*
X115452380Y-74285714D01*
X115452380Y-74000000D02*
X114452380Y-74000000D01*
X114595238Y-74095238D01*
X114690476Y-74190476D01*
X114738095Y-74285714D01*
X117452380Y-69761904D02*
X116452380Y-69761904D01*
X117452380Y-69190476D02*
X116880952Y-69619047D01*
X116452380Y-69190476D02*
X117023809Y-69761904D01*
X174238095Y-123452380D02*
X174238095Y-124261904D01*
X174285714Y-124357142D01*
X174333333Y-124404761D01*
X174428571Y-124452380D01*
X174619047Y-124452380D01*
X174714285Y-124404761D01*
X174761904Y-124357142D01*
X174809523Y-124261904D01*
X174809523Y-123452380D01*
X175190476Y-123452380D02*
X175857142Y-123452380D01*
X175428571Y-124452380D01*
X167704761Y-98123809D02*
X167819047Y-98161904D01*
X168009523Y-98161904D01*
X168085714Y-98123809D01*
X168123809Y-98085714D01*
X168161904Y-98009523D01*
X168161904Y-97933333D01*
X168123809Y-97857142D01*
X168085714Y-97819047D01*
X168009523Y-97780952D01*
X167857142Y-97742857D01*
X167780952Y-97704761D01*
X167742857Y-97666666D01*
X167704761Y-97590476D01*
X167704761Y-97514285D01*
X167742857Y-97438095D01*
X167780952Y-97400000D01*
X167857142Y-97361904D01*
X168047619Y-97361904D01*
X168161904Y-97400000D01*
X168428571Y-97361904D02*
X168619047Y-98161904D01*
X168771428Y-97590476D01*
X168923809Y-98161904D01*
X169114285Y-97361904D01*
X169419047Y-98161904D02*
X169419047Y-97361904D01*
X169609523Y-97361904D01*
X169723809Y-97400000D01*
X169800000Y-97476190D01*
X169838095Y-97552380D01*
X169876190Y-97704761D01*
X169876190Y-97819047D01*
X169838095Y-97971428D01*
X169800000Y-98047619D01*
X169723809Y-98123809D01*
X169609523Y-98161904D01*
X169419047Y-98161904D01*
X170219047Y-98161904D02*
X170219047Y-97361904D01*
X170752380Y-97361904D02*
X170904761Y-97361904D01*
X170980952Y-97400000D01*
X171057142Y-97476190D01*
X171095238Y-97628571D01*
X171095238Y-97895238D01*
X171057142Y-98047619D01*
X170980952Y-98123809D01*
X170904761Y-98161904D01*
X170752380Y-98161904D01*
X170676190Y-98123809D01*
X170600000Y-98047619D01*
X170561904Y-97895238D01*
X170561904Y-97628571D01*
X170600000Y-97476190D01*
X170676190Y-97400000D01*
X170752380Y-97361904D01*
X178890476Y-98123809D02*
X179004761Y-98161904D01*
X179195238Y-98161904D01*
X179271428Y-98123809D01*
X179309523Y-98085714D01*
X179347619Y-98009523D01*
X179347619Y-97933333D01*
X179309523Y-97857142D01*
X179271428Y-97819047D01*
X179195238Y-97780952D01*
X179042857Y-97742857D01*
X178966666Y-97704761D01*
X178928571Y-97666666D01*
X178890476Y-97590476D01*
X178890476Y-97514285D01*
X178928571Y-97438095D01*
X178966666Y-97400000D01*
X179042857Y-97361904D01*
X179233333Y-97361904D01*
X179347619Y-97400000D01*
X179614285Y-97361904D02*
X179804761Y-98161904D01*
X179957142Y-97590476D01*
X180109523Y-98161904D01*
X180300000Y-97361904D01*
X181061904Y-98085714D02*
X181023809Y-98123809D01*
X180909523Y-98161904D01*
X180833333Y-98161904D01*
X180719047Y-98123809D01*
X180642857Y-98047619D01*
X180604761Y-97971428D01*
X180566666Y-97819047D01*
X180566666Y-97704761D01*
X180604761Y-97552380D01*
X180642857Y-97476190D01*
X180719047Y-97400000D01*
X180833333Y-97361904D01*
X180909523Y-97361904D01*
X181023809Y-97400000D01*
X181061904Y-97438095D01*
X181785714Y-98161904D02*
X181404761Y-98161904D01*
X181404761Y-97361904D01*
X182052380Y-98161904D02*
X182052380Y-97361904D01*
X182509523Y-98161904D02*
X182166666Y-97704761D01*
X182509523Y-97361904D02*
X182052380Y-97819047D01*
X161043597Y-131440964D02*
X161312971Y-131171590D01*
X161151346Y-131656463D02*
X160774223Y-130902216D01*
X161528470Y-131279340D01*
X161474595Y-130255719D02*
X161393783Y-130282656D01*
X161312971Y-130363468D01*
X161259096Y-130471218D01*
X161259096Y-130578967D01*
X161286033Y-130659780D01*
X161366845Y-130794467D01*
X161447658Y-130875279D01*
X161582345Y-130956091D01*
X161663157Y-130983028D01*
X161770906Y-130983028D01*
X161878656Y-130929154D01*
X161932531Y-130875279D01*
X161986406Y-130767529D01*
X161986406Y-130713654D01*
X161797844Y-130525093D01*
X161690094Y-130632842D01*
X162282717Y-130525093D02*
X161717032Y-129959407D01*
X162605966Y-130201844D01*
X162040280Y-129636158D01*
X162875340Y-129932470D02*
X162309654Y-129366784D01*
X162444341Y-129232097D01*
X162552091Y-129178223D01*
X162659841Y-129178223D01*
X162740653Y-129205160D01*
X162875340Y-129285972D01*
X162956152Y-129366784D01*
X163036964Y-129501471D01*
X163063902Y-129582284D01*
X163063902Y-129690033D01*
X163010027Y-129797783D01*
X162875340Y-129932470D01*
X161486158Y-143198155D02*
X161405346Y-143225093D01*
X161324534Y-143305905D01*
X161270659Y-143413654D01*
X161270659Y-143521404D01*
X161297597Y-143602216D01*
X161378409Y-143736903D01*
X161459221Y-143817715D01*
X161593908Y-143898528D01*
X161674720Y-143925465D01*
X161782470Y-143925465D01*
X161890219Y-143871590D01*
X161944094Y-143817715D01*
X161997969Y-143709966D01*
X161997969Y-143656091D01*
X161809407Y-143467529D01*
X161701658Y-143575279D01*
X162294280Y-143467529D02*
X161728595Y-142901844D01*
X162617529Y-143144280D01*
X162051844Y-142578595D01*
X162886903Y-142874906D02*
X162321218Y-142309221D01*
X162455905Y-142174534D01*
X162563654Y-142120659D01*
X162671404Y-142120659D01*
X162752216Y-142147597D01*
X162886903Y-142228409D01*
X162967715Y-142309221D01*
X163048528Y-142443908D01*
X163075465Y-142524720D01*
X163075465Y-142632470D01*
X163021590Y-142740219D01*
X162886903Y-142874906D01*
X161486158Y-117798155D02*
X161405346Y-117825093D01*
X161324534Y-117905905D01*
X161270659Y-118013654D01*
X161270659Y-118121404D01*
X161297597Y-118202216D01*
X161378409Y-118336903D01*
X161459221Y-118417715D01*
X161593908Y-118498528D01*
X161674720Y-118525465D01*
X161782470Y-118525465D01*
X161890219Y-118471590D01*
X161944094Y-118417715D01*
X161997969Y-118309966D01*
X161997969Y-118256091D01*
X161809407Y-118067529D01*
X161701658Y-118175279D01*
X162294280Y-118067529D02*
X161728595Y-117501844D01*
X162617529Y-117744280D01*
X162051844Y-117178595D01*
X162886903Y-117474906D02*
X162321218Y-116909221D01*
X162455905Y-116774534D01*
X162563654Y-116720659D01*
X162671404Y-116720659D01*
X162752216Y-116747597D01*
X162886903Y-116828409D01*
X162967715Y-116909221D01*
X163048528Y-117043908D01*
X163075465Y-117124720D01*
X163075465Y-117232470D01*
X163021590Y-117340219D01*
X162886903Y-117474906D01*
X161486158Y-105098155D02*
X161405346Y-105125093D01*
X161324534Y-105205905D01*
X161270659Y-105313654D01*
X161270659Y-105421404D01*
X161297597Y-105502216D01*
X161378409Y-105636903D01*
X161459221Y-105717715D01*
X161593908Y-105798528D01*
X161674720Y-105825465D01*
X161782470Y-105825465D01*
X161890219Y-105771590D01*
X161944094Y-105717715D01*
X161997969Y-105609966D01*
X161997969Y-105556091D01*
X161809407Y-105367529D01*
X161701658Y-105475279D01*
X162294280Y-105367529D02*
X161728595Y-104801844D01*
X162617529Y-105044280D01*
X162051844Y-104478595D01*
X162886903Y-104774906D02*
X162321218Y-104209221D01*
X162455905Y-104074534D01*
X162563654Y-104020659D01*
X162671404Y-104020659D01*
X162752216Y-104047597D01*
X162886903Y-104128409D01*
X162967715Y-104209221D01*
X163048528Y-104343908D01*
X163075465Y-104424720D01*
X163075465Y-104532470D01*
X163021590Y-104640219D01*
X162886903Y-104774906D01*
X187086158Y-105098155D02*
X187005346Y-105125093D01*
X186924534Y-105205905D01*
X186870659Y-105313654D01*
X186870659Y-105421404D01*
X186897597Y-105502216D01*
X186978409Y-105636903D01*
X187059221Y-105717715D01*
X187193908Y-105798528D01*
X187274720Y-105825465D01*
X187382470Y-105825465D01*
X187490219Y-105771590D01*
X187544094Y-105717715D01*
X187597969Y-105609966D01*
X187597969Y-105556091D01*
X187409407Y-105367529D01*
X187301658Y-105475279D01*
X187894280Y-105367529D02*
X187328595Y-104801844D01*
X188217529Y-105044280D01*
X187651844Y-104478595D01*
X188486903Y-104774906D02*
X187921218Y-104209221D01*
X188055905Y-104074534D01*
X188163654Y-104020659D01*
X188271404Y-104020659D01*
X188352216Y-104047597D01*
X188486903Y-104128409D01*
X188567715Y-104209221D01*
X188648528Y-104343908D01*
X188675465Y-104424720D01*
X188675465Y-104532470D01*
X188621590Y-104640219D01*
X188486903Y-104774906D01*
X187086158Y-117798155D02*
X187005346Y-117825093D01*
X186924534Y-117905905D01*
X186870659Y-118013654D01*
X186870659Y-118121404D01*
X186897597Y-118202216D01*
X186978409Y-118336903D01*
X187059221Y-118417715D01*
X187193908Y-118498528D01*
X187274720Y-118525465D01*
X187382470Y-118525465D01*
X187490219Y-118471590D01*
X187544094Y-118417715D01*
X187597969Y-118309966D01*
X187597969Y-118256091D01*
X187409407Y-118067529D01*
X187301658Y-118175279D01*
X187894280Y-118067529D02*
X187328595Y-117501844D01*
X188217529Y-117744280D01*
X187651844Y-117178595D01*
X188486903Y-117474906D02*
X187921218Y-116909221D01*
X188055905Y-116774534D01*
X188163654Y-116720659D01*
X188271404Y-116720659D01*
X188352216Y-116747597D01*
X188486903Y-116828409D01*
X188567715Y-116909221D01*
X188648528Y-117043908D01*
X188675465Y-117124720D01*
X188675465Y-117232470D01*
X188621590Y-117340219D01*
X188486903Y-117474906D01*
X187086158Y-130498155D02*
X187005346Y-130525093D01*
X186924534Y-130605905D01*
X186870659Y-130713654D01*
X186870659Y-130821404D01*
X186897597Y-130902216D01*
X186978409Y-131036903D01*
X187059221Y-131117715D01*
X187193908Y-131198528D01*
X187274720Y-131225465D01*
X187382470Y-131225465D01*
X187490219Y-131171590D01*
X187544094Y-131117715D01*
X187597969Y-131009966D01*
X187597969Y-130956091D01*
X187409407Y-130767529D01*
X187301658Y-130875279D01*
X187894280Y-130767529D02*
X187328595Y-130201844D01*
X188217529Y-130444280D01*
X187651844Y-129878595D01*
X188486903Y-130174906D02*
X187921218Y-129609221D01*
X188055905Y-129474534D01*
X188163654Y-129420659D01*
X188271404Y-129420659D01*
X188352216Y-129447597D01*
X188486903Y-129528409D01*
X188567715Y-129609221D01*
X188648528Y-129743908D01*
X188675465Y-129824720D01*
X188675465Y-129932470D01*
X188621590Y-130040219D01*
X188486903Y-130174906D01*
X187086158Y-143198155D02*
X187005346Y-143225093D01*
X186924534Y-143305905D01*
X186870659Y-143413654D01*
X186870659Y-143521404D01*
X186897597Y-143602216D01*
X186978409Y-143736903D01*
X187059221Y-143817715D01*
X187193908Y-143898528D01*
X187274720Y-143925465D01*
X187382470Y-143925465D01*
X187490219Y-143871590D01*
X187544094Y-143817715D01*
X187597969Y-143709966D01*
X187597969Y-143656091D01*
X187409407Y-143467529D01*
X187301658Y-143575279D01*
X187894280Y-143467529D02*
X187328595Y-142901844D01*
X188217529Y-143144280D01*
X187651844Y-142578595D01*
X188486903Y-142874906D02*
X187921218Y-142309221D01*
X188055905Y-142174534D01*
X188163654Y-142120659D01*
X188271404Y-142120659D01*
X188352216Y-142147597D01*
X188486903Y-142228409D01*
X188567715Y-142309221D01*
X188648528Y-142443908D01*
X188675465Y-142524720D01*
X188675465Y-142632470D01*
X188621590Y-142740219D01*
X188486903Y-142874906D01*
X160353129Y-148927309D02*
X161107377Y-149304433D01*
X160730253Y-148550186D01*
X161376751Y-148442436D02*
X161484500Y-148388561D01*
X161538375Y-148388561D01*
X161619187Y-148415499D01*
X161700000Y-148496311D01*
X161726937Y-148577123D01*
X161726937Y-148630998D01*
X161700000Y-148711810D01*
X161484500Y-148927309D01*
X160918815Y-148361624D01*
X161107377Y-148173062D01*
X161188189Y-148146125D01*
X161242064Y-148146125D01*
X161322876Y-148173062D01*
X161376751Y-148226937D01*
X161403688Y-148307749D01*
X161403688Y-148361624D01*
X161376751Y-148442436D01*
X161188189Y-148630998D01*
X161484500Y-147795938D02*
X161942436Y-148253874D01*
X162023248Y-148280812D01*
X162077123Y-148280812D01*
X162157935Y-148253874D01*
X162265685Y-148146125D01*
X162292622Y-148065312D01*
X162292622Y-148011438D01*
X162265685Y-147930625D01*
X161807749Y-147472690D01*
X162588934Y-147769001D02*
X162696683Y-147715126D01*
X162831370Y-147580439D01*
X162858308Y-147499627D01*
X162858308Y-147445752D01*
X162831370Y-147364940D01*
X162777496Y-147311065D01*
X162696683Y-147284128D01*
X162642809Y-147284128D01*
X162561996Y-147311065D01*
X162427309Y-147391877D01*
X162346497Y-147418815D01*
X162292622Y-147418815D01*
X162211810Y-147391877D01*
X162157935Y-147338003D01*
X162130998Y-147257190D01*
X162130998Y-147203316D01*
X162157935Y-147122503D01*
X162292622Y-146987816D01*
X162400372Y-146933942D01*
X160520473Y-146249966D02*
X161274720Y-146627089D01*
X160897597Y-145872842D01*
X161597969Y-146249966D02*
X161705719Y-146196091D01*
X161840406Y-146061404D01*
X161867343Y-145980592D01*
X161867343Y-145926717D01*
X161840406Y-145845905D01*
X161786531Y-145792030D01*
X161705719Y-145765093D01*
X161651844Y-145765093D01*
X161571032Y-145792030D01*
X161436345Y-145872842D01*
X161355532Y-145899780D01*
X161301658Y-145899780D01*
X161220845Y-145872842D01*
X161166971Y-145818967D01*
X161140033Y-145738155D01*
X161140033Y-145684280D01*
X161166971Y-145603468D01*
X161301658Y-145468781D01*
X161409407Y-145414906D01*
X162028967Y-145334094D02*
X162298341Y-145603468D01*
X161544094Y-145226345D02*
X162028967Y-145334094D01*
X161921218Y-144849221D01*
X162621590Y-145226345D02*
X162729340Y-145172470D01*
X162864027Y-145037783D01*
X162890964Y-144956971D01*
X162890964Y-144903096D01*
X162864027Y-144822284D01*
X162810152Y-144768409D01*
X162729340Y-144741471D01*
X162675465Y-144741471D01*
X162594653Y-144768409D01*
X162459966Y-144849221D01*
X162379154Y-144876158D01*
X162325279Y-144876158D01*
X162244467Y-144849221D01*
X162190592Y-144795346D01*
X162163654Y-144714534D01*
X162163654Y-144660659D01*
X162190592Y-144579847D01*
X162325279Y-144445160D01*
X162433028Y-144391285D01*
X159522131Y-142358308D02*
X159872317Y-142008122D01*
X159899255Y-142412183D01*
X159980067Y-142331370D01*
X160060879Y-142304433D01*
X160114754Y-142304433D01*
X160195566Y-142331370D01*
X160330253Y-142466057D01*
X160357190Y-142546870D01*
X160357190Y-142600744D01*
X160330253Y-142681557D01*
X160168629Y-142843181D01*
X160087816Y-142870118D01*
X160033942Y-142870118D01*
X160033942Y-141846497D02*
X160788189Y-142223621D01*
X160411065Y-141469374D01*
X160545752Y-141334687D02*
X160895938Y-140984500D01*
X160922876Y-141388561D01*
X161003688Y-141307749D01*
X161084500Y-141280812D01*
X161138375Y-141280812D01*
X161219187Y-141307749D01*
X161353874Y-141442436D01*
X161380812Y-141523248D01*
X161380812Y-141577123D01*
X161353874Y-141657935D01*
X161192250Y-141819560D01*
X161111438Y-141846497D01*
X161057563Y-141846497D01*
X161623248Y-141496311D02*
X162054247Y-141065312D01*
X161838748Y-140580439D02*
X162027309Y-140391877D01*
X162404433Y-140607377D02*
X162135059Y-140876751D01*
X161569374Y-140311065D01*
X161838748Y-140041691D01*
X162646870Y-140364940D02*
X162081184Y-139799255D01*
X162970118Y-140041691D01*
X162404433Y-139476006D01*
X161089847Y-138290592D02*
X161440033Y-137940406D01*
X161466971Y-138344467D01*
X161547783Y-138263654D01*
X161628595Y-138236717D01*
X161682470Y-138236717D01*
X161763282Y-138263654D01*
X161897969Y-138398341D01*
X161924906Y-138479154D01*
X161924906Y-138533028D01*
X161897969Y-138613841D01*
X161736345Y-138775465D01*
X161655532Y-138802402D01*
X161601658Y-138802402D01*
X161601658Y-137778781D02*
X162355905Y-138155905D01*
X161978781Y-137401658D01*
X162113468Y-137266971D02*
X162463654Y-136916784D01*
X162490592Y-137320845D01*
X162571404Y-137240033D01*
X162652216Y-137213096D01*
X162706091Y-137213096D01*
X162786903Y-137240033D01*
X162921590Y-137374720D01*
X162948528Y-137455532D01*
X162948528Y-137509407D01*
X162921590Y-137590219D01*
X162759966Y-137751844D01*
X162679154Y-137778781D01*
X162625279Y-137778781D01*
X159154788Y-138533773D02*
X159424162Y-138264399D01*
X159262537Y-138749272D02*
X158885414Y-137995025D01*
X159639661Y-138372149D01*
X159828223Y-138183587D02*
X159262537Y-137617902D01*
X159397224Y-137483215D01*
X159504974Y-137429340D01*
X159612723Y-137429340D01*
X159693536Y-137456277D01*
X159828223Y-137537089D01*
X159909035Y-137617902D01*
X159989847Y-137752589D01*
X160016784Y-137833401D01*
X160016784Y-137941150D01*
X159962910Y-138048900D01*
X159828223Y-138183587D01*
X160663282Y-137240778D02*
X160663282Y-137294653D01*
X160609407Y-137402402D01*
X160555532Y-137456277D01*
X160447783Y-137510152D01*
X160340033Y-137510152D01*
X160259221Y-137483215D01*
X160124534Y-137402402D01*
X160043722Y-137321590D01*
X159962910Y-137186903D01*
X159935972Y-137106091D01*
X159935972Y-136998341D01*
X159989847Y-136890592D01*
X160043722Y-136836717D01*
X160151471Y-136782842D01*
X160205346Y-136782842D01*
X160878781Y-137240778D02*
X161309780Y-136809780D01*
X160744094Y-136136345D02*
X161498341Y-136513468D01*
X161121218Y-135759221D01*
X162198714Y-135813096D02*
X161740778Y-135732284D01*
X161875465Y-136136345D02*
X161309780Y-135570659D01*
X161525279Y-135355160D01*
X161606091Y-135328223D01*
X161659966Y-135328223D01*
X161740778Y-135355160D01*
X161821590Y-135435972D01*
X161848528Y-135516784D01*
X161848528Y-135570659D01*
X161821590Y-135651471D01*
X161606091Y-135866971D01*
X162144839Y-135274348D02*
X162333401Y-135085786D01*
X162710524Y-135301285D02*
X162441150Y-135570659D01*
X161875465Y-135004974D01*
X162144839Y-134735600D01*
X162845211Y-134573975D02*
X162656650Y-134762537D01*
X162952961Y-135058849D02*
X162387276Y-134493163D01*
X162656650Y-134223789D01*
X160989722Y-133534592D02*
X160908910Y-133561529D01*
X160828097Y-133642341D01*
X160774223Y-133750091D01*
X160774223Y-133857841D01*
X160801160Y-133938653D01*
X160881972Y-134073340D01*
X160962784Y-134154152D01*
X161097471Y-134234964D01*
X161178284Y-134261902D01*
X161286033Y-134261902D01*
X161393783Y-134208027D01*
X161447658Y-134154152D01*
X161501532Y-134046402D01*
X161501532Y-133992528D01*
X161312971Y-133803966D01*
X161205221Y-133911715D01*
X161797844Y-133803966D02*
X161232158Y-133238280D01*
X161447658Y-133022781D01*
X161528470Y-132995844D01*
X161582345Y-132995844D01*
X161663157Y-133022781D01*
X161743969Y-133103593D01*
X161770906Y-133184406D01*
X161770906Y-133238280D01*
X161743969Y-133319093D01*
X161528470Y-133534592D01*
X161824781Y-132753407D02*
X161824781Y-132699532D01*
X161851719Y-132618720D01*
X161986406Y-132484033D01*
X162067218Y-132457096D01*
X162121093Y-132457096D01*
X162201905Y-132484033D01*
X162255780Y-132537908D01*
X162309654Y-132645658D01*
X162309654Y-133292155D01*
X162659841Y-132941969D01*
X162659841Y-132295471D02*
X162579028Y-132322409D01*
X162525154Y-132322409D01*
X162444341Y-132295471D01*
X162417404Y-132268534D01*
X162390467Y-132187722D01*
X162390467Y-132133847D01*
X162417404Y-132053035D01*
X162525154Y-131945285D01*
X162605966Y-131918348D01*
X162659841Y-131918348D01*
X162740653Y-131945285D01*
X162767590Y-131972223D01*
X162794528Y-132053035D01*
X162794528Y-132106910D01*
X162767590Y-132187722D01*
X162659841Y-132295471D01*
X162632903Y-132376284D01*
X162632903Y-132430158D01*
X162659841Y-132510971D01*
X162767590Y-132618720D01*
X162848402Y-132645658D01*
X162902277Y-132645658D01*
X162983089Y-132618720D01*
X163090839Y-132510971D01*
X163117776Y-132430158D01*
X163117776Y-132376284D01*
X163090839Y-132295471D01*
X162983089Y-132187722D01*
X162902277Y-132160784D01*
X162848402Y-132160784D01*
X162767590Y-132187722D01*
X160989722Y-128190592D02*
X160908910Y-128217529D01*
X160828097Y-128298341D01*
X160774223Y-128406091D01*
X160774223Y-128513841D01*
X160801160Y-128594653D01*
X160881972Y-128729340D01*
X160962784Y-128810152D01*
X161097471Y-128890964D01*
X161178284Y-128917902D01*
X161286033Y-128917902D01*
X161393783Y-128864027D01*
X161447658Y-128810152D01*
X161501532Y-128702402D01*
X161501532Y-128648528D01*
X161312971Y-128459966D01*
X161205221Y-128567715D01*
X161797844Y-128459966D02*
X161232158Y-127894280D01*
X161447658Y-127678781D01*
X161528470Y-127651844D01*
X161582345Y-127651844D01*
X161663157Y-127678781D01*
X161743969Y-127759593D01*
X161770906Y-127840406D01*
X161770906Y-127894280D01*
X161743969Y-127975093D01*
X161528470Y-128190592D01*
X161824781Y-127409407D02*
X161824781Y-127355532D01*
X161851719Y-127274720D01*
X161986406Y-127140033D01*
X162067218Y-127113096D01*
X162121093Y-127113096D01*
X162201905Y-127140033D01*
X162255780Y-127193908D01*
X162309654Y-127301658D01*
X162309654Y-127948155D01*
X162659841Y-127597969D01*
X162282717Y-126843722D02*
X162659841Y-126466598D01*
X162983089Y-127274720D01*
X160989722Y-125660592D02*
X160908910Y-125687529D01*
X160828097Y-125768341D01*
X160774223Y-125876091D01*
X160774223Y-125983841D01*
X160801160Y-126064653D01*
X160881972Y-126199340D01*
X160962784Y-126280152D01*
X161097471Y-126360964D01*
X161178284Y-126387902D01*
X161286033Y-126387902D01*
X161393783Y-126334027D01*
X161447658Y-126280152D01*
X161501532Y-126172402D01*
X161501532Y-126118528D01*
X161312971Y-125929966D01*
X161205221Y-126037715D01*
X161797844Y-125929966D02*
X161232158Y-125364280D01*
X161447658Y-125148781D01*
X161528470Y-125121844D01*
X161582345Y-125121844D01*
X161663157Y-125148781D01*
X161743969Y-125229593D01*
X161770906Y-125310406D01*
X161770906Y-125364280D01*
X161743969Y-125445093D01*
X161528470Y-125660592D01*
X161824781Y-124879407D02*
X161824781Y-124825532D01*
X161851719Y-124744720D01*
X161986406Y-124610033D01*
X162067218Y-124583096D01*
X162121093Y-124583096D01*
X162201905Y-124610033D01*
X162255780Y-124663908D01*
X162309654Y-124771658D01*
X162309654Y-125418155D01*
X162659841Y-125067969D01*
X162579028Y-124017410D02*
X162471279Y-124125160D01*
X162444341Y-124205972D01*
X162444341Y-124259847D01*
X162471279Y-124394534D01*
X162552091Y-124529221D01*
X162767590Y-124744720D01*
X162848402Y-124771658D01*
X162902277Y-124771658D01*
X162983089Y-124744720D01*
X163090839Y-124636971D01*
X163117776Y-124556158D01*
X163117776Y-124502284D01*
X163090839Y-124421471D01*
X162956152Y-124286784D01*
X162875340Y-124259847D01*
X162821465Y-124259847D01*
X162740653Y-124286784D01*
X162632903Y-124394534D01*
X162605966Y-124475346D01*
X162605966Y-124529221D01*
X162632903Y-124610033D01*
X161838375Y-123403435D02*
X161380439Y-123322622D01*
X161515126Y-123726683D02*
X160949441Y-123160998D01*
X161164940Y-122945499D01*
X161245752Y-122918561D01*
X161299627Y-122918561D01*
X161380439Y-122945499D01*
X161461251Y-123026311D01*
X161488189Y-123107123D01*
X161488189Y-123160998D01*
X161461251Y-123241810D01*
X161245752Y-123457309D01*
X161515126Y-122595312D02*
X161973062Y-123053248D01*
X162053874Y-123080186D01*
X162107749Y-123080186D01*
X162188561Y-123053248D01*
X162296311Y-122945499D01*
X162323248Y-122864687D01*
X162323248Y-122810812D01*
X162296311Y-122729999D01*
X161838375Y-122272064D01*
X162673435Y-122568375D02*
X162107749Y-122002690D01*
X162996683Y-122245126D01*
X162430998Y-121679441D01*
X160989722Y-120580592D02*
X160908910Y-120607529D01*
X160828097Y-120688341D01*
X160774223Y-120796091D01*
X160774223Y-120903841D01*
X160801160Y-120984653D01*
X160881972Y-121119340D01*
X160962784Y-121200152D01*
X161097471Y-121280964D01*
X161178284Y-121307902D01*
X161286033Y-121307902D01*
X161393783Y-121254027D01*
X161447658Y-121200152D01*
X161501532Y-121092402D01*
X161501532Y-121038528D01*
X161312971Y-120849966D01*
X161205221Y-120957715D01*
X161797844Y-120849966D02*
X161232158Y-120284280D01*
X161447658Y-120068781D01*
X161528470Y-120041844D01*
X161582345Y-120041844D01*
X161663157Y-120068781D01*
X161743969Y-120149593D01*
X161770906Y-120230406D01*
X161770906Y-120284280D01*
X161743969Y-120365093D01*
X161528470Y-120580592D01*
X161824781Y-119799407D02*
X161824781Y-119745532D01*
X161851719Y-119664720D01*
X161986406Y-119530033D01*
X162067218Y-119503096D01*
X162121093Y-119503096D01*
X162201905Y-119530033D01*
X162255780Y-119583908D01*
X162309654Y-119691658D01*
X162309654Y-120338155D01*
X162659841Y-119987969D01*
X162363529Y-119260659D02*
X162363529Y-119206784D01*
X162390467Y-119125972D01*
X162525154Y-118991285D01*
X162605966Y-118964348D01*
X162659841Y-118964348D01*
X162740653Y-118991285D01*
X162794528Y-119045160D01*
X162848402Y-119152910D01*
X162848402Y-119799407D01*
X163198589Y-119449221D01*
X160989722Y-115490592D02*
X160908910Y-115517529D01*
X160828097Y-115598341D01*
X160774223Y-115706091D01*
X160774223Y-115813841D01*
X160801160Y-115894653D01*
X160881972Y-116029340D01*
X160962784Y-116110152D01*
X161097471Y-116190964D01*
X161178284Y-116217902D01*
X161286033Y-116217902D01*
X161393783Y-116164027D01*
X161447658Y-116110152D01*
X161501532Y-116002402D01*
X161501532Y-115948528D01*
X161312971Y-115759966D01*
X161205221Y-115867715D01*
X161797844Y-115759966D02*
X161232158Y-115194280D01*
X161447658Y-114978781D01*
X161528470Y-114951844D01*
X161582345Y-114951844D01*
X161663157Y-114978781D01*
X161743969Y-115059593D01*
X161770906Y-115140406D01*
X161770906Y-115194280D01*
X161743969Y-115275093D01*
X161528470Y-115490592D01*
X161824781Y-114709407D02*
X161824781Y-114655532D01*
X161851719Y-114574720D01*
X161986406Y-114440033D01*
X162067218Y-114413096D01*
X162121093Y-114413096D01*
X162201905Y-114440033D01*
X162255780Y-114493908D01*
X162309654Y-114601658D01*
X162309654Y-115248155D01*
X162659841Y-114897969D01*
X163198589Y-114359221D02*
X162875340Y-114682470D01*
X163036964Y-114520845D02*
X162471279Y-113955160D01*
X162498216Y-114089847D01*
X162498216Y-114197597D01*
X162471279Y-114278409D01*
X160989722Y-112960592D02*
X160908910Y-112987529D01*
X160828097Y-113068341D01*
X160774223Y-113176091D01*
X160774223Y-113283841D01*
X160801160Y-113364653D01*
X160881972Y-113499340D01*
X160962784Y-113580152D01*
X161097471Y-113660964D01*
X161178284Y-113687902D01*
X161286033Y-113687902D01*
X161393783Y-113634027D01*
X161447658Y-113580152D01*
X161501532Y-113472402D01*
X161501532Y-113418528D01*
X161312971Y-113229966D01*
X161205221Y-113337715D01*
X161797844Y-113229966D02*
X161232158Y-112664280D01*
X161447658Y-112448781D01*
X161528470Y-112421844D01*
X161582345Y-112421844D01*
X161663157Y-112448781D01*
X161743969Y-112529593D01*
X161770906Y-112610406D01*
X161770906Y-112664280D01*
X161743969Y-112745093D01*
X161528470Y-112960592D01*
X161824781Y-112179407D02*
X161824781Y-112125532D01*
X161851719Y-112044720D01*
X161986406Y-111910033D01*
X162067218Y-111883096D01*
X162121093Y-111883096D01*
X162201905Y-111910033D01*
X162255780Y-111963908D01*
X162309654Y-112071658D01*
X162309654Y-112718155D01*
X162659841Y-112367969D01*
X162444341Y-111452097D02*
X162498216Y-111398223D01*
X162579028Y-111371285D01*
X162632903Y-111371285D01*
X162713715Y-111398223D01*
X162848402Y-111479035D01*
X162983089Y-111613722D01*
X163063902Y-111748409D01*
X163090839Y-111829221D01*
X163090839Y-111883096D01*
X163063902Y-111963908D01*
X163010027Y-112017783D01*
X162929215Y-112044720D01*
X162875340Y-112044720D01*
X162794528Y-112017783D01*
X162659841Y-111936971D01*
X162525154Y-111802284D01*
X162444341Y-111667597D01*
X162417404Y-111586784D01*
X162417404Y-111532910D01*
X162444341Y-111452097D01*
X160989722Y-110420592D02*
X160908910Y-110447529D01*
X160828097Y-110528341D01*
X160774223Y-110636091D01*
X160774223Y-110743841D01*
X160801160Y-110824653D01*
X160881972Y-110959340D01*
X160962784Y-111040152D01*
X161097471Y-111120964D01*
X161178284Y-111147902D01*
X161286033Y-111147902D01*
X161393783Y-111094027D01*
X161447658Y-111040152D01*
X161501532Y-110932402D01*
X161501532Y-110878528D01*
X161312971Y-110689966D01*
X161205221Y-110797715D01*
X161797844Y-110689966D02*
X161232158Y-110124280D01*
X161447658Y-109908781D01*
X161528470Y-109881844D01*
X161582345Y-109881844D01*
X161663157Y-109908781D01*
X161743969Y-109989593D01*
X161770906Y-110070406D01*
X161770906Y-110124280D01*
X161743969Y-110205093D01*
X161528470Y-110420592D01*
X162659841Y-109827969D02*
X162336592Y-110151218D01*
X162498216Y-109989593D02*
X161932531Y-109423908D01*
X161959468Y-109558595D01*
X161959468Y-109666345D01*
X161932531Y-109747157D01*
X162929215Y-109558595D02*
X163036964Y-109450845D01*
X163063902Y-109370033D01*
X163063902Y-109316158D01*
X163036964Y-109181471D01*
X162956152Y-109046784D01*
X162740653Y-108831285D01*
X162659841Y-108804348D01*
X162605966Y-108804348D01*
X162525154Y-108831285D01*
X162417404Y-108939035D01*
X162390467Y-109019847D01*
X162390467Y-109073722D01*
X162417404Y-109154534D01*
X162552091Y-109289221D01*
X162632903Y-109316158D01*
X162686778Y-109316158D01*
X162767590Y-109289221D01*
X162875340Y-109181471D01*
X162902277Y-109100659D01*
X162902277Y-109046784D01*
X162875340Y-108965972D01*
X160989722Y-107880592D02*
X160908910Y-107907529D01*
X160828097Y-107988341D01*
X160774223Y-108096091D01*
X160774223Y-108203841D01*
X160801160Y-108284653D01*
X160881972Y-108419340D01*
X160962784Y-108500152D01*
X161097471Y-108580964D01*
X161178284Y-108607902D01*
X161286033Y-108607902D01*
X161393783Y-108554027D01*
X161447658Y-108500152D01*
X161501532Y-108392402D01*
X161501532Y-108338528D01*
X161312971Y-108149966D01*
X161205221Y-108257715D01*
X161797844Y-108149966D02*
X161232158Y-107584280D01*
X161447658Y-107368781D01*
X161528470Y-107341844D01*
X161582345Y-107341844D01*
X161663157Y-107368781D01*
X161743969Y-107449593D01*
X161770906Y-107530406D01*
X161770906Y-107584280D01*
X161743969Y-107665093D01*
X161528470Y-107880592D01*
X162659841Y-107287969D02*
X162336592Y-107611218D01*
X162498216Y-107449593D02*
X161932531Y-106883908D01*
X161959468Y-107018595D01*
X161959468Y-107126345D01*
X161932531Y-107207157D01*
X162659841Y-106641471D02*
X162579028Y-106668409D01*
X162525154Y-106668409D01*
X162444341Y-106641471D01*
X162417404Y-106614534D01*
X162390467Y-106533722D01*
X162390467Y-106479847D01*
X162417404Y-106399035D01*
X162525154Y-106291285D01*
X162605966Y-106264348D01*
X162659841Y-106264348D01*
X162740653Y-106291285D01*
X162767590Y-106318223D01*
X162794528Y-106399035D01*
X162794528Y-106452910D01*
X162767590Y-106533722D01*
X162659841Y-106641471D01*
X162632903Y-106722284D01*
X162632903Y-106776158D01*
X162659841Y-106856971D01*
X162767590Y-106964720D01*
X162848402Y-106991658D01*
X162902277Y-106991658D01*
X162983089Y-106964720D01*
X163090839Y-106856971D01*
X163117776Y-106776158D01*
X163117776Y-106722284D01*
X163090839Y-106641471D01*
X162983089Y-106533722D01*
X162902277Y-106506784D01*
X162848402Y-106506784D01*
X162767590Y-106533722D01*
X160989722Y-102800592D02*
X160908910Y-102827529D01*
X160828097Y-102908341D01*
X160774223Y-103016091D01*
X160774223Y-103123841D01*
X160801160Y-103204653D01*
X160881972Y-103339340D01*
X160962784Y-103420152D01*
X161097471Y-103500964D01*
X161178284Y-103527902D01*
X161286033Y-103527902D01*
X161393783Y-103474027D01*
X161447658Y-103420152D01*
X161501532Y-103312402D01*
X161501532Y-103258528D01*
X161312971Y-103069966D01*
X161205221Y-103177715D01*
X161797844Y-103069966D02*
X161232158Y-102504280D01*
X161447658Y-102288781D01*
X161528470Y-102261844D01*
X161582345Y-102261844D01*
X161663157Y-102288781D01*
X161743969Y-102369593D01*
X161770906Y-102450406D01*
X161770906Y-102504280D01*
X161743969Y-102585093D01*
X161528470Y-102800592D01*
X162659841Y-102207969D02*
X162336592Y-102531218D01*
X162498216Y-102369593D02*
X161932531Y-101803908D01*
X161959468Y-101938595D01*
X161959468Y-102046345D01*
X161932531Y-102127157D01*
X162282717Y-101453722D02*
X162659841Y-101076598D01*
X162983089Y-101884720D01*
X160989722Y-100260592D02*
X160908910Y-100287529D01*
X160828097Y-100368341D01*
X160774223Y-100476091D01*
X160774223Y-100583841D01*
X160801160Y-100664653D01*
X160881972Y-100799340D01*
X160962784Y-100880152D01*
X161097471Y-100960964D01*
X161178284Y-100987902D01*
X161286033Y-100987902D01*
X161393783Y-100934027D01*
X161447658Y-100880152D01*
X161501532Y-100772402D01*
X161501532Y-100718528D01*
X161312971Y-100529966D01*
X161205221Y-100637715D01*
X161797844Y-100529966D02*
X161232158Y-99964280D01*
X161447658Y-99748781D01*
X161528470Y-99721844D01*
X161582345Y-99721844D01*
X161663157Y-99748781D01*
X161743969Y-99829593D01*
X161770906Y-99910406D01*
X161770906Y-99964280D01*
X161743969Y-100045093D01*
X161528470Y-100260592D01*
X162659841Y-99667969D02*
X162336592Y-99991218D01*
X162498216Y-99829593D02*
X161932531Y-99263908D01*
X161959468Y-99398595D01*
X161959468Y-99506345D01*
X161932531Y-99587157D01*
X162579028Y-98617410D02*
X162471279Y-98725160D01*
X162444341Y-98805972D01*
X162444341Y-98859847D01*
X162471279Y-98994534D01*
X162552091Y-99129221D01*
X162767590Y-99344720D01*
X162848402Y-99371658D01*
X162902277Y-99371658D01*
X162983089Y-99344720D01*
X163090839Y-99236971D01*
X163117776Y-99156158D01*
X163117776Y-99102284D01*
X163090839Y-99021471D01*
X162956152Y-98886784D01*
X162875340Y-98859847D01*
X162821465Y-98859847D01*
X162740653Y-98886784D01*
X162632903Y-98994534D01*
X162605966Y-99075346D01*
X162605966Y-99129221D01*
X162632903Y-99210033D01*
X187097722Y-100260592D02*
X187016910Y-100287529D01*
X186936097Y-100368341D01*
X186882223Y-100476091D01*
X186882223Y-100583841D01*
X186909160Y-100664653D01*
X186989972Y-100799340D01*
X187070784Y-100880152D01*
X187205471Y-100960964D01*
X187286284Y-100987902D01*
X187394033Y-100987902D01*
X187501783Y-100934027D01*
X187555658Y-100880152D01*
X187609532Y-100772402D01*
X187609532Y-100718528D01*
X187420971Y-100529966D01*
X187313221Y-100637715D01*
X187905844Y-100529966D02*
X187340158Y-99964280D01*
X187555658Y-99748781D01*
X187636470Y-99721844D01*
X187690345Y-99721844D01*
X187771157Y-99748781D01*
X187851969Y-99829593D01*
X187878906Y-99910406D01*
X187878906Y-99964280D01*
X187851969Y-100045093D01*
X187636470Y-100260592D01*
X188767841Y-99667969D02*
X188444592Y-99991218D01*
X188606216Y-99829593D02*
X188040531Y-99263908D01*
X188067468Y-99398595D01*
X188067468Y-99506345D01*
X188040531Y-99587157D01*
X188713966Y-98590473D02*
X188444592Y-98859847D01*
X188687028Y-99156158D01*
X188687028Y-99102284D01*
X188713966Y-99021471D01*
X188848653Y-98886784D01*
X188929465Y-98859847D01*
X188983340Y-98859847D01*
X189064152Y-98886784D01*
X189198839Y-99021471D01*
X189225776Y-99102284D01*
X189225776Y-99156158D01*
X189198839Y-99236971D01*
X189064152Y-99371658D01*
X188983340Y-99398595D01*
X188929465Y-99398595D01*
X187143722Y-102800592D02*
X187062910Y-102827529D01*
X186982097Y-102908341D01*
X186928223Y-103016091D01*
X186928223Y-103123841D01*
X186955160Y-103204653D01*
X187035972Y-103339340D01*
X187116784Y-103420152D01*
X187251471Y-103500964D01*
X187332284Y-103527902D01*
X187440033Y-103527902D01*
X187547783Y-103474027D01*
X187601658Y-103420152D01*
X187655532Y-103312402D01*
X187655532Y-103258528D01*
X187466971Y-103069966D01*
X187359221Y-103177715D01*
X187951844Y-103069966D02*
X187386158Y-102504280D01*
X187601658Y-102288781D01*
X187682470Y-102261844D01*
X187736345Y-102261844D01*
X187817157Y-102288781D01*
X187897969Y-102369593D01*
X187924906Y-102450406D01*
X187924906Y-102504280D01*
X187897969Y-102585093D01*
X187682470Y-102800592D01*
X188813841Y-102207969D02*
X188490592Y-102531218D01*
X188652216Y-102369593D02*
X188086531Y-101803908D01*
X188113468Y-101938595D01*
X188113468Y-102046345D01*
X188086531Y-102127157D01*
X188921590Y-101345972D02*
X189298714Y-101723096D01*
X188571404Y-101265160D02*
X188840778Y-101803908D01*
X189190964Y-101453722D01*
X187097722Y-107880592D02*
X187016910Y-107907529D01*
X186936097Y-107988341D01*
X186882223Y-108096091D01*
X186882223Y-108203841D01*
X186909160Y-108284653D01*
X186989972Y-108419340D01*
X187070784Y-108500152D01*
X187205471Y-108580964D01*
X187286284Y-108607902D01*
X187394033Y-108607902D01*
X187501783Y-108554027D01*
X187555658Y-108500152D01*
X187609532Y-108392402D01*
X187609532Y-108338528D01*
X187420971Y-108149966D01*
X187313221Y-108257715D01*
X187905844Y-108149966D02*
X187340158Y-107584280D01*
X187555658Y-107368781D01*
X187636470Y-107341844D01*
X187690345Y-107341844D01*
X187771157Y-107368781D01*
X187851969Y-107449593D01*
X187878906Y-107530406D01*
X187878906Y-107584280D01*
X187851969Y-107665093D01*
X187636470Y-107880592D01*
X188767841Y-107287969D02*
X188444592Y-107611218D01*
X188606216Y-107449593D02*
X188040531Y-106883908D01*
X188067468Y-107018595D01*
X188067468Y-107126345D01*
X188040531Y-107207157D01*
X188390717Y-106533722D02*
X188740903Y-106183536D01*
X188767841Y-106587597D01*
X188848653Y-106506784D01*
X188929465Y-106479847D01*
X188983340Y-106479847D01*
X189064152Y-106506784D01*
X189198839Y-106641471D01*
X189225776Y-106722284D01*
X189225776Y-106776158D01*
X189198839Y-106856971D01*
X189037215Y-107018595D01*
X188956402Y-107045532D01*
X188902528Y-107045532D01*
X187243722Y-110420592D02*
X187162910Y-110447529D01*
X187082097Y-110528341D01*
X187028223Y-110636091D01*
X187028223Y-110743841D01*
X187055160Y-110824653D01*
X187135972Y-110959340D01*
X187216784Y-111040152D01*
X187351471Y-111120964D01*
X187432284Y-111147902D01*
X187540033Y-111147902D01*
X187647783Y-111094027D01*
X187701658Y-111040152D01*
X187755532Y-110932402D01*
X187755532Y-110878528D01*
X187566971Y-110689966D01*
X187459221Y-110797715D01*
X188051844Y-110689966D02*
X187486158Y-110124280D01*
X187701658Y-109908781D01*
X187782470Y-109881844D01*
X187836345Y-109881844D01*
X187917157Y-109908781D01*
X187997969Y-109989593D01*
X188024906Y-110070406D01*
X188024906Y-110124280D01*
X187997969Y-110205093D01*
X187782470Y-110420592D01*
X188913841Y-109827969D02*
X188590592Y-110151218D01*
X188752216Y-109989593D02*
X188186531Y-109423908D01*
X188213468Y-109558595D01*
X188213468Y-109666345D01*
X188186531Y-109747157D01*
X188617529Y-109100659D02*
X188617529Y-109046784D01*
X188644467Y-108965972D01*
X188779154Y-108831285D01*
X188859966Y-108804348D01*
X188913841Y-108804348D01*
X188994653Y-108831285D01*
X189048528Y-108885160D01*
X189102402Y-108992910D01*
X189102402Y-109639407D01*
X189452589Y-109289221D01*
X187243722Y-112960592D02*
X187162910Y-112987529D01*
X187082097Y-113068341D01*
X187028223Y-113176091D01*
X187028223Y-113283841D01*
X187055160Y-113364653D01*
X187135972Y-113499340D01*
X187216784Y-113580152D01*
X187351471Y-113660964D01*
X187432284Y-113687902D01*
X187540033Y-113687902D01*
X187647783Y-113634027D01*
X187701658Y-113580152D01*
X187755532Y-113472402D01*
X187755532Y-113418528D01*
X187566971Y-113229966D01*
X187459221Y-113337715D01*
X188051844Y-113229966D02*
X187486158Y-112664280D01*
X187701658Y-112448781D01*
X187782470Y-112421844D01*
X187836345Y-112421844D01*
X187917157Y-112448781D01*
X187997969Y-112529593D01*
X188024906Y-112610406D01*
X188024906Y-112664280D01*
X187997969Y-112745093D01*
X187782470Y-112960592D01*
X188913841Y-112367969D02*
X188590592Y-112691218D01*
X188752216Y-112529593D02*
X188186531Y-111963908D01*
X188213468Y-112098595D01*
X188213468Y-112206345D01*
X188186531Y-112287157D01*
X189452589Y-111829221D02*
X189129340Y-112152470D01*
X189290964Y-111990845D02*
X188725279Y-111425160D01*
X188752216Y-111559847D01*
X188752216Y-111667597D01*
X188725279Y-111748409D01*
X187097722Y-115500592D02*
X187016910Y-115527529D01*
X186936097Y-115608341D01*
X186882223Y-115716091D01*
X186882223Y-115823841D01*
X186909160Y-115904653D01*
X186989972Y-116039340D01*
X187070784Y-116120152D01*
X187205471Y-116200964D01*
X187286284Y-116227902D01*
X187394033Y-116227902D01*
X187501783Y-116174027D01*
X187555658Y-116120152D01*
X187609532Y-116012402D01*
X187609532Y-115958528D01*
X187420971Y-115769966D01*
X187313221Y-115877715D01*
X187905844Y-115769966D02*
X187340158Y-115204280D01*
X187555658Y-114988781D01*
X187636470Y-114961844D01*
X187690345Y-114961844D01*
X187771157Y-114988781D01*
X187851969Y-115069593D01*
X187878906Y-115150406D01*
X187878906Y-115204280D01*
X187851969Y-115285093D01*
X187636470Y-115500592D01*
X188767841Y-114907969D02*
X188444592Y-115231218D01*
X188606216Y-115069593D02*
X188040531Y-114503908D01*
X188067468Y-114638595D01*
X188067468Y-114746345D01*
X188040531Y-114827157D01*
X188552341Y-113992097D02*
X188606216Y-113938223D01*
X188687028Y-113911285D01*
X188740903Y-113911285D01*
X188821715Y-113938223D01*
X188956402Y-114019035D01*
X189091089Y-114153722D01*
X189171902Y-114288409D01*
X189198839Y-114369221D01*
X189198839Y-114423096D01*
X189171902Y-114503908D01*
X189118027Y-114557783D01*
X189037215Y-114584720D01*
X188983340Y-114584720D01*
X188902528Y-114557783D01*
X188767841Y-114476971D01*
X188633154Y-114342284D01*
X188552341Y-114207597D01*
X188525404Y-114126784D01*
X188525404Y-114072910D01*
X188552341Y-113992097D01*
X187113096Y-120311218D02*
X187032284Y-120338155D01*
X186951471Y-120418967D01*
X186897597Y-120526717D01*
X186897597Y-120634467D01*
X186924534Y-120715279D01*
X187005346Y-120849966D01*
X187086158Y-120930778D01*
X187220845Y-121011590D01*
X187301658Y-121038528D01*
X187409407Y-121038528D01*
X187517157Y-120984653D01*
X187571032Y-120930778D01*
X187624906Y-120823028D01*
X187624906Y-120769154D01*
X187436345Y-120580592D01*
X187328595Y-120688341D01*
X187921218Y-120580592D02*
X187355532Y-120014906D01*
X187571032Y-119799407D01*
X187651844Y-119772470D01*
X187705719Y-119772470D01*
X187786531Y-119799407D01*
X187867343Y-119880219D01*
X187894280Y-119961032D01*
X187894280Y-120014906D01*
X187867343Y-120095719D01*
X187651844Y-120311218D01*
X188513841Y-119987969D02*
X188621590Y-119880219D01*
X188648528Y-119799407D01*
X188648528Y-119745532D01*
X188621590Y-119610845D01*
X188540778Y-119476158D01*
X188325279Y-119260659D01*
X188244467Y-119233722D01*
X188190592Y-119233722D01*
X188109780Y-119260659D01*
X188002030Y-119368409D01*
X187975093Y-119449221D01*
X187975093Y-119503096D01*
X188002030Y-119583908D01*
X188136717Y-119718595D01*
X188217529Y-119745532D01*
X188271404Y-119745532D01*
X188352216Y-119718595D01*
X188459966Y-119610845D01*
X188486903Y-119530033D01*
X188486903Y-119476158D01*
X188459966Y-119395346D01*
X187113096Y-122851218D02*
X187032284Y-122878155D01*
X186951471Y-122958967D01*
X186897597Y-123066717D01*
X186897597Y-123174467D01*
X186924534Y-123255279D01*
X187005346Y-123389966D01*
X187086158Y-123470778D01*
X187220845Y-123551590D01*
X187301658Y-123578528D01*
X187409407Y-123578528D01*
X187517157Y-123524653D01*
X187571032Y-123470778D01*
X187624906Y-123363028D01*
X187624906Y-123309154D01*
X187436345Y-123120592D01*
X187328595Y-123228341D01*
X187921218Y-123120592D02*
X187355532Y-122554906D01*
X187571032Y-122339407D01*
X187651844Y-122312470D01*
X187705719Y-122312470D01*
X187786531Y-122339407D01*
X187867343Y-122420219D01*
X187894280Y-122501032D01*
X187894280Y-122554906D01*
X187867343Y-122635719D01*
X187651844Y-122851218D01*
X188244467Y-122150845D02*
X188163654Y-122177783D01*
X188109780Y-122177783D01*
X188028967Y-122150845D01*
X188002030Y-122123908D01*
X187975093Y-122043096D01*
X187975093Y-121989221D01*
X188002030Y-121908409D01*
X188109780Y-121800659D01*
X188190592Y-121773722D01*
X188244467Y-121773722D01*
X188325279Y-121800659D01*
X188352216Y-121827597D01*
X188379154Y-121908409D01*
X188379154Y-121962284D01*
X188352216Y-122043096D01*
X188244467Y-122150845D01*
X188217529Y-122231658D01*
X188217529Y-122285532D01*
X188244467Y-122366345D01*
X188352216Y-122474094D01*
X188433028Y-122501032D01*
X188486903Y-122501032D01*
X188567715Y-122474094D01*
X188675465Y-122366345D01*
X188702402Y-122285532D01*
X188702402Y-122231658D01*
X188675465Y-122150845D01*
X188567715Y-122043096D01*
X188486903Y-122016158D01*
X188433028Y-122016158D01*
X188352216Y-122043096D01*
X187013096Y-125421218D02*
X186932284Y-125448155D01*
X186851471Y-125528967D01*
X186797597Y-125636717D01*
X186797597Y-125744467D01*
X186824534Y-125825279D01*
X186905346Y-125959966D01*
X186986158Y-126040778D01*
X187120845Y-126121590D01*
X187201658Y-126148528D01*
X187309407Y-126148528D01*
X187417157Y-126094653D01*
X187471032Y-126040778D01*
X187524906Y-125933028D01*
X187524906Y-125879154D01*
X187336345Y-125690592D01*
X187228595Y-125798341D01*
X187821218Y-125690592D02*
X187255532Y-125124906D01*
X187471032Y-124909407D01*
X187551844Y-124882470D01*
X187605719Y-124882470D01*
X187686531Y-124909407D01*
X187767343Y-124990219D01*
X187794280Y-125071032D01*
X187794280Y-125124906D01*
X187767343Y-125205719D01*
X187551844Y-125421218D01*
X187767343Y-124613096D02*
X188144467Y-124235972D01*
X188467715Y-125044094D01*
X187113096Y-127931218D02*
X187032284Y-127958155D01*
X186951471Y-128038967D01*
X186897597Y-128146717D01*
X186897597Y-128254467D01*
X186924534Y-128335279D01*
X187005346Y-128469966D01*
X187086158Y-128550778D01*
X187220845Y-128631590D01*
X187301658Y-128658528D01*
X187409407Y-128658528D01*
X187517157Y-128604653D01*
X187571032Y-128550778D01*
X187624906Y-128443028D01*
X187624906Y-128389154D01*
X187436345Y-128200592D01*
X187328595Y-128308341D01*
X187921218Y-128200592D02*
X187355532Y-127634906D01*
X187571032Y-127419407D01*
X187651844Y-127392470D01*
X187705719Y-127392470D01*
X187786531Y-127419407D01*
X187867343Y-127500219D01*
X187894280Y-127581032D01*
X187894280Y-127634906D01*
X187867343Y-127715719D01*
X187651844Y-127931218D01*
X188163654Y-126826784D02*
X188055905Y-126934534D01*
X188028967Y-127015346D01*
X188028967Y-127069221D01*
X188055905Y-127203908D01*
X188136717Y-127338595D01*
X188352216Y-127554094D01*
X188433028Y-127581032D01*
X188486903Y-127581032D01*
X188567715Y-127554094D01*
X188675465Y-127446345D01*
X188702402Y-127365532D01*
X188702402Y-127311658D01*
X188675465Y-127230845D01*
X188540778Y-127096158D01*
X188459966Y-127069221D01*
X188406091Y-127069221D01*
X188325279Y-127096158D01*
X188217529Y-127203908D01*
X188190592Y-127284720D01*
X188190592Y-127338595D01*
X188217529Y-127419407D01*
X187113096Y-133011218D02*
X187032284Y-133038155D01*
X186951471Y-133118967D01*
X186897597Y-133226717D01*
X186897597Y-133334467D01*
X186924534Y-133415279D01*
X187005346Y-133549966D01*
X187086158Y-133630778D01*
X187220845Y-133711590D01*
X187301658Y-133738528D01*
X187409407Y-133738528D01*
X187517157Y-133684653D01*
X187571032Y-133630778D01*
X187624906Y-133523028D01*
X187624906Y-133469154D01*
X187436345Y-133280592D01*
X187328595Y-133388341D01*
X187921218Y-133280592D02*
X187355532Y-132714906D01*
X187571032Y-132499407D01*
X187651844Y-132472470D01*
X187705719Y-132472470D01*
X187786531Y-132499407D01*
X187867343Y-132580219D01*
X187894280Y-132661032D01*
X187894280Y-132714906D01*
X187867343Y-132795719D01*
X187651844Y-133011218D01*
X188190592Y-131879847D02*
X187921218Y-132149221D01*
X188163654Y-132445532D01*
X188163654Y-132391658D01*
X188190592Y-132310845D01*
X188325279Y-132176158D01*
X188406091Y-132149221D01*
X188459966Y-132149221D01*
X188540778Y-132176158D01*
X188675465Y-132310845D01*
X188702402Y-132391658D01*
X188702402Y-132445532D01*
X188675465Y-132526345D01*
X188540778Y-132661032D01*
X188459966Y-132687969D01*
X188406091Y-132687969D01*
X187113096Y-135551218D02*
X187032284Y-135578155D01*
X186951471Y-135658967D01*
X186897597Y-135766717D01*
X186897597Y-135874467D01*
X186924534Y-135955279D01*
X187005346Y-136089966D01*
X187086158Y-136170778D01*
X187220845Y-136251590D01*
X187301658Y-136278528D01*
X187409407Y-136278528D01*
X187517157Y-136224653D01*
X187571032Y-136170778D01*
X187624906Y-136063028D01*
X187624906Y-136009154D01*
X187436345Y-135820592D01*
X187328595Y-135928341D01*
X187921218Y-135820592D02*
X187355532Y-135254906D01*
X187571032Y-135039407D01*
X187651844Y-135012470D01*
X187705719Y-135012470D01*
X187786531Y-135039407D01*
X187867343Y-135120219D01*
X187894280Y-135201032D01*
X187894280Y-135254906D01*
X187867343Y-135335719D01*
X187651844Y-135551218D01*
X188352216Y-134635346D02*
X188729340Y-135012470D01*
X188002030Y-134554534D02*
X188271404Y-135093282D01*
X188621590Y-134743096D01*
X187113096Y-138091218D02*
X187032284Y-138118155D01*
X186951471Y-138198967D01*
X186897597Y-138306717D01*
X186897597Y-138414467D01*
X186924534Y-138495279D01*
X187005346Y-138629966D01*
X187086158Y-138710778D01*
X187220845Y-138791590D01*
X187301658Y-138818528D01*
X187409407Y-138818528D01*
X187517157Y-138764653D01*
X187571032Y-138710778D01*
X187624906Y-138603028D01*
X187624906Y-138549154D01*
X187436345Y-138360592D01*
X187328595Y-138468341D01*
X187921218Y-138360592D02*
X187355532Y-137794906D01*
X187571032Y-137579407D01*
X187651844Y-137552470D01*
X187705719Y-137552470D01*
X187786531Y-137579407D01*
X187867343Y-137660219D01*
X187894280Y-137741032D01*
X187894280Y-137794906D01*
X187867343Y-137875719D01*
X187651844Y-138091218D01*
X187867343Y-137283096D02*
X188217529Y-136932910D01*
X188244467Y-137336971D01*
X188325279Y-137256158D01*
X188406091Y-137229221D01*
X188459966Y-137229221D01*
X188540778Y-137256158D01*
X188675465Y-137390845D01*
X188702402Y-137471658D01*
X188702402Y-137525532D01*
X188675465Y-137606345D01*
X188513841Y-137767969D01*
X188433028Y-137794906D01*
X188379154Y-137794906D01*
X187113096Y-148251218D02*
X187032284Y-148278155D01*
X186951471Y-148358967D01*
X186897597Y-148466717D01*
X186897597Y-148574467D01*
X186924534Y-148655279D01*
X187005346Y-148789966D01*
X187086158Y-148870778D01*
X187220845Y-148951590D01*
X187301658Y-148978528D01*
X187409407Y-148978528D01*
X187517157Y-148924653D01*
X187571032Y-148870778D01*
X187624906Y-148763028D01*
X187624906Y-148709154D01*
X187436345Y-148520592D01*
X187328595Y-148628341D01*
X187921218Y-148520592D02*
X187355532Y-147954906D01*
X187571032Y-147739407D01*
X187651844Y-147712470D01*
X187705719Y-147712470D01*
X187786531Y-147739407D01*
X187867343Y-147820219D01*
X187894280Y-147901032D01*
X187894280Y-147954906D01*
X187867343Y-148035719D01*
X187651844Y-148251218D01*
X188028967Y-147281471D02*
X188082842Y-147227597D01*
X188163654Y-147200659D01*
X188217529Y-147200659D01*
X188298341Y-147227597D01*
X188433028Y-147308409D01*
X188567715Y-147443096D01*
X188648528Y-147577783D01*
X188675465Y-147658595D01*
X188675465Y-147712470D01*
X188648528Y-147793282D01*
X188594653Y-147847157D01*
X188513841Y-147874094D01*
X188459966Y-147874094D01*
X188379154Y-147847157D01*
X188244467Y-147766345D01*
X188109780Y-147631658D01*
X188028967Y-147496971D01*
X188002030Y-147416158D01*
X188002030Y-147362284D01*
X188028967Y-147281471D01*
X187213096Y-140631218D02*
X187132284Y-140658155D01*
X187051471Y-140738967D01*
X186997597Y-140846717D01*
X186997597Y-140954467D01*
X187024534Y-141035279D01*
X187105346Y-141169966D01*
X187186158Y-141250778D01*
X187320845Y-141331590D01*
X187401658Y-141358528D01*
X187509407Y-141358528D01*
X187617157Y-141304653D01*
X187671032Y-141250778D01*
X187724906Y-141143028D01*
X187724906Y-141089154D01*
X187536345Y-140900592D01*
X187428595Y-141008341D01*
X188021218Y-140900592D02*
X187455532Y-140334906D01*
X187671032Y-140119407D01*
X187751844Y-140092470D01*
X187805719Y-140092470D01*
X187886531Y-140119407D01*
X187967343Y-140200219D01*
X187994280Y-140281032D01*
X187994280Y-140334906D01*
X187967343Y-140415719D01*
X187751844Y-140631218D01*
X188048155Y-139850033D02*
X188048155Y-139796158D01*
X188075093Y-139715346D01*
X188209780Y-139580659D01*
X188290592Y-139553722D01*
X188344467Y-139553722D01*
X188425279Y-139580659D01*
X188479154Y-139634534D01*
X188533028Y-139742284D01*
X188533028Y-140388781D01*
X188883215Y-140038595D01*
X187213096Y-145721218D02*
X187132284Y-145748155D01*
X187051471Y-145828967D01*
X186997597Y-145936717D01*
X186997597Y-146044467D01*
X187024534Y-146125279D01*
X187105346Y-146259966D01*
X187186158Y-146340778D01*
X187320845Y-146421590D01*
X187401658Y-146448528D01*
X187509407Y-146448528D01*
X187617157Y-146394653D01*
X187671032Y-146340778D01*
X187724906Y-146233028D01*
X187724906Y-146179154D01*
X187536345Y-145990592D01*
X187428595Y-146098341D01*
X188021218Y-145990592D02*
X187455532Y-145424906D01*
X187671032Y-145209407D01*
X187751844Y-145182470D01*
X187805719Y-145182470D01*
X187886531Y-145209407D01*
X187967343Y-145290219D01*
X187994280Y-145371032D01*
X187994280Y-145424906D01*
X187967343Y-145505719D01*
X187751844Y-145721218D01*
X188883215Y-145128595D02*
X188559966Y-145451844D01*
X188721590Y-145290219D02*
X188155905Y-144724534D01*
X188182842Y-144859221D01*
X188182842Y-144966971D01*
X188155905Y-145047783D01*
X148238095Y-54702380D02*
X148238095Y-55511904D01*
X148285714Y-55607142D01*
X148333333Y-55654761D01*
X148428571Y-55702380D01*
X148619047Y-55702380D01*
X148714285Y-55654761D01*
X148761904Y-55607142D01*
X148809523Y-55511904D01*
X148809523Y-54702380D01*
X149714285Y-54702380D02*
X149523809Y-54702380D01*
X149428571Y-54750000D01*
X149380952Y-54797619D01*
X149285714Y-54940476D01*
X149238095Y-55130952D01*
X149238095Y-55511904D01*
X149285714Y-55607142D01*
X149333333Y-55654761D01*
X149428571Y-55702380D01*
X149619047Y-55702380D01*
X149714285Y-55654761D01*
X149761904Y-55607142D01*
X149809523Y-55511904D01*
X149809523Y-55273809D01*
X149761904Y-55178571D01*
X149714285Y-55130952D01*
X149619047Y-55083333D01*
X149428571Y-55083333D01*
X149333333Y-55130952D01*
X149285714Y-55178571D01*
X149238095Y-55273809D01*
X129428095Y-89952380D02*
X129428095Y-90761904D01*
X129475714Y-90857142D01*
X129523333Y-90904761D01*
X129618571Y-90952380D01*
X129809047Y-90952380D01*
X129904285Y-90904761D01*
X129951904Y-90857142D01*
X129999523Y-90761904D01*
X129999523Y-89952380D01*
X130904285Y-90285714D02*
X130904285Y-90952380D01*
X130666190Y-89904761D02*
X130428095Y-90619047D01*
X131047142Y-90619047D01*
X129428095Y-83952380D02*
X129428095Y-84761904D01*
X129475714Y-84857142D01*
X129523333Y-84904761D01*
X129618571Y-84952380D01*
X129809047Y-84952380D01*
X129904285Y-84904761D01*
X129951904Y-84857142D01*
X129999523Y-84761904D01*
X129999523Y-83952380D01*
X130380476Y-83952380D02*
X130999523Y-83952380D01*
X130666190Y-84333333D01*
X130809047Y-84333333D01*
X130904285Y-84380952D01*
X130951904Y-84428571D01*
X130999523Y-84523809D01*
X130999523Y-84761904D01*
X130951904Y-84857142D01*
X130904285Y-84904761D01*
X130809047Y-84952380D01*
X130523333Y-84952380D01*
X130428095Y-84904761D01*
X130380476Y-84857142D01*
X129428095Y-77952380D02*
X129428095Y-78761904D01*
X129475714Y-78857142D01*
X129523333Y-78904761D01*
X129618571Y-78952380D01*
X129809047Y-78952380D01*
X129904285Y-78904761D01*
X129951904Y-78857142D01*
X129999523Y-78761904D01*
X129999523Y-77952380D01*
X130428095Y-78047619D02*
X130475714Y-78000000D01*
X130570952Y-77952380D01*
X130809047Y-77952380D01*
X130904285Y-78000000D01*
X130951904Y-78047619D01*
X130999523Y-78142857D01*
X130999523Y-78238095D01*
X130951904Y-78380952D01*
X130380476Y-78952380D01*
X130999523Y-78952380D01*
X129428095Y-71952380D02*
X129428095Y-72761904D01*
X129475714Y-72857142D01*
X129523333Y-72904761D01*
X129618571Y-72952380D01*
X129809047Y-72952380D01*
X129904285Y-72904761D01*
X129951904Y-72857142D01*
X129999523Y-72761904D01*
X129999523Y-71952380D01*
X130999523Y-72952380D02*
X130428095Y-72952380D01*
X130713809Y-72952380D02*
X130713809Y-71952380D01*
X130618571Y-72095238D01*
X130523333Y-72190476D01*
X130428095Y-72238095D01*
X190666666Y-86904761D02*
X190809523Y-86952380D01*
X191047619Y-86952380D01*
X191142857Y-86904761D01*
X191190476Y-86857142D01*
X191238095Y-86761904D01*
X191238095Y-86666666D01*
X191190476Y-86571428D01*
X191142857Y-86523809D01*
X191047619Y-86476190D01*
X190857142Y-86428571D01*
X190761904Y-86380952D01*
X190714285Y-86333333D01*
X190666666Y-86238095D01*
X190666666Y-86142857D01*
X190714285Y-86047619D01*
X190761904Y-86000000D01*
X190857142Y-85952380D01*
X191095238Y-85952380D01*
X191238095Y-86000000D01*
X191571428Y-85952380D02*
X191809523Y-86952380D01*
X192000000Y-86238095D01*
X192190476Y-86952380D01*
X192428571Y-85952380D01*
X192714285Y-85952380D02*
X193333333Y-85952380D01*
X193000000Y-86333333D01*
X193142857Y-86333333D01*
X193238095Y-86380952D01*
X193285714Y-86428571D01*
X193333333Y-86523809D01*
X193333333Y-86761904D01*
X193285714Y-86857142D01*
X193238095Y-86904761D01*
X193142857Y-86952380D01*
X192857142Y-86952380D01*
X192761904Y-86904761D01*
X192714285Y-86857142D01*
X158916666Y-55904761D02*
X159059523Y-55952380D01*
X159297619Y-55952380D01*
X159392857Y-55904761D01*
X159440476Y-55857142D01*
X159488095Y-55761904D01*
X159488095Y-55666666D01*
X159440476Y-55571428D01*
X159392857Y-55523809D01*
X159297619Y-55476190D01*
X159107142Y-55428571D01*
X159011904Y-55380952D01*
X158964285Y-55333333D01*
X158916666Y-55238095D01*
X158916666Y-55142857D01*
X158964285Y-55047619D01*
X159011904Y-55000000D01*
X159107142Y-54952380D01*
X159345238Y-54952380D01*
X159488095Y-55000000D01*
X159821428Y-54952380D02*
X160059523Y-55952380D01*
X160250000Y-55238095D01*
X160440476Y-55952380D01*
X160678571Y-54952380D01*
X161011904Y-55047619D02*
X161059523Y-55000000D01*
X161154761Y-54952380D01*
X161392857Y-54952380D01*
X161488095Y-55000000D01*
X161535714Y-55047619D01*
X161583333Y-55142857D01*
X161583333Y-55238095D01*
X161535714Y-55380952D01*
X160964285Y-55952380D01*
X161583333Y-55952380D01*
X139952380Y-143722857D02*
X139476190Y-144056190D01*
X139952380Y-144294285D02*
X138952380Y-144294285D01*
X138952380Y-143913333D01*
X139000000Y-143818095D01*
X139047619Y-143770476D01*
X139142857Y-143722857D01*
X139285714Y-143722857D01*
X139380952Y-143770476D01*
X139428571Y-143818095D01*
X139476190Y-143913333D01*
X139476190Y-144294285D01*
X139952380Y-142770476D02*
X139952380Y-143341904D01*
X139952380Y-143056190D02*
X138952380Y-143056190D01*
X139095238Y-143151428D01*
X139190476Y-143246666D01*
X139238095Y-143341904D01*
X139380952Y-142199047D02*
X139333333Y-142294285D01*
X139285714Y-142341904D01*
X139190476Y-142389523D01*
X139142857Y-142389523D01*
X139047619Y-142341904D01*
X139000000Y-142294285D01*
X138952380Y-142199047D01*
X138952380Y-142008571D01*
X139000000Y-141913333D01*
X139047619Y-141865714D01*
X139142857Y-141818095D01*
X139190476Y-141818095D01*
X139285714Y-141865714D01*
X139333333Y-141913333D01*
X139380952Y-142008571D01*
X139380952Y-142199047D01*
X139428571Y-142294285D01*
X139476190Y-142341904D01*
X139571428Y-142389523D01*
X139761904Y-142389523D01*
X139857142Y-142341904D01*
X139904761Y-142294285D01*
X139952380Y-142199047D01*
X139952380Y-142008571D01*
X139904761Y-141913333D01*
X139857142Y-141865714D01*
X139761904Y-141818095D01*
X139571428Y-141818095D01*
X139476190Y-141865714D01*
X139428571Y-141913333D01*
X139380952Y-142008571D01*
X129777142Y-107452380D02*
X129443809Y-106976190D01*
X129205714Y-107452380D02*
X129205714Y-106452380D01*
X129586666Y-106452380D01*
X129681904Y-106500000D01*
X129729523Y-106547619D01*
X129777142Y-106642857D01*
X129777142Y-106785714D01*
X129729523Y-106880952D01*
X129681904Y-106928571D01*
X129586666Y-106976190D01*
X129205714Y-106976190D01*
X130729523Y-107452380D02*
X130158095Y-107452380D01*
X130443809Y-107452380D02*
X130443809Y-106452380D01*
X130348571Y-106595238D01*
X130253333Y-106690476D01*
X130158095Y-106738095D01*
X131062857Y-106452380D02*
X131729523Y-106452380D01*
X131300952Y-107452380D01*
X129777142Y-100452380D02*
X129443809Y-99976190D01*
X129205714Y-100452380D02*
X129205714Y-99452380D01*
X129586666Y-99452380D01*
X129681904Y-99500000D01*
X129729523Y-99547619D01*
X129777142Y-99642857D01*
X129777142Y-99785714D01*
X129729523Y-99880952D01*
X129681904Y-99928571D01*
X129586666Y-99976190D01*
X129205714Y-99976190D01*
X130729523Y-100452380D02*
X130158095Y-100452380D01*
X130443809Y-100452380D02*
X130443809Y-99452380D01*
X130348571Y-99595238D01*
X130253333Y-99690476D01*
X130158095Y-99738095D01*
X131586666Y-99452380D02*
X131396190Y-99452380D01*
X131300952Y-99500000D01*
X131253333Y-99547619D01*
X131158095Y-99690476D01*
X131110476Y-99880952D01*
X131110476Y-100261904D01*
X131158095Y-100357142D01*
X131205714Y-100404761D01*
X131300952Y-100452380D01*
X131491428Y-100452380D01*
X131586666Y-100404761D01*
X131634285Y-100357142D01*
X131681904Y-100261904D01*
X131681904Y-100023809D01*
X131634285Y-99928571D01*
X131586666Y-99880952D01*
X131491428Y-99833333D01*
X131300952Y-99833333D01*
X131205714Y-99880952D01*
X131158095Y-99928571D01*
X131110476Y-100023809D01*
X142952380Y-90142857D02*
X142476190Y-90476190D01*
X142952380Y-90714285D02*
X141952380Y-90714285D01*
X141952380Y-90333333D01*
X142000000Y-90238095D01*
X142047619Y-90190476D01*
X142142857Y-90142857D01*
X142285714Y-90142857D01*
X142380952Y-90190476D01*
X142428571Y-90238095D01*
X142476190Y-90333333D01*
X142476190Y-90714285D01*
X142952380Y-89190476D02*
X142952380Y-89761904D01*
X142952380Y-89476190D02*
X141952380Y-89476190D01*
X142095238Y-89571428D01*
X142190476Y-89666666D01*
X142238095Y-89761904D01*
X141952380Y-88285714D02*
X141952380Y-88761904D01*
X142428571Y-88809523D01*
X142380952Y-88761904D01*
X142333333Y-88666666D01*
X142333333Y-88428571D01*
X142380952Y-88333333D01*
X142428571Y-88285714D01*
X142523809Y-88238095D01*
X142761904Y-88238095D01*
X142857142Y-88285714D01*
X142904761Y-88333333D01*
X142952380Y-88428571D01*
X142952380Y-88666666D01*
X142904761Y-88761904D01*
X142857142Y-88809523D01*
X142952380Y-76642857D02*
X142476190Y-76976190D01*
X142952380Y-77214285D02*
X141952380Y-77214285D01*
X141952380Y-76833333D01*
X142000000Y-76738095D01*
X142047619Y-76690476D01*
X142142857Y-76642857D01*
X142285714Y-76642857D01*
X142380952Y-76690476D01*
X142428571Y-76738095D01*
X142476190Y-76833333D01*
X142476190Y-77214285D01*
X142952380Y-75690476D02*
X142952380Y-76261904D01*
X142952380Y-75976190D02*
X141952380Y-75976190D01*
X142095238Y-76071428D01*
X142190476Y-76166666D01*
X142238095Y-76261904D01*
X142285714Y-74833333D02*
X142952380Y-74833333D01*
X141904761Y-75071428D02*
X142619047Y-75309523D01*
X142619047Y-74690476D01*
X139952380Y-124722857D02*
X139476190Y-125056190D01*
X139952380Y-125294285D02*
X138952380Y-125294285D01*
X138952380Y-124913333D01*
X139000000Y-124818095D01*
X139047619Y-124770476D01*
X139142857Y-124722857D01*
X139285714Y-124722857D01*
X139380952Y-124770476D01*
X139428571Y-124818095D01*
X139476190Y-124913333D01*
X139476190Y-125294285D01*
X139952380Y-123770476D02*
X139952380Y-124341904D01*
X139952380Y-124056190D02*
X138952380Y-124056190D01*
X139095238Y-124151428D01*
X139190476Y-124246666D01*
X139238095Y-124341904D01*
X138952380Y-123437142D02*
X138952380Y-122818095D01*
X139333333Y-123151428D01*
X139333333Y-123008571D01*
X139380952Y-122913333D01*
X139428571Y-122865714D01*
X139523809Y-122818095D01*
X139761904Y-122818095D01*
X139857142Y-122865714D01*
X139904761Y-122913333D01*
X139952380Y-123008571D01*
X139952380Y-123294285D01*
X139904761Y-123389523D01*
X139857142Y-123437142D01*
X129777142Y-103952380D02*
X129443809Y-103476190D01*
X129205714Y-103952380D02*
X129205714Y-102952380D01*
X129586666Y-102952380D01*
X129681904Y-103000000D01*
X129729523Y-103047619D01*
X129777142Y-103142857D01*
X129777142Y-103285714D01*
X129729523Y-103380952D01*
X129681904Y-103428571D01*
X129586666Y-103476190D01*
X129205714Y-103476190D01*
X130729523Y-103952380D02*
X130158095Y-103952380D01*
X130443809Y-103952380D02*
X130443809Y-102952380D01*
X130348571Y-103095238D01*
X130253333Y-103190476D01*
X130158095Y-103238095D01*
X131110476Y-103047619D02*
X131158095Y-103000000D01*
X131253333Y-102952380D01*
X131491428Y-102952380D01*
X131586666Y-103000000D01*
X131634285Y-103047619D01*
X131681904Y-103142857D01*
X131681904Y-103238095D01*
X131634285Y-103380952D01*
X131062857Y-103952380D01*
X131681904Y-103952380D01*
X129857142Y-96952380D02*
X129523809Y-96476190D01*
X129285714Y-96952380D02*
X129285714Y-95952380D01*
X129666666Y-95952380D01*
X129761904Y-96000000D01*
X129809523Y-96047619D01*
X129857142Y-96142857D01*
X129857142Y-96285714D01*
X129809523Y-96380952D01*
X129761904Y-96428571D01*
X129666666Y-96476190D01*
X129285714Y-96476190D01*
X130809523Y-96952380D02*
X130238095Y-96952380D01*
X130523809Y-96952380D02*
X130523809Y-95952380D01*
X130428571Y-96095238D01*
X130333333Y-96190476D01*
X130238095Y-96238095D01*
X131761904Y-96952380D02*
X131190476Y-96952380D01*
X131476190Y-96952380D02*
X131476190Y-95952380D01*
X131380952Y-96095238D01*
X131285714Y-96190476D01*
X131190476Y-96238095D01*
X139452380Y-90142857D02*
X138976190Y-90476190D01*
X139452380Y-90714285D02*
X138452380Y-90714285D01*
X138452380Y-90333333D01*
X138500000Y-90238095D01*
X138547619Y-90190476D01*
X138642857Y-90142857D01*
X138785714Y-90142857D01*
X138880952Y-90190476D01*
X138928571Y-90238095D01*
X138976190Y-90333333D01*
X138976190Y-90714285D01*
X139452380Y-89190476D02*
X139452380Y-89761904D01*
X139452380Y-89476190D02*
X138452380Y-89476190D01*
X138595238Y-89571428D01*
X138690476Y-89666666D01*
X138738095Y-89761904D01*
X138452380Y-88571428D02*
X138452380Y-88476190D01*
X138500000Y-88380952D01*
X138547619Y-88333333D01*
X138642857Y-88285714D01*
X138833333Y-88238095D01*
X139071428Y-88238095D01*
X139261904Y-88285714D01*
X139357142Y-88333333D01*
X139404761Y-88380952D01*
X139452380Y-88476190D01*
X139452380Y-88571428D01*
X139404761Y-88666666D01*
X139357142Y-88714285D01*
X139261904Y-88761904D01*
X139071428Y-88809523D01*
X138833333Y-88809523D01*
X138642857Y-88761904D01*
X138547619Y-88714285D01*
X138500000Y-88666666D01*
X138452380Y-88571428D01*
X139452380Y-76166666D02*
X138976190Y-76500000D01*
X139452380Y-76738095D02*
X138452380Y-76738095D01*
X138452380Y-76357142D01*
X138500000Y-76261904D01*
X138547619Y-76214285D01*
X138642857Y-76166666D01*
X138785714Y-76166666D01*
X138880952Y-76214285D01*
X138928571Y-76261904D01*
X138976190Y-76357142D01*
X138976190Y-76738095D01*
X139452380Y-75690476D02*
X139452380Y-75500000D01*
X139404761Y-75404761D01*
X139357142Y-75357142D01*
X139214285Y-75261904D01*
X139023809Y-75214285D01*
X138642857Y-75214285D01*
X138547619Y-75261904D01*
X138500000Y-75309523D01*
X138452380Y-75404761D01*
X138452380Y-75595238D01*
X138500000Y-75690476D01*
X138547619Y-75738095D01*
X138642857Y-75785714D01*
X138880952Y-75785714D01*
X138976190Y-75738095D01*
X139023809Y-75690476D01*
X139071428Y-75595238D01*
X139071428Y-75404761D01*
X139023809Y-75309523D01*
X138976190Y-75261904D01*
X138880952Y-75214285D01*
X148452380Y-107586666D02*
X147976190Y-107920000D01*
X148452380Y-108158095D02*
X147452380Y-108158095D01*
X147452380Y-107777142D01*
X147500000Y-107681904D01*
X147547619Y-107634285D01*
X147642857Y-107586666D01*
X147785714Y-107586666D01*
X147880952Y-107634285D01*
X147928571Y-107681904D01*
X147976190Y-107777142D01*
X147976190Y-108158095D01*
X147880952Y-107015238D02*
X147833333Y-107110476D01*
X147785714Y-107158095D01*
X147690476Y-107205714D01*
X147642857Y-107205714D01*
X147547619Y-107158095D01*
X147500000Y-107110476D01*
X147452380Y-107015238D01*
X147452380Y-106824761D01*
X147500000Y-106729523D01*
X147547619Y-106681904D01*
X147642857Y-106634285D01*
X147690476Y-106634285D01*
X147785714Y-106681904D01*
X147833333Y-106729523D01*
X147880952Y-106824761D01*
X147880952Y-107015238D01*
X147928571Y-107110476D01*
X147976190Y-107158095D01*
X148071428Y-107205714D01*
X148261904Y-107205714D01*
X148357142Y-107158095D01*
X148404761Y-107110476D01*
X148452380Y-107015238D01*
X148452380Y-106824761D01*
X148404761Y-106729523D01*
X148357142Y-106681904D01*
X148261904Y-106634285D01*
X148071428Y-106634285D01*
X147976190Y-106681904D01*
X147928571Y-106729523D01*
X147880952Y-106824761D01*
X151952380Y-107666666D02*
X151476190Y-108000000D01*
X151952380Y-108238095D02*
X150952380Y-108238095D01*
X150952380Y-107857142D01*
X151000000Y-107761904D01*
X151047619Y-107714285D01*
X151142857Y-107666666D01*
X151285714Y-107666666D01*
X151380952Y-107714285D01*
X151428571Y-107761904D01*
X151476190Y-107857142D01*
X151476190Y-108238095D01*
X150952380Y-107333333D02*
X150952380Y-106666666D01*
X151952380Y-107095238D01*
X155452380Y-93746666D02*
X154976190Y-94080000D01*
X155452380Y-94318095D02*
X154452380Y-94318095D01*
X154452380Y-93937142D01*
X154500000Y-93841904D01*
X154547619Y-93794285D01*
X154642857Y-93746666D01*
X154785714Y-93746666D01*
X154880952Y-93794285D01*
X154928571Y-93841904D01*
X154976190Y-93937142D01*
X154976190Y-94318095D01*
X154452380Y-92889523D02*
X154452380Y-93080000D01*
X154500000Y-93175238D01*
X154547619Y-93222857D01*
X154690476Y-93318095D01*
X154880952Y-93365714D01*
X155261904Y-93365714D01*
X155357142Y-93318095D01*
X155404761Y-93270476D01*
X155452380Y-93175238D01*
X155452380Y-92984761D01*
X155404761Y-92889523D01*
X155357142Y-92841904D01*
X155261904Y-92794285D01*
X155023809Y-92794285D01*
X154928571Y-92841904D01*
X154880952Y-92889523D01*
X154833333Y-92984761D01*
X154833333Y-93175238D01*
X154880952Y-93270476D01*
X154928571Y-93318095D01*
X155023809Y-93365714D01*
X155502380Y-107756666D02*
X155026190Y-108090000D01*
X155502380Y-108328095D02*
X154502380Y-108328095D01*
X154502380Y-107947142D01*
X154550000Y-107851904D01*
X154597619Y-107804285D01*
X154692857Y-107756666D01*
X154835714Y-107756666D01*
X154930952Y-107804285D01*
X154978571Y-107851904D01*
X155026190Y-107947142D01*
X155026190Y-108328095D01*
X154502380Y-106851904D02*
X154502380Y-107328095D01*
X154978571Y-107375714D01*
X154930952Y-107328095D01*
X154883333Y-107232857D01*
X154883333Y-106994761D01*
X154930952Y-106899523D01*
X154978571Y-106851904D01*
X155073809Y-106804285D01*
X155311904Y-106804285D01*
X155407142Y-106851904D01*
X155454761Y-106899523D01*
X155502380Y-106994761D01*
X155502380Y-107232857D01*
X155454761Y-107328095D01*
X155407142Y-107375714D01*
X148452380Y-93666666D02*
X147976190Y-94000000D01*
X148452380Y-94238095D02*
X147452380Y-94238095D01*
X147452380Y-93857142D01*
X147500000Y-93761904D01*
X147547619Y-93714285D01*
X147642857Y-93666666D01*
X147785714Y-93666666D01*
X147880952Y-93714285D01*
X147928571Y-93761904D01*
X147976190Y-93857142D01*
X147976190Y-94238095D01*
X147785714Y-92809523D02*
X148452380Y-92809523D01*
X147404761Y-93047619D02*
X148119047Y-93285714D01*
X148119047Y-92666666D01*
X151952380Y-93666666D02*
X151476190Y-94000000D01*
X151952380Y-94238095D02*
X150952380Y-94238095D01*
X150952380Y-93857142D01*
X151000000Y-93761904D01*
X151047619Y-93714285D01*
X151142857Y-93666666D01*
X151285714Y-93666666D01*
X151380952Y-93714285D01*
X151428571Y-93761904D01*
X151476190Y-93857142D01*
X151476190Y-94238095D01*
X150952380Y-93333333D02*
X150952380Y-92714285D01*
X151333333Y-93047619D01*
X151333333Y-92904761D01*
X151380952Y-92809523D01*
X151428571Y-92761904D01*
X151523809Y-92714285D01*
X151761904Y-92714285D01*
X151857142Y-92761904D01*
X151904761Y-92809523D01*
X151952380Y-92904761D01*
X151952380Y-93190476D01*
X151904761Y-93285714D01*
X151857142Y-93333333D01*
X161413333Y-62342380D02*
X161080000Y-61866190D01*
X160841904Y-62342380D02*
X160841904Y-61342380D01*
X161222857Y-61342380D01*
X161318095Y-61390000D01*
X161365714Y-61437619D01*
X161413333Y-61532857D01*
X161413333Y-61675714D01*
X161365714Y-61770952D01*
X161318095Y-61818571D01*
X161222857Y-61866190D01*
X160841904Y-61866190D01*
X161794285Y-61437619D02*
X161841904Y-61390000D01*
X161937142Y-61342380D01*
X162175238Y-61342380D01*
X162270476Y-61390000D01*
X162318095Y-61437619D01*
X162365714Y-61532857D01*
X162365714Y-61628095D01*
X162318095Y-61770952D01*
X161746666Y-62342380D01*
X162365714Y-62342380D01*
X140047619Y-133595238D02*
X140000000Y-133690476D01*
X139904761Y-133785714D01*
X139761904Y-133928571D01*
X139714285Y-134023809D01*
X139714285Y-134119047D01*
X139952380Y-134071428D02*
X139904761Y-134166666D01*
X139809523Y-134261904D01*
X139619047Y-134309523D01*
X139285714Y-134309523D01*
X139095238Y-134261904D01*
X139000000Y-134166666D01*
X138952380Y-134071428D01*
X138952380Y-133880952D01*
X139000000Y-133785714D01*
X139095238Y-133690476D01*
X139285714Y-133642857D01*
X139619047Y-133642857D01*
X139809523Y-133690476D01*
X139904761Y-133785714D01*
X139952380Y-133880952D01*
X139952380Y-134071428D01*
X138952380Y-133309523D02*
X138952380Y-132642857D01*
X139952380Y-133071428D01*
X140047619Y-112825238D02*
X140000000Y-112920476D01*
X139904761Y-113015714D01*
X139761904Y-113158571D01*
X139714285Y-113253809D01*
X139714285Y-113349047D01*
X139952380Y-113301428D02*
X139904761Y-113396666D01*
X139809523Y-113491904D01*
X139619047Y-113539523D01*
X139285714Y-113539523D01*
X139095238Y-113491904D01*
X139000000Y-113396666D01*
X138952380Y-113301428D01*
X138952380Y-113110952D01*
X139000000Y-113015714D01*
X139095238Y-112920476D01*
X139285714Y-112872857D01*
X139619047Y-112872857D01*
X139809523Y-112920476D01*
X139904761Y-113015714D01*
X139952380Y-113110952D01*
X139952380Y-113301428D01*
X138952380Y-112015714D02*
X138952380Y-112206190D01*
X139000000Y-112301428D01*
X139047619Y-112349047D01*
X139190476Y-112444285D01*
X139380952Y-112491904D01*
X139761904Y-112491904D01*
X139857142Y-112444285D01*
X139904761Y-112396666D01*
X139952380Y-112301428D01*
X139952380Y-112110952D01*
X139904761Y-112015714D01*
X139857142Y-111968095D01*
X139761904Y-111920476D01*
X139523809Y-111920476D01*
X139428571Y-111968095D01*
X139380952Y-112015714D01*
X139333333Y-112110952D01*
X139333333Y-112301428D01*
X139380952Y-112396666D01*
X139428571Y-112444285D01*
X139523809Y-112491904D01*
X170797619Y-56365238D02*
X170750000Y-56460476D01*
X170654761Y-56555714D01*
X170511904Y-56698571D01*
X170464285Y-56793809D01*
X170464285Y-56889047D01*
X170702380Y-56841428D02*
X170654761Y-56936666D01*
X170559523Y-57031904D01*
X170369047Y-57079523D01*
X170035714Y-57079523D01*
X169845238Y-57031904D01*
X169750000Y-56936666D01*
X169702380Y-56841428D01*
X169702380Y-56650952D01*
X169750000Y-56555714D01*
X169845238Y-56460476D01*
X170035714Y-56412857D01*
X170369047Y-56412857D01*
X170559523Y-56460476D01*
X170654761Y-56555714D01*
X170702380Y-56650952D01*
X170702380Y-56841428D01*
X169702380Y-55508095D02*
X169702380Y-55984285D01*
X170178571Y-56031904D01*
X170130952Y-55984285D01*
X170083333Y-55889047D01*
X170083333Y-55650952D01*
X170130952Y-55555714D01*
X170178571Y-55508095D01*
X170273809Y-55460476D01*
X170511904Y-55460476D01*
X170607142Y-55508095D01*
X170654761Y-55555714D01*
X170702380Y-55650952D01*
X170702380Y-55889047D01*
X170654761Y-55984285D01*
X170607142Y-56031904D01*
X123817619Y-108135238D02*
X123770000Y-108230476D01*
X123674761Y-108325714D01*
X123531904Y-108468571D01*
X123484285Y-108563809D01*
X123484285Y-108659047D01*
X123722380Y-108611428D02*
X123674761Y-108706666D01*
X123579523Y-108801904D01*
X123389047Y-108849523D01*
X123055714Y-108849523D01*
X122865238Y-108801904D01*
X122770000Y-108706666D01*
X122722380Y-108611428D01*
X122722380Y-108420952D01*
X122770000Y-108325714D01*
X122865238Y-108230476D01*
X123055714Y-108182857D01*
X123389047Y-108182857D01*
X123579523Y-108230476D01*
X123674761Y-108325714D01*
X123722380Y-108420952D01*
X123722380Y-108611428D01*
X123055714Y-107325714D02*
X123722380Y-107325714D01*
X122674761Y-107563809D02*
X123389047Y-107801904D01*
X123389047Y-107182857D01*
X123817619Y-97135238D02*
X123770000Y-97230476D01*
X123674761Y-97325714D01*
X123531904Y-97468571D01*
X123484285Y-97563809D01*
X123484285Y-97659047D01*
X123722380Y-97611428D02*
X123674761Y-97706666D01*
X123579523Y-97801904D01*
X123389047Y-97849523D01*
X123055714Y-97849523D01*
X122865238Y-97801904D01*
X122770000Y-97706666D01*
X122722380Y-97611428D01*
X122722380Y-97420952D01*
X122770000Y-97325714D01*
X122865238Y-97230476D01*
X123055714Y-97182857D01*
X123389047Y-97182857D01*
X123579523Y-97230476D01*
X123674761Y-97325714D01*
X123722380Y-97420952D01*
X123722380Y-97611428D01*
X122722380Y-96849523D02*
X122722380Y-96230476D01*
X123103333Y-96563809D01*
X123103333Y-96420952D01*
X123150952Y-96325714D01*
X123198571Y-96278095D01*
X123293809Y-96230476D01*
X123531904Y-96230476D01*
X123627142Y-96278095D01*
X123674761Y-96325714D01*
X123722380Y-96420952D01*
X123722380Y-96706666D01*
X123674761Y-96801904D01*
X123627142Y-96849523D01*
X123817619Y-86135238D02*
X123770000Y-86230476D01*
X123674761Y-86325714D01*
X123531904Y-86468571D01*
X123484285Y-86563809D01*
X123484285Y-86659047D01*
X123722380Y-86611428D02*
X123674761Y-86706666D01*
X123579523Y-86801904D01*
X123389047Y-86849523D01*
X123055714Y-86849523D01*
X122865238Y-86801904D01*
X122770000Y-86706666D01*
X122722380Y-86611428D01*
X122722380Y-86420952D01*
X122770000Y-86325714D01*
X122865238Y-86230476D01*
X123055714Y-86182857D01*
X123389047Y-86182857D01*
X123579523Y-86230476D01*
X123674761Y-86325714D01*
X123722380Y-86420952D01*
X123722380Y-86611428D01*
X122817619Y-85801904D02*
X122770000Y-85754285D01*
X122722380Y-85659047D01*
X122722380Y-85420952D01*
X122770000Y-85325714D01*
X122817619Y-85278095D01*
X122912857Y-85230476D01*
X123008095Y-85230476D01*
X123150952Y-85278095D01*
X123722380Y-85849523D01*
X123722380Y-85230476D01*
X123817619Y-75135238D02*
X123770000Y-75230476D01*
X123674761Y-75325714D01*
X123531904Y-75468571D01*
X123484285Y-75563809D01*
X123484285Y-75659047D01*
X123722380Y-75611428D02*
X123674761Y-75706666D01*
X123579523Y-75801904D01*
X123389047Y-75849523D01*
X123055714Y-75849523D01*
X122865238Y-75801904D01*
X122770000Y-75706666D01*
X122722380Y-75611428D01*
X122722380Y-75420952D01*
X122770000Y-75325714D01*
X122865238Y-75230476D01*
X123055714Y-75182857D01*
X123389047Y-75182857D01*
X123579523Y-75230476D01*
X123674761Y-75325714D01*
X123722380Y-75420952D01*
X123722380Y-75611428D01*
X123722380Y-74230476D02*
X123722380Y-74801904D01*
X123722380Y-74516190D02*
X122722380Y-74516190D01*
X122865238Y-74611428D01*
X122960476Y-74706666D01*
X123008095Y-74801904D01*
X121261904Y-141952380D02*
X121261904Y-140952380D01*
X121833333Y-141952380D02*
X121404761Y-141380952D01*
X121833333Y-140952380D02*
X121261904Y-141523809D01*
X122214285Y-141047619D02*
X122261904Y-141000000D01*
X122357142Y-140952380D01*
X122595238Y-140952380D01*
X122690476Y-141000000D01*
X122738095Y-141047619D01*
X122785714Y-141142857D01*
X122785714Y-141238095D01*
X122738095Y-141380952D01*
X122166666Y-141952380D01*
X122785714Y-141952380D01*
X121761904Y-125452380D02*
X121761904Y-124452380D01*
X122333333Y-125452380D02*
X121904761Y-124880952D01*
X122333333Y-124452380D02*
X121761904Y-125023809D01*
X123285714Y-125452380D02*
X122714285Y-125452380D01*
X123000000Y-125452380D02*
X123000000Y-124452380D01*
X122904761Y-124595238D01*
X122809523Y-124690476D01*
X122714285Y-124738095D01*
X109952380Y-65333333D02*
X110666666Y-65333333D01*
X110809523Y-65380952D01*
X110904761Y-65476190D01*
X110952380Y-65619047D01*
X110952380Y-65714285D01*
X110952380Y-64333333D02*
X110952380Y-64904761D01*
X110952380Y-64619047D02*
X109952380Y-64619047D01*
X110095238Y-64714285D01*
X110190476Y-64809523D01*
X110238095Y-64904761D01*
X151555714Y-144952380D02*
X151555714Y-143952380D01*
X151793809Y-143952380D01*
X151936666Y-144000000D01*
X152031904Y-144095238D01*
X152079523Y-144190476D01*
X152127142Y-144380952D01*
X152127142Y-144523809D01*
X152079523Y-144714285D01*
X152031904Y-144809523D01*
X151936666Y-144904761D01*
X151793809Y-144952380D01*
X151555714Y-144952380D01*
X153079523Y-144952380D02*
X152508095Y-144952380D01*
X152793809Y-144952380D02*
X152793809Y-143952380D01*
X152698571Y-144095238D01*
X152603333Y-144190476D01*
X152508095Y-144238095D01*
X153412857Y-143952380D02*
X154031904Y-143952380D01*
X153698571Y-144333333D01*
X153841428Y-144333333D01*
X153936666Y-144380952D01*
X153984285Y-144428571D01*
X154031904Y-144523809D01*
X154031904Y-144761904D01*
X153984285Y-144857142D01*
X153936666Y-144904761D01*
X153841428Y-144952380D01*
X153555714Y-144952380D01*
X153460476Y-144904761D01*
X153412857Y-144857142D01*
X135952380Y-144714285D02*
X134952380Y-144714285D01*
X134952380Y-144476190D01*
X135000000Y-144333333D01*
X135095238Y-144238095D01*
X135190476Y-144190476D01*
X135380952Y-144142857D01*
X135523809Y-144142857D01*
X135714285Y-144190476D01*
X135809523Y-144238095D01*
X135904761Y-144333333D01*
X135952380Y-144476190D01*
X135952380Y-144714285D01*
X135952380Y-143190476D02*
X135952380Y-143761904D01*
X135952380Y-143476190D02*
X134952380Y-143476190D01*
X135095238Y-143571428D01*
X135190476Y-143666666D01*
X135238095Y-143761904D01*
X135047619Y-142809523D02*
X135000000Y-142761904D01*
X134952380Y-142666666D01*
X134952380Y-142428571D01*
X135000000Y-142333333D01*
X135047619Y-142285714D01*
X135142857Y-142238095D01*
X135238095Y-142238095D01*
X135380952Y-142285714D01*
X135952380Y-142857142D01*
X135952380Y-142238095D01*
X137952380Y-138261904D02*
X136952380Y-138261904D01*
X137952380Y-137690476D02*
X137380952Y-138119047D01*
X136952380Y-137690476D02*
X137523809Y-138261904D01*
X144055714Y-144952380D02*
X144055714Y-143952380D01*
X144293809Y-143952380D01*
X144436666Y-144000000D01*
X144531904Y-144095238D01*
X144579523Y-144190476D01*
X144627142Y-144380952D01*
X144627142Y-144523809D01*
X144579523Y-144714285D01*
X144531904Y-144809523D01*
X144436666Y-144904761D01*
X144293809Y-144952380D01*
X144055714Y-144952380D01*
X145579523Y-144952380D02*
X145008095Y-144952380D01*
X145293809Y-144952380D02*
X145293809Y-143952380D01*
X145198571Y-144095238D01*
X145103333Y-144190476D01*
X145008095Y-144238095D01*
X146531904Y-144952380D02*
X145960476Y-144952380D01*
X146246190Y-144952380D02*
X146246190Y-143952380D01*
X146150952Y-144095238D01*
X146055714Y-144190476D01*
X145960476Y-144238095D01*
X135952380Y-125714285D02*
X134952380Y-125714285D01*
X134952380Y-125476190D01*
X135000000Y-125333333D01*
X135095238Y-125238095D01*
X135190476Y-125190476D01*
X135380952Y-125142857D01*
X135523809Y-125142857D01*
X135714285Y-125190476D01*
X135809523Y-125238095D01*
X135904761Y-125333333D01*
X135952380Y-125476190D01*
X135952380Y-125714285D01*
X135952380Y-124190476D02*
X135952380Y-124761904D01*
X135952380Y-124476190D02*
X134952380Y-124476190D01*
X135095238Y-124571428D01*
X135190476Y-124666666D01*
X135238095Y-124761904D01*
X134952380Y-123571428D02*
X134952380Y-123476190D01*
X135000000Y-123380952D01*
X135047619Y-123333333D01*
X135142857Y-123285714D01*
X135333333Y-123238095D01*
X135571428Y-123238095D01*
X135761904Y-123285714D01*
X135857142Y-123333333D01*
X135904761Y-123380952D01*
X135952380Y-123476190D01*
X135952380Y-123571428D01*
X135904761Y-123666666D01*
X135857142Y-123714285D01*
X135761904Y-123761904D01*
X135571428Y-123809523D01*
X135333333Y-123809523D01*
X135142857Y-123761904D01*
X135047619Y-123714285D01*
X135000000Y-123666666D01*
X134952380Y-123571428D01*
X137952380Y-119261904D02*
X136952380Y-119261904D01*
X137952380Y-118690476D02*
X137380952Y-119119047D01*
X136952380Y-118690476D02*
X137523809Y-119261904D01*
X152261904Y-116952380D02*
X152261904Y-115952380D01*
X152500000Y-115952380D01*
X152642857Y-116000000D01*
X152738095Y-116095238D01*
X152785714Y-116190476D01*
X152833333Y-116380952D01*
X152833333Y-116523809D01*
X152785714Y-116714285D01*
X152738095Y-116809523D01*
X152642857Y-116904761D01*
X152500000Y-116952380D01*
X152261904Y-116952380D01*
X153309523Y-116952380D02*
X153500000Y-116952380D01*
X153595238Y-116904761D01*
X153642857Y-116857142D01*
X153738095Y-116714285D01*
X153785714Y-116523809D01*
X153785714Y-116142857D01*
X153738095Y-116047619D01*
X153690476Y-116000000D01*
X153595238Y-115952380D01*
X153404761Y-115952380D01*
X153309523Y-116000000D01*
X153261904Y-116047619D01*
X153214285Y-116142857D01*
X153214285Y-116380952D01*
X153261904Y-116476190D01*
X153309523Y-116523809D01*
X153404761Y-116571428D01*
X153595238Y-116571428D01*
X153690476Y-116523809D01*
X153738095Y-116476190D01*
X153785714Y-116380952D01*
X163261904Y-82952380D02*
X163261904Y-81952380D01*
X163500000Y-81952380D01*
X163642857Y-82000000D01*
X163738095Y-82095238D01*
X163785714Y-82190476D01*
X163833333Y-82380952D01*
X163833333Y-82523809D01*
X163785714Y-82714285D01*
X163738095Y-82809523D01*
X163642857Y-82904761D01*
X163500000Y-82952380D01*
X163261904Y-82952380D01*
X164404761Y-82380952D02*
X164309523Y-82333333D01*
X164261904Y-82285714D01*
X164214285Y-82190476D01*
X164214285Y-82142857D01*
X164261904Y-82047619D01*
X164309523Y-82000000D01*
X164404761Y-81952380D01*
X164595238Y-81952380D01*
X164690476Y-82000000D01*
X164738095Y-82047619D01*
X164785714Y-82142857D01*
X164785714Y-82190476D01*
X164738095Y-82285714D01*
X164690476Y-82333333D01*
X164595238Y-82380952D01*
X164404761Y-82380952D01*
X164309523Y-82428571D01*
X164261904Y-82476190D01*
X164214285Y-82571428D01*
X164214285Y-82761904D01*
X164261904Y-82857142D01*
X164309523Y-82904761D01*
X164404761Y-82952380D01*
X164595238Y-82952380D01*
X164690476Y-82904761D01*
X164738095Y-82857142D01*
X164785714Y-82761904D01*
X164785714Y-82571428D01*
X164738095Y-82476190D01*
X164690476Y-82428571D01*
X164595238Y-82380952D01*
X167738095Y-84752380D02*
X167738095Y-83752380D01*
X168309523Y-84752380D02*
X167880952Y-84180952D01*
X168309523Y-83752380D02*
X167738095Y-84323809D01*
X116011904Y-67202380D02*
X116011904Y-66202380D01*
X116250000Y-66202380D01*
X116392857Y-66250000D01*
X116488095Y-66345238D01*
X116535714Y-66440476D01*
X116583333Y-66630952D01*
X116583333Y-66773809D01*
X116535714Y-66964285D01*
X116488095Y-67059523D01*
X116392857Y-67154761D01*
X116250000Y-67202380D01*
X116011904Y-67202380D01*
X116916666Y-66202380D02*
X117583333Y-66202380D01*
X117154761Y-67202380D01*
X136833333Y-114357142D02*
X136785714Y-114404761D01*
X136642857Y-114452380D01*
X136547619Y-114452380D01*
X136404761Y-114404761D01*
X136309523Y-114309523D01*
X136261904Y-114214285D01*
X136214285Y-114023809D01*
X136214285Y-113880952D01*
X136261904Y-113690476D01*
X136309523Y-113595238D01*
X136404761Y-113500000D01*
X136547619Y-113452380D01*
X136642857Y-113452380D01*
X136785714Y-113500000D01*
X136833333Y-113547619D01*
X137690476Y-113452380D02*
X137500000Y-113452380D01*
X137404761Y-113500000D01*
X137357142Y-113547619D01*
X137261904Y-113690476D01*
X137214285Y-113880952D01*
X137214285Y-114261904D01*
X137261904Y-114357142D01*
X137309523Y-114404761D01*
X137404761Y-114452380D01*
X137595238Y-114452380D01*
X137690476Y-114404761D01*
X137738095Y-114357142D01*
X137785714Y-114261904D01*
X137785714Y-114023809D01*
X137738095Y-113928571D01*
X137690476Y-113880952D01*
X137595238Y-113833333D01*
X137404761Y-113833333D01*
X137309523Y-113880952D01*
X137261904Y-113928571D01*
X137214285Y-114023809D01*
X136833333Y-111357142D02*
X136785714Y-111404761D01*
X136642857Y-111452380D01*
X136547619Y-111452380D01*
X136404761Y-111404761D01*
X136309523Y-111309523D01*
X136261904Y-111214285D01*
X136214285Y-111023809D01*
X136214285Y-110880952D01*
X136261904Y-110690476D01*
X136309523Y-110595238D01*
X136404761Y-110500000D01*
X136547619Y-110452380D01*
X136642857Y-110452380D01*
X136785714Y-110500000D01*
X136833333Y-110547619D01*
X137738095Y-110452380D02*
X137261904Y-110452380D01*
X137214285Y-110928571D01*
X137261904Y-110880952D01*
X137357142Y-110833333D01*
X137595238Y-110833333D01*
X137690476Y-110880952D01*
X137738095Y-110928571D01*
X137785714Y-111023809D01*
X137785714Y-111261904D01*
X137738095Y-111357142D01*
X137690476Y-111404761D01*
X137595238Y-111452380D01*
X137357142Y-111452380D01*
X137261904Y-111404761D01*
X137214285Y-111357142D01*
X129333333Y-114357142D02*
X129285714Y-114404761D01*
X129142857Y-114452380D01*
X129047619Y-114452380D01*
X128904761Y-114404761D01*
X128809523Y-114309523D01*
X128761904Y-114214285D01*
X128714285Y-114023809D01*
X128714285Y-113880952D01*
X128761904Y-113690476D01*
X128809523Y-113595238D01*
X128904761Y-113500000D01*
X129047619Y-113452380D01*
X129142857Y-113452380D01*
X129285714Y-113500000D01*
X129333333Y-113547619D01*
X130190476Y-113785714D02*
X130190476Y-114452380D01*
X129952380Y-113404761D02*
X129714285Y-114119047D01*
X130333333Y-114119047D01*
X129333333Y-111357142D02*
X129285714Y-111404761D01*
X129142857Y-111452380D01*
X129047619Y-111452380D01*
X128904761Y-111404761D01*
X128809523Y-111309523D01*
X128761904Y-111214285D01*
X128714285Y-111023809D01*
X128714285Y-110880952D01*
X128761904Y-110690476D01*
X128809523Y-110595238D01*
X128904761Y-110500000D01*
X129047619Y-110452380D01*
X129142857Y-110452380D01*
X129285714Y-110500000D01*
X129333333Y-110547619D01*
X129666666Y-110452380D02*
X130285714Y-110452380D01*
X129952380Y-110833333D01*
X130095238Y-110833333D01*
X130190476Y-110880952D01*
X130238095Y-110928571D01*
X130285714Y-111023809D01*
X130285714Y-111261904D01*
X130238095Y-111357142D01*
X130190476Y-111404761D01*
X130095238Y-111452380D01*
X129809523Y-111452380D01*
X129714285Y-111404761D01*
X129666666Y-111357142D01*
X128833333Y-66857142D02*
X128785714Y-66904761D01*
X128642857Y-66952380D01*
X128547619Y-66952380D01*
X128404761Y-66904761D01*
X128309523Y-66809523D01*
X128261904Y-66714285D01*
X128214285Y-66523809D01*
X128214285Y-66380952D01*
X128261904Y-66190476D01*
X128309523Y-66095238D01*
X128404761Y-66000000D01*
X128547619Y-65952380D01*
X128642857Y-65952380D01*
X128785714Y-66000000D01*
X128833333Y-66047619D01*
X129214285Y-66047619D02*
X129261904Y-66000000D01*
X129357142Y-65952380D01*
X129595238Y-65952380D01*
X129690476Y-66000000D01*
X129738095Y-66047619D01*
X129785714Y-66142857D01*
X129785714Y-66238095D01*
X129738095Y-66380952D01*
X129166666Y-66952380D01*
X129785714Y-66952380D01*
X122833333Y-66857142D02*
X122785714Y-66904761D01*
X122642857Y-66952380D01*
X122547619Y-66952380D01*
X122404761Y-66904761D01*
X122309523Y-66809523D01*
X122261904Y-66714285D01*
X122214285Y-66523809D01*
X122214285Y-66380952D01*
X122261904Y-66190476D01*
X122309523Y-66095238D01*
X122404761Y-66000000D01*
X122547619Y-65952380D01*
X122642857Y-65952380D01*
X122785714Y-66000000D01*
X122833333Y-66047619D01*
X123785714Y-66952380D02*
X123214285Y-66952380D01*
X123500000Y-66952380D02*
X123500000Y-65952380D01*
X123404761Y-66095238D01*
X123309523Y-66190476D01*
X123214285Y-66238095D01*
X151119047Y-72428571D02*
X151261904Y-72476190D01*
X151309523Y-72523809D01*
X151357142Y-72619047D01*
X151357142Y-72761904D01*
X151309523Y-72857142D01*
X151261904Y-72904761D01*
X151166666Y-72952380D01*
X150785714Y-72952380D01*
X150785714Y-71952380D01*
X151119047Y-71952380D01*
X151214285Y-72000000D01*
X151261904Y-72047619D01*
X151309523Y-72142857D01*
X151309523Y-72238095D01*
X151261904Y-72333333D01*
X151214285Y-72380952D01*
X151119047Y-72428571D01*
X150785714Y-72428571D01*
X151690476Y-71952380D02*
X152357142Y-71952380D01*
X151690476Y-72952380D01*
X152357142Y-72952380D01*
X153261904Y-72952380D02*
X152690476Y-72952380D01*
X152976190Y-72952380D02*
X152976190Y-71952380D01*
X152880952Y-72095238D01*
X152785714Y-72190476D01*
X152690476Y-72238095D01*
X147609047Y-70531428D02*
X148370952Y-70531428D01*
X147990000Y-70912380D02*
X147990000Y-70150476D01*
M02*
