G04 #@! TF.GenerationSoftware,KiCad,Pcbnew,(5.1.4)-1*
G04 #@! TF.CreationDate,2021-08-27T17:13:54-03:00*
G04 #@! TF.ProjectId,INYECTORES,494e5945-4354-44f5-9245-532e6b696361,rev?*
G04 #@! TF.SameCoordinates,Original*
G04 #@! TF.FileFunction,Paste,Top*
G04 #@! TF.FilePolarity,Positive*
%FSLAX46Y46*%
G04 Gerber Fmt 4.6, Leading zero omitted, Abs format (unit mm)*
G04 Created by KiCad (PCBNEW (5.1.4)-1) date 2021-08-27 17:13:54*
%MOMM*%
%LPD*%
G04 APERTURE LIST*
%ADD10C,0.100000*%
%ADD11C,0.975000*%
G04 APERTURE END LIST*
D10*
G36*
X152205142Y-95301174D02*
G01*
X152228803Y-95304684D01*
X152252007Y-95310496D01*
X152274529Y-95318554D01*
X152296153Y-95328782D01*
X152316670Y-95341079D01*
X152335883Y-95355329D01*
X152353607Y-95371393D01*
X152369671Y-95389117D01*
X152383921Y-95408330D01*
X152396218Y-95428847D01*
X152406446Y-95450471D01*
X152414504Y-95472993D01*
X152420316Y-95496197D01*
X152423826Y-95519858D01*
X152425000Y-95543750D01*
X152425000Y-96456250D01*
X152423826Y-96480142D01*
X152420316Y-96503803D01*
X152414504Y-96527007D01*
X152406446Y-96549529D01*
X152396218Y-96571153D01*
X152383921Y-96591670D01*
X152369671Y-96610883D01*
X152353607Y-96628607D01*
X152335883Y-96644671D01*
X152316670Y-96658921D01*
X152296153Y-96671218D01*
X152274529Y-96681446D01*
X152252007Y-96689504D01*
X152228803Y-96695316D01*
X152205142Y-96698826D01*
X152181250Y-96700000D01*
X151693750Y-96700000D01*
X151669858Y-96698826D01*
X151646197Y-96695316D01*
X151622993Y-96689504D01*
X151600471Y-96681446D01*
X151578847Y-96671218D01*
X151558330Y-96658921D01*
X151539117Y-96644671D01*
X151521393Y-96628607D01*
X151505329Y-96610883D01*
X151491079Y-96591670D01*
X151478782Y-96571153D01*
X151468554Y-96549529D01*
X151460496Y-96527007D01*
X151454684Y-96503803D01*
X151451174Y-96480142D01*
X151450000Y-96456250D01*
X151450000Y-95543750D01*
X151451174Y-95519858D01*
X151454684Y-95496197D01*
X151460496Y-95472993D01*
X151468554Y-95450471D01*
X151478782Y-95428847D01*
X151491079Y-95408330D01*
X151505329Y-95389117D01*
X151521393Y-95371393D01*
X151539117Y-95355329D01*
X151558330Y-95341079D01*
X151578847Y-95328782D01*
X151600471Y-95318554D01*
X151622993Y-95310496D01*
X151646197Y-95304684D01*
X151669858Y-95301174D01*
X151693750Y-95300000D01*
X152181250Y-95300000D01*
X152205142Y-95301174D01*
X152205142Y-95301174D01*
G37*
D11*
X151937500Y-96000000D03*
D10*
G36*
X150330142Y-95301174D02*
G01*
X150353803Y-95304684D01*
X150377007Y-95310496D01*
X150399529Y-95318554D01*
X150421153Y-95328782D01*
X150441670Y-95341079D01*
X150460883Y-95355329D01*
X150478607Y-95371393D01*
X150494671Y-95389117D01*
X150508921Y-95408330D01*
X150521218Y-95428847D01*
X150531446Y-95450471D01*
X150539504Y-95472993D01*
X150545316Y-95496197D01*
X150548826Y-95519858D01*
X150550000Y-95543750D01*
X150550000Y-96456250D01*
X150548826Y-96480142D01*
X150545316Y-96503803D01*
X150539504Y-96527007D01*
X150531446Y-96549529D01*
X150521218Y-96571153D01*
X150508921Y-96591670D01*
X150494671Y-96610883D01*
X150478607Y-96628607D01*
X150460883Y-96644671D01*
X150441670Y-96658921D01*
X150421153Y-96671218D01*
X150399529Y-96681446D01*
X150377007Y-96689504D01*
X150353803Y-96695316D01*
X150330142Y-96698826D01*
X150306250Y-96700000D01*
X149818750Y-96700000D01*
X149794858Y-96698826D01*
X149771197Y-96695316D01*
X149747993Y-96689504D01*
X149725471Y-96681446D01*
X149703847Y-96671218D01*
X149683330Y-96658921D01*
X149664117Y-96644671D01*
X149646393Y-96628607D01*
X149630329Y-96610883D01*
X149616079Y-96591670D01*
X149603782Y-96571153D01*
X149593554Y-96549529D01*
X149585496Y-96527007D01*
X149579684Y-96503803D01*
X149576174Y-96480142D01*
X149575000Y-96456250D01*
X149575000Y-95543750D01*
X149576174Y-95519858D01*
X149579684Y-95496197D01*
X149585496Y-95472993D01*
X149593554Y-95450471D01*
X149603782Y-95428847D01*
X149616079Y-95408330D01*
X149630329Y-95389117D01*
X149646393Y-95371393D01*
X149664117Y-95355329D01*
X149683330Y-95341079D01*
X149703847Y-95328782D01*
X149725471Y-95318554D01*
X149747993Y-95310496D01*
X149771197Y-95304684D01*
X149794858Y-95301174D01*
X149818750Y-95300000D01*
X150306250Y-95300000D01*
X150330142Y-95301174D01*
X150330142Y-95301174D01*
G37*
D11*
X150062500Y-96000000D03*
D10*
G36*
X148705142Y-95301174D02*
G01*
X148728803Y-95304684D01*
X148752007Y-95310496D01*
X148774529Y-95318554D01*
X148796153Y-95328782D01*
X148816670Y-95341079D01*
X148835883Y-95355329D01*
X148853607Y-95371393D01*
X148869671Y-95389117D01*
X148883921Y-95408330D01*
X148896218Y-95428847D01*
X148906446Y-95450471D01*
X148914504Y-95472993D01*
X148920316Y-95496197D01*
X148923826Y-95519858D01*
X148925000Y-95543750D01*
X148925000Y-96456250D01*
X148923826Y-96480142D01*
X148920316Y-96503803D01*
X148914504Y-96527007D01*
X148906446Y-96549529D01*
X148896218Y-96571153D01*
X148883921Y-96591670D01*
X148869671Y-96610883D01*
X148853607Y-96628607D01*
X148835883Y-96644671D01*
X148816670Y-96658921D01*
X148796153Y-96671218D01*
X148774529Y-96681446D01*
X148752007Y-96689504D01*
X148728803Y-96695316D01*
X148705142Y-96698826D01*
X148681250Y-96700000D01*
X148193750Y-96700000D01*
X148169858Y-96698826D01*
X148146197Y-96695316D01*
X148122993Y-96689504D01*
X148100471Y-96681446D01*
X148078847Y-96671218D01*
X148058330Y-96658921D01*
X148039117Y-96644671D01*
X148021393Y-96628607D01*
X148005329Y-96610883D01*
X147991079Y-96591670D01*
X147978782Y-96571153D01*
X147968554Y-96549529D01*
X147960496Y-96527007D01*
X147954684Y-96503803D01*
X147951174Y-96480142D01*
X147950000Y-96456250D01*
X147950000Y-95543750D01*
X147951174Y-95519858D01*
X147954684Y-95496197D01*
X147960496Y-95472993D01*
X147968554Y-95450471D01*
X147978782Y-95428847D01*
X147991079Y-95408330D01*
X148005329Y-95389117D01*
X148021393Y-95371393D01*
X148039117Y-95355329D01*
X148058330Y-95341079D01*
X148078847Y-95328782D01*
X148100471Y-95318554D01*
X148122993Y-95310496D01*
X148146197Y-95304684D01*
X148169858Y-95301174D01*
X148193750Y-95300000D01*
X148681250Y-95300000D01*
X148705142Y-95301174D01*
X148705142Y-95301174D01*
G37*
D11*
X148437500Y-96000000D03*
D10*
G36*
X146830142Y-95301174D02*
G01*
X146853803Y-95304684D01*
X146877007Y-95310496D01*
X146899529Y-95318554D01*
X146921153Y-95328782D01*
X146941670Y-95341079D01*
X146960883Y-95355329D01*
X146978607Y-95371393D01*
X146994671Y-95389117D01*
X147008921Y-95408330D01*
X147021218Y-95428847D01*
X147031446Y-95450471D01*
X147039504Y-95472993D01*
X147045316Y-95496197D01*
X147048826Y-95519858D01*
X147050000Y-95543750D01*
X147050000Y-96456250D01*
X147048826Y-96480142D01*
X147045316Y-96503803D01*
X147039504Y-96527007D01*
X147031446Y-96549529D01*
X147021218Y-96571153D01*
X147008921Y-96591670D01*
X146994671Y-96610883D01*
X146978607Y-96628607D01*
X146960883Y-96644671D01*
X146941670Y-96658921D01*
X146921153Y-96671218D01*
X146899529Y-96681446D01*
X146877007Y-96689504D01*
X146853803Y-96695316D01*
X146830142Y-96698826D01*
X146806250Y-96700000D01*
X146318750Y-96700000D01*
X146294858Y-96698826D01*
X146271197Y-96695316D01*
X146247993Y-96689504D01*
X146225471Y-96681446D01*
X146203847Y-96671218D01*
X146183330Y-96658921D01*
X146164117Y-96644671D01*
X146146393Y-96628607D01*
X146130329Y-96610883D01*
X146116079Y-96591670D01*
X146103782Y-96571153D01*
X146093554Y-96549529D01*
X146085496Y-96527007D01*
X146079684Y-96503803D01*
X146076174Y-96480142D01*
X146075000Y-96456250D01*
X146075000Y-95543750D01*
X146076174Y-95519858D01*
X146079684Y-95496197D01*
X146085496Y-95472993D01*
X146093554Y-95450471D01*
X146103782Y-95428847D01*
X146116079Y-95408330D01*
X146130329Y-95389117D01*
X146146393Y-95371393D01*
X146164117Y-95355329D01*
X146183330Y-95341079D01*
X146203847Y-95328782D01*
X146225471Y-95318554D01*
X146247993Y-95310496D01*
X146271197Y-95304684D01*
X146294858Y-95301174D01*
X146318750Y-95300000D01*
X146806250Y-95300000D01*
X146830142Y-95301174D01*
X146830142Y-95301174D01*
G37*
D11*
X146562500Y-96000000D03*
D10*
G36*
X138205142Y-95301174D02*
G01*
X138228803Y-95304684D01*
X138252007Y-95310496D01*
X138274529Y-95318554D01*
X138296153Y-95328782D01*
X138316670Y-95341079D01*
X138335883Y-95355329D01*
X138353607Y-95371393D01*
X138369671Y-95389117D01*
X138383921Y-95408330D01*
X138396218Y-95428847D01*
X138406446Y-95450471D01*
X138414504Y-95472993D01*
X138420316Y-95496197D01*
X138423826Y-95519858D01*
X138425000Y-95543750D01*
X138425000Y-96456250D01*
X138423826Y-96480142D01*
X138420316Y-96503803D01*
X138414504Y-96527007D01*
X138406446Y-96549529D01*
X138396218Y-96571153D01*
X138383921Y-96591670D01*
X138369671Y-96610883D01*
X138353607Y-96628607D01*
X138335883Y-96644671D01*
X138316670Y-96658921D01*
X138296153Y-96671218D01*
X138274529Y-96681446D01*
X138252007Y-96689504D01*
X138228803Y-96695316D01*
X138205142Y-96698826D01*
X138181250Y-96700000D01*
X137693750Y-96700000D01*
X137669858Y-96698826D01*
X137646197Y-96695316D01*
X137622993Y-96689504D01*
X137600471Y-96681446D01*
X137578847Y-96671218D01*
X137558330Y-96658921D01*
X137539117Y-96644671D01*
X137521393Y-96628607D01*
X137505329Y-96610883D01*
X137491079Y-96591670D01*
X137478782Y-96571153D01*
X137468554Y-96549529D01*
X137460496Y-96527007D01*
X137454684Y-96503803D01*
X137451174Y-96480142D01*
X137450000Y-96456250D01*
X137450000Y-95543750D01*
X137451174Y-95519858D01*
X137454684Y-95496197D01*
X137460496Y-95472993D01*
X137468554Y-95450471D01*
X137478782Y-95428847D01*
X137491079Y-95408330D01*
X137505329Y-95389117D01*
X137521393Y-95371393D01*
X137539117Y-95355329D01*
X137558330Y-95341079D01*
X137578847Y-95328782D01*
X137600471Y-95318554D01*
X137622993Y-95310496D01*
X137646197Y-95304684D01*
X137669858Y-95301174D01*
X137693750Y-95300000D01*
X138181250Y-95300000D01*
X138205142Y-95301174D01*
X138205142Y-95301174D01*
G37*
D11*
X137937500Y-96000000D03*
D10*
G36*
X136330142Y-95301174D02*
G01*
X136353803Y-95304684D01*
X136377007Y-95310496D01*
X136399529Y-95318554D01*
X136421153Y-95328782D01*
X136441670Y-95341079D01*
X136460883Y-95355329D01*
X136478607Y-95371393D01*
X136494671Y-95389117D01*
X136508921Y-95408330D01*
X136521218Y-95428847D01*
X136531446Y-95450471D01*
X136539504Y-95472993D01*
X136545316Y-95496197D01*
X136548826Y-95519858D01*
X136550000Y-95543750D01*
X136550000Y-96456250D01*
X136548826Y-96480142D01*
X136545316Y-96503803D01*
X136539504Y-96527007D01*
X136531446Y-96549529D01*
X136521218Y-96571153D01*
X136508921Y-96591670D01*
X136494671Y-96610883D01*
X136478607Y-96628607D01*
X136460883Y-96644671D01*
X136441670Y-96658921D01*
X136421153Y-96671218D01*
X136399529Y-96681446D01*
X136377007Y-96689504D01*
X136353803Y-96695316D01*
X136330142Y-96698826D01*
X136306250Y-96700000D01*
X135818750Y-96700000D01*
X135794858Y-96698826D01*
X135771197Y-96695316D01*
X135747993Y-96689504D01*
X135725471Y-96681446D01*
X135703847Y-96671218D01*
X135683330Y-96658921D01*
X135664117Y-96644671D01*
X135646393Y-96628607D01*
X135630329Y-96610883D01*
X135616079Y-96591670D01*
X135603782Y-96571153D01*
X135593554Y-96549529D01*
X135585496Y-96527007D01*
X135579684Y-96503803D01*
X135576174Y-96480142D01*
X135575000Y-96456250D01*
X135575000Y-95543750D01*
X135576174Y-95519858D01*
X135579684Y-95496197D01*
X135585496Y-95472993D01*
X135593554Y-95450471D01*
X135603782Y-95428847D01*
X135616079Y-95408330D01*
X135630329Y-95389117D01*
X135646393Y-95371393D01*
X135664117Y-95355329D01*
X135683330Y-95341079D01*
X135703847Y-95328782D01*
X135725471Y-95318554D01*
X135747993Y-95310496D01*
X135771197Y-95304684D01*
X135794858Y-95301174D01*
X135818750Y-95300000D01*
X136306250Y-95300000D01*
X136330142Y-95301174D01*
X136330142Y-95301174D01*
G37*
D11*
X136062500Y-96000000D03*
D10*
G36*
X145205142Y-95301174D02*
G01*
X145228803Y-95304684D01*
X145252007Y-95310496D01*
X145274529Y-95318554D01*
X145296153Y-95328782D01*
X145316670Y-95341079D01*
X145335883Y-95355329D01*
X145353607Y-95371393D01*
X145369671Y-95389117D01*
X145383921Y-95408330D01*
X145396218Y-95428847D01*
X145406446Y-95450471D01*
X145414504Y-95472993D01*
X145420316Y-95496197D01*
X145423826Y-95519858D01*
X145425000Y-95543750D01*
X145425000Y-96456250D01*
X145423826Y-96480142D01*
X145420316Y-96503803D01*
X145414504Y-96527007D01*
X145406446Y-96549529D01*
X145396218Y-96571153D01*
X145383921Y-96591670D01*
X145369671Y-96610883D01*
X145353607Y-96628607D01*
X145335883Y-96644671D01*
X145316670Y-96658921D01*
X145296153Y-96671218D01*
X145274529Y-96681446D01*
X145252007Y-96689504D01*
X145228803Y-96695316D01*
X145205142Y-96698826D01*
X145181250Y-96700000D01*
X144693750Y-96700000D01*
X144669858Y-96698826D01*
X144646197Y-96695316D01*
X144622993Y-96689504D01*
X144600471Y-96681446D01*
X144578847Y-96671218D01*
X144558330Y-96658921D01*
X144539117Y-96644671D01*
X144521393Y-96628607D01*
X144505329Y-96610883D01*
X144491079Y-96591670D01*
X144478782Y-96571153D01*
X144468554Y-96549529D01*
X144460496Y-96527007D01*
X144454684Y-96503803D01*
X144451174Y-96480142D01*
X144450000Y-96456250D01*
X144450000Y-95543750D01*
X144451174Y-95519858D01*
X144454684Y-95496197D01*
X144460496Y-95472993D01*
X144468554Y-95450471D01*
X144478782Y-95428847D01*
X144491079Y-95408330D01*
X144505329Y-95389117D01*
X144521393Y-95371393D01*
X144539117Y-95355329D01*
X144558330Y-95341079D01*
X144578847Y-95328782D01*
X144600471Y-95318554D01*
X144622993Y-95310496D01*
X144646197Y-95304684D01*
X144669858Y-95301174D01*
X144693750Y-95300000D01*
X145181250Y-95300000D01*
X145205142Y-95301174D01*
X145205142Y-95301174D01*
G37*
D11*
X144937500Y-96000000D03*
D10*
G36*
X143330142Y-95301174D02*
G01*
X143353803Y-95304684D01*
X143377007Y-95310496D01*
X143399529Y-95318554D01*
X143421153Y-95328782D01*
X143441670Y-95341079D01*
X143460883Y-95355329D01*
X143478607Y-95371393D01*
X143494671Y-95389117D01*
X143508921Y-95408330D01*
X143521218Y-95428847D01*
X143531446Y-95450471D01*
X143539504Y-95472993D01*
X143545316Y-95496197D01*
X143548826Y-95519858D01*
X143550000Y-95543750D01*
X143550000Y-96456250D01*
X143548826Y-96480142D01*
X143545316Y-96503803D01*
X143539504Y-96527007D01*
X143531446Y-96549529D01*
X143521218Y-96571153D01*
X143508921Y-96591670D01*
X143494671Y-96610883D01*
X143478607Y-96628607D01*
X143460883Y-96644671D01*
X143441670Y-96658921D01*
X143421153Y-96671218D01*
X143399529Y-96681446D01*
X143377007Y-96689504D01*
X143353803Y-96695316D01*
X143330142Y-96698826D01*
X143306250Y-96700000D01*
X142818750Y-96700000D01*
X142794858Y-96698826D01*
X142771197Y-96695316D01*
X142747993Y-96689504D01*
X142725471Y-96681446D01*
X142703847Y-96671218D01*
X142683330Y-96658921D01*
X142664117Y-96644671D01*
X142646393Y-96628607D01*
X142630329Y-96610883D01*
X142616079Y-96591670D01*
X142603782Y-96571153D01*
X142593554Y-96549529D01*
X142585496Y-96527007D01*
X142579684Y-96503803D01*
X142576174Y-96480142D01*
X142575000Y-96456250D01*
X142575000Y-95543750D01*
X142576174Y-95519858D01*
X142579684Y-95496197D01*
X142585496Y-95472993D01*
X142593554Y-95450471D01*
X142603782Y-95428847D01*
X142616079Y-95408330D01*
X142630329Y-95389117D01*
X142646393Y-95371393D01*
X142664117Y-95355329D01*
X142683330Y-95341079D01*
X142703847Y-95328782D01*
X142725471Y-95318554D01*
X142747993Y-95310496D01*
X142771197Y-95304684D01*
X142794858Y-95301174D01*
X142818750Y-95300000D01*
X143306250Y-95300000D01*
X143330142Y-95301174D01*
X143330142Y-95301174D01*
G37*
D11*
X143062500Y-96000000D03*
D10*
G36*
X134705142Y-95301174D02*
G01*
X134728803Y-95304684D01*
X134752007Y-95310496D01*
X134774529Y-95318554D01*
X134796153Y-95328782D01*
X134816670Y-95341079D01*
X134835883Y-95355329D01*
X134853607Y-95371393D01*
X134869671Y-95389117D01*
X134883921Y-95408330D01*
X134896218Y-95428847D01*
X134906446Y-95450471D01*
X134914504Y-95472993D01*
X134920316Y-95496197D01*
X134923826Y-95519858D01*
X134925000Y-95543750D01*
X134925000Y-96456250D01*
X134923826Y-96480142D01*
X134920316Y-96503803D01*
X134914504Y-96527007D01*
X134906446Y-96549529D01*
X134896218Y-96571153D01*
X134883921Y-96591670D01*
X134869671Y-96610883D01*
X134853607Y-96628607D01*
X134835883Y-96644671D01*
X134816670Y-96658921D01*
X134796153Y-96671218D01*
X134774529Y-96681446D01*
X134752007Y-96689504D01*
X134728803Y-96695316D01*
X134705142Y-96698826D01*
X134681250Y-96700000D01*
X134193750Y-96700000D01*
X134169858Y-96698826D01*
X134146197Y-96695316D01*
X134122993Y-96689504D01*
X134100471Y-96681446D01*
X134078847Y-96671218D01*
X134058330Y-96658921D01*
X134039117Y-96644671D01*
X134021393Y-96628607D01*
X134005329Y-96610883D01*
X133991079Y-96591670D01*
X133978782Y-96571153D01*
X133968554Y-96549529D01*
X133960496Y-96527007D01*
X133954684Y-96503803D01*
X133951174Y-96480142D01*
X133950000Y-96456250D01*
X133950000Y-95543750D01*
X133951174Y-95519858D01*
X133954684Y-95496197D01*
X133960496Y-95472993D01*
X133968554Y-95450471D01*
X133978782Y-95428847D01*
X133991079Y-95408330D01*
X134005329Y-95389117D01*
X134021393Y-95371393D01*
X134039117Y-95355329D01*
X134058330Y-95341079D01*
X134078847Y-95328782D01*
X134100471Y-95318554D01*
X134122993Y-95310496D01*
X134146197Y-95304684D01*
X134169858Y-95301174D01*
X134193750Y-95300000D01*
X134681250Y-95300000D01*
X134705142Y-95301174D01*
X134705142Y-95301174D01*
G37*
D11*
X134437500Y-96000000D03*
D10*
G36*
X132830142Y-95301174D02*
G01*
X132853803Y-95304684D01*
X132877007Y-95310496D01*
X132899529Y-95318554D01*
X132921153Y-95328782D01*
X132941670Y-95341079D01*
X132960883Y-95355329D01*
X132978607Y-95371393D01*
X132994671Y-95389117D01*
X133008921Y-95408330D01*
X133021218Y-95428847D01*
X133031446Y-95450471D01*
X133039504Y-95472993D01*
X133045316Y-95496197D01*
X133048826Y-95519858D01*
X133050000Y-95543750D01*
X133050000Y-96456250D01*
X133048826Y-96480142D01*
X133045316Y-96503803D01*
X133039504Y-96527007D01*
X133031446Y-96549529D01*
X133021218Y-96571153D01*
X133008921Y-96591670D01*
X132994671Y-96610883D01*
X132978607Y-96628607D01*
X132960883Y-96644671D01*
X132941670Y-96658921D01*
X132921153Y-96671218D01*
X132899529Y-96681446D01*
X132877007Y-96689504D01*
X132853803Y-96695316D01*
X132830142Y-96698826D01*
X132806250Y-96700000D01*
X132318750Y-96700000D01*
X132294858Y-96698826D01*
X132271197Y-96695316D01*
X132247993Y-96689504D01*
X132225471Y-96681446D01*
X132203847Y-96671218D01*
X132183330Y-96658921D01*
X132164117Y-96644671D01*
X132146393Y-96628607D01*
X132130329Y-96610883D01*
X132116079Y-96591670D01*
X132103782Y-96571153D01*
X132093554Y-96549529D01*
X132085496Y-96527007D01*
X132079684Y-96503803D01*
X132076174Y-96480142D01*
X132075000Y-96456250D01*
X132075000Y-95543750D01*
X132076174Y-95519858D01*
X132079684Y-95496197D01*
X132085496Y-95472993D01*
X132093554Y-95450471D01*
X132103782Y-95428847D01*
X132116079Y-95408330D01*
X132130329Y-95389117D01*
X132146393Y-95371393D01*
X132164117Y-95355329D01*
X132183330Y-95341079D01*
X132203847Y-95328782D01*
X132225471Y-95318554D01*
X132247993Y-95310496D01*
X132271197Y-95304684D01*
X132294858Y-95301174D01*
X132318750Y-95300000D01*
X132806250Y-95300000D01*
X132830142Y-95301174D01*
X132830142Y-95301174D01*
G37*
D11*
X132562500Y-96000000D03*
D10*
G36*
X141705142Y-95301174D02*
G01*
X141728803Y-95304684D01*
X141752007Y-95310496D01*
X141774529Y-95318554D01*
X141796153Y-95328782D01*
X141816670Y-95341079D01*
X141835883Y-95355329D01*
X141853607Y-95371393D01*
X141869671Y-95389117D01*
X141883921Y-95408330D01*
X141896218Y-95428847D01*
X141906446Y-95450471D01*
X141914504Y-95472993D01*
X141920316Y-95496197D01*
X141923826Y-95519858D01*
X141925000Y-95543750D01*
X141925000Y-96456250D01*
X141923826Y-96480142D01*
X141920316Y-96503803D01*
X141914504Y-96527007D01*
X141906446Y-96549529D01*
X141896218Y-96571153D01*
X141883921Y-96591670D01*
X141869671Y-96610883D01*
X141853607Y-96628607D01*
X141835883Y-96644671D01*
X141816670Y-96658921D01*
X141796153Y-96671218D01*
X141774529Y-96681446D01*
X141752007Y-96689504D01*
X141728803Y-96695316D01*
X141705142Y-96698826D01*
X141681250Y-96700000D01*
X141193750Y-96700000D01*
X141169858Y-96698826D01*
X141146197Y-96695316D01*
X141122993Y-96689504D01*
X141100471Y-96681446D01*
X141078847Y-96671218D01*
X141058330Y-96658921D01*
X141039117Y-96644671D01*
X141021393Y-96628607D01*
X141005329Y-96610883D01*
X140991079Y-96591670D01*
X140978782Y-96571153D01*
X140968554Y-96549529D01*
X140960496Y-96527007D01*
X140954684Y-96503803D01*
X140951174Y-96480142D01*
X140950000Y-96456250D01*
X140950000Y-95543750D01*
X140951174Y-95519858D01*
X140954684Y-95496197D01*
X140960496Y-95472993D01*
X140968554Y-95450471D01*
X140978782Y-95428847D01*
X140991079Y-95408330D01*
X141005329Y-95389117D01*
X141021393Y-95371393D01*
X141039117Y-95355329D01*
X141058330Y-95341079D01*
X141078847Y-95328782D01*
X141100471Y-95318554D01*
X141122993Y-95310496D01*
X141146197Y-95304684D01*
X141169858Y-95301174D01*
X141193750Y-95300000D01*
X141681250Y-95300000D01*
X141705142Y-95301174D01*
X141705142Y-95301174D01*
G37*
D11*
X141437500Y-96000000D03*
D10*
G36*
X139830142Y-95301174D02*
G01*
X139853803Y-95304684D01*
X139877007Y-95310496D01*
X139899529Y-95318554D01*
X139921153Y-95328782D01*
X139941670Y-95341079D01*
X139960883Y-95355329D01*
X139978607Y-95371393D01*
X139994671Y-95389117D01*
X140008921Y-95408330D01*
X140021218Y-95428847D01*
X140031446Y-95450471D01*
X140039504Y-95472993D01*
X140045316Y-95496197D01*
X140048826Y-95519858D01*
X140050000Y-95543750D01*
X140050000Y-96456250D01*
X140048826Y-96480142D01*
X140045316Y-96503803D01*
X140039504Y-96527007D01*
X140031446Y-96549529D01*
X140021218Y-96571153D01*
X140008921Y-96591670D01*
X139994671Y-96610883D01*
X139978607Y-96628607D01*
X139960883Y-96644671D01*
X139941670Y-96658921D01*
X139921153Y-96671218D01*
X139899529Y-96681446D01*
X139877007Y-96689504D01*
X139853803Y-96695316D01*
X139830142Y-96698826D01*
X139806250Y-96700000D01*
X139318750Y-96700000D01*
X139294858Y-96698826D01*
X139271197Y-96695316D01*
X139247993Y-96689504D01*
X139225471Y-96681446D01*
X139203847Y-96671218D01*
X139183330Y-96658921D01*
X139164117Y-96644671D01*
X139146393Y-96628607D01*
X139130329Y-96610883D01*
X139116079Y-96591670D01*
X139103782Y-96571153D01*
X139093554Y-96549529D01*
X139085496Y-96527007D01*
X139079684Y-96503803D01*
X139076174Y-96480142D01*
X139075000Y-96456250D01*
X139075000Y-95543750D01*
X139076174Y-95519858D01*
X139079684Y-95496197D01*
X139085496Y-95472993D01*
X139093554Y-95450471D01*
X139103782Y-95428847D01*
X139116079Y-95408330D01*
X139130329Y-95389117D01*
X139146393Y-95371393D01*
X139164117Y-95355329D01*
X139183330Y-95341079D01*
X139203847Y-95328782D01*
X139225471Y-95318554D01*
X139247993Y-95310496D01*
X139271197Y-95304684D01*
X139294858Y-95301174D01*
X139318750Y-95300000D01*
X139806250Y-95300000D01*
X139830142Y-95301174D01*
X139830142Y-95301174D01*
G37*
D11*
X139562500Y-96000000D03*
M02*
