G04 #@! TF.GenerationSoftware,KiCad,Pcbnew,(5.1.4)-1*
G04 #@! TF.CreationDate,2021-08-27T17:13:55-03:00*
G04 #@! TF.ProjectId,INYECTORES,494e5945-4354-44f5-9245-532e6b696361,rev?*
G04 #@! TF.SameCoordinates,Original*
G04 #@! TF.FileFunction,Profile,NP*
%FSLAX46Y46*%
G04 Gerber Fmt 4.6, Leading zero omitted, Abs format (unit mm)*
G04 Created by KiCad (PCBNEW (5.1.4)-1) date 2021-08-27 17:13:55*
%MOMM*%
%LPD*%
G04 APERTURE LIST*
%ADD10C,0.050000*%
%ADD11C,0.100000*%
G04 APERTURE END LIST*
D10*
X101666666Y-150000000D02*
G75*
G03X101666666Y-150000000I-1666666J0D01*
G01*
X97500000Y-150000000D02*
X102500000Y-150000000D01*
X100000000Y-147500000D02*
X100000000Y-152500000D01*
X182250000Y-121000000D02*
X184250000Y-121000000D01*
X175750000Y-115000000D02*
X175750000Y-121000000D01*
X177750000Y-121000000D02*
X177750000Y-116000000D01*
X184250000Y-115000000D02*
X182250000Y-113000000D01*
X182250000Y-116000000D02*
X181500000Y-115250000D01*
X182250000Y-116000000D02*
X182250000Y-121000000D01*
X184250000Y-121000000D02*
X184250000Y-115000000D01*
X182250000Y-113000000D02*
X177750000Y-113000000D01*
X177750000Y-113000000D02*
X175750000Y-115000000D01*
X178500000Y-115250000D02*
X181500000Y-115250000D01*
X176000000Y-121000000D02*
X177750000Y-121000000D01*
X175750000Y-121000000D02*
X176000000Y-121000000D01*
X177750000Y-116000000D02*
X178500000Y-115250000D01*
X165750000Y-116000000D02*
X165000000Y-115250000D01*
X161250000Y-116000000D02*
X162000000Y-115250000D01*
X159250000Y-121000000D02*
X159500000Y-121000000D01*
X159250000Y-115000000D02*
X159250000Y-121000000D01*
X161250000Y-113000000D02*
X159250000Y-115000000D01*
X165750000Y-113000000D02*
X161250000Y-113000000D01*
X167750000Y-115000000D02*
X165750000Y-113000000D01*
X167750000Y-121000000D02*
X167750000Y-115000000D01*
X165750000Y-121000000D02*
X167750000Y-121000000D01*
X165750000Y-116000000D02*
X165750000Y-121000000D01*
X162000000Y-115250000D02*
X165000000Y-115250000D01*
X161250000Y-121000000D02*
X161250000Y-116000000D01*
X159500000Y-121000000D02*
X161250000Y-121000000D01*
X168625000Y-104225000D02*
G75*
G02X168625000Y-105475000I0J-625000D01*
G01*
X168625000Y-105475000D02*
X163625000Y-105475000D01*
X163625000Y-104225000D02*
X168625000Y-104225000D01*
X163625000Y-105475000D02*
G75*
G02X163625000Y-104225000I0J625000D01*
G01*
X161425000Y-104200000D02*
G75*
G02X161425000Y-105450000I0J-625000D01*
G01*
X161425000Y-105450000D02*
X156425000Y-105450000D01*
X156425000Y-104200000D02*
X161425000Y-104200000D01*
X156425000Y-105450000D02*
G75*
G02X156425000Y-104200000I0J625000D01*
G01*
X153725000Y-104200000D02*
G75*
G02X153725000Y-105450000I0J-625000D01*
G01*
X153725000Y-105450000D02*
X148725000Y-105450000D01*
X148725000Y-104200000D02*
X153725000Y-104200000D01*
X148725000Y-105450000D02*
G75*
G02X148725000Y-104200000I0J625000D01*
G01*
X146225000Y-104225000D02*
G75*
G02X146225000Y-105475000I0J-625000D01*
G01*
X146225000Y-105475000D02*
X141225000Y-105475000D01*
X141225000Y-104225000D02*
X146225000Y-104225000D01*
X141225000Y-105475000D02*
G75*
G02X141225000Y-104225000I0J625000D01*
G01*
X138725000Y-104225000D02*
G75*
G02X138725000Y-105475000I0J-625000D01*
G01*
X138725000Y-105475000D02*
X133725000Y-105475000D01*
X133725000Y-104225000D02*
X138725000Y-104225000D01*
X133725000Y-105475000D02*
G75*
G02X133725000Y-104225000I0J625000D01*
G01*
X126250000Y-105500000D02*
G75*
G02X126250000Y-104250000I0J625000D01*
G01*
X131250000Y-104250000D02*
G75*
G02X131250000Y-105500000I0J-625000D01*
G01*
X131250000Y-105500000D02*
X126250000Y-105500000D01*
X126250000Y-104250000D02*
X131250000Y-104250000D01*
X194000000Y-50000000D02*
G75*
G02X200000000Y-56000000I0J-6000000D01*
G01*
X200000000Y-144000000D02*
G75*
G02X194000000Y-150000000I-6000000J0D01*
G01*
X106000000Y-150000000D02*
G75*
G02X100000000Y-144000000I0J6000000D01*
G01*
X100000000Y-56000000D02*
G75*
G02X106000000Y-50000000I6000000J0D01*
G01*
D11*
X100000000Y-144000000D02*
X100000000Y-56000000D01*
X194000000Y-150000000D02*
X106000000Y-150000000D01*
X200000000Y-56000000D02*
X200000000Y-144000000D01*
X106000000Y-50000000D02*
X194000000Y-50000000D01*
M02*
