G04 #@! TF.GenerationSoftware,KiCad,Pcbnew,(5.1.4)-1*
G04 #@! TF.CreationDate,2021-08-27T17:13:55-03:00*
G04 #@! TF.ProjectId,INYECTORES,494e5945-4354-44f5-9245-532e6b696361,rev?*
G04 #@! TF.SameCoordinates,Original*
G04 #@! TF.FileFunction,Legend,Bot*
G04 #@! TF.FilePolarity,Positive*
%FSLAX46Y46*%
G04 Gerber Fmt 4.6, Leading zero omitted, Abs format (unit mm)*
G04 Created by KiCad (PCBNEW (5.1.4)-1) date 2021-08-27 17:13:55*
%MOMM*%
%LPD*%
G04 APERTURE LIST*
%ADD10C,0.010000*%
G04 APERTURE END LIST*
D10*
G36*
X172404571Y-83373553D02*
G01*
X172272963Y-83374891D01*
X171887333Y-83384195D01*
X171564369Y-83411834D01*
X171293064Y-83460773D01*
X171062410Y-83533975D01*
X170861400Y-83634407D01*
X170679027Y-83765033D01*
X170613888Y-83821775D01*
X170505834Y-83954544D01*
X170408400Y-84134709D01*
X170333304Y-84334412D01*
X170292264Y-84525797D01*
X170288000Y-84596519D01*
X170314722Y-84792565D01*
X170386331Y-85006709D01*
X170489997Y-85209403D01*
X170612887Y-85371099D01*
X170632848Y-85390608D01*
X170801928Y-85527737D01*
X170987083Y-85634782D01*
X171198987Y-85714550D01*
X171448314Y-85769844D01*
X171745740Y-85803469D01*
X172101938Y-85818231D01*
X172265093Y-85819482D01*
X172472539Y-85818483D01*
X172618425Y-85814307D01*
X172716438Y-85805181D01*
X172780264Y-85789337D01*
X172823591Y-85765003D01*
X172846815Y-85744223D01*
X172868751Y-85718979D01*
X172885959Y-85686413D01*
X172899010Y-85637801D01*
X172908477Y-85564420D01*
X172914932Y-85457546D01*
X172918947Y-85308454D01*
X172921093Y-85108421D01*
X172921943Y-84848723D01*
X172922074Y-84596519D01*
X172922903Y-84260138D01*
X172922724Y-83991422D01*
X172919523Y-83862741D01*
X172432889Y-83862741D01*
X172432889Y-85330297D01*
X172122445Y-85330012D01*
X171935643Y-85324655D01*
X171739996Y-85310853D01*
X171576760Y-85291548D01*
X171571794Y-85290752D01*
X171307971Y-85226967D01*
X171103341Y-85127625D01*
X170947684Y-84986260D01*
X170848783Y-84833203D01*
X170787844Y-84663419D01*
X170792569Y-84503999D01*
X170863292Y-84333111D01*
X171001629Y-84156329D01*
X171193327Y-84025332D01*
X171442499Y-83937771D01*
X171609025Y-83906783D01*
X171798054Y-83885022D01*
X171998397Y-83869272D01*
X172168796Y-83862724D01*
X172178889Y-83862693D01*
X172432889Y-83862741D01*
X172919523Y-83862741D01*
X172917534Y-83782838D01*
X172903327Y-83626851D01*
X172876100Y-83515927D01*
X172831852Y-83442532D01*
X172766578Y-83399131D01*
X172676276Y-83378190D01*
X172556941Y-83372176D01*
X172404571Y-83373553D01*
X172404571Y-83373553D01*
G37*
X172404571Y-83373553D02*
X172272963Y-83374891D01*
X171887333Y-83384195D01*
X171564369Y-83411834D01*
X171293064Y-83460773D01*
X171062410Y-83533975D01*
X170861400Y-83634407D01*
X170679027Y-83765033D01*
X170613888Y-83821775D01*
X170505834Y-83954544D01*
X170408400Y-84134709D01*
X170333304Y-84334412D01*
X170292264Y-84525797D01*
X170288000Y-84596519D01*
X170314722Y-84792565D01*
X170386331Y-85006709D01*
X170489997Y-85209403D01*
X170612887Y-85371099D01*
X170632848Y-85390608D01*
X170801928Y-85527737D01*
X170987083Y-85634782D01*
X171198987Y-85714550D01*
X171448314Y-85769844D01*
X171745740Y-85803469D01*
X172101938Y-85818231D01*
X172265093Y-85819482D01*
X172472539Y-85818483D01*
X172618425Y-85814307D01*
X172716438Y-85805181D01*
X172780264Y-85789337D01*
X172823591Y-85765003D01*
X172846815Y-85744223D01*
X172868751Y-85718979D01*
X172885959Y-85686413D01*
X172899010Y-85637801D01*
X172908477Y-85564420D01*
X172914932Y-85457546D01*
X172918947Y-85308454D01*
X172921093Y-85108421D01*
X172921943Y-84848723D01*
X172922074Y-84596519D01*
X172922903Y-84260138D01*
X172922724Y-83991422D01*
X172919523Y-83862741D01*
X172432889Y-83862741D01*
X172432889Y-85330297D01*
X172122445Y-85330012D01*
X171935643Y-85324655D01*
X171739996Y-85310853D01*
X171576760Y-85291548D01*
X171571794Y-85290752D01*
X171307971Y-85226967D01*
X171103341Y-85127625D01*
X170947684Y-84986260D01*
X170848783Y-84833203D01*
X170787844Y-84663419D01*
X170792569Y-84503999D01*
X170863292Y-84333111D01*
X171001629Y-84156329D01*
X171193327Y-84025332D01*
X171442499Y-83937771D01*
X171609025Y-83906783D01*
X171798054Y-83885022D01*
X171998397Y-83869272D01*
X172168796Y-83862724D01*
X172178889Y-83862693D01*
X172432889Y-83862741D01*
X172919523Y-83862741D01*
X172917534Y-83782838D01*
X172903327Y-83626851D01*
X172876100Y-83515927D01*
X172831852Y-83442532D01*
X172766578Y-83399131D01*
X172676276Y-83378190D01*
X172556941Y-83372176D01*
X172404571Y-83373553D01*
G36*
X167709314Y-83373821D02*
G01*
X167477952Y-83375062D01*
X167303321Y-83377949D01*
X167176157Y-83383153D01*
X167087197Y-83391344D01*
X167027176Y-83403191D01*
X166986831Y-83419366D01*
X166956898Y-83440537D01*
X166946059Y-83450281D01*
X166880142Y-83553808D01*
X166868272Y-83672762D01*
X166911635Y-83778367D01*
X166931686Y-83799710D01*
X166964117Y-83820404D01*
X167016335Y-83836368D01*
X167098025Y-83848379D01*
X167218869Y-83857215D01*
X167388551Y-83863651D01*
X167616754Y-83868464D01*
X167825389Y-83871394D01*
X168651112Y-83881556D01*
X168662397Y-84097926D01*
X168673682Y-84314297D01*
X168113192Y-84314297D01*
X167869862Y-84316396D01*
X167691722Y-84325177D01*
X167568758Y-84344364D01*
X167490959Y-84377681D01*
X167448313Y-84428854D01*
X167430807Y-84501605D01*
X167428149Y-84569126D01*
X167436411Y-84651974D01*
X167467590Y-84713021D01*
X167531276Y-84755457D01*
X167637059Y-84782471D01*
X167794529Y-84797255D01*
X168013276Y-84802997D01*
X168132670Y-84803482D01*
X168669926Y-84803482D01*
X168669926Y-85330297D01*
X167842074Y-85330297D01*
X167570710Y-85330675D01*
X167364472Y-85332372D01*
X167213228Y-85336233D01*
X167106846Y-85343101D01*
X167035196Y-85353822D01*
X166988144Y-85369239D01*
X166955559Y-85390196D01*
X166938963Y-85405556D01*
X166882033Y-85495202D01*
X166863704Y-85574889D01*
X166889876Y-85672225D01*
X166938963Y-85744223D01*
X166965152Y-85766888D01*
X166998959Y-85784488D01*
X167049479Y-85797660D01*
X167125804Y-85807043D01*
X167237029Y-85813274D01*
X167392248Y-85816992D01*
X167600556Y-85818836D01*
X167871045Y-85819442D01*
X168011408Y-85819482D01*
X168311992Y-85819216D01*
X168546412Y-85817993D01*
X168723762Y-85815174D01*
X168853134Y-85810122D01*
X168943624Y-85802198D01*
X169004325Y-85790764D01*
X169044332Y-85775182D01*
X169072738Y-85754813D01*
X169083852Y-85744223D01*
X169105849Y-85718900D01*
X169123090Y-85686232D01*
X169136152Y-85637463D01*
X169145613Y-85563840D01*
X169152050Y-85456607D01*
X169156040Y-85307011D01*
X169158161Y-85106296D01*
X169158990Y-84845710D01*
X169159112Y-84603078D01*
X169158999Y-84292357D01*
X169158218Y-84048103D01*
X169156100Y-83861527D01*
X169151978Y-83723836D01*
X169145186Y-83626240D01*
X169135056Y-83559947D01*
X169120921Y-83516166D01*
X169102115Y-83486107D01*
X169077969Y-83460978D01*
X169072020Y-83455375D01*
X169043151Y-83430572D01*
X169009607Y-83411365D01*
X168962083Y-83397039D01*
X168891276Y-83386879D01*
X168787879Y-83380171D01*
X168642590Y-83376199D01*
X168446103Y-83374251D01*
X168189114Y-83373610D01*
X168006671Y-83373556D01*
X167709314Y-83373821D01*
X167709314Y-83373821D01*
G37*
X167709314Y-83373821D02*
X167477952Y-83375062D01*
X167303321Y-83377949D01*
X167176157Y-83383153D01*
X167087197Y-83391344D01*
X167027176Y-83403191D01*
X166986831Y-83419366D01*
X166956898Y-83440537D01*
X166946059Y-83450281D01*
X166880142Y-83553808D01*
X166868272Y-83672762D01*
X166911635Y-83778367D01*
X166931686Y-83799710D01*
X166964117Y-83820404D01*
X167016335Y-83836368D01*
X167098025Y-83848379D01*
X167218869Y-83857215D01*
X167388551Y-83863651D01*
X167616754Y-83868464D01*
X167825389Y-83871394D01*
X168651112Y-83881556D01*
X168662397Y-84097926D01*
X168673682Y-84314297D01*
X168113192Y-84314297D01*
X167869862Y-84316396D01*
X167691722Y-84325177D01*
X167568758Y-84344364D01*
X167490959Y-84377681D01*
X167448313Y-84428854D01*
X167430807Y-84501605D01*
X167428149Y-84569126D01*
X167436411Y-84651974D01*
X167467590Y-84713021D01*
X167531276Y-84755457D01*
X167637059Y-84782471D01*
X167794529Y-84797255D01*
X168013276Y-84802997D01*
X168132670Y-84803482D01*
X168669926Y-84803482D01*
X168669926Y-85330297D01*
X167842074Y-85330297D01*
X167570710Y-85330675D01*
X167364472Y-85332372D01*
X167213228Y-85336233D01*
X167106846Y-85343101D01*
X167035196Y-85353822D01*
X166988144Y-85369239D01*
X166955559Y-85390196D01*
X166938963Y-85405556D01*
X166882033Y-85495202D01*
X166863704Y-85574889D01*
X166889876Y-85672225D01*
X166938963Y-85744223D01*
X166965152Y-85766888D01*
X166998959Y-85784488D01*
X167049479Y-85797660D01*
X167125804Y-85807043D01*
X167237029Y-85813274D01*
X167392248Y-85816992D01*
X167600556Y-85818836D01*
X167871045Y-85819442D01*
X168011408Y-85819482D01*
X168311992Y-85819216D01*
X168546412Y-85817993D01*
X168723762Y-85815174D01*
X168853134Y-85810122D01*
X168943624Y-85802198D01*
X169004325Y-85790764D01*
X169044332Y-85775182D01*
X169072738Y-85754813D01*
X169083852Y-85744223D01*
X169105849Y-85718900D01*
X169123090Y-85686232D01*
X169136152Y-85637463D01*
X169145613Y-85563840D01*
X169152050Y-85456607D01*
X169156040Y-85307011D01*
X169158161Y-85106296D01*
X169158990Y-84845710D01*
X169159112Y-84603078D01*
X169158999Y-84292357D01*
X169158218Y-84048103D01*
X169156100Y-83861527D01*
X169151978Y-83723836D01*
X169145186Y-83626240D01*
X169135056Y-83559947D01*
X169120921Y-83516166D01*
X169102115Y-83486107D01*
X169077969Y-83460978D01*
X169072020Y-83455375D01*
X169043151Y-83430572D01*
X169009607Y-83411365D01*
X168962083Y-83397039D01*
X168891276Y-83386879D01*
X168787879Y-83380171D01*
X168642590Y-83376199D01*
X168446103Y-83374251D01*
X168189114Y-83373610D01*
X168006671Y-83373556D01*
X167709314Y-83373821D01*
G36*
X164305675Y-83377837D02*
G01*
X164056292Y-83395271D01*
X163824353Y-83422501D01*
X163623339Y-83458500D01*
X163466734Y-83502244D01*
X163368019Y-83552709D01*
X163352867Y-83567563D01*
X163300178Y-83682834D01*
X163316155Y-83801172D01*
X163397879Y-83902418D01*
X163401778Y-83905319D01*
X163449847Y-83936515D01*
X163500026Y-83952919D01*
X163570017Y-83954911D01*
X163677523Y-83942872D01*
X163840244Y-83917182D01*
X163853334Y-83915018D01*
X164095796Y-83885231D01*
X164357390Y-83870538D01*
X164619756Y-83870395D01*
X164864536Y-83884263D01*
X165073370Y-83911598D01*
X165227900Y-83951858D01*
X165238054Y-83955904D01*
X165350160Y-84018716D01*
X165389547Y-84082282D01*
X165358713Y-84144798D01*
X165260155Y-84204458D01*
X165096370Y-84259456D01*
X164869855Y-84307986D01*
X164718815Y-84331352D01*
X164404852Y-84376296D01*
X164155145Y-84417381D01*
X163959056Y-84458165D01*
X163805948Y-84502204D01*
X163685184Y-84553058D01*
X163586127Y-84614282D01*
X163498140Y-84689435D01*
X163427434Y-84763236D01*
X163343550Y-84866064D01*
X163302268Y-84954483D01*
X163289358Y-85063422D01*
X163288889Y-85103318D01*
X163298586Y-85235706D01*
X163337339Y-85334198D01*
X163404410Y-85421619D01*
X163540720Y-85555252D01*
X163692722Y-85657164D01*
X163871708Y-85730677D01*
X164088974Y-85779116D01*
X164355814Y-85805803D01*
X164683522Y-85814062D01*
X164737630Y-85813922D01*
X164956162Y-85809392D01*
X165172885Y-85799099D01*
X165364174Y-85784521D01*
X165506405Y-85767133D01*
X165517908Y-85765136D01*
X165659320Y-85731638D01*
X165779265Y-85689321D01*
X165847167Y-85650635D01*
X165910357Y-85548572D01*
X165914756Y-85429726D01*
X165860283Y-85323813D01*
X165848095Y-85311836D01*
X165797718Y-85276253D01*
X165734715Y-85260921D01*
X165637207Y-85263530D01*
X165518836Y-85277091D01*
X165386567Y-85289206D01*
X165201149Y-85299427D01*
X164984687Y-85306844D01*
X164759283Y-85310547D01*
X164700000Y-85310792D01*
X164473758Y-85309879D01*
X164308181Y-85305487D01*
X164188700Y-85296091D01*
X164100746Y-85280167D01*
X164029751Y-85256191D01*
X163987087Y-85236223D01*
X163893334Y-85180776D01*
X163833560Y-85130560D01*
X163824824Y-85116325D01*
X163843254Y-85057544D01*
X163930867Y-85000640D01*
X164081592Y-84948195D01*
X164289358Y-84902793D01*
X164350571Y-84892679D01*
X164670300Y-84842461D01*
X164925471Y-84800486D01*
X165125932Y-84763705D01*
X165281533Y-84729066D01*
X165402122Y-84693520D01*
X165497548Y-84654016D01*
X165577661Y-84607505D01*
X165652308Y-84550937D01*
X165731339Y-84481260D01*
X165757933Y-84456831D01*
X165851175Y-84365663D01*
X165900532Y-84293430D01*
X165919841Y-84210773D01*
X165922963Y-84106610D01*
X165888584Y-83902350D01*
X165785839Y-83728801D01*
X165615317Y-83586526D01*
X165377609Y-83476084D01*
X165208000Y-83426547D01*
X165023665Y-83394553D01*
X164802844Y-83376453D01*
X164559020Y-83371223D01*
X164305675Y-83377837D01*
X164305675Y-83377837D01*
G37*
X164305675Y-83377837D02*
X164056292Y-83395271D01*
X163824353Y-83422501D01*
X163623339Y-83458500D01*
X163466734Y-83502244D01*
X163368019Y-83552709D01*
X163352867Y-83567563D01*
X163300178Y-83682834D01*
X163316155Y-83801172D01*
X163397879Y-83902418D01*
X163401778Y-83905319D01*
X163449847Y-83936515D01*
X163500026Y-83952919D01*
X163570017Y-83954911D01*
X163677523Y-83942872D01*
X163840244Y-83917182D01*
X163853334Y-83915018D01*
X164095796Y-83885231D01*
X164357390Y-83870538D01*
X164619756Y-83870395D01*
X164864536Y-83884263D01*
X165073370Y-83911598D01*
X165227900Y-83951858D01*
X165238054Y-83955904D01*
X165350160Y-84018716D01*
X165389547Y-84082282D01*
X165358713Y-84144798D01*
X165260155Y-84204458D01*
X165096370Y-84259456D01*
X164869855Y-84307986D01*
X164718815Y-84331352D01*
X164404852Y-84376296D01*
X164155145Y-84417381D01*
X163959056Y-84458165D01*
X163805948Y-84502204D01*
X163685184Y-84553058D01*
X163586127Y-84614282D01*
X163498140Y-84689435D01*
X163427434Y-84763236D01*
X163343550Y-84866064D01*
X163302268Y-84954483D01*
X163289358Y-85063422D01*
X163288889Y-85103318D01*
X163298586Y-85235706D01*
X163337339Y-85334198D01*
X163404410Y-85421619D01*
X163540720Y-85555252D01*
X163692722Y-85657164D01*
X163871708Y-85730677D01*
X164088974Y-85779116D01*
X164355814Y-85805803D01*
X164683522Y-85814062D01*
X164737630Y-85813922D01*
X164956162Y-85809392D01*
X165172885Y-85799099D01*
X165364174Y-85784521D01*
X165506405Y-85767133D01*
X165517908Y-85765136D01*
X165659320Y-85731638D01*
X165779265Y-85689321D01*
X165847167Y-85650635D01*
X165910357Y-85548572D01*
X165914756Y-85429726D01*
X165860283Y-85323813D01*
X165848095Y-85311836D01*
X165797718Y-85276253D01*
X165734715Y-85260921D01*
X165637207Y-85263530D01*
X165518836Y-85277091D01*
X165386567Y-85289206D01*
X165201149Y-85299427D01*
X164984687Y-85306844D01*
X164759283Y-85310547D01*
X164700000Y-85310792D01*
X164473758Y-85309879D01*
X164308181Y-85305487D01*
X164188700Y-85296091D01*
X164100746Y-85280167D01*
X164029751Y-85256191D01*
X163987087Y-85236223D01*
X163893334Y-85180776D01*
X163833560Y-85130560D01*
X163824824Y-85116325D01*
X163843254Y-85057544D01*
X163930867Y-85000640D01*
X164081592Y-84948195D01*
X164289358Y-84902793D01*
X164350571Y-84892679D01*
X164670300Y-84842461D01*
X164925471Y-84800486D01*
X165125932Y-84763705D01*
X165281533Y-84729066D01*
X165402122Y-84693520D01*
X165497548Y-84654016D01*
X165577661Y-84607505D01*
X165652308Y-84550937D01*
X165731339Y-84481260D01*
X165757933Y-84456831D01*
X165851175Y-84365663D01*
X165900532Y-84293430D01*
X165919841Y-84210773D01*
X165922963Y-84106610D01*
X165888584Y-83902350D01*
X165785839Y-83728801D01*
X165615317Y-83586526D01*
X165377609Y-83476084D01*
X165208000Y-83426547D01*
X165023665Y-83394553D01*
X164802844Y-83376453D01*
X164559020Y-83371223D01*
X164305675Y-83377837D01*
G36*
X161746074Y-83448815D02*
G01*
X161724138Y-83474059D01*
X161706931Y-83506625D01*
X161693879Y-83555237D01*
X161684412Y-83628618D01*
X161677958Y-83735492D01*
X161673943Y-83884584D01*
X161671797Y-84084617D01*
X161670947Y-84344315D01*
X161670815Y-84596519D01*
X161671047Y-84909342D01*
X161672125Y-85155630D01*
X161674621Y-85344106D01*
X161679106Y-85483496D01*
X161686153Y-85582523D01*
X161696334Y-85649910D01*
X161710220Y-85694381D01*
X161728385Y-85724661D01*
X161746074Y-85744223D01*
X161856086Y-85809824D01*
X161973304Y-85803937D01*
X162078182Y-85732390D01*
X162102279Y-85704456D01*
X162121112Y-85672047D01*
X162135328Y-85626203D01*
X162145577Y-85557965D01*
X162152507Y-85458374D01*
X162156766Y-85318471D01*
X162159002Y-85129296D01*
X162159864Y-84881891D01*
X162160000Y-84601791D01*
X162160000Y-83558283D01*
X162067637Y-83465920D01*
X161953788Y-83388211D01*
X161843353Y-83385411D01*
X161746074Y-83448815D01*
X161746074Y-83448815D01*
G37*
X161746074Y-83448815D02*
X161724138Y-83474059D01*
X161706931Y-83506625D01*
X161693879Y-83555237D01*
X161684412Y-83628618D01*
X161677958Y-83735492D01*
X161673943Y-83884584D01*
X161671797Y-84084617D01*
X161670947Y-84344315D01*
X161670815Y-84596519D01*
X161671047Y-84909342D01*
X161672125Y-85155630D01*
X161674621Y-85344106D01*
X161679106Y-85483496D01*
X161686153Y-85582523D01*
X161696334Y-85649910D01*
X161710220Y-85694381D01*
X161728385Y-85724661D01*
X161746074Y-85744223D01*
X161856086Y-85809824D01*
X161973304Y-85803937D01*
X162078182Y-85732390D01*
X162102279Y-85704456D01*
X162121112Y-85672047D01*
X162135328Y-85626203D01*
X162145577Y-85557965D01*
X162152507Y-85458374D01*
X162156766Y-85318471D01*
X162159002Y-85129296D01*
X162159864Y-84881891D01*
X162160000Y-84601791D01*
X162160000Y-83558283D01*
X162067637Y-83465920D01*
X161953788Y-83388211D01*
X161843353Y-83385411D01*
X161746074Y-83448815D01*
G36*
X158500271Y-83391996D02*
G01*
X158271882Y-83430318D01*
X158096475Y-83489890D01*
X157982360Y-83568329D01*
X157951264Y-83613079D01*
X157919642Y-83717160D01*
X157940922Y-83811317D01*
X158008101Y-83900607D01*
X158112484Y-83942378D01*
X158263942Y-83938986D01*
X158381087Y-83916354D01*
X158641396Y-83873237D01*
X158907420Y-83869139D01*
X159205182Y-83904137D01*
X159287431Y-83918966D01*
X159564304Y-83997028D01*
X159780908Y-84113149D01*
X159934871Y-84265347D01*
X160023815Y-84451646D01*
X160042211Y-84547962D01*
X160030169Y-84743375D01*
X159952431Y-84916264D01*
X159816078Y-85063261D01*
X159628195Y-85180995D01*
X159395865Y-85266097D01*
X159126173Y-85315198D01*
X158826201Y-85324928D01*
X158503033Y-85291916D01*
X158484786Y-85288804D01*
X158356248Y-85264863D01*
X158284979Y-85241738D01*
X158254088Y-85207425D01*
X158246686Y-85149922D01*
X158246519Y-85119471D01*
X158246519Y-84991630D01*
X158474771Y-84991630D01*
X158676332Y-84977822D01*
X158813883Y-84933822D01*
X158893915Y-84855765D01*
X158922922Y-84739786D01*
X158923276Y-84724647D01*
X158906305Y-84625515D01*
X158848108Y-84554729D01*
X158739796Y-84507885D01*
X158572476Y-84480577D01*
X158410408Y-84470537D01*
X158174853Y-84464777D01*
X158003993Y-84473566D01*
X157887463Y-84506001D01*
X157814898Y-84571177D01*
X157775933Y-84678187D01*
X157760200Y-84836128D01*
X157757334Y-85043570D01*
X157762030Y-85275118D01*
X157776160Y-85432620D01*
X157799785Y-85516706D01*
X157804371Y-85523293D01*
X157934092Y-85628361D01*
X158124286Y-85711568D01*
X158362895Y-85771135D01*
X158637861Y-85805285D01*
X158937128Y-85812242D01*
X159248638Y-85790228D01*
X159431852Y-85763186D01*
X159719220Y-85681848D01*
X159986305Y-85548873D01*
X160209923Y-85376291D01*
X160243911Y-85341797D01*
X160354339Y-85196783D01*
X160453979Y-85017060D01*
X160531188Y-84828639D01*
X160574328Y-84657531D01*
X160579526Y-84591813D01*
X160557392Y-84454731D01*
X160498561Y-84284174D01*
X160414321Y-84104647D01*
X160315962Y-83940651D01*
X160229062Y-83831112D01*
X160025881Y-83668173D01*
X159763230Y-83538485D01*
X159450522Y-83444981D01*
X159097168Y-83390596D01*
X158773334Y-83377307D01*
X158500271Y-83391996D01*
X158500271Y-83391996D01*
G37*
X158500271Y-83391996D02*
X158271882Y-83430318D01*
X158096475Y-83489890D01*
X157982360Y-83568329D01*
X157951264Y-83613079D01*
X157919642Y-83717160D01*
X157940922Y-83811317D01*
X158008101Y-83900607D01*
X158112484Y-83942378D01*
X158263942Y-83938986D01*
X158381087Y-83916354D01*
X158641396Y-83873237D01*
X158907420Y-83869139D01*
X159205182Y-83904137D01*
X159287431Y-83918966D01*
X159564304Y-83997028D01*
X159780908Y-84113149D01*
X159934871Y-84265347D01*
X160023815Y-84451646D01*
X160042211Y-84547962D01*
X160030169Y-84743375D01*
X159952431Y-84916264D01*
X159816078Y-85063261D01*
X159628195Y-85180995D01*
X159395865Y-85266097D01*
X159126173Y-85315198D01*
X158826201Y-85324928D01*
X158503033Y-85291916D01*
X158484786Y-85288804D01*
X158356248Y-85264863D01*
X158284979Y-85241738D01*
X158254088Y-85207425D01*
X158246686Y-85149922D01*
X158246519Y-85119471D01*
X158246519Y-84991630D01*
X158474771Y-84991630D01*
X158676332Y-84977822D01*
X158813883Y-84933822D01*
X158893915Y-84855765D01*
X158922922Y-84739786D01*
X158923276Y-84724647D01*
X158906305Y-84625515D01*
X158848108Y-84554729D01*
X158739796Y-84507885D01*
X158572476Y-84480577D01*
X158410408Y-84470537D01*
X158174853Y-84464777D01*
X158003993Y-84473566D01*
X157887463Y-84506001D01*
X157814898Y-84571177D01*
X157775933Y-84678187D01*
X157760200Y-84836128D01*
X157757334Y-85043570D01*
X157762030Y-85275118D01*
X157776160Y-85432620D01*
X157799785Y-85516706D01*
X157804371Y-85523293D01*
X157934092Y-85628361D01*
X158124286Y-85711568D01*
X158362895Y-85771135D01*
X158637861Y-85805285D01*
X158937128Y-85812242D01*
X159248638Y-85790228D01*
X159431852Y-85763186D01*
X159719220Y-85681848D01*
X159986305Y-85548873D01*
X160209923Y-85376291D01*
X160243911Y-85341797D01*
X160354339Y-85196783D01*
X160453979Y-85017060D01*
X160531188Y-84828639D01*
X160574328Y-84657531D01*
X160579526Y-84591813D01*
X160557392Y-84454731D01*
X160498561Y-84284174D01*
X160414321Y-84104647D01*
X160315962Y-83940651D01*
X160229062Y-83831112D01*
X160025881Y-83668173D01*
X159763230Y-83538485D01*
X159450522Y-83444981D01*
X159097168Y-83390596D01*
X158773334Y-83377307D01*
X158500271Y-83391996D01*
G36*
X156333713Y-83388161D02*
G01*
X156255159Y-83434242D01*
X156152449Y-83509602D01*
X156020259Y-83617792D01*
X155853265Y-83762361D01*
X155646143Y-83946859D01*
X155393571Y-84174836D01*
X155104445Y-84436947D01*
X154502371Y-84982928D01*
X154483556Y-84250096D01*
X154476763Y-83997838D01*
X154470209Y-83809981D01*
X154462445Y-83675687D01*
X154452019Y-83584116D01*
X154437483Y-83524431D01*
X154417386Y-83485791D01*
X154390278Y-83457359D01*
X154375906Y-83445410D01*
X154260804Y-83382235D01*
X154151275Y-83391471D01*
X154064391Y-83445443D01*
X153975556Y-83517329D01*
X153964507Y-84567170D01*
X153961449Y-84875929D01*
X153959893Y-85118480D01*
X153960377Y-85303869D01*
X153963441Y-85441141D01*
X153969624Y-85539342D01*
X153979464Y-85607517D01*
X153993501Y-85654710D01*
X154012273Y-85689969D01*
X154033090Y-85718247D01*
X154078131Y-85770691D01*
X154122944Y-85805454D01*
X154173747Y-85818798D01*
X154236754Y-85806980D01*
X154318181Y-85766262D01*
X154424244Y-85692903D01*
X154561159Y-85583164D01*
X154735141Y-85433304D01*
X154952405Y-85239584D01*
X155198519Y-85016996D01*
X156082815Y-84214861D01*
X156101630Y-84945297D01*
X156108435Y-85197095D01*
X156115005Y-85384514D01*
X156122798Y-85518413D01*
X156133270Y-85609653D01*
X156147878Y-85669095D01*
X156168081Y-85707598D01*
X156195334Y-85736023D01*
X156209280Y-85747607D01*
X156332550Y-85811242D01*
X156449025Y-85801643D01*
X156550454Y-85720333D01*
X156573657Y-85687621D01*
X156591742Y-85649419D01*
X156605343Y-85596559D01*
X156615097Y-85519878D01*
X156621641Y-85410208D01*
X156625610Y-85258386D01*
X156627641Y-85055245D01*
X156628369Y-84791620D01*
X156628445Y-84596519D01*
X156628200Y-84291358D01*
X156627042Y-84052291D01*
X156624335Y-83870151D01*
X156619443Y-83735773D01*
X156611728Y-83639992D01*
X156600557Y-83573643D01*
X156585292Y-83527559D01*
X156565297Y-83492575D01*
X156550454Y-83472705D01*
X156512831Y-83425636D01*
X156477669Y-83390097D01*
X156439644Y-83369639D01*
X156393433Y-83367810D01*
X156333713Y-83388161D01*
X156333713Y-83388161D01*
G37*
X156333713Y-83388161D02*
X156255159Y-83434242D01*
X156152449Y-83509602D01*
X156020259Y-83617792D01*
X155853265Y-83762361D01*
X155646143Y-83946859D01*
X155393571Y-84174836D01*
X155104445Y-84436947D01*
X154502371Y-84982928D01*
X154483556Y-84250096D01*
X154476763Y-83997838D01*
X154470209Y-83809981D01*
X154462445Y-83675687D01*
X154452019Y-83584116D01*
X154437483Y-83524431D01*
X154417386Y-83485791D01*
X154390278Y-83457359D01*
X154375906Y-83445410D01*
X154260804Y-83382235D01*
X154151275Y-83391471D01*
X154064391Y-83445443D01*
X153975556Y-83517329D01*
X153964507Y-84567170D01*
X153961449Y-84875929D01*
X153959893Y-85118480D01*
X153960377Y-85303869D01*
X153963441Y-85441141D01*
X153969624Y-85539342D01*
X153979464Y-85607517D01*
X153993501Y-85654710D01*
X154012273Y-85689969D01*
X154033090Y-85718247D01*
X154078131Y-85770691D01*
X154122944Y-85805454D01*
X154173747Y-85818798D01*
X154236754Y-85806980D01*
X154318181Y-85766262D01*
X154424244Y-85692903D01*
X154561159Y-85583164D01*
X154735141Y-85433304D01*
X154952405Y-85239584D01*
X155198519Y-85016996D01*
X156082815Y-84214861D01*
X156101630Y-84945297D01*
X156108435Y-85197095D01*
X156115005Y-85384514D01*
X156122798Y-85518413D01*
X156133270Y-85609653D01*
X156147878Y-85669095D01*
X156168081Y-85707598D01*
X156195334Y-85736023D01*
X156209280Y-85747607D01*
X156332550Y-85811242D01*
X156449025Y-85801643D01*
X156550454Y-85720333D01*
X156573657Y-85687621D01*
X156591742Y-85649419D01*
X156605343Y-85596559D01*
X156615097Y-85519878D01*
X156621641Y-85410208D01*
X156625610Y-85258386D01*
X156627641Y-85055245D01*
X156628369Y-84791620D01*
X156628445Y-84596519D01*
X156628200Y-84291358D01*
X156627042Y-84052291D01*
X156624335Y-83870151D01*
X156619443Y-83735773D01*
X156611728Y-83639992D01*
X156600557Y-83573643D01*
X156585292Y-83527559D01*
X156565297Y-83492575D01*
X156550454Y-83472705D01*
X156512831Y-83425636D01*
X156477669Y-83390097D01*
X156439644Y-83369639D01*
X156393433Y-83367810D01*
X156333713Y-83388161D01*
G36*
X151232191Y-83374199D02*
G01*
X150977662Y-83377246D01*
X150782611Y-83384371D01*
X150639149Y-83397249D01*
X150539389Y-83417555D01*
X150475440Y-83446965D01*
X150439414Y-83487154D01*
X150423422Y-83539795D01*
X150419576Y-83606565D01*
X150419556Y-83614450D01*
X150422895Y-83689974D01*
X150438679Y-83748342D01*
X150475555Y-83791914D01*
X150542173Y-83823043D01*
X150647180Y-83844089D01*
X150799225Y-83857407D01*
X151006956Y-83865354D01*
X151279021Y-83870286D01*
X151362409Y-83871379D01*
X152169334Y-83881556D01*
X152180619Y-84097926D01*
X152191904Y-84314297D01*
X151631414Y-84314297D01*
X151412445Y-84315104D01*
X151256093Y-84318521D01*
X151149722Y-84326036D01*
X151080698Y-84339141D01*
X151036385Y-84359326D01*
X151004150Y-84388081D01*
X151003944Y-84388309D01*
X150945480Y-84500373D01*
X150947593Y-84621494D01*
X151008952Y-84724744D01*
X151021095Y-84735356D01*
X151064195Y-84762708D01*
X151123254Y-84781736D01*
X151211433Y-84793874D01*
X151341892Y-84800556D01*
X151527792Y-84803214D01*
X151646688Y-84803482D01*
X152188149Y-84803482D01*
X152188149Y-85330297D01*
X151366129Y-85330297D01*
X151094732Y-85330771D01*
X150888633Y-85332712D01*
X150737877Y-85336893D01*
X150632506Y-85344091D01*
X150562562Y-85355078D01*
X150518090Y-85370631D01*
X150489131Y-85391524D01*
X150481833Y-85399111D01*
X150427951Y-85504266D01*
X150424010Y-85623895D01*
X150468213Y-85727616D01*
X150503188Y-85760904D01*
X150539570Y-85779229D01*
X150595944Y-85793406D01*
X150681224Y-85803933D01*
X150804330Y-85811305D01*
X150974179Y-85816020D01*
X151199686Y-85818573D01*
X151489770Y-85819460D01*
X151555352Y-85819482D01*
X151850297Y-85819289D01*
X152079243Y-85818224D01*
X152251452Y-85815556D01*
X152376184Y-85810557D01*
X152462699Y-85802497D01*
X152520260Y-85790646D01*
X152558126Y-85774274D01*
X152585558Y-85752652D01*
X152600609Y-85737127D01*
X152623262Y-85709629D01*
X152640960Y-85675564D01*
X152654313Y-85626001D01*
X152663929Y-85552006D01*
X152670420Y-85444645D01*
X152674395Y-85294985D01*
X152676464Y-85094093D01*
X152677237Y-84833036D01*
X152677334Y-84613313D01*
X152677097Y-84305428D01*
X152675973Y-84063724D01*
X152673341Y-83879124D01*
X152668581Y-83742551D01*
X152661071Y-83644928D01*
X152650191Y-83577178D01*
X152635321Y-83530222D01*
X152615839Y-83494984D01*
X152599343Y-83472705D01*
X152521353Y-83373556D01*
X151554087Y-83373556D01*
X151232191Y-83374199D01*
X151232191Y-83374199D01*
G37*
X151232191Y-83374199D02*
X150977662Y-83377246D01*
X150782611Y-83384371D01*
X150639149Y-83397249D01*
X150539389Y-83417555D01*
X150475440Y-83446965D01*
X150439414Y-83487154D01*
X150423422Y-83539795D01*
X150419576Y-83606565D01*
X150419556Y-83614450D01*
X150422895Y-83689974D01*
X150438679Y-83748342D01*
X150475555Y-83791914D01*
X150542173Y-83823043D01*
X150647180Y-83844089D01*
X150799225Y-83857407D01*
X151006956Y-83865354D01*
X151279021Y-83870286D01*
X151362409Y-83871379D01*
X152169334Y-83881556D01*
X152180619Y-84097926D01*
X152191904Y-84314297D01*
X151631414Y-84314297D01*
X151412445Y-84315104D01*
X151256093Y-84318521D01*
X151149722Y-84326036D01*
X151080698Y-84339141D01*
X151036385Y-84359326D01*
X151004150Y-84388081D01*
X151003944Y-84388309D01*
X150945480Y-84500373D01*
X150947593Y-84621494D01*
X151008952Y-84724744D01*
X151021095Y-84735356D01*
X151064195Y-84762708D01*
X151123254Y-84781736D01*
X151211433Y-84793874D01*
X151341892Y-84800556D01*
X151527792Y-84803214D01*
X151646688Y-84803482D01*
X152188149Y-84803482D01*
X152188149Y-85330297D01*
X151366129Y-85330297D01*
X151094732Y-85330771D01*
X150888633Y-85332712D01*
X150737877Y-85336893D01*
X150632506Y-85344091D01*
X150562562Y-85355078D01*
X150518090Y-85370631D01*
X150489131Y-85391524D01*
X150481833Y-85399111D01*
X150427951Y-85504266D01*
X150424010Y-85623895D01*
X150468213Y-85727616D01*
X150503188Y-85760904D01*
X150539570Y-85779229D01*
X150595944Y-85793406D01*
X150681224Y-85803933D01*
X150804330Y-85811305D01*
X150974179Y-85816020D01*
X151199686Y-85818573D01*
X151489770Y-85819460D01*
X151555352Y-85819482D01*
X151850297Y-85819289D01*
X152079243Y-85818224D01*
X152251452Y-85815556D01*
X152376184Y-85810557D01*
X152462699Y-85802497D01*
X152520260Y-85790646D01*
X152558126Y-85774274D01*
X152585558Y-85752652D01*
X152600609Y-85737127D01*
X152623262Y-85709629D01*
X152640960Y-85675564D01*
X152654313Y-85626001D01*
X152663929Y-85552006D01*
X152670420Y-85444645D01*
X152674395Y-85294985D01*
X152676464Y-85094093D01*
X152677237Y-84833036D01*
X152677334Y-84613313D01*
X152677097Y-84305428D01*
X152675973Y-84063724D01*
X152673341Y-83879124D01*
X152668581Y-83742551D01*
X152661071Y-83644928D01*
X152650191Y-83577178D01*
X152635321Y-83530222D01*
X152615839Y-83494984D01*
X152599343Y-83472705D01*
X152521353Y-83373556D01*
X151554087Y-83373556D01*
X151232191Y-83374199D01*
G36*
X148605637Y-83374249D02*
G01*
X148175706Y-83388786D01*
X147810030Y-83432869D01*
X147502580Y-83509138D01*
X147247327Y-83620233D01*
X147038242Y-83768792D01*
X146869294Y-83957455D01*
X146734455Y-84188860D01*
X146731803Y-84194503D01*
X146651330Y-84401610D01*
X146622658Y-84585032D01*
X146645895Y-84769625D01*
X146721153Y-84980245D01*
X146735426Y-85012296D01*
X146832759Y-85199886D01*
X146942148Y-85344838D01*
X147083327Y-85468057D01*
X147276033Y-85590451D01*
X147287228Y-85596840D01*
X147454985Y-85677424D01*
X147644596Y-85737607D01*
X147868244Y-85779465D01*
X148138116Y-85805074D01*
X148466394Y-85816509D01*
X148582380Y-85817502D01*
X149134686Y-85819482D01*
X149212677Y-85720333D01*
X149235811Y-85687730D01*
X149253858Y-85649657D01*
X149267448Y-85596984D01*
X149277211Y-85520582D01*
X149283776Y-85411320D01*
X149285917Y-85330297D01*
X148763852Y-85330297D01*
X148450911Y-85330297D01*
X148267787Y-85324942D01*
X148079800Y-85310849D01*
X147925515Y-85290974D01*
X147916202Y-85289301D01*
X147642172Y-85215786D01*
X147429621Y-85105335D01*
X147271825Y-84952824D01*
X147162060Y-84753129D01*
X147142973Y-84700203D01*
X147124264Y-84617775D01*
X147132364Y-84536339D01*
X147171777Y-84428000D01*
X147195534Y-84374779D01*
X147273332Y-84233352D01*
X147367066Y-84134132D01*
X147470198Y-84065038D01*
X147676781Y-83975124D01*
X147941164Y-83909993D01*
X148249158Y-83872488D01*
X148472223Y-83864235D01*
X148763852Y-83862741D01*
X148763852Y-85330297D01*
X149285917Y-85330297D01*
X149287773Y-85260070D01*
X149289832Y-85057702D01*
X149290582Y-84795086D01*
X149290667Y-84589734D01*
X149290667Y-83558283D01*
X149198303Y-83465920D01*
X149157312Y-83428481D01*
X149112988Y-83402842D01*
X149051091Y-83386801D01*
X148957379Y-83378155D01*
X148817610Y-83374700D01*
X148617543Y-83374234D01*
X148605637Y-83374249D01*
X148605637Y-83374249D01*
G37*
X148605637Y-83374249D02*
X148175706Y-83388786D01*
X147810030Y-83432869D01*
X147502580Y-83509138D01*
X147247327Y-83620233D01*
X147038242Y-83768792D01*
X146869294Y-83957455D01*
X146734455Y-84188860D01*
X146731803Y-84194503D01*
X146651330Y-84401610D01*
X146622658Y-84585032D01*
X146645895Y-84769625D01*
X146721153Y-84980245D01*
X146735426Y-85012296D01*
X146832759Y-85199886D01*
X146942148Y-85344838D01*
X147083327Y-85468057D01*
X147276033Y-85590451D01*
X147287228Y-85596840D01*
X147454985Y-85677424D01*
X147644596Y-85737607D01*
X147868244Y-85779465D01*
X148138116Y-85805074D01*
X148466394Y-85816509D01*
X148582380Y-85817502D01*
X149134686Y-85819482D01*
X149212677Y-85720333D01*
X149235811Y-85687730D01*
X149253858Y-85649657D01*
X149267448Y-85596984D01*
X149277211Y-85520582D01*
X149283776Y-85411320D01*
X149285917Y-85330297D01*
X148763852Y-85330297D01*
X148450911Y-85330297D01*
X148267787Y-85324942D01*
X148079800Y-85310849D01*
X147925515Y-85290974D01*
X147916202Y-85289301D01*
X147642172Y-85215786D01*
X147429621Y-85105335D01*
X147271825Y-84952824D01*
X147162060Y-84753129D01*
X147142973Y-84700203D01*
X147124264Y-84617775D01*
X147132364Y-84536339D01*
X147171777Y-84428000D01*
X147195534Y-84374779D01*
X147273332Y-84233352D01*
X147367066Y-84134132D01*
X147470198Y-84065038D01*
X147676781Y-83975124D01*
X147941164Y-83909993D01*
X148249158Y-83872488D01*
X148472223Y-83864235D01*
X148763852Y-83862741D01*
X148763852Y-85330297D01*
X149285917Y-85330297D01*
X149287773Y-85260070D01*
X149289832Y-85057702D01*
X149290582Y-84795086D01*
X149290667Y-84589734D01*
X149290667Y-83558283D01*
X149198303Y-83465920D01*
X149157312Y-83428481D01*
X149112988Y-83402842D01*
X149051091Y-83386801D01*
X148957379Y-83378155D01*
X148817610Y-83374700D01*
X148617543Y-83374234D01*
X148605637Y-83374249D01*
G36*
X139517783Y-83380114D02*
G01*
X139452484Y-83403449D01*
X139449965Y-83404591D01*
X139361290Y-83472262D01*
X139312433Y-83541869D01*
X139302873Y-83574506D01*
X139303345Y-83617871D01*
X139316798Y-83679649D01*
X139346178Y-83767522D01*
X139394435Y-83889175D01*
X139464517Y-84052290D01*
X139559372Y-84264551D01*
X139681948Y-84533642D01*
X139749417Y-84680720D01*
X139871249Y-84943285D01*
X139985618Y-85184743D01*
X140088159Y-85396266D01*
X140174508Y-85569027D01*
X140240298Y-85694197D01*
X140281165Y-85762948D01*
X140289252Y-85772445D01*
X140392722Y-85814341D01*
X140509596Y-85808730D01*
X140603333Y-85757774D01*
X140607151Y-85753630D01*
X140644439Y-85697181D01*
X140706987Y-85587232D01*
X140787081Y-85437934D01*
X140877011Y-85263441D01*
X140909330Y-85199139D01*
X141153286Y-84710500D01*
X141419198Y-85241311D01*
X141514111Y-85424716D01*
X141602168Y-85583774D01*
X141676174Y-85706309D01*
X141728937Y-85780146D01*
X141746818Y-85795802D01*
X141885810Y-85817008D01*
X142000502Y-85772445D01*
X142034239Y-85724820D01*
X142092620Y-85618974D01*
X142170883Y-85465323D01*
X142264265Y-85274282D01*
X142368003Y-85056266D01*
X142477335Y-84821690D01*
X142587498Y-84580969D01*
X142693730Y-84344517D01*
X142791268Y-84122752D01*
X142875350Y-83926086D01*
X142941212Y-83764936D01*
X142984093Y-83649716D01*
X142999229Y-83590842D01*
X142999075Y-83588711D01*
X142962246Y-83514628D01*
X142888633Y-83439176D01*
X142884298Y-83435892D01*
X142793823Y-83384751D01*
X142710138Y-83385246D01*
X142678773Y-83394888D01*
X142640553Y-83415725D01*
X142599966Y-83456715D01*
X142552142Y-83526360D01*
X142492213Y-83633163D01*
X142415310Y-83785628D01*
X142316565Y-83992258D01*
X142227516Y-84182994D01*
X142125065Y-84404088D01*
X142033261Y-84602914D01*
X141956874Y-84769084D01*
X141900671Y-84892213D01*
X141869423Y-84961912D01*
X141864866Y-84972815D01*
X141844368Y-84954991D01*
X141797260Y-84880362D01*
X141729809Y-84759820D01*
X141648283Y-84604258D01*
X141615840Y-84540074D01*
X141505941Y-84323347D01*
X141421188Y-84165513D01*
X141354625Y-84057396D01*
X141299298Y-83989820D01*
X141248252Y-83953608D01*
X141194531Y-83939584D01*
X141159523Y-83938000D01*
X141097768Y-83943472D01*
X141043652Y-83966105D01*
X140989883Y-84015221D01*
X140929164Y-84100146D01*
X140854203Y-84230202D01*
X140757703Y-84414715D01*
X140704461Y-84519676D01*
X140618099Y-84686957D01*
X140542777Y-84825680D01*
X140485139Y-84924140D01*
X140451833Y-84970632D01*
X140447304Y-84972568D01*
X140425795Y-84935978D01*
X140377638Y-84840967D01*
X140307657Y-84697479D01*
X140220675Y-84515459D01*
X140121512Y-84304848D01*
X140072733Y-84200238D01*
X139945834Y-83930262D01*
X139843650Y-83722520D01*
X139760876Y-83570236D01*
X139692208Y-83466631D01*
X139632340Y-83404927D01*
X139575966Y-83378348D01*
X139517783Y-83380114D01*
X139517783Y-83380114D01*
G37*
X139517783Y-83380114D02*
X139452484Y-83403449D01*
X139449965Y-83404591D01*
X139361290Y-83472262D01*
X139312433Y-83541869D01*
X139302873Y-83574506D01*
X139303345Y-83617871D01*
X139316798Y-83679649D01*
X139346178Y-83767522D01*
X139394435Y-83889175D01*
X139464517Y-84052290D01*
X139559372Y-84264551D01*
X139681948Y-84533642D01*
X139749417Y-84680720D01*
X139871249Y-84943285D01*
X139985618Y-85184743D01*
X140088159Y-85396266D01*
X140174508Y-85569027D01*
X140240298Y-85694197D01*
X140281165Y-85762948D01*
X140289252Y-85772445D01*
X140392722Y-85814341D01*
X140509596Y-85808730D01*
X140603333Y-85757774D01*
X140607151Y-85753630D01*
X140644439Y-85697181D01*
X140706987Y-85587232D01*
X140787081Y-85437934D01*
X140877011Y-85263441D01*
X140909330Y-85199139D01*
X141153286Y-84710500D01*
X141419198Y-85241311D01*
X141514111Y-85424716D01*
X141602168Y-85583774D01*
X141676174Y-85706309D01*
X141728937Y-85780146D01*
X141746818Y-85795802D01*
X141885810Y-85817008D01*
X142000502Y-85772445D01*
X142034239Y-85724820D01*
X142092620Y-85618974D01*
X142170883Y-85465323D01*
X142264265Y-85274282D01*
X142368003Y-85056266D01*
X142477335Y-84821690D01*
X142587498Y-84580969D01*
X142693730Y-84344517D01*
X142791268Y-84122752D01*
X142875350Y-83926086D01*
X142941212Y-83764936D01*
X142984093Y-83649716D01*
X142999229Y-83590842D01*
X142999075Y-83588711D01*
X142962246Y-83514628D01*
X142888633Y-83439176D01*
X142884298Y-83435892D01*
X142793823Y-83384751D01*
X142710138Y-83385246D01*
X142678773Y-83394888D01*
X142640553Y-83415725D01*
X142599966Y-83456715D01*
X142552142Y-83526360D01*
X142492213Y-83633163D01*
X142415310Y-83785628D01*
X142316565Y-83992258D01*
X142227516Y-84182994D01*
X142125065Y-84404088D01*
X142033261Y-84602914D01*
X141956874Y-84769084D01*
X141900671Y-84892213D01*
X141869423Y-84961912D01*
X141864866Y-84972815D01*
X141844368Y-84954991D01*
X141797260Y-84880362D01*
X141729809Y-84759820D01*
X141648283Y-84604258D01*
X141615840Y-84540074D01*
X141505941Y-84323347D01*
X141421188Y-84165513D01*
X141354625Y-84057396D01*
X141299298Y-83989820D01*
X141248252Y-83953608D01*
X141194531Y-83939584D01*
X141159523Y-83938000D01*
X141097768Y-83943472D01*
X141043652Y-83966105D01*
X140989883Y-84015221D01*
X140929164Y-84100146D01*
X140854203Y-84230202D01*
X140757703Y-84414715D01*
X140704461Y-84519676D01*
X140618099Y-84686957D01*
X140542777Y-84825680D01*
X140485139Y-84924140D01*
X140451833Y-84970632D01*
X140447304Y-84972568D01*
X140425795Y-84935978D01*
X140377638Y-84840967D01*
X140307657Y-84697479D01*
X140220675Y-84515459D01*
X140121512Y-84304848D01*
X140072733Y-84200238D01*
X139945834Y-83930262D01*
X139843650Y-83722520D01*
X139760876Y-83570236D01*
X139692208Y-83466631D01*
X139632340Y-83404927D01*
X139575966Y-83378348D01*
X139517783Y-83380114D01*
G36*
X138037953Y-83396256D02*
G01*
X137958910Y-83445490D01*
X137870074Y-83517425D01*
X137870074Y-84589244D01*
X137870357Y-84902766D01*
X137871569Y-85149774D01*
X137874254Y-85339013D01*
X137878957Y-85479227D01*
X137886222Y-85579160D01*
X137896595Y-85647558D01*
X137910619Y-85693163D01*
X137928839Y-85724722D01*
X137941758Y-85740272D01*
X138046554Y-85808582D01*
X138165889Y-85805796D01*
X138270424Y-85747547D01*
X138359260Y-85675613D01*
X138359260Y-83517425D01*
X138270424Y-83445490D01*
X138184685Y-83393164D01*
X138114667Y-83373556D01*
X138037953Y-83396256D01*
X138037953Y-83396256D01*
G37*
X138037953Y-83396256D02*
X137958910Y-83445490D01*
X137870074Y-83517425D01*
X137870074Y-84589244D01*
X137870357Y-84902766D01*
X137871569Y-85149774D01*
X137874254Y-85339013D01*
X137878957Y-85479227D01*
X137886222Y-85579160D01*
X137896595Y-85647558D01*
X137910619Y-85693163D01*
X137928839Y-85724722D01*
X137941758Y-85740272D01*
X138046554Y-85808582D01*
X138165889Y-85805796D01*
X138270424Y-85747547D01*
X138359260Y-85675613D01*
X138359260Y-83517425D01*
X138270424Y-83445490D01*
X138184685Y-83393164D01*
X138114667Y-83373556D01*
X138037953Y-83396256D01*
G36*
X135456450Y-83373878D02*
G01*
X135194092Y-83375139D01*
X134990457Y-83377777D01*
X134837277Y-83382232D01*
X134726285Y-83388944D01*
X134649213Y-83398352D01*
X134597794Y-83410896D01*
X134563761Y-83427016D01*
X134547291Y-83439408D01*
X134461811Y-83547860D01*
X134451470Y-83660462D01*
X134504295Y-83762754D01*
X134538839Y-83803630D01*
X134576012Y-83831501D01*
X134629884Y-83848858D01*
X134714525Y-83858190D01*
X134844007Y-83861987D01*
X135032399Y-83862737D01*
X135069398Y-83862741D01*
X135555852Y-83862741D01*
X135555852Y-84765852D01*
X135556173Y-85050514D01*
X135557628Y-85269547D01*
X135560959Y-85432580D01*
X135566905Y-85549243D01*
X135576209Y-85629165D01*
X135589611Y-85681975D01*
X135607850Y-85717304D01*
X135631112Y-85744223D01*
X135740887Y-85810374D01*
X135855485Y-85805162D01*
X135959411Y-85729687D01*
X135967047Y-85720333D01*
X135991904Y-85684974D01*
X136010842Y-85643603D01*
X136024662Y-85586167D01*
X136034165Y-85502613D01*
X136040152Y-85382889D01*
X136043426Y-85216943D01*
X136044786Y-84994722D01*
X136045037Y-84741963D01*
X136045037Y-83862741D01*
X136509576Y-83862741D01*
X136708927Y-83861392D01*
X136846940Y-83856135D01*
X136937505Y-83845155D01*
X136994513Y-83826639D01*
X137031856Y-83798771D01*
X137036391Y-83793926D01*
X137090916Y-83683131D01*
X137086094Y-83557874D01*
X137023408Y-83448815D01*
X136999165Y-83427661D01*
X136967909Y-83410887D01*
X136921304Y-83397988D01*
X136851013Y-83388455D01*
X136748703Y-83381783D01*
X136606038Y-83377465D01*
X136414682Y-83374993D01*
X136166300Y-83373860D01*
X135852557Y-83373561D01*
X135785799Y-83373556D01*
X135456450Y-83373878D01*
X135456450Y-83373878D01*
G37*
X135456450Y-83373878D02*
X135194092Y-83375139D01*
X134990457Y-83377777D01*
X134837277Y-83382232D01*
X134726285Y-83388944D01*
X134649213Y-83398352D01*
X134597794Y-83410896D01*
X134563761Y-83427016D01*
X134547291Y-83439408D01*
X134461811Y-83547860D01*
X134451470Y-83660462D01*
X134504295Y-83762754D01*
X134538839Y-83803630D01*
X134576012Y-83831501D01*
X134629884Y-83848858D01*
X134714525Y-83858190D01*
X134844007Y-83861987D01*
X135032399Y-83862737D01*
X135069398Y-83862741D01*
X135555852Y-83862741D01*
X135555852Y-84765852D01*
X135556173Y-85050514D01*
X135557628Y-85269547D01*
X135560959Y-85432580D01*
X135566905Y-85549243D01*
X135576209Y-85629165D01*
X135589611Y-85681975D01*
X135607850Y-85717304D01*
X135631112Y-85744223D01*
X135740887Y-85810374D01*
X135855485Y-85805162D01*
X135959411Y-85729687D01*
X135967047Y-85720333D01*
X135991904Y-85684974D01*
X136010842Y-85643603D01*
X136024662Y-85586167D01*
X136034165Y-85502613D01*
X136040152Y-85382889D01*
X136043426Y-85216943D01*
X136044786Y-84994722D01*
X136045037Y-84741963D01*
X136045037Y-83862741D01*
X136509576Y-83862741D01*
X136708927Y-83861392D01*
X136846940Y-83856135D01*
X136937505Y-83845155D01*
X136994513Y-83826639D01*
X137031856Y-83798771D01*
X137036391Y-83793926D01*
X137090916Y-83683131D01*
X137086094Y-83557874D01*
X137023408Y-83448815D01*
X136999165Y-83427661D01*
X136967909Y-83410887D01*
X136921304Y-83397988D01*
X136851013Y-83388455D01*
X136748703Y-83381783D01*
X136606038Y-83377465D01*
X136414682Y-83374993D01*
X136166300Y-83373860D01*
X135852557Y-83373561D01*
X135785799Y-83373556D01*
X135456450Y-83373878D01*
G36*
X131237255Y-83391777D02*
G01*
X131132660Y-83465920D01*
X131040297Y-83558283D01*
X131040297Y-84589734D01*
X131040538Y-84895998D01*
X131041682Y-85136133D01*
X131044358Y-85319268D01*
X131049197Y-85454533D01*
X131056827Y-85551057D01*
X131067880Y-85617971D01*
X131082983Y-85664403D01*
X131102768Y-85699484D01*
X131118287Y-85720333D01*
X131220724Y-85802245D01*
X131338345Y-85811136D01*
X131445850Y-85760904D01*
X131481373Y-85731248D01*
X131505119Y-85691855D01*
X131519441Y-85628421D01*
X131526696Y-85526640D01*
X131529239Y-85372206D01*
X131529482Y-85252904D01*
X131529482Y-84803482D01*
X133185186Y-84803482D01*
X133185186Y-85212333D01*
X133186898Y-85399289D01*
X133193748Y-85527776D01*
X133208307Y-85614538D01*
X133233146Y-85676323D01*
X133263176Y-85720333D01*
X133366186Y-85802015D01*
X133482680Y-85811687D01*
X133594205Y-85753630D01*
X133624653Y-85723195D01*
X133646158Y-85682849D01*
X133660342Y-85620002D01*
X133668827Y-85522068D01*
X133673236Y-85376457D01*
X133675189Y-85170583D01*
X133675418Y-85123334D01*
X133677030Y-84735436D01*
X133677862Y-84415757D01*
X133677591Y-84157256D01*
X133675897Y-83952895D01*
X133672459Y-83795634D01*
X133666957Y-83678434D01*
X133659069Y-83594255D01*
X133648475Y-83536057D01*
X133634854Y-83496802D01*
X133617886Y-83469449D01*
X133599112Y-83448815D01*
X133492907Y-83382812D01*
X133382144Y-83391777D01*
X133277549Y-83465920D01*
X133235224Y-83513754D01*
X133208245Y-83566592D01*
X133193191Y-83641846D01*
X133186645Y-83756928D01*
X133185187Y-83929252D01*
X133185186Y-83936290D01*
X133185186Y-84314297D01*
X131529482Y-84314297D01*
X131529482Y-83919186D01*
X131527792Y-83737159D01*
X131521007Y-83614249D01*
X131506548Y-83534357D01*
X131481842Y-83481383D01*
X131454223Y-83448815D01*
X131348018Y-83382812D01*
X131237255Y-83391777D01*
X131237255Y-83391777D01*
G37*
X131237255Y-83391777D02*
X131132660Y-83465920D01*
X131040297Y-83558283D01*
X131040297Y-84589734D01*
X131040538Y-84895998D01*
X131041682Y-85136133D01*
X131044358Y-85319268D01*
X131049197Y-85454533D01*
X131056827Y-85551057D01*
X131067880Y-85617971D01*
X131082983Y-85664403D01*
X131102768Y-85699484D01*
X131118287Y-85720333D01*
X131220724Y-85802245D01*
X131338345Y-85811136D01*
X131445850Y-85760904D01*
X131481373Y-85731248D01*
X131505119Y-85691855D01*
X131519441Y-85628421D01*
X131526696Y-85526640D01*
X131529239Y-85372206D01*
X131529482Y-85252904D01*
X131529482Y-84803482D01*
X133185186Y-84803482D01*
X133185186Y-85212333D01*
X133186898Y-85399289D01*
X133193748Y-85527776D01*
X133208307Y-85614538D01*
X133233146Y-85676323D01*
X133263176Y-85720333D01*
X133366186Y-85802015D01*
X133482680Y-85811687D01*
X133594205Y-85753630D01*
X133624653Y-85723195D01*
X133646158Y-85682849D01*
X133660342Y-85620002D01*
X133668827Y-85522068D01*
X133673236Y-85376457D01*
X133675189Y-85170583D01*
X133675418Y-85123334D01*
X133677030Y-84735436D01*
X133677862Y-84415757D01*
X133677591Y-84157256D01*
X133675897Y-83952895D01*
X133672459Y-83795634D01*
X133666957Y-83678434D01*
X133659069Y-83594255D01*
X133648475Y-83536057D01*
X133634854Y-83496802D01*
X133617886Y-83469449D01*
X133599112Y-83448815D01*
X133492907Y-83382812D01*
X133382144Y-83391777D01*
X133277549Y-83465920D01*
X133235224Y-83513754D01*
X133208245Y-83566592D01*
X133193191Y-83641846D01*
X133186645Y-83756928D01*
X133185187Y-83929252D01*
X133185186Y-83936290D01*
X133185186Y-84314297D01*
X131529482Y-84314297D01*
X131529482Y-83919186D01*
X131527792Y-83737159D01*
X131521007Y-83614249D01*
X131506548Y-83534357D01*
X131481842Y-83481383D01*
X131454223Y-83448815D01*
X131348018Y-83382812D01*
X131237255Y-83391777D01*
G36*
X161038074Y-62174740D02*
G01*
X160696237Y-62293262D01*
X160377974Y-62479815D01*
X160093738Y-62734375D01*
X159853979Y-63056918D01*
X159746279Y-63260215D01*
X159653070Y-63544572D01*
X159607892Y-63872851D01*
X159612896Y-64210342D01*
X159668444Y-64516166D01*
X159820269Y-64889873D01*
X160040430Y-65214037D01*
X160317736Y-65482279D01*
X160640996Y-65688222D01*
X160999023Y-65825487D01*
X161380625Y-65887695D01*
X161774612Y-65868470D01*
X161968818Y-65827383D01*
X162347308Y-65680151D01*
X162683469Y-65455483D01*
X162969191Y-65160305D01*
X163196366Y-64801544D01*
X163215586Y-64762365D01*
X163282029Y-64615342D01*
X163323748Y-64491517D01*
X163346398Y-64360892D01*
X163355636Y-64193466D01*
X163357169Y-64011290D01*
X163354634Y-63792414D01*
X163343190Y-63634182D01*
X163317083Y-63506254D01*
X163270554Y-63378289D01*
X163213121Y-63252039D01*
X162998896Y-62893650D01*
X162735086Y-62603466D01*
X162432144Y-62381461D01*
X162100521Y-62227610D01*
X161750667Y-62141890D01*
X161393034Y-62124275D01*
X161038074Y-62174740D01*
X161038074Y-62174740D01*
G37*
X161038074Y-62174740D02*
X160696237Y-62293262D01*
X160377974Y-62479815D01*
X160093738Y-62734375D01*
X159853979Y-63056918D01*
X159746279Y-63260215D01*
X159653070Y-63544572D01*
X159607892Y-63872851D01*
X159612896Y-64210342D01*
X159668444Y-64516166D01*
X159820269Y-64889873D01*
X160040430Y-65214037D01*
X160317736Y-65482279D01*
X160640996Y-65688222D01*
X160999023Y-65825487D01*
X161380625Y-65887695D01*
X161774612Y-65868470D01*
X161968818Y-65827383D01*
X162347308Y-65680151D01*
X162683469Y-65455483D01*
X162969191Y-65160305D01*
X163196366Y-64801544D01*
X163215586Y-64762365D01*
X163282029Y-64615342D01*
X163323748Y-64491517D01*
X163346398Y-64360892D01*
X163355636Y-64193466D01*
X163357169Y-64011290D01*
X163354634Y-63792414D01*
X163343190Y-63634182D01*
X163317083Y-63506254D01*
X163270554Y-63378289D01*
X163213121Y-63252039D01*
X162998896Y-62893650D01*
X162735086Y-62603466D01*
X162432144Y-62381461D01*
X162100521Y-62227610D01*
X161750667Y-62141890D01*
X161393034Y-62124275D01*
X161038074Y-62174740D01*
G36*
X129315055Y-65226030D02*
G01*
X128927910Y-65227618D01*
X128796327Y-65228420D01*
X126986918Y-65240322D01*
X126964158Y-72182079D01*
X126961152Y-73123401D01*
X126958486Y-73978107D01*
X126955990Y-74750619D01*
X126953490Y-75445356D01*
X126950818Y-76066742D01*
X126947800Y-76619198D01*
X126944267Y-77107144D01*
X126940046Y-77535003D01*
X126934967Y-77907196D01*
X126928858Y-78228145D01*
X126921548Y-78502271D01*
X126912866Y-78733996D01*
X126902640Y-78927741D01*
X126890700Y-79087927D01*
X126876874Y-79218977D01*
X126860991Y-79325311D01*
X126842879Y-79411352D01*
X126822368Y-79481520D01*
X126799286Y-79540238D01*
X126773462Y-79591926D01*
X126744725Y-79641007D01*
X126712903Y-79691901D01*
X126677825Y-79749031D01*
X126670635Y-79761199D01*
X126550007Y-79967036D01*
X130036739Y-79943190D01*
X130059499Y-79560237D01*
X130071891Y-79376455D01*
X130084805Y-79270204D01*
X130102328Y-79228044D01*
X130128546Y-79236537D01*
X130150538Y-79260830D01*
X130246339Y-79349319D01*
X130402478Y-79463061D01*
X130596958Y-79588466D01*
X130807781Y-79711944D01*
X131012947Y-79819905D01*
X131170478Y-79890935D01*
X131539543Y-80007658D01*
X131962989Y-80090340D01*
X132409556Y-80135824D01*
X132847982Y-80140948D01*
X133247008Y-80102554D01*
X133253578Y-80101455D01*
X133799578Y-79964449D01*
X134310687Y-79746167D01*
X134781976Y-79451301D01*
X135208513Y-79084543D01*
X135585370Y-78650585D01*
X135907617Y-78154120D01*
X136170324Y-77599839D01*
X136313360Y-77189247D01*
X136407685Y-76845742D01*
X136477636Y-76513112D01*
X136525351Y-76171150D01*
X136552969Y-75799651D01*
X136562629Y-75378408D01*
X136558351Y-75034436D01*
X133199457Y-75034436D01*
X133183563Y-75611220D01*
X133133422Y-76107445D01*
X133047494Y-76527516D01*
X132924236Y-76875836D01*
X132762104Y-77156811D01*
X132559556Y-77374843D01*
X132325757Y-77528975D01*
X132204100Y-77586515D01*
X132098588Y-77621012D01*
X131980954Y-77636794D01*
X131822929Y-77638192D01*
X131652689Y-77632047D01*
X131317898Y-77602517D01*
X131053109Y-77544689D01*
X130969893Y-77515722D01*
X130779875Y-77430170D01*
X130579462Y-77322738D01*
X130491936Y-77268960D01*
X130264337Y-77119675D01*
X130264337Y-72387843D01*
X130514696Y-72237775D01*
X130863847Y-72068204D01*
X131220569Y-71967919D01*
X131571817Y-71936326D01*
X131904545Y-71972836D01*
X132205705Y-72076855D01*
X132462252Y-72247793D01*
X132545031Y-72329843D01*
X132744563Y-72598686D01*
X132906060Y-72924118D01*
X133030871Y-73311718D01*
X133120345Y-73767064D01*
X133175834Y-74295735D01*
X133198685Y-74903307D01*
X133199457Y-75034436D01*
X136558351Y-75034436D01*
X136556569Y-74891260D01*
X136518196Y-74141931D01*
X136441037Y-73466046D01*
X136323059Y-72853761D01*
X136162231Y-72295229D01*
X135956521Y-71780605D01*
X135883114Y-71628036D01*
X135587432Y-71130494D01*
X135230116Y-70688346D01*
X134819568Y-70308729D01*
X134364187Y-69998780D01*
X133872377Y-69765637D01*
X133577568Y-69669464D01*
X133288036Y-69612370D01*
X132939659Y-69578401D01*
X132561643Y-69567542D01*
X132183192Y-69579777D01*
X131833513Y-69615091D01*
X131552747Y-69670492D01*
X131218571Y-69779136D01*
X130894675Y-69918845D01*
X130611292Y-70075466D01*
X130460465Y-70181763D01*
X130356427Y-70260806D01*
X130283578Y-70308935D01*
X130267007Y-70315770D01*
X130261869Y-70271735D01*
X130257078Y-70145565D01*
X130252741Y-69946164D01*
X130248964Y-69682437D01*
X130245853Y-69363289D01*
X130243515Y-68997623D01*
X130242054Y-68594344D01*
X130241578Y-68183578D01*
X130241844Y-67657459D01*
X130243153Y-67213895D01*
X130246269Y-66844401D01*
X130251958Y-66540493D01*
X130260985Y-66293687D01*
X130274114Y-66095498D01*
X130292111Y-65937442D01*
X130315741Y-65811034D01*
X130345768Y-65707790D01*
X130382958Y-65619226D01*
X130428077Y-65536858D01*
X130481888Y-65452201D01*
X130488811Y-65441719D01*
X130558215Y-65332075D01*
X130600117Y-65256679D01*
X130605735Y-65240776D01*
X130561829Y-65235758D01*
X130436552Y-65231676D01*
X130239571Y-65228597D01*
X129980551Y-65226585D01*
X129669157Y-65225707D01*
X129315055Y-65226030D01*
X129315055Y-65226030D01*
G37*
X129315055Y-65226030D02*
X128927910Y-65227618D01*
X128796327Y-65228420D01*
X126986918Y-65240322D01*
X126964158Y-72182079D01*
X126961152Y-73123401D01*
X126958486Y-73978107D01*
X126955990Y-74750619D01*
X126953490Y-75445356D01*
X126950818Y-76066742D01*
X126947800Y-76619198D01*
X126944267Y-77107144D01*
X126940046Y-77535003D01*
X126934967Y-77907196D01*
X126928858Y-78228145D01*
X126921548Y-78502271D01*
X126912866Y-78733996D01*
X126902640Y-78927741D01*
X126890700Y-79087927D01*
X126876874Y-79218977D01*
X126860991Y-79325311D01*
X126842879Y-79411352D01*
X126822368Y-79481520D01*
X126799286Y-79540238D01*
X126773462Y-79591926D01*
X126744725Y-79641007D01*
X126712903Y-79691901D01*
X126677825Y-79749031D01*
X126670635Y-79761199D01*
X126550007Y-79967036D01*
X130036739Y-79943190D01*
X130059499Y-79560237D01*
X130071891Y-79376455D01*
X130084805Y-79270204D01*
X130102328Y-79228044D01*
X130128546Y-79236537D01*
X130150538Y-79260830D01*
X130246339Y-79349319D01*
X130402478Y-79463061D01*
X130596958Y-79588466D01*
X130807781Y-79711944D01*
X131012947Y-79819905D01*
X131170478Y-79890935D01*
X131539543Y-80007658D01*
X131962989Y-80090340D01*
X132409556Y-80135824D01*
X132847982Y-80140948D01*
X133247008Y-80102554D01*
X133253578Y-80101455D01*
X133799578Y-79964449D01*
X134310687Y-79746167D01*
X134781976Y-79451301D01*
X135208513Y-79084543D01*
X135585370Y-78650585D01*
X135907617Y-78154120D01*
X136170324Y-77599839D01*
X136313360Y-77189247D01*
X136407685Y-76845742D01*
X136477636Y-76513112D01*
X136525351Y-76171150D01*
X136552969Y-75799651D01*
X136562629Y-75378408D01*
X136558351Y-75034436D01*
X133199457Y-75034436D01*
X133183563Y-75611220D01*
X133133422Y-76107445D01*
X133047494Y-76527516D01*
X132924236Y-76875836D01*
X132762104Y-77156811D01*
X132559556Y-77374843D01*
X132325757Y-77528975D01*
X132204100Y-77586515D01*
X132098588Y-77621012D01*
X131980954Y-77636794D01*
X131822929Y-77638192D01*
X131652689Y-77632047D01*
X131317898Y-77602517D01*
X131053109Y-77544689D01*
X130969893Y-77515722D01*
X130779875Y-77430170D01*
X130579462Y-77322738D01*
X130491936Y-77268960D01*
X130264337Y-77119675D01*
X130264337Y-72387843D01*
X130514696Y-72237775D01*
X130863847Y-72068204D01*
X131220569Y-71967919D01*
X131571817Y-71936326D01*
X131904545Y-71972836D01*
X132205705Y-72076855D01*
X132462252Y-72247793D01*
X132545031Y-72329843D01*
X132744563Y-72598686D01*
X132906060Y-72924118D01*
X133030871Y-73311718D01*
X133120345Y-73767064D01*
X133175834Y-74295735D01*
X133198685Y-74903307D01*
X133199457Y-75034436D01*
X136558351Y-75034436D01*
X136556569Y-74891260D01*
X136518196Y-74141931D01*
X136441037Y-73466046D01*
X136323059Y-72853761D01*
X136162231Y-72295229D01*
X135956521Y-71780605D01*
X135883114Y-71628036D01*
X135587432Y-71130494D01*
X135230116Y-70688346D01*
X134819568Y-70308729D01*
X134364187Y-69998780D01*
X133872377Y-69765637D01*
X133577568Y-69669464D01*
X133288036Y-69612370D01*
X132939659Y-69578401D01*
X132561643Y-69567542D01*
X132183192Y-69579777D01*
X131833513Y-69615091D01*
X131552747Y-69670492D01*
X131218571Y-69779136D01*
X130894675Y-69918845D01*
X130611292Y-70075466D01*
X130460465Y-70181763D01*
X130356427Y-70260806D01*
X130283578Y-70308935D01*
X130267007Y-70315770D01*
X130261869Y-70271735D01*
X130257078Y-70145565D01*
X130252741Y-69946164D01*
X130248964Y-69682437D01*
X130245853Y-69363289D01*
X130243515Y-68997623D01*
X130242054Y-68594344D01*
X130241578Y-68183578D01*
X130241844Y-67657459D01*
X130243153Y-67213895D01*
X130246269Y-66844401D01*
X130251958Y-66540493D01*
X130260985Y-66293687D01*
X130274114Y-66095498D01*
X130292111Y-65937442D01*
X130315741Y-65811034D01*
X130345768Y-65707790D01*
X130382958Y-65619226D01*
X130428077Y-65536858D01*
X130481888Y-65452201D01*
X130488811Y-65441719D01*
X130558215Y-65332075D01*
X130600117Y-65256679D01*
X130605735Y-65240776D01*
X130561829Y-65235758D01*
X130436552Y-65231676D01*
X130239571Y-65228597D01*
X129980551Y-65226585D01*
X129669157Y-65225707D01*
X129315055Y-65226030D01*
G36*
X141498415Y-69560613D02*
G01*
X141272880Y-69577685D01*
X140627597Y-69663537D01*
X140056131Y-69800471D01*
X139555700Y-69990371D01*
X139123519Y-70235120D01*
X138756806Y-70536603D01*
X138452777Y-70896704D01*
X138208648Y-71317307D01*
X138030381Y-71772401D01*
X137985131Y-71917569D01*
X137945727Y-72053512D01*
X137911705Y-72187548D01*
X137882601Y-72326998D01*
X137857950Y-72479180D01*
X137837287Y-72651412D01*
X137820149Y-72851015D01*
X137806070Y-73085305D01*
X137794586Y-73361603D01*
X137785232Y-73687227D01*
X137777544Y-74069496D01*
X137771057Y-74515729D01*
X137765308Y-75033245D01*
X137759830Y-75629363D01*
X137755914Y-76096774D01*
X137729570Y-79305914D01*
X137558871Y-79614739D01*
X137478041Y-79763518D01*
X137417890Y-79879080D01*
X137389194Y-79940590D01*
X137388173Y-79944757D01*
X137432033Y-79949525D01*
X137556982Y-79953919D01*
X137753065Y-79957814D01*
X138010333Y-79961088D01*
X138318833Y-79963616D01*
X138668612Y-79965275D01*
X139049721Y-79965942D01*
X139095162Y-79965950D01*
X140802151Y-79965950D01*
X140802151Y-79579032D01*
X140805062Y-79404178D01*
X140812829Y-79270451D01*
X140824006Y-79198752D01*
X140828946Y-79192114D01*
X140874128Y-79219917D01*
X140967115Y-79292885D01*
X141087974Y-79395359D01*
X141090684Y-79397730D01*
X141311237Y-79561933D01*
X141589778Y-79726815D01*
X141894833Y-79876177D01*
X142194929Y-79993821D01*
X142327061Y-80034024D01*
X142590015Y-80085086D01*
X142912671Y-80117670D01*
X143265494Y-80131311D01*
X143618947Y-80125545D01*
X143943493Y-80099908D01*
X144170610Y-80063018D01*
X144727576Y-79899460D01*
X145228995Y-79666365D01*
X145671601Y-79366623D01*
X146052132Y-79003127D01*
X146367323Y-78578769D01*
X146613912Y-78096440D01*
X146720292Y-77803763D01*
X146786962Y-77519294D01*
X146831145Y-77177797D01*
X146851588Y-76810773D01*
X146850916Y-76757367D01*
X143772312Y-76757367D01*
X143746783Y-77030088D01*
X143661775Y-77256737D01*
X143504659Y-77467013D01*
X143444315Y-77528672D01*
X143229800Y-77695368D01*
X142981859Y-77802156D01*
X142684811Y-77853849D01*
X142372002Y-77857654D01*
X142075310Y-77832523D01*
X141848146Y-77783368D01*
X141749490Y-77746448D01*
X141571675Y-77645826D01*
X141383271Y-77504315D01*
X141211375Y-77345492D01*
X141083082Y-77192933D01*
X141049015Y-77136969D01*
X141022532Y-77058595D01*
X141003703Y-76933888D01*
X140991652Y-76750933D01*
X140985500Y-76497820D01*
X140984230Y-76256925D01*
X140985090Y-75976073D01*
X140988566Y-75772998D01*
X140995997Y-75634443D01*
X141008724Y-75547154D01*
X141028089Y-75497876D01*
X141055432Y-75473354D01*
X141063889Y-75469449D01*
X141137382Y-75457421D01*
X141282332Y-75447583D01*
X141479166Y-75440822D01*
X141708310Y-75438025D01*
X141758065Y-75438022D01*
X142064357Y-75442910D01*
X142300988Y-75457449D01*
X142489015Y-75483628D01*
X142644329Y-75521863D01*
X143029590Y-75667559D01*
X143331711Y-75846684D01*
X143553309Y-76062103D01*
X143696998Y-76316683D01*
X143765396Y-76613287D01*
X143772312Y-76757367D01*
X146850916Y-76757367D01*
X146847040Y-76449723D01*
X146816246Y-76126148D01*
X146792226Y-75995420D01*
X146638850Y-75510029D01*
X146405627Y-75063423D01*
X146096961Y-74659886D01*
X145717253Y-74303702D01*
X145270905Y-73999153D01*
X144762321Y-73750524D01*
X144329929Y-73599545D01*
X144040943Y-73520226D01*
X143764530Y-73458592D01*
X143482785Y-73412642D01*
X143177804Y-73380374D01*
X142831684Y-73359786D01*
X142426521Y-73348877D01*
X142060213Y-73345805D01*
X140974010Y-73342831D01*
X140994817Y-73016330D01*
X141053905Y-72662071D01*
X141179598Y-72357572D01*
X141366545Y-72110436D01*
X141609394Y-71928266D01*
X141823227Y-71839373D01*
X142129608Y-71783349D01*
X142494343Y-71775304D01*
X142900334Y-71812272D01*
X143330482Y-71891286D01*
X143767691Y-72009382D01*
X144194863Y-72163592D01*
X144505293Y-72304630D01*
X144654648Y-72377052D01*
X144768569Y-72427634D01*
X144826504Y-72447371D01*
X144829649Y-72446738D01*
X144849641Y-72402529D01*
X144899563Y-72285350D01*
X144974717Y-72106425D01*
X145070405Y-71876983D01*
X145181930Y-71608249D01*
X145295293Y-71333992D01*
X145748505Y-70235547D01*
X145426134Y-70182598D01*
X145286409Y-70156031D01*
X145076362Y-70111412D01*
X144813987Y-70052789D01*
X144517278Y-69984214D01*
X144204228Y-69909737D01*
X144079570Y-69879471D01*
X143540270Y-69754385D01*
X143068113Y-69660604D01*
X142645475Y-69596231D01*
X142254730Y-69559371D01*
X141878252Y-69548130D01*
X141498415Y-69560613D01*
X141498415Y-69560613D01*
G37*
X141498415Y-69560613D02*
X141272880Y-69577685D01*
X140627597Y-69663537D01*
X140056131Y-69800471D01*
X139555700Y-69990371D01*
X139123519Y-70235120D01*
X138756806Y-70536603D01*
X138452777Y-70896704D01*
X138208648Y-71317307D01*
X138030381Y-71772401D01*
X137985131Y-71917569D01*
X137945727Y-72053512D01*
X137911705Y-72187548D01*
X137882601Y-72326998D01*
X137857950Y-72479180D01*
X137837287Y-72651412D01*
X137820149Y-72851015D01*
X137806070Y-73085305D01*
X137794586Y-73361603D01*
X137785232Y-73687227D01*
X137777544Y-74069496D01*
X137771057Y-74515729D01*
X137765308Y-75033245D01*
X137759830Y-75629363D01*
X137755914Y-76096774D01*
X137729570Y-79305914D01*
X137558871Y-79614739D01*
X137478041Y-79763518D01*
X137417890Y-79879080D01*
X137389194Y-79940590D01*
X137388173Y-79944757D01*
X137432033Y-79949525D01*
X137556982Y-79953919D01*
X137753065Y-79957814D01*
X138010333Y-79961088D01*
X138318833Y-79963616D01*
X138668612Y-79965275D01*
X139049721Y-79965942D01*
X139095162Y-79965950D01*
X140802151Y-79965950D01*
X140802151Y-79579032D01*
X140805062Y-79404178D01*
X140812829Y-79270451D01*
X140824006Y-79198752D01*
X140828946Y-79192114D01*
X140874128Y-79219917D01*
X140967115Y-79292885D01*
X141087974Y-79395359D01*
X141090684Y-79397730D01*
X141311237Y-79561933D01*
X141589778Y-79726815D01*
X141894833Y-79876177D01*
X142194929Y-79993821D01*
X142327061Y-80034024D01*
X142590015Y-80085086D01*
X142912671Y-80117670D01*
X143265494Y-80131311D01*
X143618947Y-80125545D01*
X143943493Y-80099908D01*
X144170610Y-80063018D01*
X144727576Y-79899460D01*
X145228995Y-79666365D01*
X145671601Y-79366623D01*
X146052132Y-79003127D01*
X146367323Y-78578769D01*
X146613912Y-78096440D01*
X146720292Y-77803763D01*
X146786962Y-77519294D01*
X146831145Y-77177797D01*
X146851588Y-76810773D01*
X146850916Y-76757367D01*
X143772312Y-76757367D01*
X143746783Y-77030088D01*
X143661775Y-77256737D01*
X143504659Y-77467013D01*
X143444315Y-77528672D01*
X143229800Y-77695368D01*
X142981859Y-77802156D01*
X142684811Y-77853849D01*
X142372002Y-77857654D01*
X142075310Y-77832523D01*
X141848146Y-77783368D01*
X141749490Y-77746448D01*
X141571675Y-77645826D01*
X141383271Y-77504315D01*
X141211375Y-77345492D01*
X141083082Y-77192933D01*
X141049015Y-77136969D01*
X141022532Y-77058595D01*
X141003703Y-76933888D01*
X140991652Y-76750933D01*
X140985500Y-76497820D01*
X140984230Y-76256925D01*
X140985090Y-75976073D01*
X140988566Y-75772998D01*
X140995997Y-75634443D01*
X141008724Y-75547154D01*
X141028089Y-75497876D01*
X141055432Y-75473354D01*
X141063889Y-75469449D01*
X141137382Y-75457421D01*
X141282332Y-75447583D01*
X141479166Y-75440822D01*
X141708310Y-75438025D01*
X141758065Y-75438022D01*
X142064357Y-75442910D01*
X142300988Y-75457449D01*
X142489015Y-75483628D01*
X142644329Y-75521863D01*
X143029590Y-75667559D01*
X143331711Y-75846684D01*
X143553309Y-76062103D01*
X143696998Y-76316683D01*
X143765396Y-76613287D01*
X143772312Y-76757367D01*
X146850916Y-76757367D01*
X146847040Y-76449723D01*
X146816246Y-76126148D01*
X146792226Y-75995420D01*
X146638850Y-75510029D01*
X146405627Y-75063423D01*
X146096961Y-74659886D01*
X145717253Y-74303702D01*
X145270905Y-73999153D01*
X144762321Y-73750524D01*
X144329929Y-73599545D01*
X144040943Y-73520226D01*
X143764530Y-73458592D01*
X143482785Y-73412642D01*
X143177804Y-73380374D01*
X142831684Y-73359786D01*
X142426521Y-73348877D01*
X142060213Y-73345805D01*
X140974010Y-73342831D01*
X140994817Y-73016330D01*
X141053905Y-72662071D01*
X141179598Y-72357572D01*
X141366545Y-72110436D01*
X141609394Y-71928266D01*
X141823227Y-71839373D01*
X142129608Y-71783349D01*
X142494343Y-71775304D01*
X142900334Y-71812272D01*
X143330482Y-71891286D01*
X143767691Y-72009382D01*
X144194863Y-72163592D01*
X144505293Y-72304630D01*
X144654648Y-72377052D01*
X144768569Y-72427634D01*
X144826504Y-72447371D01*
X144829649Y-72446738D01*
X144849641Y-72402529D01*
X144899563Y-72285350D01*
X144974717Y-72106425D01*
X145070405Y-71876983D01*
X145181930Y-71608249D01*
X145295293Y-71333992D01*
X145748505Y-70235547D01*
X145426134Y-70182598D01*
X145286409Y-70156031D01*
X145076362Y-70111412D01*
X144813987Y-70052789D01*
X144517278Y-69984214D01*
X144204228Y-69909737D01*
X144079570Y-69879471D01*
X143540270Y-69754385D01*
X143068113Y-69660604D01*
X142645475Y-69596231D01*
X142254730Y-69559371D01*
X141878252Y-69548130D01*
X141498415Y-69560613D01*
G36*
X150541345Y-65901295D02*
G01*
X150050490Y-65955032D01*
X149574934Y-66051216D01*
X149095333Y-66194862D01*
X148592340Y-66390989D01*
X148046610Y-66644612D01*
X147948331Y-66693739D01*
X147722794Y-66804850D01*
X147510081Y-66904899D01*
X147331187Y-66984332D01*
X147207106Y-67033592D01*
X147188045Y-67039794D01*
X147005377Y-67094523D01*
X147823074Y-68284089D01*
X148022990Y-68574825D01*
X148205769Y-68840450D01*
X148365195Y-69071947D01*
X148495052Y-69260297D01*
X148589125Y-69396483D01*
X148641198Y-69471485D01*
X148649658Y-69483364D01*
X148684019Y-69458528D01*
X148768601Y-69383867D01*
X148888277Y-69272942D01*
X148954324Y-69210245D01*
X149328529Y-68912613D01*
X149748789Y-68686446D01*
X150110932Y-68562562D01*
X150328321Y-68523655D01*
X150600511Y-68499946D01*
X150895489Y-68491873D01*
X151181240Y-68499877D01*
X151425752Y-68524397D01*
X151523322Y-68543175D01*
X151963088Y-68694474D01*
X152359370Y-68925493D01*
X152711874Y-69235808D01*
X153020306Y-69624998D01*
X153284374Y-70092640D01*
X153503784Y-70638312D01*
X153678243Y-71261591D01*
X153781925Y-71795161D01*
X153808976Y-72030711D01*
X153827406Y-72335007D01*
X153837395Y-72686182D01*
X153839121Y-73062370D01*
X153832761Y-73441703D01*
X153818494Y-73802314D01*
X153796498Y-74122337D01*
X153766950Y-74379904D01*
X153760554Y-74419644D01*
X153619582Y-75059767D01*
X153427507Y-75626306D01*
X153183162Y-76121797D01*
X152885376Y-76548780D01*
X152674000Y-76779625D01*
X152294124Y-77093046D01*
X151877520Y-77325367D01*
X151431216Y-77475325D01*
X150962239Y-77541656D01*
X150477617Y-77523095D01*
X149984378Y-77418377D01*
X149692767Y-77315912D01*
X149289224Y-77110727D01*
X148873300Y-76816395D01*
X148640318Y-76617353D01*
X148509498Y-76502151D01*
X148406716Y-76417632D01*
X148348212Y-76376906D01*
X148340950Y-76375663D01*
X148314838Y-76417278D01*
X148247179Y-76527247D01*
X148143738Y-76696142D01*
X148010278Y-76914536D01*
X147852562Y-77173000D01*
X147676356Y-77462108D01*
X147578277Y-77623160D01*
X146829122Y-78853669D01*
X147764472Y-79315916D01*
X148102660Y-79481954D01*
X148376621Y-79612882D01*
X148603101Y-79715204D01*
X148798848Y-79795422D01*
X148980606Y-79860038D01*
X149165123Y-79915555D01*
X149369144Y-79968476D01*
X149564696Y-80014949D01*
X149738508Y-80050909D01*
X149920280Y-80078085D01*
X150128211Y-80097985D01*
X150380495Y-80112116D01*
X150695332Y-80121987D01*
X150907527Y-80126248D01*
X151210295Y-80129156D01*
X151500611Y-80127690D01*
X151759262Y-80122267D01*
X151967037Y-80113306D01*
X152104723Y-80101225D01*
X152112882Y-80100020D01*
X152827848Y-79945341D01*
X153499251Y-79710749D01*
X154126853Y-79396398D01*
X154710419Y-79002444D01*
X155249713Y-78529040D01*
X155744499Y-77976342D01*
X156102835Y-77485125D01*
X156484315Y-76842164D01*
X156792685Y-76163159D01*
X157029436Y-75442667D01*
X157196060Y-74675243D01*
X157294047Y-73855445D01*
X157324918Y-73022999D01*
X157299528Y-72217723D01*
X157219740Y-71474737D01*
X157083019Y-70781509D01*
X156886828Y-70125506D01*
X156628634Y-69494196D01*
X156597804Y-69428791D01*
X156258157Y-68817399D01*
X155840996Y-68235599D01*
X155358141Y-67695433D01*
X154821410Y-67208944D01*
X154242623Y-66788174D01*
X153703311Y-66479524D01*
X153158493Y-66237783D01*
X152612518Y-66062672D01*
X152044252Y-65949421D01*
X151432558Y-65893267D01*
X151066846Y-65884987D01*
X150541345Y-65901295D01*
X150541345Y-65901295D01*
G37*
X150541345Y-65901295D02*
X150050490Y-65955032D01*
X149574934Y-66051216D01*
X149095333Y-66194862D01*
X148592340Y-66390989D01*
X148046610Y-66644612D01*
X147948331Y-66693739D01*
X147722794Y-66804850D01*
X147510081Y-66904899D01*
X147331187Y-66984332D01*
X147207106Y-67033592D01*
X147188045Y-67039794D01*
X147005377Y-67094523D01*
X147823074Y-68284089D01*
X148022990Y-68574825D01*
X148205769Y-68840450D01*
X148365195Y-69071947D01*
X148495052Y-69260297D01*
X148589125Y-69396483D01*
X148641198Y-69471485D01*
X148649658Y-69483364D01*
X148684019Y-69458528D01*
X148768601Y-69383867D01*
X148888277Y-69272942D01*
X148954324Y-69210245D01*
X149328529Y-68912613D01*
X149748789Y-68686446D01*
X150110932Y-68562562D01*
X150328321Y-68523655D01*
X150600511Y-68499946D01*
X150895489Y-68491873D01*
X151181240Y-68499877D01*
X151425752Y-68524397D01*
X151523322Y-68543175D01*
X151963088Y-68694474D01*
X152359370Y-68925493D01*
X152711874Y-69235808D01*
X153020306Y-69624998D01*
X153284374Y-70092640D01*
X153503784Y-70638312D01*
X153678243Y-71261591D01*
X153781925Y-71795161D01*
X153808976Y-72030711D01*
X153827406Y-72335007D01*
X153837395Y-72686182D01*
X153839121Y-73062370D01*
X153832761Y-73441703D01*
X153818494Y-73802314D01*
X153796498Y-74122337D01*
X153766950Y-74379904D01*
X153760554Y-74419644D01*
X153619582Y-75059767D01*
X153427507Y-75626306D01*
X153183162Y-76121797D01*
X152885376Y-76548780D01*
X152674000Y-76779625D01*
X152294124Y-77093046D01*
X151877520Y-77325367D01*
X151431216Y-77475325D01*
X150962239Y-77541656D01*
X150477617Y-77523095D01*
X149984378Y-77418377D01*
X149692767Y-77315912D01*
X149289224Y-77110727D01*
X148873300Y-76816395D01*
X148640318Y-76617353D01*
X148509498Y-76502151D01*
X148406716Y-76417632D01*
X148348212Y-76376906D01*
X148340950Y-76375663D01*
X148314838Y-76417278D01*
X148247179Y-76527247D01*
X148143738Y-76696142D01*
X148010278Y-76914536D01*
X147852562Y-77173000D01*
X147676356Y-77462108D01*
X147578277Y-77623160D01*
X146829122Y-78853669D01*
X147764472Y-79315916D01*
X148102660Y-79481954D01*
X148376621Y-79612882D01*
X148603101Y-79715204D01*
X148798848Y-79795422D01*
X148980606Y-79860038D01*
X149165123Y-79915555D01*
X149369144Y-79968476D01*
X149564696Y-80014949D01*
X149738508Y-80050909D01*
X149920280Y-80078085D01*
X150128211Y-80097985D01*
X150380495Y-80112116D01*
X150695332Y-80121987D01*
X150907527Y-80126248D01*
X151210295Y-80129156D01*
X151500611Y-80127690D01*
X151759262Y-80122267D01*
X151967037Y-80113306D01*
X152104723Y-80101225D01*
X152112882Y-80100020D01*
X152827848Y-79945341D01*
X153499251Y-79710749D01*
X154126853Y-79396398D01*
X154710419Y-79002444D01*
X155249713Y-78529040D01*
X155744499Y-77976342D01*
X156102835Y-77485125D01*
X156484315Y-76842164D01*
X156792685Y-76163159D01*
X157029436Y-75442667D01*
X157196060Y-74675243D01*
X157294047Y-73855445D01*
X157324918Y-73022999D01*
X157299528Y-72217723D01*
X157219740Y-71474737D01*
X157083019Y-70781509D01*
X156886828Y-70125506D01*
X156628634Y-69494196D01*
X156597804Y-69428791D01*
X156258157Y-68817399D01*
X155840996Y-68235599D01*
X155358141Y-67695433D01*
X154821410Y-67208944D01*
X154242623Y-66788174D01*
X153703311Y-66479524D01*
X153158493Y-66237783D01*
X152612518Y-66062672D01*
X152044252Y-65949421D01*
X151432558Y-65893267D01*
X151066846Y-65884987D01*
X150541345Y-65901295D01*
G36*
X171745743Y-63624236D02*
G01*
X170868739Y-63624354D01*
X170460505Y-63624372D01*
X163926165Y-63624372D01*
X163926165Y-64009556D01*
X163885053Y-64478293D01*
X163760973Y-64910598D01*
X163552810Y-65309040D01*
X163259450Y-65676189D01*
X163160197Y-65775349D01*
X162803159Y-66056618D01*
X162409482Y-66261754D01*
X161990861Y-66390850D01*
X161558988Y-66443999D01*
X161125555Y-66421294D01*
X160702255Y-66322828D01*
X160300781Y-66148696D01*
X159932826Y-65898988D01*
X159767572Y-65748335D01*
X159459622Y-65378960D01*
X159233806Y-64972769D01*
X159092094Y-64534404D01*
X159036453Y-64068510D01*
X159035714Y-64022677D01*
X159032796Y-63624387D01*
X158857741Y-63624380D01*
X158702450Y-63645455D01*
X158560593Y-63696734D01*
X158551218Y-63702032D01*
X158519179Y-63718656D01*
X158489757Y-63731603D01*
X158462847Y-63744644D01*
X158438342Y-63761550D01*
X158416135Y-63786092D01*
X158396120Y-63822041D01*
X158378192Y-63873169D01*
X158362243Y-63943245D01*
X158348168Y-64036043D01*
X158335859Y-64155332D01*
X158325212Y-64304884D01*
X158316118Y-64488469D01*
X158308473Y-64709860D01*
X158302169Y-64972827D01*
X158297100Y-65281141D01*
X158293161Y-65638573D01*
X158290244Y-66048895D01*
X158288244Y-66515878D01*
X158287054Y-67043292D01*
X158286567Y-67634909D01*
X158286678Y-68294501D01*
X158287279Y-69025837D01*
X158288266Y-69832689D01*
X158289531Y-70718829D01*
X158290968Y-71688028D01*
X158292470Y-72744056D01*
X158292645Y-72872715D01*
X158293992Y-73935478D01*
X158295135Y-74910971D01*
X158296195Y-75802964D01*
X158297294Y-76615226D01*
X158298551Y-77351528D01*
X158300088Y-78015637D01*
X158302027Y-78611324D01*
X158304488Y-79142359D01*
X158307592Y-79612509D01*
X158311460Y-80025546D01*
X158316214Y-80385238D01*
X158321975Y-80695355D01*
X158328863Y-80959666D01*
X158337000Y-81181940D01*
X158346506Y-81365948D01*
X158357503Y-81515458D01*
X158370112Y-81634240D01*
X158384454Y-81726063D01*
X158400650Y-81794696D01*
X158418821Y-81843910D01*
X158439088Y-81877474D01*
X158461572Y-81899156D01*
X158486394Y-81912726D01*
X158513676Y-81921955D01*
X158543538Y-81930610D01*
X158576101Y-81942462D01*
X158584056Y-81946070D01*
X158609057Y-81954177D01*
X158650901Y-81961626D01*
X158713243Y-81968443D01*
X158799736Y-81974655D01*
X158914033Y-81980288D01*
X159059788Y-81985368D01*
X159240656Y-81989923D01*
X159460290Y-81993979D01*
X159722343Y-81997561D01*
X160030469Y-82000698D01*
X160388322Y-82003415D01*
X160799556Y-82005739D01*
X161267824Y-82007696D01*
X161796780Y-82009312D01*
X162390077Y-82010616D01*
X163051370Y-82011632D01*
X163784313Y-82012387D01*
X164592558Y-82012909D01*
X165479760Y-82013223D01*
X166449571Y-82013355D01*
X167505647Y-82013334D01*
X167847740Y-82013300D01*
X168927244Y-82013127D01*
X169919407Y-82012844D01*
X170827925Y-82012421D01*
X171656495Y-82011831D01*
X172408816Y-82011044D01*
X173088585Y-82010031D01*
X173699499Y-82008763D01*
X174245256Y-82007212D01*
X174729552Y-82005349D01*
X175156086Y-82003144D01*
X175528555Y-82000569D01*
X175850656Y-81997595D01*
X176126087Y-81994193D01*
X176358545Y-81990334D01*
X176551728Y-81985990D01*
X176709332Y-81981130D01*
X176835056Y-81975727D01*
X176932597Y-81969752D01*
X177005652Y-81963176D01*
X177057919Y-81955969D01*
X177093095Y-81948103D01*
X177112271Y-81940900D01*
X177146352Y-81926527D01*
X177177645Y-81915928D01*
X177206267Y-81905339D01*
X177232337Y-81890995D01*
X177255974Y-81869133D01*
X177277295Y-81835989D01*
X177296420Y-81787799D01*
X177313467Y-81720798D01*
X177328554Y-81631222D01*
X177341800Y-81515308D01*
X177353323Y-81369290D01*
X177363242Y-81189407D01*
X177371675Y-80971892D01*
X177378741Y-80712982D01*
X177384558Y-80408913D01*
X177389245Y-80055921D01*
X177390472Y-79920430D01*
X176175601Y-79920430D01*
X171881645Y-79920430D01*
X171964268Y-79795251D01*
X172046462Y-79666613D01*
X172116066Y-79544116D01*
X172174068Y-79419187D01*
X172221461Y-79283255D01*
X172259233Y-79127746D01*
X172288375Y-78944088D01*
X172309876Y-78723708D01*
X172324728Y-78458033D01*
X172333919Y-78138492D01*
X172338440Y-77756512D01*
X172339281Y-77303519D01*
X172337432Y-76770943D01*
X172336383Y-76573220D01*
X172324552Y-74453539D01*
X170981721Y-76281684D01*
X170601299Y-76800306D01*
X170271709Y-77251905D01*
X169989391Y-77642464D01*
X169750789Y-77977967D01*
X169552341Y-78264395D01*
X169390491Y-78507733D01*
X169261678Y-78713964D01*
X169162344Y-78889069D01*
X169088931Y-79039033D01*
X169037879Y-79169838D01*
X169005630Y-79287467D01*
X168988625Y-79397903D01*
X168983305Y-79507129D01*
X168986112Y-79621128D01*
X168986828Y-79635457D01*
X169001613Y-79920621D01*
X166648727Y-79920525D01*
X164295841Y-79920430D01*
X164645860Y-79567499D01*
X164740840Y-79470970D01*
X164830943Y-79377042D01*
X164920126Y-79280537D01*
X165012340Y-79176274D01*
X165111542Y-79059072D01*
X165221685Y-78923752D01*
X165346723Y-78765134D01*
X165490612Y-78578038D01*
X165657304Y-78357283D01*
X165850756Y-78097689D01*
X166074920Y-77794077D01*
X166333751Y-77441266D01*
X166631204Y-77034077D01*
X166971232Y-76567328D01*
X167357791Y-76035841D01*
X167674636Y-75599866D01*
X168072287Y-75052153D01*
X168419180Y-74573262D01*
X168718457Y-74158645D01*
X168973261Y-73803756D01*
X169186734Y-73504049D01*
X169362019Y-73254977D01*
X169502259Y-73051993D01*
X169610595Y-72890551D01*
X169690171Y-72766104D01*
X169744128Y-72674105D01*
X169775610Y-72610007D01*
X169787759Y-72569264D01*
X169784107Y-72547844D01*
X169739855Y-72490840D01*
X169644180Y-72370180D01*
X169502855Y-72193034D01*
X169321653Y-71966575D01*
X169106346Y-71697974D01*
X168862709Y-71394404D01*
X168596514Y-71063037D01*
X168313534Y-70711045D01*
X168019542Y-70345599D01*
X167720311Y-69973872D01*
X167555725Y-69769534D01*
X163469246Y-69769534D01*
X163129570Y-70384050D01*
X163129570Y-79305914D01*
X163469246Y-79920430D01*
X161460185Y-79920430D01*
X160980568Y-79920290D01*
X160584411Y-79919661D01*
X160264136Y-79918225D01*
X160012163Y-79915666D01*
X159820914Y-79911667D01*
X159682809Y-79905911D01*
X159590269Y-79898081D01*
X159535716Y-79887862D01*
X159511571Y-79874935D01*
X159510254Y-79858985D01*
X159524188Y-79839695D01*
X159524332Y-79839536D01*
X159581726Y-79756512D01*
X159657728Y-79621517D01*
X159724846Y-79486758D01*
X159852151Y-79214874D01*
X159865135Y-74492204D01*
X159878118Y-69769534D01*
X163469246Y-69769534D01*
X167555725Y-69769534D01*
X167421615Y-69603035D01*
X167129226Y-69240261D01*
X166848916Y-68892722D01*
X166586461Y-68567589D01*
X166347631Y-68272035D01*
X166138201Y-68013231D01*
X165963943Y-67798350D01*
X165830631Y-67634563D01*
X165752329Y-67539068D01*
X165448272Y-67181967D01*
X165155753Y-66859717D01*
X164885026Y-66582866D01*
X164646341Y-66361966D01*
X164476952Y-66226535D01*
X164276664Y-66082437D01*
X168883066Y-66082437D01*
X168881773Y-66352744D01*
X168894647Y-66551471D01*
X168943047Y-66735711D01*
X169017970Y-66910360D01*
X169066673Y-67009026D01*
X169119038Y-67106791D01*
X169179847Y-67210144D01*
X169253885Y-67325576D01*
X169345935Y-67459576D01*
X169460781Y-67618636D01*
X169603205Y-67809244D01*
X169777992Y-68037892D01*
X169989925Y-68311070D01*
X170243788Y-68635267D01*
X170544364Y-69016974D01*
X170896436Y-69462681D01*
X170936201Y-69512972D01*
X172324552Y-71268658D01*
X172337993Y-69324203D01*
X172340699Y-68741782D01*
X172340123Y-68248717D01*
X172336236Y-67843383D01*
X172329011Y-67524154D01*
X172318418Y-67289406D01*
X172304431Y-67137513D01*
X172299730Y-67108700D01*
X172225973Y-66805195D01*
X172129336Y-66531584D01*
X172019061Y-66311590D01*
X171952812Y-66218286D01*
X171838503Y-66082437D01*
X174007422Y-66082437D01*
X174524808Y-66082879D01*
X174957462Y-66084319D01*
X175311689Y-66086924D01*
X175593794Y-66090862D01*
X175810080Y-66096301D01*
X175966851Y-66103409D01*
X176070413Y-66112354D01*
X176127069Y-66123305D01*
X176143123Y-66136430D01*
X176142013Y-66139337D01*
X176096034Y-66208739D01*
X176019273Y-66318747D01*
X175979559Y-66374384D01*
X175938498Y-66429906D01*
X175901592Y-66479557D01*
X175868606Y-66528222D01*
X175839309Y-66580789D01*
X175813468Y-66642144D01*
X175790851Y-66717172D01*
X175771226Y-66810759D01*
X175754360Y-66927792D01*
X175740021Y-67073157D01*
X175727976Y-67251739D01*
X175717993Y-67468425D01*
X175709840Y-67728102D01*
X175703285Y-68035654D01*
X175698094Y-68395969D01*
X175694036Y-68813932D01*
X175690879Y-69294430D01*
X175688389Y-69842348D01*
X175686335Y-70462572D01*
X175684483Y-71159989D01*
X175682603Y-71939486D01*
X175680846Y-72655590D01*
X175679186Y-73453921D01*
X175678324Y-74215604D01*
X175678235Y-74935773D01*
X175678896Y-75609563D01*
X175680286Y-76232108D01*
X175682381Y-76798544D01*
X175685157Y-77304006D01*
X175688593Y-77743628D01*
X175692665Y-78112545D01*
X175697350Y-78405892D01*
X175702626Y-78618804D01*
X175708469Y-78746416D01*
X175709575Y-78759902D01*
X175749841Y-79069280D01*
X175812706Y-79317744D01*
X175908439Y-79534584D01*
X176047314Y-79749087D01*
X176064685Y-79772491D01*
X176175601Y-79920430D01*
X177390472Y-79920430D01*
X177392920Y-79650242D01*
X177395701Y-79188111D01*
X177397707Y-78665765D01*
X177399057Y-78079440D01*
X177399869Y-77425371D01*
X177400260Y-76699795D01*
X177400351Y-75898947D01*
X177400260Y-75019063D01*
X177400104Y-74056379D01*
X177400003Y-73007132D01*
X177400000Y-72798835D01*
X177399941Y-71738537D01*
X177399744Y-70765542D01*
X177399380Y-69876113D01*
X177398820Y-69066515D01*
X177398036Y-68333009D01*
X177396997Y-67671860D01*
X177395676Y-67079332D01*
X177394043Y-66551687D01*
X177392069Y-66085189D01*
X177389726Y-65676102D01*
X177386984Y-65320689D01*
X177383814Y-65015214D01*
X177380187Y-64755940D01*
X177376075Y-64539130D01*
X177371448Y-64361049D01*
X177366278Y-64217959D01*
X177360535Y-64106124D01*
X177354191Y-64021807D01*
X177347216Y-63961273D01*
X177339581Y-63920784D01*
X177331258Y-63896604D01*
X177330950Y-63896001D01*
X177313807Y-63859062D01*
X177299529Y-63825620D01*
X177283735Y-63795502D01*
X177262042Y-63768534D01*
X177230072Y-63744543D01*
X177183442Y-63723356D01*
X177117771Y-63704800D01*
X177028679Y-63688701D01*
X176911784Y-63674886D01*
X176762706Y-63663183D01*
X176577062Y-63653417D01*
X176350473Y-63645416D01*
X176078558Y-63639006D01*
X175756934Y-63634015D01*
X175381222Y-63630269D01*
X174947039Y-63627594D01*
X174450006Y-63625818D01*
X173885741Y-63624767D01*
X173249862Y-63624269D01*
X172537990Y-63624149D01*
X171745743Y-63624236D01*
X171745743Y-63624236D01*
G37*
X171745743Y-63624236D02*
X170868739Y-63624354D01*
X170460505Y-63624372D01*
X163926165Y-63624372D01*
X163926165Y-64009556D01*
X163885053Y-64478293D01*
X163760973Y-64910598D01*
X163552810Y-65309040D01*
X163259450Y-65676189D01*
X163160197Y-65775349D01*
X162803159Y-66056618D01*
X162409482Y-66261754D01*
X161990861Y-66390850D01*
X161558988Y-66443999D01*
X161125555Y-66421294D01*
X160702255Y-66322828D01*
X160300781Y-66148696D01*
X159932826Y-65898988D01*
X159767572Y-65748335D01*
X159459622Y-65378960D01*
X159233806Y-64972769D01*
X159092094Y-64534404D01*
X159036453Y-64068510D01*
X159035714Y-64022677D01*
X159032796Y-63624387D01*
X158857741Y-63624380D01*
X158702450Y-63645455D01*
X158560593Y-63696734D01*
X158551218Y-63702032D01*
X158519179Y-63718656D01*
X158489757Y-63731603D01*
X158462847Y-63744644D01*
X158438342Y-63761550D01*
X158416135Y-63786092D01*
X158396120Y-63822041D01*
X158378192Y-63873169D01*
X158362243Y-63943245D01*
X158348168Y-64036043D01*
X158335859Y-64155332D01*
X158325212Y-64304884D01*
X158316118Y-64488469D01*
X158308473Y-64709860D01*
X158302169Y-64972827D01*
X158297100Y-65281141D01*
X158293161Y-65638573D01*
X158290244Y-66048895D01*
X158288244Y-66515878D01*
X158287054Y-67043292D01*
X158286567Y-67634909D01*
X158286678Y-68294501D01*
X158287279Y-69025837D01*
X158288266Y-69832689D01*
X158289531Y-70718829D01*
X158290968Y-71688028D01*
X158292470Y-72744056D01*
X158292645Y-72872715D01*
X158293992Y-73935478D01*
X158295135Y-74910971D01*
X158296195Y-75802964D01*
X158297294Y-76615226D01*
X158298551Y-77351528D01*
X158300088Y-78015637D01*
X158302027Y-78611324D01*
X158304488Y-79142359D01*
X158307592Y-79612509D01*
X158311460Y-80025546D01*
X158316214Y-80385238D01*
X158321975Y-80695355D01*
X158328863Y-80959666D01*
X158337000Y-81181940D01*
X158346506Y-81365948D01*
X158357503Y-81515458D01*
X158370112Y-81634240D01*
X158384454Y-81726063D01*
X158400650Y-81794696D01*
X158418821Y-81843910D01*
X158439088Y-81877474D01*
X158461572Y-81899156D01*
X158486394Y-81912726D01*
X158513676Y-81921955D01*
X158543538Y-81930610D01*
X158576101Y-81942462D01*
X158584056Y-81946070D01*
X158609057Y-81954177D01*
X158650901Y-81961626D01*
X158713243Y-81968443D01*
X158799736Y-81974655D01*
X158914033Y-81980288D01*
X159059788Y-81985368D01*
X159240656Y-81989923D01*
X159460290Y-81993979D01*
X159722343Y-81997561D01*
X160030469Y-82000698D01*
X160388322Y-82003415D01*
X160799556Y-82005739D01*
X161267824Y-82007696D01*
X161796780Y-82009312D01*
X162390077Y-82010616D01*
X163051370Y-82011632D01*
X163784313Y-82012387D01*
X164592558Y-82012909D01*
X165479760Y-82013223D01*
X166449571Y-82013355D01*
X167505647Y-82013334D01*
X167847740Y-82013300D01*
X168927244Y-82013127D01*
X169919407Y-82012844D01*
X170827925Y-82012421D01*
X171656495Y-82011831D01*
X172408816Y-82011044D01*
X173088585Y-82010031D01*
X173699499Y-82008763D01*
X174245256Y-82007212D01*
X174729552Y-82005349D01*
X175156086Y-82003144D01*
X175528555Y-82000569D01*
X175850656Y-81997595D01*
X176126087Y-81994193D01*
X176358545Y-81990334D01*
X176551728Y-81985990D01*
X176709332Y-81981130D01*
X176835056Y-81975727D01*
X176932597Y-81969752D01*
X177005652Y-81963176D01*
X177057919Y-81955969D01*
X177093095Y-81948103D01*
X177112271Y-81940900D01*
X177146352Y-81926527D01*
X177177645Y-81915928D01*
X177206267Y-81905339D01*
X177232337Y-81890995D01*
X177255974Y-81869133D01*
X177277295Y-81835989D01*
X177296420Y-81787799D01*
X177313467Y-81720798D01*
X177328554Y-81631222D01*
X177341800Y-81515308D01*
X177353323Y-81369290D01*
X177363242Y-81189407D01*
X177371675Y-80971892D01*
X177378741Y-80712982D01*
X177384558Y-80408913D01*
X177389245Y-80055921D01*
X177390472Y-79920430D01*
X176175601Y-79920430D01*
X171881645Y-79920430D01*
X171964268Y-79795251D01*
X172046462Y-79666613D01*
X172116066Y-79544116D01*
X172174068Y-79419187D01*
X172221461Y-79283255D01*
X172259233Y-79127746D01*
X172288375Y-78944088D01*
X172309876Y-78723708D01*
X172324728Y-78458033D01*
X172333919Y-78138492D01*
X172338440Y-77756512D01*
X172339281Y-77303519D01*
X172337432Y-76770943D01*
X172336383Y-76573220D01*
X172324552Y-74453539D01*
X170981721Y-76281684D01*
X170601299Y-76800306D01*
X170271709Y-77251905D01*
X169989391Y-77642464D01*
X169750789Y-77977967D01*
X169552341Y-78264395D01*
X169390491Y-78507733D01*
X169261678Y-78713964D01*
X169162344Y-78889069D01*
X169088931Y-79039033D01*
X169037879Y-79169838D01*
X169005630Y-79287467D01*
X168988625Y-79397903D01*
X168983305Y-79507129D01*
X168986112Y-79621128D01*
X168986828Y-79635457D01*
X169001613Y-79920621D01*
X166648727Y-79920525D01*
X164295841Y-79920430D01*
X164645860Y-79567499D01*
X164740840Y-79470970D01*
X164830943Y-79377042D01*
X164920126Y-79280537D01*
X165012340Y-79176274D01*
X165111542Y-79059072D01*
X165221685Y-78923752D01*
X165346723Y-78765134D01*
X165490612Y-78578038D01*
X165657304Y-78357283D01*
X165850756Y-78097689D01*
X166074920Y-77794077D01*
X166333751Y-77441266D01*
X166631204Y-77034077D01*
X166971232Y-76567328D01*
X167357791Y-76035841D01*
X167674636Y-75599866D01*
X168072287Y-75052153D01*
X168419180Y-74573262D01*
X168718457Y-74158645D01*
X168973261Y-73803756D01*
X169186734Y-73504049D01*
X169362019Y-73254977D01*
X169502259Y-73051993D01*
X169610595Y-72890551D01*
X169690171Y-72766104D01*
X169744128Y-72674105D01*
X169775610Y-72610007D01*
X169787759Y-72569264D01*
X169784107Y-72547844D01*
X169739855Y-72490840D01*
X169644180Y-72370180D01*
X169502855Y-72193034D01*
X169321653Y-71966575D01*
X169106346Y-71697974D01*
X168862709Y-71394404D01*
X168596514Y-71063037D01*
X168313534Y-70711045D01*
X168019542Y-70345599D01*
X167720311Y-69973872D01*
X167555725Y-69769534D01*
X163469246Y-69769534D01*
X163129570Y-70384050D01*
X163129570Y-79305914D01*
X163469246Y-79920430D01*
X161460185Y-79920430D01*
X160980568Y-79920290D01*
X160584411Y-79919661D01*
X160264136Y-79918225D01*
X160012163Y-79915666D01*
X159820914Y-79911667D01*
X159682809Y-79905911D01*
X159590269Y-79898081D01*
X159535716Y-79887862D01*
X159511571Y-79874935D01*
X159510254Y-79858985D01*
X159524188Y-79839695D01*
X159524332Y-79839536D01*
X159581726Y-79756512D01*
X159657728Y-79621517D01*
X159724846Y-79486758D01*
X159852151Y-79214874D01*
X159865135Y-74492204D01*
X159878118Y-69769534D01*
X163469246Y-69769534D01*
X167555725Y-69769534D01*
X167421615Y-69603035D01*
X167129226Y-69240261D01*
X166848916Y-68892722D01*
X166586461Y-68567589D01*
X166347631Y-68272035D01*
X166138201Y-68013231D01*
X165963943Y-67798350D01*
X165830631Y-67634563D01*
X165752329Y-67539068D01*
X165448272Y-67181967D01*
X165155753Y-66859717D01*
X164885026Y-66582866D01*
X164646341Y-66361966D01*
X164476952Y-66226535D01*
X164276664Y-66082437D01*
X168883066Y-66082437D01*
X168881773Y-66352744D01*
X168894647Y-66551471D01*
X168943047Y-66735711D01*
X169017970Y-66910360D01*
X169066673Y-67009026D01*
X169119038Y-67106791D01*
X169179847Y-67210144D01*
X169253885Y-67325576D01*
X169345935Y-67459576D01*
X169460781Y-67618636D01*
X169603205Y-67809244D01*
X169777992Y-68037892D01*
X169989925Y-68311070D01*
X170243788Y-68635267D01*
X170544364Y-69016974D01*
X170896436Y-69462681D01*
X170936201Y-69512972D01*
X172324552Y-71268658D01*
X172337993Y-69324203D01*
X172340699Y-68741782D01*
X172340123Y-68248717D01*
X172336236Y-67843383D01*
X172329011Y-67524154D01*
X172318418Y-67289406D01*
X172304431Y-67137513D01*
X172299730Y-67108700D01*
X172225973Y-66805195D01*
X172129336Y-66531584D01*
X172019061Y-66311590D01*
X171952812Y-66218286D01*
X171838503Y-66082437D01*
X174007422Y-66082437D01*
X174524808Y-66082879D01*
X174957462Y-66084319D01*
X175311689Y-66086924D01*
X175593794Y-66090862D01*
X175810080Y-66096301D01*
X175966851Y-66103409D01*
X176070413Y-66112354D01*
X176127069Y-66123305D01*
X176143123Y-66136430D01*
X176142013Y-66139337D01*
X176096034Y-66208739D01*
X176019273Y-66318747D01*
X175979559Y-66374384D01*
X175938498Y-66429906D01*
X175901592Y-66479557D01*
X175868606Y-66528222D01*
X175839309Y-66580789D01*
X175813468Y-66642144D01*
X175790851Y-66717172D01*
X175771226Y-66810759D01*
X175754360Y-66927792D01*
X175740021Y-67073157D01*
X175727976Y-67251739D01*
X175717993Y-67468425D01*
X175709840Y-67728102D01*
X175703285Y-68035654D01*
X175698094Y-68395969D01*
X175694036Y-68813932D01*
X175690879Y-69294430D01*
X175688389Y-69842348D01*
X175686335Y-70462572D01*
X175684483Y-71159989D01*
X175682603Y-71939486D01*
X175680846Y-72655590D01*
X175679186Y-73453921D01*
X175678324Y-74215604D01*
X175678235Y-74935773D01*
X175678896Y-75609563D01*
X175680286Y-76232108D01*
X175682381Y-76798544D01*
X175685157Y-77304006D01*
X175688593Y-77743628D01*
X175692665Y-78112545D01*
X175697350Y-78405892D01*
X175702626Y-78618804D01*
X175708469Y-78746416D01*
X175709575Y-78759902D01*
X175749841Y-79069280D01*
X175812706Y-79317744D01*
X175908439Y-79534584D01*
X176047314Y-79749087D01*
X176064685Y-79772491D01*
X176175601Y-79920430D01*
X177390472Y-79920430D01*
X177392920Y-79650242D01*
X177395701Y-79188111D01*
X177397707Y-78665765D01*
X177399057Y-78079440D01*
X177399869Y-77425371D01*
X177400260Y-76699795D01*
X177400351Y-75898947D01*
X177400260Y-75019063D01*
X177400104Y-74056379D01*
X177400003Y-73007132D01*
X177400000Y-72798835D01*
X177399941Y-71738537D01*
X177399744Y-70765542D01*
X177399380Y-69876113D01*
X177398820Y-69066515D01*
X177398036Y-68333009D01*
X177396997Y-67671860D01*
X177395676Y-67079332D01*
X177394043Y-66551687D01*
X177392069Y-66085189D01*
X177389726Y-65676102D01*
X177386984Y-65320689D01*
X177383814Y-65015214D01*
X177380187Y-64755940D01*
X177376075Y-64539130D01*
X177371448Y-64361049D01*
X177366278Y-64217959D01*
X177360535Y-64106124D01*
X177354191Y-64021807D01*
X177347216Y-63961273D01*
X177339581Y-63920784D01*
X177331258Y-63896604D01*
X177330950Y-63896001D01*
X177313807Y-63859062D01*
X177299529Y-63825620D01*
X177283735Y-63795502D01*
X177262042Y-63768534D01*
X177230072Y-63744543D01*
X177183442Y-63723356D01*
X177117771Y-63704800D01*
X177028679Y-63688701D01*
X176911784Y-63674886D01*
X176762706Y-63663183D01*
X176577062Y-63653417D01*
X176350473Y-63645416D01*
X176078558Y-63639006D01*
X175756934Y-63634015D01*
X175381222Y-63630269D01*
X174947039Y-63627594D01*
X174450006Y-63625818D01*
X173885741Y-63624767D01*
X173249862Y-63624269D01*
X172537990Y-63624149D01*
X171745743Y-63624236D01*
M02*
