M48
; DRILL file {KiCad (5.1.4)-1} date 27/8/2021 17:14:02
; FORMAT={-:-/ absolute / inch / decimal}
; #@! TF.CreationDate,2021-08-27T17:14:02-03:00
; #@! TF.GenerationSoftware,Kicad,Pcbnew,(5.1.4)-1
; #@! TF.FileFunction,Plated,1,2,PTH
FMAT,2
INCH
T1C0.0157
T2C0.0295
T3C0.0315
T4C0.0394
T5C0.0433
T6C0.0512
T7C0.0630
T8C0.1260
%
G90
G05
T1
X4.8123Y-4.7669
X5.3904Y-2.9796
X5.9222Y-3.0694
X5.9606Y-2.8562
X6.6914Y-2.5986
T2
X7.0472Y-4.3071
X7.1161Y-4.3071
X7.185Y-4.3071
X6.8209Y-4.3073
X6.8898Y-4.3073
X6.9587Y-4.3073
T3
X5.2953Y-4.4291
X5.3937Y-4.4291
X4.5276Y-2.9724
X4.5276Y-3.3724
X5.9039Y-3.9803
X5.9039Y-4.2803
X6.0039Y-3.9803
X6.0039Y-4.2803
X6.8047Y-3.9567
X7.2047Y-3.9567
X5.0528Y-4.5866
X5.4528Y-4.5866
X4.8031Y-2.9724
X4.8031Y-3.3724
X5.3937Y-2.6181
X5.3937Y-2.7165
X6.1748Y-3.8189
X6.5748Y-3.8189
X5.6087Y-3.9803
X5.6087Y-4.2803
X5.7087Y-3.9803
X5.7087Y-4.2803
X5.6039Y-4.7441
X6.0039Y-4.7441
X5.2165Y-2.8937
X5.4094Y-2.8937
X4.5669Y-4.0945
X4.5669Y-4.4945
X4.4291Y-4.0945
X4.4291Y-4.4945
X5.0197Y-4.4291
X5.1181Y-4.4291
X4.5276Y-3.4976
X4.5276Y-3.8976
X6.4906Y-3.9764
X6.4906Y-4.2764
X6.5906Y-3.9764
X6.5906Y-4.2764
X6.811Y-3.8189
X7.211Y-3.8189
X5.2551Y-3.2087
X5.2551Y-3.5087
X5.3551Y-3.2087
X5.3551Y-3.5087
X5.4551Y-3.2087
X5.4551Y-3.5087
X5.5551Y-3.2087
X5.5551Y-3.5087
X5.6551Y-3.2087
X5.6551Y-3.5087
X5.7551Y-3.2087
X5.7551Y-3.5087
X5.8551Y-3.2087
X5.8551Y-3.5087
X5.9551Y-3.2087
X5.9551Y-3.5087
X6.0551Y-3.2087
X6.0551Y-3.5087
X6.1551Y-3.2087
X6.1551Y-3.5087
X6.2551Y-3.2087
X6.2551Y-3.5087
X6.3551Y-3.2087
X6.3551Y-3.5087
X6.4551Y-3.2087
X6.4551Y-3.5087
X6.5551Y-3.2087
X6.5551Y-3.5087
X5.2362Y-2.6181
X5.2362Y-2.7165
X5.0528Y-4.7441
X5.4528Y-4.7441
X5.6465Y-2.8937
X5.7465Y-2.8937
X5.8465Y-2.8937
X4.7638Y-2.4016
X4.7638Y-2.5
X4.8425Y-4.0945
X4.8425Y-4.4945
X5.6102Y-4.4291
X5.7087Y-4.4291
X5.8858Y-4.4291
X5.9843Y-4.4291
X4.7047Y-4.0945
X4.7047Y-4.4945
X4.8031Y-3.4976
X4.8031Y-3.8976
X6.7126Y-2.2441
X6.8126Y-2.2441
X6.9126Y-2.2441
X6.2069Y-3.9795
X6.2069Y-4.2795
X6.3069Y-3.9795
X6.3069Y-4.2795
X6.8047Y-4.0945
X7.2047Y-4.0945
X6.6079Y-2.0472
X7.0079Y-2.0472
X5.0181Y-3.9803
X5.0181Y-4.2803
X5.1181Y-3.9803
X5.1181Y-4.2803
X5.6039Y-4.5866
X6.0039Y-4.5866
X4.7638Y-2.1063
X4.7638Y-2.2047
X5.3134Y-3.9803
X5.3134Y-4.2803
X5.4134Y-3.9803
X5.4134Y-4.2803
T4
X6.8484Y-4.7028
X7.3209Y-4.7028
X5.8661Y-2.0638
X5.8661Y-2.1638
X5.8661Y-2.2638
X6.8898Y-3.3071
X7.189Y-3.3071
X6.0457Y-2.5197
X6.1457Y-2.5197
X6.2457Y-2.5197
X6.3457Y-2.5197
X6.4457Y-2.5197
X6.5457Y-2.5197
X6.6457Y-2.5197
X6.7457Y-2.5197
X6.8457Y-2.5197
X6.9457Y-2.5197
X7.0457Y-2.5197
X7.1457Y-2.5197
X6.0236Y-2.7756
X6.1236Y-2.7756
X6.2236Y-2.7756
X6.3236Y-2.7756
X6.4236Y-2.7756
X6.5236Y-2.7756
X6.6236Y-2.7756
X6.785Y-2.7756
X6.885Y-2.7756
X6.985Y-2.7756
X7.085Y-2.7756
X7.185Y-2.7756
X6.1988Y-4.7028
X6.6713Y-4.7028
X6.0827Y-2.1457
X6.1827Y-2.1457
X6.2827Y-2.1457
X6.3827Y-2.1457
X6.4827Y-2.1457
T5
X5.0Y-2.1457
X5.0Y-2.2457
X5.0Y-2.3457
X4.5079Y-2.6969
X4.9079Y-2.6969
X6.2437Y-4.4587
X6.6437Y-4.4587
X5.1969Y-5.2559
X5.2969Y-5.2559
X5.3969Y-5.2559
X6.8933Y-4.4606
X7.2933Y-4.4606
X4.0748Y-3.8189
X4.0748Y-4.0748
X4.252Y-3.8189
X4.252Y-4.0748
X5.1969Y-4.9606
X5.2969Y-4.9606
X5.3969Y-4.9606
X4.0748Y-3.0315
X4.0748Y-3.2874
X4.252Y-3.0315
X4.252Y-3.2874
X4.0748Y-4.2126
X4.0748Y-4.4685
X4.252Y-4.2126
X4.252Y-4.4685
X7.1457Y-2.1063
X7.1457Y-2.2835
X7.4016Y-2.1063
X7.4016Y-2.2835
X4.5276Y-2.1063
X4.5276Y-2.5063
X4.0748Y-3.4252
X4.0748Y-3.6811
X4.252Y-3.4252
X4.252Y-3.6811
X5.748Y-4.9606
X5.848Y-4.9606
X5.948Y-4.9606
X5.748Y-5.2559
X5.848Y-5.2559
X5.948Y-5.2559
T6
X7.7165Y-3.248
X7.7165Y-3.4449
X7.7165Y-3.6417
X7.7165Y-2.5197
X7.7165Y-2.7165
X7.7165Y-2.9134
X6.2429Y-5.5533
X6.4398Y-5.5533
X6.6366Y-5.5533
X4.2323Y-2.4291
X4.2323Y-2.626
X4.2323Y-2.8228
X6.1988Y-5.1831
X6.437Y-4.626
X6.6732Y-5.185
X5.0787Y-5.5512
X5.2756Y-5.5512
X5.4724Y-5.5512
X5.689Y-5.5512
X5.8858Y-5.5512
X4.4685Y-5.5512
X4.6654Y-5.5512
X4.8622Y-5.5512
X6.8484Y-5.1831
X7.0866Y-4.626
X7.3228Y-5.185
X6.8543Y-5.5551
X7.0512Y-5.5551
X7.248Y-5.5551
X7.7165Y-3.9764
X7.7165Y-4.1732
X7.7165Y-4.3701
T7
X4.0748Y-4.6492
X4.0748Y-5.2492
X4.8425Y-4.6496
X4.8425Y-5.2496
X4.5866Y-4.6492
X4.5866Y-5.2492
X4.3307Y-4.6492
X4.3307Y-5.2492
T8
X4.1339Y-5.7283
X7.6772Y-5.7283
X7.6772Y-2.1457
X4.1339Y-2.1457
T0
M30
