G04 #@! TF.GenerationSoftware,KiCad,Pcbnew,(5.1.4)-1*
G04 #@! TF.CreationDate,2021-08-27T17:13:55-03:00*
G04 #@! TF.ProjectId,INYECTORES,494e5945-4354-44f5-9245-532e6b696361,rev?*
G04 #@! TF.SameCoordinates,Original*
G04 #@! TF.FileFunction,Legend,Top*
G04 #@! TF.FilePolarity,Positive*
%FSLAX46Y46*%
G04 Gerber Fmt 4.6, Leading zero omitted, Abs format (unit mm)*
G04 Created by KiCad (PCBNEW (5.1.4)-1) date 2021-08-27 17:13:55*
%MOMM*%
%LPD*%
G04 APERTURE LIST*
%ADD10C,0.250000*%
%ADD11C,0.150000*%
%ADD12C,0.125000*%
%ADD13C,0.175000*%
%ADD14C,0.120000*%
G04 APERTURE END LIST*
D10*
X101500000Y-62071428D02*
X101547619Y-61928571D01*
X101547619Y-61714285D01*
X101500000Y-61500000D01*
X101404761Y-61357142D01*
X101309523Y-61285714D01*
X101119047Y-61214285D01*
X100976190Y-61214285D01*
X100785714Y-61285714D01*
X100690476Y-61357142D01*
X100595238Y-61500000D01*
X100547619Y-61714285D01*
X100547619Y-61857142D01*
X100595238Y-62071428D01*
X100642857Y-62142857D01*
X100976190Y-62142857D01*
X100976190Y-61857142D01*
X100547619Y-62785714D02*
X101547619Y-62785714D01*
X100547619Y-63642857D01*
X101547619Y-63642857D01*
X100547619Y-64357142D02*
X101547619Y-64357142D01*
X101547619Y-64714285D01*
X101500000Y-64928571D01*
X101404761Y-65071428D01*
X101309523Y-65142857D01*
X101119047Y-65214285D01*
X100976190Y-65214285D01*
X100785714Y-65142857D01*
X100690476Y-65071428D01*
X100595238Y-64928571D01*
X100547619Y-64714285D01*
X100547619Y-64357142D01*
X100547619Y-70071428D02*
X100547619Y-69214285D01*
X100547619Y-69642857D02*
X101547619Y-69642857D01*
X101404761Y-69500000D01*
X101309523Y-69357142D01*
X101261904Y-69214285D01*
X101452380Y-70642857D02*
X101500000Y-70714285D01*
X101547619Y-70857142D01*
X101547619Y-71214285D01*
X101500000Y-71357142D01*
X101452380Y-71428571D01*
X101357142Y-71500000D01*
X101261904Y-71500000D01*
X101119047Y-71428571D01*
X100547619Y-70571428D01*
X100547619Y-71500000D01*
X101547619Y-71928571D02*
X100547619Y-72428571D01*
X101547619Y-72928571D01*
D11*
X142571428Y-94452380D02*
X142571428Y-93452380D01*
X143047619Y-94452380D02*
X143047619Y-93452380D01*
X143619047Y-94452380D01*
X143619047Y-93452380D01*
X144285714Y-93976190D02*
X144285714Y-94452380D01*
X143952380Y-93452380D02*
X144285714Y-93976190D01*
X144619047Y-93452380D01*
X145380952Y-93785714D02*
X145380952Y-94452380D01*
X145142857Y-93404761D02*
X144904761Y-94119047D01*
X145523809Y-94119047D01*
X139071428Y-94452380D02*
X139071428Y-93452380D01*
X139547619Y-94452380D02*
X139547619Y-93452380D01*
X140119047Y-94452380D01*
X140119047Y-93452380D01*
X140785714Y-93976190D02*
X140785714Y-94452380D01*
X140452380Y-93452380D02*
X140785714Y-93976190D01*
X141119047Y-93452380D01*
X141357142Y-93452380D02*
X141976190Y-93452380D01*
X141642857Y-93833333D01*
X141785714Y-93833333D01*
X141880952Y-93880952D01*
X141928571Y-93928571D01*
X141976190Y-94023809D01*
X141976190Y-94261904D01*
X141928571Y-94357142D01*
X141880952Y-94404761D01*
X141785714Y-94452380D01*
X141500000Y-94452380D01*
X141404761Y-94404761D01*
X141357142Y-94357142D01*
X135571428Y-94452380D02*
X135571428Y-93452380D01*
X136047619Y-94452380D02*
X136047619Y-93452380D01*
X136619047Y-94452380D01*
X136619047Y-93452380D01*
X137285714Y-93976190D02*
X137285714Y-94452380D01*
X136952380Y-93452380D02*
X137285714Y-93976190D01*
X137619047Y-93452380D01*
X137904761Y-93547619D02*
X137952380Y-93500000D01*
X138047619Y-93452380D01*
X138285714Y-93452380D01*
X138380952Y-93500000D01*
X138428571Y-93547619D01*
X138476190Y-93642857D01*
X138476190Y-93738095D01*
X138428571Y-93880952D01*
X137857142Y-94452380D01*
X138476190Y-94452380D01*
X132071428Y-94452380D02*
X132071428Y-93452380D01*
X132547619Y-94452380D02*
X132547619Y-93452380D01*
X133119047Y-94452380D01*
X133119047Y-93452380D01*
X133785714Y-93976190D02*
X133785714Y-94452380D01*
X133452380Y-93452380D02*
X133785714Y-93976190D01*
X134119047Y-93452380D01*
X134976190Y-94452380D02*
X134404761Y-94452380D01*
X134690476Y-94452380D02*
X134690476Y-93452380D01*
X134595238Y-93595238D01*
X134500000Y-93690476D01*
X134404761Y-93738095D01*
D12*
X146047619Y-94452380D02*
X145880952Y-93976190D01*
X145761904Y-94452380D02*
X145761904Y-93452380D01*
X145952380Y-93452380D01*
X146000000Y-93500000D01*
X146023809Y-93547619D01*
X146047619Y-93642857D01*
X146047619Y-93785714D01*
X146023809Y-93880952D01*
X146000000Y-93928571D01*
X145952380Y-93976190D01*
X145761904Y-93976190D01*
X146261904Y-93928571D02*
X146428571Y-93928571D01*
X146500000Y-94452380D02*
X146261904Y-94452380D01*
X146261904Y-93452380D01*
X146500000Y-93452380D01*
X146952380Y-94452380D02*
X146714285Y-94452380D01*
X146714285Y-93452380D01*
X147119047Y-93928571D02*
X147285714Y-93928571D01*
X147357142Y-94452380D02*
X147119047Y-94452380D01*
X147119047Y-93452380D01*
X147357142Y-93452380D01*
X147547619Y-93547619D02*
X147571428Y-93500000D01*
X147619047Y-93452380D01*
X147738095Y-93452380D01*
X147785714Y-93500000D01*
X147809523Y-93547619D01*
X147833333Y-93642857D01*
X147833333Y-93738095D01*
X147809523Y-93880952D01*
X147523809Y-94452380D01*
X147833333Y-94452380D01*
X147928571Y-94547619D02*
X148309523Y-94547619D01*
X148523809Y-93452380D02*
X148619047Y-93452380D01*
X148666666Y-93500000D01*
X148714285Y-93595238D01*
X148738095Y-93785714D01*
X148738095Y-94119047D01*
X148714285Y-94309523D01*
X148666666Y-94404761D01*
X148619047Y-94452380D01*
X148523809Y-94452380D01*
X148476190Y-94404761D01*
X148428571Y-94309523D01*
X148404761Y-94119047D01*
X148404761Y-93785714D01*
X148428571Y-93595238D01*
X148476190Y-93500000D01*
X148523809Y-93452380D01*
X148952380Y-94452380D02*
X148952380Y-93452380D01*
X149238095Y-94452380D01*
X149238095Y-93452380D01*
X150047619Y-94452380D02*
X149880952Y-93976190D01*
X149761904Y-94452380D02*
X149761904Y-93452380D01*
X149952380Y-93452380D01*
X150000000Y-93500000D01*
X150023809Y-93547619D01*
X150047619Y-93642857D01*
X150047619Y-93785714D01*
X150023809Y-93880952D01*
X150000000Y-93928571D01*
X149952380Y-93976190D01*
X149761904Y-93976190D01*
X150261904Y-93928571D02*
X150428571Y-93928571D01*
X150500000Y-94452380D02*
X150261904Y-94452380D01*
X150261904Y-93452380D01*
X150500000Y-93452380D01*
X150952380Y-94452380D02*
X150714285Y-94452380D01*
X150714285Y-93452380D01*
X151119047Y-93928571D02*
X151285714Y-93928571D01*
X151357142Y-94452380D02*
X151119047Y-94452380D01*
X151119047Y-93452380D01*
X151357142Y-93452380D01*
X151833333Y-94452380D02*
X151547619Y-94452380D01*
X151690476Y-94452380D02*
X151690476Y-93452380D01*
X151642857Y-93595238D01*
X151595238Y-93690476D01*
X151547619Y-93738095D01*
X151928571Y-94547619D02*
X152309523Y-94547619D01*
X152523809Y-93452380D02*
X152619047Y-93452380D01*
X152666666Y-93500000D01*
X152714285Y-93595238D01*
X152738095Y-93785714D01*
X152738095Y-94119047D01*
X152714285Y-94309523D01*
X152666666Y-94404761D01*
X152619047Y-94452380D01*
X152523809Y-94452380D01*
X152476190Y-94404761D01*
X152428571Y-94309523D01*
X152404761Y-94119047D01*
X152404761Y-93785714D01*
X152428571Y-93595238D01*
X152476190Y-93500000D01*
X152523809Y-93452380D01*
X152952380Y-94452380D02*
X152952380Y-93452380D01*
X153238095Y-94452380D01*
X153238095Y-93452380D01*
D11*
X100547619Y-107476190D02*
X101547619Y-107476190D01*
X101547619Y-107714285D01*
X101500000Y-107857142D01*
X101404761Y-107952380D01*
X101309523Y-108000000D01*
X101119047Y-108047619D01*
X100976190Y-108047619D01*
X100785714Y-108000000D01*
X100690476Y-107952380D01*
X100595238Y-107857142D01*
X100547619Y-107714285D01*
X100547619Y-107476190D01*
X101071428Y-108476190D02*
X101071428Y-108809523D01*
X100547619Y-108952380D02*
X100547619Y-108476190D01*
X101547619Y-108476190D01*
X101547619Y-108952380D01*
X101547619Y-109238095D02*
X101547619Y-109809523D01*
X100547619Y-109523809D02*
X101547619Y-109523809D01*
X101071428Y-110142857D02*
X101071428Y-110476190D01*
X100547619Y-110619047D02*
X100547619Y-110142857D01*
X101547619Y-110142857D01*
X101547619Y-110619047D01*
X100547619Y-111047619D02*
X101547619Y-111047619D01*
X100547619Y-111619047D01*
X101547619Y-111619047D01*
X101071428Y-112095238D02*
X101071428Y-112428571D01*
X100547619Y-112571428D02*
X100547619Y-112095238D01*
X101547619Y-112095238D01*
X101547619Y-112571428D01*
X100547619Y-113571428D02*
X101023809Y-113238095D01*
X100547619Y-113000000D02*
X101547619Y-113000000D01*
X101547619Y-113380952D01*
X101500000Y-113476190D01*
X101452380Y-113523809D01*
X101357142Y-113571428D01*
X101214285Y-113571428D01*
X101119047Y-113523809D01*
X101071428Y-113476190D01*
X101023809Y-113380952D01*
X101023809Y-113000000D01*
X100547619Y-97500000D02*
X101547619Y-97500000D01*
X101547619Y-97738095D01*
X101500000Y-97880952D01*
X101404761Y-97976190D01*
X101309523Y-98023809D01*
X101119047Y-98071428D01*
X100976190Y-98071428D01*
X100785714Y-98023809D01*
X100690476Y-97976190D01*
X100595238Y-97880952D01*
X100547619Y-97738095D01*
X100547619Y-97500000D01*
X100547619Y-99071428D02*
X101023809Y-98738095D01*
X100547619Y-98500000D02*
X101547619Y-98500000D01*
X101547619Y-98880952D01*
X101500000Y-98976190D01*
X101452380Y-99023809D01*
X101357142Y-99071428D01*
X101214285Y-99071428D01*
X101119047Y-99023809D01*
X101071428Y-98976190D01*
X101023809Y-98880952D01*
X101023809Y-98500000D01*
X101071428Y-99500000D02*
X101071428Y-99833333D01*
X100547619Y-99976190D02*
X100547619Y-99500000D01*
X101547619Y-99500000D01*
X101547619Y-99976190D01*
X100547619Y-100404761D02*
X101547619Y-100404761D01*
X100547619Y-100976190D01*
X101547619Y-100976190D01*
X100833333Y-101404761D02*
X100833333Y-101880952D01*
X100547619Y-101309523D02*
X101547619Y-101642857D01*
X100547619Y-101976190D01*
X101547619Y-102595238D02*
X100833333Y-102595238D01*
X100690476Y-102547619D01*
X100595238Y-102452380D01*
X100547619Y-102309523D01*
X100547619Y-102214285D01*
X101071428Y-103071428D02*
X101071428Y-103404761D01*
X100547619Y-103547619D02*
X100547619Y-103071428D01*
X101547619Y-103071428D01*
X101547619Y-103547619D01*
X101071428Y-88428571D02*
X101071428Y-88761904D01*
X100547619Y-88904761D02*
X100547619Y-88428571D01*
X101547619Y-88428571D01*
X101547619Y-88904761D01*
X100547619Y-89333333D02*
X101547619Y-89333333D01*
X100547619Y-89904761D01*
X101547619Y-89904761D01*
X101547619Y-90238095D02*
X101547619Y-90809523D01*
X100547619Y-90523809D02*
X101547619Y-90523809D01*
X101071428Y-91142857D02*
X101071428Y-91476190D01*
X100547619Y-91619047D02*
X100547619Y-91142857D01*
X101547619Y-91142857D01*
X101547619Y-91619047D01*
X100547619Y-92619047D02*
X101023809Y-92285714D01*
X100547619Y-92047619D02*
X101547619Y-92047619D01*
X101547619Y-92428571D01*
X101500000Y-92523809D01*
X101452380Y-92571428D01*
X101357142Y-92619047D01*
X101214285Y-92619047D01*
X101119047Y-92571428D01*
X101071428Y-92523809D01*
X101023809Y-92428571D01*
X101023809Y-92047619D01*
X100547619Y-78261904D02*
X101547619Y-78261904D01*
X100833333Y-78595238D01*
X101547619Y-78928571D01*
X100547619Y-78928571D01*
X101547619Y-79595238D02*
X101547619Y-79785714D01*
X101500000Y-79880952D01*
X101404761Y-79976190D01*
X101214285Y-80023809D01*
X100880952Y-80023809D01*
X100690476Y-79976190D01*
X100595238Y-79880952D01*
X100547619Y-79785714D01*
X100547619Y-79595238D01*
X100595238Y-79500000D01*
X100690476Y-79404761D01*
X100880952Y-79357142D01*
X101214285Y-79357142D01*
X101404761Y-79404761D01*
X101500000Y-79500000D01*
X101547619Y-79595238D01*
X101547619Y-80309523D02*
X100547619Y-80642857D01*
X101547619Y-80976190D01*
X101071428Y-81309523D02*
X101071428Y-81642857D01*
X100547619Y-81785714D02*
X100547619Y-81309523D01*
X101547619Y-81309523D01*
X101547619Y-81785714D01*
X100547619Y-82785714D02*
X101023809Y-82452380D01*
X100547619Y-82214285D02*
X101547619Y-82214285D01*
X101547619Y-82595238D01*
X101500000Y-82690476D01*
X101452380Y-82738095D01*
X101357142Y-82785714D01*
X101214285Y-82785714D01*
X101119047Y-82738095D01*
X101071428Y-82690476D01*
X101023809Y-82595238D01*
X101023809Y-82214285D01*
X186452380Y-50547619D02*
X186785714Y-51023809D01*
X187023809Y-50547619D02*
X187023809Y-51547619D01*
X186642857Y-51547619D01*
X186547619Y-51500000D01*
X186500000Y-51452380D01*
X186452380Y-51357142D01*
X186452380Y-51214285D01*
X186500000Y-51119047D01*
X186547619Y-51071428D01*
X186642857Y-51023809D01*
X187023809Y-51023809D01*
X186023809Y-51071428D02*
X185690476Y-51071428D01*
X185547619Y-50547619D02*
X186023809Y-50547619D01*
X186023809Y-51547619D01*
X185547619Y-51547619D01*
X185166666Y-50595238D02*
X185023809Y-50547619D01*
X184785714Y-50547619D01*
X184690476Y-50595238D01*
X184642857Y-50642857D01*
X184595238Y-50738095D01*
X184595238Y-50833333D01*
X184642857Y-50928571D01*
X184690476Y-50976190D01*
X184785714Y-51023809D01*
X184976190Y-51071428D01*
X185071428Y-51119047D01*
X185119047Y-51166666D01*
X185166666Y-51261904D01*
X185166666Y-51357142D01*
X185119047Y-51452380D01*
X185071428Y-51500000D01*
X184976190Y-51547619D01*
X184738095Y-51547619D01*
X184595238Y-51500000D01*
X184166666Y-51071428D02*
X183833333Y-51071428D01*
X183690476Y-50547619D02*
X184166666Y-50547619D01*
X184166666Y-51547619D01*
X183690476Y-51547619D01*
X183404761Y-51547619D02*
X182833333Y-51547619D01*
X183119047Y-50547619D02*
X183119047Y-51547619D01*
D13*
X151952380Y-58933333D02*
X150952380Y-58933333D01*
X151952380Y-58533333D01*
X150952380Y-58533333D01*
X150952380Y-58066666D02*
X150952380Y-57933333D01*
X151000000Y-57866666D01*
X151095238Y-57800000D01*
X151285714Y-57766666D01*
X151619047Y-57766666D01*
X151809523Y-57800000D01*
X151904761Y-57866666D01*
X151952380Y-57933333D01*
X151952380Y-58066666D01*
X151904761Y-58133333D01*
X151809523Y-58200000D01*
X151619047Y-58233333D01*
X151285714Y-58233333D01*
X151095238Y-58200000D01*
X151000000Y-58133333D01*
X150952380Y-58066666D01*
X151952380Y-57066666D02*
X151476190Y-57300000D01*
X151952380Y-57466666D02*
X150952380Y-57466666D01*
X150952380Y-57200000D01*
X151000000Y-57133333D01*
X151047619Y-57100000D01*
X151142857Y-57066666D01*
X151285714Y-57066666D01*
X151380952Y-57100000D01*
X151428571Y-57133333D01*
X151476190Y-57200000D01*
X151476190Y-57466666D01*
X151952380Y-56766666D02*
X150952380Y-56766666D01*
X151666666Y-56533333D01*
X150952380Y-56300000D01*
X151952380Y-56300000D01*
X151952380Y-54366666D02*
X150952380Y-54366666D01*
X150952380Y-54100000D01*
X151000000Y-54033333D01*
X151047619Y-54000000D01*
X151142857Y-53966666D01*
X151285714Y-53966666D01*
X151380952Y-54000000D01*
X151428571Y-54033333D01*
X151476190Y-54100000D01*
X151476190Y-54366666D01*
X151952380Y-53266666D02*
X151476190Y-53500000D01*
X151952380Y-53666666D02*
X150952380Y-53666666D01*
X150952380Y-53400000D01*
X151000000Y-53333333D01*
X151047619Y-53300000D01*
X151142857Y-53266666D01*
X151285714Y-53266666D01*
X151380952Y-53300000D01*
X151428571Y-53333333D01*
X151476190Y-53400000D01*
X151476190Y-53666666D01*
X150952380Y-52833333D02*
X150952380Y-52700000D01*
X151000000Y-52633333D01*
X151095238Y-52566666D01*
X151285714Y-52533333D01*
X151619047Y-52533333D01*
X151809523Y-52566666D01*
X151904761Y-52633333D01*
X151952380Y-52700000D01*
X151952380Y-52833333D01*
X151904761Y-52900000D01*
X151809523Y-52966666D01*
X151619047Y-53000000D01*
X151285714Y-53000000D01*
X151095238Y-52966666D01*
X151000000Y-52900000D01*
X150952380Y-52833333D01*
X151952380Y-52233333D02*
X150952380Y-52233333D01*
X151666666Y-52000000D01*
X150952380Y-51766666D01*
X151952380Y-51766666D01*
X151000000Y-51066666D02*
X150952380Y-51133333D01*
X150952380Y-51233333D01*
X151000000Y-51333333D01*
X151095238Y-51400000D01*
X151190476Y-51433333D01*
X151380952Y-51466666D01*
X151523809Y-51466666D01*
X151714285Y-51433333D01*
X151809523Y-51400000D01*
X151904761Y-51333333D01*
X151952380Y-51233333D01*
X151952380Y-51166666D01*
X151904761Y-51066666D01*
X151857142Y-51033333D01*
X151523809Y-51033333D01*
X151523809Y-51166666D01*
D11*
X172285714Y-148852380D02*
X172085714Y-148376190D01*
X171942857Y-148852380D02*
X171942857Y-147852380D01*
X172171428Y-147852380D01*
X172228571Y-147900000D01*
X172257142Y-147947619D01*
X172285714Y-148042857D01*
X172285714Y-148185714D01*
X172257142Y-148280952D01*
X172228571Y-148328571D01*
X172171428Y-148376190D01*
X171942857Y-148376190D01*
X172542857Y-148328571D02*
X172742857Y-148328571D01*
X172828571Y-148852380D02*
X172542857Y-148852380D01*
X172542857Y-147852380D01*
X172828571Y-147852380D01*
X173371428Y-148852380D02*
X173085714Y-148852380D01*
X173085714Y-147852380D01*
X173571428Y-148328571D02*
X173771428Y-148328571D01*
X173857142Y-148852380D02*
X173571428Y-148852380D01*
X173571428Y-147852380D01*
X173857142Y-147852380D01*
X174085714Y-147947619D02*
X174114285Y-147900000D01*
X174171428Y-147852380D01*
X174314285Y-147852380D01*
X174371428Y-147900000D01*
X174400000Y-147947619D01*
X174428571Y-148042857D01*
X174428571Y-148138095D01*
X174400000Y-148280952D01*
X174057142Y-148852380D01*
X174428571Y-148852380D01*
X174542857Y-148947619D02*
X175000000Y-148947619D01*
X175142857Y-148852380D02*
X175142857Y-147852380D01*
X175485714Y-148852380D01*
X175485714Y-147852380D01*
X175742857Y-148566666D02*
X176028571Y-148566666D01*
X175685714Y-148852380D02*
X175885714Y-147852380D01*
X176085714Y-148852380D01*
X177085714Y-148757142D02*
X177057142Y-148804761D01*
X176971428Y-148852380D01*
X176914285Y-148852380D01*
X176828571Y-148804761D01*
X176771428Y-148709523D01*
X176742857Y-148614285D01*
X176714285Y-148423809D01*
X176714285Y-148280952D01*
X176742857Y-148090476D01*
X176771428Y-147995238D01*
X176828571Y-147900000D01*
X176914285Y-147852380D01*
X176971428Y-147852380D01*
X177057142Y-147900000D01*
X177085714Y-147947619D01*
X177457142Y-147852380D02*
X177571428Y-147852380D01*
X177628571Y-147900000D01*
X177685714Y-147995238D01*
X177714285Y-148185714D01*
X177714285Y-148519047D01*
X177685714Y-148709523D01*
X177628571Y-148804761D01*
X177571428Y-148852380D01*
X177457142Y-148852380D01*
X177400000Y-148804761D01*
X177342857Y-148709523D01*
X177314285Y-148519047D01*
X177314285Y-148185714D01*
X177342857Y-147995238D01*
X177400000Y-147900000D01*
X177457142Y-147852380D01*
X177971428Y-148852380D02*
X177971428Y-147852380D01*
X178171428Y-148566666D01*
X178371428Y-147852380D01*
X178371428Y-148852380D01*
X178514285Y-148947619D02*
X178971428Y-148947619D01*
X179457142Y-148852380D02*
X179257142Y-148376190D01*
X179114285Y-148852380D02*
X179114285Y-147852380D01*
X179342857Y-147852380D01*
X179400000Y-147900000D01*
X179428571Y-147947619D01*
X179457142Y-148042857D01*
X179457142Y-148185714D01*
X179428571Y-148280952D01*
X179400000Y-148328571D01*
X179342857Y-148376190D01*
X179114285Y-148376190D01*
X179714285Y-148328571D02*
X179914285Y-148328571D01*
X180000000Y-148852380D02*
X179714285Y-148852380D01*
X179714285Y-147852380D01*
X180000000Y-147852380D01*
X180542857Y-148852380D02*
X180257142Y-148852380D01*
X180257142Y-147852380D01*
X180742857Y-148328571D02*
X180942857Y-148328571D01*
X181028571Y-148852380D02*
X180742857Y-148852380D01*
X180742857Y-147852380D01*
X181028571Y-147852380D01*
X181257142Y-147947619D02*
X181285714Y-147900000D01*
X181342857Y-147852380D01*
X181485714Y-147852380D01*
X181542857Y-147900000D01*
X181571428Y-147947619D01*
X181600000Y-148042857D01*
X181600000Y-148138095D01*
X181571428Y-148280952D01*
X181228571Y-148852380D01*
X181600000Y-148852380D01*
X182657142Y-148852380D02*
X182457142Y-148376190D01*
X182314285Y-148852380D02*
X182314285Y-147852380D01*
X182542857Y-147852380D01*
X182600000Y-147900000D01*
X182628571Y-147947619D01*
X182657142Y-148042857D01*
X182657142Y-148185714D01*
X182628571Y-148280952D01*
X182600000Y-148328571D01*
X182542857Y-148376190D01*
X182314285Y-148376190D01*
X182914285Y-148328571D02*
X183114285Y-148328571D01*
X183200000Y-148852380D02*
X182914285Y-148852380D01*
X182914285Y-147852380D01*
X183200000Y-147852380D01*
X183742857Y-148852380D02*
X183457142Y-148852380D01*
X183457142Y-147852380D01*
X183942857Y-148328571D02*
X184142857Y-148328571D01*
X184228571Y-148852380D02*
X183942857Y-148852380D01*
X183942857Y-147852380D01*
X184228571Y-147852380D01*
X184457142Y-147947619D02*
X184485714Y-147900000D01*
X184542857Y-147852380D01*
X184685714Y-147852380D01*
X184742857Y-147900000D01*
X184771428Y-147947619D01*
X184800000Y-148042857D01*
X184800000Y-148138095D01*
X184771428Y-148280952D01*
X184428571Y-148852380D01*
X184800000Y-148852380D01*
X184914285Y-148947619D02*
X185371428Y-148947619D01*
X185514285Y-148852380D02*
X185514285Y-147852380D01*
X185857142Y-148852380D01*
X185857142Y-147852380D01*
X186485714Y-148757142D02*
X186457142Y-148804761D01*
X186371428Y-148852380D01*
X186314285Y-148852380D01*
X186228571Y-148804761D01*
X186171428Y-148709523D01*
X186142857Y-148614285D01*
X186114285Y-148423809D01*
X186114285Y-148280952D01*
X186142857Y-148090476D01*
X186171428Y-147995238D01*
X186228571Y-147900000D01*
X186314285Y-147852380D01*
X186371428Y-147852380D01*
X186457142Y-147900000D01*
X186485714Y-147947619D01*
X156685714Y-148852380D02*
X156485714Y-148376190D01*
X156342857Y-148852380D02*
X156342857Y-147852380D01*
X156571428Y-147852380D01*
X156628571Y-147900000D01*
X156657142Y-147947619D01*
X156685714Y-148042857D01*
X156685714Y-148185714D01*
X156657142Y-148280952D01*
X156628571Y-148328571D01*
X156571428Y-148376190D01*
X156342857Y-148376190D01*
X156942857Y-148328571D02*
X157142857Y-148328571D01*
X157228571Y-148852380D02*
X156942857Y-148852380D01*
X156942857Y-147852380D01*
X157228571Y-147852380D01*
X157771428Y-148852380D02*
X157485714Y-148852380D01*
X157485714Y-147852380D01*
X157971428Y-148328571D02*
X158171428Y-148328571D01*
X158257142Y-148852380D02*
X157971428Y-148852380D01*
X157971428Y-147852380D01*
X158257142Y-147852380D01*
X158828571Y-148852380D02*
X158485714Y-148852380D01*
X158657142Y-148852380D02*
X158657142Y-147852380D01*
X158600000Y-147995238D01*
X158542857Y-148090476D01*
X158485714Y-148138095D01*
X158942857Y-148947619D02*
X159400000Y-148947619D01*
X159542857Y-148852380D02*
X159542857Y-147852380D01*
X159885714Y-148852380D01*
X159885714Y-147852380D01*
X160142857Y-148566666D02*
X160428571Y-148566666D01*
X160085714Y-148852380D02*
X160285714Y-147852380D01*
X160485714Y-148852380D01*
X161485714Y-148757142D02*
X161457142Y-148804761D01*
X161371428Y-148852380D01*
X161314285Y-148852380D01*
X161228571Y-148804761D01*
X161171428Y-148709523D01*
X161142857Y-148614285D01*
X161114285Y-148423809D01*
X161114285Y-148280952D01*
X161142857Y-148090476D01*
X161171428Y-147995238D01*
X161228571Y-147900000D01*
X161314285Y-147852380D01*
X161371428Y-147852380D01*
X161457142Y-147900000D01*
X161485714Y-147947619D01*
X161857142Y-147852380D02*
X161971428Y-147852380D01*
X162028571Y-147900000D01*
X162085714Y-147995238D01*
X162114285Y-148185714D01*
X162114285Y-148519047D01*
X162085714Y-148709523D01*
X162028571Y-148804761D01*
X161971428Y-148852380D01*
X161857142Y-148852380D01*
X161800000Y-148804761D01*
X161742857Y-148709523D01*
X161714285Y-148519047D01*
X161714285Y-148185714D01*
X161742857Y-147995238D01*
X161800000Y-147900000D01*
X161857142Y-147852380D01*
X162371428Y-148852380D02*
X162371428Y-147852380D01*
X162571428Y-148566666D01*
X162771428Y-147852380D01*
X162771428Y-148852380D01*
X162914285Y-148947619D02*
X163371428Y-148947619D01*
X163857142Y-148852380D02*
X163657142Y-148376190D01*
X163514285Y-148852380D02*
X163514285Y-147852380D01*
X163742857Y-147852380D01*
X163800000Y-147900000D01*
X163828571Y-147947619D01*
X163857142Y-148042857D01*
X163857142Y-148185714D01*
X163828571Y-148280952D01*
X163800000Y-148328571D01*
X163742857Y-148376190D01*
X163514285Y-148376190D01*
X164114285Y-148328571D02*
X164314285Y-148328571D01*
X164400000Y-148852380D02*
X164114285Y-148852380D01*
X164114285Y-147852380D01*
X164400000Y-147852380D01*
X164942857Y-148852380D02*
X164657142Y-148852380D01*
X164657142Y-147852380D01*
X165142857Y-148328571D02*
X165342857Y-148328571D01*
X165428571Y-148852380D02*
X165142857Y-148852380D01*
X165142857Y-147852380D01*
X165428571Y-147852380D01*
X166000000Y-148852380D02*
X165657142Y-148852380D01*
X165828571Y-148852380D02*
X165828571Y-147852380D01*
X165771428Y-147995238D01*
X165714285Y-148090476D01*
X165657142Y-148138095D01*
X167057142Y-148852380D02*
X166857142Y-148376190D01*
X166714285Y-148852380D02*
X166714285Y-147852380D01*
X166942857Y-147852380D01*
X167000000Y-147900000D01*
X167028571Y-147947619D01*
X167057142Y-148042857D01*
X167057142Y-148185714D01*
X167028571Y-148280952D01*
X167000000Y-148328571D01*
X166942857Y-148376190D01*
X166714285Y-148376190D01*
X167314285Y-148328571D02*
X167514285Y-148328571D01*
X167600000Y-148852380D02*
X167314285Y-148852380D01*
X167314285Y-147852380D01*
X167600000Y-147852380D01*
X168142857Y-148852380D02*
X167857142Y-148852380D01*
X167857142Y-147852380D01*
X168342857Y-148328571D02*
X168542857Y-148328571D01*
X168628571Y-148852380D02*
X168342857Y-148852380D01*
X168342857Y-147852380D01*
X168628571Y-147852380D01*
X169200000Y-148852380D02*
X168857142Y-148852380D01*
X169028571Y-148852380D02*
X169028571Y-147852380D01*
X168971428Y-147995238D01*
X168914285Y-148090476D01*
X168857142Y-148138095D01*
X169314285Y-148947619D02*
X169771428Y-148947619D01*
X169914285Y-148852380D02*
X169914285Y-147852380D01*
X170257142Y-148852380D01*
X170257142Y-147852380D01*
X170885714Y-148757142D02*
X170857142Y-148804761D01*
X170771428Y-148852380D01*
X170714285Y-148852380D01*
X170628571Y-148804761D01*
X170571428Y-148709523D01*
X170542857Y-148614285D01*
X170514285Y-148423809D01*
X170514285Y-148280952D01*
X170542857Y-148090476D01*
X170571428Y-147995238D01*
X170628571Y-147900000D01*
X170714285Y-147852380D01*
X170771428Y-147852380D01*
X170857142Y-147900000D01*
X170885714Y-147947619D01*
D10*
X142047619Y-148952380D02*
X142047619Y-147952380D01*
X142523809Y-148952380D02*
X142523809Y-147952380D01*
X143095238Y-148952380D01*
X143095238Y-147952380D01*
X143761904Y-148476190D02*
X143761904Y-148952380D01*
X143428571Y-147952380D02*
X143761904Y-148476190D01*
X144095238Y-147952380D01*
X144857142Y-148285714D02*
X144857142Y-148952380D01*
X144619047Y-147904761D02*
X144380952Y-148619047D01*
X145000000Y-148619047D01*
X146714285Y-148857142D02*
X146666666Y-148904761D01*
X146523809Y-148952380D01*
X146428571Y-148952380D01*
X146285714Y-148904761D01*
X146190476Y-148809523D01*
X146142857Y-148714285D01*
X146095238Y-148523809D01*
X146095238Y-148380952D01*
X146142857Y-148190476D01*
X146190476Y-148095238D01*
X146285714Y-148000000D01*
X146428571Y-147952380D01*
X146523809Y-147952380D01*
X146666666Y-148000000D01*
X146714285Y-148047619D01*
X147333333Y-147952380D02*
X147523809Y-147952380D01*
X147619047Y-148000000D01*
X147714285Y-148095238D01*
X147761904Y-148285714D01*
X147761904Y-148619047D01*
X147714285Y-148809523D01*
X147619047Y-148904761D01*
X147523809Y-148952380D01*
X147333333Y-148952380D01*
X147238095Y-148904761D01*
X147142857Y-148809523D01*
X147095238Y-148619047D01*
X147095238Y-148285714D01*
X147142857Y-148095238D01*
X147238095Y-148000000D01*
X147333333Y-147952380D01*
X148190476Y-148952380D02*
X148190476Y-147952380D01*
X148523809Y-148666666D01*
X148857142Y-147952380D01*
X148857142Y-148952380D01*
X149095238Y-149047619D02*
X149857142Y-149047619D01*
X150095238Y-148952380D02*
X150095238Y-147952380D01*
X150571428Y-148952380D02*
X150571428Y-147952380D01*
X151142857Y-148952380D01*
X151142857Y-147952380D01*
X151809523Y-148476190D02*
X151809523Y-148952380D01*
X151476190Y-147952380D02*
X151809523Y-148476190D01*
X152142857Y-147952380D01*
X152904761Y-148285714D02*
X152904761Y-148952380D01*
X152666666Y-147904761D02*
X152428571Y-148619047D01*
X153047619Y-148619047D01*
D13*
X127766666Y-148857142D02*
X127733333Y-148904761D01*
X127633333Y-148952380D01*
X127566666Y-148952380D01*
X127466666Y-148904761D01*
X127400000Y-148809523D01*
X127366666Y-148714285D01*
X127333333Y-148523809D01*
X127333333Y-148380952D01*
X127366666Y-148190476D01*
X127400000Y-148095238D01*
X127466666Y-148000000D01*
X127566666Y-147952380D01*
X127633333Y-147952380D01*
X127733333Y-148000000D01*
X127766666Y-148047619D01*
X128200000Y-147952380D02*
X128333333Y-147952380D01*
X128400000Y-148000000D01*
X128466666Y-148095238D01*
X128500000Y-148285714D01*
X128500000Y-148619047D01*
X128466666Y-148809523D01*
X128400000Y-148904761D01*
X128333333Y-148952380D01*
X128200000Y-148952380D01*
X128133333Y-148904761D01*
X128066666Y-148809523D01*
X128033333Y-148619047D01*
X128033333Y-148285714D01*
X128066666Y-148095238D01*
X128133333Y-148000000D01*
X128200000Y-147952380D01*
X128800000Y-148952380D02*
X128800000Y-147952380D01*
X129033333Y-148666666D01*
X129266666Y-147952380D01*
X129266666Y-148952380D01*
X129433333Y-149047619D02*
X129966666Y-149047619D01*
X130133333Y-148952380D02*
X130133333Y-147952380D01*
X130466666Y-148952380D02*
X130466666Y-147952380D01*
X130866666Y-148952380D01*
X130866666Y-147952380D01*
X131333333Y-148476190D02*
X131333333Y-148952380D01*
X131100000Y-147952380D02*
X131333333Y-148476190D01*
X131566666Y-147952380D01*
X131766666Y-148047619D02*
X131800000Y-148000000D01*
X131866666Y-147952380D01*
X132033333Y-147952380D01*
X132100000Y-148000000D01*
X132133333Y-148047619D01*
X132166666Y-148142857D01*
X132166666Y-148238095D01*
X132133333Y-148380952D01*
X131733333Y-148952380D01*
X132166666Y-148952380D01*
X133000000Y-148952380D02*
X133000000Y-147952380D01*
X133333333Y-148952380D02*
X133333333Y-147952380D01*
X133733333Y-148952380D01*
X133733333Y-147952380D01*
X134200000Y-148476190D02*
X134200000Y-148952380D01*
X133966666Y-147952380D02*
X134200000Y-148476190D01*
X134433333Y-147952380D01*
X134600000Y-147952380D02*
X135033333Y-147952380D01*
X134800000Y-148333333D01*
X134900000Y-148333333D01*
X134966666Y-148380952D01*
X135000000Y-148428571D01*
X135033333Y-148523809D01*
X135033333Y-148761904D01*
X135000000Y-148857142D01*
X134966666Y-148904761D01*
X134900000Y-148952380D01*
X134700000Y-148952380D01*
X134633333Y-148904761D01*
X134600000Y-148857142D01*
X136266666Y-148857142D02*
X136233333Y-148904761D01*
X136133333Y-148952380D01*
X136066666Y-148952380D01*
X135966666Y-148904761D01*
X135900000Y-148809523D01*
X135866666Y-148714285D01*
X135833333Y-148523809D01*
X135833333Y-148380952D01*
X135866666Y-148190476D01*
X135900000Y-148095238D01*
X135966666Y-148000000D01*
X136066666Y-147952380D01*
X136133333Y-147952380D01*
X136233333Y-148000000D01*
X136266666Y-148047619D01*
X136700000Y-147952380D02*
X136833333Y-147952380D01*
X136900000Y-148000000D01*
X136966666Y-148095238D01*
X137000000Y-148285714D01*
X137000000Y-148619047D01*
X136966666Y-148809523D01*
X136900000Y-148904761D01*
X136833333Y-148952380D01*
X136700000Y-148952380D01*
X136633333Y-148904761D01*
X136566666Y-148809523D01*
X136533333Y-148619047D01*
X136533333Y-148285714D01*
X136566666Y-148095238D01*
X136633333Y-148000000D01*
X136700000Y-147952380D01*
X137300000Y-148952380D02*
X137300000Y-147952380D01*
X137533333Y-148666666D01*
X137766666Y-147952380D01*
X137766666Y-148952380D01*
X137933333Y-149047619D02*
X138466666Y-149047619D01*
X138633333Y-148952380D02*
X138633333Y-147952380D01*
X138966666Y-148952380D02*
X138966666Y-147952380D01*
X139366666Y-148952380D01*
X139366666Y-147952380D01*
X139833333Y-148476190D02*
X139833333Y-148952380D01*
X139600000Y-147952380D02*
X139833333Y-148476190D01*
X140066666Y-147952380D01*
X140233333Y-147952380D02*
X140666666Y-147952380D01*
X140433333Y-148333333D01*
X140533333Y-148333333D01*
X140600000Y-148380952D01*
X140633333Y-148428571D01*
X140666666Y-148523809D01*
X140666666Y-148761904D01*
X140633333Y-148857142D01*
X140600000Y-148904761D01*
X140533333Y-148952380D01*
X140333333Y-148952380D01*
X140266666Y-148904761D01*
X140233333Y-148857142D01*
X112695238Y-148952380D02*
X112695238Y-147952380D01*
X113076190Y-148952380D02*
X113076190Y-147952380D01*
X113533333Y-148952380D01*
X113533333Y-147952380D01*
X114066666Y-148476190D02*
X114066666Y-148952380D01*
X113800000Y-147952380D02*
X114066666Y-148476190D01*
X114333333Y-147952380D01*
X115019047Y-148952380D02*
X114561904Y-148952380D01*
X114790476Y-148952380D02*
X114790476Y-147952380D01*
X114714285Y-148095238D01*
X114638095Y-148190476D01*
X114561904Y-148238095D01*
X116428571Y-148857142D02*
X116390476Y-148904761D01*
X116276190Y-148952380D01*
X116200000Y-148952380D01*
X116085714Y-148904761D01*
X116009523Y-148809523D01*
X115971428Y-148714285D01*
X115933333Y-148523809D01*
X115933333Y-148380952D01*
X115971428Y-148190476D01*
X116009523Y-148095238D01*
X116085714Y-148000000D01*
X116200000Y-147952380D01*
X116276190Y-147952380D01*
X116390476Y-148000000D01*
X116428571Y-148047619D01*
X116923809Y-147952380D02*
X117076190Y-147952380D01*
X117152380Y-148000000D01*
X117228571Y-148095238D01*
X117266666Y-148285714D01*
X117266666Y-148619047D01*
X117228571Y-148809523D01*
X117152380Y-148904761D01*
X117076190Y-148952380D01*
X116923809Y-148952380D01*
X116847619Y-148904761D01*
X116771428Y-148809523D01*
X116733333Y-148619047D01*
X116733333Y-148285714D01*
X116771428Y-148095238D01*
X116847619Y-148000000D01*
X116923809Y-147952380D01*
X117609523Y-148952380D02*
X117609523Y-147952380D01*
X117876190Y-148666666D01*
X118142857Y-147952380D01*
X118142857Y-148952380D01*
X118333333Y-149047619D02*
X118942857Y-149047619D01*
X119133333Y-148952380D02*
X119133333Y-147952380D01*
X119514285Y-148952380D02*
X119514285Y-147952380D01*
X119971428Y-148952380D01*
X119971428Y-147952380D01*
X120504761Y-148476190D02*
X120504761Y-148952380D01*
X120238095Y-147952380D02*
X120504761Y-148476190D01*
X120771428Y-147952380D01*
X121457142Y-148952380D02*
X121000000Y-148952380D01*
X121228571Y-148952380D02*
X121228571Y-147952380D01*
X121152380Y-148095238D01*
X121076190Y-148190476D01*
X121000000Y-148238095D01*
X122409523Y-148952380D02*
X122409523Y-147952380D01*
X122790476Y-148952380D02*
X122790476Y-147952380D01*
X123247619Y-148952380D01*
X123247619Y-147952380D01*
X123780952Y-148476190D02*
X123780952Y-148952380D01*
X123514285Y-147952380D02*
X123780952Y-148476190D01*
X124047619Y-147952380D01*
X124276190Y-148047619D02*
X124314285Y-148000000D01*
X124390476Y-147952380D01*
X124580952Y-147952380D01*
X124657142Y-148000000D01*
X124695238Y-148047619D01*
X124733333Y-148142857D01*
X124733333Y-148238095D01*
X124695238Y-148380952D01*
X124238095Y-148952380D01*
X124733333Y-148952380D01*
D14*
X105000000Y-103750000D02*
X106500000Y-103750000D01*
X109000000Y-102500000D02*
X109000000Y-98000000D01*
X106500000Y-96750000D02*
X105000000Y-96750000D01*
X102500000Y-98000000D02*
X102500000Y-102500000D01*
X178150000Y-125550000D02*
X178150000Y-121550000D01*
X181750000Y-125550000D02*
X178150000Y-125550000D01*
X181750000Y-121550000D02*
X181750000Y-125550000D01*
X178150000Y-121550000D02*
X181750000Y-121550000D01*
X178150000Y-125550000D02*
X181750000Y-121550000D01*
X178150000Y-123550000D02*
X173950000Y-123550000D01*
X185950000Y-123550000D02*
X181750000Y-123550000D01*
X179950000Y-120150000D02*
X176350000Y-120150000D01*
X179950000Y-126950000D02*
X176350000Y-126950000D01*
X176350000Y-126950000D02*
X176350000Y-120150000D01*
X179950000Y-128450000D02*
X182450000Y-133050000D01*
X179950000Y-126950000D02*
X179950000Y-128450000D01*
X185950000Y-123550000D02*
X185950000Y-121050000D01*
X179950000Y-120150000D02*
X179950000Y-119350000D01*
X173950000Y-121050000D02*
X173950000Y-123550000D01*
X184200000Y-131650000D02*
X181700000Y-131650000D01*
X175800000Y-131650000D02*
X178250000Y-131650000D01*
X172200000Y-135900000D02*
X172200000Y-116100000D01*
X187800000Y-135900000D02*
X172200000Y-135900000D01*
X187800000Y-116100000D02*
X187800000Y-135900000D01*
X187800000Y-116100000D02*
X181200000Y-116100000D01*
X178800000Y-116100000D02*
X172200000Y-116100000D01*
X148930000Y-111575000D02*
X148930000Y-111330000D01*
X148930000Y-113670000D02*
X148930000Y-113425000D01*
X152570000Y-111575000D02*
X152570000Y-111330000D01*
X152570000Y-113670000D02*
X152570000Y-113425000D01*
X152570000Y-111330000D02*
X148930000Y-111330000D01*
X152570000Y-113670000D02*
X148930000Y-113670000D01*
X133930000Y-111575000D02*
X133930000Y-111330000D01*
X133930000Y-113670000D02*
X133930000Y-113425000D01*
X137570000Y-111575000D02*
X137570000Y-111330000D01*
X137570000Y-113670000D02*
X137570000Y-113425000D01*
X137570000Y-111330000D02*
X133930000Y-111330000D01*
X137570000Y-113670000D02*
X133930000Y-113670000D01*
X130570000Y-113425000D02*
X130570000Y-113670000D01*
X130570000Y-111330000D02*
X130570000Y-111575000D01*
X126930000Y-113425000D02*
X126930000Y-113670000D01*
X126930000Y-111330000D02*
X126930000Y-111575000D01*
X126930000Y-113670000D02*
X130570000Y-113670000D01*
X126930000Y-111330000D02*
X130570000Y-111330000D01*
X145570000Y-113425000D02*
X145570000Y-113670000D01*
X145570000Y-111330000D02*
X145570000Y-111575000D01*
X141930000Y-113425000D02*
X141930000Y-113670000D01*
X141930000Y-111330000D02*
X141930000Y-111575000D01*
X141930000Y-113670000D02*
X145570000Y-113670000D01*
X141930000Y-111330000D02*
X145570000Y-111330000D01*
X151670000Y-70500000D02*
X151670000Y-69170000D01*
X151670000Y-69170000D02*
X153000000Y-69170000D01*
X154270000Y-69170000D02*
X169570000Y-69170000D01*
X169570000Y-71830000D02*
X169570000Y-69170000D01*
X154270000Y-71830000D02*
X169570000Y-71830000D01*
X154270000Y-71830000D02*
X154270000Y-69170000D01*
X183830000Y-70500000D02*
X183830000Y-71830000D01*
X183830000Y-71830000D02*
X182500000Y-71830000D01*
X181230000Y-71830000D02*
X171010000Y-71830000D01*
X171010000Y-69170000D02*
X171010000Y-71830000D01*
X181230000Y-69170000D02*
X171010000Y-69170000D01*
X181230000Y-69170000D02*
X181230000Y-71830000D01*
X182508478Y-111238478D02*
G75*
G03X180670000Y-106800000I-1838478J1838478D01*
G01*
X178831522Y-111238478D02*
G75*
G02X180670000Y-106800000I1838478J1838478D01*
G01*
X178870000Y-111250000D02*
X182470000Y-111250000D01*
X176698478Y-111243478D02*
G75*
G03X174860000Y-106805000I-1838478J1838478D01*
G01*
X173021522Y-111243478D02*
G75*
G02X174860000Y-106805000I1838478J1838478D01*
G01*
X173060000Y-111255000D02*
X176660000Y-111255000D01*
X150391000Y-122730000D02*
X150391000Y-124240000D01*
X146690000Y-122730000D02*
X146690000Y-124240000D01*
X143420000Y-124240000D02*
X153660000Y-124240000D01*
X153660000Y-122730000D02*
X153660000Y-127371000D01*
X143420000Y-122730000D02*
X143420000Y-127371000D01*
X143420000Y-127371000D02*
X153660000Y-127371000D01*
X143420000Y-122730000D02*
X153660000Y-122730000D01*
X150391000Y-130230000D02*
X150391000Y-131740000D01*
X146690000Y-130230000D02*
X146690000Y-131740000D01*
X143420000Y-131740000D02*
X153660000Y-131740000D01*
X153660000Y-130230000D02*
X153660000Y-134871000D01*
X143420000Y-130230000D02*
X143420000Y-134871000D01*
X143420000Y-134871000D02*
X153660000Y-134871000D01*
X143420000Y-130230000D02*
X153660000Y-130230000D01*
X136391000Y-122730000D02*
X136391000Y-124240000D01*
X132690000Y-122730000D02*
X132690000Y-124240000D01*
X129420000Y-124240000D02*
X139660000Y-124240000D01*
X139660000Y-122730000D02*
X139660000Y-127371000D01*
X129420000Y-122730000D02*
X129420000Y-127371000D01*
X129420000Y-127371000D02*
X139660000Y-127371000D01*
X129420000Y-122730000D02*
X139660000Y-122730000D01*
X136391000Y-130230000D02*
X136391000Y-131740000D01*
X132690000Y-130230000D02*
X132690000Y-131740000D01*
X129420000Y-131740000D02*
X139660000Y-131740000D01*
X139660000Y-130230000D02*
X139660000Y-134871000D01*
X129420000Y-130230000D02*
X129420000Y-134871000D01*
X129420000Y-134871000D02*
X139660000Y-134871000D01*
X129420000Y-130230000D02*
X139660000Y-130230000D01*
X161525000Y-107140000D02*
X161525000Y-105890000D01*
X156325000Y-107140000D02*
X161525000Y-107140000D01*
X156325000Y-102640000D02*
X156325000Y-107140000D01*
X161525000Y-102640000D02*
X156325000Y-102640000D01*
X161525000Y-103890000D02*
X161525000Y-102640000D01*
X161525000Y-105890000D02*
G75*
G02X161525000Y-103890000I0J1000000D01*
G01*
X168730000Y-107060000D02*
X168730000Y-105810000D01*
X163530000Y-107060000D02*
X168730000Y-107060000D01*
X163530000Y-102560000D02*
X163530000Y-107060000D01*
X168730000Y-102560000D02*
X163530000Y-102560000D01*
X168730000Y-103810000D02*
X168730000Y-102560000D01*
X168730000Y-105810000D02*
G75*
G02X168730000Y-103810000I0J1000000D01*
G01*
X173880000Y-100500000D02*
X174650000Y-100500000D01*
X181960000Y-100500000D02*
X181190000Y-100500000D01*
X174650000Y-101870000D02*
X181190000Y-101870000D01*
X174650000Y-99130000D02*
X174650000Y-101870000D01*
X181190000Y-99130000D02*
X174650000Y-99130000D01*
X181190000Y-101870000D02*
X181190000Y-99130000D01*
X173880000Y-104000000D02*
X174650000Y-104000000D01*
X181960000Y-104000000D02*
X181190000Y-104000000D01*
X174650000Y-105370000D02*
X181190000Y-105370000D01*
X174650000Y-102630000D02*
X174650000Y-105370000D01*
X181190000Y-102630000D02*
X174650000Y-102630000D01*
X181190000Y-105370000D02*
X181190000Y-102630000D01*
X157880000Y-97000000D02*
X158650000Y-97000000D01*
X165960000Y-97000000D02*
X165190000Y-97000000D01*
X158650000Y-98370000D02*
X165190000Y-98370000D01*
X158650000Y-95630000D02*
X158650000Y-98370000D01*
X165190000Y-95630000D02*
X158650000Y-95630000D01*
X165190000Y-98370000D02*
X165190000Y-95630000D01*
X182120000Y-97000000D02*
X181350000Y-97000000D01*
X174040000Y-97000000D02*
X174810000Y-97000000D01*
X181350000Y-95630000D02*
X174810000Y-95630000D01*
X181350000Y-98370000D02*
X181350000Y-95630000D01*
X174810000Y-98370000D02*
X181350000Y-98370000D01*
X174810000Y-95630000D02*
X174810000Y-98370000D01*
X161650000Y-125550000D02*
X161650000Y-121550000D01*
X165250000Y-125550000D02*
X161650000Y-125550000D01*
X165250000Y-121550000D02*
X165250000Y-125550000D01*
X161650000Y-121550000D02*
X165250000Y-121550000D01*
X161650000Y-125550000D02*
X165250000Y-121550000D01*
X161650000Y-123550000D02*
X157450000Y-123550000D01*
X169450000Y-123550000D02*
X165250000Y-123550000D01*
X163450000Y-120150000D02*
X159850000Y-120150000D01*
X163450000Y-126950000D02*
X159850000Y-126950000D01*
X159850000Y-126950000D02*
X159850000Y-120150000D01*
X163450000Y-128450000D02*
X165950000Y-133050000D01*
X163450000Y-126950000D02*
X163450000Y-128450000D01*
X169450000Y-123550000D02*
X169450000Y-121050000D01*
X163450000Y-120150000D02*
X163450000Y-119350000D01*
X157450000Y-121050000D02*
X157450000Y-123550000D01*
X167700000Y-131650000D02*
X165200000Y-131650000D01*
X159300000Y-131650000D02*
X161750000Y-131650000D01*
X155700000Y-135900000D02*
X155700000Y-116100000D01*
X171300000Y-135900000D02*
X155700000Y-135900000D01*
X171300000Y-116100000D02*
X171300000Y-135900000D01*
X171300000Y-116100000D02*
X164700000Y-116100000D01*
X162300000Y-116100000D02*
X155700000Y-116100000D01*
X171300000Y-146400000D02*
X171700000Y-146400000D01*
X171300000Y-145760000D02*
X171300000Y-146400000D01*
X182842000Y-142092000D02*
X182447000Y-142488000D01*
X185488000Y-139446000D02*
X185108000Y-139826000D01*
X183093000Y-142374000D02*
X182713000Y-142754000D01*
X185754000Y-139712000D02*
X185359000Y-140108000D01*
X177842000Y-142092000D02*
X177447000Y-142488000D01*
X180488000Y-139446000D02*
X180108000Y-139826000D01*
X178093000Y-142374000D02*
X177713000Y-142754000D01*
X180754000Y-139712000D02*
X180359000Y-140108000D01*
X172552000Y-142381000D02*
X172446000Y-142488000D01*
X175488000Y-139446000D02*
X175381000Y-139553000D01*
X172818000Y-142647000D02*
X172712000Y-142754000D01*
X175754000Y-139712000D02*
X175647000Y-139819000D01*
X186660000Y-137040000D02*
X186660000Y-146160000D01*
X171540000Y-137040000D02*
X171540000Y-146160000D01*
X171540000Y-146160000D02*
X186660000Y-146160000D01*
X171540000Y-137040000D02*
X186660000Y-137040000D01*
X171540000Y-144600000D02*
X186660000Y-144600000D01*
X171540000Y-145700000D02*
X186660000Y-145700000D01*
X186280000Y-141100000D02*
G75*
G03X186280000Y-141100000I-2180000J0D01*
G01*
X181280000Y-141100000D02*
G75*
G03X181280000Y-141100000I-2180000J0D01*
G01*
X176280000Y-141100000D02*
G75*
G03X176280000Y-141100000I-2180000J0D01*
G01*
X110700000Y-146300000D02*
X111100000Y-146300000D01*
X110700000Y-145660000D02*
X110700000Y-146300000D01*
X122242000Y-141992000D02*
X121847000Y-142388000D01*
X124888000Y-139346000D02*
X124508000Y-139726000D01*
X122493000Y-142274000D02*
X122113000Y-142654000D01*
X125154000Y-139612000D02*
X124759000Y-140008000D01*
X117242000Y-141992000D02*
X116847000Y-142388000D01*
X119888000Y-139346000D02*
X119508000Y-139726000D01*
X117493000Y-142274000D02*
X117113000Y-142654000D01*
X120154000Y-139612000D02*
X119759000Y-140008000D01*
X111952000Y-142281000D02*
X111846000Y-142388000D01*
X114888000Y-139346000D02*
X114781000Y-139453000D01*
X112218000Y-142547000D02*
X112112000Y-142654000D01*
X115154000Y-139612000D02*
X115047000Y-139719000D01*
X126060000Y-136940000D02*
X126060000Y-146060000D01*
X110940000Y-136940000D02*
X110940000Y-146060000D01*
X110940000Y-146060000D02*
X126060000Y-146060000D01*
X110940000Y-136940000D02*
X126060000Y-136940000D01*
X110940000Y-144500000D02*
X126060000Y-144500000D01*
X110940000Y-145600000D02*
X126060000Y-145600000D01*
X125680000Y-141000000D02*
G75*
G03X125680000Y-141000000I-2180000J0D01*
G01*
X120680000Y-141000000D02*
G75*
G03X120680000Y-141000000I-2180000J0D01*
G01*
X115680000Y-141000000D02*
G75*
G03X115680000Y-141000000I-2180000J0D01*
G01*
X141700000Y-146300000D02*
X142100000Y-146300000D01*
X141700000Y-145660000D02*
X141700000Y-146300000D01*
X148242000Y-141992000D02*
X147847000Y-142388000D01*
X150888000Y-139346000D02*
X150508000Y-139726000D01*
X148493000Y-142274000D02*
X148113000Y-142654000D01*
X151154000Y-139612000D02*
X150759000Y-140008000D01*
X142952000Y-142281000D02*
X142846000Y-142388000D01*
X145888000Y-139346000D02*
X145781000Y-139453000D01*
X143218000Y-142547000D02*
X143112000Y-142654000D01*
X146154000Y-139612000D02*
X146047000Y-139719000D01*
X152060000Y-136940000D02*
X152060000Y-146060000D01*
X141940000Y-136940000D02*
X141940000Y-146060000D01*
X141940000Y-146060000D02*
X152060000Y-146060000D01*
X141940000Y-136940000D02*
X152060000Y-136940000D01*
X141940000Y-144500000D02*
X152060000Y-144500000D01*
X141940000Y-145600000D02*
X152060000Y-145600000D01*
X151680000Y-141000000D02*
G75*
G03X151680000Y-141000000I-2180000J0D01*
G01*
X146680000Y-141000000D02*
G75*
G03X146680000Y-141000000I-2180000J0D01*
G01*
X102200000Y-58900000D02*
X102200000Y-59300000D01*
X102840000Y-58900000D02*
X102200000Y-58900000D01*
X106508000Y-70442000D02*
X106112000Y-70047000D01*
X109154000Y-73088000D02*
X108774000Y-72708000D01*
X106226000Y-70693000D02*
X105846000Y-70313000D01*
X108888000Y-73354000D02*
X108492000Y-72959000D01*
X106508000Y-65442000D02*
X106112000Y-65047000D01*
X109154000Y-68088000D02*
X108774000Y-67708000D01*
X106226000Y-65693000D02*
X105846000Y-65313000D01*
X108888000Y-68354000D02*
X108492000Y-67959000D01*
X106219000Y-60152000D02*
X106112000Y-60046000D01*
X109154000Y-63088000D02*
X109047000Y-62981000D01*
X105953000Y-60418000D02*
X105846000Y-60312000D01*
X108888000Y-63354000D02*
X108781000Y-63247000D01*
X111560000Y-74260000D02*
X102440000Y-74260000D01*
X111560000Y-59140000D02*
X102440000Y-59140000D01*
X102440000Y-59140000D02*
X102440000Y-74260000D01*
X111560000Y-59140000D02*
X111560000Y-74260000D01*
X104000000Y-59140000D02*
X104000000Y-74260000D01*
X102900000Y-59140000D02*
X102900000Y-74260000D01*
X109680000Y-71700000D02*
G75*
G03X109680000Y-71700000I-2180000J0D01*
G01*
X109680000Y-66700000D02*
G75*
G03X109680000Y-66700000I-2180000J0D01*
G01*
X109680000Y-61700000D02*
G75*
G03X109680000Y-61700000I-2180000J0D01*
G01*
X155770000Y-146355000D02*
X156170000Y-146355000D01*
X155770000Y-145715000D02*
X155770000Y-146355000D01*
X167312000Y-142047000D02*
X166917000Y-142443000D01*
X169958000Y-139401000D02*
X169578000Y-139781000D01*
X167563000Y-142329000D02*
X167183000Y-142709000D01*
X170224000Y-139667000D02*
X169829000Y-140063000D01*
X162312000Y-142047000D02*
X161917000Y-142443000D01*
X164958000Y-139401000D02*
X164578000Y-139781000D01*
X162563000Y-142329000D02*
X162183000Y-142709000D01*
X165224000Y-139667000D02*
X164829000Y-140063000D01*
X157022000Y-142336000D02*
X156916000Y-142443000D01*
X159958000Y-139401000D02*
X159851000Y-139508000D01*
X157288000Y-142602000D02*
X157182000Y-142709000D01*
X160224000Y-139667000D02*
X160117000Y-139774000D01*
X171130000Y-136995000D02*
X171130000Y-146115000D01*
X156010000Y-136995000D02*
X156010000Y-146115000D01*
X156010000Y-146115000D02*
X171130000Y-146115000D01*
X156010000Y-136995000D02*
X171130000Y-136995000D01*
X156010000Y-144555000D02*
X171130000Y-144555000D01*
X156010000Y-145655000D02*
X171130000Y-145655000D01*
X170750000Y-141055000D02*
G75*
G03X170750000Y-141055000I-2180000J0D01*
G01*
X165750000Y-141055000D02*
G75*
G03X165750000Y-141055000I-2180000J0D01*
G01*
X160750000Y-141055000D02*
G75*
G03X160750000Y-141055000I-2180000J0D01*
G01*
X126200000Y-146300000D02*
X126600000Y-146300000D01*
X126200000Y-145660000D02*
X126200000Y-146300000D01*
X137742000Y-141992000D02*
X137347000Y-142388000D01*
X140388000Y-139346000D02*
X140008000Y-139726000D01*
X137993000Y-142274000D02*
X137613000Y-142654000D01*
X140654000Y-139612000D02*
X140259000Y-140008000D01*
X132742000Y-141992000D02*
X132347000Y-142388000D01*
X135388000Y-139346000D02*
X135008000Y-139726000D01*
X132993000Y-142274000D02*
X132613000Y-142654000D01*
X135654000Y-139612000D02*
X135259000Y-140008000D01*
X127452000Y-142281000D02*
X127346000Y-142388000D01*
X130388000Y-139346000D02*
X130281000Y-139453000D01*
X127718000Y-142547000D02*
X127612000Y-142654000D01*
X130654000Y-139612000D02*
X130547000Y-139719000D01*
X141560000Y-136940000D02*
X141560000Y-146060000D01*
X126440000Y-136940000D02*
X126440000Y-146060000D01*
X126440000Y-146060000D02*
X141560000Y-146060000D01*
X126440000Y-136940000D02*
X141560000Y-136940000D01*
X126440000Y-144500000D02*
X141560000Y-144500000D01*
X126440000Y-145600000D02*
X141560000Y-145600000D01*
X141180000Y-141000000D02*
G75*
G03X141180000Y-141000000I-2180000J0D01*
G01*
X136180000Y-141000000D02*
G75*
G03X136180000Y-141000000I-2180000J0D01*
G01*
X131180000Y-141000000D02*
G75*
G03X131180000Y-141000000I-2180000J0D01*
G01*
X165610000Y-114720000D02*
X165610000Y-111780000D01*
X165370000Y-114720000D02*
X165370000Y-111780000D01*
X165490000Y-114720000D02*
X165490000Y-111780000D01*
X159930000Y-113250000D02*
X160950000Y-113250000D01*
X167410000Y-113250000D02*
X166390000Y-113250000D01*
X160950000Y-114720000D02*
X166390000Y-114720000D01*
X160950000Y-111780000D02*
X160950000Y-114720000D01*
X166390000Y-111780000D02*
X160950000Y-111780000D01*
X166390000Y-114720000D02*
X166390000Y-111780000D01*
X182110000Y-114770000D02*
X182110000Y-111830000D01*
X181870000Y-114770000D02*
X181870000Y-111830000D01*
X181990000Y-114770000D02*
X181990000Y-111830000D01*
X176430000Y-113300000D02*
X177450000Y-113300000D01*
X183910000Y-113300000D02*
X182890000Y-113300000D01*
X177450000Y-114770000D02*
X182890000Y-114770000D01*
X177450000Y-111830000D02*
X177450000Y-114770000D01*
X182890000Y-111830000D02*
X177450000Y-111830000D01*
X182890000Y-114770000D02*
X182890000Y-111830000D01*
X149315000Y-96960000D02*
X152000000Y-96960000D01*
X149315000Y-95040000D02*
X149315000Y-96960000D01*
X152000000Y-95040000D02*
X149315000Y-95040000D01*
X145815000Y-96960000D02*
X148500000Y-96960000D01*
X145815000Y-95040000D02*
X145815000Y-96960000D01*
X148500000Y-95040000D02*
X145815000Y-95040000D01*
X135315000Y-96960000D02*
X138000000Y-96960000D01*
X135315000Y-95040000D02*
X135315000Y-96960000D01*
X138000000Y-95040000D02*
X135315000Y-95040000D01*
X142315000Y-96960000D02*
X145000000Y-96960000D01*
X142315000Y-95040000D02*
X142315000Y-96960000D01*
X145000000Y-95040000D02*
X142315000Y-95040000D01*
X131815000Y-96960000D02*
X134500000Y-96960000D01*
X131815000Y-95040000D02*
X131815000Y-96960000D01*
X134500000Y-95040000D02*
X131815000Y-95040000D01*
X138815000Y-96960000D02*
X141500000Y-96960000D01*
X138815000Y-95040000D02*
X138815000Y-96960000D01*
X141500000Y-95040000D02*
X138815000Y-95040000D01*
X131330000Y-107160000D02*
X131330000Y-105910000D01*
X126130000Y-107160000D02*
X131330000Y-107160000D01*
X126130000Y-102660000D02*
X126130000Y-107160000D01*
X131330000Y-102660000D02*
X126130000Y-102660000D01*
X131330000Y-103910000D02*
X131330000Y-102660000D01*
X131330000Y-105910000D02*
G75*
G02X131330000Y-103910000I0J1000000D01*
G01*
X150330000Y-58830000D02*
X149000000Y-58830000D01*
X150330000Y-57500000D02*
X150330000Y-58830000D01*
X150330000Y-56230000D02*
X147670000Y-56230000D01*
X147670000Y-56230000D02*
X147670000Y-51090000D01*
X150330000Y-56230000D02*
X150330000Y-51090000D01*
X150330000Y-51090000D02*
X147670000Y-51090000D01*
X138075000Y-76025000D02*
G75*
G03X138075000Y-70975000I0J2525000D01*
G01*
X131825000Y-76025000D02*
G75*
G02X131825000Y-70975000I0J2525000D01*
G01*
X131825000Y-76025000D02*
X138075000Y-76025000D01*
X131825000Y-70975000D02*
X138075000Y-70975000D01*
X143657617Y-72387736D02*
G75*
G02X144050000Y-71800000I2302383J-1112264D01*
G01*
X143603600Y-74598807D02*
G75*
G03X145960000Y-76100000I2356400J1098807D01*
G01*
X148316400Y-74598807D02*
G75*
G02X145960000Y-76100000I-2356400J1098807D01*
G01*
X148282631Y-72377955D02*
G75*
G03X147900000Y-71800000I-2322631J-1122045D01*
G01*
X147900000Y-71800000D02*
X144050000Y-71800000D01*
X153830000Y-107160000D02*
X153830000Y-105910000D01*
X148630000Y-107160000D02*
X153830000Y-107160000D01*
X148630000Y-102660000D02*
X148630000Y-107160000D01*
X153830000Y-102660000D02*
X148630000Y-102660000D01*
X153830000Y-103910000D02*
X153830000Y-102660000D01*
X153830000Y-105910000D02*
G75*
G02X153830000Y-103910000I0J1000000D01*
G01*
X146330000Y-107160000D02*
X146330000Y-105910000D01*
X141130000Y-107160000D02*
X146330000Y-107160000D01*
X141130000Y-102660000D02*
X141130000Y-107160000D01*
X146330000Y-102660000D02*
X141130000Y-102660000D01*
X146330000Y-103910000D02*
X146330000Y-102660000D01*
X146330000Y-105910000D02*
G75*
G02X146330000Y-103910000I0J1000000D01*
G01*
X138830000Y-107160000D02*
X138830000Y-105910000D01*
X133630000Y-107160000D02*
X138830000Y-107160000D01*
X133630000Y-102660000D02*
X133630000Y-107160000D01*
X138830000Y-102660000D02*
X133630000Y-102660000D01*
X138830000Y-103910000D02*
X138830000Y-102660000D01*
X138830000Y-105910000D02*
G75*
G02X138830000Y-103910000I0J1000000D01*
G01*
X167830000Y-87560000D02*
X167830000Y-86310000D01*
X132150000Y-87560000D02*
X167830000Y-87560000D01*
X132150000Y-83060000D02*
X132150000Y-87560000D01*
X167830000Y-83060000D02*
X132150000Y-83060000D01*
X167830000Y-84310000D02*
X167830000Y-83060000D01*
X167830000Y-86310000D02*
G75*
G02X167830000Y-84310000I0J1000000D01*
G01*
X130690000Y-59580000D02*
X128150000Y-59580000D01*
X130690000Y-57040000D02*
X128150000Y-57040000D01*
X130690000Y-54500000D02*
X128150000Y-54500000D01*
X146580000Y-62160000D02*
X130690000Y-62160000D01*
X146580000Y-51920000D02*
X130690000Y-51920000D01*
X146580000Y-51920000D02*
X146580000Y-62160000D01*
X130690000Y-51920000D02*
X130690000Y-62160000D01*
X214920000Y-102880000D02*
X214920000Y-109121000D01*
X204920000Y-102880000D02*
X204920000Y-109121000D01*
X204920000Y-109121000D02*
X214920000Y-109121000D01*
X204920000Y-102880000D02*
X214920000Y-102880000D01*
X204920000Y-102380000D02*
X204920000Y-109620000D01*
X199920000Y-102380000D02*
X199920000Y-109620000D01*
X199920000Y-109620000D02*
X204920000Y-109620000D01*
X199920000Y-102380000D02*
X204920000Y-102380000D01*
X199920000Y-96930000D02*
X199920000Y-115070000D01*
X189180000Y-96930000D02*
X189180000Y-115070000D01*
X189180000Y-115070000D02*
X199920000Y-115070000D01*
X189180000Y-96930000D02*
X199920000Y-96930000D01*
X188250000Y-56500000D02*
X188250000Y-55000000D01*
X187000000Y-52500000D02*
X182500000Y-52500000D01*
X181250000Y-55000000D02*
X181250000Y-56500000D01*
X182500000Y-59000000D02*
X187000000Y-59000000D01*
X168880000Y-52000000D02*
X169650000Y-52000000D01*
X176960000Y-52000000D02*
X176190000Y-52000000D01*
X169650000Y-53370000D02*
X176190000Y-53370000D01*
X169650000Y-50630000D02*
X169650000Y-53370000D01*
X176190000Y-50630000D02*
X169650000Y-50630000D01*
X176190000Y-53370000D02*
X176190000Y-50630000D01*
X143380000Y-120500000D02*
X144150000Y-120500000D01*
X151460000Y-120500000D02*
X150690000Y-120500000D01*
X144150000Y-121870000D02*
X150690000Y-121870000D01*
X144150000Y-119130000D02*
X144150000Y-121870000D01*
X150690000Y-119130000D02*
X144150000Y-119130000D01*
X150690000Y-121870000D02*
X150690000Y-119130000D01*
X143380000Y-116500000D02*
X144150000Y-116500000D01*
X151460000Y-116500000D02*
X150690000Y-116500000D01*
X144150000Y-117870000D02*
X150690000Y-117870000D01*
X144150000Y-115130000D02*
X144150000Y-117870000D01*
X150690000Y-115130000D02*
X144150000Y-115130000D01*
X150690000Y-117870000D02*
X150690000Y-115130000D01*
X123000000Y-113120000D02*
X123000000Y-112350000D01*
X123000000Y-105040000D02*
X123000000Y-105810000D01*
X124370000Y-112350000D02*
X124370000Y-105810000D01*
X121630000Y-112350000D02*
X124370000Y-112350000D01*
X121630000Y-105810000D02*
X121630000Y-112350000D01*
X124370000Y-105810000D02*
X121630000Y-105810000D01*
X119500000Y-113120000D02*
X119500000Y-112350000D01*
X119500000Y-105040000D02*
X119500000Y-105810000D01*
X120870000Y-112350000D02*
X120870000Y-105810000D01*
X118130000Y-112350000D02*
X120870000Y-112350000D01*
X118130000Y-105810000D02*
X118130000Y-112350000D01*
X120870000Y-105810000D02*
X118130000Y-105810000D01*
X116000000Y-113120000D02*
X116000000Y-112350000D01*
X116000000Y-105040000D02*
X116000000Y-105810000D01*
X117370000Y-112350000D02*
X117370000Y-105810000D01*
X114630000Y-112350000D02*
X117370000Y-112350000D01*
X114630000Y-105810000D02*
X114630000Y-112350000D01*
X117370000Y-105810000D02*
X114630000Y-105810000D01*
X112500000Y-113120000D02*
X112500000Y-112350000D01*
X112500000Y-105040000D02*
X112500000Y-105810000D01*
X113870000Y-112350000D02*
X113870000Y-105810000D01*
X111130000Y-112350000D02*
X113870000Y-112350000D01*
X111130000Y-105810000D02*
X111130000Y-112350000D01*
X113870000Y-105810000D02*
X111130000Y-105810000D01*
X129380000Y-116500000D02*
X130150000Y-116500000D01*
X137460000Y-116500000D02*
X136690000Y-116500000D01*
X130150000Y-117870000D02*
X136690000Y-117870000D01*
X130150000Y-115130000D02*
X130150000Y-117870000D01*
X136690000Y-115130000D02*
X130150000Y-115130000D01*
X136690000Y-117870000D02*
X136690000Y-115130000D01*
X129380000Y-120500000D02*
X130150000Y-120500000D01*
X137460000Y-120500000D02*
X136690000Y-120500000D01*
X130150000Y-121870000D02*
X136690000Y-121870000D01*
X130150000Y-119130000D02*
X130150000Y-121870000D01*
X136690000Y-119130000D02*
X130150000Y-119130000D01*
X136690000Y-121870000D02*
X136690000Y-119130000D01*
X214920000Y-84380000D02*
X214920000Y-90621000D01*
X204920000Y-84380000D02*
X204920000Y-90621000D01*
X204920000Y-90621000D02*
X214920000Y-90621000D01*
X204920000Y-84380000D02*
X214920000Y-84380000D01*
X204920000Y-83880000D02*
X204920000Y-91120000D01*
X199920000Y-83880000D02*
X199920000Y-91120000D01*
X199920000Y-91120000D02*
X204920000Y-91120000D01*
X199920000Y-83880000D02*
X204920000Y-83880000D01*
X199920000Y-78430000D02*
X199920000Y-96570000D01*
X189180000Y-78430000D02*
X189180000Y-96570000D01*
X189180000Y-96570000D02*
X199920000Y-96570000D01*
X189180000Y-78430000D02*
X199920000Y-78430000D01*
X153230000Y-55770000D02*
X153230000Y-54500000D01*
X154500000Y-55770000D02*
X153230000Y-55770000D01*
X165040000Y-53457071D02*
X165040000Y-53060000D01*
X164280000Y-53457071D02*
X164280000Y-53060000D01*
X165040000Y-44400000D02*
X165040000Y-50400000D01*
X164280000Y-44400000D02*
X165040000Y-44400000D01*
X164280000Y-50400000D02*
X164280000Y-44400000D01*
X163390000Y-53060000D02*
X163390000Y-50400000D01*
X162500000Y-53457071D02*
X162500000Y-53060000D01*
X161740000Y-53457071D02*
X161740000Y-53060000D01*
X162500000Y-44400000D02*
X162500000Y-50400000D01*
X161740000Y-44400000D02*
X162500000Y-44400000D01*
X161740000Y-50400000D02*
X161740000Y-44400000D01*
X160850000Y-53060000D02*
X160850000Y-50400000D01*
X159960000Y-53457071D02*
X159960000Y-53060000D01*
X159200000Y-53457071D02*
X159200000Y-53060000D01*
X159960000Y-44400000D02*
X159960000Y-50400000D01*
X159200000Y-44400000D02*
X159960000Y-44400000D01*
X159200000Y-50400000D02*
X159200000Y-44400000D01*
X158310000Y-53060000D02*
X158310000Y-50400000D01*
X157420000Y-53457071D02*
X157420000Y-53060000D01*
X156660000Y-53457071D02*
X156660000Y-53060000D01*
X157420000Y-44400000D02*
X157420000Y-50400000D01*
X156660000Y-44400000D02*
X157420000Y-44400000D01*
X156660000Y-50400000D02*
X156660000Y-44400000D01*
X155770000Y-53060000D02*
X155770000Y-50400000D01*
X154880000Y-53390000D02*
X154880000Y-53060000D01*
X154120000Y-53390000D02*
X154120000Y-53060000D01*
X154780000Y-50400000D02*
X154780000Y-44400000D01*
X154660000Y-50400000D02*
X154660000Y-44400000D01*
X154540000Y-50400000D02*
X154540000Y-44400000D01*
X154420000Y-50400000D02*
X154420000Y-44400000D01*
X154300000Y-50400000D02*
X154300000Y-44400000D01*
X154180000Y-50400000D02*
X154180000Y-44400000D01*
X154880000Y-44400000D02*
X154880000Y-50400000D01*
X154120000Y-44400000D02*
X154880000Y-44400000D01*
X154120000Y-50400000D02*
X154120000Y-44400000D01*
X153170000Y-50400000D02*
X153170000Y-53060000D01*
X165990000Y-50400000D02*
X153170000Y-50400000D01*
X165990000Y-53060000D02*
X165990000Y-50400000D01*
X153170000Y-53060000D02*
X165990000Y-53060000D01*
X105000000Y-83750000D02*
X106500000Y-83750000D01*
X109000000Y-82500000D02*
X109000000Y-78000000D01*
X106500000Y-76750000D02*
X105000000Y-76750000D01*
X102500000Y-78000000D02*
X102500000Y-82500000D01*
X115000000Y-84620000D02*
X115000000Y-83850000D01*
X115000000Y-76540000D02*
X115000000Y-77310000D01*
X116370000Y-83850000D02*
X116370000Y-77310000D01*
X113630000Y-83850000D02*
X116370000Y-83850000D01*
X113630000Y-77310000D02*
X113630000Y-83850000D01*
X116370000Y-77310000D02*
X113630000Y-77310000D01*
X214920000Y-65880000D02*
X214920000Y-72121000D01*
X204920000Y-65880000D02*
X204920000Y-72121000D01*
X204920000Y-72121000D02*
X214920000Y-72121000D01*
X204920000Y-65880000D02*
X214920000Y-65880000D01*
X204920000Y-65380000D02*
X204920000Y-72620000D01*
X199920000Y-65380000D02*
X199920000Y-72620000D01*
X199920000Y-72620000D02*
X204920000Y-72620000D01*
X199920000Y-65380000D02*
X204920000Y-65380000D01*
X199920000Y-59930000D02*
X199920000Y-78070000D01*
X189180000Y-59930000D02*
X189180000Y-78070000D01*
X189180000Y-78070000D02*
X199920000Y-78070000D01*
X189180000Y-59930000D02*
X199920000Y-59930000D01*
X182830000Y-64000000D02*
X182830000Y-65330000D01*
X182830000Y-65330000D02*
X181500000Y-65330000D01*
X180230000Y-65330000D02*
X152230000Y-65330000D01*
X152230000Y-62670000D02*
X152230000Y-65330000D01*
X180230000Y-62670000D02*
X152230000Y-62670000D01*
X180230000Y-62670000D02*
X180230000Y-65330000D01*
X168155000Y-59530000D02*
X168155000Y-54460000D01*
X177925000Y-59530000D02*
X177925000Y-54460000D01*
X177925000Y-54460000D02*
X168155000Y-54460000D01*
X177925000Y-59530000D02*
X168155000Y-59530000D01*
X105000000Y-93750000D02*
X106500000Y-93750000D01*
X109000000Y-92500000D02*
X109000000Y-88000000D01*
X106500000Y-86750000D02*
X105000000Y-86750000D01*
X102500000Y-88000000D02*
X102500000Y-92500000D01*
X122000000Y-84620000D02*
X122000000Y-83850000D01*
X122000000Y-76540000D02*
X122000000Y-77310000D01*
X123370000Y-83850000D02*
X123370000Y-77310000D01*
X120630000Y-83850000D02*
X123370000Y-83850000D01*
X120630000Y-77310000D02*
X120630000Y-83850000D01*
X123370000Y-77310000D02*
X120630000Y-77310000D01*
X115000000Y-89880000D02*
X115000000Y-90650000D01*
X115000000Y-97960000D02*
X115000000Y-97190000D01*
X113630000Y-90650000D02*
X113630000Y-97190000D01*
X116370000Y-90650000D02*
X113630000Y-90650000D01*
X116370000Y-97190000D02*
X116370000Y-90650000D01*
X113630000Y-97190000D02*
X116370000Y-97190000D01*
X105000000Y-113750000D02*
X106500000Y-113750000D01*
X109000000Y-112500000D02*
X109000000Y-108000000D01*
X106500000Y-106750000D02*
X105000000Y-106750000D01*
X102500000Y-108000000D02*
X102500000Y-112500000D01*
X122000000Y-89880000D02*
X122000000Y-90650000D01*
X122000000Y-97960000D02*
X122000000Y-97190000D01*
X120630000Y-90650000D02*
X120630000Y-97190000D01*
X123370000Y-90650000D02*
X120630000Y-90650000D01*
X123370000Y-97190000D02*
X123370000Y-90650000D01*
X120630000Y-97190000D02*
X123370000Y-97190000D01*
X125720000Y-122275000D02*
X120280000Y-122275000D01*
X125720000Y-122515000D02*
X120280000Y-122515000D01*
X125720000Y-122395000D02*
X120280000Y-122395000D01*
X123000000Y-131500000D02*
X123000000Y-130590000D01*
X123000000Y-119940000D02*
X123000000Y-120850000D01*
X125720000Y-130590000D02*
X125720000Y-120850000D01*
X120280000Y-130590000D02*
X125720000Y-130590000D01*
X120280000Y-120850000D02*
X120280000Y-130590000D01*
X125720000Y-120850000D02*
X120280000Y-120850000D01*
X119220000Y-122265000D02*
X113780000Y-122265000D01*
X119220000Y-122505000D02*
X113780000Y-122505000D01*
X119220000Y-122385000D02*
X113780000Y-122385000D01*
X116500000Y-131490000D02*
X116500000Y-130580000D01*
X116500000Y-119930000D02*
X116500000Y-120840000D01*
X119220000Y-130580000D02*
X119220000Y-120840000D01*
X113780000Y-130580000D02*
X119220000Y-130580000D01*
X113780000Y-120840000D02*
X113780000Y-130580000D01*
X119220000Y-120840000D02*
X113780000Y-120840000D01*
X112720000Y-122265000D02*
X107280000Y-122265000D01*
X112720000Y-122505000D02*
X107280000Y-122505000D01*
X112720000Y-122385000D02*
X107280000Y-122385000D01*
X110000000Y-131490000D02*
X110000000Y-130580000D01*
X110000000Y-119930000D02*
X110000000Y-120840000D01*
X112720000Y-130580000D02*
X112720000Y-120840000D01*
X107280000Y-130580000D02*
X112720000Y-130580000D01*
X107280000Y-120840000D02*
X107280000Y-130580000D01*
X112720000Y-120840000D02*
X107280000Y-120840000D01*
X106220000Y-122265000D02*
X100780000Y-122265000D01*
X106220000Y-122505000D02*
X100780000Y-122505000D01*
X106220000Y-122385000D02*
X100780000Y-122385000D01*
X103500000Y-131490000D02*
X103500000Y-130580000D01*
X103500000Y-119930000D02*
X103500000Y-120840000D01*
X106220000Y-130580000D02*
X106220000Y-120840000D01*
X100780000Y-130580000D02*
X106220000Y-130580000D01*
X100780000Y-120840000D02*
X100780000Y-130580000D01*
X106220000Y-120840000D02*
X100780000Y-120840000D01*
X117640000Y-67030000D02*
X117640000Y-69970000D01*
X117880000Y-67030000D02*
X117880000Y-69970000D01*
X117760000Y-67030000D02*
X117760000Y-69970000D01*
X123320000Y-68500000D02*
X122300000Y-68500000D01*
X115840000Y-68500000D02*
X116860000Y-68500000D01*
X122300000Y-67030000D02*
X116860000Y-67030000D01*
X122300000Y-69970000D02*
X122300000Y-67030000D01*
X116860000Y-69970000D02*
X122300000Y-69970000D01*
X116860000Y-67030000D02*
X116860000Y-69970000D01*
X116470000Y-56640000D02*
X113530000Y-56640000D01*
X116470000Y-56880000D02*
X113530000Y-56880000D01*
X116470000Y-56760000D02*
X113530000Y-56760000D01*
X115000000Y-62320000D02*
X115000000Y-61300000D01*
X115000000Y-54840000D02*
X115000000Y-55860000D01*
X116470000Y-61300000D02*
X116470000Y-55860000D01*
X113530000Y-61300000D02*
X116470000Y-61300000D01*
X113530000Y-55860000D02*
X113530000Y-61300000D01*
X116470000Y-55860000D02*
X113530000Y-55860000D01*
X135945000Y-69370000D02*
X135880000Y-69370000D01*
X138120000Y-69370000D02*
X138055000Y-69370000D01*
X135945000Y-66130000D02*
X135880000Y-66130000D01*
X138120000Y-66130000D02*
X138055000Y-66130000D01*
X135880000Y-66130000D02*
X135880000Y-69370000D01*
X138120000Y-66130000D02*
X138120000Y-69370000D01*
X131945000Y-69370000D02*
X131880000Y-69370000D01*
X134120000Y-69370000D02*
X134055000Y-69370000D01*
X131945000Y-66130000D02*
X131880000Y-66130000D01*
X134120000Y-66130000D02*
X134055000Y-66130000D01*
X131880000Y-66130000D02*
X131880000Y-69370000D01*
X134120000Y-66130000D02*
X134120000Y-69370000D01*
X118846000Y-65435241D02*
X119476000Y-65435241D01*
X119161000Y-65750241D02*
X119161000Y-65120241D01*
X120598000Y-59009000D02*
X121402000Y-59009000D01*
X120367000Y-59049000D02*
X121633000Y-59049000D01*
X120198000Y-59089000D02*
X121802000Y-59089000D01*
X120060000Y-59129000D02*
X121940000Y-59129000D01*
X119941000Y-59169000D02*
X122059000Y-59169000D01*
X119835000Y-59209000D02*
X122165000Y-59209000D01*
X119738000Y-59249000D02*
X122262000Y-59249000D01*
X119650000Y-59289000D02*
X122350000Y-59289000D01*
X119568000Y-59329000D02*
X122432000Y-59329000D01*
X119491000Y-59369000D02*
X122509000Y-59369000D01*
X119419000Y-59409000D02*
X122581000Y-59409000D01*
X119350000Y-59449000D02*
X122650000Y-59449000D01*
X119286000Y-59489000D02*
X122714000Y-59489000D01*
X119224000Y-59529000D02*
X122776000Y-59529000D01*
X119166000Y-59569000D02*
X122834000Y-59569000D01*
X119110000Y-59609000D02*
X122890000Y-59609000D01*
X119056000Y-59649000D02*
X122944000Y-59649000D01*
X119005000Y-59689000D02*
X122995000Y-59689000D01*
X118956000Y-59729000D02*
X123044000Y-59729000D01*
X118908000Y-59769000D02*
X123092000Y-59769000D01*
X118863000Y-59809000D02*
X123137000Y-59809000D01*
X118818000Y-59849000D02*
X123182000Y-59849000D01*
X118776000Y-59889000D02*
X123224000Y-59889000D01*
X118735000Y-59929000D02*
X123265000Y-59929000D01*
X122040000Y-59969000D02*
X123305000Y-59969000D01*
X118695000Y-59969000D02*
X119960000Y-59969000D01*
X122040000Y-60009000D02*
X123343000Y-60009000D01*
X118657000Y-60009000D02*
X119960000Y-60009000D01*
X122040000Y-60049000D02*
X123380000Y-60049000D01*
X118620000Y-60049000D02*
X119960000Y-60049000D01*
X122040000Y-60089000D02*
X123416000Y-60089000D01*
X118584000Y-60089000D02*
X119960000Y-60089000D01*
X122040000Y-60129000D02*
X123450000Y-60129000D01*
X118550000Y-60129000D02*
X119960000Y-60129000D01*
X122040000Y-60169000D02*
X123484000Y-60169000D01*
X118516000Y-60169000D02*
X119960000Y-60169000D01*
X122040000Y-60209000D02*
X123516000Y-60209000D01*
X118484000Y-60209000D02*
X119960000Y-60209000D01*
X122040000Y-60249000D02*
X123548000Y-60249000D01*
X118452000Y-60249000D02*
X119960000Y-60249000D01*
X122040000Y-60289000D02*
X123578000Y-60289000D01*
X118422000Y-60289000D02*
X119960000Y-60289000D01*
X122040000Y-60329000D02*
X123607000Y-60329000D01*
X118393000Y-60329000D02*
X119960000Y-60329000D01*
X122040000Y-60369000D02*
X123636000Y-60369000D01*
X118364000Y-60369000D02*
X119960000Y-60369000D01*
X122040000Y-60409000D02*
X123664000Y-60409000D01*
X118336000Y-60409000D02*
X119960000Y-60409000D01*
X122040000Y-60449000D02*
X123690000Y-60449000D01*
X118310000Y-60449000D02*
X119960000Y-60449000D01*
X122040000Y-60489000D02*
X123716000Y-60489000D01*
X118284000Y-60489000D02*
X119960000Y-60489000D01*
X122040000Y-60529000D02*
X123742000Y-60529000D01*
X118258000Y-60529000D02*
X119960000Y-60529000D01*
X122040000Y-60569000D02*
X123766000Y-60569000D01*
X118234000Y-60569000D02*
X119960000Y-60569000D01*
X122040000Y-60609000D02*
X123790000Y-60609000D01*
X118210000Y-60609000D02*
X119960000Y-60609000D01*
X122040000Y-60649000D02*
X123812000Y-60649000D01*
X118188000Y-60649000D02*
X119960000Y-60649000D01*
X122040000Y-60689000D02*
X123834000Y-60689000D01*
X118166000Y-60689000D02*
X119960000Y-60689000D01*
X122040000Y-60729000D02*
X123856000Y-60729000D01*
X118144000Y-60729000D02*
X119960000Y-60729000D01*
X122040000Y-60769000D02*
X123876000Y-60769000D01*
X118124000Y-60769000D02*
X119960000Y-60769000D01*
X122040000Y-60809000D02*
X123896000Y-60809000D01*
X118104000Y-60809000D02*
X119960000Y-60809000D01*
X122040000Y-60849000D02*
X123916000Y-60849000D01*
X118084000Y-60849000D02*
X119960000Y-60849000D01*
X122040000Y-60889000D02*
X123934000Y-60889000D01*
X118066000Y-60889000D02*
X119960000Y-60889000D01*
X122040000Y-60929000D02*
X123952000Y-60929000D01*
X118048000Y-60929000D02*
X119960000Y-60929000D01*
X122040000Y-60969000D02*
X123970000Y-60969000D01*
X118030000Y-60969000D02*
X119960000Y-60969000D01*
X122040000Y-61009000D02*
X123986000Y-61009000D01*
X118014000Y-61009000D02*
X119960000Y-61009000D01*
X122040000Y-61049000D02*
X124002000Y-61049000D01*
X117998000Y-61049000D02*
X119960000Y-61049000D01*
X122040000Y-61089000D02*
X124018000Y-61089000D01*
X117982000Y-61089000D02*
X119960000Y-61089000D01*
X122040000Y-61129000D02*
X124033000Y-61129000D01*
X117967000Y-61129000D02*
X119960000Y-61129000D01*
X122040000Y-61169000D02*
X124047000Y-61169000D01*
X117953000Y-61169000D02*
X119960000Y-61169000D01*
X122040000Y-61209000D02*
X124061000Y-61209000D01*
X117939000Y-61209000D02*
X119960000Y-61209000D01*
X122040000Y-61249000D02*
X124074000Y-61249000D01*
X117926000Y-61249000D02*
X119960000Y-61249000D01*
X122040000Y-61289000D02*
X124086000Y-61289000D01*
X117914000Y-61289000D02*
X119960000Y-61289000D01*
X122040000Y-61329000D02*
X124098000Y-61329000D01*
X117902000Y-61329000D02*
X119960000Y-61329000D01*
X122040000Y-61369000D02*
X124110000Y-61369000D01*
X117890000Y-61369000D02*
X119960000Y-61369000D01*
X122040000Y-61409000D02*
X124121000Y-61409000D01*
X117879000Y-61409000D02*
X119960000Y-61409000D01*
X122040000Y-61449000D02*
X124131000Y-61449000D01*
X117869000Y-61449000D02*
X119960000Y-61449000D01*
X122040000Y-61489000D02*
X124141000Y-61489000D01*
X117859000Y-61489000D02*
X119960000Y-61489000D01*
X122040000Y-61529000D02*
X124150000Y-61529000D01*
X117850000Y-61529000D02*
X119960000Y-61529000D01*
X122040000Y-61570000D02*
X124159000Y-61570000D01*
X117841000Y-61570000D02*
X119960000Y-61570000D01*
X122040000Y-61610000D02*
X124167000Y-61610000D01*
X117833000Y-61610000D02*
X119960000Y-61610000D01*
X122040000Y-61650000D02*
X124175000Y-61650000D01*
X117825000Y-61650000D02*
X119960000Y-61650000D01*
X122040000Y-61690000D02*
X124182000Y-61690000D01*
X117818000Y-61690000D02*
X119960000Y-61690000D01*
X122040000Y-61730000D02*
X124189000Y-61730000D01*
X117811000Y-61730000D02*
X119960000Y-61730000D01*
X122040000Y-61770000D02*
X124195000Y-61770000D01*
X117805000Y-61770000D02*
X119960000Y-61770000D01*
X122040000Y-61810000D02*
X124201000Y-61810000D01*
X117799000Y-61810000D02*
X119960000Y-61810000D01*
X122040000Y-61850000D02*
X124206000Y-61850000D01*
X117794000Y-61850000D02*
X119960000Y-61850000D01*
X122040000Y-61890000D02*
X124211000Y-61890000D01*
X117789000Y-61890000D02*
X119960000Y-61890000D01*
X122040000Y-61930000D02*
X124215000Y-61930000D01*
X117785000Y-61930000D02*
X119960000Y-61930000D01*
X122040000Y-61970000D02*
X124218000Y-61970000D01*
X117782000Y-61970000D02*
X119960000Y-61970000D01*
X122040000Y-62010000D02*
X124222000Y-62010000D01*
X117778000Y-62010000D02*
X119960000Y-62010000D01*
X117776000Y-62050000D02*
X124224000Y-62050000D01*
X117773000Y-62090000D02*
X124227000Y-62090000D01*
X117772000Y-62130000D02*
X124228000Y-62130000D01*
X117770000Y-62170000D02*
X124230000Y-62170000D01*
X117770000Y-62210000D02*
X124230000Y-62210000D01*
X117770000Y-62250000D02*
X124230000Y-62250000D01*
X124270000Y-62250000D02*
G75*
G03X124270000Y-62250000I-3270000J0D01*
G01*
X123154000Y-51564759D02*
X122524000Y-51564759D01*
X122839000Y-51249759D02*
X122839000Y-51879759D01*
X121402000Y-57991000D02*
X120598000Y-57991000D01*
X121633000Y-57951000D02*
X120367000Y-57951000D01*
X121802000Y-57911000D02*
X120198000Y-57911000D01*
X121940000Y-57871000D02*
X120060000Y-57871000D01*
X122059000Y-57831000D02*
X119941000Y-57831000D01*
X122165000Y-57791000D02*
X119835000Y-57791000D01*
X122262000Y-57751000D02*
X119738000Y-57751000D01*
X122350000Y-57711000D02*
X119650000Y-57711000D01*
X122432000Y-57671000D02*
X119568000Y-57671000D01*
X122509000Y-57631000D02*
X119491000Y-57631000D01*
X122581000Y-57591000D02*
X119419000Y-57591000D01*
X122650000Y-57551000D02*
X119350000Y-57551000D01*
X122714000Y-57511000D02*
X119286000Y-57511000D01*
X122776000Y-57471000D02*
X119224000Y-57471000D01*
X122834000Y-57431000D02*
X119166000Y-57431000D01*
X122890000Y-57391000D02*
X119110000Y-57391000D01*
X122944000Y-57351000D02*
X119056000Y-57351000D01*
X122995000Y-57311000D02*
X119005000Y-57311000D01*
X123044000Y-57271000D02*
X118956000Y-57271000D01*
X123092000Y-57231000D02*
X118908000Y-57231000D01*
X123137000Y-57191000D02*
X118863000Y-57191000D01*
X123182000Y-57151000D02*
X118818000Y-57151000D01*
X123224000Y-57111000D02*
X118776000Y-57111000D01*
X123265000Y-57071000D02*
X118735000Y-57071000D01*
X119960000Y-57031000D02*
X118695000Y-57031000D01*
X123305000Y-57031000D02*
X122040000Y-57031000D01*
X119960000Y-56991000D02*
X118657000Y-56991000D01*
X123343000Y-56991000D02*
X122040000Y-56991000D01*
X119960000Y-56951000D02*
X118620000Y-56951000D01*
X123380000Y-56951000D02*
X122040000Y-56951000D01*
X119960000Y-56911000D02*
X118584000Y-56911000D01*
X123416000Y-56911000D02*
X122040000Y-56911000D01*
X119960000Y-56871000D02*
X118550000Y-56871000D01*
X123450000Y-56871000D02*
X122040000Y-56871000D01*
X119960000Y-56831000D02*
X118516000Y-56831000D01*
X123484000Y-56831000D02*
X122040000Y-56831000D01*
X119960000Y-56791000D02*
X118484000Y-56791000D01*
X123516000Y-56791000D02*
X122040000Y-56791000D01*
X119960000Y-56751000D02*
X118452000Y-56751000D01*
X123548000Y-56751000D02*
X122040000Y-56751000D01*
X119960000Y-56711000D02*
X118422000Y-56711000D01*
X123578000Y-56711000D02*
X122040000Y-56711000D01*
X119960000Y-56671000D02*
X118393000Y-56671000D01*
X123607000Y-56671000D02*
X122040000Y-56671000D01*
X119960000Y-56631000D02*
X118364000Y-56631000D01*
X123636000Y-56631000D02*
X122040000Y-56631000D01*
X119960000Y-56591000D02*
X118336000Y-56591000D01*
X123664000Y-56591000D02*
X122040000Y-56591000D01*
X119960000Y-56551000D02*
X118310000Y-56551000D01*
X123690000Y-56551000D02*
X122040000Y-56551000D01*
X119960000Y-56511000D02*
X118284000Y-56511000D01*
X123716000Y-56511000D02*
X122040000Y-56511000D01*
X119960000Y-56471000D02*
X118258000Y-56471000D01*
X123742000Y-56471000D02*
X122040000Y-56471000D01*
X119960000Y-56431000D02*
X118234000Y-56431000D01*
X123766000Y-56431000D02*
X122040000Y-56431000D01*
X119960000Y-56391000D02*
X118210000Y-56391000D01*
X123790000Y-56391000D02*
X122040000Y-56391000D01*
X119960000Y-56351000D02*
X118188000Y-56351000D01*
X123812000Y-56351000D02*
X122040000Y-56351000D01*
X119960000Y-56311000D02*
X118166000Y-56311000D01*
X123834000Y-56311000D02*
X122040000Y-56311000D01*
X119960000Y-56271000D02*
X118144000Y-56271000D01*
X123856000Y-56271000D02*
X122040000Y-56271000D01*
X119960000Y-56231000D02*
X118124000Y-56231000D01*
X123876000Y-56231000D02*
X122040000Y-56231000D01*
X119960000Y-56191000D02*
X118104000Y-56191000D01*
X123896000Y-56191000D02*
X122040000Y-56191000D01*
X119960000Y-56151000D02*
X118084000Y-56151000D01*
X123916000Y-56151000D02*
X122040000Y-56151000D01*
X119960000Y-56111000D02*
X118066000Y-56111000D01*
X123934000Y-56111000D02*
X122040000Y-56111000D01*
X119960000Y-56071000D02*
X118048000Y-56071000D01*
X123952000Y-56071000D02*
X122040000Y-56071000D01*
X119960000Y-56031000D02*
X118030000Y-56031000D01*
X123970000Y-56031000D02*
X122040000Y-56031000D01*
X119960000Y-55991000D02*
X118014000Y-55991000D01*
X123986000Y-55991000D02*
X122040000Y-55991000D01*
X119960000Y-55951000D02*
X117998000Y-55951000D01*
X124002000Y-55951000D02*
X122040000Y-55951000D01*
X119960000Y-55911000D02*
X117982000Y-55911000D01*
X124018000Y-55911000D02*
X122040000Y-55911000D01*
X119960000Y-55871000D02*
X117967000Y-55871000D01*
X124033000Y-55871000D02*
X122040000Y-55871000D01*
X119960000Y-55831000D02*
X117953000Y-55831000D01*
X124047000Y-55831000D02*
X122040000Y-55831000D01*
X119960000Y-55791000D02*
X117939000Y-55791000D01*
X124061000Y-55791000D02*
X122040000Y-55791000D01*
X119960000Y-55751000D02*
X117926000Y-55751000D01*
X124074000Y-55751000D02*
X122040000Y-55751000D01*
X119960000Y-55711000D02*
X117914000Y-55711000D01*
X124086000Y-55711000D02*
X122040000Y-55711000D01*
X119960000Y-55671000D02*
X117902000Y-55671000D01*
X124098000Y-55671000D02*
X122040000Y-55671000D01*
X119960000Y-55631000D02*
X117890000Y-55631000D01*
X124110000Y-55631000D02*
X122040000Y-55631000D01*
X119960000Y-55591000D02*
X117879000Y-55591000D01*
X124121000Y-55591000D02*
X122040000Y-55591000D01*
X119960000Y-55551000D02*
X117869000Y-55551000D01*
X124131000Y-55551000D02*
X122040000Y-55551000D01*
X119960000Y-55511000D02*
X117859000Y-55511000D01*
X124141000Y-55511000D02*
X122040000Y-55511000D01*
X119960000Y-55471000D02*
X117850000Y-55471000D01*
X124150000Y-55471000D02*
X122040000Y-55471000D01*
X119960000Y-55430000D02*
X117841000Y-55430000D01*
X124159000Y-55430000D02*
X122040000Y-55430000D01*
X119960000Y-55390000D02*
X117833000Y-55390000D01*
X124167000Y-55390000D02*
X122040000Y-55390000D01*
X119960000Y-55350000D02*
X117825000Y-55350000D01*
X124175000Y-55350000D02*
X122040000Y-55350000D01*
X119960000Y-55310000D02*
X117818000Y-55310000D01*
X124182000Y-55310000D02*
X122040000Y-55310000D01*
X119960000Y-55270000D02*
X117811000Y-55270000D01*
X124189000Y-55270000D02*
X122040000Y-55270000D01*
X119960000Y-55230000D02*
X117805000Y-55230000D01*
X124195000Y-55230000D02*
X122040000Y-55230000D01*
X119960000Y-55190000D02*
X117799000Y-55190000D01*
X124201000Y-55190000D02*
X122040000Y-55190000D01*
X119960000Y-55150000D02*
X117794000Y-55150000D01*
X124206000Y-55150000D02*
X122040000Y-55150000D01*
X119960000Y-55110000D02*
X117789000Y-55110000D01*
X124211000Y-55110000D02*
X122040000Y-55110000D01*
X119960000Y-55070000D02*
X117785000Y-55070000D01*
X124215000Y-55070000D02*
X122040000Y-55070000D01*
X119960000Y-55030000D02*
X117782000Y-55030000D01*
X124218000Y-55030000D02*
X122040000Y-55030000D01*
X119960000Y-54990000D02*
X117778000Y-54990000D01*
X124222000Y-54990000D02*
X122040000Y-54990000D01*
X124224000Y-54950000D02*
X117776000Y-54950000D01*
X124227000Y-54910000D02*
X117773000Y-54910000D01*
X124228000Y-54870000D02*
X117772000Y-54870000D01*
X124230000Y-54830000D02*
X117770000Y-54830000D01*
X124230000Y-54790000D02*
X117770000Y-54790000D01*
X124230000Y-54750000D02*
X117770000Y-54750000D01*
X124270000Y-54750000D02*
G75*
G03X124270000Y-54750000I-3270000J0D01*
G01*
X184900000Y-84000000D02*
G75*
G03X184900000Y-84000000I-6100000J0D01*
G01*
D11*
X148107142Y-112666666D02*
X148154761Y-112714285D01*
X148202380Y-112857142D01*
X148202380Y-112952380D01*
X148154761Y-113095238D01*
X148059523Y-113190476D01*
X147964285Y-113238095D01*
X147773809Y-113285714D01*
X147630952Y-113285714D01*
X147440476Y-113238095D01*
X147345238Y-113190476D01*
X147250000Y-113095238D01*
X147202380Y-112952380D01*
X147202380Y-112857142D01*
X147250000Y-112714285D01*
X147297619Y-112666666D01*
X147630952Y-112095238D02*
X147583333Y-112190476D01*
X147535714Y-112238095D01*
X147440476Y-112285714D01*
X147392857Y-112285714D01*
X147297619Y-112238095D01*
X147250000Y-112190476D01*
X147202380Y-112095238D01*
X147202380Y-111904761D01*
X147250000Y-111809523D01*
X147297619Y-111761904D01*
X147392857Y-111714285D01*
X147440476Y-111714285D01*
X147535714Y-111761904D01*
X147583333Y-111809523D01*
X147630952Y-111904761D01*
X147630952Y-112095238D01*
X147678571Y-112190476D01*
X147726190Y-112238095D01*
X147821428Y-112285714D01*
X148011904Y-112285714D01*
X148107142Y-112238095D01*
X148154761Y-112190476D01*
X148202380Y-112095238D01*
X148202380Y-111904761D01*
X148154761Y-111809523D01*
X148107142Y-111761904D01*
X148011904Y-111714285D01*
X147821428Y-111714285D01*
X147726190Y-111761904D01*
X147678571Y-111809523D01*
X147630952Y-111904761D01*
X139357142Y-112666666D02*
X139404761Y-112714285D01*
X139452380Y-112857142D01*
X139452380Y-112952380D01*
X139404761Y-113095238D01*
X139309523Y-113190476D01*
X139214285Y-113238095D01*
X139023809Y-113285714D01*
X138880952Y-113285714D01*
X138690476Y-113238095D01*
X138595238Y-113190476D01*
X138500000Y-113095238D01*
X138452380Y-112952380D01*
X138452380Y-112857142D01*
X138500000Y-112714285D01*
X138547619Y-112666666D01*
X138452380Y-112333333D02*
X138452380Y-111666666D01*
X139452380Y-112095238D01*
X132357142Y-112666666D02*
X132404761Y-112714285D01*
X132452380Y-112857142D01*
X132452380Y-112952380D01*
X132404761Y-113095238D01*
X132309523Y-113190476D01*
X132214285Y-113238095D01*
X132023809Y-113285714D01*
X131880952Y-113285714D01*
X131690476Y-113238095D01*
X131595238Y-113190476D01*
X131500000Y-113095238D01*
X131452380Y-112952380D01*
X131452380Y-112857142D01*
X131500000Y-112714285D01*
X131547619Y-112666666D01*
X131452380Y-111809523D02*
X131452380Y-112000000D01*
X131500000Y-112095238D01*
X131547619Y-112142857D01*
X131690476Y-112238095D01*
X131880952Y-112285714D01*
X132261904Y-112285714D01*
X132357142Y-112238095D01*
X132404761Y-112190476D01*
X132452380Y-112095238D01*
X132452380Y-111904761D01*
X132404761Y-111809523D01*
X132357142Y-111761904D01*
X132261904Y-111714285D01*
X132023809Y-111714285D01*
X131928571Y-111761904D01*
X131880952Y-111809523D01*
X131833333Y-111904761D01*
X131833333Y-112095238D01*
X131880952Y-112190476D01*
X131928571Y-112238095D01*
X132023809Y-112285714D01*
X141107142Y-112666666D02*
X141154761Y-112714285D01*
X141202380Y-112857142D01*
X141202380Y-112952380D01*
X141154761Y-113095238D01*
X141059523Y-113190476D01*
X140964285Y-113238095D01*
X140773809Y-113285714D01*
X140630952Y-113285714D01*
X140440476Y-113238095D01*
X140345238Y-113190476D01*
X140250000Y-113095238D01*
X140202380Y-112952380D01*
X140202380Y-112857142D01*
X140250000Y-112714285D01*
X140297619Y-112666666D01*
X140202380Y-111761904D02*
X140202380Y-112238095D01*
X140678571Y-112285714D01*
X140630952Y-112238095D01*
X140583333Y-112142857D01*
X140583333Y-111904761D01*
X140630952Y-111809523D01*
X140678571Y-111761904D01*
X140773809Y-111714285D01*
X141011904Y-111714285D01*
X141107142Y-111761904D01*
X141154761Y-111809523D01*
X141202380Y-111904761D01*
X141202380Y-112142857D01*
X141154761Y-112238095D01*
X141107142Y-112285714D01*
X151166666Y-67952380D02*
X151166666Y-66952380D01*
X151547619Y-66952380D01*
X151642857Y-67000000D01*
X151690476Y-67047619D01*
X151738095Y-67142857D01*
X151738095Y-67285714D01*
X151690476Y-67380952D01*
X151642857Y-67428571D01*
X151547619Y-67476190D01*
X151166666Y-67476190D01*
X152166666Y-66952380D02*
X152166666Y-67761904D01*
X152214285Y-67857142D01*
X152261904Y-67904761D01*
X152357142Y-67952380D01*
X152547619Y-67952380D01*
X152642857Y-67904761D01*
X152690476Y-67857142D01*
X152738095Y-67761904D01*
X152738095Y-66952380D01*
X153690476Y-67952380D02*
X153214285Y-67952380D01*
X153214285Y-66952380D01*
X153976190Y-67904761D02*
X154119047Y-67952380D01*
X154357142Y-67952380D01*
X154452380Y-67904761D01*
X154500000Y-67857142D01*
X154547619Y-67761904D01*
X154547619Y-67666666D01*
X154500000Y-67571428D01*
X154452380Y-67523809D01*
X154357142Y-67476190D01*
X154166666Y-67428571D01*
X154071428Y-67380952D01*
X154023809Y-67333333D01*
X153976190Y-67238095D01*
X153976190Y-67142857D01*
X154023809Y-67047619D01*
X154071428Y-67000000D01*
X154166666Y-66952380D01*
X154404761Y-66952380D01*
X154547619Y-67000000D01*
X154928571Y-67666666D02*
X155404761Y-67666666D01*
X154833333Y-67952380D02*
X155166666Y-66952380D01*
X155500000Y-67952380D01*
X155833333Y-67952380D02*
X155833333Y-66952380D01*
X156071428Y-66952380D01*
X156214285Y-67000000D01*
X156309523Y-67095238D01*
X156357142Y-67190476D01*
X156404761Y-67380952D01*
X156404761Y-67523809D01*
X156357142Y-67714285D01*
X156309523Y-67809523D01*
X156214285Y-67904761D01*
X156071428Y-67952380D01*
X155833333Y-67952380D01*
X157023809Y-66952380D02*
X157214285Y-66952380D01*
X157309523Y-67000000D01*
X157404761Y-67095238D01*
X157452380Y-67285714D01*
X157452380Y-67619047D01*
X157404761Y-67809523D01*
X157309523Y-67904761D01*
X157214285Y-67952380D01*
X157023809Y-67952380D01*
X156928571Y-67904761D01*
X156833333Y-67809523D01*
X156785714Y-67619047D01*
X156785714Y-67285714D01*
X156833333Y-67095238D01*
X156928571Y-67000000D01*
X157023809Y-66952380D01*
X158452380Y-67952380D02*
X158119047Y-67476190D01*
X157880952Y-67952380D02*
X157880952Y-66952380D01*
X158261904Y-66952380D01*
X158357142Y-67000000D01*
X158404761Y-67047619D01*
X158452380Y-67142857D01*
X158452380Y-67285714D01*
X158404761Y-67380952D01*
X158357142Y-67428571D01*
X158261904Y-67476190D01*
X157880952Y-67476190D01*
X158880952Y-67428571D02*
X159214285Y-67428571D01*
X159357142Y-67952380D02*
X158880952Y-67952380D01*
X158880952Y-66952380D01*
X159357142Y-66952380D01*
X159738095Y-67904761D02*
X159880952Y-67952380D01*
X160119047Y-67952380D01*
X160214285Y-67904761D01*
X160261904Y-67857142D01*
X160309523Y-67761904D01*
X160309523Y-67666666D01*
X160261904Y-67571428D01*
X160214285Y-67523809D01*
X160119047Y-67476190D01*
X159928571Y-67428571D01*
X159833333Y-67380952D01*
X159785714Y-67333333D01*
X159738095Y-67238095D01*
X159738095Y-67142857D01*
X159785714Y-67047619D01*
X159833333Y-67000000D01*
X159928571Y-66952380D01*
X160166666Y-66952380D01*
X160309523Y-67000000D01*
X160500000Y-68047619D02*
X161261904Y-68047619D01*
X161690476Y-66952380D02*
X161880952Y-66952380D01*
X161976190Y-67000000D01*
X162071428Y-67095238D01*
X162119047Y-67285714D01*
X162119047Y-67619047D01*
X162071428Y-67809523D01*
X161976190Y-67904761D01*
X161880952Y-67952380D01*
X161690476Y-67952380D01*
X161595238Y-67904761D01*
X161500000Y-67809523D01*
X161452380Y-67619047D01*
X161452380Y-67285714D01*
X161500000Y-67095238D01*
X161595238Y-67000000D01*
X161690476Y-66952380D01*
X162547619Y-66952380D02*
X162547619Y-67761904D01*
X162595238Y-67857142D01*
X162642857Y-67904761D01*
X162738095Y-67952380D01*
X162928571Y-67952380D01*
X163023809Y-67904761D01*
X163071428Y-67857142D01*
X163119047Y-67761904D01*
X163119047Y-66952380D01*
X163452380Y-66952380D02*
X164023809Y-66952380D01*
X163738095Y-67952380D02*
X163738095Y-66952380D01*
X164880952Y-67952380D02*
X164309523Y-67952380D01*
X164595238Y-67952380D02*
X164595238Y-66952380D01*
X164500000Y-67095238D01*
X164404761Y-67190476D01*
X164309523Y-67238095D01*
X176595238Y-73952380D02*
X176595238Y-72952380D01*
X176976190Y-72952380D01*
X177071428Y-73000000D01*
X177119047Y-73047619D01*
X177166666Y-73142857D01*
X177166666Y-73285714D01*
X177119047Y-73380952D01*
X177071428Y-73428571D01*
X176976190Y-73476190D01*
X176595238Y-73476190D01*
X177785714Y-72952380D02*
X177976190Y-72952380D01*
X178071428Y-73000000D01*
X178166666Y-73095238D01*
X178214285Y-73285714D01*
X178214285Y-73619047D01*
X178166666Y-73809523D01*
X178071428Y-73904761D01*
X177976190Y-73952380D01*
X177785714Y-73952380D01*
X177690476Y-73904761D01*
X177595238Y-73809523D01*
X177547619Y-73619047D01*
X177547619Y-73285714D01*
X177595238Y-73095238D01*
X177690476Y-73000000D01*
X177785714Y-72952380D01*
X178500000Y-72952380D02*
X179071428Y-72952380D01*
X178785714Y-73952380D02*
X178785714Y-72952380D01*
X179404761Y-73428571D02*
X179738095Y-73428571D01*
X179880952Y-73952380D02*
X179404761Y-73952380D01*
X179404761Y-72952380D01*
X179880952Y-72952380D01*
X180071428Y-74047619D02*
X180833333Y-74047619D01*
X181261904Y-72952380D02*
X181452380Y-72952380D01*
X181547619Y-73000000D01*
X181642857Y-73095238D01*
X181690476Y-73285714D01*
X181690476Y-73619047D01*
X181642857Y-73809523D01*
X181547619Y-73904761D01*
X181452380Y-73952380D01*
X181261904Y-73952380D01*
X181166666Y-73904761D01*
X181071428Y-73809523D01*
X181023809Y-73619047D01*
X181023809Y-73285714D01*
X181071428Y-73095238D01*
X181166666Y-73000000D01*
X181261904Y-72952380D01*
X182119047Y-72952380D02*
X182119047Y-73761904D01*
X182166666Y-73857142D01*
X182214285Y-73904761D01*
X182309523Y-73952380D01*
X182500000Y-73952380D01*
X182595238Y-73904761D01*
X182642857Y-73857142D01*
X182690476Y-73761904D01*
X182690476Y-72952380D01*
X183023809Y-72952380D02*
X183595238Y-72952380D01*
X183309523Y-73952380D02*
X183309523Y-72952380D01*
X184452380Y-73952380D02*
X183880952Y-73952380D01*
X184166666Y-73952380D02*
X184166666Y-72952380D01*
X184071428Y-73095238D01*
X183976190Y-73190476D01*
X183880952Y-73238095D01*
X193952380Y-141752380D02*
X193619047Y-141276190D01*
X193380952Y-141752380D02*
X193380952Y-140752380D01*
X193761904Y-140752380D01*
X193857142Y-140800000D01*
X193904761Y-140847619D01*
X193952380Y-140942857D01*
X193952380Y-141085714D01*
X193904761Y-141180952D01*
X193857142Y-141228571D01*
X193761904Y-141276190D01*
X193380952Y-141276190D01*
X194380952Y-141228571D02*
X194714285Y-141228571D01*
X194857142Y-141752380D02*
X194380952Y-141752380D01*
X194380952Y-140752380D01*
X194857142Y-140752380D01*
X195619047Y-141228571D02*
X195285714Y-141228571D01*
X195285714Y-141752380D02*
X195285714Y-140752380D01*
X195761904Y-140752380D01*
X196571428Y-141085714D02*
X196571428Y-141752380D01*
X196333333Y-140704761D02*
X196095238Y-141419047D01*
X196714285Y-141419047D01*
X103952380Y-141752380D02*
X103619047Y-141276190D01*
X103380952Y-141752380D02*
X103380952Y-140752380D01*
X103761904Y-140752380D01*
X103857142Y-140800000D01*
X103904761Y-140847619D01*
X103952380Y-140942857D01*
X103952380Y-141085714D01*
X103904761Y-141180952D01*
X103857142Y-141228571D01*
X103761904Y-141276190D01*
X103380952Y-141276190D01*
X104380952Y-141228571D02*
X104714285Y-141228571D01*
X104857142Y-141752380D02*
X104380952Y-141752380D01*
X104380952Y-140752380D01*
X104857142Y-140752380D01*
X105619047Y-141228571D02*
X105285714Y-141228571D01*
X105285714Y-141752380D02*
X105285714Y-140752380D01*
X105761904Y-140752380D01*
X106047619Y-140752380D02*
X106666666Y-140752380D01*
X106333333Y-141133333D01*
X106476190Y-141133333D01*
X106571428Y-141180952D01*
X106619047Y-141228571D01*
X106666666Y-141323809D01*
X106666666Y-141561904D01*
X106619047Y-141657142D01*
X106571428Y-141704761D01*
X106476190Y-141752380D01*
X106190476Y-141752380D01*
X106095238Y-141704761D01*
X106047619Y-141657142D01*
X193952380Y-50752380D02*
X193619047Y-50276190D01*
X193380952Y-50752380D02*
X193380952Y-49752380D01*
X193761904Y-49752380D01*
X193857142Y-49800000D01*
X193904761Y-49847619D01*
X193952380Y-49942857D01*
X193952380Y-50085714D01*
X193904761Y-50180952D01*
X193857142Y-50228571D01*
X193761904Y-50276190D01*
X193380952Y-50276190D01*
X194380952Y-50228571D02*
X194714285Y-50228571D01*
X194857142Y-50752380D02*
X194380952Y-50752380D01*
X194380952Y-49752380D01*
X194857142Y-49752380D01*
X195619047Y-50228571D02*
X195285714Y-50228571D01*
X195285714Y-50752380D02*
X195285714Y-49752380D01*
X195761904Y-49752380D01*
X196095238Y-49847619D02*
X196142857Y-49800000D01*
X196238095Y-49752380D01*
X196476190Y-49752380D01*
X196571428Y-49800000D01*
X196619047Y-49847619D01*
X196666666Y-49942857D01*
X196666666Y-50038095D01*
X196619047Y-50180952D01*
X196047619Y-50752380D01*
X196666666Y-50752380D01*
X103952380Y-50752380D02*
X103619047Y-50276190D01*
X103380952Y-50752380D02*
X103380952Y-49752380D01*
X103761904Y-49752380D01*
X103857142Y-49800000D01*
X103904761Y-49847619D01*
X103952380Y-49942857D01*
X103952380Y-50085714D01*
X103904761Y-50180952D01*
X103857142Y-50228571D01*
X103761904Y-50276190D01*
X103380952Y-50276190D01*
X104380952Y-50228571D02*
X104714285Y-50228571D01*
X104857142Y-50752380D02*
X104380952Y-50752380D01*
X104380952Y-49752380D01*
X104857142Y-49752380D01*
X105619047Y-50228571D02*
X105285714Y-50228571D01*
X105285714Y-50752380D02*
X105285714Y-49752380D01*
X105761904Y-49752380D01*
X106666666Y-50752380D02*
X106095238Y-50752380D01*
X106380952Y-50752380D02*
X106380952Y-49752380D01*
X106285714Y-49895238D01*
X106190476Y-49990476D01*
X106095238Y-50038095D01*
X180574761Y-106387619D02*
X180479523Y-106340000D01*
X180384285Y-106244761D01*
X180241428Y-106101904D01*
X180146190Y-106054285D01*
X180050952Y-106054285D01*
X180098571Y-106292380D02*
X180003333Y-106244761D01*
X179908095Y-106149523D01*
X179860476Y-105959047D01*
X179860476Y-105625714D01*
X179908095Y-105435238D01*
X180003333Y-105340000D01*
X180098571Y-105292380D01*
X180289047Y-105292380D01*
X180384285Y-105340000D01*
X180479523Y-105435238D01*
X180527142Y-105625714D01*
X180527142Y-105959047D01*
X180479523Y-106149523D01*
X180384285Y-106244761D01*
X180289047Y-106292380D01*
X180098571Y-106292380D01*
X181384285Y-105292380D02*
X181193809Y-105292380D01*
X181098571Y-105340000D01*
X181050952Y-105387619D01*
X180955714Y-105530476D01*
X180908095Y-105720952D01*
X180908095Y-106101904D01*
X180955714Y-106197142D01*
X181003333Y-106244761D01*
X181098571Y-106292380D01*
X181289047Y-106292380D01*
X181384285Y-106244761D01*
X181431904Y-106197142D01*
X181479523Y-106101904D01*
X181479523Y-105863809D01*
X181431904Y-105768571D01*
X181384285Y-105720952D01*
X181289047Y-105673333D01*
X181098571Y-105673333D01*
X181003333Y-105720952D01*
X180955714Y-105768571D01*
X180908095Y-105863809D01*
X174764761Y-106392619D02*
X174669523Y-106345000D01*
X174574285Y-106249761D01*
X174431428Y-106106904D01*
X174336190Y-106059285D01*
X174240952Y-106059285D01*
X174288571Y-106297380D02*
X174193333Y-106249761D01*
X174098095Y-106154523D01*
X174050476Y-105964047D01*
X174050476Y-105630714D01*
X174098095Y-105440238D01*
X174193333Y-105345000D01*
X174288571Y-105297380D01*
X174479047Y-105297380D01*
X174574285Y-105345000D01*
X174669523Y-105440238D01*
X174717142Y-105630714D01*
X174717142Y-105964047D01*
X174669523Y-106154523D01*
X174574285Y-106249761D01*
X174479047Y-106297380D01*
X174288571Y-106297380D01*
X175621904Y-105297380D02*
X175145714Y-105297380D01*
X175098095Y-105773571D01*
X175145714Y-105725952D01*
X175240952Y-105678333D01*
X175479047Y-105678333D01*
X175574285Y-105725952D01*
X175621904Y-105773571D01*
X175669523Y-105868809D01*
X175669523Y-106106904D01*
X175621904Y-106202142D01*
X175574285Y-106249761D01*
X175479047Y-106297380D01*
X175240952Y-106297380D01*
X175145714Y-106249761D01*
X175098095Y-106202142D01*
X148444761Y-122277619D02*
X148349523Y-122230000D01*
X148254285Y-122134761D01*
X148111428Y-121991904D01*
X148016190Y-121944285D01*
X147920952Y-121944285D01*
X147968571Y-122182380D02*
X147873333Y-122134761D01*
X147778095Y-122039523D01*
X147730476Y-121849047D01*
X147730476Y-121515714D01*
X147778095Y-121325238D01*
X147873333Y-121230000D01*
X147968571Y-121182380D01*
X148159047Y-121182380D01*
X148254285Y-121230000D01*
X148349523Y-121325238D01*
X148397142Y-121515714D01*
X148397142Y-121849047D01*
X148349523Y-122039523D01*
X148254285Y-122134761D01*
X148159047Y-122182380D01*
X147968571Y-122182380D01*
X149254285Y-121515714D02*
X149254285Y-122182380D01*
X149016190Y-121134761D02*
X148778095Y-121849047D01*
X149397142Y-121849047D01*
X148444761Y-129777619D02*
X148349523Y-129730000D01*
X148254285Y-129634761D01*
X148111428Y-129491904D01*
X148016190Y-129444285D01*
X147920952Y-129444285D01*
X147968571Y-129682380D02*
X147873333Y-129634761D01*
X147778095Y-129539523D01*
X147730476Y-129349047D01*
X147730476Y-129015714D01*
X147778095Y-128825238D01*
X147873333Y-128730000D01*
X147968571Y-128682380D01*
X148159047Y-128682380D01*
X148254285Y-128730000D01*
X148349523Y-128825238D01*
X148397142Y-129015714D01*
X148397142Y-129349047D01*
X148349523Y-129539523D01*
X148254285Y-129634761D01*
X148159047Y-129682380D01*
X147968571Y-129682380D01*
X148730476Y-128682380D02*
X149349523Y-128682380D01*
X149016190Y-129063333D01*
X149159047Y-129063333D01*
X149254285Y-129110952D01*
X149301904Y-129158571D01*
X149349523Y-129253809D01*
X149349523Y-129491904D01*
X149301904Y-129587142D01*
X149254285Y-129634761D01*
X149159047Y-129682380D01*
X148873333Y-129682380D01*
X148778095Y-129634761D01*
X148730476Y-129587142D01*
X134444761Y-122277619D02*
X134349523Y-122230000D01*
X134254285Y-122134761D01*
X134111428Y-121991904D01*
X134016190Y-121944285D01*
X133920952Y-121944285D01*
X133968571Y-122182380D02*
X133873333Y-122134761D01*
X133778095Y-122039523D01*
X133730476Y-121849047D01*
X133730476Y-121515714D01*
X133778095Y-121325238D01*
X133873333Y-121230000D01*
X133968571Y-121182380D01*
X134159047Y-121182380D01*
X134254285Y-121230000D01*
X134349523Y-121325238D01*
X134397142Y-121515714D01*
X134397142Y-121849047D01*
X134349523Y-122039523D01*
X134254285Y-122134761D01*
X134159047Y-122182380D01*
X133968571Y-122182380D01*
X134778095Y-121277619D02*
X134825714Y-121230000D01*
X134920952Y-121182380D01*
X135159047Y-121182380D01*
X135254285Y-121230000D01*
X135301904Y-121277619D01*
X135349523Y-121372857D01*
X135349523Y-121468095D01*
X135301904Y-121610952D01*
X134730476Y-122182380D01*
X135349523Y-122182380D01*
X134444761Y-129777619D02*
X134349523Y-129730000D01*
X134254285Y-129634761D01*
X134111428Y-129491904D01*
X134016190Y-129444285D01*
X133920952Y-129444285D01*
X133968571Y-129682380D02*
X133873333Y-129634761D01*
X133778095Y-129539523D01*
X133730476Y-129349047D01*
X133730476Y-129015714D01*
X133778095Y-128825238D01*
X133873333Y-128730000D01*
X133968571Y-128682380D01*
X134159047Y-128682380D01*
X134254285Y-128730000D01*
X134349523Y-128825238D01*
X134397142Y-129015714D01*
X134397142Y-129349047D01*
X134349523Y-129539523D01*
X134254285Y-129634761D01*
X134159047Y-129682380D01*
X133968571Y-129682380D01*
X135349523Y-129682380D02*
X134778095Y-129682380D01*
X135063809Y-129682380D02*
X135063809Y-128682380D01*
X134968571Y-128825238D01*
X134873333Y-128920476D01*
X134778095Y-128968095D01*
X157952380Y-105651904D02*
X158761904Y-105651904D01*
X158857142Y-105604285D01*
X158904761Y-105556666D01*
X158952380Y-105461428D01*
X158952380Y-105270952D01*
X158904761Y-105175714D01*
X158857142Y-105128095D01*
X158761904Y-105080476D01*
X157952380Y-105080476D01*
X158952380Y-104556666D02*
X158952380Y-104366190D01*
X158904761Y-104270952D01*
X158857142Y-104223333D01*
X158714285Y-104128095D01*
X158523809Y-104080476D01*
X158142857Y-104080476D01*
X158047619Y-104128095D01*
X158000000Y-104175714D01*
X157952380Y-104270952D01*
X157952380Y-104461428D01*
X158000000Y-104556666D01*
X158047619Y-104604285D01*
X158142857Y-104651904D01*
X158380952Y-104651904D01*
X158476190Y-104604285D01*
X158523809Y-104556666D01*
X158571428Y-104461428D01*
X158571428Y-104270952D01*
X158523809Y-104175714D01*
X158476190Y-104128095D01*
X158380952Y-104080476D01*
X165452380Y-105761904D02*
X166261904Y-105761904D01*
X166357142Y-105714285D01*
X166404761Y-105666666D01*
X166452380Y-105571428D01*
X166452380Y-105380952D01*
X166404761Y-105285714D01*
X166357142Y-105238095D01*
X166261904Y-105190476D01*
X165452380Y-105190476D01*
X165880952Y-104571428D02*
X165833333Y-104666666D01*
X165785714Y-104714285D01*
X165690476Y-104761904D01*
X165642857Y-104761904D01*
X165547619Y-104714285D01*
X165500000Y-104666666D01*
X165452380Y-104571428D01*
X165452380Y-104380952D01*
X165500000Y-104285714D01*
X165547619Y-104238095D01*
X165642857Y-104190476D01*
X165690476Y-104190476D01*
X165785714Y-104238095D01*
X165833333Y-104285714D01*
X165880952Y-104380952D01*
X165880952Y-104571428D01*
X165928571Y-104666666D01*
X165976190Y-104714285D01*
X166071428Y-104761904D01*
X166261904Y-104761904D01*
X166357142Y-104714285D01*
X166404761Y-104666666D01*
X166452380Y-104571428D01*
X166452380Y-104380952D01*
X166404761Y-104285714D01*
X166357142Y-104238095D01*
X166261904Y-104190476D01*
X166071428Y-104190476D01*
X165976190Y-104238095D01*
X165928571Y-104285714D01*
X165880952Y-104380952D01*
X177277142Y-100807380D02*
X176943809Y-100331190D01*
X176705714Y-100807380D02*
X176705714Y-99807380D01*
X177086666Y-99807380D01*
X177181904Y-99855000D01*
X177229523Y-99902619D01*
X177277142Y-99997857D01*
X177277142Y-100140714D01*
X177229523Y-100235952D01*
X177181904Y-100283571D01*
X177086666Y-100331190D01*
X176705714Y-100331190D01*
X178229523Y-100807380D02*
X177658095Y-100807380D01*
X177943809Y-100807380D02*
X177943809Y-99807380D01*
X177848571Y-99950238D01*
X177753333Y-100045476D01*
X177658095Y-100093095D01*
X178610476Y-99902619D02*
X178658095Y-99855000D01*
X178753333Y-99807380D01*
X178991428Y-99807380D01*
X179086666Y-99855000D01*
X179134285Y-99902619D01*
X179181904Y-99997857D01*
X179181904Y-100093095D01*
X179134285Y-100235952D01*
X178562857Y-100807380D01*
X179181904Y-100807380D01*
X177357142Y-104452380D02*
X177023809Y-103976190D01*
X176785714Y-104452380D02*
X176785714Y-103452380D01*
X177166666Y-103452380D01*
X177261904Y-103500000D01*
X177309523Y-103547619D01*
X177357142Y-103642857D01*
X177357142Y-103785714D01*
X177309523Y-103880952D01*
X177261904Y-103928571D01*
X177166666Y-103976190D01*
X176785714Y-103976190D01*
X178309523Y-104452380D02*
X177738095Y-104452380D01*
X178023809Y-104452380D02*
X178023809Y-103452380D01*
X177928571Y-103595238D01*
X177833333Y-103690476D01*
X177738095Y-103738095D01*
X179261904Y-104452380D02*
X178690476Y-104452380D01*
X178976190Y-104452380D02*
X178976190Y-103452380D01*
X178880952Y-103595238D01*
X178785714Y-103690476D01*
X178690476Y-103738095D01*
X161753333Y-97452380D02*
X161420000Y-96976190D01*
X161181904Y-97452380D02*
X161181904Y-96452380D01*
X161562857Y-96452380D01*
X161658095Y-96500000D01*
X161705714Y-96547619D01*
X161753333Y-96642857D01*
X161753333Y-96785714D01*
X161705714Y-96880952D01*
X161658095Y-96928571D01*
X161562857Y-96976190D01*
X161181904Y-96976190D01*
X162134285Y-96547619D02*
X162181904Y-96500000D01*
X162277142Y-96452380D01*
X162515238Y-96452380D01*
X162610476Y-96500000D01*
X162658095Y-96547619D01*
X162705714Y-96642857D01*
X162705714Y-96738095D01*
X162658095Y-96880952D01*
X162086666Y-97452380D01*
X162705714Y-97452380D01*
X177913333Y-97452380D02*
X177580000Y-96976190D01*
X177341904Y-97452380D02*
X177341904Y-96452380D01*
X177722857Y-96452380D01*
X177818095Y-96500000D01*
X177865714Y-96547619D01*
X177913333Y-96642857D01*
X177913333Y-96785714D01*
X177865714Y-96880952D01*
X177818095Y-96928571D01*
X177722857Y-96976190D01*
X177341904Y-96976190D01*
X178865714Y-97452380D02*
X178294285Y-97452380D01*
X178580000Y-97452380D02*
X178580000Y-96452380D01*
X178484761Y-96595238D01*
X178389523Y-96690476D01*
X178294285Y-96738095D01*
X162455714Y-113902380D02*
X162455714Y-112902380D01*
X162693809Y-112902380D01*
X162836666Y-112950000D01*
X162931904Y-113045238D01*
X162979523Y-113140476D01*
X163027142Y-113330952D01*
X163027142Y-113473809D01*
X162979523Y-113664285D01*
X162931904Y-113759523D01*
X162836666Y-113854761D01*
X162693809Y-113902380D01*
X162455714Y-113902380D01*
X163979523Y-113902380D02*
X163408095Y-113902380D01*
X163693809Y-113902380D02*
X163693809Y-112902380D01*
X163598571Y-113045238D01*
X163503333Y-113140476D01*
X163408095Y-113188095D01*
X164836666Y-113235714D02*
X164836666Y-113902380D01*
X164598571Y-112854761D02*
X164360476Y-113569047D01*
X164979523Y-113569047D01*
X168488095Y-115802380D02*
X168488095Y-114802380D01*
X169059523Y-115802380D02*
X168630952Y-115230952D01*
X169059523Y-114802380D02*
X168488095Y-115373809D01*
X178935714Y-113952380D02*
X178935714Y-112952380D01*
X179173809Y-112952380D01*
X179316666Y-113000000D01*
X179411904Y-113095238D01*
X179459523Y-113190476D01*
X179507142Y-113380952D01*
X179507142Y-113523809D01*
X179459523Y-113714285D01*
X179411904Y-113809523D01*
X179316666Y-113904761D01*
X179173809Y-113952380D01*
X178935714Y-113952380D01*
X180459523Y-113952380D02*
X179888095Y-113952380D01*
X180173809Y-113952380D02*
X180173809Y-112952380D01*
X180078571Y-113095238D01*
X179983333Y-113190476D01*
X179888095Y-113238095D01*
X180792857Y-112952380D02*
X181411904Y-112952380D01*
X181078571Y-113333333D01*
X181221428Y-113333333D01*
X181316666Y-113380952D01*
X181364285Y-113428571D01*
X181411904Y-113523809D01*
X181411904Y-113761904D01*
X181364285Y-113857142D01*
X181316666Y-113904761D01*
X181221428Y-113952380D01*
X180935714Y-113952380D01*
X180840476Y-113904761D01*
X180792857Y-113857142D01*
X184988095Y-115852380D02*
X184988095Y-114852380D01*
X185559523Y-115852380D02*
X185130952Y-115280952D01*
X185559523Y-114852380D02*
X184988095Y-115423809D01*
X127952380Y-105761904D02*
X128761904Y-105761904D01*
X128857142Y-105714285D01*
X128904761Y-105666666D01*
X128952380Y-105571428D01*
X128952380Y-105380952D01*
X128904761Y-105285714D01*
X128857142Y-105238095D01*
X128761904Y-105190476D01*
X127952380Y-105190476D01*
X127952380Y-104809523D02*
X127952380Y-104190476D01*
X128333333Y-104523809D01*
X128333333Y-104380952D01*
X128380952Y-104285714D01*
X128428571Y-104238095D01*
X128523809Y-104190476D01*
X128761904Y-104190476D01*
X128857142Y-104238095D01*
X128904761Y-104285714D01*
X128952380Y-104380952D01*
X128952380Y-104666666D01*
X128904761Y-104761904D01*
X128857142Y-104809523D01*
X134473809Y-71976190D02*
X134473809Y-72452380D01*
X134140476Y-71452380D02*
X134473809Y-71976190D01*
X134807142Y-71452380D01*
X135664285Y-72452380D02*
X135092857Y-72452380D01*
X135378571Y-72452380D02*
X135378571Y-71452380D01*
X135283333Y-71595238D01*
X135188095Y-71690476D01*
X135092857Y-71738095D01*
X145198095Y-76512380D02*
X145198095Y-77321904D01*
X145245714Y-77417142D01*
X145293333Y-77464761D01*
X145388571Y-77512380D01*
X145579047Y-77512380D01*
X145674285Y-77464761D01*
X145721904Y-77417142D01*
X145769523Y-77321904D01*
X145769523Y-76512380D01*
X146150476Y-76512380D02*
X146817142Y-76512380D01*
X146388571Y-77512380D01*
X150452380Y-105761904D02*
X151261904Y-105761904D01*
X151357142Y-105714285D01*
X151404761Y-105666666D01*
X151452380Y-105571428D01*
X151452380Y-105380952D01*
X151404761Y-105285714D01*
X151357142Y-105238095D01*
X151261904Y-105190476D01*
X150452380Y-105190476D01*
X150452380Y-104285714D02*
X150452380Y-104476190D01*
X150500000Y-104571428D01*
X150547619Y-104619047D01*
X150690476Y-104714285D01*
X150880952Y-104761904D01*
X151261904Y-104761904D01*
X151357142Y-104714285D01*
X151404761Y-104666666D01*
X151452380Y-104571428D01*
X151452380Y-104380952D01*
X151404761Y-104285714D01*
X151357142Y-104238095D01*
X151261904Y-104190476D01*
X151023809Y-104190476D01*
X150928571Y-104238095D01*
X150880952Y-104285714D01*
X150833333Y-104380952D01*
X150833333Y-104571428D01*
X150880952Y-104666666D01*
X150928571Y-104714285D01*
X151023809Y-104761904D01*
X142952380Y-105761904D02*
X143761904Y-105761904D01*
X143857142Y-105714285D01*
X143904761Y-105666666D01*
X143952380Y-105571428D01*
X143952380Y-105380952D01*
X143904761Y-105285714D01*
X143857142Y-105238095D01*
X143761904Y-105190476D01*
X142952380Y-105190476D01*
X142952380Y-104238095D02*
X142952380Y-104714285D01*
X143428571Y-104761904D01*
X143380952Y-104714285D01*
X143333333Y-104619047D01*
X143333333Y-104380952D01*
X143380952Y-104285714D01*
X143428571Y-104238095D01*
X143523809Y-104190476D01*
X143761904Y-104190476D01*
X143857142Y-104238095D01*
X143904761Y-104285714D01*
X143952380Y-104380952D01*
X143952380Y-104619047D01*
X143904761Y-104714285D01*
X143857142Y-104761904D01*
X135452380Y-105761904D02*
X136261904Y-105761904D01*
X136357142Y-105714285D01*
X136404761Y-105666666D01*
X136452380Y-105571428D01*
X136452380Y-105380952D01*
X136404761Y-105285714D01*
X136357142Y-105238095D01*
X136261904Y-105190476D01*
X135452380Y-105190476D01*
X135785714Y-104285714D02*
X136452380Y-104285714D01*
X135404761Y-104523809D02*
X136119047Y-104761904D01*
X136119047Y-104142857D01*
X148952380Y-86071904D02*
X149761904Y-86071904D01*
X149857142Y-86024285D01*
X149904761Y-85976666D01*
X149952380Y-85881428D01*
X149952380Y-85690952D01*
X149904761Y-85595714D01*
X149857142Y-85548095D01*
X149761904Y-85500476D01*
X148952380Y-85500476D01*
X149047619Y-85071904D02*
X149000000Y-85024285D01*
X148952380Y-84929047D01*
X148952380Y-84690952D01*
X149000000Y-84595714D01*
X149047619Y-84548095D01*
X149142857Y-84500476D01*
X149238095Y-84500476D01*
X149380952Y-84548095D01*
X149952380Y-85119523D01*
X149952380Y-84500476D01*
X136952380Y-57801904D02*
X137761904Y-57801904D01*
X137857142Y-57754285D01*
X137904761Y-57706666D01*
X137952380Y-57611428D01*
X137952380Y-57420952D01*
X137904761Y-57325714D01*
X137857142Y-57278095D01*
X137761904Y-57230476D01*
X136952380Y-57230476D01*
X137952380Y-56230476D02*
X137952380Y-56801904D01*
X137952380Y-56516190D02*
X136952380Y-56516190D01*
X137095238Y-56611428D01*
X137190476Y-56706666D01*
X137238095Y-56801904D01*
X199452380Y-107238095D02*
X198976190Y-107571428D01*
X199452380Y-107809523D02*
X198452380Y-107809523D01*
X198452380Y-107428571D01*
X198500000Y-107333333D01*
X198547619Y-107285714D01*
X198642857Y-107238095D01*
X198785714Y-107238095D01*
X198880952Y-107285714D01*
X198928571Y-107333333D01*
X198976190Y-107428571D01*
X198976190Y-107809523D01*
X199452380Y-106809523D02*
X198452380Y-106809523D01*
X198452380Y-106428571D01*
X198500000Y-106333333D01*
X198547619Y-106285714D01*
X198642857Y-106238095D01*
X198785714Y-106238095D01*
X198880952Y-106285714D01*
X198928571Y-106333333D01*
X198976190Y-106428571D01*
X198976190Y-106809523D01*
X199452380Y-105809523D02*
X198452380Y-105809523D01*
X199166666Y-105476190D01*
X198452380Y-105142857D01*
X199452380Y-105142857D01*
X199452380Y-104142857D02*
X199452380Y-104714285D01*
X199452380Y-104428571D02*
X198452380Y-104428571D01*
X198595238Y-104523809D01*
X198690476Y-104619047D01*
X198738095Y-104714285D01*
X170071428Y-52452380D02*
X169738095Y-51976190D01*
X169500000Y-52452380D02*
X169500000Y-51452380D01*
X169880952Y-51452380D01*
X169976190Y-51500000D01*
X170023809Y-51547619D01*
X170071428Y-51642857D01*
X170071428Y-51785714D01*
X170023809Y-51880952D01*
X169976190Y-51928571D01*
X169880952Y-51976190D01*
X169500000Y-51976190D01*
X170500000Y-51928571D02*
X170833333Y-51928571D01*
X170976190Y-52452380D02*
X170500000Y-52452380D01*
X170500000Y-51452380D01*
X170976190Y-51452380D01*
X171357142Y-52404761D02*
X171500000Y-52452380D01*
X171738095Y-52452380D01*
X171833333Y-52404761D01*
X171880952Y-52357142D01*
X171928571Y-52261904D01*
X171928571Y-52166666D01*
X171880952Y-52071428D01*
X171833333Y-52023809D01*
X171738095Y-51976190D01*
X171547619Y-51928571D01*
X171452380Y-51880952D01*
X171404761Y-51833333D01*
X171357142Y-51738095D01*
X171357142Y-51642857D01*
X171404761Y-51547619D01*
X171452380Y-51500000D01*
X171547619Y-51452380D01*
X171785714Y-51452380D01*
X171928571Y-51500000D01*
X172119047Y-52547619D02*
X172880952Y-52547619D01*
X173642857Y-52452380D02*
X173071428Y-52452380D01*
X173357142Y-52452380D02*
X173357142Y-51452380D01*
X173261904Y-51595238D01*
X173166666Y-51690476D01*
X173071428Y-51738095D01*
X174261904Y-51452380D02*
X174357142Y-51452380D01*
X174452380Y-51500000D01*
X174500000Y-51547619D01*
X174547619Y-51642857D01*
X174595238Y-51833333D01*
X174595238Y-52071428D01*
X174547619Y-52261904D01*
X174500000Y-52357142D01*
X174452380Y-52404761D01*
X174357142Y-52452380D01*
X174261904Y-52452380D01*
X174166666Y-52404761D01*
X174119047Y-52357142D01*
X174071428Y-52261904D01*
X174023809Y-52071428D01*
X174023809Y-51833333D01*
X174071428Y-51642857D01*
X174119047Y-51547619D01*
X174166666Y-51500000D01*
X174261904Y-51452380D01*
X175023809Y-52452380D02*
X175023809Y-51452380D01*
X175595238Y-52452380D02*
X175166666Y-51880952D01*
X175595238Y-51452380D02*
X175023809Y-52023809D01*
X176547619Y-52452380D02*
X175976190Y-52452380D01*
X176261904Y-52452380D02*
X176261904Y-51452380D01*
X176166666Y-51595238D01*
X176071428Y-51690476D01*
X175976190Y-51738095D01*
X146777142Y-120952380D02*
X146443809Y-120476190D01*
X146205714Y-120952380D02*
X146205714Y-119952380D01*
X146586666Y-119952380D01*
X146681904Y-120000000D01*
X146729523Y-120047619D01*
X146777142Y-120142857D01*
X146777142Y-120285714D01*
X146729523Y-120380952D01*
X146681904Y-120428571D01*
X146586666Y-120476190D01*
X146205714Y-120476190D01*
X147729523Y-120952380D02*
X147158095Y-120952380D01*
X147443809Y-120952380D02*
X147443809Y-119952380D01*
X147348571Y-120095238D01*
X147253333Y-120190476D01*
X147158095Y-120238095D01*
X148348571Y-119952380D02*
X148443809Y-119952380D01*
X148539047Y-120000000D01*
X148586666Y-120047619D01*
X148634285Y-120142857D01*
X148681904Y-120333333D01*
X148681904Y-120571428D01*
X148634285Y-120761904D01*
X148586666Y-120857142D01*
X148539047Y-120904761D01*
X148443809Y-120952380D01*
X148348571Y-120952380D01*
X148253333Y-120904761D01*
X148205714Y-120857142D01*
X148158095Y-120761904D01*
X148110476Y-120571428D01*
X148110476Y-120333333D01*
X148158095Y-120142857D01*
X148205714Y-120047619D01*
X148253333Y-120000000D01*
X148348571Y-119952380D01*
X147253333Y-116952380D02*
X146920000Y-116476190D01*
X146681904Y-116952380D02*
X146681904Y-115952380D01*
X147062857Y-115952380D01*
X147158095Y-116000000D01*
X147205714Y-116047619D01*
X147253333Y-116142857D01*
X147253333Y-116285714D01*
X147205714Y-116380952D01*
X147158095Y-116428571D01*
X147062857Y-116476190D01*
X146681904Y-116476190D01*
X147729523Y-116952380D02*
X147920000Y-116952380D01*
X148015238Y-116904761D01*
X148062857Y-116857142D01*
X148158095Y-116714285D01*
X148205714Y-116523809D01*
X148205714Y-116142857D01*
X148158095Y-116047619D01*
X148110476Y-116000000D01*
X148015238Y-115952380D01*
X147824761Y-115952380D01*
X147729523Y-116000000D01*
X147681904Y-116047619D01*
X147634285Y-116142857D01*
X147634285Y-116380952D01*
X147681904Y-116476190D01*
X147729523Y-116523809D01*
X147824761Y-116571428D01*
X148015238Y-116571428D01*
X148110476Y-116523809D01*
X148158095Y-116476190D01*
X148205714Y-116380952D01*
X123452380Y-109166666D02*
X122976190Y-109500000D01*
X123452380Y-109738095D02*
X122452380Y-109738095D01*
X122452380Y-109357142D01*
X122500000Y-109261904D01*
X122547619Y-109214285D01*
X122642857Y-109166666D01*
X122785714Y-109166666D01*
X122880952Y-109214285D01*
X122928571Y-109261904D01*
X122976190Y-109357142D01*
X122976190Y-109738095D01*
X122880952Y-108595238D02*
X122833333Y-108690476D01*
X122785714Y-108738095D01*
X122690476Y-108785714D01*
X122642857Y-108785714D01*
X122547619Y-108738095D01*
X122500000Y-108690476D01*
X122452380Y-108595238D01*
X122452380Y-108404761D01*
X122500000Y-108309523D01*
X122547619Y-108261904D01*
X122642857Y-108214285D01*
X122690476Y-108214285D01*
X122785714Y-108261904D01*
X122833333Y-108309523D01*
X122880952Y-108404761D01*
X122880952Y-108595238D01*
X122928571Y-108690476D01*
X122976190Y-108738095D01*
X123071428Y-108785714D01*
X123261904Y-108785714D01*
X123357142Y-108738095D01*
X123404761Y-108690476D01*
X123452380Y-108595238D01*
X123452380Y-108404761D01*
X123404761Y-108309523D01*
X123357142Y-108261904D01*
X123261904Y-108214285D01*
X123071428Y-108214285D01*
X122976190Y-108261904D01*
X122928571Y-108309523D01*
X122880952Y-108404761D01*
X119952380Y-109246666D02*
X119476190Y-109580000D01*
X119952380Y-109818095D02*
X118952380Y-109818095D01*
X118952380Y-109437142D01*
X119000000Y-109341904D01*
X119047619Y-109294285D01*
X119142857Y-109246666D01*
X119285714Y-109246666D01*
X119380952Y-109294285D01*
X119428571Y-109341904D01*
X119476190Y-109437142D01*
X119476190Y-109818095D01*
X118952380Y-108913333D02*
X118952380Y-108246666D01*
X119952380Y-108675238D01*
X116452380Y-109246666D02*
X115976190Y-109580000D01*
X116452380Y-109818095D02*
X115452380Y-109818095D01*
X115452380Y-109437142D01*
X115500000Y-109341904D01*
X115547619Y-109294285D01*
X115642857Y-109246666D01*
X115785714Y-109246666D01*
X115880952Y-109294285D01*
X115928571Y-109341904D01*
X115976190Y-109437142D01*
X115976190Y-109818095D01*
X115452380Y-108389523D02*
X115452380Y-108580000D01*
X115500000Y-108675238D01*
X115547619Y-108722857D01*
X115690476Y-108818095D01*
X115880952Y-108865714D01*
X116261904Y-108865714D01*
X116357142Y-108818095D01*
X116404761Y-108770476D01*
X116452380Y-108675238D01*
X116452380Y-108484761D01*
X116404761Y-108389523D01*
X116357142Y-108341904D01*
X116261904Y-108294285D01*
X116023809Y-108294285D01*
X115928571Y-108341904D01*
X115880952Y-108389523D01*
X115833333Y-108484761D01*
X115833333Y-108675238D01*
X115880952Y-108770476D01*
X115928571Y-108818095D01*
X116023809Y-108865714D01*
X112952380Y-109246666D02*
X112476190Y-109580000D01*
X112952380Y-109818095D02*
X111952380Y-109818095D01*
X111952380Y-109437142D01*
X112000000Y-109341904D01*
X112047619Y-109294285D01*
X112142857Y-109246666D01*
X112285714Y-109246666D01*
X112380952Y-109294285D01*
X112428571Y-109341904D01*
X112476190Y-109437142D01*
X112476190Y-109818095D01*
X111952380Y-108341904D02*
X111952380Y-108818095D01*
X112428571Y-108865714D01*
X112380952Y-108818095D01*
X112333333Y-108722857D01*
X112333333Y-108484761D01*
X112380952Y-108389523D01*
X112428571Y-108341904D01*
X112523809Y-108294285D01*
X112761904Y-108294285D01*
X112857142Y-108341904D01*
X112904761Y-108389523D01*
X112952380Y-108484761D01*
X112952380Y-108722857D01*
X112904761Y-108818095D01*
X112857142Y-108865714D01*
X133253333Y-116952380D02*
X132920000Y-116476190D01*
X132681904Y-116952380D02*
X132681904Y-115952380D01*
X133062857Y-115952380D01*
X133158095Y-116000000D01*
X133205714Y-116047619D01*
X133253333Y-116142857D01*
X133253333Y-116285714D01*
X133205714Y-116380952D01*
X133158095Y-116428571D01*
X133062857Y-116476190D01*
X132681904Y-116476190D01*
X134110476Y-116285714D02*
X134110476Y-116952380D01*
X133872380Y-115904761D02*
X133634285Y-116619047D01*
X134253333Y-116619047D01*
X133333333Y-120802380D02*
X133000000Y-120326190D01*
X132761904Y-120802380D02*
X132761904Y-119802380D01*
X133142857Y-119802380D01*
X133238095Y-119850000D01*
X133285714Y-119897619D01*
X133333333Y-119992857D01*
X133333333Y-120135714D01*
X133285714Y-120230952D01*
X133238095Y-120278571D01*
X133142857Y-120326190D01*
X132761904Y-120326190D01*
X133666666Y-119802380D02*
X134285714Y-119802380D01*
X133952380Y-120183333D01*
X134095238Y-120183333D01*
X134190476Y-120230952D01*
X134238095Y-120278571D01*
X134285714Y-120373809D01*
X134285714Y-120611904D01*
X134238095Y-120707142D01*
X134190476Y-120754761D01*
X134095238Y-120802380D01*
X133809523Y-120802380D01*
X133714285Y-120754761D01*
X133666666Y-120707142D01*
X199452380Y-89380952D02*
X198452380Y-89380952D01*
X198452380Y-89000000D01*
X198500000Y-88904761D01*
X198547619Y-88857142D01*
X198642857Y-88809523D01*
X198785714Y-88809523D01*
X198880952Y-88857142D01*
X198928571Y-88904761D01*
X198976190Y-89000000D01*
X198976190Y-89380952D01*
X198452380Y-88476190D02*
X199452380Y-88238095D01*
X198738095Y-88047619D01*
X199452380Y-87857142D01*
X198452380Y-87619047D01*
X199452380Y-87238095D02*
X198452380Y-87238095D01*
X199166666Y-86904761D01*
X198452380Y-86571428D01*
X199452380Y-86571428D01*
X199452380Y-85571428D02*
X199452380Y-86142857D01*
X199452380Y-85857142D02*
X198452380Y-85857142D01*
X198595238Y-85952380D01*
X198690476Y-86047619D01*
X198738095Y-86142857D01*
X162095238Y-57047619D02*
X162095238Y-58047619D01*
X161714285Y-58047619D01*
X161619047Y-58000000D01*
X161571428Y-57952380D01*
X161523809Y-57857142D01*
X161523809Y-57714285D01*
X161571428Y-57619047D01*
X161619047Y-57571428D01*
X161714285Y-57523809D01*
X162095238Y-57523809D01*
X161095238Y-57047619D02*
X161095238Y-58047619D01*
X160047619Y-57142857D02*
X160095238Y-57095238D01*
X160238095Y-57047619D01*
X160333333Y-57047619D01*
X160476190Y-57095238D01*
X160571428Y-57190476D01*
X160619047Y-57285714D01*
X160666666Y-57476190D01*
X160666666Y-57619047D01*
X160619047Y-57809523D01*
X160571428Y-57904761D01*
X160476190Y-58000000D01*
X160333333Y-58047619D01*
X160238095Y-58047619D01*
X160095238Y-58000000D01*
X160047619Y-57952380D01*
X159619047Y-57047619D02*
X159619047Y-58047619D01*
X159047619Y-57047619D02*
X159476190Y-57619047D01*
X159047619Y-58047619D02*
X159619047Y-57476190D01*
X158619047Y-57047619D02*
X158619047Y-58047619D01*
X158285714Y-58047619D02*
X157714285Y-58047619D01*
X158000000Y-57047619D02*
X158000000Y-58047619D01*
X157476190Y-58047619D02*
X156857142Y-58047619D01*
X157190476Y-57666666D01*
X157047619Y-57666666D01*
X156952380Y-57619047D01*
X156904761Y-57571428D01*
X156857142Y-57476190D01*
X156857142Y-57238095D01*
X156904761Y-57142857D01*
X156952380Y-57095238D01*
X157047619Y-57047619D01*
X157333333Y-57047619D01*
X157428571Y-57095238D01*
X157476190Y-57142857D01*
X117822380Y-84175238D02*
X116822380Y-84175238D01*
X117536666Y-83841904D01*
X116822380Y-83508571D01*
X117822380Y-83508571D01*
X116822380Y-82841904D02*
X116822380Y-82651428D01*
X116870000Y-82556190D01*
X116965238Y-82460952D01*
X117155714Y-82413333D01*
X117489047Y-82413333D01*
X117679523Y-82460952D01*
X117774761Y-82556190D01*
X117822380Y-82651428D01*
X117822380Y-82841904D01*
X117774761Y-82937142D01*
X117679523Y-83032380D01*
X117489047Y-83080000D01*
X117155714Y-83080000D01*
X116965238Y-83032380D01*
X116870000Y-82937142D01*
X116822380Y-82841904D01*
X116822380Y-82127619D02*
X117822380Y-81794285D01*
X116822380Y-81460952D01*
X117917619Y-81365714D02*
X117917619Y-80603809D01*
X117822380Y-79841904D02*
X117822380Y-80413333D01*
X117822380Y-80127619D02*
X116822380Y-80127619D01*
X116965238Y-80222857D01*
X117060476Y-80318095D01*
X117108095Y-80413333D01*
X116822380Y-79222857D02*
X116822380Y-79127619D01*
X116870000Y-79032380D01*
X116917619Y-78984761D01*
X117012857Y-78937142D01*
X117203333Y-78889523D01*
X117441428Y-78889523D01*
X117631904Y-78937142D01*
X117727142Y-78984761D01*
X117774761Y-79032380D01*
X117822380Y-79127619D01*
X117822380Y-79222857D01*
X117774761Y-79318095D01*
X117727142Y-79365714D01*
X117631904Y-79413333D01*
X117441428Y-79460952D01*
X117203333Y-79460952D01*
X117012857Y-79413333D01*
X116917619Y-79365714D01*
X116870000Y-79318095D01*
X116822380Y-79222857D01*
X117822380Y-78460952D02*
X116822380Y-78460952D01*
X117822380Y-77889523D02*
X117250952Y-78318095D01*
X116822380Y-77889523D02*
X117393809Y-78460952D01*
X117822380Y-76937142D02*
X117822380Y-77508571D01*
X117822380Y-77222857D02*
X116822380Y-77222857D01*
X116965238Y-77318095D01*
X117060476Y-77413333D01*
X117108095Y-77508571D01*
X199452380Y-70571428D02*
X198452380Y-70571428D01*
X199166666Y-70238095D01*
X198452380Y-69904761D01*
X199452380Y-69904761D01*
X199452380Y-69428571D02*
X198452380Y-69428571D01*
X199452380Y-68952380D02*
X198452380Y-68952380D01*
X199452380Y-68380952D01*
X198452380Y-68380952D01*
X199452380Y-67380952D02*
X199452380Y-67952380D01*
X199452380Y-67666666D02*
X198452380Y-67666666D01*
X198595238Y-67761904D01*
X198690476Y-67857142D01*
X198738095Y-67952380D01*
X177023809Y-67452380D02*
X176547619Y-67452380D01*
X176547619Y-66452380D01*
X177928571Y-67357142D02*
X177880952Y-67404761D01*
X177738095Y-67452380D01*
X177642857Y-67452380D01*
X177500000Y-67404761D01*
X177404761Y-67309523D01*
X177357142Y-67214285D01*
X177309523Y-67023809D01*
X177309523Y-66880952D01*
X177357142Y-66690476D01*
X177404761Y-66595238D01*
X177500000Y-66500000D01*
X177642857Y-66452380D01*
X177738095Y-66452380D01*
X177880952Y-66500000D01*
X177928571Y-66547619D01*
X178357142Y-67452380D02*
X178357142Y-66452380D01*
X178595238Y-66452380D01*
X178738095Y-66500000D01*
X178833333Y-66595238D01*
X178880952Y-66690476D01*
X178928571Y-66880952D01*
X178928571Y-67023809D01*
X178880952Y-67214285D01*
X178833333Y-67309523D01*
X178738095Y-67404761D01*
X178595238Y-67452380D01*
X178357142Y-67452380D01*
X179119047Y-67547619D02*
X179880952Y-67547619D01*
X180309523Y-66452380D02*
X180500000Y-66452380D01*
X180595238Y-66500000D01*
X180690476Y-66595238D01*
X180738095Y-66785714D01*
X180738095Y-67119047D01*
X180690476Y-67309523D01*
X180595238Y-67404761D01*
X180500000Y-67452380D01*
X180309523Y-67452380D01*
X180214285Y-67404761D01*
X180119047Y-67309523D01*
X180071428Y-67119047D01*
X180071428Y-66785714D01*
X180119047Y-66595238D01*
X180214285Y-66500000D01*
X180309523Y-66452380D01*
X181166666Y-66452380D02*
X181166666Y-67261904D01*
X181214285Y-67357142D01*
X181261904Y-67404761D01*
X181357142Y-67452380D01*
X181547619Y-67452380D01*
X181642857Y-67404761D01*
X181690476Y-67357142D01*
X181738095Y-67261904D01*
X181738095Y-66452380D01*
X182071428Y-66452380D02*
X182642857Y-66452380D01*
X182357142Y-67452380D02*
X182357142Y-66452380D01*
X183500000Y-67452380D02*
X182928571Y-67452380D01*
X183214285Y-67452380D02*
X183214285Y-66452380D01*
X183119047Y-66595238D01*
X183023809Y-66690476D01*
X182928571Y-66738095D01*
X171833333Y-55727380D02*
X171357142Y-55727380D01*
X171357142Y-54727380D01*
X172738095Y-55632142D02*
X172690476Y-55679761D01*
X172547619Y-55727380D01*
X172452380Y-55727380D01*
X172309523Y-55679761D01*
X172214285Y-55584523D01*
X172166666Y-55489285D01*
X172119047Y-55298809D01*
X172119047Y-55155952D01*
X172166666Y-54965476D01*
X172214285Y-54870238D01*
X172309523Y-54775000D01*
X172452380Y-54727380D01*
X172547619Y-54727380D01*
X172690476Y-54775000D01*
X172738095Y-54822619D01*
X173166666Y-55727380D02*
X173166666Y-54727380D01*
X173404761Y-54727380D01*
X173547619Y-54775000D01*
X173642857Y-54870238D01*
X173690476Y-54965476D01*
X173738095Y-55155952D01*
X173738095Y-55298809D01*
X173690476Y-55489285D01*
X173642857Y-55584523D01*
X173547619Y-55679761D01*
X173404761Y-55727380D01*
X173166666Y-55727380D01*
X174690476Y-55727380D02*
X174119047Y-55727380D01*
X174404761Y-55727380D02*
X174404761Y-54727380D01*
X174309523Y-54870238D01*
X174214285Y-54965476D01*
X174119047Y-55013095D01*
X124298571Y-84008571D02*
X124298571Y-83675238D01*
X124822380Y-83532380D02*
X124822380Y-84008571D01*
X123822380Y-84008571D01*
X123822380Y-83532380D01*
X124822380Y-83103809D02*
X123822380Y-83103809D01*
X124822380Y-82532380D01*
X123822380Y-82532380D01*
X123822380Y-82199047D02*
X123822380Y-81627619D01*
X124822380Y-81913333D02*
X123822380Y-81913333D01*
X124917619Y-81532380D02*
X124917619Y-80770476D01*
X124822380Y-80008571D02*
X124822380Y-80580000D01*
X124822380Y-80294285D02*
X123822380Y-80294285D01*
X123965238Y-80389523D01*
X124060476Y-80484761D01*
X124108095Y-80580000D01*
X123822380Y-79389523D02*
X123822380Y-79294285D01*
X123870000Y-79199047D01*
X123917619Y-79151428D01*
X124012857Y-79103809D01*
X124203333Y-79056190D01*
X124441428Y-79056190D01*
X124631904Y-79103809D01*
X124727142Y-79151428D01*
X124774761Y-79199047D01*
X124822380Y-79294285D01*
X124822380Y-79389523D01*
X124774761Y-79484761D01*
X124727142Y-79532380D01*
X124631904Y-79580000D01*
X124441428Y-79627619D01*
X124203333Y-79627619D01*
X124012857Y-79580000D01*
X123917619Y-79532380D01*
X123870000Y-79484761D01*
X123822380Y-79389523D01*
X124822380Y-78627619D02*
X123822380Y-78627619D01*
X124822380Y-78056190D02*
X124250952Y-78484761D01*
X123822380Y-78056190D02*
X124393809Y-78627619D01*
X124822380Y-77103809D02*
X124822380Y-77675238D01*
X124822380Y-77389523D02*
X123822380Y-77389523D01*
X123965238Y-77484761D01*
X124060476Y-77580000D01*
X124108095Y-77675238D01*
X113082380Y-97443809D02*
X112082380Y-97443809D01*
X112082380Y-97205714D01*
X112130000Y-97062857D01*
X112225238Y-96967619D01*
X112320476Y-96920000D01*
X112510952Y-96872380D01*
X112653809Y-96872380D01*
X112844285Y-96920000D01*
X112939523Y-96967619D01*
X113034761Y-97062857D01*
X113082380Y-97205714D01*
X113082380Y-97443809D01*
X113082380Y-95872380D02*
X112606190Y-96205714D01*
X113082380Y-96443809D02*
X112082380Y-96443809D01*
X112082380Y-96062857D01*
X112130000Y-95967619D01*
X112177619Y-95920000D01*
X112272857Y-95872380D01*
X112415714Y-95872380D01*
X112510952Y-95920000D01*
X112558571Y-95967619D01*
X112606190Y-96062857D01*
X112606190Y-96443809D01*
X112558571Y-95443809D02*
X112558571Y-95110476D01*
X113082380Y-94967619D02*
X113082380Y-95443809D01*
X112082380Y-95443809D01*
X112082380Y-94967619D01*
X113177619Y-94777142D02*
X113177619Y-94015238D01*
X113082380Y-93253333D02*
X113082380Y-93824761D01*
X113082380Y-93539047D02*
X112082380Y-93539047D01*
X112225238Y-93634285D01*
X112320476Y-93729523D01*
X112368095Y-93824761D01*
X112082380Y-92634285D02*
X112082380Y-92539047D01*
X112130000Y-92443809D01*
X112177619Y-92396190D01*
X112272857Y-92348571D01*
X112463333Y-92300952D01*
X112701428Y-92300952D01*
X112891904Y-92348571D01*
X112987142Y-92396190D01*
X113034761Y-92443809D01*
X113082380Y-92539047D01*
X113082380Y-92634285D01*
X113034761Y-92729523D01*
X112987142Y-92777142D01*
X112891904Y-92824761D01*
X112701428Y-92872380D01*
X112463333Y-92872380D01*
X112272857Y-92824761D01*
X112177619Y-92777142D01*
X112130000Y-92729523D01*
X112082380Y-92634285D01*
X113082380Y-91872380D02*
X112082380Y-91872380D01*
X113082380Y-91300952D02*
X112510952Y-91729523D01*
X112082380Y-91300952D02*
X112653809Y-91872380D01*
X113082380Y-90348571D02*
X113082380Y-90920000D01*
X113082380Y-90634285D02*
X112082380Y-90634285D01*
X112225238Y-90729523D01*
X112320476Y-90824761D01*
X112368095Y-90920000D01*
X120082380Y-97324761D02*
X119082380Y-97324761D01*
X119082380Y-97086666D01*
X119130000Y-96943809D01*
X119225238Y-96848571D01*
X119320476Y-96800952D01*
X119510952Y-96753333D01*
X119653809Y-96753333D01*
X119844285Y-96800952D01*
X119939523Y-96848571D01*
X120034761Y-96943809D01*
X120082380Y-97086666D01*
X120082380Y-97324761D01*
X119558571Y-96324761D02*
X119558571Y-95991428D01*
X120082380Y-95848571D02*
X120082380Y-96324761D01*
X119082380Y-96324761D01*
X119082380Y-95848571D01*
X119082380Y-95562857D02*
X119082380Y-94991428D01*
X120082380Y-95277142D02*
X119082380Y-95277142D01*
X120177619Y-94896190D02*
X120177619Y-94134285D01*
X120082380Y-93372380D02*
X120082380Y-93943809D01*
X120082380Y-93658095D02*
X119082380Y-93658095D01*
X119225238Y-93753333D01*
X119320476Y-93848571D01*
X119368095Y-93943809D01*
X119082380Y-92753333D02*
X119082380Y-92658095D01*
X119130000Y-92562857D01*
X119177619Y-92515238D01*
X119272857Y-92467619D01*
X119463333Y-92420000D01*
X119701428Y-92420000D01*
X119891904Y-92467619D01*
X119987142Y-92515238D01*
X120034761Y-92562857D01*
X120082380Y-92658095D01*
X120082380Y-92753333D01*
X120034761Y-92848571D01*
X119987142Y-92896190D01*
X119891904Y-92943809D01*
X119701428Y-92991428D01*
X119463333Y-92991428D01*
X119272857Y-92943809D01*
X119177619Y-92896190D01*
X119130000Y-92848571D01*
X119082380Y-92753333D01*
X120082380Y-91991428D02*
X119082380Y-91991428D01*
X120082380Y-91420000D02*
X119510952Y-91848571D01*
X119082380Y-91420000D02*
X119653809Y-91991428D01*
X120082380Y-90467619D02*
X120082380Y-91039047D01*
X120082380Y-90753333D02*
X119082380Y-90753333D01*
X119225238Y-90848571D01*
X119320476Y-90943809D01*
X119368095Y-91039047D01*
X123452380Y-126738095D02*
X122452380Y-126738095D01*
X122452380Y-126500000D01*
X122500000Y-126357142D01*
X122595238Y-126261904D01*
X122690476Y-126214285D01*
X122880952Y-126166666D01*
X123023809Y-126166666D01*
X123214285Y-126214285D01*
X123309523Y-126261904D01*
X123404761Y-126357142D01*
X123452380Y-126500000D01*
X123452380Y-126738095D01*
X122452380Y-125309523D02*
X122452380Y-125500000D01*
X122500000Y-125595238D01*
X122547619Y-125642857D01*
X122690476Y-125738095D01*
X122880952Y-125785714D01*
X123261904Y-125785714D01*
X123357142Y-125738095D01*
X123404761Y-125690476D01*
X123452380Y-125595238D01*
X123452380Y-125404761D01*
X123404761Y-125309523D01*
X123357142Y-125261904D01*
X123261904Y-125214285D01*
X123023809Y-125214285D01*
X122928571Y-125261904D01*
X122880952Y-125309523D01*
X122833333Y-125404761D01*
X122833333Y-125595238D01*
X122880952Y-125690476D01*
X122928571Y-125738095D01*
X123023809Y-125785714D01*
X126052380Y-118361904D02*
X125052380Y-118361904D01*
X126052380Y-117790476D02*
X125480952Y-118219047D01*
X125052380Y-117790476D02*
X125623809Y-118361904D01*
X116862380Y-126738095D02*
X115862380Y-126738095D01*
X115862380Y-126500000D01*
X115910000Y-126357142D01*
X116005238Y-126261904D01*
X116100476Y-126214285D01*
X116290952Y-126166666D01*
X116433809Y-126166666D01*
X116624285Y-126214285D01*
X116719523Y-126261904D01*
X116814761Y-126357142D01*
X116862380Y-126500000D01*
X116862380Y-126738095D01*
X115862380Y-125261904D02*
X115862380Y-125738095D01*
X116338571Y-125785714D01*
X116290952Y-125738095D01*
X116243333Y-125642857D01*
X116243333Y-125404761D01*
X116290952Y-125309523D01*
X116338571Y-125261904D01*
X116433809Y-125214285D01*
X116671904Y-125214285D01*
X116767142Y-125261904D01*
X116814761Y-125309523D01*
X116862380Y-125404761D01*
X116862380Y-125642857D01*
X116814761Y-125738095D01*
X116767142Y-125785714D01*
X119552380Y-118351904D02*
X118552380Y-118351904D01*
X119552380Y-117780476D02*
X118980952Y-118209047D01*
X118552380Y-117780476D02*
X119123809Y-118351904D01*
X110502380Y-126738095D02*
X109502380Y-126738095D01*
X109502380Y-126500000D01*
X109550000Y-126357142D01*
X109645238Y-126261904D01*
X109740476Y-126214285D01*
X109930952Y-126166666D01*
X110073809Y-126166666D01*
X110264285Y-126214285D01*
X110359523Y-126261904D01*
X110454761Y-126357142D01*
X110502380Y-126500000D01*
X110502380Y-126738095D01*
X109835714Y-125309523D02*
X110502380Y-125309523D01*
X109454761Y-125547619D02*
X110169047Y-125785714D01*
X110169047Y-125166666D01*
X113052380Y-118351904D02*
X112052380Y-118351904D01*
X113052380Y-117780476D02*
X112480952Y-118209047D01*
X112052380Y-117780476D02*
X112623809Y-118351904D01*
X104002380Y-126738095D02*
X103002380Y-126738095D01*
X103002380Y-126500000D01*
X103050000Y-126357142D01*
X103145238Y-126261904D01*
X103240476Y-126214285D01*
X103430952Y-126166666D01*
X103573809Y-126166666D01*
X103764285Y-126214285D01*
X103859523Y-126261904D01*
X103954761Y-126357142D01*
X104002380Y-126500000D01*
X104002380Y-126738095D01*
X103002380Y-125833333D02*
X103002380Y-125214285D01*
X103383333Y-125547619D01*
X103383333Y-125404761D01*
X103430952Y-125309523D01*
X103478571Y-125261904D01*
X103573809Y-125214285D01*
X103811904Y-125214285D01*
X103907142Y-125261904D01*
X103954761Y-125309523D01*
X104002380Y-125404761D01*
X104002380Y-125690476D01*
X103954761Y-125785714D01*
X103907142Y-125833333D01*
X106552380Y-118351904D02*
X105552380Y-118351904D01*
X106552380Y-117780476D02*
X105980952Y-118209047D01*
X105552380Y-117780476D02*
X106123809Y-118351904D01*
X118841904Y-68952380D02*
X118841904Y-67952380D01*
X119080000Y-67952380D01*
X119222857Y-68000000D01*
X119318095Y-68095238D01*
X119365714Y-68190476D01*
X119413333Y-68380952D01*
X119413333Y-68523809D01*
X119365714Y-68714285D01*
X119318095Y-68809523D01*
X119222857Y-68904761D01*
X119080000Y-68952380D01*
X118841904Y-68952380D01*
X119794285Y-68047619D02*
X119841904Y-68000000D01*
X119937142Y-67952380D01*
X120175238Y-67952380D01*
X120270476Y-68000000D01*
X120318095Y-68047619D01*
X120365714Y-68142857D01*
X120365714Y-68238095D01*
X120318095Y-68380952D01*
X119746666Y-68952380D01*
X120365714Y-68952380D01*
X114238095Y-66852380D02*
X114238095Y-65852380D01*
X114809523Y-66852380D02*
X114380952Y-66280952D01*
X114809523Y-65852380D02*
X114238095Y-66423809D01*
X115452380Y-59738095D02*
X114452380Y-59738095D01*
X114452380Y-59500000D01*
X114500000Y-59357142D01*
X114595238Y-59261904D01*
X114690476Y-59214285D01*
X114880952Y-59166666D01*
X115023809Y-59166666D01*
X115214285Y-59214285D01*
X115309523Y-59261904D01*
X115404761Y-59357142D01*
X115452380Y-59500000D01*
X115452380Y-59738095D01*
X115452380Y-58214285D02*
X115452380Y-58785714D01*
X115452380Y-58500000D02*
X114452380Y-58500000D01*
X114595238Y-58595238D01*
X114690476Y-58690476D01*
X114738095Y-58785714D01*
X117552380Y-53761904D02*
X116552380Y-53761904D01*
X117552380Y-53190476D02*
X116980952Y-53619047D01*
X116552380Y-53190476D02*
X117123809Y-53761904D01*
X124833333Y-65357142D02*
X124785714Y-65404761D01*
X124642857Y-65452380D01*
X124547619Y-65452380D01*
X124404761Y-65404761D01*
X124309523Y-65309523D01*
X124261904Y-65214285D01*
X124214285Y-65023809D01*
X124214285Y-64880952D01*
X124261904Y-64690476D01*
X124309523Y-64595238D01*
X124404761Y-64500000D01*
X124547619Y-64452380D01*
X124642857Y-64452380D01*
X124785714Y-64500000D01*
X124833333Y-64547619D01*
X125214285Y-64547619D02*
X125261904Y-64500000D01*
X125357142Y-64452380D01*
X125595238Y-64452380D01*
X125690476Y-64500000D01*
X125738095Y-64547619D01*
X125785714Y-64642857D01*
X125785714Y-64738095D01*
X125738095Y-64880952D01*
X125166666Y-65452380D01*
X125785714Y-65452380D01*
X124333333Y-58357142D02*
X124285714Y-58404761D01*
X124142857Y-58452380D01*
X124047619Y-58452380D01*
X123904761Y-58404761D01*
X123809523Y-58309523D01*
X123761904Y-58214285D01*
X123714285Y-58023809D01*
X123714285Y-57880952D01*
X123761904Y-57690476D01*
X123809523Y-57595238D01*
X123904761Y-57500000D01*
X124047619Y-57452380D01*
X124142857Y-57452380D01*
X124285714Y-57500000D01*
X124333333Y-57547619D01*
X125285714Y-58452380D02*
X124714285Y-58452380D01*
X125000000Y-58452380D02*
X125000000Y-57452380D01*
X124904761Y-57595238D01*
X124809523Y-57690476D01*
X124714285Y-57738095D01*
X178871428Y-83119047D02*
X178823809Y-83261904D01*
X178776190Y-83309523D01*
X178680952Y-83357142D01*
X178538095Y-83357142D01*
X178442857Y-83309523D01*
X178395238Y-83261904D01*
X178347619Y-83166666D01*
X178347619Y-82785714D01*
X179347619Y-82785714D01*
X179347619Y-83119047D01*
X179300000Y-83214285D01*
X179252380Y-83261904D01*
X179157142Y-83309523D01*
X179061904Y-83309523D01*
X178966666Y-83261904D01*
X178919047Y-83214285D01*
X178871428Y-83119047D01*
X178871428Y-82785714D01*
X179347619Y-83690476D02*
X179347619Y-84357142D01*
X178347619Y-83690476D01*
X178347619Y-84357142D01*
X178347619Y-85261904D02*
X178347619Y-84690476D01*
X178347619Y-84976190D02*
X179347619Y-84976190D01*
X179204761Y-84880952D01*
X179109523Y-84785714D01*
X179061904Y-84690476D01*
X174609047Y-81531428D02*
X175370952Y-81531428D01*
X174990000Y-81912380D02*
X174990000Y-81150476D01*
M02*
