G04 #@! TF.GenerationSoftware,KiCad,Pcbnew,(5.1.4)-1*
G04 #@! TF.CreationDate,2021-08-27T17:13:54-03:00*
G04 #@! TF.ProjectId,INYECTORES,494e5945-4354-44f5-9245-532e6b696361,rev?*
G04 #@! TF.SameCoordinates,Original*
G04 #@! TF.FileFunction,Copper,L1,Top*
G04 #@! TF.FilePolarity,Positive*
%FSLAX46Y46*%
G04 Gerber Fmt 4.6, Leading zero omitted, Abs format (unit mm)*
G04 Created by KiCad (PCBNEW (5.1.4)-1) date 2021-08-27 17:13:54*
%MOMM*%
%LPD*%
G04 APERTURE LIST*
%ADD10C,2.000000*%
%ADD11C,3.000000*%
%ADD12C,2.500000*%
%ADD13C,1.600000*%
%ADD14O,1.700000X1.700000*%
%ADD15R,1.700000X1.700000*%
%ADD16C,6.400000*%
%ADD17R,1.050000X1.500000*%
%ADD18O,1.050000X1.500000*%
%ADD19O,1.905000X2.000000*%
%ADD20R,1.905000X2.000000*%
%ADD21O,1.600000X2.400000*%
%ADD22R,1.600000X2.400000*%
%ADD23O,1.600000X1.600000*%
%ADD24C,2.600000*%
%ADD25R,2.600000X2.600000*%
%ADD26O,2.200000X2.200000*%
%ADD27R,2.200000X2.200000*%
%ADD28C,0.100000*%
%ADD29C,0.975000*%
%ADD30C,1.500000*%
%ADD31R,1.500000X1.500000*%
%ADD32O,2.000000X1.905000*%
%ADD33R,2.000000X1.905000*%
%ADD34C,2.340000*%
%ADD35C,1.440000*%
%ADD36O,3.200000X3.200000*%
%ADD37R,3.200000X3.200000*%
%ADD38R,1.600000X1.600000*%
%ADD39R,2.000000X2.000000*%
%ADD40C,0.800000*%
%ADD41C,0.300000*%
%ADD42C,1.000000*%
%ADD43C,2.500000*%
%ADD44C,1.904800*%
%ADD45C,1.599800*%
%ADD46C,0.254000*%
G04 APERTURE END LIST*
D10*
X108000000Y-103500000D03*
X103500000Y-103500000D03*
X108000000Y-97000000D03*
X103500000Y-97000000D03*
D11*
X180000000Y-117500000D03*
D12*
X185950000Y-119450000D03*
D11*
X186000000Y-131700000D03*
X173950000Y-131650000D03*
D12*
X173950000Y-119450000D03*
D13*
X149500000Y-112500000D03*
X152000000Y-112500000D03*
X134500000Y-112500000D03*
X137000000Y-112500000D03*
X130000000Y-112500000D03*
X127500000Y-112500000D03*
X145000000Y-112500000D03*
X142500000Y-112500000D03*
D14*
X168240000Y-70500000D03*
X165700000Y-70500000D03*
X163160000Y-70500000D03*
X160620000Y-70500000D03*
X158080000Y-70500000D03*
X155540000Y-70500000D03*
D15*
X153000000Y-70500000D03*
D14*
X172340000Y-70500000D03*
X174880000Y-70500000D03*
X177420000Y-70500000D03*
X179960000Y-70500000D03*
D15*
X182500000Y-70500000D03*
D16*
X195000000Y-145500000D03*
X105000000Y-145500000D03*
X195000000Y-54500000D03*
X105000000Y-54500000D03*
D17*
X179000000Y-109400000D03*
D18*
X182500000Y-109400000D03*
X180750000Y-109400000D03*
D17*
X173250000Y-109405000D03*
D18*
X176750000Y-109405000D03*
X175000000Y-109405000D03*
D19*
X151080000Y-126000000D03*
X148540000Y-126000000D03*
D20*
X146000000Y-126000000D03*
D19*
X151080000Y-133500000D03*
X148540000Y-133500000D03*
D20*
X146000000Y-133500000D03*
D19*
X137080000Y-126000000D03*
X134540000Y-126000000D03*
D20*
X132000000Y-126000000D03*
D19*
X137080000Y-133500000D03*
X134540000Y-133500000D03*
D20*
X132000000Y-133500000D03*
D21*
X160195000Y-108700000D03*
X157655000Y-101080000D03*
X157655000Y-108700000D03*
D22*
X160195000Y-101080000D03*
D21*
X167400000Y-108620000D03*
X164860000Y-101000000D03*
X164860000Y-108620000D03*
D22*
X167400000Y-101000000D03*
D23*
X172840000Y-100500000D03*
D13*
X183000000Y-100500000D03*
D23*
X172840000Y-104000000D03*
D13*
X183000000Y-104000000D03*
D23*
X156840000Y-97000000D03*
D13*
X167000000Y-97000000D03*
D23*
X183160000Y-97000000D03*
D13*
X173000000Y-97000000D03*
D11*
X163500000Y-117500000D03*
D12*
X169450000Y-119450000D03*
D11*
X169500000Y-131700000D03*
X157450000Y-131650000D03*
D12*
X157450000Y-119450000D03*
D24*
X184100000Y-141100000D03*
X179100000Y-141100000D03*
D25*
X174100000Y-141100000D03*
D24*
X123500000Y-141000000D03*
X118500000Y-141000000D03*
D25*
X113500000Y-141000000D03*
D24*
X149500000Y-141000000D03*
D25*
X144500000Y-141000000D03*
D24*
X107500000Y-71700000D03*
X107500000Y-66700000D03*
D25*
X107500000Y-61700000D03*
D24*
X168570000Y-141055000D03*
X163570000Y-141055000D03*
D25*
X158570000Y-141055000D03*
D24*
X139000000Y-141000000D03*
X134000000Y-141000000D03*
D25*
X129000000Y-141000000D03*
D26*
X158590000Y-113250000D03*
D27*
X168750000Y-113250000D03*
D26*
X175090000Y-113300000D03*
D27*
X185250000Y-113300000D03*
D28*
G36*
X152205142Y-95301174D02*
G01*
X152228803Y-95304684D01*
X152252007Y-95310496D01*
X152274529Y-95318554D01*
X152296153Y-95328782D01*
X152316670Y-95341079D01*
X152335883Y-95355329D01*
X152353607Y-95371393D01*
X152369671Y-95389117D01*
X152383921Y-95408330D01*
X152396218Y-95428847D01*
X152406446Y-95450471D01*
X152414504Y-95472993D01*
X152420316Y-95496197D01*
X152423826Y-95519858D01*
X152425000Y-95543750D01*
X152425000Y-96456250D01*
X152423826Y-96480142D01*
X152420316Y-96503803D01*
X152414504Y-96527007D01*
X152406446Y-96549529D01*
X152396218Y-96571153D01*
X152383921Y-96591670D01*
X152369671Y-96610883D01*
X152353607Y-96628607D01*
X152335883Y-96644671D01*
X152316670Y-96658921D01*
X152296153Y-96671218D01*
X152274529Y-96681446D01*
X152252007Y-96689504D01*
X152228803Y-96695316D01*
X152205142Y-96698826D01*
X152181250Y-96700000D01*
X151693750Y-96700000D01*
X151669858Y-96698826D01*
X151646197Y-96695316D01*
X151622993Y-96689504D01*
X151600471Y-96681446D01*
X151578847Y-96671218D01*
X151558330Y-96658921D01*
X151539117Y-96644671D01*
X151521393Y-96628607D01*
X151505329Y-96610883D01*
X151491079Y-96591670D01*
X151478782Y-96571153D01*
X151468554Y-96549529D01*
X151460496Y-96527007D01*
X151454684Y-96503803D01*
X151451174Y-96480142D01*
X151450000Y-96456250D01*
X151450000Y-95543750D01*
X151451174Y-95519858D01*
X151454684Y-95496197D01*
X151460496Y-95472993D01*
X151468554Y-95450471D01*
X151478782Y-95428847D01*
X151491079Y-95408330D01*
X151505329Y-95389117D01*
X151521393Y-95371393D01*
X151539117Y-95355329D01*
X151558330Y-95341079D01*
X151578847Y-95328782D01*
X151600471Y-95318554D01*
X151622993Y-95310496D01*
X151646197Y-95304684D01*
X151669858Y-95301174D01*
X151693750Y-95300000D01*
X152181250Y-95300000D01*
X152205142Y-95301174D01*
X152205142Y-95301174D01*
G37*
D29*
X151937500Y-96000000D03*
D28*
G36*
X150330142Y-95301174D02*
G01*
X150353803Y-95304684D01*
X150377007Y-95310496D01*
X150399529Y-95318554D01*
X150421153Y-95328782D01*
X150441670Y-95341079D01*
X150460883Y-95355329D01*
X150478607Y-95371393D01*
X150494671Y-95389117D01*
X150508921Y-95408330D01*
X150521218Y-95428847D01*
X150531446Y-95450471D01*
X150539504Y-95472993D01*
X150545316Y-95496197D01*
X150548826Y-95519858D01*
X150550000Y-95543750D01*
X150550000Y-96456250D01*
X150548826Y-96480142D01*
X150545316Y-96503803D01*
X150539504Y-96527007D01*
X150531446Y-96549529D01*
X150521218Y-96571153D01*
X150508921Y-96591670D01*
X150494671Y-96610883D01*
X150478607Y-96628607D01*
X150460883Y-96644671D01*
X150441670Y-96658921D01*
X150421153Y-96671218D01*
X150399529Y-96681446D01*
X150377007Y-96689504D01*
X150353803Y-96695316D01*
X150330142Y-96698826D01*
X150306250Y-96700000D01*
X149818750Y-96700000D01*
X149794858Y-96698826D01*
X149771197Y-96695316D01*
X149747993Y-96689504D01*
X149725471Y-96681446D01*
X149703847Y-96671218D01*
X149683330Y-96658921D01*
X149664117Y-96644671D01*
X149646393Y-96628607D01*
X149630329Y-96610883D01*
X149616079Y-96591670D01*
X149603782Y-96571153D01*
X149593554Y-96549529D01*
X149585496Y-96527007D01*
X149579684Y-96503803D01*
X149576174Y-96480142D01*
X149575000Y-96456250D01*
X149575000Y-95543750D01*
X149576174Y-95519858D01*
X149579684Y-95496197D01*
X149585496Y-95472993D01*
X149593554Y-95450471D01*
X149603782Y-95428847D01*
X149616079Y-95408330D01*
X149630329Y-95389117D01*
X149646393Y-95371393D01*
X149664117Y-95355329D01*
X149683330Y-95341079D01*
X149703847Y-95328782D01*
X149725471Y-95318554D01*
X149747993Y-95310496D01*
X149771197Y-95304684D01*
X149794858Y-95301174D01*
X149818750Y-95300000D01*
X150306250Y-95300000D01*
X150330142Y-95301174D01*
X150330142Y-95301174D01*
G37*
D29*
X150062500Y-96000000D03*
D28*
G36*
X148705142Y-95301174D02*
G01*
X148728803Y-95304684D01*
X148752007Y-95310496D01*
X148774529Y-95318554D01*
X148796153Y-95328782D01*
X148816670Y-95341079D01*
X148835883Y-95355329D01*
X148853607Y-95371393D01*
X148869671Y-95389117D01*
X148883921Y-95408330D01*
X148896218Y-95428847D01*
X148906446Y-95450471D01*
X148914504Y-95472993D01*
X148920316Y-95496197D01*
X148923826Y-95519858D01*
X148925000Y-95543750D01*
X148925000Y-96456250D01*
X148923826Y-96480142D01*
X148920316Y-96503803D01*
X148914504Y-96527007D01*
X148906446Y-96549529D01*
X148896218Y-96571153D01*
X148883921Y-96591670D01*
X148869671Y-96610883D01*
X148853607Y-96628607D01*
X148835883Y-96644671D01*
X148816670Y-96658921D01*
X148796153Y-96671218D01*
X148774529Y-96681446D01*
X148752007Y-96689504D01*
X148728803Y-96695316D01*
X148705142Y-96698826D01*
X148681250Y-96700000D01*
X148193750Y-96700000D01*
X148169858Y-96698826D01*
X148146197Y-96695316D01*
X148122993Y-96689504D01*
X148100471Y-96681446D01*
X148078847Y-96671218D01*
X148058330Y-96658921D01*
X148039117Y-96644671D01*
X148021393Y-96628607D01*
X148005329Y-96610883D01*
X147991079Y-96591670D01*
X147978782Y-96571153D01*
X147968554Y-96549529D01*
X147960496Y-96527007D01*
X147954684Y-96503803D01*
X147951174Y-96480142D01*
X147950000Y-96456250D01*
X147950000Y-95543750D01*
X147951174Y-95519858D01*
X147954684Y-95496197D01*
X147960496Y-95472993D01*
X147968554Y-95450471D01*
X147978782Y-95428847D01*
X147991079Y-95408330D01*
X148005329Y-95389117D01*
X148021393Y-95371393D01*
X148039117Y-95355329D01*
X148058330Y-95341079D01*
X148078847Y-95328782D01*
X148100471Y-95318554D01*
X148122993Y-95310496D01*
X148146197Y-95304684D01*
X148169858Y-95301174D01*
X148193750Y-95300000D01*
X148681250Y-95300000D01*
X148705142Y-95301174D01*
X148705142Y-95301174D01*
G37*
D29*
X148437500Y-96000000D03*
D28*
G36*
X146830142Y-95301174D02*
G01*
X146853803Y-95304684D01*
X146877007Y-95310496D01*
X146899529Y-95318554D01*
X146921153Y-95328782D01*
X146941670Y-95341079D01*
X146960883Y-95355329D01*
X146978607Y-95371393D01*
X146994671Y-95389117D01*
X147008921Y-95408330D01*
X147021218Y-95428847D01*
X147031446Y-95450471D01*
X147039504Y-95472993D01*
X147045316Y-95496197D01*
X147048826Y-95519858D01*
X147050000Y-95543750D01*
X147050000Y-96456250D01*
X147048826Y-96480142D01*
X147045316Y-96503803D01*
X147039504Y-96527007D01*
X147031446Y-96549529D01*
X147021218Y-96571153D01*
X147008921Y-96591670D01*
X146994671Y-96610883D01*
X146978607Y-96628607D01*
X146960883Y-96644671D01*
X146941670Y-96658921D01*
X146921153Y-96671218D01*
X146899529Y-96681446D01*
X146877007Y-96689504D01*
X146853803Y-96695316D01*
X146830142Y-96698826D01*
X146806250Y-96700000D01*
X146318750Y-96700000D01*
X146294858Y-96698826D01*
X146271197Y-96695316D01*
X146247993Y-96689504D01*
X146225471Y-96681446D01*
X146203847Y-96671218D01*
X146183330Y-96658921D01*
X146164117Y-96644671D01*
X146146393Y-96628607D01*
X146130329Y-96610883D01*
X146116079Y-96591670D01*
X146103782Y-96571153D01*
X146093554Y-96549529D01*
X146085496Y-96527007D01*
X146079684Y-96503803D01*
X146076174Y-96480142D01*
X146075000Y-96456250D01*
X146075000Y-95543750D01*
X146076174Y-95519858D01*
X146079684Y-95496197D01*
X146085496Y-95472993D01*
X146093554Y-95450471D01*
X146103782Y-95428847D01*
X146116079Y-95408330D01*
X146130329Y-95389117D01*
X146146393Y-95371393D01*
X146164117Y-95355329D01*
X146183330Y-95341079D01*
X146203847Y-95328782D01*
X146225471Y-95318554D01*
X146247993Y-95310496D01*
X146271197Y-95304684D01*
X146294858Y-95301174D01*
X146318750Y-95300000D01*
X146806250Y-95300000D01*
X146830142Y-95301174D01*
X146830142Y-95301174D01*
G37*
D29*
X146562500Y-96000000D03*
D28*
G36*
X138205142Y-95301174D02*
G01*
X138228803Y-95304684D01*
X138252007Y-95310496D01*
X138274529Y-95318554D01*
X138296153Y-95328782D01*
X138316670Y-95341079D01*
X138335883Y-95355329D01*
X138353607Y-95371393D01*
X138369671Y-95389117D01*
X138383921Y-95408330D01*
X138396218Y-95428847D01*
X138406446Y-95450471D01*
X138414504Y-95472993D01*
X138420316Y-95496197D01*
X138423826Y-95519858D01*
X138425000Y-95543750D01*
X138425000Y-96456250D01*
X138423826Y-96480142D01*
X138420316Y-96503803D01*
X138414504Y-96527007D01*
X138406446Y-96549529D01*
X138396218Y-96571153D01*
X138383921Y-96591670D01*
X138369671Y-96610883D01*
X138353607Y-96628607D01*
X138335883Y-96644671D01*
X138316670Y-96658921D01*
X138296153Y-96671218D01*
X138274529Y-96681446D01*
X138252007Y-96689504D01*
X138228803Y-96695316D01*
X138205142Y-96698826D01*
X138181250Y-96700000D01*
X137693750Y-96700000D01*
X137669858Y-96698826D01*
X137646197Y-96695316D01*
X137622993Y-96689504D01*
X137600471Y-96681446D01*
X137578847Y-96671218D01*
X137558330Y-96658921D01*
X137539117Y-96644671D01*
X137521393Y-96628607D01*
X137505329Y-96610883D01*
X137491079Y-96591670D01*
X137478782Y-96571153D01*
X137468554Y-96549529D01*
X137460496Y-96527007D01*
X137454684Y-96503803D01*
X137451174Y-96480142D01*
X137450000Y-96456250D01*
X137450000Y-95543750D01*
X137451174Y-95519858D01*
X137454684Y-95496197D01*
X137460496Y-95472993D01*
X137468554Y-95450471D01*
X137478782Y-95428847D01*
X137491079Y-95408330D01*
X137505329Y-95389117D01*
X137521393Y-95371393D01*
X137539117Y-95355329D01*
X137558330Y-95341079D01*
X137578847Y-95328782D01*
X137600471Y-95318554D01*
X137622993Y-95310496D01*
X137646197Y-95304684D01*
X137669858Y-95301174D01*
X137693750Y-95300000D01*
X138181250Y-95300000D01*
X138205142Y-95301174D01*
X138205142Y-95301174D01*
G37*
D29*
X137937500Y-96000000D03*
D28*
G36*
X136330142Y-95301174D02*
G01*
X136353803Y-95304684D01*
X136377007Y-95310496D01*
X136399529Y-95318554D01*
X136421153Y-95328782D01*
X136441670Y-95341079D01*
X136460883Y-95355329D01*
X136478607Y-95371393D01*
X136494671Y-95389117D01*
X136508921Y-95408330D01*
X136521218Y-95428847D01*
X136531446Y-95450471D01*
X136539504Y-95472993D01*
X136545316Y-95496197D01*
X136548826Y-95519858D01*
X136550000Y-95543750D01*
X136550000Y-96456250D01*
X136548826Y-96480142D01*
X136545316Y-96503803D01*
X136539504Y-96527007D01*
X136531446Y-96549529D01*
X136521218Y-96571153D01*
X136508921Y-96591670D01*
X136494671Y-96610883D01*
X136478607Y-96628607D01*
X136460883Y-96644671D01*
X136441670Y-96658921D01*
X136421153Y-96671218D01*
X136399529Y-96681446D01*
X136377007Y-96689504D01*
X136353803Y-96695316D01*
X136330142Y-96698826D01*
X136306250Y-96700000D01*
X135818750Y-96700000D01*
X135794858Y-96698826D01*
X135771197Y-96695316D01*
X135747993Y-96689504D01*
X135725471Y-96681446D01*
X135703847Y-96671218D01*
X135683330Y-96658921D01*
X135664117Y-96644671D01*
X135646393Y-96628607D01*
X135630329Y-96610883D01*
X135616079Y-96591670D01*
X135603782Y-96571153D01*
X135593554Y-96549529D01*
X135585496Y-96527007D01*
X135579684Y-96503803D01*
X135576174Y-96480142D01*
X135575000Y-96456250D01*
X135575000Y-95543750D01*
X135576174Y-95519858D01*
X135579684Y-95496197D01*
X135585496Y-95472993D01*
X135593554Y-95450471D01*
X135603782Y-95428847D01*
X135616079Y-95408330D01*
X135630329Y-95389117D01*
X135646393Y-95371393D01*
X135664117Y-95355329D01*
X135683330Y-95341079D01*
X135703847Y-95328782D01*
X135725471Y-95318554D01*
X135747993Y-95310496D01*
X135771197Y-95304684D01*
X135794858Y-95301174D01*
X135818750Y-95300000D01*
X136306250Y-95300000D01*
X136330142Y-95301174D01*
X136330142Y-95301174D01*
G37*
D29*
X136062500Y-96000000D03*
D28*
G36*
X145205142Y-95301174D02*
G01*
X145228803Y-95304684D01*
X145252007Y-95310496D01*
X145274529Y-95318554D01*
X145296153Y-95328782D01*
X145316670Y-95341079D01*
X145335883Y-95355329D01*
X145353607Y-95371393D01*
X145369671Y-95389117D01*
X145383921Y-95408330D01*
X145396218Y-95428847D01*
X145406446Y-95450471D01*
X145414504Y-95472993D01*
X145420316Y-95496197D01*
X145423826Y-95519858D01*
X145425000Y-95543750D01*
X145425000Y-96456250D01*
X145423826Y-96480142D01*
X145420316Y-96503803D01*
X145414504Y-96527007D01*
X145406446Y-96549529D01*
X145396218Y-96571153D01*
X145383921Y-96591670D01*
X145369671Y-96610883D01*
X145353607Y-96628607D01*
X145335883Y-96644671D01*
X145316670Y-96658921D01*
X145296153Y-96671218D01*
X145274529Y-96681446D01*
X145252007Y-96689504D01*
X145228803Y-96695316D01*
X145205142Y-96698826D01*
X145181250Y-96700000D01*
X144693750Y-96700000D01*
X144669858Y-96698826D01*
X144646197Y-96695316D01*
X144622993Y-96689504D01*
X144600471Y-96681446D01*
X144578847Y-96671218D01*
X144558330Y-96658921D01*
X144539117Y-96644671D01*
X144521393Y-96628607D01*
X144505329Y-96610883D01*
X144491079Y-96591670D01*
X144478782Y-96571153D01*
X144468554Y-96549529D01*
X144460496Y-96527007D01*
X144454684Y-96503803D01*
X144451174Y-96480142D01*
X144450000Y-96456250D01*
X144450000Y-95543750D01*
X144451174Y-95519858D01*
X144454684Y-95496197D01*
X144460496Y-95472993D01*
X144468554Y-95450471D01*
X144478782Y-95428847D01*
X144491079Y-95408330D01*
X144505329Y-95389117D01*
X144521393Y-95371393D01*
X144539117Y-95355329D01*
X144558330Y-95341079D01*
X144578847Y-95328782D01*
X144600471Y-95318554D01*
X144622993Y-95310496D01*
X144646197Y-95304684D01*
X144669858Y-95301174D01*
X144693750Y-95300000D01*
X145181250Y-95300000D01*
X145205142Y-95301174D01*
X145205142Y-95301174D01*
G37*
D29*
X144937500Y-96000000D03*
D28*
G36*
X143330142Y-95301174D02*
G01*
X143353803Y-95304684D01*
X143377007Y-95310496D01*
X143399529Y-95318554D01*
X143421153Y-95328782D01*
X143441670Y-95341079D01*
X143460883Y-95355329D01*
X143478607Y-95371393D01*
X143494671Y-95389117D01*
X143508921Y-95408330D01*
X143521218Y-95428847D01*
X143531446Y-95450471D01*
X143539504Y-95472993D01*
X143545316Y-95496197D01*
X143548826Y-95519858D01*
X143550000Y-95543750D01*
X143550000Y-96456250D01*
X143548826Y-96480142D01*
X143545316Y-96503803D01*
X143539504Y-96527007D01*
X143531446Y-96549529D01*
X143521218Y-96571153D01*
X143508921Y-96591670D01*
X143494671Y-96610883D01*
X143478607Y-96628607D01*
X143460883Y-96644671D01*
X143441670Y-96658921D01*
X143421153Y-96671218D01*
X143399529Y-96681446D01*
X143377007Y-96689504D01*
X143353803Y-96695316D01*
X143330142Y-96698826D01*
X143306250Y-96700000D01*
X142818750Y-96700000D01*
X142794858Y-96698826D01*
X142771197Y-96695316D01*
X142747993Y-96689504D01*
X142725471Y-96681446D01*
X142703847Y-96671218D01*
X142683330Y-96658921D01*
X142664117Y-96644671D01*
X142646393Y-96628607D01*
X142630329Y-96610883D01*
X142616079Y-96591670D01*
X142603782Y-96571153D01*
X142593554Y-96549529D01*
X142585496Y-96527007D01*
X142579684Y-96503803D01*
X142576174Y-96480142D01*
X142575000Y-96456250D01*
X142575000Y-95543750D01*
X142576174Y-95519858D01*
X142579684Y-95496197D01*
X142585496Y-95472993D01*
X142593554Y-95450471D01*
X142603782Y-95428847D01*
X142616079Y-95408330D01*
X142630329Y-95389117D01*
X142646393Y-95371393D01*
X142664117Y-95355329D01*
X142683330Y-95341079D01*
X142703847Y-95328782D01*
X142725471Y-95318554D01*
X142747993Y-95310496D01*
X142771197Y-95304684D01*
X142794858Y-95301174D01*
X142818750Y-95300000D01*
X143306250Y-95300000D01*
X143330142Y-95301174D01*
X143330142Y-95301174D01*
G37*
D29*
X143062500Y-96000000D03*
D28*
G36*
X134705142Y-95301174D02*
G01*
X134728803Y-95304684D01*
X134752007Y-95310496D01*
X134774529Y-95318554D01*
X134796153Y-95328782D01*
X134816670Y-95341079D01*
X134835883Y-95355329D01*
X134853607Y-95371393D01*
X134869671Y-95389117D01*
X134883921Y-95408330D01*
X134896218Y-95428847D01*
X134906446Y-95450471D01*
X134914504Y-95472993D01*
X134920316Y-95496197D01*
X134923826Y-95519858D01*
X134925000Y-95543750D01*
X134925000Y-96456250D01*
X134923826Y-96480142D01*
X134920316Y-96503803D01*
X134914504Y-96527007D01*
X134906446Y-96549529D01*
X134896218Y-96571153D01*
X134883921Y-96591670D01*
X134869671Y-96610883D01*
X134853607Y-96628607D01*
X134835883Y-96644671D01*
X134816670Y-96658921D01*
X134796153Y-96671218D01*
X134774529Y-96681446D01*
X134752007Y-96689504D01*
X134728803Y-96695316D01*
X134705142Y-96698826D01*
X134681250Y-96700000D01*
X134193750Y-96700000D01*
X134169858Y-96698826D01*
X134146197Y-96695316D01*
X134122993Y-96689504D01*
X134100471Y-96681446D01*
X134078847Y-96671218D01*
X134058330Y-96658921D01*
X134039117Y-96644671D01*
X134021393Y-96628607D01*
X134005329Y-96610883D01*
X133991079Y-96591670D01*
X133978782Y-96571153D01*
X133968554Y-96549529D01*
X133960496Y-96527007D01*
X133954684Y-96503803D01*
X133951174Y-96480142D01*
X133950000Y-96456250D01*
X133950000Y-95543750D01*
X133951174Y-95519858D01*
X133954684Y-95496197D01*
X133960496Y-95472993D01*
X133968554Y-95450471D01*
X133978782Y-95428847D01*
X133991079Y-95408330D01*
X134005329Y-95389117D01*
X134021393Y-95371393D01*
X134039117Y-95355329D01*
X134058330Y-95341079D01*
X134078847Y-95328782D01*
X134100471Y-95318554D01*
X134122993Y-95310496D01*
X134146197Y-95304684D01*
X134169858Y-95301174D01*
X134193750Y-95300000D01*
X134681250Y-95300000D01*
X134705142Y-95301174D01*
X134705142Y-95301174D01*
G37*
D29*
X134437500Y-96000000D03*
D28*
G36*
X132830142Y-95301174D02*
G01*
X132853803Y-95304684D01*
X132877007Y-95310496D01*
X132899529Y-95318554D01*
X132921153Y-95328782D01*
X132941670Y-95341079D01*
X132960883Y-95355329D01*
X132978607Y-95371393D01*
X132994671Y-95389117D01*
X133008921Y-95408330D01*
X133021218Y-95428847D01*
X133031446Y-95450471D01*
X133039504Y-95472993D01*
X133045316Y-95496197D01*
X133048826Y-95519858D01*
X133050000Y-95543750D01*
X133050000Y-96456250D01*
X133048826Y-96480142D01*
X133045316Y-96503803D01*
X133039504Y-96527007D01*
X133031446Y-96549529D01*
X133021218Y-96571153D01*
X133008921Y-96591670D01*
X132994671Y-96610883D01*
X132978607Y-96628607D01*
X132960883Y-96644671D01*
X132941670Y-96658921D01*
X132921153Y-96671218D01*
X132899529Y-96681446D01*
X132877007Y-96689504D01*
X132853803Y-96695316D01*
X132830142Y-96698826D01*
X132806250Y-96700000D01*
X132318750Y-96700000D01*
X132294858Y-96698826D01*
X132271197Y-96695316D01*
X132247993Y-96689504D01*
X132225471Y-96681446D01*
X132203847Y-96671218D01*
X132183330Y-96658921D01*
X132164117Y-96644671D01*
X132146393Y-96628607D01*
X132130329Y-96610883D01*
X132116079Y-96591670D01*
X132103782Y-96571153D01*
X132093554Y-96549529D01*
X132085496Y-96527007D01*
X132079684Y-96503803D01*
X132076174Y-96480142D01*
X132075000Y-96456250D01*
X132075000Y-95543750D01*
X132076174Y-95519858D01*
X132079684Y-95496197D01*
X132085496Y-95472993D01*
X132093554Y-95450471D01*
X132103782Y-95428847D01*
X132116079Y-95408330D01*
X132130329Y-95389117D01*
X132146393Y-95371393D01*
X132164117Y-95355329D01*
X132183330Y-95341079D01*
X132203847Y-95328782D01*
X132225471Y-95318554D01*
X132247993Y-95310496D01*
X132271197Y-95304684D01*
X132294858Y-95301174D01*
X132318750Y-95300000D01*
X132806250Y-95300000D01*
X132830142Y-95301174D01*
X132830142Y-95301174D01*
G37*
D29*
X132562500Y-96000000D03*
D28*
G36*
X141705142Y-95301174D02*
G01*
X141728803Y-95304684D01*
X141752007Y-95310496D01*
X141774529Y-95318554D01*
X141796153Y-95328782D01*
X141816670Y-95341079D01*
X141835883Y-95355329D01*
X141853607Y-95371393D01*
X141869671Y-95389117D01*
X141883921Y-95408330D01*
X141896218Y-95428847D01*
X141906446Y-95450471D01*
X141914504Y-95472993D01*
X141920316Y-95496197D01*
X141923826Y-95519858D01*
X141925000Y-95543750D01*
X141925000Y-96456250D01*
X141923826Y-96480142D01*
X141920316Y-96503803D01*
X141914504Y-96527007D01*
X141906446Y-96549529D01*
X141896218Y-96571153D01*
X141883921Y-96591670D01*
X141869671Y-96610883D01*
X141853607Y-96628607D01*
X141835883Y-96644671D01*
X141816670Y-96658921D01*
X141796153Y-96671218D01*
X141774529Y-96681446D01*
X141752007Y-96689504D01*
X141728803Y-96695316D01*
X141705142Y-96698826D01*
X141681250Y-96700000D01*
X141193750Y-96700000D01*
X141169858Y-96698826D01*
X141146197Y-96695316D01*
X141122993Y-96689504D01*
X141100471Y-96681446D01*
X141078847Y-96671218D01*
X141058330Y-96658921D01*
X141039117Y-96644671D01*
X141021393Y-96628607D01*
X141005329Y-96610883D01*
X140991079Y-96591670D01*
X140978782Y-96571153D01*
X140968554Y-96549529D01*
X140960496Y-96527007D01*
X140954684Y-96503803D01*
X140951174Y-96480142D01*
X140950000Y-96456250D01*
X140950000Y-95543750D01*
X140951174Y-95519858D01*
X140954684Y-95496197D01*
X140960496Y-95472993D01*
X140968554Y-95450471D01*
X140978782Y-95428847D01*
X140991079Y-95408330D01*
X141005329Y-95389117D01*
X141021393Y-95371393D01*
X141039117Y-95355329D01*
X141058330Y-95341079D01*
X141078847Y-95328782D01*
X141100471Y-95318554D01*
X141122993Y-95310496D01*
X141146197Y-95304684D01*
X141169858Y-95301174D01*
X141193750Y-95300000D01*
X141681250Y-95300000D01*
X141705142Y-95301174D01*
X141705142Y-95301174D01*
G37*
D29*
X141437500Y-96000000D03*
D28*
G36*
X139830142Y-95301174D02*
G01*
X139853803Y-95304684D01*
X139877007Y-95310496D01*
X139899529Y-95318554D01*
X139921153Y-95328782D01*
X139941670Y-95341079D01*
X139960883Y-95355329D01*
X139978607Y-95371393D01*
X139994671Y-95389117D01*
X140008921Y-95408330D01*
X140021218Y-95428847D01*
X140031446Y-95450471D01*
X140039504Y-95472993D01*
X140045316Y-95496197D01*
X140048826Y-95519858D01*
X140050000Y-95543750D01*
X140050000Y-96456250D01*
X140048826Y-96480142D01*
X140045316Y-96503803D01*
X140039504Y-96527007D01*
X140031446Y-96549529D01*
X140021218Y-96571153D01*
X140008921Y-96591670D01*
X139994671Y-96610883D01*
X139978607Y-96628607D01*
X139960883Y-96644671D01*
X139941670Y-96658921D01*
X139921153Y-96671218D01*
X139899529Y-96681446D01*
X139877007Y-96689504D01*
X139853803Y-96695316D01*
X139830142Y-96698826D01*
X139806250Y-96700000D01*
X139318750Y-96700000D01*
X139294858Y-96698826D01*
X139271197Y-96695316D01*
X139247993Y-96689504D01*
X139225471Y-96681446D01*
X139203847Y-96671218D01*
X139183330Y-96658921D01*
X139164117Y-96644671D01*
X139146393Y-96628607D01*
X139130329Y-96610883D01*
X139116079Y-96591670D01*
X139103782Y-96571153D01*
X139093554Y-96549529D01*
X139085496Y-96527007D01*
X139079684Y-96503803D01*
X139076174Y-96480142D01*
X139075000Y-96456250D01*
X139075000Y-95543750D01*
X139076174Y-95519858D01*
X139079684Y-95496197D01*
X139085496Y-95472993D01*
X139093554Y-95450471D01*
X139103782Y-95428847D01*
X139116079Y-95408330D01*
X139130329Y-95389117D01*
X139146393Y-95371393D01*
X139164117Y-95355329D01*
X139183330Y-95341079D01*
X139203847Y-95328782D01*
X139225471Y-95318554D01*
X139247993Y-95310496D01*
X139271197Y-95304684D01*
X139294858Y-95301174D01*
X139318750Y-95300000D01*
X139806250Y-95300000D01*
X139830142Y-95301174D01*
X139830142Y-95301174D01*
G37*
D29*
X139562500Y-96000000D03*
D21*
X130000000Y-108720000D03*
X127460000Y-101100000D03*
X127460000Y-108720000D03*
D22*
X130000000Y-101100000D03*
D14*
X149000000Y-52420000D03*
X149000000Y-54960000D03*
D15*
X149000000Y-57500000D03*
D30*
X137400000Y-73500000D03*
X132500000Y-73500000D03*
D31*
X148500000Y-73500000D03*
D30*
X143420000Y-73500000D03*
X145960000Y-73500000D03*
D21*
X152500000Y-108720000D03*
X149960000Y-101100000D03*
X149960000Y-108720000D03*
D22*
X152500000Y-101100000D03*
D21*
X145000000Y-108720000D03*
X142460000Y-101100000D03*
X142460000Y-108720000D03*
D22*
X145000000Y-101100000D03*
D21*
X137500000Y-108720000D03*
X134960000Y-101100000D03*
X134960000Y-108720000D03*
D22*
X137500000Y-101100000D03*
D21*
X166500000Y-89120000D03*
X133480000Y-81500000D03*
X163960000Y-89120000D03*
X136020000Y-81500000D03*
X161420000Y-89120000D03*
X138560000Y-81500000D03*
X158880000Y-89120000D03*
X141100000Y-81500000D03*
X156340000Y-89120000D03*
X143640000Y-81500000D03*
X153800000Y-89120000D03*
X146180000Y-81500000D03*
X151260000Y-89120000D03*
X148720000Y-81500000D03*
X148720000Y-89120000D03*
X151260000Y-81500000D03*
X146180000Y-89120000D03*
X153800000Y-81500000D03*
X143640000Y-89120000D03*
X156340000Y-81500000D03*
X141100000Y-89120000D03*
X158880000Y-81500000D03*
X138560000Y-89120000D03*
X161420000Y-81500000D03*
X136020000Y-89120000D03*
X163960000Y-81500000D03*
X133480000Y-89120000D03*
D22*
X166500000Y-81500000D03*
D32*
X127000000Y-59580000D03*
X127000000Y-57040000D03*
D33*
X127000000Y-54500000D03*
D34*
X196000000Y-111000000D03*
X196000000Y-106000000D03*
X196000000Y-101000000D03*
D10*
X188000000Y-53500000D03*
X188000000Y-58000000D03*
X181500000Y-53500000D03*
X181500000Y-58000000D03*
D23*
X167840000Y-52000000D03*
D13*
X178000000Y-52000000D03*
D23*
X142340000Y-120500000D03*
D13*
X152500000Y-120500000D03*
D23*
X142340000Y-116500000D03*
D13*
X152500000Y-116500000D03*
D23*
X123000000Y-114160000D03*
D13*
X123000000Y-104000000D03*
D23*
X119500000Y-114160000D03*
D13*
X119500000Y-104000000D03*
D23*
X116000000Y-114160000D03*
D13*
X116000000Y-104000000D03*
D23*
X112500000Y-114160000D03*
D13*
X112500000Y-104000000D03*
D23*
X128340000Y-116500000D03*
D13*
X138500000Y-116500000D03*
D23*
X128340000Y-120500000D03*
D13*
X138500000Y-120500000D03*
D34*
X196000000Y-92500000D03*
X196000000Y-87500000D03*
X196000000Y-82500000D03*
D14*
X164660000Y-54500000D03*
X162120000Y-54500000D03*
X159580000Y-54500000D03*
X157040000Y-54500000D03*
D15*
X154500000Y-54500000D03*
D10*
X108000000Y-83500000D03*
X103500000Y-83500000D03*
X108000000Y-77000000D03*
X103500000Y-77000000D03*
D23*
X115000000Y-85660000D03*
D13*
X115000000Y-75500000D03*
D34*
X196000000Y-74000000D03*
X196000000Y-69000000D03*
X196000000Y-64000000D03*
D14*
X153560000Y-64000000D03*
X156100000Y-64000000D03*
X158640000Y-64000000D03*
X161180000Y-64000000D03*
X163720000Y-64000000D03*
X166260000Y-64000000D03*
X168800000Y-64000000D03*
X171340000Y-64000000D03*
X173880000Y-64000000D03*
X176420000Y-64000000D03*
X178960000Y-64000000D03*
D15*
X181500000Y-64000000D03*
D35*
X175580000Y-57000000D03*
X173040000Y-57000000D03*
X170500000Y-57000000D03*
D10*
X108000000Y-93500000D03*
X103500000Y-93500000D03*
X108000000Y-87000000D03*
X103500000Y-87000000D03*
D23*
X122000000Y-85660000D03*
D13*
X122000000Y-75500000D03*
D23*
X115000000Y-88840000D03*
D13*
X115000000Y-99000000D03*
D10*
X108000000Y-113500000D03*
X103500000Y-113500000D03*
X108000000Y-107000000D03*
X103500000Y-107000000D03*
D23*
X122000000Y-88840000D03*
D13*
X122000000Y-99000000D03*
D36*
X123000000Y-133340000D03*
D37*
X123000000Y-118100000D03*
D36*
X116500000Y-133330000D03*
D37*
X116500000Y-118090000D03*
D36*
X110000000Y-133330000D03*
D37*
X110000000Y-118090000D03*
D36*
X103500000Y-133330000D03*
D37*
X103500000Y-118090000D03*
D26*
X124660000Y-68500000D03*
D27*
X114500000Y-68500000D03*
D26*
X115000000Y-63660000D03*
D27*
X115000000Y-53500000D03*
D13*
X137000000Y-69000000D03*
X137000000Y-66500000D03*
X133000000Y-69000000D03*
X133000000Y-66500000D03*
X121000000Y-61000000D03*
D38*
X121000000Y-63500000D03*
D13*
X121000000Y-56000000D03*
D38*
X121000000Y-53500000D03*
D10*
X182600000Y-84000000D03*
D39*
X175000000Y-84000000D03*
D40*
X151400000Y-72548200D03*
X136915300Y-75682400D03*
X169961600Y-66005600D03*
X150423700Y-77963700D03*
X122231200Y-121079900D03*
D41*
X149834900Y-95665900D02*
X148992300Y-94823400D01*
X148992300Y-94823400D02*
X147649400Y-94823400D01*
X147649400Y-94823400D02*
X146562500Y-95910300D01*
X150062500Y-96000000D02*
X150062500Y-95893600D01*
X150062500Y-95893600D02*
X149834900Y-95665900D01*
X148720000Y-83150300D02*
X150060900Y-83150300D01*
X150060900Y-83150300D02*
X155070000Y-88159400D01*
X155070000Y-88159400D02*
X155070000Y-90430800D01*
X155070000Y-90430800D02*
X149834900Y-95665900D01*
X146562500Y-95910300D02*
X146562500Y-96000000D01*
X143187500Y-96045100D02*
X144383900Y-94848700D01*
X144383900Y-94848700D02*
X145500900Y-94848700D01*
X145500900Y-94848700D02*
X146562500Y-95910300D01*
X148720000Y-81500000D02*
X148720000Y-83150300D01*
X143062500Y-96000000D02*
X143062500Y-95920100D01*
X143062500Y-95920100D02*
X141965800Y-94823400D01*
X141965800Y-94823400D02*
X140649400Y-94823400D01*
X140649400Y-94823400D02*
X139562500Y-95910300D01*
X143187500Y-96045100D02*
X143107600Y-96045100D01*
X143107600Y-96045100D02*
X143062500Y-96000000D01*
X139562500Y-95910300D02*
X139562500Y-96000000D01*
X136062500Y-96000000D02*
X137213800Y-94848700D01*
X137213800Y-94848700D02*
X138500900Y-94848700D01*
X138500900Y-94848700D02*
X139562500Y-95910300D01*
X156041800Y-110380300D02*
X156041800Y-109683800D01*
X156041800Y-109683800D02*
X152580600Y-106222600D01*
X152580600Y-106222600D02*
X148568500Y-106222600D01*
X148568500Y-106222600D02*
X147512600Y-105166700D01*
X147512600Y-105166700D02*
X147512600Y-100370200D01*
X147512600Y-100370200D02*
X143187500Y-96045100D01*
X152500000Y-116500000D02*
X156041800Y-112958200D01*
X156041800Y-112958200D02*
X156041800Y-110380300D01*
X172274700Y-109405000D02*
X171299400Y-110380300D01*
X171299400Y-110380300D02*
X156041800Y-110380300D01*
X153560000Y-64000000D02*
X139500000Y-64000000D01*
X139500000Y-64000000D02*
X137000000Y-66500000D01*
X173250000Y-109405000D02*
X172274700Y-109405000D01*
X194352700Y-84000000D02*
X194500000Y-84000000D01*
X194500000Y-84000000D02*
X196000000Y-82500000D01*
X182600000Y-84000000D02*
X194352700Y-84000000D01*
X194352700Y-84000000D02*
X194352700Y-99352700D01*
X194352700Y-99352700D02*
X196000000Y-101000000D01*
X121000000Y-57040000D02*
X121000000Y-56000000D01*
X121000000Y-61000000D02*
X121000000Y-57040000D01*
X121000000Y-57040000D02*
X125549700Y-57040000D01*
X127000000Y-57040000D02*
X125549700Y-57040000D01*
X109250300Y-61700000D02*
X109950300Y-61000000D01*
X109950300Y-61000000D02*
X121000000Y-61000000D01*
X122000000Y-85660000D02*
X122000000Y-84409700D01*
X124660000Y-68500000D02*
X124660000Y-81749700D01*
X124660000Y-81749700D02*
X122000000Y-84409700D01*
X188000000Y-53500000D02*
X196000000Y-61500000D01*
X196000000Y-61500000D02*
X196000000Y-64000000D01*
X181500000Y-53500000D02*
X188000000Y-53500000D01*
X132562500Y-96000000D02*
X133713800Y-97151300D01*
X133713800Y-97151300D02*
X135017600Y-97151300D01*
X135017600Y-97151300D02*
X136062500Y-96106400D01*
X136062500Y-96106400D02*
X136062500Y-96000000D01*
X137000000Y-66500000D02*
X133000000Y-66500000D01*
X115000000Y-88840000D02*
X115000000Y-86910300D01*
X115000000Y-85660000D02*
X115000000Y-86910300D01*
X138500000Y-120500000D02*
X138500000Y-120751900D01*
X138500000Y-120751900D02*
X143350100Y-125602000D01*
X143350100Y-125602000D02*
X143350100Y-125995800D01*
X143350100Y-125995800D02*
X150854300Y-133500000D01*
X150854300Y-133500000D02*
X151080000Y-133500000D01*
X169540300Y-70500000D02*
X172340000Y-70500000D01*
X138500000Y-116500000D02*
X141033100Y-113966900D01*
X141033100Y-113966900D02*
X143533100Y-113966900D01*
X143533100Y-113966900D02*
X145000000Y-112500000D01*
X130000000Y-112500000D02*
X134500000Y-112500000D01*
X145000000Y-112500000D02*
X149500000Y-112500000D01*
X181500000Y-64000000D02*
X179104700Y-66395300D01*
X179104700Y-66395300D02*
X176444700Y-66395300D01*
X176444700Y-66395300D02*
X172340000Y-70500000D01*
X168240000Y-70500000D02*
X169540300Y-70500000D01*
X137080000Y-133500000D02*
X137080000Y-126000000D01*
X107500000Y-61700000D02*
X109250300Y-61700000D01*
D42*
X152500000Y-120500000D02*
X152500000Y-116500000D01*
X151080000Y-121920000D02*
X152500000Y-120500000D01*
X151080000Y-126000000D02*
X151080000Y-121920000D01*
D43*
X134000000Y-141000000D02*
X134000000Y-141095500D01*
X134000000Y-141095500D02*
X131045100Y-144050400D01*
X131045100Y-144050400D02*
X126550400Y-144050400D01*
X126550400Y-144050400D02*
X123500000Y-141000000D01*
X116500000Y-118090000D02*
X110000000Y-118090000D01*
X119649700Y-118100000D02*
X119639700Y-118090000D01*
X119639700Y-118090000D02*
X116500000Y-118090000D01*
X110000000Y-118090000D02*
X103500000Y-118090000D01*
X144500000Y-141000000D02*
X144500000Y-137949700D01*
X144500000Y-137949700D02*
X141449700Y-134899400D01*
X141449700Y-134899400D02*
X141449700Y-126489600D01*
X141449700Y-126489600D02*
X138043800Y-123083700D01*
X138043800Y-123083700D02*
X127303300Y-123083700D01*
X127303300Y-123083700D02*
X123000000Y-118780400D01*
X123000000Y-118780400D02*
X123000000Y-118100000D01*
X113500000Y-141000000D02*
X116550400Y-144050400D01*
X116550400Y-144050400D02*
X120449600Y-144050400D01*
X120449600Y-144050400D02*
X123500000Y-141000000D01*
X123000000Y-118100000D02*
X119649700Y-118100000D01*
D44*
X126335000Y-53835000D02*
X127000000Y-54500000D01*
D43*
X123132100Y-53500000D02*
X126000000Y-53500000D01*
X126000000Y-53500000D02*
X126335000Y-53835000D01*
D45*
X123132100Y-53500000D02*
X121000000Y-53500000D01*
D41*
X165700000Y-71800300D02*
X151854600Y-71800300D01*
X151854600Y-71800300D02*
X151752200Y-71697900D01*
X151752200Y-71697900D02*
X151047900Y-71697900D01*
X151047900Y-71697900D02*
X149700300Y-73045500D01*
X149700300Y-73045500D02*
X149700300Y-73500000D01*
X185250000Y-113300000D02*
X186800300Y-113300000D01*
X196000000Y-111000000D02*
X189100300Y-111000000D01*
X189100300Y-111000000D02*
X186800300Y-113300000D01*
X145000000Y-107069700D02*
X152500000Y-107069700D01*
X127000000Y-59580000D02*
X127000000Y-60982800D01*
X121000000Y-63500000D02*
X124482800Y-63500000D01*
X124482800Y-63500000D02*
X127000000Y-60982800D01*
X116550300Y-63660000D02*
X116710300Y-63500000D01*
X116710300Y-63500000D02*
X121000000Y-63500000D01*
X146180000Y-89120000D02*
X146180000Y-87469700D01*
X149100200Y-73500000D02*
X147469600Y-75130600D01*
X147469600Y-75130600D02*
X147469600Y-86180100D01*
X147469600Y-86180100D02*
X146180000Y-87469700D01*
X149100200Y-73500000D02*
X149700300Y-73500000D01*
X148500000Y-73500000D02*
X149100200Y-73500000D01*
X169450000Y-119450000D02*
X171452200Y-121452200D01*
X171452200Y-121452200D02*
X184454800Y-121452200D01*
X184454800Y-121452200D02*
X185950000Y-119957000D01*
X185950000Y-119957000D02*
X185950000Y-119450000D01*
X174880000Y-70500000D02*
X173579700Y-71800300D01*
X173579700Y-71800300D02*
X165700000Y-71800300D01*
X165700000Y-70500000D02*
X165700000Y-71800300D01*
X130000000Y-108720000D02*
X130000000Y-107069700D01*
X137500000Y-107069700D02*
X130000000Y-107069700D01*
X145000000Y-107069700D02*
X137500000Y-107069700D01*
X152500000Y-108720000D02*
X152500000Y-107069700D01*
X145000000Y-108720000D02*
X145000000Y-107069700D01*
X137500000Y-108720000D02*
X137500000Y-107069700D01*
X114500000Y-68500000D02*
X112949700Y-68500000D01*
X103500000Y-77000000D02*
X104958400Y-77000000D01*
X104958400Y-77000000D02*
X112949700Y-69008700D01*
X112949700Y-69008700D02*
X112949700Y-68500000D01*
X115000000Y-63660000D02*
X116550300Y-63660000D01*
D42*
X169450000Y-113950000D02*
X168750000Y-113250000D01*
X169450000Y-119450000D02*
X169450000Y-113950000D01*
X185950000Y-114000000D02*
X185250000Y-113300000D01*
X185950000Y-119450000D02*
X185950000Y-114000000D01*
X103500000Y-113500000D02*
X103500000Y-107000000D01*
X114500000Y-64160000D02*
X115000000Y-63660000D01*
X114500000Y-68500000D02*
X114500000Y-64160000D01*
D41*
X122000000Y-99000000D02*
X126802300Y-94197700D01*
X126802300Y-94197700D02*
X150372600Y-94197700D01*
X150372600Y-94197700D02*
X153800000Y-90770300D01*
X153800000Y-89120000D02*
X153800000Y-90770300D01*
D42*
X108000000Y-113500000D02*
X108000000Y-107000000D01*
D41*
X115000000Y-99000000D02*
X122094400Y-91905600D01*
X122094400Y-91905600D02*
X147584700Y-91905600D01*
X147584700Y-91905600D02*
X148720000Y-90770300D01*
X108000000Y-99000000D02*
X115000000Y-99000000D01*
X148720000Y-89120000D02*
X148720000Y-90770300D01*
X108000000Y-99000000D02*
X108000000Y-103500000D01*
X108000000Y-97000000D02*
X108000000Y-99000000D01*
X108000000Y-87000000D02*
X119500000Y-75500000D01*
X119500000Y-75500000D02*
X122000000Y-75500000D01*
X166500000Y-81500000D02*
X166500000Y-83150300D01*
X166500000Y-83150300D02*
X158329700Y-83150300D01*
X158329700Y-83150300D02*
X157610000Y-82430600D01*
X157610000Y-82430600D02*
X157610000Y-78758200D01*
X157610000Y-78758200D02*
X151400000Y-72548200D01*
X164660000Y-54500000D02*
X162580000Y-52420000D01*
X162580000Y-52420000D02*
X149000000Y-52420000D01*
X173040000Y-57000000D02*
X169280700Y-60759300D01*
X169280700Y-60759300D02*
X161880700Y-60759300D01*
X161880700Y-60759300D02*
X158640000Y-64000000D01*
X161180000Y-64000000D02*
X159879700Y-65300300D01*
X159879700Y-65300300D02*
X147297400Y-65300300D01*
X147297400Y-65300300D02*
X136915300Y-75682400D01*
X133480000Y-81500000D02*
X133480000Y-79849700D01*
X166260000Y-64000000D02*
X164359300Y-65900700D01*
X164359300Y-65900700D02*
X147551400Y-65900700D01*
X147551400Y-65900700D02*
X137768200Y-75683900D01*
X137768200Y-75683900D02*
X137768200Y-76054500D01*
X137768200Y-76054500D02*
X133973000Y-79849700D01*
X133973000Y-79849700D02*
X133480000Y-79849700D01*
X168800000Y-64000000D02*
X165998900Y-66801100D01*
X165998900Y-66801100D02*
X147500100Y-66801100D01*
X147500100Y-66801100D02*
X139742000Y-74559200D01*
X139742000Y-74559200D02*
X139742000Y-75408100D01*
X139742000Y-75408100D02*
X137290000Y-77860100D01*
X137290000Y-77860100D02*
X137290000Y-83659700D01*
X137290000Y-83659700D02*
X133480000Y-87469700D01*
X133480000Y-89120000D02*
X133480000Y-87469700D01*
X136020000Y-87469700D02*
X137316500Y-87469700D01*
X137316500Y-87469700D02*
X142370000Y-82416200D01*
X142370000Y-82416200D02*
X142370000Y-78273700D01*
X142370000Y-78273700D02*
X144690000Y-75953700D01*
X144690000Y-75953700D02*
X144690000Y-73014800D01*
X144690000Y-73014800D02*
X149403000Y-68301800D01*
X149403000Y-68301800D02*
X168867900Y-68301800D01*
X168867900Y-68301800D02*
X171340000Y-65829700D01*
X171340000Y-65829700D02*
X171340000Y-65300300D01*
X171340000Y-64000000D02*
X171340000Y-65300300D01*
X136020000Y-89120000D02*
X136020000Y-87469700D01*
X138560000Y-89120000D02*
X138560000Y-90770300D01*
X169961600Y-66005600D02*
X168565700Y-67401500D01*
X168565700Y-67401500D02*
X147748600Y-67401500D01*
X147748600Y-67401500D02*
X140554700Y-74595400D01*
X140554700Y-74595400D02*
X140554700Y-79703800D01*
X140554700Y-79703800D02*
X139830000Y-80428500D01*
X139830000Y-80428500D02*
X139830000Y-82802800D01*
X139830000Y-82802800D02*
X134750000Y-87882800D01*
X134750000Y-87882800D02*
X134750000Y-90045600D01*
X134750000Y-90045600D02*
X135474700Y-90770300D01*
X135474700Y-90770300D02*
X138560000Y-90770300D01*
X141100000Y-89120000D02*
X141100000Y-87469700D01*
X176420000Y-64000000D02*
X171517800Y-68902200D01*
X171517800Y-68902200D02*
X150896400Y-68902200D01*
X150896400Y-68902200D02*
X147299600Y-72499000D01*
X147299600Y-72499000D02*
X147299600Y-74451500D01*
X147299600Y-74451500D02*
X144910000Y-76841100D01*
X144910000Y-76841100D02*
X144910000Y-83659700D01*
X144910000Y-83659700D02*
X141100000Y-87469700D01*
X196000000Y-69000000D02*
X178920000Y-69000000D01*
X178920000Y-69000000D02*
X177420000Y-70500000D01*
X158880000Y-79849700D02*
X166194900Y-72534800D01*
X166194900Y-72534800D02*
X175385200Y-72534800D01*
X175385200Y-72534800D02*
X177420000Y-70500000D01*
X158880000Y-81500000D02*
X158880000Y-79849700D01*
X108000000Y-77000000D02*
X113500000Y-77000000D01*
X113500000Y-77000000D02*
X115000000Y-75500000D01*
X161420000Y-81500000D02*
X161420000Y-79849700D01*
X161420000Y-79849700D02*
X167438800Y-73830900D01*
X167438800Y-73830900D02*
X176629100Y-73830900D01*
X176629100Y-73830900D02*
X179960000Y-70500000D01*
X174002200Y-80298100D02*
X173553800Y-79849700D01*
X173553800Y-79849700D02*
X163960000Y-79849700D01*
X196000000Y-106000000D02*
X177464100Y-87464100D01*
X177464100Y-87464100D02*
X177464100Y-83760000D01*
X177464100Y-83760000D02*
X174002200Y-80298100D01*
X174002200Y-80298100D02*
X182500000Y-71800300D01*
X182500000Y-70500000D02*
X182500000Y-71800300D01*
X163960000Y-81500000D02*
X163960000Y-79849700D01*
X178000000Y-54500000D02*
X178000000Y-52000000D01*
X181500000Y-58000000D02*
X178000000Y-54500000D01*
X150300300Y-57500000D02*
X151970700Y-55829600D01*
X151970700Y-55829600D02*
X176670400Y-55829600D01*
X176670400Y-55829600D02*
X178000000Y-54500000D01*
X149000000Y-57500000D02*
X150300300Y-57500000D01*
X188000000Y-58000000D02*
X181500000Y-58000000D01*
X136020000Y-83150300D02*
X128099900Y-91070400D01*
X128099900Y-91070400D02*
X112729800Y-91070400D01*
X112729800Y-91070400D02*
X108550200Y-95250000D01*
X108550200Y-95250000D02*
X107691600Y-95250000D01*
X107691600Y-95250000D02*
X106509900Y-96431700D01*
X106509900Y-96431700D02*
X106509900Y-104073900D01*
X106509900Y-104073900D02*
X107686400Y-105250400D01*
X107686400Y-105250400D02*
X108347900Y-105250400D01*
X108347900Y-105250400D02*
X112500000Y-109402500D01*
X112500000Y-109402500D02*
X112500000Y-114160000D01*
X136020000Y-81500000D02*
X136020000Y-83150300D01*
D42*
X112500000Y-114160000D02*
X116000000Y-114160000D01*
X116000000Y-114160000D02*
X119500000Y-114160000D01*
X119500000Y-114160000D02*
X123000000Y-114160000D01*
D41*
X130000000Y-102750300D02*
X124425700Y-102750300D01*
X124425700Y-102750300D02*
X123823400Y-102148000D01*
X123823400Y-102148000D02*
X114352000Y-102148000D01*
X114352000Y-102148000D02*
X112500000Y-104000000D01*
X130000000Y-101100000D02*
X130000000Y-102750300D01*
X145000000Y-101100000D02*
X145000000Y-102750300D01*
X119500000Y-104000000D02*
X120751700Y-102748300D01*
X120751700Y-102748300D02*
X123574800Y-102748300D01*
X123574800Y-102748300D02*
X124210500Y-103384000D01*
X124210500Y-103384000D02*
X144366300Y-103384000D01*
X144366300Y-103384000D02*
X145000000Y-102750300D01*
X156340000Y-79849700D02*
X154454000Y-77963700D01*
X154454000Y-77963700D02*
X150423700Y-77963700D01*
X156340000Y-81500000D02*
X156340000Y-79849700D01*
D43*
X103500000Y-133330000D02*
X107399500Y-137229500D01*
X107399500Y-137229500D02*
X114843300Y-137229500D01*
X114843300Y-137229500D02*
X118500000Y-140886200D01*
X118500000Y-140886200D02*
X118500000Y-141000000D01*
X116500000Y-133330000D02*
X119842900Y-129987100D01*
X119842900Y-129987100D02*
X124428900Y-129987100D01*
X124428900Y-129987100D02*
X128569400Y-134127600D01*
X128569400Y-134127600D02*
X128569400Y-134499300D01*
X128569400Y-134499300D02*
X131495100Y-137425000D01*
X131495100Y-137425000D02*
X135425000Y-137425000D01*
X135425000Y-137425000D02*
X139000000Y-141000000D01*
D44*
X148540000Y-128480000D02*
X148540000Y-126000000D01*
D43*
X149500000Y-141000000D02*
X153785300Y-136714700D01*
X153785300Y-136714700D02*
X153785300Y-132306300D01*
X153785300Y-132306300D02*
X150981700Y-129502700D01*
X150981700Y-129502700D02*
X149562700Y-129502700D01*
X149562700Y-129502700D02*
X148540000Y-128480000D01*
D41*
X142460000Y-101100000D02*
X142460000Y-99449700D01*
X141437500Y-96000000D02*
X141437500Y-98427200D01*
X141437500Y-98427200D02*
X142460000Y-99449700D01*
X127460000Y-99449700D02*
X127460000Y-99347900D01*
X127460000Y-99347900D02*
X132009800Y-94798100D01*
X132009800Y-94798100D02*
X133235600Y-94798100D01*
X133235600Y-94798100D02*
X134437500Y-96000000D01*
X127460000Y-101100000D02*
X127460000Y-99449700D01*
X149960000Y-101100000D02*
X149960000Y-99449700D01*
X144937500Y-96000000D02*
X144937500Y-96077500D01*
X144937500Y-96077500D02*
X148309700Y-99449700D01*
X148309700Y-99449700D02*
X149960000Y-99449700D01*
X137937500Y-96000000D02*
X134960000Y-98977500D01*
X134960000Y-98977500D02*
X134960000Y-101100000D01*
X164860000Y-101000000D02*
X164860000Y-102650300D01*
X148437500Y-96000000D02*
X148437500Y-96134800D01*
X148437500Y-96134800D02*
X151646500Y-99343800D01*
X151646500Y-99343800D02*
X153397400Y-99343800D01*
X153397400Y-99343800D02*
X156784000Y-102730400D01*
X156784000Y-102730400D02*
X164779900Y-102730400D01*
X164779900Y-102730400D02*
X164860000Y-102650300D01*
X157655000Y-101080000D02*
X157655000Y-99429700D01*
X151937500Y-96000000D02*
X155367200Y-99429700D01*
X155367200Y-99429700D02*
X157655000Y-99429700D01*
D42*
X173950000Y-114440000D02*
X175090000Y-113300000D01*
X173950000Y-119450000D02*
X173950000Y-114440000D01*
D41*
X158590000Y-113250000D02*
X160140300Y-113250000D01*
X182500000Y-109400000D02*
X180362300Y-111537700D01*
X180362300Y-111537700D02*
X161852600Y-111537700D01*
X161852600Y-111537700D02*
X160140300Y-113250000D01*
D42*
X157450000Y-114390000D02*
X158590000Y-113250000D01*
X157450000Y-119450000D02*
X157450000Y-114390000D01*
D43*
X169500000Y-140125000D02*
X168570000Y-141055000D01*
X169500000Y-131700000D02*
X169500000Y-140125000D01*
X163570000Y-141055000D02*
X163500000Y-140985000D01*
X163500000Y-140985000D02*
X163500000Y-117500000D01*
X158570000Y-141055000D02*
X158570000Y-138004700D01*
X158570000Y-138004700D02*
X157450000Y-136884700D01*
X157450000Y-136884700D02*
X157450000Y-131650000D01*
X186000000Y-139200000D02*
X184100000Y-141100000D01*
X186000000Y-131700000D02*
X186000000Y-139200000D01*
X173950000Y-140950000D02*
X174100000Y-141100000D01*
X173950000Y-131650000D02*
X173950000Y-140950000D01*
D41*
X183000000Y-104000000D02*
X182471400Y-104000000D01*
X182471400Y-104000000D02*
X178024600Y-108446800D01*
X178024600Y-108446800D02*
X178024600Y-109763700D01*
X178024600Y-109763700D02*
X177176500Y-110611800D01*
X177176500Y-110611800D02*
X176206800Y-110611800D01*
X176206800Y-110611800D02*
X175000000Y-109405000D01*
X183000000Y-100500000D02*
X184250400Y-101750400D01*
X184250400Y-101750400D02*
X184250400Y-105899600D01*
X184250400Y-105899600D02*
X180750000Y-109400000D01*
X161420000Y-90770300D02*
X162020300Y-91370600D01*
X162020300Y-91370600D02*
X176280300Y-91370600D01*
X176280300Y-91370600D02*
X181909700Y-97000000D01*
X183160000Y-97000000D02*
X181909700Y-97000000D01*
X161420000Y-89120000D02*
X161420000Y-90770300D01*
X167400000Y-101000000D02*
X167400000Y-99349700D01*
X173000000Y-97000000D02*
X169749700Y-97000000D01*
X169749700Y-97000000D02*
X167400000Y-99349700D01*
X153800000Y-81500000D02*
X153800000Y-83150300D01*
X156840000Y-97000000D02*
X156840000Y-95749700D01*
X156840000Y-95749700D02*
X157590400Y-94999300D01*
X157590400Y-94999300D02*
X157590400Y-86940700D01*
X157590400Y-86940700D02*
X153800000Y-83150300D01*
X160195000Y-101080000D02*
X160195000Y-99429700D01*
X167000000Y-97000000D02*
X162624700Y-97000000D01*
X162624700Y-97000000D02*
X160195000Y-99429700D01*
X164860000Y-108620000D02*
X164860000Y-106969700D01*
X172840000Y-104000000D02*
X171589700Y-104000000D01*
X171589700Y-104000000D02*
X168620000Y-106969700D01*
X168620000Y-106969700D02*
X164860000Y-106969700D01*
X157655000Y-108700000D02*
X157655000Y-107049700D01*
X172840000Y-100500000D02*
X171589700Y-100500000D01*
X171589700Y-100500000D02*
X168720700Y-103369000D01*
X168720700Y-103369000D02*
X163581300Y-103369000D01*
X163581300Y-103369000D02*
X162512500Y-104437800D01*
X162512500Y-104437800D02*
X162512500Y-105269600D01*
X162512500Y-105269600D02*
X160732400Y-107049700D01*
X160732400Y-107049700D02*
X157655000Y-107049700D01*
X151260000Y-81500000D02*
X151260000Y-79849700D01*
X175000000Y-84000000D02*
X156648800Y-84000000D01*
X156648800Y-84000000D02*
X155070000Y-82421200D01*
X155070000Y-82421200D02*
X155070000Y-80561200D01*
X155070000Y-80561200D02*
X154358500Y-79849700D01*
X154358500Y-79849700D02*
X151260000Y-79849700D01*
X132000000Y-133500000D02*
X132000000Y-130848700D01*
X132000000Y-130848700D02*
X122231200Y-121079900D01*
X134960000Y-108720000D02*
X134960000Y-110370300D01*
X134960000Y-110370300D02*
X149870300Y-110370300D01*
X149870300Y-110370300D02*
X152000000Y-112500000D01*
X142340000Y-116500000D02*
X141089700Y-116500000D01*
X141089700Y-116500000D02*
X139809200Y-117780500D01*
X139809200Y-117780500D02*
X137977100Y-117780500D01*
X137977100Y-117780500D02*
X137000000Y-116803400D01*
X137000000Y-116803400D02*
X137000000Y-112500000D01*
X142965200Y-116500000D02*
X142340000Y-116500000D01*
X142965200Y-116500000D02*
X143590300Y-116500000D01*
X146682700Y-119592300D02*
X146502900Y-119772100D01*
X146502900Y-119772100D02*
X146502900Y-119844600D01*
X146502900Y-119844600D02*
X146000000Y-120347500D01*
X146000000Y-120347500D02*
X146000000Y-124549700D01*
X149960000Y-108720000D02*
X150052900Y-108720000D01*
X150052900Y-108720000D02*
X153260200Y-111927300D01*
X153260200Y-111927300D02*
X153260200Y-113014800D01*
X153260200Y-113014800D02*
X146682700Y-119592300D01*
X143590300Y-116500000D02*
X146682700Y-119592300D01*
X146000000Y-126000000D02*
X146000000Y-124549700D01*
D46*
G36*
X113084966Y-52237880D02*
G01*
X113068999Y-52400000D01*
X113068999Y-54600000D01*
X113084966Y-54762120D01*
X113132255Y-54918010D01*
X113209048Y-55061679D01*
X113312394Y-55187606D01*
X113438321Y-55290952D01*
X113581990Y-55367745D01*
X113737880Y-55415034D01*
X113900000Y-55431001D01*
X116100000Y-55431001D01*
X116262120Y-55415034D01*
X116418010Y-55367745D01*
X116561679Y-55290952D01*
X116687606Y-55187606D01*
X116790952Y-55061679D01*
X116867745Y-54918010D01*
X116915034Y-54762120D01*
X116931001Y-54600000D01*
X116931001Y-52400000D01*
X116915034Y-52237880D01*
X116881399Y-52127000D01*
X119600407Y-52127000D01*
X119509048Y-52238321D01*
X119432255Y-52381990D01*
X119384966Y-52537880D01*
X119368999Y-52700000D01*
X119368999Y-53461723D01*
X119365229Y-53500000D01*
X119368999Y-53538277D01*
X119368999Y-54300000D01*
X119384966Y-54462120D01*
X119432255Y-54618010D01*
X119509048Y-54761679D01*
X119612394Y-54887606D01*
X119738321Y-54990952D01*
X119881990Y-55067745D01*
X119891134Y-55070519D01*
X119891023Y-55070630D01*
X120007296Y-55186903D01*
X119763329Y-55258486D01*
X119642429Y-55513996D01*
X119573700Y-55788184D01*
X119559783Y-56070512D01*
X119601213Y-56350130D01*
X119696397Y-56616292D01*
X119763329Y-56741514D01*
X120007298Y-56813097D01*
X120820395Y-56000000D01*
X120806253Y-55985858D01*
X120985858Y-55806253D01*
X121000000Y-55820395D01*
X121014143Y-55806253D01*
X121193748Y-55985858D01*
X121179605Y-56000000D01*
X121992702Y-56813097D01*
X122236671Y-56741514D01*
X122357571Y-56486004D01*
X122426300Y-56211816D01*
X122440217Y-55929488D01*
X122398787Y-55649870D01*
X122316220Y-55418988D01*
X122333421Y-55428182D01*
X122724937Y-55546947D01*
X123030071Y-55577000D01*
X125181261Y-55577000D01*
X125184966Y-55614620D01*
X125232255Y-55770510D01*
X125309048Y-55914179D01*
X125412394Y-56040106D01*
X125538321Y-56143452D01*
X125617438Y-56185741D01*
X125480429Y-56448906D01*
X125409437Y-56667020D01*
X125529406Y-56913000D01*
X126873000Y-56913000D01*
X126873000Y-56893000D01*
X127127000Y-56893000D01*
X127127000Y-56913000D01*
X128470594Y-56913000D01*
X128590563Y-56667020D01*
X128519571Y-56448906D01*
X128382562Y-56185741D01*
X128461679Y-56143452D01*
X128587606Y-56040106D01*
X128690952Y-55914179D01*
X128767745Y-55770510D01*
X128815034Y-55614620D01*
X128831001Y-55452500D01*
X128831001Y-53547500D01*
X128815034Y-53385380D01*
X128767745Y-53229490D01*
X128690952Y-53085821D01*
X128587606Y-52959894D01*
X128461679Y-52856548D01*
X128318010Y-52779755D01*
X128162120Y-52732466D01*
X128097359Y-52726088D01*
X128070318Y-52675498D01*
X127875806Y-52438485D01*
X127564321Y-52127000D01*
X147343744Y-52127000D01*
X147314886Y-52420000D01*
X147347265Y-52748749D01*
X147443158Y-53064865D01*
X147598879Y-53356199D01*
X147808444Y-53611556D01*
X147904029Y-53690000D01*
X147808444Y-53768444D01*
X147598879Y-54023801D01*
X147443158Y-54315135D01*
X147347265Y-54631251D01*
X147314886Y-54960000D01*
X147347265Y-55288749D01*
X147443158Y-55604865D01*
X147598879Y-55896199D01*
X147665696Y-55977616D01*
X147562394Y-56062394D01*
X147459048Y-56188321D01*
X147382255Y-56331990D01*
X147334966Y-56487880D01*
X147318999Y-56650000D01*
X147318999Y-58350000D01*
X147334966Y-58512120D01*
X147382255Y-58668010D01*
X147459048Y-58811679D01*
X147562394Y-58937606D01*
X147688321Y-59040952D01*
X147831990Y-59117745D01*
X147987880Y-59165034D01*
X148150000Y-59181001D01*
X149850000Y-59181001D01*
X150012120Y-59165034D01*
X150168010Y-59117745D01*
X150311679Y-59040952D01*
X150437606Y-58937606D01*
X150540952Y-58811679D01*
X150617745Y-58668010D01*
X150665034Y-58512120D01*
X150675369Y-58407186D01*
X150675991Y-58406997D01*
X150845718Y-58316276D01*
X150994486Y-58194186D01*
X151025084Y-58156902D01*
X152375387Y-56806600D01*
X168961162Y-56806600D01*
X168953000Y-56847634D01*
X168953000Y-57152366D01*
X169012451Y-57451243D01*
X169129067Y-57732779D01*
X169298367Y-57986155D01*
X169513845Y-58201633D01*
X169767221Y-58370933D01*
X170048757Y-58487549D01*
X170150522Y-58507792D01*
X168876014Y-59782300D01*
X161928693Y-59782300D01*
X161880700Y-59777573D01*
X161689174Y-59796437D01*
X161597092Y-59824370D01*
X161505009Y-59852303D01*
X161335282Y-59943024D01*
X161186514Y-60065114D01*
X161155920Y-60102393D01*
X158916222Y-62342092D01*
X158722383Y-62323000D01*
X158557617Y-62323000D01*
X158311251Y-62347265D01*
X157995135Y-62443158D01*
X157703801Y-62598879D01*
X157448444Y-62808444D01*
X157370000Y-62904029D01*
X157291556Y-62808444D01*
X157036199Y-62598879D01*
X156744865Y-62443158D01*
X156428749Y-62347265D01*
X156182383Y-62323000D01*
X156017617Y-62323000D01*
X155771251Y-62347265D01*
X155455135Y-62443158D01*
X155163801Y-62598879D01*
X154908444Y-62808444D01*
X154702150Y-63059815D01*
X154560269Y-62902412D01*
X154326920Y-62728359D01*
X154064099Y-62603175D01*
X153916890Y-62558524D01*
X153687000Y-62679845D01*
X153687000Y-63873000D01*
X153707000Y-63873000D01*
X153707000Y-64127000D01*
X153687000Y-64127000D01*
X153687000Y-64147000D01*
X153433000Y-64147000D01*
X153433000Y-64127000D01*
X152239186Y-64127000D01*
X152136151Y-64323300D01*
X147345393Y-64323300D01*
X147297400Y-64318573D01*
X147105874Y-64337437D01*
X147013792Y-64365370D01*
X146921709Y-64393303D01*
X146751982Y-64484024D01*
X146603214Y-64606114D01*
X146572616Y-64643398D01*
X138663531Y-72552483D01*
X138624936Y-72494721D01*
X138405279Y-72275064D01*
X138146989Y-72102481D01*
X137859994Y-71983604D01*
X137555321Y-71923000D01*
X137244679Y-71923000D01*
X136940006Y-71983604D01*
X136653011Y-72102481D01*
X136394721Y-72275064D01*
X136175064Y-72494721D01*
X136002481Y-72753011D01*
X135883604Y-73040006D01*
X135823000Y-73344679D01*
X135823000Y-73655321D01*
X135883604Y-73959994D01*
X136002481Y-74246989D01*
X136175064Y-74505279D01*
X136292576Y-74622791D01*
X136133133Y-74729327D01*
X135962227Y-74900233D01*
X135827947Y-75101198D01*
X135735453Y-75324497D01*
X135688300Y-75561551D01*
X135688300Y-75803249D01*
X135735453Y-76040303D01*
X135827947Y-76263602D01*
X135962227Y-76464567D01*
X135969337Y-76471677D01*
X133568314Y-78872700D01*
X133527993Y-78872700D01*
X133480000Y-78867973D01*
X133432007Y-78872700D01*
X133288475Y-78886837D01*
X133104309Y-78942703D01*
X132934582Y-79033424D01*
X132785814Y-79155514D01*
X132663724Y-79304282D01*
X132573003Y-79474009D01*
X132517137Y-79658175D01*
X132503499Y-79796637D01*
X132323972Y-79943971D01*
X132120654Y-80191714D01*
X131969575Y-80474362D01*
X131876542Y-80781052D01*
X131853000Y-81020075D01*
X131853000Y-81979924D01*
X131876542Y-82218947D01*
X131969575Y-82525637D01*
X132120654Y-82808285D01*
X132323971Y-83056029D01*
X132571714Y-83259346D01*
X132854362Y-83410425D01*
X133161052Y-83503458D01*
X133480000Y-83534872D01*
X133798947Y-83503458D01*
X134105637Y-83410425D01*
X134388285Y-83259346D01*
X134636029Y-83056029D01*
X134750000Y-82917154D01*
X134804748Y-82983865D01*
X127695214Y-90093400D01*
X122690105Y-90093400D01*
X122737420Y-90071037D01*
X122963414Y-89903519D01*
X123152385Y-89695131D01*
X123297070Y-89453881D01*
X123391909Y-89189040D01*
X123270624Y-88967000D01*
X122127000Y-88967000D01*
X122127000Y-88987000D01*
X121873000Y-88987000D01*
X121873000Y-88967000D01*
X120729376Y-88967000D01*
X120608091Y-89189040D01*
X120702930Y-89453881D01*
X120847615Y-89695131D01*
X121036586Y-89903519D01*
X121262580Y-90071037D01*
X121309895Y-90093400D01*
X115690105Y-90093400D01*
X115737420Y-90071037D01*
X115963414Y-89903519D01*
X116152385Y-89695131D01*
X116297070Y-89453881D01*
X116391909Y-89189040D01*
X116270624Y-88967000D01*
X115127000Y-88967000D01*
X115127000Y-88987000D01*
X114873000Y-88987000D01*
X114873000Y-88967000D01*
X113729376Y-88967000D01*
X113608091Y-89189040D01*
X113702930Y-89453881D01*
X113847615Y-89695131D01*
X114036586Y-89903519D01*
X114262580Y-90071037D01*
X114309895Y-90093400D01*
X112777792Y-90093400D01*
X112729799Y-90088673D01*
X112538274Y-90107537D01*
X112354109Y-90163403D01*
X112184382Y-90254124D01*
X112035614Y-90376214D01*
X112005020Y-90413493D01*
X109667351Y-92751162D01*
X109619066Y-92634591D01*
X109419124Y-92335355D01*
X109164645Y-92080876D01*
X108865409Y-91880934D01*
X108532916Y-91743211D01*
X108179944Y-91673000D01*
X107820056Y-91673000D01*
X107467084Y-91743211D01*
X107134591Y-91880934D01*
X106835355Y-92080876D01*
X106580876Y-92335355D01*
X106380934Y-92634591D01*
X106243211Y-92967084D01*
X106173000Y-93320056D01*
X106173000Y-93679944D01*
X106243211Y-94032916D01*
X106380934Y-94365409D01*
X106580876Y-94664645D01*
X106738072Y-94821841D01*
X105852998Y-95706916D01*
X105815714Y-95737514D01*
X105693624Y-95886282D01*
X105632841Y-96000000D01*
X105602903Y-96056010D01*
X105547037Y-96240175D01*
X105528173Y-96431700D01*
X105532900Y-96479693D01*
X105532901Y-104025897D01*
X105528173Y-104073900D01*
X105547037Y-104265425D01*
X105602903Y-104449590D01*
X105693625Y-104619318D01*
X105761116Y-104701556D01*
X105815715Y-104768086D01*
X105852993Y-104798679D01*
X106735272Y-105680959D01*
X106580876Y-105835355D01*
X106380934Y-106134591D01*
X106243211Y-106467084D01*
X106173000Y-106820056D01*
X106173000Y-107179944D01*
X106243211Y-107532916D01*
X106380934Y-107865409D01*
X106580876Y-108164645D01*
X106673001Y-108256770D01*
X106673000Y-112243231D01*
X106580876Y-112335355D01*
X106380934Y-112634591D01*
X106243211Y-112967084D01*
X106173000Y-113320056D01*
X106173000Y-113679944D01*
X106243211Y-114032916D01*
X106380934Y-114365409D01*
X106580876Y-114664645D01*
X106789231Y-114873000D01*
X104710769Y-114873000D01*
X104919124Y-114664645D01*
X105119066Y-114365409D01*
X105256789Y-114032916D01*
X105327000Y-113679944D01*
X105327000Y-113320056D01*
X105256789Y-112967084D01*
X105119066Y-112634591D01*
X104919124Y-112335355D01*
X104827000Y-112243231D01*
X104827000Y-108256769D01*
X104919124Y-108164645D01*
X105119066Y-107865409D01*
X105256789Y-107532916D01*
X105327000Y-107179944D01*
X105327000Y-106820056D01*
X105256789Y-106467084D01*
X105119066Y-106134591D01*
X104919124Y-105835355D01*
X104664645Y-105580876D01*
X104365409Y-105380934D01*
X104049306Y-105250000D01*
X104365409Y-105119066D01*
X104664645Y-104919124D01*
X104919124Y-104664645D01*
X105119066Y-104365409D01*
X105256789Y-104032916D01*
X105327000Y-103679944D01*
X105327000Y-103320056D01*
X105256789Y-102967084D01*
X105119066Y-102634591D01*
X104919124Y-102335355D01*
X104664645Y-102080876D01*
X104365409Y-101880934D01*
X104032916Y-101743211D01*
X103679944Y-101673000D01*
X103320056Y-101673000D01*
X102967084Y-101743211D01*
X102634591Y-101880934D01*
X102335355Y-102080876D01*
X102127000Y-102289231D01*
X102127000Y-98210769D01*
X102335355Y-98419124D01*
X102634591Y-98619066D01*
X102967084Y-98756789D01*
X103320056Y-98827000D01*
X103679944Y-98827000D01*
X104032916Y-98756789D01*
X104365409Y-98619066D01*
X104664645Y-98419124D01*
X104919124Y-98164645D01*
X105119066Y-97865409D01*
X105256789Y-97532916D01*
X105327000Y-97179944D01*
X105327000Y-96820056D01*
X105256789Y-96467084D01*
X105119066Y-96134591D01*
X104919124Y-95835355D01*
X104664645Y-95580876D01*
X104365409Y-95380934D01*
X104049306Y-95250000D01*
X104365409Y-95119066D01*
X104664645Y-94919124D01*
X104919124Y-94664645D01*
X105119066Y-94365409D01*
X105256789Y-94032916D01*
X105327000Y-93679944D01*
X105327000Y-93320056D01*
X105256789Y-92967084D01*
X105119066Y-92634591D01*
X104919124Y-92335355D01*
X104664645Y-92080876D01*
X104365409Y-91880934D01*
X104032916Y-91743211D01*
X103679944Y-91673000D01*
X103320056Y-91673000D01*
X102967084Y-91743211D01*
X102634591Y-91880934D01*
X102335355Y-92080876D01*
X102127000Y-92289231D01*
X102127000Y-88210769D01*
X102335355Y-88419124D01*
X102634591Y-88619066D01*
X102967084Y-88756789D01*
X103320056Y-88827000D01*
X103679944Y-88827000D01*
X104032916Y-88756789D01*
X104365409Y-88619066D01*
X104664645Y-88419124D01*
X104919124Y-88164645D01*
X105119066Y-87865409D01*
X105256789Y-87532916D01*
X105327000Y-87179944D01*
X105327000Y-86820056D01*
X105256789Y-86467084D01*
X105119066Y-86134591D01*
X104919124Y-85835355D01*
X104664645Y-85580876D01*
X104365409Y-85380934D01*
X104049306Y-85250000D01*
X104365409Y-85119066D01*
X104664645Y-84919124D01*
X104919124Y-84664645D01*
X105119066Y-84365409D01*
X105256789Y-84032916D01*
X105327000Y-83679944D01*
X105327000Y-83320056D01*
X106173000Y-83320056D01*
X106173000Y-83679944D01*
X106243211Y-84032916D01*
X106380934Y-84365409D01*
X106580876Y-84664645D01*
X106835355Y-84919124D01*
X107134591Y-85119066D01*
X107450694Y-85250000D01*
X107134591Y-85380934D01*
X106835355Y-85580876D01*
X106580876Y-85835355D01*
X106380934Y-86134591D01*
X106243211Y-86467084D01*
X106173000Y-86820056D01*
X106173000Y-87179944D01*
X106243211Y-87532916D01*
X106380934Y-87865409D01*
X106580876Y-88164645D01*
X106835355Y-88419124D01*
X107134591Y-88619066D01*
X107467084Y-88756789D01*
X107820056Y-88827000D01*
X108179944Y-88827000D01*
X108532916Y-88756789D01*
X108865409Y-88619066D01*
X109057134Y-88490960D01*
X113608091Y-88490960D01*
X113729376Y-88713000D01*
X114873000Y-88713000D01*
X114873000Y-87570085D01*
X115127000Y-87570085D01*
X115127000Y-88713000D01*
X116270624Y-88713000D01*
X116391909Y-88490960D01*
X120608091Y-88490960D01*
X120729376Y-88713000D01*
X121873000Y-88713000D01*
X121873000Y-87570085D01*
X122127000Y-87570085D01*
X122127000Y-88713000D01*
X123270624Y-88713000D01*
X123391909Y-88490960D01*
X123297070Y-88226119D01*
X123152385Y-87984869D01*
X122963414Y-87776481D01*
X122737420Y-87608963D01*
X122483087Y-87488754D01*
X122349039Y-87448096D01*
X122127000Y-87570085D01*
X121873000Y-87570085D01*
X121650961Y-87448096D01*
X121516913Y-87488754D01*
X121262580Y-87608963D01*
X121036586Y-87776481D01*
X120847615Y-87984869D01*
X120702930Y-88226119D01*
X120608091Y-88490960D01*
X116391909Y-88490960D01*
X116297070Y-88226119D01*
X116152385Y-87984869D01*
X115963414Y-87776481D01*
X115737420Y-87608963D01*
X115483087Y-87488754D01*
X115349039Y-87448096D01*
X115127000Y-87570085D01*
X114873000Y-87570085D01*
X114650961Y-87448096D01*
X114516913Y-87488754D01*
X114262580Y-87608963D01*
X114036586Y-87776481D01*
X113847615Y-87984869D01*
X113702930Y-88226119D01*
X113608091Y-88490960D01*
X109057134Y-88490960D01*
X109164645Y-88419124D01*
X109419124Y-88164645D01*
X109619066Y-87865409D01*
X109756789Y-87532916D01*
X109827000Y-87179944D01*
X109827000Y-86820056D01*
X109782972Y-86598714D01*
X110372646Y-86009040D01*
X113608091Y-86009040D01*
X113702930Y-86273881D01*
X113847615Y-86515131D01*
X114036586Y-86723519D01*
X114262580Y-86891037D01*
X114516913Y-87011246D01*
X114650961Y-87051904D01*
X114873000Y-86929915D01*
X114873000Y-85787000D01*
X115127000Y-85787000D01*
X115127000Y-86929915D01*
X115349039Y-87051904D01*
X115483087Y-87011246D01*
X115737420Y-86891037D01*
X115963414Y-86723519D01*
X116152385Y-86515131D01*
X116297070Y-86273881D01*
X116391909Y-86009040D01*
X120608091Y-86009040D01*
X120702930Y-86273881D01*
X120847615Y-86515131D01*
X121036586Y-86723519D01*
X121262580Y-86891037D01*
X121516913Y-87011246D01*
X121650961Y-87051904D01*
X121873000Y-86929915D01*
X121873000Y-85787000D01*
X122127000Y-85787000D01*
X122127000Y-86929915D01*
X122349039Y-87051904D01*
X122483087Y-87011246D01*
X122737420Y-86891037D01*
X122963414Y-86723519D01*
X123152385Y-86515131D01*
X123297070Y-86273881D01*
X123391909Y-86009040D01*
X123270624Y-85787000D01*
X122127000Y-85787000D01*
X121873000Y-85787000D01*
X120729376Y-85787000D01*
X120608091Y-86009040D01*
X116391909Y-86009040D01*
X116270624Y-85787000D01*
X115127000Y-85787000D01*
X114873000Y-85787000D01*
X113729376Y-85787000D01*
X113608091Y-86009040D01*
X110372646Y-86009040D01*
X111070726Y-85310960D01*
X113608091Y-85310960D01*
X113729376Y-85533000D01*
X114873000Y-85533000D01*
X114873000Y-84390085D01*
X115127000Y-84390085D01*
X115127000Y-85533000D01*
X116270624Y-85533000D01*
X116391909Y-85310960D01*
X120608091Y-85310960D01*
X120729376Y-85533000D01*
X121873000Y-85533000D01*
X121873000Y-84390085D01*
X122127000Y-84390085D01*
X122127000Y-85533000D01*
X123270624Y-85533000D01*
X123391909Y-85310960D01*
X123297070Y-85046119D01*
X123152385Y-84804869D01*
X122963414Y-84596481D01*
X122737420Y-84428963D01*
X122483087Y-84308754D01*
X122349039Y-84268096D01*
X122127000Y-84390085D01*
X121873000Y-84390085D01*
X121650961Y-84268096D01*
X121516913Y-84308754D01*
X121262580Y-84428963D01*
X121036586Y-84596481D01*
X120847615Y-84804869D01*
X120702930Y-85046119D01*
X120608091Y-85310960D01*
X116391909Y-85310960D01*
X116297070Y-85046119D01*
X116152385Y-84804869D01*
X115963414Y-84596481D01*
X115737420Y-84428963D01*
X115483087Y-84308754D01*
X115349039Y-84268096D01*
X115127000Y-84390085D01*
X114873000Y-84390085D01*
X114650961Y-84268096D01*
X114516913Y-84308754D01*
X114262580Y-84428963D01*
X114036586Y-84596481D01*
X113847615Y-84804869D01*
X113702930Y-85046119D01*
X113608091Y-85310960D01*
X111070726Y-85310960D01*
X119904687Y-76477000D01*
X120696035Y-76477000D01*
X120736227Y-76537152D01*
X120962848Y-76763773D01*
X121229327Y-76941828D01*
X121525422Y-77064475D01*
X121839755Y-77127000D01*
X122160245Y-77127000D01*
X122474578Y-77064475D01*
X122770673Y-76941828D01*
X123037152Y-76763773D01*
X123263773Y-76537152D01*
X123441828Y-76270673D01*
X123564475Y-75974578D01*
X123627000Y-75660245D01*
X123627000Y-75339755D01*
X123564475Y-75025422D01*
X123441828Y-74729327D01*
X123263773Y-74462848D01*
X123037152Y-74236227D01*
X122770673Y-74058172D01*
X122474578Y-73935525D01*
X122160245Y-73873000D01*
X121839755Y-73873000D01*
X121525422Y-73935525D01*
X121229327Y-74058172D01*
X120962848Y-74236227D01*
X120736227Y-74462848D01*
X120696035Y-74523000D01*
X119547993Y-74523000D01*
X119500000Y-74518273D01*
X119308474Y-74537137D01*
X119150091Y-74585182D01*
X119124309Y-74593003D01*
X118954582Y-74683724D01*
X118805814Y-74805814D01*
X118775221Y-74843092D01*
X109799346Y-83818967D01*
X109827000Y-83679944D01*
X109827000Y-83320056D01*
X109756789Y-82967084D01*
X109619066Y-82634591D01*
X109419124Y-82335355D01*
X109164645Y-82080876D01*
X108865409Y-81880934D01*
X108532916Y-81743211D01*
X108179944Y-81673000D01*
X107820056Y-81673000D01*
X107467084Y-81743211D01*
X107134591Y-81880934D01*
X106835355Y-82080876D01*
X106580876Y-82335355D01*
X106380934Y-82634591D01*
X106243211Y-82967084D01*
X106173000Y-83320056D01*
X105327000Y-83320056D01*
X105256789Y-82967084D01*
X105119066Y-82634591D01*
X104919124Y-82335355D01*
X104664645Y-82080876D01*
X104365409Y-81880934D01*
X104032916Y-81743211D01*
X103679944Y-81673000D01*
X103320056Y-81673000D01*
X102967084Y-81743211D01*
X102634591Y-81880934D01*
X102335355Y-82080876D01*
X102127000Y-82289231D01*
X102127000Y-78210769D01*
X102335355Y-78419124D01*
X102634591Y-78619066D01*
X102967084Y-78756789D01*
X103320056Y-78827000D01*
X103679944Y-78827000D01*
X104032916Y-78756789D01*
X104365409Y-78619066D01*
X104664645Y-78419124D01*
X104919124Y-78164645D01*
X105047188Y-77972982D01*
X105149925Y-77962863D01*
X105334091Y-77906997D01*
X105503818Y-77816276D01*
X105652586Y-77694186D01*
X105683184Y-77656902D01*
X106173000Y-77167086D01*
X106173000Y-77179944D01*
X106243211Y-77532916D01*
X106380934Y-77865409D01*
X106580876Y-78164645D01*
X106835355Y-78419124D01*
X107134591Y-78619066D01*
X107467084Y-78756789D01*
X107820056Y-78827000D01*
X108179944Y-78827000D01*
X108532916Y-78756789D01*
X108865409Y-78619066D01*
X109164645Y-78419124D01*
X109419124Y-78164645D01*
X109544504Y-77977000D01*
X113452007Y-77977000D01*
X113500000Y-77981727D01*
X113691525Y-77962863D01*
X113875691Y-77906997D01*
X114045418Y-77816276D01*
X114194186Y-77694186D01*
X114224784Y-77656902D01*
X114768800Y-77112886D01*
X114839755Y-77127000D01*
X115160245Y-77127000D01*
X115474578Y-77064475D01*
X115770673Y-76941828D01*
X116037152Y-76763773D01*
X116263773Y-76537152D01*
X116441828Y-76270673D01*
X116564475Y-75974578D01*
X116627000Y-75660245D01*
X116627000Y-75339755D01*
X116564475Y-75025422D01*
X116441828Y-74729327D01*
X116263773Y-74462848D01*
X116037152Y-74236227D01*
X115770673Y-74058172D01*
X115474578Y-73935525D01*
X115160245Y-73873000D01*
X114839755Y-73873000D01*
X114525422Y-73935525D01*
X114229327Y-74058172D01*
X113962848Y-74236227D01*
X113736227Y-74462848D01*
X113558172Y-74729327D01*
X113435525Y-75025422D01*
X113373000Y-75339755D01*
X113373000Y-75660245D01*
X113387114Y-75731200D01*
X113095314Y-76023000D01*
X109544504Y-76023000D01*
X109419124Y-75835355D01*
X109164645Y-75580876D01*
X108865409Y-75380934D01*
X108532916Y-75243211D01*
X108179944Y-75173000D01*
X108167086Y-75173000D01*
X109995407Y-73344679D01*
X130923000Y-73344679D01*
X130923000Y-73655321D01*
X130983604Y-73959994D01*
X131102481Y-74246989D01*
X131275064Y-74505279D01*
X131494721Y-74724936D01*
X131753011Y-74897519D01*
X132040006Y-75016396D01*
X132344679Y-75077000D01*
X132655321Y-75077000D01*
X132959994Y-75016396D01*
X133246989Y-74897519D01*
X133505279Y-74724936D01*
X133724936Y-74505279D01*
X133897519Y-74246989D01*
X134016396Y-73959994D01*
X134077000Y-73655321D01*
X134077000Y-73344679D01*
X134016396Y-73040006D01*
X133897519Y-72753011D01*
X133724936Y-72494721D01*
X133505279Y-72275064D01*
X133246989Y-72102481D01*
X132959994Y-71983604D01*
X132655321Y-71923000D01*
X132344679Y-71923000D01*
X132040006Y-71983604D01*
X131753011Y-72102481D01*
X131494721Y-72275064D01*
X131275064Y-72494721D01*
X131102481Y-72753011D01*
X130983604Y-73040006D01*
X130923000Y-73344679D01*
X109995407Y-73344679D01*
X113010535Y-70329552D01*
X113081990Y-70367745D01*
X113237880Y-70415034D01*
X113400000Y-70431001D01*
X115600000Y-70431001D01*
X115762120Y-70415034D01*
X115918010Y-70367745D01*
X116061679Y-70290952D01*
X116187606Y-70187606D01*
X116290952Y-70061679D01*
X116367745Y-69918010D01*
X116415034Y-69762120D01*
X116431001Y-69600000D01*
X116431001Y-68896122D01*
X122970825Y-68896122D01*
X123035425Y-69109094D01*
X123185469Y-69414329D01*
X123392178Y-69684427D01*
X123647609Y-69909008D01*
X123941946Y-70079442D01*
X124263877Y-70189179D01*
X124533000Y-70071600D01*
X124533000Y-68627000D01*
X124787000Y-68627000D01*
X124787000Y-70071600D01*
X125056123Y-70189179D01*
X125378054Y-70079442D01*
X125672391Y-69909008D01*
X125927822Y-69684427D01*
X126134531Y-69414329D01*
X126284575Y-69109094D01*
X126349175Y-68896122D01*
X126324450Y-68839755D01*
X131373000Y-68839755D01*
X131373000Y-69160245D01*
X131435525Y-69474578D01*
X131558172Y-69770673D01*
X131736227Y-70037152D01*
X131962848Y-70263773D01*
X132229327Y-70441828D01*
X132525422Y-70564475D01*
X132839755Y-70627000D01*
X133160245Y-70627000D01*
X133474578Y-70564475D01*
X133770673Y-70441828D01*
X134037152Y-70263773D01*
X134263773Y-70037152D01*
X134441828Y-69770673D01*
X134564475Y-69474578D01*
X134627000Y-69160245D01*
X134627000Y-68839755D01*
X135373000Y-68839755D01*
X135373000Y-69160245D01*
X135435525Y-69474578D01*
X135558172Y-69770673D01*
X135736227Y-70037152D01*
X135962848Y-70263773D01*
X136229327Y-70441828D01*
X136525422Y-70564475D01*
X136839755Y-70627000D01*
X137160245Y-70627000D01*
X137474578Y-70564475D01*
X137770673Y-70441828D01*
X138037152Y-70263773D01*
X138263773Y-70037152D01*
X138441828Y-69770673D01*
X138564475Y-69474578D01*
X138627000Y-69160245D01*
X138627000Y-68839755D01*
X138564475Y-68525422D01*
X138441828Y-68229327D01*
X138263773Y-67962848D01*
X138037152Y-67736227D01*
X137790082Y-67571141D01*
X137813097Y-67492702D01*
X137000000Y-66679605D01*
X136186903Y-67492702D01*
X136209918Y-67571141D01*
X135962848Y-67736227D01*
X135736227Y-67962848D01*
X135558172Y-68229327D01*
X135435525Y-68525422D01*
X135373000Y-68839755D01*
X134627000Y-68839755D01*
X134564475Y-68525422D01*
X134441828Y-68229327D01*
X134263773Y-67962848D01*
X134037152Y-67736227D01*
X133790082Y-67571141D01*
X133813097Y-67492702D01*
X133000000Y-66679605D01*
X132186903Y-67492702D01*
X132209918Y-67571141D01*
X131962848Y-67736227D01*
X131736227Y-67962848D01*
X131558172Y-68229327D01*
X131435525Y-68525422D01*
X131373000Y-68839755D01*
X126324450Y-68839755D01*
X126231125Y-68627000D01*
X124787000Y-68627000D01*
X124533000Y-68627000D01*
X123088875Y-68627000D01*
X122970825Y-68896122D01*
X116431001Y-68896122D01*
X116431001Y-68103878D01*
X122970825Y-68103878D01*
X123088875Y-68373000D01*
X124533000Y-68373000D01*
X124533000Y-66928400D01*
X124787000Y-66928400D01*
X124787000Y-68373000D01*
X126231125Y-68373000D01*
X126349175Y-68103878D01*
X126284575Y-67890906D01*
X126134531Y-67585671D01*
X125927822Y-67315573D01*
X125672391Y-67090992D01*
X125378054Y-66920558D01*
X125056123Y-66810821D01*
X124787000Y-66928400D01*
X124533000Y-66928400D01*
X124263877Y-66810821D01*
X123941946Y-66920558D01*
X123647609Y-67090992D01*
X123392178Y-67315573D01*
X123185469Y-67585671D01*
X123035425Y-67890906D01*
X122970825Y-68103878D01*
X116431001Y-68103878D01*
X116431001Y-67400000D01*
X116415034Y-67237880D01*
X116367745Y-67081990D01*
X116290952Y-66938321D01*
X116187606Y-66812394D01*
X116061679Y-66709048D01*
X115918010Y-66632255D01*
X115827000Y-66604647D01*
X115827000Y-66570512D01*
X131559783Y-66570512D01*
X131601213Y-66850130D01*
X131696397Y-67116292D01*
X131763329Y-67241514D01*
X132007298Y-67313097D01*
X132820395Y-66500000D01*
X133179605Y-66500000D01*
X133992702Y-67313097D01*
X134236671Y-67241514D01*
X134357571Y-66986004D01*
X134426300Y-66711816D01*
X134433265Y-66570512D01*
X135559783Y-66570512D01*
X135601213Y-66850130D01*
X135696397Y-67116292D01*
X135763329Y-67241514D01*
X136007298Y-67313097D01*
X136820395Y-66500000D01*
X137179605Y-66500000D01*
X137992702Y-67313097D01*
X138236671Y-67241514D01*
X138357571Y-66986004D01*
X138426300Y-66711816D01*
X138440217Y-66429488D01*
X138398787Y-66149870D01*
X138303603Y-65883708D01*
X138236671Y-65758486D01*
X137992702Y-65686903D01*
X137179605Y-66500000D01*
X136820395Y-66500000D01*
X136007298Y-65686903D01*
X135763329Y-65758486D01*
X135642429Y-66013996D01*
X135573700Y-66288184D01*
X135559783Y-66570512D01*
X134433265Y-66570512D01*
X134440217Y-66429488D01*
X134398787Y-66149870D01*
X134303603Y-65883708D01*
X134236671Y-65758486D01*
X133992702Y-65686903D01*
X133179605Y-66500000D01*
X132820395Y-66500000D01*
X132007298Y-65686903D01*
X131763329Y-65758486D01*
X131642429Y-66013996D01*
X131573700Y-66288184D01*
X131559783Y-66570512D01*
X115827000Y-66570512D01*
X115827000Y-65507298D01*
X132186903Y-65507298D01*
X133000000Y-66320395D01*
X133813097Y-65507298D01*
X136186903Y-65507298D01*
X137000000Y-66320395D01*
X137813097Y-65507298D01*
X137741514Y-65263329D01*
X137486004Y-65142429D01*
X137211816Y-65073700D01*
X136929488Y-65059783D01*
X136649870Y-65101213D01*
X136383708Y-65196397D01*
X136258486Y-65263329D01*
X136186903Y-65507298D01*
X133813097Y-65507298D01*
X133741514Y-65263329D01*
X133486004Y-65142429D01*
X133211816Y-65073700D01*
X132929488Y-65059783D01*
X132649870Y-65101213D01*
X132383708Y-65196397D01*
X132258486Y-65263329D01*
X132186903Y-65507298D01*
X115827000Y-65507298D01*
X115827000Y-65402961D01*
X116075763Y-65269994D01*
X116369187Y-65029187D01*
X116609994Y-64735763D01*
X116666368Y-64630295D01*
X116741825Y-64622863D01*
X116797039Y-64606114D01*
X116925991Y-64566997D01*
X117094363Y-64477000D01*
X119389480Y-64477000D01*
X119432255Y-64618010D01*
X119509048Y-64761679D01*
X119612394Y-64887606D01*
X119738321Y-64990952D01*
X119881990Y-65067745D01*
X120037880Y-65115034D01*
X120200000Y-65131001D01*
X121800000Y-65131001D01*
X121962120Y-65115034D01*
X122118010Y-65067745D01*
X122261679Y-64990952D01*
X122387606Y-64887606D01*
X122490952Y-64761679D01*
X122567745Y-64618010D01*
X122610520Y-64477000D01*
X124434807Y-64477000D01*
X124482800Y-64481727D01*
X124674325Y-64462863D01*
X124676774Y-64462120D01*
X124858491Y-64406997D01*
X125028218Y-64316276D01*
X125176986Y-64194186D01*
X125207584Y-64156902D01*
X125721377Y-63643109D01*
X152118519Y-63643109D01*
X152239186Y-63873000D01*
X153433000Y-63873000D01*
X153433000Y-62679845D01*
X153203110Y-62558524D01*
X153055901Y-62603175D01*
X152793080Y-62728359D01*
X152559731Y-62902412D01*
X152364822Y-63118645D01*
X152215843Y-63368748D01*
X152118519Y-63643109D01*
X125721377Y-63643109D01*
X127656907Y-61707580D01*
X127694186Y-61676986D01*
X127816276Y-61528218D01*
X127906997Y-61358491D01*
X127962863Y-61174325D01*
X127969709Y-61104823D01*
X128040921Y-61066759D01*
X128311885Y-60844385D01*
X128534259Y-60573421D01*
X128699498Y-60264280D01*
X128801252Y-59928843D01*
X128835610Y-59580000D01*
X128801252Y-59231157D01*
X128699498Y-58895720D01*
X128534259Y-58586579D01*
X128311885Y-58315615D01*
X128145753Y-58179274D01*
X128181315Y-58149437D01*
X128375969Y-57906923D01*
X128519571Y-57631094D01*
X128590563Y-57412980D01*
X128470594Y-57167000D01*
X127127000Y-57167000D01*
X127127000Y-57187000D01*
X126873000Y-57187000D01*
X126873000Y-57167000D01*
X125529406Y-57167000D01*
X125409437Y-57412980D01*
X125480429Y-57631094D01*
X125624031Y-57906923D01*
X125818685Y-58149437D01*
X125854247Y-58179274D01*
X125688115Y-58315615D01*
X125465741Y-58586579D01*
X125300502Y-58895720D01*
X125198748Y-59231157D01*
X125164390Y-59580000D01*
X125198748Y-59928843D01*
X125300502Y-60264280D01*
X125465741Y-60573421D01*
X125688115Y-60844385D01*
X125725801Y-60875313D01*
X124078114Y-62523000D01*
X122610520Y-62523000D01*
X122567745Y-62381990D01*
X122490952Y-62238321D01*
X122387606Y-62112394D01*
X122261679Y-62009048D01*
X122118010Y-61932255D01*
X122108866Y-61929481D01*
X122108977Y-61929370D01*
X121992704Y-61813097D01*
X122236671Y-61741514D01*
X122357571Y-61486004D01*
X122426300Y-61211816D01*
X122440217Y-60929488D01*
X122398787Y-60649870D01*
X122303603Y-60383708D01*
X122236671Y-60258486D01*
X121992702Y-60186903D01*
X121179605Y-61000000D01*
X121193748Y-61014143D01*
X121014143Y-61193748D01*
X121000000Y-61179605D01*
X120985858Y-61193748D01*
X120806253Y-61014143D01*
X120820395Y-61000000D01*
X120007298Y-60186903D01*
X119763329Y-60258486D01*
X119642429Y-60513996D01*
X119573700Y-60788184D01*
X119559783Y-61070512D01*
X119601213Y-61350130D01*
X119696397Y-61616292D01*
X119763329Y-61741514D01*
X120007296Y-61813097D01*
X119891023Y-61929370D01*
X119891134Y-61929481D01*
X119881990Y-61932255D01*
X119738321Y-62009048D01*
X119612394Y-62112394D01*
X119509048Y-62238321D01*
X119432255Y-62381990D01*
X119389480Y-62523000D01*
X116758290Y-62523000D01*
X116710299Y-62518273D01*
X116662309Y-62523000D01*
X116662307Y-62523000D01*
X116567409Y-62532347D01*
X116369187Y-62290813D01*
X116075763Y-62050006D01*
X115740999Y-61871071D01*
X115377758Y-61760883D01*
X115094658Y-61733000D01*
X114905342Y-61733000D01*
X114622242Y-61760883D01*
X114259001Y-61871071D01*
X113924237Y-62050006D01*
X113630813Y-62290813D01*
X113390006Y-62584237D01*
X113211071Y-62919001D01*
X113100883Y-63282242D01*
X113063677Y-63660000D01*
X113100883Y-64037758D01*
X113173001Y-64275499D01*
X113173000Y-66604647D01*
X113081990Y-66632255D01*
X112938321Y-66709048D01*
X112812394Y-66812394D01*
X112709048Y-66938321D01*
X112632255Y-67081990D01*
X112584966Y-67237880D01*
X112568999Y-67400000D01*
X112568999Y-67595681D01*
X112404282Y-67683724D01*
X112255514Y-67805814D01*
X112133424Y-67954582D01*
X112042703Y-68124309D01*
X111986837Y-68308475D01*
X111967973Y-68500000D01*
X111972700Y-68547993D01*
X111972700Y-68604013D01*
X109531166Y-71045548D01*
X109384923Y-70692488D01*
X109152149Y-70344116D01*
X108855884Y-70047851D01*
X108507512Y-69815077D01*
X108120423Y-69654739D01*
X107709491Y-69573000D01*
X107290509Y-69573000D01*
X106879577Y-69654739D01*
X106492488Y-69815077D01*
X106144116Y-70047851D01*
X105847851Y-70344116D01*
X105615077Y-70692488D01*
X105454739Y-71079577D01*
X105373000Y-71490509D01*
X105373000Y-71909491D01*
X105454739Y-72320423D01*
X105615077Y-72707512D01*
X105847851Y-73055884D01*
X106144116Y-73352149D01*
X106492488Y-73584923D01*
X106845548Y-73731166D01*
X104830241Y-75746472D01*
X104664645Y-75580876D01*
X104365409Y-75380934D01*
X104032916Y-75243211D01*
X103679944Y-75173000D01*
X103320056Y-75173000D01*
X102967084Y-75243211D01*
X102634591Y-75380934D01*
X102335355Y-75580876D01*
X102127000Y-75789231D01*
X102127000Y-66490509D01*
X105373000Y-66490509D01*
X105373000Y-66909491D01*
X105454739Y-67320423D01*
X105615077Y-67707512D01*
X105847851Y-68055884D01*
X106144116Y-68352149D01*
X106492488Y-68584923D01*
X106879577Y-68745261D01*
X107290509Y-68827000D01*
X107709491Y-68827000D01*
X108120423Y-68745261D01*
X108507512Y-68584923D01*
X108855884Y-68352149D01*
X109152149Y-68055884D01*
X109384923Y-67707512D01*
X109545261Y-67320423D01*
X109627000Y-66909491D01*
X109627000Y-66490509D01*
X109545261Y-66079577D01*
X109384923Y-65692488D01*
X109152149Y-65344116D01*
X108855884Y-65047851D01*
X108507512Y-64815077D01*
X108120423Y-64654739D01*
X107709491Y-64573000D01*
X107290509Y-64573000D01*
X106879577Y-64654739D01*
X106492488Y-64815077D01*
X106144116Y-65047851D01*
X105847851Y-65344116D01*
X105615077Y-65692488D01*
X105454739Y-66079577D01*
X105373000Y-66490509D01*
X102127000Y-66490509D01*
X102127000Y-63000000D01*
X105561928Y-63000000D01*
X105574188Y-63124482D01*
X105610498Y-63244180D01*
X105669463Y-63354494D01*
X105748815Y-63451185D01*
X105845506Y-63530537D01*
X105955820Y-63589502D01*
X106075518Y-63625812D01*
X106200000Y-63638072D01*
X107214250Y-63635000D01*
X107373000Y-63476250D01*
X107373000Y-61827000D01*
X107627000Y-61827000D01*
X107627000Y-63476250D01*
X107785750Y-63635000D01*
X108800000Y-63638072D01*
X108924482Y-63625812D01*
X109044180Y-63589502D01*
X109154494Y-63530537D01*
X109251185Y-63451185D01*
X109330537Y-63354494D01*
X109389502Y-63244180D01*
X109425812Y-63124482D01*
X109438072Y-63000000D01*
X109435000Y-61985750D01*
X109276250Y-61827000D01*
X107627000Y-61827000D01*
X107373000Y-61827000D01*
X105723750Y-61827000D01*
X105565000Y-61985750D01*
X105561928Y-63000000D01*
X102127000Y-63000000D01*
X102127000Y-60400000D01*
X105561928Y-60400000D01*
X105565000Y-61414250D01*
X105723750Y-61573000D01*
X107373000Y-61573000D01*
X107373000Y-59923750D01*
X107627000Y-59923750D01*
X107627000Y-61573000D01*
X109276250Y-61573000D01*
X109435000Y-61414250D01*
X109438072Y-60400000D01*
X109425812Y-60275518D01*
X109389502Y-60155820D01*
X109330537Y-60045506D01*
X109299181Y-60007298D01*
X120186903Y-60007298D01*
X121000000Y-60820395D01*
X121813097Y-60007298D01*
X121741514Y-59763329D01*
X121486004Y-59642429D01*
X121211816Y-59573700D01*
X120929488Y-59559783D01*
X120649870Y-59601213D01*
X120383708Y-59696397D01*
X120258486Y-59763329D01*
X120186903Y-60007298D01*
X109299181Y-60007298D01*
X109251185Y-59948815D01*
X109154494Y-59869463D01*
X109044180Y-59810498D01*
X108924482Y-59774188D01*
X108800000Y-59761928D01*
X107785750Y-59765000D01*
X107627000Y-59923750D01*
X107373000Y-59923750D01*
X107214250Y-59765000D01*
X106200000Y-59761928D01*
X106075518Y-59774188D01*
X105955820Y-59810498D01*
X105845506Y-59869463D01*
X105748815Y-59948815D01*
X105669463Y-60045506D01*
X105610498Y-60155820D01*
X105574188Y-60275518D01*
X105561928Y-60400000D01*
X102127000Y-60400000D01*
X102127000Y-57322038D01*
X102432937Y-57627975D01*
X103092500Y-58068681D01*
X103825367Y-58372245D01*
X104603375Y-58527000D01*
X105396625Y-58527000D01*
X106174633Y-58372245D01*
X106907500Y-58068681D01*
X107567063Y-57627975D01*
X108127975Y-57067063D01*
X108177661Y-56992702D01*
X120186903Y-56992702D01*
X120258486Y-57236671D01*
X120513996Y-57357571D01*
X120788184Y-57426300D01*
X121070512Y-57440217D01*
X121350130Y-57398787D01*
X121616292Y-57303603D01*
X121741514Y-57236671D01*
X121799219Y-57040000D01*
X141070531Y-57040000D01*
X141120287Y-57545180D01*
X141267643Y-58030947D01*
X141506935Y-58478632D01*
X141828969Y-58871031D01*
X142221368Y-59193065D01*
X142669053Y-59432357D01*
X143154820Y-59579713D01*
X143533400Y-59617000D01*
X143786600Y-59617000D01*
X144165180Y-59579713D01*
X144650947Y-59432357D01*
X145098632Y-59193065D01*
X145491031Y-58871031D01*
X145813065Y-58478632D01*
X146052357Y-58030947D01*
X146199713Y-57545180D01*
X146249469Y-57040000D01*
X146199713Y-56534820D01*
X146052357Y-56049053D01*
X145813065Y-55601368D01*
X145491031Y-55208969D01*
X145098632Y-54886935D01*
X144650947Y-54647643D01*
X144165180Y-54500287D01*
X143786600Y-54463000D01*
X143533400Y-54463000D01*
X143154820Y-54500287D01*
X142669053Y-54647643D01*
X142221368Y-54886935D01*
X141828969Y-55208969D01*
X141506935Y-55601368D01*
X141267643Y-56049053D01*
X141120287Y-56534820D01*
X141070531Y-57040000D01*
X121799219Y-57040000D01*
X121813097Y-56992702D01*
X121000000Y-56179605D01*
X120186903Y-56992702D01*
X108177661Y-56992702D01*
X108568681Y-56407500D01*
X108872245Y-55674633D01*
X109027000Y-54896625D01*
X109027000Y-54103375D01*
X108872245Y-53325367D01*
X108568681Y-52592500D01*
X108257644Y-52127000D01*
X113118601Y-52127000D01*
X113084966Y-52237880D01*
X113084966Y-52237880D01*
G37*
X113084966Y-52237880D02*
X113068999Y-52400000D01*
X113068999Y-54600000D01*
X113084966Y-54762120D01*
X113132255Y-54918010D01*
X113209048Y-55061679D01*
X113312394Y-55187606D01*
X113438321Y-55290952D01*
X113581990Y-55367745D01*
X113737880Y-55415034D01*
X113900000Y-55431001D01*
X116100000Y-55431001D01*
X116262120Y-55415034D01*
X116418010Y-55367745D01*
X116561679Y-55290952D01*
X116687606Y-55187606D01*
X116790952Y-55061679D01*
X116867745Y-54918010D01*
X116915034Y-54762120D01*
X116931001Y-54600000D01*
X116931001Y-52400000D01*
X116915034Y-52237880D01*
X116881399Y-52127000D01*
X119600407Y-52127000D01*
X119509048Y-52238321D01*
X119432255Y-52381990D01*
X119384966Y-52537880D01*
X119368999Y-52700000D01*
X119368999Y-53461723D01*
X119365229Y-53500000D01*
X119368999Y-53538277D01*
X119368999Y-54300000D01*
X119384966Y-54462120D01*
X119432255Y-54618010D01*
X119509048Y-54761679D01*
X119612394Y-54887606D01*
X119738321Y-54990952D01*
X119881990Y-55067745D01*
X119891134Y-55070519D01*
X119891023Y-55070630D01*
X120007296Y-55186903D01*
X119763329Y-55258486D01*
X119642429Y-55513996D01*
X119573700Y-55788184D01*
X119559783Y-56070512D01*
X119601213Y-56350130D01*
X119696397Y-56616292D01*
X119763329Y-56741514D01*
X120007298Y-56813097D01*
X120820395Y-56000000D01*
X120806253Y-55985858D01*
X120985858Y-55806253D01*
X121000000Y-55820395D01*
X121014143Y-55806253D01*
X121193748Y-55985858D01*
X121179605Y-56000000D01*
X121992702Y-56813097D01*
X122236671Y-56741514D01*
X122357571Y-56486004D01*
X122426300Y-56211816D01*
X122440217Y-55929488D01*
X122398787Y-55649870D01*
X122316220Y-55418988D01*
X122333421Y-55428182D01*
X122724937Y-55546947D01*
X123030071Y-55577000D01*
X125181261Y-55577000D01*
X125184966Y-55614620D01*
X125232255Y-55770510D01*
X125309048Y-55914179D01*
X125412394Y-56040106D01*
X125538321Y-56143452D01*
X125617438Y-56185741D01*
X125480429Y-56448906D01*
X125409437Y-56667020D01*
X125529406Y-56913000D01*
X126873000Y-56913000D01*
X126873000Y-56893000D01*
X127127000Y-56893000D01*
X127127000Y-56913000D01*
X128470594Y-56913000D01*
X128590563Y-56667020D01*
X128519571Y-56448906D01*
X128382562Y-56185741D01*
X128461679Y-56143452D01*
X128587606Y-56040106D01*
X128690952Y-55914179D01*
X128767745Y-55770510D01*
X128815034Y-55614620D01*
X128831001Y-55452500D01*
X128831001Y-53547500D01*
X128815034Y-53385380D01*
X128767745Y-53229490D01*
X128690952Y-53085821D01*
X128587606Y-52959894D01*
X128461679Y-52856548D01*
X128318010Y-52779755D01*
X128162120Y-52732466D01*
X128097359Y-52726088D01*
X128070318Y-52675498D01*
X127875806Y-52438485D01*
X127564321Y-52127000D01*
X147343744Y-52127000D01*
X147314886Y-52420000D01*
X147347265Y-52748749D01*
X147443158Y-53064865D01*
X147598879Y-53356199D01*
X147808444Y-53611556D01*
X147904029Y-53690000D01*
X147808444Y-53768444D01*
X147598879Y-54023801D01*
X147443158Y-54315135D01*
X147347265Y-54631251D01*
X147314886Y-54960000D01*
X147347265Y-55288749D01*
X147443158Y-55604865D01*
X147598879Y-55896199D01*
X147665696Y-55977616D01*
X147562394Y-56062394D01*
X147459048Y-56188321D01*
X147382255Y-56331990D01*
X147334966Y-56487880D01*
X147318999Y-56650000D01*
X147318999Y-58350000D01*
X147334966Y-58512120D01*
X147382255Y-58668010D01*
X147459048Y-58811679D01*
X147562394Y-58937606D01*
X147688321Y-59040952D01*
X147831990Y-59117745D01*
X147987880Y-59165034D01*
X148150000Y-59181001D01*
X149850000Y-59181001D01*
X150012120Y-59165034D01*
X150168010Y-59117745D01*
X150311679Y-59040952D01*
X150437606Y-58937606D01*
X150540952Y-58811679D01*
X150617745Y-58668010D01*
X150665034Y-58512120D01*
X150675369Y-58407186D01*
X150675991Y-58406997D01*
X150845718Y-58316276D01*
X150994486Y-58194186D01*
X151025084Y-58156902D01*
X152375387Y-56806600D01*
X168961162Y-56806600D01*
X168953000Y-56847634D01*
X168953000Y-57152366D01*
X169012451Y-57451243D01*
X169129067Y-57732779D01*
X169298367Y-57986155D01*
X169513845Y-58201633D01*
X169767221Y-58370933D01*
X170048757Y-58487549D01*
X170150522Y-58507792D01*
X168876014Y-59782300D01*
X161928693Y-59782300D01*
X161880700Y-59777573D01*
X161689174Y-59796437D01*
X161597092Y-59824370D01*
X161505009Y-59852303D01*
X161335282Y-59943024D01*
X161186514Y-60065114D01*
X161155920Y-60102393D01*
X158916222Y-62342092D01*
X158722383Y-62323000D01*
X158557617Y-62323000D01*
X158311251Y-62347265D01*
X157995135Y-62443158D01*
X157703801Y-62598879D01*
X157448444Y-62808444D01*
X157370000Y-62904029D01*
X157291556Y-62808444D01*
X157036199Y-62598879D01*
X156744865Y-62443158D01*
X156428749Y-62347265D01*
X156182383Y-62323000D01*
X156017617Y-62323000D01*
X155771251Y-62347265D01*
X155455135Y-62443158D01*
X155163801Y-62598879D01*
X154908444Y-62808444D01*
X154702150Y-63059815D01*
X154560269Y-62902412D01*
X154326920Y-62728359D01*
X154064099Y-62603175D01*
X153916890Y-62558524D01*
X153687000Y-62679845D01*
X153687000Y-63873000D01*
X153707000Y-63873000D01*
X153707000Y-64127000D01*
X153687000Y-64127000D01*
X153687000Y-64147000D01*
X153433000Y-64147000D01*
X153433000Y-64127000D01*
X152239186Y-64127000D01*
X152136151Y-64323300D01*
X147345393Y-64323300D01*
X147297400Y-64318573D01*
X147105874Y-64337437D01*
X147013792Y-64365370D01*
X146921709Y-64393303D01*
X146751982Y-64484024D01*
X146603214Y-64606114D01*
X146572616Y-64643398D01*
X138663531Y-72552483D01*
X138624936Y-72494721D01*
X138405279Y-72275064D01*
X138146989Y-72102481D01*
X137859994Y-71983604D01*
X137555321Y-71923000D01*
X137244679Y-71923000D01*
X136940006Y-71983604D01*
X136653011Y-72102481D01*
X136394721Y-72275064D01*
X136175064Y-72494721D01*
X136002481Y-72753011D01*
X135883604Y-73040006D01*
X135823000Y-73344679D01*
X135823000Y-73655321D01*
X135883604Y-73959994D01*
X136002481Y-74246989D01*
X136175064Y-74505279D01*
X136292576Y-74622791D01*
X136133133Y-74729327D01*
X135962227Y-74900233D01*
X135827947Y-75101198D01*
X135735453Y-75324497D01*
X135688300Y-75561551D01*
X135688300Y-75803249D01*
X135735453Y-76040303D01*
X135827947Y-76263602D01*
X135962227Y-76464567D01*
X135969337Y-76471677D01*
X133568314Y-78872700D01*
X133527993Y-78872700D01*
X133480000Y-78867973D01*
X133432007Y-78872700D01*
X133288475Y-78886837D01*
X133104309Y-78942703D01*
X132934582Y-79033424D01*
X132785814Y-79155514D01*
X132663724Y-79304282D01*
X132573003Y-79474009D01*
X132517137Y-79658175D01*
X132503499Y-79796637D01*
X132323972Y-79943971D01*
X132120654Y-80191714D01*
X131969575Y-80474362D01*
X131876542Y-80781052D01*
X131853000Y-81020075D01*
X131853000Y-81979924D01*
X131876542Y-82218947D01*
X131969575Y-82525637D01*
X132120654Y-82808285D01*
X132323971Y-83056029D01*
X132571714Y-83259346D01*
X132854362Y-83410425D01*
X133161052Y-83503458D01*
X133480000Y-83534872D01*
X133798947Y-83503458D01*
X134105637Y-83410425D01*
X134388285Y-83259346D01*
X134636029Y-83056029D01*
X134750000Y-82917154D01*
X134804748Y-82983865D01*
X127695214Y-90093400D01*
X122690105Y-90093400D01*
X122737420Y-90071037D01*
X122963414Y-89903519D01*
X123152385Y-89695131D01*
X123297070Y-89453881D01*
X123391909Y-89189040D01*
X123270624Y-88967000D01*
X122127000Y-88967000D01*
X122127000Y-88987000D01*
X121873000Y-88987000D01*
X121873000Y-88967000D01*
X120729376Y-88967000D01*
X120608091Y-89189040D01*
X120702930Y-89453881D01*
X120847615Y-89695131D01*
X121036586Y-89903519D01*
X121262580Y-90071037D01*
X121309895Y-90093400D01*
X115690105Y-90093400D01*
X115737420Y-90071037D01*
X115963414Y-89903519D01*
X116152385Y-89695131D01*
X116297070Y-89453881D01*
X116391909Y-89189040D01*
X116270624Y-88967000D01*
X115127000Y-88967000D01*
X115127000Y-88987000D01*
X114873000Y-88987000D01*
X114873000Y-88967000D01*
X113729376Y-88967000D01*
X113608091Y-89189040D01*
X113702930Y-89453881D01*
X113847615Y-89695131D01*
X114036586Y-89903519D01*
X114262580Y-90071037D01*
X114309895Y-90093400D01*
X112777792Y-90093400D01*
X112729799Y-90088673D01*
X112538274Y-90107537D01*
X112354109Y-90163403D01*
X112184382Y-90254124D01*
X112035614Y-90376214D01*
X112005020Y-90413493D01*
X109667351Y-92751162D01*
X109619066Y-92634591D01*
X109419124Y-92335355D01*
X109164645Y-92080876D01*
X108865409Y-91880934D01*
X108532916Y-91743211D01*
X108179944Y-91673000D01*
X107820056Y-91673000D01*
X107467084Y-91743211D01*
X107134591Y-91880934D01*
X106835355Y-92080876D01*
X106580876Y-92335355D01*
X106380934Y-92634591D01*
X106243211Y-92967084D01*
X106173000Y-93320056D01*
X106173000Y-93679944D01*
X106243211Y-94032916D01*
X106380934Y-94365409D01*
X106580876Y-94664645D01*
X106738072Y-94821841D01*
X105852998Y-95706916D01*
X105815714Y-95737514D01*
X105693624Y-95886282D01*
X105632841Y-96000000D01*
X105602903Y-96056010D01*
X105547037Y-96240175D01*
X105528173Y-96431700D01*
X105532900Y-96479693D01*
X105532901Y-104025897D01*
X105528173Y-104073900D01*
X105547037Y-104265425D01*
X105602903Y-104449590D01*
X105693625Y-104619318D01*
X105761116Y-104701556D01*
X105815715Y-104768086D01*
X105852993Y-104798679D01*
X106735272Y-105680959D01*
X106580876Y-105835355D01*
X106380934Y-106134591D01*
X106243211Y-106467084D01*
X106173000Y-106820056D01*
X106173000Y-107179944D01*
X106243211Y-107532916D01*
X106380934Y-107865409D01*
X106580876Y-108164645D01*
X106673001Y-108256770D01*
X106673000Y-112243231D01*
X106580876Y-112335355D01*
X106380934Y-112634591D01*
X106243211Y-112967084D01*
X106173000Y-113320056D01*
X106173000Y-113679944D01*
X106243211Y-114032916D01*
X106380934Y-114365409D01*
X106580876Y-114664645D01*
X106789231Y-114873000D01*
X104710769Y-114873000D01*
X104919124Y-114664645D01*
X105119066Y-114365409D01*
X105256789Y-114032916D01*
X105327000Y-113679944D01*
X105327000Y-113320056D01*
X105256789Y-112967084D01*
X105119066Y-112634591D01*
X104919124Y-112335355D01*
X104827000Y-112243231D01*
X104827000Y-108256769D01*
X104919124Y-108164645D01*
X105119066Y-107865409D01*
X105256789Y-107532916D01*
X105327000Y-107179944D01*
X105327000Y-106820056D01*
X105256789Y-106467084D01*
X105119066Y-106134591D01*
X104919124Y-105835355D01*
X104664645Y-105580876D01*
X104365409Y-105380934D01*
X104049306Y-105250000D01*
X104365409Y-105119066D01*
X104664645Y-104919124D01*
X104919124Y-104664645D01*
X105119066Y-104365409D01*
X105256789Y-104032916D01*
X105327000Y-103679944D01*
X105327000Y-103320056D01*
X105256789Y-102967084D01*
X105119066Y-102634591D01*
X104919124Y-102335355D01*
X104664645Y-102080876D01*
X104365409Y-101880934D01*
X104032916Y-101743211D01*
X103679944Y-101673000D01*
X103320056Y-101673000D01*
X102967084Y-101743211D01*
X102634591Y-101880934D01*
X102335355Y-102080876D01*
X102127000Y-102289231D01*
X102127000Y-98210769D01*
X102335355Y-98419124D01*
X102634591Y-98619066D01*
X102967084Y-98756789D01*
X103320056Y-98827000D01*
X103679944Y-98827000D01*
X104032916Y-98756789D01*
X104365409Y-98619066D01*
X104664645Y-98419124D01*
X104919124Y-98164645D01*
X105119066Y-97865409D01*
X105256789Y-97532916D01*
X105327000Y-97179944D01*
X105327000Y-96820056D01*
X105256789Y-96467084D01*
X105119066Y-96134591D01*
X104919124Y-95835355D01*
X104664645Y-95580876D01*
X104365409Y-95380934D01*
X104049306Y-95250000D01*
X104365409Y-95119066D01*
X104664645Y-94919124D01*
X104919124Y-94664645D01*
X105119066Y-94365409D01*
X105256789Y-94032916D01*
X105327000Y-93679944D01*
X105327000Y-93320056D01*
X105256789Y-92967084D01*
X105119066Y-92634591D01*
X104919124Y-92335355D01*
X104664645Y-92080876D01*
X104365409Y-91880934D01*
X104032916Y-91743211D01*
X103679944Y-91673000D01*
X103320056Y-91673000D01*
X102967084Y-91743211D01*
X102634591Y-91880934D01*
X102335355Y-92080876D01*
X102127000Y-92289231D01*
X102127000Y-88210769D01*
X102335355Y-88419124D01*
X102634591Y-88619066D01*
X102967084Y-88756789D01*
X103320056Y-88827000D01*
X103679944Y-88827000D01*
X104032916Y-88756789D01*
X104365409Y-88619066D01*
X104664645Y-88419124D01*
X104919124Y-88164645D01*
X105119066Y-87865409D01*
X105256789Y-87532916D01*
X105327000Y-87179944D01*
X105327000Y-86820056D01*
X105256789Y-86467084D01*
X105119066Y-86134591D01*
X104919124Y-85835355D01*
X104664645Y-85580876D01*
X104365409Y-85380934D01*
X104049306Y-85250000D01*
X104365409Y-85119066D01*
X104664645Y-84919124D01*
X104919124Y-84664645D01*
X105119066Y-84365409D01*
X105256789Y-84032916D01*
X105327000Y-83679944D01*
X105327000Y-83320056D01*
X106173000Y-83320056D01*
X106173000Y-83679944D01*
X106243211Y-84032916D01*
X106380934Y-84365409D01*
X106580876Y-84664645D01*
X106835355Y-84919124D01*
X107134591Y-85119066D01*
X107450694Y-85250000D01*
X107134591Y-85380934D01*
X106835355Y-85580876D01*
X106580876Y-85835355D01*
X106380934Y-86134591D01*
X106243211Y-86467084D01*
X106173000Y-86820056D01*
X106173000Y-87179944D01*
X106243211Y-87532916D01*
X106380934Y-87865409D01*
X106580876Y-88164645D01*
X106835355Y-88419124D01*
X107134591Y-88619066D01*
X107467084Y-88756789D01*
X107820056Y-88827000D01*
X108179944Y-88827000D01*
X108532916Y-88756789D01*
X108865409Y-88619066D01*
X109057134Y-88490960D01*
X113608091Y-88490960D01*
X113729376Y-88713000D01*
X114873000Y-88713000D01*
X114873000Y-87570085D01*
X115127000Y-87570085D01*
X115127000Y-88713000D01*
X116270624Y-88713000D01*
X116391909Y-88490960D01*
X120608091Y-88490960D01*
X120729376Y-88713000D01*
X121873000Y-88713000D01*
X121873000Y-87570085D01*
X122127000Y-87570085D01*
X122127000Y-88713000D01*
X123270624Y-88713000D01*
X123391909Y-88490960D01*
X123297070Y-88226119D01*
X123152385Y-87984869D01*
X122963414Y-87776481D01*
X122737420Y-87608963D01*
X122483087Y-87488754D01*
X122349039Y-87448096D01*
X122127000Y-87570085D01*
X121873000Y-87570085D01*
X121650961Y-87448096D01*
X121516913Y-87488754D01*
X121262580Y-87608963D01*
X121036586Y-87776481D01*
X120847615Y-87984869D01*
X120702930Y-88226119D01*
X120608091Y-88490960D01*
X116391909Y-88490960D01*
X116297070Y-88226119D01*
X116152385Y-87984869D01*
X115963414Y-87776481D01*
X115737420Y-87608963D01*
X115483087Y-87488754D01*
X115349039Y-87448096D01*
X115127000Y-87570085D01*
X114873000Y-87570085D01*
X114650961Y-87448096D01*
X114516913Y-87488754D01*
X114262580Y-87608963D01*
X114036586Y-87776481D01*
X113847615Y-87984869D01*
X113702930Y-88226119D01*
X113608091Y-88490960D01*
X109057134Y-88490960D01*
X109164645Y-88419124D01*
X109419124Y-88164645D01*
X109619066Y-87865409D01*
X109756789Y-87532916D01*
X109827000Y-87179944D01*
X109827000Y-86820056D01*
X109782972Y-86598714D01*
X110372646Y-86009040D01*
X113608091Y-86009040D01*
X113702930Y-86273881D01*
X113847615Y-86515131D01*
X114036586Y-86723519D01*
X114262580Y-86891037D01*
X114516913Y-87011246D01*
X114650961Y-87051904D01*
X114873000Y-86929915D01*
X114873000Y-85787000D01*
X115127000Y-85787000D01*
X115127000Y-86929915D01*
X115349039Y-87051904D01*
X115483087Y-87011246D01*
X115737420Y-86891037D01*
X115963414Y-86723519D01*
X116152385Y-86515131D01*
X116297070Y-86273881D01*
X116391909Y-86009040D01*
X120608091Y-86009040D01*
X120702930Y-86273881D01*
X120847615Y-86515131D01*
X121036586Y-86723519D01*
X121262580Y-86891037D01*
X121516913Y-87011246D01*
X121650961Y-87051904D01*
X121873000Y-86929915D01*
X121873000Y-85787000D01*
X122127000Y-85787000D01*
X122127000Y-86929915D01*
X122349039Y-87051904D01*
X122483087Y-87011246D01*
X122737420Y-86891037D01*
X122963414Y-86723519D01*
X123152385Y-86515131D01*
X123297070Y-86273881D01*
X123391909Y-86009040D01*
X123270624Y-85787000D01*
X122127000Y-85787000D01*
X121873000Y-85787000D01*
X120729376Y-85787000D01*
X120608091Y-86009040D01*
X116391909Y-86009040D01*
X116270624Y-85787000D01*
X115127000Y-85787000D01*
X114873000Y-85787000D01*
X113729376Y-85787000D01*
X113608091Y-86009040D01*
X110372646Y-86009040D01*
X111070726Y-85310960D01*
X113608091Y-85310960D01*
X113729376Y-85533000D01*
X114873000Y-85533000D01*
X114873000Y-84390085D01*
X115127000Y-84390085D01*
X115127000Y-85533000D01*
X116270624Y-85533000D01*
X116391909Y-85310960D01*
X120608091Y-85310960D01*
X120729376Y-85533000D01*
X121873000Y-85533000D01*
X121873000Y-84390085D01*
X122127000Y-84390085D01*
X122127000Y-85533000D01*
X123270624Y-85533000D01*
X123391909Y-85310960D01*
X123297070Y-85046119D01*
X123152385Y-84804869D01*
X122963414Y-84596481D01*
X122737420Y-84428963D01*
X122483087Y-84308754D01*
X122349039Y-84268096D01*
X122127000Y-84390085D01*
X121873000Y-84390085D01*
X121650961Y-84268096D01*
X121516913Y-84308754D01*
X121262580Y-84428963D01*
X121036586Y-84596481D01*
X120847615Y-84804869D01*
X120702930Y-85046119D01*
X120608091Y-85310960D01*
X116391909Y-85310960D01*
X116297070Y-85046119D01*
X116152385Y-84804869D01*
X115963414Y-84596481D01*
X115737420Y-84428963D01*
X115483087Y-84308754D01*
X115349039Y-84268096D01*
X115127000Y-84390085D01*
X114873000Y-84390085D01*
X114650961Y-84268096D01*
X114516913Y-84308754D01*
X114262580Y-84428963D01*
X114036586Y-84596481D01*
X113847615Y-84804869D01*
X113702930Y-85046119D01*
X113608091Y-85310960D01*
X111070726Y-85310960D01*
X119904687Y-76477000D01*
X120696035Y-76477000D01*
X120736227Y-76537152D01*
X120962848Y-76763773D01*
X121229327Y-76941828D01*
X121525422Y-77064475D01*
X121839755Y-77127000D01*
X122160245Y-77127000D01*
X122474578Y-77064475D01*
X122770673Y-76941828D01*
X123037152Y-76763773D01*
X123263773Y-76537152D01*
X123441828Y-76270673D01*
X123564475Y-75974578D01*
X123627000Y-75660245D01*
X123627000Y-75339755D01*
X123564475Y-75025422D01*
X123441828Y-74729327D01*
X123263773Y-74462848D01*
X123037152Y-74236227D01*
X122770673Y-74058172D01*
X122474578Y-73935525D01*
X122160245Y-73873000D01*
X121839755Y-73873000D01*
X121525422Y-73935525D01*
X121229327Y-74058172D01*
X120962848Y-74236227D01*
X120736227Y-74462848D01*
X120696035Y-74523000D01*
X119547993Y-74523000D01*
X119500000Y-74518273D01*
X119308474Y-74537137D01*
X119150091Y-74585182D01*
X119124309Y-74593003D01*
X118954582Y-74683724D01*
X118805814Y-74805814D01*
X118775221Y-74843092D01*
X109799346Y-83818967D01*
X109827000Y-83679944D01*
X109827000Y-83320056D01*
X109756789Y-82967084D01*
X109619066Y-82634591D01*
X109419124Y-82335355D01*
X109164645Y-82080876D01*
X108865409Y-81880934D01*
X108532916Y-81743211D01*
X108179944Y-81673000D01*
X107820056Y-81673000D01*
X107467084Y-81743211D01*
X107134591Y-81880934D01*
X106835355Y-82080876D01*
X106580876Y-82335355D01*
X106380934Y-82634591D01*
X106243211Y-82967084D01*
X106173000Y-83320056D01*
X105327000Y-83320056D01*
X105256789Y-82967084D01*
X105119066Y-82634591D01*
X104919124Y-82335355D01*
X104664645Y-82080876D01*
X104365409Y-81880934D01*
X104032916Y-81743211D01*
X103679944Y-81673000D01*
X103320056Y-81673000D01*
X102967084Y-81743211D01*
X102634591Y-81880934D01*
X102335355Y-82080876D01*
X102127000Y-82289231D01*
X102127000Y-78210769D01*
X102335355Y-78419124D01*
X102634591Y-78619066D01*
X102967084Y-78756789D01*
X103320056Y-78827000D01*
X103679944Y-78827000D01*
X104032916Y-78756789D01*
X104365409Y-78619066D01*
X104664645Y-78419124D01*
X104919124Y-78164645D01*
X105047188Y-77972982D01*
X105149925Y-77962863D01*
X105334091Y-77906997D01*
X105503818Y-77816276D01*
X105652586Y-77694186D01*
X105683184Y-77656902D01*
X106173000Y-77167086D01*
X106173000Y-77179944D01*
X106243211Y-77532916D01*
X106380934Y-77865409D01*
X106580876Y-78164645D01*
X106835355Y-78419124D01*
X107134591Y-78619066D01*
X107467084Y-78756789D01*
X107820056Y-78827000D01*
X108179944Y-78827000D01*
X108532916Y-78756789D01*
X108865409Y-78619066D01*
X109164645Y-78419124D01*
X109419124Y-78164645D01*
X109544504Y-77977000D01*
X113452007Y-77977000D01*
X113500000Y-77981727D01*
X113691525Y-77962863D01*
X113875691Y-77906997D01*
X114045418Y-77816276D01*
X114194186Y-77694186D01*
X114224784Y-77656902D01*
X114768800Y-77112886D01*
X114839755Y-77127000D01*
X115160245Y-77127000D01*
X115474578Y-77064475D01*
X115770673Y-76941828D01*
X116037152Y-76763773D01*
X116263773Y-76537152D01*
X116441828Y-76270673D01*
X116564475Y-75974578D01*
X116627000Y-75660245D01*
X116627000Y-75339755D01*
X116564475Y-75025422D01*
X116441828Y-74729327D01*
X116263773Y-74462848D01*
X116037152Y-74236227D01*
X115770673Y-74058172D01*
X115474578Y-73935525D01*
X115160245Y-73873000D01*
X114839755Y-73873000D01*
X114525422Y-73935525D01*
X114229327Y-74058172D01*
X113962848Y-74236227D01*
X113736227Y-74462848D01*
X113558172Y-74729327D01*
X113435525Y-75025422D01*
X113373000Y-75339755D01*
X113373000Y-75660245D01*
X113387114Y-75731200D01*
X113095314Y-76023000D01*
X109544504Y-76023000D01*
X109419124Y-75835355D01*
X109164645Y-75580876D01*
X108865409Y-75380934D01*
X108532916Y-75243211D01*
X108179944Y-75173000D01*
X108167086Y-75173000D01*
X109995407Y-73344679D01*
X130923000Y-73344679D01*
X130923000Y-73655321D01*
X130983604Y-73959994D01*
X131102481Y-74246989D01*
X131275064Y-74505279D01*
X131494721Y-74724936D01*
X131753011Y-74897519D01*
X132040006Y-75016396D01*
X132344679Y-75077000D01*
X132655321Y-75077000D01*
X132959994Y-75016396D01*
X133246989Y-74897519D01*
X133505279Y-74724936D01*
X133724936Y-74505279D01*
X133897519Y-74246989D01*
X134016396Y-73959994D01*
X134077000Y-73655321D01*
X134077000Y-73344679D01*
X134016396Y-73040006D01*
X133897519Y-72753011D01*
X133724936Y-72494721D01*
X133505279Y-72275064D01*
X133246989Y-72102481D01*
X132959994Y-71983604D01*
X132655321Y-71923000D01*
X132344679Y-71923000D01*
X132040006Y-71983604D01*
X131753011Y-72102481D01*
X131494721Y-72275064D01*
X131275064Y-72494721D01*
X131102481Y-72753011D01*
X130983604Y-73040006D01*
X130923000Y-73344679D01*
X109995407Y-73344679D01*
X113010535Y-70329552D01*
X113081990Y-70367745D01*
X113237880Y-70415034D01*
X113400000Y-70431001D01*
X115600000Y-70431001D01*
X115762120Y-70415034D01*
X115918010Y-70367745D01*
X116061679Y-70290952D01*
X116187606Y-70187606D01*
X116290952Y-70061679D01*
X116367745Y-69918010D01*
X116415034Y-69762120D01*
X116431001Y-69600000D01*
X116431001Y-68896122D01*
X122970825Y-68896122D01*
X123035425Y-69109094D01*
X123185469Y-69414329D01*
X123392178Y-69684427D01*
X123647609Y-69909008D01*
X123941946Y-70079442D01*
X124263877Y-70189179D01*
X124533000Y-70071600D01*
X124533000Y-68627000D01*
X124787000Y-68627000D01*
X124787000Y-70071600D01*
X125056123Y-70189179D01*
X125378054Y-70079442D01*
X125672391Y-69909008D01*
X125927822Y-69684427D01*
X126134531Y-69414329D01*
X126284575Y-69109094D01*
X126349175Y-68896122D01*
X126324450Y-68839755D01*
X131373000Y-68839755D01*
X131373000Y-69160245D01*
X131435525Y-69474578D01*
X131558172Y-69770673D01*
X131736227Y-70037152D01*
X131962848Y-70263773D01*
X132229327Y-70441828D01*
X132525422Y-70564475D01*
X132839755Y-70627000D01*
X133160245Y-70627000D01*
X133474578Y-70564475D01*
X133770673Y-70441828D01*
X134037152Y-70263773D01*
X134263773Y-70037152D01*
X134441828Y-69770673D01*
X134564475Y-69474578D01*
X134627000Y-69160245D01*
X134627000Y-68839755D01*
X135373000Y-68839755D01*
X135373000Y-69160245D01*
X135435525Y-69474578D01*
X135558172Y-69770673D01*
X135736227Y-70037152D01*
X135962848Y-70263773D01*
X136229327Y-70441828D01*
X136525422Y-70564475D01*
X136839755Y-70627000D01*
X137160245Y-70627000D01*
X137474578Y-70564475D01*
X137770673Y-70441828D01*
X138037152Y-70263773D01*
X138263773Y-70037152D01*
X138441828Y-69770673D01*
X138564475Y-69474578D01*
X138627000Y-69160245D01*
X138627000Y-68839755D01*
X138564475Y-68525422D01*
X138441828Y-68229327D01*
X138263773Y-67962848D01*
X138037152Y-67736227D01*
X137790082Y-67571141D01*
X137813097Y-67492702D01*
X137000000Y-66679605D01*
X136186903Y-67492702D01*
X136209918Y-67571141D01*
X135962848Y-67736227D01*
X135736227Y-67962848D01*
X135558172Y-68229327D01*
X135435525Y-68525422D01*
X135373000Y-68839755D01*
X134627000Y-68839755D01*
X134564475Y-68525422D01*
X134441828Y-68229327D01*
X134263773Y-67962848D01*
X134037152Y-67736227D01*
X133790082Y-67571141D01*
X133813097Y-67492702D01*
X133000000Y-66679605D01*
X132186903Y-67492702D01*
X132209918Y-67571141D01*
X131962848Y-67736227D01*
X131736227Y-67962848D01*
X131558172Y-68229327D01*
X131435525Y-68525422D01*
X131373000Y-68839755D01*
X126324450Y-68839755D01*
X126231125Y-68627000D01*
X124787000Y-68627000D01*
X124533000Y-68627000D01*
X123088875Y-68627000D01*
X122970825Y-68896122D01*
X116431001Y-68896122D01*
X116431001Y-68103878D01*
X122970825Y-68103878D01*
X123088875Y-68373000D01*
X124533000Y-68373000D01*
X124533000Y-66928400D01*
X124787000Y-66928400D01*
X124787000Y-68373000D01*
X126231125Y-68373000D01*
X126349175Y-68103878D01*
X126284575Y-67890906D01*
X126134531Y-67585671D01*
X125927822Y-67315573D01*
X125672391Y-67090992D01*
X125378054Y-66920558D01*
X125056123Y-66810821D01*
X124787000Y-66928400D01*
X124533000Y-66928400D01*
X124263877Y-66810821D01*
X123941946Y-66920558D01*
X123647609Y-67090992D01*
X123392178Y-67315573D01*
X123185469Y-67585671D01*
X123035425Y-67890906D01*
X122970825Y-68103878D01*
X116431001Y-68103878D01*
X116431001Y-67400000D01*
X116415034Y-67237880D01*
X116367745Y-67081990D01*
X116290952Y-66938321D01*
X116187606Y-66812394D01*
X116061679Y-66709048D01*
X115918010Y-66632255D01*
X115827000Y-66604647D01*
X115827000Y-66570512D01*
X131559783Y-66570512D01*
X131601213Y-66850130D01*
X131696397Y-67116292D01*
X131763329Y-67241514D01*
X132007298Y-67313097D01*
X132820395Y-66500000D01*
X133179605Y-66500000D01*
X133992702Y-67313097D01*
X134236671Y-67241514D01*
X134357571Y-66986004D01*
X134426300Y-66711816D01*
X134433265Y-66570512D01*
X135559783Y-66570512D01*
X135601213Y-66850130D01*
X135696397Y-67116292D01*
X135763329Y-67241514D01*
X136007298Y-67313097D01*
X136820395Y-66500000D01*
X137179605Y-66500000D01*
X137992702Y-67313097D01*
X138236671Y-67241514D01*
X138357571Y-66986004D01*
X138426300Y-66711816D01*
X138440217Y-66429488D01*
X138398787Y-66149870D01*
X138303603Y-65883708D01*
X138236671Y-65758486D01*
X137992702Y-65686903D01*
X137179605Y-66500000D01*
X136820395Y-66500000D01*
X136007298Y-65686903D01*
X135763329Y-65758486D01*
X135642429Y-66013996D01*
X135573700Y-66288184D01*
X135559783Y-66570512D01*
X134433265Y-66570512D01*
X134440217Y-66429488D01*
X134398787Y-66149870D01*
X134303603Y-65883708D01*
X134236671Y-65758486D01*
X133992702Y-65686903D01*
X133179605Y-66500000D01*
X132820395Y-66500000D01*
X132007298Y-65686903D01*
X131763329Y-65758486D01*
X131642429Y-66013996D01*
X131573700Y-66288184D01*
X131559783Y-66570512D01*
X115827000Y-66570512D01*
X115827000Y-65507298D01*
X132186903Y-65507298D01*
X133000000Y-66320395D01*
X133813097Y-65507298D01*
X136186903Y-65507298D01*
X137000000Y-66320395D01*
X137813097Y-65507298D01*
X137741514Y-65263329D01*
X137486004Y-65142429D01*
X137211816Y-65073700D01*
X136929488Y-65059783D01*
X136649870Y-65101213D01*
X136383708Y-65196397D01*
X136258486Y-65263329D01*
X136186903Y-65507298D01*
X133813097Y-65507298D01*
X133741514Y-65263329D01*
X133486004Y-65142429D01*
X133211816Y-65073700D01*
X132929488Y-65059783D01*
X132649870Y-65101213D01*
X132383708Y-65196397D01*
X132258486Y-65263329D01*
X132186903Y-65507298D01*
X115827000Y-65507298D01*
X115827000Y-65402961D01*
X116075763Y-65269994D01*
X116369187Y-65029187D01*
X116609994Y-64735763D01*
X116666368Y-64630295D01*
X116741825Y-64622863D01*
X116797039Y-64606114D01*
X116925991Y-64566997D01*
X117094363Y-64477000D01*
X119389480Y-64477000D01*
X119432255Y-64618010D01*
X119509048Y-64761679D01*
X119612394Y-64887606D01*
X119738321Y-64990952D01*
X119881990Y-65067745D01*
X120037880Y-65115034D01*
X120200000Y-65131001D01*
X121800000Y-65131001D01*
X121962120Y-65115034D01*
X122118010Y-65067745D01*
X122261679Y-64990952D01*
X122387606Y-64887606D01*
X122490952Y-64761679D01*
X122567745Y-64618010D01*
X122610520Y-64477000D01*
X124434807Y-64477000D01*
X124482800Y-64481727D01*
X124674325Y-64462863D01*
X124676774Y-64462120D01*
X124858491Y-64406997D01*
X125028218Y-64316276D01*
X125176986Y-64194186D01*
X125207584Y-64156902D01*
X125721377Y-63643109D01*
X152118519Y-63643109D01*
X152239186Y-63873000D01*
X153433000Y-63873000D01*
X153433000Y-62679845D01*
X153203110Y-62558524D01*
X153055901Y-62603175D01*
X152793080Y-62728359D01*
X152559731Y-62902412D01*
X152364822Y-63118645D01*
X152215843Y-63368748D01*
X152118519Y-63643109D01*
X125721377Y-63643109D01*
X127656907Y-61707580D01*
X127694186Y-61676986D01*
X127816276Y-61528218D01*
X127906997Y-61358491D01*
X127962863Y-61174325D01*
X127969709Y-61104823D01*
X128040921Y-61066759D01*
X128311885Y-60844385D01*
X128534259Y-60573421D01*
X128699498Y-60264280D01*
X128801252Y-59928843D01*
X128835610Y-59580000D01*
X128801252Y-59231157D01*
X128699498Y-58895720D01*
X128534259Y-58586579D01*
X128311885Y-58315615D01*
X128145753Y-58179274D01*
X128181315Y-58149437D01*
X128375969Y-57906923D01*
X128519571Y-57631094D01*
X128590563Y-57412980D01*
X128470594Y-57167000D01*
X127127000Y-57167000D01*
X127127000Y-57187000D01*
X126873000Y-57187000D01*
X126873000Y-57167000D01*
X125529406Y-57167000D01*
X125409437Y-57412980D01*
X125480429Y-57631094D01*
X125624031Y-57906923D01*
X125818685Y-58149437D01*
X125854247Y-58179274D01*
X125688115Y-58315615D01*
X125465741Y-58586579D01*
X125300502Y-58895720D01*
X125198748Y-59231157D01*
X125164390Y-59580000D01*
X125198748Y-59928843D01*
X125300502Y-60264280D01*
X125465741Y-60573421D01*
X125688115Y-60844385D01*
X125725801Y-60875313D01*
X124078114Y-62523000D01*
X122610520Y-62523000D01*
X122567745Y-62381990D01*
X122490952Y-62238321D01*
X122387606Y-62112394D01*
X122261679Y-62009048D01*
X122118010Y-61932255D01*
X122108866Y-61929481D01*
X122108977Y-61929370D01*
X121992704Y-61813097D01*
X122236671Y-61741514D01*
X122357571Y-61486004D01*
X122426300Y-61211816D01*
X122440217Y-60929488D01*
X122398787Y-60649870D01*
X122303603Y-60383708D01*
X122236671Y-60258486D01*
X121992702Y-60186903D01*
X121179605Y-61000000D01*
X121193748Y-61014143D01*
X121014143Y-61193748D01*
X121000000Y-61179605D01*
X120985858Y-61193748D01*
X120806253Y-61014143D01*
X120820395Y-61000000D01*
X120007298Y-60186903D01*
X119763329Y-60258486D01*
X119642429Y-60513996D01*
X119573700Y-60788184D01*
X119559783Y-61070512D01*
X119601213Y-61350130D01*
X119696397Y-61616292D01*
X119763329Y-61741514D01*
X120007296Y-61813097D01*
X119891023Y-61929370D01*
X119891134Y-61929481D01*
X119881990Y-61932255D01*
X119738321Y-62009048D01*
X119612394Y-62112394D01*
X119509048Y-62238321D01*
X119432255Y-62381990D01*
X119389480Y-62523000D01*
X116758290Y-62523000D01*
X116710299Y-62518273D01*
X116662309Y-62523000D01*
X116662307Y-62523000D01*
X116567409Y-62532347D01*
X116369187Y-62290813D01*
X116075763Y-62050006D01*
X115740999Y-61871071D01*
X115377758Y-61760883D01*
X115094658Y-61733000D01*
X114905342Y-61733000D01*
X114622242Y-61760883D01*
X114259001Y-61871071D01*
X113924237Y-62050006D01*
X113630813Y-62290813D01*
X113390006Y-62584237D01*
X113211071Y-62919001D01*
X113100883Y-63282242D01*
X113063677Y-63660000D01*
X113100883Y-64037758D01*
X113173001Y-64275499D01*
X113173000Y-66604647D01*
X113081990Y-66632255D01*
X112938321Y-66709048D01*
X112812394Y-66812394D01*
X112709048Y-66938321D01*
X112632255Y-67081990D01*
X112584966Y-67237880D01*
X112568999Y-67400000D01*
X112568999Y-67595681D01*
X112404282Y-67683724D01*
X112255514Y-67805814D01*
X112133424Y-67954582D01*
X112042703Y-68124309D01*
X111986837Y-68308475D01*
X111967973Y-68500000D01*
X111972700Y-68547993D01*
X111972700Y-68604013D01*
X109531166Y-71045548D01*
X109384923Y-70692488D01*
X109152149Y-70344116D01*
X108855884Y-70047851D01*
X108507512Y-69815077D01*
X108120423Y-69654739D01*
X107709491Y-69573000D01*
X107290509Y-69573000D01*
X106879577Y-69654739D01*
X106492488Y-69815077D01*
X106144116Y-70047851D01*
X105847851Y-70344116D01*
X105615077Y-70692488D01*
X105454739Y-71079577D01*
X105373000Y-71490509D01*
X105373000Y-71909491D01*
X105454739Y-72320423D01*
X105615077Y-72707512D01*
X105847851Y-73055884D01*
X106144116Y-73352149D01*
X106492488Y-73584923D01*
X106845548Y-73731166D01*
X104830241Y-75746472D01*
X104664645Y-75580876D01*
X104365409Y-75380934D01*
X104032916Y-75243211D01*
X103679944Y-75173000D01*
X103320056Y-75173000D01*
X102967084Y-75243211D01*
X102634591Y-75380934D01*
X102335355Y-75580876D01*
X102127000Y-75789231D01*
X102127000Y-66490509D01*
X105373000Y-66490509D01*
X105373000Y-66909491D01*
X105454739Y-67320423D01*
X105615077Y-67707512D01*
X105847851Y-68055884D01*
X106144116Y-68352149D01*
X106492488Y-68584923D01*
X106879577Y-68745261D01*
X107290509Y-68827000D01*
X107709491Y-68827000D01*
X108120423Y-68745261D01*
X108507512Y-68584923D01*
X108855884Y-68352149D01*
X109152149Y-68055884D01*
X109384923Y-67707512D01*
X109545261Y-67320423D01*
X109627000Y-66909491D01*
X109627000Y-66490509D01*
X109545261Y-66079577D01*
X109384923Y-65692488D01*
X109152149Y-65344116D01*
X108855884Y-65047851D01*
X108507512Y-64815077D01*
X108120423Y-64654739D01*
X107709491Y-64573000D01*
X107290509Y-64573000D01*
X106879577Y-64654739D01*
X106492488Y-64815077D01*
X106144116Y-65047851D01*
X105847851Y-65344116D01*
X105615077Y-65692488D01*
X105454739Y-66079577D01*
X105373000Y-66490509D01*
X102127000Y-66490509D01*
X102127000Y-63000000D01*
X105561928Y-63000000D01*
X105574188Y-63124482D01*
X105610498Y-63244180D01*
X105669463Y-63354494D01*
X105748815Y-63451185D01*
X105845506Y-63530537D01*
X105955820Y-63589502D01*
X106075518Y-63625812D01*
X106200000Y-63638072D01*
X107214250Y-63635000D01*
X107373000Y-63476250D01*
X107373000Y-61827000D01*
X107627000Y-61827000D01*
X107627000Y-63476250D01*
X107785750Y-63635000D01*
X108800000Y-63638072D01*
X108924482Y-63625812D01*
X109044180Y-63589502D01*
X109154494Y-63530537D01*
X109251185Y-63451185D01*
X109330537Y-63354494D01*
X109389502Y-63244180D01*
X109425812Y-63124482D01*
X109438072Y-63000000D01*
X109435000Y-61985750D01*
X109276250Y-61827000D01*
X107627000Y-61827000D01*
X107373000Y-61827000D01*
X105723750Y-61827000D01*
X105565000Y-61985750D01*
X105561928Y-63000000D01*
X102127000Y-63000000D01*
X102127000Y-60400000D01*
X105561928Y-60400000D01*
X105565000Y-61414250D01*
X105723750Y-61573000D01*
X107373000Y-61573000D01*
X107373000Y-59923750D01*
X107627000Y-59923750D01*
X107627000Y-61573000D01*
X109276250Y-61573000D01*
X109435000Y-61414250D01*
X109438072Y-60400000D01*
X109425812Y-60275518D01*
X109389502Y-60155820D01*
X109330537Y-60045506D01*
X109299181Y-60007298D01*
X120186903Y-60007298D01*
X121000000Y-60820395D01*
X121813097Y-60007298D01*
X121741514Y-59763329D01*
X121486004Y-59642429D01*
X121211816Y-59573700D01*
X120929488Y-59559783D01*
X120649870Y-59601213D01*
X120383708Y-59696397D01*
X120258486Y-59763329D01*
X120186903Y-60007298D01*
X109299181Y-60007298D01*
X109251185Y-59948815D01*
X109154494Y-59869463D01*
X109044180Y-59810498D01*
X108924482Y-59774188D01*
X108800000Y-59761928D01*
X107785750Y-59765000D01*
X107627000Y-59923750D01*
X107373000Y-59923750D01*
X107214250Y-59765000D01*
X106200000Y-59761928D01*
X106075518Y-59774188D01*
X105955820Y-59810498D01*
X105845506Y-59869463D01*
X105748815Y-59948815D01*
X105669463Y-60045506D01*
X105610498Y-60155820D01*
X105574188Y-60275518D01*
X105561928Y-60400000D01*
X102127000Y-60400000D01*
X102127000Y-57322038D01*
X102432937Y-57627975D01*
X103092500Y-58068681D01*
X103825367Y-58372245D01*
X104603375Y-58527000D01*
X105396625Y-58527000D01*
X106174633Y-58372245D01*
X106907500Y-58068681D01*
X107567063Y-57627975D01*
X108127975Y-57067063D01*
X108177661Y-56992702D01*
X120186903Y-56992702D01*
X120258486Y-57236671D01*
X120513996Y-57357571D01*
X120788184Y-57426300D01*
X121070512Y-57440217D01*
X121350130Y-57398787D01*
X121616292Y-57303603D01*
X121741514Y-57236671D01*
X121799219Y-57040000D01*
X141070531Y-57040000D01*
X141120287Y-57545180D01*
X141267643Y-58030947D01*
X141506935Y-58478632D01*
X141828969Y-58871031D01*
X142221368Y-59193065D01*
X142669053Y-59432357D01*
X143154820Y-59579713D01*
X143533400Y-59617000D01*
X143786600Y-59617000D01*
X144165180Y-59579713D01*
X144650947Y-59432357D01*
X145098632Y-59193065D01*
X145491031Y-58871031D01*
X145813065Y-58478632D01*
X146052357Y-58030947D01*
X146199713Y-57545180D01*
X146249469Y-57040000D01*
X146199713Y-56534820D01*
X146052357Y-56049053D01*
X145813065Y-55601368D01*
X145491031Y-55208969D01*
X145098632Y-54886935D01*
X144650947Y-54647643D01*
X144165180Y-54500287D01*
X143786600Y-54463000D01*
X143533400Y-54463000D01*
X143154820Y-54500287D01*
X142669053Y-54647643D01*
X142221368Y-54886935D01*
X141828969Y-55208969D01*
X141506935Y-55601368D01*
X141267643Y-56049053D01*
X141120287Y-56534820D01*
X141070531Y-57040000D01*
X121799219Y-57040000D01*
X121813097Y-56992702D01*
X121000000Y-56179605D01*
X120186903Y-56992702D01*
X108177661Y-56992702D01*
X108568681Y-56407500D01*
X108872245Y-55674633D01*
X109027000Y-54896625D01*
X109027000Y-54103375D01*
X108872245Y-53325367D01*
X108568681Y-52592500D01*
X108257644Y-52127000D01*
X113118601Y-52127000D01*
X113084966Y-52237880D01*
G36*
X197873000Y-73303408D02*
G01*
X197769719Y-73054066D01*
X197551171Y-72726986D01*
X197273014Y-72448829D01*
X196945934Y-72230281D01*
X196582504Y-72079743D01*
X196196687Y-72003000D01*
X195803313Y-72003000D01*
X195417496Y-72079743D01*
X195054066Y-72230281D01*
X194726986Y-72448829D01*
X194448829Y-72726986D01*
X194230281Y-73054066D01*
X194079743Y-73417496D01*
X194003000Y-73803313D01*
X194003000Y-74196687D01*
X194079743Y-74582504D01*
X194230281Y-74945934D01*
X194448829Y-75273014D01*
X194726986Y-75551171D01*
X195054066Y-75769719D01*
X195417496Y-75920257D01*
X195803313Y-75997000D01*
X196196687Y-75997000D01*
X196582504Y-75920257D01*
X196945934Y-75769719D01*
X197273014Y-75551171D01*
X197551171Y-75273014D01*
X197769719Y-74945934D01*
X197873000Y-74696592D01*
X197873000Y-86803408D01*
X197769719Y-86554066D01*
X197551171Y-86226986D01*
X197273014Y-85948829D01*
X196945934Y-85730281D01*
X196582504Y-85579743D01*
X196196687Y-85503000D01*
X195803313Y-85503000D01*
X195417496Y-85579743D01*
X195054066Y-85730281D01*
X194726986Y-85948829D01*
X194448829Y-86226986D01*
X194230281Y-86554066D01*
X194079743Y-86917496D01*
X194003000Y-87303313D01*
X194003000Y-87696687D01*
X194079743Y-88082504D01*
X194230281Y-88445934D01*
X194448829Y-88773014D01*
X194726986Y-89051171D01*
X195054066Y-89269719D01*
X195417496Y-89420257D01*
X195803313Y-89497000D01*
X196196687Y-89497000D01*
X196582504Y-89420257D01*
X196945934Y-89269719D01*
X197273014Y-89051171D01*
X197551171Y-88773014D01*
X197769719Y-88445934D01*
X197873000Y-88196592D01*
X197873000Y-91803408D01*
X197769719Y-91554066D01*
X197551171Y-91226986D01*
X197273014Y-90948829D01*
X196945934Y-90730281D01*
X196582504Y-90579743D01*
X196196687Y-90503000D01*
X195803313Y-90503000D01*
X195417496Y-90579743D01*
X195054066Y-90730281D01*
X194726986Y-90948829D01*
X194448829Y-91226986D01*
X194230281Y-91554066D01*
X194079743Y-91917496D01*
X194003000Y-92303313D01*
X194003000Y-92696687D01*
X194079743Y-93082504D01*
X194230281Y-93445934D01*
X194448829Y-93773014D01*
X194726986Y-94051171D01*
X195054066Y-94269719D01*
X195417496Y-94420257D01*
X195803313Y-94497000D01*
X196196687Y-94497000D01*
X196582504Y-94420257D01*
X196945934Y-94269719D01*
X197273014Y-94051171D01*
X197551171Y-93773014D01*
X197769719Y-93445934D01*
X197873000Y-93196592D01*
X197873000Y-104873000D01*
X197648734Y-104873000D01*
X197551171Y-104726986D01*
X197273014Y-104448829D01*
X196945934Y-104230281D01*
X196582504Y-104079743D01*
X196196687Y-104003000D01*
X195803313Y-104003000D01*
X195454141Y-104072454D01*
X193638289Y-102256602D01*
X194923003Y-102256602D01*
X195039275Y-102538389D01*
X195357860Y-102696257D01*
X195701122Y-102788938D01*
X196055869Y-102812873D01*
X196408470Y-102767139D01*
X196745373Y-102653495D01*
X196960725Y-102538389D01*
X197076997Y-102256602D01*
X196000000Y-101179605D01*
X194923003Y-102256602D01*
X193638289Y-102256602D01*
X192437556Y-101055869D01*
X194187127Y-101055869D01*
X194232861Y-101408470D01*
X194346505Y-101745373D01*
X194461611Y-101960725D01*
X194743398Y-102076997D01*
X195820395Y-101000000D01*
X196179605Y-101000000D01*
X197256602Y-102076997D01*
X197538389Y-101960725D01*
X197696257Y-101642140D01*
X197788938Y-101298878D01*
X197812873Y-100944131D01*
X197767139Y-100591530D01*
X197653495Y-100254627D01*
X197538389Y-100039275D01*
X197256602Y-99923003D01*
X196179605Y-101000000D01*
X195820395Y-101000000D01*
X194743398Y-99923003D01*
X194461611Y-100039275D01*
X194303743Y-100357860D01*
X194211062Y-100701122D01*
X194187127Y-101055869D01*
X192437556Y-101055869D01*
X191125085Y-99743398D01*
X194923003Y-99743398D01*
X196000000Y-100820395D01*
X197076997Y-99743398D01*
X196960725Y-99461611D01*
X196642140Y-99303743D01*
X196298878Y-99211062D01*
X195944131Y-99187127D01*
X195591530Y-99232861D01*
X195254627Y-99346505D01*
X195039275Y-99461611D01*
X194923003Y-99743398D01*
X191125085Y-99743398D01*
X178441100Y-87059414D01*
X178441100Y-85135413D01*
X181644192Y-85135413D01*
X181739956Y-85399814D01*
X182029571Y-85540704D01*
X182341108Y-85622384D01*
X182662595Y-85641718D01*
X182981675Y-85597961D01*
X183286088Y-85492795D01*
X183460044Y-85399814D01*
X183555808Y-85135413D01*
X182600000Y-84179605D01*
X181644192Y-85135413D01*
X178441100Y-85135413D01*
X178441100Y-84062595D01*
X180958282Y-84062595D01*
X181002039Y-84381675D01*
X181107205Y-84686088D01*
X181200186Y-84860044D01*
X181464587Y-84955808D01*
X182420395Y-84000000D01*
X182779605Y-84000000D01*
X183735413Y-84955808D01*
X183999814Y-84860044D01*
X184140704Y-84570429D01*
X184222384Y-84258892D01*
X184241718Y-83937405D01*
X184216924Y-83756602D01*
X194923003Y-83756602D01*
X195039275Y-84038389D01*
X195357860Y-84196257D01*
X195701122Y-84288938D01*
X196055869Y-84312873D01*
X196408470Y-84267139D01*
X196745373Y-84153495D01*
X196960725Y-84038389D01*
X197076997Y-83756602D01*
X196000000Y-82679605D01*
X194923003Y-83756602D01*
X184216924Y-83756602D01*
X184197961Y-83618325D01*
X184092795Y-83313912D01*
X183999814Y-83139956D01*
X183735413Y-83044192D01*
X182779605Y-84000000D01*
X182420395Y-84000000D01*
X181464587Y-83044192D01*
X181200186Y-83139956D01*
X181059296Y-83429571D01*
X180977616Y-83741108D01*
X180958282Y-84062595D01*
X178441100Y-84062595D01*
X178441100Y-83807993D01*
X178445827Y-83760000D01*
X178426963Y-83568474D01*
X178371097Y-83384309D01*
X178346129Y-83337597D01*
X178280376Y-83214582D01*
X178158286Y-83065814D01*
X178121007Y-83035220D01*
X177950374Y-82864587D01*
X181644192Y-82864587D01*
X182600000Y-83820395D01*
X183555808Y-82864587D01*
X183460044Y-82600186D01*
X183368946Y-82555869D01*
X194187127Y-82555869D01*
X194232861Y-82908470D01*
X194346505Y-83245373D01*
X194461611Y-83460725D01*
X194743398Y-83576997D01*
X195820395Y-82500000D01*
X196179605Y-82500000D01*
X197256602Y-83576997D01*
X197538389Y-83460725D01*
X197696257Y-83142140D01*
X197788938Y-82798878D01*
X197812873Y-82444131D01*
X197767139Y-82091530D01*
X197653495Y-81754627D01*
X197538389Y-81539275D01*
X197256602Y-81423003D01*
X196179605Y-82500000D01*
X195820395Y-82500000D01*
X194743398Y-81423003D01*
X194461611Y-81539275D01*
X194303743Y-81857860D01*
X194211062Y-82201122D01*
X194187127Y-82555869D01*
X183368946Y-82555869D01*
X183170429Y-82459296D01*
X182858892Y-82377616D01*
X182537405Y-82358282D01*
X182218325Y-82402039D01*
X181913912Y-82507205D01*
X181739956Y-82600186D01*
X181644192Y-82864587D01*
X177950374Y-82864587D01*
X176329185Y-81243398D01*
X194923003Y-81243398D01*
X196000000Y-82320395D01*
X197076997Y-81243398D01*
X196960725Y-80961611D01*
X196642140Y-80803743D01*
X196298878Y-80711062D01*
X195944131Y-80687127D01*
X195591530Y-80732861D01*
X195254627Y-80846505D01*
X195039275Y-80961611D01*
X194923003Y-81243398D01*
X176329185Y-81243398D01*
X175383886Y-80298100D01*
X183156908Y-72525079D01*
X183194186Y-72494486D01*
X183316276Y-72345718D01*
X183406997Y-72175991D01*
X183407186Y-72175369D01*
X183512120Y-72165034D01*
X183668010Y-72117745D01*
X183811679Y-72040952D01*
X183937606Y-71937606D01*
X184040952Y-71811679D01*
X184117745Y-71668010D01*
X184165034Y-71512120D01*
X184181001Y-71350000D01*
X184181001Y-69977000D01*
X194251039Y-69977000D01*
X194448829Y-70273014D01*
X194726986Y-70551171D01*
X195054066Y-70769719D01*
X195417496Y-70920257D01*
X195803313Y-70997000D01*
X196196687Y-70997000D01*
X196582504Y-70920257D01*
X196945934Y-70769719D01*
X197273014Y-70551171D01*
X197551171Y-70273014D01*
X197769719Y-69945934D01*
X197873000Y-69696592D01*
X197873000Y-73303408D01*
X197873000Y-73303408D01*
G37*
X197873000Y-73303408D02*
X197769719Y-73054066D01*
X197551171Y-72726986D01*
X197273014Y-72448829D01*
X196945934Y-72230281D01*
X196582504Y-72079743D01*
X196196687Y-72003000D01*
X195803313Y-72003000D01*
X195417496Y-72079743D01*
X195054066Y-72230281D01*
X194726986Y-72448829D01*
X194448829Y-72726986D01*
X194230281Y-73054066D01*
X194079743Y-73417496D01*
X194003000Y-73803313D01*
X194003000Y-74196687D01*
X194079743Y-74582504D01*
X194230281Y-74945934D01*
X194448829Y-75273014D01*
X194726986Y-75551171D01*
X195054066Y-75769719D01*
X195417496Y-75920257D01*
X195803313Y-75997000D01*
X196196687Y-75997000D01*
X196582504Y-75920257D01*
X196945934Y-75769719D01*
X197273014Y-75551171D01*
X197551171Y-75273014D01*
X197769719Y-74945934D01*
X197873000Y-74696592D01*
X197873000Y-86803408D01*
X197769719Y-86554066D01*
X197551171Y-86226986D01*
X197273014Y-85948829D01*
X196945934Y-85730281D01*
X196582504Y-85579743D01*
X196196687Y-85503000D01*
X195803313Y-85503000D01*
X195417496Y-85579743D01*
X195054066Y-85730281D01*
X194726986Y-85948829D01*
X194448829Y-86226986D01*
X194230281Y-86554066D01*
X194079743Y-86917496D01*
X194003000Y-87303313D01*
X194003000Y-87696687D01*
X194079743Y-88082504D01*
X194230281Y-88445934D01*
X194448829Y-88773014D01*
X194726986Y-89051171D01*
X195054066Y-89269719D01*
X195417496Y-89420257D01*
X195803313Y-89497000D01*
X196196687Y-89497000D01*
X196582504Y-89420257D01*
X196945934Y-89269719D01*
X197273014Y-89051171D01*
X197551171Y-88773014D01*
X197769719Y-88445934D01*
X197873000Y-88196592D01*
X197873000Y-91803408D01*
X197769719Y-91554066D01*
X197551171Y-91226986D01*
X197273014Y-90948829D01*
X196945934Y-90730281D01*
X196582504Y-90579743D01*
X196196687Y-90503000D01*
X195803313Y-90503000D01*
X195417496Y-90579743D01*
X195054066Y-90730281D01*
X194726986Y-90948829D01*
X194448829Y-91226986D01*
X194230281Y-91554066D01*
X194079743Y-91917496D01*
X194003000Y-92303313D01*
X194003000Y-92696687D01*
X194079743Y-93082504D01*
X194230281Y-93445934D01*
X194448829Y-93773014D01*
X194726986Y-94051171D01*
X195054066Y-94269719D01*
X195417496Y-94420257D01*
X195803313Y-94497000D01*
X196196687Y-94497000D01*
X196582504Y-94420257D01*
X196945934Y-94269719D01*
X197273014Y-94051171D01*
X197551171Y-93773014D01*
X197769719Y-93445934D01*
X197873000Y-93196592D01*
X197873000Y-104873000D01*
X197648734Y-104873000D01*
X197551171Y-104726986D01*
X197273014Y-104448829D01*
X196945934Y-104230281D01*
X196582504Y-104079743D01*
X196196687Y-104003000D01*
X195803313Y-104003000D01*
X195454141Y-104072454D01*
X193638289Y-102256602D01*
X194923003Y-102256602D01*
X195039275Y-102538389D01*
X195357860Y-102696257D01*
X195701122Y-102788938D01*
X196055869Y-102812873D01*
X196408470Y-102767139D01*
X196745373Y-102653495D01*
X196960725Y-102538389D01*
X197076997Y-102256602D01*
X196000000Y-101179605D01*
X194923003Y-102256602D01*
X193638289Y-102256602D01*
X192437556Y-101055869D01*
X194187127Y-101055869D01*
X194232861Y-101408470D01*
X194346505Y-101745373D01*
X194461611Y-101960725D01*
X194743398Y-102076997D01*
X195820395Y-101000000D01*
X196179605Y-101000000D01*
X197256602Y-102076997D01*
X197538389Y-101960725D01*
X197696257Y-101642140D01*
X197788938Y-101298878D01*
X197812873Y-100944131D01*
X197767139Y-100591530D01*
X197653495Y-100254627D01*
X197538389Y-100039275D01*
X197256602Y-99923003D01*
X196179605Y-101000000D01*
X195820395Y-101000000D01*
X194743398Y-99923003D01*
X194461611Y-100039275D01*
X194303743Y-100357860D01*
X194211062Y-100701122D01*
X194187127Y-101055869D01*
X192437556Y-101055869D01*
X191125085Y-99743398D01*
X194923003Y-99743398D01*
X196000000Y-100820395D01*
X197076997Y-99743398D01*
X196960725Y-99461611D01*
X196642140Y-99303743D01*
X196298878Y-99211062D01*
X195944131Y-99187127D01*
X195591530Y-99232861D01*
X195254627Y-99346505D01*
X195039275Y-99461611D01*
X194923003Y-99743398D01*
X191125085Y-99743398D01*
X178441100Y-87059414D01*
X178441100Y-85135413D01*
X181644192Y-85135413D01*
X181739956Y-85399814D01*
X182029571Y-85540704D01*
X182341108Y-85622384D01*
X182662595Y-85641718D01*
X182981675Y-85597961D01*
X183286088Y-85492795D01*
X183460044Y-85399814D01*
X183555808Y-85135413D01*
X182600000Y-84179605D01*
X181644192Y-85135413D01*
X178441100Y-85135413D01*
X178441100Y-84062595D01*
X180958282Y-84062595D01*
X181002039Y-84381675D01*
X181107205Y-84686088D01*
X181200186Y-84860044D01*
X181464587Y-84955808D01*
X182420395Y-84000000D01*
X182779605Y-84000000D01*
X183735413Y-84955808D01*
X183999814Y-84860044D01*
X184140704Y-84570429D01*
X184222384Y-84258892D01*
X184241718Y-83937405D01*
X184216924Y-83756602D01*
X194923003Y-83756602D01*
X195039275Y-84038389D01*
X195357860Y-84196257D01*
X195701122Y-84288938D01*
X196055869Y-84312873D01*
X196408470Y-84267139D01*
X196745373Y-84153495D01*
X196960725Y-84038389D01*
X197076997Y-83756602D01*
X196000000Y-82679605D01*
X194923003Y-83756602D01*
X184216924Y-83756602D01*
X184197961Y-83618325D01*
X184092795Y-83313912D01*
X183999814Y-83139956D01*
X183735413Y-83044192D01*
X182779605Y-84000000D01*
X182420395Y-84000000D01*
X181464587Y-83044192D01*
X181200186Y-83139956D01*
X181059296Y-83429571D01*
X180977616Y-83741108D01*
X180958282Y-84062595D01*
X178441100Y-84062595D01*
X178441100Y-83807993D01*
X178445827Y-83760000D01*
X178426963Y-83568474D01*
X178371097Y-83384309D01*
X178346129Y-83337597D01*
X178280376Y-83214582D01*
X178158286Y-83065814D01*
X178121007Y-83035220D01*
X177950374Y-82864587D01*
X181644192Y-82864587D01*
X182600000Y-83820395D01*
X183555808Y-82864587D01*
X183460044Y-82600186D01*
X183368946Y-82555869D01*
X194187127Y-82555869D01*
X194232861Y-82908470D01*
X194346505Y-83245373D01*
X194461611Y-83460725D01*
X194743398Y-83576997D01*
X195820395Y-82500000D01*
X196179605Y-82500000D01*
X197256602Y-83576997D01*
X197538389Y-83460725D01*
X197696257Y-83142140D01*
X197788938Y-82798878D01*
X197812873Y-82444131D01*
X197767139Y-82091530D01*
X197653495Y-81754627D01*
X197538389Y-81539275D01*
X197256602Y-81423003D01*
X196179605Y-82500000D01*
X195820395Y-82500000D01*
X194743398Y-81423003D01*
X194461611Y-81539275D01*
X194303743Y-81857860D01*
X194211062Y-82201122D01*
X194187127Y-82555869D01*
X183368946Y-82555869D01*
X183170429Y-82459296D01*
X182858892Y-82377616D01*
X182537405Y-82358282D01*
X182218325Y-82402039D01*
X181913912Y-82507205D01*
X181739956Y-82600186D01*
X181644192Y-82864587D01*
X177950374Y-82864587D01*
X176329185Y-81243398D01*
X194923003Y-81243398D01*
X196000000Y-82320395D01*
X197076997Y-81243398D01*
X196960725Y-80961611D01*
X196642140Y-80803743D01*
X196298878Y-80711062D01*
X195944131Y-80687127D01*
X195591530Y-80732861D01*
X195254627Y-80846505D01*
X195039275Y-80961611D01*
X194923003Y-81243398D01*
X176329185Y-81243398D01*
X175383886Y-80298100D01*
X183156908Y-72525079D01*
X183194186Y-72494486D01*
X183316276Y-72345718D01*
X183406997Y-72175991D01*
X183407186Y-72175369D01*
X183512120Y-72165034D01*
X183668010Y-72117745D01*
X183811679Y-72040952D01*
X183937606Y-71937606D01*
X184040952Y-71811679D01*
X184117745Y-71668010D01*
X184165034Y-71512120D01*
X184181001Y-71350000D01*
X184181001Y-69977000D01*
X194251039Y-69977000D01*
X194448829Y-70273014D01*
X194726986Y-70551171D01*
X195054066Y-70769719D01*
X195417496Y-70920257D01*
X195803313Y-70997000D01*
X196196687Y-70997000D01*
X196582504Y-70920257D01*
X196945934Y-70769719D01*
X197273014Y-70551171D01*
X197551171Y-70273014D01*
X197769719Y-69945934D01*
X197873000Y-69696592D01*
X197873000Y-73303408D01*
G36*
X143189500Y-95873000D02*
G01*
X143209500Y-95873000D01*
X143209500Y-96127000D01*
X143189500Y-96127000D01*
X143189500Y-97176250D01*
X143348250Y-97335000D01*
X143550000Y-97338072D01*
X143674482Y-97325812D01*
X143794180Y-97289502D01*
X143904494Y-97230537D01*
X143929021Y-97210408D01*
X143933786Y-97216214D01*
X144096650Y-97349873D01*
X144282461Y-97449190D01*
X144484076Y-97510350D01*
X144693750Y-97531001D01*
X145009315Y-97531001D01*
X147584920Y-100106607D01*
X147615514Y-100143886D01*
X147764282Y-100265976D01*
X147875694Y-100325527D01*
X147934009Y-100356697D01*
X148118174Y-100412563D01*
X148309700Y-100431427D01*
X148351991Y-100427262D01*
X148333000Y-100620075D01*
X148333000Y-101579924D01*
X148356542Y-101818947D01*
X148449575Y-102125637D01*
X148600654Y-102408285D01*
X148803971Y-102656029D01*
X149051714Y-102859346D01*
X149334362Y-103010425D01*
X149641052Y-103103458D01*
X149960000Y-103134872D01*
X150278947Y-103103458D01*
X150585637Y-103010425D01*
X150868285Y-102859346D01*
X151002415Y-102749269D01*
X151009048Y-102761679D01*
X151112394Y-102887606D01*
X151238321Y-102990952D01*
X151381990Y-103067745D01*
X151537880Y-103115034D01*
X151700000Y-103131001D01*
X153300000Y-103131001D01*
X153462120Y-103115034D01*
X153618010Y-103067745D01*
X153761679Y-102990952D01*
X153887606Y-102887606D01*
X153990952Y-102761679D01*
X154067745Y-102618010D01*
X154115034Y-102462120D01*
X154131001Y-102300000D01*
X154131001Y-101459087D01*
X156059216Y-103387302D01*
X156065327Y-103394749D01*
X156048805Y-103398020D01*
X156037441Y-103401538D01*
X155921171Y-103438420D01*
X155850163Y-103468854D01*
X155778792Y-103498271D01*
X155768342Y-103503921D01*
X155768336Y-103503924D01*
X155768331Y-103503927D01*
X155768328Y-103503929D01*
X155661438Y-103562693D01*
X155597740Y-103606308D01*
X155533408Y-103649050D01*
X155524242Y-103656633D01*
X155430801Y-103735039D01*
X155376775Y-103790208D01*
X155321979Y-103844623D01*
X155314460Y-103853842D01*
X155238027Y-103948905D01*
X155195736Y-104013531D01*
X155152561Y-104077542D01*
X155146980Y-104088038D01*
X155146977Y-104088043D01*
X155146976Y-104088046D01*
X155090464Y-104196144D01*
X155074967Y-104234501D01*
X155056210Y-104188077D01*
X155050626Y-104177573D01*
X154992610Y-104070274D01*
X154949419Y-104006240D01*
X154907144Y-103941637D01*
X154899625Y-103932418D01*
X154821873Y-103838433D01*
X154767097Y-103784038D01*
X154713053Y-103728850D01*
X154703887Y-103721267D01*
X154609361Y-103644173D01*
X154545029Y-103601430D01*
X154481321Y-103557809D01*
X154470868Y-103552157D01*
X154470862Y-103552153D01*
X154470856Y-103552151D01*
X154363155Y-103494886D01*
X154291758Y-103465458D01*
X154220789Y-103435041D01*
X154209425Y-103431523D01*
X154209424Y-103431523D01*
X154209420Y-103431521D01*
X154209415Y-103431520D01*
X154092652Y-103396267D01*
X154016902Y-103381268D01*
X153941368Y-103365213D01*
X153929537Y-103363969D01*
X153808141Y-103352066D01*
X153808135Y-103352066D01*
X153766852Y-103348000D01*
X148683148Y-103348000D01*
X148641246Y-103352127D01*
X148633133Y-103352127D01*
X148621302Y-103353371D01*
X148568644Y-103359278D01*
X148557979Y-103360328D01*
X148557216Y-103360559D01*
X148500083Y-103366968D01*
X148424598Y-103383013D01*
X148348805Y-103398020D01*
X148337441Y-103401538D01*
X148221171Y-103438420D01*
X148150163Y-103468854D01*
X148078792Y-103498271D01*
X148068342Y-103503921D01*
X148068336Y-103503924D01*
X148068331Y-103503927D01*
X148068328Y-103503929D01*
X147961438Y-103562693D01*
X147897740Y-103606308D01*
X147833408Y-103649050D01*
X147824242Y-103656633D01*
X147730801Y-103735039D01*
X147676775Y-103790208D01*
X147621979Y-103844623D01*
X147614460Y-103853842D01*
X147538027Y-103948905D01*
X147495736Y-104013531D01*
X147466605Y-104056720D01*
X147449419Y-104031240D01*
X147407144Y-103966637D01*
X147399625Y-103957418D01*
X147321873Y-103863433D01*
X147267097Y-103809038D01*
X147213053Y-103753850D01*
X147203887Y-103746267D01*
X147109361Y-103669173D01*
X147045029Y-103626430D01*
X146981321Y-103582809D01*
X146970868Y-103577157D01*
X146970862Y-103577153D01*
X146970856Y-103577151D01*
X146863155Y-103519886D01*
X146791758Y-103490458D01*
X146720789Y-103460041D01*
X146709425Y-103456523D01*
X146709424Y-103456523D01*
X146709420Y-103456521D01*
X146709415Y-103456520D01*
X146592652Y-103421267D01*
X146516902Y-103406268D01*
X146441368Y-103390213D01*
X146429537Y-103388969D01*
X146308141Y-103377066D01*
X146308135Y-103377066D01*
X146266852Y-103373000D01*
X145752853Y-103373000D01*
X145816276Y-103295718D01*
X145906997Y-103125991D01*
X145908726Y-103120293D01*
X145962120Y-103115034D01*
X146118010Y-103067745D01*
X146261679Y-102990952D01*
X146387606Y-102887606D01*
X146490952Y-102761679D01*
X146567745Y-102618010D01*
X146615034Y-102462120D01*
X146631001Y-102300000D01*
X146631001Y-99900000D01*
X146615034Y-99737880D01*
X146567745Y-99581990D01*
X146490952Y-99438321D01*
X146387606Y-99312394D01*
X146261679Y-99209048D01*
X146118010Y-99132255D01*
X145962120Y-99084966D01*
X145800000Y-99068999D01*
X144200000Y-99068999D01*
X144037880Y-99084966D01*
X143881990Y-99132255D01*
X143738321Y-99209048D01*
X143612394Y-99312394D01*
X143509048Y-99438321D01*
X143502415Y-99450731D01*
X143436501Y-99396636D01*
X143422863Y-99258175D01*
X143366997Y-99074009D01*
X143276276Y-98904282D01*
X143154186Y-98755514D01*
X143116907Y-98724920D01*
X142414500Y-98022514D01*
X142414500Y-97314886D01*
X142450518Y-97325812D01*
X142575000Y-97338072D01*
X142776750Y-97335000D01*
X142935500Y-97176250D01*
X142935500Y-96127000D01*
X142915500Y-96127000D01*
X142915500Y-95873000D01*
X142935500Y-95873000D01*
X142935500Y-95853000D01*
X143189500Y-95853000D01*
X143189500Y-95873000D01*
X143189500Y-95873000D01*
G37*
X143189500Y-95873000D02*
X143209500Y-95873000D01*
X143209500Y-96127000D01*
X143189500Y-96127000D01*
X143189500Y-97176250D01*
X143348250Y-97335000D01*
X143550000Y-97338072D01*
X143674482Y-97325812D01*
X143794180Y-97289502D01*
X143904494Y-97230537D01*
X143929021Y-97210408D01*
X143933786Y-97216214D01*
X144096650Y-97349873D01*
X144282461Y-97449190D01*
X144484076Y-97510350D01*
X144693750Y-97531001D01*
X145009315Y-97531001D01*
X147584920Y-100106607D01*
X147615514Y-100143886D01*
X147764282Y-100265976D01*
X147875694Y-100325527D01*
X147934009Y-100356697D01*
X148118174Y-100412563D01*
X148309700Y-100431427D01*
X148351991Y-100427262D01*
X148333000Y-100620075D01*
X148333000Y-101579924D01*
X148356542Y-101818947D01*
X148449575Y-102125637D01*
X148600654Y-102408285D01*
X148803971Y-102656029D01*
X149051714Y-102859346D01*
X149334362Y-103010425D01*
X149641052Y-103103458D01*
X149960000Y-103134872D01*
X150278947Y-103103458D01*
X150585637Y-103010425D01*
X150868285Y-102859346D01*
X151002415Y-102749269D01*
X151009048Y-102761679D01*
X151112394Y-102887606D01*
X151238321Y-102990952D01*
X151381990Y-103067745D01*
X151537880Y-103115034D01*
X151700000Y-103131001D01*
X153300000Y-103131001D01*
X153462120Y-103115034D01*
X153618010Y-103067745D01*
X153761679Y-102990952D01*
X153887606Y-102887606D01*
X153990952Y-102761679D01*
X154067745Y-102618010D01*
X154115034Y-102462120D01*
X154131001Y-102300000D01*
X154131001Y-101459087D01*
X156059216Y-103387302D01*
X156065327Y-103394749D01*
X156048805Y-103398020D01*
X156037441Y-103401538D01*
X155921171Y-103438420D01*
X155850163Y-103468854D01*
X155778792Y-103498271D01*
X155768342Y-103503921D01*
X155768336Y-103503924D01*
X155768331Y-103503927D01*
X155768328Y-103503929D01*
X155661438Y-103562693D01*
X155597740Y-103606308D01*
X155533408Y-103649050D01*
X155524242Y-103656633D01*
X155430801Y-103735039D01*
X155376775Y-103790208D01*
X155321979Y-103844623D01*
X155314460Y-103853842D01*
X155238027Y-103948905D01*
X155195736Y-104013531D01*
X155152561Y-104077542D01*
X155146980Y-104088038D01*
X155146977Y-104088043D01*
X155146976Y-104088046D01*
X155090464Y-104196144D01*
X155074967Y-104234501D01*
X155056210Y-104188077D01*
X155050626Y-104177573D01*
X154992610Y-104070274D01*
X154949419Y-104006240D01*
X154907144Y-103941637D01*
X154899625Y-103932418D01*
X154821873Y-103838433D01*
X154767097Y-103784038D01*
X154713053Y-103728850D01*
X154703887Y-103721267D01*
X154609361Y-103644173D01*
X154545029Y-103601430D01*
X154481321Y-103557809D01*
X154470868Y-103552157D01*
X154470862Y-103552153D01*
X154470856Y-103552151D01*
X154363155Y-103494886D01*
X154291758Y-103465458D01*
X154220789Y-103435041D01*
X154209425Y-103431523D01*
X154209424Y-103431523D01*
X154209420Y-103431521D01*
X154209415Y-103431520D01*
X154092652Y-103396267D01*
X154016902Y-103381268D01*
X153941368Y-103365213D01*
X153929537Y-103363969D01*
X153808141Y-103352066D01*
X153808135Y-103352066D01*
X153766852Y-103348000D01*
X148683148Y-103348000D01*
X148641246Y-103352127D01*
X148633133Y-103352127D01*
X148621302Y-103353371D01*
X148568644Y-103359278D01*
X148557979Y-103360328D01*
X148557216Y-103360559D01*
X148500083Y-103366968D01*
X148424598Y-103383013D01*
X148348805Y-103398020D01*
X148337441Y-103401538D01*
X148221171Y-103438420D01*
X148150163Y-103468854D01*
X148078792Y-103498271D01*
X148068342Y-103503921D01*
X148068336Y-103503924D01*
X148068331Y-103503927D01*
X148068328Y-103503929D01*
X147961438Y-103562693D01*
X147897740Y-103606308D01*
X147833408Y-103649050D01*
X147824242Y-103656633D01*
X147730801Y-103735039D01*
X147676775Y-103790208D01*
X147621979Y-103844623D01*
X147614460Y-103853842D01*
X147538027Y-103948905D01*
X147495736Y-104013531D01*
X147466605Y-104056720D01*
X147449419Y-104031240D01*
X147407144Y-103966637D01*
X147399625Y-103957418D01*
X147321873Y-103863433D01*
X147267097Y-103809038D01*
X147213053Y-103753850D01*
X147203887Y-103746267D01*
X147109361Y-103669173D01*
X147045029Y-103626430D01*
X146981321Y-103582809D01*
X146970868Y-103577157D01*
X146970862Y-103577153D01*
X146970856Y-103577151D01*
X146863155Y-103519886D01*
X146791758Y-103490458D01*
X146720789Y-103460041D01*
X146709425Y-103456523D01*
X146709424Y-103456523D01*
X146709420Y-103456521D01*
X146709415Y-103456520D01*
X146592652Y-103421267D01*
X146516902Y-103406268D01*
X146441368Y-103390213D01*
X146429537Y-103388969D01*
X146308141Y-103377066D01*
X146308135Y-103377066D01*
X146266852Y-103373000D01*
X145752853Y-103373000D01*
X145816276Y-103295718D01*
X145906997Y-103125991D01*
X145908726Y-103120293D01*
X145962120Y-103115034D01*
X146118010Y-103067745D01*
X146261679Y-102990952D01*
X146387606Y-102887606D01*
X146490952Y-102761679D01*
X146567745Y-102618010D01*
X146615034Y-102462120D01*
X146631001Y-102300000D01*
X146631001Y-99900000D01*
X146615034Y-99737880D01*
X146567745Y-99581990D01*
X146490952Y-99438321D01*
X146387606Y-99312394D01*
X146261679Y-99209048D01*
X146118010Y-99132255D01*
X145962120Y-99084966D01*
X145800000Y-99068999D01*
X144200000Y-99068999D01*
X144037880Y-99084966D01*
X143881990Y-99132255D01*
X143738321Y-99209048D01*
X143612394Y-99312394D01*
X143509048Y-99438321D01*
X143502415Y-99450731D01*
X143436501Y-99396636D01*
X143422863Y-99258175D01*
X143366997Y-99074009D01*
X143276276Y-98904282D01*
X143154186Y-98755514D01*
X143116907Y-98724920D01*
X142414500Y-98022514D01*
X142414500Y-97314886D01*
X142450518Y-97325812D01*
X142575000Y-97338072D01*
X142776750Y-97335000D01*
X142935500Y-97176250D01*
X142935500Y-96127000D01*
X142915500Y-96127000D01*
X142915500Y-95873000D01*
X142935500Y-95873000D01*
X142935500Y-95853000D01*
X143189500Y-95853000D01*
X143189500Y-95873000D01*
G36*
X139689500Y-95873000D02*
G01*
X139709500Y-95873000D01*
X139709500Y-96127000D01*
X139689500Y-96127000D01*
X139689500Y-97176250D01*
X139848250Y-97335000D01*
X140050000Y-97338072D01*
X140174482Y-97325812D01*
X140294180Y-97289502D01*
X140404494Y-97230537D01*
X140429021Y-97210408D01*
X140433786Y-97216214D01*
X140460501Y-97238138D01*
X140460501Y-98379197D01*
X140455773Y-98427200D01*
X140474637Y-98618725D01*
X140530503Y-98802890D01*
X140621225Y-98972618D01*
X140697146Y-99065128D01*
X140743315Y-99121386D01*
X140780593Y-99151979D01*
X141244748Y-99616135D01*
X141100654Y-99791714D01*
X140949575Y-100074362D01*
X140856542Y-100381052D01*
X140833000Y-100620075D01*
X140833000Y-101579924D01*
X140856542Y-101818947D01*
X140949575Y-102125637D01*
X141099967Y-102407000D01*
X139120463Y-102407000D01*
X139131001Y-102300000D01*
X139131001Y-99900000D01*
X139115034Y-99737880D01*
X139067745Y-99581990D01*
X138990952Y-99438321D01*
X138887606Y-99312394D01*
X138761679Y-99209048D01*
X138618010Y-99132255D01*
X138462120Y-99084966D01*
X138300000Y-99068999D01*
X136700000Y-99068999D01*
X136537880Y-99084966D01*
X136381990Y-99132255D01*
X136238321Y-99209048D01*
X136112394Y-99312394D01*
X136009048Y-99438321D01*
X136002415Y-99450731D01*
X135937000Y-99397046D01*
X135937000Y-99382186D01*
X137788186Y-97531001D01*
X138181250Y-97531001D01*
X138390924Y-97510350D01*
X138592539Y-97449190D01*
X138778350Y-97349873D01*
X138846220Y-97294174D01*
X138950518Y-97325812D01*
X139075000Y-97338072D01*
X139276750Y-97335000D01*
X139435500Y-97176250D01*
X139435500Y-96127000D01*
X139415500Y-96127000D01*
X139415500Y-95873000D01*
X139435500Y-95873000D01*
X139435500Y-95853000D01*
X139689500Y-95853000D01*
X139689500Y-95873000D01*
X139689500Y-95873000D01*
G37*
X139689500Y-95873000D02*
X139709500Y-95873000D01*
X139709500Y-96127000D01*
X139689500Y-96127000D01*
X139689500Y-97176250D01*
X139848250Y-97335000D01*
X140050000Y-97338072D01*
X140174482Y-97325812D01*
X140294180Y-97289502D01*
X140404494Y-97230537D01*
X140429021Y-97210408D01*
X140433786Y-97216214D01*
X140460501Y-97238138D01*
X140460501Y-98379197D01*
X140455773Y-98427200D01*
X140474637Y-98618725D01*
X140530503Y-98802890D01*
X140621225Y-98972618D01*
X140697146Y-99065128D01*
X140743315Y-99121386D01*
X140780593Y-99151979D01*
X141244748Y-99616135D01*
X141100654Y-99791714D01*
X140949575Y-100074362D01*
X140856542Y-100381052D01*
X140833000Y-100620075D01*
X140833000Y-101579924D01*
X140856542Y-101818947D01*
X140949575Y-102125637D01*
X141099967Y-102407000D01*
X139120463Y-102407000D01*
X139131001Y-102300000D01*
X139131001Y-99900000D01*
X139115034Y-99737880D01*
X139067745Y-99581990D01*
X138990952Y-99438321D01*
X138887606Y-99312394D01*
X138761679Y-99209048D01*
X138618010Y-99132255D01*
X138462120Y-99084966D01*
X138300000Y-99068999D01*
X136700000Y-99068999D01*
X136537880Y-99084966D01*
X136381990Y-99132255D01*
X136238321Y-99209048D01*
X136112394Y-99312394D01*
X136009048Y-99438321D01*
X136002415Y-99450731D01*
X135937000Y-99397046D01*
X135937000Y-99382186D01*
X137788186Y-97531001D01*
X138181250Y-97531001D01*
X138390924Y-97510350D01*
X138592539Y-97449190D01*
X138778350Y-97349873D01*
X138846220Y-97294174D01*
X138950518Y-97325812D01*
X139075000Y-97338072D01*
X139276750Y-97335000D01*
X139435500Y-97176250D01*
X139435500Y-96127000D01*
X139415500Y-96127000D01*
X139415500Y-95873000D01*
X139435500Y-95873000D01*
X139435500Y-95853000D01*
X139689500Y-95853000D01*
X139689500Y-95873000D01*
G36*
X132689500Y-95873000D02*
G01*
X132709500Y-95873000D01*
X132709500Y-96127000D01*
X132689500Y-96127000D01*
X132689500Y-97176250D01*
X132848250Y-97335000D01*
X133050000Y-97338072D01*
X133174482Y-97325812D01*
X133294180Y-97289502D01*
X133404494Y-97230537D01*
X133429021Y-97210408D01*
X133433786Y-97216214D01*
X133596650Y-97349873D01*
X133782461Y-97449190D01*
X133984076Y-97510350D01*
X134193750Y-97531001D01*
X134681250Y-97531001D01*
X134890924Y-97510350D01*
X135092539Y-97449190D01*
X135122797Y-97433017D01*
X134303098Y-98252716D01*
X134265814Y-98283314D01*
X134143724Y-98432082D01*
X134072959Y-98564475D01*
X134053003Y-98601810D01*
X133997137Y-98785975D01*
X133978273Y-98977500D01*
X133983000Y-99025493D01*
X133983000Y-99397047D01*
X133803972Y-99543971D01*
X133600654Y-99791714D01*
X133449575Y-100074362D01*
X133356542Y-100381052D01*
X133333000Y-100620075D01*
X133333000Y-101579924D01*
X133356542Y-101818947D01*
X133449575Y-102125637D01*
X133599967Y-102407000D01*
X131620463Y-102407000D01*
X131631001Y-102300000D01*
X131631001Y-99900000D01*
X131615034Y-99737880D01*
X131567745Y-99581990D01*
X131490952Y-99438321D01*
X131387606Y-99312394D01*
X131261679Y-99209048D01*
X131118010Y-99132255D01*
X130962120Y-99084966D01*
X130800000Y-99068999D01*
X129200000Y-99068999D01*
X129111911Y-99077675D01*
X131441649Y-96747937D01*
X131449188Y-96824482D01*
X131485498Y-96944180D01*
X131544463Y-97054494D01*
X131623815Y-97151185D01*
X131720506Y-97230537D01*
X131830820Y-97289502D01*
X131950518Y-97325812D01*
X132075000Y-97338072D01*
X132276750Y-97335000D01*
X132435500Y-97176250D01*
X132435500Y-96127000D01*
X132415500Y-96127000D01*
X132415500Y-95873000D01*
X132435500Y-95873000D01*
X132435500Y-95853000D01*
X132689500Y-95853000D01*
X132689500Y-95873000D01*
X132689500Y-95873000D01*
G37*
X132689500Y-95873000D02*
X132709500Y-95873000D01*
X132709500Y-96127000D01*
X132689500Y-96127000D01*
X132689500Y-97176250D01*
X132848250Y-97335000D01*
X133050000Y-97338072D01*
X133174482Y-97325812D01*
X133294180Y-97289502D01*
X133404494Y-97230537D01*
X133429021Y-97210408D01*
X133433786Y-97216214D01*
X133596650Y-97349873D01*
X133782461Y-97449190D01*
X133984076Y-97510350D01*
X134193750Y-97531001D01*
X134681250Y-97531001D01*
X134890924Y-97510350D01*
X135092539Y-97449190D01*
X135122797Y-97433017D01*
X134303098Y-98252716D01*
X134265814Y-98283314D01*
X134143724Y-98432082D01*
X134072959Y-98564475D01*
X134053003Y-98601810D01*
X133997137Y-98785975D01*
X133978273Y-98977500D01*
X133983000Y-99025493D01*
X133983000Y-99397047D01*
X133803972Y-99543971D01*
X133600654Y-99791714D01*
X133449575Y-100074362D01*
X133356542Y-100381052D01*
X133333000Y-100620075D01*
X133333000Y-101579924D01*
X133356542Y-101818947D01*
X133449575Y-102125637D01*
X133599967Y-102407000D01*
X131620463Y-102407000D01*
X131631001Y-102300000D01*
X131631001Y-99900000D01*
X131615034Y-99737880D01*
X131567745Y-99581990D01*
X131490952Y-99438321D01*
X131387606Y-99312394D01*
X131261679Y-99209048D01*
X131118010Y-99132255D01*
X130962120Y-99084966D01*
X130800000Y-99068999D01*
X129200000Y-99068999D01*
X129111911Y-99077675D01*
X131441649Y-96747937D01*
X131449188Y-96824482D01*
X131485498Y-96944180D01*
X131544463Y-97054494D01*
X131623815Y-97151185D01*
X131720506Y-97230537D01*
X131830820Y-97289502D01*
X131950518Y-97325812D01*
X132075000Y-97338072D01*
X132276750Y-97335000D01*
X132435500Y-97176250D01*
X132435500Y-96127000D01*
X132415500Y-96127000D01*
X132415500Y-95873000D01*
X132435500Y-95873000D01*
X132435500Y-95853000D01*
X132689500Y-95853000D01*
X132689500Y-95873000D01*
G36*
X155183971Y-90676029D02*
G01*
X155431714Y-90879346D01*
X155714362Y-91030425D01*
X156021052Y-91123458D01*
X156340000Y-91154872D01*
X156613400Y-91127944D01*
X156613400Y-94594613D01*
X156183093Y-95024921D01*
X156145815Y-95055514D01*
X156115222Y-95092792D01*
X156115221Y-95092793D01*
X156023725Y-95204282D01*
X155933003Y-95374010D01*
X155877137Y-95558175D01*
X155863499Y-95696636D01*
X155683971Y-95843971D01*
X155480654Y-96091714D01*
X155329575Y-96374362D01*
X155236542Y-96681052D01*
X155205128Y-97000000D01*
X155236542Y-97318948D01*
X155329575Y-97625638D01*
X155480654Y-97908286D01*
X155683971Y-98156029D01*
X155931714Y-98359346D01*
X156106366Y-98452700D01*
X155771887Y-98452700D01*
X153256001Y-95936815D01*
X153256001Y-95543750D01*
X153235350Y-95334076D01*
X153174190Y-95132461D01*
X153074873Y-94946650D01*
X152941214Y-94783786D01*
X152778350Y-94650127D01*
X152592539Y-94550810D01*
X152390924Y-94489650D01*
X152181250Y-94468999D01*
X151693750Y-94468999D01*
X151484076Y-94489650D01*
X151452869Y-94499117D01*
X154456902Y-91495084D01*
X154494186Y-91464486D01*
X154616276Y-91315718D01*
X154706997Y-91145991D01*
X154734930Y-91053908D01*
X154762863Y-90961826D01*
X154776501Y-90823363D01*
X154956029Y-90676029D01*
X155070000Y-90537154D01*
X155183971Y-90676029D01*
X155183971Y-90676029D01*
G37*
X155183971Y-90676029D02*
X155431714Y-90879346D01*
X155714362Y-91030425D01*
X156021052Y-91123458D01*
X156340000Y-91154872D01*
X156613400Y-91127944D01*
X156613400Y-94594613D01*
X156183093Y-95024921D01*
X156145815Y-95055514D01*
X156115222Y-95092792D01*
X156115221Y-95092793D01*
X156023725Y-95204282D01*
X155933003Y-95374010D01*
X155877137Y-95558175D01*
X155863499Y-95696636D01*
X155683971Y-95843971D01*
X155480654Y-96091714D01*
X155329575Y-96374362D01*
X155236542Y-96681052D01*
X155205128Y-97000000D01*
X155236542Y-97318948D01*
X155329575Y-97625638D01*
X155480654Y-97908286D01*
X155683971Y-98156029D01*
X155931714Y-98359346D01*
X156106366Y-98452700D01*
X155771887Y-98452700D01*
X153256001Y-95936815D01*
X153256001Y-95543750D01*
X153235350Y-95334076D01*
X153174190Y-95132461D01*
X153074873Y-94946650D01*
X152941214Y-94783786D01*
X152778350Y-94650127D01*
X152592539Y-94550810D01*
X152390924Y-94489650D01*
X152181250Y-94468999D01*
X151693750Y-94468999D01*
X151484076Y-94489650D01*
X151452869Y-94499117D01*
X154456902Y-91495084D01*
X154494186Y-91464486D01*
X154616276Y-91315718D01*
X154706997Y-91145991D01*
X154734930Y-91053908D01*
X154762863Y-90961826D01*
X154776501Y-90823363D01*
X154956029Y-90676029D01*
X155070000Y-90537154D01*
X155183971Y-90676029D01*
G36*
X136189500Y-95873000D02*
G01*
X136209500Y-95873000D01*
X136209500Y-96127000D01*
X136189500Y-96127000D01*
X136189500Y-96147000D01*
X135935500Y-96147000D01*
X135935500Y-96127000D01*
X135915500Y-96127000D01*
X135915500Y-95873000D01*
X135935500Y-95873000D01*
X135935500Y-95853000D01*
X136189500Y-95853000D01*
X136189500Y-95873000D01*
X136189500Y-95873000D01*
G37*
X136189500Y-95873000D02*
X136209500Y-95873000D01*
X136209500Y-96127000D01*
X136189500Y-96127000D01*
X136189500Y-96147000D01*
X135935500Y-96147000D01*
X135935500Y-96127000D01*
X135915500Y-96127000D01*
X135915500Y-95873000D01*
X135935500Y-95873000D01*
X135935500Y-95853000D01*
X136189500Y-95853000D01*
X136189500Y-95873000D01*
G36*
X146689500Y-95873000D02*
G01*
X146709500Y-95873000D01*
X146709500Y-96127000D01*
X146689500Y-96127000D01*
X146689500Y-96147000D01*
X146435500Y-96147000D01*
X146435500Y-96127000D01*
X146415500Y-96127000D01*
X146415500Y-95873000D01*
X146435500Y-95873000D01*
X146435500Y-95853000D01*
X146689500Y-95853000D01*
X146689500Y-95873000D01*
X146689500Y-95873000D01*
G37*
X146689500Y-95873000D02*
X146709500Y-95873000D01*
X146709500Y-96127000D01*
X146689500Y-96127000D01*
X146689500Y-96147000D01*
X146435500Y-96147000D01*
X146435500Y-96127000D01*
X146415500Y-96127000D01*
X146415500Y-95873000D01*
X146435500Y-95873000D01*
X146435500Y-95853000D01*
X146689500Y-95853000D01*
X146689500Y-95873000D01*
G36*
X150189500Y-95873000D02*
G01*
X150209500Y-95873000D01*
X150209500Y-96127000D01*
X150189500Y-96127000D01*
X150189500Y-96147000D01*
X149935500Y-96147000D01*
X149935500Y-96127000D01*
X149915500Y-96127000D01*
X149915500Y-95873000D01*
X149935500Y-95873000D01*
X149935500Y-95853000D01*
X150189500Y-95853000D01*
X150189500Y-95873000D01*
X150189500Y-95873000D01*
G37*
X150189500Y-95873000D02*
X150209500Y-95873000D01*
X150209500Y-96127000D01*
X150189500Y-96127000D01*
X150189500Y-96147000D01*
X149935500Y-96147000D01*
X149935500Y-96127000D01*
X149915500Y-96127000D01*
X149915500Y-95873000D01*
X149935500Y-95873000D01*
X149935500Y-95853000D01*
X150189500Y-95853000D01*
X150189500Y-95873000D01*
G36*
X150818798Y-73635553D02*
G01*
X151042097Y-73728047D01*
X151236912Y-73766798D01*
X154452258Y-76982145D01*
X154406007Y-76986700D01*
X151170058Y-76986700D01*
X151004902Y-76876347D01*
X150781603Y-76783853D01*
X150544549Y-76736700D01*
X150302851Y-76736700D01*
X150065797Y-76783853D01*
X149842498Y-76876347D01*
X149641533Y-77010627D01*
X149470627Y-77181533D01*
X149336347Y-77382498D01*
X149243853Y-77605797D01*
X149196700Y-77842851D01*
X149196700Y-78084549D01*
X149243853Y-78321603D01*
X149336347Y-78544902D01*
X149470627Y-78745867D01*
X149641533Y-78916773D01*
X149842498Y-79051053D01*
X150065797Y-79143547D01*
X150302851Y-79190700D01*
X150536938Y-79190700D01*
X150443724Y-79304282D01*
X150353003Y-79474009D01*
X150297137Y-79658175D01*
X150283499Y-79796637D01*
X150103972Y-79943971D01*
X149900654Y-80191714D01*
X149872943Y-80243558D01*
X149842601Y-80197161D01*
X149644895Y-79995500D01*
X149411646Y-79836285D01*
X149151818Y-79725633D01*
X149069039Y-79708096D01*
X148847000Y-79830085D01*
X148847000Y-81373000D01*
X148867000Y-81373000D01*
X148867000Y-81627000D01*
X148847000Y-81627000D01*
X148847000Y-83169915D01*
X149069039Y-83291904D01*
X149151818Y-83274367D01*
X149411646Y-83163715D01*
X149644895Y-83004500D01*
X149842601Y-82802839D01*
X149872943Y-82756441D01*
X149900654Y-82808285D01*
X150103971Y-83056029D01*
X150351714Y-83259346D01*
X150634362Y-83410425D01*
X150941052Y-83503458D01*
X151260000Y-83534872D01*
X151578947Y-83503458D01*
X151885637Y-83410425D01*
X152168285Y-83259346D01*
X152416029Y-83056029D01*
X152530000Y-82917154D01*
X152643971Y-83056029D01*
X152823499Y-83203364D01*
X152837137Y-83341825D01*
X152893003Y-83525990D01*
X152983725Y-83695718D01*
X153036480Y-83760000D01*
X153105815Y-83844486D01*
X153143093Y-83875079D01*
X156354577Y-87086564D01*
X156340000Y-87085128D01*
X156021053Y-87116542D01*
X155714363Y-87209575D01*
X155431715Y-87360654D01*
X155183972Y-87563971D01*
X155070000Y-87702846D01*
X154956029Y-87563971D01*
X154708286Y-87360654D01*
X154425638Y-87209575D01*
X154118948Y-87116542D01*
X153800000Y-87085128D01*
X153481053Y-87116542D01*
X153174363Y-87209575D01*
X152891715Y-87360654D01*
X152643972Y-87563971D01*
X152530000Y-87702846D01*
X152416029Y-87563971D01*
X152168286Y-87360654D01*
X151885638Y-87209575D01*
X151578948Y-87116542D01*
X151260000Y-87085128D01*
X150941053Y-87116542D01*
X150634363Y-87209575D01*
X150351715Y-87360654D01*
X150103972Y-87563971D01*
X149990000Y-87702846D01*
X149876029Y-87563971D01*
X149628286Y-87360654D01*
X149345638Y-87209575D01*
X149038948Y-87116542D01*
X148720000Y-87085128D01*
X148401053Y-87116542D01*
X148094363Y-87209575D01*
X147811715Y-87360654D01*
X147563972Y-87563971D01*
X147450000Y-87702846D01*
X147395252Y-87636134D01*
X148126507Y-86904880D01*
X148163786Y-86874286D01*
X148285876Y-86725518D01*
X148376597Y-86555791D01*
X148432463Y-86371625D01*
X148446600Y-86228093D01*
X148451327Y-86180100D01*
X148446600Y-86132107D01*
X148446600Y-83250348D01*
X148593000Y-83169915D01*
X148593000Y-81627000D01*
X148573000Y-81627000D01*
X148573000Y-81373000D01*
X148593000Y-81373000D01*
X148593000Y-79830085D01*
X148446600Y-79749652D01*
X148446600Y-75535286D01*
X148900885Y-75081001D01*
X149250000Y-75081001D01*
X149412120Y-75065034D01*
X149568010Y-75017745D01*
X149711679Y-74940952D01*
X149837606Y-74837606D01*
X149940952Y-74711679D01*
X150017745Y-74568010D01*
X150065034Y-74412120D01*
X150065217Y-74410265D01*
X150075991Y-74406997D01*
X150245718Y-74316276D01*
X150394486Y-74194186D01*
X150516576Y-74045418D01*
X150607297Y-73875691D01*
X150622067Y-73827000D01*
X150663163Y-73691525D01*
X150677946Y-73541439D01*
X150818798Y-73635553D01*
X150818798Y-73635553D01*
G37*
X150818798Y-73635553D02*
X151042097Y-73728047D01*
X151236912Y-73766798D01*
X154452258Y-76982145D01*
X154406007Y-76986700D01*
X151170058Y-76986700D01*
X151004902Y-76876347D01*
X150781603Y-76783853D01*
X150544549Y-76736700D01*
X150302851Y-76736700D01*
X150065797Y-76783853D01*
X149842498Y-76876347D01*
X149641533Y-77010627D01*
X149470627Y-77181533D01*
X149336347Y-77382498D01*
X149243853Y-77605797D01*
X149196700Y-77842851D01*
X149196700Y-78084549D01*
X149243853Y-78321603D01*
X149336347Y-78544902D01*
X149470627Y-78745867D01*
X149641533Y-78916773D01*
X149842498Y-79051053D01*
X150065797Y-79143547D01*
X150302851Y-79190700D01*
X150536938Y-79190700D01*
X150443724Y-79304282D01*
X150353003Y-79474009D01*
X150297137Y-79658175D01*
X150283499Y-79796637D01*
X150103972Y-79943971D01*
X149900654Y-80191714D01*
X149872943Y-80243558D01*
X149842601Y-80197161D01*
X149644895Y-79995500D01*
X149411646Y-79836285D01*
X149151818Y-79725633D01*
X149069039Y-79708096D01*
X148847000Y-79830085D01*
X148847000Y-81373000D01*
X148867000Y-81373000D01*
X148867000Y-81627000D01*
X148847000Y-81627000D01*
X148847000Y-83169915D01*
X149069039Y-83291904D01*
X149151818Y-83274367D01*
X149411646Y-83163715D01*
X149644895Y-83004500D01*
X149842601Y-82802839D01*
X149872943Y-82756441D01*
X149900654Y-82808285D01*
X150103971Y-83056029D01*
X150351714Y-83259346D01*
X150634362Y-83410425D01*
X150941052Y-83503458D01*
X151260000Y-83534872D01*
X151578947Y-83503458D01*
X151885637Y-83410425D01*
X152168285Y-83259346D01*
X152416029Y-83056029D01*
X152530000Y-82917154D01*
X152643971Y-83056029D01*
X152823499Y-83203364D01*
X152837137Y-83341825D01*
X152893003Y-83525990D01*
X152983725Y-83695718D01*
X153036480Y-83760000D01*
X153105815Y-83844486D01*
X153143093Y-83875079D01*
X156354577Y-87086564D01*
X156340000Y-87085128D01*
X156021053Y-87116542D01*
X155714363Y-87209575D01*
X155431715Y-87360654D01*
X155183972Y-87563971D01*
X155070000Y-87702846D01*
X154956029Y-87563971D01*
X154708286Y-87360654D01*
X154425638Y-87209575D01*
X154118948Y-87116542D01*
X153800000Y-87085128D01*
X153481053Y-87116542D01*
X153174363Y-87209575D01*
X152891715Y-87360654D01*
X152643972Y-87563971D01*
X152530000Y-87702846D01*
X152416029Y-87563971D01*
X152168286Y-87360654D01*
X151885638Y-87209575D01*
X151578948Y-87116542D01*
X151260000Y-87085128D01*
X150941053Y-87116542D01*
X150634363Y-87209575D01*
X150351715Y-87360654D01*
X150103972Y-87563971D01*
X149990000Y-87702846D01*
X149876029Y-87563971D01*
X149628286Y-87360654D01*
X149345638Y-87209575D01*
X149038948Y-87116542D01*
X148720000Y-87085128D01*
X148401053Y-87116542D01*
X148094363Y-87209575D01*
X147811715Y-87360654D01*
X147563972Y-87563971D01*
X147450000Y-87702846D01*
X147395252Y-87636134D01*
X148126507Y-86904880D01*
X148163786Y-86874286D01*
X148285876Y-86725518D01*
X148376597Y-86555791D01*
X148432463Y-86371625D01*
X148446600Y-86228093D01*
X148451327Y-86180100D01*
X148446600Y-86132107D01*
X148446600Y-83250348D01*
X148593000Y-83169915D01*
X148593000Y-81627000D01*
X148573000Y-81627000D01*
X148573000Y-81373000D01*
X148593000Y-81373000D01*
X148593000Y-79830085D01*
X148446600Y-79749652D01*
X148446600Y-75535286D01*
X148900885Y-75081001D01*
X149250000Y-75081001D01*
X149412120Y-75065034D01*
X149568010Y-75017745D01*
X149711679Y-74940952D01*
X149837606Y-74837606D01*
X149940952Y-74711679D01*
X150017745Y-74568010D01*
X150065034Y-74412120D01*
X150065217Y-74410265D01*
X150075991Y-74406997D01*
X150245718Y-74316276D01*
X150394486Y-74194186D01*
X150516576Y-74045418D01*
X150607297Y-73875691D01*
X150622067Y-73827000D01*
X150663163Y-73691525D01*
X150677946Y-73541439D01*
X150818798Y-73635553D01*
G36*
X143613748Y-73485858D02*
G01*
X143599605Y-73500000D01*
X143613748Y-73514143D01*
X143434143Y-73693748D01*
X143420000Y-73679605D01*
X142642612Y-74456993D01*
X142708137Y-74695860D01*
X142955116Y-74811760D01*
X143219960Y-74877250D01*
X143492492Y-74889812D01*
X143713000Y-74856421D01*
X143713000Y-75549013D01*
X141713093Y-77548921D01*
X141675815Y-77579514D01*
X141645222Y-77616792D01*
X141645221Y-77616793D01*
X141553725Y-77728282D01*
X141531700Y-77769488D01*
X141531700Y-75000086D01*
X142299304Y-74232482D01*
X142463007Y-74277388D01*
X143240395Y-73500000D01*
X143226253Y-73485858D01*
X143405858Y-73306253D01*
X143420000Y-73320395D01*
X143434143Y-73306253D01*
X143613748Y-73485858D01*
X143613748Y-73485858D01*
G37*
X143613748Y-73485858D02*
X143599605Y-73500000D01*
X143613748Y-73514143D01*
X143434143Y-73693748D01*
X143420000Y-73679605D01*
X142642612Y-74456993D01*
X142708137Y-74695860D01*
X142955116Y-74811760D01*
X143219960Y-74877250D01*
X143492492Y-74889812D01*
X143713000Y-74856421D01*
X143713000Y-75549013D01*
X141713093Y-77548921D01*
X141675815Y-77579514D01*
X141645222Y-77616792D01*
X141645221Y-77616793D01*
X141553725Y-77728282D01*
X141531700Y-77769488D01*
X141531700Y-75000086D01*
X142299304Y-74232482D01*
X142463007Y-74277388D01*
X143240395Y-73500000D01*
X143226253Y-73485858D01*
X143405858Y-73306253D01*
X143420000Y-73320395D01*
X143434143Y-73306253D01*
X143613748Y-73485858D01*
G36*
X170898519Y-70143109D02*
G01*
X171019186Y-70373000D01*
X172213000Y-70373000D01*
X172213000Y-70353000D01*
X172467000Y-70353000D01*
X172467000Y-70373000D01*
X172487000Y-70373000D01*
X172487000Y-70627000D01*
X172467000Y-70627000D01*
X172467000Y-70647000D01*
X172213000Y-70647000D01*
X172213000Y-70627000D01*
X171019186Y-70627000D01*
X170916151Y-70823300D01*
X169663849Y-70823300D01*
X169560814Y-70627000D01*
X168367000Y-70627000D01*
X168367000Y-70647000D01*
X168113000Y-70647000D01*
X168113000Y-70627000D01*
X168093000Y-70627000D01*
X168093000Y-70373000D01*
X168113000Y-70373000D01*
X168113000Y-70353000D01*
X168367000Y-70353000D01*
X168367000Y-70373000D01*
X169560814Y-70373000D01*
X169681481Y-70143109D01*
X169587865Y-69879200D01*
X170992135Y-69879200D01*
X170898519Y-70143109D01*
X170898519Y-70143109D01*
G37*
X170898519Y-70143109D02*
X171019186Y-70373000D01*
X172213000Y-70373000D01*
X172213000Y-70353000D01*
X172467000Y-70353000D01*
X172467000Y-70373000D01*
X172487000Y-70373000D01*
X172487000Y-70627000D01*
X172467000Y-70627000D01*
X172467000Y-70647000D01*
X172213000Y-70647000D01*
X172213000Y-70627000D01*
X171019186Y-70627000D01*
X170916151Y-70823300D01*
X169663849Y-70823300D01*
X169560814Y-70627000D01*
X168367000Y-70627000D01*
X168367000Y-70647000D01*
X168113000Y-70647000D01*
X168113000Y-70627000D01*
X168093000Y-70627000D01*
X168093000Y-70373000D01*
X168113000Y-70373000D01*
X168113000Y-70353000D01*
X168367000Y-70353000D01*
X168367000Y-70373000D01*
X169560814Y-70373000D01*
X169681481Y-70143109D01*
X169587865Y-69879200D01*
X170992135Y-69879200D01*
X170898519Y-70143109D01*
G36*
X180544192Y-52364587D02*
G01*
X181500000Y-53320395D01*
X182455808Y-52364587D01*
X182369756Y-52127000D01*
X187130244Y-52127000D01*
X187044192Y-52364587D01*
X188000000Y-53320395D01*
X188955808Y-52364587D01*
X188869756Y-52127000D01*
X191742356Y-52127000D01*
X191431319Y-52592500D01*
X191127755Y-53325367D01*
X190973000Y-54103375D01*
X190973000Y-54896625D01*
X191127755Y-55674633D01*
X191431319Y-56407500D01*
X191872025Y-57067063D01*
X192432937Y-57627975D01*
X193092500Y-58068681D01*
X193825367Y-58372245D01*
X194603375Y-58527000D01*
X195396625Y-58527000D01*
X196174633Y-58372245D01*
X196907500Y-58068681D01*
X197567063Y-57627975D01*
X197873000Y-57322038D01*
X197873000Y-68303408D01*
X197769719Y-68054066D01*
X197551171Y-67726986D01*
X197273014Y-67448829D01*
X196945934Y-67230281D01*
X196582504Y-67079743D01*
X196196687Y-67003000D01*
X195803313Y-67003000D01*
X195417496Y-67079743D01*
X195054066Y-67230281D01*
X194726986Y-67448829D01*
X194448829Y-67726986D01*
X194251039Y-68023000D01*
X178967990Y-68023000D01*
X178919999Y-68018273D01*
X178872009Y-68023000D01*
X178872007Y-68023000D01*
X178728475Y-68037137D01*
X178544309Y-68093003D01*
X178374582Y-68183724D01*
X178225814Y-68305814D01*
X178195220Y-68343093D01*
X177696222Y-68842092D01*
X177502383Y-68823000D01*
X177337617Y-68823000D01*
X177091251Y-68847265D01*
X176775135Y-68943158D01*
X176483801Y-69098879D01*
X176228444Y-69308444D01*
X176150000Y-69404029D01*
X176071556Y-69308444D01*
X175816199Y-69098879D01*
X175524865Y-68943158D01*
X175208749Y-68847265D01*
X174962383Y-68823000D01*
X174797617Y-68823000D01*
X174551251Y-68847265D01*
X174235135Y-68943158D01*
X173943801Y-69098879D01*
X173688444Y-69308444D01*
X173482150Y-69559815D01*
X173340269Y-69402412D01*
X173106920Y-69228359D01*
X172844099Y-69103175D01*
X172732393Y-69069293D01*
X176143778Y-65657908D01*
X176337617Y-65677000D01*
X176502383Y-65677000D01*
X176748749Y-65652735D01*
X177064865Y-65556842D01*
X177356199Y-65401121D01*
X177611556Y-65191556D01*
X177690000Y-65095971D01*
X177768444Y-65191556D01*
X178023801Y-65401121D01*
X178315135Y-65556842D01*
X178631251Y-65652735D01*
X178877617Y-65677000D01*
X179042383Y-65677000D01*
X179288749Y-65652735D01*
X179604865Y-65556842D01*
X179896199Y-65401121D01*
X180126034Y-65212501D01*
X180198815Y-65301185D01*
X180295506Y-65380537D01*
X180405820Y-65439502D01*
X180525518Y-65475812D01*
X180650000Y-65488072D01*
X181214250Y-65485000D01*
X181373000Y-65326250D01*
X181373000Y-64127000D01*
X181627000Y-64127000D01*
X181627000Y-65326250D01*
X181785750Y-65485000D01*
X182350000Y-65488072D01*
X182474482Y-65475812D01*
X182594180Y-65439502D01*
X182704494Y-65380537D01*
X182801185Y-65301185D01*
X182837773Y-65256602D01*
X194923003Y-65256602D01*
X195039275Y-65538389D01*
X195357860Y-65696257D01*
X195701122Y-65788938D01*
X196055869Y-65812873D01*
X196408470Y-65767139D01*
X196745373Y-65653495D01*
X196960725Y-65538389D01*
X197076997Y-65256602D01*
X196000000Y-64179605D01*
X194923003Y-65256602D01*
X182837773Y-65256602D01*
X182880537Y-65204494D01*
X182939502Y-65094180D01*
X182975812Y-64974482D01*
X182988072Y-64850000D01*
X182985000Y-64285750D01*
X182826250Y-64127000D01*
X181627000Y-64127000D01*
X181373000Y-64127000D01*
X181353000Y-64127000D01*
X181353000Y-64055869D01*
X194187127Y-64055869D01*
X194232861Y-64408470D01*
X194346505Y-64745373D01*
X194461611Y-64960725D01*
X194743398Y-65076997D01*
X195820395Y-64000000D01*
X196179605Y-64000000D01*
X197256602Y-65076997D01*
X197538389Y-64960725D01*
X197696257Y-64642140D01*
X197788938Y-64298878D01*
X197812873Y-63944131D01*
X197767139Y-63591530D01*
X197653495Y-63254627D01*
X197538389Y-63039275D01*
X197256602Y-62923003D01*
X196179605Y-64000000D01*
X195820395Y-64000000D01*
X194743398Y-62923003D01*
X194461611Y-63039275D01*
X194303743Y-63357860D01*
X194211062Y-63701122D01*
X194187127Y-64055869D01*
X181353000Y-64055869D01*
X181353000Y-63873000D01*
X181373000Y-63873000D01*
X181373000Y-62673750D01*
X181627000Y-62673750D01*
X181627000Y-63873000D01*
X182826250Y-63873000D01*
X182985000Y-63714250D01*
X182988072Y-63150000D01*
X182975812Y-63025518D01*
X182939502Y-62905820D01*
X182880537Y-62795506D01*
X182837774Y-62743398D01*
X194923003Y-62743398D01*
X196000000Y-63820395D01*
X197076997Y-62743398D01*
X196960725Y-62461611D01*
X196642140Y-62303743D01*
X196298878Y-62211062D01*
X195944131Y-62187127D01*
X195591530Y-62232861D01*
X195254627Y-62346505D01*
X195039275Y-62461611D01*
X194923003Y-62743398D01*
X182837774Y-62743398D01*
X182801185Y-62698815D01*
X182704494Y-62619463D01*
X182594180Y-62560498D01*
X182474482Y-62524188D01*
X182350000Y-62511928D01*
X181785750Y-62515000D01*
X181627000Y-62673750D01*
X181373000Y-62673750D01*
X181214250Y-62515000D01*
X180650000Y-62511928D01*
X180525518Y-62524188D01*
X180405820Y-62560498D01*
X180295506Y-62619463D01*
X180198815Y-62698815D01*
X180126034Y-62787499D01*
X179896199Y-62598879D01*
X179604865Y-62443158D01*
X179288749Y-62347265D01*
X179042383Y-62323000D01*
X178877617Y-62323000D01*
X178631251Y-62347265D01*
X178315135Y-62443158D01*
X178023801Y-62598879D01*
X177768444Y-62808444D01*
X177690000Y-62904029D01*
X177611556Y-62808444D01*
X177356199Y-62598879D01*
X177064865Y-62443158D01*
X176748749Y-62347265D01*
X176502383Y-62323000D01*
X176337617Y-62323000D01*
X176091251Y-62347265D01*
X175775135Y-62443158D01*
X175483801Y-62598879D01*
X175228444Y-62808444D01*
X175150000Y-62904029D01*
X175071556Y-62808444D01*
X174816199Y-62598879D01*
X174524865Y-62443158D01*
X174208749Y-62347265D01*
X173962383Y-62323000D01*
X173797617Y-62323000D01*
X173551251Y-62347265D01*
X173235135Y-62443158D01*
X172943801Y-62598879D01*
X172688444Y-62808444D01*
X172610000Y-62904029D01*
X172531556Y-62808444D01*
X172276199Y-62598879D01*
X171984865Y-62443158D01*
X171668749Y-62347265D01*
X171422383Y-62323000D01*
X171257617Y-62323000D01*
X171011251Y-62347265D01*
X170695135Y-62443158D01*
X170403801Y-62598879D01*
X170148444Y-62808444D01*
X170070000Y-62904029D01*
X169991556Y-62808444D01*
X169736199Y-62598879D01*
X169444865Y-62443158D01*
X169128749Y-62347265D01*
X168882383Y-62323000D01*
X168717617Y-62323000D01*
X168471251Y-62347265D01*
X168155135Y-62443158D01*
X167863801Y-62598879D01*
X167608444Y-62808444D01*
X167530000Y-62904029D01*
X167451556Y-62808444D01*
X167196199Y-62598879D01*
X166904865Y-62443158D01*
X166588749Y-62347265D01*
X166342383Y-62323000D01*
X166177617Y-62323000D01*
X165931251Y-62347265D01*
X165615135Y-62443158D01*
X165323801Y-62598879D01*
X165068444Y-62808444D01*
X164990000Y-62904029D01*
X164911556Y-62808444D01*
X164656199Y-62598879D01*
X164364865Y-62443158D01*
X164048749Y-62347265D01*
X163802383Y-62323000D01*
X163637617Y-62323000D01*
X163391251Y-62347265D01*
X163075135Y-62443158D01*
X162783801Y-62598879D01*
X162528444Y-62808444D01*
X162450000Y-62904029D01*
X162371556Y-62808444D01*
X162116199Y-62598879D01*
X161824865Y-62443158D01*
X161635862Y-62385824D01*
X162285387Y-61736300D01*
X169232707Y-61736300D01*
X169280700Y-61741027D01*
X169472225Y-61722163D01*
X169656391Y-61666297D01*
X169826118Y-61575576D01*
X169974886Y-61453486D01*
X170005484Y-61416202D01*
X172876835Y-58544852D01*
X172887634Y-58547000D01*
X173192366Y-58547000D01*
X173491243Y-58487549D01*
X173772779Y-58370933D01*
X174026155Y-58201633D01*
X174241633Y-57986155D01*
X174275439Y-57935560D01*
X174824045Y-57935560D01*
X174885932Y-58171368D01*
X175127790Y-58284266D01*
X175387027Y-58347811D01*
X175653680Y-58359561D01*
X175917501Y-58319063D01*
X176168353Y-58227875D01*
X176274068Y-58171368D01*
X176335955Y-57935560D01*
X175580000Y-57179605D01*
X174824045Y-57935560D01*
X174275439Y-57935560D01*
X174410933Y-57732779D01*
X174425170Y-57698408D01*
X174644440Y-57755955D01*
X175400395Y-57000000D01*
X175386253Y-56985858D01*
X175565510Y-56806600D01*
X175566205Y-56806600D01*
X175580000Y-56820395D01*
X175593795Y-56806600D01*
X175594490Y-56806600D01*
X175773748Y-56985858D01*
X175759605Y-57000000D01*
X176515560Y-57755955D01*
X176751368Y-57694068D01*
X176864266Y-57452210D01*
X176927811Y-57192973D01*
X176939561Y-56926320D01*
X176916473Y-56775916D01*
X177046091Y-56736597D01*
X177215818Y-56645876D01*
X177364586Y-56523786D01*
X177395184Y-56486502D01*
X178000000Y-55881686D01*
X179717028Y-57598715D01*
X179673000Y-57820056D01*
X179673000Y-58179944D01*
X179743211Y-58532916D01*
X179880934Y-58865409D01*
X180080876Y-59164645D01*
X180335355Y-59419124D01*
X180634591Y-59619066D01*
X180967084Y-59756789D01*
X181320056Y-59827000D01*
X181679944Y-59827000D01*
X182032916Y-59756789D01*
X182365409Y-59619066D01*
X182664645Y-59419124D01*
X182919124Y-59164645D01*
X183044504Y-58977000D01*
X186455496Y-58977000D01*
X186580876Y-59164645D01*
X186835355Y-59419124D01*
X187134591Y-59619066D01*
X187467084Y-59756789D01*
X187820056Y-59827000D01*
X188179944Y-59827000D01*
X188532916Y-59756789D01*
X188865409Y-59619066D01*
X189164645Y-59419124D01*
X189419124Y-59164645D01*
X189619066Y-58865409D01*
X189756789Y-58532916D01*
X189827000Y-58179944D01*
X189827000Y-57820056D01*
X189756789Y-57467084D01*
X189619066Y-57134591D01*
X189419124Y-56835355D01*
X189164645Y-56580876D01*
X188865409Y-56380934D01*
X188532916Y-56243211D01*
X188179944Y-56173000D01*
X187820056Y-56173000D01*
X187467084Y-56243211D01*
X187134591Y-56380934D01*
X186835355Y-56580876D01*
X186580876Y-56835355D01*
X186455496Y-57023000D01*
X183044504Y-57023000D01*
X182919124Y-56835355D01*
X182664645Y-56580876D01*
X182365409Y-56380934D01*
X182032916Y-56243211D01*
X181679944Y-56173000D01*
X181320056Y-56173000D01*
X181098715Y-56217028D01*
X179517100Y-54635413D01*
X180544192Y-54635413D01*
X180639956Y-54899814D01*
X180929571Y-55040704D01*
X181241108Y-55122384D01*
X181562595Y-55141718D01*
X181881675Y-55097961D01*
X182186088Y-54992795D01*
X182360044Y-54899814D01*
X182455808Y-54635413D01*
X187044192Y-54635413D01*
X187139956Y-54899814D01*
X187429571Y-55040704D01*
X187741108Y-55122384D01*
X188062595Y-55141718D01*
X188381675Y-55097961D01*
X188686088Y-54992795D01*
X188860044Y-54899814D01*
X188955808Y-54635413D01*
X188000000Y-53679605D01*
X187044192Y-54635413D01*
X182455808Y-54635413D01*
X181500000Y-53679605D01*
X180544192Y-54635413D01*
X179517100Y-54635413D01*
X178977000Y-54095314D01*
X178977000Y-53562595D01*
X179858282Y-53562595D01*
X179902039Y-53881675D01*
X180007205Y-54186088D01*
X180100186Y-54360044D01*
X180364587Y-54455808D01*
X181320395Y-53500000D01*
X181679605Y-53500000D01*
X182635413Y-54455808D01*
X182899814Y-54360044D01*
X183040704Y-54070429D01*
X183122384Y-53758892D01*
X183134189Y-53562595D01*
X186358282Y-53562595D01*
X186402039Y-53881675D01*
X186507205Y-54186088D01*
X186600186Y-54360044D01*
X186864587Y-54455808D01*
X187820395Y-53500000D01*
X188179605Y-53500000D01*
X189135413Y-54455808D01*
X189399814Y-54360044D01*
X189540704Y-54070429D01*
X189622384Y-53758892D01*
X189641718Y-53437405D01*
X189597961Y-53118325D01*
X189492795Y-52813912D01*
X189399814Y-52639956D01*
X189135413Y-52544192D01*
X188179605Y-53500000D01*
X187820395Y-53500000D01*
X186864587Y-52544192D01*
X186600186Y-52639956D01*
X186459296Y-52929571D01*
X186377616Y-53241108D01*
X186358282Y-53562595D01*
X183134189Y-53562595D01*
X183141718Y-53437405D01*
X183097961Y-53118325D01*
X182992795Y-52813912D01*
X182899814Y-52639956D01*
X182635413Y-52544192D01*
X181679605Y-53500000D01*
X181320395Y-53500000D01*
X180364587Y-52544192D01*
X180100186Y-52639956D01*
X179959296Y-52929571D01*
X179877616Y-53241108D01*
X179858282Y-53562595D01*
X178977000Y-53562595D01*
X178977000Y-53303965D01*
X179037152Y-53263773D01*
X179263773Y-53037152D01*
X179441828Y-52770673D01*
X179564475Y-52474578D01*
X179627000Y-52160245D01*
X179627000Y-52127000D01*
X180630244Y-52127000D01*
X180544192Y-52364587D01*
X180544192Y-52364587D01*
G37*
X180544192Y-52364587D02*
X181500000Y-53320395D01*
X182455808Y-52364587D01*
X182369756Y-52127000D01*
X187130244Y-52127000D01*
X187044192Y-52364587D01*
X188000000Y-53320395D01*
X188955808Y-52364587D01*
X188869756Y-52127000D01*
X191742356Y-52127000D01*
X191431319Y-52592500D01*
X191127755Y-53325367D01*
X190973000Y-54103375D01*
X190973000Y-54896625D01*
X191127755Y-55674633D01*
X191431319Y-56407500D01*
X191872025Y-57067063D01*
X192432937Y-57627975D01*
X193092500Y-58068681D01*
X193825367Y-58372245D01*
X194603375Y-58527000D01*
X195396625Y-58527000D01*
X196174633Y-58372245D01*
X196907500Y-58068681D01*
X197567063Y-57627975D01*
X197873000Y-57322038D01*
X197873000Y-68303408D01*
X197769719Y-68054066D01*
X197551171Y-67726986D01*
X197273014Y-67448829D01*
X196945934Y-67230281D01*
X196582504Y-67079743D01*
X196196687Y-67003000D01*
X195803313Y-67003000D01*
X195417496Y-67079743D01*
X195054066Y-67230281D01*
X194726986Y-67448829D01*
X194448829Y-67726986D01*
X194251039Y-68023000D01*
X178967990Y-68023000D01*
X178919999Y-68018273D01*
X178872009Y-68023000D01*
X178872007Y-68023000D01*
X178728475Y-68037137D01*
X178544309Y-68093003D01*
X178374582Y-68183724D01*
X178225814Y-68305814D01*
X178195220Y-68343093D01*
X177696222Y-68842092D01*
X177502383Y-68823000D01*
X177337617Y-68823000D01*
X177091251Y-68847265D01*
X176775135Y-68943158D01*
X176483801Y-69098879D01*
X176228444Y-69308444D01*
X176150000Y-69404029D01*
X176071556Y-69308444D01*
X175816199Y-69098879D01*
X175524865Y-68943158D01*
X175208749Y-68847265D01*
X174962383Y-68823000D01*
X174797617Y-68823000D01*
X174551251Y-68847265D01*
X174235135Y-68943158D01*
X173943801Y-69098879D01*
X173688444Y-69308444D01*
X173482150Y-69559815D01*
X173340269Y-69402412D01*
X173106920Y-69228359D01*
X172844099Y-69103175D01*
X172732393Y-69069293D01*
X176143778Y-65657908D01*
X176337617Y-65677000D01*
X176502383Y-65677000D01*
X176748749Y-65652735D01*
X177064865Y-65556842D01*
X177356199Y-65401121D01*
X177611556Y-65191556D01*
X177690000Y-65095971D01*
X177768444Y-65191556D01*
X178023801Y-65401121D01*
X178315135Y-65556842D01*
X178631251Y-65652735D01*
X178877617Y-65677000D01*
X179042383Y-65677000D01*
X179288749Y-65652735D01*
X179604865Y-65556842D01*
X179896199Y-65401121D01*
X180126034Y-65212501D01*
X180198815Y-65301185D01*
X180295506Y-65380537D01*
X180405820Y-65439502D01*
X180525518Y-65475812D01*
X180650000Y-65488072D01*
X181214250Y-65485000D01*
X181373000Y-65326250D01*
X181373000Y-64127000D01*
X181627000Y-64127000D01*
X181627000Y-65326250D01*
X181785750Y-65485000D01*
X182350000Y-65488072D01*
X182474482Y-65475812D01*
X182594180Y-65439502D01*
X182704494Y-65380537D01*
X182801185Y-65301185D01*
X182837773Y-65256602D01*
X194923003Y-65256602D01*
X195039275Y-65538389D01*
X195357860Y-65696257D01*
X195701122Y-65788938D01*
X196055869Y-65812873D01*
X196408470Y-65767139D01*
X196745373Y-65653495D01*
X196960725Y-65538389D01*
X197076997Y-65256602D01*
X196000000Y-64179605D01*
X194923003Y-65256602D01*
X182837773Y-65256602D01*
X182880537Y-65204494D01*
X182939502Y-65094180D01*
X182975812Y-64974482D01*
X182988072Y-64850000D01*
X182985000Y-64285750D01*
X182826250Y-64127000D01*
X181627000Y-64127000D01*
X181373000Y-64127000D01*
X181353000Y-64127000D01*
X181353000Y-64055869D01*
X194187127Y-64055869D01*
X194232861Y-64408470D01*
X194346505Y-64745373D01*
X194461611Y-64960725D01*
X194743398Y-65076997D01*
X195820395Y-64000000D01*
X196179605Y-64000000D01*
X197256602Y-65076997D01*
X197538389Y-64960725D01*
X197696257Y-64642140D01*
X197788938Y-64298878D01*
X197812873Y-63944131D01*
X197767139Y-63591530D01*
X197653495Y-63254627D01*
X197538389Y-63039275D01*
X197256602Y-62923003D01*
X196179605Y-64000000D01*
X195820395Y-64000000D01*
X194743398Y-62923003D01*
X194461611Y-63039275D01*
X194303743Y-63357860D01*
X194211062Y-63701122D01*
X194187127Y-64055869D01*
X181353000Y-64055869D01*
X181353000Y-63873000D01*
X181373000Y-63873000D01*
X181373000Y-62673750D01*
X181627000Y-62673750D01*
X181627000Y-63873000D01*
X182826250Y-63873000D01*
X182985000Y-63714250D01*
X182988072Y-63150000D01*
X182975812Y-63025518D01*
X182939502Y-62905820D01*
X182880537Y-62795506D01*
X182837774Y-62743398D01*
X194923003Y-62743398D01*
X196000000Y-63820395D01*
X197076997Y-62743398D01*
X196960725Y-62461611D01*
X196642140Y-62303743D01*
X196298878Y-62211062D01*
X195944131Y-62187127D01*
X195591530Y-62232861D01*
X195254627Y-62346505D01*
X195039275Y-62461611D01*
X194923003Y-62743398D01*
X182837774Y-62743398D01*
X182801185Y-62698815D01*
X182704494Y-62619463D01*
X182594180Y-62560498D01*
X182474482Y-62524188D01*
X182350000Y-62511928D01*
X181785750Y-62515000D01*
X181627000Y-62673750D01*
X181373000Y-62673750D01*
X181214250Y-62515000D01*
X180650000Y-62511928D01*
X180525518Y-62524188D01*
X180405820Y-62560498D01*
X180295506Y-62619463D01*
X180198815Y-62698815D01*
X180126034Y-62787499D01*
X179896199Y-62598879D01*
X179604865Y-62443158D01*
X179288749Y-62347265D01*
X179042383Y-62323000D01*
X178877617Y-62323000D01*
X178631251Y-62347265D01*
X178315135Y-62443158D01*
X178023801Y-62598879D01*
X177768444Y-62808444D01*
X177690000Y-62904029D01*
X177611556Y-62808444D01*
X177356199Y-62598879D01*
X177064865Y-62443158D01*
X176748749Y-62347265D01*
X176502383Y-62323000D01*
X176337617Y-62323000D01*
X176091251Y-62347265D01*
X175775135Y-62443158D01*
X175483801Y-62598879D01*
X175228444Y-62808444D01*
X175150000Y-62904029D01*
X175071556Y-62808444D01*
X174816199Y-62598879D01*
X174524865Y-62443158D01*
X174208749Y-62347265D01*
X173962383Y-62323000D01*
X173797617Y-62323000D01*
X173551251Y-62347265D01*
X173235135Y-62443158D01*
X172943801Y-62598879D01*
X172688444Y-62808444D01*
X172610000Y-62904029D01*
X172531556Y-62808444D01*
X172276199Y-62598879D01*
X171984865Y-62443158D01*
X171668749Y-62347265D01*
X171422383Y-62323000D01*
X171257617Y-62323000D01*
X171011251Y-62347265D01*
X170695135Y-62443158D01*
X170403801Y-62598879D01*
X170148444Y-62808444D01*
X170070000Y-62904029D01*
X169991556Y-62808444D01*
X169736199Y-62598879D01*
X169444865Y-62443158D01*
X169128749Y-62347265D01*
X168882383Y-62323000D01*
X168717617Y-62323000D01*
X168471251Y-62347265D01*
X168155135Y-62443158D01*
X167863801Y-62598879D01*
X167608444Y-62808444D01*
X167530000Y-62904029D01*
X167451556Y-62808444D01*
X167196199Y-62598879D01*
X166904865Y-62443158D01*
X166588749Y-62347265D01*
X166342383Y-62323000D01*
X166177617Y-62323000D01*
X165931251Y-62347265D01*
X165615135Y-62443158D01*
X165323801Y-62598879D01*
X165068444Y-62808444D01*
X164990000Y-62904029D01*
X164911556Y-62808444D01*
X164656199Y-62598879D01*
X164364865Y-62443158D01*
X164048749Y-62347265D01*
X163802383Y-62323000D01*
X163637617Y-62323000D01*
X163391251Y-62347265D01*
X163075135Y-62443158D01*
X162783801Y-62598879D01*
X162528444Y-62808444D01*
X162450000Y-62904029D01*
X162371556Y-62808444D01*
X162116199Y-62598879D01*
X161824865Y-62443158D01*
X161635862Y-62385824D01*
X162285387Y-61736300D01*
X169232707Y-61736300D01*
X169280700Y-61741027D01*
X169472225Y-61722163D01*
X169656391Y-61666297D01*
X169826118Y-61575576D01*
X169974886Y-61453486D01*
X170005484Y-61416202D01*
X172876835Y-58544852D01*
X172887634Y-58547000D01*
X173192366Y-58547000D01*
X173491243Y-58487549D01*
X173772779Y-58370933D01*
X174026155Y-58201633D01*
X174241633Y-57986155D01*
X174275439Y-57935560D01*
X174824045Y-57935560D01*
X174885932Y-58171368D01*
X175127790Y-58284266D01*
X175387027Y-58347811D01*
X175653680Y-58359561D01*
X175917501Y-58319063D01*
X176168353Y-58227875D01*
X176274068Y-58171368D01*
X176335955Y-57935560D01*
X175580000Y-57179605D01*
X174824045Y-57935560D01*
X174275439Y-57935560D01*
X174410933Y-57732779D01*
X174425170Y-57698408D01*
X174644440Y-57755955D01*
X175400395Y-57000000D01*
X175386253Y-56985858D01*
X175565510Y-56806600D01*
X175566205Y-56806600D01*
X175580000Y-56820395D01*
X175593795Y-56806600D01*
X175594490Y-56806600D01*
X175773748Y-56985858D01*
X175759605Y-57000000D01*
X176515560Y-57755955D01*
X176751368Y-57694068D01*
X176864266Y-57452210D01*
X176927811Y-57192973D01*
X176939561Y-56926320D01*
X176916473Y-56775916D01*
X177046091Y-56736597D01*
X177215818Y-56645876D01*
X177364586Y-56523786D01*
X177395184Y-56486502D01*
X178000000Y-55881686D01*
X179717028Y-57598715D01*
X179673000Y-57820056D01*
X179673000Y-58179944D01*
X179743211Y-58532916D01*
X179880934Y-58865409D01*
X180080876Y-59164645D01*
X180335355Y-59419124D01*
X180634591Y-59619066D01*
X180967084Y-59756789D01*
X181320056Y-59827000D01*
X181679944Y-59827000D01*
X182032916Y-59756789D01*
X182365409Y-59619066D01*
X182664645Y-59419124D01*
X182919124Y-59164645D01*
X183044504Y-58977000D01*
X186455496Y-58977000D01*
X186580876Y-59164645D01*
X186835355Y-59419124D01*
X187134591Y-59619066D01*
X187467084Y-59756789D01*
X187820056Y-59827000D01*
X188179944Y-59827000D01*
X188532916Y-59756789D01*
X188865409Y-59619066D01*
X189164645Y-59419124D01*
X189419124Y-59164645D01*
X189619066Y-58865409D01*
X189756789Y-58532916D01*
X189827000Y-58179944D01*
X189827000Y-57820056D01*
X189756789Y-57467084D01*
X189619066Y-57134591D01*
X189419124Y-56835355D01*
X189164645Y-56580876D01*
X188865409Y-56380934D01*
X188532916Y-56243211D01*
X188179944Y-56173000D01*
X187820056Y-56173000D01*
X187467084Y-56243211D01*
X187134591Y-56380934D01*
X186835355Y-56580876D01*
X186580876Y-56835355D01*
X186455496Y-57023000D01*
X183044504Y-57023000D01*
X182919124Y-56835355D01*
X182664645Y-56580876D01*
X182365409Y-56380934D01*
X182032916Y-56243211D01*
X181679944Y-56173000D01*
X181320056Y-56173000D01*
X181098715Y-56217028D01*
X179517100Y-54635413D01*
X180544192Y-54635413D01*
X180639956Y-54899814D01*
X180929571Y-55040704D01*
X181241108Y-55122384D01*
X181562595Y-55141718D01*
X181881675Y-55097961D01*
X182186088Y-54992795D01*
X182360044Y-54899814D01*
X182455808Y-54635413D01*
X187044192Y-54635413D01*
X187139956Y-54899814D01*
X187429571Y-55040704D01*
X187741108Y-55122384D01*
X188062595Y-55141718D01*
X188381675Y-55097961D01*
X188686088Y-54992795D01*
X188860044Y-54899814D01*
X188955808Y-54635413D01*
X188000000Y-53679605D01*
X187044192Y-54635413D01*
X182455808Y-54635413D01*
X181500000Y-53679605D01*
X180544192Y-54635413D01*
X179517100Y-54635413D01*
X178977000Y-54095314D01*
X178977000Y-53562595D01*
X179858282Y-53562595D01*
X179902039Y-53881675D01*
X180007205Y-54186088D01*
X180100186Y-54360044D01*
X180364587Y-54455808D01*
X181320395Y-53500000D01*
X181679605Y-53500000D01*
X182635413Y-54455808D01*
X182899814Y-54360044D01*
X183040704Y-54070429D01*
X183122384Y-53758892D01*
X183134189Y-53562595D01*
X186358282Y-53562595D01*
X186402039Y-53881675D01*
X186507205Y-54186088D01*
X186600186Y-54360044D01*
X186864587Y-54455808D01*
X187820395Y-53500000D01*
X188179605Y-53500000D01*
X189135413Y-54455808D01*
X189399814Y-54360044D01*
X189540704Y-54070429D01*
X189622384Y-53758892D01*
X189641718Y-53437405D01*
X189597961Y-53118325D01*
X189492795Y-52813912D01*
X189399814Y-52639956D01*
X189135413Y-52544192D01*
X188179605Y-53500000D01*
X187820395Y-53500000D01*
X186864587Y-52544192D01*
X186600186Y-52639956D01*
X186459296Y-52929571D01*
X186377616Y-53241108D01*
X186358282Y-53562595D01*
X183134189Y-53562595D01*
X183141718Y-53437405D01*
X183097961Y-53118325D01*
X182992795Y-52813912D01*
X182899814Y-52639956D01*
X182635413Y-52544192D01*
X181679605Y-53500000D01*
X181320395Y-53500000D01*
X180364587Y-52544192D01*
X180100186Y-52639956D01*
X179959296Y-52929571D01*
X179877616Y-53241108D01*
X179858282Y-53562595D01*
X178977000Y-53562595D01*
X178977000Y-53303965D01*
X179037152Y-53263773D01*
X179263773Y-53037152D01*
X179441828Y-52770673D01*
X179564475Y-52474578D01*
X179627000Y-52160245D01*
X179627000Y-52127000D01*
X180630244Y-52127000D01*
X180544192Y-52364587D01*
G36*
X159707000Y-54373000D02*
G01*
X159727000Y-54373000D01*
X159727000Y-54627000D01*
X159707000Y-54627000D01*
X159707000Y-54647000D01*
X159453000Y-54647000D01*
X159453000Y-54627000D01*
X159433000Y-54627000D01*
X159433000Y-54373000D01*
X159453000Y-54373000D01*
X159453000Y-54353000D01*
X159707000Y-54353000D01*
X159707000Y-54373000D01*
X159707000Y-54373000D01*
G37*
X159707000Y-54373000D02*
X159727000Y-54373000D01*
X159727000Y-54627000D01*
X159707000Y-54627000D01*
X159707000Y-54647000D01*
X159453000Y-54647000D01*
X159453000Y-54627000D01*
X159433000Y-54627000D01*
X159433000Y-54373000D01*
X159453000Y-54373000D01*
X159453000Y-54353000D01*
X159707000Y-54353000D01*
X159707000Y-54373000D01*
M02*
