G04 #@! TF.GenerationSoftware,KiCad,Pcbnew,(5.1.4)-1*
G04 #@! TF.CreationDate,2021-08-09T13:21:02-03:00*
G04 #@! TF.ProjectId,Plc_Esp12,506c635f-4573-4703-9132-2e6b69636164,rev?*
G04 #@! TF.SameCoordinates,Original*
G04 #@! TF.FileFunction,Legend,Top*
G04 #@! TF.FilePolarity,Positive*
%FSLAX46Y46*%
G04 Gerber Fmt 4.6, Leading zero omitted, Abs format (unit mm)*
G04 Created by KiCad (PCBNEW (5.1.4)-1) date 2021-08-09 13:21:02*
%MOMM*%
%LPD*%
G04 APERTURE LIST*
%ADD10C,0.150000*%
%ADD11C,0.120000*%
G04 APERTURE END LIST*
D10*
X180723809Y-51047619D02*
X180723809Y-52047619D01*
X180190476Y-52047619D02*
X180114285Y-52047619D01*
X180038095Y-52000000D01*
X180000000Y-51952380D01*
X179961904Y-51857142D01*
X179923809Y-51666666D01*
X179923809Y-51428571D01*
X179961904Y-51238095D01*
X180000000Y-51142857D01*
X180038095Y-51095238D01*
X180114285Y-51047619D01*
X180190476Y-51047619D01*
X180266666Y-51095238D01*
X180304761Y-51142857D01*
X180342857Y-51238095D01*
X180380952Y-51428571D01*
X180380952Y-51666666D01*
X180342857Y-51857142D01*
X180304761Y-51952380D01*
X180266666Y-52000000D01*
X180190476Y-52047619D01*
X179580952Y-51142857D02*
X179542857Y-51095238D01*
X179580952Y-51047619D01*
X179619047Y-51095238D01*
X179580952Y-51142857D01*
X179580952Y-51047619D01*
X178819047Y-52047619D02*
X179200000Y-52047619D01*
X179238095Y-51571428D01*
X179200000Y-51619047D01*
X179123809Y-51666666D01*
X178933333Y-51666666D01*
X178857142Y-51619047D01*
X178819047Y-51571428D01*
X178780952Y-51476190D01*
X178780952Y-51238095D01*
X178819047Y-51142857D01*
X178857142Y-51095238D01*
X178933333Y-51047619D01*
X179123809Y-51047619D01*
X179200000Y-51095238D01*
X179238095Y-51142857D01*
X177828571Y-51047619D02*
X177828571Y-52047619D01*
X177371428Y-51047619D01*
X177371428Y-52047619D01*
X177028571Y-51333333D02*
X176647619Y-51333333D01*
X177104761Y-51047619D02*
X176838095Y-52047619D01*
X176571428Y-51047619D01*
X174628571Y-51142857D02*
X174666666Y-51095238D01*
X174780952Y-51047619D01*
X174857142Y-51047619D01*
X174971428Y-51095238D01*
X175047619Y-51190476D01*
X175085714Y-51285714D01*
X175123809Y-51476190D01*
X175123809Y-51619047D01*
X175085714Y-51809523D01*
X175047619Y-51904761D01*
X174971428Y-52000000D01*
X174857142Y-52047619D01*
X174780952Y-52047619D01*
X174666666Y-52000000D01*
X174628571Y-51952380D01*
X174133333Y-52047619D02*
X173980952Y-52047619D01*
X173904761Y-52000000D01*
X173828571Y-51904761D01*
X173790476Y-51714285D01*
X173790476Y-51380952D01*
X173828571Y-51190476D01*
X173904761Y-51095238D01*
X173980952Y-51047619D01*
X174133333Y-51047619D01*
X174209523Y-51095238D01*
X174285714Y-51190476D01*
X174323809Y-51380952D01*
X174323809Y-51714285D01*
X174285714Y-51904761D01*
X174209523Y-52000000D01*
X174133333Y-52047619D01*
X173447619Y-51047619D02*
X173447619Y-52047619D01*
X173180952Y-51333333D01*
X172914285Y-52047619D01*
X172914285Y-51047619D01*
X171314285Y-51047619D02*
X171314285Y-52047619D01*
X170780952Y-52047619D02*
X170704761Y-52047619D01*
X170628571Y-52000000D01*
X170590476Y-51952380D01*
X170552380Y-51857142D01*
X170514285Y-51666666D01*
X170514285Y-51428571D01*
X170552380Y-51238095D01*
X170590476Y-51142857D01*
X170628571Y-51095238D01*
X170704761Y-51047619D01*
X170780952Y-51047619D01*
X170857142Y-51095238D01*
X170895238Y-51142857D01*
X170933333Y-51238095D01*
X170971428Y-51428571D01*
X170971428Y-51666666D01*
X170933333Y-51857142D01*
X170895238Y-51952380D01*
X170857142Y-52000000D01*
X170780952Y-52047619D01*
X170171428Y-51142857D02*
X170133333Y-51095238D01*
X170171428Y-51047619D01*
X170209523Y-51095238D01*
X170171428Y-51142857D01*
X170171428Y-51047619D01*
X169447619Y-51714285D02*
X169447619Y-51047619D01*
X169638095Y-52095238D02*
X169828571Y-51380952D01*
X169333333Y-51380952D01*
X168419047Y-51047619D02*
X168419047Y-52047619D01*
X167961904Y-51047619D01*
X167961904Y-52047619D01*
X167619047Y-51333333D02*
X167238095Y-51333333D01*
X167695238Y-51047619D02*
X167428571Y-52047619D01*
X167161904Y-51047619D01*
X163780952Y-51047619D02*
X163780952Y-52047619D01*
X163247619Y-52047619D02*
X163171428Y-52047619D01*
X163095238Y-52000000D01*
X163057142Y-51952380D01*
X163019047Y-51857142D01*
X162980952Y-51666666D01*
X162980952Y-51428571D01*
X163019047Y-51238095D01*
X163057142Y-51142857D01*
X163095238Y-51095238D01*
X163171428Y-51047619D01*
X163247619Y-51047619D01*
X163323809Y-51095238D01*
X163361904Y-51142857D01*
X163400000Y-51238095D01*
X163438095Y-51428571D01*
X163438095Y-51666666D01*
X163400000Y-51857142D01*
X163361904Y-51952380D01*
X163323809Y-52000000D01*
X163247619Y-52047619D01*
X162638095Y-51142857D02*
X162600000Y-51095238D01*
X162638095Y-51047619D01*
X162676190Y-51095238D01*
X162638095Y-51142857D01*
X162638095Y-51047619D01*
X162333333Y-52047619D02*
X161838095Y-52047619D01*
X162104761Y-51666666D01*
X161990476Y-51666666D01*
X161914285Y-51619047D01*
X161876190Y-51571428D01*
X161838095Y-51476190D01*
X161838095Y-51238095D01*
X161876190Y-51142857D01*
X161914285Y-51095238D01*
X161990476Y-51047619D01*
X162219047Y-51047619D01*
X162295238Y-51095238D01*
X162333333Y-51142857D01*
X160885714Y-51047619D02*
X160885714Y-52047619D01*
X160428571Y-51047619D01*
X160428571Y-52047619D01*
X160085714Y-51333333D02*
X159704761Y-51333333D01*
X160161904Y-51047619D02*
X159895238Y-52047619D01*
X159628571Y-51047619D01*
X157685714Y-51142857D02*
X157723809Y-51095238D01*
X157838095Y-51047619D01*
X157914285Y-51047619D01*
X158028571Y-51095238D01*
X158104761Y-51190476D01*
X158142857Y-51285714D01*
X158180952Y-51476190D01*
X158180952Y-51619047D01*
X158142857Y-51809523D01*
X158104761Y-51904761D01*
X158028571Y-52000000D01*
X157914285Y-52047619D01*
X157838095Y-52047619D01*
X157723809Y-52000000D01*
X157685714Y-51952380D01*
X157190476Y-52047619D02*
X157038095Y-52047619D01*
X156961904Y-52000000D01*
X156885714Y-51904761D01*
X156847619Y-51714285D01*
X156847619Y-51380952D01*
X156885714Y-51190476D01*
X156961904Y-51095238D01*
X157038095Y-51047619D01*
X157190476Y-51047619D01*
X157266666Y-51095238D01*
X157342857Y-51190476D01*
X157380952Y-51380952D01*
X157380952Y-51714285D01*
X157342857Y-51904761D01*
X157266666Y-52000000D01*
X157190476Y-52047619D01*
X156504761Y-51047619D02*
X156504761Y-52047619D01*
X156238095Y-51333333D01*
X155971428Y-52047619D01*
X155971428Y-51047619D01*
X154371428Y-51047619D02*
X154371428Y-52047619D01*
X153838095Y-52047619D02*
X153761904Y-52047619D01*
X153685714Y-52000000D01*
X153647619Y-51952380D01*
X153609523Y-51857142D01*
X153571428Y-51666666D01*
X153571428Y-51428571D01*
X153609523Y-51238095D01*
X153647619Y-51142857D01*
X153685714Y-51095238D01*
X153761904Y-51047619D01*
X153838095Y-51047619D01*
X153914285Y-51095238D01*
X153952380Y-51142857D01*
X153990476Y-51238095D01*
X154028571Y-51428571D01*
X154028571Y-51666666D01*
X153990476Y-51857142D01*
X153952380Y-51952380D01*
X153914285Y-52000000D01*
X153838095Y-52047619D01*
X153228571Y-51142857D02*
X153190476Y-51095238D01*
X153228571Y-51047619D01*
X153266666Y-51095238D01*
X153228571Y-51142857D01*
X153228571Y-51047619D01*
X152923809Y-52047619D02*
X152428571Y-52047619D01*
X152695238Y-51666666D01*
X152580952Y-51666666D01*
X152504761Y-51619047D01*
X152466666Y-51571428D01*
X152428571Y-51476190D01*
X152428571Y-51238095D01*
X152466666Y-51142857D01*
X152504761Y-51095238D01*
X152580952Y-51047619D01*
X152809523Y-51047619D01*
X152885714Y-51095238D01*
X152923809Y-51142857D01*
X151476190Y-51047619D02*
X151476190Y-52047619D01*
X151019047Y-51047619D01*
X151019047Y-52047619D01*
X150180952Y-51142857D02*
X150219047Y-51095238D01*
X150333333Y-51047619D01*
X150409523Y-51047619D01*
X150523809Y-51095238D01*
X150600000Y-51190476D01*
X150638095Y-51285714D01*
X150676190Y-51476190D01*
X150676190Y-51619047D01*
X150638095Y-51809523D01*
X150600000Y-51904761D01*
X150523809Y-52000000D01*
X150409523Y-52047619D01*
X150333333Y-52047619D01*
X150219047Y-52000000D01*
X150180952Y-51952380D01*
X146780952Y-51047619D02*
X146780952Y-52047619D01*
X146247619Y-52047619D02*
X146171428Y-52047619D01*
X146095238Y-52000000D01*
X146057142Y-51952380D01*
X146019047Y-51857142D01*
X145980952Y-51666666D01*
X145980952Y-51428571D01*
X146019047Y-51238095D01*
X146057142Y-51142857D01*
X146095238Y-51095238D01*
X146171428Y-51047619D01*
X146247619Y-51047619D01*
X146323809Y-51095238D01*
X146361904Y-51142857D01*
X146400000Y-51238095D01*
X146438095Y-51428571D01*
X146438095Y-51666666D01*
X146400000Y-51857142D01*
X146361904Y-51952380D01*
X146323809Y-52000000D01*
X146247619Y-52047619D01*
X145638095Y-51142857D02*
X145600000Y-51095238D01*
X145638095Y-51047619D01*
X145676190Y-51095238D01*
X145638095Y-51142857D01*
X145638095Y-51047619D01*
X145295238Y-51952380D02*
X145257142Y-52000000D01*
X145180952Y-52047619D01*
X144990476Y-52047619D01*
X144914285Y-52000000D01*
X144876190Y-51952380D01*
X144838095Y-51857142D01*
X144838095Y-51761904D01*
X144876190Y-51619047D01*
X145333333Y-51047619D01*
X144838095Y-51047619D01*
X143885714Y-51047619D02*
X143885714Y-52047619D01*
X143428571Y-51047619D01*
X143428571Y-52047619D01*
X143085714Y-51333333D02*
X142704761Y-51333333D01*
X143161904Y-51047619D02*
X142895238Y-52047619D01*
X142628571Y-51047619D01*
X140685714Y-51142857D02*
X140723809Y-51095238D01*
X140838095Y-51047619D01*
X140914285Y-51047619D01*
X141028571Y-51095238D01*
X141104761Y-51190476D01*
X141142857Y-51285714D01*
X141180952Y-51476190D01*
X141180952Y-51619047D01*
X141142857Y-51809523D01*
X141104761Y-51904761D01*
X141028571Y-52000000D01*
X140914285Y-52047619D01*
X140838095Y-52047619D01*
X140723809Y-52000000D01*
X140685714Y-51952380D01*
X140190476Y-52047619D02*
X140038095Y-52047619D01*
X139961904Y-52000000D01*
X139885714Y-51904761D01*
X139847619Y-51714285D01*
X139847619Y-51380952D01*
X139885714Y-51190476D01*
X139961904Y-51095238D01*
X140038095Y-51047619D01*
X140190476Y-51047619D01*
X140266666Y-51095238D01*
X140342857Y-51190476D01*
X140380952Y-51380952D01*
X140380952Y-51714285D01*
X140342857Y-51904761D01*
X140266666Y-52000000D01*
X140190476Y-52047619D01*
X139504761Y-51047619D02*
X139504761Y-52047619D01*
X139238095Y-51333333D01*
X138971428Y-52047619D01*
X138971428Y-51047619D01*
X137371428Y-51047619D02*
X137371428Y-52047619D01*
X136838095Y-52047619D02*
X136761904Y-52047619D01*
X136685714Y-52000000D01*
X136647619Y-51952380D01*
X136609523Y-51857142D01*
X136571428Y-51666666D01*
X136571428Y-51428571D01*
X136609523Y-51238095D01*
X136647619Y-51142857D01*
X136685714Y-51095238D01*
X136761904Y-51047619D01*
X136838095Y-51047619D01*
X136914285Y-51095238D01*
X136952380Y-51142857D01*
X136990476Y-51238095D01*
X137028571Y-51428571D01*
X137028571Y-51666666D01*
X136990476Y-51857142D01*
X136952380Y-51952380D01*
X136914285Y-52000000D01*
X136838095Y-52047619D01*
X136228571Y-51142857D02*
X136190476Y-51095238D01*
X136228571Y-51047619D01*
X136266666Y-51095238D01*
X136228571Y-51142857D01*
X136228571Y-51047619D01*
X135885714Y-51952380D02*
X135847619Y-52000000D01*
X135771428Y-52047619D01*
X135580952Y-52047619D01*
X135504761Y-52000000D01*
X135466666Y-51952380D01*
X135428571Y-51857142D01*
X135428571Y-51761904D01*
X135466666Y-51619047D01*
X135923809Y-51047619D01*
X135428571Y-51047619D01*
X134476190Y-51047619D02*
X134476190Y-52047619D01*
X134019047Y-51047619D01*
X134019047Y-52047619D01*
X133180952Y-51142857D02*
X133219047Y-51095238D01*
X133333333Y-51047619D01*
X133409523Y-51047619D01*
X133523809Y-51095238D01*
X133600000Y-51190476D01*
X133638095Y-51285714D01*
X133676190Y-51476190D01*
X133676190Y-51619047D01*
X133638095Y-51809523D01*
X133600000Y-51904761D01*
X133523809Y-52000000D01*
X133409523Y-52047619D01*
X133333333Y-52047619D01*
X133219047Y-52000000D01*
X133180952Y-51952380D01*
X129780952Y-51047619D02*
X129780952Y-52047619D01*
X129247619Y-52047619D02*
X129171428Y-52047619D01*
X129095238Y-52000000D01*
X129057142Y-51952380D01*
X129019047Y-51857142D01*
X128980952Y-51666666D01*
X128980952Y-51428571D01*
X129019047Y-51238095D01*
X129057142Y-51142857D01*
X129095238Y-51095238D01*
X129171428Y-51047619D01*
X129247619Y-51047619D01*
X129323809Y-51095238D01*
X129361904Y-51142857D01*
X129400000Y-51238095D01*
X129438095Y-51428571D01*
X129438095Y-51666666D01*
X129400000Y-51857142D01*
X129361904Y-51952380D01*
X129323809Y-52000000D01*
X129247619Y-52047619D01*
X128638095Y-51142857D02*
X128600000Y-51095238D01*
X128638095Y-51047619D01*
X128676190Y-51095238D01*
X128638095Y-51142857D01*
X128638095Y-51047619D01*
X127838095Y-51047619D02*
X128295238Y-51047619D01*
X128066666Y-51047619D02*
X128066666Y-52047619D01*
X128142857Y-51904761D01*
X128219047Y-51809523D01*
X128295238Y-51761904D01*
X126885714Y-51047619D02*
X126885714Y-52047619D01*
X126428571Y-51047619D01*
X126428571Y-52047619D01*
X126085714Y-51333333D02*
X125704761Y-51333333D01*
X126161904Y-51047619D02*
X125895238Y-52047619D01*
X125628571Y-51047619D01*
X123685714Y-51142857D02*
X123723809Y-51095238D01*
X123838095Y-51047619D01*
X123914285Y-51047619D01*
X124028571Y-51095238D01*
X124104761Y-51190476D01*
X124142857Y-51285714D01*
X124180952Y-51476190D01*
X124180952Y-51619047D01*
X124142857Y-51809523D01*
X124104761Y-51904761D01*
X124028571Y-52000000D01*
X123914285Y-52047619D01*
X123838095Y-52047619D01*
X123723809Y-52000000D01*
X123685714Y-51952380D01*
X123190476Y-52047619D02*
X123038095Y-52047619D01*
X122961904Y-52000000D01*
X122885714Y-51904761D01*
X122847619Y-51714285D01*
X122847619Y-51380952D01*
X122885714Y-51190476D01*
X122961904Y-51095238D01*
X123038095Y-51047619D01*
X123190476Y-51047619D01*
X123266666Y-51095238D01*
X123342857Y-51190476D01*
X123380952Y-51380952D01*
X123380952Y-51714285D01*
X123342857Y-51904761D01*
X123266666Y-52000000D01*
X123190476Y-52047619D01*
X122504761Y-51047619D02*
X122504761Y-52047619D01*
X122238095Y-51333333D01*
X121971428Y-52047619D01*
X121971428Y-51047619D01*
X120371428Y-51047619D02*
X120371428Y-52047619D01*
X119838095Y-52047619D02*
X119761904Y-52047619D01*
X119685714Y-52000000D01*
X119647619Y-51952380D01*
X119609523Y-51857142D01*
X119571428Y-51666666D01*
X119571428Y-51428571D01*
X119609523Y-51238095D01*
X119647619Y-51142857D01*
X119685714Y-51095238D01*
X119761904Y-51047619D01*
X119838095Y-51047619D01*
X119914285Y-51095238D01*
X119952380Y-51142857D01*
X119990476Y-51238095D01*
X120028571Y-51428571D01*
X120028571Y-51666666D01*
X119990476Y-51857142D01*
X119952380Y-51952380D01*
X119914285Y-52000000D01*
X119838095Y-52047619D01*
X119228571Y-51142857D02*
X119190476Y-51095238D01*
X119228571Y-51047619D01*
X119266666Y-51095238D01*
X119228571Y-51142857D01*
X119228571Y-51047619D01*
X118428571Y-51047619D02*
X118885714Y-51047619D01*
X118657142Y-51047619D02*
X118657142Y-52047619D01*
X118733333Y-51904761D01*
X118809523Y-51809523D01*
X118885714Y-51761904D01*
X117476190Y-51047619D02*
X117476190Y-52047619D01*
X117019047Y-51047619D01*
X117019047Y-52047619D01*
X116180952Y-51142857D02*
X116219047Y-51095238D01*
X116333333Y-51047619D01*
X116409523Y-51047619D01*
X116523809Y-51095238D01*
X116600000Y-51190476D01*
X116638095Y-51285714D01*
X116676190Y-51476190D01*
X116676190Y-51619047D01*
X116638095Y-51809523D01*
X116600000Y-51904761D01*
X116523809Y-52000000D01*
X116409523Y-52047619D01*
X116333333Y-52047619D01*
X116219047Y-52000000D01*
X116180952Y-51952380D01*
X112780952Y-51047619D02*
X112780952Y-52047619D01*
X112247619Y-52047619D02*
X112171428Y-52047619D01*
X112095238Y-52000000D01*
X112057142Y-51952380D01*
X112019047Y-51857142D01*
X111980952Y-51666666D01*
X111980952Y-51428571D01*
X112019047Y-51238095D01*
X112057142Y-51142857D01*
X112095238Y-51095238D01*
X112171428Y-51047619D01*
X112247619Y-51047619D01*
X112323809Y-51095238D01*
X112361904Y-51142857D01*
X112400000Y-51238095D01*
X112438095Y-51428571D01*
X112438095Y-51666666D01*
X112400000Y-51857142D01*
X112361904Y-51952380D01*
X112323809Y-52000000D01*
X112247619Y-52047619D01*
X111638095Y-51142857D02*
X111600000Y-51095238D01*
X111638095Y-51047619D01*
X111676190Y-51095238D01*
X111638095Y-51142857D01*
X111638095Y-51047619D01*
X111104761Y-52047619D02*
X111028571Y-52047619D01*
X110952380Y-52000000D01*
X110914285Y-51952380D01*
X110876190Y-51857142D01*
X110838095Y-51666666D01*
X110838095Y-51428571D01*
X110876190Y-51238095D01*
X110914285Y-51142857D01*
X110952380Y-51095238D01*
X111028571Y-51047619D01*
X111104761Y-51047619D01*
X111180952Y-51095238D01*
X111219047Y-51142857D01*
X111257142Y-51238095D01*
X111295238Y-51428571D01*
X111295238Y-51666666D01*
X111257142Y-51857142D01*
X111219047Y-51952380D01*
X111180952Y-52000000D01*
X111104761Y-52047619D01*
X109885714Y-51047619D02*
X109885714Y-52047619D01*
X109428571Y-51047619D01*
X109428571Y-52047619D01*
X109085714Y-51333333D02*
X108704761Y-51333333D01*
X109161904Y-51047619D02*
X108895238Y-52047619D01*
X108628571Y-51047619D01*
X106685714Y-51142857D02*
X106723809Y-51095238D01*
X106838095Y-51047619D01*
X106914285Y-51047619D01*
X107028571Y-51095238D01*
X107104761Y-51190476D01*
X107142857Y-51285714D01*
X107180952Y-51476190D01*
X107180952Y-51619047D01*
X107142857Y-51809523D01*
X107104761Y-51904761D01*
X107028571Y-52000000D01*
X106914285Y-52047619D01*
X106838095Y-52047619D01*
X106723809Y-52000000D01*
X106685714Y-51952380D01*
X106190476Y-52047619D02*
X106038095Y-52047619D01*
X105961904Y-52000000D01*
X105885714Y-51904761D01*
X105847619Y-51714285D01*
X105847619Y-51380952D01*
X105885714Y-51190476D01*
X105961904Y-51095238D01*
X106038095Y-51047619D01*
X106190476Y-51047619D01*
X106266666Y-51095238D01*
X106342857Y-51190476D01*
X106380952Y-51380952D01*
X106380952Y-51714285D01*
X106342857Y-51904761D01*
X106266666Y-52000000D01*
X106190476Y-52047619D01*
X105504761Y-51047619D02*
X105504761Y-52047619D01*
X105238095Y-51333333D01*
X104971428Y-52047619D01*
X104971428Y-51047619D01*
X103371428Y-51047619D02*
X103371428Y-52047619D01*
X102838095Y-52047619D02*
X102761904Y-52047619D01*
X102685714Y-52000000D01*
X102647619Y-51952380D01*
X102609523Y-51857142D01*
X102571428Y-51666666D01*
X102571428Y-51428571D01*
X102609523Y-51238095D01*
X102647619Y-51142857D01*
X102685714Y-51095238D01*
X102761904Y-51047619D01*
X102838095Y-51047619D01*
X102914285Y-51095238D01*
X102952380Y-51142857D01*
X102990476Y-51238095D01*
X103028571Y-51428571D01*
X103028571Y-51666666D01*
X102990476Y-51857142D01*
X102952380Y-51952380D01*
X102914285Y-52000000D01*
X102838095Y-52047619D01*
X102228571Y-51142857D02*
X102190476Y-51095238D01*
X102228571Y-51047619D01*
X102266666Y-51095238D01*
X102228571Y-51142857D01*
X102228571Y-51047619D01*
X101695238Y-52047619D02*
X101619047Y-52047619D01*
X101542857Y-52000000D01*
X101504761Y-51952380D01*
X101466666Y-51857142D01*
X101428571Y-51666666D01*
X101428571Y-51428571D01*
X101466666Y-51238095D01*
X101504761Y-51142857D01*
X101542857Y-51095238D01*
X101619047Y-51047619D01*
X101695238Y-51047619D01*
X101771428Y-51095238D01*
X101809523Y-51142857D01*
X101847619Y-51238095D01*
X101885714Y-51428571D01*
X101885714Y-51666666D01*
X101847619Y-51857142D01*
X101809523Y-51952380D01*
X101771428Y-52000000D01*
X101695238Y-52047619D01*
X100476190Y-51047619D02*
X100476190Y-52047619D01*
X100019047Y-51047619D01*
X100019047Y-52047619D01*
X99180952Y-51142857D02*
X99219047Y-51095238D01*
X99333333Y-51047619D01*
X99409523Y-51047619D01*
X99523809Y-51095238D01*
X99600000Y-51190476D01*
X99638095Y-51285714D01*
X99676190Y-51476190D01*
X99676190Y-51619047D01*
X99638095Y-51809523D01*
X99600000Y-51904761D01*
X99523809Y-52000000D01*
X99409523Y-52047619D01*
X99333333Y-52047619D01*
X99219047Y-52000000D01*
X99180952Y-51952380D01*
D11*
X126670000Y-97940000D02*
X126670000Y-99190000D01*
X131870000Y-97940000D02*
X126670000Y-97940000D01*
X131870000Y-102440000D02*
X131870000Y-97940000D01*
X126670000Y-102440000D02*
X131870000Y-102440000D01*
X126670000Y-101190000D02*
X126670000Y-102440000D01*
X126670000Y-99190000D02*
G75*
G02X126670000Y-101190000I0J-1000000D01*
G01*
X119670000Y-97940000D02*
X119670000Y-99190000D01*
X124870000Y-97940000D02*
X119670000Y-97940000D01*
X124870000Y-102440000D02*
X124870000Y-97940000D01*
X119670000Y-102440000D02*
X124870000Y-102440000D01*
X119670000Y-101190000D02*
X119670000Y-102440000D01*
X119670000Y-99190000D02*
G75*
G02X119670000Y-101190000I0J-1000000D01*
G01*
X140670000Y-97940000D02*
X140670000Y-99190000D01*
X145870000Y-97940000D02*
X140670000Y-97940000D01*
X145870000Y-102440000D02*
X145870000Y-97940000D01*
X140670000Y-102440000D02*
X145870000Y-102440000D01*
X140670000Y-101190000D02*
X140670000Y-102440000D01*
X140670000Y-99190000D02*
G75*
G02X140670000Y-101190000I0J-1000000D01*
G01*
X133670000Y-97940000D02*
X133670000Y-99190000D01*
X138870000Y-97940000D02*
X133670000Y-97940000D01*
X138870000Y-102440000D02*
X138870000Y-97940000D01*
X133670000Y-102440000D02*
X138870000Y-102440000D01*
X133670000Y-101190000D02*
X133670000Y-102440000D01*
X133670000Y-99190000D02*
G75*
G02X133670000Y-101190000I0J-1000000D01*
G01*
X178170000Y-88940000D02*
X178170000Y-90190000D01*
X185910000Y-88940000D02*
X178170000Y-88940000D01*
X185910000Y-93440000D02*
X185910000Y-88940000D01*
X178170000Y-93440000D02*
X185910000Y-93440000D01*
X178170000Y-92190000D02*
X178170000Y-93440000D01*
X178170000Y-90190000D02*
G75*
G02X178170000Y-92190000I0J-1000000D01*
G01*
X167670000Y-88940000D02*
X167670000Y-90190000D01*
X175410000Y-88940000D02*
X167670000Y-88940000D01*
X175410000Y-93440000D02*
X175410000Y-88940000D01*
X167670000Y-93440000D02*
X175410000Y-93440000D01*
X167670000Y-92190000D02*
X167670000Y-93440000D01*
X167670000Y-90190000D02*
G75*
G02X167670000Y-92190000I0J-1000000D01*
G01*
X128590000Y-123100000D02*
X128590000Y-117090000D01*
X135410000Y-120850000D02*
X135410000Y-117090000D01*
X128590000Y-117090000D02*
X129850000Y-117090000D01*
X135410000Y-117090000D02*
X134150000Y-117090000D01*
X144500000Y-131620000D02*
X144500000Y-132230000D01*
X144500000Y-131620000D02*
X136880000Y-131620000D01*
X161120000Y-131620000D02*
X160500000Y-131620000D01*
X161120000Y-129500000D02*
X161120000Y-131620000D01*
X161120000Y-115380000D02*
X161120000Y-117500000D01*
X160500000Y-115380000D02*
X161120000Y-115380000D01*
X136880000Y-115380000D02*
X144500000Y-115380000D01*
X136880000Y-131620000D02*
X136880000Y-115380000D01*
X97500000Y-129000000D02*
X97500000Y-115000000D01*
X126500000Y-129000000D02*
X97500000Y-129000000D01*
X126500000Y-115000000D02*
X126500000Y-129000000D01*
X97500000Y-115000000D02*
X126500000Y-115000000D01*
X115750000Y-134500000D02*
X115750000Y-133000000D01*
X114500000Y-130500000D02*
X110000000Y-130500000D01*
X108750000Y-133000000D02*
X108750000Y-134500000D01*
X110000000Y-137000000D02*
X114500000Y-137000000D01*
X144120000Y-93000000D02*
X143350000Y-93000000D01*
X136040000Y-93000000D02*
X136810000Y-93000000D01*
X143350000Y-91630000D02*
X136810000Y-91630000D01*
X143350000Y-94370000D02*
X143350000Y-91630000D01*
X136810000Y-94370000D02*
X143350000Y-94370000D01*
X136810000Y-91630000D02*
X136810000Y-94370000D01*
X144120000Y-89500000D02*
X143350000Y-89500000D01*
X136040000Y-89500000D02*
X136810000Y-89500000D01*
X143350000Y-88130000D02*
X136810000Y-88130000D01*
X143350000Y-90870000D02*
X143350000Y-88130000D01*
X136810000Y-90870000D02*
X143350000Y-90870000D01*
X136810000Y-88130000D02*
X136810000Y-90870000D01*
X154080000Y-101600000D02*
X154850000Y-101600000D01*
X162160000Y-101600000D02*
X161390000Y-101600000D01*
X154850000Y-102970000D02*
X161390000Y-102970000D01*
X154850000Y-100230000D02*
X154850000Y-102970000D01*
X161390000Y-100230000D02*
X154850000Y-100230000D01*
X161390000Y-102970000D02*
X161390000Y-100230000D01*
X154080000Y-98100000D02*
X154850000Y-98100000D01*
X162160000Y-98100000D02*
X161390000Y-98100000D01*
X154850000Y-99470000D02*
X161390000Y-99470000D01*
X154850000Y-96730000D02*
X154850000Y-99470000D01*
X161390000Y-96730000D02*
X154850000Y-96730000D01*
X161390000Y-99470000D02*
X161390000Y-96730000D01*
X177920000Y-82500000D02*
X177150000Y-82500000D01*
X169840000Y-82500000D02*
X170610000Y-82500000D01*
X177150000Y-81130000D02*
X170610000Y-81130000D01*
X177150000Y-83870000D02*
X177150000Y-81130000D01*
X170610000Y-83870000D02*
X177150000Y-83870000D01*
X170610000Y-81130000D02*
X170610000Y-83870000D01*
X169880000Y-79000000D02*
X170650000Y-79000000D01*
X177960000Y-79000000D02*
X177190000Y-79000000D01*
X170650000Y-80370000D02*
X177190000Y-80370000D01*
X170650000Y-77630000D02*
X170650000Y-80370000D01*
X177190000Y-77630000D02*
X170650000Y-77630000D01*
X177190000Y-80370000D02*
X177190000Y-77630000D01*
X118880000Y-93000000D02*
X119650000Y-93000000D01*
X126960000Y-93000000D02*
X126190000Y-93000000D01*
X119650000Y-94370000D02*
X126190000Y-94370000D01*
X119650000Y-91630000D02*
X119650000Y-94370000D01*
X126190000Y-91630000D02*
X119650000Y-91630000D01*
X126190000Y-94370000D02*
X126190000Y-91630000D01*
X118880000Y-89500000D02*
X119650000Y-89500000D01*
X126960000Y-89500000D02*
X126190000Y-89500000D01*
X119650000Y-90870000D02*
X126190000Y-90870000D01*
X119650000Y-88130000D02*
X119650000Y-90870000D01*
X126190000Y-88130000D02*
X119650000Y-88130000D01*
X126190000Y-90870000D02*
X126190000Y-88130000D01*
X110120000Y-101500000D02*
X109350000Y-101500000D01*
X102040000Y-101500000D02*
X102810000Y-101500000D01*
X109350000Y-100130000D02*
X102810000Y-100130000D01*
X109350000Y-102870000D02*
X109350000Y-100130000D01*
X102810000Y-102870000D02*
X109350000Y-102870000D01*
X102810000Y-100130000D02*
X102810000Y-102870000D01*
X110120000Y-98000000D02*
X109350000Y-98000000D01*
X102040000Y-98000000D02*
X102810000Y-98000000D01*
X109350000Y-96630000D02*
X102810000Y-96630000D01*
X109350000Y-99370000D02*
X109350000Y-96630000D01*
X102810000Y-99370000D02*
X109350000Y-99370000D01*
X102810000Y-96630000D02*
X102810000Y-99370000D01*
X169580000Y-102000000D02*
X170350000Y-102000000D01*
X177660000Y-102000000D02*
X176890000Y-102000000D01*
X170350000Y-103370000D02*
X176890000Y-103370000D01*
X170350000Y-100630000D02*
X170350000Y-103370000D01*
X176890000Y-100630000D02*
X170350000Y-100630000D01*
X176890000Y-103370000D02*
X176890000Y-100630000D01*
X177620000Y-98500000D02*
X176850000Y-98500000D01*
X169540000Y-98500000D02*
X170310000Y-98500000D01*
X176850000Y-97130000D02*
X170310000Y-97130000D01*
X176850000Y-99870000D02*
X176850000Y-97130000D01*
X170310000Y-99870000D02*
X176850000Y-99870000D01*
X170310000Y-97130000D02*
X170310000Y-99870000D01*
X162020000Y-109000000D02*
X161250000Y-109000000D01*
X153940000Y-109000000D02*
X154710000Y-109000000D01*
X161250000Y-107630000D02*
X154710000Y-107630000D01*
X161250000Y-110370000D02*
X161250000Y-107630000D01*
X154710000Y-110370000D02*
X161250000Y-110370000D01*
X154710000Y-107630000D02*
X154710000Y-110370000D01*
X153880000Y-105500000D02*
X154650000Y-105500000D01*
X161960000Y-105500000D02*
X161190000Y-105500000D01*
X154650000Y-106870000D02*
X161190000Y-106870000D01*
X154650000Y-104130000D02*
X154650000Y-106870000D01*
X161190000Y-104130000D02*
X154650000Y-104130000D01*
X161190000Y-106870000D02*
X161190000Y-104130000D01*
X119880000Y-135000000D02*
X120650000Y-135000000D01*
X127960000Y-135000000D02*
X127190000Y-135000000D01*
X120650000Y-136370000D02*
X127190000Y-136370000D01*
X120650000Y-133630000D02*
X120650000Y-136370000D01*
X127190000Y-133630000D02*
X120650000Y-133630000D01*
X127190000Y-136370000D02*
X127190000Y-133630000D01*
X127190000Y-132870000D02*
X127190000Y-130130000D01*
X127190000Y-130130000D02*
X120650000Y-130130000D01*
X120650000Y-130130000D02*
X120650000Y-132870000D01*
X120650000Y-132870000D02*
X127190000Y-132870000D01*
X127960000Y-131500000D02*
X127190000Y-131500000D01*
X119880000Y-131500000D02*
X120650000Y-131500000D01*
X162108478Y-93838478D02*
G75*
G03X160270000Y-89400000I-1838478J1838478D01*
G01*
X158431522Y-93838478D02*
G75*
G02X160270000Y-89400000I1838478J1838478D01*
G01*
X158470000Y-93850000D02*
X162070000Y-93850000D01*
X155608478Y-93838478D02*
G75*
G03X153770000Y-89400000I-1838478J1838478D01*
G01*
X151931522Y-93838478D02*
G75*
G02X153770000Y-89400000I1838478J1838478D01*
G01*
X151970000Y-93850000D02*
X155570000Y-93850000D01*
X111108478Y-93838478D02*
G75*
G03X109270000Y-89400000I-1838478J1838478D01*
G01*
X107431522Y-93838478D02*
G75*
G02X109270000Y-89400000I1838478J1838478D01*
G01*
X107470000Y-93850000D02*
X111070000Y-93850000D01*
X104608478Y-93838478D02*
G75*
G03X102770000Y-89400000I-1838478J1838478D01*
G01*
X100931522Y-93838478D02*
G75*
G02X102770000Y-89400000I1838478J1838478D01*
G01*
X100970000Y-93850000D02*
X104570000Y-93850000D01*
X168130000Y-68609000D02*
X169640000Y-68609000D01*
X168130000Y-72310000D02*
X169640000Y-72310000D01*
X169640000Y-75580000D02*
X169640000Y-65340000D01*
X168130000Y-65340000D02*
X172771000Y-65340000D01*
X168130000Y-75580000D02*
X172771000Y-75580000D01*
X172771000Y-75580000D02*
X172771000Y-65340000D01*
X168130000Y-75580000D02*
X168130000Y-65340000D01*
X178330000Y-68609000D02*
X179840000Y-68609000D01*
X178330000Y-72310000D02*
X179840000Y-72310000D01*
X179840000Y-75580000D02*
X179840000Y-65340000D01*
X178330000Y-65340000D02*
X182971000Y-65340000D01*
X178330000Y-75580000D02*
X182971000Y-75580000D01*
X182971000Y-75580000D02*
X182971000Y-65340000D01*
X178330000Y-75580000D02*
X178330000Y-65340000D01*
X141850000Y-73950000D02*
X141850000Y-77950000D01*
X138250000Y-73950000D02*
X141850000Y-73950000D01*
X138250000Y-77950000D02*
X138250000Y-73950000D01*
X141850000Y-77950000D02*
X138250000Y-77950000D01*
X141850000Y-73950000D02*
X138250000Y-77950000D01*
X141850000Y-75950000D02*
X146050000Y-75950000D01*
X134050000Y-75950000D02*
X138250000Y-75950000D01*
X140050000Y-79350000D02*
X143650000Y-79350000D01*
X140050000Y-72550000D02*
X143650000Y-72550000D01*
X143650000Y-72550000D02*
X143650000Y-79350000D01*
X140050000Y-71050000D02*
X137550000Y-66450000D01*
X140050000Y-72550000D02*
X140050000Y-71050000D01*
X134050000Y-75950000D02*
X134050000Y-78450000D01*
X140050000Y-79350000D02*
X140050000Y-80150000D01*
X146050000Y-78450000D02*
X146050000Y-75950000D01*
X135800000Y-67850000D02*
X138300000Y-67850000D01*
X144200000Y-67850000D02*
X141750000Y-67850000D01*
X147800000Y-63600000D02*
X147800000Y-83400000D01*
X132200000Y-63600000D02*
X147800000Y-63600000D01*
X132200000Y-83400000D02*
X132200000Y-63600000D01*
X132200000Y-83400000D02*
X138800000Y-83400000D01*
X141200000Y-83400000D02*
X147800000Y-83400000D01*
X158850000Y-73950000D02*
X158850000Y-77950000D01*
X155250000Y-73950000D02*
X158850000Y-73950000D01*
X155250000Y-77950000D02*
X155250000Y-73950000D01*
X158850000Y-77950000D02*
X155250000Y-77950000D01*
X158850000Y-73950000D02*
X155250000Y-77950000D01*
X158850000Y-75950000D02*
X163050000Y-75950000D01*
X151050000Y-75950000D02*
X155250000Y-75950000D01*
X157050000Y-79350000D02*
X160650000Y-79350000D01*
X157050000Y-72550000D02*
X160650000Y-72550000D01*
X160650000Y-72550000D02*
X160650000Y-79350000D01*
X157050000Y-71050000D02*
X154550000Y-66450000D01*
X157050000Y-72550000D02*
X157050000Y-71050000D01*
X151050000Y-75950000D02*
X151050000Y-78450000D01*
X157050000Y-79350000D02*
X157050000Y-80150000D01*
X163050000Y-78450000D02*
X163050000Y-75950000D01*
X152800000Y-67850000D02*
X155300000Y-67850000D01*
X161200000Y-67850000D02*
X158750000Y-67850000D01*
X164800000Y-63600000D02*
X164800000Y-83400000D01*
X149200000Y-63600000D02*
X164800000Y-63600000D01*
X149200000Y-83400000D02*
X149200000Y-63600000D01*
X149200000Y-83400000D02*
X155800000Y-83400000D01*
X158200000Y-83400000D02*
X164800000Y-83400000D01*
X124850000Y-73950000D02*
X124850000Y-77950000D01*
X121250000Y-73950000D02*
X124850000Y-73950000D01*
X121250000Y-77950000D02*
X121250000Y-73950000D01*
X124850000Y-77950000D02*
X121250000Y-77950000D01*
X124850000Y-73950000D02*
X121250000Y-77950000D01*
X124850000Y-75950000D02*
X129050000Y-75950000D01*
X117050000Y-75950000D02*
X121250000Y-75950000D01*
X123050000Y-79350000D02*
X126650000Y-79350000D01*
X123050000Y-72550000D02*
X126650000Y-72550000D01*
X126650000Y-72550000D02*
X126650000Y-79350000D01*
X123050000Y-71050000D02*
X120550000Y-66450000D01*
X123050000Y-72550000D02*
X123050000Y-71050000D01*
X117050000Y-75950000D02*
X117050000Y-78450000D01*
X123050000Y-79350000D02*
X123050000Y-80150000D01*
X129050000Y-78450000D02*
X129050000Y-75950000D01*
X118800000Y-67850000D02*
X121300000Y-67850000D01*
X127200000Y-67850000D02*
X124750000Y-67850000D01*
X130800000Y-63600000D02*
X130800000Y-83400000D01*
X115200000Y-63600000D02*
X130800000Y-63600000D01*
X115200000Y-83400000D02*
X115200000Y-63600000D01*
X115200000Y-83400000D02*
X121800000Y-83400000D01*
X124200000Y-83400000D02*
X130800000Y-83400000D01*
X107850000Y-73950000D02*
X107850000Y-77950000D01*
X104250000Y-73950000D02*
X107850000Y-73950000D01*
X104250000Y-77950000D02*
X104250000Y-73950000D01*
X107850000Y-77950000D02*
X104250000Y-77950000D01*
X107850000Y-73950000D02*
X104250000Y-77950000D01*
X107850000Y-75950000D02*
X112050000Y-75950000D01*
X100050000Y-75950000D02*
X104250000Y-75950000D01*
X106050000Y-79350000D02*
X109650000Y-79350000D01*
X106050000Y-72550000D02*
X109650000Y-72550000D01*
X109650000Y-72550000D02*
X109650000Y-79350000D01*
X106050000Y-71050000D02*
X103550000Y-66450000D01*
X106050000Y-72550000D02*
X106050000Y-71050000D01*
X100050000Y-75950000D02*
X100050000Y-78450000D01*
X106050000Y-79350000D02*
X106050000Y-80150000D01*
X112050000Y-78450000D02*
X112050000Y-75950000D01*
X101800000Y-67850000D02*
X104300000Y-67850000D01*
X110200000Y-67850000D02*
X107750000Y-67850000D01*
X113800000Y-63600000D02*
X113800000Y-83400000D01*
X98200000Y-63600000D02*
X113800000Y-63600000D01*
X98200000Y-83400000D02*
X98200000Y-63600000D01*
X98200000Y-83400000D02*
X104800000Y-83400000D01*
X107200000Y-83400000D02*
X113800000Y-83400000D01*
X98170000Y-133330000D02*
X98170000Y-132000000D01*
X99500000Y-133330000D02*
X98170000Y-133330000D01*
X100770000Y-133330000D02*
X100770000Y-130670000D01*
X100770000Y-130670000D02*
X105910000Y-130670000D01*
X100770000Y-133330000D02*
X105910000Y-133330000D01*
X105910000Y-133330000D02*
X105910000Y-130670000D01*
X147800000Y-52700000D02*
X147400000Y-52700000D01*
X147800000Y-53340000D02*
X147800000Y-52700000D01*
X136258000Y-57008000D02*
X136653000Y-56612000D01*
X133612000Y-59654000D02*
X133992000Y-59274000D01*
X136007000Y-56726000D02*
X136387000Y-56346000D01*
X133346000Y-59388000D02*
X133741000Y-58992000D01*
X141258000Y-57008000D02*
X141653000Y-56612000D01*
X138612000Y-59654000D02*
X138992000Y-59274000D01*
X141007000Y-56726000D02*
X141387000Y-56346000D01*
X138346000Y-59388000D02*
X138741000Y-58992000D01*
X146548000Y-56719000D02*
X146654000Y-56612000D01*
X143612000Y-59654000D02*
X143719000Y-59547000D01*
X146282000Y-56453000D02*
X146388000Y-56346000D01*
X143346000Y-59388000D02*
X143453000Y-59281000D01*
X132440000Y-62060000D02*
X132440000Y-52940000D01*
X147560000Y-62060000D02*
X147560000Y-52940000D01*
X147560000Y-52940000D02*
X132440000Y-52940000D01*
X147560000Y-62060000D02*
X132440000Y-62060000D01*
X147560000Y-54500000D02*
X132440000Y-54500000D01*
X147560000Y-53400000D02*
X132440000Y-53400000D01*
X137180000Y-58000000D02*
G75*
G03X137180000Y-58000000I-2180000J0D01*
G01*
X142180000Y-58000000D02*
G75*
G03X142180000Y-58000000I-2180000J0D01*
G01*
X147180000Y-58000000D02*
G75*
G03X147180000Y-58000000I-2180000J0D01*
G01*
X164800000Y-52700000D02*
X164400000Y-52700000D01*
X164800000Y-53340000D02*
X164800000Y-52700000D01*
X153258000Y-57008000D02*
X153653000Y-56612000D01*
X150612000Y-59654000D02*
X150992000Y-59274000D01*
X153007000Y-56726000D02*
X153387000Y-56346000D01*
X150346000Y-59388000D02*
X150741000Y-58992000D01*
X158258000Y-57008000D02*
X158653000Y-56612000D01*
X155612000Y-59654000D02*
X155992000Y-59274000D01*
X158007000Y-56726000D02*
X158387000Y-56346000D01*
X155346000Y-59388000D02*
X155741000Y-58992000D01*
X163548000Y-56719000D02*
X163654000Y-56612000D01*
X160612000Y-59654000D02*
X160719000Y-59547000D01*
X163282000Y-56453000D02*
X163388000Y-56346000D01*
X160346000Y-59388000D02*
X160453000Y-59281000D01*
X149440000Y-62060000D02*
X149440000Y-52940000D01*
X164560000Y-62060000D02*
X164560000Y-52940000D01*
X164560000Y-52940000D02*
X149440000Y-52940000D01*
X164560000Y-62060000D02*
X149440000Y-62060000D01*
X164560000Y-54500000D02*
X149440000Y-54500000D01*
X164560000Y-53400000D02*
X149440000Y-53400000D01*
X154180000Y-58000000D02*
G75*
G03X154180000Y-58000000I-2180000J0D01*
G01*
X159180000Y-58000000D02*
G75*
G03X159180000Y-58000000I-2180000J0D01*
G01*
X164180000Y-58000000D02*
G75*
G03X164180000Y-58000000I-2180000J0D01*
G01*
X181800000Y-52700000D02*
X181400000Y-52700000D01*
X181800000Y-53340000D02*
X181800000Y-52700000D01*
X170258000Y-57008000D02*
X170653000Y-56612000D01*
X167612000Y-59654000D02*
X167992000Y-59274000D01*
X170007000Y-56726000D02*
X170387000Y-56346000D01*
X167346000Y-59388000D02*
X167741000Y-58992000D01*
X175258000Y-57008000D02*
X175653000Y-56612000D01*
X172612000Y-59654000D02*
X172992000Y-59274000D01*
X175007000Y-56726000D02*
X175387000Y-56346000D01*
X172346000Y-59388000D02*
X172741000Y-58992000D01*
X180548000Y-56719000D02*
X180654000Y-56612000D01*
X177612000Y-59654000D02*
X177719000Y-59547000D01*
X180282000Y-56453000D02*
X180388000Y-56346000D01*
X177346000Y-59388000D02*
X177453000Y-59281000D01*
X166440000Y-62060000D02*
X166440000Y-52940000D01*
X181560000Y-62060000D02*
X181560000Y-52940000D01*
X181560000Y-52940000D02*
X166440000Y-52940000D01*
X181560000Y-62060000D02*
X166440000Y-62060000D01*
X181560000Y-54500000D02*
X166440000Y-54500000D01*
X181560000Y-53400000D02*
X166440000Y-53400000D01*
X171180000Y-58000000D02*
G75*
G03X171180000Y-58000000I-2180000J0D01*
G01*
X176180000Y-58000000D02*
G75*
G03X176180000Y-58000000I-2180000J0D01*
G01*
X181180000Y-58000000D02*
G75*
G03X181180000Y-58000000I-2180000J0D01*
G01*
X130800000Y-52700000D02*
X130400000Y-52700000D01*
X130800000Y-53340000D02*
X130800000Y-52700000D01*
X119258000Y-57008000D02*
X119653000Y-56612000D01*
X116612000Y-59654000D02*
X116992000Y-59274000D01*
X119007000Y-56726000D02*
X119387000Y-56346000D01*
X116346000Y-59388000D02*
X116741000Y-58992000D01*
X124258000Y-57008000D02*
X124653000Y-56612000D01*
X121612000Y-59654000D02*
X121992000Y-59274000D01*
X124007000Y-56726000D02*
X124387000Y-56346000D01*
X121346000Y-59388000D02*
X121741000Y-58992000D01*
X129548000Y-56719000D02*
X129654000Y-56612000D01*
X126612000Y-59654000D02*
X126719000Y-59547000D01*
X129282000Y-56453000D02*
X129388000Y-56346000D01*
X126346000Y-59388000D02*
X126453000Y-59281000D01*
X115440000Y-62060000D02*
X115440000Y-52940000D01*
X130560000Y-62060000D02*
X130560000Y-52940000D01*
X130560000Y-52940000D02*
X115440000Y-52940000D01*
X130560000Y-62060000D02*
X115440000Y-62060000D01*
X130560000Y-54500000D02*
X115440000Y-54500000D01*
X130560000Y-53400000D02*
X115440000Y-53400000D01*
X120180000Y-58000000D02*
G75*
G03X120180000Y-58000000I-2180000J0D01*
G01*
X125180000Y-58000000D02*
G75*
G03X125180000Y-58000000I-2180000J0D01*
G01*
X130180000Y-58000000D02*
G75*
G03X130180000Y-58000000I-2180000J0D01*
G01*
X113800000Y-52700000D02*
X113400000Y-52700000D01*
X113800000Y-53340000D02*
X113800000Y-52700000D01*
X102258000Y-57008000D02*
X102653000Y-56612000D01*
X99612000Y-59654000D02*
X99992000Y-59274000D01*
X102007000Y-56726000D02*
X102387000Y-56346000D01*
X99346000Y-59388000D02*
X99741000Y-58992000D01*
X107258000Y-57008000D02*
X107653000Y-56612000D01*
X104612000Y-59654000D02*
X104992000Y-59274000D01*
X107007000Y-56726000D02*
X107387000Y-56346000D01*
X104346000Y-59388000D02*
X104741000Y-58992000D01*
X112548000Y-56719000D02*
X112654000Y-56612000D01*
X109612000Y-59654000D02*
X109719000Y-59547000D01*
X112282000Y-56453000D02*
X112388000Y-56346000D01*
X109346000Y-59388000D02*
X109453000Y-59281000D01*
X98440000Y-62060000D02*
X98440000Y-52940000D01*
X113560000Y-62060000D02*
X113560000Y-52940000D01*
X113560000Y-52940000D02*
X98440000Y-52940000D01*
X113560000Y-62060000D02*
X98440000Y-62060000D01*
X113560000Y-54500000D02*
X98440000Y-54500000D01*
X113560000Y-53400000D02*
X98440000Y-53400000D01*
X103180000Y-58000000D02*
G75*
G03X103180000Y-58000000I-2180000J0D01*
G01*
X108180000Y-58000000D02*
G75*
G03X108180000Y-58000000I-2180000J0D01*
G01*
X113180000Y-58000000D02*
G75*
G03X113180000Y-58000000I-2180000J0D01*
G01*
D10*
X96000000Y-115200000D02*
X96000000Y-115800000D01*
X94400000Y-115200000D02*
X96000000Y-115200000D01*
X96000000Y-122800000D02*
X96000000Y-122200000D01*
X94200000Y-122800000D02*
X96000000Y-122800000D01*
X96500000Y-117300000D02*
X96000000Y-117300000D01*
X96500000Y-118000000D02*
X96500000Y-117300000D01*
D11*
X155140000Y-84530000D02*
X155140000Y-87470000D01*
X155380000Y-84530000D02*
X155380000Y-87470000D01*
X155260000Y-84530000D02*
X155260000Y-87470000D01*
X160820000Y-86000000D02*
X159800000Y-86000000D01*
X153340000Y-86000000D02*
X154360000Y-86000000D01*
X159800000Y-84530000D02*
X154360000Y-84530000D01*
X159800000Y-87470000D02*
X159800000Y-84530000D01*
X154360000Y-87470000D02*
X159800000Y-87470000D01*
X154360000Y-84530000D02*
X154360000Y-87470000D01*
X138140000Y-84530000D02*
X138140000Y-87470000D01*
X138380000Y-84530000D02*
X138380000Y-87470000D01*
X138260000Y-84530000D02*
X138260000Y-87470000D01*
X143820000Y-86000000D02*
X142800000Y-86000000D01*
X136340000Y-86000000D02*
X137360000Y-86000000D01*
X142800000Y-84530000D02*
X137360000Y-84530000D01*
X142800000Y-87470000D02*
X142800000Y-84530000D01*
X137360000Y-87470000D02*
X142800000Y-87470000D01*
X137360000Y-84530000D02*
X137360000Y-87470000D01*
X137290000Y-108420000D02*
X137290000Y-108264000D01*
X137290000Y-110736000D02*
X137290000Y-110580000D01*
X134688870Y-108420163D02*
G75*
G02X136770961Y-108420000I1041130J-1079837D01*
G01*
X134688870Y-110579837D02*
G75*
G03X136770961Y-110580000I1041130J1079837D01*
G01*
X134057665Y-108421392D02*
G75*
G02X137290000Y-108264484I1672335J-1078608D01*
G01*
X134057665Y-110578608D02*
G75*
G03X137290000Y-110735516I1672335J1078608D01*
G01*
X131790000Y-108420000D02*
X131790000Y-108264000D01*
X131790000Y-110736000D02*
X131790000Y-110580000D01*
X129188870Y-108420163D02*
G75*
G02X131270961Y-108420000I1041130J-1079837D01*
G01*
X129188870Y-110579837D02*
G75*
G03X131270961Y-110580000I1041130J1079837D01*
G01*
X128557665Y-108421392D02*
G75*
G02X131790000Y-108264484I1672335J-1078608D01*
G01*
X128557665Y-110578608D02*
G75*
G03X131790000Y-110735516I1672335J1078608D01*
G01*
X121140000Y-84530000D02*
X121140000Y-87470000D01*
X121380000Y-84530000D02*
X121380000Y-87470000D01*
X121260000Y-84530000D02*
X121260000Y-87470000D01*
X126820000Y-86000000D02*
X125800000Y-86000000D01*
X119340000Y-86000000D02*
X120360000Y-86000000D01*
X125800000Y-84530000D02*
X120360000Y-84530000D01*
X125800000Y-87470000D02*
X125800000Y-84530000D01*
X120360000Y-87470000D02*
X125800000Y-87470000D01*
X120360000Y-84530000D02*
X120360000Y-87470000D01*
X104140000Y-84530000D02*
X104140000Y-87470000D01*
X104380000Y-84530000D02*
X104380000Y-87470000D01*
X104260000Y-84530000D02*
X104260000Y-87470000D01*
X109820000Y-86000000D02*
X108800000Y-86000000D01*
X102340000Y-86000000D02*
X103360000Y-86000000D01*
X108800000Y-84530000D02*
X103360000Y-84530000D01*
X108800000Y-87470000D02*
X108800000Y-84530000D01*
X103360000Y-87470000D02*
X108800000Y-87470000D01*
X103360000Y-84530000D02*
X103360000Y-87470000D01*
X148290000Y-108420000D02*
X148290000Y-108264000D01*
X148290000Y-110736000D02*
X148290000Y-110580000D01*
X145688870Y-108420163D02*
G75*
G02X147770961Y-108420000I1041130J-1079837D01*
G01*
X145688870Y-110579837D02*
G75*
G03X147770961Y-110580000I1041130J1079837D01*
G01*
X145057665Y-108421392D02*
G75*
G02X148290000Y-108264484I1672335J-1078608D01*
G01*
X145057665Y-110578608D02*
G75*
G03X148290000Y-110735516I1672335J1078608D01*
G01*
X142790000Y-108420000D02*
X142790000Y-108264000D01*
X142790000Y-110736000D02*
X142790000Y-110580000D01*
X140188870Y-108420163D02*
G75*
G02X142270961Y-108420000I1041130J-1079837D01*
G01*
X140188870Y-110579837D02*
G75*
G03X142270961Y-110580000I1041130J1079837D01*
G01*
X139557665Y-108421392D02*
G75*
G02X142790000Y-108264484I1672335J-1078608D01*
G01*
X139557665Y-110578608D02*
G75*
G03X142790000Y-110735516I1672335J1078608D01*
G01*
X126290000Y-108420000D02*
X126290000Y-108264000D01*
X126290000Y-110736000D02*
X126290000Y-110580000D01*
X123688870Y-108420163D02*
G75*
G02X125770961Y-108420000I1041130J-1079837D01*
G01*
X123688870Y-110579837D02*
G75*
G03X125770961Y-110580000I1041130J1079837D01*
G01*
X123057665Y-108421392D02*
G75*
G02X126290000Y-108264484I1672335J-1078608D01*
G01*
X123057665Y-110578608D02*
G75*
G03X126290000Y-110735516I1672335J1078608D01*
G01*
X120790000Y-108420000D02*
X120790000Y-108264000D01*
X120790000Y-110736000D02*
X120790000Y-110580000D01*
X118188870Y-108420163D02*
G75*
G02X120270961Y-108420000I1041130J-1079837D01*
G01*
X118188870Y-110579837D02*
G75*
G03X120270961Y-110580000I1041130J1079837D01*
G01*
X117557665Y-108421392D02*
G75*
G02X120790000Y-108264484I1672335J-1078608D01*
G01*
X117557665Y-110578608D02*
G75*
G03X120790000Y-110735516I1672335J1078608D01*
G01*
D10*
X128952380Y-100951904D02*
X129761904Y-100951904D01*
X129857142Y-100904285D01*
X129904761Y-100856666D01*
X129952380Y-100761428D01*
X129952380Y-100570952D01*
X129904761Y-100475714D01*
X129857142Y-100428095D01*
X129761904Y-100380476D01*
X128952380Y-100380476D01*
X128952380Y-99428095D02*
X128952380Y-99904285D01*
X129428571Y-99951904D01*
X129380952Y-99904285D01*
X129333333Y-99809047D01*
X129333333Y-99570952D01*
X129380952Y-99475714D01*
X129428571Y-99428095D01*
X129523809Y-99380476D01*
X129761904Y-99380476D01*
X129857142Y-99428095D01*
X129904761Y-99475714D01*
X129952380Y-99570952D01*
X129952380Y-99809047D01*
X129904761Y-99904285D01*
X129857142Y-99951904D01*
X121952380Y-100951904D02*
X122761904Y-100951904D01*
X122857142Y-100904285D01*
X122904761Y-100856666D01*
X122952380Y-100761428D01*
X122952380Y-100570952D01*
X122904761Y-100475714D01*
X122857142Y-100428095D01*
X122761904Y-100380476D01*
X121952380Y-100380476D01*
X122285714Y-99475714D02*
X122952380Y-99475714D01*
X121904761Y-99713809D02*
X122619047Y-99951904D01*
X122619047Y-99332857D01*
X142952380Y-100951904D02*
X143761904Y-100951904D01*
X143857142Y-100904285D01*
X143904761Y-100856666D01*
X143952380Y-100761428D01*
X143952380Y-100570952D01*
X143904761Y-100475714D01*
X143857142Y-100428095D01*
X143761904Y-100380476D01*
X142952380Y-100380476D01*
X143952380Y-99856666D02*
X143952380Y-99666190D01*
X143904761Y-99570952D01*
X143857142Y-99523333D01*
X143714285Y-99428095D01*
X143523809Y-99380476D01*
X143142857Y-99380476D01*
X143047619Y-99428095D01*
X143000000Y-99475714D01*
X142952380Y-99570952D01*
X142952380Y-99761428D01*
X143000000Y-99856666D01*
X143047619Y-99904285D01*
X143142857Y-99951904D01*
X143380952Y-99951904D01*
X143476190Y-99904285D01*
X143523809Y-99856666D01*
X143571428Y-99761428D01*
X143571428Y-99570952D01*
X143523809Y-99475714D01*
X143476190Y-99428095D01*
X143380952Y-99380476D01*
X135952380Y-100951904D02*
X136761904Y-100951904D01*
X136857142Y-100904285D01*
X136904761Y-100856666D01*
X136952380Y-100761428D01*
X136952380Y-100570952D01*
X136904761Y-100475714D01*
X136857142Y-100428095D01*
X136761904Y-100380476D01*
X135952380Y-100380476D01*
X136380952Y-99761428D02*
X136333333Y-99856666D01*
X136285714Y-99904285D01*
X136190476Y-99951904D01*
X136142857Y-99951904D01*
X136047619Y-99904285D01*
X136000000Y-99856666D01*
X135952380Y-99761428D01*
X135952380Y-99570952D01*
X136000000Y-99475714D01*
X136047619Y-99428095D01*
X136142857Y-99380476D01*
X136190476Y-99380476D01*
X136285714Y-99428095D01*
X136333333Y-99475714D01*
X136380952Y-99570952D01*
X136380952Y-99761428D01*
X136428571Y-99856666D01*
X136476190Y-99904285D01*
X136571428Y-99951904D01*
X136761904Y-99951904D01*
X136857142Y-99904285D01*
X136904761Y-99856666D01*
X136952380Y-99761428D01*
X136952380Y-99570952D01*
X136904761Y-99475714D01*
X136857142Y-99428095D01*
X136761904Y-99380476D01*
X136571428Y-99380476D01*
X136476190Y-99428095D01*
X136428571Y-99475714D01*
X136380952Y-99570952D01*
X181952380Y-91951904D02*
X182761904Y-91951904D01*
X182857142Y-91904285D01*
X182904761Y-91856666D01*
X182952380Y-91761428D01*
X182952380Y-91570952D01*
X182904761Y-91475714D01*
X182857142Y-91428095D01*
X182761904Y-91380476D01*
X181952380Y-91380476D01*
X181952380Y-90999523D02*
X181952380Y-90332857D01*
X182952380Y-90761428D01*
X170952380Y-91951904D02*
X171761904Y-91951904D01*
X171857142Y-91904285D01*
X171904761Y-91856666D01*
X171952380Y-91761428D01*
X171952380Y-91570952D01*
X171904761Y-91475714D01*
X171857142Y-91428095D01*
X171761904Y-91380476D01*
X170952380Y-91380476D01*
X170952380Y-90475714D02*
X170952380Y-90666190D01*
X171000000Y-90761428D01*
X171047619Y-90809047D01*
X171190476Y-90904285D01*
X171380952Y-90951904D01*
X171761904Y-90951904D01*
X171857142Y-90904285D01*
X171904761Y-90856666D01*
X171952380Y-90761428D01*
X171952380Y-90570952D01*
X171904761Y-90475714D01*
X171857142Y-90428095D01*
X171761904Y-90380476D01*
X171523809Y-90380476D01*
X171428571Y-90428095D01*
X171380952Y-90475714D01*
X171333333Y-90570952D01*
X171333333Y-90761428D01*
X171380952Y-90856666D01*
X171428571Y-90904285D01*
X171523809Y-90951904D01*
X131452380Y-119761904D02*
X132261904Y-119761904D01*
X132357142Y-119714285D01*
X132404761Y-119666666D01*
X132452380Y-119571428D01*
X132452380Y-119380952D01*
X132404761Y-119285714D01*
X132357142Y-119238095D01*
X132261904Y-119190476D01*
X131452380Y-119190476D01*
X131452380Y-118809523D02*
X131452380Y-118190476D01*
X131833333Y-118523809D01*
X131833333Y-118380952D01*
X131880952Y-118285714D01*
X131928571Y-118238095D01*
X132023809Y-118190476D01*
X132261904Y-118190476D01*
X132357142Y-118238095D01*
X132404761Y-118285714D01*
X132452380Y-118380952D01*
X132452380Y-118666666D01*
X132404761Y-118761904D01*
X132357142Y-118809523D01*
X148452380Y-124261904D02*
X149261904Y-124261904D01*
X149357142Y-124214285D01*
X149404761Y-124166666D01*
X149452380Y-124071428D01*
X149452380Y-123880952D01*
X149404761Y-123785714D01*
X149357142Y-123738095D01*
X149261904Y-123690476D01*
X148452380Y-123690476D01*
X148547619Y-123261904D02*
X148500000Y-123214285D01*
X148452380Y-123119047D01*
X148452380Y-122880952D01*
X148500000Y-122785714D01*
X148547619Y-122738095D01*
X148642857Y-122690476D01*
X148738095Y-122690476D01*
X148880952Y-122738095D01*
X149452380Y-123309523D01*
X149452380Y-122690476D01*
X112238095Y-122452380D02*
X112238095Y-123261904D01*
X112285714Y-123357142D01*
X112333333Y-123404761D01*
X112428571Y-123452380D01*
X112619047Y-123452380D01*
X112714285Y-123404761D01*
X112761904Y-123357142D01*
X112809523Y-123261904D01*
X112809523Y-122452380D01*
X113809523Y-123452380D02*
X113238095Y-123452380D01*
X113523809Y-123452380D02*
X113523809Y-122452380D01*
X113428571Y-122595238D01*
X113333333Y-122690476D01*
X113238095Y-122738095D01*
X110916666Y-134404761D02*
X111059523Y-134452380D01*
X111297619Y-134452380D01*
X111392857Y-134404761D01*
X111440476Y-134357142D01*
X111488095Y-134261904D01*
X111488095Y-134166666D01*
X111440476Y-134071428D01*
X111392857Y-134023809D01*
X111297619Y-133976190D01*
X111107142Y-133928571D01*
X111011904Y-133880952D01*
X110964285Y-133833333D01*
X110916666Y-133738095D01*
X110916666Y-133642857D01*
X110964285Y-133547619D01*
X111011904Y-133500000D01*
X111107142Y-133452380D01*
X111345238Y-133452380D01*
X111488095Y-133500000D01*
X111821428Y-133452380D02*
X112059523Y-134452380D01*
X112250000Y-133738095D01*
X112440476Y-134452380D01*
X112678571Y-133452380D01*
X113583333Y-134452380D02*
X113011904Y-134452380D01*
X113297619Y-134452380D02*
X113297619Y-133452380D01*
X113202380Y-133595238D01*
X113107142Y-133690476D01*
X113011904Y-133738095D01*
X139437142Y-93452380D02*
X139103809Y-92976190D01*
X138865714Y-93452380D02*
X138865714Y-92452380D01*
X139246666Y-92452380D01*
X139341904Y-92500000D01*
X139389523Y-92547619D01*
X139437142Y-92642857D01*
X139437142Y-92785714D01*
X139389523Y-92880952D01*
X139341904Y-92928571D01*
X139246666Y-92976190D01*
X138865714Y-92976190D01*
X140389523Y-93452380D02*
X139818095Y-93452380D01*
X140103809Y-93452380D02*
X140103809Y-92452380D01*
X140008571Y-92595238D01*
X139913333Y-92690476D01*
X139818095Y-92738095D01*
X141246666Y-92452380D02*
X141056190Y-92452380D01*
X140960952Y-92500000D01*
X140913333Y-92547619D01*
X140818095Y-92690476D01*
X140770476Y-92880952D01*
X140770476Y-93261904D01*
X140818095Y-93357142D01*
X140865714Y-93404761D01*
X140960952Y-93452380D01*
X141151428Y-93452380D01*
X141246666Y-93404761D01*
X141294285Y-93357142D01*
X141341904Y-93261904D01*
X141341904Y-93023809D01*
X141294285Y-92928571D01*
X141246666Y-92880952D01*
X141151428Y-92833333D01*
X140960952Y-92833333D01*
X140865714Y-92880952D01*
X140818095Y-92928571D01*
X140770476Y-93023809D01*
X139437142Y-89952380D02*
X139103809Y-89476190D01*
X138865714Y-89952380D02*
X138865714Y-88952380D01*
X139246666Y-88952380D01*
X139341904Y-89000000D01*
X139389523Y-89047619D01*
X139437142Y-89142857D01*
X139437142Y-89285714D01*
X139389523Y-89380952D01*
X139341904Y-89428571D01*
X139246666Y-89476190D01*
X138865714Y-89476190D01*
X140389523Y-89952380D02*
X139818095Y-89952380D01*
X140103809Y-89952380D02*
X140103809Y-88952380D01*
X140008571Y-89095238D01*
X139913333Y-89190476D01*
X139818095Y-89238095D01*
X141294285Y-88952380D02*
X140818095Y-88952380D01*
X140770476Y-89428571D01*
X140818095Y-89380952D01*
X140913333Y-89333333D01*
X141151428Y-89333333D01*
X141246666Y-89380952D01*
X141294285Y-89428571D01*
X141341904Y-89523809D01*
X141341904Y-89761904D01*
X141294285Y-89857142D01*
X141246666Y-89904761D01*
X141151428Y-89952380D01*
X140913333Y-89952380D01*
X140818095Y-89904761D01*
X140770476Y-89857142D01*
X157477142Y-101952380D02*
X157143809Y-101476190D01*
X156905714Y-101952380D02*
X156905714Y-100952380D01*
X157286666Y-100952380D01*
X157381904Y-101000000D01*
X157429523Y-101047619D01*
X157477142Y-101142857D01*
X157477142Y-101285714D01*
X157429523Y-101380952D01*
X157381904Y-101428571D01*
X157286666Y-101476190D01*
X156905714Y-101476190D01*
X158429523Y-101952380D02*
X157858095Y-101952380D01*
X158143809Y-101952380D02*
X158143809Y-100952380D01*
X158048571Y-101095238D01*
X157953333Y-101190476D01*
X157858095Y-101238095D01*
X159286666Y-101285714D02*
X159286666Y-101952380D01*
X159048571Y-100904761D02*
X158810476Y-101619047D01*
X159429523Y-101619047D01*
X157477142Y-98452380D02*
X157143809Y-97976190D01*
X156905714Y-98452380D02*
X156905714Y-97452380D01*
X157286666Y-97452380D01*
X157381904Y-97500000D01*
X157429523Y-97547619D01*
X157477142Y-97642857D01*
X157477142Y-97785714D01*
X157429523Y-97880952D01*
X157381904Y-97928571D01*
X157286666Y-97976190D01*
X156905714Y-97976190D01*
X158429523Y-98452380D02*
X157858095Y-98452380D01*
X158143809Y-98452380D02*
X158143809Y-97452380D01*
X158048571Y-97595238D01*
X157953333Y-97690476D01*
X157858095Y-97738095D01*
X158762857Y-97452380D02*
X159381904Y-97452380D01*
X159048571Y-97833333D01*
X159191428Y-97833333D01*
X159286666Y-97880952D01*
X159334285Y-97928571D01*
X159381904Y-98023809D01*
X159381904Y-98261904D01*
X159334285Y-98357142D01*
X159286666Y-98404761D01*
X159191428Y-98452380D01*
X158905714Y-98452380D01*
X158810476Y-98404761D01*
X158762857Y-98357142D01*
X173237142Y-79452380D02*
X172903809Y-78976190D01*
X172665714Y-79452380D02*
X172665714Y-78452380D01*
X173046666Y-78452380D01*
X173141904Y-78500000D01*
X173189523Y-78547619D01*
X173237142Y-78642857D01*
X173237142Y-78785714D01*
X173189523Y-78880952D01*
X173141904Y-78928571D01*
X173046666Y-78976190D01*
X172665714Y-78976190D01*
X174189523Y-79452380D02*
X173618095Y-79452380D01*
X173903809Y-79452380D02*
X173903809Y-78452380D01*
X173808571Y-78595238D01*
X173713333Y-78690476D01*
X173618095Y-78738095D01*
X174570476Y-78547619D02*
X174618095Y-78500000D01*
X174713333Y-78452380D01*
X174951428Y-78452380D01*
X175046666Y-78500000D01*
X175094285Y-78547619D01*
X175141904Y-78642857D01*
X175141904Y-78738095D01*
X175094285Y-78880952D01*
X174522857Y-79452380D01*
X175141904Y-79452380D01*
X173277142Y-82952380D02*
X172943809Y-82476190D01*
X172705714Y-82952380D02*
X172705714Y-81952380D01*
X173086666Y-81952380D01*
X173181904Y-82000000D01*
X173229523Y-82047619D01*
X173277142Y-82142857D01*
X173277142Y-82285714D01*
X173229523Y-82380952D01*
X173181904Y-82428571D01*
X173086666Y-82476190D01*
X172705714Y-82476190D01*
X174229523Y-82952380D02*
X173658095Y-82952380D01*
X173943809Y-82952380D02*
X173943809Y-81952380D01*
X173848571Y-82095238D01*
X173753333Y-82190476D01*
X173658095Y-82238095D01*
X175181904Y-82952380D02*
X174610476Y-82952380D01*
X174896190Y-82952380D02*
X174896190Y-81952380D01*
X174800952Y-82095238D01*
X174705714Y-82190476D01*
X174610476Y-82238095D01*
X122277142Y-93452380D02*
X121943809Y-92976190D01*
X121705714Y-93452380D02*
X121705714Y-92452380D01*
X122086666Y-92452380D01*
X122181904Y-92500000D01*
X122229523Y-92547619D01*
X122277142Y-92642857D01*
X122277142Y-92785714D01*
X122229523Y-92880952D01*
X122181904Y-92928571D01*
X122086666Y-92976190D01*
X121705714Y-92976190D01*
X123229523Y-93452380D02*
X122658095Y-93452380D01*
X122943809Y-93452380D02*
X122943809Y-92452380D01*
X122848571Y-92595238D01*
X122753333Y-92690476D01*
X122658095Y-92738095D01*
X123848571Y-92452380D02*
X123943809Y-92452380D01*
X124039047Y-92500000D01*
X124086666Y-92547619D01*
X124134285Y-92642857D01*
X124181904Y-92833333D01*
X124181904Y-93071428D01*
X124134285Y-93261904D01*
X124086666Y-93357142D01*
X124039047Y-93404761D01*
X123943809Y-93452380D01*
X123848571Y-93452380D01*
X123753333Y-93404761D01*
X123705714Y-93357142D01*
X123658095Y-93261904D01*
X123610476Y-93071428D01*
X123610476Y-92833333D01*
X123658095Y-92642857D01*
X123705714Y-92547619D01*
X123753333Y-92500000D01*
X123848571Y-92452380D01*
X122753333Y-89952380D02*
X122420000Y-89476190D01*
X122181904Y-89952380D02*
X122181904Y-88952380D01*
X122562857Y-88952380D01*
X122658095Y-89000000D01*
X122705714Y-89047619D01*
X122753333Y-89142857D01*
X122753333Y-89285714D01*
X122705714Y-89380952D01*
X122658095Y-89428571D01*
X122562857Y-89476190D01*
X122181904Y-89476190D01*
X123229523Y-89952380D02*
X123420000Y-89952380D01*
X123515238Y-89904761D01*
X123562857Y-89857142D01*
X123658095Y-89714285D01*
X123705714Y-89523809D01*
X123705714Y-89142857D01*
X123658095Y-89047619D01*
X123610476Y-89000000D01*
X123515238Y-88952380D01*
X123324761Y-88952380D01*
X123229523Y-89000000D01*
X123181904Y-89047619D01*
X123134285Y-89142857D01*
X123134285Y-89380952D01*
X123181904Y-89476190D01*
X123229523Y-89523809D01*
X123324761Y-89571428D01*
X123515238Y-89571428D01*
X123610476Y-89523809D01*
X123658095Y-89476190D01*
X123705714Y-89380952D01*
X105913333Y-101952380D02*
X105580000Y-101476190D01*
X105341904Y-101952380D02*
X105341904Y-100952380D01*
X105722857Y-100952380D01*
X105818095Y-101000000D01*
X105865714Y-101047619D01*
X105913333Y-101142857D01*
X105913333Y-101285714D01*
X105865714Y-101380952D01*
X105818095Y-101428571D01*
X105722857Y-101476190D01*
X105341904Y-101476190D01*
X106484761Y-101380952D02*
X106389523Y-101333333D01*
X106341904Y-101285714D01*
X106294285Y-101190476D01*
X106294285Y-101142857D01*
X106341904Y-101047619D01*
X106389523Y-101000000D01*
X106484761Y-100952380D01*
X106675238Y-100952380D01*
X106770476Y-101000000D01*
X106818095Y-101047619D01*
X106865714Y-101142857D01*
X106865714Y-101190476D01*
X106818095Y-101285714D01*
X106770476Y-101333333D01*
X106675238Y-101380952D01*
X106484761Y-101380952D01*
X106389523Y-101428571D01*
X106341904Y-101476190D01*
X106294285Y-101571428D01*
X106294285Y-101761904D01*
X106341904Y-101857142D01*
X106389523Y-101904761D01*
X106484761Y-101952380D01*
X106675238Y-101952380D01*
X106770476Y-101904761D01*
X106818095Y-101857142D01*
X106865714Y-101761904D01*
X106865714Y-101571428D01*
X106818095Y-101476190D01*
X106770476Y-101428571D01*
X106675238Y-101380952D01*
X105913333Y-98452380D02*
X105580000Y-97976190D01*
X105341904Y-98452380D02*
X105341904Y-97452380D01*
X105722857Y-97452380D01*
X105818095Y-97500000D01*
X105865714Y-97547619D01*
X105913333Y-97642857D01*
X105913333Y-97785714D01*
X105865714Y-97880952D01*
X105818095Y-97928571D01*
X105722857Y-97976190D01*
X105341904Y-97976190D01*
X106246666Y-97452380D02*
X106913333Y-97452380D01*
X106484761Y-98452380D01*
X173453333Y-102452380D02*
X173120000Y-101976190D01*
X172881904Y-102452380D02*
X172881904Y-101452380D01*
X173262857Y-101452380D01*
X173358095Y-101500000D01*
X173405714Y-101547619D01*
X173453333Y-101642857D01*
X173453333Y-101785714D01*
X173405714Y-101880952D01*
X173358095Y-101928571D01*
X173262857Y-101976190D01*
X172881904Y-101976190D01*
X174310476Y-101452380D02*
X174120000Y-101452380D01*
X174024761Y-101500000D01*
X173977142Y-101547619D01*
X173881904Y-101690476D01*
X173834285Y-101880952D01*
X173834285Y-102261904D01*
X173881904Y-102357142D01*
X173929523Y-102404761D01*
X174024761Y-102452380D01*
X174215238Y-102452380D01*
X174310476Y-102404761D01*
X174358095Y-102357142D01*
X174405714Y-102261904D01*
X174405714Y-102023809D01*
X174358095Y-101928571D01*
X174310476Y-101880952D01*
X174215238Y-101833333D01*
X174024761Y-101833333D01*
X173929523Y-101880952D01*
X173881904Y-101928571D01*
X173834285Y-102023809D01*
X173413333Y-98952380D02*
X173080000Y-98476190D01*
X172841904Y-98952380D02*
X172841904Y-97952380D01*
X173222857Y-97952380D01*
X173318095Y-98000000D01*
X173365714Y-98047619D01*
X173413333Y-98142857D01*
X173413333Y-98285714D01*
X173365714Y-98380952D01*
X173318095Y-98428571D01*
X173222857Y-98476190D01*
X172841904Y-98476190D01*
X174318095Y-97952380D02*
X173841904Y-97952380D01*
X173794285Y-98428571D01*
X173841904Y-98380952D01*
X173937142Y-98333333D01*
X174175238Y-98333333D01*
X174270476Y-98380952D01*
X174318095Y-98428571D01*
X174365714Y-98523809D01*
X174365714Y-98761904D01*
X174318095Y-98857142D01*
X174270476Y-98904761D01*
X174175238Y-98952380D01*
X173937142Y-98952380D01*
X173841904Y-98904761D01*
X173794285Y-98857142D01*
X157813333Y-109452380D02*
X157480000Y-108976190D01*
X157241904Y-109452380D02*
X157241904Y-108452380D01*
X157622857Y-108452380D01*
X157718095Y-108500000D01*
X157765714Y-108547619D01*
X157813333Y-108642857D01*
X157813333Y-108785714D01*
X157765714Y-108880952D01*
X157718095Y-108928571D01*
X157622857Y-108976190D01*
X157241904Y-108976190D01*
X158670476Y-108785714D02*
X158670476Y-109452380D01*
X158432380Y-108404761D02*
X158194285Y-109119047D01*
X158813333Y-109119047D01*
X157753333Y-105952380D02*
X157420000Y-105476190D01*
X157181904Y-105952380D02*
X157181904Y-104952380D01*
X157562857Y-104952380D01*
X157658095Y-105000000D01*
X157705714Y-105047619D01*
X157753333Y-105142857D01*
X157753333Y-105285714D01*
X157705714Y-105380952D01*
X157658095Y-105428571D01*
X157562857Y-105476190D01*
X157181904Y-105476190D01*
X158086666Y-104952380D02*
X158705714Y-104952380D01*
X158372380Y-105333333D01*
X158515238Y-105333333D01*
X158610476Y-105380952D01*
X158658095Y-105428571D01*
X158705714Y-105523809D01*
X158705714Y-105761904D01*
X158658095Y-105857142D01*
X158610476Y-105904761D01*
X158515238Y-105952380D01*
X158229523Y-105952380D01*
X158134285Y-105904761D01*
X158086666Y-105857142D01*
X123833333Y-135452380D02*
X123500000Y-134976190D01*
X123261904Y-135452380D02*
X123261904Y-134452380D01*
X123642857Y-134452380D01*
X123738095Y-134500000D01*
X123785714Y-134547619D01*
X123833333Y-134642857D01*
X123833333Y-134785714D01*
X123785714Y-134880952D01*
X123738095Y-134928571D01*
X123642857Y-134976190D01*
X123261904Y-134976190D01*
X124214285Y-134547619D02*
X124261904Y-134500000D01*
X124357142Y-134452380D01*
X124595238Y-134452380D01*
X124690476Y-134500000D01*
X124738095Y-134547619D01*
X124785714Y-134642857D01*
X124785714Y-134738095D01*
X124738095Y-134880952D01*
X124166666Y-135452380D01*
X124785714Y-135452380D01*
X123753333Y-131952380D02*
X123420000Y-131476190D01*
X123181904Y-131952380D02*
X123181904Y-130952380D01*
X123562857Y-130952380D01*
X123658095Y-131000000D01*
X123705714Y-131047619D01*
X123753333Y-131142857D01*
X123753333Y-131285714D01*
X123705714Y-131380952D01*
X123658095Y-131428571D01*
X123562857Y-131476190D01*
X123181904Y-131476190D01*
X124705714Y-131952380D02*
X124134285Y-131952380D01*
X124420000Y-131952380D02*
X124420000Y-130952380D01*
X124324761Y-131095238D01*
X124229523Y-131190476D01*
X124134285Y-131238095D01*
X160174761Y-88987619D02*
X160079523Y-88940000D01*
X159984285Y-88844761D01*
X159841428Y-88701904D01*
X159746190Y-88654285D01*
X159650952Y-88654285D01*
X159698571Y-88892380D02*
X159603333Y-88844761D01*
X159508095Y-88749523D01*
X159460476Y-88559047D01*
X159460476Y-88225714D01*
X159508095Y-88035238D01*
X159603333Y-87940000D01*
X159698571Y-87892380D01*
X159889047Y-87892380D01*
X159984285Y-87940000D01*
X160079523Y-88035238D01*
X160127142Y-88225714D01*
X160127142Y-88559047D01*
X160079523Y-88749523D01*
X159984285Y-88844761D01*
X159889047Y-88892380D01*
X159698571Y-88892380D01*
X160984285Y-87892380D02*
X160793809Y-87892380D01*
X160698571Y-87940000D01*
X160650952Y-87987619D01*
X160555714Y-88130476D01*
X160508095Y-88320952D01*
X160508095Y-88701904D01*
X160555714Y-88797142D01*
X160603333Y-88844761D01*
X160698571Y-88892380D01*
X160889047Y-88892380D01*
X160984285Y-88844761D01*
X161031904Y-88797142D01*
X161079523Y-88701904D01*
X161079523Y-88463809D01*
X161031904Y-88368571D01*
X160984285Y-88320952D01*
X160889047Y-88273333D01*
X160698571Y-88273333D01*
X160603333Y-88320952D01*
X160555714Y-88368571D01*
X160508095Y-88463809D01*
X153674761Y-88987619D02*
X153579523Y-88940000D01*
X153484285Y-88844761D01*
X153341428Y-88701904D01*
X153246190Y-88654285D01*
X153150952Y-88654285D01*
X153198571Y-88892380D02*
X153103333Y-88844761D01*
X153008095Y-88749523D01*
X152960476Y-88559047D01*
X152960476Y-88225714D01*
X153008095Y-88035238D01*
X153103333Y-87940000D01*
X153198571Y-87892380D01*
X153389047Y-87892380D01*
X153484285Y-87940000D01*
X153579523Y-88035238D01*
X153627142Y-88225714D01*
X153627142Y-88559047D01*
X153579523Y-88749523D01*
X153484285Y-88844761D01*
X153389047Y-88892380D01*
X153198571Y-88892380D01*
X154531904Y-87892380D02*
X154055714Y-87892380D01*
X154008095Y-88368571D01*
X154055714Y-88320952D01*
X154150952Y-88273333D01*
X154389047Y-88273333D01*
X154484285Y-88320952D01*
X154531904Y-88368571D01*
X154579523Y-88463809D01*
X154579523Y-88701904D01*
X154531904Y-88797142D01*
X154484285Y-88844761D01*
X154389047Y-88892380D01*
X154150952Y-88892380D01*
X154055714Y-88844761D01*
X154008095Y-88797142D01*
X109174761Y-88987619D02*
X109079523Y-88940000D01*
X108984285Y-88844761D01*
X108841428Y-88701904D01*
X108746190Y-88654285D01*
X108650952Y-88654285D01*
X108698571Y-88892380D02*
X108603333Y-88844761D01*
X108508095Y-88749523D01*
X108460476Y-88559047D01*
X108460476Y-88225714D01*
X108508095Y-88035238D01*
X108603333Y-87940000D01*
X108698571Y-87892380D01*
X108889047Y-87892380D01*
X108984285Y-87940000D01*
X109079523Y-88035238D01*
X109127142Y-88225714D01*
X109127142Y-88559047D01*
X109079523Y-88749523D01*
X108984285Y-88844761D01*
X108889047Y-88892380D01*
X108698571Y-88892380D01*
X109984285Y-88225714D02*
X109984285Y-88892380D01*
X109746190Y-87844761D02*
X109508095Y-88559047D01*
X110127142Y-88559047D01*
X102674761Y-88987619D02*
X102579523Y-88940000D01*
X102484285Y-88844761D01*
X102341428Y-88701904D01*
X102246190Y-88654285D01*
X102150952Y-88654285D01*
X102198571Y-88892380D02*
X102103333Y-88844761D01*
X102008095Y-88749523D01*
X101960476Y-88559047D01*
X101960476Y-88225714D01*
X102008095Y-88035238D01*
X102103333Y-87940000D01*
X102198571Y-87892380D01*
X102389047Y-87892380D01*
X102484285Y-87940000D01*
X102579523Y-88035238D01*
X102627142Y-88225714D01*
X102627142Y-88559047D01*
X102579523Y-88749523D01*
X102484285Y-88844761D01*
X102389047Y-88892380D01*
X102198571Y-88892380D01*
X102960476Y-87892380D02*
X103579523Y-87892380D01*
X103246190Y-88273333D01*
X103389047Y-88273333D01*
X103484285Y-88320952D01*
X103531904Y-88368571D01*
X103579523Y-88463809D01*
X103579523Y-88701904D01*
X103531904Y-88797142D01*
X103484285Y-88844761D01*
X103389047Y-88892380D01*
X103103333Y-88892380D01*
X103008095Y-88844761D01*
X102960476Y-88797142D01*
X169447619Y-70555238D02*
X169400000Y-70650476D01*
X169304761Y-70745714D01*
X169161904Y-70888571D01*
X169114285Y-70983809D01*
X169114285Y-71079047D01*
X169352380Y-71031428D02*
X169304761Y-71126666D01*
X169209523Y-71221904D01*
X169019047Y-71269523D01*
X168685714Y-71269523D01*
X168495238Y-71221904D01*
X168400000Y-71126666D01*
X168352380Y-71031428D01*
X168352380Y-70840952D01*
X168400000Y-70745714D01*
X168495238Y-70650476D01*
X168685714Y-70602857D01*
X169019047Y-70602857D01*
X169209523Y-70650476D01*
X169304761Y-70745714D01*
X169352380Y-70840952D01*
X169352380Y-71031428D01*
X168447619Y-70221904D02*
X168400000Y-70174285D01*
X168352380Y-70079047D01*
X168352380Y-69840952D01*
X168400000Y-69745714D01*
X168447619Y-69698095D01*
X168542857Y-69650476D01*
X168638095Y-69650476D01*
X168780952Y-69698095D01*
X169352380Y-70269523D01*
X169352380Y-69650476D01*
X179647619Y-70555238D02*
X179600000Y-70650476D01*
X179504761Y-70745714D01*
X179361904Y-70888571D01*
X179314285Y-70983809D01*
X179314285Y-71079047D01*
X179552380Y-71031428D02*
X179504761Y-71126666D01*
X179409523Y-71221904D01*
X179219047Y-71269523D01*
X178885714Y-71269523D01*
X178695238Y-71221904D01*
X178600000Y-71126666D01*
X178552380Y-71031428D01*
X178552380Y-70840952D01*
X178600000Y-70745714D01*
X178695238Y-70650476D01*
X178885714Y-70602857D01*
X179219047Y-70602857D01*
X179409523Y-70650476D01*
X179504761Y-70745714D01*
X179552380Y-70840952D01*
X179552380Y-71031428D01*
X179552380Y-69650476D02*
X179552380Y-70221904D01*
X179552380Y-69936190D02*
X178552380Y-69936190D01*
X178695238Y-70031428D01*
X178790476Y-70126666D01*
X178838095Y-70221904D01*
X146952380Y-73738095D02*
X145952380Y-73738095D01*
X146952380Y-73166666D02*
X146380952Y-73595238D01*
X145952380Y-73166666D02*
X146523809Y-73738095D01*
X146285714Y-72309523D02*
X146952380Y-72309523D01*
X145904761Y-72547619D02*
X146619047Y-72785714D01*
X146619047Y-72166666D01*
X163952380Y-73738095D02*
X162952380Y-73738095D01*
X163952380Y-73166666D02*
X163380952Y-73595238D01*
X162952380Y-73166666D02*
X163523809Y-73738095D01*
X162952380Y-72833333D02*
X162952380Y-72214285D01*
X163333333Y-72547619D01*
X163333333Y-72404761D01*
X163380952Y-72309523D01*
X163428571Y-72261904D01*
X163523809Y-72214285D01*
X163761904Y-72214285D01*
X163857142Y-72261904D01*
X163904761Y-72309523D01*
X163952380Y-72404761D01*
X163952380Y-72690476D01*
X163904761Y-72785714D01*
X163857142Y-72833333D01*
X129952380Y-73738095D02*
X128952380Y-73738095D01*
X129952380Y-73166666D02*
X129380952Y-73595238D01*
X128952380Y-73166666D02*
X129523809Y-73738095D01*
X129047619Y-72785714D02*
X129000000Y-72738095D01*
X128952380Y-72642857D01*
X128952380Y-72404761D01*
X129000000Y-72309523D01*
X129047619Y-72261904D01*
X129142857Y-72214285D01*
X129238095Y-72214285D01*
X129380952Y-72261904D01*
X129952380Y-72833333D01*
X129952380Y-72214285D01*
X112452380Y-73738095D02*
X111452380Y-73738095D01*
X112452380Y-73166666D02*
X111880952Y-73595238D01*
X111452380Y-73166666D02*
X112023809Y-73738095D01*
X112452380Y-72214285D02*
X112452380Y-72785714D01*
X112452380Y-72500000D02*
X111452380Y-72500000D01*
X111595238Y-72595238D01*
X111690476Y-72690476D01*
X111738095Y-72785714D01*
X96622380Y-132833333D02*
X97336666Y-132833333D01*
X97479523Y-132880952D01*
X97574761Y-132976190D01*
X97622380Y-133119047D01*
X97622380Y-133214285D01*
X97622380Y-132357142D02*
X96622380Y-132357142D01*
X96622380Y-131976190D01*
X96670000Y-131880952D01*
X96717619Y-131833333D01*
X96812857Y-131785714D01*
X96955714Y-131785714D01*
X97050952Y-131833333D01*
X97098571Y-131880952D01*
X97146190Y-131976190D01*
X97146190Y-132357142D01*
X97622380Y-130833333D02*
X97622380Y-131404761D01*
X97622380Y-131119047D02*
X96622380Y-131119047D01*
X96765238Y-131214285D01*
X96860476Y-131309523D01*
X96908095Y-131404761D01*
X139666666Y-60952380D02*
X139666666Y-61666666D01*
X139619047Y-61809523D01*
X139523809Y-61904761D01*
X139380952Y-61952380D01*
X139285714Y-61952380D01*
X140571428Y-60952380D02*
X140380952Y-60952380D01*
X140285714Y-61000000D01*
X140238095Y-61047619D01*
X140142857Y-61190476D01*
X140095238Y-61380952D01*
X140095238Y-61761904D01*
X140142857Y-61857142D01*
X140190476Y-61904761D01*
X140285714Y-61952380D01*
X140476190Y-61952380D01*
X140571428Y-61904761D01*
X140619047Y-61857142D01*
X140666666Y-61761904D01*
X140666666Y-61523809D01*
X140619047Y-61428571D01*
X140571428Y-61380952D01*
X140476190Y-61333333D01*
X140285714Y-61333333D01*
X140190476Y-61380952D01*
X140142857Y-61428571D01*
X140095238Y-61523809D01*
X156666666Y-60952380D02*
X156666666Y-61666666D01*
X156619047Y-61809523D01*
X156523809Y-61904761D01*
X156380952Y-61952380D01*
X156285714Y-61952380D01*
X157619047Y-60952380D02*
X157142857Y-60952380D01*
X157095238Y-61428571D01*
X157142857Y-61380952D01*
X157238095Y-61333333D01*
X157476190Y-61333333D01*
X157571428Y-61380952D01*
X157619047Y-61428571D01*
X157666666Y-61523809D01*
X157666666Y-61761904D01*
X157619047Y-61857142D01*
X157571428Y-61904761D01*
X157476190Y-61952380D01*
X157238095Y-61952380D01*
X157142857Y-61904761D01*
X157095238Y-61857142D01*
X173666666Y-60952380D02*
X173666666Y-61666666D01*
X173619047Y-61809523D01*
X173523809Y-61904761D01*
X173380952Y-61952380D01*
X173285714Y-61952380D01*
X174571428Y-61285714D02*
X174571428Y-61952380D01*
X174333333Y-60904761D02*
X174095238Y-61619047D01*
X174714285Y-61619047D01*
X122666666Y-60952380D02*
X122666666Y-61666666D01*
X122619047Y-61809523D01*
X122523809Y-61904761D01*
X122380952Y-61952380D01*
X122285714Y-61952380D01*
X123047619Y-60952380D02*
X123666666Y-60952380D01*
X123333333Y-61333333D01*
X123476190Y-61333333D01*
X123571428Y-61380952D01*
X123619047Y-61428571D01*
X123666666Y-61523809D01*
X123666666Y-61761904D01*
X123619047Y-61857142D01*
X123571428Y-61904761D01*
X123476190Y-61952380D01*
X123190476Y-61952380D01*
X123095238Y-61904761D01*
X123047619Y-61857142D01*
X105666666Y-60952380D02*
X105666666Y-61666666D01*
X105619047Y-61809523D01*
X105523809Y-61904761D01*
X105380952Y-61952380D01*
X105285714Y-61952380D01*
X106095238Y-61047619D02*
X106142857Y-61000000D01*
X106238095Y-60952380D01*
X106476190Y-60952380D01*
X106571428Y-61000000D01*
X106619047Y-61047619D01*
X106666666Y-61142857D01*
X106666666Y-61238095D01*
X106619047Y-61380952D01*
X106047619Y-61952380D01*
X106666666Y-61952380D01*
X156285714Y-86452380D02*
X156285714Y-85452380D01*
X156523809Y-85452380D01*
X156666666Y-85500000D01*
X156761904Y-85595238D01*
X156809523Y-85690476D01*
X156857142Y-85880952D01*
X156857142Y-86023809D01*
X156809523Y-86214285D01*
X156761904Y-86309523D01*
X156666666Y-86404761D01*
X156523809Y-86452380D01*
X156285714Y-86452380D01*
X157809523Y-86452380D02*
X157238095Y-86452380D01*
X157523809Y-86452380D02*
X157523809Y-85452380D01*
X157428571Y-85595238D01*
X157333333Y-85690476D01*
X157238095Y-85738095D01*
X158428571Y-85452380D02*
X158523809Y-85452380D01*
X158619047Y-85500000D01*
X158666666Y-85547619D01*
X158714285Y-85642857D01*
X158761904Y-85833333D01*
X158761904Y-86071428D01*
X158714285Y-86261904D01*
X158666666Y-86357142D01*
X158619047Y-86404761D01*
X158523809Y-86452380D01*
X158428571Y-86452380D01*
X158333333Y-86404761D01*
X158285714Y-86357142D01*
X158238095Y-86261904D01*
X158190476Y-86071428D01*
X158190476Y-85833333D01*
X158238095Y-85642857D01*
X158285714Y-85547619D01*
X158333333Y-85500000D01*
X158428571Y-85452380D01*
X151738095Y-84352380D02*
X151738095Y-83352380D01*
X152309523Y-84352380D02*
X151880952Y-83780952D01*
X152309523Y-83352380D02*
X151738095Y-83923809D01*
X139341904Y-86452380D02*
X139341904Y-85452380D01*
X139580000Y-85452380D01*
X139722857Y-85500000D01*
X139818095Y-85595238D01*
X139865714Y-85690476D01*
X139913333Y-85880952D01*
X139913333Y-86023809D01*
X139865714Y-86214285D01*
X139818095Y-86309523D01*
X139722857Y-86404761D01*
X139580000Y-86452380D01*
X139341904Y-86452380D01*
X140389523Y-86452380D02*
X140580000Y-86452380D01*
X140675238Y-86404761D01*
X140722857Y-86357142D01*
X140818095Y-86214285D01*
X140865714Y-86023809D01*
X140865714Y-85642857D01*
X140818095Y-85547619D01*
X140770476Y-85500000D01*
X140675238Y-85452380D01*
X140484761Y-85452380D01*
X140389523Y-85500000D01*
X140341904Y-85547619D01*
X140294285Y-85642857D01*
X140294285Y-85880952D01*
X140341904Y-85976190D01*
X140389523Y-86023809D01*
X140484761Y-86071428D01*
X140675238Y-86071428D01*
X140770476Y-86023809D01*
X140818095Y-85976190D01*
X140865714Y-85880952D01*
X134738095Y-84352380D02*
X134738095Y-83352380D01*
X135309523Y-84352380D02*
X134880952Y-83780952D01*
X135309523Y-83352380D02*
X134738095Y-83923809D01*
X134539523Y-112912380D02*
X134539523Y-111912380D01*
X135206190Y-111912380D02*
X135301428Y-111912380D01*
X135396666Y-111960000D01*
X135444285Y-112007619D01*
X135491904Y-112102857D01*
X135539523Y-112293333D01*
X135539523Y-112531428D01*
X135491904Y-112721904D01*
X135444285Y-112817142D01*
X135396666Y-112864761D01*
X135301428Y-112912380D01*
X135206190Y-112912380D01*
X135110952Y-112864761D01*
X135063333Y-112817142D01*
X135015714Y-112721904D01*
X134968095Y-112531428D01*
X134968095Y-112293333D01*
X135015714Y-112102857D01*
X135063333Y-112007619D01*
X135110952Y-111960000D01*
X135206190Y-111912380D01*
X135968095Y-112817142D02*
X136015714Y-112864761D01*
X135968095Y-112912380D01*
X135920476Y-112864761D01*
X135968095Y-112817142D01*
X135968095Y-112912380D01*
X136349047Y-111912380D02*
X136968095Y-111912380D01*
X136634761Y-112293333D01*
X136777619Y-112293333D01*
X136872857Y-112340952D01*
X136920476Y-112388571D01*
X136968095Y-112483809D01*
X136968095Y-112721904D01*
X136920476Y-112817142D01*
X136872857Y-112864761D01*
X136777619Y-112912380D01*
X136491904Y-112912380D01*
X136396666Y-112864761D01*
X136349047Y-112817142D01*
X129039523Y-112912380D02*
X129039523Y-111912380D01*
X129706190Y-111912380D02*
X129801428Y-111912380D01*
X129896666Y-111960000D01*
X129944285Y-112007619D01*
X129991904Y-112102857D01*
X130039523Y-112293333D01*
X130039523Y-112531428D01*
X129991904Y-112721904D01*
X129944285Y-112817142D01*
X129896666Y-112864761D01*
X129801428Y-112912380D01*
X129706190Y-112912380D01*
X129610952Y-112864761D01*
X129563333Y-112817142D01*
X129515714Y-112721904D01*
X129468095Y-112531428D01*
X129468095Y-112293333D01*
X129515714Y-112102857D01*
X129563333Y-112007619D01*
X129610952Y-111960000D01*
X129706190Y-111912380D01*
X130468095Y-112817142D02*
X130515714Y-112864761D01*
X130468095Y-112912380D01*
X130420476Y-112864761D01*
X130468095Y-112817142D01*
X130468095Y-112912380D01*
X130896666Y-112007619D02*
X130944285Y-111960000D01*
X131039523Y-111912380D01*
X131277619Y-111912380D01*
X131372857Y-111960000D01*
X131420476Y-112007619D01*
X131468095Y-112102857D01*
X131468095Y-112198095D01*
X131420476Y-112340952D01*
X130849047Y-112912380D01*
X131468095Y-112912380D01*
X122341904Y-86452380D02*
X122341904Y-85452380D01*
X122580000Y-85452380D01*
X122722857Y-85500000D01*
X122818095Y-85595238D01*
X122865714Y-85690476D01*
X122913333Y-85880952D01*
X122913333Y-86023809D01*
X122865714Y-86214285D01*
X122818095Y-86309523D01*
X122722857Y-86404761D01*
X122580000Y-86452380D01*
X122341904Y-86452380D01*
X123770476Y-85452380D02*
X123580000Y-85452380D01*
X123484761Y-85500000D01*
X123437142Y-85547619D01*
X123341904Y-85690476D01*
X123294285Y-85880952D01*
X123294285Y-86261904D01*
X123341904Y-86357142D01*
X123389523Y-86404761D01*
X123484761Y-86452380D01*
X123675238Y-86452380D01*
X123770476Y-86404761D01*
X123818095Y-86357142D01*
X123865714Y-86261904D01*
X123865714Y-86023809D01*
X123818095Y-85928571D01*
X123770476Y-85880952D01*
X123675238Y-85833333D01*
X123484761Y-85833333D01*
X123389523Y-85880952D01*
X123341904Y-85928571D01*
X123294285Y-86023809D01*
X117738095Y-84352380D02*
X117738095Y-83352380D01*
X118309523Y-84352380D02*
X117880952Y-83780952D01*
X118309523Y-83352380D02*
X117738095Y-83923809D01*
X105341904Y-86452380D02*
X105341904Y-85452380D01*
X105580000Y-85452380D01*
X105722857Y-85500000D01*
X105818095Y-85595238D01*
X105865714Y-85690476D01*
X105913333Y-85880952D01*
X105913333Y-86023809D01*
X105865714Y-86214285D01*
X105818095Y-86309523D01*
X105722857Y-86404761D01*
X105580000Y-86452380D01*
X105341904Y-86452380D01*
X106818095Y-85452380D02*
X106341904Y-85452380D01*
X106294285Y-85928571D01*
X106341904Y-85880952D01*
X106437142Y-85833333D01*
X106675238Y-85833333D01*
X106770476Y-85880952D01*
X106818095Y-85928571D01*
X106865714Y-86023809D01*
X106865714Y-86261904D01*
X106818095Y-86357142D01*
X106770476Y-86404761D01*
X106675238Y-86452380D01*
X106437142Y-86452380D01*
X106341904Y-86404761D01*
X106294285Y-86357142D01*
X100738095Y-84352380D02*
X100738095Y-83352380D01*
X101309523Y-84352380D02*
X100880952Y-83780952D01*
X101309523Y-83352380D02*
X100738095Y-83923809D01*
X145539523Y-112912380D02*
X145539523Y-111912380D01*
X146206190Y-111912380D02*
X146301428Y-111912380D01*
X146396666Y-111960000D01*
X146444285Y-112007619D01*
X146491904Y-112102857D01*
X146539523Y-112293333D01*
X146539523Y-112531428D01*
X146491904Y-112721904D01*
X146444285Y-112817142D01*
X146396666Y-112864761D01*
X146301428Y-112912380D01*
X146206190Y-112912380D01*
X146110952Y-112864761D01*
X146063333Y-112817142D01*
X146015714Y-112721904D01*
X145968095Y-112531428D01*
X145968095Y-112293333D01*
X146015714Y-112102857D01*
X146063333Y-112007619D01*
X146110952Y-111960000D01*
X146206190Y-111912380D01*
X146968095Y-112817142D02*
X147015714Y-112864761D01*
X146968095Y-112912380D01*
X146920476Y-112864761D01*
X146968095Y-112817142D01*
X146968095Y-112912380D01*
X147920476Y-111912380D02*
X147444285Y-111912380D01*
X147396666Y-112388571D01*
X147444285Y-112340952D01*
X147539523Y-112293333D01*
X147777619Y-112293333D01*
X147872857Y-112340952D01*
X147920476Y-112388571D01*
X147968095Y-112483809D01*
X147968095Y-112721904D01*
X147920476Y-112817142D01*
X147872857Y-112864761D01*
X147777619Y-112912380D01*
X147539523Y-112912380D01*
X147444285Y-112864761D01*
X147396666Y-112817142D01*
X140039523Y-112912380D02*
X140039523Y-111912380D01*
X140706190Y-111912380D02*
X140801428Y-111912380D01*
X140896666Y-111960000D01*
X140944285Y-112007619D01*
X140991904Y-112102857D01*
X141039523Y-112293333D01*
X141039523Y-112531428D01*
X140991904Y-112721904D01*
X140944285Y-112817142D01*
X140896666Y-112864761D01*
X140801428Y-112912380D01*
X140706190Y-112912380D01*
X140610952Y-112864761D01*
X140563333Y-112817142D01*
X140515714Y-112721904D01*
X140468095Y-112531428D01*
X140468095Y-112293333D01*
X140515714Y-112102857D01*
X140563333Y-112007619D01*
X140610952Y-111960000D01*
X140706190Y-111912380D01*
X141468095Y-112817142D02*
X141515714Y-112864761D01*
X141468095Y-112912380D01*
X141420476Y-112864761D01*
X141468095Y-112817142D01*
X141468095Y-112912380D01*
X142372857Y-112245714D02*
X142372857Y-112912380D01*
X142134761Y-111864761D02*
X141896666Y-112579047D01*
X142515714Y-112579047D01*
X123539523Y-112912380D02*
X123539523Y-111912380D01*
X124206190Y-111912380D02*
X124301428Y-111912380D01*
X124396666Y-111960000D01*
X124444285Y-112007619D01*
X124491904Y-112102857D01*
X124539523Y-112293333D01*
X124539523Y-112531428D01*
X124491904Y-112721904D01*
X124444285Y-112817142D01*
X124396666Y-112864761D01*
X124301428Y-112912380D01*
X124206190Y-112912380D01*
X124110952Y-112864761D01*
X124063333Y-112817142D01*
X124015714Y-112721904D01*
X123968095Y-112531428D01*
X123968095Y-112293333D01*
X124015714Y-112102857D01*
X124063333Y-112007619D01*
X124110952Y-111960000D01*
X124206190Y-111912380D01*
X124968095Y-112817142D02*
X125015714Y-112864761D01*
X124968095Y-112912380D01*
X124920476Y-112864761D01*
X124968095Y-112817142D01*
X124968095Y-112912380D01*
X125968095Y-112912380D02*
X125396666Y-112912380D01*
X125682380Y-112912380D02*
X125682380Y-111912380D01*
X125587142Y-112055238D01*
X125491904Y-112150476D01*
X125396666Y-112198095D01*
X118039523Y-112912380D02*
X118039523Y-111912380D01*
X118706190Y-111912380D02*
X118801428Y-111912380D01*
X118896666Y-111960000D01*
X118944285Y-112007619D01*
X118991904Y-112102857D01*
X119039523Y-112293333D01*
X119039523Y-112531428D01*
X118991904Y-112721904D01*
X118944285Y-112817142D01*
X118896666Y-112864761D01*
X118801428Y-112912380D01*
X118706190Y-112912380D01*
X118610952Y-112864761D01*
X118563333Y-112817142D01*
X118515714Y-112721904D01*
X118468095Y-112531428D01*
X118468095Y-112293333D01*
X118515714Y-112102857D01*
X118563333Y-112007619D01*
X118610952Y-111960000D01*
X118706190Y-111912380D01*
X119468095Y-112817142D02*
X119515714Y-112864761D01*
X119468095Y-112912380D01*
X119420476Y-112864761D01*
X119468095Y-112817142D01*
X119468095Y-112912380D01*
X120134761Y-111912380D02*
X120230000Y-111912380D01*
X120325238Y-111960000D01*
X120372857Y-112007619D01*
X120420476Y-112102857D01*
X120468095Y-112293333D01*
X120468095Y-112531428D01*
X120420476Y-112721904D01*
X120372857Y-112817142D01*
X120325238Y-112864761D01*
X120230000Y-112912380D01*
X120134761Y-112912380D01*
X120039523Y-112864761D01*
X119991904Y-112817142D01*
X119944285Y-112721904D01*
X119896666Y-112531428D01*
X119896666Y-112293333D01*
X119944285Y-112102857D01*
X119991904Y-112007619D01*
X120039523Y-111960000D01*
X120134761Y-111912380D01*
M02*
