G04 #@! TF.GenerationSoftware,KiCad,Pcbnew,(5.1.4)-1*
G04 #@! TF.CreationDate,2021-08-09T13:21:02-03:00*
G04 #@! TF.ProjectId,Plc_Esp12,506c635f-4573-4703-9132-2e6b69636164,rev?*
G04 #@! TF.SameCoordinates,Original*
G04 #@! TF.FileFunction,Soldermask,Bot*
G04 #@! TF.FilePolarity,Negative*
%FSLAX46Y46*%
G04 Gerber Fmt 4.6, Leading zero omitted, Abs format (unit mm)*
G04 Created by KiCad (PCBNEW (5.1.4)-1) date 2021-08-09 13:21:02*
%MOMM*%
%LPD*%
G04 APERTURE LIST*
%ADD10C,0.150000*%
%ADD11C,0.100000*%
G04 APERTURE END LIST*
D10*
X180809523Y-144333333D02*
X179857142Y-144333333D01*
X181000000Y-144904761D02*
X180333333Y-142904761D01*
X179666666Y-144904761D01*
X178142857Y-143571428D02*
X178142857Y-145190476D01*
X178238095Y-145380952D01*
X178333333Y-145476190D01*
X178523809Y-145571428D01*
X178809523Y-145571428D01*
X179000000Y-145476190D01*
X178142857Y-144809523D02*
X178333333Y-144904761D01*
X178714285Y-144904761D01*
X178904761Y-144809523D01*
X179000000Y-144714285D01*
X179095238Y-144523809D01*
X179095238Y-143952380D01*
X179000000Y-143761904D01*
X178904761Y-143666666D01*
X178714285Y-143571428D01*
X178333333Y-143571428D01*
X178142857Y-143666666D01*
X176333333Y-143571428D02*
X176333333Y-144904761D01*
X177190476Y-143571428D02*
X177190476Y-144619047D01*
X177095238Y-144809523D01*
X176904761Y-144904761D01*
X176619047Y-144904761D01*
X176428571Y-144809523D01*
X176333333Y-144714285D01*
X175476190Y-144809523D02*
X175285714Y-144904761D01*
X174904761Y-144904761D01*
X174714285Y-144809523D01*
X174619047Y-144619047D01*
X174619047Y-144523809D01*
X174714285Y-144333333D01*
X174904761Y-144238095D01*
X175190476Y-144238095D01*
X175380952Y-144142857D01*
X175476190Y-143952380D01*
X175476190Y-143857142D01*
X175380952Y-143666666D01*
X175190476Y-143571428D01*
X174904761Y-143571428D01*
X174714285Y-143666666D01*
X174047619Y-143571428D02*
X173285714Y-143571428D01*
X173761904Y-142904761D02*
X173761904Y-144619047D01*
X173666666Y-144809523D01*
X173476190Y-144904761D01*
X173285714Y-144904761D01*
X172619047Y-144904761D02*
X172619047Y-143571428D01*
X172619047Y-142904761D02*
X172714285Y-143000000D01*
X172619047Y-143095238D01*
X172523809Y-143000000D01*
X172619047Y-142904761D01*
X172619047Y-143095238D01*
X171666666Y-143571428D02*
X171666666Y-144904761D01*
X171666666Y-143761904D02*
X171571428Y-143666666D01*
X171380952Y-143571428D01*
X171095238Y-143571428D01*
X170904761Y-143666666D01*
X170809523Y-143857142D01*
X170809523Y-144904761D01*
X168523809Y-142904761D02*
X167190476Y-142904761D01*
X168523809Y-144904761D01*
X167190476Y-144904761D01*
X165571428Y-143571428D02*
X165571428Y-144904761D01*
X166428571Y-143571428D02*
X166428571Y-144619047D01*
X166333333Y-144809523D01*
X166142857Y-144904761D01*
X165857142Y-144904761D01*
X165666666Y-144809523D01*
X165571428Y-144714285D01*
X164333333Y-144904761D02*
X164523809Y-144809523D01*
X164619047Y-144619047D01*
X164619047Y-142904761D01*
X163571428Y-144904761D02*
X163571428Y-143571428D01*
X163571428Y-142904761D02*
X163666666Y-143000000D01*
X163571428Y-143095238D01*
X163476190Y-143000000D01*
X163571428Y-142904761D01*
X163571428Y-143095238D01*
X161761904Y-144904761D02*
X161761904Y-143857142D01*
X161857142Y-143666666D01*
X162047619Y-143571428D01*
X162428571Y-143571428D01*
X162619047Y-143666666D01*
X161761904Y-144809523D02*
X161952380Y-144904761D01*
X162428571Y-144904761D01*
X162619047Y-144809523D01*
X162714285Y-144619047D01*
X162714285Y-144428571D01*
X162619047Y-144238095D01*
X162428571Y-144142857D01*
X161952380Y-144142857D01*
X161761904Y-144047619D01*
X160809523Y-143571428D02*
X160809523Y-144904761D01*
X160809523Y-143761904D02*
X160714285Y-143666666D01*
X160523809Y-143571428D01*
X160238095Y-143571428D01*
X160047619Y-143666666D01*
X159952380Y-143857142D01*
X159952380Y-144904761D01*
X159000000Y-144904761D02*
X159000000Y-143571428D01*
X159000000Y-142904761D02*
X159095238Y-143000000D01*
X159000000Y-143095238D01*
X158904761Y-143000000D01*
X159000000Y-142904761D01*
X159000000Y-143095238D01*
X158047619Y-144714285D02*
X157952380Y-144809523D01*
X158047619Y-144904761D01*
X158142857Y-144809523D01*
X158047619Y-144714285D01*
X158047619Y-144904761D01*
X155571428Y-144904761D02*
X155571428Y-142904761D01*
X154809523Y-142904761D01*
X154619047Y-143000000D01*
X154523809Y-143095238D01*
X154428571Y-143285714D01*
X154428571Y-143571428D01*
X154523809Y-143761904D01*
X154619047Y-143857142D01*
X154809523Y-143952380D01*
X155571428Y-143952380D01*
X153285714Y-144904761D02*
X153476190Y-144809523D01*
X153571428Y-144619047D01*
X153571428Y-142904761D01*
X151666666Y-144904761D02*
X151666666Y-143857142D01*
X151761904Y-143666666D01*
X151952380Y-143571428D01*
X152333333Y-143571428D01*
X152523809Y-143666666D01*
X151666666Y-144809523D02*
X151857142Y-144904761D01*
X152333333Y-144904761D01*
X152523809Y-144809523D01*
X152619047Y-144619047D01*
X152619047Y-144428571D01*
X152523809Y-144238095D01*
X152333333Y-144142857D01*
X151857142Y-144142857D01*
X151666666Y-144047619D01*
X149857142Y-144809523D02*
X150047619Y-144904761D01*
X150428571Y-144904761D01*
X150619047Y-144809523D01*
X150714285Y-144714285D01*
X150809523Y-144523809D01*
X150809523Y-143952380D01*
X150714285Y-143761904D01*
X150619047Y-143666666D01*
X150428571Y-143571428D01*
X150047619Y-143571428D01*
X149857142Y-143666666D01*
X148142857Y-144904761D02*
X148142857Y-143857142D01*
X148238095Y-143666666D01*
X148428571Y-143571428D01*
X148809523Y-143571428D01*
X149000000Y-143666666D01*
X148142857Y-144809523D02*
X148333333Y-144904761D01*
X148809523Y-144904761D01*
X149000000Y-144809523D01*
X149095238Y-144619047D01*
X149095238Y-144428571D01*
X149000000Y-144238095D01*
X148809523Y-144142857D01*
X148333333Y-144142857D01*
X148142857Y-144047619D01*
X145857142Y-142904761D02*
X145380952Y-144904761D01*
X145000000Y-143476190D01*
X144619047Y-144904761D01*
X144142857Y-142904761D01*
X143380952Y-144904761D02*
X143380952Y-143571428D01*
X143380952Y-142904761D02*
X143476190Y-143000000D01*
X143380952Y-143095238D01*
X143285714Y-143000000D01*
X143380952Y-142904761D01*
X143380952Y-143095238D01*
X142714285Y-143571428D02*
X141952380Y-143571428D01*
X142428571Y-144904761D02*
X142428571Y-143190476D01*
X142333333Y-143000000D01*
X142142857Y-142904761D01*
X141952380Y-142904761D01*
X141285714Y-144904761D02*
X141285714Y-143571428D01*
X141285714Y-142904761D02*
X141380952Y-143000000D01*
X141285714Y-143095238D01*
X141190476Y-143000000D01*
X141285714Y-142904761D01*
X141285714Y-143095238D01*
D11*
G36*
X186134239Y-139811467D02*
G01*
X186448282Y-139873934D01*
X187039926Y-140119001D01*
X187572392Y-140474784D01*
X188025216Y-140927608D01*
X188380999Y-141460074D01*
X188626066Y-142051718D01*
X188751000Y-142679804D01*
X188751000Y-143320196D01*
X188626066Y-143948282D01*
X188380999Y-144539926D01*
X188025216Y-145072392D01*
X187572392Y-145525216D01*
X187039926Y-145880999D01*
X186448282Y-146126066D01*
X186134239Y-146188533D01*
X185820197Y-146251000D01*
X185179803Y-146251000D01*
X184865761Y-146188533D01*
X184551718Y-146126066D01*
X183960074Y-145880999D01*
X183427608Y-145525216D01*
X182974784Y-145072392D01*
X182619001Y-144539926D01*
X182373934Y-143948282D01*
X182249000Y-143320196D01*
X182249000Y-142679804D01*
X182373934Y-142051718D01*
X182619001Y-141460074D01*
X182974784Y-140927608D01*
X183427608Y-140474784D01*
X183960074Y-140119001D01*
X184551718Y-139873934D01*
X184865761Y-139811467D01*
X185179803Y-139749000D01*
X185820197Y-139749000D01*
X186134239Y-139811467D01*
X186134239Y-139811467D01*
G37*
G36*
X94634239Y-139811467D02*
G01*
X94948282Y-139873934D01*
X95539926Y-140119001D01*
X96072392Y-140474784D01*
X96525216Y-140927608D01*
X96880999Y-141460074D01*
X97126066Y-142051718D01*
X97251000Y-142679804D01*
X97251000Y-143320196D01*
X97126066Y-143948282D01*
X96880999Y-144539926D01*
X96525216Y-145072392D01*
X96072392Y-145525216D01*
X95539926Y-145880999D01*
X94948282Y-146126066D01*
X94634239Y-146188533D01*
X94320197Y-146251000D01*
X93679803Y-146251000D01*
X93365761Y-146188533D01*
X93051718Y-146126066D01*
X92460074Y-145880999D01*
X91927608Y-145525216D01*
X91474784Y-145072392D01*
X91119001Y-144539926D01*
X90873934Y-143948282D01*
X90749000Y-143320196D01*
X90749000Y-142679804D01*
X90873934Y-142051718D01*
X91119001Y-141460074D01*
X91474784Y-140927608D01*
X91927608Y-140474784D01*
X92460074Y-140119001D01*
X93051718Y-139873934D01*
X93365761Y-139811467D01*
X93679803Y-139749000D01*
X94320197Y-139749000D01*
X94634239Y-139811467D01*
X94634239Y-139811467D01*
G37*
G36*
X109306564Y-134989389D02*
G01*
X109497833Y-135068615D01*
X109497835Y-135068616D01*
X109669973Y-135183635D01*
X109816365Y-135330027D01*
X109913284Y-135475076D01*
X109931385Y-135502167D01*
X110010611Y-135693436D01*
X110051000Y-135896484D01*
X110051000Y-136103516D01*
X110010611Y-136306564D01*
X109931385Y-136497833D01*
X109931384Y-136497835D01*
X109816365Y-136669973D01*
X109669973Y-136816365D01*
X109497835Y-136931384D01*
X109497834Y-136931385D01*
X109497833Y-136931385D01*
X109306564Y-137010611D01*
X109103516Y-137051000D01*
X108896484Y-137051000D01*
X108693436Y-137010611D01*
X108502167Y-136931385D01*
X108502166Y-136931385D01*
X108502165Y-136931384D01*
X108330027Y-136816365D01*
X108183635Y-136669973D01*
X108068616Y-136497835D01*
X108068615Y-136497833D01*
X107989389Y-136306564D01*
X107949000Y-136103516D01*
X107949000Y-135896484D01*
X107989389Y-135693436D01*
X108068615Y-135502167D01*
X108086717Y-135475076D01*
X108183635Y-135330027D01*
X108330027Y-135183635D01*
X108502165Y-135068616D01*
X108502167Y-135068615D01*
X108693436Y-134989389D01*
X108896484Y-134949000D01*
X109103516Y-134949000D01*
X109306564Y-134989389D01*
X109306564Y-134989389D01*
G37*
G36*
X115806564Y-134989389D02*
G01*
X115997833Y-135068615D01*
X115997835Y-135068616D01*
X116169973Y-135183635D01*
X116316365Y-135330027D01*
X116413284Y-135475076D01*
X116431385Y-135502167D01*
X116510611Y-135693436D01*
X116551000Y-135896484D01*
X116551000Y-136103516D01*
X116510611Y-136306564D01*
X116431385Y-136497833D01*
X116431384Y-136497835D01*
X116316365Y-136669973D01*
X116169973Y-136816365D01*
X115997835Y-136931384D01*
X115997834Y-136931385D01*
X115997833Y-136931385D01*
X115806564Y-137010611D01*
X115603516Y-137051000D01*
X115396484Y-137051000D01*
X115193436Y-137010611D01*
X115002167Y-136931385D01*
X115002166Y-136931385D01*
X115002165Y-136931384D01*
X114830027Y-136816365D01*
X114683635Y-136669973D01*
X114568616Y-136497835D01*
X114568615Y-136497833D01*
X114489389Y-136306564D01*
X114449000Y-136103516D01*
X114449000Y-135896484D01*
X114489389Y-135693436D01*
X114568615Y-135502167D01*
X114586717Y-135475076D01*
X114683635Y-135330027D01*
X114830027Y-135183635D01*
X115002165Y-135068616D01*
X115002167Y-135068615D01*
X115193436Y-134989389D01*
X115396484Y-134949000D01*
X115603516Y-134949000D01*
X115806564Y-134989389D01*
X115806564Y-134989389D01*
G37*
G36*
X119006823Y-134161313D02*
G01*
X119167242Y-134209976D01*
X119234361Y-134245852D01*
X119315078Y-134288996D01*
X119444659Y-134395341D01*
X119551004Y-134524922D01*
X119551005Y-134524924D01*
X119630024Y-134672758D01*
X119678687Y-134833177D01*
X119695117Y-135000000D01*
X119678687Y-135166823D01*
X119630024Y-135327242D01*
X119589477Y-135403100D01*
X119551004Y-135475078D01*
X119444659Y-135604659D01*
X119315078Y-135711004D01*
X119315076Y-135711005D01*
X119167242Y-135790024D01*
X119006823Y-135838687D01*
X118881804Y-135851000D01*
X118798196Y-135851000D01*
X118673177Y-135838687D01*
X118512758Y-135790024D01*
X118364924Y-135711005D01*
X118364922Y-135711004D01*
X118235341Y-135604659D01*
X118128996Y-135475078D01*
X118090523Y-135403100D01*
X118049976Y-135327242D01*
X118001313Y-135166823D01*
X117984883Y-135000000D01*
X118001313Y-134833177D01*
X118049976Y-134672758D01*
X118128995Y-134524924D01*
X118128996Y-134524922D01*
X118235341Y-134395341D01*
X118364922Y-134288996D01*
X118445639Y-134245852D01*
X118512758Y-134209976D01*
X118673177Y-134161313D01*
X118798196Y-134149000D01*
X118881804Y-134149000D01*
X119006823Y-134161313D01*
X119006823Y-134161313D01*
G37*
G36*
X129248228Y-134181703D02*
G01*
X129403100Y-134245853D01*
X129542481Y-134338985D01*
X129661015Y-134457519D01*
X129754147Y-134596900D01*
X129818297Y-134751772D01*
X129851000Y-134916184D01*
X129851000Y-135083816D01*
X129818297Y-135248228D01*
X129754147Y-135403100D01*
X129661015Y-135542481D01*
X129542481Y-135661015D01*
X129403100Y-135754147D01*
X129248228Y-135818297D01*
X129083816Y-135851000D01*
X128916184Y-135851000D01*
X128751772Y-135818297D01*
X128596900Y-135754147D01*
X128457519Y-135661015D01*
X128338985Y-135542481D01*
X128245853Y-135403100D01*
X128181703Y-135248228D01*
X128149000Y-135083816D01*
X128149000Y-134916184D01*
X128181703Y-134751772D01*
X128245853Y-134596900D01*
X128338985Y-134457519D01*
X128457519Y-134338985D01*
X128596900Y-134245853D01*
X128751772Y-134181703D01*
X128916184Y-134149000D01*
X129083816Y-134149000D01*
X129248228Y-134181703D01*
X129248228Y-134181703D01*
G37*
G36*
X104690442Y-131105518D02*
G01*
X104756627Y-131112037D01*
X104926466Y-131163557D01*
X105082991Y-131247222D01*
X105118729Y-131276552D01*
X105220186Y-131359814D01*
X105303448Y-131461271D01*
X105332778Y-131497009D01*
X105416443Y-131653534D01*
X105467963Y-131823373D01*
X105485359Y-132000000D01*
X105467963Y-132176627D01*
X105416443Y-132346466D01*
X105332778Y-132502991D01*
X105326525Y-132510610D01*
X105220186Y-132640186D01*
X105118729Y-132723448D01*
X105082991Y-132752778D01*
X104926466Y-132836443D01*
X104756627Y-132887963D01*
X104690443Y-132894481D01*
X104624260Y-132901000D01*
X104535740Y-132901000D01*
X104469557Y-132894481D01*
X104403373Y-132887963D01*
X104233534Y-132836443D01*
X104077009Y-132752778D01*
X104041271Y-132723448D01*
X103939814Y-132640186D01*
X103833475Y-132510610D01*
X103827222Y-132502991D01*
X103743557Y-132346466D01*
X103692037Y-132176627D01*
X103674641Y-132000000D01*
X103692037Y-131823373D01*
X103743557Y-131653534D01*
X103827222Y-131497009D01*
X103856552Y-131461271D01*
X103939814Y-131359814D01*
X104041271Y-131276552D01*
X104077009Y-131247222D01*
X104233534Y-131163557D01*
X104403373Y-131112037D01*
X104469558Y-131105518D01*
X104535740Y-131099000D01*
X104624260Y-131099000D01*
X104690442Y-131105518D01*
X104690442Y-131105518D01*
G37*
G36*
X102150442Y-131105518D02*
G01*
X102216627Y-131112037D01*
X102386466Y-131163557D01*
X102542991Y-131247222D01*
X102578729Y-131276552D01*
X102680186Y-131359814D01*
X102763448Y-131461271D01*
X102792778Y-131497009D01*
X102876443Y-131653534D01*
X102927963Y-131823373D01*
X102945359Y-132000000D01*
X102927963Y-132176627D01*
X102876443Y-132346466D01*
X102792778Y-132502991D01*
X102786525Y-132510610D01*
X102680186Y-132640186D01*
X102578729Y-132723448D01*
X102542991Y-132752778D01*
X102386466Y-132836443D01*
X102216627Y-132887963D01*
X102150443Y-132894481D01*
X102084260Y-132901000D01*
X101995740Y-132901000D01*
X101929557Y-132894481D01*
X101863373Y-132887963D01*
X101693534Y-132836443D01*
X101537009Y-132752778D01*
X101501271Y-132723448D01*
X101399814Y-132640186D01*
X101293475Y-132510610D01*
X101287222Y-132502991D01*
X101203557Y-132346466D01*
X101152037Y-132176627D01*
X101134641Y-132000000D01*
X101152037Y-131823373D01*
X101203557Y-131653534D01*
X101287222Y-131497009D01*
X101316552Y-131461271D01*
X101399814Y-131359814D01*
X101501271Y-131276552D01*
X101537009Y-131247222D01*
X101693534Y-131163557D01*
X101863373Y-131112037D01*
X101929558Y-131105518D01*
X101995740Y-131099000D01*
X102084260Y-131099000D01*
X102150442Y-131105518D01*
X102150442Y-131105518D01*
G37*
G36*
X100401000Y-132901000D02*
G01*
X98599000Y-132901000D01*
X98599000Y-131099000D01*
X100401000Y-131099000D01*
X100401000Y-132901000D01*
X100401000Y-132901000D01*
G37*
G36*
X115806564Y-130489389D02*
G01*
X115997833Y-130568615D01*
X115997835Y-130568616D01*
X116118138Y-130649000D01*
X116169973Y-130683635D01*
X116316365Y-130830027D01*
X116431385Y-131002167D01*
X116510611Y-131193436D01*
X116551000Y-131396484D01*
X116551000Y-131603516D01*
X116510611Y-131806564D01*
X116440811Y-131975076D01*
X116431384Y-131997835D01*
X116316365Y-132169973D01*
X116169973Y-132316365D01*
X115997835Y-132431384D01*
X115997834Y-132431385D01*
X115997833Y-132431385D01*
X115806564Y-132510611D01*
X115603516Y-132551000D01*
X115396484Y-132551000D01*
X115193436Y-132510611D01*
X115002167Y-132431385D01*
X115002166Y-132431385D01*
X115002165Y-132431384D01*
X114830027Y-132316365D01*
X114683635Y-132169973D01*
X114568616Y-131997835D01*
X114559189Y-131975076D01*
X114489389Y-131806564D01*
X114449000Y-131603516D01*
X114449000Y-131396484D01*
X114489389Y-131193436D01*
X114568615Y-131002167D01*
X114683635Y-130830027D01*
X114830027Y-130683635D01*
X114881862Y-130649000D01*
X115002165Y-130568616D01*
X115002167Y-130568615D01*
X115193436Y-130489389D01*
X115396484Y-130449000D01*
X115603516Y-130449000D01*
X115806564Y-130489389D01*
X115806564Y-130489389D01*
G37*
G36*
X109306564Y-130489389D02*
G01*
X109497833Y-130568615D01*
X109497835Y-130568616D01*
X109618138Y-130649000D01*
X109669973Y-130683635D01*
X109816365Y-130830027D01*
X109931385Y-131002167D01*
X110010611Y-131193436D01*
X110051000Y-131396484D01*
X110051000Y-131603516D01*
X110010611Y-131806564D01*
X109940811Y-131975076D01*
X109931384Y-131997835D01*
X109816365Y-132169973D01*
X109669973Y-132316365D01*
X109497835Y-132431384D01*
X109497834Y-132431385D01*
X109497833Y-132431385D01*
X109306564Y-132510611D01*
X109103516Y-132551000D01*
X108896484Y-132551000D01*
X108693436Y-132510611D01*
X108502167Y-132431385D01*
X108502166Y-132431385D01*
X108502165Y-132431384D01*
X108330027Y-132316365D01*
X108183635Y-132169973D01*
X108068616Y-131997835D01*
X108059189Y-131975076D01*
X107989389Y-131806564D01*
X107949000Y-131603516D01*
X107949000Y-131396484D01*
X107989389Y-131193436D01*
X108068615Y-131002167D01*
X108183635Y-130830027D01*
X108330027Y-130683635D01*
X108381862Y-130649000D01*
X108502165Y-130568616D01*
X108502167Y-130568615D01*
X108693436Y-130489389D01*
X108896484Y-130449000D01*
X109103516Y-130449000D01*
X109306564Y-130489389D01*
X109306564Y-130489389D01*
G37*
G36*
X129248228Y-130681703D02*
G01*
X129403100Y-130745853D01*
X129542481Y-130838985D01*
X129661015Y-130957519D01*
X129754147Y-131096900D01*
X129818297Y-131251772D01*
X129851000Y-131416184D01*
X129851000Y-131583816D01*
X129818297Y-131748228D01*
X129754147Y-131903100D01*
X129661015Y-132042481D01*
X129542481Y-132161015D01*
X129403100Y-132254147D01*
X129248228Y-132318297D01*
X129083816Y-132351000D01*
X128916184Y-132351000D01*
X128751772Y-132318297D01*
X128596900Y-132254147D01*
X128457519Y-132161015D01*
X128338985Y-132042481D01*
X128245853Y-131903100D01*
X128181703Y-131748228D01*
X128149000Y-131583816D01*
X128149000Y-131416184D01*
X128181703Y-131251772D01*
X128245853Y-131096900D01*
X128338985Y-130957519D01*
X128457519Y-130838985D01*
X128596900Y-130745853D01*
X128751772Y-130681703D01*
X128916184Y-130649000D01*
X129083816Y-130649000D01*
X129248228Y-130681703D01*
X129248228Y-130681703D01*
G37*
G36*
X119006823Y-130661313D02*
G01*
X119167242Y-130709976D01*
X119234361Y-130745852D01*
X119315078Y-130788996D01*
X119444659Y-130895341D01*
X119551004Y-131024922D01*
X119551005Y-131024924D01*
X119630024Y-131172758D01*
X119678687Y-131333177D01*
X119695117Y-131500000D01*
X119678687Y-131666823D01*
X119630024Y-131827242D01*
X119589477Y-131903100D01*
X119551004Y-131975078D01*
X119444659Y-132104659D01*
X119315078Y-132211004D01*
X119315076Y-132211005D01*
X119167242Y-132290024D01*
X119006823Y-132338687D01*
X118881804Y-132351000D01*
X118798196Y-132351000D01*
X118673177Y-132338687D01*
X118512758Y-132290024D01*
X118364924Y-132211005D01*
X118364922Y-132211004D01*
X118235341Y-132104659D01*
X118128996Y-131975078D01*
X118090523Y-131903100D01*
X118049976Y-131827242D01*
X118001313Y-131666823D01*
X117984883Y-131500000D01*
X118001313Y-131333177D01*
X118049976Y-131172758D01*
X118128995Y-131024924D01*
X118128996Y-131024922D01*
X118235341Y-130895341D01*
X118364922Y-130788996D01*
X118445639Y-130745852D01*
X118512758Y-130709976D01*
X118673177Y-130661313D01*
X118798196Y-130649000D01*
X118881804Y-130649000D01*
X119006823Y-130661313D01*
X119006823Y-130661313D01*
G37*
G36*
X125520104Y-126359585D02*
G01*
X125688626Y-126429389D01*
X125840291Y-126530728D01*
X125969272Y-126659709D01*
X126070611Y-126811374D01*
X126140415Y-126979896D01*
X126176000Y-127158797D01*
X126176000Y-127341203D01*
X126140415Y-127520104D01*
X126070611Y-127688626D01*
X125969272Y-127840291D01*
X125840291Y-127969272D01*
X125688626Y-128070611D01*
X125520104Y-128140415D01*
X125341203Y-128176000D01*
X125158797Y-128176000D01*
X124979896Y-128140415D01*
X124811374Y-128070611D01*
X124659709Y-127969272D01*
X124530728Y-127840291D01*
X124429389Y-127688626D01*
X124359585Y-127520104D01*
X124324000Y-127341203D01*
X124324000Y-127158797D01*
X124359585Y-126979896D01*
X124429389Y-126811374D01*
X124530728Y-126659709D01*
X124659709Y-126530728D01*
X124811374Y-126429389D01*
X124979896Y-126359585D01*
X125158797Y-126324000D01*
X125341203Y-126324000D01*
X125520104Y-126359585D01*
X125520104Y-126359585D01*
G37*
G36*
X101237142Y-124468242D02*
G01*
X101385101Y-124529529D01*
X101518255Y-124618499D01*
X101631501Y-124731745D01*
X101720471Y-124864899D01*
X101781758Y-125012858D01*
X101813000Y-125169925D01*
X101813000Y-125330075D01*
X101781758Y-125487142D01*
X101720471Y-125635101D01*
X101631501Y-125768255D01*
X101518255Y-125881501D01*
X101385101Y-125970471D01*
X101237142Y-126031758D01*
X101080075Y-126063000D01*
X100919925Y-126063000D01*
X100762858Y-126031758D01*
X100614899Y-125970471D01*
X100481745Y-125881501D01*
X100368499Y-125768255D01*
X100279529Y-125635101D01*
X100218242Y-125487142D01*
X100187000Y-125330075D01*
X100187000Y-125169925D01*
X100218242Y-125012858D01*
X100279529Y-124864899D01*
X100368499Y-124731745D01*
X100481745Y-124618499D01*
X100614899Y-124529529D01*
X100762858Y-124468242D01*
X100919925Y-124437000D01*
X101080075Y-124437000D01*
X101237142Y-124468242D01*
X101237142Y-124468242D01*
G37*
G36*
X125520104Y-123359585D02*
G01*
X125688626Y-123429389D01*
X125840291Y-123530728D01*
X125969272Y-123659709D01*
X126070611Y-123811374D01*
X126140415Y-123979896D01*
X126176000Y-124158797D01*
X126176000Y-124341203D01*
X126140415Y-124520104D01*
X126070611Y-124688626D01*
X125969272Y-124840291D01*
X125840291Y-124969272D01*
X125688626Y-125070611D01*
X125520104Y-125140415D01*
X125341203Y-125176000D01*
X125158797Y-125176000D01*
X124979896Y-125140415D01*
X124811374Y-125070611D01*
X124659709Y-124969272D01*
X124530728Y-124840291D01*
X124429389Y-124688626D01*
X124359585Y-124520104D01*
X124324000Y-124341203D01*
X124324000Y-124158797D01*
X124359585Y-123979896D01*
X124429389Y-123811374D01*
X124530728Y-123659709D01*
X124659709Y-123530728D01*
X124811374Y-123429389D01*
X124979896Y-123359585D01*
X125158797Y-123324000D01*
X125341203Y-123324000D01*
X125520104Y-123359585D01*
X125520104Y-123359585D01*
G37*
G36*
X101237142Y-122218242D02*
G01*
X101385101Y-122279529D01*
X101518255Y-122368499D01*
X101631501Y-122481745D01*
X101720471Y-122614899D01*
X101781758Y-122762858D01*
X101813000Y-122919925D01*
X101813000Y-123080075D01*
X101781758Y-123237142D01*
X101720471Y-123385101D01*
X101631501Y-123518255D01*
X101518255Y-123631501D01*
X101385101Y-123720471D01*
X101237142Y-123781758D01*
X101080075Y-123813000D01*
X100919925Y-123813000D01*
X100762858Y-123781758D01*
X100614899Y-123720471D01*
X100481745Y-123631501D01*
X100368499Y-123518255D01*
X100279529Y-123385101D01*
X100218242Y-123237142D01*
X100187000Y-123080075D01*
X100187000Y-122919925D01*
X100218242Y-122762858D01*
X100279529Y-122614899D01*
X100368499Y-122481745D01*
X100481745Y-122368499D01*
X100614899Y-122279529D01*
X100762858Y-122218242D01*
X100919925Y-122187000D01*
X101080075Y-122187000D01*
X101237142Y-122218242D01*
X101237142Y-122218242D01*
G37*
G36*
X93515486Y-121933229D02*
G01*
X93527423Y-121934405D01*
X93588685Y-121952989D01*
X93649948Y-121971573D01*
X93762868Y-122031930D01*
X93861843Y-122113157D01*
X93943070Y-122212132D01*
X94003427Y-122325052D01*
X94040595Y-122447578D01*
X94053145Y-122575000D01*
X94040595Y-122702422D01*
X94003427Y-122824948D01*
X93943070Y-122937868D01*
X93861843Y-123036843D01*
X93762868Y-123118070D01*
X93649948Y-123178427D01*
X93588685Y-123197011D01*
X93527423Y-123215595D01*
X93515486Y-123216771D01*
X93431932Y-123225000D01*
X92568068Y-123225000D01*
X92484514Y-123216771D01*
X92472577Y-123215595D01*
X92411315Y-123197011D01*
X92350052Y-123178427D01*
X92237132Y-123118070D01*
X92138157Y-123036843D01*
X92056930Y-122937868D01*
X91996573Y-122824948D01*
X91959405Y-122702422D01*
X91946855Y-122575000D01*
X91959405Y-122447578D01*
X91996573Y-122325052D01*
X92056930Y-122212132D01*
X92138157Y-122113157D01*
X92237132Y-122031930D01*
X92350052Y-121971573D01*
X92411315Y-121952989D01*
X92472577Y-121934405D01*
X92484514Y-121933229D01*
X92568068Y-121925000D01*
X93431932Y-121925000D01*
X93515486Y-121933229D01*
X93515486Y-121933229D01*
G37*
G36*
X125520104Y-120859585D02*
G01*
X125688626Y-120929389D01*
X125840291Y-121030728D01*
X125969272Y-121159709D01*
X126070611Y-121311374D01*
X126140415Y-121479896D01*
X126176000Y-121658797D01*
X126176000Y-121841203D01*
X126140415Y-122020104D01*
X126070611Y-122188626D01*
X125969272Y-122340291D01*
X125840291Y-122469272D01*
X125688626Y-122570611D01*
X125520104Y-122640415D01*
X125341203Y-122676000D01*
X125158797Y-122676000D01*
X124979896Y-122640415D01*
X124811374Y-122570611D01*
X124659709Y-122469272D01*
X124530728Y-122340291D01*
X124429389Y-122188626D01*
X124359585Y-122020104D01*
X124324000Y-121841203D01*
X124324000Y-121658797D01*
X124359585Y-121479896D01*
X124429389Y-121311374D01*
X124530728Y-121159709D01*
X124659709Y-121030728D01*
X124811374Y-120929389D01*
X124979896Y-120859585D01*
X125158797Y-120824000D01*
X125341203Y-120824000D01*
X125520104Y-120859585D01*
X125520104Y-120859585D01*
G37*
G36*
X95967621Y-120833682D02*
G01*
X96080721Y-120867990D01*
X96184955Y-120923704D01*
X96276317Y-120998683D01*
X96351296Y-121090045D01*
X96407010Y-121194279D01*
X96441318Y-121307379D01*
X96452903Y-121425000D01*
X96441318Y-121542621D01*
X96407010Y-121655721D01*
X96351296Y-121759955D01*
X96276317Y-121851317D01*
X96184955Y-121926296D01*
X96080721Y-121982010D01*
X95967621Y-122016318D01*
X95879474Y-122025000D01*
X95620526Y-122025000D01*
X95532379Y-122016318D01*
X95419279Y-121982010D01*
X95315045Y-121926296D01*
X95223683Y-121851317D01*
X95148704Y-121759955D01*
X95092990Y-121655721D01*
X95058682Y-121542621D01*
X95047097Y-121425000D01*
X95058682Y-121307379D01*
X95092990Y-121194279D01*
X95148704Y-121090045D01*
X95223683Y-120998683D01*
X95315045Y-120923704D01*
X95419279Y-120867990D01*
X95532379Y-120833682D01*
X95620526Y-120825000D01*
X95879474Y-120825000D01*
X95967621Y-120833682D01*
X95967621Y-120833682D01*
G37*
G36*
X101237142Y-120218242D02*
G01*
X101385101Y-120279529D01*
X101518255Y-120368499D01*
X101631501Y-120481745D01*
X101720471Y-120614899D01*
X101781758Y-120762858D01*
X101813000Y-120919925D01*
X101813000Y-121080075D01*
X101781758Y-121237142D01*
X101720471Y-121385101D01*
X101631501Y-121518255D01*
X101518255Y-121631501D01*
X101385101Y-121720471D01*
X101237142Y-121781758D01*
X101080075Y-121813000D01*
X100919925Y-121813000D01*
X100762858Y-121781758D01*
X100614899Y-121720471D01*
X100481745Y-121631501D01*
X100368499Y-121518255D01*
X100279529Y-121385101D01*
X100218242Y-121237142D01*
X100187000Y-121080075D01*
X100187000Y-120919925D01*
X100218242Y-120762858D01*
X100279529Y-120614899D01*
X100368499Y-120481745D01*
X100481745Y-120368499D01*
X100614899Y-120279529D01*
X100762858Y-120218242D01*
X100919925Y-120187000D01*
X101080075Y-120187000D01*
X101237142Y-120218242D01*
X101237142Y-120218242D01*
G37*
G36*
X125520104Y-118359585D02*
G01*
X125688626Y-118429389D01*
X125840291Y-118530728D01*
X125969272Y-118659709D01*
X126070611Y-118811374D01*
X126140415Y-118979896D01*
X126176000Y-119158797D01*
X126176000Y-119341203D01*
X126140415Y-119520104D01*
X126070611Y-119688626D01*
X125969272Y-119840291D01*
X125840291Y-119969272D01*
X125688626Y-120070611D01*
X125520104Y-120140415D01*
X125341203Y-120176000D01*
X125158797Y-120176000D01*
X124979896Y-120140415D01*
X124811374Y-120070611D01*
X124659709Y-119969272D01*
X124530728Y-119840291D01*
X124429389Y-119688626D01*
X124359585Y-119520104D01*
X124324000Y-119341203D01*
X124324000Y-119158797D01*
X124359585Y-118979896D01*
X124429389Y-118811374D01*
X124530728Y-118659709D01*
X124659709Y-118530728D01*
X124811374Y-118429389D01*
X124979896Y-118359585D01*
X125158797Y-118324000D01*
X125341203Y-118324000D01*
X125520104Y-118359585D01*
X125520104Y-118359585D01*
G37*
G36*
X101237142Y-117968242D02*
G01*
X101385101Y-118029529D01*
X101518255Y-118118499D01*
X101631501Y-118231745D01*
X101720471Y-118364899D01*
X101781758Y-118512858D01*
X101813000Y-118669925D01*
X101813000Y-118830075D01*
X101781758Y-118987142D01*
X101720471Y-119135101D01*
X101631501Y-119268255D01*
X101518255Y-119381501D01*
X101385101Y-119470471D01*
X101237142Y-119531758D01*
X101080075Y-119563000D01*
X100919925Y-119563000D01*
X100762858Y-119531758D01*
X100614899Y-119470471D01*
X100481745Y-119381501D01*
X100368499Y-119268255D01*
X100279529Y-119135101D01*
X100218242Y-118987142D01*
X100187000Y-118830075D01*
X100187000Y-118669925D01*
X100218242Y-118512858D01*
X100279529Y-118364899D01*
X100368499Y-118231745D01*
X100481745Y-118118499D01*
X100614899Y-118029529D01*
X100762858Y-117968242D01*
X100919925Y-117937000D01*
X101080075Y-117937000D01*
X101237142Y-117968242D01*
X101237142Y-117968242D01*
G37*
G36*
X125520104Y-115859585D02*
G01*
X125688626Y-115929389D01*
X125840291Y-116030728D01*
X125969272Y-116159709D01*
X126070611Y-116311374D01*
X126140415Y-116479896D01*
X126176000Y-116658797D01*
X126176000Y-116841203D01*
X126140415Y-117020104D01*
X126070611Y-117188626D01*
X125969272Y-117340291D01*
X125840291Y-117469272D01*
X125688626Y-117570611D01*
X125520104Y-117640415D01*
X125341203Y-117676000D01*
X125158797Y-117676000D01*
X124979896Y-117640415D01*
X124811374Y-117570611D01*
X124659709Y-117469272D01*
X124530728Y-117340291D01*
X124429389Y-117188626D01*
X124359585Y-117020104D01*
X124324000Y-116841203D01*
X124324000Y-116658797D01*
X124359585Y-116479896D01*
X124429389Y-116311374D01*
X124530728Y-116159709D01*
X124659709Y-116030728D01*
X124811374Y-115929389D01*
X124979896Y-115859585D01*
X125158797Y-115824000D01*
X125341203Y-115824000D01*
X125520104Y-115859585D01*
X125520104Y-115859585D01*
G37*
G36*
X95967621Y-115983682D02*
G01*
X96080721Y-116017990D01*
X96184955Y-116073704D01*
X96276317Y-116148683D01*
X96351296Y-116240045D01*
X96407010Y-116344279D01*
X96441318Y-116457379D01*
X96452903Y-116575000D01*
X96441318Y-116692621D01*
X96407010Y-116805721D01*
X96351296Y-116909955D01*
X96276317Y-117001317D01*
X96184955Y-117076296D01*
X96080721Y-117132010D01*
X95967621Y-117166318D01*
X95879474Y-117175000D01*
X95620526Y-117175000D01*
X95532379Y-117166318D01*
X95419279Y-117132010D01*
X95315045Y-117076296D01*
X95223683Y-117001317D01*
X95148704Y-116909955D01*
X95092990Y-116805721D01*
X95058682Y-116692621D01*
X95047097Y-116575000D01*
X95058682Y-116457379D01*
X95092990Y-116344279D01*
X95148704Y-116240045D01*
X95223683Y-116148683D01*
X95315045Y-116073704D01*
X95419279Y-116017990D01*
X95532379Y-115983682D01*
X95620526Y-115975000D01*
X95879474Y-115975000D01*
X95967621Y-115983682D01*
X95967621Y-115983682D01*
G37*
G36*
X93515486Y-114783229D02*
G01*
X93527423Y-114784405D01*
X93588685Y-114802989D01*
X93649948Y-114821573D01*
X93762868Y-114881930D01*
X93861843Y-114963157D01*
X93943070Y-115062132D01*
X94003427Y-115175052D01*
X94040595Y-115297578D01*
X94053145Y-115425000D01*
X94040595Y-115552422D01*
X94003427Y-115674948D01*
X93943070Y-115787868D01*
X93861843Y-115886843D01*
X93762868Y-115968070D01*
X93649948Y-116028427D01*
X93588685Y-116047011D01*
X93527423Y-116065595D01*
X93515486Y-116066771D01*
X93431932Y-116075000D01*
X92568068Y-116075000D01*
X92484514Y-116066771D01*
X92472577Y-116065595D01*
X92411315Y-116047011D01*
X92350052Y-116028427D01*
X92237132Y-115968070D01*
X92138157Y-115886843D01*
X92056930Y-115787868D01*
X91996573Y-115674948D01*
X91959405Y-115552422D01*
X91946855Y-115425000D01*
X91959405Y-115297578D01*
X91996573Y-115175052D01*
X92056930Y-115062132D01*
X92138157Y-114963157D01*
X92237132Y-114881930D01*
X92350052Y-114821573D01*
X92411315Y-114802989D01*
X92472577Y-114784405D01*
X92484514Y-114783229D01*
X92568068Y-114775000D01*
X93431932Y-114775000D01*
X93515486Y-114783229D01*
X93515486Y-114783229D01*
G37*
G36*
X140237395Y-108585546D02*
G01*
X140410466Y-108657234D01*
X140487818Y-108708919D01*
X140566227Y-108761310D01*
X140698690Y-108893773D01*
X140698691Y-108893775D01*
X140802766Y-109049534D01*
X140874454Y-109222605D01*
X140911000Y-109406333D01*
X140911000Y-109593667D01*
X140874454Y-109777395D01*
X140802766Y-109950466D01*
X140802765Y-109950467D01*
X140698690Y-110106227D01*
X140566227Y-110238690D01*
X140487818Y-110291081D01*
X140410466Y-110342766D01*
X140237395Y-110414454D01*
X140053667Y-110451000D01*
X139866333Y-110451000D01*
X139682605Y-110414454D01*
X139509534Y-110342766D01*
X139432182Y-110291081D01*
X139353773Y-110238690D01*
X139221310Y-110106227D01*
X139117235Y-109950467D01*
X139117234Y-109950466D01*
X139045546Y-109777395D01*
X139009000Y-109593667D01*
X139009000Y-109406333D01*
X139045546Y-109222605D01*
X139117234Y-109049534D01*
X139221309Y-108893775D01*
X139221310Y-108893773D01*
X139353773Y-108761310D01*
X139432182Y-108708919D01*
X139509534Y-108657234D01*
X139682605Y-108585546D01*
X139866333Y-108549000D01*
X140053667Y-108549000D01*
X140237395Y-108585546D01*
X140237395Y-108585546D01*
G37*
G36*
X118237395Y-108585546D02*
G01*
X118410466Y-108657234D01*
X118487818Y-108708919D01*
X118566227Y-108761310D01*
X118698690Y-108893773D01*
X118698691Y-108893775D01*
X118802766Y-109049534D01*
X118874454Y-109222605D01*
X118911000Y-109406333D01*
X118911000Y-109593667D01*
X118874454Y-109777395D01*
X118802766Y-109950466D01*
X118802765Y-109950467D01*
X118698690Y-110106227D01*
X118566227Y-110238690D01*
X118487818Y-110291081D01*
X118410466Y-110342766D01*
X118237395Y-110414454D01*
X118053667Y-110451000D01*
X117866333Y-110451000D01*
X117682605Y-110414454D01*
X117509534Y-110342766D01*
X117432182Y-110291081D01*
X117353773Y-110238690D01*
X117221310Y-110106227D01*
X117117235Y-109950467D01*
X117117234Y-109950466D01*
X117045546Y-109777395D01*
X117009000Y-109593667D01*
X117009000Y-109406333D01*
X117045546Y-109222605D01*
X117117234Y-109049534D01*
X117221309Y-108893775D01*
X117221310Y-108893773D01*
X117353773Y-108761310D01*
X117432182Y-108708919D01*
X117509534Y-108657234D01*
X117682605Y-108585546D01*
X117866333Y-108549000D01*
X118053667Y-108549000D01*
X118237395Y-108585546D01*
X118237395Y-108585546D01*
G37*
G36*
X126951000Y-110451000D02*
G01*
X125049000Y-110451000D01*
X125049000Y-108549000D01*
X126951000Y-108549000D01*
X126951000Y-110451000D01*
X126951000Y-110451000D01*
G37*
G36*
X123737395Y-108585546D02*
G01*
X123910466Y-108657234D01*
X123987818Y-108708919D01*
X124066227Y-108761310D01*
X124198690Y-108893773D01*
X124198691Y-108893775D01*
X124302766Y-109049534D01*
X124374454Y-109222605D01*
X124411000Y-109406333D01*
X124411000Y-109593667D01*
X124374454Y-109777395D01*
X124302766Y-109950466D01*
X124302765Y-109950467D01*
X124198690Y-110106227D01*
X124066227Y-110238690D01*
X123987818Y-110291081D01*
X123910466Y-110342766D01*
X123737395Y-110414454D01*
X123553667Y-110451000D01*
X123366333Y-110451000D01*
X123182605Y-110414454D01*
X123009534Y-110342766D01*
X122932182Y-110291081D01*
X122853773Y-110238690D01*
X122721310Y-110106227D01*
X122617235Y-109950467D01*
X122617234Y-109950466D01*
X122545546Y-109777395D01*
X122509000Y-109593667D01*
X122509000Y-109406333D01*
X122545546Y-109222605D01*
X122617234Y-109049534D01*
X122721309Y-108893775D01*
X122721310Y-108893773D01*
X122853773Y-108761310D01*
X122932182Y-108708919D01*
X123009534Y-108657234D01*
X123182605Y-108585546D01*
X123366333Y-108549000D01*
X123553667Y-108549000D01*
X123737395Y-108585546D01*
X123737395Y-108585546D01*
G37*
G36*
X143451000Y-110451000D02*
G01*
X141549000Y-110451000D01*
X141549000Y-108549000D01*
X143451000Y-108549000D01*
X143451000Y-110451000D01*
X143451000Y-110451000D01*
G37*
G36*
X148951000Y-110451000D02*
G01*
X147049000Y-110451000D01*
X147049000Y-108549000D01*
X148951000Y-108549000D01*
X148951000Y-110451000D01*
X148951000Y-110451000D01*
G37*
G36*
X145737395Y-108585546D02*
G01*
X145910466Y-108657234D01*
X145987818Y-108708919D01*
X146066227Y-108761310D01*
X146198690Y-108893773D01*
X146198691Y-108893775D01*
X146302766Y-109049534D01*
X146374454Y-109222605D01*
X146411000Y-109406333D01*
X146411000Y-109593667D01*
X146374454Y-109777395D01*
X146302766Y-109950466D01*
X146302765Y-109950467D01*
X146198690Y-110106227D01*
X146066227Y-110238690D01*
X145987818Y-110291081D01*
X145910466Y-110342766D01*
X145737395Y-110414454D01*
X145553667Y-110451000D01*
X145366333Y-110451000D01*
X145182605Y-110414454D01*
X145009534Y-110342766D01*
X144932182Y-110291081D01*
X144853773Y-110238690D01*
X144721310Y-110106227D01*
X144617235Y-109950467D01*
X144617234Y-109950466D01*
X144545546Y-109777395D01*
X144509000Y-109593667D01*
X144509000Y-109406333D01*
X144545546Y-109222605D01*
X144617234Y-109049534D01*
X144721309Y-108893775D01*
X144721310Y-108893773D01*
X144853773Y-108761310D01*
X144932182Y-108708919D01*
X145009534Y-108657234D01*
X145182605Y-108585546D01*
X145366333Y-108549000D01*
X145553667Y-108549000D01*
X145737395Y-108585546D01*
X145737395Y-108585546D01*
G37*
G36*
X132451000Y-110451000D02*
G01*
X130549000Y-110451000D01*
X130549000Y-108549000D01*
X132451000Y-108549000D01*
X132451000Y-110451000D01*
X132451000Y-110451000D01*
G37*
G36*
X129237395Y-108585546D02*
G01*
X129410466Y-108657234D01*
X129487818Y-108708919D01*
X129566227Y-108761310D01*
X129698690Y-108893773D01*
X129698691Y-108893775D01*
X129802766Y-109049534D01*
X129874454Y-109222605D01*
X129911000Y-109406333D01*
X129911000Y-109593667D01*
X129874454Y-109777395D01*
X129802766Y-109950466D01*
X129802765Y-109950467D01*
X129698690Y-110106227D01*
X129566227Y-110238690D01*
X129487818Y-110291081D01*
X129410466Y-110342766D01*
X129237395Y-110414454D01*
X129053667Y-110451000D01*
X128866333Y-110451000D01*
X128682605Y-110414454D01*
X128509534Y-110342766D01*
X128432182Y-110291081D01*
X128353773Y-110238690D01*
X128221310Y-110106227D01*
X128117235Y-109950467D01*
X128117234Y-109950466D01*
X128045546Y-109777395D01*
X128009000Y-109593667D01*
X128009000Y-109406333D01*
X128045546Y-109222605D01*
X128117234Y-109049534D01*
X128221309Y-108893775D01*
X128221310Y-108893773D01*
X128353773Y-108761310D01*
X128432182Y-108708919D01*
X128509534Y-108657234D01*
X128682605Y-108585546D01*
X128866333Y-108549000D01*
X129053667Y-108549000D01*
X129237395Y-108585546D01*
X129237395Y-108585546D01*
G37*
G36*
X137951000Y-110451000D02*
G01*
X136049000Y-110451000D01*
X136049000Y-108549000D01*
X137951000Y-108549000D01*
X137951000Y-110451000D01*
X137951000Y-110451000D01*
G37*
G36*
X134737395Y-108585546D02*
G01*
X134910466Y-108657234D01*
X134987818Y-108708919D01*
X135066227Y-108761310D01*
X135198690Y-108893773D01*
X135198691Y-108893775D01*
X135302766Y-109049534D01*
X135374454Y-109222605D01*
X135411000Y-109406333D01*
X135411000Y-109593667D01*
X135374454Y-109777395D01*
X135302766Y-109950466D01*
X135302765Y-109950467D01*
X135198690Y-110106227D01*
X135066227Y-110238690D01*
X134987818Y-110291081D01*
X134910466Y-110342766D01*
X134737395Y-110414454D01*
X134553667Y-110451000D01*
X134366333Y-110451000D01*
X134182605Y-110414454D01*
X134009534Y-110342766D01*
X133932182Y-110291081D01*
X133853773Y-110238690D01*
X133721310Y-110106227D01*
X133617235Y-109950467D01*
X133617234Y-109950466D01*
X133545546Y-109777395D01*
X133509000Y-109593667D01*
X133509000Y-109406333D01*
X133545546Y-109222605D01*
X133617234Y-109049534D01*
X133721309Y-108893775D01*
X133721310Y-108893773D01*
X133853773Y-108761310D01*
X133932182Y-108708919D01*
X134009534Y-108657234D01*
X134182605Y-108585546D01*
X134366333Y-108549000D01*
X134553667Y-108549000D01*
X134737395Y-108585546D01*
X134737395Y-108585546D01*
G37*
G36*
X121451000Y-110451000D02*
G01*
X119549000Y-110451000D01*
X119549000Y-108549000D01*
X121451000Y-108549000D01*
X121451000Y-110451000D01*
X121451000Y-110451000D01*
G37*
G36*
X163226823Y-108161313D02*
G01*
X163387242Y-108209976D01*
X163454361Y-108245852D01*
X163535078Y-108288996D01*
X163664659Y-108395341D01*
X163771004Y-108524922D01*
X163771005Y-108524924D01*
X163850024Y-108672758D01*
X163898687Y-108833177D01*
X163915117Y-109000000D01*
X163898687Y-109166823D01*
X163850024Y-109327242D01*
X163809477Y-109403100D01*
X163771004Y-109475078D01*
X163664659Y-109604659D01*
X163535078Y-109711004D01*
X163535076Y-109711005D01*
X163387242Y-109790024D01*
X163226823Y-109838687D01*
X163101804Y-109851000D01*
X163018196Y-109851000D01*
X162893177Y-109838687D01*
X162732758Y-109790024D01*
X162584924Y-109711005D01*
X162584922Y-109711004D01*
X162455341Y-109604659D01*
X162348996Y-109475078D01*
X162310523Y-109403100D01*
X162269976Y-109327242D01*
X162221313Y-109166823D01*
X162204883Y-109000000D01*
X162221313Y-108833177D01*
X162269976Y-108672758D01*
X162348995Y-108524924D01*
X162348996Y-108524922D01*
X162455341Y-108395341D01*
X162584922Y-108288996D01*
X162665639Y-108245852D01*
X162732758Y-108209976D01*
X162893177Y-108161313D01*
X163018196Y-108149000D01*
X163101804Y-108149000D01*
X163226823Y-108161313D01*
X163226823Y-108161313D01*
G37*
G36*
X153148228Y-108181703D02*
G01*
X153303100Y-108245853D01*
X153442481Y-108338985D01*
X153561015Y-108457519D01*
X153654147Y-108596900D01*
X153718297Y-108751772D01*
X153751000Y-108916184D01*
X153751000Y-109083816D01*
X153718297Y-109248228D01*
X153654147Y-109403100D01*
X153561015Y-109542481D01*
X153442481Y-109661015D01*
X153303100Y-109754147D01*
X153148228Y-109818297D01*
X152983816Y-109851000D01*
X152816184Y-109851000D01*
X152651772Y-109818297D01*
X152496900Y-109754147D01*
X152357519Y-109661015D01*
X152238985Y-109542481D01*
X152145853Y-109403100D01*
X152081703Y-109248228D01*
X152049000Y-109083816D01*
X152049000Y-108916184D01*
X152081703Y-108751772D01*
X152145853Y-108596900D01*
X152238985Y-108457519D01*
X152357519Y-108338985D01*
X152496900Y-108245853D01*
X152651772Y-108181703D01*
X152816184Y-108149000D01*
X152983816Y-108149000D01*
X153148228Y-108181703D01*
X153148228Y-108181703D01*
G37*
G36*
X153006823Y-104661313D02*
G01*
X153167242Y-104709976D01*
X153199544Y-104727242D01*
X153315078Y-104788996D01*
X153444659Y-104895341D01*
X153551004Y-105024922D01*
X153551005Y-105024924D01*
X153630024Y-105172758D01*
X153678687Y-105333177D01*
X153695117Y-105500000D01*
X153678687Y-105666823D01*
X153630024Y-105827242D01*
X153589477Y-105903100D01*
X153551004Y-105975078D01*
X153444659Y-106104659D01*
X153315078Y-106211004D01*
X153315076Y-106211005D01*
X153167242Y-106290024D01*
X153006823Y-106338687D01*
X152881804Y-106351000D01*
X152798196Y-106351000D01*
X152673177Y-106338687D01*
X152512758Y-106290024D01*
X152364924Y-106211005D01*
X152364922Y-106211004D01*
X152235341Y-106104659D01*
X152128996Y-105975078D01*
X152090523Y-105903100D01*
X152049976Y-105827242D01*
X152001313Y-105666823D01*
X151984883Y-105500000D01*
X152001313Y-105333177D01*
X152049976Y-105172758D01*
X152128995Y-105024924D01*
X152128996Y-105024922D01*
X152235341Y-104895341D01*
X152364922Y-104788996D01*
X152480456Y-104727242D01*
X152512758Y-104709976D01*
X152673177Y-104661313D01*
X152798196Y-104649000D01*
X152881804Y-104649000D01*
X153006823Y-104661313D01*
X153006823Y-104661313D01*
G37*
G36*
X163248228Y-104681703D02*
G01*
X163403100Y-104745853D01*
X163542481Y-104838985D01*
X163661015Y-104957519D01*
X163754147Y-105096900D01*
X163818297Y-105251772D01*
X163851000Y-105416184D01*
X163851000Y-105583816D01*
X163818297Y-105748228D01*
X163754147Y-105903100D01*
X163661015Y-106042481D01*
X163542481Y-106161015D01*
X163403100Y-106254147D01*
X163248228Y-106318297D01*
X163083816Y-106351000D01*
X162916184Y-106351000D01*
X162751772Y-106318297D01*
X162596900Y-106254147D01*
X162457519Y-106161015D01*
X162338985Y-106042481D01*
X162245853Y-105903100D01*
X162181703Y-105748228D01*
X162149000Y-105583816D01*
X162149000Y-105416184D01*
X162181703Y-105251772D01*
X162245853Y-105096900D01*
X162338985Y-104957519D01*
X162457519Y-104838985D01*
X162596900Y-104745853D01*
X162751772Y-104681703D01*
X162916184Y-104649000D01*
X163083816Y-104649000D01*
X163248228Y-104681703D01*
X163248228Y-104681703D01*
G37*
G36*
X144706822Y-102761313D02*
G01*
X144867241Y-102809976D01*
X145015077Y-102888995D01*
X145144659Y-102995341D01*
X145251004Y-103124922D01*
X145251005Y-103124924D01*
X145330024Y-103272758D01*
X145378687Y-103433177D01*
X145391000Y-103558196D01*
X145391000Y-104441803D01*
X145378687Y-104566822D01*
X145330024Y-104727242D01*
X145270296Y-104838985D01*
X145251004Y-104875078D01*
X145144659Y-105004659D01*
X145015078Y-105111004D01*
X145015076Y-105111005D01*
X144867242Y-105190024D01*
X144706823Y-105238687D01*
X144540000Y-105255117D01*
X144373178Y-105238687D01*
X144212759Y-105190024D01*
X144064925Y-105111005D01*
X144064923Y-105111004D01*
X143935342Y-105004659D01*
X143828997Y-104875078D01*
X143809705Y-104838985D01*
X143749977Y-104727242D01*
X143701314Y-104566823D01*
X143689000Y-104441803D01*
X143689000Y-103558197D01*
X143701313Y-103433178D01*
X143749976Y-103272759D01*
X143828995Y-103124923D01*
X143935341Y-102995341D01*
X144064922Y-102888996D01*
X144159044Y-102838687D01*
X144212758Y-102809976D01*
X144373177Y-102761313D01*
X144540000Y-102744883D01*
X144706822Y-102761313D01*
X144706822Y-102761313D01*
G37*
G36*
X123706822Y-102761313D02*
G01*
X123867241Y-102809976D01*
X124015077Y-102888995D01*
X124144659Y-102995341D01*
X124251004Y-103124922D01*
X124251005Y-103124924D01*
X124330024Y-103272758D01*
X124378687Y-103433177D01*
X124391000Y-103558196D01*
X124391000Y-104441803D01*
X124378687Y-104566822D01*
X124330024Y-104727242D01*
X124270296Y-104838985D01*
X124251004Y-104875078D01*
X124144659Y-105004659D01*
X124015078Y-105111004D01*
X124015076Y-105111005D01*
X123867242Y-105190024D01*
X123706823Y-105238687D01*
X123540000Y-105255117D01*
X123373178Y-105238687D01*
X123212759Y-105190024D01*
X123064925Y-105111005D01*
X123064923Y-105111004D01*
X122935342Y-105004659D01*
X122828997Y-104875078D01*
X122809705Y-104838985D01*
X122749977Y-104727242D01*
X122701314Y-104566823D01*
X122689000Y-104441803D01*
X122689000Y-103558197D01*
X122701313Y-103433178D01*
X122749976Y-103272759D01*
X122828995Y-103124923D01*
X122935341Y-102995341D01*
X123064922Y-102888996D01*
X123159044Y-102838687D01*
X123212758Y-102809976D01*
X123373177Y-102761313D01*
X123540000Y-102744883D01*
X123706822Y-102761313D01*
X123706822Y-102761313D01*
G37*
G36*
X130706822Y-102761313D02*
G01*
X130867241Y-102809976D01*
X131015077Y-102888995D01*
X131144659Y-102995341D01*
X131251004Y-103124922D01*
X131251005Y-103124924D01*
X131330024Y-103272758D01*
X131378687Y-103433177D01*
X131391000Y-103558196D01*
X131391000Y-104441803D01*
X131378687Y-104566822D01*
X131330024Y-104727242D01*
X131270296Y-104838985D01*
X131251004Y-104875078D01*
X131144659Y-105004659D01*
X131015078Y-105111004D01*
X131015076Y-105111005D01*
X130867242Y-105190024D01*
X130706823Y-105238687D01*
X130540000Y-105255117D01*
X130373178Y-105238687D01*
X130212759Y-105190024D01*
X130064925Y-105111005D01*
X130064923Y-105111004D01*
X129935342Y-105004659D01*
X129828997Y-104875078D01*
X129809705Y-104838985D01*
X129749977Y-104727242D01*
X129701314Y-104566823D01*
X129689000Y-104441803D01*
X129689000Y-103558197D01*
X129701313Y-103433178D01*
X129749976Y-103272759D01*
X129828995Y-103124923D01*
X129935341Y-102995341D01*
X130064922Y-102888996D01*
X130159044Y-102838687D01*
X130212758Y-102809976D01*
X130373177Y-102761313D01*
X130540000Y-102744883D01*
X130706822Y-102761313D01*
X130706822Y-102761313D01*
G37*
G36*
X137706822Y-102761313D02*
G01*
X137867241Y-102809976D01*
X138015077Y-102888995D01*
X138144659Y-102995341D01*
X138251004Y-103124922D01*
X138251005Y-103124924D01*
X138330024Y-103272758D01*
X138378687Y-103433177D01*
X138391000Y-103558196D01*
X138391000Y-104441803D01*
X138378687Y-104566822D01*
X138330024Y-104727242D01*
X138270296Y-104838985D01*
X138251004Y-104875078D01*
X138144659Y-105004659D01*
X138015078Y-105111004D01*
X138015076Y-105111005D01*
X137867242Y-105190024D01*
X137706823Y-105238687D01*
X137540000Y-105255117D01*
X137373178Y-105238687D01*
X137212759Y-105190024D01*
X137064925Y-105111005D01*
X137064923Y-105111004D01*
X136935342Y-105004659D01*
X136828997Y-104875078D01*
X136809705Y-104838985D01*
X136749977Y-104727242D01*
X136701314Y-104566823D01*
X136689000Y-104441803D01*
X136689000Y-103558197D01*
X136701313Y-103433178D01*
X136749976Y-103272759D01*
X136828995Y-103124923D01*
X136935341Y-102995341D01*
X137064922Y-102888996D01*
X137159044Y-102838687D01*
X137212758Y-102809976D01*
X137373177Y-102761313D01*
X137540000Y-102744883D01*
X137706822Y-102761313D01*
X137706822Y-102761313D01*
G37*
G36*
X135851000Y-105251000D02*
G01*
X134149000Y-105251000D01*
X134149000Y-102749000D01*
X135851000Y-102749000D01*
X135851000Y-105251000D01*
X135851000Y-105251000D01*
G37*
G36*
X128851000Y-105251000D02*
G01*
X127149000Y-105251000D01*
X127149000Y-102749000D01*
X128851000Y-102749000D01*
X128851000Y-105251000D01*
X128851000Y-105251000D01*
G37*
G36*
X142851000Y-105251000D02*
G01*
X141149000Y-105251000D01*
X141149000Y-102749000D01*
X142851000Y-102749000D01*
X142851000Y-105251000D01*
X142851000Y-105251000D01*
G37*
G36*
X121851000Y-105251000D02*
G01*
X120149000Y-105251000D01*
X120149000Y-102749000D01*
X121851000Y-102749000D01*
X121851000Y-105251000D01*
X121851000Y-105251000D01*
G37*
G36*
X168706823Y-101161313D02*
G01*
X168867242Y-101209976D01*
X168984699Y-101272758D01*
X169015078Y-101288996D01*
X169144659Y-101395341D01*
X169251004Y-101524922D01*
X169251005Y-101524924D01*
X169330024Y-101672758D01*
X169378687Y-101833177D01*
X169395117Y-102000000D01*
X169378687Y-102166823D01*
X169352197Y-102254147D01*
X169332738Y-102318297D01*
X169330024Y-102327242D01*
X169289477Y-102403100D01*
X169251004Y-102475078D01*
X169144659Y-102604659D01*
X169015078Y-102711004D01*
X169015076Y-102711005D01*
X168867242Y-102790024D01*
X168706823Y-102838687D01*
X168581804Y-102851000D01*
X168498196Y-102851000D01*
X168373177Y-102838687D01*
X168212758Y-102790024D01*
X168064924Y-102711005D01*
X168064922Y-102711004D01*
X167935341Y-102604659D01*
X167828996Y-102475078D01*
X167790523Y-102403100D01*
X167749976Y-102327242D01*
X167747263Y-102318297D01*
X167727803Y-102254147D01*
X167701313Y-102166823D01*
X167684883Y-102000000D01*
X167701313Y-101833177D01*
X167749976Y-101672758D01*
X167828995Y-101524924D01*
X167828996Y-101524922D01*
X167935341Y-101395341D01*
X168064922Y-101288996D01*
X168095301Y-101272758D01*
X168212758Y-101209976D01*
X168373177Y-101161313D01*
X168498196Y-101149000D01*
X168581804Y-101149000D01*
X168706823Y-101161313D01*
X168706823Y-101161313D01*
G37*
G36*
X178948228Y-101181703D02*
G01*
X179103100Y-101245853D01*
X179242481Y-101338985D01*
X179361015Y-101457519D01*
X179454147Y-101596900D01*
X179518297Y-101751772D01*
X179551000Y-101916184D01*
X179551000Y-102083816D01*
X179518297Y-102248228D01*
X179454147Y-102403100D01*
X179361015Y-102542481D01*
X179242481Y-102661015D01*
X179103100Y-102754147D01*
X178948228Y-102818297D01*
X178783816Y-102851000D01*
X178616184Y-102851000D01*
X178451772Y-102818297D01*
X178296900Y-102754147D01*
X178157519Y-102661015D01*
X178038985Y-102542481D01*
X177945853Y-102403100D01*
X177881703Y-102248228D01*
X177849000Y-102083816D01*
X177849000Y-101916184D01*
X177881703Y-101751772D01*
X177945853Y-101596900D01*
X178038985Y-101457519D01*
X178157519Y-101338985D01*
X178296900Y-101245853D01*
X178451772Y-101181703D01*
X178616184Y-101149000D01*
X178783816Y-101149000D01*
X178948228Y-101181703D01*
X178948228Y-101181703D01*
G37*
G36*
X163448228Y-100781703D02*
G01*
X163603100Y-100845853D01*
X163742481Y-100938985D01*
X163861015Y-101057519D01*
X163954147Y-101196900D01*
X164018297Y-101351772D01*
X164051000Y-101516184D01*
X164051000Y-101683816D01*
X164018297Y-101848228D01*
X163954147Y-102003100D01*
X163861015Y-102142481D01*
X163742481Y-102261015D01*
X163603100Y-102354147D01*
X163448228Y-102418297D01*
X163283816Y-102451000D01*
X163116184Y-102451000D01*
X162951772Y-102418297D01*
X162796900Y-102354147D01*
X162657519Y-102261015D01*
X162538985Y-102142481D01*
X162445853Y-102003100D01*
X162381703Y-101848228D01*
X162349000Y-101683816D01*
X162349000Y-101516184D01*
X162381703Y-101351772D01*
X162445853Y-101196900D01*
X162538985Y-101057519D01*
X162657519Y-100938985D01*
X162796900Y-100845853D01*
X162951772Y-100781703D01*
X163116184Y-100749000D01*
X163283816Y-100749000D01*
X163448228Y-100781703D01*
X163448228Y-100781703D01*
G37*
G36*
X153206823Y-100761313D02*
G01*
X153367242Y-100809976D01*
X153434361Y-100845852D01*
X153515078Y-100888996D01*
X153644659Y-100995341D01*
X153751004Y-101124922D01*
X153751005Y-101124924D01*
X153830024Y-101272758D01*
X153830025Y-101272761D01*
X153834950Y-101288996D01*
X153878687Y-101433177D01*
X153895117Y-101600000D01*
X153878687Y-101766823D01*
X153830024Y-101927242D01*
X153789477Y-102003100D01*
X153751004Y-102075078D01*
X153644659Y-102204659D01*
X153515078Y-102311004D01*
X153515076Y-102311005D01*
X153367242Y-102390024D01*
X153206823Y-102438687D01*
X153081804Y-102451000D01*
X152998196Y-102451000D01*
X152873177Y-102438687D01*
X152712758Y-102390024D01*
X152564924Y-102311005D01*
X152564922Y-102311004D01*
X152435341Y-102204659D01*
X152328996Y-102075078D01*
X152290523Y-102003100D01*
X152249976Y-101927242D01*
X152201313Y-101766823D01*
X152184883Y-101600000D01*
X152201313Y-101433177D01*
X152245050Y-101288996D01*
X152249975Y-101272761D01*
X152249976Y-101272758D01*
X152328995Y-101124924D01*
X152328996Y-101124922D01*
X152435341Y-100995341D01*
X152564922Y-100888996D01*
X152645639Y-100845852D01*
X152712758Y-100809976D01*
X152873177Y-100761313D01*
X152998196Y-100749000D01*
X153081804Y-100749000D01*
X153206823Y-100761313D01*
X153206823Y-100761313D01*
G37*
G36*
X111326823Y-100661313D02*
G01*
X111487242Y-100709976D01*
X111619906Y-100780886D01*
X111635078Y-100788996D01*
X111764659Y-100895341D01*
X111871004Y-101024922D01*
X111871005Y-101024924D01*
X111950024Y-101172758D01*
X111950025Y-101172761D01*
X111952738Y-101181705D01*
X111998687Y-101333177D01*
X112015117Y-101500000D01*
X111998687Y-101666823D01*
X111950024Y-101827242D01*
X111909477Y-101903100D01*
X111871004Y-101975078D01*
X111764659Y-102104659D01*
X111635078Y-102211004D01*
X111635076Y-102211005D01*
X111487242Y-102290024D01*
X111326823Y-102338687D01*
X111201804Y-102351000D01*
X111118196Y-102351000D01*
X110993177Y-102338687D01*
X110832758Y-102290024D01*
X110684924Y-102211005D01*
X110684922Y-102211004D01*
X110555341Y-102104659D01*
X110448996Y-101975078D01*
X110410523Y-101903100D01*
X110369976Y-101827242D01*
X110321313Y-101666823D01*
X110304883Y-101500000D01*
X110321313Y-101333177D01*
X110367262Y-101181705D01*
X110369975Y-101172761D01*
X110369976Y-101172758D01*
X110448995Y-101024924D01*
X110448996Y-101024922D01*
X110555341Y-100895341D01*
X110684922Y-100788996D01*
X110700094Y-100780886D01*
X110832758Y-100709976D01*
X110993177Y-100661313D01*
X111118196Y-100649000D01*
X111201804Y-100649000D01*
X111326823Y-100661313D01*
X111326823Y-100661313D01*
G37*
G36*
X101248228Y-100681703D02*
G01*
X101403100Y-100745853D01*
X101542481Y-100838985D01*
X101661015Y-100957519D01*
X101754147Y-101096900D01*
X101818297Y-101251772D01*
X101851000Y-101416184D01*
X101851000Y-101583816D01*
X101818297Y-101748228D01*
X101754147Y-101903100D01*
X101661015Y-102042481D01*
X101542481Y-102161015D01*
X101403100Y-102254147D01*
X101248228Y-102318297D01*
X101083816Y-102351000D01*
X100916184Y-102351000D01*
X100751772Y-102318297D01*
X100596900Y-102254147D01*
X100457519Y-102161015D01*
X100338985Y-102042481D01*
X100245853Y-101903100D01*
X100181703Y-101748228D01*
X100149000Y-101583816D01*
X100149000Y-101416184D01*
X100181703Y-101251772D01*
X100245853Y-101096900D01*
X100338985Y-100957519D01*
X100457519Y-100838985D01*
X100596900Y-100745853D01*
X100751772Y-100681703D01*
X100916184Y-100649000D01*
X101083816Y-100649000D01*
X101248228Y-100681703D01*
X101248228Y-100681703D01*
G37*
G36*
X178826823Y-97661313D02*
G01*
X178987242Y-97709976D01*
X179104699Y-97772758D01*
X179135078Y-97788996D01*
X179264659Y-97895341D01*
X179371004Y-98024922D01*
X179371005Y-98024924D01*
X179450024Y-98172758D01*
X179498687Y-98333177D01*
X179515117Y-98500000D01*
X179498687Y-98666823D01*
X179472197Y-98754147D01*
X179452738Y-98818297D01*
X179450024Y-98827242D01*
X179409477Y-98903100D01*
X179371004Y-98975078D01*
X179264659Y-99104659D01*
X179135078Y-99211004D01*
X179135076Y-99211005D01*
X178987242Y-99290024D01*
X178826823Y-99338687D01*
X178701804Y-99351000D01*
X178618196Y-99351000D01*
X178493177Y-99338687D01*
X178332758Y-99290024D01*
X178184924Y-99211005D01*
X178184922Y-99211004D01*
X178055341Y-99104659D01*
X177948996Y-98975078D01*
X177910523Y-98903100D01*
X177869976Y-98827242D01*
X177867263Y-98818297D01*
X177847803Y-98754147D01*
X177821313Y-98666823D01*
X177804883Y-98500000D01*
X177821313Y-98333177D01*
X177869976Y-98172758D01*
X177948995Y-98024924D01*
X177948996Y-98024922D01*
X178055341Y-97895341D01*
X178184922Y-97788996D01*
X178215301Y-97772758D01*
X178332758Y-97709976D01*
X178493177Y-97661313D01*
X178618196Y-97649000D01*
X178701804Y-97649000D01*
X178826823Y-97661313D01*
X178826823Y-97661313D01*
G37*
G36*
X168748228Y-97681703D02*
G01*
X168903100Y-97745853D01*
X169042481Y-97838985D01*
X169161015Y-97957519D01*
X169254147Y-98096900D01*
X169318297Y-98251772D01*
X169351000Y-98416184D01*
X169351000Y-98583816D01*
X169318297Y-98748228D01*
X169254147Y-98903100D01*
X169161015Y-99042481D01*
X169042481Y-99161015D01*
X168903100Y-99254147D01*
X168748228Y-99318297D01*
X168583816Y-99351000D01*
X168416184Y-99351000D01*
X168251772Y-99318297D01*
X168096900Y-99254147D01*
X167957519Y-99161015D01*
X167838985Y-99042481D01*
X167745853Y-98903100D01*
X167681703Y-98748228D01*
X167649000Y-98583816D01*
X167649000Y-98416184D01*
X167681703Y-98251772D01*
X167745853Y-98096900D01*
X167838985Y-97957519D01*
X167957519Y-97838985D01*
X168096900Y-97745853D01*
X168251772Y-97681703D01*
X168416184Y-97649000D01*
X168583816Y-97649000D01*
X168748228Y-97681703D01*
X168748228Y-97681703D01*
G37*
G36*
X163448228Y-97281703D02*
G01*
X163603100Y-97345853D01*
X163742481Y-97438985D01*
X163861015Y-97557519D01*
X163954147Y-97696900D01*
X164018297Y-97851772D01*
X164051000Y-98016184D01*
X164051000Y-98183816D01*
X164018297Y-98348228D01*
X163954147Y-98503100D01*
X163861015Y-98642481D01*
X163742481Y-98761015D01*
X163603100Y-98854147D01*
X163448228Y-98918297D01*
X163283816Y-98951000D01*
X163116184Y-98951000D01*
X162951772Y-98918297D01*
X162796900Y-98854147D01*
X162657519Y-98761015D01*
X162538985Y-98642481D01*
X162445853Y-98503100D01*
X162381703Y-98348228D01*
X162349000Y-98183816D01*
X162349000Y-98016184D01*
X162381703Y-97851772D01*
X162445853Y-97696900D01*
X162538985Y-97557519D01*
X162657519Y-97438985D01*
X162796900Y-97345853D01*
X162951772Y-97281703D01*
X163116184Y-97249000D01*
X163283816Y-97249000D01*
X163448228Y-97281703D01*
X163448228Y-97281703D01*
G37*
G36*
X153206823Y-97261313D02*
G01*
X153367242Y-97309976D01*
X153434361Y-97345852D01*
X153515078Y-97388996D01*
X153644659Y-97495341D01*
X153751004Y-97624922D01*
X153751005Y-97624924D01*
X153830024Y-97772758D01*
X153830025Y-97772761D01*
X153834950Y-97788996D01*
X153878687Y-97933177D01*
X153895117Y-98100000D01*
X153878687Y-98266823D01*
X153830024Y-98427242D01*
X153789477Y-98503100D01*
X153751004Y-98575078D01*
X153644659Y-98704659D01*
X153515078Y-98811004D01*
X153515076Y-98811005D01*
X153367242Y-98890024D01*
X153206823Y-98938687D01*
X153081804Y-98951000D01*
X152998196Y-98951000D01*
X152873177Y-98938687D01*
X152712758Y-98890024D01*
X152564924Y-98811005D01*
X152564922Y-98811004D01*
X152435341Y-98704659D01*
X152328996Y-98575078D01*
X152290523Y-98503100D01*
X152249976Y-98427242D01*
X152201313Y-98266823D01*
X152184883Y-98100000D01*
X152201313Y-97933177D01*
X152245050Y-97788996D01*
X152249975Y-97772761D01*
X152249976Y-97772758D01*
X152328995Y-97624924D01*
X152328996Y-97624922D01*
X152435341Y-97495341D01*
X152564922Y-97388996D01*
X152645639Y-97345852D01*
X152712758Y-97309976D01*
X152873177Y-97261313D01*
X152998196Y-97249000D01*
X153081804Y-97249000D01*
X153206823Y-97261313D01*
X153206823Y-97261313D01*
G37*
G36*
X101248228Y-97181703D02*
G01*
X101403100Y-97245853D01*
X101542481Y-97338985D01*
X101661015Y-97457519D01*
X101754147Y-97596900D01*
X101818297Y-97751772D01*
X101851000Y-97916184D01*
X101851000Y-98083816D01*
X101818297Y-98248228D01*
X101754147Y-98403100D01*
X101661015Y-98542481D01*
X101542481Y-98661015D01*
X101403100Y-98754147D01*
X101248228Y-98818297D01*
X101083816Y-98851000D01*
X100916184Y-98851000D01*
X100751772Y-98818297D01*
X100596900Y-98754147D01*
X100457519Y-98661015D01*
X100338985Y-98542481D01*
X100245853Y-98403100D01*
X100181703Y-98248228D01*
X100149000Y-98083816D01*
X100149000Y-97916184D01*
X100181703Y-97751772D01*
X100245853Y-97596900D01*
X100338985Y-97457519D01*
X100457519Y-97338985D01*
X100596900Y-97245853D01*
X100751772Y-97181703D01*
X100916184Y-97149000D01*
X101083816Y-97149000D01*
X101248228Y-97181703D01*
X101248228Y-97181703D01*
G37*
G36*
X111326823Y-97161313D02*
G01*
X111487242Y-97209976D01*
X111619906Y-97280886D01*
X111635078Y-97288996D01*
X111764659Y-97395341D01*
X111871004Y-97524922D01*
X111871005Y-97524924D01*
X111950024Y-97672758D01*
X111950025Y-97672761D01*
X111952738Y-97681705D01*
X111998687Y-97833177D01*
X112015117Y-98000000D01*
X111998687Y-98166823D01*
X111950024Y-98327242D01*
X111909477Y-98403100D01*
X111871004Y-98475078D01*
X111764659Y-98604659D01*
X111635078Y-98711004D01*
X111635076Y-98711005D01*
X111487242Y-98790024D01*
X111326823Y-98838687D01*
X111201804Y-98851000D01*
X111118196Y-98851000D01*
X110993177Y-98838687D01*
X110832758Y-98790024D01*
X110684924Y-98711005D01*
X110684922Y-98711004D01*
X110555341Y-98604659D01*
X110448996Y-98475078D01*
X110410523Y-98403100D01*
X110369976Y-98327242D01*
X110321313Y-98166823D01*
X110304883Y-98000000D01*
X110321313Y-97833177D01*
X110367262Y-97681705D01*
X110369975Y-97672761D01*
X110369976Y-97672758D01*
X110448995Y-97524924D01*
X110448996Y-97524922D01*
X110555341Y-97395341D01*
X110684922Y-97288996D01*
X110700094Y-97280886D01*
X110832758Y-97209976D01*
X110993177Y-97161313D01*
X111118196Y-97149000D01*
X111201804Y-97149000D01*
X111326823Y-97161313D01*
X111326823Y-97161313D01*
G37*
G36*
X137706822Y-95141313D02*
G01*
X137867241Y-95189976D01*
X138015077Y-95268995D01*
X138144659Y-95375341D01*
X138251004Y-95504922D01*
X138251005Y-95504924D01*
X138330024Y-95652758D01*
X138378687Y-95813177D01*
X138391000Y-95938196D01*
X138391000Y-96821803D01*
X138378687Y-96946822D01*
X138330024Y-97107242D01*
X138275112Y-97209975D01*
X138251004Y-97255078D01*
X138144659Y-97384659D01*
X138015078Y-97491004D01*
X138015076Y-97491005D01*
X137867242Y-97570024D01*
X137706823Y-97618687D01*
X137540000Y-97635117D01*
X137373178Y-97618687D01*
X137212759Y-97570024D01*
X137064925Y-97491005D01*
X137064923Y-97491004D01*
X136935342Y-97384659D01*
X136828997Y-97255078D01*
X136804889Y-97209975D01*
X136749977Y-97107242D01*
X136701314Y-96946823D01*
X136689000Y-96821803D01*
X136689000Y-95938197D01*
X136701313Y-95813178D01*
X136749976Y-95652759D01*
X136828995Y-95504923D01*
X136935341Y-95375341D01*
X137064922Y-95268996D01*
X137080094Y-95260886D01*
X137212758Y-95189976D01*
X137373177Y-95141313D01*
X137540000Y-95124883D01*
X137706822Y-95141313D01*
X137706822Y-95141313D01*
G37*
G36*
X135166822Y-95141313D02*
G01*
X135327241Y-95189976D01*
X135475077Y-95268995D01*
X135604659Y-95375341D01*
X135711004Y-95504922D01*
X135711005Y-95504924D01*
X135790024Y-95652758D01*
X135838687Y-95813177D01*
X135851000Y-95938196D01*
X135851000Y-96821803D01*
X135838687Y-96946822D01*
X135790024Y-97107242D01*
X135735112Y-97209975D01*
X135711004Y-97255078D01*
X135604659Y-97384659D01*
X135475078Y-97491004D01*
X135475076Y-97491005D01*
X135327242Y-97570024D01*
X135166823Y-97618687D01*
X135000000Y-97635117D01*
X134833178Y-97618687D01*
X134672759Y-97570024D01*
X134524925Y-97491005D01*
X134524923Y-97491004D01*
X134395342Y-97384659D01*
X134288997Y-97255078D01*
X134264889Y-97209975D01*
X134209977Y-97107242D01*
X134161314Y-96946823D01*
X134149000Y-96821803D01*
X134149000Y-95938197D01*
X134161313Y-95813178D01*
X134209976Y-95652759D01*
X134288995Y-95504923D01*
X134395341Y-95375341D01*
X134524922Y-95268996D01*
X134540094Y-95260886D01*
X134672758Y-95189976D01*
X134833177Y-95141313D01*
X135000000Y-95124883D01*
X135166822Y-95141313D01*
X135166822Y-95141313D01*
G37*
G36*
X128166822Y-95141313D02*
G01*
X128327241Y-95189976D01*
X128475077Y-95268995D01*
X128604659Y-95375341D01*
X128711004Y-95504922D01*
X128711005Y-95504924D01*
X128790024Y-95652758D01*
X128838687Y-95813177D01*
X128851000Y-95938196D01*
X128851000Y-96821803D01*
X128838687Y-96946822D01*
X128790024Y-97107242D01*
X128735112Y-97209975D01*
X128711004Y-97255078D01*
X128604659Y-97384659D01*
X128475078Y-97491004D01*
X128475076Y-97491005D01*
X128327242Y-97570024D01*
X128166823Y-97618687D01*
X128000000Y-97635117D01*
X127833178Y-97618687D01*
X127672759Y-97570024D01*
X127524925Y-97491005D01*
X127524923Y-97491004D01*
X127395342Y-97384659D01*
X127288997Y-97255078D01*
X127264889Y-97209975D01*
X127209977Y-97107242D01*
X127161314Y-96946823D01*
X127149000Y-96821803D01*
X127149000Y-95938197D01*
X127161313Y-95813178D01*
X127209976Y-95652759D01*
X127288995Y-95504923D01*
X127395341Y-95375341D01*
X127524922Y-95268996D01*
X127540094Y-95260886D01*
X127672758Y-95189976D01*
X127833177Y-95141313D01*
X128000000Y-95124883D01*
X128166822Y-95141313D01*
X128166822Y-95141313D01*
G37*
G36*
X144706822Y-95141313D02*
G01*
X144867241Y-95189976D01*
X145015077Y-95268995D01*
X145144659Y-95375341D01*
X145251004Y-95504922D01*
X145251005Y-95504924D01*
X145330024Y-95652758D01*
X145378687Y-95813177D01*
X145391000Y-95938196D01*
X145391000Y-96821803D01*
X145378687Y-96946822D01*
X145330024Y-97107242D01*
X145275112Y-97209975D01*
X145251004Y-97255078D01*
X145144659Y-97384659D01*
X145015078Y-97491004D01*
X145015076Y-97491005D01*
X144867242Y-97570024D01*
X144706823Y-97618687D01*
X144540000Y-97635117D01*
X144373178Y-97618687D01*
X144212759Y-97570024D01*
X144064925Y-97491005D01*
X144064923Y-97491004D01*
X143935342Y-97384659D01*
X143828997Y-97255078D01*
X143804889Y-97209975D01*
X143749977Y-97107242D01*
X143701314Y-96946823D01*
X143689000Y-96821803D01*
X143689000Y-95938197D01*
X143701313Y-95813178D01*
X143749976Y-95652759D01*
X143828995Y-95504923D01*
X143935341Y-95375341D01*
X144064922Y-95268996D01*
X144080094Y-95260886D01*
X144212758Y-95189976D01*
X144373177Y-95141313D01*
X144540000Y-95124883D01*
X144706822Y-95141313D01*
X144706822Y-95141313D01*
G37*
G36*
X130706822Y-95141313D02*
G01*
X130867241Y-95189976D01*
X131015077Y-95268995D01*
X131144659Y-95375341D01*
X131251004Y-95504922D01*
X131251005Y-95504924D01*
X131330024Y-95652758D01*
X131378687Y-95813177D01*
X131391000Y-95938196D01*
X131391000Y-96821803D01*
X131378687Y-96946822D01*
X131330024Y-97107242D01*
X131275112Y-97209975D01*
X131251004Y-97255078D01*
X131144659Y-97384659D01*
X131015078Y-97491004D01*
X131015076Y-97491005D01*
X130867242Y-97570024D01*
X130706823Y-97618687D01*
X130540000Y-97635117D01*
X130373178Y-97618687D01*
X130212759Y-97570024D01*
X130064925Y-97491005D01*
X130064923Y-97491004D01*
X129935342Y-97384659D01*
X129828997Y-97255078D01*
X129804889Y-97209975D01*
X129749977Y-97107242D01*
X129701314Y-96946823D01*
X129689000Y-96821803D01*
X129689000Y-95938197D01*
X129701313Y-95813178D01*
X129749976Y-95652759D01*
X129828995Y-95504923D01*
X129935341Y-95375341D01*
X130064922Y-95268996D01*
X130080094Y-95260886D01*
X130212758Y-95189976D01*
X130373177Y-95141313D01*
X130540000Y-95124883D01*
X130706822Y-95141313D01*
X130706822Y-95141313D01*
G37*
G36*
X121166822Y-95141313D02*
G01*
X121327241Y-95189976D01*
X121475077Y-95268995D01*
X121604659Y-95375341D01*
X121711004Y-95504922D01*
X121711005Y-95504924D01*
X121790024Y-95652758D01*
X121838687Y-95813177D01*
X121851000Y-95938196D01*
X121851000Y-96821803D01*
X121838687Y-96946822D01*
X121790024Y-97107242D01*
X121735112Y-97209975D01*
X121711004Y-97255078D01*
X121604659Y-97384659D01*
X121475078Y-97491004D01*
X121475076Y-97491005D01*
X121327242Y-97570024D01*
X121166823Y-97618687D01*
X121000000Y-97635117D01*
X120833178Y-97618687D01*
X120672759Y-97570024D01*
X120524925Y-97491005D01*
X120524923Y-97491004D01*
X120395342Y-97384659D01*
X120288997Y-97255078D01*
X120264889Y-97209975D01*
X120209977Y-97107242D01*
X120161314Y-96946823D01*
X120149000Y-96821803D01*
X120149000Y-95938197D01*
X120161313Y-95813178D01*
X120209976Y-95652759D01*
X120288995Y-95504923D01*
X120395341Y-95375341D01*
X120524922Y-95268996D01*
X120540094Y-95260886D01*
X120672758Y-95189976D01*
X120833177Y-95141313D01*
X121000000Y-95124883D01*
X121166822Y-95141313D01*
X121166822Y-95141313D01*
G37*
G36*
X123706822Y-95141313D02*
G01*
X123867241Y-95189976D01*
X124015077Y-95268995D01*
X124144659Y-95375341D01*
X124251004Y-95504922D01*
X124251005Y-95504924D01*
X124330024Y-95652758D01*
X124378687Y-95813177D01*
X124391000Y-95938196D01*
X124391000Y-96821803D01*
X124378687Y-96946822D01*
X124330024Y-97107242D01*
X124275112Y-97209975D01*
X124251004Y-97255078D01*
X124144659Y-97384659D01*
X124015078Y-97491004D01*
X124015076Y-97491005D01*
X123867242Y-97570024D01*
X123706823Y-97618687D01*
X123540000Y-97635117D01*
X123373178Y-97618687D01*
X123212759Y-97570024D01*
X123064925Y-97491005D01*
X123064923Y-97491004D01*
X122935342Y-97384659D01*
X122828997Y-97255078D01*
X122804889Y-97209975D01*
X122749977Y-97107242D01*
X122701314Y-96946823D01*
X122689000Y-96821803D01*
X122689000Y-95938197D01*
X122701313Y-95813178D01*
X122749976Y-95652759D01*
X122828995Y-95504923D01*
X122935341Y-95375341D01*
X123064922Y-95268996D01*
X123080094Y-95260886D01*
X123212758Y-95189976D01*
X123373177Y-95141313D01*
X123540000Y-95124883D01*
X123706822Y-95141313D01*
X123706822Y-95141313D01*
G37*
G36*
X142166822Y-95141313D02*
G01*
X142327241Y-95189976D01*
X142475077Y-95268995D01*
X142604659Y-95375341D01*
X142711004Y-95504922D01*
X142711005Y-95504924D01*
X142790024Y-95652758D01*
X142838687Y-95813177D01*
X142851000Y-95938196D01*
X142851000Y-96821803D01*
X142838687Y-96946822D01*
X142790024Y-97107242D01*
X142735112Y-97209975D01*
X142711004Y-97255078D01*
X142604659Y-97384659D01*
X142475078Y-97491004D01*
X142475076Y-97491005D01*
X142327242Y-97570024D01*
X142166823Y-97618687D01*
X142000000Y-97635117D01*
X141833178Y-97618687D01*
X141672759Y-97570024D01*
X141524925Y-97491005D01*
X141524923Y-97491004D01*
X141395342Y-97384659D01*
X141288997Y-97255078D01*
X141264889Y-97209975D01*
X141209977Y-97107242D01*
X141161314Y-96946823D01*
X141149000Y-96821803D01*
X141149000Y-95938197D01*
X141161313Y-95813178D01*
X141209976Y-95652759D01*
X141288995Y-95504923D01*
X141395341Y-95375341D01*
X141524922Y-95268996D01*
X141540094Y-95260886D01*
X141672758Y-95189976D01*
X141833177Y-95141313D01*
X142000000Y-95124883D01*
X142166822Y-95141313D01*
X142166822Y-95141313D01*
G37*
G36*
X184746822Y-93761313D02*
G01*
X184907241Y-93809976D01*
X185055077Y-93888995D01*
X185184659Y-93995341D01*
X185291004Y-94124922D01*
X185291005Y-94124924D01*
X185370024Y-94272758D01*
X185418687Y-94433177D01*
X185431000Y-94558196D01*
X185431000Y-95441803D01*
X185418687Y-95566822D01*
X185370024Y-95727242D01*
X185324092Y-95813175D01*
X185291004Y-95875078D01*
X185184659Y-96004659D01*
X185055078Y-96111004D01*
X185055076Y-96111005D01*
X184907242Y-96190024D01*
X184746823Y-96238687D01*
X184580000Y-96255117D01*
X184413178Y-96238687D01*
X184252759Y-96190024D01*
X184104925Y-96111005D01*
X184104923Y-96111004D01*
X183975342Y-96004659D01*
X183868997Y-95875078D01*
X183835909Y-95813175D01*
X183789977Y-95727242D01*
X183741314Y-95566823D01*
X183729000Y-95441803D01*
X183729000Y-94558197D01*
X183741313Y-94433178D01*
X183789976Y-94272759D01*
X183868995Y-94124923D01*
X183975341Y-93995341D01*
X184104922Y-93888996D01*
X184199044Y-93838687D01*
X184252758Y-93809976D01*
X184413177Y-93761313D01*
X184580000Y-93744883D01*
X184746822Y-93761313D01*
X184746822Y-93761313D01*
G37*
G36*
X182206822Y-93761313D02*
G01*
X182367241Y-93809976D01*
X182515077Y-93888995D01*
X182644659Y-93995341D01*
X182751004Y-94124922D01*
X182751005Y-94124924D01*
X182830024Y-94272758D01*
X182878687Y-94433177D01*
X182891000Y-94558196D01*
X182891000Y-95441803D01*
X182878687Y-95566822D01*
X182830024Y-95727242D01*
X182784092Y-95813175D01*
X182751004Y-95875078D01*
X182644659Y-96004659D01*
X182515078Y-96111004D01*
X182515076Y-96111005D01*
X182367242Y-96190024D01*
X182206823Y-96238687D01*
X182040000Y-96255117D01*
X181873178Y-96238687D01*
X181712759Y-96190024D01*
X181564925Y-96111005D01*
X181564923Y-96111004D01*
X181435342Y-96004659D01*
X181328997Y-95875078D01*
X181295909Y-95813175D01*
X181249977Y-95727242D01*
X181201314Y-95566823D01*
X181189000Y-95441803D01*
X181189000Y-94558197D01*
X181201313Y-94433178D01*
X181249976Y-94272759D01*
X181328995Y-94124923D01*
X181435341Y-93995341D01*
X181564922Y-93888996D01*
X181659044Y-93838687D01*
X181712758Y-93809976D01*
X181873177Y-93761313D01*
X182040000Y-93744883D01*
X182206822Y-93761313D01*
X182206822Y-93761313D01*
G37*
G36*
X174246822Y-93761313D02*
G01*
X174407241Y-93809976D01*
X174555077Y-93888995D01*
X174684659Y-93995341D01*
X174791004Y-94124922D01*
X174791005Y-94124924D01*
X174870024Y-94272758D01*
X174918687Y-94433177D01*
X174931000Y-94558196D01*
X174931000Y-95441803D01*
X174918687Y-95566822D01*
X174870024Y-95727242D01*
X174824092Y-95813175D01*
X174791004Y-95875078D01*
X174684659Y-96004659D01*
X174555078Y-96111004D01*
X174555076Y-96111005D01*
X174407242Y-96190024D01*
X174246823Y-96238687D01*
X174080000Y-96255117D01*
X173913178Y-96238687D01*
X173752759Y-96190024D01*
X173604925Y-96111005D01*
X173604923Y-96111004D01*
X173475342Y-96004659D01*
X173368997Y-95875078D01*
X173335909Y-95813175D01*
X173289977Y-95727242D01*
X173241314Y-95566823D01*
X173229000Y-95441803D01*
X173229000Y-94558197D01*
X173241313Y-94433178D01*
X173289976Y-94272759D01*
X173368995Y-94124923D01*
X173475341Y-93995341D01*
X173604922Y-93888996D01*
X173699044Y-93838687D01*
X173752758Y-93809976D01*
X173913177Y-93761313D01*
X174080000Y-93744883D01*
X174246822Y-93761313D01*
X174246822Y-93761313D01*
G37*
G36*
X171706822Y-93761313D02*
G01*
X171867241Y-93809976D01*
X172015077Y-93888995D01*
X172144659Y-93995341D01*
X172251004Y-94124922D01*
X172251005Y-94124924D01*
X172330024Y-94272758D01*
X172378687Y-94433177D01*
X172391000Y-94558196D01*
X172391000Y-95441803D01*
X172378687Y-95566822D01*
X172330024Y-95727242D01*
X172284092Y-95813175D01*
X172251004Y-95875078D01*
X172144659Y-96004659D01*
X172015078Y-96111004D01*
X172015076Y-96111005D01*
X171867242Y-96190024D01*
X171706823Y-96238687D01*
X171540000Y-96255117D01*
X171373178Y-96238687D01*
X171212759Y-96190024D01*
X171064925Y-96111005D01*
X171064923Y-96111004D01*
X170935342Y-96004659D01*
X170828997Y-95875078D01*
X170795909Y-95813175D01*
X170749977Y-95727242D01*
X170701314Y-95566823D01*
X170689000Y-95441803D01*
X170689000Y-94558197D01*
X170701313Y-94433178D01*
X170749976Y-94272759D01*
X170828995Y-94124923D01*
X170935341Y-93995341D01*
X171064922Y-93888996D01*
X171159044Y-93838687D01*
X171212758Y-93809976D01*
X171373177Y-93761313D01*
X171540000Y-93744883D01*
X171706822Y-93761313D01*
X171706822Y-93761313D01*
G37*
G36*
X180351000Y-96251000D02*
G01*
X178649000Y-96251000D01*
X178649000Y-93749000D01*
X180351000Y-93749000D01*
X180351000Y-96251000D01*
X180351000Y-96251000D01*
G37*
G36*
X169851000Y-96251000D02*
G01*
X168149000Y-96251000D01*
X168149000Y-93749000D01*
X169851000Y-93749000D01*
X169851000Y-96251000D01*
X169851000Y-96251000D01*
G37*
G36*
X118006823Y-92161313D02*
G01*
X118167242Y-92209976D01*
X118299906Y-92280886D01*
X118315078Y-92288996D01*
X118444659Y-92395341D01*
X118551004Y-92524922D01*
X118551005Y-92524924D01*
X118630024Y-92672758D01*
X118678687Y-92833177D01*
X118695117Y-93000000D01*
X118678687Y-93166823D01*
X118630024Y-93327242D01*
X118589477Y-93403100D01*
X118551004Y-93475078D01*
X118444659Y-93604659D01*
X118315078Y-93711004D01*
X118315076Y-93711005D01*
X118167242Y-93790024D01*
X118006823Y-93838687D01*
X117881804Y-93851000D01*
X117798196Y-93851000D01*
X117673177Y-93838687D01*
X117512758Y-93790024D01*
X117364924Y-93711005D01*
X117364922Y-93711004D01*
X117235341Y-93604659D01*
X117128996Y-93475078D01*
X117090523Y-93403100D01*
X117049976Y-93327242D01*
X117001313Y-93166823D01*
X116984883Y-93000000D01*
X117001313Y-92833177D01*
X117049976Y-92672758D01*
X117128995Y-92524924D01*
X117128996Y-92524922D01*
X117235341Y-92395341D01*
X117364922Y-92288996D01*
X117380094Y-92280886D01*
X117512758Y-92209976D01*
X117673177Y-92161313D01*
X117798196Y-92149000D01*
X117881804Y-92149000D01*
X118006823Y-92161313D01*
X118006823Y-92161313D01*
G37*
G36*
X128248228Y-92181703D02*
G01*
X128403100Y-92245853D01*
X128542481Y-92338985D01*
X128661015Y-92457519D01*
X128754147Y-92596900D01*
X128818297Y-92751772D01*
X128851000Y-92916184D01*
X128851000Y-93083816D01*
X128818297Y-93248228D01*
X128754147Y-93403100D01*
X128661015Y-93542481D01*
X128542481Y-93661015D01*
X128403100Y-93754147D01*
X128248228Y-93818297D01*
X128083816Y-93851000D01*
X127916184Y-93851000D01*
X127751772Y-93818297D01*
X127596900Y-93754147D01*
X127457519Y-93661015D01*
X127338985Y-93542481D01*
X127245853Y-93403100D01*
X127181703Y-93248228D01*
X127149000Y-93083816D01*
X127149000Y-92916184D01*
X127181703Y-92751772D01*
X127245853Y-92596900D01*
X127338985Y-92457519D01*
X127457519Y-92338985D01*
X127596900Y-92245853D01*
X127751772Y-92181703D01*
X127916184Y-92149000D01*
X128083816Y-92149000D01*
X128248228Y-92181703D01*
X128248228Y-92181703D01*
G37*
G36*
X135248228Y-92181703D02*
G01*
X135403100Y-92245853D01*
X135542481Y-92338985D01*
X135661015Y-92457519D01*
X135754147Y-92596900D01*
X135818297Y-92751772D01*
X135851000Y-92916184D01*
X135851000Y-93083816D01*
X135818297Y-93248228D01*
X135754147Y-93403100D01*
X135661015Y-93542481D01*
X135542481Y-93661015D01*
X135403100Y-93754147D01*
X135248228Y-93818297D01*
X135083816Y-93851000D01*
X134916184Y-93851000D01*
X134751772Y-93818297D01*
X134596900Y-93754147D01*
X134457519Y-93661015D01*
X134338985Y-93542481D01*
X134245853Y-93403100D01*
X134181703Y-93248228D01*
X134149000Y-93083816D01*
X134149000Y-92916184D01*
X134181703Y-92751772D01*
X134245853Y-92596900D01*
X134338985Y-92457519D01*
X134457519Y-92338985D01*
X134596900Y-92245853D01*
X134751772Y-92181703D01*
X134916184Y-92149000D01*
X135083816Y-92149000D01*
X135248228Y-92181703D01*
X135248228Y-92181703D01*
G37*
G36*
X145326823Y-92161313D02*
G01*
X145487242Y-92209976D01*
X145619906Y-92280886D01*
X145635078Y-92288996D01*
X145764659Y-92395341D01*
X145871004Y-92524922D01*
X145871005Y-92524924D01*
X145950024Y-92672758D01*
X145998687Y-92833177D01*
X146015117Y-93000000D01*
X145998687Y-93166823D01*
X145950024Y-93327242D01*
X145909477Y-93403100D01*
X145871004Y-93475078D01*
X145764659Y-93604659D01*
X145635078Y-93711004D01*
X145635076Y-93711005D01*
X145487242Y-93790024D01*
X145326823Y-93838687D01*
X145201804Y-93851000D01*
X145118196Y-93851000D01*
X144993177Y-93838687D01*
X144832758Y-93790024D01*
X144684924Y-93711005D01*
X144684922Y-93711004D01*
X144555341Y-93604659D01*
X144448996Y-93475078D01*
X144410523Y-93403100D01*
X144369976Y-93327242D01*
X144321313Y-93166823D01*
X144304883Y-93000000D01*
X144321313Y-92833177D01*
X144369976Y-92672758D01*
X144448995Y-92524924D01*
X144448996Y-92524922D01*
X144555341Y-92395341D01*
X144684922Y-92288996D01*
X144700094Y-92280886D01*
X144832758Y-92209976D01*
X144993177Y-92161313D01*
X145118196Y-92149000D01*
X145201804Y-92149000D01*
X145326823Y-92161313D01*
X145326823Y-92161313D01*
G37*
G36*
X104152915Y-91207334D02*
G01*
X104261491Y-91240271D01*
X104261494Y-91240272D01*
X104297600Y-91259571D01*
X104361556Y-91293756D01*
X104449264Y-91365736D01*
X104521244Y-91453443D01*
X104555429Y-91517399D01*
X104574728Y-91553505D01*
X104574729Y-91553508D01*
X104607666Y-91662084D01*
X104616000Y-91746702D01*
X104616000Y-92253297D01*
X104607666Y-92337916D01*
X104575252Y-92444767D01*
X104574728Y-92446495D01*
X104568835Y-92457519D01*
X104521244Y-92546557D01*
X104449264Y-92634264D01*
X104361557Y-92706244D01*
X104297601Y-92740429D01*
X104261495Y-92759728D01*
X104261492Y-92759729D01*
X104152916Y-92792666D01*
X104040000Y-92803787D01*
X103927085Y-92792666D01*
X103818509Y-92759729D01*
X103818506Y-92759728D01*
X103782400Y-92740429D01*
X103718444Y-92706244D01*
X103630737Y-92634264D01*
X103558757Y-92546557D01*
X103515239Y-92465141D01*
X103501625Y-92444766D01*
X103484298Y-92427439D01*
X103463924Y-92413826D01*
X103441285Y-92404448D01*
X103417252Y-92399668D01*
X103392748Y-92399668D01*
X103368715Y-92404448D01*
X103346076Y-92413826D01*
X103325701Y-92427440D01*
X103308374Y-92444767D01*
X103294761Y-92465141D01*
X103251244Y-92546557D01*
X103179264Y-92634264D01*
X103091557Y-92706244D01*
X103027601Y-92740429D01*
X102991495Y-92759728D01*
X102991492Y-92759729D01*
X102882916Y-92792666D01*
X102770000Y-92803787D01*
X102657085Y-92792666D01*
X102548509Y-92759729D01*
X102548506Y-92759728D01*
X102512400Y-92740429D01*
X102448444Y-92706244D01*
X102360737Y-92634264D01*
X102297622Y-92557359D01*
X102280297Y-92540034D01*
X102259923Y-92526420D01*
X102237284Y-92517043D01*
X102213250Y-92512263D01*
X102188746Y-92512263D01*
X102164713Y-92517044D01*
X102142074Y-92526421D01*
X102121700Y-92540035D01*
X102104373Y-92557362D01*
X102090759Y-92577736D01*
X102081382Y-92600375D01*
X102076000Y-92636660D01*
X102076000Y-92801000D01*
X100924000Y-92801000D01*
X100924000Y-91199000D01*
X102076000Y-91199000D01*
X102076000Y-91363341D01*
X102078402Y-91387727D01*
X102085515Y-91411176D01*
X102097066Y-91432787D01*
X102112611Y-91451729D01*
X102131553Y-91467274D01*
X102153164Y-91478825D01*
X102176613Y-91485938D01*
X102200999Y-91488340D01*
X102225385Y-91485938D01*
X102248834Y-91478825D01*
X102270445Y-91467274D01*
X102289387Y-91451729D01*
X102297608Y-91442657D01*
X102360736Y-91365736D01*
X102448443Y-91293756D01*
X102512399Y-91259571D01*
X102548505Y-91240272D01*
X102548508Y-91240271D01*
X102657084Y-91207334D01*
X102770000Y-91196213D01*
X102882915Y-91207334D01*
X102991491Y-91240271D01*
X102991494Y-91240272D01*
X103027600Y-91259571D01*
X103091556Y-91293756D01*
X103179264Y-91365736D01*
X103251244Y-91453443D01*
X103294761Y-91534859D01*
X103308375Y-91555234D01*
X103325702Y-91572561D01*
X103346076Y-91586174D01*
X103368715Y-91595552D01*
X103392748Y-91600332D01*
X103417252Y-91600332D01*
X103441285Y-91595552D01*
X103463924Y-91586174D01*
X103484299Y-91572560D01*
X103501626Y-91555233D01*
X103515239Y-91534860D01*
X103558756Y-91453444D01*
X103630736Y-91365736D01*
X103718443Y-91293756D01*
X103782399Y-91259571D01*
X103818505Y-91240272D01*
X103818508Y-91240271D01*
X103927084Y-91207334D01*
X104040000Y-91196213D01*
X104152915Y-91207334D01*
X104152915Y-91207334D01*
G37*
G36*
X155152915Y-91207334D02*
G01*
X155261491Y-91240271D01*
X155261494Y-91240272D01*
X155297600Y-91259571D01*
X155361556Y-91293756D01*
X155449264Y-91365736D01*
X155521244Y-91453443D01*
X155555429Y-91517399D01*
X155574728Y-91553505D01*
X155574729Y-91553508D01*
X155607666Y-91662084D01*
X155616000Y-91746702D01*
X155616000Y-92253297D01*
X155607666Y-92337916D01*
X155575252Y-92444767D01*
X155574728Y-92446495D01*
X155568835Y-92457519D01*
X155521244Y-92546557D01*
X155449264Y-92634264D01*
X155361557Y-92706244D01*
X155297601Y-92740429D01*
X155261495Y-92759728D01*
X155261492Y-92759729D01*
X155152916Y-92792666D01*
X155040000Y-92803787D01*
X154927085Y-92792666D01*
X154818509Y-92759729D01*
X154818506Y-92759728D01*
X154782400Y-92740429D01*
X154718444Y-92706244D01*
X154630737Y-92634264D01*
X154558757Y-92546557D01*
X154515239Y-92465141D01*
X154501625Y-92444766D01*
X154484298Y-92427439D01*
X154463924Y-92413826D01*
X154441285Y-92404448D01*
X154417252Y-92399668D01*
X154392748Y-92399668D01*
X154368715Y-92404448D01*
X154346076Y-92413826D01*
X154325701Y-92427440D01*
X154308374Y-92444767D01*
X154294761Y-92465141D01*
X154251244Y-92546557D01*
X154179264Y-92634264D01*
X154091557Y-92706244D01*
X154027601Y-92740429D01*
X153991495Y-92759728D01*
X153991492Y-92759729D01*
X153882916Y-92792666D01*
X153770000Y-92803787D01*
X153657085Y-92792666D01*
X153548509Y-92759729D01*
X153548506Y-92759728D01*
X153512400Y-92740429D01*
X153448444Y-92706244D01*
X153360737Y-92634264D01*
X153297622Y-92557359D01*
X153280297Y-92540034D01*
X153259923Y-92526420D01*
X153237284Y-92517043D01*
X153213250Y-92512263D01*
X153188746Y-92512263D01*
X153164713Y-92517044D01*
X153142074Y-92526421D01*
X153121700Y-92540035D01*
X153104373Y-92557362D01*
X153090759Y-92577736D01*
X153081382Y-92600375D01*
X153076000Y-92636660D01*
X153076000Y-92801000D01*
X151924000Y-92801000D01*
X151924000Y-91199000D01*
X153076000Y-91199000D01*
X153076000Y-91363341D01*
X153078402Y-91387727D01*
X153085515Y-91411176D01*
X153097066Y-91432787D01*
X153112611Y-91451729D01*
X153131553Y-91467274D01*
X153153164Y-91478825D01*
X153176613Y-91485938D01*
X153200999Y-91488340D01*
X153225385Y-91485938D01*
X153248834Y-91478825D01*
X153270445Y-91467274D01*
X153289387Y-91451729D01*
X153297608Y-91442657D01*
X153360736Y-91365736D01*
X153448443Y-91293756D01*
X153512399Y-91259571D01*
X153548505Y-91240272D01*
X153548508Y-91240271D01*
X153657084Y-91207334D01*
X153770000Y-91196213D01*
X153882915Y-91207334D01*
X153991491Y-91240271D01*
X153991494Y-91240272D01*
X154027600Y-91259571D01*
X154091556Y-91293756D01*
X154179264Y-91365736D01*
X154251244Y-91453443D01*
X154294761Y-91534859D01*
X154308375Y-91555234D01*
X154325702Y-91572561D01*
X154346076Y-91586174D01*
X154368715Y-91595552D01*
X154392748Y-91600332D01*
X154417252Y-91600332D01*
X154441285Y-91595552D01*
X154463924Y-91586174D01*
X154484299Y-91572560D01*
X154501626Y-91555233D01*
X154515239Y-91534860D01*
X154558756Y-91453444D01*
X154630736Y-91365736D01*
X154718443Y-91293756D01*
X154782399Y-91259571D01*
X154818505Y-91240272D01*
X154818508Y-91240271D01*
X154927084Y-91207334D01*
X155040000Y-91196213D01*
X155152915Y-91207334D01*
X155152915Y-91207334D01*
G37*
G36*
X110652915Y-91207334D02*
G01*
X110761491Y-91240271D01*
X110761494Y-91240272D01*
X110797600Y-91259571D01*
X110861556Y-91293756D01*
X110949264Y-91365736D01*
X111021244Y-91453443D01*
X111055429Y-91517399D01*
X111074728Y-91553505D01*
X111074729Y-91553508D01*
X111107666Y-91662084D01*
X111116000Y-91746702D01*
X111116000Y-92253297D01*
X111107666Y-92337916D01*
X111075252Y-92444767D01*
X111074728Y-92446495D01*
X111068835Y-92457519D01*
X111021244Y-92546557D01*
X110949264Y-92634264D01*
X110861557Y-92706244D01*
X110797601Y-92740429D01*
X110761495Y-92759728D01*
X110761492Y-92759729D01*
X110652916Y-92792666D01*
X110540000Y-92803787D01*
X110427085Y-92792666D01*
X110318509Y-92759729D01*
X110318506Y-92759728D01*
X110282400Y-92740429D01*
X110218444Y-92706244D01*
X110130737Y-92634264D01*
X110058757Y-92546557D01*
X110015239Y-92465141D01*
X110001625Y-92444766D01*
X109984298Y-92427439D01*
X109963924Y-92413826D01*
X109941285Y-92404448D01*
X109917252Y-92399668D01*
X109892748Y-92399668D01*
X109868715Y-92404448D01*
X109846076Y-92413826D01*
X109825701Y-92427440D01*
X109808374Y-92444767D01*
X109794761Y-92465141D01*
X109751244Y-92546557D01*
X109679264Y-92634264D01*
X109591557Y-92706244D01*
X109527601Y-92740429D01*
X109491495Y-92759728D01*
X109491492Y-92759729D01*
X109382916Y-92792666D01*
X109270000Y-92803787D01*
X109157085Y-92792666D01*
X109048509Y-92759729D01*
X109048506Y-92759728D01*
X109012400Y-92740429D01*
X108948444Y-92706244D01*
X108860737Y-92634264D01*
X108797622Y-92557359D01*
X108780297Y-92540034D01*
X108759923Y-92526420D01*
X108737284Y-92517043D01*
X108713250Y-92512263D01*
X108688746Y-92512263D01*
X108664713Y-92517044D01*
X108642074Y-92526421D01*
X108621700Y-92540035D01*
X108604373Y-92557362D01*
X108590759Y-92577736D01*
X108581382Y-92600375D01*
X108576000Y-92636660D01*
X108576000Y-92801000D01*
X107424000Y-92801000D01*
X107424000Y-91199000D01*
X108576000Y-91199000D01*
X108576000Y-91363341D01*
X108578402Y-91387727D01*
X108585515Y-91411176D01*
X108597066Y-91432787D01*
X108612611Y-91451729D01*
X108631553Y-91467274D01*
X108653164Y-91478825D01*
X108676613Y-91485938D01*
X108700999Y-91488340D01*
X108725385Y-91485938D01*
X108748834Y-91478825D01*
X108770445Y-91467274D01*
X108789387Y-91451729D01*
X108797608Y-91442657D01*
X108860736Y-91365736D01*
X108948443Y-91293756D01*
X109012399Y-91259571D01*
X109048505Y-91240272D01*
X109048508Y-91240271D01*
X109157084Y-91207334D01*
X109270000Y-91196213D01*
X109382915Y-91207334D01*
X109491491Y-91240271D01*
X109491494Y-91240272D01*
X109527600Y-91259571D01*
X109591556Y-91293756D01*
X109679264Y-91365736D01*
X109751244Y-91453443D01*
X109794761Y-91534859D01*
X109808375Y-91555234D01*
X109825702Y-91572561D01*
X109846076Y-91586174D01*
X109868715Y-91595552D01*
X109892748Y-91600332D01*
X109917252Y-91600332D01*
X109941285Y-91595552D01*
X109963924Y-91586174D01*
X109984299Y-91572560D01*
X110001626Y-91555233D01*
X110015239Y-91534860D01*
X110058756Y-91453444D01*
X110130736Y-91365736D01*
X110218443Y-91293756D01*
X110282399Y-91259571D01*
X110318505Y-91240272D01*
X110318508Y-91240271D01*
X110427084Y-91207334D01*
X110540000Y-91196213D01*
X110652915Y-91207334D01*
X110652915Y-91207334D01*
G37*
G36*
X161652915Y-91207334D02*
G01*
X161761491Y-91240271D01*
X161761494Y-91240272D01*
X161797600Y-91259571D01*
X161861556Y-91293756D01*
X161949264Y-91365736D01*
X162021244Y-91453443D01*
X162055429Y-91517399D01*
X162074728Y-91553505D01*
X162074729Y-91553508D01*
X162107666Y-91662084D01*
X162116000Y-91746702D01*
X162116000Y-92253297D01*
X162107666Y-92337916D01*
X162075252Y-92444767D01*
X162074728Y-92446495D01*
X162068835Y-92457519D01*
X162021244Y-92546557D01*
X161949264Y-92634264D01*
X161861557Y-92706244D01*
X161797601Y-92740429D01*
X161761495Y-92759728D01*
X161761492Y-92759729D01*
X161652916Y-92792666D01*
X161540000Y-92803787D01*
X161427085Y-92792666D01*
X161318509Y-92759729D01*
X161318506Y-92759728D01*
X161282400Y-92740429D01*
X161218444Y-92706244D01*
X161130737Y-92634264D01*
X161058757Y-92546557D01*
X161015239Y-92465141D01*
X161001625Y-92444766D01*
X160984298Y-92427439D01*
X160963924Y-92413826D01*
X160941285Y-92404448D01*
X160917252Y-92399668D01*
X160892748Y-92399668D01*
X160868715Y-92404448D01*
X160846076Y-92413826D01*
X160825701Y-92427440D01*
X160808374Y-92444767D01*
X160794761Y-92465141D01*
X160751244Y-92546557D01*
X160679264Y-92634264D01*
X160591557Y-92706244D01*
X160527601Y-92740429D01*
X160491495Y-92759728D01*
X160491492Y-92759729D01*
X160382916Y-92792666D01*
X160270000Y-92803787D01*
X160157085Y-92792666D01*
X160048509Y-92759729D01*
X160048506Y-92759728D01*
X160012400Y-92740429D01*
X159948444Y-92706244D01*
X159860737Y-92634264D01*
X159797622Y-92557359D01*
X159780297Y-92540034D01*
X159759923Y-92526420D01*
X159737284Y-92517043D01*
X159713250Y-92512263D01*
X159688746Y-92512263D01*
X159664713Y-92517044D01*
X159642074Y-92526421D01*
X159621700Y-92540035D01*
X159604373Y-92557362D01*
X159590759Y-92577736D01*
X159581382Y-92600375D01*
X159576000Y-92636660D01*
X159576000Y-92801000D01*
X158424000Y-92801000D01*
X158424000Y-91199000D01*
X159576000Y-91199000D01*
X159576000Y-91363341D01*
X159578402Y-91387727D01*
X159585515Y-91411176D01*
X159597066Y-91432787D01*
X159612611Y-91451729D01*
X159631553Y-91467274D01*
X159653164Y-91478825D01*
X159676613Y-91485938D01*
X159700999Y-91488340D01*
X159725385Y-91485938D01*
X159748834Y-91478825D01*
X159770445Y-91467274D01*
X159789387Y-91451729D01*
X159797608Y-91442657D01*
X159860736Y-91365736D01*
X159948443Y-91293756D01*
X160012399Y-91259571D01*
X160048505Y-91240272D01*
X160048508Y-91240271D01*
X160157084Y-91207334D01*
X160270000Y-91196213D01*
X160382915Y-91207334D01*
X160491491Y-91240271D01*
X160491494Y-91240272D01*
X160527600Y-91259571D01*
X160591556Y-91293756D01*
X160679264Y-91365736D01*
X160751244Y-91453443D01*
X160794761Y-91534859D01*
X160808375Y-91555234D01*
X160825702Y-91572561D01*
X160846076Y-91586174D01*
X160868715Y-91595552D01*
X160892748Y-91600332D01*
X160917252Y-91600332D01*
X160941285Y-91595552D01*
X160963924Y-91586174D01*
X160984299Y-91572560D01*
X161001626Y-91555233D01*
X161015239Y-91534860D01*
X161058756Y-91453444D01*
X161130736Y-91365736D01*
X161218443Y-91293756D01*
X161282399Y-91259571D01*
X161318505Y-91240272D01*
X161318508Y-91240271D01*
X161427084Y-91207334D01*
X161540000Y-91196213D01*
X161652915Y-91207334D01*
X161652915Y-91207334D01*
G37*
G36*
X118006823Y-88661313D02*
G01*
X118167242Y-88709976D01*
X118234361Y-88745852D01*
X118315078Y-88788996D01*
X118444659Y-88895341D01*
X118551004Y-89024922D01*
X118551005Y-89024924D01*
X118630024Y-89172758D01*
X118678687Y-89333177D01*
X118695117Y-89500000D01*
X118678687Y-89666823D01*
X118630024Y-89827242D01*
X118589477Y-89903100D01*
X118551004Y-89975078D01*
X118444659Y-90104659D01*
X118315078Y-90211004D01*
X118315076Y-90211005D01*
X118167242Y-90290024D01*
X118006823Y-90338687D01*
X117881804Y-90351000D01*
X117798196Y-90351000D01*
X117673177Y-90338687D01*
X117512758Y-90290024D01*
X117364924Y-90211005D01*
X117364922Y-90211004D01*
X117235341Y-90104659D01*
X117128996Y-89975078D01*
X117090523Y-89903100D01*
X117049976Y-89827242D01*
X117001313Y-89666823D01*
X116984883Y-89500000D01*
X117001313Y-89333177D01*
X117049976Y-89172758D01*
X117128995Y-89024924D01*
X117128996Y-89024922D01*
X117235341Y-88895341D01*
X117364922Y-88788996D01*
X117445639Y-88745852D01*
X117512758Y-88709976D01*
X117673177Y-88661313D01*
X117798196Y-88649000D01*
X117881804Y-88649000D01*
X118006823Y-88661313D01*
X118006823Y-88661313D01*
G37*
G36*
X145326823Y-88661313D02*
G01*
X145487242Y-88709976D01*
X145554361Y-88745852D01*
X145635078Y-88788996D01*
X145764659Y-88895341D01*
X145871004Y-89024922D01*
X145871005Y-89024924D01*
X145950024Y-89172758D01*
X145998687Y-89333177D01*
X146015117Y-89500000D01*
X145998687Y-89666823D01*
X145950024Y-89827242D01*
X145909477Y-89903100D01*
X145871004Y-89975078D01*
X145764659Y-90104659D01*
X145635078Y-90211004D01*
X145635076Y-90211005D01*
X145487242Y-90290024D01*
X145326823Y-90338687D01*
X145201804Y-90351000D01*
X145118196Y-90351000D01*
X144993177Y-90338687D01*
X144832758Y-90290024D01*
X144684924Y-90211005D01*
X144684922Y-90211004D01*
X144555341Y-90104659D01*
X144448996Y-89975078D01*
X144410523Y-89903100D01*
X144369976Y-89827242D01*
X144321313Y-89666823D01*
X144304883Y-89500000D01*
X144321313Y-89333177D01*
X144369976Y-89172758D01*
X144448995Y-89024924D01*
X144448996Y-89024922D01*
X144555341Y-88895341D01*
X144684922Y-88788996D01*
X144765639Y-88745852D01*
X144832758Y-88709976D01*
X144993177Y-88661313D01*
X145118196Y-88649000D01*
X145201804Y-88649000D01*
X145326823Y-88661313D01*
X145326823Y-88661313D01*
G37*
G36*
X135248228Y-88681703D02*
G01*
X135403100Y-88745853D01*
X135542481Y-88838985D01*
X135661015Y-88957519D01*
X135754147Y-89096900D01*
X135818297Y-89251772D01*
X135851000Y-89416184D01*
X135851000Y-89583816D01*
X135818297Y-89748228D01*
X135754147Y-89903100D01*
X135661015Y-90042481D01*
X135542481Y-90161015D01*
X135403100Y-90254147D01*
X135248228Y-90318297D01*
X135083816Y-90351000D01*
X134916184Y-90351000D01*
X134751772Y-90318297D01*
X134596900Y-90254147D01*
X134457519Y-90161015D01*
X134338985Y-90042481D01*
X134245853Y-89903100D01*
X134181703Y-89748228D01*
X134149000Y-89583816D01*
X134149000Y-89416184D01*
X134181703Y-89251772D01*
X134245853Y-89096900D01*
X134338985Y-88957519D01*
X134457519Y-88838985D01*
X134596900Y-88745853D01*
X134751772Y-88681703D01*
X134916184Y-88649000D01*
X135083816Y-88649000D01*
X135248228Y-88681703D01*
X135248228Y-88681703D01*
G37*
G36*
X128248228Y-88681703D02*
G01*
X128403100Y-88745853D01*
X128542481Y-88838985D01*
X128661015Y-88957519D01*
X128754147Y-89096900D01*
X128818297Y-89251772D01*
X128851000Y-89416184D01*
X128851000Y-89583816D01*
X128818297Y-89748228D01*
X128754147Y-89903100D01*
X128661015Y-90042481D01*
X128542481Y-90161015D01*
X128403100Y-90254147D01*
X128248228Y-90318297D01*
X128083816Y-90351000D01*
X127916184Y-90351000D01*
X127751772Y-90318297D01*
X127596900Y-90254147D01*
X127457519Y-90161015D01*
X127338985Y-90042481D01*
X127245853Y-89903100D01*
X127181703Y-89748228D01*
X127149000Y-89583816D01*
X127149000Y-89416184D01*
X127181703Y-89251772D01*
X127245853Y-89096900D01*
X127338985Y-88957519D01*
X127457519Y-88838985D01*
X127596900Y-88745853D01*
X127751772Y-88681703D01*
X127916184Y-88649000D01*
X128083816Y-88649000D01*
X128248228Y-88681703D01*
X128248228Y-88681703D01*
G37*
G36*
X174246822Y-86141313D02*
G01*
X174407241Y-86189976D01*
X174555077Y-86268995D01*
X174684659Y-86375341D01*
X174791004Y-86504922D01*
X174791005Y-86504924D01*
X174870024Y-86652758D01*
X174918687Y-86813177D01*
X174931000Y-86938196D01*
X174931000Y-87821803D01*
X174918687Y-87946822D01*
X174870024Y-88107242D01*
X174799114Y-88239906D01*
X174791004Y-88255078D01*
X174684659Y-88384659D01*
X174555078Y-88491004D01*
X174555076Y-88491005D01*
X174407242Y-88570024D01*
X174246823Y-88618687D01*
X174080000Y-88635117D01*
X173913178Y-88618687D01*
X173752759Y-88570024D01*
X173604925Y-88491005D01*
X173604923Y-88491004D01*
X173475342Y-88384659D01*
X173368997Y-88255078D01*
X173360887Y-88239906D01*
X173289977Y-88107242D01*
X173241314Y-87946823D01*
X173229000Y-87821803D01*
X173229000Y-86938197D01*
X173241313Y-86813178D01*
X173289976Y-86652759D01*
X173368995Y-86504923D01*
X173475341Y-86375341D01*
X173604922Y-86268996D01*
X173686047Y-86225634D01*
X173752758Y-86189976D01*
X173913177Y-86141313D01*
X174080000Y-86124883D01*
X174246822Y-86141313D01*
X174246822Y-86141313D01*
G37*
G36*
X182206822Y-86141313D02*
G01*
X182367241Y-86189976D01*
X182515077Y-86268995D01*
X182644659Y-86375341D01*
X182751004Y-86504922D01*
X182751005Y-86504924D01*
X182830024Y-86652758D01*
X182878687Y-86813177D01*
X182891000Y-86938196D01*
X182891000Y-87821803D01*
X182878687Y-87946822D01*
X182830024Y-88107242D01*
X182759114Y-88239906D01*
X182751004Y-88255078D01*
X182644659Y-88384659D01*
X182515078Y-88491004D01*
X182515076Y-88491005D01*
X182367242Y-88570024D01*
X182206823Y-88618687D01*
X182040000Y-88635117D01*
X181873178Y-88618687D01*
X181712759Y-88570024D01*
X181564925Y-88491005D01*
X181564923Y-88491004D01*
X181435342Y-88384659D01*
X181328997Y-88255078D01*
X181320887Y-88239906D01*
X181249977Y-88107242D01*
X181201314Y-87946823D01*
X181189000Y-87821803D01*
X181189000Y-86938197D01*
X181201313Y-86813178D01*
X181249976Y-86652759D01*
X181328995Y-86504923D01*
X181435341Y-86375341D01*
X181564922Y-86268996D01*
X181646047Y-86225634D01*
X181712758Y-86189976D01*
X181873177Y-86141313D01*
X182040000Y-86124883D01*
X182206822Y-86141313D01*
X182206822Y-86141313D01*
G37*
G36*
X184746822Y-86141313D02*
G01*
X184907241Y-86189976D01*
X185055077Y-86268995D01*
X185184659Y-86375341D01*
X185291004Y-86504922D01*
X185291005Y-86504924D01*
X185370024Y-86652758D01*
X185418687Y-86813177D01*
X185431000Y-86938196D01*
X185431000Y-87821803D01*
X185418687Y-87946822D01*
X185370024Y-88107242D01*
X185299114Y-88239906D01*
X185291004Y-88255078D01*
X185184659Y-88384659D01*
X185055078Y-88491004D01*
X185055076Y-88491005D01*
X184907242Y-88570024D01*
X184746823Y-88618687D01*
X184580000Y-88635117D01*
X184413178Y-88618687D01*
X184252759Y-88570024D01*
X184104925Y-88491005D01*
X184104923Y-88491004D01*
X183975342Y-88384659D01*
X183868997Y-88255078D01*
X183860887Y-88239906D01*
X183789977Y-88107242D01*
X183741314Y-87946823D01*
X183729000Y-87821803D01*
X183729000Y-86938197D01*
X183741313Y-86813178D01*
X183789976Y-86652759D01*
X183868995Y-86504923D01*
X183975341Y-86375341D01*
X184104922Y-86268996D01*
X184186047Y-86225634D01*
X184252758Y-86189976D01*
X184413177Y-86141313D01*
X184580000Y-86124883D01*
X184746822Y-86141313D01*
X184746822Y-86141313D01*
G37*
G36*
X171706822Y-86141313D02*
G01*
X171867241Y-86189976D01*
X172015077Y-86268995D01*
X172144659Y-86375341D01*
X172251004Y-86504922D01*
X172251005Y-86504924D01*
X172330024Y-86652758D01*
X172378687Y-86813177D01*
X172391000Y-86938196D01*
X172391000Y-87821803D01*
X172378687Y-87946822D01*
X172330024Y-88107242D01*
X172259114Y-88239906D01*
X172251004Y-88255078D01*
X172144659Y-88384659D01*
X172015078Y-88491004D01*
X172015076Y-88491005D01*
X171867242Y-88570024D01*
X171706823Y-88618687D01*
X171540000Y-88635117D01*
X171373178Y-88618687D01*
X171212759Y-88570024D01*
X171064925Y-88491005D01*
X171064923Y-88491004D01*
X170935342Y-88384659D01*
X170828997Y-88255078D01*
X170820887Y-88239906D01*
X170749977Y-88107242D01*
X170701314Y-87946823D01*
X170689000Y-87821803D01*
X170689000Y-86938197D01*
X170701313Y-86813178D01*
X170749976Y-86652759D01*
X170828995Y-86504923D01*
X170935341Y-86375341D01*
X171064922Y-86268996D01*
X171146047Y-86225634D01*
X171212758Y-86189976D01*
X171373177Y-86141313D01*
X171540000Y-86124883D01*
X171706822Y-86141313D01*
X171706822Y-86141313D01*
G37*
G36*
X169166822Y-86141313D02*
G01*
X169327241Y-86189976D01*
X169475077Y-86268995D01*
X169604659Y-86375341D01*
X169711004Y-86504922D01*
X169711005Y-86504924D01*
X169790024Y-86652758D01*
X169838687Y-86813177D01*
X169851000Y-86938196D01*
X169851000Y-87821803D01*
X169838687Y-87946822D01*
X169790024Y-88107242D01*
X169719114Y-88239906D01*
X169711004Y-88255078D01*
X169604659Y-88384659D01*
X169475078Y-88491004D01*
X169475076Y-88491005D01*
X169327242Y-88570024D01*
X169166823Y-88618687D01*
X169000000Y-88635117D01*
X168833178Y-88618687D01*
X168672759Y-88570024D01*
X168524925Y-88491005D01*
X168524923Y-88491004D01*
X168395342Y-88384659D01*
X168288997Y-88255078D01*
X168280887Y-88239906D01*
X168209977Y-88107242D01*
X168161314Y-87946823D01*
X168149000Y-87821803D01*
X168149000Y-86938197D01*
X168161313Y-86813178D01*
X168209976Y-86652759D01*
X168288995Y-86504923D01*
X168395341Y-86375341D01*
X168524922Y-86268996D01*
X168606047Y-86225634D01*
X168672758Y-86189976D01*
X168833177Y-86141313D01*
X169000000Y-86124883D01*
X169166822Y-86141313D01*
X169166822Y-86141313D01*
G37*
G36*
X179666822Y-86141313D02*
G01*
X179827241Y-86189976D01*
X179975077Y-86268995D01*
X180104659Y-86375341D01*
X180211004Y-86504922D01*
X180211005Y-86504924D01*
X180290024Y-86652758D01*
X180338687Y-86813177D01*
X180351000Y-86938196D01*
X180351000Y-87821803D01*
X180338687Y-87946822D01*
X180290024Y-88107242D01*
X180219114Y-88239906D01*
X180211004Y-88255078D01*
X180104659Y-88384659D01*
X179975078Y-88491004D01*
X179975076Y-88491005D01*
X179827242Y-88570024D01*
X179666823Y-88618687D01*
X179500000Y-88635117D01*
X179333178Y-88618687D01*
X179172759Y-88570024D01*
X179024925Y-88491005D01*
X179024923Y-88491004D01*
X178895342Y-88384659D01*
X178788997Y-88255078D01*
X178780887Y-88239906D01*
X178709977Y-88107242D01*
X178661314Y-87946823D01*
X178649000Y-87821803D01*
X178649000Y-86938197D01*
X178661313Y-86813178D01*
X178709976Y-86652759D01*
X178788995Y-86504923D01*
X178895341Y-86375341D01*
X179024922Y-86268996D01*
X179106047Y-86225634D01*
X179172758Y-86189976D01*
X179333177Y-86141313D01*
X179500000Y-86124883D01*
X179666822Y-86141313D01*
X179666822Y-86141313D01*
G37*
G36*
X153151000Y-87151000D02*
G01*
X150849000Y-87151000D01*
X150849000Y-84849000D01*
X153151000Y-84849000D01*
X153151000Y-87151000D01*
X153151000Y-87151000D01*
G37*
G36*
X145329271Y-84860103D02*
G01*
X145385635Y-84865654D01*
X145602600Y-84931470D01*
X145602602Y-84931471D01*
X145802555Y-85038347D01*
X145977818Y-85182182D01*
X146121653Y-85357445D01*
X146228529Y-85557398D01*
X146228530Y-85557400D01*
X146294346Y-85774365D01*
X146316569Y-86000000D01*
X146294346Y-86225635D01*
X146281193Y-86268996D01*
X146228529Y-86442602D01*
X146121653Y-86642555D01*
X145977818Y-86817818D01*
X145802555Y-86961653D01*
X145602602Y-87068529D01*
X145602600Y-87068530D01*
X145385635Y-87134346D01*
X145329271Y-87139897D01*
X145216545Y-87151000D01*
X145103455Y-87151000D01*
X144990729Y-87139897D01*
X144934365Y-87134346D01*
X144717400Y-87068530D01*
X144717398Y-87068529D01*
X144517445Y-86961653D01*
X144342182Y-86817818D01*
X144198347Y-86642555D01*
X144091471Y-86442602D01*
X144038808Y-86268996D01*
X144025654Y-86225635D01*
X144003431Y-86000000D01*
X144025654Y-85774365D01*
X144091470Y-85557400D01*
X144091471Y-85557398D01*
X144198347Y-85357445D01*
X144342182Y-85182182D01*
X144517445Y-85038347D01*
X144717398Y-84931471D01*
X144717400Y-84931470D01*
X144934365Y-84865654D01*
X144990729Y-84860103D01*
X145103455Y-84849000D01*
X145216545Y-84849000D01*
X145329271Y-84860103D01*
X145329271Y-84860103D01*
G37*
G36*
X136151000Y-87151000D02*
G01*
X133849000Y-87151000D01*
X133849000Y-84849000D01*
X136151000Y-84849000D01*
X136151000Y-87151000D01*
X136151000Y-87151000D01*
G37*
G36*
X128329271Y-84860103D02*
G01*
X128385635Y-84865654D01*
X128602600Y-84931470D01*
X128602602Y-84931471D01*
X128802555Y-85038347D01*
X128977818Y-85182182D01*
X129121653Y-85357445D01*
X129228529Y-85557398D01*
X129228530Y-85557400D01*
X129294346Y-85774365D01*
X129316569Y-86000000D01*
X129294346Y-86225635D01*
X129281193Y-86268996D01*
X129228529Y-86442602D01*
X129121653Y-86642555D01*
X128977818Y-86817818D01*
X128802555Y-86961653D01*
X128602602Y-87068529D01*
X128602600Y-87068530D01*
X128385635Y-87134346D01*
X128329271Y-87139897D01*
X128216545Y-87151000D01*
X128103455Y-87151000D01*
X127990729Y-87139897D01*
X127934365Y-87134346D01*
X127717400Y-87068530D01*
X127717398Y-87068529D01*
X127517445Y-86961653D01*
X127342182Y-86817818D01*
X127198347Y-86642555D01*
X127091471Y-86442602D01*
X127038808Y-86268996D01*
X127025654Y-86225635D01*
X127003431Y-86000000D01*
X127025654Y-85774365D01*
X127091470Y-85557400D01*
X127091471Y-85557398D01*
X127198347Y-85357445D01*
X127342182Y-85182182D01*
X127517445Y-85038347D01*
X127717398Y-84931471D01*
X127717400Y-84931470D01*
X127934365Y-84865654D01*
X127990729Y-84860103D01*
X128103455Y-84849000D01*
X128216545Y-84849000D01*
X128329271Y-84860103D01*
X128329271Y-84860103D01*
G37*
G36*
X119151000Y-87151000D02*
G01*
X116849000Y-87151000D01*
X116849000Y-84849000D01*
X119151000Y-84849000D01*
X119151000Y-87151000D01*
X119151000Y-87151000D01*
G37*
G36*
X111329271Y-84860103D02*
G01*
X111385635Y-84865654D01*
X111602600Y-84931470D01*
X111602602Y-84931471D01*
X111802555Y-85038347D01*
X111977818Y-85182182D01*
X112121653Y-85357445D01*
X112228529Y-85557398D01*
X112228530Y-85557400D01*
X112294346Y-85774365D01*
X112316569Y-86000000D01*
X112294346Y-86225635D01*
X112281193Y-86268996D01*
X112228529Y-86442602D01*
X112121653Y-86642555D01*
X111977818Y-86817818D01*
X111802555Y-86961653D01*
X111602602Y-87068529D01*
X111602600Y-87068530D01*
X111385635Y-87134346D01*
X111329271Y-87139897D01*
X111216545Y-87151000D01*
X111103455Y-87151000D01*
X110990729Y-87139897D01*
X110934365Y-87134346D01*
X110717400Y-87068530D01*
X110717398Y-87068529D01*
X110517445Y-86961653D01*
X110342182Y-86817818D01*
X110198347Y-86642555D01*
X110091471Y-86442602D01*
X110038808Y-86268996D01*
X110025654Y-86225635D01*
X110003431Y-86000000D01*
X110025654Y-85774365D01*
X110091470Y-85557400D01*
X110091471Y-85557398D01*
X110198347Y-85357445D01*
X110342182Y-85182182D01*
X110517445Y-85038347D01*
X110717398Y-84931471D01*
X110717400Y-84931470D01*
X110934365Y-84865654D01*
X110990729Y-84860103D01*
X111103455Y-84849000D01*
X111216545Y-84849000D01*
X111329271Y-84860103D01*
X111329271Y-84860103D01*
G37*
G36*
X102151000Y-87151000D02*
G01*
X99849000Y-87151000D01*
X99849000Y-84849000D01*
X102151000Y-84849000D01*
X102151000Y-87151000D01*
X102151000Y-87151000D01*
G37*
G36*
X162329271Y-84860103D02*
G01*
X162385635Y-84865654D01*
X162602600Y-84931470D01*
X162602602Y-84931471D01*
X162802555Y-85038347D01*
X162977818Y-85182182D01*
X163121653Y-85357445D01*
X163228529Y-85557398D01*
X163228530Y-85557400D01*
X163294346Y-85774365D01*
X163316569Y-86000000D01*
X163294346Y-86225635D01*
X163281193Y-86268996D01*
X163228529Y-86442602D01*
X163121653Y-86642555D01*
X162977818Y-86817818D01*
X162802555Y-86961653D01*
X162602602Y-87068529D01*
X162602600Y-87068530D01*
X162385635Y-87134346D01*
X162329271Y-87139897D01*
X162216545Y-87151000D01*
X162103455Y-87151000D01*
X161990729Y-87139897D01*
X161934365Y-87134346D01*
X161717400Y-87068530D01*
X161717398Y-87068529D01*
X161517445Y-86961653D01*
X161342182Y-86817818D01*
X161198347Y-86642555D01*
X161091471Y-86442602D01*
X161038808Y-86268996D01*
X161025654Y-86225635D01*
X161003431Y-86000000D01*
X161025654Y-85774365D01*
X161091470Y-85557400D01*
X161091471Y-85557398D01*
X161198347Y-85357445D01*
X161342182Y-85182182D01*
X161517445Y-85038347D01*
X161717398Y-84931471D01*
X161717400Y-84931470D01*
X161934365Y-84865654D01*
X161990729Y-84860103D01*
X162103455Y-84849000D01*
X162216545Y-84849000D01*
X162329271Y-84860103D01*
X162329271Y-84860103D01*
G37*
G36*
X157302585Y-80478802D02*
G01*
X157452410Y-80508604D01*
X157734674Y-80625521D01*
X157988705Y-80795259D01*
X158204741Y-81011295D01*
X158374479Y-81265326D01*
X158491396Y-81547590D01*
X158551000Y-81847240D01*
X158551000Y-82152760D01*
X158491396Y-82452410D01*
X158374479Y-82734674D01*
X158204741Y-82988705D01*
X157988705Y-83204741D01*
X157734674Y-83374479D01*
X157452410Y-83491396D01*
X157302585Y-83521198D01*
X157152761Y-83551000D01*
X156847239Y-83551000D01*
X156697415Y-83521198D01*
X156547590Y-83491396D01*
X156265326Y-83374479D01*
X156011295Y-83204741D01*
X155795259Y-82988705D01*
X155625521Y-82734674D01*
X155508604Y-82452410D01*
X155449000Y-82152760D01*
X155449000Y-81847240D01*
X155508604Y-81547590D01*
X155625521Y-81265326D01*
X155795259Y-81011295D01*
X156011295Y-80795259D01*
X156265326Y-80625521D01*
X156547590Y-80508604D01*
X156697415Y-80478802D01*
X156847239Y-80449000D01*
X157152761Y-80449000D01*
X157302585Y-80478802D01*
X157302585Y-80478802D01*
G37*
G36*
X106302585Y-80478802D02*
G01*
X106452410Y-80508604D01*
X106734674Y-80625521D01*
X106988705Y-80795259D01*
X107204741Y-81011295D01*
X107374479Y-81265326D01*
X107491396Y-81547590D01*
X107551000Y-81847240D01*
X107551000Y-82152760D01*
X107491396Y-82452410D01*
X107374479Y-82734674D01*
X107204741Y-82988705D01*
X106988705Y-83204741D01*
X106734674Y-83374479D01*
X106452410Y-83491396D01*
X106302585Y-83521198D01*
X106152761Y-83551000D01*
X105847239Y-83551000D01*
X105697415Y-83521198D01*
X105547590Y-83491396D01*
X105265326Y-83374479D01*
X105011295Y-83204741D01*
X104795259Y-82988705D01*
X104625521Y-82734674D01*
X104508604Y-82452410D01*
X104449000Y-82152760D01*
X104449000Y-81847240D01*
X104508604Y-81547590D01*
X104625521Y-81265326D01*
X104795259Y-81011295D01*
X105011295Y-80795259D01*
X105265326Y-80625521D01*
X105547590Y-80508604D01*
X105697415Y-80478802D01*
X105847239Y-80449000D01*
X106152761Y-80449000D01*
X106302585Y-80478802D01*
X106302585Y-80478802D01*
G37*
G36*
X123302585Y-80478802D02*
G01*
X123452410Y-80508604D01*
X123734674Y-80625521D01*
X123988705Y-80795259D01*
X124204741Y-81011295D01*
X124374479Y-81265326D01*
X124491396Y-81547590D01*
X124551000Y-81847240D01*
X124551000Y-82152760D01*
X124491396Y-82452410D01*
X124374479Y-82734674D01*
X124204741Y-82988705D01*
X123988705Y-83204741D01*
X123734674Y-83374479D01*
X123452410Y-83491396D01*
X123302585Y-83521198D01*
X123152761Y-83551000D01*
X122847239Y-83551000D01*
X122697415Y-83521198D01*
X122547590Y-83491396D01*
X122265326Y-83374479D01*
X122011295Y-83204741D01*
X121795259Y-82988705D01*
X121625521Y-82734674D01*
X121508604Y-82452410D01*
X121449000Y-82152760D01*
X121449000Y-81847240D01*
X121508604Y-81547590D01*
X121625521Y-81265326D01*
X121795259Y-81011295D01*
X122011295Y-80795259D01*
X122265326Y-80625521D01*
X122547590Y-80508604D01*
X122697415Y-80478802D01*
X122847239Y-80449000D01*
X123152761Y-80449000D01*
X123302585Y-80478802D01*
X123302585Y-80478802D01*
G37*
G36*
X140302585Y-80478802D02*
G01*
X140452410Y-80508604D01*
X140734674Y-80625521D01*
X140988705Y-80795259D01*
X141204741Y-81011295D01*
X141374479Y-81265326D01*
X141491396Y-81547590D01*
X141551000Y-81847240D01*
X141551000Y-82152760D01*
X141491396Y-82452410D01*
X141374479Y-82734674D01*
X141204741Y-82988705D01*
X140988705Y-83204741D01*
X140734674Y-83374479D01*
X140452410Y-83491396D01*
X140302585Y-83521198D01*
X140152761Y-83551000D01*
X139847239Y-83551000D01*
X139697415Y-83521198D01*
X139547590Y-83491396D01*
X139265326Y-83374479D01*
X139011295Y-83204741D01*
X138795259Y-82988705D01*
X138625521Y-82734674D01*
X138508604Y-82452410D01*
X138449000Y-82152760D01*
X138449000Y-81847240D01*
X138508604Y-81547590D01*
X138625521Y-81265326D01*
X138795259Y-81011295D01*
X139011295Y-80795259D01*
X139265326Y-80625521D01*
X139547590Y-80508604D01*
X139697415Y-80478802D01*
X139847239Y-80449000D01*
X140152761Y-80449000D01*
X140302585Y-80478802D01*
X140302585Y-80478802D01*
G37*
G36*
X169048228Y-81681703D02*
G01*
X169203100Y-81745853D01*
X169342481Y-81838985D01*
X169461015Y-81957519D01*
X169554147Y-82096900D01*
X169618297Y-82251772D01*
X169651000Y-82416184D01*
X169651000Y-82583816D01*
X169618297Y-82748228D01*
X169554147Y-82903100D01*
X169461015Y-83042481D01*
X169342481Y-83161015D01*
X169203100Y-83254147D01*
X169048228Y-83318297D01*
X168883816Y-83351000D01*
X168716184Y-83351000D01*
X168551772Y-83318297D01*
X168396900Y-83254147D01*
X168257519Y-83161015D01*
X168138985Y-83042481D01*
X168045853Y-82903100D01*
X167981703Y-82748228D01*
X167949000Y-82583816D01*
X167949000Y-82416184D01*
X167981703Y-82251772D01*
X168045853Y-82096900D01*
X168138985Y-81957519D01*
X168257519Y-81838985D01*
X168396900Y-81745853D01*
X168551772Y-81681703D01*
X168716184Y-81649000D01*
X168883816Y-81649000D01*
X169048228Y-81681703D01*
X169048228Y-81681703D01*
G37*
G36*
X179126823Y-81661313D02*
G01*
X179287242Y-81709976D01*
X179354361Y-81745852D01*
X179435078Y-81788996D01*
X179564659Y-81895341D01*
X179671004Y-82024922D01*
X179671005Y-82024924D01*
X179750024Y-82172758D01*
X179798687Y-82333177D01*
X179815117Y-82500000D01*
X179798687Y-82666823D01*
X179750024Y-82827242D01*
X179709477Y-82903100D01*
X179671004Y-82975078D01*
X179564659Y-83104659D01*
X179435078Y-83211004D01*
X179435076Y-83211005D01*
X179287242Y-83290024D01*
X179126823Y-83338687D01*
X179001804Y-83351000D01*
X178918196Y-83351000D01*
X178793177Y-83338687D01*
X178632758Y-83290024D01*
X178484924Y-83211005D01*
X178484922Y-83211004D01*
X178355341Y-83104659D01*
X178248996Y-82975078D01*
X178210523Y-82903100D01*
X178169976Y-82827242D01*
X178121313Y-82666823D01*
X178104883Y-82500000D01*
X178121313Y-82333177D01*
X178169976Y-82172758D01*
X178248995Y-82024924D01*
X178248996Y-82024922D01*
X178355341Y-81895341D01*
X178484922Y-81788996D01*
X178565639Y-81745852D01*
X178632758Y-81709976D01*
X178793177Y-81661313D01*
X178918196Y-81649000D01*
X179001804Y-81649000D01*
X179126823Y-81661313D01*
X179126823Y-81661313D01*
G37*
G36*
X151429487Y-78798996D02*
G01*
X151666253Y-78897068D01*
X151666255Y-78897069D01*
X151879339Y-79039447D01*
X152060553Y-79220661D01*
X152182455Y-79403100D01*
X152202932Y-79433747D01*
X152301004Y-79670513D01*
X152351000Y-79921861D01*
X152351000Y-80178139D01*
X152301004Y-80429487D01*
X152219804Y-80625521D01*
X152202931Y-80666255D01*
X152060553Y-80879339D01*
X151879339Y-81060553D01*
X151666255Y-81202931D01*
X151666254Y-81202932D01*
X151666253Y-81202932D01*
X151429487Y-81301004D01*
X151178139Y-81351000D01*
X150921861Y-81351000D01*
X150670513Y-81301004D01*
X150433747Y-81202932D01*
X150433746Y-81202932D01*
X150433745Y-81202931D01*
X150220661Y-81060553D01*
X150039447Y-80879339D01*
X149897069Y-80666255D01*
X149880196Y-80625521D01*
X149798996Y-80429487D01*
X149749000Y-80178139D01*
X149749000Y-79921861D01*
X149798996Y-79670513D01*
X149897068Y-79433747D01*
X149917546Y-79403100D01*
X150039447Y-79220661D01*
X150220661Y-79039447D01*
X150433745Y-78897069D01*
X150433747Y-78897068D01*
X150670513Y-78798996D01*
X150921861Y-78749000D01*
X151178139Y-78749000D01*
X151429487Y-78798996D01*
X151429487Y-78798996D01*
G37*
G36*
X112429487Y-78798996D02*
G01*
X112666253Y-78897068D01*
X112666255Y-78897069D01*
X112879339Y-79039447D01*
X113060553Y-79220661D01*
X113182455Y-79403100D01*
X113202932Y-79433747D01*
X113301004Y-79670513D01*
X113351000Y-79921861D01*
X113351000Y-80178139D01*
X113301004Y-80429487D01*
X113219804Y-80625521D01*
X113202931Y-80666255D01*
X113060553Y-80879339D01*
X112879339Y-81060553D01*
X112666255Y-81202931D01*
X112666254Y-81202932D01*
X112666253Y-81202932D01*
X112429487Y-81301004D01*
X112178139Y-81351000D01*
X111921861Y-81351000D01*
X111670513Y-81301004D01*
X111433747Y-81202932D01*
X111433746Y-81202932D01*
X111433745Y-81202931D01*
X111220661Y-81060553D01*
X111039447Y-80879339D01*
X110897069Y-80666255D01*
X110880196Y-80625521D01*
X110798996Y-80429487D01*
X110749000Y-80178139D01*
X110749000Y-79921861D01*
X110798996Y-79670513D01*
X110897068Y-79433747D01*
X110917546Y-79403100D01*
X111039447Y-79220661D01*
X111220661Y-79039447D01*
X111433745Y-78897069D01*
X111433747Y-78897068D01*
X111670513Y-78798996D01*
X111921861Y-78749000D01*
X112178139Y-78749000D01*
X112429487Y-78798996D01*
X112429487Y-78798996D01*
G37*
G36*
X100429487Y-78798996D02*
G01*
X100666253Y-78897068D01*
X100666255Y-78897069D01*
X100879339Y-79039447D01*
X101060553Y-79220661D01*
X101182455Y-79403100D01*
X101202932Y-79433747D01*
X101301004Y-79670513D01*
X101351000Y-79921861D01*
X101351000Y-80178139D01*
X101301004Y-80429487D01*
X101219804Y-80625521D01*
X101202931Y-80666255D01*
X101060553Y-80879339D01*
X100879339Y-81060553D01*
X100666255Y-81202931D01*
X100666254Y-81202932D01*
X100666253Y-81202932D01*
X100429487Y-81301004D01*
X100178139Y-81351000D01*
X99921861Y-81351000D01*
X99670513Y-81301004D01*
X99433747Y-81202932D01*
X99433746Y-81202932D01*
X99433745Y-81202931D01*
X99220661Y-81060553D01*
X99039447Y-80879339D01*
X98897069Y-80666255D01*
X98880196Y-80625521D01*
X98798996Y-80429487D01*
X98749000Y-80178139D01*
X98749000Y-79921861D01*
X98798996Y-79670513D01*
X98897068Y-79433747D01*
X98917546Y-79403100D01*
X99039447Y-79220661D01*
X99220661Y-79039447D01*
X99433745Y-78897069D01*
X99433747Y-78897068D01*
X99670513Y-78798996D01*
X99921861Y-78749000D01*
X100178139Y-78749000D01*
X100429487Y-78798996D01*
X100429487Y-78798996D01*
G37*
G36*
X146429487Y-78798996D02*
G01*
X146666253Y-78897068D01*
X146666255Y-78897069D01*
X146879339Y-79039447D01*
X147060553Y-79220661D01*
X147182455Y-79403100D01*
X147202932Y-79433747D01*
X147301004Y-79670513D01*
X147351000Y-79921861D01*
X147351000Y-80178139D01*
X147301004Y-80429487D01*
X147219804Y-80625521D01*
X147202931Y-80666255D01*
X147060553Y-80879339D01*
X146879339Y-81060553D01*
X146666255Y-81202931D01*
X146666254Y-81202932D01*
X146666253Y-81202932D01*
X146429487Y-81301004D01*
X146178139Y-81351000D01*
X145921861Y-81351000D01*
X145670513Y-81301004D01*
X145433747Y-81202932D01*
X145433746Y-81202932D01*
X145433745Y-81202931D01*
X145220661Y-81060553D01*
X145039447Y-80879339D01*
X144897069Y-80666255D01*
X144880196Y-80625521D01*
X144798996Y-80429487D01*
X144749000Y-80178139D01*
X144749000Y-79921861D01*
X144798996Y-79670513D01*
X144897068Y-79433747D01*
X144917546Y-79403100D01*
X145039447Y-79220661D01*
X145220661Y-79039447D01*
X145433745Y-78897069D01*
X145433747Y-78897068D01*
X145670513Y-78798996D01*
X145921861Y-78749000D01*
X146178139Y-78749000D01*
X146429487Y-78798996D01*
X146429487Y-78798996D01*
G37*
G36*
X117429487Y-78798996D02*
G01*
X117666253Y-78897068D01*
X117666255Y-78897069D01*
X117879339Y-79039447D01*
X118060553Y-79220661D01*
X118182455Y-79403100D01*
X118202932Y-79433747D01*
X118301004Y-79670513D01*
X118351000Y-79921861D01*
X118351000Y-80178139D01*
X118301004Y-80429487D01*
X118219804Y-80625521D01*
X118202931Y-80666255D01*
X118060553Y-80879339D01*
X117879339Y-81060553D01*
X117666255Y-81202931D01*
X117666254Y-81202932D01*
X117666253Y-81202932D01*
X117429487Y-81301004D01*
X117178139Y-81351000D01*
X116921861Y-81351000D01*
X116670513Y-81301004D01*
X116433747Y-81202932D01*
X116433746Y-81202932D01*
X116433745Y-81202931D01*
X116220661Y-81060553D01*
X116039447Y-80879339D01*
X115897069Y-80666255D01*
X115880196Y-80625521D01*
X115798996Y-80429487D01*
X115749000Y-80178139D01*
X115749000Y-79921861D01*
X115798996Y-79670513D01*
X115897068Y-79433747D01*
X115917546Y-79403100D01*
X116039447Y-79220661D01*
X116220661Y-79039447D01*
X116433745Y-78897069D01*
X116433747Y-78897068D01*
X116670513Y-78798996D01*
X116921861Y-78749000D01*
X117178139Y-78749000D01*
X117429487Y-78798996D01*
X117429487Y-78798996D01*
G37*
G36*
X129429487Y-78798996D02*
G01*
X129666253Y-78897068D01*
X129666255Y-78897069D01*
X129879339Y-79039447D01*
X130060553Y-79220661D01*
X130182455Y-79403100D01*
X130202932Y-79433747D01*
X130301004Y-79670513D01*
X130351000Y-79921861D01*
X130351000Y-80178139D01*
X130301004Y-80429487D01*
X130219804Y-80625521D01*
X130202931Y-80666255D01*
X130060553Y-80879339D01*
X129879339Y-81060553D01*
X129666255Y-81202931D01*
X129666254Y-81202932D01*
X129666253Y-81202932D01*
X129429487Y-81301004D01*
X129178139Y-81351000D01*
X128921861Y-81351000D01*
X128670513Y-81301004D01*
X128433747Y-81202932D01*
X128433746Y-81202932D01*
X128433745Y-81202931D01*
X128220661Y-81060553D01*
X128039447Y-80879339D01*
X127897069Y-80666255D01*
X127880196Y-80625521D01*
X127798996Y-80429487D01*
X127749000Y-80178139D01*
X127749000Y-79921861D01*
X127798996Y-79670513D01*
X127897068Y-79433747D01*
X127917546Y-79403100D01*
X128039447Y-79220661D01*
X128220661Y-79039447D01*
X128433745Y-78897069D01*
X128433747Y-78897068D01*
X128670513Y-78798996D01*
X128921861Y-78749000D01*
X129178139Y-78749000D01*
X129429487Y-78798996D01*
X129429487Y-78798996D01*
G37*
G36*
X134429487Y-78798996D02*
G01*
X134666253Y-78897068D01*
X134666255Y-78897069D01*
X134879339Y-79039447D01*
X135060553Y-79220661D01*
X135182455Y-79403100D01*
X135202932Y-79433747D01*
X135301004Y-79670513D01*
X135351000Y-79921861D01*
X135351000Y-80178139D01*
X135301004Y-80429487D01*
X135219804Y-80625521D01*
X135202931Y-80666255D01*
X135060553Y-80879339D01*
X134879339Y-81060553D01*
X134666255Y-81202931D01*
X134666254Y-81202932D01*
X134666253Y-81202932D01*
X134429487Y-81301004D01*
X134178139Y-81351000D01*
X133921861Y-81351000D01*
X133670513Y-81301004D01*
X133433747Y-81202932D01*
X133433746Y-81202932D01*
X133433745Y-81202931D01*
X133220661Y-81060553D01*
X133039447Y-80879339D01*
X132897069Y-80666255D01*
X132880196Y-80625521D01*
X132798996Y-80429487D01*
X132749000Y-80178139D01*
X132749000Y-79921861D01*
X132798996Y-79670513D01*
X132897068Y-79433747D01*
X132917546Y-79403100D01*
X133039447Y-79220661D01*
X133220661Y-79039447D01*
X133433745Y-78897069D01*
X133433747Y-78897068D01*
X133670513Y-78798996D01*
X133921861Y-78749000D01*
X134178139Y-78749000D01*
X134429487Y-78798996D01*
X134429487Y-78798996D01*
G37*
G36*
X163429487Y-78798996D02*
G01*
X163666253Y-78897068D01*
X163666255Y-78897069D01*
X163879339Y-79039447D01*
X164060553Y-79220661D01*
X164182455Y-79403100D01*
X164202932Y-79433747D01*
X164301004Y-79670513D01*
X164351000Y-79921861D01*
X164351000Y-80178139D01*
X164301004Y-80429487D01*
X164219804Y-80625521D01*
X164202931Y-80666255D01*
X164060553Y-80879339D01*
X163879339Y-81060553D01*
X163666255Y-81202931D01*
X163666254Y-81202932D01*
X163666253Y-81202932D01*
X163429487Y-81301004D01*
X163178139Y-81351000D01*
X162921861Y-81351000D01*
X162670513Y-81301004D01*
X162433747Y-81202932D01*
X162433746Y-81202932D01*
X162433745Y-81202931D01*
X162220661Y-81060553D01*
X162039447Y-80879339D01*
X161897069Y-80666255D01*
X161880196Y-80625521D01*
X161798996Y-80429487D01*
X161749000Y-80178139D01*
X161749000Y-79921861D01*
X161798996Y-79670513D01*
X161897068Y-79433747D01*
X161917546Y-79403100D01*
X162039447Y-79220661D01*
X162220661Y-79039447D01*
X162433745Y-78897069D01*
X162433747Y-78897068D01*
X162670513Y-78798996D01*
X162921861Y-78749000D01*
X163178139Y-78749000D01*
X163429487Y-78798996D01*
X163429487Y-78798996D01*
G37*
G36*
X169006823Y-78161313D02*
G01*
X169167242Y-78209976D01*
X169234361Y-78245852D01*
X169315078Y-78288996D01*
X169444659Y-78395341D01*
X169551004Y-78524922D01*
X169551005Y-78524924D01*
X169630024Y-78672758D01*
X169678687Y-78833177D01*
X169695117Y-79000000D01*
X169678687Y-79166823D01*
X169630024Y-79327242D01*
X169589477Y-79403100D01*
X169551004Y-79475078D01*
X169444659Y-79604659D01*
X169315078Y-79711004D01*
X169315076Y-79711005D01*
X169167242Y-79790024D01*
X169006823Y-79838687D01*
X168881804Y-79851000D01*
X168798196Y-79851000D01*
X168673177Y-79838687D01*
X168512758Y-79790024D01*
X168364924Y-79711005D01*
X168364922Y-79711004D01*
X168235341Y-79604659D01*
X168128996Y-79475078D01*
X168090523Y-79403100D01*
X168049976Y-79327242D01*
X168001313Y-79166823D01*
X167984883Y-79000000D01*
X168001313Y-78833177D01*
X168049976Y-78672758D01*
X168128995Y-78524924D01*
X168128996Y-78524922D01*
X168235341Y-78395341D01*
X168364922Y-78288996D01*
X168445639Y-78245852D01*
X168512758Y-78209976D01*
X168673177Y-78161313D01*
X168798196Y-78149000D01*
X168881804Y-78149000D01*
X169006823Y-78161313D01*
X169006823Y-78161313D01*
G37*
G36*
X179248228Y-78181703D02*
G01*
X179403100Y-78245853D01*
X179542481Y-78338985D01*
X179661015Y-78457519D01*
X179754147Y-78596900D01*
X179818297Y-78751772D01*
X179851000Y-78916184D01*
X179851000Y-79083816D01*
X179818297Y-79248228D01*
X179754147Y-79403100D01*
X179661015Y-79542481D01*
X179542481Y-79661015D01*
X179403100Y-79754147D01*
X179248228Y-79818297D01*
X179083816Y-79851000D01*
X178916184Y-79851000D01*
X178751772Y-79818297D01*
X178596900Y-79754147D01*
X178457519Y-79661015D01*
X178338985Y-79542481D01*
X178245853Y-79403100D01*
X178181703Y-79248228D01*
X178149000Y-79083816D01*
X178149000Y-78916184D01*
X178181703Y-78751772D01*
X178245853Y-78596900D01*
X178338985Y-78457519D01*
X178457519Y-78338985D01*
X178596900Y-78245853D01*
X178751772Y-78181703D01*
X178916184Y-78149000D01*
X179083816Y-78149000D01*
X179248228Y-78181703D01*
X179248228Y-78181703D01*
G37*
G36*
X172451000Y-74003500D02*
G01*
X170349000Y-74003500D01*
X170349000Y-71996500D01*
X172451000Y-71996500D01*
X172451000Y-74003500D01*
X172451000Y-74003500D01*
G37*
G36*
X182651000Y-74003500D02*
G01*
X180549000Y-74003500D01*
X180549000Y-71996500D01*
X182651000Y-71996500D01*
X182651000Y-74003500D01*
X182651000Y-74003500D01*
G37*
G36*
X181745936Y-69461340D02*
G01*
X181844220Y-69471020D01*
X182033381Y-69528401D01*
X182207712Y-69621583D01*
X182360515Y-69746985D01*
X182485917Y-69899788D01*
X182579099Y-70074119D01*
X182636480Y-70263280D01*
X182655855Y-70460000D01*
X182636480Y-70656720D01*
X182579099Y-70845881D01*
X182485917Y-71020212D01*
X182360515Y-71173015D01*
X182207712Y-71298417D01*
X182033381Y-71391599D01*
X181844220Y-71448980D01*
X181745936Y-71458660D01*
X181696795Y-71463500D01*
X181503205Y-71463500D01*
X181454064Y-71458660D01*
X181355780Y-71448980D01*
X181166619Y-71391599D01*
X180992288Y-71298417D01*
X180839485Y-71173015D01*
X180714083Y-71020212D01*
X180620901Y-70845881D01*
X180563520Y-70656720D01*
X180544145Y-70460000D01*
X180563520Y-70263280D01*
X180620901Y-70074119D01*
X180714083Y-69899788D01*
X180839485Y-69746985D01*
X180992288Y-69621583D01*
X181166619Y-69528401D01*
X181355780Y-69471020D01*
X181454064Y-69461340D01*
X181503205Y-69456500D01*
X181696795Y-69456500D01*
X181745936Y-69461340D01*
X181745936Y-69461340D01*
G37*
G36*
X171545936Y-69461340D02*
G01*
X171644220Y-69471020D01*
X171833381Y-69528401D01*
X172007712Y-69621583D01*
X172160515Y-69746985D01*
X172285917Y-69899788D01*
X172379099Y-70074119D01*
X172436480Y-70263280D01*
X172455855Y-70460000D01*
X172436480Y-70656720D01*
X172379099Y-70845881D01*
X172285917Y-71020212D01*
X172160515Y-71173015D01*
X172007712Y-71298417D01*
X171833381Y-71391599D01*
X171644220Y-71448980D01*
X171545936Y-71458660D01*
X171496795Y-71463500D01*
X171303205Y-71463500D01*
X171254064Y-71458660D01*
X171155780Y-71448980D01*
X170966619Y-71391599D01*
X170792288Y-71298417D01*
X170639485Y-71173015D01*
X170514083Y-71020212D01*
X170420901Y-70845881D01*
X170363520Y-70656720D01*
X170344145Y-70460000D01*
X170363520Y-70263280D01*
X170420901Y-70074119D01*
X170514083Y-69899788D01*
X170639485Y-69746985D01*
X170792288Y-69621583D01*
X170966619Y-69528401D01*
X171155780Y-69471020D01*
X171254064Y-69461340D01*
X171303205Y-69456500D01*
X171496795Y-69456500D01*
X171545936Y-69461340D01*
X171545936Y-69461340D01*
G37*
G36*
X146251043Y-66308604D02*
G01*
X146502410Y-66358604D01*
X146784674Y-66475521D01*
X147038705Y-66645259D01*
X147254741Y-66861295D01*
X147424479Y-67115326D01*
X147525738Y-67359788D01*
X147541396Y-67397591D01*
X147591055Y-67647240D01*
X147601000Y-67697240D01*
X147601000Y-68002760D01*
X147541396Y-68302410D01*
X147424479Y-68584674D01*
X147254741Y-68838705D01*
X147038705Y-69054741D01*
X146784674Y-69224479D01*
X146502410Y-69341396D01*
X146454127Y-69351000D01*
X146202761Y-69401000D01*
X145897239Y-69401000D01*
X145645873Y-69351000D01*
X145597590Y-69341396D01*
X145315326Y-69224479D01*
X145061295Y-69054741D01*
X144845259Y-68838705D01*
X144675521Y-68584674D01*
X144558604Y-68302410D01*
X144499000Y-68002760D01*
X144499000Y-67697240D01*
X144508946Y-67647240D01*
X144558604Y-67397591D01*
X144574262Y-67359788D01*
X144675521Y-67115326D01*
X144845259Y-66861295D01*
X145061295Y-66645259D01*
X145315326Y-66475521D01*
X145597590Y-66358604D01*
X145848957Y-66308604D01*
X145897239Y-66299000D01*
X146202761Y-66299000D01*
X146251043Y-66308604D01*
X146251043Y-66308604D01*
G37*
G36*
X163251043Y-66308604D02*
G01*
X163502410Y-66358604D01*
X163784674Y-66475521D01*
X164038705Y-66645259D01*
X164254741Y-66861295D01*
X164424479Y-67115326D01*
X164525738Y-67359788D01*
X164541396Y-67397591D01*
X164591055Y-67647240D01*
X164601000Y-67697240D01*
X164601000Y-68002760D01*
X164541396Y-68302410D01*
X164424479Y-68584674D01*
X164254741Y-68838705D01*
X164038705Y-69054741D01*
X163784674Y-69224479D01*
X163502410Y-69341396D01*
X163454127Y-69351000D01*
X163202761Y-69401000D01*
X162897239Y-69401000D01*
X162645873Y-69351000D01*
X162597590Y-69341396D01*
X162315326Y-69224479D01*
X162061295Y-69054741D01*
X161845259Y-68838705D01*
X161675521Y-68584674D01*
X161558604Y-68302410D01*
X161499000Y-68002760D01*
X161499000Y-67697240D01*
X161508946Y-67647240D01*
X161558604Y-67397591D01*
X161574262Y-67359788D01*
X161675521Y-67115326D01*
X161845259Y-66861295D01*
X162061295Y-66645259D01*
X162315326Y-66475521D01*
X162597590Y-66358604D01*
X162848957Y-66308604D01*
X162897239Y-66299000D01*
X163202761Y-66299000D01*
X163251043Y-66308604D01*
X163251043Y-66308604D01*
G37*
G36*
X129251043Y-66308604D02*
G01*
X129502410Y-66358604D01*
X129784674Y-66475521D01*
X130038705Y-66645259D01*
X130254741Y-66861295D01*
X130424479Y-67115326D01*
X130525738Y-67359788D01*
X130541396Y-67397591D01*
X130591055Y-67647240D01*
X130601000Y-67697240D01*
X130601000Y-68002760D01*
X130541396Y-68302410D01*
X130424479Y-68584674D01*
X130254741Y-68838705D01*
X130038705Y-69054741D01*
X129784674Y-69224479D01*
X129502410Y-69341396D01*
X129454127Y-69351000D01*
X129202761Y-69401000D01*
X128897239Y-69401000D01*
X128645873Y-69351000D01*
X128597590Y-69341396D01*
X128315326Y-69224479D01*
X128061295Y-69054741D01*
X127845259Y-68838705D01*
X127675521Y-68584674D01*
X127558604Y-68302410D01*
X127499000Y-68002760D01*
X127499000Y-67697240D01*
X127508946Y-67647240D01*
X127558604Y-67397591D01*
X127574262Y-67359788D01*
X127675521Y-67115326D01*
X127845259Y-66861295D01*
X128061295Y-66645259D01*
X128315326Y-66475521D01*
X128597590Y-66358604D01*
X128848957Y-66308604D01*
X128897239Y-66299000D01*
X129202761Y-66299000D01*
X129251043Y-66308604D01*
X129251043Y-66308604D01*
G37*
G36*
X112251043Y-66308604D02*
G01*
X112502410Y-66358604D01*
X112784674Y-66475521D01*
X113038705Y-66645259D01*
X113254741Y-66861295D01*
X113424479Y-67115326D01*
X113525738Y-67359788D01*
X113541396Y-67397591D01*
X113591055Y-67647240D01*
X113601000Y-67697240D01*
X113601000Y-68002760D01*
X113541396Y-68302410D01*
X113424479Y-68584674D01*
X113254741Y-68838705D01*
X113038705Y-69054741D01*
X112784674Y-69224479D01*
X112502410Y-69341396D01*
X112454127Y-69351000D01*
X112202761Y-69401000D01*
X111897239Y-69401000D01*
X111645873Y-69351000D01*
X111597590Y-69341396D01*
X111315326Y-69224479D01*
X111061295Y-69054741D01*
X110845259Y-68838705D01*
X110675521Y-68584674D01*
X110558604Y-68302410D01*
X110499000Y-68002760D01*
X110499000Y-67697240D01*
X110508946Y-67647240D01*
X110558604Y-67397591D01*
X110574262Y-67359788D01*
X110675521Y-67115326D01*
X110845259Y-66861295D01*
X111061295Y-66645259D01*
X111315326Y-66475521D01*
X111597590Y-66358604D01*
X111848957Y-66308604D01*
X111897239Y-66299000D01*
X112202761Y-66299000D01*
X112251043Y-66308604D01*
X112251043Y-66308604D01*
G37*
G36*
X151302585Y-66278802D02*
G01*
X151452410Y-66308604D01*
X151734674Y-66425521D01*
X151988705Y-66595259D01*
X152204741Y-66811295D01*
X152374479Y-67065326D01*
X152491396Y-67347590D01*
X152501342Y-67397591D01*
X152551000Y-67647239D01*
X152551000Y-67952761D01*
X152541054Y-68002761D01*
X152491396Y-68252410D01*
X152374479Y-68534674D01*
X152204741Y-68788705D01*
X151988705Y-69004741D01*
X151734674Y-69174479D01*
X151452410Y-69291396D01*
X151302585Y-69321198D01*
X151152761Y-69351000D01*
X150847239Y-69351000D01*
X150697415Y-69321198D01*
X150547590Y-69291396D01*
X150265326Y-69174479D01*
X150011295Y-69004741D01*
X149795259Y-68788705D01*
X149625521Y-68534674D01*
X149508604Y-68252410D01*
X149458946Y-68002761D01*
X149449000Y-67952761D01*
X149449000Y-67647239D01*
X149498658Y-67397591D01*
X149508604Y-67347590D01*
X149625521Y-67065326D01*
X149795259Y-66811295D01*
X150011295Y-66595259D01*
X150265326Y-66425521D01*
X150547590Y-66308604D01*
X150697415Y-66278802D01*
X150847239Y-66249000D01*
X151152761Y-66249000D01*
X151302585Y-66278802D01*
X151302585Y-66278802D01*
G37*
G36*
X100302585Y-66278802D02*
G01*
X100452410Y-66308604D01*
X100734674Y-66425521D01*
X100988705Y-66595259D01*
X101204741Y-66811295D01*
X101374479Y-67065326D01*
X101491396Y-67347590D01*
X101501342Y-67397591D01*
X101551000Y-67647239D01*
X101551000Y-67952761D01*
X101541054Y-68002761D01*
X101491396Y-68252410D01*
X101374479Y-68534674D01*
X101204741Y-68788705D01*
X100988705Y-69004741D01*
X100734674Y-69174479D01*
X100452410Y-69291396D01*
X100302585Y-69321198D01*
X100152761Y-69351000D01*
X99847239Y-69351000D01*
X99697415Y-69321198D01*
X99547590Y-69291396D01*
X99265326Y-69174479D01*
X99011295Y-69004741D01*
X98795259Y-68788705D01*
X98625521Y-68534674D01*
X98508604Y-68252410D01*
X98458946Y-68002761D01*
X98449000Y-67952761D01*
X98449000Y-67647239D01*
X98498658Y-67397591D01*
X98508604Y-67347590D01*
X98625521Y-67065326D01*
X98795259Y-66811295D01*
X99011295Y-66595259D01*
X99265326Y-66425521D01*
X99547590Y-66308604D01*
X99697415Y-66278802D01*
X99847239Y-66249000D01*
X100152761Y-66249000D01*
X100302585Y-66278802D01*
X100302585Y-66278802D01*
G37*
G36*
X117302585Y-66278802D02*
G01*
X117452410Y-66308604D01*
X117734674Y-66425521D01*
X117988705Y-66595259D01*
X118204741Y-66811295D01*
X118374479Y-67065326D01*
X118491396Y-67347590D01*
X118501342Y-67397591D01*
X118551000Y-67647239D01*
X118551000Y-67952761D01*
X118541054Y-68002761D01*
X118491396Y-68252410D01*
X118374479Y-68534674D01*
X118204741Y-68788705D01*
X117988705Y-69004741D01*
X117734674Y-69174479D01*
X117452410Y-69291396D01*
X117302585Y-69321198D01*
X117152761Y-69351000D01*
X116847239Y-69351000D01*
X116697415Y-69321198D01*
X116547590Y-69291396D01*
X116265326Y-69174479D01*
X116011295Y-69004741D01*
X115795259Y-68788705D01*
X115625521Y-68534674D01*
X115508604Y-68252410D01*
X115458946Y-68002761D01*
X115449000Y-67952761D01*
X115449000Y-67647239D01*
X115498658Y-67397591D01*
X115508604Y-67347590D01*
X115625521Y-67065326D01*
X115795259Y-66811295D01*
X116011295Y-66595259D01*
X116265326Y-66425521D01*
X116547590Y-66308604D01*
X116697415Y-66278802D01*
X116847239Y-66249000D01*
X117152761Y-66249000D01*
X117302585Y-66278802D01*
X117302585Y-66278802D01*
G37*
G36*
X134302585Y-66278802D02*
G01*
X134452410Y-66308604D01*
X134734674Y-66425521D01*
X134988705Y-66595259D01*
X135204741Y-66811295D01*
X135374479Y-67065326D01*
X135491396Y-67347590D01*
X135501342Y-67397591D01*
X135551000Y-67647239D01*
X135551000Y-67952761D01*
X135541054Y-68002761D01*
X135491396Y-68252410D01*
X135374479Y-68534674D01*
X135204741Y-68788705D01*
X134988705Y-69004741D01*
X134734674Y-69174479D01*
X134452410Y-69291396D01*
X134302585Y-69321198D01*
X134152761Y-69351000D01*
X133847239Y-69351000D01*
X133697415Y-69321198D01*
X133547590Y-69291396D01*
X133265326Y-69174479D01*
X133011295Y-69004741D01*
X132795259Y-68788705D01*
X132625521Y-68534674D01*
X132508604Y-68252410D01*
X132458946Y-68002761D01*
X132449000Y-67952761D01*
X132449000Y-67647239D01*
X132498658Y-67397591D01*
X132508604Y-67347590D01*
X132625521Y-67065326D01*
X132795259Y-66811295D01*
X133011295Y-66595259D01*
X133265326Y-66425521D01*
X133547590Y-66308604D01*
X133697415Y-66278802D01*
X133847239Y-66249000D01*
X134152761Y-66249000D01*
X134302585Y-66278802D01*
X134302585Y-66278802D01*
G37*
G36*
X171545936Y-66921340D02*
G01*
X171644220Y-66931020D01*
X171833381Y-66988401D01*
X172007712Y-67081583D01*
X172160515Y-67206985D01*
X172285917Y-67359788D01*
X172379099Y-67534119D01*
X172436480Y-67723280D01*
X172455855Y-67920000D01*
X172436480Y-68116720D01*
X172379099Y-68305881D01*
X172285917Y-68480212D01*
X172160515Y-68633015D01*
X172007712Y-68758417D01*
X171833381Y-68851599D01*
X171644220Y-68908980D01*
X171545936Y-68918660D01*
X171496795Y-68923500D01*
X171303205Y-68923500D01*
X171254064Y-68918660D01*
X171155780Y-68908980D01*
X170966619Y-68851599D01*
X170792288Y-68758417D01*
X170639485Y-68633015D01*
X170514083Y-68480212D01*
X170420901Y-68305881D01*
X170363520Y-68116720D01*
X170344145Y-67920000D01*
X170363520Y-67723280D01*
X170420901Y-67534119D01*
X170514083Y-67359788D01*
X170639485Y-67206985D01*
X170792288Y-67081583D01*
X170966619Y-66988401D01*
X171155780Y-66931020D01*
X171254064Y-66921340D01*
X171303205Y-66916500D01*
X171496795Y-66916500D01*
X171545936Y-66921340D01*
X171545936Y-66921340D01*
G37*
G36*
X181745936Y-66921340D02*
G01*
X181844220Y-66931020D01*
X182033381Y-66988401D01*
X182207712Y-67081583D01*
X182360515Y-67206985D01*
X182485917Y-67359788D01*
X182579099Y-67534119D01*
X182636480Y-67723280D01*
X182655855Y-67920000D01*
X182636480Y-68116720D01*
X182579099Y-68305881D01*
X182485917Y-68480212D01*
X182360515Y-68633015D01*
X182207712Y-68758417D01*
X182033381Y-68851599D01*
X181844220Y-68908980D01*
X181745936Y-68918660D01*
X181696795Y-68923500D01*
X181503205Y-68923500D01*
X181454064Y-68918660D01*
X181355780Y-68908980D01*
X181166619Y-68851599D01*
X180992288Y-68758417D01*
X180839485Y-68633015D01*
X180714083Y-68480212D01*
X180620901Y-68305881D01*
X180563520Y-68116720D01*
X180544145Y-67920000D01*
X180563520Y-67723280D01*
X180620901Y-67534119D01*
X180714083Y-67359788D01*
X180839485Y-67206985D01*
X180992288Y-67081583D01*
X181166619Y-66988401D01*
X181355780Y-66931020D01*
X181454064Y-66921340D01*
X181503205Y-66916500D01*
X181696795Y-66916500D01*
X181745936Y-66921340D01*
X181745936Y-66921340D01*
G37*
G36*
X106394072Y-56700918D02*
G01*
X106639939Y-56802759D01*
X106861212Y-56950610D01*
X107049390Y-57138788D01*
X107197241Y-57360061D01*
X107299082Y-57605928D01*
X107351000Y-57866938D01*
X107351000Y-58133062D01*
X107299082Y-58394072D01*
X107197241Y-58639939D01*
X107049390Y-58861212D01*
X106861212Y-59049390D01*
X106639939Y-59197241D01*
X106639938Y-59197242D01*
X106639937Y-59197242D01*
X106394072Y-59299082D01*
X106133063Y-59351000D01*
X105866937Y-59351000D01*
X105605928Y-59299082D01*
X105360063Y-59197242D01*
X105360062Y-59197242D01*
X105360061Y-59197241D01*
X105138788Y-59049390D01*
X104950610Y-58861212D01*
X104802759Y-58639939D01*
X104700918Y-58394072D01*
X104649000Y-58133062D01*
X104649000Y-57866938D01*
X104700918Y-57605928D01*
X104802759Y-57360061D01*
X104950610Y-57138788D01*
X105138788Y-56950610D01*
X105360061Y-56802759D01*
X105605928Y-56700918D01*
X105866937Y-56649000D01*
X106133063Y-56649000D01*
X106394072Y-56700918D01*
X106394072Y-56700918D01*
G37*
G36*
X163351000Y-59351000D02*
G01*
X160649000Y-59351000D01*
X160649000Y-56649000D01*
X163351000Y-56649000D01*
X163351000Y-59351000D01*
X163351000Y-59351000D01*
G37*
G36*
X157394072Y-56700918D02*
G01*
X157639939Y-56802759D01*
X157861212Y-56950610D01*
X158049390Y-57138788D01*
X158197241Y-57360061D01*
X158299082Y-57605928D01*
X158351000Y-57866938D01*
X158351000Y-58133062D01*
X158299082Y-58394072D01*
X158197241Y-58639939D01*
X158049390Y-58861212D01*
X157861212Y-59049390D01*
X157639939Y-59197241D01*
X157639938Y-59197242D01*
X157639937Y-59197242D01*
X157394072Y-59299082D01*
X157133063Y-59351000D01*
X156866937Y-59351000D01*
X156605928Y-59299082D01*
X156360063Y-59197242D01*
X156360062Y-59197242D01*
X156360061Y-59197241D01*
X156138788Y-59049390D01*
X155950610Y-58861212D01*
X155802759Y-58639939D01*
X155700918Y-58394072D01*
X155649000Y-58133062D01*
X155649000Y-57866938D01*
X155700918Y-57605928D01*
X155802759Y-57360061D01*
X155950610Y-57138788D01*
X156138788Y-56950610D01*
X156360061Y-56802759D01*
X156605928Y-56700918D01*
X156866937Y-56649000D01*
X157133063Y-56649000D01*
X157394072Y-56700918D01*
X157394072Y-56700918D01*
G37*
G36*
X152394072Y-56700918D02*
G01*
X152639939Y-56802759D01*
X152861212Y-56950610D01*
X153049390Y-57138788D01*
X153197241Y-57360061D01*
X153299082Y-57605928D01*
X153351000Y-57866938D01*
X153351000Y-58133062D01*
X153299082Y-58394072D01*
X153197241Y-58639939D01*
X153049390Y-58861212D01*
X152861212Y-59049390D01*
X152639939Y-59197241D01*
X152639938Y-59197242D01*
X152639937Y-59197242D01*
X152394072Y-59299082D01*
X152133063Y-59351000D01*
X151866937Y-59351000D01*
X151605928Y-59299082D01*
X151360063Y-59197242D01*
X151360062Y-59197242D01*
X151360061Y-59197241D01*
X151138788Y-59049390D01*
X150950610Y-58861212D01*
X150802759Y-58639939D01*
X150700918Y-58394072D01*
X150649000Y-58133062D01*
X150649000Y-57866938D01*
X150700918Y-57605928D01*
X150802759Y-57360061D01*
X150950610Y-57138788D01*
X151138788Y-56950610D01*
X151360061Y-56802759D01*
X151605928Y-56700918D01*
X151866937Y-56649000D01*
X152133063Y-56649000D01*
X152394072Y-56700918D01*
X152394072Y-56700918D01*
G37*
G36*
X135394072Y-56700918D02*
G01*
X135639939Y-56802759D01*
X135861212Y-56950610D01*
X136049390Y-57138788D01*
X136197241Y-57360061D01*
X136299082Y-57605928D01*
X136351000Y-57866938D01*
X136351000Y-58133062D01*
X136299082Y-58394072D01*
X136197241Y-58639939D01*
X136049390Y-58861212D01*
X135861212Y-59049390D01*
X135639939Y-59197241D01*
X135639938Y-59197242D01*
X135639937Y-59197242D01*
X135394072Y-59299082D01*
X135133063Y-59351000D01*
X134866937Y-59351000D01*
X134605928Y-59299082D01*
X134360063Y-59197242D01*
X134360062Y-59197242D01*
X134360061Y-59197241D01*
X134138788Y-59049390D01*
X133950610Y-58861212D01*
X133802759Y-58639939D01*
X133700918Y-58394072D01*
X133649000Y-58133062D01*
X133649000Y-57866938D01*
X133700918Y-57605928D01*
X133802759Y-57360061D01*
X133950610Y-57138788D01*
X134138788Y-56950610D01*
X134360061Y-56802759D01*
X134605928Y-56700918D01*
X134866937Y-56649000D01*
X135133063Y-56649000D01*
X135394072Y-56700918D01*
X135394072Y-56700918D01*
G37*
G36*
X140394072Y-56700918D02*
G01*
X140639939Y-56802759D01*
X140861212Y-56950610D01*
X141049390Y-57138788D01*
X141197241Y-57360061D01*
X141299082Y-57605928D01*
X141351000Y-57866938D01*
X141351000Y-58133062D01*
X141299082Y-58394072D01*
X141197241Y-58639939D01*
X141049390Y-58861212D01*
X140861212Y-59049390D01*
X140639939Y-59197241D01*
X140639938Y-59197242D01*
X140639937Y-59197242D01*
X140394072Y-59299082D01*
X140133063Y-59351000D01*
X139866937Y-59351000D01*
X139605928Y-59299082D01*
X139360063Y-59197242D01*
X139360062Y-59197242D01*
X139360061Y-59197241D01*
X139138788Y-59049390D01*
X138950610Y-58861212D01*
X138802759Y-58639939D01*
X138700918Y-58394072D01*
X138649000Y-58133062D01*
X138649000Y-57866938D01*
X138700918Y-57605928D01*
X138802759Y-57360061D01*
X138950610Y-57138788D01*
X139138788Y-56950610D01*
X139360061Y-56802759D01*
X139605928Y-56700918D01*
X139866937Y-56649000D01*
X140133063Y-56649000D01*
X140394072Y-56700918D01*
X140394072Y-56700918D01*
G37*
G36*
X146351000Y-59351000D02*
G01*
X143649000Y-59351000D01*
X143649000Y-56649000D01*
X146351000Y-56649000D01*
X146351000Y-59351000D01*
X146351000Y-59351000D01*
G37*
G36*
X169394072Y-56700918D02*
G01*
X169639939Y-56802759D01*
X169861212Y-56950610D01*
X170049390Y-57138788D01*
X170197241Y-57360061D01*
X170299082Y-57605928D01*
X170351000Y-57866938D01*
X170351000Y-58133062D01*
X170299082Y-58394072D01*
X170197241Y-58639939D01*
X170049390Y-58861212D01*
X169861212Y-59049390D01*
X169639939Y-59197241D01*
X169639938Y-59197242D01*
X169639937Y-59197242D01*
X169394072Y-59299082D01*
X169133063Y-59351000D01*
X168866937Y-59351000D01*
X168605928Y-59299082D01*
X168360063Y-59197242D01*
X168360062Y-59197242D01*
X168360061Y-59197241D01*
X168138788Y-59049390D01*
X167950610Y-58861212D01*
X167802759Y-58639939D01*
X167700918Y-58394072D01*
X167649000Y-58133062D01*
X167649000Y-57866938D01*
X167700918Y-57605928D01*
X167802759Y-57360061D01*
X167950610Y-57138788D01*
X168138788Y-56950610D01*
X168360061Y-56802759D01*
X168605928Y-56700918D01*
X168866937Y-56649000D01*
X169133063Y-56649000D01*
X169394072Y-56700918D01*
X169394072Y-56700918D01*
G37*
G36*
X174394072Y-56700918D02*
G01*
X174639939Y-56802759D01*
X174861212Y-56950610D01*
X175049390Y-57138788D01*
X175197241Y-57360061D01*
X175299082Y-57605928D01*
X175351000Y-57866938D01*
X175351000Y-58133062D01*
X175299082Y-58394072D01*
X175197241Y-58639939D01*
X175049390Y-58861212D01*
X174861212Y-59049390D01*
X174639939Y-59197241D01*
X174639938Y-59197242D01*
X174639937Y-59197242D01*
X174394072Y-59299082D01*
X174133063Y-59351000D01*
X173866937Y-59351000D01*
X173605928Y-59299082D01*
X173360063Y-59197242D01*
X173360062Y-59197242D01*
X173360061Y-59197241D01*
X173138788Y-59049390D01*
X172950610Y-58861212D01*
X172802759Y-58639939D01*
X172700918Y-58394072D01*
X172649000Y-58133062D01*
X172649000Y-57866938D01*
X172700918Y-57605928D01*
X172802759Y-57360061D01*
X172950610Y-57138788D01*
X173138788Y-56950610D01*
X173360061Y-56802759D01*
X173605928Y-56700918D01*
X173866937Y-56649000D01*
X174133063Y-56649000D01*
X174394072Y-56700918D01*
X174394072Y-56700918D01*
G37*
G36*
X180351000Y-59351000D02*
G01*
X177649000Y-59351000D01*
X177649000Y-56649000D01*
X180351000Y-56649000D01*
X180351000Y-59351000D01*
X180351000Y-59351000D01*
G37*
G36*
X129351000Y-59351000D02*
G01*
X126649000Y-59351000D01*
X126649000Y-56649000D01*
X129351000Y-56649000D01*
X129351000Y-59351000D01*
X129351000Y-59351000D01*
G37*
G36*
X123394072Y-56700918D02*
G01*
X123639939Y-56802759D01*
X123861212Y-56950610D01*
X124049390Y-57138788D01*
X124197241Y-57360061D01*
X124299082Y-57605928D01*
X124351000Y-57866938D01*
X124351000Y-58133062D01*
X124299082Y-58394072D01*
X124197241Y-58639939D01*
X124049390Y-58861212D01*
X123861212Y-59049390D01*
X123639939Y-59197241D01*
X123639938Y-59197242D01*
X123639937Y-59197242D01*
X123394072Y-59299082D01*
X123133063Y-59351000D01*
X122866937Y-59351000D01*
X122605928Y-59299082D01*
X122360063Y-59197242D01*
X122360062Y-59197242D01*
X122360061Y-59197241D01*
X122138788Y-59049390D01*
X121950610Y-58861212D01*
X121802759Y-58639939D01*
X121700918Y-58394072D01*
X121649000Y-58133062D01*
X121649000Y-57866938D01*
X121700918Y-57605928D01*
X121802759Y-57360061D01*
X121950610Y-57138788D01*
X122138788Y-56950610D01*
X122360061Y-56802759D01*
X122605928Y-56700918D01*
X122866937Y-56649000D01*
X123133063Y-56649000D01*
X123394072Y-56700918D01*
X123394072Y-56700918D01*
G37*
G36*
X118394072Y-56700918D02*
G01*
X118639939Y-56802759D01*
X118861212Y-56950610D01*
X119049390Y-57138788D01*
X119197241Y-57360061D01*
X119299082Y-57605928D01*
X119351000Y-57866938D01*
X119351000Y-58133062D01*
X119299082Y-58394072D01*
X119197241Y-58639939D01*
X119049390Y-58861212D01*
X118861212Y-59049390D01*
X118639939Y-59197241D01*
X118639938Y-59197242D01*
X118639937Y-59197242D01*
X118394072Y-59299082D01*
X118133063Y-59351000D01*
X117866937Y-59351000D01*
X117605928Y-59299082D01*
X117360063Y-59197242D01*
X117360062Y-59197242D01*
X117360061Y-59197241D01*
X117138788Y-59049390D01*
X116950610Y-58861212D01*
X116802759Y-58639939D01*
X116700918Y-58394072D01*
X116649000Y-58133062D01*
X116649000Y-57866938D01*
X116700918Y-57605928D01*
X116802759Y-57360061D01*
X116950610Y-57138788D01*
X117138788Y-56950610D01*
X117360061Y-56802759D01*
X117605928Y-56700918D01*
X117866937Y-56649000D01*
X118133063Y-56649000D01*
X118394072Y-56700918D01*
X118394072Y-56700918D01*
G37*
G36*
X112351000Y-59351000D02*
G01*
X109649000Y-59351000D01*
X109649000Y-56649000D01*
X112351000Y-56649000D01*
X112351000Y-59351000D01*
X112351000Y-59351000D01*
G37*
G36*
X101394072Y-56700918D02*
G01*
X101639939Y-56802759D01*
X101861212Y-56950610D01*
X102049390Y-57138788D01*
X102197241Y-57360061D01*
X102299082Y-57605928D01*
X102351000Y-57866938D01*
X102351000Y-58133062D01*
X102299082Y-58394072D01*
X102197241Y-58639939D01*
X102049390Y-58861212D01*
X101861212Y-59049390D01*
X101639939Y-59197241D01*
X101639938Y-59197242D01*
X101639937Y-59197242D01*
X101394072Y-59299082D01*
X101133063Y-59351000D01*
X100866937Y-59351000D01*
X100605928Y-59299082D01*
X100360063Y-59197242D01*
X100360062Y-59197242D01*
X100360061Y-59197241D01*
X100138788Y-59049390D01*
X99950610Y-58861212D01*
X99802759Y-58639939D01*
X99700918Y-58394072D01*
X99649000Y-58133062D01*
X99649000Y-57866938D01*
X99700918Y-57605928D01*
X99802759Y-57360061D01*
X99950610Y-57138788D01*
X100138788Y-56950610D01*
X100360061Y-56802759D01*
X100605928Y-56700918D01*
X100866937Y-56649000D01*
X101133063Y-56649000D01*
X101394072Y-56700918D01*
X101394072Y-56700918D01*
G37*
G36*
X186634239Y-50811467D02*
G01*
X186948282Y-50873934D01*
X187539926Y-51119001D01*
X188072392Y-51474784D01*
X188525216Y-51927608D01*
X188880999Y-52460074D01*
X189126066Y-53051718D01*
X189251000Y-53679804D01*
X189251000Y-54320196D01*
X189126066Y-54948282D01*
X188880999Y-55539926D01*
X188525216Y-56072392D01*
X188072392Y-56525216D01*
X187539926Y-56880999D01*
X186948282Y-57126066D01*
X186634239Y-57188533D01*
X186320197Y-57251000D01*
X185679803Y-57251000D01*
X185365761Y-57188533D01*
X185051718Y-57126066D01*
X184460074Y-56880999D01*
X183927608Y-56525216D01*
X183474784Y-56072392D01*
X183119001Y-55539926D01*
X182873934Y-54948282D01*
X182749000Y-54320196D01*
X182749000Y-53679804D01*
X182873934Y-53051718D01*
X183119001Y-52460074D01*
X183474784Y-51927608D01*
X183927608Y-51474784D01*
X184460074Y-51119001D01*
X185051718Y-50873934D01*
X185365761Y-50811467D01*
X185679803Y-50749000D01*
X186320197Y-50749000D01*
X186634239Y-50811467D01*
X186634239Y-50811467D01*
G37*
G36*
X94634239Y-50811467D02*
G01*
X94948282Y-50873934D01*
X95539926Y-51119001D01*
X96072392Y-51474784D01*
X96525216Y-51927608D01*
X96880999Y-52460074D01*
X97126066Y-53051718D01*
X97251000Y-53679804D01*
X97251000Y-54320196D01*
X97126066Y-54948282D01*
X96880999Y-55539926D01*
X96525216Y-56072392D01*
X96072392Y-56525216D01*
X95539926Y-56880999D01*
X94948282Y-57126066D01*
X94634239Y-57188533D01*
X94320197Y-57251000D01*
X93679803Y-57251000D01*
X93365761Y-57188533D01*
X93051718Y-57126066D01*
X92460074Y-56880999D01*
X91927608Y-56525216D01*
X91474784Y-56072392D01*
X91119001Y-55539926D01*
X90873934Y-54948282D01*
X90749000Y-54320196D01*
X90749000Y-53679804D01*
X90873934Y-53051718D01*
X91119001Y-52460074D01*
X91474784Y-51927608D01*
X91927608Y-51474784D01*
X92460074Y-51119001D01*
X93051718Y-50873934D01*
X93365761Y-50811467D01*
X93679803Y-50749000D01*
X94320197Y-50749000D01*
X94634239Y-50811467D01*
X94634239Y-50811467D01*
G37*
M02*
