G04 #@! TF.GenerationSoftware,KiCad,Pcbnew,(5.1.4)-1*
G04 #@! TF.CreationDate,2021-08-09T13:21:02-03:00*
G04 #@! TF.ProjectId,Plc_Esp12,506c635f-4573-4703-9132-2e6b69636164,rev?*
G04 #@! TF.SameCoordinates,Original*
G04 #@! TF.FileFunction,Profile,NP*
%FSLAX46Y46*%
G04 Gerber Fmt 4.6, Leading zero omitted, Abs format (unit mm)*
G04 Created by KiCad (PCBNEW (5.1.4)-1) date 2021-08-09 13:21:02*
%MOMM*%
%LPD*%
G04 APERTURE LIST*
%ADD10C,0.050000*%
%ADD11C,0.100000*%
G04 APERTURE END LIST*
D10*
X167000000Y-89250000D02*
X186500000Y-89250000D01*
X167000000Y-92750000D02*
G75*
G02X167000000Y-89250000I0J1750000D01*
G01*
X186500000Y-92750000D02*
X167000000Y-92750000D01*
X186500000Y-89250000D02*
G75*
G02X186500000Y-92750000I0J-1750000D01*
G01*
X108000000Y-85750000D02*
X109750000Y-84000000D01*
X102250000Y-78250000D02*
X102250000Y-84000000D01*
X102250000Y-84000000D02*
X104000000Y-85750000D01*
X109750000Y-84000000D02*
X109750000Y-78250000D01*
X104000000Y-85750000D02*
X108000000Y-85750000D01*
X108000000Y-83500000D02*
X107000000Y-84500000D01*
X104000000Y-78250000D02*
X102250000Y-78250000D01*
X105000000Y-84500000D02*
X104000000Y-83500000D01*
X107000000Y-84500000D02*
X105000000Y-84500000D01*
X108000000Y-78250000D02*
X108000000Y-83500000D01*
X109750000Y-78250000D02*
X108000000Y-78250000D01*
X104000000Y-83500000D02*
X104000000Y-78250000D01*
X159000000Y-85750000D02*
X160750000Y-84000000D01*
X153250000Y-78250000D02*
X153250000Y-84000000D01*
X153250000Y-84000000D02*
X155000000Y-85750000D01*
X160750000Y-84000000D02*
X160750000Y-78250000D01*
X155000000Y-85750000D02*
X159000000Y-85750000D01*
X159000000Y-83500000D02*
X158000000Y-84500000D01*
X155000000Y-78250000D02*
X153250000Y-78250000D01*
X156000000Y-84500000D02*
X155000000Y-83500000D01*
X158000000Y-84500000D02*
X156000000Y-84500000D01*
X159000000Y-78250000D02*
X159000000Y-83500000D01*
X160750000Y-78250000D02*
X159000000Y-78250000D01*
X155000000Y-83500000D02*
X155000000Y-78250000D01*
X125000000Y-85750000D02*
X126750000Y-84000000D01*
X119250000Y-78250000D02*
X119250000Y-84000000D01*
X119250000Y-84000000D02*
X121000000Y-85750000D01*
X126750000Y-84000000D02*
X126750000Y-78250000D01*
X121000000Y-85750000D02*
X125000000Y-85750000D01*
X125000000Y-83500000D02*
X124000000Y-84500000D01*
X121000000Y-78250000D02*
X119250000Y-78250000D01*
X122000000Y-84500000D02*
X121000000Y-83500000D01*
X124000000Y-84500000D02*
X122000000Y-84500000D01*
X125000000Y-78250000D02*
X125000000Y-83500000D01*
X126750000Y-78250000D02*
X125000000Y-78250000D01*
X121000000Y-83500000D02*
X121000000Y-78250000D01*
X138000000Y-78250000D02*
X136250000Y-78250000D01*
X138000000Y-83500000D02*
X138000000Y-78250000D01*
X139000000Y-84500000D02*
X138000000Y-83500000D01*
X141000000Y-84500000D02*
X139000000Y-84500000D01*
X142000000Y-83500000D02*
X141000000Y-84500000D01*
X142000000Y-78250000D02*
X142000000Y-83500000D01*
X143750000Y-78250000D02*
X142000000Y-78250000D01*
X143750000Y-84000000D02*
X143750000Y-78250000D01*
X142000000Y-85750000D02*
X143750000Y-84000000D01*
X138000000Y-85750000D02*
X142000000Y-85750000D01*
X136250000Y-84000000D02*
X138000000Y-85750000D01*
X136250000Y-78250000D02*
X136250000Y-84000000D01*
X118500000Y-102000000D02*
G75*
G02X118500000Y-98500000I0J1750000D01*
G01*
X147000000Y-98500000D02*
G75*
G02X147000000Y-102000000I0J-1750000D01*
G01*
X147000000Y-102000000D02*
X118500000Y-102000000D01*
X118500000Y-98500000D02*
X147000000Y-98500000D01*
X190000000Y-145000000D02*
G75*
G02X187500000Y-147500000I-2500000J0D01*
G01*
X92500000Y-147500000D02*
G75*
G02X90000000Y-145000000I0J2500000D01*
G01*
X90000000Y-52500000D02*
G75*
G02X92500000Y-50000000I2500000J0D01*
G01*
X187500000Y-50000000D02*
G75*
G02X190000000Y-52500000I0J-2500000D01*
G01*
D11*
X90000000Y-145000000D02*
X90000000Y-52500000D01*
X187500000Y-147500000D02*
X92500000Y-147500000D01*
X190000000Y-52500000D02*
X190000000Y-145000000D01*
X92500000Y-50000000D02*
X187500000Y-50000000D01*
M02*
