G04 #@! TF.GenerationSoftware,KiCad,Pcbnew,(5.1.4)-1*
G04 #@! TF.CreationDate,2021-06-13T22:04:23-03:00*
G04 #@! TF.ProjectId,FUENTE,4655454e-5445-42e6-9b69-6361645f7063,rev?*
G04 #@! TF.SameCoordinates,Original*
G04 #@! TF.FileFunction,Legend,Top*
G04 #@! TF.FilePolarity,Positive*
%FSLAX46Y46*%
G04 Gerber Fmt 4.6, Leading zero omitted, Abs format (unit mm)*
G04 Created by KiCad (PCBNEW (5.1.4)-1) date 2021-06-13 22:04:23*
%MOMM*%
%LPD*%
G04 APERTURE LIST*
%ADD10C,0.250000*%
%ADD11C,0.120000*%
%ADD12C,0.150000*%
G04 APERTURE END LIST*
D10*
X225380952Y-109928571D02*
X224619047Y-109928571D01*
X225000000Y-109547619D02*
X225000000Y-110309523D01*
X224928571Y-119619047D02*
X224928571Y-120380952D01*
X225380952Y-114928571D02*
X224619047Y-114928571D01*
X225000000Y-114547619D02*
X225000000Y-115309523D01*
X224928571Y-98619047D02*
X224928571Y-99380952D01*
X225380952Y-103928571D02*
X224619047Y-103928571D01*
X225000000Y-103547619D02*
X225000000Y-104309523D01*
X170071428Y-107380952D02*
X170071428Y-106619047D01*
X169619047Y-102071428D02*
X170380952Y-102071428D01*
X170000000Y-102452380D02*
X170000000Y-101690476D01*
D11*
X222000000Y-112000000D02*
X224000000Y-112000000D01*
X222000000Y-117000000D02*
X224000000Y-117000000D01*
X223500000Y-121500000D02*
X224000000Y-121500000D01*
X222000000Y-107000000D02*
X224000000Y-107000000D01*
X222000000Y-122000000D02*
X224000000Y-122000000D01*
X223500000Y-107500000D02*
X224000000Y-107500000D01*
X223500000Y-121500000D02*
X223500000Y-107500000D01*
X216000000Y-112000000D02*
X222000000Y-112000000D01*
X216000000Y-117000000D02*
X222000000Y-117000000D01*
X222000000Y-122000000D02*
X216000000Y-122000000D01*
X224000000Y-107000000D02*
X224000000Y-122000000D01*
X216000000Y-107000000D02*
X222000000Y-107000000D01*
X216000000Y-122000000D02*
X216000000Y-107000000D01*
X198825000Y-124720000D02*
X198825000Y-119280000D01*
X198585000Y-124720000D02*
X198585000Y-119280000D01*
X198705000Y-124720000D02*
X198705000Y-119280000D01*
X189600000Y-122000000D02*
X190510000Y-122000000D01*
X201160000Y-122000000D02*
X200250000Y-122000000D01*
X190510000Y-124720000D02*
X200250000Y-124720000D01*
X190510000Y-119280000D02*
X190510000Y-124720000D01*
X200250000Y-119280000D02*
X190510000Y-119280000D01*
X200250000Y-124720000D02*
X200250000Y-119280000D01*
X222000000Y-101000000D02*
X224000000Y-101000000D01*
X222000000Y-96000000D02*
X224000000Y-96000000D01*
X222000000Y-106000000D02*
X224000000Y-106000000D01*
X223500000Y-96500000D02*
X224000000Y-96500000D01*
X223500000Y-105500000D02*
X223500000Y-96500000D01*
X224000000Y-105500000D02*
X223500000Y-105500000D01*
X216000000Y-101000000D02*
X222000000Y-101000000D01*
X222000000Y-106000000D02*
X216000000Y-106000000D01*
X224000000Y-96000000D02*
X224000000Y-106000000D01*
X216000000Y-96000000D02*
X222000000Y-96000000D01*
X216000000Y-106000000D02*
X216000000Y-96000000D01*
X173000000Y-104000000D02*
X171000000Y-104000000D01*
X173000000Y-109000000D02*
X171000000Y-109000000D01*
X173000000Y-99000000D02*
X171000000Y-99000000D01*
X171500000Y-108500000D02*
X171000000Y-108500000D01*
X171500000Y-99500000D02*
X171500000Y-108500000D01*
X171000000Y-99500000D02*
X171500000Y-99500000D01*
X179000000Y-104000000D02*
X173000000Y-104000000D01*
X173000000Y-99000000D02*
X179000000Y-99000000D01*
X171000000Y-109000000D02*
X171000000Y-99000000D01*
X179000000Y-109000000D02*
X173000000Y-109000000D01*
X179000000Y-99000000D02*
X179000000Y-109000000D01*
X193710000Y-112455000D02*
X193710000Y-115545000D01*
X198770000Y-114000000D02*
G75*
G03X198770000Y-114000000I-2500000J0D01*
G01*
X199260000Y-113999538D02*
G75*
G02X193710000Y-115544830I-2990000J-462D01*
G01*
X199260000Y-114000462D02*
G75*
G03X193710000Y-112455170I-2990000J462D01*
G01*
X213750000Y-122000000D02*
X213750000Y-120500000D01*
X212500000Y-118000000D02*
X208000000Y-118000000D01*
X206750000Y-120500000D02*
X206750000Y-122000000D01*
X208000000Y-124500000D02*
X212500000Y-124500000D01*
X186710000Y-112455000D02*
X186710000Y-115545000D01*
X191770000Y-114000000D02*
G75*
G03X191770000Y-114000000I-2500000J0D01*
G01*
X192260000Y-113999538D02*
G75*
G02X186710000Y-115544830I-2990000J-462D01*
G01*
X192260000Y-114000462D02*
G75*
G03X186710000Y-112455170I-2990000J462D01*
G01*
X186360000Y-103990000D02*
X186360000Y-101650000D01*
X188700000Y-103990000D02*
X186360000Y-103990000D01*
X189600000Y-97600000D02*
X189600000Y-96900000D01*
X188400000Y-97600000D02*
X189600000Y-97600000D01*
X188400000Y-96900000D02*
X188400000Y-97600000D01*
X189600000Y-96900000D02*
X188400000Y-96900000D01*
X189200000Y-97600000D02*
X188800000Y-96900000D01*
X215400000Y-103750000D02*
X215400000Y-90750000D01*
X186600000Y-103750000D02*
X215400000Y-103750000D01*
X186600000Y-90750000D02*
X186600000Y-103750000D01*
X215400000Y-90750000D02*
X186600000Y-90750000D01*
X203000000Y-115120000D02*
X203000000Y-114350000D01*
X203000000Y-107040000D02*
X203000000Y-107810000D01*
X204370000Y-114350000D02*
X204370000Y-107810000D01*
X201630000Y-114350000D02*
X204370000Y-114350000D01*
X201630000Y-107810000D02*
X201630000Y-114350000D01*
X204370000Y-107810000D02*
X201630000Y-107810000D01*
X188880000Y-106000000D02*
X189650000Y-106000000D01*
X196960000Y-106000000D02*
X196190000Y-106000000D01*
X189650000Y-107370000D02*
X196190000Y-107370000D01*
X189650000Y-104630000D02*
X189650000Y-107370000D01*
X196190000Y-104630000D02*
X189650000Y-104630000D01*
X196190000Y-107370000D02*
X196190000Y-104630000D01*
X205530000Y-112860000D02*
X208470000Y-112860000D01*
X205530000Y-112620000D02*
X208470000Y-112620000D01*
X205530000Y-112740000D02*
X208470000Y-112740000D01*
X207000000Y-107180000D02*
X207000000Y-108200000D01*
X207000000Y-114660000D02*
X207000000Y-113640000D01*
X205530000Y-108200000D02*
X205530000Y-113640000D01*
X208470000Y-108200000D02*
X205530000Y-108200000D01*
X208470000Y-113640000D02*
X208470000Y-108200000D01*
X205530000Y-113640000D02*
X208470000Y-113640000D01*
X184720000Y-117175000D02*
X179280000Y-117175000D01*
X184720000Y-117415000D02*
X179280000Y-117415000D01*
X184720000Y-117295000D02*
X179280000Y-117295000D01*
X182000000Y-126400000D02*
X182000000Y-125490000D01*
X182000000Y-114840000D02*
X182000000Y-115750000D01*
X184720000Y-125490000D02*
X184720000Y-115750000D01*
X179280000Y-125490000D02*
X184720000Y-125490000D01*
X179280000Y-115750000D02*
X179280000Y-125490000D01*
X184720000Y-115750000D02*
X179280000Y-115750000D01*
D12*
X214452380Y-114833333D02*
X215166666Y-114833333D01*
X215309523Y-114880952D01*
X215404761Y-114976190D01*
X215452380Y-115119047D01*
X215452380Y-115214285D01*
X215452380Y-113833333D02*
X215452380Y-114404761D01*
X215452380Y-114119047D02*
X214452380Y-114119047D01*
X214595238Y-114214285D01*
X214690476Y-114309523D01*
X214738095Y-114404761D01*
X194641904Y-126172380D02*
X194641904Y-125172380D01*
X194880000Y-125172380D01*
X195022857Y-125220000D01*
X195118095Y-125315238D01*
X195165714Y-125410476D01*
X195213333Y-125600952D01*
X195213333Y-125743809D01*
X195165714Y-125934285D01*
X195118095Y-126029523D01*
X195022857Y-126124761D01*
X194880000Y-126172380D01*
X194641904Y-126172380D01*
X195689523Y-126172380D02*
X195880000Y-126172380D01*
X195975238Y-126124761D01*
X196022857Y-126077142D01*
X196118095Y-125934285D01*
X196165714Y-125743809D01*
X196165714Y-125362857D01*
X196118095Y-125267619D01*
X196070476Y-125220000D01*
X195975238Y-125172380D01*
X195784761Y-125172380D01*
X195689523Y-125220000D01*
X195641904Y-125267619D01*
X195594285Y-125362857D01*
X195594285Y-125600952D01*
X195641904Y-125696190D01*
X195689523Y-125743809D01*
X195784761Y-125791428D01*
X195975238Y-125791428D01*
X196070476Y-125743809D01*
X196118095Y-125696190D01*
X196165714Y-125600952D01*
X202738095Y-125052380D02*
X202738095Y-124052380D01*
X203309523Y-125052380D02*
X202880952Y-124480952D01*
X203309523Y-124052380D02*
X202738095Y-124623809D01*
X217404761Y-105476190D02*
X217452380Y-105333333D01*
X217452380Y-105095238D01*
X217404761Y-105000000D01*
X217357142Y-104952380D01*
X217261904Y-104904761D01*
X217166666Y-104904761D01*
X217071428Y-104952380D01*
X217023809Y-105000000D01*
X216976190Y-105095238D01*
X216928571Y-105285714D01*
X216880952Y-105380952D01*
X216833333Y-105428571D01*
X216738095Y-105476190D01*
X216642857Y-105476190D01*
X216547619Y-105428571D01*
X216500000Y-105380952D01*
X216452380Y-105285714D01*
X216452380Y-105047619D01*
X216500000Y-104904761D01*
X217166666Y-104523809D02*
X217166666Y-104047619D01*
X217452380Y-104619047D02*
X216452380Y-104285714D01*
X217452380Y-103952380D01*
X217452380Y-103142857D02*
X217452380Y-103619047D01*
X216452380Y-103619047D01*
X217452380Y-102809523D02*
X216452380Y-102809523D01*
X217452380Y-102333333D02*
X216452380Y-102333333D01*
X216452380Y-102095238D01*
X216500000Y-101952380D01*
X216595238Y-101857142D01*
X216690476Y-101809523D01*
X216880952Y-101761904D01*
X217023809Y-101761904D01*
X217214285Y-101809523D01*
X217309523Y-101857142D01*
X217404761Y-101952380D01*
X217452380Y-102095238D01*
X217452380Y-102333333D01*
X217166666Y-101380952D02*
X217166666Y-100904761D01*
X217452380Y-101476190D02*
X216452380Y-101142857D01*
X217452380Y-100809523D01*
X217547619Y-100714285D02*
X217547619Y-99952380D01*
X217452380Y-99142857D02*
X216976190Y-99476190D01*
X217452380Y-99714285D02*
X216452380Y-99714285D01*
X216452380Y-99333333D01*
X216500000Y-99238095D01*
X216547619Y-99190476D01*
X216642857Y-99142857D01*
X216785714Y-99142857D01*
X216880952Y-99190476D01*
X216928571Y-99238095D01*
X216976190Y-99333333D01*
X216976190Y-99714285D01*
X216928571Y-98714285D02*
X216928571Y-98380952D01*
X217452380Y-98238095D02*
X217452380Y-98714285D01*
X216452380Y-98714285D01*
X216452380Y-98238095D01*
X217452380Y-97333333D02*
X217452380Y-97809523D01*
X216452380Y-97809523D01*
X216928571Y-97000000D02*
X216928571Y-96666666D01*
X217452380Y-96523809D02*
X217452380Y-97000000D01*
X216452380Y-97000000D01*
X216452380Y-96523809D01*
X180071428Y-98261904D02*
X180071428Y-98595238D01*
X179547619Y-98738095D02*
X179547619Y-98261904D01*
X180547619Y-98261904D01*
X180547619Y-98738095D01*
X179547619Y-99166666D02*
X180547619Y-99166666D01*
X179547619Y-99738095D01*
X180547619Y-99738095D01*
X180547619Y-100071428D02*
X180547619Y-100642857D01*
X179547619Y-100357142D02*
X180547619Y-100357142D01*
X179547619Y-101547619D02*
X180023809Y-101214285D01*
X179547619Y-100976190D02*
X180547619Y-100976190D01*
X180547619Y-101357142D01*
X180500000Y-101452380D01*
X180452380Y-101500000D01*
X180357142Y-101547619D01*
X180214285Y-101547619D01*
X180119047Y-101500000D01*
X180071428Y-101452380D01*
X180023809Y-101357142D01*
X180023809Y-100976190D01*
X179833333Y-101928571D02*
X179833333Y-102404761D01*
X179547619Y-101833333D02*
X180547619Y-102166666D01*
X179547619Y-102500000D01*
X179547619Y-102833333D02*
X180547619Y-102833333D01*
X180547619Y-103071428D01*
X180500000Y-103214285D01*
X180404761Y-103309523D01*
X180309523Y-103357142D01*
X180119047Y-103404761D01*
X179976190Y-103404761D01*
X179785714Y-103357142D01*
X179690476Y-103309523D01*
X179595238Y-103214285D01*
X179547619Y-103071428D01*
X179547619Y-102833333D01*
X179833333Y-103785714D02*
X179833333Y-104261904D01*
X179547619Y-103690476D02*
X180547619Y-104023809D01*
X179547619Y-104357142D01*
X179452380Y-104452380D02*
X179452380Y-105214285D01*
X179547619Y-105976190D02*
X179547619Y-105404761D01*
X179547619Y-105690476D02*
X180547619Y-105690476D01*
X180404761Y-105595238D01*
X180309523Y-105500000D01*
X180261904Y-105404761D01*
X180452380Y-106357142D02*
X180500000Y-106404761D01*
X180547619Y-106500000D01*
X180547619Y-106738095D01*
X180500000Y-106833333D01*
X180452380Y-106880952D01*
X180357142Y-106928571D01*
X180261904Y-106928571D01*
X180119047Y-106880952D01*
X179547619Y-106309523D01*
X179547619Y-106928571D01*
X180547619Y-107214285D02*
X179547619Y-107547619D01*
X180547619Y-107880952D01*
X179547619Y-108214285D02*
X180547619Y-108214285D01*
X180547619Y-108452380D01*
X180500000Y-108595238D01*
X180404761Y-108690476D01*
X180309523Y-108738095D01*
X180119047Y-108785714D01*
X179976190Y-108785714D01*
X179785714Y-108738095D01*
X179690476Y-108690476D01*
X179595238Y-108595238D01*
X179547619Y-108452380D01*
X179547619Y-108214285D01*
X179642857Y-109785714D02*
X179595238Y-109738095D01*
X179547619Y-109595238D01*
X179547619Y-109500000D01*
X179595238Y-109357142D01*
X179690476Y-109261904D01*
X179785714Y-109214285D01*
X179976190Y-109166666D01*
X180119047Y-109166666D01*
X180309523Y-109214285D01*
X180404761Y-109261904D01*
X180500000Y-109357142D01*
X180547619Y-109500000D01*
X180547619Y-109595238D01*
X180500000Y-109738095D01*
X180452380Y-109785714D01*
X194031904Y-109492380D02*
X194365238Y-110492380D01*
X194698571Y-109492380D01*
X195031904Y-109968571D02*
X195365238Y-109968571D01*
X195508095Y-110492380D02*
X195031904Y-110492380D01*
X195031904Y-109492380D01*
X195508095Y-109492380D01*
X196508095Y-110492380D02*
X196174761Y-110016190D01*
X195936666Y-110492380D02*
X195936666Y-109492380D01*
X196317619Y-109492380D01*
X196412857Y-109540000D01*
X196460476Y-109587619D01*
X196508095Y-109682857D01*
X196508095Y-109825714D01*
X196460476Y-109920952D01*
X196412857Y-109968571D01*
X196317619Y-110016190D01*
X195936666Y-110016190D01*
X196936666Y-110492380D02*
X196936666Y-109492380D01*
X197174761Y-109492380D01*
X197317619Y-109540000D01*
X197412857Y-109635238D01*
X197460476Y-109730476D01*
X197508095Y-109920952D01*
X197508095Y-110063809D01*
X197460476Y-110254285D01*
X197412857Y-110349523D01*
X197317619Y-110444761D01*
X197174761Y-110492380D01*
X196936666Y-110492380D01*
X197936666Y-109968571D02*
X198270000Y-109968571D01*
X198412857Y-110492380D02*
X197936666Y-110492380D01*
X197936666Y-109492380D01*
X198412857Y-109492380D01*
X208916666Y-117404761D02*
X209059523Y-117452380D01*
X209297619Y-117452380D01*
X209392857Y-117404761D01*
X209440476Y-117357142D01*
X209488095Y-117261904D01*
X209488095Y-117166666D01*
X209440476Y-117071428D01*
X209392857Y-117023809D01*
X209297619Y-116976190D01*
X209107142Y-116928571D01*
X209011904Y-116880952D01*
X208964285Y-116833333D01*
X208916666Y-116738095D01*
X208916666Y-116642857D01*
X208964285Y-116547619D01*
X209011904Y-116500000D01*
X209107142Y-116452380D01*
X209345238Y-116452380D01*
X209488095Y-116500000D01*
X209821428Y-116452380D02*
X210059523Y-117452380D01*
X210250000Y-116738095D01*
X210440476Y-117452380D01*
X210678571Y-116452380D01*
X211583333Y-117452380D02*
X211011904Y-117452380D01*
X211297619Y-117452380D02*
X211297619Y-116452380D01*
X211202380Y-116595238D01*
X211107142Y-116690476D01*
X211011904Y-116738095D01*
X188150952Y-110492380D02*
X187817619Y-110016190D01*
X187579523Y-110492380D02*
X187579523Y-109492380D01*
X187960476Y-109492380D01*
X188055714Y-109540000D01*
X188103333Y-109587619D01*
X188150952Y-109682857D01*
X188150952Y-109825714D01*
X188103333Y-109920952D01*
X188055714Y-109968571D01*
X187960476Y-110016190D01*
X187579523Y-110016190D01*
X188770000Y-109492380D02*
X188960476Y-109492380D01*
X189055714Y-109540000D01*
X189150952Y-109635238D01*
X189198571Y-109825714D01*
X189198571Y-110159047D01*
X189150952Y-110349523D01*
X189055714Y-110444761D01*
X188960476Y-110492380D01*
X188770000Y-110492380D01*
X188674761Y-110444761D01*
X188579523Y-110349523D01*
X188531904Y-110159047D01*
X188531904Y-109825714D01*
X188579523Y-109635238D01*
X188674761Y-109540000D01*
X188770000Y-109492380D01*
X189912857Y-109492380D02*
X189912857Y-110206666D01*
X189865238Y-110349523D01*
X189770000Y-110444761D01*
X189627142Y-110492380D01*
X189531904Y-110492380D01*
X190579523Y-109492380D02*
X190770000Y-109492380D01*
X190865238Y-109540000D01*
X190960476Y-109635238D01*
X191008095Y-109825714D01*
X191008095Y-110159047D01*
X190960476Y-110349523D01*
X190865238Y-110444761D01*
X190770000Y-110492380D01*
X190579523Y-110492380D01*
X190484285Y-110444761D01*
X190389047Y-110349523D01*
X190341428Y-110159047D01*
X190341428Y-109825714D01*
X190389047Y-109635238D01*
X190484285Y-109540000D01*
X190579523Y-109492380D01*
X200528571Y-89952380D02*
X200195238Y-89476190D01*
X199957142Y-89952380D02*
X199957142Y-88952380D01*
X200338095Y-88952380D01*
X200433333Y-89000000D01*
X200480952Y-89047619D01*
X200528571Y-89142857D01*
X200528571Y-89285714D01*
X200480952Y-89380952D01*
X200433333Y-89428571D01*
X200338095Y-89476190D01*
X199957142Y-89476190D01*
X201433333Y-89952380D02*
X200957142Y-89952380D01*
X200957142Y-88952380D01*
X202290476Y-89952380D02*
X201719047Y-89952380D01*
X202004761Y-89952380D02*
X202004761Y-88952380D01*
X201909523Y-89095238D01*
X201814285Y-89190476D01*
X201719047Y-89238095D01*
X203452380Y-111246666D02*
X202976190Y-111580000D01*
X203452380Y-111818095D02*
X202452380Y-111818095D01*
X202452380Y-111437142D01*
X202500000Y-111341904D01*
X202547619Y-111294285D01*
X202642857Y-111246666D01*
X202785714Y-111246666D01*
X202880952Y-111294285D01*
X202928571Y-111341904D01*
X202976190Y-111437142D01*
X202976190Y-111818095D01*
X202547619Y-110865714D02*
X202500000Y-110818095D01*
X202452380Y-110722857D01*
X202452380Y-110484761D01*
X202500000Y-110389523D01*
X202547619Y-110341904D01*
X202642857Y-110294285D01*
X202738095Y-110294285D01*
X202880952Y-110341904D01*
X203452380Y-110913333D01*
X203452380Y-110294285D01*
X192753333Y-106452380D02*
X192420000Y-105976190D01*
X192181904Y-106452380D02*
X192181904Y-105452380D01*
X192562857Y-105452380D01*
X192658095Y-105500000D01*
X192705714Y-105547619D01*
X192753333Y-105642857D01*
X192753333Y-105785714D01*
X192705714Y-105880952D01*
X192658095Y-105928571D01*
X192562857Y-105976190D01*
X192181904Y-105976190D01*
X193705714Y-106452380D02*
X193134285Y-106452380D01*
X193420000Y-106452380D02*
X193420000Y-105452380D01*
X193324761Y-105595238D01*
X193229523Y-105690476D01*
X193134285Y-105738095D01*
X207452380Y-111658095D02*
X206452380Y-111658095D01*
X206452380Y-111420000D01*
X206500000Y-111277142D01*
X206595238Y-111181904D01*
X206690476Y-111134285D01*
X206880952Y-111086666D01*
X207023809Y-111086666D01*
X207214285Y-111134285D01*
X207309523Y-111181904D01*
X207404761Y-111277142D01*
X207452380Y-111420000D01*
X207452380Y-111658095D01*
X206880952Y-110515238D02*
X206833333Y-110610476D01*
X206785714Y-110658095D01*
X206690476Y-110705714D01*
X206642857Y-110705714D01*
X206547619Y-110658095D01*
X206500000Y-110610476D01*
X206452380Y-110515238D01*
X206452380Y-110324761D01*
X206500000Y-110229523D01*
X206547619Y-110181904D01*
X206642857Y-110134285D01*
X206690476Y-110134285D01*
X206785714Y-110181904D01*
X206833333Y-110229523D01*
X206880952Y-110324761D01*
X206880952Y-110515238D01*
X206928571Y-110610476D01*
X206976190Y-110658095D01*
X207071428Y-110705714D01*
X207261904Y-110705714D01*
X207357142Y-110658095D01*
X207404761Y-110610476D01*
X207452380Y-110515238D01*
X207452380Y-110324761D01*
X207404761Y-110229523D01*
X207357142Y-110181904D01*
X207261904Y-110134285D01*
X207071428Y-110134285D01*
X206976190Y-110181904D01*
X206928571Y-110229523D01*
X206880952Y-110324761D01*
X205352380Y-116261904D02*
X204352380Y-116261904D01*
X205352380Y-115690476D02*
X204780952Y-116119047D01*
X204352380Y-115690476D02*
X204923809Y-116261904D01*
X182452380Y-121358095D02*
X181452380Y-121358095D01*
X181452380Y-121120000D01*
X181500000Y-120977142D01*
X181595238Y-120881904D01*
X181690476Y-120834285D01*
X181880952Y-120786666D01*
X182023809Y-120786666D01*
X182214285Y-120834285D01*
X182309523Y-120881904D01*
X182404761Y-120977142D01*
X182452380Y-121120000D01*
X182452380Y-121358095D01*
X181452380Y-120453333D02*
X181452380Y-119786666D01*
X182452380Y-120215238D01*
X185052380Y-113261904D02*
X184052380Y-113261904D01*
X185052380Y-112690476D02*
X184480952Y-113119047D01*
X184052380Y-112690476D02*
X184623809Y-113261904D01*
M02*
