G04 #@! TF.GenerationSoftware,KiCad,Pcbnew,(5.1.4)-1*
G04 #@! TF.CreationDate,2021-06-13T22:04:23-03:00*
G04 #@! TF.ProjectId,FUENTE,4655454e-5445-42e6-9b69-6361645f7063,rev?*
G04 #@! TF.SameCoordinates,Original*
G04 #@! TF.FileFunction,Copper,L2,Bot*
G04 #@! TF.FilePolarity,Positive*
%FSLAX46Y46*%
G04 Gerber Fmt 4.6, Leading zero omitted, Abs format (unit mm)*
G04 Created by KiCad (PCBNEW (5.1.4)-1) date 2021-06-13 22:04:23*
%MOMM*%
%LPD*%
G04 APERTURE LIST*
%ADD10O,2.500000X3.000000*%
%ADD11R,2.500000X3.000000*%
%ADD12O,3.200000X3.200000*%
%ADD13R,3.200000X3.200000*%
%ADD14C,1.800000*%
%ADD15R,1.800000X1.800000*%
%ADD16C,2.000000*%
%ADD17O,2.500000X2.500000*%
%ADD18R,2.500000X2.500000*%
%ADD19O,1.600000X1.600000*%
%ADD20C,1.600000*%
%ADD21O,2.200000X2.200000*%
%ADD22R,2.200000X2.200000*%
%ADD23C,2.500000*%
%ADD24C,1.799800*%
%ADD25C,0.254000*%
G04 APERTURE END LIST*
D10*
X220500000Y-109500000D03*
D11*
X220500000Y-114500000D03*
D10*
X220500000Y-119500000D03*
D12*
X187760000Y-122000000D03*
D13*
X203000000Y-122000000D03*
D10*
X220500000Y-98500000D03*
D11*
X220500000Y-103500000D03*
D10*
X174500000Y-106500000D03*
D11*
X174500000Y-101500000D03*
D14*
X197540000Y-114000000D03*
D15*
X195000000Y-114000000D03*
D16*
X213500000Y-119000000D03*
X213500000Y-123500000D03*
X207000000Y-119000000D03*
X207000000Y-123500000D03*
D14*
X190540000Y-114000000D03*
D15*
X188000000Y-114000000D03*
D17*
X189000000Y-93500000D03*
X204000000Y-93500000D03*
X209000000Y-93500000D03*
X214000000Y-93500000D03*
X214000000Y-101000000D03*
X209000000Y-101000000D03*
X204000000Y-101000000D03*
D18*
X189000000Y-101000000D03*
D19*
X203000000Y-116160000D03*
D20*
X203000000Y-106000000D03*
D19*
X187840000Y-106000000D03*
D20*
X198000000Y-106000000D03*
D21*
X207000000Y-105840000D03*
D22*
X207000000Y-116000000D03*
D12*
X182000000Y-128240000D03*
D13*
X182000000Y-113000000D03*
D23*
X174500000Y-101750000D02*
X174500000Y-101500000D01*
X178000000Y-105250000D02*
X174500000Y-101750000D01*
X182000000Y-128240000D02*
X178000000Y-124240000D01*
X178000000Y-124240000D02*
X178000000Y-105250000D01*
X209000000Y-101000000D02*
X213500000Y-105500000D01*
X213500000Y-105500000D02*
X213500000Y-119000000D01*
X189000000Y-93500000D02*
X189000000Y-97250000D01*
X195199800Y-112699800D02*
X195199800Y-108888700D01*
X195199800Y-108888700D02*
X191800400Y-105489300D01*
X191800400Y-105489300D02*
X191800400Y-99079500D01*
X191800400Y-99079500D02*
X189970900Y-97250000D01*
X189970900Y-97250000D02*
X189000000Y-97250000D01*
D24*
X195199800Y-112699800D02*
X195199800Y-113800200D01*
X195199800Y-113800200D02*
X195000000Y-114000000D01*
D23*
X209600400Y-120029700D02*
X207630100Y-122000000D01*
X207630100Y-122000000D02*
X207100000Y-122000000D01*
X207000000Y-116000000D02*
X207620600Y-116000000D01*
X207620600Y-116000000D02*
X209600400Y-117979800D01*
X209600400Y-117979800D02*
X209600400Y-120029700D01*
X209600400Y-120029700D02*
X213070700Y-123500000D01*
X213070700Y-123500000D02*
X213500000Y-123500000D01*
X207000000Y-123500000D02*
X207100000Y-123400000D01*
X207100000Y-123400000D02*
X207100000Y-122000000D01*
X203000000Y-122000000D02*
X207100000Y-122000000D01*
X220500000Y-114500000D02*
X216750000Y-114500000D01*
X216750000Y-114500000D02*
X216750000Y-103500000D01*
X207000000Y-116000000D02*
X207000000Y-110000000D01*
X207000000Y-110000000D02*
X203000000Y-106000000D01*
X220500000Y-103500000D02*
X216750000Y-103500000D01*
X214000000Y-101000000D02*
X214250000Y-101000000D01*
X214250000Y-101000000D02*
X216750000Y-103500000D01*
X187840000Y-106000000D02*
X187840000Y-109300000D01*
X187840000Y-109300000D02*
X190540000Y-112000000D01*
X190540000Y-112000000D02*
X190540000Y-114000000D01*
X204000000Y-101000000D02*
X200250000Y-101000000D01*
X198000000Y-106000000D02*
X200250000Y-103750000D01*
X200250000Y-103750000D02*
X200250000Y-101000000D01*
D25*
G36*
X219527769Y-87987578D02*
G01*
X218987578Y-88527769D01*
X218563153Y-89162967D01*
X218270804Y-89868761D01*
X218121765Y-90618027D01*
X218121765Y-91381973D01*
X218270804Y-92131239D01*
X218563153Y-92837033D01*
X218987578Y-93472231D01*
X219527769Y-94012422D01*
X220162967Y-94436847D01*
X220868761Y-94729196D01*
X221618027Y-94878235D01*
X222381973Y-94878235D01*
X223131239Y-94729196D01*
X223837033Y-94436847D01*
X224472231Y-94012422D01*
X225012422Y-93472231D01*
X225123001Y-93306738D01*
X225123000Y-124693261D01*
X225012422Y-124527769D01*
X224472231Y-123987578D01*
X223837033Y-123563153D01*
X223131239Y-123270804D01*
X222381973Y-123121765D01*
X221618027Y-123121765D01*
X220868761Y-123270804D01*
X220162967Y-123563153D01*
X219527769Y-123987578D01*
X218987578Y-124527769D01*
X218563153Y-125162967D01*
X218270804Y-125868761D01*
X218121765Y-126618027D01*
X218121765Y-127381973D01*
X218270804Y-128131239D01*
X218563153Y-128837033D01*
X218987578Y-129472231D01*
X219527769Y-130012422D01*
X219693261Y-130123000D01*
X183531261Y-130123000D01*
X183724452Y-129964452D01*
X184027741Y-129594893D01*
X184253105Y-129173267D01*
X184391883Y-128715775D01*
X184438743Y-128240000D01*
X184391883Y-127764225D01*
X184253105Y-127306733D01*
X184027741Y-126885107D01*
X183724452Y-126515548D01*
X183354893Y-126212259D01*
X182933267Y-125986895D01*
X182575773Y-125878451D01*
X180077000Y-123379679D01*
X180077000Y-122474503D01*
X185575950Y-122474503D01*
X185680407Y-122818861D01*
X185880118Y-123208835D01*
X186152071Y-123552354D01*
X186485816Y-123836217D01*
X186868527Y-124049516D01*
X187285497Y-124184053D01*
X187633000Y-124072642D01*
X187633000Y-122127000D01*
X187887000Y-122127000D01*
X187887000Y-124072642D01*
X188234503Y-124184053D01*
X188651473Y-124049516D01*
X189034184Y-123836217D01*
X189367929Y-123552354D01*
X189639882Y-123208835D01*
X189839593Y-122818861D01*
X189944050Y-122474503D01*
X189832362Y-122127000D01*
X187887000Y-122127000D01*
X187633000Y-122127000D01*
X185687638Y-122127000D01*
X185575950Y-122474503D01*
X180077000Y-122474503D01*
X180077000Y-121525497D01*
X185575950Y-121525497D01*
X185687638Y-121873000D01*
X187633000Y-121873000D01*
X187633000Y-119927358D01*
X187887000Y-119927358D01*
X187887000Y-121873000D01*
X189832362Y-121873000D01*
X189944050Y-121525497D01*
X189839593Y-121181139D01*
X189639882Y-120791165D01*
X189367929Y-120447646D01*
X189034184Y-120163783D01*
X188651473Y-119950484D01*
X188234503Y-119815947D01*
X187887000Y-119927358D01*
X187633000Y-119927358D01*
X187285497Y-119815947D01*
X186868527Y-119950484D01*
X186485816Y-120163783D01*
X186152071Y-120447646D01*
X185880118Y-120791165D01*
X185680407Y-121181139D01*
X185575950Y-121525497D01*
X180077000Y-121525497D01*
X180077000Y-116160000D01*
X201365128Y-116160000D01*
X201396542Y-116478948D01*
X201489575Y-116785638D01*
X201640654Y-117068286D01*
X201843971Y-117316029D01*
X202091714Y-117519346D01*
X202374362Y-117670425D01*
X202681052Y-117763458D01*
X202920075Y-117787000D01*
X203079925Y-117787000D01*
X203318948Y-117763458D01*
X203625638Y-117670425D01*
X203908286Y-117519346D01*
X204156029Y-117316029D01*
X204359346Y-117068286D01*
X204510425Y-116785638D01*
X204603458Y-116478948D01*
X204634872Y-116160000D01*
X204603458Y-115841052D01*
X204510425Y-115534362D01*
X204359346Y-115251714D01*
X204156029Y-115003971D01*
X203908286Y-114800654D01*
X203625638Y-114649575D01*
X203318948Y-114556542D01*
X203079925Y-114533000D01*
X202920075Y-114533000D01*
X202681052Y-114556542D01*
X202374362Y-114649575D01*
X202091714Y-114800654D01*
X201843971Y-115003971D01*
X201640654Y-115251714D01*
X201489575Y-115534362D01*
X201396542Y-115841052D01*
X201365128Y-116160000D01*
X180077000Y-116160000D01*
X180077000Y-115365078D01*
X180081990Y-115367745D01*
X180237880Y-115415034D01*
X180400000Y-115431001D01*
X183600000Y-115431001D01*
X183762120Y-115415034D01*
X183918010Y-115367745D01*
X184061679Y-115290952D01*
X184187606Y-115187606D01*
X184290952Y-115061679D01*
X184367745Y-114918010D01*
X184373208Y-114900000D01*
X186461928Y-114900000D01*
X186474188Y-115024482D01*
X186510498Y-115144180D01*
X186569463Y-115254494D01*
X186648815Y-115351185D01*
X186745506Y-115430537D01*
X186855820Y-115489502D01*
X186975518Y-115525812D01*
X187100000Y-115538072D01*
X187714250Y-115535000D01*
X187873000Y-115376250D01*
X187873000Y-114127000D01*
X186623750Y-114127000D01*
X186465000Y-114285750D01*
X186461928Y-114900000D01*
X184373208Y-114900000D01*
X184415034Y-114762120D01*
X184431001Y-114600000D01*
X184431001Y-113100000D01*
X186461928Y-113100000D01*
X186465000Y-113714250D01*
X186623750Y-113873000D01*
X187873000Y-113873000D01*
X187873000Y-112623750D01*
X187714250Y-112465000D01*
X187100000Y-112461928D01*
X186975518Y-112474188D01*
X186855820Y-112510498D01*
X186745506Y-112569463D01*
X186648815Y-112648815D01*
X186569463Y-112745506D01*
X186510498Y-112855820D01*
X186474188Y-112975518D01*
X186461928Y-113100000D01*
X184431001Y-113100000D01*
X184431001Y-111400000D01*
X184415034Y-111237880D01*
X184367745Y-111081990D01*
X184290952Y-110938321D01*
X184187606Y-110812394D01*
X184061679Y-110709048D01*
X183918010Y-110632255D01*
X183762120Y-110584966D01*
X183600000Y-110568999D01*
X180400000Y-110568999D01*
X180237880Y-110584966D01*
X180081990Y-110632255D01*
X180077000Y-110634922D01*
X180077000Y-109300000D01*
X185752951Y-109300000D01*
X185793054Y-109707163D01*
X185911819Y-110098679D01*
X186104683Y-110459502D01*
X186364234Y-110775767D01*
X186443487Y-110840808D01*
X188176714Y-112574036D01*
X188127000Y-112623750D01*
X188127000Y-113873000D01*
X188147000Y-113873000D01*
X188147000Y-114127000D01*
X188127000Y-114127000D01*
X188127000Y-115376250D01*
X188285750Y-115535000D01*
X188900000Y-115538072D01*
X189024482Y-115525812D01*
X189098029Y-115503502D01*
X189380499Y-115735318D01*
X189741322Y-115928182D01*
X190132838Y-116046947D01*
X190540000Y-116087049D01*
X190947163Y-116046947D01*
X191338679Y-115928182D01*
X191699502Y-115735318D01*
X192015767Y-115475767D01*
X192275318Y-115159502D01*
X192414024Y-114900000D01*
X193461928Y-114900000D01*
X193474188Y-115024482D01*
X193510498Y-115144180D01*
X193569463Y-115254494D01*
X193648815Y-115351185D01*
X193745506Y-115430537D01*
X193855820Y-115489502D01*
X193975518Y-115525812D01*
X194100000Y-115538072D01*
X194714250Y-115535000D01*
X194873000Y-115376250D01*
X194873000Y-114127000D01*
X193623750Y-114127000D01*
X193465000Y-114285750D01*
X193461928Y-114900000D01*
X192414024Y-114900000D01*
X192468182Y-114798679D01*
X192586947Y-114407163D01*
X192617000Y-114102029D01*
X192617000Y-113100000D01*
X193461928Y-113100000D01*
X193465000Y-113714250D01*
X193623750Y-113873000D01*
X194873000Y-113873000D01*
X194873000Y-112623750D01*
X195127000Y-112623750D01*
X195127000Y-113873000D01*
X195147000Y-113873000D01*
X195147000Y-114127000D01*
X195127000Y-114127000D01*
X195127000Y-115376250D01*
X195285750Y-115535000D01*
X195900000Y-115538072D01*
X196024482Y-115525812D01*
X196144180Y-115489502D01*
X196254494Y-115430537D01*
X196351185Y-115351185D01*
X196395203Y-115297549D01*
X196439102Y-115341448D01*
X196721959Y-115530447D01*
X197036253Y-115660632D01*
X197369905Y-115727000D01*
X197710095Y-115727000D01*
X198043747Y-115660632D01*
X198358041Y-115530447D01*
X198640898Y-115341448D01*
X198881448Y-115100898D01*
X199070447Y-114818041D01*
X199200632Y-114503747D01*
X199267000Y-114170095D01*
X199267000Y-113829905D01*
X199200632Y-113496253D01*
X199070447Y-113181959D01*
X198881448Y-112899102D01*
X198640898Y-112658552D01*
X198358041Y-112469553D01*
X198043747Y-112339368D01*
X197710095Y-112273000D01*
X197369905Y-112273000D01*
X197036253Y-112339368D01*
X196721959Y-112469553D01*
X196439102Y-112658552D01*
X196395203Y-112702451D01*
X196351185Y-112648815D01*
X196254494Y-112569463D01*
X196144180Y-112510498D01*
X196024482Y-112474188D01*
X195900000Y-112461928D01*
X195285750Y-112465000D01*
X195127000Y-112623750D01*
X194873000Y-112623750D01*
X194714250Y-112465000D01*
X194100000Y-112461928D01*
X193975518Y-112474188D01*
X193855820Y-112510498D01*
X193745506Y-112569463D01*
X193648815Y-112648815D01*
X193569463Y-112745506D01*
X193510498Y-112855820D01*
X193474188Y-112975518D01*
X193461928Y-113100000D01*
X192617000Y-113100000D01*
X192617000Y-112102029D01*
X192627049Y-112000000D01*
X192586947Y-111592836D01*
X192468182Y-111201321D01*
X192275318Y-110840497D01*
X192080806Y-110603484D01*
X192015767Y-110524233D01*
X191936514Y-110459192D01*
X189917000Y-108439679D01*
X189917000Y-106000000D01*
X195912951Y-106000000D01*
X195953054Y-106407163D01*
X196071819Y-106798679D01*
X196264683Y-107159502D01*
X196524234Y-107475766D01*
X196840498Y-107735317D01*
X197201321Y-107928181D01*
X197592837Y-108046946D01*
X198000000Y-108087049D01*
X198407163Y-108046946D01*
X198798679Y-107928181D01*
X199159502Y-107735317D01*
X199396515Y-107540806D01*
X200915136Y-106022186D01*
X200953054Y-106407163D01*
X201071819Y-106798679D01*
X201264683Y-107159502D01*
X201459194Y-107396515D01*
X204923001Y-110860323D01*
X204923000Y-115897970D01*
X204912951Y-116000000D01*
X204953053Y-116407163D01*
X205068999Y-116789386D01*
X205068999Y-117100000D01*
X205084966Y-117262120D01*
X205132255Y-117418010D01*
X205209048Y-117561679D01*
X205312394Y-117687606D01*
X205438321Y-117790952D01*
X205565222Y-117858782D01*
X205380934Y-118134591D01*
X205243211Y-118467084D01*
X205173000Y-118820056D01*
X205173000Y-119179944D01*
X205243211Y-119532916D01*
X205380934Y-119865409D01*
X205419415Y-119923000D01*
X205278378Y-119923000D01*
X205187606Y-119812394D01*
X205061679Y-119709048D01*
X204918010Y-119632255D01*
X204762120Y-119584966D01*
X204600000Y-119568999D01*
X201400000Y-119568999D01*
X201237880Y-119584966D01*
X201081990Y-119632255D01*
X200938321Y-119709048D01*
X200812394Y-119812394D01*
X200709048Y-119938321D01*
X200632255Y-120081990D01*
X200584966Y-120237880D01*
X200568999Y-120400000D01*
X200568999Y-123600000D01*
X200584966Y-123762120D01*
X200632255Y-123918010D01*
X200709048Y-124061679D01*
X200812394Y-124187606D01*
X200938321Y-124290952D01*
X201081990Y-124367745D01*
X201237880Y-124415034D01*
X201400000Y-124431001D01*
X204600000Y-124431001D01*
X204762120Y-124415034D01*
X204918010Y-124367745D01*
X205061679Y-124290952D01*
X205067921Y-124285829D01*
X205071819Y-124298679D01*
X205264683Y-124659502D01*
X205524234Y-124975766D01*
X205840498Y-125235317D01*
X206201321Y-125428181D01*
X206592837Y-125546946D01*
X207000000Y-125587049D01*
X207407163Y-125546946D01*
X207798679Y-125428181D01*
X208159502Y-125235317D01*
X208396515Y-125040806D01*
X208496506Y-124940815D01*
X208575767Y-124875767D01*
X208835318Y-124559502D01*
X209028182Y-124198679D01*
X209146947Y-123807163D01*
X209177000Y-123502029D01*
X209177000Y-123502028D01*
X209187049Y-123400001D01*
X209185289Y-123382132D01*
X209600400Y-122967021D01*
X211529887Y-124896508D01*
X211594933Y-124975767D01*
X211911198Y-125235318D01*
X212272021Y-125428182D01*
X212663537Y-125546947D01*
X212968671Y-125577000D01*
X212968672Y-125577000D01*
X213070699Y-125587049D01*
X213172726Y-125577000D01*
X213602029Y-125577000D01*
X213907163Y-125546947D01*
X214298679Y-125428182D01*
X214659502Y-125235318D01*
X214975767Y-124975767D01*
X215235318Y-124659502D01*
X215428182Y-124298679D01*
X215546947Y-123907163D01*
X215587049Y-123500000D01*
X215546947Y-123092837D01*
X215428182Y-122701321D01*
X215235318Y-122340498D01*
X214975767Y-122024233D01*
X214659502Y-121764682D01*
X214298679Y-121571818D01*
X213984549Y-121476528D01*
X213586546Y-121078525D01*
X213907163Y-121046947D01*
X214298679Y-120928182D01*
X214659502Y-120735318D01*
X214975767Y-120475767D01*
X215235318Y-120159502D01*
X215428182Y-119798679D01*
X215546947Y-119407163D01*
X215572475Y-119147972D01*
X218423000Y-119147972D01*
X218423000Y-119852029D01*
X218453053Y-120157163D01*
X218571818Y-120548679D01*
X218764682Y-120909502D01*
X219024234Y-121225767D01*
X219340499Y-121485318D01*
X219701322Y-121678182D01*
X220092838Y-121796947D01*
X220500000Y-121837049D01*
X220907163Y-121796947D01*
X221298679Y-121678182D01*
X221659502Y-121485318D01*
X221975767Y-121225767D01*
X222235318Y-120909502D01*
X222428182Y-120548678D01*
X222546947Y-120157162D01*
X222577000Y-119852028D01*
X222577000Y-119147971D01*
X222546947Y-118842837D01*
X222428182Y-118451321D01*
X222235318Y-118090498D01*
X221975767Y-117774233D01*
X221659502Y-117514682D01*
X221298678Y-117321818D01*
X220907162Y-117203053D01*
X220500000Y-117162951D01*
X220092837Y-117203053D01*
X219701321Y-117321818D01*
X219340498Y-117514682D01*
X219024233Y-117774233D01*
X218764682Y-118090498D01*
X218571818Y-118451322D01*
X218453053Y-118842838D01*
X218423000Y-119147972D01*
X215572475Y-119147972D01*
X215577000Y-119102029D01*
X215577000Y-116224241D01*
X215590498Y-116235318D01*
X215951321Y-116428182D01*
X216342837Y-116546947D01*
X216750000Y-116587049D01*
X216852029Y-116577000D01*
X218653690Y-116577000D01*
X218662394Y-116587606D01*
X218788321Y-116690952D01*
X218931990Y-116767745D01*
X219087880Y-116815034D01*
X219250000Y-116831001D01*
X221750000Y-116831001D01*
X221912120Y-116815034D01*
X222068010Y-116767745D01*
X222211679Y-116690952D01*
X222337606Y-116587606D01*
X222440952Y-116461679D01*
X222517745Y-116318010D01*
X222565034Y-116162120D01*
X222581001Y-116000000D01*
X222581001Y-114561406D01*
X222587049Y-114500000D01*
X222581001Y-114438594D01*
X222581001Y-113000000D01*
X222565034Y-112837880D01*
X222517745Y-112681990D01*
X222440952Y-112538321D01*
X222337606Y-112412394D01*
X222211679Y-112309048D01*
X222068010Y-112232255D01*
X221912120Y-112184966D01*
X221750000Y-112168999D01*
X219250000Y-112168999D01*
X219087880Y-112184966D01*
X218931990Y-112232255D01*
X218827000Y-112288374D01*
X218827000Y-110635257D01*
X219029274Y-110942024D01*
X219290086Y-111206044D01*
X219597394Y-111414109D01*
X219939389Y-111558223D01*
X220080355Y-111587695D01*
X220373000Y-111471572D01*
X220373000Y-109627000D01*
X220627000Y-109627000D01*
X220627000Y-111471572D01*
X220919645Y-111587695D01*
X221060611Y-111558223D01*
X221402606Y-111414109D01*
X221709914Y-111206044D01*
X221970726Y-110942024D01*
X222175019Y-110632195D01*
X222314942Y-110288464D01*
X222385118Y-109924040D01*
X222230385Y-109627000D01*
X220627000Y-109627000D01*
X220373000Y-109627000D01*
X220353000Y-109627000D01*
X220353000Y-109373000D01*
X220373000Y-109373000D01*
X220373000Y-107528428D01*
X220627000Y-107528428D01*
X220627000Y-109373000D01*
X222230385Y-109373000D01*
X222385118Y-109075960D01*
X222314942Y-108711536D01*
X222175019Y-108367805D01*
X221970726Y-108057976D01*
X221709914Y-107793956D01*
X221402606Y-107585891D01*
X221060611Y-107441777D01*
X220919645Y-107412305D01*
X220627000Y-107528428D01*
X220373000Y-107528428D01*
X220080355Y-107412305D01*
X219939389Y-107441777D01*
X219597394Y-107585891D01*
X219290086Y-107793956D01*
X219029274Y-108057976D01*
X218827000Y-108364743D01*
X218827000Y-105711626D01*
X218931990Y-105767745D01*
X219087880Y-105815034D01*
X219250000Y-105831001D01*
X221750000Y-105831001D01*
X221912120Y-105815034D01*
X222068010Y-105767745D01*
X222211679Y-105690952D01*
X222337606Y-105587606D01*
X222440952Y-105461679D01*
X222517745Y-105318010D01*
X222565034Y-105162120D01*
X222581001Y-105000000D01*
X222581001Y-103561406D01*
X222587049Y-103500000D01*
X222581001Y-103438594D01*
X222581001Y-102000000D01*
X222565034Y-101837880D01*
X222517745Y-101681990D01*
X222440952Y-101538321D01*
X222337606Y-101412394D01*
X222211679Y-101309048D01*
X222068010Y-101232255D01*
X221912120Y-101184966D01*
X221750000Y-101168999D01*
X219250000Y-101168999D01*
X219087880Y-101184966D01*
X218931990Y-101232255D01*
X218788321Y-101309048D01*
X218662394Y-101412394D01*
X218653690Y-101423000D01*
X217610322Y-101423000D01*
X215790812Y-99603491D01*
X215725767Y-99524233D01*
X215409502Y-99264682D01*
X215048679Y-99071818D01*
X214657163Y-98953053D01*
X214362589Y-98924040D01*
X218614882Y-98924040D01*
X218685058Y-99288464D01*
X218824981Y-99632195D01*
X219029274Y-99942024D01*
X219290086Y-100206044D01*
X219597394Y-100414109D01*
X219939389Y-100558223D01*
X220080355Y-100587695D01*
X220373000Y-100471572D01*
X220373000Y-98627000D01*
X220627000Y-98627000D01*
X220627000Y-100471572D01*
X220919645Y-100587695D01*
X221060611Y-100558223D01*
X221402606Y-100414109D01*
X221709914Y-100206044D01*
X221970726Y-99942024D01*
X222175019Y-99632195D01*
X222314942Y-99288464D01*
X222385118Y-98924040D01*
X222230385Y-98627000D01*
X220627000Y-98627000D01*
X220373000Y-98627000D01*
X218769615Y-98627000D01*
X218614882Y-98924040D01*
X214362589Y-98924040D01*
X214352029Y-98923000D01*
X214352027Y-98923000D01*
X214250000Y-98912951D01*
X214147973Y-98923000D01*
X213897971Y-98923000D01*
X213592837Y-98953053D01*
X213201321Y-99071818D01*
X212840498Y-99264682D01*
X212524233Y-99524233D01*
X212264682Y-99840498D01*
X212071818Y-100201321D01*
X211953053Y-100592837D01*
X211915136Y-100977815D01*
X210540812Y-99603491D01*
X210475767Y-99524233D01*
X210159502Y-99264682D01*
X209798679Y-99071818D01*
X209407163Y-98953053D01*
X209102029Y-98923000D01*
X209102027Y-98923000D01*
X209000000Y-98912951D01*
X208897973Y-98923000D01*
X208897971Y-98923000D01*
X208592837Y-98953053D01*
X208201321Y-99071818D01*
X207840498Y-99264682D01*
X207524233Y-99524233D01*
X207264682Y-99840498D01*
X207071818Y-100201321D01*
X206953053Y-100592837D01*
X206912951Y-101000000D01*
X206953053Y-101407163D01*
X207071818Y-101798679D01*
X207264682Y-102159502D01*
X207524233Y-102475767D01*
X207603491Y-102540812D01*
X211423000Y-106360322D01*
X211423001Y-116983593D01*
X211335718Y-116820298D01*
X211076167Y-116504033D01*
X210996914Y-116438992D01*
X209161412Y-114603491D01*
X209096367Y-114524233D01*
X209077000Y-114508339D01*
X209077000Y-110102026D01*
X209087049Y-109999999D01*
X209077000Y-109897971D01*
X209046947Y-109592837D01*
X208928182Y-109201321D01*
X208735318Y-108840498D01*
X208475767Y-108524233D01*
X208396514Y-108459192D01*
X207450118Y-107512797D01*
X207609094Y-107464575D01*
X207914329Y-107314531D01*
X208184427Y-107107822D01*
X208409008Y-106852391D01*
X208579442Y-106558054D01*
X208689179Y-106236123D01*
X208571600Y-105967000D01*
X207127000Y-105967000D01*
X207127000Y-105987000D01*
X206873000Y-105987000D01*
X206873000Y-105967000D01*
X206853000Y-105967000D01*
X206853000Y-105713000D01*
X206873000Y-105713000D01*
X206873000Y-104268875D01*
X207127000Y-104268875D01*
X207127000Y-105713000D01*
X208571600Y-105713000D01*
X208689179Y-105443877D01*
X208579442Y-105121946D01*
X208409008Y-104827609D01*
X208184427Y-104572178D01*
X207914329Y-104365469D01*
X207609094Y-104215425D01*
X207396122Y-104150825D01*
X207127000Y-104268875D01*
X206873000Y-104268875D01*
X206603878Y-104150825D01*
X206390906Y-104215425D01*
X206085671Y-104365469D01*
X205815573Y-104572178D01*
X205590992Y-104827609D01*
X205420558Y-105121946D01*
X205328712Y-105391391D01*
X204396515Y-104459194D01*
X204159502Y-104264683D01*
X203798679Y-104071819D01*
X203407163Y-103953054D01*
X203000000Y-103912951D01*
X202592837Y-103953054D01*
X202308557Y-104039289D01*
X202337050Y-103750000D01*
X202327000Y-103647963D01*
X202327000Y-103077000D01*
X204102029Y-103077000D01*
X204407163Y-103046947D01*
X204798679Y-102928182D01*
X205159502Y-102735318D01*
X205475767Y-102475767D01*
X205735318Y-102159502D01*
X205928182Y-101798679D01*
X206046947Y-101407163D01*
X206087049Y-101000000D01*
X206046947Y-100592837D01*
X205928182Y-100201321D01*
X205735318Y-99840498D01*
X205475767Y-99524233D01*
X205159502Y-99264682D01*
X204798679Y-99071818D01*
X204407163Y-98953053D01*
X204102029Y-98923000D01*
X200352029Y-98923000D01*
X200250000Y-98912951D01*
X200147971Y-98923000D01*
X199842837Y-98953053D01*
X199451321Y-99071818D01*
X199090498Y-99264682D01*
X198774233Y-99524233D01*
X198514682Y-99840498D01*
X198321818Y-100201321D01*
X198203053Y-100592837D01*
X198162951Y-101000000D01*
X198173001Y-101102039D01*
X198173000Y-102889678D01*
X196459194Y-104603485D01*
X196264683Y-104840498D01*
X196071819Y-105201321D01*
X195953054Y-105592837D01*
X195912951Y-106000000D01*
X189917000Y-106000000D01*
X189917000Y-105897971D01*
X189886947Y-105592837D01*
X189768182Y-105201321D01*
X189575318Y-104840498D01*
X189315767Y-104524233D01*
X188999502Y-104264682D01*
X188638678Y-104071818D01*
X188247162Y-103953053D01*
X187840000Y-103912951D01*
X187432837Y-103953053D01*
X187041321Y-104071818D01*
X186680498Y-104264682D01*
X186364233Y-104524233D01*
X186104682Y-104840498D01*
X185911818Y-105201322D01*
X185793053Y-105592838D01*
X185763000Y-105897972D01*
X185763001Y-109197964D01*
X185752951Y-109300000D01*
X180077000Y-109300000D01*
X180077000Y-105352026D01*
X180087049Y-105249999D01*
X180071570Y-105092837D01*
X180046947Y-104842837D01*
X179928182Y-104451321D01*
X179735318Y-104090498D01*
X179475767Y-103774233D01*
X179396508Y-103709187D01*
X176581001Y-100893680D01*
X176581001Y-100000000D01*
X176565034Y-99837880D01*
X176538376Y-99750000D01*
X186918999Y-99750000D01*
X186918999Y-102250000D01*
X186934966Y-102412120D01*
X186982255Y-102568010D01*
X187059048Y-102711679D01*
X187162394Y-102837606D01*
X187288321Y-102940952D01*
X187431990Y-103017745D01*
X187587880Y-103065034D01*
X187750000Y-103081001D01*
X190250000Y-103081001D01*
X190412120Y-103065034D01*
X190568010Y-103017745D01*
X190711679Y-102940952D01*
X190837606Y-102837606D01*
X190940952Y-102711679D01*
X191017745Y-102568010D01*
X191065034Y-102412120D01*
X191081001Y-102250000D01*
X191081001Y-99750000D01*
X191065034Y-99587880D01*
X191017745Y-99431990D01*
X190940952Y-99288321D01*
X190837606Y-99162394D01*
X190711679Y-99059048D01*
X190568010Y-98982255D01*
X190412120Y-98934966D01*
X190250000Y-98918999D01*
X187750000Y-98918999D01*
X187587880Y-98934966D01*
X187431990Y-98982255D01*
X187288321Y-99059048D01*
X187162394Y-99162394D01*
X187059048Y-99288321D01*
X186982255Y-99431990D01*
X186934966Y-99587880D01*
X186918999Y-99750000D01*
X176538376Y-99750000D01*
X176517745Y-99681990D01*
X176440952Y-99538321D01*
X176337606Y-99412394D01*
X176211679Y-99309048D01*
X176068010Y-99232255D01*
X175912120Y-99184966D01*
X175750000Y-99168999D01*
X173250000Y-99168999D01*
X173087880Y-99184966D01*
X172931990Y-99232255D01*
X172788321Y-99309048D01*
X172662394Y-99412394D01*
X172559048Y-99538321D01*
X172482255Y-99681990D01*
X172434966Y-99837880D01*
X172418999Y-100000000D01*
X172418999Y-101688595D01*
X172412951Y-101750000D01*
X172418999Y-101811405D01*
X172418999Y-103000000D01*
X172434966Y-103162120D01*
X172482255Y-103318010D01*
X172559048Y-103461679D01*
X172662394Y-103587606D01*
X172788321Y-103690952D01*
X172931990Y-103767745D01*
X173087880Y-103815034D01*
X173250000Y-103831001D01*
X173643680Y-103831001D01*
X174320127Y-104507448D01*
X174080355Y-104412305D01*
X173939389Y-104441777D01*
X173597394Y-104585891D01*
X173290086Y-104793956D01*
X173029274Y-105057976D01*
X172824981Y-105367805D01*
X172685058Y-105711536D01*
X172614882Y-106075960D01*
X172769615Y-106373000D01*
X174373000Y-106373000D01*
X174373000Y-106353000D01*
X174627000Y-106353000D01*
X174627000Y-106373000D01*
X174647000Y-106373000D01*
X174647000Y-106627000D01*
X174627000Y-106627000D01*
X174627000Y-108471572D01*
X174919645Y-108587695D01*
X175060611Y-108558223D01*
X175402606Y-108414109D01*
X175709914Y-108206044D01*
X175923001Y-107990336D01*
X175923000Y-124137973D01*
X175912951Y-124240000D01*
X175923000Y-124342027D01*
X175923000Y-124342028D01*
X175933523Y-124448870D01*
X175472231Y-123987578D01*
X174837033Y-123563153D01*
X174131239Y-123270804D01*
X173381973Y-123121765D01*
X172618027Y-123121765D01*
X171868761Y-123270804D01*
X171162967Y-123563153D01*
X170527769Y-123987578D01*
X169987578Y-124527769D01*
X169877000Y-124693261D01*
X169877000Y-106924040D01*
X172614882Y-106924040D01*
X172685058Y-107288464D01*
X172824981Y-107632195D01*
X173029274Y-107942024D01*
X173290086Y-108206044D01*
X173597394Y-108414109D01*
X173939389Y-108558223D01*
X174080355Y-108587695D01*
X174373000Y-108471572D01*
X174373000Y-106627000D01*
X172769615Y-106627000D01*
X172614882Y-106924040D01*
X169877000Y-106924040D01*
X169877000Y-98075960D01*
X218614882Y-98075960D01*
X218769615Y-98373000D01*
X220373000Y-98373000D01*
X220373000Y-96528428D01*
X220627000Y-96528428D01*
X220627000Y-98373000D01*
X222230385Y-98373000D01*
X222385118Y-98075960D01*
X222314942Y-97711536D01*
X222175019Y-97367805D01*
X221970726Y-97057976D01*
X221709914Y-96793956D01*
X221402606Y-96585891D01*
X221060611Y-96441777D01*
X220919645Y-96412305D01*
X220627000Y-96528428D01*
X220373000Y-96528428D01*
X220080355Y-96412305D01*
X219939389Y-96441777D01*
X219597394Y-96585891D01*
X219290086Y-96793956D01*
X219029274Y-97057976D01*
X218824981Y-97367805D01*
X218685058Y-97711536D01*
X218614882Y-98075960D01*
X169877000Y-98075960D01*
X169877000Y-93306739D01*
X169987578Y-93472231D01*
X170527769Y-94012422D01*
X171162967Y-94436847D01*
X171868761Y-94729196D01*
X172618027Y-94878235D01*
X173381973Y-94878235D01*
X174131239Y-94729196D01*
X174837033Y-94436847D01*
X175472231Y-94012422D01*
X175565007Y-93919646D01*
X187162301Y-93919646D01*
X187279481Y-94270100D01*
X187462779Y-94590959D01*
X187705152Y-94869893D01*
X187997285Y-95096183D01*
X188327952Y-95261133D01*
X188580355Y-95337695D01*
X188873000Y-95221572D01*
X188873000Y-93627000D01*
X189127000Y-93627000D01*
X189127000Y-95221572D01*
X189419645Y-95337695D01*
X189672048Y-95261133D01*
X190002715Y-95096183D01*
X190294848Y-94869893D01*
X190537221Y-94590959D01*
X190720519Y-94270100D01*
X190837699Y-93919646D01*
X190721971Y-93627000D01*
X189127000Y-93627000D01*
X188873000Y-93627000D01*
X187278029Y-93627000D01*
X187162301Y-93919646D01*
X175565007Y-93919646D01*
X175984653Y-93500000D01*
X201912951Y-93500000D01*
X201953053Y-93907163D01*
X202071818Y-94298679D01*
X202264682Y-94659502D01*
X202524233Y-94975767D01*
X202840498Y-95235318D01*
X203201321Y-95428182D01*
X203592837Y-95546947D01*
X203897971Y-95577000D01*
X204102029Y-95577000D01*
X204407163Y-95546947D01*
X204798679Y-95428182D01*
X205159502Y-95235318D01*
X205475767Y-94975767D01*
X205735318Y-94659502D01*
X205928182Y-94298679D01*
X206046947Y-93907163D01*
X206087049Y-93500000D01*
X206912951Y-93500000D01*
X206953053Y-93907163D01*
X207071818Y-94298679D01*
X207264682Y-94659502D01*
X207524233Y-94975767D01*
X207840498Y-95235318D01*
X208201321Y-95428182D01*
X208592837Y-95546947D01*
X208897971Y-95577000D01*
X209102029Y-95577000D01*
X209407163Y-95546947D01*
X209798679Y-95428182D01*
X210159502Y-95235318D01*
X210475767Y-94975767D01*
X210735318Y-94659502D01*
X210928182Y-94298679D01*
X211046947Y-93907163D01*
X211087049Y-93500000D01*
X211912951Y-93500000D01*
X211953053Y-93907163D01*
X212071818Y-94298679D01*
X212264682Y-94659502D01*
X212524233Y-94975767D01*
X212840498Y-95235318D01*
X213201321Y-95428182D01*
X213592837Y-95546947D01*
X213897971Y-95577000D01*
X214102029Y-95577000D01*
X214407163Y-95546947D01*
X214798679Y-95428182D01*
X215159502Y-95235318D01*
X215475767Y-94975767D01*
X215735318Y-94659502D01*
X215928182Y-94298679D01*
X216046947Y-93907163D01*
X216087049Y-93500000D01*
X216046947Y-93092837D01*
X215928182Y-92701321D01*
X215735318Y-92340498D01*
X215475767Y-92024233D01*
X215159502Y-91764682D01*
X214798679Y-91571818D01*
X214407163Y-91453053D01*
X214102029Y-91423000D01*
X213897971Y-91423000D01*
X213592837Y-91453053D01*
X213201321Y-91571818D01*
X212840498Y-91764682D01*
X212524233Y-92024233D01*
X212264682Y-92340498D01*
X212071818Y-92701321D01*
X211953053Y-93092837D01*
X211912951Y-93500000D01*
X211087049Y-93500000D01*
X211046947Y-93092837D01*
X210928182Y-92701321D01*
X210735318Y-92340498D01*
X210475767Y-92024233D01*
X210159502Y-91764682D01*
X209798679Y-91571818D01*
X209407163Y-91453053D01*
X209102029Y-91423000D01*
X208897971Y-91423000D01*
X208592837Y-91453053D01*
X208201321Y-91571818D01*
X207840498Y-91764682D01*
X207524233Y-92024233D01*
X207264682Y-92340498D01*
X207071818Y-92701321D01*
X206953053Y-93092837D01*
X206912951Y-93500000D01*
X206087049Y-93500000D01*
X206046947Y-93092837D01*
X205928182Y-92701321D01*
X205735318Y-92340498D01*
X205475767Y-92024233D01*
X205159502Y-91764682D01*
X204798679Y-91571818D01*
X204407163Y-91453053D01*
X204102029Y-91423000D01*
X203897971Y-91423000D01*
X203592837Y-91453053D01*
X203201321Y-91571818D01*
X202840498Y-91764682D01*
X202524233Y-92024233D01*
X202264682Y-92340498D01*
X202071818Y-92701321D01*
X201953053Y-93092837D01*
X201912951Y-93500000D01*
X175984653Y-93500000D01*
X176012422Y-93472231D01*
X176274265Y-93080354D01*
X187162301Y-93080354D01*
X187278029Y-93373000D01*
X188873000Y-93373000D01*
X188873000Y-91778428D01*
X189127000Y-91778428D01*
X189127000Y-93373000D01*
X190721971Y-93373000D01*
X190837699Y-93080354D01*
X190720519Y-92729900D01*
X190537221Y-92409041D01*
X190294848Y-92130107D01*
X190002715Y-91903817D01*
X189672048Y-91738867D01*
X189419645Y-91662305D01*
X189127000Y-91778428D01*
X188873000Y-91778428D01*
X188580355Y-91662305D01*
X188327952Y-91738867D01*
X187997285Y-91903817D01*
X187705152Y-92130107D01*
X187462779Y-92409041D01*
X187279481Y-92729900D01*
X187162301Y-93080354D01*
X176274265Y-93080354D01*
X176436847Y-92837033D01*
X176729196Y-92131239D01*
X176878235Y-91381973D01*
X176878235Y-90618027D01*
X176729196Y-89868761D01*
X176436847Y-89162967D01*
X176012422Y-88527769D01*
X175472231Y-87987578D01*
X175306739Y-87877000D01*
X219693261Y-87877000D01*
X219527769Y-87987578D01*
X219527769Y-87987578D01*
G37*
X219527769Y-87987578D02*
X218987578Y-88527769D01*
X218563153Y-89162967D01*
X218270804Y-89868761D01*
X218121765Y-90618027D01*
X218121765Y-91381973D01*
X218270804Y-92131239D01*
X218563153Y-92837033D01*
X218987578Y-93472231D01*
X219527769Y-94012422D01*
X220162967Y-94436847D01*
X220868761Y-94729196D01*
X221618027Y-94878235D01*
X222381973Y-94878235D01*
X223131239Y-94729196D01*
X223837033Y-94436847D01*
X224472231Y-94012422D01*
X225012422Y-93472231D01*
X225123001Y-93306738D01*
X225123000Y-124693261D01*
X225012422Y-124527769D01*
X224472231Y-123987578D01*
X223837033Y-123563153D01*
X223131239Y-123270804D01*
X222381973Y-123121765D01*
X221618027Y-123121765D01*
X220868761Y-123270804D01*
X220162967Y-123563153D01*
X219527769Y-123987578D01*
X218987578Y-124527769D01*
X218563153Y-125162967D01*
X218270804Y-125868761D01*
X218121765Y-126618027D01*
X218121765Y-127381973D01*
X218270804Y-128131239D01*
X218563153Y-128837033D01*
X218987578Y-129472231D01*
X219527769Y-130012422D01*
X219693261Y-130123000D01*
X183531261Y-130123000D01*
X183724452Y-129964452D01*
X184027741Y-129594893D01*
X184253105Y-129173267D01*
X184391883Y-128715775D01*
X184438743Y-128240000D01*
X184391883Y-127764225D01*
X184253105Y-127306733D01*
X184027741Y-126885107D01*
X183724452Y-126515548D01*
X183354893Y-126212259D01*
X182933267Y-125986895D01*
X182575773Y-125878451D01*
X180077000Y-123379679D01*
X180077000Y-122474503D01*
X185575950Y-122474503D01*
X185680407Y-122818861D01*
X185880118Y-123208835D01*
X186152071Y-123552354D01*
X186485816Y-123836217D01*
X186868527Y-124049516D01*
X187285497Y-124184053D01*
X187633000Y-124072642D01*
X187633000Y-122127000D01*
X187887000Y-122127000D01*
X187887000Y-124072642D01*
X188234503Y-124184053D01*
X188651473Y-124049516D01*
X189034184Y-123836217D01*
X189367929Y-123552354D01*
X189639882Y-123208835D01*
X189839593Y-122818861D01*
X189944050Y-122474503D01*
X189832362Y-122127000D01*
X187887000Y-122127000D01*
X187633000Y-122127000D01*
X185687638Y-122127000D01*
X185575950Y-122474503D01*
X180077000Y-122474503D01*
X180077000Y-121525497D01*
X185575950Y-121525497D01*
X185687638Y-121873000D01*
X187633000Y-121873000D01*
X187633000Y-119927358D01*
X187887000Y-119927358D01*
X187887000Y-121873000D01*
X189832362Y-121873000D01*
X189944050Y-121525497D01*
X189839593Y-121181139D01*
X189639882Y-120791165D01*
X189367929Y-120447646D01*
X189034184Y-120163783D01*
X188651473Y-119950484D01*
X188234503Y-119815947D01*
X187887000Y-119927358D01*
X187633000Y-119927358D01*
X187285497Y-119815947D01*
X186868527Y-119950484D01*
X186485816Y-120163783D01*
X186152071Y-120447646D01*
X185880118Y-120791165D01*
X185680407Y-121181139D01*
X185575950Y-121525497D01*
X180077000Y-121525497D01*
X180077000Y-116160000D01*
X201365128Y-116160000D01*
X201396542Y-116478948D01*
X201489575Y-116785638D01*
X201640654Y-117068286D01*
X201843971Y-117316029D01*
X202091714Y-117519346D01*
X202374362Y-117670425D01*
X202681052Y-117763458D01*
X202920075Y-117787000D01*
X203079925Y-117787000D01*
X203318948Y-117763458D01*
X203625638Y-117670425D01*
X203908286Y-117519346D01*
X204156029Y-117316029D01*
X204359346Y-117068286D01*
X204510425Y-116785638D01*
X204603458Y-116478948D01*
X204634872Y-116160000D01*
X204603458Y-115841052D01*
X204510425Y-115534362D01*
X204359346Y-115251714D01*
X204156029Y-115003971D01*
X203908286Y-114800654D01*
X203625638Y-114649575D01*
X203318948Y-114556542D01*
X203079925Y-114533000D01*
X202920075Y-114533000D01*
X202681052Y-114556542D01*
X202374362Y-114649575D01*
X202091714Y-114800654D01*
X201843971Y-115003971D01*
X201640654Y-115251714D01*
X201489575Y-115534362D01*
X201396542Y-115841052D01*
X201365128Y-116160000D01*
X180077000Y-116160000D01*
X180077000Y-115365078D01*
X180081990Y-115367745D01*
X180237880Y-115415034D01*
X180400000Y-115431001D01*
X183600000Y-115431001D01*
X183762120Y-115415034D01*
X183918010Y-115367745D01*
X184061679Y-115290952D01*
X184187606Y-115187606D01*
X184290952Y-115061679D01*
X184367745Y-114918010D01*
X184373208Y-114900000D01*
X186461928Y-114900000D01*
X186474188Y-115024482D01*
X186510498Y-115144180D01*
X186569463Y-115254494D01*
X186648815Y-115351185D01*
X186745506Y-115430537D01*
X186855820Y-115489502D01*
X186975518Y-115525812D01*
X187100000Y-115538072D01*
X187714250Y-115535000D01*
X187873000Y-115376250D01*
X187873000Y-114127000D01*
X186623750Y-114127000D01*
X186465000Y-114285750D01*
X186461928Y-114900000D01*
X184373208Y-114900000D01*
X184415034Y-114762120D01*
X184431001Y-114600000D01*
X184431001Y-113100000D01*
X186461928Y-113100000D01*
X186465000Y-113714250D01*
X186623750Y-113873000D01*
X187873000Y-113873000D01*
X187873000Y-112623750D01*
X187714250Y-112465000D01*
X187100000Y-112461928D01*
X186975518Y-112474188D01*
X186855820Y-112510498D01*
X186745506Y-112569463D01*
X186648815Y-112648815D01*
X186569463Y-112745506D01*
X186510498Y-112855820D01*
X186474188Y-112975518D01*
X186461928Y-113100000D01*
X184431001Y-113100000D01*
X184431001Y-111400000D01*
X184415034Y-111237880D01*
X184367745Y-111081990D01*
X184290952Y-110938321D01*
X184187606Y-110812394D01*
X184061679Y-110709048D01*
X183918010Y-110632255D01*
X183762120Y-110584966D01*
X183600000Y-110568999D01*
X180400000Y-110568999D01*
X180237880Y-110584966D01*
X180081990Y-110632255D01*
X180077000Y-110634922D01*
X180077000Y-109300000D01*
X185752951Y-109300000D01*
X185793054Y-109707163D01*
X185911819Y-110098679D01*
X186104683Y-110459502D01*
X186364234Y-110775767D01*
X186443487Y-110840808D01*
X188176714Y-112574036D01*
X188127000Y-112623750D01*
X188127000Y-113873000D01*
X188147000Y-113873000D01*
X188147000Y-114127000D01*
X188127000Y-114127000D01*
X188127000Y-115376250D01*
X188285750Y-115535000D01*
X188900000Y-115538072D01*
X189024482Y-115525812D01*
X189098029Y-115503502D01*
X189380499Y-115735318D01*
X189741322Y-115928182D01*
X190132838Y-116046947D01*
X190540000Y-116087049D01*
X190947163Y-116046947D01*
X191338679Y-115928182D01*
X191699502Y-115735318D01*
X192015767Y-115475767D01*
X192275318Y-115159502D01*
X192414024Y-114900000D01*
X193461928Y-114900000D01*
X193474188Y-115024482D01*
X193510498Y-115144180D01*
X193569463Y-115254494D01*
X193648815Y-115351185D01*
X193745506Y-115430537D01*
X193855820Y-115489502D01*
X193975518Y-115525812D01*
X194100000Y-115538072D01*
X194714250Y-115535000D01*
X194873000Y-115376250D01*
X194873000Y-114127000D01*
X193623750Y-114127000D01*
X193465000Y-114285750D01*
X193461928Y-114900000D01*
X192414024Y-114900000D01*
X192468182Y-114798679D01*
X192586947Y-114407163D01*
X192617000Y-114102029D01*
X192617000Y-113100000D01*
X193461928Y-113100000D01*
X193465000Y-113714250D01*
X193623750Y-113873000D01*
X194873000Y-113873000D01*
X194873000Y-112623750D01*
X195127000Y-112623750D01*
X195127000Y-113873000D01*
X195147000Y-113873000D01*
X195147000Y-114127000D01*
X195127000Y-114127000D01*
X195127000Y-115376250D01*
X195285750Y-115535000D01*
X195900000Y-115538072D01*
X196024482Y-115525812D01*
X196144180Y-115489502D01*
X196254494Y-115430537D01*
X196351185Y-115351185D01*
X196395203Y-115297549D01*
X196439102Y-115341448D01*
X196721959Y-115530447D01*
X197036253Y-115660632D01*
X197369905Y-115727000D01*
X197710095Y-115727000D01*
X198043747Y-115660632D01*
X198358041Y-115530447D01*
X198640898Y-115341448D01*
X198881448Y-115100898D01*
X199070447Y-114818041D01*
X199200632Y-114503747D01*
X199267000Y-114170095D01*
X199267000Y-113829905D01*
X199200632Y-113496253D01*
X199070447Y-113181959D01*
X198881448Y-112899102D01*
X198640898Y-112658552D01*
X198358041Y-112469553D01*
X198043747Y-112339368D01*
X197710095Y-112273000D01*
X197369905Y-112273000D01*
X197036253Y-112339368D01*
X196721959Y-112469553D01*
X196439102Y-112658552D01*
X196395203Y-112702451D01*
X196351185Y-112648815D01*
X196254494Y-112569463D01*
X196144180Y-112510498D01*
X196024482Y-112474188D01*
X195900000Y-112461928D01*
X195285750Y-112465000D01*
X195127000Y-112623750D01*
X194873000Y-112623750D01*
X194714250Y-112465000D01*
X194100000Y-112461928D01*
X193975518Y-112474188D01*
X193855820Y-112510498D01*
X193745506Y-112569463D01*
X193648815Y-112648815D01*
X193569463Y-112745506D01*
X193510498Y-112855820D01*
X193474188Y-112975518D01*
X193461928Y-113100000D01*
X192617000Y-113100000D01*
X192617000Y-112102029D01*
X192627049Y-112000000D01*
X192586947Y-111592836D01*
X192468182Y-111201321D01*
X192275318Y-110840497D01*
X192080806Y-110603484D01*
X192015767Y-110524233D01*
X191936514Y-110459192D01*
X189917000Y-108439679D01*
X189917000Y-106000000D01*
X195912951Y-106000000D01*
X195953054Y-106407163D01*
X196071819Y-106798679D01*
X196264683Y-107159502D01*
X196524234Y-107475766D01*
X196840498Y-107735317D01*
X197201321Y-107928181D01*
X197592837Y-108046946D01*
X198000000Y-108087049D01*
X198407163Y-108046946D01*
X198798679Y-107928181D01*
X199159502Y-107735317D01*
X199396515Y-107540806D01*
X200915136Y-106022186D01*
X200953054Y-106407163D01*
X201071819Y-106798679D01*
X201264683Y-107159502D01*
X201459194Y-107396515D01*
X204923001Y-110860323D01*
X204923000Y-115897970D01*
X204912951Y-116000000D01*
X204953053Y-116407163D01*
X205068999Y-116789386D01*
X205068999Y-117100000D01*
X205084966Y-117262120D01*
X205132255Y-117418010D01*
X205209048Y-117561679D01*
X205312394Y-117687606D01*
X205438321Y-117790952D01*
X205565222Y-117858782D01*
X205380934Y-118134591D01*
X205243211Y-118467084D01*
X205173000Y-118820056D01*
X205173000Y-119179944D01*
X205243211Y-119532916D01*
X205380934Y-119865409D01*
X205419415Y-119923000D01*
X205278378Y-119923000D01*
X205187606Y-119812394D01*
X205061679Y-119709048D01*
X204918010Y-119632255D01*
X204762120Y-119584966D01*
X204600000Y-119568999D01*
X201400000Y-119568999D01*
X201237880Y-119584966D01*
X201081990Y-119632255D01*
X200938321Y-119709048D01*
X200812394Y-119812394D01*
X200709048Y-119938321D01*
X200632255Y-120081990D01*
X200584966Y-120237880D01*
X200568999Y-120400000D01*
X200568999Y-123600000D01*
X200584966Y-123762120D01*
X200632255Y-123918010D01*
X200709048Y-124061679D01*
X200812394Y-124187606D01*
X200938321Y-124290952D01*
X201081990Y-124367745D01*
X201237880Y-124415034D01*
X201400000Y-124431001D01*
X204600000Y-124431001D01*
X204762120Y-124415034D01*
X204918010Y-124367745D01*
X205061679Y-124290952D01*
X205067921Y-124285829D01*
X205071819Y-124298679D01*
X205264683Y-124659502D01*
X205524234Y-124975766D01*
X205840498Y-125235317D01*
X206201321Y-125428181D01*
X206592837Y-125546946D01*
X207000000Y-125587049D01*
X207407163Y-125546946D01*
X207798679Y-125428181D01*
X208159502Y-125235317D01*
X208396515Y-125040806D01*
X208496506Y-124940815D01*
X208575767Y-124875767D01*
X208835318Y-124559502D01*
X209028182Y-124198679D01*
X209146947Y-123807163D01*
X209177000Y-123502029D01*
X209177000Y-123502028D01*
X209187049Y-123400001D01*
X209185289Y-123382132D01*
X209600400Y-122967021D01*
X211529887Y-124896508D01*
X211594933Y-124975767D01*
X211911198Y-125235318D01*
X212272021Y-125428182D01*
X212663537Y-125546947D01*
X212968671Y-125577000D01*
X212968672Y-125577000D01*
X213070699Y-125587049D01*
X213172726Y-125577000D01*
X213602029Y-125577000D01*
X213907163Y-125546947D01*
X214298679Y-125428182D01*
X214659502Y-125235318D01*
X214975767Y-124975767D01*
X215235318Y-124659502D01*
X215428182Y-124298679D01*
X215546947Y-123907163D01*
X215587049Y-123500000D01*
X215546947Y-123092837D01*
X215428182Y-122701321D01*
X215235318Y-122340498D01*
X214975767Y-122024233D01*
X214659502Y-121764682D01*
X214298679Y-121571818D01*
X213984549Y-121476528D01*
X213586546Y-121078525D01*
X213907163Y-121046947D01*
X214298679Y-120928182D01*
X214659502Y-120735318D01*
X214975767Y-120475767D01*
X215235318Y-120159502D01*
X215428182Y-119798679D01*
X215546947Y-119407163D01*
X215572475Y-119147972D01*
X218423000Y-119147972D01*
X218423000Y-119852029D01*
X218453053Y-120157163D01*
X218571818Y-120548679D01*
X218764682Y-120909502D01*
X219024234Y-121225767D01*
X219340499Y-121485318D01*
X219701322Y-121678182D01*
X220092838Y-121796947D01*
X220500000Y-121837049D01*
X220907163Y-121796947D01*
X221298679Y-121678182D01*
X221659502Y-121485318D01*
X221975767Y-121225767D01*
X222235318Y-120909502D01*
X222428182Y-120548678D01*
X222546947Y-120157162D01*
X222577000Y-119852028D01*
X222577000Y-119147971D01*
X222546947Y-118842837D01*
X222428182Y-118451321D01*
X222235318Y-118090498D01*
X221975767Y-117774233D01*
X221659502Y-117514682D01*
X221298678Y-117321818D01*
X220907162Y-117203053D01*
X220500000Y-117162951D01*
X220092837Y-117203053D01*
X219701321Y-117321818D01*
X219340498Y-117514682D01*
X219024233Y-117774233D01*
X218764682Y-118090498D01*
X218571818Y-118451322D01*
X218453053Y-118842838D01*
X218423000Y-119147972D01*
X215572475Y-119147972D01*
X215577000Y-119102029D01*
X215577000Y-116224241D01*
X215590498Y-116235318D01*
X215951321Y-116428182D01*
X216342837Y-116546947D01*
X216750000Y-116587049D01*
X216852029Y-116577000D01*
X218653690Y-116577000D01*
X218662394Y-116587606D01*
X218788321Y-116690952D01*
X218931990Y-116767745D01*
X219087880Y-116815034D01*
X219250000Y-116831001D01*
X221750000Y-116831001D01*
X221912120Y-116815034D01*
X222068010Y-116767745D01*
X222211679Y-116690952D01*
X222337606Y-116587606D01*
X222440952Y-116461679D01*
X222517745Y-116318010D01*
X222565034Y-116162120D01*
X222581001Y-116000000D01*
X222581001Y-114561406D01*
X222587049Y-114500000D01*
X222581001Y-114438594D01*
X222581001Y-113000000D01*
X222565034Y-112837880D01*
X222517745Y-112681990D01*
X222440952Y-112538321D01*
X222337606Y-112412394D01*
X222211679Y-112309048D01*
X222068010Y-112232255D01*
X221912120Y-112184966D01*
X221750000Y-112168999D01*
X219250000Y-112168999D01*
X219087880Y-112184966D01*
X218931990Y-112232255D01*
X218827000Y-112288374D01*
X218827000Y-110635257D01*
X219029274Y-110942024D01*
X219290086Y-111206044D01*
X219597394Y-111414109D01*
X219939389Y-111558223D01*
X220080355Y-111587695D01*
X220373000Y-111471572D01*
X220373000Y-109627000D01*
X220627000Y-109627000D01*
X220627000Y-111471572D01*
X220919645Y-111587695D01*
X221060611Y-111558223D01*
X221402606Y-111414109D01*
X221709914Y-111206044D01*
X221970726Y-110942024D01*
X222175019Y-110632195D01*
X222314942Y-110288464D01*
X222385118Y-109924040D01*
X222230385Y-109627000D01*
X220627000Y-109627000D01*
X220373000Y-109627000D01*
X220353000Y-109627000D01*
X220353000Y-109373000D01*
X220373000Y-109373000D01*
X220373000Y-107528428D01*
X220627000Y-107528428D01*
X220627000Y-109373000D01*
X222230385Y-109373000D01*
X222385118Y-109075960D01*
X222314942Y-108711536D01*
X222175019Y-108367805D01*
X221970726Y-108057976D01*
X221709914Y-107793956D01*
X221402606Y-107585891D01*
X221060611Y-107441777D01*
X220919645Y-107412305D01*
X220627000Y-107528428D01*
X220373000Y-107528428D01*
X220080355Y-107412305D01*
X219939389Y-107441777D01*
X219597394Y-107585891D01*
X219290086Y-107793956D01*
X219029274Y-108057976D01*
X218827000Y-108364743D01*
X218827000Y-105711626D01*
X218931990Y-105767745D01*
X219087880Y-105815034D01*
X219250000Y-105831001D01*
X221750000Y-105831001D01*
X221912120Y-105815034D01*
X222068010Y-105767745D01*
X222211679Y-105690952D01*
X222337606Y-105587606D01*
X222440952Y-105461679D01*
X222517745Y-105318010D01*
X222565034Y-105162120D01*
X222581001Y-105000000D01*
X222581001Y-103561406D01*
X222587049Y-103500000D01*
X222581001Y-103438594D01*
X222581001Y-102000000D01*
X222565034Y-101837880D01*
X222517745Y-101681990D01*
X222440952Y-101538321D01*
X222337606Y-101412394D01*
X222211679Y-101309048D01*
X222068010Y-101232255D01*
X221912120Y-101184966D01*
X221750000Y-101168999D01*
X219250000Y-101168999D01*
X219087880Y-101184966D01*
X218931990Y-101232255D01*
X218788321Y-101309048D01*
X218662394Y-101412394D01*
X218653690Y-101423000D01*
X217610322Y-101423000D01*
X215790812Y-99603491D01*
X215725767Y-99524233D01*
X215409502Y-99264682D01*
X215048679Y-99071818D01*
X214657163Y-98953053D01*
X214362589Y-98924040D01*
X218614882Y-98924040D01*
X218685058Y-99288464D01*
X218824981Y-99632195D01*
X219029274Y-99942024D01*
X219290086Y-100206044D01*
X219597394Y-100414109D01*
X219939389Y-100558223D01*
X220080355Y-100587695D01*
X220373000Y-100471572D01*
X220373000Y-98627000D01*
X220627000Y-98627000D01*
X220627000Y-100471572D01*
X220919645Y-100587695D01*
X221060611Y-100558223D01*
X221402606Y-100414109D01*
X221709914Y-100206044D01*
X221970726Y-99942024D01*
X222175019Y-99632195D01*
X222314942Y-99288464D01*
X222385118Y-98924040D01*
X222230385Y-98627000D01*
X220627000Y-98627000D01*
X220373000Y-98627000D01*
X218769615Y-98627000D01*
X218614882Y-98924040D01*
X214362589Y-98924040D01*
X214352029Y-98923000D01*
X214352027Y-98923000D01*
X214250000Y-98912951D01*
X214147973Y-98923000D01*
X213897971Y-98923000D01*
X213592837Y-98953053D01*
X213201321Y-99071818D01*
X212840498Y-99264682D01*
X212524233Y-99524233D01*
X212264682Y-99840498D01*
X212071818Y-100201321D01*
X211953053Y-100592837D01*
X211915136Y-100977815D01*
X210540812Y-99603491D01*
X210475767Y-99524233D01*
X210159502Y-99264682D01*
X209798679Y-99071818D01*
X209407163Y-98953053D01*
X209102029Y-98923000D01*
X209102027Y-98923000D01*
X209000000Y-98912951D01*
X208897973Y-98923000D01*
X208897971Y-98923000D01*
X208592837Y-98953053D01*
X208201321Y-99071818D01*
X207840498Y-99264682D01*
X207524233Y-99524233D01*
X207264682Y-99840498D01*
X207071818Y-100201321D01*
X206953053Y-100592837D01*
X206912951Y-101000000D01*
X206953053Y-101407163D01*
X207071818Y-101798679D01*
X207264682Y-102159502D01*
X207524233Y-102475767D01*
X207603491Y-102540812D01*
X211423000Y-106360322D01*
X211423001Y-116983593D01*
X211335718Y-116820298D01*
X211076167Y-116504033D01*
X210996914Y-116438992D01*
X209161412Y-114603491D01*
X209096367Y-114524233D01*
X209077000Y-114508339D01*
X209077000Y-110102026D01*
X209087049Y-109999999D01*
X209077000Y-109897971D01*
X209046947Y-109592837D01*
X208928182Y-109201321D01*
X208735318Y-108840498D01*
X208475767Y-108524233D01*
X208396514Y-108459192D01*
X207450118Y-107512797D01*
X207609094Y-107464575D01*
X207914329Y-107314531D01*
X208184427Y-107107822D01*
X208409008Y-106852391D01*
X208579442Y-106558054D01*
X208689179Y-106236123D01*
X208571600Y-105967000D01*
X207127000Y-105967000D01*
X207127000Y-105987000D01*
X206873000Y-105987000D01*
X206873000Y-105967000D01*
X206853000Y-105967000D01*
X206853000Y-105713000D01*
X206873000Y-105713000D01*
X206873000Y-104268875D01*
X207127000Y-104268875D01*
X207127000Y-105713000D01*
X208571600Y-105713000D01*
X208689179Y-105443877D01*
X208579442Y-105121946D01*
X208409008Y-104827609D01*
X208184427Y-104572178D01*
X207914329Y-104365469D01*
X207609094Y-104215425D01*
X207396122Y-104150825D01*
X207127000Y-104268875D01*
X206873000Y-104268875D01*
X206603878Y-104150825D01*
X206390906Y-104215425D01*
X206085671Y-104365469D01*
X205815573Y-104572178D01*
X205590992Y-104827609D01*
X205420558Y-105121946D01*
X205328712Y-105391391D01*
X204396515Y-104459194D01*
X204159502Y-104264683D01*
X203798679Y-104071819D01*
X203407163Y-103953054D01*
X203000000Y-103912951D01*
X202592837Y-103953054D01*
X202308557Y-104039289D01*
X202337050Y-103750000D01*
X202327000Y-103647963D01*
X202327000Y-103077000D01*
X204102029Y-103077000D01*
X204407163Y-103046947D01*
X204798679Y-102928182D01*
X205159502Y-102735318D01*
X205475767Y-102475767D01*
X205735318Y-102159502D01*
X205928182Y-101798679D01*
X206046947Y-101407163D01*
X206087049Y-101000000D01*
X206046947Y-100592837D01*
X205928182Y-100201321D01*
X205735318Y-99840498D01*
X205475767Y-99524233D01*
X205159502Y-99264682D01*
X204798679Y-99071818D01*
X204407163Y-98953053D01*
X204102029Y-98923000D01*
X200352029Y-98923000D01*
X200250000Y-98912951D01*
X200147971Y-98923000D01*
X199842837Y-98953053D01*
X199451321Y-99071818D01*
X199090498Y-99264682D01*
X198774233Y-99524233D01*
X198514682Y-99840498D01*
X198321818Y-100201321D01*
X198203053Y-100592837D01*
X198162951Y-101000000D01*
X198173001Y-101102039D01*
X198173000Y-102889678D01*
X196459194Y-104603485D01*
X196264683Y-104840498D01*
X196071819Y-105201321D01*
X195953054Y-105592837D01*
X195912951Y-106000000D01*
X189917000Y-106000000D01*
X189917000Y-105897971D01*
X189886947Y-105592837D01*
X189768182Y-105201321D01*
X189575318Y-104840498D01*
X189315767Y-104524233D01*
X188999502Y-104264682D01*
X188638678Y-104071818D01*
X188247162Y-103953053D01*
X187840000Y-103912951D01*
X187432837Y-103953053D01*
X187041321Y-104071818D01*
X186680498Y-104264682D01*
X186364233Y-104524233D01*
X186104682Y-104840498D01*
X185911818Y-105201322D01*
X185793053Y-105592838D01*
X185763000Y-105897972D01*
X185763001Y-109197964D01*
X185752951Y-109300000D01*
X180077000Y-109300000D01*
X180077000Y-105352026D01*
X180087049Y-105249999D01*
X180071570Y-105092837D01*
X180046947Y-104842837D01*
X179928182Y-104451321D01*
X179735318Y-104090498D01*
X179475767Y-103774233D01*
X179396508Y-103709187D01*
X176581001Y-100893680D01*
X176581001Y-100000000D01*
X176565034Y-99837880D01*
X176538376Y-99750000D01*
X186918999Y-99750000D01*
X186918999Y-102250000D01*
X186934966Y-102412120D01*
X186982255Y-102568010D01*
X187059048Y-102711679D01*
X187162394Y-102837606D01*
X187288321Y-102940952D01*
X187431990Y-103017745D01*
X187587880Y-103065034D01*
X187750000Y-103081001D01*
X190250000Y-103081001D01*
X190412120Y-103065034D01*
X190568010Y-103017745D01*
X190711679Y-102940952D01*
X190837606Y-102837606D01*
X190940952Y-102711679D01*
X191017745Y-102568010D01*
X191065034Y-102412120D01*
X191081001Y-102250000D01*
X191081001Y-99750000D01*
X191065034Y-99587880D01*
X191017745Y-99431990D01*
X190940952Y-99288321D01*
X190837606Y-99162394D01*
X190711679Y-99059048D01*
X190568010Y-98982255D01*
X190412120Y-98934966D01*
X190250000Y-98918999D01*
X187750000Y-98918999D01*
X187587880Y-98934966D01*
X187431990Y-98982255D01*
X187288321Y-99059048D01*
X187162394Y-99162394D01*
X187059048Y-99288321D01*
X186982255Y-99431990D01*
X186934966Y-99587880D01*
X186918999Y-99750000D01*
X176538376Y-99750000D01*
X176517745Y-99681990D01*
X176440952Y-99538321D01*
X176337606Y-99412394D01*
X176211679Y-99309048D01*
X176068010Y-99232255D01*
X175912120Y-99184966D01*
X175750000Y-99168999D01*
X173250000Y-99168999D01*
X173087880Y-99184966D01*
X172931990Y-99232255D01*
X172788321Y-99309048D01*
X172662394Y-99412394D01*
X172559048Y-99538321D01*
X172482255Y-99681990D01*
X172434966Y-99837880D01*
X172418999Y-100000000D01*
X172418999Y-101688595D01*
X172412951Y-101750000D01*
X172418999Y-101811405D01*
X172418999Y-103000000D01*
X172434966Y-103162120D01*
X172482255Y-103318010D01*
X172559048Y-103461679D01*
X172662394Y-103587606D01*
X172788321Y-103690952D01*
X172931990Y-103767745D01*
X173087880Y-103815034D01*
X173250000Y-103831001D01*
X173643680Y-103831001D01*
X174320127Y-104507448D01*
X174080355Y-104412305D01*
X173939389Y-104441777D01*
X173597394Y-104585891D01*
X173290086Y-104793956D01*
X173029274Y-105057976D01*
X172824981Y-105367805D01*
X172685058Y-105711536D01*
X172614882Y-106075960D01*
X172769615Y-106373000D01*
X174373000Y-106373000D01*
X174373000Y-106353000D01*
X174627000Y-106353000D01*
X174627000Y-106373000D01*
X174647000Y-106373000D01*
X174647000Y-106627000D01*
X174627000Y-106627000D01*
X174627000Y-108471572D01*
X174919645Y-108587695D01*
X175060611Y-108558223D01*
X175402606Y-108414109D01*
X175709914Y-108206044D01*
X175923001Y-107990336D01*
X175923000Y-124137973D01*
X175912951Y-124240000D01*
X175923000Y-124342027D01*
X175923000Y-124342028D01*
X175933523Y-124448870D01*
X175472231Y-123987578D01*
X174837033Y-123563153D01*
X174131239Y-123270804D01*
X173381973Y-123121765D01*
X172618027Y-123121765D01*
X171868761Y-123270804D01*
X171162967Y-123563153D01*
X170527769Y-123987578D01*
X169987578Y-124527769D01*
X169877000Y-124693261D01*
X169877000Y-106924040D01*
X172614882Y-106924040D01*
X172685058Y-107288464D01*
X172824981Y-107632195D01*
X173029274Y-107942024D01*
X173290086Y-108206044D01*
X173597394Y-108414109D01*
X173939389Y-108558223D01*
X174080355Y-108587695D01*
X174373000Y-108471572D01*
X174373000Y-106627000D01*
X172769615Y-106627000D01*
X172614882Y-106924040D01*
X169877000Y-106924040D01*
X169877000Y-98075960D01*
X218614882Y-98075960D01*
X218769615Y-98373000D01*
X220373000Y-98373000D01*
X220373000Y-96528428D01*
X220627000Y-96528428D01*
X220627000Y-98373000D01*
X222230385Y-98373000D01*
X222385118Y-98075960D01*
X222314942Y-97711536D01*
X222175019Y-97367805D01*
X221970726Y-97057976D01*
X221709914Y-96793956D01*
X221402606Y-96585891D01*
X221060611Y-96441777D01*
X220919645Y-96412305D01*
X220627000Y-96528428D01*
X220373000Y-96528428D01*
X220080355Y-96412305D01*
X219939389Y-96441777D01*
X219597394Y-96585891D01*
X219290086Y-96793956D01*
X219029274Y-97057976D01*
X218824981Y-97367805D01*
X218685058Y-97711536D01*
X218614882Y-98075960D01*
X169877000Y-98075960D01*
X169877000Y-93306739D01*
X169987578Y-93472231D01*
X170527769Y-94012422D01*
X171162967Y-94436847D01*
X171868761Y-94729196D01*
X172618027Y-94878235D01*
X173381973Y-94878235D01*
X174131239Y-94729196D01*
X174837033Y-94436847D01*
X175472231Y-94012422D01*
X175565007Y-93919646D01*
X187162301Y-93919646D01*
X187279481Y-94270100D01*
X187462779Y-94590959D01*
X187705152Y-94869893D01*
X187997285Y-95096183D01*
X188327952Y-95261133D01*
X188580355Y-95337695D01*
X188873000Y-95221572D01*
X188873000Y-93627000D01*
X189127000Y-93627000D01*
X189127000Y-95221572D01*
X189419645Y-95337695D01*
X189672048Y-95261133D01*
X190002715Y-95096183D01*
X190294848Y-94869893D01*
X190537221Y-94590959D01*
X190720519Y-94270100D01*
X190837699Y-93919646D01*
X190721971Y-93627000D01*
X189127000Y-93627000D01*
X188873000Y-93627000D01*
X187278029Y-93627000D01*
X187162301Y-93919646D01*
X175565007Y-93919646D01*
X175984653Y-93500000D01*
X201912951Y-93500000D01*
X201953053Y-93907163D01*
X202071818Y-94298679D01*
X202264682Y-94659502D01*
X202524233Y-94975767D01*
X202840498Y-95235318D01*
X203201321Y-95428182D01*
X203592837Y-95546947D01*
X203897971Y-95577000D01*
X204102029Y-95577000D01*
X204407163Y-95546947D01*
X204798679Y-95428182D01*
X205159502Y-95235318D01*
X205475767Y-94975767D01*
X205735318Y-94659502D01*
X205928182Y-94298679D01*
X206046947Y-93907163D01*
X206087049Y-93500000D01*
X206912951Y-93500000D01*
X206953053Y-93907163D01*
X207071818Y-94298679D01*
X207264682Y-94659502D01*
X207524233Y-94975767D01*
X207840498Y-95235318D01*
X208201321Y-95428182D01*
X208592837Y-95546947D01*
X208897971Y-95577000D01*
X209102029Y-95577000D01*
X209407163Y-95546947D01*
X209798679Y-95428182D01*
X210159502Y-95235318D01*
X210475767Y-94975767D01*
X210735318Y-94659502D01*
X210928182Y-94298679D01*
X211046947Y-93907163D01*
X211087049Y-93500000D01*
X211912951Y-93500000D01*
X211953053Y-93907163D01*
X212071818Y-94298679D01*
X212264682Y-94659502D01*
X212524233Y-94975767D01*
X212840498Y-95235318D01*
X213201321Y-95428182D01*
X213592837Y-95546947D01*
X213897971Y-95577000D01*
X214102029Y-95577000D01*
X214407163Y-95546947D01*
X214798679Y-95428182D01*
X215159502Y-95235318D01*
X215475767Y-94975767D01*
X215735318Y-94659502D01*
X215928182Y-94298679D01*
X216046947Y-93907163D01*
X216087049Y-93500000D01*
X216046947Y-93092837D01*
X215928182Y-92701321D01*
X215735318Y-92340498D01*
X215475767Y-92024233D01*
X215159502Y-91764682D01*
X214798679Y-91571818D01*
X214407163Y-91453053D01*
X214102029Y-91423000D01*
X213897971Y-91423000D01*
X213592837Y-91453053D01*
X213201321Y-91571818D01*
X212840498Y-91764682D01*
X212524233Y-92024233D01*
X212264682Y-92340498D01*
X212071818Y-92701321D01*
X211953053Y-93092837D01*
X211912951Y-93500000D01*
X211087049Y-93500000D01*
X211046947Y-93092837D01*
X210928182Y-92701321D01*
X210735318Y-92340498D01*
X210475767Y-92024233D01*
X210159502Y-91764682D01*
X209798679Y-91571818D01*
X209407163Y-91453053D01*
X209102029Y-91423000D01*
X208897971Y-91423000D01*
X208592837Y-91453053D01*
X208201321Y-91571818D01*
X207840498Y-91764682D01*
X207524233Y-92024233D01*
X207264682Y-92340498D01*
X207071818Y-92701321D01*
X206953053Y-93092837D01*
X206912951Y-93500000D01*
X206087049Y-93500000D01*
X206046947Y-93092837D01*
X205928182Y-92701321D01*
X205735318Y-92340498D01*
X205475767Y-92024233D01*
X205159502Y-91764682D01*
X204798679Y-91571818D01*
X204407163Y-91453053D01*
X204102029Y-91423000D01*
X203897971Y-91423000D01*
X203592837Y-91453053D01*
X203201321Y-91571818D01*
X202840498Y-91764682D01*
X202524233Y-92024233D01*
X202264682Y-92340498D01*
X202071818Y-92701321D01*
X201953053Y-93092837D01*
X201912951Y-93500000D01*
X175984653Y-93500000D01*
X176012422Y-93472231D01*
X176274265Y-93080354D01*
X187162301Y-93080354D01*
X187278029Y-93373000D01*
X188873000Y-93373000D01*
X188873000Y-91778428D01*
X189127000Y-91778428D01*
X189127000Y-93373000D01*
X190721971Y-93373000D01*
X190837699Y-93080354D01*
X190720519Y-92729900D01*
X190537221Y-92409041D01*
X190294848Y-92130107D01*
X190002715Y-91903817D01*
X189672048Y-91738867D01*
X189419645Y-91662305D01*
X189127000Y-91778428D01*
X188873000Y-91778428D01*
X188580355Y-91662305D01*
X188327952Y-91738867D01*
X187997285Y-91903817D01*
X187705152Y-92130107D01*
X187462779Y-92409041D01*
X187279481Y-92729900D01*
X187162301Y-93080354D01*
X176274265Y-93080354D01*
X176436847Y-92837033D01*
X176729196Y-92131239D01*
X176878235Y-91381973D01*
X176878235Y-90618027D01*
X176729196Y-89868761D01*
X176436847Y-89162967D01*
X176012422Y-88527769D01*
X175472231Y-87987578D01*
X175306739Y-87877000D01*
X219693261Y-87877000D01*
X219527769Y-87987578D01*
M02*
