G04 #@! TF.GenerationSoftware,KiCad,Pcbnew,(5.1.4)-1*
G04 #@! TF.CreationDate,2020-07-31T19:04:34-03:00*
G04 #@! TF.ProjectId,INYECTORES,494e5945-4354-44f5-9245-532e6b696361,rev?*
G04 #@! TF.SameCoordinates,Original*
G04 #@! TF.FileFunction,Copper,L1,Top*
G04 #@! TF.FilePolarity,Positive*
%FSLAX46Y46*%
G04 Gerber Fmt 4.6, Leading zero omitted, Abs format (unit mm)*
G04 Created by KiCad (PCBNEW (5.1.4)-1) date 2020-07-31 19:04:34*
%MOMM*%
%LPD*%
G04 APERTURE LIST*
%ADD10O,2.500000X1.700000*%
%ADD11R,2.500000X1.700000*%
%ADD12O,3.200000X3.200000*%
%ADD13R,3.200000X3.200000*%
%ADD14O,1.700000X3.000000*%
%ADD15R,1.700000X3.000000*%
%ADD16R,2.500000X2.500000*%
%ADD17R,2.000000X2.000000*%
%ADD18O,1.905000X3.000000*%
%ADD19R,1.905000X3.000000*%
%ADD20O,2.000000X1.440000*%
%ADD21O,3.000000X1.905000*%
%ADD22R,3.000000X1.905000*%
%ADD23O,1.600000X2.000000*%
%ADD24R,1.600000X2.000000*%
%ADD25O,2.200000X2.200000*%
%ADD26R,2.200000X2.200000*%
%ADD27C,2.000000*%
%ADD28R,2.500000X1.500000*%
%ADD29O,2.000000X1.500000*%
%ADD30C,1.600000*%
%ADD31R,1.600000X1.600000*%
%ADD32R,3.000000X3.000000*%
%ADD33O,1.800000X3.000000*%
%ADD34O,1.600000X3.000000*%
%ADD35O,2.000000X3.000000*%
%ADD36O,3.000000X1.500000*%
%ADD37C,1.700000*%
%ADD38C,0.800000*%
%ADD39C,0.550000*%
%ADD40C,0.700000*%
%ADD41C,1.000000*%
G04 APERTURE END LIST*
D10*
X62940000Y-129080000D03*
X62940000Y-126540000D03*
D11*
X62940000Y-124000000D03*
D12*
X147000000Y-156760000D03*
D13*
X147000000Y-172000000D03*
D14*
X107440000Y-116500000D03*
X104900000Y-116500000D03*
X102360000Y-116500000D03*
X99820000Y-116500000D03*
X97280000Y-116500000D03*
X94740000Y-116500000D03*
X92200000Y-116500000D03*
X89660000Y-116500000D03*
X87120000Y-116500000D03*
X84580000Y-116500000D03*
X82040000Y-116500000D03*
D15*
X79500000Y-116500000D03*
D16*
X156150000Y-153050000D03*
D17*
X156150000Y-148050000D03*
D18*
X139080000Y-147000000D03*
X136540000Y-147000000D03*
D19*
X134000000Y-147000000D03*
D12*
X147000000Y-135760000D03*
D13*
X147000000Y-151000000D03*
D20*
X104000000Y-131080000D03*
X104000000Y-128540000D03*
X104000000Y-126000000D03*
D12*
X147000000Y-115760000D03*
D13*
X147000000Y-131000000D03*
D17*
X156150000Y-125500000D03*
X156150000Y-120500000D03*
D21*
X133000000Y-116920000D03*
X133000000Y-119460000D03*
D22*
X133000000Y-122000000D03*
D23*
X129000000Y-151380000D03*
X131540000Y-159000000D03*
X131540000Y-151380000D03*
D24*
X129000000Y-159000000D03*
D18*
X117080000Y-147000000D03*
X114540000Y-147000000D03*
D19*
X112000000Y-147000000D03*
D25*
X59500000Y-171660000D03*
D26*
X59500000Y-161500000D03*
D18*
X49080000Y-147000000D03*
X46540000Y-147000000D03*
D19*
X44000000Y-147000000D03*
D18*
X128080000Y-147000000D03*
X125540000Y-147000000D03*
D19*
X123000000Y-147000000D03*
D23*
X112000000Y-151380000D03*
X114540000Y-159000000D03*
X114540000Y-151380000D03*
D24*
X112000000Y-159000000D03*
D12*
X121760000Y-172000000D03*
D13*
X137000000Y-172000000D03*
D27*
X80250000Y-160600000D03*
D17*
X80250000Y-153000000D03*
D23*
X120000000Y-151380000D03*
X122540000Y-159000000D03*
X122540000Y-151380000D03*
D24*
X120000000Y-159000000D03*
D14*
X98620000Y-171000000D03*
X96080000Y-171000000D03*
X93540000Y-171000000D03*
X91000000Y-171000000D03*
D15*
X88460000Y-171000000D03*
D27*
X127840000Y-167000000D03*
X138000000Y-167000000D03*
D28*
X55790000Y-133670000D03*
D29*
X55770000Y-139950000D03*
X55750000Y-136500000D03*
D30*
X56500000Y-154500000D03*
D31*
X56500000Y-157000000D03*
D16*
X156150000Y-167500000D03*
D17*
X156150000Y-162500000D03*
D32*
X48500000Y-172500000D03*
D17*
X53500000Y-172500000D03*
X156150000Y-139500000D03*
X156150000Y-134500000D03*
D27*
X122160000Y-163000000D03*
X112000000Y-163000000D03*
D33*
X65500000Y-140380000D03*
X98520000Y-148000000D03*
X68040000Y-140380000D03*
X95980000Y-148000000D03*
X70580000Y-140380000D03*
X93440000Y-148000000D03*
X73120000Y-140380000D03*
X90900000Y-148000000D03*
X75660000Y-140380000D03*
X88360000Y-148000000D03*
X78200000Y-140380000D03*
D34*
X85820000Y-148000000D03*
D33*
X80740000Y-140380000D03*
X83280000Y-148000000D03*
X83280000Y-140380000D03*
X80740000Y-148000000D03*
X85820000Y-140380000D03*
X78200000Y-148000000D03*
X88360000Y-140380000D03*
X75660000Y-148000000D03*
X90900000Y-140380000D03*
X73120000Y-148000000D03*
X93440000Y-140380000D03*
X70580000Y-148000000D03*
X95980000Y-140380000D03*
X68040000Y-148000000D03*
X98520000Y-140380000D03*
D35*
X65500000Y-148000000D03*
D27*
X122160000Y-167000000D03*
X112000000Y-167000000D03*
D14*
X70840000Y-170000000D03*
X73380000Y-170000000D03*
X75920000Y-170000000D03*
X78460000Y-170000000D03*
D15*
X81000000Y-170000000D03*
D23*
X138000000Y-151380000D03*
X140540000Y-159000000D03*
X140540000Y-151380000D03*
D24*
X138000000Y-159000000D03*
D27*
X127840000Y-163000000D03*
X138000000Y-163000000D03*
D14*
X57760000Y-116800000D03*
X60300000Y-116800000D03*
X62840000Y-116800000D03*
X65380000Y-116800000D03*
X67920000Y-116800000D03*
X70460000Y-116800000D03*
D15*
X73000000Y-116800000D03*
D25*
X52660000Y-164500000D03*
D26*
X42500000Y-164500000D03*
D30*
X45000000Y-154000000D03*
D31*
X45000000Y-156500000D03*
D36*
X93000000Y-159400000D03*
X93000000Y-154500000D03*
D30*
X97500000Y-159500000D03*
X97500000Y-162000000D03*
X97500000Y-153750000D03*
X97500000Y-156250000D03*
D37*
X96000000Y-167650000D03*
X85900000Y-167800000D03*
X130000000Y-155000000D03*
X125000000Y-155000000D03*
X43050000Y-152024998D03*
X39400001Y-149186753D03*
X53620000Y-159190000D03*
X40500000Y-159200000D03*
X108990000Y-122770000D03*
X105229990Y-122900000D03*
X119400000Y-165100000D03*
X98690000Y-144230000D03*
X65634056Y-151205944D03*
X60309990Y-151099998D03*
X58350006Y-144139994D03*
X70490000Y-144550000D03*
X64220000Y-161260000D03*
X64110000Y-135499998D03*
D38*
X125000000Y-155000000D02*
X130000000Y-155000000D01*
X86050000Y-167650000D02*
X85900000Y-167800000D01*
X96000000Y-167650000D02*
X86050000Y-167650000D01*
X43050000Y-152024998D02*
X40211755Y-149186753D01*
X40211755Y-149186753D02*
X39400001Y-149186753D01*
D39*
X40510000Y-159190000D02*
X40500000Y-159200000D01*
X53620000Y-159190000D02*
X40510000Y-159190000D01*
D40*
X108990000Y-122770000D02*
X105359990Y-122770000D01*
X105359990Y-122770000D02*
X105229990Y-122900000D01*
X110100000Y-165100000D02*
X105700000Y-160700000D01*
X105700000Y-160700000D02*
X105700000Y-151240000D01*
X99539999Y-145079999D02*
X98690000Y-144230000D01*
X119400000Y-165100000D02*
X110100000Y-165100000D01*
X105700000Y-151240000D02*
X99539999Y-145079999D01*
D39*
X65634056Y-151205944D02*
X60415936Y-151205944D01*
X60415936Y-151205944D02*
X60309990Y-151099998D01*
X58760012Y-144550000D02*
X70490000Y-144550000D01*
X58350006Y-144139994D02*
X58760012Y-144550000D01*
X56725005Y-142884993D02*
X63260001Y-136349997D01*
X63260001Y-136349997D02*
X64110000Y-135499998D01*
X56725005Y-145673011D02*
X56725005Y-142884993D01*
X58479998Y-147428004D02*
X56725005Y-145673011D01*
D41*
X58459989Y-147448013D02*
X58479998Y-147428004D01*
X58459989Y-155499989D02*
X58459989Y-147448013D01*
X64220000Y-161260000D02*
X58459989Y-155499989D01*
M02*
