G04 #@! TF.GenerationSoftware,KiCad,Pcbnew,(5.1.4)-1*
G04 #@! TF.CreationDate,2020-07-31T19:04:34-03:00*
G04 #@! TF.ProjectId,INYECTORES,494e5945-4354-44f5-9245-532e6b696361,rev?*
G04 #@! TF.SameCoordinates,Original*
G04 #@! TF.FileFunction,Copper,L2,Bot*
G04 #@! TF.FilePolarity,Positive*
%FSLAX46Y46*%
G04 Gerber Fmt 4.6, Leading zero omitted, Abs format (unit mm)*
G04 Created by KiCad (PCBNEW (5.1.4)-1) date 2020-07-31 19:04:34*
%MOMM*%
%LPD*%
G04 APERTURE LIST*
%ADD10O,2.500000X1.700000*%
%ADD11R,2.500000X1.700000*%
%ADD12O,3.200000X3.200000*%
%ADD13R,3.200000X3.200000*%
%ADD14O,1.700000X3.000000*%
%ADD15R,1.700000X3.000000*%
%ADD16R,2.500000X2.500000*%
%ADD17R,2.000000X2.000000*%
%ADD18O,1.905000X3.000000*%
%ADD19R,1.905000X3.000000*%
%ADD20O,2.000000X1.440000*%
%ADD21O,3.000000X1.905000*%
%ADD22R,3.000000X1.905000*%
%ADD23O,1.600000X2.000000*%
%ADD24R,1.600000X2.000000*%
%ADD25O,2.200000X2.200000*%
%ADD26R,2.200000X2.200000*%
%ADD27C,2.000000*%
%ADD28R,2.500000X1.500000*%
%ADD29O,2.000000X1.500000*%
%ADD30C,1.600000*%
%ADD31R,1.600000X1.600000*%
%ADD32R,3.000000X3.000000*%
%ADD33O,1.800000X3.000000*%
%ADD34O,1.600000X3.000000*%
%ADD35O,2.000000X3.000000*%
%ADD36O,3.000000X1.500000*%
%ADD37C,1.700000*%
%ADD38C,0.800000*%
%ADD39C,0.400000*%
%ADD40C,0.780000*%
%ADD41C,0.550000*%
%ADD42C,0.700000*%
%ADD43C,1.000000*%
%ADD44C,0.500000*%
%ADD45C,2.000000*%
%ADD46C,0.900000*%
%ADD47C,0.200000*%
G04 APERTURE END LIST*
D10*
X62940000Y-129080000D03*
X62940000Y-126540000D03*
D11*
X62940000Y-124000000D03*
D12*
X147000000Y-156760000D03*
D13*
X147000000Y-172000000D03*
D14*
X107440000Y-116500000D03*
X104900000Y-116500000D03*
X102360000Y-116500000D03*
X99820000Y-116500000D03*
X97280000Y-116500000D03*
X94740000Y-116500000D03*
X92200000Y-116500000D03*
X89660000Y-116500000D03*
X87120000Y-116500000D03*
X84580000Y-116500000D03*
X82040000Y-116500000D03*
D15*
X79500000Y-116500000D03*
D16*
X156150000Y-153050000D03*
D17*
X156150000Y-148050000D03*
D18*
X139080000Y-147000000D03*
X136540000Y-147000000D03*
D19*
X134000000Y-147000000D03*
D12*
X147000000Y-135760000D03*
D13*
X147000000Y-151000000D03*
D20*
X104000000Y-131080000D03*
X104000000Y-128540000D03*
X104000000Y-126000000D03*
D12*
X147000000Y-115760000D03*
D13*
X147000000Y-131000000D03*
D17*
X156150000Y-125500000D03*
X156150000Y-120500000D03*
D21*
X133000000Y-116920000D03*
X133000000Y-119460000D03*
D22*
X133000000Y-122000000D03*
D23*
X129000000Y-151380000D03*
X131540000Y-159000000D03*
X131540000Y-151380000D03*
D24*
X129000000Y-159000000D03*
D18*
X117080000Y-147000000D03*
X114540000Y-147000000D03*
D19*
X112000000Y-147000000D03*
D25*
X59500000Y-171660000D03*
D26*
X59500000Y-161500000D03*
D18*
X49080000Y-147000000D03*
X46540000Y-147000000D03*
D19*
X44000000Y-147000000D03*
D18*
X128080000Y-147000000D03*
X125540000Y-147000000D03*
D19*
X123000000Y-147000000D03*
D23*
X112000000Y-151380000D03*
X114540000Y-159000000D03*
X114540000Y-151380000D03*
D24*
X112000000Y-159000000D03*
D12*
X121760000Y-172000000D03*
D13*
X137000000Y-172000000D03*
D27*
X80250000Y-160600000D03*
D17*
X80250000Y-153000000D03*
D23*
X120000000Y-151380000D03*
X122540000Y-159000000D03*
X122540000Y-151380000D03*
D24*
X120000000Y-159000000D03*
D14*
X98620000Y-171000000D03*
X96080000Y-171000000D03*
X93540000Y-171000000D03*
X91000000Y-171000000D03*
D15*
X88460000Y-171000000D03*
D27*
X127840000Y-167000000D03*
X138000000Y-167000000D03*
D28*
X55790000Y-133670000D03*
D29*
X55770000Y-139950000D03*
X55750000Y-136500000D03*
D30*
X56500000Y-154500000D03*
D31*
X56500000Y-157000000D03*
D16*
X156150000Y-167500000D03*
D17*
X156150000Y-162500000D03*
D32*
X48500000Y-172500000D03*
D17*
X53500000Y-172500000D03*
X156150000Y-139500000D03*
X156150000Y-134500000D03*
D27*
X122160000Y-163000000D03*
X112000000Y-163000000D03*
D33*
X65500000Y-140380000D03*
X98520000Y-148000000D03*
X68040000Y-140380000D03*
X95980000Y-148000000D03*
X70580000Y-140380000D03*
X93440000Y-148000000D03*
X73120000Y-140380000D03*
X90900000Y-148000000D03*
X75660000Y-140380000D03*
X88360000Y-148000000D03*
X78200000Y-140380000D03*
D34*
X85820000Y-148000000D03*
D33*
X80740000Y-140380000D03*
X83280000Y-148000000D03*
X83280000Y-140380000D03*
X80740000Y-148000000D03*
X85820000Y-140380000D03*
X78200000Y-148000000D03*
X88360000Y-140380000D03*
X75660000Y-148000000D03*
X90900000Y-140380000D03*
X73120000Y-148000000D03*
X93440000Y-140380000D03*
X70580000Y-148000000D03*
X95980000Y-140380000D03*
X68040000Y-148000000D03*
X98520000Y-140380000D03*
D35*
X65500000Y-148000000D03*
D27*
X122160000Y-167000000D03*
X112000000Y-167000000D03*
D14*
X70840000Y-170000000D03*
X73380000Y-170000000D03*
X75920000Y-170000000D03*
X78460000Y-170000000D03*
D15*
X81000000Y-170000000D03*
D23*
X138000000Y-151380000D03*
X140540000Y-159000000D03*
X140540000Y-151380000D03*
D24*
X138000000Y-159000000D03*
D27*
X127840000Y-163000000D03*
X138000000Y-163000000D03*
D14*
X57760000Y-116800000D03*
X60300000Y-116800000D03*
X62840000Y-116800000D03*
X65380000Y-116800000D03*
X67920000Y-116800000D03*
X70460000Y-116800000D03*
D15*
X73000000Y-116800000D03*
D25*
X52660000Y-164500000D03*
D26*
X42500000Y-164500000D03*
D30*
X45000000Y-154000000D03*
D31*
X45000000Y-156500000D03*
D36*
X93000000Y-159400000D03*
X93000000Y-154500000D03*
D30*
X97500000Y-159500000D03*
X97500000Y-162000000D03*
X97500000Y-153750000D03*
X97500000Y-156250000D03*
D37*
X96000000Y-167650000D03*
X85900000Y-167800000D03*
X130000000Y-155000000D03*
X125000000Y-155000000D03*
X43050000Y-152024998D03*
X39400001Y-149186753D03*
X53620000Y-159190000D03*
X40500000Y-159200000D03*
X108990000Y-122770000D03*
X105229990Y-122900000D03*
X119400000Y-165100000D03*
X98690000Y-144230000D03*
X65634056Y-151205944D03*
X60309990Y-151099998D03*
X58350006Y-144139994D03*
X70490000Y-144550000D03*
X64220000Y-161260000D03*
X64110000Y-135499998D03*
D38*
X96000000Y-167475000D02*
X96000000Y-167650000D01*
X85150001Y-168549999D02*
X85150001Y-169099999D01*
X85900000Y-167800000D02*
X85150001Y-168549999D01*
X123000000Y-155000000D02*
X125000000Y-155000000D01*
X131540000Y-155540000D02*
X131540000Y-159000000D01*
X156911999Y-121261999D02*
X156150000Y-120500000D01*
X114540000Y-154460000D02*
X121460000Y-154460000D01*
X131540000Y-151380000D02*
X131540000Y-155540000D01*
X122540000Y-155460000D02*
X123000000Y-155000000D01*
X122540000Y-159000000D02*
X122540000Y-155460000D01*
D39*
X99000000Y-162000000D02*
X99500000Y-161500000D01*
X97500000Y-162000000D02*
X99000000Y-162000000D01*
D38*
X156150000Y-134500000D02*
X159000000Y-131650000D01*
D39*
X97500000Y-156250000D02*
X99250000Y-156250000D01*
D38*
X130000000Y-155000000D02*
X131000000Y-155000000D01*
X131000000Y-155000000D02*
X131540000Y-155540000D01*
X140000000Y-155000000D02*
X132080000Y-155000000D01*
X159000000Y-131650000D02*
X159000000Y-123350000D01*
D39*
X99250000Y-156250000D02*
X99500000Y-156000000D01*
D38*
X132080000Y-155000000D02*
X131540000Y-155540000D01*
X159000000Y-123350000D02*
X156911999Y-121261999D01*
D39*
X98620000Y-171000000D02*
X98620000Y-164380000D01*
D38*
X121460000Y-154460000D02*
X122540000Y-155540000D01*
X140540000Y-155540000D02*
X140000000Y-155000000D01*
X131540000Y-155540000D02*
X131540000Y-156460000D01*
D39*
X98620000Y-164380000D02*
X99500000Y-163500000D01*
D38*
X140540000Y-159000000D02*
X140540000Y-155540000D01*
X140540000Y-155540000D02*
X140540000Y-151380000D01*
X131540000Y-156460000D02*
X131540000Y-159000000D01*
X147000000Y-135760000D02*
X154890000Y-135760000D01*
X147000000Y-156760000D02*
X152740000Y-162500000D01*
X154890000Y-135760000D02*
X156150000Y-134500000D01*
X140540000Y-159000000D02*
X144760000Y-159000000D01*
X144760000Y-159000000D02*
X147000000Y-156760000D01*
X152740000Y-162500000D02*
X156150000Y-162500000D01*
X114540000Y-151380000D02*
X114540000Y-154460000D01*
X147000000Y-115760000D02*
X151740000Y-120500000D01*
X151740000Y-120500000D02*
X156150000Y-120500000D01*
X114540000Y-154460000D02*
X114540000Y-159000000D01*
X122540000Y-159000000D02*
X122540000Y-155540000D01*
X122540000Y-155540000D02*
X122540000Y-151380000D01*
D40*
X53500000Y-172500000D02*
X58660000Y-172500000D01*
X46540000Y-152460000D02*
X46540000Y-147000000D01*
X58660000Y-172500000D02*
X59500000Y-171660000D01*
D39*
X57760000Y-115240000D02*
X57760000Y-116800000D01*
D40*
X45750000Y-153250000D02*
X46540000Y-152460000D01*
X45000000Y-154000000D02*
X45750000Y-153250000D01*
D39*
X79500000Y-115000000D02*
X79500000Y-116500000D01*
X99500000Y-163500000D02*
X99500000Y-161500000D01*
X104000000Y-132098233D02*
X104000000Y-131080000D01*
X103925000Y-132173233D02*
X104000000Y-132098233D01*
D38*
X157950000Y-134500000D02*
X156150000Y-134500000D01*
X159400000Y-135950000D02*
X157950000Y-134500000D01*
X159400000Y-143000000D02*
X159400000Y-135950000D01*
X156150000Y-148050000D02*
X156150000Y-146250000D01*
X156150000Y-146250000D02*
X159400000Y-143000000D01*
X43049998Y-152025000D02*
X43050000Y-152024998D01*
X156150000Y-149430000D02*
X156150000Y-148050000D01*
X147000000Y-156760000D02*
X148820000Y-156760000D01*
D39*
X104000000Y-131080000D02*
X105420000Y-131080000D01*
X105420000Y-131080000D02*
X106500000Y-130000000D01*
D40*
X53500000Y-171110000D02*
X53500000Y-172500000D01*
X43000000Y-160610000D02*
X53500000Y-171110000D01*
X43000000Y-154868630D02*
X43000000Y-160610000D01*
X45000000Y-154000000D02*
X43868630Y-154000000D01*
X43868630Y-154000000D02*
X43000000Y-154868630D01*
D39*
X78910000Y-116500000D02*
X78550000Y-116140000D01*
X79500000Y-116500000D02*
X78910000Y-116500000D01*
D38*
X39680000Y-148906754D02*
X39400001Y-149186753D01*
X40030000Y-146530000D02*
X39680000Y-146880000D01*
X39680000Y-146880000D02*
X39680000Y-148906754D01*
D39*
X61050000Y-173210000D02*
X59500000Y-171660000D01*
X75920000Y-170000000D02*
X75920000Y-171080000D01*
X75920000Y-171080000D02*
X73790000Y-173210000D01*
X83280000Y-149131370D02*
X83280000Y-148000000D01*
X83280000Y-153370000D02*
X83280000Y-149131370D01*
X98620000Y-164380000D02*
X94290000Y-164380000D01*
X94290000Y-164380000D02*
X83280000Y-153370000D01*
X99860000Y-156360000D02*
X99500000Y-156000000D01*
X99500000Y-161500000D02*
X99860000Y-161140000D01*
X99860000Y-161140000D02*
X99860000Y-156360000D01*
D41*
X106600000Y-129900000D02*
X106600000Y-129200000D01*
X106500000Y-130000000D02*
X106600000Y-129900000D01*
D42*
X106930000Y-120080000D02*
X107300000Y-119710000D01*
X106790000Y-129360000D02*
X106930000Y-129220000D01*
X106930000Y-129220000D02*
X106930000Y-120080000D01*
D38*
X156150000Y-149850000D02*
X156150000Y-148050000D01*
X156150000Y-150020000D02*
X156150000Y-149850000D01*
X156310000Y-150180000D02*
X156150000Y-150020000D01*
X159310000Y-152020000D02*
X157470000Y-150180000D01*
X159810000Y-152530000D02*
X159310000Y-152030000D01*
X124510000Y-174750000D02*
X150140000Y-174750000D01*
X159310000Y-152030000D02*
X159310000Y-152020000D01*
X121760000Y-172000000D02*
X124510000Y-174750000D01*
X150140000Y-174750000D02*
X153340000Y-171550000D01*
X153340000Y-171550000D02*
X158540000Y-171550000D01*
X157470000Y-150180000D02*
X156310000Y-150180000D01*
X158540000Y-171550000D02*
X159810000Y-170280000D01*
X159810000Y-170280000D02*
X159810000Y-152530000D01*
D40*
X46540000Y-147000000D02*
X46540000Y-145710000D01*
D41*
X81910000Y-112590000D02*
X79500000Y-115000000D01*
X105580000Y-112590000D02*
X81910000Y-112590000D01*
X107440000Y-116500000D02*
X107440000Y-114450000D01*
X107440000Y-114450000D02*
X105580000Y-112590000D01*
X60030000Y-112970000D02*
X57760000Y-115240000D01*
X75600000Y-112970000D02*
X60030000Y-112970000D01*
X79500000Y-116500000D02*
X79130000Y-116500000D01*
X79130000Y-116500000D02*
X75600000Y-112970000D01*
D39*
X107400000Y-116540000D02*
X107440000Y-116500000D01*
X107350000Y-119290000D02*
X107400000Y-119240000D01*
X107400000Y-119240000D02*
X107400000Y-116540000D01*
D38*
X108289999Y-115650001D02*
X107440000Y-116500000D01*
X109860000Y-114080000D02*
X108289999Y-115650001D01*
X147000000Y-115760000D02*
X145320000Y-114080000D01*
X145320000Y-114080000D02*
X109860000Y-114080000D01*
D42*
X56500000Y-153368630D02*
X56500000Y-154500000D01*
D38*
X54490000Y-173490000D02*
X53500000Y-172500000D01*
X85970000Y-173490000D02*
X54490000Y-173490000D01*
X86170000Y-173290000D02*
X85970000Y-173490000D01*
X75160000Y-172660000D02*
X75790000Y-173290000D01*
X75790000Y-173290000D02*
X86170000Y-173290000D01*
X149262741Y-156760000D02*
X147000000Y-156760000D01*
X153260000Y-152762741D02*
X149262741Y-156760000D01*
X153260000Y-148650000D02*
X153260000Y-152762741D01*
X156150000Y-148050000D02*
X153860000Y-148050000D01*
X153860000Y-148050000D02*
X153260000Y-148650000D01*
D40*
X56500000Y-154500000D02*
X56500000Y-152290000D01*
X56500000Y-152290000D02*
X56500000Y-153368630D01*
X56500000Y-151640000D02*
X56500000Y-154500000D01*
X56460000Y-151600000D02*
X56500000Y-151640000D01*
D42*
X56500000Y-149910000D02*
X56500000Y-153368630D01*
X50460000Y-143870000D02*
X56500000Y-149910000D01*
X47570000Y-143870000D02*
X50460000Y-143870000D01*
X46540000Y-147000000D02*
X46540000Y-144900000D01*
X46540000Y-144900000D02*
X47570000Y-143870000D01*
D41*
X56500000Y-149220000D02*
X56500000Y-152290000D01*
X51380000Y-144100000D02*
X56500000Y-149220000D01*
X47210000Y-144100000D02*
X51380000Y-144100000D01*
X46540000Y-147000000D02*
X46540000Y-144770000D01*
X46540000Y-144770000D02*
X47210000Y-144100000D01*
D39*
X101140000Y-153860000D02*
X101190000Y-153860000D01*
X99910000Y-155090000D02*
X101140000Y-153860000D01*
X99500000Y-156000000D02*
X99910000Y-155590000D01*
X99910000Y-155590000D02*
X99910000Y-155090000D01*
X52030000Y-141030000D02*
X52030000Y-122530000D01*
X52030000Y-122530000D02*
X57760000Y-116800000D01*
D40*
X48500000Y-170000000D02*
X48500000Y-168620000D01*
D38*
X125540000Y-145200000D02*
X125540000Y-147000000D01*
D40*
X44380000Y-164500000D02*
X42500000Y-164500000D01*
X48500000Y-168620000D02*
X44380000Y-164500000D01*
X48500000Y-172500000D02*
X48500000Y-170000000D01*
D38*
X114540000Y-146952500D02*
X114540000Y-147000000D01*
X49300000Y-172500000D02*
X51800000Y-175000000D01*
X51800000Y-175000000D02*
X102000000Y-175000000D01*
X102000000Y-175000000D02*
X106425000Y-170575000D01*
X106425000Y-170575000D02*
X106425000Y-144575000D01*
X106425000Y-144575000D02*
X113910001Y-137089999D01*
X113910001Y-137089999D02*
X123089999Y-137089999D01*
X48500000Y-172500000D02*
X49300000Y-172500000D01*
D40*
X40500000Y-150547500D02*
X44000000Y-147047500D01*
X44000000Y-147047500D02*
X44000000Y-147000000D01*
X42500000Y-164100000D02*
X40500000Y-162100000D01*
X42500000Y-164500000D02*
X42500000Y-164100000D01*
D38*
X125540000Y-143460000D02*
X125540000Y-147000000D01*
X127000000Y-142000000D02*
X125540000Y-143460000D01*
X134060000Y-142000000D02*
X127000000Y-142000000D01*
X136540000Y-147000000D02*
X136540000Y-144480000D01*
X136540000Y-144480000D02*
X134060000Y-142000000D01*
X125540000Y-144740000D02*
X125540000Y-145200000D01*
X123089999Y-137089999D02*
X123089999Y-142289999D01*
X123089999Y-142289999D02*
X125540000Y-144740000D01*
X125540000Y-144440000D02*
X125540000Y-145200000D01*
X121320000Y-143750000D02*
X124850000Y-143750000D01*
X114540000Y-148112510D02*
X116007490Y-149580000D01*
X114540000Y-147000000D02*
X114540000Y-148112510D01*
X116007490Y-149580000D02*
X118420000Y-149580000D01*
X124850000Y-143750000D02*
X125540000Y-144440000D01*
X118420000Y-149580000D02*
X120000000Y-148000000D01*
X120000000Y-148000000D02*
X120000000Y-145070000D01*
X120000000Y-145070000D02*
X121320000Y-143750000D01*
X122270000Y-136270000D02*
X123089999Y-137089999D01*
X122270000Y-127820000D02*
X122270000Y-136270000D01*
X133000000Y-119460000D02*
X130630000Y-119460000D01*
X130630000Y-119460000D02*
X122270000Y-127820000D01*
D41*
X56500000Y-157000000D02*
X55810000Y-157000000D01*
X55810000Y-157000000D02*
X53620000Y-159190000D01*
D40*
X40500000Y-162100000D02*
X40500000Y-159200000D01*
X40500000Y-159200000D02*
X40500000Y-150547500D01*
D39*
X82040000Y-118960000D02*
X82040000Y-116500000D01*
D43*
X55660000Y-161500000D02*
X59500000Y-161500000D01*
X46580000Y-156500000D02*
X47790000Y-157710000D01*
X52660000Y-164500000D02*
X55660000Y-161500000D01*
X45000000Y-156500000D02*
X46580000Y-156500000D01*
X47790000Y-157710000D02*
X52660000Y-162580000D01*
D42*
X104064340Y-122925000D02*
X104000000Y-122925000D01*
X104189340Y-123050000D02*
X104064340Y-122925000D01*
D38*
X104000000Y-126000000D02*
X104000000Y-122925000D01*
X85820000Y-137645000D02*
X85820000Y-140380000D01*
X82040000Y-133865000D02*
X85820000Y-137645000D01*
D42*
X60300000Y-116800000D02*
X60300000Y-115550000D01*
X60300000Y-115550000D02*
X61150000Y-114700000D01*
D41*
X105000000Y-138750000D02*
X108990000Y-134760000D01*
D42*
X73380000Y-170360000D02*
X73380000Y-170000000D01*
D44*
X105000000Y-138730000D02*
X105100000Y-138630000D01*
D43*
X103925000Y-169265000D02*
X103925000Y-153750000D01*
X103520000Y-169670000D02*
X103925000Y-169265000D01*
D38*
X104189340Y-123050000D02*
X104339340Y-122900000D01*
X104339340Y-122900000D02*
X105229990Y-122900000D01*
D43*
X108990000Y-123972081D02*
X108990000Y-122770000D01*
X108630000Y-135170000D02*
X108990000Y-134810000D01*
X108990000Y-134810000D02*
X108990000Y-123972081D01*
X82500000Y-134340000D02*
X82270000Y-134110000D01*
X82040000Y-116500000D02*
X82040000Y-133880000D01*
X82040000Y-133880000D02*
X82500000Y-134340000D01*
D40*
X52660000Y-162580000D02*
X52660000Y-162944366D01*
D43*
X52660000Y-162570000D02*
X52660000Y-164500000D01*
X52050000Y-161960000D02*
X52660000Y-162570000D01*
X47980000Y-156520000D02*
X45840000Y-156520000D01*
X49080000Y-147000000D02*
X49080000Y-155420000D01*
X49080000Y-155420000D02*
X47980000Y-156520000D01*
X60000000Y-117100000D02*
X60300000Y-116800000D01*
D42*
X104900000Y-114920000D02*
X104900000Y-116500000D01*
X104050000Y-114070000D02*
X104900000Y-114920000D01*
X82040000Y-115270000D02*
X83240000Y-114070000D01*
X82040000Y-116500000D02*
X82040000Y-115270000D01*
D41*
X104040000Y-113960000D02*
X104080000Y-114000000D01*
X83220000Y-114000000D02*
X83260000Y-113960000D01*
X83260000Y-113960000D02*
X104040000Y-113960000D01*
D43*
X81000000Y-120000000D02*
X82040000Y-118960000D01*
X78849998Y-120000000D02*
X81000000Y-120000000D01*
X76340000Y-117000000D02*
X76340000Y-117490002D01*
X76340000Y-117490002D02*
X78849998Y-120000000D01*
D41*
X76330000Y-116090000D02*
X76330000Y-117390000D01*
X74510000Y-114270000D02*
X76330000Y-116090000D01*
X61150000Y-114700000D02*
X61580000Y-114270000D01*
X61580000Y-114270000D02*
X74510000Y-114270000D01*
D38*
X104900000Y-119690000D02*
X104900000Y-116500000D01*
X104000000Y-122925000D02*
X104000000Y-120590000D01*
X104000000Y-120590000D02*
X104900000Y-119690000D01*
D42*
X99440000Y-173710000D02*
X100200000Y-172950000D01*
X97485000Y-173710000D02*
X99440000Y-173710000D01*
X96080000Y-171000000D02*
X96080000Y-172305000D01*
X96080000Y-172305000D02*
X97485000Y-173710000D01*
D38*
X99680000Y-173470000D02*
X103925000Y-169225000D01*
X99670000Y-173470000D02*
X99680000Y-173470000D01*
D43*
X67000000Y-170780000D02*
X67960000Y-171740000D01*
X66980000Y-170780000D02*
X67000000Y-170780000D01*
X59500000Y-161500000D02*
X59500000Y-163300000D01*
X59500000Y-163300000D02*
X66980000Y-170780000D01*
D41*
X68495010Y-172275010D02*
X67960000Y-171740000D01*
X71754990Y-172275010D02*
X68495010Y-172275010D01*
X73380000Y-170000000D02*
X73380000Y-170650000D01*
X73380000Y-170650000D02*
X71754990Y-172275010D01*
X59500000Y-160000000D02*
X59500000Y-161500000D01*
X55790000Y-133670000D02*
X54640000Y-133670000D01*
X105000000Y-151309001D02*
X105000000Y-138730000D01*
X105000000Y-152460000D02*
X105000000Y-151309001D01*
X103925000Y-155050000D02*
X103925000Y-153535000D01*
X103925000Y-153535000D02*
X105000000Y-152460000D01*
X53640000Y-137050000D02*
X53640000Y-134180000D01*
X54870000Y-138280000D02*
X53640000Y-137050000D01*
X56960000Y-138280000D02*
X54870000Y-138280000D01*
X53640000Y-134180000D02*
X54150000Y-133670000D01*
X58440000Y-146634990D02*
X56725005Y-144919995D01*
X58440000Y-155020000D02*
X58440000Y-146634990D01*
X56725005Y-144919995D02*
X56725005Y-142224995D01*
X56725005Y-142224995D02*
X57660000Y-141290000D01*
X57660000Y-141290000D02*
X57660000Y-138980000D01*
X54150000Y-133670000D02*
X54640000Y-133670000D01*
X57660000Y-138980000D02*
X56960000Y-138280000D01*
D38*
X59480000Y-159980000D02*
X59500000Y-160000000D01*
X59480000Y-158940000D02*
X59480000Y-159980000D01*
X58460000Y-154900000D02*
X58460000Y-157920000D01*
X58460000Y-157920000D02*
X59480000Y-158940000D01*
D45*
X60300000Y-120300000D02*
X60300000Y-116800000D01*
X55790000Y-124810000D02*
X60300000Y-120300000D01*
X55790000Y-127890000D02*
X55790000Y-124810000D01*
X55790000Y-133670000D02*
X55790000Y-127890000D01*
X60300000Y-121700000D02*
X60300000Y-119000000D01*
X55790000Y-127890000D02*
X55790000Y-126210000D01*
X57200000Y-124800000D02*
X57900000Y-124100000D01*
X57200000Y-133000000D02*
X57200000Y-124800000D01*
X56530000Y-133670000D02*
X57200000Y-133000000D01*
X55790000Y-133670000D02*
X56530000Y-133670000D01*
X55790000Y-126210000D02*
X57900000Y-124100000D01*
X57900000Y-124100000D02*
X60300000Y-121700000D01*
D38*
X102360000Y-119250000D02*
X102360000Y-116500000D01*
X101760000Y-119850000D02*
X102360000Y-119250000D01*
X101760000Y-126785000D02*
X101760000Y-119850000D01*
X104000000Y-128540000D02*
X103515000Y-128540000D01*
X103515000Y-128540000D02*
X101760000Y-126785000D01*
D43*
X112000000Y-147000000D02*
X112000000Y-151380000D01*
D38*
X120000000Y-151000000D02*
X120000000Y-151380000D01*
X121750000Y-149250000D02*
X120000000Y-151000000D01*
X121750000Y-148250000D02*
X121750000Y-149250000D01*
X123000000Y-147000000D02*
X121750000Y-148250000D01*
X133110000Y-147000000D02*
X134000000Y-147000000D01*
X129000000Y-151380000D02*
X129000000Y-151110000D01*
D43*
X129000000Y-151110000D02*
X133110000Y-147000000D01*
X151770000Y-138970000D02*
X151370000Y-139370000D01*
X133000000Y-123752500D02*
X133000000Y-122000000D01*
X133000000Y-133640000D02*
X133000000Y-123752500D01*
X138730000Y-139370000D02*
X133000000Y-133640000D01*
X151370000Y-139370000D02*
X138730000Y-139370000D01*
D38*
X153180000Y-137530000D02*
X151340000Y-139370000D01*
X157760000Y-137530000D02*
X153180000Y-137530000D01*
X158100000Y-137870000D02*
X157760000Y-137530000D01*
X158100000Y-141200000D02*
X158100000Y-137870000D01*
X151400000Y-147900000D02*
X158100000Y-141200000D01*
X151400000Y-151600000D02*
X151400000Y-147900000D01*
X145000000Y-154000000D02*
X149000000Y-154000000D01*
X138000000Y-151380000D02*
X138000000Y-149690000D01*
X138290000Y-149400000D02*
X142400000Y-149400000D01*
X149000000Y-154000000D02*
X151400000Y-151600000D01*
X142400000Y-149400000D02*
X143000000Y-150000000D01*
X143000000Y-150000000D02*
X143000000Y-152000000D01*
X138000000Y-149690000D02*
X138290000Y-149400000D01*
X143000000Y-152000000D02*
X145000000Y-154000000D01*
D43*
X122160000Y-167000000D02*
X121300000Y-167000000D01*
X122160000Y-163000000D02*
X122160000Y-167000000D01*
X127840000Y-167000000D02*
X122160000Y-167000000D01*
X121300000Y-167000000D02*
X119400000Y-165100000D01*
X127840000Y-163000000D02*
X127840000Y-167000000D01*
D38*
X97487919Y-144230000D02*
X98690000Y-144230000D01*
X96837919Y-143580000D02*
X97487919Y-144230000D01*
X75210000Y-143580000D02*
X96837919Y-143580000D01*
X73120000Y-140380000D02*
X73120000Y-141490000D01*
X73120000Y-141490000D02*
X75210000Y-143580000D01*
D43*
X112000000Y-163000000D02*
X112000000Y-159000000D01*
X112000000Y-167000000D02*
X113100000Y-167000000D01*
X120000000Y-160100000D02*
X120000000Y-159000000D01*
X113100000Y-167000000D02*
X120000000Y-160100000D01*
D38*
X129000000Y-159250000D02*
X129000000Y-159000000D01*
D43*
X138000000Y-167000000D02*
X136750000Y-167000000D01*
X136750000Y-167000000D02*
X129000000Y-159250000D01*
X138000000Y-159000000D02*
X138000000Y-163000000D01*
D41*
X65500000Y-147790000D02*
X65500000Y-148000000D01*
X65550000Y-148050000D02*
X65500000Y-148000000D01*
D43*
X65634056Y-150003863D02*
X65634056Y-151205944D01*
X65550000Y-148050000D02*
X65634056Y-148134056D01*
X65634056Y-148134056D02*
X65634056Y-150003863D01*
X62940000Y-126540000D02*
X61737919Y-126540000D01*
X60309990Y-149897917D02*
X60309990Y-151099998D01*
X60459990Y-149747917D02*
X60309990Y-149897917D01*
X60459990Y-127817929D02*
X60459990Y-149747917D01*
X61737919Y-126540000D02*
X60459990Y-127817929D01*
D39*
X94750000Y-116510000D02*
X94740000Y-116500000D01*
D43*
X94750000Y-131180000D02*
X94750000Y-116510000D01*
X95240000Y-131670000D02*
X94750000Y-131180000D01*
D38*
X100470000Y-136945000D02*
X94750000Y-131225000D01*
X100470000Y-137430000D02*
X100470000Y-136945000D01*
D41*
X100530000Y-137130000D02*
X100320000Y-136920000D01*
X100530000Y-145390000D02*
X100530000Y-137130000D01*
X98520000Y-148000000D02*
X98520000Y-147400000D01*
X98520000Y-147400000D02*
X100530000Y-145390000D01*
D38*
X98500000Y-140360000D02*
X98520000Y-140380000D01*
X98500000Y-138500000D02*
X98500000Y-140360000D01*
X92200000Y-132200000D02*
X98500000Y-138500000D01*
D43*
X92200000Y-132170000D02*
X92630000Y-132600000D01*
X92200000Y-116500000D02*
X92200000Y-132170000D01*
D38*
X95980000Y-139520000D02*
X95980000Y-140380000D01*
X96000000Y-139500000D02*
X95980000Y-139520000D01*
X96000000Y-139250000D02*
X96000000Y-139500000D01*
X90000000Y-133250000D02*
X96000000Y-139250000D01*
X89660000Y-116500000D02*
X90000000Y-116840000D01*
D43*
X89710000Y-132980000D02*
X90460000Y-133730000D01*
X90000000Y-116840000D02*
X89710000Y-117130000D01*
X89710000Y-117130000D02*
X89710000Y-132980000D01*
D38*
X93440000Y-139340000D02*
X93440000Y-140380000D01*
X87000000Y-132900000D02*
X93440000Y-139340000D01*
X87120000Y-116500000D02*
X87000000Y-116620000D01*
D43*
X87130000Y-133040000D02*
X87260000Y-133170000D01*
X87000000Y-116620000D02*
X87130000Y-116750000D01*
X87130000Y-116750000D02*
X87130000Y-133040000D01*
D38*
X90900000Y-139675000D02*
X90900000Y-140380000D01*
X84580000Y-133355000D02*
X90900000Y-139675000D01*
D43*
X84580000Y-133370000D02*
X84990000Y-133780000D01*
X84580000Y-116500000D02*
X84580000Y-133370000D01*
X75860000Y-164200000D02*
X79410000Y-164200000D01*
X71500000Y-159840000D02*
X75860000Y-164200000D01*
X79410000Y-164200000D02*
X81000000Y-165790000D01*
X81000000Y-165790000D02*
X81000000Y-170000000D01*
D41*
X68040000Y-140980000D02*
X68040000Y-140380000D01*
X68230000Y-141170000D02*
X68040000Y-140980000D01*
X63705015Y-151805015D02*
X63705015Y-145824985D01*
X71590000Y-159690000D02*
X63705015Y-151805015D01*
X63705015Y-145824985D02*
X65490000Y-144040000D01*
D43*
X68230000Y-143340000D02*
X68230000Y-141170000D01*
X65570000Y-144110000D02*
X67460000Y-144110000D01*
X67460000Y-144110000D02*
X68230000Y-143340000D01*
D42*
X78460000Y-167110000D02*
X78375000Y-167025000D01*
D43*
X63720000Y-140380000D02*
X65500000Y-140380000D01*
X62270000Y-141830000D02*
X63720000Y-140380000D01*
X62270000Y-155600000D02*
X62270000Y-141830000D01*
X73250000Y-166580000D02*
X62270000Y-155600000D01*
X78460000Y-167110000D02*
X77930000Y-166580000D01*
X77930000Y-166580000D02*
X73250000Y-166580000D01*
X78480000Y-169980000D02*
X78460000Y-170000000D01*
X78180000Y-166840000D02*
X78480000Y-167140000D01*
X78480000Y-167140000D02*
X78480000Y-169980000D01*
D42*
X82765000Y-155125000D02*
X93540000Y-165900000D01*
X78525000Y-155125000D02*
X82765000Y-155125000D01*
X73120000Y-149720000D02*
X78525000Y-155125000D01*
D43*
X93540000Y-169797919D02*
X93540000Y-171000000D01*
X93280000Y-165710000D02*
X93540000Y-165970000D01*
X93540000Y-165970000D02*
X93540000Y-169797919D01*
X73120000Y-149690000D02*
X73630000Y-150200000D01*
X73120000Y-148000000D02*
X73120000Y-149690000D01*
D42*
X81545000Y-156625000D02*
X91000000Y-166080000D01*
X77125000Y-156625000D02*
X81545000Y-156625000D01*
X70580000Y-150080000D02*
X77125000Y-156625000D01*
D43*
X91000000Y-169797919D02*
X91000000Y-171000000D01*
X90680000Y-165830000D02*
X91000000Y-166150000D01*
X91000000Y-166150000D02*
X91000000Y-169797919D01*
X70580000Y-150070000D02*
X70980000Y-150470000D01*
X70580000Y-148000000D02*
X70580000Y-150070000D01*
D42*
X80590000Y-158200000D02*
X88460000Y-166070000D01*
X75925000Y-158200000D02*
X80590000Y-158200000D01*
X68150000Y-150425000D02*
X75925000Y-158200000D01*
X68040000Y-148000000D02*
X68150000Y-148110000D01*
D43*
X88460000Y-166120000D02*
X88460000Y-171000000D01*
X88260000Y-165920000D02*
X88460000Y-166120000D01*
X68150000Y-150390000D02*
X68570000Y-150810000D01*
X68150000Y-148110000D02*
X68150000Y-150390000D01*
D38*
X75660000Y-139785000D02*
X75660000Y-140380000D01*
D46*
X75660000Y-139080000D02*
X75660000Y-139785000D01*
X73260000Y-136680000D02*
X75660000Y-139080000D01*
X69620000Y-136680000D02*
X73260000Y-136680000D01*
X65380000Y-116800000D02*
X65380000Y-132440000D01*
X65380000Y-132440000D02*
X69620000Y-136680000D01*
D38*
X67920000Y-116800000D02*
X68000000Y-116880000D01*
D43*
X78200000Y-138800000D02*
X78200000Y-140380000D01*
X73180000Y-133780000D02*
X78200000Y-138800000D01*
X70990000Y-133780000D02*
X73180000Y-133780000D01*
X68000000Y-116880000D02*
X68000000Y-130790000D01*
X68000000Y-130790000D02*
X70990000Y-133780000D01*
X70460000Y-128010000D02*
X70460000Y-116800000D01*
X80740000Y-140380000D02*
X80740000Y-138290000D01*
X80740000Y-138290000D02*
X70460000Y-128010000D01*
X83280000Y-137680000D02*
X83280000Y-140380000D01*
X79500000Y-133900000D02*
X83280000Y-137680000D01*
X79500000Y-130800000D02*
X79500000Y-133900000D01*
X73000000Y-116800000D02*
X73000000Y-124300000D01*
X73000000Y-124300000D02*
X79500000Y-130800000D01*
X58350006Y-142937913D02*
X58350006Y-144139994D01*
X58935011Y-142352908D02*
X58350006Y-142937913D01*
X58935011Y-137065011D02*
X58935011Y-142352908D01*
X55750000Y-136500000D02*
X58370000Y-136500000D01*
X58370000Y-136500000D02*
X58935011Y-137065011D01*
X71692081Y-144550000D02*
X70490000Y-144550000D01*
X73930000Y-144550000D02*
X71692081Y-144550000D01*
X75660000Y-148000000D02*
X75660000Y-146280000D01*
X75660000Y-146280000D02*
X73930000Y-144550000D01*
X137000000Y-172000000D02*
X139400000Y-172000000D01*
X143900000Y-167500000D02*
X155072370Y-167500000D01*
D38*
X155072370Y-167500000D02*
X156150000Y-167500000D01*
D43*
X139400000Y-172000000D02*
X143900000Y-167500000D01*
D38*
X117080000Y-145810000D02*
X117080000Y-147000000D01*
X110495000Y-144530000D02*
X115800000Y-144530000D01*
X130000000Y-172000000D02*
X127250000Y-169250000D01*
X137000000Y-172000000D02*
X130000000Y-172000000D01*
X127250000Y-169250000D02*
X110225000Y-169250000D01*
X110225000Y-169250000D02*
X108125000Y-167150000D01*
X115800000Y-144530000D02*
X117080000Y-145810000D01*
X108125000Y-167150000D02*
X108125000Y-146900000D01*
X108125000Y-146900000D02*
X110495000Y-144530000D01*
X157560000Y-164900000D02*
X158130000Y-165470000D01*
D43*
X143400000Y-164900000D02*
X157560000Y-164900000D01*
X143160000Y-165140000D02*
X143400000Y-164900000D01*
D41*
X158175001Y-165515001D02*
X158130000Y-165470000D01*
D38*
X158300001Y-165640001D02*
X158175001Y-165515001D01*
X158300001Y-169470001D02*
X158300001Y-165640001D01*
X157710002Y-170060000D02*
X158300001Y-169470001D01*
X151340000Y-170060000D02*
X157710002Y-170060000D01*
X149400000Y-172000000D02*
X151340000Y-170060000D01*
X147000000Y-172000000D02*
X149400000Y-172000000D01*
X156200000Y-153050000D02*
X156150000Y-153050000D01*
X158230000Y-155080000D02*
X156200000Y-153050000D01*
X158230000Y-164640000D02*
X158230000Y-155080000D01*
X157860000Y-165080000D02*
X157860000Y-165010000D01*
X157860000Y-165010000D02*
X158230000Y-164640000D01*
X139300000Y-169000000D02*
X143400000Y-164900000D01*
X135890000Y-169000000D02*
X139300000Y-169000000D01*
X128080000Y-148800000D02*
X127119999Y-149760001D01*
X129880000Y-162250000D02*
X129880000Y-162990000D01*
X127119999Y-149760001D02*
X127119999Y-160509999D01*
X127119999Y-160509999D02*
X127650000Y-161040000D01*
X127650000Y-161040000D02*
X128670000Y-161040000D01*
X129880000Y-162990000D02*
X135890000Y-169000000D01*
X128080000Y-147000000D02*
X128080000Y-148800000D01*
X128670000Y-161040000D02*
X129880000Y-162250000D01*
X147000000Y-148600000D02*
X147000000Y-151000000D01*
D43*
X147000000Y-151000000D02*
X147000000Y-148550000D01*
D38*
X147000000Y-148030000D02*
X147000000Y-148600000D01*
D43*
X139080000Y-147000000D02*
X145970000Y-147000000D01*
X145970000Y-147000000D02*
X147000000Y-148030000D01*
D38*
X147000000Y-148570000D02*
X147000000Y-148600000D01*
X155500000Y-139500000D02*
X154560000Y-140440000D01*
X156150000Y-139500000D02*
X155500000Y-139500000D01*
D43*
X147000000Y-148010000D02*
X147000000Y-151000000D01*
X156150000Y-139500000D02*
X155510000Y-139500000D01*
X155510000Y-139500000D02*
X147000000Y-148010000D01*
X147000000Y-123000000D02*
X147000000Y-131000000D01*
X147000000Y-131000000D02*
X150650000Y-131000000D01*
X150650000Y-131000000D02*
X156150000Y-125500000D01*
X140920000Y-116920000D02*
X147000000Y-123000000D01*
X133000000Y-116920000D02*
X140920000Y-116920000D01*
D39*
X99750000Y-116430000D02*
X99820000Y-116500000D01*
D38*
X103400000Y-134700000D02*
X103400000Y-133750000D01*
X103400000Y-133750000D02*
X99750000Y-130100000D01*
D43*
X99750000Y-130130000D02*
X99750000Y-116430000D01*
X100120000Y-130500000D02*
X99750000Y-130130000D01*
D42*
X96275000Y-151850000D02*
X97720000Y-151850000D01*
X93440000Y-148000000D02*
X93440000Y-149015000D01*
X93440000Y-149015000D02*
X96275000Y-151850000D01*
D41*
X103400000Y-148720000D02*
X103400000Y-134750000D01*
X96540000Y-151840000D02*
X100280000Y-151840000D01*
X100280000Y-151840000D02*
X103400000Y-148720000D01*
D39*
X95980000Y-148000000D02*
X95980000Y-148240000D01*
X97250000Y-116530000D02*
X97280000Y-116500000D01*
D43*
X97250000Y-131020000D02*
X97250000Y-116530000D01*
X97580000Y-131350000D02*
X97250000Y-131020000D01*
D38*
X101850000Y-135600000D02*
X97250000Y-131000000D01*
X101850000Y-136110000D02*
X101850000Y-135600000D01*
D42*
X97270000Y-150510000D02*
X97880000Y-150510000D01*
X95980000Y-148240000D02*
X95980000Y-149220000D01*
X95980000Y-149220000D02*
X97270000Y-150510000D01*
D41*
X101890000Y-135515000D02*
X101500000Y-135125000D01*
X101890000Y-148130000D02*
X101890000Y-135515000D01*
X97910000Y-150540000D02*
X99480000Y-150540000D01*
X99480000Y-150540000D02*
X101890000Y-148130000D01*
D43*
X80740000Y-148000000D02*
X80740000Y-152510000D01*
D39*
X80740000Y-152510000D02*
X80250000Y-153000000D01*
D43*
X88360000Y-149050000D02*
X88360000Y-148000000D01*
X93000000Y-154500000D02*
X93000000Y-153690000D01*
X93000000Y-153690000D02*
X88360000Y-149050000D01*
X94010000Y-153490000D02*
X93000000Y-154500000D01*
X97500000Y-153750000D02*
X97240000Y-153490000D01*
X97240000Y-153490000D02*
X94010000Y-153490000D01*
X97500000Y-159500000D02*
X93100000Y-159500000D01*
D39*
X93100000Y-159500000D02*
X93000000Y-159400000D01*
D43*
X85820000Y-151420000D02*
X85820000Y-148000000D01*
X86880000Y-152480000D02*
X85820000Y-151420000D01*
D42*
X85940000Y-151530000D02*
X85940000Y-151450000D01*
D43*
X93000000Y-159400000D02*
X93000000Y-158590000D01*
X93000000Y-158590000D02*
X85940000Y-151530000D01*
D38*
X62900000Y-116860000D02*
X62840000Y-116800000D01*
D43*
X62900000Y-123960000D02*
X62940000Y-124000000D01*
X62900000Y-116860000D02*
X62900000Y-123960000D01*
X70840000Y-168160000D02*
X70840000Y-170000000D01*
X64220000Y-161540000D02*
X70840000Y-168160000D01*
X64220000Y-161260000D02*
X64220000Y-161540000D01*
X63260001Y-134649999D02*
X64110000Y-135499998D01*
X62940000Y-134329998D02*
X63260001Y-134649999D01*
X62940000Y-129080000D02*
X62940000Y-134329998D01*
D47*
G36*
X108963872Y-170393035D02*
G01*
X109017103Y-170457897D01*
X109081965Y-170511128D01*
X109081968Y-170511131D01*
X109163685Y-170578194D01*
X109275961Y-170670337D01*
X109571291Y-170828194D01*
X109891742Y-170925402D01*
X110141490Y-170950000D01*
X110141507Y-170950000D01*
X110224999Y-170958223D01*
X110308491Y-170950000D01*
X120432245Y-170950000D01*
X120299803Y-171129459D01*
X120158026Y-171431057D01*
X120111925Y-171583051D01*
X120092094Y-171846000D01*
X121606000Y-171846000D01*
X121606000Y-171826000D01*
X121914000Y-171826000D01*
X121914000Y-171846000D01*
X123427906Y-171846000D01*
X123408075Y-171583051D01*
X123361974Y-171431057D01*
X123220197Y-171129459D01*
X123087755Y-170950000D01*
X126545837Y-170950000D01*
X128738872Y-173143035D01*
X128792103Y-173207897D01*
X128856965Y-173261128D01*
X128856968Y-173261131D01*
X128878681Y-173278950D01*
X129050961Y-173420337D01*
X129346291Y-173578194D01*
X129666742Y-173675402D01*
X129916490Y-173700000D01*
X129916499Y-173700000D01*
X129999999Y-173708224D01*
X130083499Y-173700000D01*
X134103559Y-173700000D01*
X134118810Y-173854845D01*
X134193145Y-174099896D01*
X134313860Y-174325736D01*
X134476313Y-174523687D01*
X134660690Y-174675000D01*
X104729163Y-174675000D01*
X107250163Y-172154000D01*
X120092094Y-172154000D01*
X120111925Y-172416949D01*
X120158026Y-172568943D01*
X120299803Y-172870541D01*
X120497694Y-173138684D01*
X120744095Y-173363068D01*
X121029537Y-173535070D01*
X121343050Y-173648080D01*
X121606000Y-173668015D01*
X121606000Y-172154000D01*
X121914000Y-172154000D01*
X121914000Y-173668015D01*
X122176950Y-173648080D01*
X122490463Y-173535070D01*
X122775905Y-173363068D01*
X123022306Y-173138684D01*
X123220197Y-172870541D01*
X123361974Y-172568943D01*
X123408075Y-172416949D01*
X123427906Y-172154000D01*
X121914000Y-172154000D01*
X121606000Y-172154000D01*
X120092094Y-172154000D01*
X107250163Y-172154000D01*
X107568041Y-171836123D01*
X107632897Y-171782897D01*
X107686124Y-171718040D01*
X107686132Y-171718032D01*
X107845337Y-171524040D01*
X107969309Y-171292103D01*
X108003194Y-171228709D01*
X108100402Y-170908258D01*
X108125000Y-170658510D01*
X108125000Y-170658501D01*
X108133224Y-170575001D01*
X108125000Y-170491501D01*
X108125000Y-169554163D01*
X108963872Y-170393035D01*
X108963872Y-170393035D01*
G37*
X108963872Y-170393035D02*
X109017103Y-170457897D01*
X109081965Y-170511128D01*
X109081968Y-170511131D01*
X109163685Y-170578194D01*
X109275961Y-170670337D01*
X109571291Y-170828194D01*
X109891742Y-170925402D01*
X110141490Y-170950000D01*
X110141507Y-170950000D01*
X110224999Y-170958223D01*
X110308491Y-170950000D01*
X120432245Y-170950000D01*
X120299803Y-171129459D01*
X120158026Y-171431057D01*
X120111925Y-171583051D01*
X120092094Y-171846000D01*
X121606000Y-171846000D01*
X121606000Y-171826000D01*
X121914000Y-171826000D01*
X121914000Y-171846000D01*
X123427906Y-171846000D01*
X123408075Y-171583051D01*
X123361974Y-171431057D01*
X123220197Y-171129459D01*
X123087755Y-170950000D01*
X126545837Y-170950000D01*
X128738872Y-173143035D01*
X128792103Y-173207897D01*
X128856965Y-173261128D01*
X128856968Y-173261131D01*
X128878681Y-173278950D01*
X129050961Y-173420337D01*
X129346291Y-173578194D01*
X129666742Y-173675402D01*
X129916490Y-173700000D01*
X129916499Y-173700000D01*
X129999999Y-173708224D01*
X130083499Y-173700000D01*
X134103559Y-173700000D01*
X134118810Y-173854845D01*
X134193145Y-174099896D01*
X134313860Y-174325736D01*
X134476313Y-174523687D01*
X134660690Y-174675000D01*
X104729163Y-174675000D01*
X107250163Y-172154000D01*
X120092094Y-172154000D01*
X120111925Y-172416949D01*
X120158026Y-172568943D01*
X120299803Y-172870541D01*
X120497694Y-173138684D01*
X120744095Y-173363068D01*
X121029537Y-173535070D01*
X121343050Y-173648080D01*
X121606000Y-173668015D01*
X121606000Y-172154000D01*
X121914000Y-172154000D01*
X121914000Y-173668015D01*
X122176950Y-173648080D01*
X122490463Y-173535070D01*
X122775905Y-173363068D01*
X123022306Y-173138684D01*
X123220197Y-172870541D01*
X123361974Y-172568943D01*
X123408075Y-172416949D01*
X123427906Y-172154000D01*
X121914000Y-172154000D01*
X121606000Y-172154000D01*
X120092094Y-172154000D01*
X107250163Y-172154000D01*
X107568041Y-171836123D01*
X107632897Y-171782897D01*
X107686124Y-171718040D01*
X107686132Y-171718032D01*
X107845337Y-171524040D01*
X107969309Y-171292103D01*
X108003194Y-171228709D01*
X108100402Y-170908258D01*
X108125000Y-170658510D01*
X108125000Y-170658501D01*
X108133224Y-170575001D01*
X108125000Y-170491501D01*
X108125000Y-169554163D01*
X108963872Y-170393035D01*
G36*
X67565136Y-152313886D02*
G01*
X67866538Y-152474989D01*
X74700964Y-159309417D01*
X74752629Y-159372371D01*
X74815582Y-159424035D01*
X74815585Y-159424038D01*
X74946281Y-159531297D01*
X75003874Y-159578562D01*
X75290517Y-159731777D01*
X75601544Y-159826125D01*
X75843948Y-159850000D01*
X75843957Y-159850000D01*
X75924999Y-159857982D01*
X76006041Y-159850000D01*
X79437522Y-159850000D01*
X79359865Y-159927657D01*
X79385003Y-159952795D01*
X79273979Y-160081234D01*
X79191527Y-160281615D01*
X79149751Y-160494230D01*
X79150257Y-160710910D01*
X79193026Y-160923328D01*
X79273979Y-161118766D01*
X79385004Y-161247207D01*
X80032211Y-160600000D01*
X80018069Y-160585858D01*
X80235858Y-160368069D01*
X80250000Y-160382211D01*
X80264142Y-160368069D01*
X80481931Y-160585858D01*
X80467789Y-160600000D01*
X81114996Y-161247207D01*
X81202512Y-161145963D01*
X86554250Y-166497702D01*
X86588971Y-166612162D01*
X86660000Y-166745048D01*
X86660001Y-168608375D01*
X86523860Y-168774264D01*
X86403145Y-169000104D01*
X86328810Y-169245155D01*
X86303710Y-169500000D01*
X86303710Y-172500000D01*
X86328810Y-172754845D01*
X86403145Y-172999896D01*
X86523860Y-173225736D01*
X86584806Y-173300000D01*
X72957386Y-173300000D01*
X73454303Y-172803084D01*
X73801473Y-172768890D01*
X74206749Y-172645951D01*
X74580255Y-172446309D01*
X74907635Y-172177635D01*
X75176309Y-171850255D01*
X75375951Y-171476750D01*
X75385021Y-171446850D01*
X75520255Y-171525454D01*
X75621249Y-171551803D01*
X75766000Y-171562090D01*
X75766000Y-170154000D01*
X75746000Y-170154000D01*
X75746000Y-169846000D01*
X75766000Y-169846000D01*
X75766000Y-168437910D01*
X75621249Y-168448197D01*
X75520255Y-168474546D01*
X75385021Y-168553150D01*
X75375951Y-168523250D01*
X75299383Y-168380000D01*
X76540618Y-168380000D01*
X76464050Y-168523250D01*
X76454980Y-168553150D01*
X76319745Y-168474546D01*
X76218751Y-168448197D01*
X76074000Y-168437910D01*
X76074000Y-169846000D01*
X76094000Y-169846000D01*
X76094000Y-170154000D01*
X76074000Y-170154000D01*
X76074000Y-171562090D01*
X76218751Y-171551803D01*
X76319745Y-171525454D01*
X76454979Y-171446850D01*
X76464049Y-171476749D01*
X76663691Y-171850255D01*
X76932365Y-172177635D01*
X77259745Y-172446309D01*
X77633250Y-172645951D01*
X78038526Y-172768890D01*
X78460000Y-172810402D01*
X78881473Y-172768890D01*
X79286749Y-172645951D01*
X79414161Y-172577848D01*
X79424264Y-172586140D01*
X79650104Y-172706855D01*
X79895155Y-172781190D01*
X80150000Y-172806290D01*
X81850000Y-172806290D01*
X82104845Y-172781190D01*
X82349896Y-172706855D01*
X82575736Y-172586140D01*
X82773687Y-172423687D01*
X82936140Y-172225736D01*
X83056855Y-171999896D01*
X83131190Y-171754845D01*
X83156290Y-171500000D01*
X83156290Y-168500000D01*
X83131190Y-168245155D01*
X83056855Y-168000104D01*
X82936140Y-167774264D01*
X82800000Y-167608376D01*
X82800000Y-165878416D01*
X82808708Y-165790000D01*
X82800000Y-165701584D01*
X82800000Y-165701576D01*
X82773955Y-165437138D01*
X82671029Y-165097837D01*
X82503887Y-164785135D01*
X82278950Y-164511050D01*
X82210268Y-164454684D01*
X80745321Y-162989738D01*
X80688950Y-162921050D01*
X80414865Y-162696113D01*
X80102163Y-162528971D01*
X79762862Y-162426045D01*
X79498424Y-162400000D01*
X79498416Y-162400000D01*
X79410000Y-162391292D01*
X79321584Y-162400000D01*
X76605585Y-162400000D01*
X75670581Y-161464996D01*
X79602793Y-161464996D01*
X79731234Y-161576021D01*
X79931615Y-161658473D01*
X80144230Y-161700249D01*
X80360910Y-161699743D01*
X80573328Y-161656974D01*
X80768766Y-161576021D01*
X80897207Y-161464996D01*
X80250000Y-160817789D01*
X79602793Y-161464996D01*
X75670581Y-161464996D01*
X72710266Y-158504683D01*
X72504864Y-158336114D01*
X72416002Y-158288616D01*
X67003847Y-152876461D01*
X67004601Y-152875958D01*
X67304070Y-152576489D01*
X67509851Y-152268515D01*
X67565136Y-152313886D01*
X67565136Y-152313886D01*
G37*
X67565136Y-152313886D02*
X67866538Y-152474989D01*
X74700964Y-159309417D01*
X74752629Y-159372371D01*
X74815582Y-159424035D01*
X74815585Y-159424038D01*
X74946281Y-159531297D01*
X75003874Y-159578562D01*
X75290517Y-159731777D01*
X75601544Y-159826125D01*
X75843948Y-159850000D01*
X75843957Y-159850000D01*
X75924999Y-159857982D01*
X76006041Y-159850000D01*
X79437522Y-159850000D01*
X79359865Y-159927657D01*
X79385003Y-159952795D01*
X79273979Y-160081234D01*
X79191527Y-160281615D01*
X79149751Y-160494230D01*
X79150257Y-160710910D01*
X79193026Y-160923328D01*
X79273979Y-161118766D01*
X79385004Y-161247207D01*
X80032211Y-160600000D01*
X80018069Y-160585858D01*
X80235858Y-160368069D01*
X80250000Y-160382211D01*
X80264142Y-160368069D01*
X80481931Y-160585858D01*
X80467789Y-160600000D01*
X81114996Y-161247207D01*
X81202512Y-161145963D01*
X86554250Y-166497702D01*
X86588971Y-166612162D01*
X86660000Y-166745048D01*
X86660001Y-168608375D01*
X86523860Y-168774264D01*
X86403145Y-169000104D01*
X86328810Y-169245155D01*
X86303710Y-169500000D01*
X86303710Y-172500000D01*
X86328810Y-172754845D01*
X86403145Y-172999896D01*
X86523860Y-173225736D01*
X86584806Y-173300000D01*
X72957386Y-173300000D01*
X73454303Y-172803084D01*
X73801473Y-172768890D01*
X74206749Y-172645951D01*
X74580255Y-172446309D01*
X74907635Y-172177635D01*
X75176309Y-171850255D01*
X75375951Y-171476750D01*
X75385021Y-171446850D01*
X75520255Y-171525454D01*
X75621249Y-171551803D01*
X75766000Y-171562090D01*
X75766000Y-170154000D01*
X75746000Y-170154000D01*
X75746000Y-169846000D01*
X75766000Y-169846000D01*
X75766000Y-168437910D01*
X75621249Y-168448197D01*
X75520255Y-168474546D01*
X75385021Y-168553150D01*
X75375951Y-168523250D01*
X75299383Y-168380000D01*
X76540618Y-168380000D01*
X76464050Y-168523250D01*
X76454980Y-168553150D01*
X76319745Y-168474546D01*
X76218751Y-168448197D01*
X76074000Y-168437910D01*
X76074000Y-169846000D01*
X76094000Y-169846000D01*
X76094000Y-170154000D01*
X76074000Y-170154000D01*
X76074000Y-171562090D01*
X76218751Y-171551803D01*
X76319745Y-171525454D01*
X76454979Y-171446850D01*
X76464049Y-171476749D01*
X76663691Y-171850255D01*
X76932365Y-172177635D01*
X77259745Y-172446309D01*
X77633250Y-172645951D01*
X78038526Y-172768890D01*
X78460000Y-172810402D01*
X78881473Y-172768890D01*
X79286749Y-172645951D01*
X79414161Y-172577848D01*
X79424264Y-172586140D01*
X79650104Y-172706855D01*
X79895155Y-172781190D01*
X80150000Y-172806290D01*
X81850000Y-172806290D01*
X82104845Y-172781190D01*
X82349896Y-172706855D01*
X82575736Y-172586140D01*
X82773687Y-172423687D01*
X82936140Y-172225736D01*
X83056855Y-171999896D01*
X83131190Y-171754845D01*
X83156290Y-171500000D01*
X83156290Y-168500000D01*
X83131190Y-168245155D01*
X83056855Y-168000104D01*
X82936140Y-167774264D01*
X82800000Y-167608376D01*
X82800000Y-165878416D01*
X82808708Y-165790000D01*
X82800000Y-165701584D01*
X82800000Y-165701576D01*
X82773955Y-165437138D01*
X82671029Y-165097837D01*
X82503887Y-164785135D01*
X82278950Y-164511050D01*
X82210268Y-164454684D01*
X80745321Y-162989738D01*
X80688950Y-162921050D01*
X80414865Y-162696113D01*
X80102163Y-162528971D01*
X79762862Y-162426045D01*
X79498424Y-162400000D01*
X79498416Y-162400000D01*
X79410000Y-162391292D01*
X79321584Y-162400000D01*
X76605585Y-162400000D01*
X75670581Y-161464996D01*
X79602793Y-161464996D01*
X79731234Y-161576021D01*
X79931615Y-161658473D01*
X80144230Y-161700249D01*
X80360910Y-161699743D01*
X80573328Y-161656974D01*
X80768766Y-161576021D01*
X80897207Y-161464996D01*
X80250000Y-160817789D01*
X79602793Y-161464996D01*
X75670581Y-161464996D01*
X72710266Y-158504683D01*
X72504864Y-158336114D01*
X72416002Y-158288616D01*
X67003847Y-152876461D01*
X67004601Y-152875958D01*
X67304070Y-152576489D01*
X67509851Y-152268515D01*
X67565136Y-152313886D01*
G36*
X156658876Y-112490934D02*
G01*
X156195151Y-112800785D01*
X155800785Y-113195151D01*
X155490934Y-113658876D01*
X155277505Y-114174140D01*
X155168699Y-114721141D01*
X155168699Y-115278859D01*
X155277505Y-115825860D01*
X155490934Y-116341124D01*
X155800785Y-116804849D01*
X156195151Y-117199215D01*
X156658876Y-117509066D01*
X157174140Y-117722495D01*
X157721141Y-117831301D01*
X158278859Y-117831301D01*
X158825860Y-117722495D01*
X159341124Y-117509066D01*
X159675001Y-117285977D01*
X159675001Y-137210317D01*
X159520337Y-136920961D01*
X159307897Y-136662103D01*
X159243031Y-136608868D01*
X159021129Y-136386967D01*
X158967897Y-136322103D01*
X158903035Y-136268872D01*
X158903031Y-136268868D01*
X158709039Y-136109663D01*
X158687462Y-136098130D01*
X158413709Y-135951806D01*
X158093258Y-135854598D01*
X157843510Y-135830000D01*
X157843500Y-135830000D01*
X157760000Y-135821776D01*
X157676500Y-135830000D01*
X153263500Y-135830000D01*
X153180000Y-135821776D01*
X153096500Y-135830000D01*
X153096490Y-135830000D01*
X152846742Y-135854598D01*
X152526291Y-135951806D01*
X152398211Y-136020266D01*
X152230960Y-136109663D01*
X152036968Y-136268868D01*
X152036960Y-136268876D01*
X151972103Y-136322103D01*
X151918876Y-136386960D01*
X151505836Y-136800000D01*
X148341126Y-136800000D01*
X148363068Y-136775905D01*
X148535070Y-136490463D01*
X148648080Y-136176950D01*
X148668015Y-135914000D01*
X147154000Y-135914000D01*
X147154000Y-135934000D01*
X146846000Y-135934000D01*
X146846000Y-135914000D01*
X145331985Y-135914000D01*
X145351920Y-136176950D01*
X145464930Y-136490463D01*
X145636932Y-136775905D01*
X145658874Y-136800000D01*
X139957194Y-136800000D01*
X139254841Y-135606000D01*
X145331985Y-135606000D01*
X146846000Y-135606000D01*
X147154000Y-135606000D01*
X148668015Y-135606000D01*
X148659979Y-135500000D01*
X155049516Y-135500000D01*
X155051447Y-135519603D01*
X155057165Y-135538454D01*
X155066451Y-135555826D01*
X155078947Y-135571053D01*
X155094174Y-135583549D01*
X155111546Y-135592835D01*
X155130397Y-135598553D01*
X155150000Y-135600484D01*
X155971000Y-135600000D01*
X155996000Y-135575000D01*
X155996000Y-134654000D01*
X156304000Y-134654000D01*
X156304000Y-135575000D01*
X156329000Y-135600000D01*
X157150000Y-135600484D01*
X157169603Y-135598553D01*
X157188454Y-135592835D01*
X157205826Y-135583549D01*
X157221053Y-135571053D01*
X157233549Y-135555826D01*
X157242835Y-135538454D01*
X157248553Y-135519603D01*
X157250484Y-135500000D01*
X157250000Y-134679000D01*
X157225000Y-134654000D01*
X156304000Y-134654000D01*
X155996000Y-134654000D01*
X155075000Y-134654000D01*
X155050000Y-134679000D01*
X155049516Y-135500000D01*
X148659979Y-135500000D01*
X148648080Y-135343050D01*
X148535070Y-135029537D01*
X148363068Y-134744095D01*
X148138684Y-134497694D01*
X147870541Y-134299803D01*
X147568943Y-134158026D01*
X147416949Y-134111925D01*
X147154000Y-134092094D01*
X147154000Y-135606000D01*
X146846000Y-135606000D01*
X146846000Y-134092094D01*
X146583051Y-134111925D01*
X146431057Y-134158026D01*
X146129459Y-134299803D01*
X145861316Y-134497694D01*
X145636932Y-134744095D01*
X145464930Y-135029537D01*
X145351920Y-135343050D01*
X145331985Y-135606000D01*
X139254841Y-135606000D01*
X137796466Y-133126763D01*
X138242688Y-132888252D01*
X138707110Y-132507110D01*
X139088252Y-132042688D01*
X139371466Y-131512832D01*
X139545869Y-130937904D01*
X139604757Y-130340000D01*
X139545869Y-129742096D01*
X139371466Y-129167168D01*
X139088252Y-128637312D01*
X138707110Y-128172890D01*
X138242688Y-127791748D01*
X137712832Y-127508534D01*
X137137904Y-127334131D01*
X136689831Y-127290000D01*
X136390169Y-127290000D01*
X136250000Y-127303805D01*
X136250000Y-118720000D01*
X140174417Y-118720000D01*
X145200000Y-123745585D01*
X145200001Y-128113408D01*
X145145155Y-128118810D01*
X144900104Y-128193145D01*
X144674264Y-128313860D01*
X144476313Y-128476313D01*
X144313860Y-128674264D01*
X144193145Y-128900104D01*
X144118810Y-129145155D01*
X144093710Y-129400000D01*
X144093710Y-132600000D01*
X144118810Y-132854845D01*
X144193145Y-133099896D01*
X144313860Y-133325736D01*
X144476313Y-133523687D01*
X144674264Y-133686140D01*
X144900104Y-133806855D01*
X145145155Y-133881190D01*
X145400000Y-133906290D01*
X148600000Y-133906290D01*
X148854845Y-133881190D01*
X149099896Y-133806855D01*
X149325736Y-133686140D01*
X149523687Y-133523687D01*
X149543126Y-133500000D01*
X155049516Y-133500000D01*
X155050000Y-134321000D01*
X155075000Y-134346000D01*
X155996000Y-134346000D01*
X155996000Y-133425000D01*
X156304000Y-133425000D01*
X156304000Y-134346000D01*
X157225000Y-134346000D01*
X157250000Y-134321000D01*
X157250484Y-133500000D01*
X157248553Y-133480397D01*
X157242835Y-133461546D01*
X157233549Y-133444174D01*
X157221053Y-133428947D01*
X157205826Y-133416451D01*
X157188454Y-133407165D01*
X157169603Y-133401447D01*
X157150000Y-133399516D01*
X156329000Y-133400000D01*
X156304000Y-133425000D01*
X155996000Y-133425000D01*
X155971000Y-133400000D01*
X155150000Y-133399516D01*
X155130397Y-133401447D01*
X155111546Y-133407165D01*
X155094174Y-133416451D01*
X155078947Y-133428947D01*
X155066451Y-133444174D01*
X155057165Y-133461546D01*
X155051447Y-133480397D01*
X155049516Y-133500000D01*
X149543126Y-133500000D01*
X149686140Y-133325736D01*
X149806855Y-133099896D01*
X149881190Y-132854845D01*
X149886592Y-132800000D01*
X150561584Y-132800000D01*
X150650000Y-132808708D01*
X150738416Y-132800000D01*
X150738424Y-132800000D01*
X151002862Y-132773955D01*
X151342163Y-132671029D01*
X151654865Y-132503887D01*
X151928950Y-132278950D01*
X151985321Y-132210262D01*
X156389294Y-127806290D01*
X157150000Y-127806290D01*
X157404845Y-127781190D01*
X157649896Y-127706855D01*
X157875736Y-127586140D01*
X158073687Y-127423687D01*
X158236140Y-127225736D01*
X158356855Y-126999896D01*
X158431190Y-126754845D01*
X158456290Y-126500000D01*
X158456290Y-124500000D01*
X158431190Y-124245155D01*
X158356855Y-124000104D01*
X158236140Y-123774264D01*
X158073687Y-123576313D01*
X157875736Y-123413860D01*
X157649896Y-123293145D01*
X157404845Y-123218810D01*
X157150000Y-123193710D01*
X155150000Y-123193710D01*
X154895155Y-123218810D01*
X154650104Y-123293145D01*
X154424264Y-123413860D01*
X154226313Y-123576313D01*
X154063860Y-123774264D01*
X153943145Y-124000104D01*
X153868810Y-124245155D01*
X153843710Y-124500000D01*
X153843710Y-125260706D01*
X149904417Y-129200000D01*
X149886592Y-129200000D01*
X149881190Y-129145155D01*
X149806855Y-128900104D01*
X149686140Y-128674264D01*
X149523687Y-128476313D01*
X149325736Y-128313860D01*
X149099896Y-128193145D01*
X148854845Y-128118810D01*
X148800000Y-128113408D01*
X148800000Y-123088415D01*
X148808708Y-122999999D01*
X148800000Y-122911583D01*
X148800000Y-122911576D01*
X148773955Y-122647138D01*
X148767144Y-122624683D01*
X148737222Y-122526045D01*
X148671029Y-122307837D01*
X148503887Y-121995135D01*
X148379615Y-121843710D01*
X148335317Y-121789732D01*
X148335312Y-121789727D01*
X148278950Y-121721050D01*
X148210274Y-121664689D01*
X148045585Y-121500000D01*
X155049516Y-121500000D01*
X155051447Y-121519603D01*
X155057165Y-121538454D01*
X155066451Y-121555826D01*
X155078947Y-121571053D01*
X155094174Y-121583549D01*
X155111546Y-121592835D01*
X155130397Y-121598553D01*
X155150000Y-121600484D01*
X155971000Y-121600000D01*
X155996000Y-121575000D01*
X155996000Y-120654000D01*
X156304000Y-120654000D01*
X156304000Y-121575000D01*
X156329000Y-121600000D01*
X157150000Y-121600484D01*
X157169603Y-121598553D01*
X157188454Y-121592835D01*
X157205826Y-121583549D01*
X157221053Y-121571053D01*
X157233549Y-121555826D01*
X157242835Y-121538454D01*
X157248553Y-121519603D01*
X157250484Y-121500000D01*
X157250000Y-120679000D01*
X157225000Y-120654000D01*
X156304000Y-120654000D01*
X155996000Y-120654000D01*
X155075000Y-120654000D01*
X155050000Y-120679000D01*
X155049516Y-121500000D01*
X148045585Y-121500000D01*
X146045585Y-119500000D01*
X155049516Y-119500000D01*
X155050000Y-120321000D01*
X155075000Y-120346000D01*
X155996000Y-120346000D01*
X155996000Y-119425000D01*
X156304000Y-119425000D01*
X156304000Y-120346000D01*
X157225000Y-120346000D01*
X157250000Y-120321000D01*
X157250484Y-119500000D01*
X157248553Y-119480397D01*
X157242835Y-119461546D01*
X157233549Y-119444174D01*
X157221053Y-119428947D01*
X157205826Y-119416451D01*
X157188454Y-119407165D01*
X157169603Y-119401447D01*
X157150000Y-119399516D01*
X156329000Y-119400000D01*
X156304000Y-119425000D01*
X155996000Y-119425000D01*
X155971000Y-119400000D01*
X155150000Y-119399516D01*
X155130397Y-119401447D01*
X155111546Y-119407165D01*
X155094174Y-119416451D01*
X155078947Y-119428947D01*
X155066451Y-119444174D01*
X155057165Y-119461546D01*
X155051447Y-119480397D01*
X155049516Y-119500000D01*
X146045585Y-119500000D01*
X142459584Y-115914000D01*
X145331985Y-115914000D01*
X145351920Y-116176950D01*
X145464930Y-116490463D01*
X145636932Y-116775905D01*
X145861316Y-117022306D01*
X146129459Y-117220197D01*
X146431057Y-117361974D01*
X146583051Y-117408075D01*
X146846000Y-117427906D01*
X146846000Y-115914000D01*
X147154000Y-115914000D01*
X147154000Y-117427906D01*
X147416949Y-117408075D01*
X147568943Y-117361974D01*
X147870541Y-117220197D01*
X148138684Y-117022306D01*
X148363068Y-116775905D01*
X148535070Y-116490463D01*
X148648080Y-116176950D01*
X148668015Y-115914000D01*
X147154000Y-115914000D01*
X146846000Y-115914000D01*
X145331985Y-115914000D01*
X142459584Y-115914000D01*
X142255321Y-115709738D01*
X142198950Y-115641050D01*
X142156242Y-115606000D01*
X145331985Y-115606000D01*
X146846000Y-115606000D01*
X147154000Y-115606000D01*
X148668015Y-115606000D01*
X148648080Y-115343050D01*
X148535070Y-115029537D01*
X148363068Y-114744095D01*
X148138684Y-114497694D01*
X147870541Y-114299803D01*
X147568943Y-114158026D01*
X147416949Y-114111925D01*
X147154000Y-114092094D01*
X147154000Y-115606000D01*
X146846000Y-115606000D01*
X146846000Y-114092094D01*
X146583051Y-114111925D01*
X146431057Y-114158026D01*
X146129459Y-114299803D01*
X145861316Y-114497694D01*
X145636932Y-114744095D01*
X145464930Y-115029537D01*
X145351920Y-115343050D01*
X145331985Y-115606000D01*
X142156242Y-115606000D01*
X141924865Y-115416113D01*
X141612163Y-115248971D01*
X141272862Y-115146045D01*
X141008424Y-115120000D01*
X141008416Y-115120000D01*
X140920000Y-115111292D01*
X140831584Y-115120000D01*
X134904829Y-115120000D01*
X134804977Y-115038053D01*
X134413665Y-114828893D01*
X133989067Y-114700093D01*
X133658148Y-114667500D01*
X132341852Y-114667500D01*
X132010933Y-114700093D01*
X131586335Y-114828893D01*
X131195023Y-115038053D01*
X130852036Y-115319536D01*
X130570553Y-115662523D01*
X130361393Y-116053835D01*
X130232593Y-116478433D01*
X130189102Y-116920000D01*
X130216680Y-117200000D01*
X128450000Y-117200000D01*
X128430491Y-117201921D01*
X128411732Y-117207612D01*
X128394443Y-117216853D01*
X128378217Y-117230379D01*
X120328217Y-125530379D01*
X120316013Y-125545721D01*
X120307038Y-125563149D01*
X120301635Y-125581993D01*
X120300006Y-125598889D01*
X120201105Y-134500000D01*
X111900000Y-134500000D01*
X111880491Y-134501921D01*
X111861732Y-134507612D01*
X111844443Y-134516853D01*
X111826151Y-134532573D01*
X106575000Y-140283834D01*
X106575000Y-139402386D01*
X109055452Y-136921935D01*
X109322162Y-136841029D01*
X109634864Y-136673886D01*
X109840266Y-136505317D01*
X110200263Y-136145320D01*
X110268950Y-136088950D01*
X110493887Y-135814865D01*
X110661029Y-135502163D01*
X110763955Y-135162862D01*
X110790000Y-134898424D01*
X110790000Y-134898416D01*
X110798708Y-134810000D01*
X110790000Y-134721584D01*
X110790000Y-130340000D01*
X111475243Y-130340000D01*
X111534131Y-130937904D01*
X111708534Y-131512832D01*
X111991748Y-132042688D01*
X112372890Y-132507110D01*
X112837312Y-132888252D01*
X113367168Y-133171466D01*
X113942096Y-133345869D01*
X114390169Y-133390000D01*
X114689831Y-133390000D01*
X115137904Y-133345869D01*
X115712832Y-133171466D01*
X116242688Y-132888252D01*
X116707110Y-132507110D01*
X117088252Y-132042688D01*
X117371466Y-131512832D01*
X117545869Y-130937904D01*
X117604757Y-130340000D01*
X117545869Y-129742096D01*
X117371466Y-129167168D01*
X117088252Y-128637312D01*
X116707110Y-128172890D01*
X116242688Y-127791748D01*
X115712832Y-127508534D01*
X115137904Y-127334131D01*
X114689831Y-127290000D01*
X114390169Y-127290000D01*
X113942096Y-127334131D01*
X113367168Y-127508534D01*
X112837312Y-127791748D01*
X112372890Y-128172890D01*
X111991748Y-128637312D01*
X111708534Y-129167168D01*
X111534131Y-129742096D01*
X111475243Y-130340000D01*
X110790000Y-130340000D01*
X110790000Y-123946007D01*
X110895305Y-123788407D01*
X111057377Y-123397132D01*
X111140000Y-122981757D01*
X111140000Y-122558243D01*
X111057377Y-122142868D01*
X110895305Y-121751593D01*
X110660014Y-121399455D01*
X110360545Y-121099986D01*
X110008407Y-120864695D01*
X109617132Y-120702623D01*
X109201757Y-120620000D01*
X108778243Y-120620000D01*
X108362868Y-120702623D01*
X107971593Y-120864695D01*
X107619455Y-121099986D01*
X107319986Y-121399455D01*
X107084695Y-121751593D01*
X107070818Y-121785096D01*
X106900004Y-121529455D01*
X106600535Y-121229986D01*
X106248397Y-120994695D01*
X106076639Y-120923550D01*
X106107897Y-120897897D01*
X106320337Y-120639039D01*
X106478194Y-120343709D01*
X106575402Y-120023258D01*
X106600000Y-119773510D01*
X106600000Y-119773501D01*
X106608224Y-119690001D01*
X106600000Y-119606501D01*
X106600000Y-119460000D01*
X113275243Y-119460000D01*
X113334131Y-120057904D01*
X113508534Y-120632832D01*
X113791748Y-121162688D01*
X114172890Y-121627110D01*
X114637312Y-122008252D01*
X115167168Y-122291466D01*
X115742096Y-122465869D01*
X116190169Y-122510000D01*
X116489831Y-122510000D01*
X116937904Y-122465869D01*
X117512832Y-122291466D01*
X118042688Y-122008252D01*
X118507110Y-121627110D01*
X118888252Y-121162688D01*
X119171466Y-120632832D01*
X119345869Y-120057904D01*
X119404757Y-119460000D01*
X119345869Y-118862096D01*
X119171466Y-118287168D01*
X118888252Y-117757312D01*
X118507110Y-117292890D01*
X118042688Y-116911748D01*
X117512832Y-116628534D01*
X116937904Y-116454131D01*
X116489831Y-116410000D01*
X116190169Y-116410000D01*
X115742096Y-116454131D01*
X115167168Y-116628534D01*
X114637312Y-116911748D01*
X114172890Y-117292890D01*
X113791748Y-117757312D01*
X113508534Y-118287168D01*
X113334131Y-118862096D01*
X113275243Y-119460000D01*
X106600000Y-119460000D01*
X106600000Y-118467608D01*
X106696309Y-118350255D01*
X106895951Y-117976750D01*
X106905021Y-117946850D01*
X107040255Y-118025454D01*
X107141249Y-118051803D01*
X107286000Y-118062090D01*
X107286000Y-116654000D01*
X107594000Y-116654000D01*
X107594000Y-118062090D01*
X107738751Y-118051803D01*
X107839745Y-118025454D01*
X108002857Y-117930646D01*
X108144338Y-117805838D01*
X108258752Y-117655827D01*
X108341702Y-117486377D01*
X108390000Y-117304000D01*
X108390000Y-116654000D01*
X107594000Y-116654000D01*
X107286000Y-116654000D01*
X107266000Y-116654000D01*
X107266000Y-116346000D01*
X107286000Y-116346000D01*
X107594000Y-116346000D01*
X108390000Y-116346000D01*
X108390000Y-115696000D01*
X108341702Y-115513623D01*
X108258752Y-115344173D01*
X108144338Y-115194162D01*
X108002857Y-115069354D01*
X107839745Y-114974546D01*
X107738751Y-114948197D01*
X107594000Y-114937910D01*
X107594000Y-116346000D01*
X107286000Y-116346000D01*
X107286000Y-114937910D01*
X107141249Y-114948197D01*
X107040255Y-114974546D01*
X106905021Y-115053150D01*
X106895951Y-115023250D01*
X106696309Y-114649745D01*
X106451937Y-114351977D01*
X106431777Y-114285517D01*
X106331348Y-114097629D01*
X106278562Y-113998874D01*
X106072371Y-113747629D01*
X106009408Y-113695957D01*
X105180642Y-112867191D01*
X105159081Y-112840919D01*
X104919257Y-112644100D01*
X104645642Y-112497850D01*
X104348754Y-112407790D01*
X104117366Y-112385000D01*
X104117358Y-112385000D01*
X104040000Y-112377381D01*
X103962642Y-112385000D01*
X83337358Y-112385000D01*
X83260000Y-112377381D01*
X83182642Y-112385000D01*
X83182634Y-112385000D01*
X82951246Y-112407790D01*
X82654358Y-112497850D01*
X82380743Y-112644100D01*
X82330882Y-112685020D01*
X82318873Y-112691439D01*
X82130586Y-112845962D01*
X81018294Y-113958255D01*
X80839745Y-114053691D01*
X80512365Y-114322365D01*
X80243691Y-114649745D01*
X80110094Y-114899689D01*
X79679000Y-114900000D01*
X79654000Y-114925000D01*
X79654000Y-116346000D01*
X79674000Y-116346000D01*
X79674000Y-116654000D01*
X79654000Y-116654000D01*
X79654000Y-118075000D01*
X79679000Y-118100000D01*
X80110095Y-118100311D01*
X80163379Y-118200000D01*
X79595583Y-118200000D01*
X79346000Y-117950418D01*
X79346000Y-116654000D01*
X78575000Y-116654000D01*
X78550000Y-116679000D01*
X78549826Y-117154244D01*
X78121738Y-116726156D01*
X78113955Y-116647138D01*
X78011029Y-116307837D01*
X77909814Y-116118477D01*
X77912619Y-116090000D01*
X77905000Y-116012641D01*
X77905000Y-116012634D01*
X77882210Y-115781246D01*
X77792150Y-115484358D01*
X77645900Y-115210743D01*
X77472948Y-115000000D01*
X78549516Y-115000000D01*
X78550000Y-116321000D01*
X78575000Y-116346000D01*
X79346000Y-116346000D01*
X79346000Y-114925000D01*
X79321000Y-114900000D01*
X78650000Y-114899516D01*
X78630397Y-114901447D01*
X78611546Y-114907165D01*
X78594174Y-114916451D01*
X78578947Y-114928947D01*
X78566451Y-114944174D01*
X78557165Y-114961546D01*
X78551447Y-114980397D01*
X78549516Y-115000000D01*
X77472948Y-115000000D01*
X77449081Y-114970919D01*
X77388988Y-114921602D01*
X75678399Y-113211013D01*
X75629081Y-113150919D01*
X75389257Y-112954100D01*
X75115642Y-112807850D01*
X74818754Y-112717790D01*
X74587366Y-112695000D01*
X74587358Y-112695000D01*
X74510000Y-112687381D01*
X74432642Y-112695000D01*
X61657358Y-112695000D01*
X61580000Y-112687381D01*
X61502641Y-112695000D01*
X61502634Y-112695000D01*
X61271246Y-112717790D01*
X60974358Y-112807850D01*
X60700743Y-112954100D01*
X60460919Y-113150919D01*
X60411601Y-113211013D01*
X60384200Y-113238414D01*
X60228875Y-113321438D01*
X60040587Y-113475962D01*
X59235328Y-114281221D01*
X59099746Y-114353691D01*
X58772366Y-114622365D01*
X58503692Y-114949745D01*
X58304050Y-115323250D01*
X58294980Y-115353150D01*
X58159745Y-115274546D01*
X58058751Y-115248197D01*
X57914000Y-115237910D01*
X57914000Y-116646000D01*
X57934000Y-116646000D01*
X57934000Y-116954000D01*
X57914000Y-116954000D01*
X57914000Y-118362090D01*
X58000000Y-118355978D01*
X58000000Y-119347309D01*
X54243547Y-123103763D01*
X54155787Y-123175786D01*
X54083764Y-123263546D01*
X54083763Y-123263547D01*
X54070328Y-123279918D01*
X53868368Y-123526006D01*
X53654797Y-123925570D01*
X53523280Y-124359121D01*
X53490000Y-124697016D01*
X53490000Y-124697024D01*
X53478873Y-124810000D01*
X53490000Y-124922976D01*
X53490000Y-126097024D01*
X53478873Y-126210000D01*
X53490000Y-126322976D01*
X53490000Y-128002983D01*
X53490001Y-128002993D01*
X53490000Y-132150227D01*
X53453860Y-132194264D01*
X53407496Y-132281004D01*
X53270743Y-132354100D01*
X53030919Y-132550919D01*
X52981601Y-132611013D01*
X52581008Y-133011606D01*
X52520920Y-133060919D01*
X52471607Y-133121007D01*
X52471601Y-133121013D01*
X52324100Y-133300744D01*
X52177851Y-133574358D01*
X52087790Y-133871247D01*
X52057381Y-134180000D01*
X52065001Y-134257368D01*
X52065000Y-136972641D01*
X52057381Y-137050000D01*
X52065000Y-137127358D01*
X52065000Y-137127365D01*
X52087790Y-137358753D01*
X52177850Y-137655641D01*
X52292427Y-137870000D01*
X52324100Y-137929256D01*
X52464836Y-138100743D01*
X52520919Y-138169081D01*
X52581013Y-138218399D01*
X53701601Y-139338987D01*
X53750919Y-139399081D01*
X53990743Y-139595900D01*
X54264358Y-139742150D01*
X54561246Y-139832210D01*
X54792634Y-139855000D01*
X54792641Y-139855000D01*
X54870000Y-139862619D01*
X54947358Y-139855000D01*
X55944000Y-139855000D01*
X55944000Y-140104000D01*
X55924000Y-140104000D01*
X55924000Y-140783646D01*
X55936296Y-140786318D01*
X55666014Y-141056600D01*
X55605925Y-141105914D01*
X55556612Y-141166002D01*
X55556606Y-141166008D01*
X55409105Y-141345739D01*
X55262856Y-141619353D01*
X55172795Y-141916242D01*
X55142386Y-142224995D01*
X55150006Y-142302363D01*
X55150005Y-144842636D01*
X55142386Y-144919995D01*
X55150005Y-144997353D01*
X55150005Y-144997360D01*
X55172795Y-145228748D01*
X55262855Y-145525636D01*
X55409105Y-145799251D01*
X55605924Y-146039076D01*
X55666018Y-146088394D01*
X56865001Y-147287378D01*
X56865000Y-153675689D01*
X56733234Y-153626238D01*
X56558290Y-153597525D01*
X56381106Y-153603495D01*
X56208491Y-153643916D01*
X56100786Y-153688529D01*
X55996706Y-153778917D01*
X56500000Y-154282211D01*
X56514142Y-154268069D01*
X56731931Y-154485858D01*
X56717789Y-154500000D01*
X56731931Y-154514142D01*
X56514142Y-154731931D01*
X56500000Y-154717789D01*
X56485858Y-154731931D01*
X56268069Y-154514142D01*
X56282211Y-154500000D01*
X55778917Y-153996706D01*
X55688529Y-154100786D01*
X55626238Y-154266766D01*
X55597525Y-154441710D01*
X55603495Y-154618894D01*
X55643916Y-154791509D01*
X55686788Y-154895011D01*
X55445155Y-154918810D01*
X55200104Y-154993145D01*
X54974264Y-155113860D01*
X54776313Y-155276313D01*
X54613860Y-155474264D01*
X54493145Y-155700104D01*
X54418810Y-155945155D01*
X54394922Y-156187692D01*
X53542614Y-157040000D01*
X53408243Y-157040000D01*
X52992868Y-157122623D01*
X52601593Y-157284695D01*
X52249455Y-157519986D01*
X51949986Y-157819455D01*
X51714695Y-158171593D01*
X51552623Y-158562868D01*
X51492203Y-158866619D01*
X49835583Y-157210000D01*
X50290261Y-156755322D01*
X50358950Y-156698950D01*
X50583887Y-156424865D01*
X50751029Y-156112163D01*
X50853955Y-155772862D01*
X50880000Y-155508424D01*
X50880000Y-155508416D01*
X50888708Y-155420000D01*
X50880000Y-155331584D01*
X50880000Y-148904829D01*
X50961947Y-148804977D01*
X51171107Y-148413664D01*
X51299907Y-147989066D01*
X51332500Y-147658147D01*
X51332500Y-146341852D01*
X51299907Y-146010933D01*
X51171107Y-145586335D01*
X50961947Y-145195023D01*
X50680464Y-144852036D01*
X50337477Y-144570553D01*
X49946164Y-144361393D01*
X49521566Y-144232593D01*
X49080000Y-144189102D01*
X48638433Y-144232593D01*
X48213835Y-144361393D01*
X47822523Y-144570553D01*
X47479536Y-144852036D01*
X47198053Y-145195023D01*
X47029011Y-145511280D01*
X46996692Y-145491822D01*
X46854979Y-145448236D01*
X46694000Y-145436606D01*
X46694000Y-146846000D01*
X46714000Y-146846000D01*
X46714000Y-147154000D01*
X46694000Y-147154000D01*
X46694000Y-148563394D01*
X46854979Y-148551764D01*
X46996692Y-148508178D01*
X47029011Y-148488720D01*
X47198054Y-148804977D01*
X47280000Y-148904828D01*
X47280001Y-154674416D01*
X47234417Y-154720000D01*
X46871486Y-154720000D01*
X46668424Y-154700000D01*
X46668416Y-154700000D01*
X46625555Y-154695779D01*
X46525736Y-154613860D01*
X46299896Y-154493145D01*
X46054845Y-154418810D01*
X45813054Y-154394996D01*
X45873762Y-154233234D01*
X45902475Y-154058290D01*
X45896505Y-153881106D01*
X45856084Y-153708491D01*
X45811471Y-153600786D01*
X45721083Y-153496706D01*
X45217789Y-154000000D01*
X45231931Y-154014142D01*
X45014142Y-154231931D01*
X45000000Y-154217789D01*
X44985858Y-154231931D01*
X44768069Y-154014142D01*
X44782211Y-154000000D01*
X44278917Y-153496706D01*
X44188529Y-153600786D01*
X44126238Y-153766766D01*
X44097525Y-153941710D01*
X44103495Y-154118894D01*
X44143916Y-154291509D01*
X44186788Y-154395011D01*
X43945155Y-154418810D01*
X43700104Y-154493145D01*
X43474264Y-154613860D01*
X43276313Y-154776313D01*
X43113860Y-154974264D01*
X42993145Y-155200104D01*
X42918810Y-155445155D01*
X42893710Y-155700000D01*
X42893710Y-157300000D01*
X42918810Y-157554845D01*
X42993145Y-157799896D01*
X43113860Y-158025736D01*
X43276313Y-158223687D01*
X43474264Y-158386140D01*
X43700104Y-158506855D01*
X43945155Y-158581190D01*
X44200000Y-158606290D01*
X45800000Y-158606290D01*
X46054845Y-158581190D01*
X46101465Y-158567048D01*
X46579733Y-159045317D01*
X46579738Y-159045321D01*
X50672748Y-163138332D01*
X50654818Y-163160180D01*
X50431961Y-163577116D01*
X50294726Y-164029518D01*
X50248388Y-164500000D01*
X50294726Y-164970482D01*
X50431961Y-165422884D01*
X50654818Y-165839820D01*
X50954733Y-166205267D01*
X51320180Y-166505182D01*
X51737116Y-166728039D01*
X52189518Y-166865274D01*
X52542100Y-166900000D01*
X52777900Y-166900000D01*
X53130482Y-166865274D01*
X53582884Y-166728039D01*
X53999820Y-166505182D01*
X54365267Y-166205267D01*
X54665182Y-165839820D01*
X54888039Y-165422884D01*
X55025274Y-164970482D01*
X55056976Y-164648608D01*
X56405584Y-163300000D01*
X57300104Y-163300000D01*
X57313860Y-163325736D01*
X57476313Y-163523687D01*
X57674264Y-163686140D01*
X57748114Y-163725614D01*
X57828971Y-163992162D01*
X57896752Y-164118971D01*
X57996114Y-164304865D01*
X58221051Y-164578950D01*
X58289734Y-164635317D01*
X65644687Y-171990272D01*
X65701050Y-172058950D01*
X65769727Y-172115312D01*
X65769732Y-172115317D01*
X65815886Y-172153194D01*
X65881272Y-172206855D01*
X66749733Y-173075317D01*
X66955136Y-173243886D01*
X67060117Y-173300000D01*
X54600366Y-173300000D01*
X54600000Y-172679000D01*
X54575000Y-172654000D01*
X53654000Y-172654000D01*
X53654000Y-172674000D01*
X53346000Y-172674000D01*
X53346000Y-172654000D01*
X52425000Y-172654000D01*
X52400000Y-172679000D01*
X52399695Y-173195532D01*
X51306290Y-172102127D01*
X51306290Y-171500000D01*
X52399516Y-171500000D01*
X52400000Y-172321000D01*
X52425000Y-172346000D01*
X53346000Y-172346000D01*
X53346000Y-171425000D01*
X53654000Y-171425000D01*
X53654000Y-172346000D01*
X54575000Y-172346000D01*
X54600000Y-172321000D01*
X54600298Y-171814000D01*
X58334915Y-171814000D01*
X58348658Y-171998274D01*
X58436775Y-172216390D01*
X58565751Y-172413124D01*
X58730630Y-172580916D01*
X58925075Y-172713317D01*
X59141614Y-172805240D01*
X59161727Y-172811334D01*
X59346000Y-172824864D01*
X59346000Y-171814000D01*
X59654000Y-171814000D01*
X59654000Y-172824864D01*
X59838273Y-172811334D01*
X59858386Y-172805240D01*
X60074925Y-172713317D01*
X60269370Y-172580916D01*
X60434249Y-172413124D01*
X60563225Y-172216390D01*
X60651342Y-171998274D01*
X60665085Y-171814000D01*
X59654000Y-171814000D01*
X59346000Y-171814000D01*
X58334915Y-171814000D01*
X54600298Y-171814000D01*
X54600480Y-171506000D01*
X58334915Y-171506000D01*
X59346000Y-171506000D01*
X59654000Y-171506000D01*
X60665085Y-171506000D01*
X60651342Y-171321726D01*
X60563225Y-171103610D01*
X60434249Y-170906876D01*
X60269370Y-170739084D01*
X60074925Y-170606683D01*
X59858386Y-170514760D01*
X59838273Y-170508666D01*
X59654000Y-170495136D01*
X59654000Y-171506000D01*
X59346000Y-171506000D01*
X59346000Y-170495136D01*
X59161727Y-170508666D01*
X59141614Y-170514760D01*
X58925075Y-170606683D01*
X58730630Y-170739084D01*
X58565751Y-170906876D01*
X58436775Y-171103610D01*
X58348658Y-171321726D01*
X58334915Y-171506000D01*
X54600480Y-171506000D01*
X54600484Y-171500000D01*
X54598553Y-171480397D01*
X54592835Y-171461546D01*
X54583549Y-171444174D01*
X54571053Y-171428947D01*
X54555826Y-171416451D01*
X54538454Y-171407165D01*
X54519603Y-171401447D01*
X54500000Y-171399516D01*
X53679000Y-171400000D01*
X53654000Y-171425000D01*
X53346000Y-171425000D01*
X53321000Y-171400000D01*
X52500000Y-171399516D01*
X52480397Y-171401447D01*
X52461546Y-171407165D01*
X52444174Y-171416451D01*
X52428947Y-171428947D01*
X52416451Y-171444174D01*
X52407165Y-171461546D01*
X52401447Y-171480397D01*
X52399516Y-171500000D01*
X51306290Y-171500000D01*
X51306290Y-171000000D01*
X51281190Y-170745155D01*
X51206855Y-170500104D01*
X51086140Y-170274264D01*
X50923687Y-170076313D01*
X50725736Y-169913860D01*
X50600000Y-169846652D01*
X50600000Y-167900000D01*
X50598079Y-167880491D01*
X50592388Y-167861732D01*
X50583147Y-167844443D01*
X50570711Y-167829289D01*
X43470711Y-160729289D01*
X43455557Y-160716853D01*
X43438268Y-160707612D01*
X43419509Y-160701921D01*
X43407975Y-160700318D01*
X42249589Y-160607647D01*
X42248896Y-160452489D01*
X42405305Y-160218407D01*
X42567377Y-159827132D01*
X42650000Y-159411757D01*
X42650000Y-158988243D01*
X42567377Y-158572868D01*
X42405305Y-158181593D01*
X42237638Y-157930662D01*
X42216871Y-153278917D01*
X44496706Y-153278917D01*
X45000000Y-153782211D01*
X45503294Y-153278917D01*
X45399214Y-153188529D01*
X45233234Y-153126238D01*
X45058290Y-153097525D01*
X44881106Y-153103495D01*
X44708491Y-153143916D01*
X44600786Y-153188529D01*
X44496706Y-153278917D01*
X42216871Y-153278917D01*
X42207723Y-151229797D01*
X43631231Y-149806290D01*
X44952500Y-149806290D01*
X45207345Y-149781190D01*
X45452396Y-149706855D01*
X45678236Y-149586140D01*
X45876187Y-149423687D01*
X46038640Y-149225736D01*
X46159355Y-148999896D01*
X46233690Y-148754845D01*
X46253489Y-148553821D01*
X46386000Y-148563394D01*
X46386000Y-147154000D01*
X46366000Y-147154000D01*
X46366000Y-146846000D01*
X46386000Y-146846000D01*
X46386000Y-145436606D01*
X46253489Y-145446179D01*
X46233690Y-145245155D01*
X46159355Y-145000104D01*
X46038640Y-144774264D01*
X45876187Y-144576313D01*
X45678236Y-144413860D01*
X45452396Y-144293145D01*
X45207345Y-144218810D01*
X44952500Y-144193710D01*
X43047500Y-144193710D01*
X42792655Y-144218810D01*
X42547604Y-144293145D01*
X42321764Y-144413860D01*
X42123813Y-144576313D01*
X41961360Y-144774264D01*
X41840645Y-145000104D01*
X41766310Y-145245155D01*
X41741210Y-145500000D01*
X41741210Y-146916269D01*
X39363693Y-149293787D01*
X39350000Y-149305025D01*
X39350000Y-140104000D01*
X54709501Y-140104000D01*
X54718450Y-140232873D01*
X54780418Y-140396661D01*
X54881768Y-140532364D01*
X55007645Y-140645687D01*
X55153212Y-140732275D01*
X55312874Y-140788801D01*
X55480496Y-140813092D01*
X55616000Y-140783646D01*
X55616000Y-140104000D01*
X54709501Y-140104000D01*
X39350000Y-140104000D01*
X39350000Y-130340000D01*
X43475243Y-130340000D01*
X43534131Y-130937904D01*
X43708534Y-131512832D01*
X43991748Y-132042688D01*
X44372890Y-132507110D01*
X44837312Y-132888252D01*
X45367168Y-133171466D01*
X45942096Y-133345869D01*
X46390169Y-133390000D01*
X46689831Y-133390000D01*
X47137904Y-133345869D01*
X47712832Y-133171466D01*
X48242688Y-132888252D01*
X48707110Y-132507110D01*
X49088252Y-132042688D01*
X49371466Y-131512832D01*
X49545869Y-130937904D01*
X49604757Y-130340000D01*
X49545869Y-129742096D01*
X49371466Y-129167168D01*
X49088252Y-128637312D01*
X48707110Y-128172890D01*
X48242688Y-127791748D01*
X47712832Y-127508534D01*
X47137904Y-127334131D01*
X46689831Y-127290000D01*
X46390169Y-127290000D01*
X45942096Y-127334131D01*
X45367168Y-127508534D01*
X44837312Y-127791748D01*
X44372890Y-128172890D01*
X43991748Y-128637312D01*
X43708534Y-129167168D01*
X43534131Y-129742096D01*
X43475243Y-130340000D01*
X39350000Y-130340000D01*
X39350000Y-117757476D01*
X39721141Y-117831301D01*
X40278859Y-117831301D01*
X40825860Y-117722495D01*
X41341124Y-117509066D01*
X41804849Y-117199215D01*
X42050064Y-116954000D01*
X56810000Y-116954000D01*
X56810000Y-117604000D01*
X56858298Y-117786377D01*
X56941248Y-117955827D01*
X57055662Y-118105838D01*
X57197143Y-118230646D01*
X57360255Y-118325454D01*
X57461249Y-118351803D01*
X57606000Y-118362090D01*
X57606000Y-116954000D01*
X56810000Y-116954000D01*
X42050064Y-116954000D01*
X42199215Y-116804849D01*
X42509066Y-116341124D01*
X42652020Y-115996000D01*
X56810000Y-115996000D01*
X56810000Y-116646000D01*
X57606000Y-116646000D01*
X57606000Y-115237910D01*
X57461249Y-115248197D01*
X57360255Y-115274546D01*
X57197143Y-115369354D01*
X57055662Y-115494162D01*
X56941248Y-115644173D01*
X56858298Y-115813623D01*
X56810000Y-115996000D01*
X42652020Y-115996000D01*
X42722495Y-115825860D01*
X42831301Y-115278859D01*
X42831301Y-114721141D01*
X42722495Y-114174140D01*
X42509066Y-113658876D01*
X42199215Y-113195151D01*
X41804849Y-112800785D01*
X41341124Y-112490934D01*
X41000879Y-112350000D01*
X130066321Y-112350000D01*
X130264646Y-112330467D01*
X130282668Y-112325000D01*
X157059477Y-112325000D01*
X156658876Y-112490934D01*
X156658876Y-112490934D01*
G37*
X156658876Y-112490934D02*
X156195151Y-112800785D01*
X155800785Y-113195151D01*
X155490934Y-113658876D01*
X155277505Y-114174140D01*
X155168699Y-114721141D01*
X155168699Y-115278859D01*
X155277505Y-115825860D01*
X155490934Y-116341124D01*
X155800785Y-116804849D01*
X156195151Y-117199215D01*
X156658876Y-117509066D01*
X157174140Y-117722495D01*
X157721141Y-117831301D01*
X158278859Y-117831301D01*
X158825860Y-117722495D01*
X159341124Y-117509066D01*
X159675001Y-117285977D01*
X159675001Y-137210317D01*
X159520337Y-136920961D01*
X159307897Y-136662103D01*
X159243031Y-136608868D01*
X159021129Y-136386967D01*
X158967897Y-136322103D01*
X158903035Y-136268872D01*
X158903031Y-136268868D01*
X158709039Y-136109663D01*
X158687462Y-136098130D01*
X158413709Y-135951806D01*
X158093258Y-135854598D01*
X157843510Y-135830000D01*
X157843500Y-135830000D01*
X157760000Y-135821776D01*
X157676500Y-135830000D01*
X153263500Y-135830000D01*
X153180000Y-135821776D01*
X153096500Y-135830000D01*
X153096490Y-135830000D01*
X152846742Y-135854598D01*
X152526291Y-135951806D01*
X152398211Y-136020266D01*
X152230960Y-136109663D01*
X152036968Y-136268868D01*
X152036960Y-136268876D01*
X151972103Y-136322103D01*
X151918876Y-136386960D01*
X151505836Y-136800000D01*
X148341126Y-136800000D01*
X148363068Y-136775905D01*
X148535070Y-136490463D01*
X148648080Y-136176950D01*
X148668015Y-135914000D01*
X147154000Y-135914000D01*
X147154000Y-135934000D01*
X146846000Y-135934000D01*
X146846000Y-135914000D01*
X145331985Y-135914000D01*
X145351920Y-136176950D01*
X145464930Y-136490463D01*
X145636932Y-136775905D01*
X145658874Y-136800000D01*
X139957194Y-136800000D01*
X139254841Y-135606000D01*
X145331985Y-135606000D01*
X146846000Y-135606000D01*
X147154000Y-135606000D01*
X148668015Y-135606000D01*
X148659979Y-135500000D01*
X155049516Y-135500000D01*
X155051447Y-135519603D01*
X155057165Y-135538454D01*
X155066451Y-135555826D01*
X155078947Y-135571053D01*
X155094174Y-135583549D01*
X155111546Y-135592835D01*
X155130397Y-135598553D01*
X155150000Y-135600484D01*
X155971000Y-135600000D01*
X155996000Y-135575000D01*
X155996000Y-134654000D01*
X156304000Y-134654000D01*
X156304000Y-135575000D01*
X156329000Y-135600000D01*
X157150000Y-135600484D01*
X157169603Y-135598553D01*
X157188454Y-135592835D01*
X157205826Y-135583549D01*
X157221053Y-135571053D01*
X157233549Y-135555826D01*
X157242835Y-135538454D01*
X157248553Y-135519603D01*
X157250484Y-135500000D01*
X157250000Y-134679000D01*
X157225000Y-134654000D01*
X156304000Y-134654000D01*
X155996000Y-134654000D01*
X155075000Y-134654000D01*
X155050000Y-134679000D01*
X155049516Y-135500000D01*
X148659979Y-135500000D01*
X148648080Y-135343050D01*
X148535070Y-135029537D01*
X148363068Y-134744095D01*
X148138684Y-134497694D01*
X147870541Y-134299803D01*
X147568943Y-134158026D01*
X147416949Y-134111925D01*
X147154000Y-134092094D01*
X147154000Y-135606000D01*
X146846000Y-135606000D01*
X146846000Y-134092094D01*
X146583051Y-134111925D01*
X146431057Y-134158026D01*
X146129459Y-134299803D01*
X145861316Y-134497694D01*
X145636932Y-134744095D01*
X145464930Y-135029537D01*
X145351920Y-135343050D01*
X145331985Y-135606000D01*
X139254841Y-135606000D01*
X137796466Y-133126763D01*
X138242688Y-132888252D01*
X138707110Y-132507110D01*
X139088252Y-132042688D01*
X139371466Y-131512832D01*
X139545869Y-130937904D01*
X139604757Y-130340000D01*
X139545869Y-129742096D01*
X139371466Y-129167168D01*
X139088252Y-128637312D01*
X138707110Y-128172890D01*
X138242688Y-127791748D01*
X137712832Y-127508534D01*
X137137904Y-127334131D01*
X136689831Y-127290000D01*
X136390169Y-127290000D01*
X136250000Y-127303805D01*
X136250000Y-118720000D01*
X140174417Y-118720000D01*
X145200000Y-123745585D01*
X145200001Y-128113408D01*
X145145155Y-128118810D01*
X144900104Y-128193145D01*
X144674264Y-128313860D01*
X144476313Y-128476313D01*
X144313860Y-128674264D01*
X144193145Y-128900104D01*
X144118810Y-129145155D01*
X144093710Y-129400000D01*
X144093710Y-132600000D01*
X144118810Y-132854845D01*
X144193145Y-133099896D01*
X144313860Y-133325736D01*
X144476313Y-133523687D01*
X144674264Y-133686140D01*
X144900104Y-133806855D01*
X145145155Y-133881190D01*
X145400000Y-133906290D01*
X148600000Y-133906290D01*
X148854845Y-133881190D01*
X149099896Y-133806855D01*
X149325736Y-133686140D01*
X149523687Y-133523687D01*
X149543126Y-133500000D01*
X155049516Y-133500000D01*
X155050000Y-134321000D01*
X155075000Y-134346000D01*
X155996000Y-134346000D01*
X155996000Y-133425000D01*
X156304000Y-133425000D01*
X156304000Y-134346000D01*
X157225000Y-134346000D01*
X157250000Y-134321000D01*
X157250484Y-133500000D01*
X157248553Y-133480397D01*
X157242835Y-133461546D01*
X157233549Y-133444174D01*
X157221053Y-133428947D01*
X157205826Y-133416451D01*
X157188454Y-133407165D01*
X157169603Y-133401447D01*
X157150000Y-133399516D01*
X156329000Y-133400000D01*
X156304000Y-133425000D01*
X155996000Y-133425000D01*
X155971000Y-133400000D01*
X155150000Y-133399516D01*
X155130397Y-133401447D01*
X155111546Y-133407165D01*
X155094174Y-133416451D01*
X155078947Y-133428947D01*
X155066451Y-133444174D01*
X155057165Y-133461546D01*
X155051447Y-133480397D01*
X155049516Y-133500000D01*
X149543126Y-133500000D01*
X149686140Y-133325736D01*
X149806855Y-133099896D01*
X149881190Y-132854845D01*
X149886592Y-132800000D01*
X150561584Y-132800000D01*
X150650000Y-132808708D01*
X150738416Y-132800000D01*
X150738424Y-132800000D01*
X151002862Y-132773955D01*
X151342163Y-132671029D01*
X151654865Y-132503887D01*
X151928950Y-132278950D01*
X151985321Y-132210262D01*
X156389294Y-127806290D01*
X157150000Y-127806290D01*
X157404845Y-127781190D01*
X157649896Y-127706855D01*
X157875736Y-127586140D01*
X158073687Y-127423687D01*
X158236140Y-127225736D01*
X158356855Y-126999896D01*
X158431190Y-126754845D01*
X158456290Y-126500000D01*
X158456290Y-124500000D01*
X158431190Y-124245155D01*
X158356855Y-124000104D01*
X158236140Y-123774264D01*
X158073687Y-123576313D01*
X157875736Y-123413860D01*
X157649896Y-123293145D01*
X157404845Y-123218810D01*
X157150000Y-123193710D01*
X155150000Y-123193710D01*
X154895155Y-123218810D01*
X154650104Y-123293145D01*
X154424264Y-123413860D01*
X154226313Y-123576313D01*
X154063860Y-123774264D01*
X153943145Y-124000104D01*
X153868810Y-124245155D01*
X153843710Y-124500000D01*
X153843710Y-125260706D01*
X149904417Y-129200000D01*
X149886592Y-129200000D01*
X149881190Y-129145155D01*
X149806855Y-128900104D01*
X149686140Y-128674264D01*
X149523687Y-128476313D01*
X149325736Y-128313860D01*
X149099896Y-128193145D01*
X148854845Y-128118810D01*
X148800000Y-128113408D01*
X148800000Y-123088415D01*
X148808708Y-122999999D01*
X148800000Y-122911583D01*
X148800000Y-122911576D01*
X148773955Y-122647138D01*
X148767144Y-122624683D01*
X148737222Y-122526045D01*
X148671029Y-122307837D01*
X148503887Y-121995135D01*
X148379615Y-121843710D01*
X148335317Y-121789732D01*
X148335312Y-121789727D01*
X148278950Y-121721050D01*
X148210274Y-121664689D01*
X148045585Y-121500000D01*
X155049516Y-121500000D01*
X155051447Y-121519603D01*
X155057165Y-121538454D01*
X155066451Y-121555826D01*
X155078947Y-121571053D01*
X155094174Y-121583549D01*
X155111546Y-121592835D01*
X155130397Y-121598553D01*
X155150000Y-121600484D01*
X155971000Y-121600000D01*
X155996000Y-121575000D01*
X155996000Y-120654000D01*
X156304000Y-120654000D01*
X156304000Y-121575000D01*
X156329000Y-121600000D01*
X157150000Y-121600484D01*
X157169603Y-121598553D01*
X157188454Y-121592835D01*
X157205826Y-121583549D01*
X157221053Y-121571053D01*
X157233549Y-121555826D01*
X157242835Y-121538454D01*
X157248553Y-121519603D01*
X157250484Y-121500000D01*
X157250000Y-120679000D01*
X157225000Y-120654000D01*
X156304000Y-120654000D01*
X155996000Y-120654000D01*
X155075000Y-120654000D01*
X155050000Y-120679000D01*
X155049516Y-121500000D01*
X148045585Y-121500000D01*
X146045585Y-119500000D01*
X155049516Y-119500000D01*
X155050000Y-120321000D01*
X155075000Y-120346000D01*
X155996000Y-120346000D01*
X155996000Y-119425000D01*
X156304000Y-119425000D01*
X156304000Y-120346000D01*
X157225000Y-120346000D01*
X157250000Y-120321000D01*
X157250484Y-119500000D01*
X157248553Y-119480397D01*
X157242835Y-119461546D01*
X157233549Y-119444174D01*
X157221053Y-119428947D01*
X157205826Y-119416451D01*
X157188454Y-119407165D01*
X157169603Y-119401447D01*
X157150000Y-119399516D01*
X156329000Y-119400000D01*
X156304000Y-119425000D01*
X155996000Y-119425000D01*
X155971000Y-119400000D01*
X155150000Y-119399516D01*
X155130397Y-119401447D01*
X155111546Y-119407165D01*
X155094174Y-119416451D01*
X155078947Y-119428947D01*
X155066451Y-119444174D01*
X155057165Y-119461546D01*
X155051447Y-119480397D01*
X155049516Y-119500000D01*
X146045585Y-119500000D01*
X142459584Y-115914000D01*
X145331985Y-115914000D01*
X145351920Y-116176950D01*
X145464930Y-116490463D01*
X145636932Y-116775905D01*
X145861316Y-117022306D01*
X146129459Y-117220197D01*
X146431057Y-117361974D01*
X146583051Y-117408075D01*
X146846000Y-117427906D01*
X146846000Y-115914000D01*
X147154000Y-115914000D01*
X147154000Y-117427906D01*
X147416949Y-117408075D01*
X147568943Y-117361974D01*
X147870541Y-117220197D01*
X148138684Y-117022306D01*
X148363068Y-116775905D01*
X148535070Y-116490463D01*
X148648080Y-116176950D01*
X148668015Y-115914000D01*
X147154000Y-115914000D01*
X146846000Y-115914000D01*
X145331985Y-115914000D01*
X142459584Y-115914000D01*
X142255321Y-115709738D01*
X142198950Y-115641050D01*
X142156242Y-115606000D01*
X145331985Y-115606000D01*
X146846000Y-115606000D01*
X147154000Y-115606000D01*
X148668015Y-115606000D01*
X148648080Y-115343050D01*
X148535070Y-115029537D01*
X148363068Y-114744095D01*
X148138684Y-114497694D01*
X147870541Y-114299803D01*
X147568943Y-114158026D01*
X147416949Y-114111925D01*
X147154000Y-114092094D01*
X147154000Y-115606000D01*
X146846000Y-115606000D01*
X146846000Y-114092094D01*
X146583051Y-114111925D01*
X146431057Y-114158026D01*
X146129459Y-114299803D01*
X145861316Y-114497694D01*
X145636932Y-114744095D01*
X145464930Y-115029537D01*
X145351920Y-115343050D01*
X145331985Y-115606000D01*
X142156242Y-115606000D01*
X141924865Y-115416113D01*
X141612163Y-115248971D01*
X141272862Y-115146045D01*
X141008424Y-115120000D01*
X141008416Y-115120000D01*
X140920000Y-115111292D01*
X140831584Y-115120000D01*
X134904829Y-115120000D01*
X134804977Y-115038053D01*
X134413665Y-114828893D01*
X133989067Y-114700093D01*
X133658148Y-114667500D01*
X132341852Y-114667500D01*
X132010933Y-114700093D01*
X131586335Y-114828893D01*
X131195023Y-115038053D01*
X130852036Y-115319536D01*
X130570553Y-115662523D01*
X130361393Y-116053835D01*
X130232593Y-116478433D01*
X130189102Y-116920000D01*
X130216680Y-117200000D01*
X128450000Y-117200000D01*
X128430491Y-117201921D01*
X128411732Y-117207612D01*
X128394443Y-117216853D01*
X128378217Y-117230379D01*
X120328217Y-125530379D01*
X120316013Y-125545721D01*
X120307038Y-125563149D01*
X120301635Y-125581993D01*
X120300006Y-125598889D01*
X120201105Y-134500000D01*
X111900000Y-134500000D01*
X111880491Y-134501921D01*
X111861732Y-134507612D01*
X111844443Y-134516853D01*
X111826151Y-134532573D01*
X106575000Y-140283834D01*
X106575000Y-139402386D01*
X109055452Y-136921935D01*
X109322162Y-136841029D01*
X109634864Y-136673886D01*
X109840266Y-136505317D01*
X110200263Y-136145320D01*
X110268950Y-136088950D01*
X110493887Y-135814865D01*
X110661029Y-135502163D01*
X110763955Y-135162862D01*
X110790000Y-134898424D01*
X110790000Y-134898416D01*
X110798708Y-134810000D01*
X110790000Y-134721584D01*
X110790000Y-130340000D01*
X111475243Y-130340000D01*
X111534131Y-130937904D01*
X111708534Y-131512832D01*
X111991748Y-132042688D01*
X112372890Y-132507110D01*
X112837312Y-132888252D01*
X113367168Y-133171466D01*
X113942096Y-133345869D01*
X114390169Y-133390000D01*
X114689831Y-133390000D01*
X115137904Y-133345869D01*
X115712832Y-133171466D01*
X116242688Y-132888252D01*
X116707110Y-132507110D01*
X117088252Y-132042688D01*
X117371466Y-131512832D01*
X117545869Y-130937904D01*
X117604757Y-130340000D01*
X117545869Y-129742096D01*
X117371466Y-129167168D01*
X117088252Y-128637312D01*
X116707110Y-128172890D01*
X116242688Y-127791748D01*
X115712832Y-127508534D01*
X115137904Y-127334131D01*
X114689831Y-127290000D01*
X114390169Y-127290000D01*
X113942096Y-127334131D01*
X113367168Y-127508534D01*
X112837312Y-127791748D01*
X112372890Y-128172890D01*
X111991748Y-128637312D01*
X111708534Y-129167168D01*
X111534131Y-129742096D01*
X111475243Y-130340000D01*
X110790000Y-130340000D01*
X110790000Y-123946007D01*
X110895305Y-123788407D01*
X111057377Y-123397132D01*
X111140000Y-122981757D01*
X111140000Y-122558243D01*
X111057377Y-122142868D01*
X110895305Y-121751593D01*
X110660014Y-121399455D01*
X110360545Y-121099986D01*
X110008407Y-120864695D01*
X109617132Y-120702623D01*
X109201757Y-120620000D01*
X108778243Y-120620000D01*
X108362868Y-120702623D01*
X107971593Y-120864695D01*
X107619455Y-121099986D01*
X107319986Y-121399455D01*
X107084695Y-121751593D01*
X107070818Y-121785096D01*
X106900004Y-121529455D01*
X106600535Y-121229986D01*
X106248397Y-120994695D01*
X106076639Y-120923550D01*
X106107897Y-120897897D01*
X106320337Y-120639039D01*
X106478194Y-120343709D01*
X106575402Y-120023258D01*
X106600000Y-119773510D01*
X106600000Y-119773501D01*
X106608224Y-119690001D01*
X106600000Y-119606501D01*
X106600000Y-119460000D01*
X113275243Y-119460000D01*
X113334131Y-120057904D01*
X113508534Y-120632832D01*
X113791748Y-121162688D01*
X114172890Y-121627110D01*
X114637312Y-122008252D01*
X115167168Y-122291466D01*
X115742096Y-122465869D01*
X116190169Y-122510000D01*
X116489831Y-122510000D01*
X116937904Y-122465869D01*
X117512832Y-122291466D01*
X118042688Y-122008252D01*
X118507110Y-121627110D01*
X118888252Y-121162688D01*
X119171466Y-120632832D01*
X119345869Y-120057904D01*
X119404757Y-119460000D01*
X119345869Y-118862096D01*
X119171466Y-118287168D01*
X118888252Y-117757312D01*
X118507110Y-117292890D01*
X118042688Y-116911748D01*
X117512832Y-116628534D01*
X116937904Y-116454131D01*
X116489831Y-116410000D01*
X116190169Y-116410000D01*
X115742096Y-116454131D01*
X115167168Y-116628534D01*
X114637312Y-116911748D01*
X114172890Y-117292890D01*
X113791748Y-117757312D01*
X113508534Y-118287168D01*
X113334131Y-118862096D01*
X113275243Y-119460000D01*
X106600000Y-119460000D01*
X106600000Y-118467608D01*
X106696309Y-118350255D01*
X106895951Y-117976750D01*
X106905021Y-117946850D01*
X107040255Y-118025454D01*
X107141249Y-118051803D01*
X107286000Y-118062090D01*
X107286000Y-116654000D01*
X107594000Y-116654000D01*
X107594000Y-118062090D01*
X107738751Y-118051803D01*
X107839745Y-118025454D01*
X108002857Y-117930646D01*
X108144338Y-117805838D01*
X108258752Y-117655827D01*
X108341702Y-117486377D01*
X108390000Y-117304000D01*
X108390000Y-116654000D01*
X107594000Y-116654000D01*
X107286000Y-116654000D01*
X107266000Y-116654000D01*
X107266000Y-116346000D01*
X107286000Y-116346000D01*
X107594000Y-116346000D01*
X108390000Y-116346000D01*
X108390000Y-115696000D01*
X108341702Y-115513623D01*
X108258752Y-115344173D01*
X108144338Y-115194162D01*
X108002857Y-115069354D01*
X107839745Y-114974546D01*
X107738751Y-114948197D01*
X107594000Y-114937910D01*
X107594000Y-116346000D01*
X107286000Y-116346000D01*
X107286000Y-114937910D01*
X107141249Y-114948197D01*
X107040255Y-114974546D01*
X106905021Y-115053150D01*
X106895951Y-115023250D01*
X106696309Y-114649745D01*
X106451937Y-114351977D01*
X106431777Y-114285517D01*
X106331348Y-114097629D01*
X106278562Y-113998874D01*
X106072371Y-113747629D01*
X106009408Y-113695957D01*
X105180642Y-112867191D01*
X105159081Y-112840919D01*
X104919257Y-112644100D01*
X104645642Y-112497850D01*
X104348754Y-112407790D01*
X104117366Y-112385000D01*
X104117358Y-112385000D01*
X104040000Y-112377381D01*
X103962642Y-112385000D01*
X83337358Y-112385000D01*
X83260000Y-112377381D01*
X83182642Y-112385000D01*
X83182634Y-112385000D01*
X82951246Y-112407790D01*
X82654358Y-112497850D01*
X82380743Y-112644100D01*
X82330882Y-112685020D01*
X82318873Y-112691439D01*
X82130586Y-112845962D01*
X81018294Y-113958255D01*
X80839745Y-114053691D01*
X80512365Y-114322365D01*
X80243691Y-114649745D01*
X80110094Y-114899689D01*
X79679000Y-114900000D01*
X79654000Y-114925000D01*
X79654000Y-116346000D01*
X79674000Y-116346000D01*
X79674000Y-116654000D01*
X79654000Y-116654000D01*
X79654000Y-118075000D01*
X79679000Y-118100000D01*
X80110095Y-118100311D01*
X80163379Y-118200000D01*
X79595583Y-118200000D01*
X79346000Y-117950418D01*
X79346000Y-116654000D01*
X78575000Y-116654000D01*
X78550000Y-116679000D01*
X78549826Y-117154244D01*
X78121738Y-116726156D01*
X78113955Y-116647138D01*
X78011029Y-116307837D01*
X77909814Y-116118477D01*
X77912619Y-116090000D01*
X77905000Y-116012641D01*
X77905000Y-116012634D01*
X77882210Y-115781246D01*
X77792150Y-115484358D01*
X77645900Y-115210743D01*
X77472948Y-115000000D01*
X78549516Y-115000000D01*
X78550000Y-116321000D01*
X78575000Y-116346000D01*
X79346000Y-116346000D01*
X79346000Y-114925000D01*
X79321000Y-114900000D01*
X78650000Y-114899516D01*
X78630397Y-114901447D01*
X78611546Y-114907165D01*
X78594174Y-114916451D01*
X78578947Y-114928947D01*
X78566451Y-114944174D01*
X78557165Y-114961546D01*
X78551447Y-114980397D01*
X78549516Y-115000000D01*
X77472948Y-115000000D01*
X77449081Y-114970919D01*
X77388988Y-114921602D01*
X75678399Y-113211013D01*
X75629081Y-113150919D01*
X75389257Y-112954100D01*
X75115642Y-112807850D01*
X74818754Y-112717790D01*
X74587366Y-112695000D01*
X74587358Y-112695000D01*
X74510000Y-112687381D01*
X74432642Y-112695000D01*
X61657358Y-112695000D01*
X61580000Y-112687381D01*
X61502641Y-112695000D01*
X61502634Y-112695000D01*
X61271246Y-112717790D01*
X60974358Y-112807850D01*
X60700743Y-112954100D01*
X60460919Y-113150919D01*
X60411601Y-113211013D01*
X60384200Y-113238414D01*
X60228875Y-113321438D01*
X60040587Y-113475962D01*
X59235328Y-114281221D01*
X59099746Y-114353691D01*
X58772366Y-114622365D01*
X58503692Y-114949745D01*
X58304050Y-115323250D01*
X58294980Y-115353150D01*
X58159745Y-115274546D01*
X58058751Y-115248197D01*
X57914000Y-115237910D01*
X57914000Y-116646000D01*
X57934000Y-116646000D01*
X57934000Y-116954000D01*
X57914000Y-116954000D01*
X57914000Y-118362090D01*
X58000000Y-118355978D01*
X58000000Y-119347309D01*
X54243547Y-123103763D01*
X54155787Y-123175786D01*
X54083764Y-123263546D01*
X54083763Y-123263547D01*
X54070328Y-123279918D01*
X53868368Y-123526006D01*
X53654797Y-123925570D01*
X53523280Y-124359121D01*
X53490000Y-124697016D01*
X53490000Y-124697024D01*
X53478873Y-124810000D01*
X53490000Y-124922976D01*
X53490000Y-126097024D01*
X53478873Y-126210000D01*
X53490000Y-126322976D01*
X53490000Y-128002983D01*
X53490001Y-128002993D01*
X53490000Y-132150227D01*
X53453860Y-132194264D01*
X53407496Y-132281004D01*
X53270743Y-132354100D01*
X53030919Y-132550919D01*
X52981601Y-132611013D01*
X52581008Y-133011606D01*
X52520920Y-133060919D01*
X52471607Y-133121007D01*
X52471601Y-133121013D01*
X52324100Y-133300744D01*
X52177851Y-133574358D01*
X52087790Y-133871247D01*
X52057381Y-134180000D01*
X52065001Y-134257368D01*
X52065000Y-136972641D01*
X52057381Y-137050000D01*
X52065000Y-137127358D01*
X52065000Y-137127365D01*
X52087790Y-137358753D01*
X52177850Y-137655641D01*
X52292427Y-137870000D01*
X52324100Y-137929256D01*
X52464836Y-138100743D01*
X52520919Y-138169081D01*
X52581013Y-138218399D01*
X53701601Y-139338987D01*
X53750919Y-139399081D01*
X53990743Y-139595900D01*
X54264358Y-139742150D01*
X54561246Y-139832210D01*
X54792634Y-139855000D01*
X54792641Y-139855000D01*
X54870000Y-139862619D01*
X54947358Y-139855000D01*
X55944000Y-139855000D01*
X55944000Y-140104000D01*
X55924000Y-140104000D01*
X55924000Y-140783646D01*
X55936296Y-140786318D01*
X55666014Y-141056600D01*
X55605925Y-141105914D01*
X55556612Y-141166002D01*
X55556606Y-141166008D01*
X55409105Y-141345739D01*
X55262856Y-141619353D01*
X55172795Y-141916242D01*
X55142386Y-142224995D01*
X55150006Y-142302363D01*
X55150005Y-144842636D01*
X55142386Y-144919995D01*
X55150005Y-144997353D01*
X55150005Y-144997360D01*
X55172795Y-145228748D01*
X55262855Y-145525636D01*
X55409105Y-145799251D01*
X55605924Y-146039076D01*
X55666018Y-146088394D01*
X56865001Y-147287378D01*
X56865000Y-153675689D01*
X56733234Y-153626238D01*
X56558290Y-153597525D01*
X56381106Y-153603495D01*
X56208491Y-153643916D01*
X56100786Y-153688529D01*
X55996706Y-153778917D01*
X56500000Y-154282211D01*
X56514142Y-154268069D01*
X56731931Y-154485858D01*
X56717789Y-154500000D01*
X56731931Y-154514142D01*
X56514142Y-154731931D01*
X56500000Y-154717789D01*
X56485858Y-154731931D01*
X56268069Y-154514142D01*
X56282211Y-154500000D01*
X55778917Y-153996706D01*
X55688529Y-154100786D01*
X55626238Y-154266766D01*
X55597525Y-154441710D01*
X55603495Y-154618894D01*
X55643916Y-154791509D01*
X55686788Y-154895011D01*
X55445155Y-154918810D01*
X55200104Y-154993145D01*
X54974264Y-155113860D01*
X54776313Y-155276313D01*
X54613860Y-155474264D01*
X54493145Y-155700104D01*
X54418810Y-155945155D01*
X54394922Y-156187692D01*
X53542614Y-157040000D01*
X53408243Y-157040000D01*
X52992868Y-157122623D01*
X52601593Y-157284695D01*
X52249455Y-157519986D01*
X51949986Y-157819455D01*
X51714695Y-158171593D01*
X51552623Y-158562868D01*
X51492203Y-158866619D01*
X49835583Y-157210000D01*
X50290261Y-156755322D01*
X50358950Y-156698950D01*
X50583887Y-156424865D01*
X50751029Y-156112163D01*
X50853955Y-155772862D01*
X50880000Y-155508424D01*
X50880000Y-155508416D01*
X50888708Y-155420000D01*
X50880000Y-155331584D01*
X50880000Y-148904829D01*
X50961947Y-148804977D01*
X51171107Y-148413664D01*
X51299907Y-147989066D01*
X51332500Y-147658147D01*
X51332500Y-146341852D01*
X51299907Y-146010933D01*
X51171107Y-145586335D01*
X50961947Y-145195023D01*
X50680464Y-144852036D01*
X50337477Y-144570553D01*
X49946164Y-144361393D01*
X49521566Y-144232593D01*
X49080000Y-144189102D01*
X48638433Y-144232593D01*
X48213835Y-144361393D01*
X47822523Y-144570553D01*
X47479536Y-144852036D01*
X47198053Y-145195023D01*
X47029011Y-145511280D01*
X46996692Y-145491822D01*
X46854979Y-145448236D01*
X46694000Y-145436606D01*
X46694000Y-146846000D01*
X46714000Y-146846000D01*
X46714000Y-147154000D01*
X46694000Y-147154000D01*
X46694000Y-148563394D01*
X46854979Y-148551764D01*
X46996692Y-148508178D01*
X47029011Y-148488720D01*
X47198054Y-148804977D01*
X47280000Y-148904828D01*
X47280001Y-154674416D01*
X47234417Y-154720000D01*
X46871486Y-154720000D01*
X46668424Y-154700000D01*
X46668416Y-154700000D01*
X46625555Y-154695779D01*
X46525736Y-154613860D01*
X46299896Y-154493145D01*
X46054845Y-154418810D01*
X45813054Y-154394996D01*
X45873762Y-154233234D01*
X45902475Y-154058290D01*
X45896505Y-153881106D01*
X45856084Y-153708491D01*
X45811471Y-153600786D01*
X45721083Y-153496706D01*
X45217789Y-154000000D01*
X45231931Y-154014142D01*
X45014142Y-154231931D01*
X45000000Y-154217789D01*
X44985858Y-154231931D01*
X44768069Y-154014142D01*
X44782211Y-154000000D01*
X44278917Y-153496706D01*
X44188529Y-153600786D01*
X44126238Y-153766766D01*
X44097525Y-153941710D01*
X44103495Y-154118894D01*
X44143916Y-154291509D01*
X44186788Y-154395011D01*
X43945155Y-154418810D01*
X43700104Y-154493145D01*
X43474264Y-154613860D01*
X43276313Y-154776313D01*
X43113860Y-154974264D01*
X42993145Y-155200104D01*
X42918810Y-155445155D01*
X42893710Y-155700000D01*
X42893710Y-157300000D01*
X42918810Y-157554845D01*
X42993145Y-157799896D01*
X43113860Y-158025736D01*
X43276313Y-158223687D01*
X43474264Y-158386140D01*
X43700104Y-158506855D01*
X43945155Y-158581190D01*
X44200000Y-158606290D01*
X45800000Y-158606290D01*
X46054845Y-158581190D01*
X46101465Y-158567048D01*
X46579733Y-159045317D01*
X46579738Y-159045321D01*
X50672748Y-163138332D01*
X50654818Y-163160180D01*
X50431961Y-163577116D01*
X50294726Y-164029518D01*
X50248388Y-164500000D01*
X50294726Y-164970482D01*
X50431961Y-165422884D01*
X50654818Y-165839820D01*
X50954733Y-166205267D01*
X51320180Y-166505182D01*
X51737116Y-166728039D01*
X52189518Y-166865274D01*
X52542100Y-166900000D01*
X52777900Y-166900000D01*
X53130482Y-166865274D01*
X53582884Y-166728039D01*
X53999820Y-166505182D01*
X54365267Y-166205267D01*
X54665182Y-165839820D01*
X54888039Y-165422884D01*
X55025274Y-164970482D01*
X55056976Y-164648608D01*
X56405584Y-163300000D01*
X57300104Y-163300000D01*
X57313860Y-163325736D01*
X57476313Y-163523687D01*
X57674264Y-163686140D01*
X57748114Y-163725614D01*
X57828971Y-163992162D01*
X57896752Y-164118971D01*
X57996114Y-164304865D01*
X58221051Y-164578950D01*
X58289734Y-164635317D01*
X65644687Y-171990272D01*
X65701050Y-172058950D01*
X65769727Y-172115312D01*
X65769732Y-172115317D01*
X65815886Y-172153194D01*
X65881272Y-172206855D01*
X66749733Y-173075317D01*
X66955136Y-173243886D01*
X67060117Y-173300000D01*
X54600366Y-173300000D01*
X54600000Y-172679000D01*
X54575000Y-172654000D01*
X53654000Y-172654000D01*
X53654000Y-172674000D01*
X53346000Y-172674000D01*
X53346000Y-172654000D01*
X52425000Y-172654000D01*
X52400000Y-172679000D01*
X52399695Y-173195532D01*
X51306290Y-172102127D01*
X51306290Y-171500000D01*
X52399516Y-171500000D01*
X52400000Y-172321000D01*
X52425000Y-172346000D01*
X53346000Y-172346000D01*
X53346000Y-171425000D01*
X53654000Y-171425000D01*
X53654000Y-172346000D01*
X54575000Y-172346000D01*
X54600000Y-172321000D01*
X54600298Y-171814000D01*
X58334915Y-171814000D01*
X58348658Y-171998274D01*
X58436775Y-172216390D01*
X58565751Y-172413124D01*
X58730630Y-172580916D01*
X58925075Y-172713317D01*
X59141614Y-172805240D01*
X59161727Y-172811334D01*
X59346000Y-172824864D01*
X59346000Y-171814000D01*
X59654000Y-171814000D01*
X59654000Y-172824864D01*
X59838273Y-172811334D01*
X59858386Y-172805240D01*
X60074925Y-172713317D01*
X60269370Y-172580916D01*
X60434249Y-172413124D01*
X60563225Y-172216390D01*
X60651342Y-171998274D01*
X60665085Y-171814000D01*
X59654000Y-171814000D01*
X59346000Y-171814000D01*
X58334915Y-171814000D01*
X54600298Y-171814000D01*
X54600480Y-171506000D01*
X58334915Y-171506000D01*
X59346000Y-171506000D01*
X59654000Y-171506000D01*
X60665085Y-171506000D01*
X60651342Y-171321726D01*
X60563225Y-171103610D01*
X60434249Y-170906876D01*
X60269370Y-170739084D01*
X60074925Y-170606683D01*
X59858386Y-170514760D01*
X59838273Y-170508666D01*
X59654000Y-170495136D01*
X59654000Y-171506000D01*
X59346000Y-171506000D01*
X59346000Y-170495136D01*
X59161727Y-170508666D01*
X59141614Y-170514760D01*
X58925075Y-170606683D01*
X58730630Y-170739084D01*
X58565751Y-170906876D01*
X58436775Y-171103610D01*
X58348658Y-171321726D01*
X58334915Y-171506000D01*
X54600480Y-171506000D01*
X54600484Y-171500000D01*
X54598553Y-171480397D01*
X54592835Y-171461546D01*
X54583549Y-171444174D01*
X54571053Y-171428947D01*
X54555826Y-171416451D01*
X54538454Y-171407165D01*
X54519603Y-171401447D01*
X54500000Y-171399516D01*
X53679000Y-171400000D01*
X53654000Y-171425000D01*
X53346000Y-171425000D01*
X53321000Y-171400000D01*
X52500000Y-171399516D01*
X52480397Y-171401447D01*
X52461546Y-171407165D01*
X52444174Y-171416451D01*
X52428947Y-171428947D01*
X52416451Y-171444174D01*
X52407165Y-171461546D01*
X52401447Y-171480397D01*
X52399516Y-171500000D01*
X51306290Y-171500000D01*
X51306290Y-171000000D01*
X51281190Y-170745155D01*
X51206855Y-170500104D01*
X51086140Y-170274264D01*
X50923687Y-170076313D01*
X50725736Y-169913860D01*
X50600000Y-169846652D01*
X50600000Y-167900000D01*
X50598079Y-167880491D01*
X50592388Y-167861732D01*
X50583147Y-167844443D01*
X50570711Y-167829289D01*
X43470711Y-160729289D01*
X43455557Y-160716853D01*
X43438268Y-160707612D01*
X43419509Y-160701921D01*
X43407975Y-160700318D01*
X42249589Y-160607647D01*
X42248896Y-160452489D01*
X42405305Y-160218407D01*
X42567377Y-159827132D01*
X42650000Y-159411757D01*
X42650000Y-158988243D01*
X42567377Y-158572868D01*
X42405305Y-158181593D01*
X42237638Y-157930662D01*
X42216871Y-153278917D01*
X44496706Y-153278917D01*
X45000000Y-153782211D01*
X45503294Y-153278917D01*
X45399214Y-153188529D01*
X45233234Y-153126238D01*
X45058290Y-153097525D01*
X44881106Y-153103495D01*
X44708491Y-153143916D01*
X44600786Y-153188529D01*
X44496706Y-153278917D01*
X42216871Y-153278917D01*
X42207723Y-151229797D01*
X43631231Y-149806290D01*
X44952500Y-149806290D01*
X45207345Y-149781190D01*
X45452396Y-149706855D01*
X45678236Y-149586140D01*
X45876187Y-149423687D01*
X46038640Y-149225736D01*
X46159355Y-148999896D01*
X46233690Y-148754845D01*
X46253489Y-148553821D01*
X46386000Y-148563394D01*
X46386000Y-147154000D01*
X46366000Y-147154000D01*
X46366000Y-146846000D01*
X46386000Y-146846000D01*
X46386000Y-145436606D01*
X46253489Y-145446179D01*
X46233690Y-145245155D01*
X46159355Y-145000104D01*
X46038640Y-144774264D01*
X45876187Y-144576313D01*
X45678236Y-144413860D01*
X45452396Y-144293145D01*
X45207345Y-144218810D01*
X44952500Y-144193710D01*
X43047500Y-144193710D01*
X42792655Y-144218810D01*
X42547604Y-144293145D01*
X42321764Y-144413860D01*
X42123813Y-144576313D01*
X41961360Y-144774264D01*
X41840645Y-145000104D01*
X41766310Y-145245155D01*
X41741210Y-145500000D01*
X41741210Y-146916269D01*
X39363693Y-149293787D01*
X39350000Y-149305025D01*
X39350000Y-140104000D01*
X54709501Y-140104000D01*
X54718450Y-140232873D01*
X54780418Y-140396661D01*
X54881768Y-140532364D01*
X55007645Y-140645687D01*
X55153212Y-140732275D01*
X55312874Y-140788801D01*
X55480496Y-140813092D01*
X55616000Y-140783646D01*
X55616000Y-140104000D01*
X54709501Y-140104000D01*
X39350000Y-140104000D01*
X39350000Y-130340000D01*
X43475243Y-130340000D01*
X43534131Y-130937904D01*
X43708534Y-131512832D01*
X43991748Y-132042688D01*
X44372890Y-132507110D01*
X44837312Y-132888252D01*
X45367168Y-133171466D01*
X45942096Y-133345869D01*
X46390169Y-133390000D01*
X46689831Y-133390000D01*
X47137904Y-133345869D01*
X47712832Y-133171466D01*
X48242688Y-132888252D01*
X48707110Y-132507110D01*
X49088252Y-132042688D01*
X49371466Y-131512832D01*
X49545869Y-130937904D01*
X49604757Y-130340000D01*
X49545869Y-129742096D01*
X49371466Y-129167168D01*
X49088252Y-128637312D01*
X48707110Y-128172890D01*
X48242688Y-127791748D01*
X47712832Y-127508534D01*
X47137904Y-127334131D01*
X46689831Y-127290000D01*
X46390169Y-127290000D01*
X45942096Y-127334131D01*
X45367168Y-127508534D01*
X44837312Y-127791748D01*
X44372890Y-128172890D01*
X43991748Y-128637312D01*
X43708534Y-129167168D01*
X43534131Y-129742096D01*
X43475243Y-130340000D01*
X39350000Y-130340000D01*
X39350000Y-117757476D01*
X39721141Y-117831301D01*
X40278859Y-117831301D01*
X40825860Y-117722495D01*
X41341124Y-117509066D01*
X41804849Y-117199215D01*
X42050064Y-116954000D01*
X56810000Y-116954000D01*
X56810000Y-117604000D01*
X56858298Y-117786377D01*
X56941248Y-117955827D01*
X57055662Y-118105838D01*
X57197143Y-118230646D01*
X57360255Y-118325454D01*
X57461249Y-118351803D01*
X57606000Y-118362090D01*
X57606000Y-116954000D01*
X56810000Y-116954000D01*
X42050064Y-116954000D01*
X42199215Y-116804849D01*
X42509066Y-116341124D01*
X42652020Y-115996000D01*
X56810000Y-115996000D01*
X56810000Y-116646000D01*
X57606000Y-116646000D01*
X57606000Y-115237910D01*
X57461249Y-115248197D01*
X57360255Y-115274546D01*
X57197143Y-115369354D01*
X57055662Y-115494162D01*
X56941248Y-115644173D01*
X56858298Y-115813623D01*
X56810000Y-115996000D01*
X42652020Y-115996000D01*
X42722495Y-115825860D01*
X42831301Y-115278859D01*
X42831301Y-114721141D01*
X42722495Y-114174140D01*
X42509066Y-113658876D01*
X42199215Y-113195151D01*
X41804849Y-112800785D01*
X41341124Y-112490934D01*
X41000879Y-112350000D01*
X130066321Y-112350000D01*
X130264646Y-112330467D01*
X130282668Y-112325000D01*
X157059477Y-112325000D01*
X156658876Y-112490934D01*
G36*
X103425000Y-151807614D02*
G01*
X103062706Y-152169908D01*
X102920136Y-152246113D01*
X102646051Y-152471050D01*
X102421114Y-152745135D01*
X102253972Y-153057837D01*
X102151046Y-153397138D01*
X102125001Y-153661576D01*
X102125000Y-168532458D01*
X102016114Y-168665136D01*
X101941950Y-168803887D01*
X99570000Y-171175837D01*
X99570000Y-171154000D01*
X98774000Y-171154000D01*
X98774000Y-171174000D01*
X98466000Y-171174000D01*
X98466000Y-171154000D01*
X98446000Y-171154000D01*
X98446000Y-170846000D01*
X98466000Y-170846000D01*
X98774000Y-170846000D01*
X99570000Y-170846000D01*
X99570000Y-170196000D01*
X99521702Y-170013623D01*
X99438752Y-169844173D01*
X99324338Y-169694162D01*
X99182857Y-169569354D01*
X99019745Y-169474546D01*
X98918751Y-169448197D01*
X98774000Y-169437910D01*
X98774000Y-170846000D01*
X98466000Y-170846000D01*
X98466000Y-169437910D01*
X98321249Y-169448197D01*
X98220255Y-169474546D01*
X98085021Y-169553150D01*
X98075951Y-169523250D01*
X97876309Y-169149745D01*
X97607635Y-168822365D01*
X97280255Y-168553691D01*
X96906749Y-168354049D01*
X96501473Y-168231110D01*
X96080000Y-168189598D01*
X95658526Y-168231110D01*
X95340000Y-168327734D01*
X95340000Y-166058416D01*
X95348708Y-165970000D01*
X95340000Y-165881584D01*
X95340000Y-165881576D01*
X95313955Y-165617138D01*
X95211029Y-165277837D01*
X95043887Y-164965135D01*
X94818950Y-164691050D01*
X94750263Y-164634680D01*
X94490266Y-164374683D01*
X94284864Y-164206114D01*
X94058654Y-164085202D01*
X92694535Y-162721083D01*
X96996706Y-162721083D01*
X97100786Y-162811471D01*
X97266766Y-162873762D01*
X97441710Y-162902475D01*
X97618894Y-162896505D01*
X97791509Y-162856084D01*
X97899214Y-162811471D01*
X98003294Y-162721083D01*
X97500000Y-162217789D01*
X96996706Y-162721083D01*
X92694535Y-162721083D01*
X90997617Y-161024166D01*
X91105570Y-161112760D01*
X91461703Y-161303117D01*
X91848130Y-161420338D01*
X92149291Y-161450000D01*
X93850709Y-161450000D01*
X94151870Y-161420338D01*
X94538297Y-161303117D01*
X94544128Y-161300000D01*
X96413990Y-161300000D01*
X96505277Y-161360996D01*
X96756626Y-161465108D01*
X96751971Y-161469763D01*
X96778916Y-161496708D01*
X96688529Y-161600786D01*
X96626238Y-161766766D01*
X96597525Y-161941710D01*
X96603495Y-162118894D01*
X96643916Y-162291509D01*
X96688529Y-162399214D01*
X96778917Y-162503294D01*
X97282211Y-162000000D01*
X97268069Y-161985858D01*
X97485858Y-161768069D01*
X97500000Y-161782211D01*
X97514142Y-161768069D01*
X97731931Y-161985858D01*
X97717789Y-162000000D01*
X98221083Y-162503294D01*
X98311471Y-162399214D01*
X98373762Y-162233234D01*
X98402475Y-162058290D01*
X98396505Y-161881106D01*
X98356084Y-161708491D01*
X98311471Y-161600786D01*
X98221084Y-161496708D01*
X98248029Y-161469763D01*
X98243374Y-161465108D01*
X98494723Y-161360996D01*
X98838672Y-161131177D01*
X99131177Y-160838672D01*
X99360996Y-160494723D01*
X99519298Y-160112547D01*
X99600000Y-159706832D01*
X99600000Y-159293168D01*
X99519298Y-158887453D01*
X99360996Y-158505277D01*
X99131177Y-158161328D01*
X98838672Y-157868823D01*
X98494723Y-157639004D01*
X98112547Y-157480702D01*
X97706832Y-157400000D01*
X97293168Y-157400000D01*
X96887453Y-157480702D01*
X96505277Y-157639004D01*
X96413990Y-157700000D01*
X94909978Y-157700000D01*
X94894430Y-157687240D01*
X94538297Y-157496883D01*
X94396047Y-157453732D01*
X94278950Y-157311050D01*
X94210267Y-157254683D01*
X93926667Y-156971083D01*
X96996706Y-156971083D01*
X97100786Y-157061471D01*
X97266766Y-157123762D01*
X97441710Y-157152475D01*
X97618894Y-157146505D01*
X97791509Y-157106084D01*
X97899214Y-157061471D01*
X98003294Y-156971083D01*
X97500000Y-156467789D01*
X96996706Y-156971083D01*
X93926667Y-156971083D01*
X93505584Y-156550000D01*
X93850709Y-156550000D01*
X94151870Y-156520338D01*
X94538297Y-156403117D01*
X94894430Y-156212760D01*
X95206583Y-155956583D01*
X95462760Y-155644430D01*
X95652207Y-155290000D01*
X96070151Y-155290000D01*
X96161328Y-155381177D01*
X96505277Y-155610996D01*
X96756626Y-155715108D01*
X96751971Y-155719763D01*
X96778916Y-155746708D01*
X96688529Y-155850786D01*
X96626238Y-156016766D01*
X96597525Y-156191710D01*
X96603495Y-156368894D01*
X96643916Y-156541509D01*
X96688529Y-156649214D01*
X96778917Y-156753294D01*
X97282211Y-156250000D01*
X97268069Y-156235858D01*
X97485858Y-156018069D01*
X97500000Y-156032211D01*
X97514142Y-156018069D01*
X97731931Y-156235858D01*
X97717789Y-156250000D01*
X98221083Y-156753294D01*
X98311471Y-156649214D01*
X98373762Y-156483234D01*
X98402475Y-156308290D01*
X98396505Y-156131106D01*
X98356084Y-155958491D01*
X98311471Y-155850786D01*
X98221084Y-155746708D01*
X98248029Y-155719763D01*
X98243374Y-155715108D01*
X98494723Y-155610996D01*
X98838672Y-155381177D01*
X99131177Y-155088672D01*
X99360996Y-154744723D01*
X99519298Y-154362547D01*
X99600000Y-153956832D01*
X99600000Y-153543168D01*
X99574506Y-153415000D01*
X100202642Y-153415000D01*
X100280000Y-153422619D01*
X100357358Y-153415000D01*
X100357366Y-153415000D01*
X100588754Y-153392210D01*
X100885642Y-153302150D01*
X101159257Y-153155900D01*
X101399081Y-152959081D01*
X101448399Y-152898987D01*
X103425000Y-150922386D01*
X103425000Y-151807614D01*
X103425000Y-151807614D01*
G37*
X103425000Y-151807614D02*
X103062706Y-152169908D01*
X102920136Y-152246113D01*
X102646051Y-152471050D01*
X102421114Y-152745135D01*
X102253972Y-153057837D01*
X102151046Y-153397138D01*
X102125001Y-153661576D01*
X102125000Y-168532458D01*
X102016114Y-168665136D01*
X101941950Y-168803887D01*
X99570000Y-171175837D01*
X99570000Y-171154000D01*
X98774000Y-171154000D01*
X98774000Y-171174000D01*
X98466000Y-171174000D01*
X98466000Y-171154000D01*
X98446000Y-171154000D01*
X98446000Y-170846000D01*
X98466000Y-170846000D01*
X98774000Y-170846000D01*
X99570000Y-170846000D01*
X99570000Y-170196000D01*
X99521702Y-170013623D01*
X99438752Y-169844173D01*
X99324338Y-169694162D01*
X99182857Y-169569354D01*
X99019745Y-169474546D01*
X98918751Y-169448197D01*
X98774000Y-169437910D01*
X98774000Y-170846000D01*
X98466000Y-170846000D01*
X98466000Y-169437910D01*
X98321249Y-169448197D01*
X98220255Y-169474546D01*
X98085021Y-169553150D01*
X98075951Y-169523250D01*
X97876309Y-169149745D01*
X97607635Y-168822365D01*
X97280255Y-168553691D01*
X96906749Y-168354049D01*
X96501473Y-168231110D01*
X96080000Y-168189598D01*
X95658526Y-168231110D01*
X95340000Y-168327734D01*
X95340000Y-166058416D01*
X95348708Y-165970000D01*
X95340000Y-165881584D01*
X95340000Y-165881576D01*
X95313955Y-165617138D01*
X95211029Y-165277837D01*
X95043887Y-164965135D01*
X94818950Y-164691050D01*
X94750263Y-164634680D01*
X94490266Y-164374683D01*
X94284864Y-164206114D01*
X94058654Y-164085202D01*
X92694535Y-162721083D01*
X96996706Y-162721083D01*
X97100786Y-162811471D01*
X97266766Y-162873762D01*
X97441710Y-162902475D01*
X97618894Y-162896505D01*
X97791509Y-162856084D01*
X97899214Y-162811471D01*
X98003294Y-162721083D01*
X97500000Y-162217789D01*
X96996706Y-162721083D01*
X92694535Y-162721083D01*
X90997617Y-161024166D01*
X91105570Y-161112760D01*
X91461703Y-161303117D01*
X91848130Y-161420338D01*
X92149291Y-161450000D01*
X93850709Y-161450000D01*
X94151870Y-161420338D01*
X94538297Y-161303117D01*
X94544128Y-161300000D01*
X96413990Y-161300000D01*
X96505277Y-161360996D01*
X96756626Y-161465108D01*
X96751971Y-161469763D01*
X96778916Y-161496708D01*
X96688529Y-161600786D01*
X96626238Y-161766766D01*
X96597525Y-161941710D01*
X96603495Y-162118894D01*
X96643916Y-162291509D01*
X96688529Y-162399214D01*
X96778917Y-162503294D01*
X97282211Y-162000000D01*
X97268069Y-161985858D01*
X97485858Y-161768069D01*
X97500000Y-161782211D01*
X97514142Y-161768069D01*
X97731931Y-161985858D01*
X97717789Y-162000000D01*
X98221083Y-162503294D01*
X98311471Y-162399214D01*
X98373762Y-162233234D01*
X98402475Y-162058290D01*
X98396505Y-161881106D01*
X98356084Y-161708491D01*
X98311471Y-161600786D01*
X98221084Y-161496708D01*
X98248029Y-161469763D01*
X98243374Y-161465108D01*
X98494723Y-161360996D01*
X98838672Y-161131177D01*
X99131177Y-160838672D01*
X99360996Y-160494723D01*
X99519298Y-160112547D01*
X99600000Y-159706832D01*
X99600000Y-159293168D01*
X99519298Y-158887453D01*
X99360996Y-158505277D01*
X99131177Y-158161328D01*
X98838672Y-157868823D01*
X98494723Y-157639004D01*
X98112547Y-157480702D01*
X97706832Y-157400000D01*
X97293168Y-157400000D01*
X96887453Y-157480702D01*
X96505277Y-157639004D01*
X96413990Y-157700000D01*
X94909978Y-157700000D01*
X94894430Y-157687240D01*
X94538297Y-157496883D01*
X94396047Y-157453732D01*
X94278950Y-157311050D01*
X94210267Y-157254683D01*
X93926667Y-156971083D01*
X96996706Y-156971083D01*
X97100786Y-157061471D01*
X97266766Y-157123762D01*
X97441710Y-157152475D01*
X97618894Y-157146505D01*
X97791509Y-157106084D01*
X97899214Y-157061471D01*
X98003294Y-156971083D01*
X97500000Y-156467789D01*
X96996706Y-156971083D01*
X93926667Y-156971083D01*
X93505584Y-156550000D01*
X93850709Y-156550000D01*
X94151870Y-156520338D01*
X94538297Y-156403117D01*
X94894430Y-156212760D01*
X95206583Y-155956583D01*
X95462760Y-155644430D01*
X95652207Y-155290000D01*
X96070151Y-155290000D01*
X96161328Y-155381177D01*
X96505277Y-155610996D01*
X96756626Y-155715108D01*
X96751971Y-155719763D01*
X96778916Y-155746708D01*
X96688529Y-155850786D01*
X96626238Y-156016766D01*
X96597525Y-156191710D01*
X96603495Y-156368894D01*
X96643916Y-156541509D01*
X96688529Y-156649214D01*
X96778917Y-156753294D01*
X97282211Y-156250000D01*
X97268069Y-156235858D01*
X97485858Y-156018069D01*
X97500000Y-156032211D01*
X97514142Y-156018069D01*
X97731931Y-156235858D01*
X97717789Y-156250000D01*
X98221083Y-156753294D01*
X98311471Y-156649214D01*
X98373762Y-156483234D01*
X98402475Y-156308290D01*
X98396505Y-156131106D01*
X98356084Y-155958491D01*
X98311471Y-155850786D01*
X98221084Y-155746708D01*
X98248029Y-155719763D01*
X98243374Y-155715108D01*
X98494723Y-155610996D01*
X98838672Y-155381177D01*
X99131177Y-155088672D01*
X99360996Y-154744723D01*
X99519298Y-154362547D01*
X99600000Y-153956832D01*
X99600000Y-153543168D01*
X99574506Y-153415000D01*
X100202642Y-153415000D01*
X100280000Y-153422619D01*
X100357358Y-153415000D01*
X100357366Y-153415000D01*
X100588754Y-153392210D01*
X100885642Y-153302150D01*
X101159257Y-153155900D01*
X101399081Y-152959081D01*
X101448399Y-152898987D01*
X103425000Y-150922386D01*
X103425000Y-151807614D01*
G36*
X159675000Y-154177103D02*
G01*
X159650337Y-154130961D01*
X159491132Y-153936969D01*
X159491128Y-153936965D01*
X159437897Y-153872103D01*
X159373035Y-153818872D01*
X158706290Y-153152127D01*
X158706290Y-151800000D01*
X158681190Y-151545155D01*
X158606855Y-151300104D01*
X158486140Y-151074264D01*
X158323687Y-150876313D01*
X158125736Y-150713860D01*
X157899896Y-150593145D01*
X157654845Y-150518810D01*
X157400000Y-150493710D01*
X154900000Y-150493710D01*
X154645155Y-150518810D01*
X154400104Y-150593145D01*
X154174264Y-150713860D01*
X153976313Y-150876313D01*
X153813860Y-151074264D01*
X153693145Y-151300104D01*
X153618810Y-151545155D01*
X153593710Y-151800000D01*
X153593710Y-154300000D01*
X153618810Y-154554845D01*
X153693145Y-154799896D01*
X153813860Y-155025736D01*
X153976313Y-155223687D01*
X154174264Y-155386140D01*
X154400104Y-155506855D01*
X154645155Y-155581190D01*
X154900000Y-155606290D01*
X156352127Y-155606290D01*
X156530001Y-155784164D01*
X156530000Y-161399882D01*
X156329000Y-161400000D01*
X156304000Y-161425000D01*
X156304000Y-162346000D01*
X156324000Y-162346000D01*
X156324000Y-162654000D01*
X156304000Y-162654000D01*
X156304000Y-162674000D01*
X155996000Y-162674000D01*
X155996000Y-162654000D01*
X155075000Y-162654000D01*
X155050000Y-162679000D01*
X155049752Y-163100000D01*
X143488415Y-163100000D01*
X143399999Y-163091292D01*
X143311583Y-163100000D01*
X143311576Y-163100000D01*
X143047138Y-163126045D01*
X142707837Y-163228971D01*
X142395135Y-163396113D01*
X142121050Y-163621050D01*
X142064681Y-163689735D01*
X141824683Y-163929734D01*
X141656114Y-164135136D01*
X141536018Y-164359819D01*
X140017030Y-165878807D01*
X139786527Y-165533835D01*
X139466165Y-165213473D01*
X139146680Y-165000000D01*
X139466165Y-164786527D01*
X139786527Y-164466165D01*
X140038234Y-164089459D01*
X140211613Y-163670885D01*
X140300000Y-163226530D01*
X140300000Y-162773470D01*
X140211613Y-162329115D01*
X140038234Y-161910541D01*
X139800000Y-161553999D01*
X139800000Y-161500000D01*
X155049516Y-161500000D01*
X155050000Y-162321000D01*
X155075000Y-162346000D01*
X155996000Y-162346000D01*
X155996000Y-161425000D01*
X155971000Y-161400000D01*
X155150000Y-161399516D01*
X155130397Y-161401447D01*
X155111546Y-161407165D01*
X155094174Y-161416451D01*
X155078947Y-161428947D01*
X155066451Y-161444174D01*
X155057165Y-161461546D01*
X155051447Y-161480397D01*
X155049516Y-161500000D01*
X139800000Y-161500000D01*
X139800000Y-160830699D01*
X139886140Y-160725736D01*
X140006855Y-160499896D01*
X140081190Y-160254845D01*
X140106290Y-160000000D01*
X140106290Y-159992770D01*
X140119789Y-160001633D01*
X140249181Y-160051719D01*
X140386000Y-160061341D01*
X140386000Y-159154000D01*
X140694000Y-159154000D01*
X140694000Y-160061341D01*
X140830819Y-160051719D01*
X140960211Y-160001633D01*
X141108528Y-159904251D01*
X141234997Y-159779805D01*
X141334757Y-159633077D01*
X141403975Y-159469706D01*
X141439991Y-159295971D01*
X141418924Y-159154000D01*
X140694000Y-159154000D01*
X140386000Y-159154000D01*
X140366000Y-159154000D01*
X140366000Y-158846000D01*
X140386000Y-158846000D01*
X140694000Y-158846000D01*
X141418924Y-158846000D01*
X141439991Y-158704029D01*
X141403975Y-158530294D01*
X141334757Y-158366923D01*
X141234997Y-158220195D01*
X141108528Y-158095749D01*
X140960211Y-157998367D01*
X140830819Y-157948281D01*
X140694000Y-157938659D01*
X140694000Y-158846000D01*
X140386000Y-158846000D01*
X140386000Y-157938659D01*
X140249181Y-157948281D01*
X140119789Y-157998367D01*
X140106290Y-158007230D01*
X140106290Y-158000000D01*
X140081190Y-157745155D01*
X140006855Y-157500104D01*
X139886140Y-157274264D01*
X139723687Y-157076313D01*
X139525907Y-156914000D01*
X145331985Y-156914000D01*
X145351920Y-157176950D01*
X145464930Y-157490463D01*
X145636932Y-157775905D01*
X145861316Y-158022306D01*
X146129459Y-158220197D01*
X146431057Y-158361974D01*
X146583051Y-158408075D01*
X146846000Y-158427906D01*
X146846000Y-156914000D01*
X147154000Y-156914000D01*
X147154000Y-158427906D01*
X147416949Y-158408075D01*
X147568943Y-158361974D01*
X147870541Y-158220197D01*
X148138684Y-158022306D01*
X148363068Y-157775905D01*
X148535070Y-157490463D01*
X148648080Y-157176950D01*
X148668015Y-156914000D01*
X147154000Y-156914000D01*
X146846000Y-156914000D01*
X145331985Y-156914000D01*
X139525907Y-156914000D01*
X139525736Y-156913860D01*
X139299896Y-156793145D01*
X139054845Y-156718810D01*
X138800000Y-156693710D01*
X137200000Y-156693710D01*
X136945155Y-156718810D01*
X136700104Y-156793145D01*
X136474264Y-156913860D01*
X136276313Y-157076313D01*
X136113860Y-157274264D01*
X135993145Y-157500104D01*
X135918810Y-157745155D01*
X135893710Y-158000000D01*
X135893710Y-160000000D01*
X135918810Y-160254845D01*
X135993145Y-160499896D01*
X136113860Y-160725736D01*
X136200000Y-160830699D01*
X136200001Y-161553998D01*
X135961766Y-161910541D01*
X135788387Y-162329115D01*
X135700000Y-162773470D01*
X135700000Y-163226530D01*
X135744169Y-163448585D01*
X132154549Y-159858966D01*
X132234997Y-159779805D01*
X132334757Y-159633077D01*
X132403975Y-159469706D01*
X132439991Y-159295971D01*
X132418924Y-159154000D01*
X131694000Y-159154000D01*
X131694000Y-159174000D01*
X131469583Y-159174000D01*
X131366000Y-159070417D01*
X131366000Y-158846000D01*
X131386000Y-158846000D01*
X131694000Y-158846000D01*
X132418924Y-158846000D01*
X132439991Y-158704029D01*
X132403975Y-158530294D01*
X132334757Y-158366923D01*
X132234997Y-158220195D01*
X132108528Y-158095749D01*
X131960211Y-157998367D01*
X131830819Y-157948281D01*
X131694000Y-157938659D01*
X131694000Y-158846000D01*
X131386000Y-158846000D01*
X131386000Y-157938659D01*
X131249181Y-157948281D01*
X131119789Y-157998367D01*
X131106290Y-158007230D01*
X131106290Y-158000000D01*
X131081190Y-157745155D01*
X131006855Y-157500104D01*
X130886140Y-157274264D01*
X130723687Y-157076313D01*
X130525736Y-156913860D01*
X130299896Y-156793145D01*
X130054845Y-156718810D01*
X129800000Y-156693710D01*
X128819999Y-156693710D01*
X128819999Y-153672432D01*
X129000000Y-153690161D01*
X129411672Y-153649615D01*
X129807524Y-153529535D01*
X130172343Y-153334535D01*
X130492109Y-153072109D01*
X130754535Y-152752343D01*
X130949535Y-152387523D01*
X130979303Y-152289392D01*
X131119789Y-152381633D01*
X131249181Y-152431719D01*
X131386000Y-152441341D01*
X131386000Y-151534000D01*
X131694000Y-151534000D01*
X131694000Y-152441341D01*
X131830819Y-152431719D01*
X131960211Y-152381633D01*
X132108528Y-152284251D01*
X132234997Y-152159805D01*
X132334757Y-152013077D01*
X132403975Y-151849706D01*
X132439991Y-151675971D01*
X132418924Y-151534000D01*
X131694000Y-151534000D01*
X131386000Y-151534000D01*
X131366000Y-151534000D01*
X131366000Y-151289583D01*
X131449583Y-151206000D01*
X131694000Y-151206000D01*
X131694000Y-151226000D01*
X132418924Y-151226000D01*
X132439991Y-151084029D01*
X132424430Y-151008967D01*
X135905939Y-151016535D01*
X135900000Y-151076834D01*
X135900000Y-151683167D01*
X135930385Y-151991672D01*
X136050465Y-152387524D01*
X136245465Y-152752343D01*
X136507891Y-153072109D01*
X136827658Y-153334535D01*
X137192477Y-153529535D01*
X137588329Y-153649615D01*
X138000000Y-153690161D01*
X138411672Y-153649615D01*
X138807524Y-153529535D01*
X139172343Y-153334535D01*
X139492109Y-153072109D01*
X139754535Y-152752343D01*
X139949535Y-152387523D01*
X139979303Y-152289392D01*
X140119789Y-152381633D01*
X140249181Y-152431719D01*
X140386000Y-152441341D01*
X140386000Y-151534000D01*
X140366000Y-151534000D01*
X140366000Y-151226000D01*
X140386000Y-151226000D01*
X140386000Y-151206000D01*
X140694000Y-151206000D01*
X140694000Y-151226000D01*
X140714000Y-151226000D01*
X140714000Y-151534000D01*
X140694000Y-151534000D01*
X140694000Y-152441341D01*
X140830819Y-152431719D01*
X140960211Y-152381633D01*
X141108528Y-152284251D01*
X141234997Y-152159805D01*
X141298339Y-152066640D01*
X141324599Y-152333258D01*
X141421807Y-152653709D01*
X141579663Y-152949039D01*
X141738868Y-153143031D01*
X141738877Y-153143040D01*
X141792104Y-153207897D01*
X141856961Y-153261124D01*
X143738872Y-155143035D01*
X143792103Y-155207897D01*
X143856965Y-155261128D01*
X143856968Y-155261131D01*
X144050960Y-155420337D01*
X144151851Y-155474264D01*
X144346291Y-155578194D01*
X144666742Y-155675402D01*
X144916490Y-155700000D01*
X144916499Y-155700000D01*
X144999999Y-155708224D01*
X145083499Y-155700000D01*
X145677087Y-155700000D01*
X145636932Y-155744095D01*
X145464930Y-156029537D01*
X145351920Y-156343050D01*
X145331985Y-156606000D01*
X146846000Y-156606000D01*
X146846000Y-156586000D01*
X147154000Y-156586000D01*
X147154000Y-156606000D01*
X148668015Y-156606000D01*
X148648080Y-156343050D01*
X148535070Y-156029537D01*
X148363068Y-155744095D01*
X148322913Y-155700000D01*
X148916500Y-155700000D01*
X149000000Y-155708224D01*
X149083500Y-155700000D01*
X149083510Y-155700000D01*
X149333258Y-155675402D01*
X149653709Y-155578194D01*
X149949039Y-155420337D01*
X149970804Y-155402475D01*
X150143031Y-155261132D01*
X150143035Y-155261128D01*
X150207897Y-155207897D01*
X150261128Y-155143035D01*
X152543036Y-152861127D01*
X152607897Y-152807897D01*
X152661128Y-152743035D01*
X152661132Y-152743031D01*
X152820337Y-152549039D01*
X152978194Y-152253710D01*
X153075402Y-151933258D01*
X153077235Y-151914643D01*
X153100000Y-151683510D01*
X153100000Y-151683502D01*
X153108224Y-151600000D01*
X153100000Y-151516498D01*
X153100000Y-149050000D01*
X155049516Y-149050000D01*
X155051447Y-149069603D01*
X155057165Y-149088454D01*
X155066451Y-149105826D01*
X155078947Y-149121053D01*
X155094174Y-149133549D01*
X155111546Y-149142835D01*
X155130397Y-149148553D01*
X155150000Y-149150484D01*
X155971000Y-149150000D01*
X155996000Y-149125000D01*
X155996000Y-148204000D01*
X156304000Y-148204000D01*
X156304000Y-149125000D01*
X156329000Y-149150000D01*
X157150000Y-149150484D01*
X157169603Y-149148553D01*
X157188454Y-149142835D01*
X157205826Y-149133549D01*
X157221053Y-149121053D01*
X157233549Y-149105826D01*
X157242835Y-149088454D01*
X157248553Y-149069603D01*
X157250484Y-149050000D01*
X157250000Y-148229000D01*
X157225000Y-148204000D01*
X156304000Y-148204000D01*
X155996000Y-148204000D01*
X155075000Y-148204000D01*
X155050000Y-148229000D01*
X155049516Y-149050000D01*
X153100000Y-149050000D01*
X153100000Y-148604163D01*
X154654163Y-147050000D01*
X155049516Y-147050000D01*
X155050000Y-147871000D01*
X155075000Y-147896000D01*
X155996000Y-147896000D01*
X155996000Y-146975000D01*
X156304000Y-146975000D01*
X156304000Y-147896000D01*
X157225000Y-147896000D01*
X157250000Y-147871000D01*
X157250484Y-147050000D01*
X157248553Y-147030397D01*
X157242835Y-147011546D01*
X157233549Y-146994174D01*
X157221053Y-146978947D01*
X157205826Y-146966451D01*
X157188454Y-146957165D01*
X157169603Y-146951447D01*
X157150000Y-146949516D01*
X156329000Y-146950000D01*
X156304000Y-146975000D01*
X155996000Y-146975000D01*
X155971000Y-146950000D01*
X155150000Y-146949516D01*
X155130397Y-146951447D01*
X155111546Y-146957165D01*
X155094174Y-146966451D01*
X155078947Y-146978947D01*
X155066451Y-146994174D01*
X155057165Y-147011546D01*
X155051447Y-147030397D01*
X155049516Y-147050000D01*
X154654163Y-147050000D01*
X159243036Y-142461127D01*
X159307897Y-142407897D01*
X159361128Y-142343035D01*
X159361132Y-142343031D01*
X159520337Y-142149040D01*
X159644770Y-141916241D01*
X159675001Y-141859684D01*
X159675000Y-154177103D01*
X159675000Y-154177103D01*
G37*
X159675000Y-154177103D02*
X159650337Y-154130961D01*
X159491132Y-153936969D01*
X159491128Y-153936965D01*
X159437897Y-153872103D01*
X159373035Y-153818872D01*
X158706290Y-153152127D01*
X158706290Y-151800000D01*
X158681190Y-151545155D01*
X158606855Y-151300104D01*
X158486140Y-151074264D01*
X158323687Y-150876313D01*
X158125736Y-150713860D01*
X157899896Y-150593145D01*
X157654845Y-150518810D01*
X157400000Y-150493710D01*
X154900000Y-150493710D01*
X154645155Y-150518810D01*
X154400104Y-150593145D01*
X154174264Y-150713860D01*
X153976313Y-150876313D01*
X153813860Y-151074264D01*
X153693145Y-151300104D01*
X153618810Y-151545155D01*
X153593710Y-151800000D01*
X153593710Y-154300000D01*
X153618810Y-154554845D01*
X153693145Y-154799896D01*
X153813860Y-155025736D01*
X153976313Y-155223687D01*
X154174264Y-155386140D01*
X154400104Y-155506855D01*
X154645155Y-155581190D01*
X154900000Y-155606290D01*
X156352127Y-155606290D01*
X156530001Y-155784164D01*
X156530000Y-161399882D01*
X156329000Y-161400000D01*
X156304000Y-161425000D01*
X156304000Y-162346000D01*
X156324000Y-162346000D01*
X156324000Y-162654000D01*
X156304000Y-162654000D01*
X156304000Y-162674000D01*
X155996000Y-162674000D01*
X155996000Y-162654000D01*
X155075000Y-162654000D01*
X155050000Y-162679000D01*
X155049752Y-163100000D01*
X143488415Y-163100000D01*
X143399999Y-163091292D01*
X143311583Y-163100000D01*
X143311576Y-163100000D01*
X143047138Y-163126045D01*
X142707837Y-163228971D01*
X142395135Y-163396113D01*
X142121050Y-163621050D01*
X142064681Y-163689735D01*
X141824683Y-163929734D01*
X141656114Y-164135136D01*
X141536018Y-164359819D01*
X140017030Y-165878807D01*
X139786527Y-165533835D01*
X139466165Y-165213473D01*
X139146680Y-165000000D01*
X139466165Y-164786527D01*
X139786527Y-164466165D01*
X140038234Y-164089459D01*
X140211613Y-163670885D01*
X140300000Y-163226530D01*
X140300000Y-162773470D01*
X140211613Y-162329115D01*
X140038234Y-161910541D01*
X139800000Y-161553999D01*
X139800000Y-161500000D01*
X155049516Y-161500000D01*
X155050000Y-162321000D01*
X155075000Y-162346000D01*
X155996000Y-162346000D01*
X155996000Y-161425000D01*
X155971000Y-161400000D01*
X155150000Y-161399516D01*
X155130397Y-161401447D01*
X155111546Y-161407165D01*
X155094174Y-161416451D01*
X155078947Y-161428947D01*
X155066451Y-161444174D01*
X155057165Y-161461546D01*
X155051447Y-161480397D01*
X155049516Y-161500000D01*
X139800000Y-161500000D01*
X139800000Y-160830699D01*
X139886140Y-160725736D01*
X140006855Y-160499896D01*
X140081190Y-160254845D01*
X140106290Y-160000000D01*
X140106290Y-159992770D01*
X140119789Y-160001633D01*
X140249181Y-160051719D01*
X140386000Y-160061341D01*
X140386000Y-159154000D01*
X140694000Y-159154000D01*
X140694000Y-160061341D01*
X140830819Y-160051719D01*
X140960211Y-160001633D01*
X141108528Y-159904251D01*
X141234997Y-159779805D01*
X141334757Y-159633077D01*
X141403975Y-159469706D01*
X141439991Y-159295971D01*
X141418924Y-159154000D01*
X140694000Y-159154000D01*
X140386000Y-159154000D01*
X140366000Y-159154000D01*
X140366000Y-158846000D01*
X140386000Y-158846000D01*
X140694000Y-158846000D01*
X141418924Y-158846000D01*
X141439991Y-158704029D01*
X141403975Y-158530294D01*
X141334757Y-158366923D01*
X141234997Y-158220195D01*
X141108528Y-158095749D01*
X140960211Y-157998367D01*
X140830819Y-157948281D01*
X140694000Y-157938659D01*
X140694000Y-158846000D01*
X140386000Y-158846000D01*
X140386000Y-157938659D01*
X140249181Y-157948281D01*
X140119789Y-157998367D01*
X140106290Y-158007230D01*
X140106290Y-158000000D01*
X140081190Y-157745155D01*
X140006855Y-157500104D01*
X139886140Y-157274264D01*
X139723687Y-157076313D01*
X139525907Y-156914000D01*
X145331985Y-156914000D01*
X145351920Y-157176950D01*
X145464930Y-157490463D01*
X145636932Y-157775905D01*
X145861316Y-158022306D01*
X146129459Y-158220197D01*
X146431057Y-158361974D01*
X146583051Y-158408075D01*
X146846000Y-158427906D01*
X146846000Y-156914000D01*
X147154000Y-156914000D01*
X147154000Y-158427906D01*
X147416949Y-158408075D01*
X147568943Y-158361974D01*
X147870541Y-158220197D01*
X148138684Y-158022306D01*
X148363068Y-157775905D01*
X148535070Y-157490463D01*
X148648080Y-157176950D01*
X148668015Y-156914000D01*
X147154000Y-156914000D01*
X146846000Y-156914000D01*
X145331985Y-156914000D01*
X139525907Y-156914000D01*
X139525736Y-156913860D01*
X139299896Y-156793145D01*
X139054845Y-156718810D01*
X138800000Y-156693710D01*
X137200000Y-156693710D01*
X136945155Y-156718810D01*
X136700104Y-156793145D01*
X136474264Y-156913860D01*
X136276313Y-157076313D01*
X136113860Y-157274264D01*
X135993145Y-157500104D01*
X135918810Y-157745155D01*
X135893710Y-158000000D01*
X135893710Y-160000000D01*
X135918810Y-160254845D01*
X135993145Y-160499896D01*
X136113860Y-160725736D01*
X136200000Y-160830699D01*
X136200001Y-161553998D01*
X135961766Y-161910541D01*
X135788387Y-162329115D01*
X135700000Y-162773470D01*
X135700000Y-163226530D01*
X135744169Y-163448585D01*
X132154549Y-159858966D01*
X132234997Y-159779805D01*
X132334757Y-159633077D01*
X132403975Y-159469706D01*
X132439991Y-159295971D01*
X132418924Y-159154000D01*
X131694000Y-159154000D01*
X131694000Y-159174000D01*
X131469583Y-159174000D01*
X131366000Y-159070417D01*
X131366000Y-158846000D01*
X131386000Y-158846000D01*
X131694000Y-158846000D01*
X132418924Y-158846000D01*
X132439991Y-158704029D01*
X132403975Y-158530294D01*
X132334757Y-158366923D01*
X132234997Y-158220195D01*
X132108528Y-158095749D01*
X131960211Y-157998367D01*
X131830819Y-157948281D01*
X131694000Y-157938659D01*
X131694000Y-158846000D01*
X131386000Y-158846000D01*
X131386000Y-157938659D01*
X131249181Y-157948281D01*
X131119789Y-157998367D01*
X131106290Y-158007230D01*
X131106290Y-158000000D01*
X131081190Y-157745155D01*
X131006855Y-157500104D01*
X130886140Y-157274264D01*
X130723687Y-157076313D01*
X130525736Y-156913860D01*
X130299896Y-156793145D01*
X130054845Y-156718810D01*
X129800000Y-156693710D01*
X128819999Y-156693710D01*
X128819999Y-153672432D01*
X129000000Y-153690161D01*
X129411672Y-153649615D01*
X129807524Y-153529535D01*
X130172343Y-153334535D01*
X130492109Y-153072109D01*
X130754535Y-152752343D01*
X130949535Y-152387523D01*
X130979303Y-152289392D01*
X131119789Y-152381633D01*
X131249181Y-152431719D01*
X131386000Y-152441341D01*
X131386000Y-151534000D01*
X131694000Y-151534000D01*
X131694000Y-152441341D01*
X131830819Y-152431719D01*
X131960211Y-152381633D01*
X132108528Y-152284251D01*
X132234997Y-152159805D01*
X132334757Y-152013077D01*
X132403975Y-151849706D01*
X132439991Y-151675971D01*
X132418924Y-151534000D01*
X131694000Y-151534000D01*
X131386000Y-151534000D01*
X131366000Y-151534000D01*
X131366000Y-151289583D01*
X131449583Y-151206000D01*
X131694000Y-151206000D01*
X131694000Y-151226000D01*
X132418924Y-151226000D01*
X132439991Y-151084029D01*
X132424430Y-151008967D01*
X135905939Y-151016535D01*
X135900000Y-151076834D01*
X135900000Y-151683167D01*
X135930385Y-151991672D01*
X136050465Y-152387524D01*
X136245465Y-152752343D01*
X136507891Y-153072109D01*
X136827658Y-153334535D01*
X137192477Y-153529535D01*
X137588329Y-153649615D01*
X138000000Y-153690161D01*
X138411672Y-153649615D01*
X138807524Y-153529535D01*
X139172343Y-153334535D01*
X139492109Y-153072109D01*
X139754535Y-152752343D01*
X139949535Y-152387523D01*
X139979303Y-152289392D01*
X140119789Y-152381633D01*
X140249181Y-152431719D01*
X140386000Y-152441341D01*
X140386000Y-151534000D01*
X140366000Y-151534000D01*
X140366000Y-151226000D01*
X140386000Y-151226000D01*
X140386000Y-151206000D01*
X140694000Y-151206000D01*
X140694000Y-151226000D01*
X140714000Y-151226000D01*
X140714000Y-151534000D01*
X140694000Y-151534000D01*
X140694000Y-152441341D01*
X140830819Y-152431719D01*
X140960211Y-152381633D01*
X141108528Y-152284251D01*
X141234997Y-152159805D01*
X141298339Y-152066640D01*
X141324599Y-152333258D01*
X141421807Y-152653709D01*
X141579663Y-152949039D01*
X141738868Y-153143031D01*
X141738877Y-153143040D01*
X141792104Y-153207897D01*
X141856961Y-153261124D01*
X143738872Y-155143035D01*
X143792103Y-155207897D01*
X143856965Y-155261128D01*
X143856968Y-155261131D01*
X144050960Y-155420337D01*
X144151851Y-155474264D01*
X144346291Y-155578194D01*
X144666742Y-155675402D01*
X144916490Y-155700000D01*
X144916499Y-155700000D01*
X144999999Y-155708224D01*
X145083499Y-155700000D01*
X145677087Y-155700000D01*
X145636932Y-155744095D01*
X145464930Y-156029537D01*
X145351920Y-156343050D01*
X145331985Y-156606000D01*
X146846000Y-156606000D01*
X146846000Y-156586000D01*
X147154000Y-156586000D01*
X147154000Y-156606000D01*
X148668015Y-156606000D01*
X148648080Y-156343050D01*
X148535070Y-156029537D01*
X148363068Y-155744095D01*
X148322913Y-155700000D01*
X148916500Y-155700000D01*
X149000000Y-155708224D01*
X149083500Y-155700000D01*
X149083510Y-155700000D01*
X149333258Y-155675402D01*
X149653709Y-155578194D01*
X149949039Y-155420337D01*
X149970804Y-155402475D01*
X150143031Y-155261132D01*
X150143035Y-155261128D01*
X150207897Y-155207897D01*
X150261128Y-155143035D01*
X152543036Y-152861127D01*
X152607897Y-152807897D01*
X152661128Y-152743035D01*
X152661132Y-152743031D01*
X152820337Y-152549039D01*
X152978194Y-152253710D01*
X153075402Y-151933258D01*
X153077235Y-151914643D01*
X153100000Y-151683510D01*
X153100000Y-151683502D01*
X153108224Y-151600000D01*
X153100000Y-151516498D01*
X153100000Y-149050000D01*
X155049516Y-149050000D01*
X155051447Y-149069603D01*
X155057165Y-149088454D01*
X155066451Y-149105826D01*
X155078947Y-149121053D01*
X155094174Y-149133549D01*
X155111546Y-149142835D01*
X155130397Y-149148553D01*
X155150000Y-149150484D01*
X155971000Y-149150000D01*
X155996000Y-149125000D01*
X155996000Y-148204000D01*
X156304000Y-148204000D01*
X156304000Y-149125000D01*
X156329000Y-149150000D01*
X157150000Y-149150484D01*
X157169603Y-149148553D01*
X157188454Y-149142835D01*
X157205826Y-149133549D01*
X157221053Y-149121053D01*
X157233549Y-149105826D01*
X157242835Y-149088454D01*
X157248553Y-149069603D01*
X157250484Y-149050000D01*
X157250000Y-148229000D01*
X157225000Y-148204000D01*
X156304000Y-148204000D01*
X155996000Y-148204000D01*
X155075000Y-148204000D01*
X155050000Y-148229000D01*
X155049516Y-149050000D01*
X153100000Y-149050000D01*
X153100000Y-148604163D01*
X154654163Y-147050000D01*
X155049516Y-147050000D01*
X155050000Y-147871000D01*
X155075000Y-147896000D01*
X155996000Y-147896000D01*
X155996000Y-146975000D01*
X156304000Y-146975000D01*
X156304000Y-147896000D01*
X157225000Y-147896000D01*
X157250000Y-147871000D01*
X157250484Y-147050000D01*
X157248553Y-147030397D01*
X157242835Y-147011546D01*
X157233549Y-146994174D01*
X157221053Y-146978947D01*
X157205826Y-146966451D01*
X157188454Y-146957165D01*
X157169603Y-146951447D01*
X157150000Y-146949516D01*
X156329000Y-146950000D01*
X156304000Y-146975000D01*
X155996000Y-146975000D01*
X155971000Y-146950000D01*
X155150000Y-146949516D01*
X155130397Y-146951447D01*
X155111546Y-146957165D01*
X155094174Y-146966451D01*
X155078947Y-146978947D01*
X155066451Y-146994174D01*
X155057165Y-147011546D01*
X155051447Y-147030397D01*
X155049516Y-147050000D01*
X154654163Y-147050000D01*
X159243036Y-142461127D01*
X159307897Y-142407897D01*
X159361128Y-142343035D01*
X159361132Y-142343031D01*
X159520337Y-142149040D01*
X159644770Y-141916241D01*
X159675001Y-141859684D01*
X159675000Y-154177103D01*
G36*
X109911505Y-150960025D02*
G01*
X109900000Y-151076834D01*
X109900000Y-151683167D01*
X109930385Y-151991672D01*
X110050465Y-152387524D01*
X110245465Y-152752343D01*
X110507891Y-153072109D01*
X110827658Y-153334535D01*
X111192477Y-153529535D01*
X111588329Y-153649615D01*
X112000000Y-153690161D01*
X112411672Y-153649615D01*
X112807524Y-153529535D01*
X113172343Y-153334535D01*
X113492109Y-153072109D01*
X113754535Y-152752343D01*
X113949535Y-152387523D01*
X113979303Y-152289392D01*
X114119789Y-152381633D01*
X114249181Y-152431719D01*
X114386000Y-152441341D01*
X114386000Y-151534000D01*
X114694000Y-151534000D01*
X114694000Y-152441341D01*
X114830819Y-152431719D01*
X114960211Y-152381633D01*
X115108528Y-152284251D01*
X115234997Y-152159805D01*
X115334757Y-152013077D01*
X115403975Y-151849706D01*
X115439991Y-151675971D01*
X115418924Y-151534000D01*
X114694000Y-151534000D01*
X114386000Y-151534000D01*
X114366000Y-151534000D01*
X114366000Y-151226000D01*
X114386000Y-151226000D01*
X114386000Y-151206000D01*
X114694000Y-151206000D01*
X114694000Y-151226000D01*
X115418924Y-151226000D01*
X115425746Y-151180024D01*
X115674232Y-151255402D01*
X115923980Y-151280000D01*
X115923989Y-151280000D01*
X116007489Y-151288224D01*
X116090989Y-151280000D01*
X117900000Y-151280000D01*
X117900000Y-151683167D01*
X117930385Y-151991672D01*
X118050465Y-152387524D01*
X118245465Y-152752343D01*
X118507891Y-153072109D01*
X118827658Y-153334535D01*
X119192477Y-153529535D01*
X119588329Y-153649615D01*
X120000000Y-153690161D01*
X120411672Y-153649615D01*
X120807524Y-153529535D01*
X121172343Y-153334535D01*
X121492109Y-153072109D01*
X121754535Y-152752343D01*
X121949535Y-152387523D01*
X121979303Y-152289392D01*
X122119789Y-152381633D01*
X122249181Y-152431719D01*
X122386000Y-152441341D01*
X122386000Y-151534000D01*
X122694000Y-151534000D01*
X122694000Y-152441341D01*
X122830819Y-152431719D01*
X122960211Y-152381633D01*
X123108528Y-152284251D01*
X123234997Y-152159805D01*
X123334757Y-152013077D01*
X123403975Y-151849706D01*
X123439991Y-151675971D01*
X123418924Y-151534000D01*
X122694000Y-151534000D01*
X122386000Y-151534000D01*
X122366000Y-151534000D01*
X122366000Y-151226000D01*
X122386000Y-151226000D01*
X122386000Y-151206000D01*
X122694000Y-151206000D01*
X122694000Y-151226000D01*
X123418924Y-151226000D01*
X123439991Y-151084029D01*
X123420372Y-150989392D01*
X125419999Y-150993740D01*
X125420000Y-160426489D01*
X125411775Y-160509999D01*
X125444598Y-160843257D01*
X125541806Y-161163708D01*
X125699662Y-161459038D01*
X125858867Y-161653030D01*
X125858876Y-161653039D01*
X125912103Y-161717896D01*
X125923976Y-161727640D01*
X125801766Y-161910541D01*
X125628387Y-162329115D01*
X125540000Y-162773470D01*
X125540000Y-163226530D01*
X125628387Y-163670885D01*
X125801766Y-164089459D01*
X126040000Y-164446002D01*
X126040001Y-165200000D01*
X123960000Y-165200000D01*
X123960000Y-164446001D01*
X124198234Y-164089459D01*
X124371613Y-163670885D01*
X124460000Y-163226530D01*
X124460000Y-162773470D01*
X124371613Y-162329115D01*
X124198234Y-161910541D01*
X123946527Y-161533835D01*
X123626165Y-161213473D01*
X123249459Y-160961766D01*
X122830885Y-160788387D01*
X122386530Y-160700000D01*
X121933470Y-160700000D01*
X121895902Y-160707473D01*
X122006855Y-160499896D01*
X122081190Y-160254845D01*
X122106290Y-160000000D01*
X122106290Y-159992770D01*
X122119789Y-160001633D01*
X122249181Y-160051719D01*
X122386000Y-160061341D01*
X122386000Y-159154000D01*
X122694000Y-159154000D01*
X122694000Y-160061341D01*
X122830819Y-160051719D01*
X122960211Y-160001633D01*
X123108528Y-159904251D01*
X123234997Y-159779805D01*
X123334757Y-159633077D01*
X123403975Y-159469706D01*
X123439991Y-159295971D01*
X123418924Y-159154000D01*
X122694000Y-159154000D01*
X122386000Y-159154000D01*
X122366000Y-159154000D01*
X122366000Y-158846000D01*
X122386000Y-158846000D01*
X122694000Y-158846000D01*
X123418924Y-158846000D01*
X123439991Y-158704029D01*
X123403975Y-158530294D01*
X123334757Y-158366923D01*
X123234997Y-158220195D01*
X123108528Y-158095749D01*
X122960211Y-157998367D01*
X122830819Y-157948281D01*
X122694000Y-157938659D01*
X122694000Y-158846000D01*
X122386000Y-158846000D01*
X122386000Y-157938659D01*
X122249181Y-157948281D01*
X122119789Y-157998367D01*
X122106290Y-158007230D01*
X122106290Y-158000000D01*
X122081190Y-157745155D01*
X122006855Y-157500104D01*
X121886140Y-157274264D01*
X121723687Y-157076313D01*
X121525736Y-156913860D01*
X121299896Y-156793145D01*
X121054845Y-156718810D01*
X120800000Y-156693710D01*
X119200000Y-156693710D01*
X118945155Y-156718810D01*
X118700104Y-156793145D01*
X118474264Y-156913860D01*
X118276313Y-157076313D01*
X118113860Y-157274264D01*
X117993145Y-157500104D01*
X117918810Y-157745155D01*
X117893710Y-158000000D01*
X117893710Y-159660706D01*
X114293076Y-163261341D01*
X114300000Y-163226530D01*
X114300000Y-162773470D01*
X114211613Y-162329115D01*
X114038234Y-161910541D01*
X113800000Y-161553999D01*
X113800000Y-160830699D01*
X113886140Y-160725736D01*
X114006855Y-160499896D01*
X114081190Y-160254845D01*
X114106290Y-160000000D01*
X114106290Y-159992770D01*
X114119789Y-160001633D01*
X114249181Y-160051719D01*
X114386000Y-160061341D01*
X114386000Y-159154000D01*
X114694000Y-159154000D01*
X114694000Y-160061341D01*
X114830819Y-160051719D01*
X114960211Y-160001633D01*
X115108528Y-159904251D01*
X115234997Y-159779805D01*
X115334757Y-159633077D01*
X115403975Y-159469706D01*
X115439991Y-159295971D01*
X115418924Y-159154000D01*
X114694000Y-159154000D01*
X114386000Y-159154000D01*
X114366000Y-159154000D01*
X114366000Y-158846000D01*
X114386000Y-158846000D01*
X114694000Y-158846000D01*
X115418924Y-158846000D01*
X115439991Y-158704029D01*
X115403975Y-158530294D01*
X115334757Y-158366923D01*
X115234997Y-158220195D01*
X115108528Y-158095749D01*
X114960211Y-157998367D01*
X114830819Y-157948281D01*
X114694000Y-157938659D01*
X114694000Y-158846000D01*
X114386000Y-158846000D01*
X114386000Y-157938659D01*
X114249181Y-157948281D01*
X114119789Y-157998367D01*
X114106290Y-158007230D01*
X114106290Y-158000000D01*
X114081190Y-157745155D01*
X114006855Y-157500104D01*
X113886140Y-157274264D01*
X113723687Y-157076313D01*
X113525736Y-156913860D01*
X113299896Y-156793145D01*
X113054845Y-156718810D01*
X112800000Y-156693710D01*
X111200000Y-156693710D01*
X110945155Y-156718810D01*
X110700104Y-156793145D01*
X110474264Y-156913860D01*
X110276313Y-157076313D01*
X110113860Y-157274264D01*
X109993145Y-157500104D01*
X109918810Y-157745155D01*
X109893710Y-158000000D01*
X109893710Y-160000000D01*
X109918810Y-160254845D01*
X109993145Y-160499896D01*
X110113860Y-160725736D01*
X110200001Y-160830699D01*
X110200000Y-161553998D01*
X109961766Y-161910541D01*
X109825000Y-162240723D01*
X109825000Y-150959837D01*
X109911505Y-150960025D01*
X109911505Y-150960025D01*
G37*
X109911505Y-150960025D02*
X109900000Y-151076834D01*
X109900000Y-151683167D01*
X109930385Y-151991672D01*
X110050465Y-152387524D01*
X110245465Y-152752343D01*
X110507891Y-153072109D01*
X110827658Y-153334535D01*
X111192477Y-153529535D01*
X111588329Y-153649615D01*
X112000000Y-153690161D01*
X112411672Y-153649615D01*
X112807524Y-153529535D01*
X113172343Y-153334535D01*
X113492109Y-153072109D01*
X113754535Y-152752343D01*
X113949535Y-152387523D01*
X113979303Y-152289392D01*
X114119789Y-152381633D01*
X114249181Y-152431719D01*
X114386000Y-152441341D01*
X114386000Y-151534000D01*
X114694000Y-151534000D01*
X114694000Y-152441341D01*
X114830819Y-152431719D01*
X114960211Y-152381633D01*
X115108528Y-152284251D01*
X115234997Y-152159805D01*
X115334757Y-152013077D01*
X115403975Y-151849706D01*
X115439991Y-151675971D01*
X115418924Y-151534000D01*
X114694000Y-151534000D01*
X114386000Y-151534000D01*
X114366000Y-151534000D01*
X114366000Y-151226000D01*
X114386000Y-151226000D01*
X114386000Y-151206000D01*
X114694000Y-151206000D01*
X114694000Y-151226000D01*
X115418924Y-151226000D01*
X115425746Y-151180024D01*
X115674232Y-151255402D01*
X115923980Y-151280000D01*
X115923989Y-151280000D01*
X116007489Y-151288224D01*
X116090989Y-151280000D01*
X117900000Y-151280000D01*
X117900000Y-151683167D01*
X117930385Y-151991672D01*
X118050465Y-152387524D01*
X118245465Y-152752343D01*
X118507891Y-153072109D01*
X118827658Y-153334535D01*
X119192477Y-153529535D01*
X119588329Y-153649615D01*
X120000000Y-153690161D01*
X120411672Y-153649615D01*
X120807524Y-153529535D01*
X121172343Y-153334535D01*
X121492109Y-153072109D01*
X121754535Y-152752343D01*
X121949535Y-152387523D01*
X121979303Y-152289392D01*
X122119789Y-152381633D01*
X122249181Y-152431719D01*
X122386000Y-152441341D01*
X122386000Y-151534000D01*
X122694000Y-151534000D01*
X122694000Y-152441341D01*
X122830819Y-152431719D01*
X122960211Y-152381633D01*
X123108528Y-152284251D01*
X123234997Y-152159805D01*
X123334757Y-152013077D01*
X123403975Y-151849706D01*
X123439991Y-151675971D01*
X123418924Y-151534000D01*
X122694000Y-151534000D01*
X122386000Y-151534000D01*
X122366000Y-151534000D01*
X122366000Y-151226000D01*
X122386000Y-151226000D01*
X122386000Y-151206000D01*
X122694000Y-151206000D01*
X122694000Y-151226000D01*
X123418924Y-151226000D01*
X123439991Y-151084029D01*
X123420372Y-150989392D01*
X125419999Y-150993740D01*
X125420000Y-160426489D01*
X125411775Y-160509999D01*
X125444598Y-160843257D01*
X125541806Y-161163708D01*
X125699662Y-161459038D01*
X125858867Y-161653030D01*
X125858876Y-161653039D01*
X125912103Y-161717896D01*
X125923976Y-161727640D01*
X125801766Y-161910541D01*
X125628387Y-162329115D01*
X125540000Y-162773470D01*
X125540000Y-163226530D01*
X125628387Y-163670885D01*
X125801766Y-164089459D01*
X126040000Y-164446002D01*
X126040001Y-165200000D01*
X123960000Y-165200000D01*
X123960000Y-164446001D01*
X124198234Y-164089459D01*
X124371613Y-163670885D01*
X124460000Y-163226530D01*
X124460000Y-162773470D01*
X124371613Y-162329115D01*
X124198234Y-161910541D01*
X123946527Y-161533835D01*
X123626165Y-161213473D01*
X123249459Y-160961766D01*
X122830885Y-160788387D01*
X122386530Y-160700000D01*
X121933470Y-160700000D01*
X121895902Y-160707473D01*
X122006855Y-160499896D01*
X122081190Y-160254845D01*
X122106290Y-160000000D01*
X122106290Y-159992770D01*
X122119789Y-160001633D01*
X122249181Y-160051719D01*
X122386000Y-160061341D01*
X122386000Y-159154000D01*
X122694000Y-159154000D01*
X122694000Y-160061341D01*
X122830819Y-160051719D01*
X122960211Y-160001633D01*
X123108528Y-159904251D01*
X123234997Y-159779805D01*
X123334757Y-159633077D01*
X123403975Y-159469706D01*
X123439991Y-159295971D01*
X123418924Y-159154000D01*
X122694000Y-159154000D01*
X122386000Y-159154000D01*
X122366000Y-159154000D01*
X122366000Y-158846000D01*
X122386000Y-158846000D01*
X122694000Y-158846000D01*
X123418924Y-158846000D01*
X123439991Y-158704029D01*
X123403975Y-158530294D01*
X123334757Y-158366923D01*
X123234997Y-158220195D01*
X123108528Y-158095749D01*
X122960211Y-157998367D01*
X122830819Y-157948281D01*
X122694000Y-157938659D01*
X122694000Y-158846000D01*
X122386000Y-158846000D01*
X122386000Y-157938659D01*
X122249181Y-157948281D01*
X122119789Y-157998367D01*
X122106290Y-158007230D01*
X122106290Y-158000000D01*
X122081190Y-157745155D01*
X122006855Y-157500104D01*
X121886140Y-157274264D01*
X121723687Y-157076313D01*
X121525736Y-156913860D01*
X121299896Y-156793145D01*
X121054845Y-156718810D01*
X120800000Y-156693710D01*
X119200000Y-156693710D01*
X118945155Y-156718810D01*
X118700104Y-156793145D01*
X118474264Y-156913860D01*
X118276313Y-157076313D01*
X118113860Y-157274264D01*
X117993145Y-157500104D01*
X117918810Y-157745155D01*
X117893710Y-158000000D01*
X117893710Y-159660706D01*
X114293076Y-163261341D01*
X114300000Y-163226530D01*
X114300000Y-162773470D01*
X114211613Y-162329115D01*
X114038234Y-161910541D01*
X113800000Y-161553999D01*
X113800000Y-160830699D01*
X113886140Y-160725736D01*
X114006855Y-160499896D01*
X114081190Y-160254845D01*
X114106290Y-160000000D01*
X114106290Y-159992770D01*
X114119789Y-160001633D01*
X114249181Y-160051719D01*
X114386000Y-160061341D01*
X114386000Y-159154000D01*
X114694000Y-159154000D01*
X114694000Y-160061341D01*
X114830819Y-160051719D01*
X114960211Y-160001633D01*
X115108528Y-159904251D01*
X115234997Y-159779805D01*
X115334757Y-159633077D01*
X115403975Y-159469706D01*
X115439991Y-159295971D01*
X115418924Y-159154000D01*
X114694000Y-159154000D01*
X114386000Y-159154000D01*
X114366000Y-159154000D01*
X114366000Y-158846000D01*
X114386000Y-158846000D01*
X114694000Y-158846000D01*
X115418924Y-158846000D01*
X115439991Y-158704029D01*
X115403975Y-158530294D01*
X115334757Y-158366923D01*
X115234997Y-158220195D01*
X115108528Y-158095749D01*
X114960211Y-157998367D01*
X114830819Y-157948281D01*
X114694000Y-157938659D01*
X114694000Y-158846000D01*
X114386000Y-158846000D01*
X114386000Y-157938659D01*
X114249181Y-157948281D01*
X114119789Y-157998367D01*
X114106290Y-158007230D01*
X114106290Y-158000000D01*
X114081190Y-157745155D01*
X114006855Y-157500104D01*
X113886140Y-157274264D01*
X113723687Y-157076313D01*
X113525736Y-156913860D01*
X113299896Y-156793145D01*
X113054845Y-156718810D01*
X112800000Y-156693710D01*
X111200000Y-156693710D01*
X110945155Y-156718810D01*
X110700104Y-156793145D01*
X110474264Y-156913860D01*
X110276313Y-157076313D01*
X110113860Y-157274264D01*
X109993145Y-157500104D01*
X109918810Y-157745155D01*
X109893710Y-158000000D01*
X109893710Y-160000000D01*
X109918810Y-160254845D01*
X109993145Y-160499896D01*
X110113860Y-160725736D01*
X110200001Y-160830699D01*
X110200000Y-161553998D01*
X109961766Y-161910541D01*
X109825000Y-162240723D01*
X109825000Y-150959837D01*
X109911505Y-150960025D01*
G36*
X85012476Y-145350465D02*
G01*
X84647657Y-145545465D01*
X84327891Y-145807891D01*
X84065465Y-146127657D01*
X83870465Y-146492477D01*
X83848107Y-146566181D01*
X83707522Y-146482972D01*
X83586672Y-146448185D01*
X83434000Y-146437239D01*
X83434000Y-147846000D01*
X83454000Y-147846000D01*
X83454000Y-148154000D01*
X83434000Y-148154000D01*
X83434000Y-149562761D01*
X83586672Y-149551815D01*
X83707522Y-149517028D01*
X83848108Y-149433819D01*
X83870466Y-149507524D01*
X84020000Y-149787283D01*
X84020000Y-151331584D01*
X84011292Y-151420000D01*
X84020000Y-151508416D01*
X84020000Y-151508423D01*
X84046045Y-151772861D01*
X84148971Y-152112162D01*
X84316113Y-152424864D01*
X84541050Y-152698950D01*
X84609738Y-152755321D01*
X85669733Y-153815317D01*
X85725503Y-153861087D01*
X90391899Y-158527483D01*
X90346883Y-158611703D01*
X90229662Y-158998130D01*
X90190081Y-159400000D01*
X90229662Y-159801870D01*
X90346883Y-160188297D01*
X90537240Y-160544430D01*
X90625835Y-160652383D01*
X83989045Y-154015594D01*
X83937371Y-153952629D01*
X83686126Y-153746438D01*
X83399483Y-153593223D01*
X83088456Y-153498875D01*
X82846052Y-153475000D01*
X82846042Y-153475000D01*
X82765000Y-153467018D01*
X82683958Y-153475000D01*
X82556290Y-153475000D01*
X82556290Y-152000000D01*
X82540000Y-151834605D01*
X82540000Y-149874572D01*
X82578083Y-149828168D01*
X82770368Y-149468429D01*
X82852478Y-149517028D01*
X82973328Y-149551815D01*
X83126000Y-149562761D01*
X83126000Y-148154000D01*
X83106000Y-148154000D01*
X83106000Y-147846000D01*
X83126000Y-147846000D01*
X83126000Y-146437239D01*
X82973328Y-146448185D01*
X82852478Y-146482972D01*
X82770368Y-146531571D01*
X82578083Y-146171832D01*
X82303161Y-145836839D01*
X81968168Y-145561917D01*
X81585976Y-145357631D01*
X81330060Y-145280000D01*
X85244769Y-145280000D01*
X85012476Y-145350465D01*
X85012476Y-145350465D01*
G37*
X85012476Y-145350465D02*
X84647657Y-145545465D01*
X84327891Y-145807891D01*
X84065465Y-146127657D01*
X83870465Y-146492477D01*
X83848107Y-146566181D01*
X83707522Y-146482972D01*
X83586672Y-146448185D01*
X83434000Y-146437239D01*
X83434000Y-147846000D01*
X83454000Y-147846000D01*
X83454000Y-148154000D01*
X83434000Y-148154000D01*
X83434000Y-149562761D01*
X83586672Y-149551815D01*
X83707522Y-149517028D01*
X83848108Y-149433819D01*
X83870466Y-149507524D01*
X84020000Y-149787283D01*
X84020000Y-151331584D01*
X84011292Y-151420000D01*
X84020000Y-151508416D01*
X84020000Y-151508423D01*
X84046045Y-151772861D01*
X84148971Y-152112162D01*
X84316113Y-152424864D01*
X84541050Y-152698950D01*
X84609738Y-152755321D01*
X85669733Y-153815317D01*
X85725503Y-153861087D01*
X90391899Y-158527483D01*
X90346883Y-158611703D01*
X90229662Y-158998130D01*
X90190081Y-159400000D01*
X90229662Y-159801870D01*
X90346883Y-160188297D01*
X90537240Y-160544430D01*
X90625835Y-160652383D01*
X83989045Y-154015594D01*
X83937371Y-153952629D01*
X83686126Y-153746438D01*
X83399483Y-153593223D01*
X83088456Y-153498875D01*
X82846052Y-153475000D01*
X82846042Y-153475000D01*
X82765000Y-153467018D01*
X82683958Y-153475000D01*
X82556290Y-153475000D01*
X82556290Y-152000000D01*
X82540000Y-151834605D01*
X82540000Y-149874572D01*
X82578083Y-149828168D01*
X82770368Y-149468429D01*
X82852478Y-149517028D01*
X82973328Y-149551815D01*
X83126000Y-149562761D01*
X83126000Y-148154000D01*
X83106000Y-148154000D01*
X83106000Y-147846000D01*
X83126000Y-147846000D01*
X83126000Y-146437239D01*
X82973328Y-146448185D01*
X82852478Y-146482972D01*
X82770368Y-146531571D01*
X82578083Y-146171832D01*
X82303161Y-145836839D01*
X81968168Y-145561917D01*
X81585976Y-145357631D01*
X81330060Y-145280000D01*
X85244769Y-145280000D01*
X85012476Y-145350465D01*
G36*
X107190000Y-123946007D02*
G01*
X107190000Y-124060504D01*
X107190001Y-124060514D01*
X107190000Y-134087291D01*
X107126114Y-134165136D01*
X106958971Y-134477838D01*
X106921609Y-134601004D01*
X104975000Y-136547614D01*
X104975000Y-135359685D01*
X104978194Y-135353709D01*
X105075402Y-135033258D01*
X105100000Y-134783510D01*
X105100000Y-133833502D01*
X105108224Y-133750000D01*
X105100000Y-133666498D01*
X105100000Y-133666491D01*
X105075402Y-133416742D01*
X105019743Y-133233258D01*
X104978194Y-133096290D01*
X104820337Y-132800961D01*
X104661132Y-132606969D01*
X104661128Y-132606965D01*
X104607897Y-132542103D01*
X104543035Y-132488872D01*
X103846000Y-131791837D01*
X103846000Y-131234000D01*
X104154000Y-131234000D01*
X104154000Y-131886739D01*
X104285664Y-131921210D01*
X104449667Y-131903941D01*
X104607150Y-131855009D01*
X104752061Y-131776294D01*
X104878831Y-131670820D01*
X104982588Y-131542641D01*
X105051402Y-131358098D01*
X105059942Y-131234000D01*
X104154000Y-131234000D01*
X103846000Y-131234000D01*
X103826000Y-131234000D01*
X103826000Y-130926000D01*
X103846000Y-130926000D01*
X103846000Y-130906000D01*
X104154000Y-130906000D01*
X104154000Y-130926000D01*
X105059942Y-130926000D01*
X105051402Y-130801902D01*
X104982588Y-130617359D01*
X104878831Y-130489180D01*
X104861268Y-130474567D01*
X105056760Y-130415266D01*
X105407681Y-130227695D01*
X105715266Y-129975266D01*
X105967695Y-129667681D01*
X106155266Y-129316760D01*
X106270771Y-128935989D01*
X106309773Y-128540000D01*
X106270771Y-128144011D01*
X106155266Y-127763240D01*
X105967695Y-127412319D01*
X105850897Y-127270000D01*
X105967695Y-127127681D01*
X106155266Y-126776760D01*
X106270771Y-126395989D01*
X106309773Y-126000000D01*
X106270771Y-125604011D01*
X106155266Y-125223240D01*
X105989251Y-124912647D01*
X106248397Y-124805305D01*
X106600535Y-124570014D01*
X106900004Y-124270545D01*
X107135295Y-123918407D01*
X107149172Y-123884904D01*
X107190000Y-123946007D01*
X107190000Y-123946007D01*
G37*
X107190000Y-123946007D02*
X107190000Y-124060504D01*
X107190001Y-124060514D01*
X107190000Y-134087291D01*
X107126114Y-134165136D01*
X106958971Y-134477838D01*
X106921609Y-134601004D01*
X104975000Y-136547614D01*
X104975000Y-135359685D01*
X104978194Y-135353709D01*
X105075402Y-135033258D01*
X105100000Y-134783510D01*
X105100000Y-133833502D01*
X105108224Y-133750000D01*
X105100000Y-133666498D01*
X105100000Y-133666491D01*
X105075402Y-133416742D01*
X105019743Y-133233258D01*
X104978194Y-133096290D01*
X104820337Y-132800961D01*
X104661132Y-132606969D01*
X104661128Y-132606965D01*
X104607897Y-132542103D01*
X104543035Y-132488872D01*
X103846000Y-131791837D01*
X103846000Y-131234000D01*
X104154000Y-131234000D01*
X104154000Y-131886739D01*
X104285664Y-131921210D01*
X104449667Y-131903941D01*
X104607150Y-131855009D01*
X104752061Y-131776294D01*
X104878831Y-131670820D01*
X104982588Y-131542641D01*
X105051402Y-131358098D01*
X105059942Y-131234000D01*
X104154000Y-131234000D01*
X103846000Y-131234000D01*
X103826000Y-131234000D01*
X103826000Y-130926000D01*
X103846000Y-130926000D01*
X103846000Y-130906000D01*
X104154000Y-130906000D01*
X104154000Y-130926000D01*
X105059942Y-130926000D01*
X105051402Y-130801902D01*
X104982588Y-130617359D01*
X104878831Y-130489180D01*
X104861268Y-130474567D01*
X105056760Y-130415266D01*
X105407681Y-130227695D01*
X105715266Y-129975266D01*
X105967695Y-129667681D01*
X106155266Y-129316760D01*
X106270771Y-128935989D01*
X106309773Y-128540000D01*
X106270771Y-128144011D01*
X106155266Y-127763240D01*
X105967695Y-127412319D01*
X105850897Y-127270000D01*
X105967695Y-127127681D01*
X106155266Y-126776760D01*
X106270771Y-126395989D01*
X106309773Y-126000000D01*
X106270771Y-125604011D01*
X106155266Y-125223240D01*
X105989251Y-124912647D01*
X106248397Y-124805305D01*
X106600535Y-124570014D01*
X106900004Y-124270545D01*
X107135295Y-123918407D01*
X107149172Y-123884904D01*
X107190000Y-123946007D01*
G36*
X40750001Y-162100461D02*
G01*
X40752012Y-162119961D01*
X40757789Y-162138694D01*
X40767110Y-162155940D01*
X40779616Y-162171036D01*
X40787768Y-162178276D01*
X41556748Y-162789639D01*
X41400000Y-162789058D01*
X41280811Y-162800797D01*
X41166203Y-162835563D01*
X41060579Y-162892020D01*
X40967999Y-162967999D01*
X40892020Y-163060579D01*
X40835563Y-163166203D01*
X40800797Y-163280811D01*
X40789058Y-163400000D01*
X40792000Y-164194000D01*
X40944000Y-164346000D01*
X42346000Y-164346000D01*
X42346000Y-164326000D01*
X42654000Y-164326000D01*
X42654000Y-164346000D01*
X42674000Y-164346000D01*
X42674000Y-164654000D01*
X42654000Y-164654000D01*
X42654000Y-166056000D01*
X42806000Y-166208000D01*
X43600000Y-166210942D01*
X43719189Y-166199203D01*
X43833797Y-166164437D01*
X43939421Y-166107980D01*
X44032001Y-166032001D01*
X44107980Y-165939421D01*
X44164437Y-165833797D01*
X44199203Y-165719189D01*
X44210942Y-165600000D01*
X44208340Y-164897737D01*
X47571662Y-167571683D01*
X48804045Y-168804066D01*
X48825217Y-170391953D01*
X48806000Y-170392000D01*
X48654000Y-170544000D01*
X48654000Y-172346000D01*
X48674000Y-172346000D01*
X48674000Y-172654000D01*
X48654000Y-172654000D01*
X48654000Y-174456000D01*
X48806000Y-174608000D01*
X48881434Y-174608186D01*
X48882325Y-174675000D01*
X42752503Y-174675000D01*
X42831301Y-174278859D01*
X42831301Y-174000000D01*
X46389058Y-174000000D01*
X46400797Y-174119189D01*
X46435563Y-174233797D01*
X46492020Y-174339421D01*
X46567999Y-174432001D01*
X46660579Y-174507980D01*
X46766203Y-174564437D01*
X46880811Y-174599203D01*
X47000000Y-174610942D01*
X48194000Y-174608000D01*
X48346000Y-174456000D01*
X48346000Y-172654000D01*
X46544000Y-172654000D01*
X46392000Y-172806000D01*
X46389058Y-174000000D01*
X42831301Y-174000000D01*
X42831301Y-173721141D01*
X42722495Y-173174140D01*
X42509066Y-172658876D01*
X42199215Y-172195151D01*
X41804849Y-171800785D01*
X41341124Y-171490934D01*
X40825860Y-171277505D01*
X40278859Y-171168699D01*
X39721141Y-171168699D01*
X39350000Y-171242524D01*
X39350000Y-171000000D01*
X46389058Y-171000000D01*
X46392000Y-172194000D01*
X46544000Y-172346000D01*
X48346000Y-172346000D01*
X48346000Y-170544000D01*
X48194000Y-170392000D01*
X47000000Y-170389058D01*
X46880811Y-170400797D01*
X46766203Y-170435563D01*
X46660579Y-170492020D01*
X46567999Y-170567999D01*
X46492020Y-170660579D01*
X46435563Y-170766203D01*
X46400797Y-170880811D01*
X46389058Y-171000000D01*
X39350000Y-171000000D01*
X39350000Y-165600000D01*
X40789058Y-165600000D01*
X40800797Y-165719189D01*
X40835563Y-165833797D01*
X40892020Y-165939421D01*
X40967999Y-166032001D01*
X41060579Y-166107980D01*
X41166203Y-166164437D01*
X41280811Y-166199203D01*
X41400000Y-166210942D01*
X42194000Y-166208000D01*
X42346000Y-166056000D01*
X42346000Y-164654000D01*
X40944000Y-164654000D01*
X40792000Y-164806000D01*
X40789058Y-165600000D01*
X39350000Y-165600000D01*
X39350000Y-151401849D01*
X40700476Y-151353618D01*
X40750001Y-162100461D01*
X40750001Y-162100461D01*
G37*
X40750001Y-162100461D02*
X40752012Y-162119961D01*
X40757789Y-162138694D01*
X40767110Y-162155940D01*
X40779616Y-162171036D01*
X40787768Y-162178276D01*
X41556748Y-162789639D01*
X41400000Y-162789058D01*
X41280811Y-162800797D01*
X41166203Y-162835563D01*
X41060579Y-162892020D01*
X40967999Y-162967999D01*
X40892020Y-163060579D01*
X40835563Y-163166203D01*
X40800797Y-163280811D01*
X40789058Y-163400000D01*
X40792000Y-164194000D01*
X40944000Y-164346000D01*
X42346000Y-164346000D01*
X42346000Y-164326000D01*
X42654000Y-164326000D01*
X42654000Y-164346000D01*
X42674000Y-164346000D01*
X42674000Y-164654000D01*
X42654000Y-164654000D01*
X42654000Y-166056000D01*
X42806000Y-166208000D01*
X43600000Y-166210942D01*
X43719189Y-166199203D01*
X43833797Y-166164437D01*
X43939421Y-166107980D01*
X44032001Y-166032001D01*
X44107980Y-165939421D01*
X44164437Y-165833797D01*
X44199203Y-165719189D01*
X44210942Y-165600000D01*
X44208340Y-164897737D01*
X47571662Y-167571683D01*
X48804045Y-168804066D01*
X48825217Y-170391953D01*
X48806000Y-170392000D01*
X48654000Y-170544000D01*
X48654000Y-172346000D01*
X48674000Y-172346000D01*
X48674000Y-172654000D01*
X48654000Y-172654000D01*
X48654000Y-174456000D01*
X48806000Y-174608000D01*
X48881434Y-174608186D01*
X48882325Y-174675000D01*
X42752503Y-174675000D01*
X42831301Y-174278859D01*
X42831301Y-174000000D01*
X46389058Y-174000000D01*
X46400797Y-174119189D01*
X46435563Y-174233797D01*
X46492020Y-174339421D01*
X46567999Y-174432001D01*
X46660579Y-174507980D01*
X46766203Y-174564437D01*
X46880811Y-174599203D01*
X47000000Y-174610942D01*
X48194000Y-174608000D01*
X48346000Y-174456000D01*
X48346000Y-172654000D01*
X46544000Y-172654000D01*
X46392000Y-172806000D01*
X46389058Y-174000000D01*
X42831301Y-174000000D01*
X42831301Y-173721141D01*
X42722495Y-173174140D01*
X42509066Y-172658876D01*
X42199215Y-172195151D01*
X41804849Y-171800785D01*
X41341124Y-171490934D01*
X40825860Y-171277505D01*
X40278859Y-171168699D01*
X39721141Y-171168699D01*
X39350000Y-171242524D01*
X39350000Y-171000000D01*
X46389058Y-171000000D01*
X46392000Y-172194000D01*
X46544000Y-172346000D01*
X48346000Y-172346000D01*
X48346000Y-170544000D01*
X48194000Y-170392000D01*
X47000000Y-170389058D01*
X46880811Y-170400797D01*
X46766203Y-170435563D01*
X46660579Y-170492020D01*
X46567999Y-170567999D01*
X46492020Y-170660579D01*
X46435563Y-170766203D01*
X46400797Y-170880811D01*
X46389058Y-171000000D01*
X39350000Y-171000000D01*
X39350000Y-165600000D01*
X40789058Y-165600000D01*
X40800797Y-165719189D01*
X40835563Y-165833797D01*
X40892020Y-165939421D01*
X40967999Y-166032001D01*
X41060579Y-166107980D01*
X41166203Y-166164437D01*
X41280811Y-166199203D01*
X41400000Y-166210942D01*
X42194000Y-166208000D01*
X42346000Y-166056000D01*
X42346000Y-164654000D01*
X40944000Y-164654000D01*
X40792000Y-164806000D01*
X40789058Y-165600000D01*
X39350000Y-165600000D01*
X39350000Y-151401849D01*
X40700476Y-151353618D01*
X40750001Y-162100461D01*
G36*
X114694000Y-146846000D02*
G01*
X114714000Y-146846000D01*
X114714000Y-147154000D01*
X114694000Y-147154000D01*
X114694000Y-148563394D01*
X114854979Y-148551764D01*
X114996692Y-148508178D01*
X115029011Y-148488720D01*
X115195394Y-148800000D01*
X114219992Y-148800000D01*
X114233690Y-148754845D01*
X114253489Y-148553821D01*
X114386000Y-148563394D01*
X114386000Y-147154000D01*
X114366000Y-147154000D01*
X114366000Y-146846000D01*
X114386000Y-146846000D01*
X114386000Y-146826000D01*
X114694000Y-146826000D01*
X114694000Y-146846000D01*
X114694000Y-146846000D01*
G37*
X114694000Y-146846000D02*
X114714000Y-146846000D01*
X114714000Y-147154000D01*
X114694000Y-147154000D01*
X114694000Y-148563394D01*
X114854979Y-148551764D01*
X114996692Y-148508178D01*
X115029011Y-148488720D01*
X115195394Y-148800000D01*
X114219992Y-148800000D01*
X114233690Y-148754845D01*
X114253489Y-148553821D01*
X114386000Y-148563394D01*
X114386000Y-147154000D01*
X114366000Y-147154000D01*
X114366000Y-146846000D01*
X114386000Y-146846000D01*
X114386000Y-146826000D01*
X114694000Y-146826000D01*
X114694000Y-146846000D01*
G36*
X131511280Y-118970989D02*
G01*
X131491822Y-119003308D01*
X131448236Y-119145021D01*
X131436606Y-119306000D01*
X132846000Y-119306000D01*
X132846000Y-119286000D01*
X133154000Y-119286000D01*
X133154000Y-119306000D01*
X134563394Y-119306000D01*
X134551764Y-119145021D01*
X134508178Y-119003308D01*
X134488720Y-118970989D01*
X134621532Y-118900000D01*
X134798658Y-118900000D01*
X134786977Y-119776057D01*
X134754845Y-119766310D01*
X134553821Y-119746511D01*
X134563394Y-119614000D01*
X133154000Y-119614000D01*
X133154000Y-119634000D01*
X132846000Y-119634000D01*
X132846000Y-119614000D01*
X131436606Y-119614000D01*
X131446179Y-119746511D01*
X131245155Y-119766310D01*
X131000104Y-119840645D01*
X130774264Y-119961360D01*
X130576313Y-120123813D01*
X130413860Y-120321764D01*
X130293145Y-120547604D01*
X130218810Y-120792655D01*
X130193710Y-121047500D01*
X130193710Y-122952500D01*
X130218810Y-123207345D01*
X130293145Y-123452396D01*
X130413860Y-123678236D01*
X130576313Y-123876187D01*
X130774264Y-124038640D01*
X131000104Y-124159355D01*
X131200001Y-124219993D01*
X131200000Y-133551584D01*
X131191292Y-133640000D01*
X131200000Y-133728416D01*
X131200000Y-133728423D01*
X131226045Y-133992861D01*
X131328971Y-134332162D01*
X131496113Y-134644864D01*
X131721050Y-134918950D01*
X131789738Y-134975321D01*
X137394683Y-140580267D01*
X137451050Y-140648950D01*
X137725135Y-140873887D01*
X138037837Y-141041029D01*
X138377138Y-141143955D01*
X138641576Y-141170000D01*
X138641584Y-141170000D01*
X138730000Y-141178708D01*
X138818416Y-141170000D01*
X150003696Y-141170000D01*
X150018091Y-142446325D01*
X146970589Y-145493828D01*
X146662163Y-145328971D01*
X146322862Y-145226045D01*
X146058424Y-145200000D01*
X146058416Y-145200000D01*
X145970000Y-145191292D01*
X145881584Y-145200000D01*
X140964607Y-145200000D01*
X140961947Y-145195023D01*
X140680464Y-144852036D01*
X140337477Y-144570553D01*
X139946164Y-144361393D01*
X139521566Y-144232593D01*
X139080000Y-144189102D01*
X138638433Y-144232593D01*
X138213835Y-144361393D01*
X137822523Y-144570553D01*
X137479536Y-144852036D01*
X137198053Y-145195023D01*
X137029011Y-145511280D01*
X136996692Y-145491822D01*
X136854979Y-145448236D01*
X136694000Y-145436606D01*
X136694000Y-146846000D01*
X136714000Y-146846000D01*
X136714000Y-147154000D01*
X136694000Y-147154000D01*
X136694000Y-148563394D01*
X136727367Y-148560983D01*
X136579663Y-148740961D01*
X136548106Y-148800000D01*
X136219992Y-148800000D01*
X136233690Y-148754845D01*
X136253489Y-148553821D01*
X136386000Y-148563394D01*
X136386000Y-147154000D01*
X136366000Y-147154000D01*
X136366000Y-146846000D01*
X136386000Y-146846000D01*
X136386000Y-145436606D01*
X136253489Y-145446179D01*
X136233690Y-145245155D01*
X136159355Y-145000104D01*
X136038640Y-144774264D01*
X135876187Y-144576313D01*
X135678236Y-144413860D01*
X135452396Y-144293145D01*
X135207345Y-144218810D01*
X134952500Y-144193710D01*
X133047500Y-144193710D01*
X132792655Y-144218810D01*
X132547604Y-144293145D01*
X132321764Y-144413860D01*
X132123813Y-144576313D01*
X131961360Y-144774264D01*
X131840645Y-145000104D01*
X131766310Y-145245155D01*
X131741210Y-145500000D01*
X131741210Y-145823206D01*
X130332500Y-147231916D01*
X130332500Y-146341852D01*
X130299907Y-146010933D01*
X130171107Y-145586335D01*
X129961947Y-145195023D01*
X129680464Y-144852036D01*
X129337477Y-144570553D01*
X128946164Y-144361393D01*
X128521566Y-144232593D01*
X128080000Y-144189102D01*
X127638433Y-144232593D01*
X127213835Y-144361393D01*
X126822523Y-144570553D01*
X126479536Y-144852036D01*
X126198053Y-145195023D01*
X126029011Y-145511280D01*
X125996692Y-145491822D01*
X125854979Y-145448236D01*
X125694000Y-145436606D01*
X125694000Y-146846000D01*
X125714000Y-146846000D01*
X125714000Y-147154000D01*
X125694000Y-147154000D01*
X125694000Y-148563394D01*
X125854979Y-148551764D01*
X125947005Y-148523460D01*
X125912102Y-148552104D01*
X125858872Y-148616965D01*
X125858867Y-148616970D01*
X125708658Y-148800000D01*
X125219992Y-148800000D01*
X125233690Y-148754845D01*
X125253489Y-148553821D01*
X125386000Y-148563394D01*
X125386000Y-147154000D01*
X125366000Y-147154000D01*
X125366000Y-146846000D01*
X125386000Y-146846000D01*
X125386000Y-145436606D01*
X125253489Y-145446179D01*
X125233690Y-145245155D01*
X125159355Y-145000104D01*
X125038640Y-144774264D01*
X124876187Y-144576313D01*
X124678236Y-144413860D01*
X124452396Y-144293145D01*
X124207345Y-144218810D01*
X123952500Y-144193710D01*
X122047500Y-144193710D01*
X121792655Y-144218810D01*
X121547604Y-144293145D01*
X121321764Y-144413860D01*
X121123813Y-144576313D01*
X120961360Y-144774264D01*
X120840645Y-145000104D01*
X120766310Y-145245155D01*
X120741210Y-145500000D01*
X120741210Y-146854627D01*
X120606965Y-146988872D01*
X120542103Y-147042103D01*
X120488873Y-147106964D01*
X120488868Y-147106969D01*
X120329663Y-147300961D01*
X120312400Y-147333258D01*
X120171806Y-147596292D01*
X120074598Y-147916743D01*
X120050000Y-148166491D01*
X120050000Y-148166500D01*
X120041776Y-148250000D01*
X120050000Y-148333500D01*
X120050000Y-148545837D01*
X119795837Y-148800000D01*
X118964607Y-148800000D01*
X119171107Y-148413664D01*
X119299907Y-147989066D01*
X119332500Y-147658147D01*
X119332500Y-146341852D01*
X119299907Y-146010933D01*
X119171107Y-145586335D01*
X118961947Y-145195023D01*
X118680464Y-144852036D01*
X118337477Y-144570553D01*
X118138202Y-144464039D01*
X117061128Y-143386965D01*
X117007897Y-143322103D01*
X116943035Y-143268872D01*
X116943031Y-143268868D01*
X116749039Y-143109663D01*
X116453709Y-142951806D01*
X116133258Y-142854598D01*
X115883510Y-142830000D01*
X115883500Y-142830000D01*
X115800000Y-142821776D01*
X115716500Y-142830000D01*
X110578499Y-142830000D01*
X110494999Y-142821776D01*
X110411499Y-142830000D01*
X110411490Y-142830000D01*
X110161742Y-142854598D01*
X109841291Y-142951806D01*
X109703817Y-143025287D01*
X109545960Y-143109663D01*
X109351968Y-143268869D01*
X109351965Y-143268872D01*
X109300000Y-143311519D01*
X109300000Y-140241422D01*
X113641422Y-135900000D01*
X121900000Y-135900000D01*
X121919509Y-135898079D01*
X121938268Y-135892388D01*
X121955557Y-135883147D01*
X121970711Y-135870711D01*
X121983147Y-135855557D01*
X121992388Y-135838268D01*
X121998079Y-135819509D01*
X122000000Y-135800000D01*
X122000000Y-130340000D01*
X122475243Y-130340000D01*
X122534131Y-130937904D01*
X122708534Y-131512832D01*
X122991748Y-132042688D01*
X123372890Y-132507110D01*
X123837312Y-132888252D01*
X124367168Y-133171466D01*
X124942096Y-133345869D01*
X125390169Y-133390000D01*
X125689831Y-133390000D01*
X126137904Y-133345869D01*
X126712832Y-133171466D01*
X127242688Y-132888252D01*
X127707110Y-132507110D01*
X128088252Y-132042688D01*
X128371466Y-131512832D01*
X128545869Y-130937904D01*
X128604757Y-130340000D01*
X128545869Y-129742096D01*
X128371466Y-129167168D01*
X128088252Y-128637312D01*
X127707110Y-128172890D01*
X127242688Y-127791748D01*
X126712832Y-127508534D01*
X126137904Y-127334131D01*
X125689831Y-127290000D01*
X125390169Y-127290000D01*
X124942096Y-127334131D01*
X124367168Y-127508534D01*
X123837312Y-127791748D01*
X123372890Y-128172890D01*
X122991748Y-128637312D01*
X122708534Y-129167168D01*
X122534131Y-129742096D01*
X122475243Y-130340000D01*
X122000000Y-130340000D01*
X122000000Y-126843381D01*
X130489488Y-118900000D01*
X131378468Y-118900000D01*
X131511280Y-118970989D01*
X131511280Y-118970989D01*
G37*
X131511280Y-118970989D02*
X131491822Y-119003308D01*
X131448236Y-119145021D01*
X131436606Y-119306000D01*
X132846000Y-119306000D01*
X132846000Y-119286000D01*
X133154000Y-119286000D01*
X133154000Y-119306000D01*
X134563394Y-119306000D01*
X134551764Y-119145021D01*
X134508178Y-119003308D01*
X134488720Y-118970989D01*
X134621532Y-118900000D01*
X134798658Y-118900000D01*
X134786977Y-119776057D01*
X134754845Y-119766310D01*
X134553821Y-119746511D01*
X134563394Y-119614000D01*
X133154000Y-119614000D01*
X133154000Y-119634000D01*
X132846000Y-119634000D01*
X132846000Y-119614000D01*
X131436606Y-119614000D01*
X131446179Y-119746511D01*
X131245155Y-119766310D01*
X131000104Y-119840645D01*
X130774264Y-119961360D01*
X130576313Y-120123813D01*
X130413860Y-120321764D01*
X130293145Y-120547604D01*
X130218810Y-120792655D01*
X130193710Y-121047500D01*
X130193710Y-122952500D01*
X130218810Y-123207345D01*
X130293145Y-123452396D01*
X130413860Y-123678236D01*
X130576313Y-123876187D01*
X130774264Y-124038640D01*
X131000104Y-124159355D01*
X131200001Y-124219993D01*
X131200000Y-133551584D01*
X131191292Y-133640000D01*
X131200000Y-133728416D01*
X131200000Y-133728423D01*
X131226045Y-133992861D01*
X131328971Y-134332162D01*
X131496113Y-134644864D01*
X131721050Y-134918950D01*
X131789738Y-134975321D01*
X137394683Y-140580267D01*
X137451050Y-140648950D01*
X137725135Y-140873887D01*
X138037837Y-141041029D01*
X138377138Y-141143955D01*
X138641576Y-141170000D01*
X138641584Y-141170000D01*
X138730000Y-141178708D01*
X138818416Y-141170000D01*
X150003696Y-141170000D01*
X150018091Y-142446325D01*
X146970589Y-145493828D01*
X146662163Y-145328971D01*
X146322862Y-145226045D01*
X146058424Y-145200000D01*
X146058416Y-145200000D01*
X145970000Y-145191292D01*
X145881584Y-145200000D01*
X140964607Y-145200000D01*
X140961947Y-145195023D01*
X140680464Y-144852036D01*
X140337477Y-144570553D01*
X139946164Y-144361393D01*
X139521566Y-144232593D01*
X139080000Y-144189102D01*
X138638433Y-144232593D01*
X138213835Y-144361393D01*
X137822523Y-144570553D01*
X137479536Y-144852036D01*
X137198053Y-145195023D01*
X137029011Y-145511280D01*
X136996692Y-145491822D01*
X136854979Y-145448236D01*
X136694000Y-145436606D01*
X136694000Y-146846000D01*
X136714000Y-146846000D01*
X136714000Y-147154000D01*
X136694000Y-147154000D01*
X136694000Y-148563394D01*
X136727367Y-148560983D01*
X136579663Y-148740961D01*
X136548106Y-148800000D01*
X136219992Y-148800000D01*
X136233690Y-148754845D01*
X136253489Y-148553821D01*
X136386000Y-148563394D01*
X136386000Y-147154000D01*
X136366000Y-147154000D01*
X136366000Y-146846000D01*
X136386000Y-146846000D01*
X136386000Y-145436606D01*
X136253489Y-145446179D01*
X136233690Y-145245155D01*
X136159355Y-145000104D01*
X136038640Y-144774264D01*
X135876187Y-144576313D01*
X135678236Y-144413860D01*
X135452396Y-144293145D01*
X135207345Y-144218810D01*
X134952500Y-144193710D01*
X133047500Y-144193710D01*
X132792655Y-144218810D01*
X132547604Y-144293145D01*
X132321764Y-144413860D01*
X132123813Y-144576313D01*
X131961360Y-144774264D01*
X131840645Y-145000104D01*
X131766310Y-145245155D01*
X131741210Y-145500000D01*
X131741210Y-145823206D01*
X130332500Y-147231916D01*
X130332500Y-146341852D01*
X130299907Y-146010933D01*
X130171107Y-145586335D01*
X129961947Y-145195023D01*
X129680464Y-144852036D01*
X129337477Y-144570553D01*
X128946164Y-144361393D01*
X128521566Y-144232593D01*
X128080000Y-144189102D01*
X127638433Y-144232593D01*
X127213835Y-144361393D01*
X126822523Y-144570553D01*
X126479536Y-144852036D01*
X126198053Y-145195023D01*
X126029011Y-145511280D01*
X125996692Y-145491822D01*
X125854979Y-145448236D01*
X125694000Y-145436606D01*
X125694000Y-146846000D01*
X125714000Y-146846000D01*
X125714000Y-147154000D01*
X125694000Y-147154000D01*
X125694000Y-148563394D01*
X125854979Y-148551764D01*
X125947005Y-148523460D01*
X125912102Y-148552104D01*
X125858872Y-148616965D01*
X125858867Y-148616970D01*
X125708658Y-148800000D01*
X125219992Y-148800000D01*
X125233690Y-148754845D01*
X125253489Y-148553821D01*
X125386000Y-148563394D01*
X125386000Y-147154000D01*
X125366000Y-147154000D01*
X125366000Y-146846000D01*
X125386000Y-146846000D01*
X125386000Y-145436606D01*
X125253489Y-145446179D01*
X125233690Y-145245155D01*
X125159355Y-145000104D01*
X125038640Y-144774264D01*
X124876187Y-144576313D01*
X124678236Y-144413860D01*
X124452396Y-144293145D01*
X124207345Y-144218810D01*
X123952500Y-144193710D01*
X122047500Y-144193710D01*
X121792655Y-144218810D01*
X121547604Y-144293145D01*
X121321764Y-144413860D01*
X121123813Y-144576313D01*
X120961360Y-144774264D01*
X120840645Y-145000104D01*
X120766310Y-145245155D01*
X120741210Y-145500000D01*
X120741210Y-146854627D01*
X120606965Y-146988872D01*
X120542103Y-147042103D01*
X120488873Y-147106964D01*
X120488868Y-147106969D01*
X120329663Y-147300961D01*
X120312400Y-147333258D01*
X120171806Y-147596292D01*
X120074598Y-147916743D01*
X120050000Y-148166491D01*
X120050000Y-148166500D01*
X120041776Y-148250000D01*
X120050000Y-148333500D01*
X120050000Y-148545837D01*
X119795837Y-148800000D01*
X118964607Y-148800000D01*
X119171107Y-148413664D01*
X119299907Y-147989066D01*
X119332500Y-147658147D01*
X119332500Y-146341852D01*
X119299907Y-146010933D01*
X119171107Y-145586335D01*
X118961947Y-145195023D01*
X118680464Y-144852036D01*
X118337477Y-144570553D01*
X118138202Y-144464039D01*
X117061128Y-143386965D01*
X117007897Y-143322103D01*
X116943035Y-143268872D01*
X116943031Y-143268868D01*
X116749039Y-143109663D01*
X116453709Y-142951806D01*
X116133258Y-142854598D01*
X115883510Y-142830000D01*
X115883500Y-142830000D01*
X115800000Y-142821776D01*
X115716500Y-142830000D01*
X110578499Y-142830000D01*
X110494999Y-142821776D01*
X110411499Y-142830000D01*
X110411490Y-142830000D01*
X110161742Y-142854598D01*
X109841291Y-142951806D01*
X109703817Y-143025287D01*
X109545960Y-143109663D01*
X109351968Y-143268869D01*
X109351965Y-143268872D01*
X109300000Y-143311519D01*
X109300000Y-140241422D01*
X113641422Y-135900000D01*
X121900000Y-135900000D01*
X121919509Y-135898079D01*
X121938268Y-135892388D01*
X121955557Y-135883147D01*
X121970711Y-135870711D01*
X121983147Y-135855557D01*
X121992388Y-135838268D01*
X121998079Y-135819509D01*
X122000000Y-135800000D01*
X122000000Y-130340000D01*
X122475243Y-130340000D01*
X122534131Y-130937904D01*
X122708534Y-131512832D01*
X122991748Y-132042688D01*
X123372890Y-132507110D01*
X123837312Y-132888252D01*
X124367168Y-133171466D01*
X124942096Y-133345869D01*
X125390169Y-133390000D01*
X125689831Y-133390000D01*
X126137904Y-133345869D01*
X126712832Y-133171466D01*
X127242688Y-132888252D01*
X127707110Y-132507110D01*
X128088252Y-132042688D01*
X128371466Y-131512832D01*
X128545869Y-130937904D01*
X128604757Y-130340000D01*
X128545869Y-129742096D01*
X128371466Y-129167168D01*
X128088252Y-128637312D01*
X127707110Y-128172890D01*
X127242688Y-127791748D01*
X126712832Y-127508534D01*
X126137904Y-127334131D01*
X125689831Y-127290000D01*
X125390169Y-127290000D01*
X124942096Y-127334131D01*
X124367168Y-127508534D01*
X123837312Y-127791748D01*
X123372890Y-128172890D01*
X122991748Y-128637312D01*
X122708534Y-129167168D01*
X122534131Y-129742096D01*
X122475243Y-130340000D01*
X122000000Y-130340000D01*
X122000000Y-126843381D01*
X130489488Y-118900000D01*
X131378468Y-118900000D01*
X131511280Y-118970989D01*
G36*
X73154000Y-117682528D02*
G01*
X73154000Y-118756000D01*
X73306000Y-118908000D01*
X73850000Y-118910942D01*
X73969189Y-118899203D01*
X74083797Y-118864437D01*
X74189421Y-118807980D01*
X74282001Y-118732001D01*
X74357980Y-118639421D01*
X74414437Y-118533797D01*
X74449203Y-118419189D01*
X74450182Y-118409249D01*
X74585465Y-118662345D01*
X74712989Y-118817732D01*
X74779851Y-118899203D01*
X74847892Y-118982111D01*
X74928023Y-119047873D01*
X77292127Y-121411978D01*
X77357889Y-121492109D01*
X77438020Y-121557871D01*
X77438023Y-121557874D01*
X77519882Y-121625053D01*
X77677655Y-121754535D01*
X78042474Y-121949535D01*
X78346193Y-122041667D01*
X78438325Y-122069615D01*
X78477599Y-122073483D01*
X78677532Y-122093175D01*
X79900000Y-123145855D01*
X79900000Y-134358578D01*
X79839213Y-134419365D01*
X72560000Y-127140152D01*
X72560000Y-118908725D01*
X72694000Y-118908000D01*
X72846000Y-118756000D01*
X72846000Y-118024401D01*
X72874550Y-117930284D01*
X72902054Y-117651035D01*
X73154000Y-117682528D01*
X73154000Y-117682528D01*
G37*
X73154000Y-117682528D02*
X73154000Y-118756000D01*
X73306000Y-118908000D01*
X73850000Y-118910942D01*
X73969189Y-118899203D01*
X74083797Y-118864437D01*
X74189421Y-118807980D01*
X74282001Y-118732001D01*
X74357980Y-118639421D01*
X74414437Y-118533797D01*
X74449203Y-118419189D01*
X74450182Y-118409249D01*
X74585465Y-118662345D01*
X74712989Y-118817732D01*
X74779851Y-118899203D01*
X74847892Y-118982111D01*
X74928023Y-119047873D01*
X77292127Y-121411978D01*
X77357889Y-121492109D01*
X77438020Y-121557871D01*
X77438023Y-121557874D01*
X77519882Y-121625053D01*
X77677655Y-121754535D01*
X78042474Y-121949535D01*
X78346193Y-122041667D01*
X78438325Y-122069615D01*
X78477599Y-122073483D01*
X78677532Y-122093175D01*
X79900000Y-123145855D01*
X79900000Y-134358578D01*
X79839213Y-134419365D01*
X72560000Y-127140152D01*
X72560000Y-118908725D01*
X72694000Y-118908000D01*
X72846000Y-118756000D01*
X72846000Y-118024401D01*
X72874550Y-117930284D01*
X72902054Y-117651035D01*
X73154000Y-117682528D01*
M02*
