G04 #@! TF.GenerationSoftware,KiCad,Pcbnew,(5.1.4)-1*
G04 #@! TF.CreationDate,2020-07-31T19:04:34-03:00*
G04 #@! TF.ProjectId,INYECTORES,494e5945-4354-44f5-9245-532e6b696361,rev?*
G04 #@! TF.SameCoordinates,Original*
G04 #@! TF.FileFunction,Soldermask,Bot*
G04 #@! TF.FilePolarity,Negative*
%FSLAX46Y46*%
G04 Gerber Fmt 4.6, Leading zero omitted, Abs format (unit mm)*
G04 Created by KiCad (PCBNEW (5.1.4)-1) date 2020-07-31 19:04:34*
%MOMM*%
%LPD*%
G04 APERTURE LIST*
%ADD10C,0.100000*%
G04 APERTURE END LIST*
D10*
G36*
X50051000Y-174051000D02*
G01*
X46949000Y-174051000D01*
X46949000Y-170949000D01*
X50051000Y-170949000D01*
X50051000Y-174051000D01*
X50051000Y-174051000D01*
G37*
G36*
X148651000Y-173651000D02*
G01*
X145349000Y-173651000D01*
X145349000Y-170349000D01*
X148651000Y-170349000D01*
X148651000Y-173651000D01*
X148651000Y-173651000D01*
G37*
G36*
X122083651Y-170372888D02*
G01*
X122394870Y-170467296D01*
X122681680Y-170620599D01*
X122681683Y-170620601D01*
X122681684Y-170620602D01*
X122933082Y-170826918D01*
X123139398Y-171078316D01*
X123139401Y-171078320D01*
X123292704Y-171365130D01*
X123292705Y-171365133D01*
X123304125Y-171402779D01*
X123387112Y-171676349D01*
X123418988Y-172000000D01*
X123387112Y-172323651D01*
X123292704Y-172634870D01*
X123139401Y-172921680D01*
X123139399Y-172921683D01*
X123139398Y-172921684D01*
X122933082Y-173173082D01*
X122681684Y-173379398D01*
X122681680Y-173379401D01*
X122394870Y-173532704D01*
X122083651Y-173627112D01*
X121841107Y-173651000D01*
X121678893Y-173651000D01*
X121436349Y-173627112D01*
X121125130Y-173532704D01*
X120838320Y-173379401D01*
X120838316Y-173379398D01*
X120586918Y-173173082D01*
X120380602Y-172921684D01*
X120380601Y-172921683D01*
X120380599Y-172921680D01*
X120227296Y-172634870D01*
X120132888Y-172323651D01*
X120101012Y-172000000D01*
X120132888Y-171676349D01*
X120215875Y-171402779D01*
X120227295Y-171365133D01*
X120227296Y-171365130D01*
X120380599Y-171078320D01*
X120380602Y-171078316D01*
X120586918Y-170826918D01*
X120838316Y-170620602D01*
X120838317Y-170620601D01*
X120838320Y-170620599D01*
X121125130Y-170467296D01*
X121436349Y-170372888D01*
X121678893Y-170349000D01*
X121841107Y-170349000D01*
X122083651Y-170372888D01*
X122083651Y-170372888D01*
G37*
G36*
X138651000Y-173651000D02*
G01*
X135349000Y-173651000D01*
X135349000Y-170349000D01*
X138651000Y-170349000D01*
X138651000Y-173651000D01*
X138651000Y-173651000D01*
G37*
G36*
X54551000Y-173551000D02*
G01*
X52449000Y-173551000D01*
X52449000Y-171449000D01*
X54551000Y-171449000D01*
X54551000Y-173551000D01*
X54551000Y-173551000D01*
G37*
G36*
X59669271Y-170520103D02*
G01*
X59725635Y-170525654D01*
X59942600Y-170591470D01*
X59942602Y-170591471D01*
X60142555Y-170698347D01*
X60317818Y-170842182D01*
X60461653Y-171017445D01*
X60534103Y-171152991D01*
X60568530Y-171217400D01*
X60634346Y-171434365D01*
X60656569Y-171660000D01*
X60634346Y-171885635D01*
X60599654Y-172000000D01*
X60568529Y-172102602D01*
X60461653Y-172302555D01*
X60317818Y-172477818D01*
X60142555Y-172621653D01*
X59942602Y-172728529D01*
X59942600Y-172728530D01*
X59725635Y-172794346D01*
X59669271Y-172799897D01*
X59556545Y-172811000D01*
X59443455Y-172811000D01*
X59330729Y-172799897D01*
X59274365Y-172794346D01*
X59057400Y-172728530D01*
X59057398Y-172728529D01*
X58857445Y-172621653D01*
X58682182Y-172477818D01*
X58538347Y-172302555D01*
X58431471Y-172102602D01*
X58400347Y-172000000D01*
X58365654Y-171885635D01*
X58343431Y-171660000D01*
X58365654Y-171434365D01*
X58431470Y-171217400D01*
X58465897Y-171152991D01*
X58538347Y-171017445D01*
X58682182Y-170842182D01*
X58857445Y-170698347D01*
X59057398Y-170591471D01*
X59057400Y-170591470D01*
X59274365Y-170525654D01*
X59330729Y-170520103D01*
X59443455Y-170509000D01*
X59556545Y-170509000D01*
X59669271Y-170520103D01*
X59669271Y-170520103D01*
G37*
G36*
X98796626Y-169462037D02*
G01*
X98966465Y-169513557D01*
X98966467Y-169513558D01*
X99122989Y-169597221D01*
X99260186Y-169709814D01*
X99343448Y-169811271D01*
X99372778Y-169847009D01*
X99456443Y-170003534D01*
X99507963Y-170173373D01*
X99521000Y-170305742D01*
X99521000Y-171694258D01*
X99507963Y-171826627D01*
X99456443Y-171996466D01*
X99372778Y-172152991D01*
X99343448Y-172188729D01*
X99260186Y-172290186D01*
X99158729Y-172373448D01*
X99122991Y-172402778D01*
X98966466Y-172486443D01*
X98796627Y-172537963D01*
X98620000Y-172555359D01*
X98443374Y-172537963D01*
X98273535Y-172486443D01*
X98117010Y-172402778D01*
X98081272Y-172373448D01*
X97979815Y-172290186D01*
X97896553Y-172188729D01*
X97867223Y-172152991D01*
X97783558Y-171996466D01*
X97732038Y-171826627D01*
X97719001Y-171694258D01*
X97719000Y-170305743D01*
X97732037Y-170173374D01*
X97783557Y-170003535D01*
X97867222Y-169847010D01*
X97867223Y-169847009D01*
X97979814Y-169709814D01*
X98081271Y-169626552D01*
X98117009Y-169597222D01*
X98273534Y-169513557D01*
X98443373Y-169462037D01*
X98620000Y-169444641D01*
X98796626Y-169462037D01*
X98796626Y-169462037D01*
G37*
G36*
X96256626Y-169462037D02*
G01*
X96426465Y-169513557D01*
X96426467Y-169513558D01*
X96582989Y-169597221D01*
X96720186Y-169709814D01*
X96803448Y-169811271D01*
X96832778Y-169847009D01*
X96916443Y-170003534D01*
X96967963Y-170173373D01*
X96981000Y-170305742D01*
X96981000Y-171694258D01*
X96967963Y-171826627D01*
X96916443Y-171996466D01*
X96832778Y-172152991D01*
X96803448Y-172188729D01*
X96720186Y-172290186D01*
X96618729Y-172373448D01*
X96582991Y-172402778D01*
X96426466Y-172486443D01*
X96256627Y-172537963D01*
X96080000Y-172555359D01*
X95903374Y-172537963D01*
X95733535Y-172486443D01*
X95577010Y-172402778D01*
X95541272Y-172373448D01*
X95439815Y-172290186D01*
X95356553Y-172188729D01*
X95327223Y-172152991D01*
X95243558Y-171996466D01*
X95192038Y-171826627D01*
X95179001Y-171694258D01*
X95179000Y-170305743D01*
X95192037Y-170173374D01*
X95243557Y-170003535D01*
X95327222Y-169847010D01*
X95327223Y-169847009D01*
X95439814Y-169709814D01*
X95541271Y-169626552D01*
X95577009Y-169597222D01*
X95733534Y-169513557D01*
X95903373Y-169462037D01*
X96080000Y-169444641D01*
X96256626Y-169462037D01*
X96256626Y-169462037D01*
G37*
G36*
X91176626Y-169462037D02*
G01*
X91346465Y-169513557D01*
X91346467Y-169513558D01*
X91502989Y-169597221D01*
X91640186Y-169709814D01*
X91723448Y-169811271D01*
X91752778Y-169847009D01*
X91836443Y-170003534D01*
X91887963Y-170173373D01*
X91901000Y-170305742D01*
X91901000Y-171694258D01*
X91887963Y-171826627D01*
X91836443Y-171996466D01*
X91752778Y-172152991D01*
X91723448Y-172188729D01*
X91640186Y-172290186D01*
X91538729Y-172373448D01*
X91502991Y-172402778D01*
X91346466Y-172486443D01*
X91176627Y-172537963D01*
X91000000Y-172555359D01*
X90823374Y-172537963D01*
X90653535Y-172486443D01*
X90497010Y-172402778D01*
X90461272Y-172373448D01*
X90359815Y-172290186D01*
X90276553Y-172188729D01*
X90247223Y-172152991D01*
X90163558Y-171996466D01*
X90112038Y-171826627D01*
X90099001Y-171694258D01*
X90099000Y-170305743D01*
X90112037Y-170173374D01*
X90163557Y-170003535D01*
X90247222Y-169847010D01*
X90247223Y-169847009D01*
X90359814Y-169709814D01*
X90461271Y-169626552D01*
X90497009Y-169597222D01*
X90653534Y-169513557D01*
X90823373Y-169462037D01*
X91000000Y-169444641D01*
X91176626Y-169462037D01*
X91176626Y-169462037D01*
G37*
G36*
X93716626Y-169462037D02*
G01*
X93886465Y-169513557D01*
X93886467Y-169513558D01*
X94042989Y-169597221D01*
X94180186Y-169709814D01*
X94263448Y-169811271D01*
X94292778Y-169847009D01*
X94376443Y-170003534D01*
X94427963Y-170173373D01*
X94441000Y-170305742D01*
X94441000Y-171694258D01*
X94427963Y-171826627D01*
X94376443Y-171996466D01*
X94292778Y-172152991D01*
X94263448Y-172188729D01*
X94180186Y-172290186D01*
X94078729Y-172373448D01*
X94042991Y-172402778D01*
X93886466Y-172486443D01*
X93716627Y-172537963D01*
X93540000Y-172555359D01*
X93363374Y-172537963D01*
X93193535Y-172486443D01*
X93037010Y-172402778D01*
X93001272Y-172373448D01*
X92899815Y-172290186D01*
X92816553Y-172188729D01*
X92787223Y-172152991D01*
X92703558Y-171996466D01*
X92652038Y-171826627D01*
X92639001Y-171694258D01*
X92639000Y-170305743D01*
X92652037Y-170173374D01*
X92703557Y-170003535D01*
X92787222Y-169847010D01*
X92787223Y-169847009D01*
X92899814Y-169709814D01*
X93001271Y-169626552D01*
X93037009Y-169597222D01*
X93193534Y-169513557D01*
X93363373Y-169462037D01*
X93540000Y-169444641D01*
X93716626Y-169462037D01*
X93716626Y-169462037D01*
G37*
G36*
X89361000Y-172551000D02*
G01*
X87559000Y-172551000D01*
X87559000Y-169449000D01*
X89361000Y-169449000D01*
X89361000Y-172551000D01*
X89361000Y-172551000D01*
G37*
G36*
X71016627Y-168462037D02*
G01*
X71186466Y-168513557D01*
X71342991Y-168597222D01*
X71378729Y-168626552D01*
X71480186Y-168709814D01*
X71555019Y-168801000D01*
X71592778Y-168847009D01*
X71676443Y-169003534D01*
X71727963Y-169173373D01*
X71741000Y-169305742D01*
X71741000Y-170694258D01*
X71727963Y-170826627D01*
X71676443Y-170996466D01*
X71592778Y-171152991D01*
X71563448Y-171188729D01*
X71480186Y-171290186D01*
X71342989Y-171402779D01*
X71186467Y-171486442D01*
X71186465Y-171486443D01*
X71016626Y-171537963D01*
X70840000Y-171555359D01*
X70663373Y-171537963D01*
X70493534Y-171486443D01*
X70337009Y-171402778D01*
X70291135Y-171365130D01*
X70199814Y-171290186D01*
X70087221Y-171152989D01*
X70003558Y-170996467D01*
X69952126Y-170826918D01*
X69952037Y-170826626D01*
X69939000Y-170694257D01*
X69939001Y-169305742D01*
X69952038Y-169173373D01*
X70003558Y-169003534D01*
X70087223Y-168847009D01*
X70124982Y-168801000D01*
X70199815Y-168709814D01*
X70301272Y-168626552D01*
X70337010Y-168597222D01*
X70493535Y-168513557D01*
X70663374Y-168462037D01*
X70840000Y-168444641D01*
X71016627Y-168462037D01*
X71016627Y-168462037D01*
G37*
G36*
X73556627Y-168462037D02*
G01*
X73726466Y-168513557D01*
X73882991Y-168597222D01*
X73918729Y-168626552D01*
X74020186Y-168709814D01*
X74095019Y-168801000D01*
X74132778Y-168847009D01*
X74216443Y-169003534D01*
X74267963Y-169173373D01*
X74281000Y-169305742D01*
X74281000Y-170694258D01*
X74267963Y-170826627D01*
X74216443Y-170996466D01*
X74132778Y-171152991D01*
X74103448Y-171188729D01*
X74020186Y-171290186D01*
X73882989Y-171402779D01*
X73726467Y-171486442D01*
X73726465Y-171486443D01*
X73556626Y-171537963D01*
X73380000Y-171555359D01*
X73203373Y-171537963D01*
X73033534Y-171486443D01*
X72877009Y-171402778D01*
X72831135Y-171365130D01*
X72739814Y-171290186D01*
X72627221Y-171152989D01*
X72543558Y-170996467D01*
X72492126Y-170826918D01*
X72492037Y-170826626D01*
X72479000Y-170694257D01*
X72479001Y-169305742D01*
X72492038Y-169173373D01*
X72543558Y-169003534D01*
X72627223Y-168847009D01*
X72664982Y-168801000D01*
X72739815Y-168709814D01*
X72841272Y-168626552D01*
X72877010Y-168597222D01*
X73033535Y-168513557D01*
X73203374Y-168462037D01*
X73380000Y-168444641D01*
X73556627Y-168462037D01*
X73556627Y-168462037D01*
G37*
G36*
X76096627Y-168462037D02*
G01*
X76266466Y-168513557D01*
X76422991Y-168597222D01*
X76458729Y-168626552D01*
X76560186Y-168709814D01*
X76635019Y-168801000D01*
X76672778Y-168847009D01*
X76756443Y-169003534D01*
X76807963Y-169173373D01*
X76821000Y-169305742D01*
X76821000Y-170694258D01*
X76807963Y-170826627D01*
X76756443Y-170996466D01*
X76672778Y-171152991D01*
X76643448Y-171188729D01*
X76560186Y-171290186D01*
X76422989Y-171402779D01*
X76266467Y-171486442D01*
X76266465Y-171486443D01*
X76096626Y-171537963D01*
X75920000Y-171555359D01*
X75743373Y-171537963D01*
X75573534Y-171486443D01*
X75417009Y-171402778D01*
X75371135Y-171365130D01*
X75279814Y-171290186D01*
X75167221Y-171152989D01*
X75083558Y-170996467D01*
X75032126Y-170826918D01*
X75032037Y-170826626D01*
X75019000Y-170694257D01*
X75019001Y-169305742D01*
X75032038Y-169173373D01*
X75083558Y-169003534D01*
X75167223Y-168847009D01*
X75204982Y-168801000D01*
X75279815Y-168709814D01*
X75381272Y-168626552D01*
X75417010Y-168597222D01*
X75573535Y-168513557D01*
X75743374Y-168462037D01*
X75920000Y-168444641D01*
X76096627Y-168462037D01*
X76096627Y-168462037D01*
G37*
G36*
X78636627Y-168462037D02*
G01*
X78806466Y-168513557D01*
X78962991Y-168597222D01*
X78998729Y-168626552D01*
X79100186Y-168709814D01*
X79175019Y-168801000D01*
X79212778Y-168847009D01*
X79296443Y-169003534D01*
X79347963Y-169173373D01*
X79361000Y-169305742D01*
X79361000Y-170694258D01*
X79347963Y-170826627D01*
X79296443Y-170996466D01*
X79212778Y-171152991D01*
X79183448Y-171188729D01*
X79100186Y-171290186D01*
X78962989Y-171402779D01*
X78806467Y-171486442D01*
X78806465Y-171486443D01*
X78636626Y-171537963D01*
X78460000Y-171555359D01*
X78283373Y-171537963D01*
X78113534Y-171486443D01*
X77957009Y-171402778D01*
X77911135Y-171365130D01*
X77819814Y-171290186D01*
X77707221Y-171152989D01*
X77623558Y-170996467D01*
X77572126Y-170826918D01*
X77572037Y-170826626D01*
X77559000Y-170694257D01*
X77559001Y-169305742D01*
X77572038Y-169173373D01*
X77623558Y-169003534D01*
X77707223Y-168847009D01*
X77744982Y-168801000D01*
X77819815Y-168709814D01*
X77921272Y-168626552D01*
X77957010Y-168597222D01*
X78113535Y-168513557D01*
X78283374Y-168462037D01*
X78460000Y-168444641D01*
X78636627Y-168462037D01*
X78636627Y-168462037D01*
G37*
G36*
X81901000Y-171551000D02*
G01*
X80099000Y-171551000D01*
X80099000Y-168449000D01*
X81901000Y-168449000D01*
X81901000Y-171551000D01*
X81901000Y-171551000D01*
G37*
G36*
X157451000Y-168801000D02*
G01*
X154849000Y-168801000D01*
X154849000Y-166199000D01*
X157451000Y-166199000D01*
X157451000Y-168801000D01*
X157451000Y-168801000D01*
G37*
G36*
X128146564Y-165989389D02*
G01*
X128337833Y-166068615D01*
X128337835Y-166068616D01*
X128509973Y-166183635D01*
X128656365Y-166330027D01*
X128771385Y-166502167D01*
X128850611Y-166693436D01*
X128891000Y-166896484D01*
X128891000Y-167103516D01*
X128850611Y-167306564D01*
X128771385Y-167497833D01*
X128771384Y-167497835D01*
X128656365Y-167669973D01*
X128509973Y-167816365D01*
X128337835Y-167931384D01*
X128337834Y-167931385D01*
X128337833Y-167931385D01*
X128146564Y-168010611D01*
X127943516Y-168051000D01*
X127736484Y-168051000D01*
X127533436Y-168010611D01*
X127342167Y-167931385D01*
X127342166Y-167931385D01*
X127342165Y-167931384D01*
X127170027Y-167816365D01*
X127023635Y-167669973D01*
X126908616Y-167497835D01*
X126908615Y-167497833D01*
X126829389Y-167306564D01*
X126789000Y-167103516D01*
X126789000Y-166896484D01*
X126829389Y-166693436D01*
X126908615Y-166502167D01*
X127023635Y-166330027D01*
X127170027Y-166183635D01*
X127342165Y-166068616D01*
X127342167Y-166068615D01*
X127533436Y-165989389D01*
X127736484Y-165949000D01*
X127943516Y-165949000D01*
X128146564Y-165989389D01*
X128146564Y-165989389D01*
G37*
G36*
X112306564Y-165989389D02*
G01*
X112497833Y-166068615D01*
X112497835Y-166068616D01*
X112669973Y-166183635D01*
X112816365Y-166330027D01*
X112931385Y-166502167D01*
X113010611Y-166693436D01*
X113051000Y-166896484D01*
X113051000Y-167103516D01*
X113010611Y-167306564D01*
X112931385Y-167497833D01*
X112931384Y-167497835D01*
X112816365Y-167669973D01*
X112669973Y-167816365D01*
X112497835Y-167931384D01*
X112497834Y-167931385D01*
X112497833Y-167931385D01*
X112306564Y-168010611D01*
X112103516Y-168051000D01*
X111896484Y-168051000D01*
X111693436Y-168010611D01*
X111502167Y-167931385D01*
X111502166Y-167931385D01*
X111502165Y-167931384D01*
X111330027Y-167816365D01*
X111183635Y-167669973D01*
X111068616Y-167497835D01*
X111068615Y-167497833D01*
X110989389Y-167306564D01*
X110949000Y-167103516D01*
X110949000Y-166896484D01*
X110989389Y-166693436D01*
X111068615Y-166502167D01*
X111183635Y-166330027D01*
X111330027Y-166183635D01*
X111502165Y-166068616D01*
X111502167Y-166068615D01*
X111693436Y-165989389D01*
X111896484Y-165949000D01*
X112103516Y-165949000D01*
X112306564Y-165989389D01*
X112306564Y-165989389D01*
G37*
G36*
X122466564Y-165989389D02*
G01*
X122657833Y-166068615D01*
X122657835Y-166068616D01*
X122829973Y-166183635D01*
X122976365Y-166330027D01*
X123091385Y-166502167D01*
X123170611Y-166693436D01*
X123211000Y-166896484D01*
X123211000Y-167103516D01*
X123170611Y-167306564D01*
X123091385Y-167497833D01*
X123091384Y-167497835D01*
X122976365Y-167669973D01*
X122829973Y-167816365D01*
X122657835Y-167931384D01*
X122657834Y-167931385D01*
X122657833Y-167931385D01*
X122466564Y-168010611D01*
X122263516Y-168051000D01*
X122056484Y-168051000D01*
X121853436Y-168010611D01*
X121662167Y-167931385D01*
X121662166Y-167931385D01*
X121662165Y-167931384D01*
X121490027Y-167816365D01*
X121343635Y-167669973D01*
X121228616Y-167497835D01*
X121228615Y-167497833D01*
X121149389Y-167306564D01*
X121109000Y-167103516D01*
X121109000Y-166896484D01*
X121149389Y-166693436D01*
X121228615Y-166502167D01*
X121343635Y-166330027D01*
X121490027Y-166183635D01*
X121662165Y-166068616D01*
X121662167Y-166068615D01*
X121853436Y-165989389D01*
X122056484Y-165949000D01*
X122263516Y-165949000D01*
X122466564Y-165989389D01*
X122466564Y-165989389D01*
G37*
G36*
X138306564Y-165989389D02*
G01*
X138497833Y-166068615D01*
X138497835Y-166068616D01*
X138669973Y-166183635D01*
X138816365Y-166330027D01*
X138931385Y-166502167D01*
X139010611Y-166693436D01*
X139051000Y-166896484D01*
X139051000Y-167103516D01*
X139010611Y-167306564D01*
X138931385Y-167497833D01*
X138931384Y-167497835D01*
X138816365Y-167669973D01*
X138669973Y-167816365D01*
X138497835Y-167931384D01*
X138497834Y-167931385D01*
X138497833Y-167931385D01*
X138306564Y-168010611D01*
X138103516Y-168051000D01*
X137896484Y-168051000D01*
X137693436Y-168010611D01*
X137502167Y-167931385D01*
X137502166Y-167931385D01*
X137502165Y-167931384D01*
X137330027Y-167816365D01*
X137183635Y-167669973D01*
X137068616Y-167497835D01*
X137068615Y-167497833D01*
X136989389Y-167306564D01*
X136949000Y-167103516D01*
X136949000Y-166896484D01*
X136989389Y-166693436D01*
X137068615Y-166502167D01*
X137183635Y-166330027D01*
X137330027Y-166183635D01*
X137502165Y-166068616D01*
X137502167Y-166068615D01*
X137693436Y-165989389D01*
X137896484Y-165949000D01*
X138103516Y-165949000D01*
X138306564Y-165989389D01*
X138306564Y-165989389D01*
G37*
G36*
X43651000Y-165651000D02*
G01*
X41349000Y-165651000D01*
X41349000Y-163349000D01*
X43651000Y-163349000D01*
X43651000Y-165651000D01*
X43651000Y-165651000D01*
G37*
G36*
X52829271Y-163360103D02*
G01*
X52885635Y-163365654D01*
X53102600Y-163431470D01*
X53102602Y-163431471D01*
X53302555Y-163538347D01*
X53477818Y-163682182D01*
X53621653Y-163857445D01*
X53728529Y-164057398D01*
X53794346Y-164274366D01*
X53816569Y-164500000D01*
X53794346Y-164725634D01*
X53728529Y-164942602D01*
X53621653Y-165142555D01*
X53477818Y-165317818D01*
X53302555Y-165461653D01*
X53102602Y-165568529D01*
X53102600Y-165568530D01*
X52885635Y-165634346D01*
X52829271Y-165639897D01*
X52716545Y-165651000D01*
X52603455Y-165651000D01*
X52490729Y-165639897D01*
X52434365Y-165634346D01*
X52217400Y-165568530D01*
X52217398Y-165568529D01*
X52017445Y-165461653D01*
X51842182Y-165317818D01*
X51698347Y-165142555D01*
X51591471Y-164942602D01*
X51525654Y-164725634D01*
X51503431Y-164500000D01*
X51525654Y-164274366D01*
X51591471Y-164057398D01*
X51698347Y-163857445D01*
X51842182Y-163682182D01*
X52017445Y-163538347D01*
X52217398Y-163431471D01*
X52217400Y-163431470D01*
X52434365Y-163365654D01*
X52490729Y-163360103D01*
X52603455Y-163349000D01*
X52716545Y-163349000D01*
X52829271Y-163360103D01*
X52829271Y-163360103D01*
G37*
G36*
X112306564Y-161989389D02*
G01*
X112497833Y-162068615D01*
X112497835Y-162068616D01*
X112520583Y-162083816D01*
X112669973Y-162183635D01*
X112816365Y-162330027D01*
X112931385Y-162502167D01*
X113010611Y-162693436D01*
X113051000Y-162896484D01*
X113051000Y-163103516D01*
X113010611Y-163306564D01*
X112993033Y-163349000D01*
X112931384Y-163497835D01*
X112816365Y-163669973D01*
X112669973Y-163816365D01*
X112497835Y-163931384D01*
X112497834Y-163931385D01*
X112497833Y-163931385D01*
X112306564Y-164010611D01*
X112103516Y-164051000D01*
X111896484Y-164051000D01*
X111693436Y-164010611D01*
X111502167Y-163931385D01*
X111502166Y-163931385D01*
X111502165Y-163931384D01*
X111330027Y-163816365D01*
X111183635Y-163669973D01*
X111068616Y-163497835D01*
X111006967Y-163349000D01*
X110989389Y-163306564D01*
X110949000Y-163103516D01*
X110949000Y-162896484D01*
X110989389Y-162693436D01*
X111068615Y-162502167D01*
X111183635Y-162330027D01*
X111330027Y-162183635D01*
X111479417Y-162083816D01*
X111502165Y-162068616D01*
X111502167Y-162068615D01*
X111693436Y-161989389D01*
X111896484Y-161949000D01*
X112103516Y-161949000D01*
X112306564Y-161989389D01*
X112306564Y-161989389D01*
G37*
G36*
X128146564Y-161989389D02*
G01*
X128337833Y-162068615D01*
X128337835Y-162068616D01*
X128360583Y-162083816D01*
X128509973Y-162183635D01*
X128656365Y-162330027D01*
X128771385Y-162502167D01*
X128850611Y-162693436D01*
X128891000Y-162896484D01*
X128891000Y-163103516D01*
X128850611Y-163306564D01*
X128833033Y-163349000D01*
X128771384Y-163497835D01*
X128656365Y-163669973D01*
X128509973Y-163816365D01*
X128337835Y-163931384D01*
X128337834Y-163931385D01*
X128337833Y-163931385D01*
X128146564Y-164010611D01*
X127943516Y-164051000D01*
X127736484Y-164051000D01*
X127533436Y-164010611D01*
X127342167Y-163931385D01*
X127342166Y-163931385D01*
X127342165Y-163931384D01*
X127170027Y-163816365D01*
X127023635Y-163669973D01*
X126908616Y-163497835D01*
X126846967Y-163349000D01*
X126829389Y-163306564D01*
X126789000Y-163103516D01*
X126789000Y-162896484D01*
X126829389Y-162693436D01*
X126908615Y-162502167D01*
X127023635Y-162330027D01*
X127170027Y-162183635D01*
X127319417Y-162083816D01*
X127342165Y-162068616D01*
X127342167Y-162068615D01*
X127533436Y-161989389D01*
X127736484Y-161949000D01*
X127943516Y-161949000D01*
X128146564Y-161989389D01*
X128146564Y-161989389D01*
G37*
G36*
X138306564Y-161989389D02*
G01*
X138497833Y-162068615D01*
X138497835Y-162068616D01*
X138520583Y-162083816D01*
X138669973Y-162183635D01*
X138816365Y-162330027D01*
X138931385Y-162502167D01*
X139010611Y-162693436D01*
X139051000Y-162896484D01*
X139051000Y-163103516D01*
X139010611Y-163306564D01*
X138993033Y-163349000D01*
X138931384Y-163497835D01*
X138816365Y-163669973D01*
X138669973Y-163816365D01*
X138497835Y-163931384D01*
X138497834Y-163931385D01*
X138497833Y-163931385D01*
X138306564Y-164010611D01*
X138103516Y-164051000D01*
X137896484Y-164051000D01*
X137693436Y-164010611D01*
X137502167Y-163931385D01*
X137502166Y-163931385D01*
X137502165Y-163931384D01*
X137330027Y-163816365D01*
X137183635Y-163669973D01*
X137068616Y-163497835D01*
X137006967Y-163349000D01*
X136989389Y-163306564D01*
X136949000Y-163103516D01*
X136949000Y-162896484D01*
X136989389Y-162693436D01*
X137068615Y-162502167D01*
X137183635Y-162330027D01*
X137330027Y-162183635D01*
X137479417Y-162083816D01*
X137502165Y-162068616D01*
X137502167Y-162068615D01*
X137693436Y-161989389D01*
X137896484Y-161949000D01*
X138103516Y-161949000D01*
X138306564Y-161989389D01*
X138306564Y-161989389D01*
G37*
G36*
X122466564Y-161989389D02*
G01*
X122657833Y-162068615D01*
X122657835Y-162068616D01*
X122680583Y-162083816D01*
X122829973Y-162183635D01*
X122976365Y-162330027D01*
X123091385Y-162502167D01*
X123170611Y-162693436D01*
X123211000Y-162896484D01*
X123211000Y-163103516D01*
X123170611Y-163306564D01*
X123153033Y-163349000D01*
X123091384Y-163497835D01*
X122976365Y-163669973D01*
X122829973Y-163816365D01*
X122657835Y-163931384D01*
X122657834Y-163931385D01*
X122657833Y-163931385D01*
X122466564Y-164010611D01*
X122263516Y-164051000D01*
X122056484Y-164051000D01*
X121853436Y-164010611D01*
X121662167Y-163931385D01*
X121662166Y-163931385D01*
X121662165Y-163931384D01*
X121490027Y-163816365D01*
X121343635Y-163669973D01*
X121228616Y-163497835D01*
X121166967Y-163349000D01*
X121149389Y-163306564D01*
X121109000Y-163103516D01*
X121109000Y-162896484D01*
X121149389Y-162693436D01*
X121228615Y-162502167D01*
X121343635Y-162330027D01*
X121490027Y-162183635D01*
X121639417Y-162083816D01*
X121662165Y-162068616D01*
X121662167Y-162068615D01*
X121853436Y-161989389D01*
X122056484Y-161949000D01*
X122263516Y-161949000D01*
X122466564Y-161989389D01*
X122466564Y-161989389D01*
G37*
G36*
X157201000Y-163551000D02*
G01*
X155099000Y-163551000D01*
X155099000Y-161449000D01*
X157201000Y-161449000D01*
X157201000Y-163551000D01*
X157201000Y-163551000D01*
G37*
G36*
X97748228Y-161181703D02*
G01*
X97903100Y-161245853D01*
X98042481Y-161338985D01*
X98161015Y-161457519D01*
X98254147Y-161596900D01*
X98318297Y-161751772D01*
X98351000Y-161916184D01*
X98351000Y-162083816D01*
X98318297Y-162248228D01*
X98254147Y-162403100D01*
X98161015Y-162542481D01*
X98042481Y-162661015D01*
X97903100Y-162754147D01*
X97748228Y-162818297D01*
X97583816Y-162851000D01*
X97416184Y-162851000D01*
X97251772Y-162818297D01*
X97096900Y-162754147D01*
X96957519Y-162661015D01*
X96838985Y-162542481D01*
X96745853Y-162403100D01*
X96681703Y-162248228D01*
X96649000Y-162083816D01*
X96649000Y-161916184D01*
X96681703Y-161751772D01*
X96745853Y-161596900D01*
X96838985Y-161457519D01*
X96957519Y-161338985D01*
X97096900Y-161245853D01*
X97251772Y-161181703D01*
X97416184Y-161149000D01*
X97583816Y-161149000D01*
X97748228Y-161181703D01*
X97748228Y-161181703D01*
G37*
G36*
X60651000Y-162651000D02*
G01*
X58349000Y-162651000D01*
X58349000Y-160349000D01*
X60651000Y-160349000D01*
X60651000Y-162651000D01*
X60651000Y-162651000D01*
G37*
G36*
X80556564Y-159589389D02*
G01*
X80747833Y-159668615D01*
X80747835Y-159668616D01*
X80919973Y-159783635D01*
X81066365Y-159930027D01*
X81149948Y-160055117D01*
X81181385Y-160102167D01*
X81260611Y-160293436D01*
X81301000Y-160496484D01*
X81301000Y-160703516D01*
X81260611Y-160906564D01*
X81181385Y-161097833D01*
X81181384Y-161097835D01*
X81066365Y-161269973D01*
X80919973Y-161416365D01*
X80747835Y-161531384D01*
X80747834Y-161531385D01*
X80747833Y-161531385D01*
X80556564Y-161610611D01*
X80353516Y-161651000D01*
X80146484Y-161651000D01*
X79943436Y-161610611D01*
X79752167Y-161531385D01*
X79752166Y-161531385D01*
X79752165Y-161531384D01*
X79580027Y-161416365D01*
X79433635Y-161269973D01*
X79318616Y-161097835D01*
X79318615Y-161097833D01*
X79239389Y-160906564D01*
X79199000Y-160703516D01*
X79199000Y-160496484D01*
X79239389Y-160293436D01*
X79318615Y-160102167D01*
X79350053Y-160055117D01*
X79433635Y-159930027D01*
X79580027Y-159783635D01*
X79752165Y-159668616D01*
X79752167Y-159668615D01*
X79943436Y-159589389D01*
X80146484Y-159549000D01*
X80353516Y-159549000D01*
X80556564Y-159589389D01*
X80556564Y-159589389D01*
G37*
G36*
X97748228Y-158681703D02*
G01*
X97903100Y-158745853D01*
X98042481Y-158838985D01*
X98161015Y-158957519D01*
X98254147Y-159096900D01*
X98318297Y-159251772D01*
X98351000Y-159416184D01*
X98351000Y-159583816D01*
X98318297Y-159748228D01*
X98254147Y-159903100D01*
X98161015Y-160042481D01*
X98042481Y-160161015D01*
X97903100Y-160254147D01*
X97748228Y-160318297D01*
X97583816Y-160351000D01*
X97416184Y-160351000D01*
X97251772Y-160318297D01*
X97096900Y-160254147D01*
X96957519Y-160161015D01*
X96838985Y-160042481D01*
X96745853Y-159903100D01*
X96681703Y-159748228D01*
X96649000Y-159583816D01*
X96649000Y-159416184D01*
X96681703Y-159251772D01*
X96745853Y-159096900D01*
X96838985Y-158957519D01*
X96957519Y-158838985D01*
X97096900Y-158745853D01*
X97251772Y-158681703D01*
X97416184Y-158649000D01*
X97583816Y-158649000D01*
X97748228Y-158681703D01*
X97748228Y-158681703D01*
G37*
G36*
X93828571Y-158602863D02*
G01*
X93907023Y-158610590D01*
X94007682Y-158641125D01*
X94058013Y-158656392D01*
X94197165Y-158730771D01*
X94319133Y-158830867D01*
X94419229Y-158952835D01*
X94493608Y-159091987D01*
X94493608Y-159091988D01*
X94539410Y-159242977D01*
X94554875Y-159400000D01*
X94539410Y-159557023D01*
X94508875Y-159657682D01*
X94493608Y-159708013D01*
X94419229Y-159847165D01*
X94319133Y-159969133D01*
X94197165Y-160069229D01*
X94058013Y-160143608D01*
X94007682Y-160158875D01*
X93907023Y-160189410D01*
X93828571Y-160197137D01*
X93789346Y-160201000D01*
X92210654Y-160201000D01*
X92171429Y-160197137D01*
X92092977Y-160189410D01*
X91992318Y-160158875D01*
X91941987Y-160143608D01*
X91802835Y-160069229D01*
X91680867Y-159969133D01*
X91580771Y-159847165D01*
X91506392Y-159708013D01*
X91491125Y-159657682D01*
X91460590Y-159557023D01*
X91445125Y-159400000D01*
X91460590Y-159242977D01*
X91506392Y-159091988D01*
X91506392Y-159091987D01*
X91580771Y-158952835D01*
X91680867Y-158830867D01*
X91802835Y-158730771D01*
X91941987Y-158656392D01*
X91992318Y-158641125D01*
X92092977Y-158610590D01*
X92171429Y-158602863D01*
X92210654Y-158599000D01*
X93789346Y-158599000D01*
X93828571Y-158602863D01*
X93828571Y-158602863D01*
G37*
G36*
X140706822Y-157961313D02*
G01*
X140867241Y-158009976D01*
X141015077Y-158088995D01*
X141076496Y-158139401D01*
X141144659Y-158195341D01*
X141251004Y-158324922D01*
X141251005Y-158324924D01*
X141330024Y-158472758D01*
X141378687Y-158633177D01*
X141391000Y-158758196D01*
X141391000Y-159241803D01*
X141378687Y-159366822D01*
X141330024Y-159527242D01*
X141296805Y-159589390D01*
X141251004Y-159675078D01*
X141144659Y-159804659D01*
X141015078Y-159911004D01*
X141015076Y-159911005D01*
X140867242Y-159990024D01*
X140706823Y-160038687D01*
X140540000Y-160055117D01*
X140373178Y-160038687D01*
X140212759Y-159990024D01*
X140064925Y-159911005D01*
X140064923Y-159911004D01*
X139935342Y-159804659D01*
X139828996Y-159675078D01*
X139783195Y-159589390D01*
X139749976Y-159527242D01*
X139701313Y-159366823D01*
X139689000Y-159241804D01*
X139689000Y-158758197D01*
X139701313Y-158633178D01*
X139749976Y-158472759D01*
X139828995Y-158324923D01*
X139935341Y-158195341D01*
X140003504Y-158139401D01*
X140064922Y-158088996D01*
X140080094Y-158080886D01*
X140212758Y-158009976D01*
X140373177Y-157961313D01*
X140540000Y-157944883D01*
X140706822Y-157961313D01*
X140706822Y-157961313D01*
G37*
G36*
X122706822Y-157961313D02*
G01*
X122867241Y-158009976D01*
X123015077Y-158088995D01*
X123076496Y-158139401D01*
X123144659Y-158195341D01*
X123251004Y-158324922D01*
X123251005Y-158324924D01*
X123330024Y-158472758D01*
X123378687Y-158633177D01*
X123391000Y-158758196D01*
X123391000Y-159241803D01*
X123378687Y-159366822D01*
X123330024Y-159527242D01*
X123296805Y-159589390D01*
X123251004Y-159675078D01*
X123144659Y-159804659D01*
X123015078Y-159911004D01*
X123015076Y-159911005D01*
X122867242Y-159990024D01*
X122706823Y-160038687D01*
X122540000Y-160055117D01*
X122373178Y-160038687D01*
X122212759Y-159990024D01*
X122064925Y-159911005D01*
X122064923Y-159911004D01*
X121935342Y-159804659D01*
X121828996Y-159675078D01*
X121783195Y-159589390D01*
X121749976Y-159527242D01*
X121701313Y-159366823D01*
X121689000Y-159241804D01*
X121689000Y-158758197D01*
X121701313Y-158633178D01*
X121749976Y-158472759D01*
X121828995Y-158324923D01*
X121935341Y-158195341D01*
X122003504Y-158139401D01*
X122064922Y-158088996D01*
X122080094Y-158080886D01*
X122212758Y-158009976D01*
X122373177Y-157961313D01*
X122540000Y-157944883D01*
X122706822Y-157961313D01*
X122706822Y-157961313D01*
G37*
G36*
X131706822Y-157961313D02*
G01*
X131867241Y-158009976D01*
X132015077Y-158088995D01*
X132076496Y-158139401D01*
X132144659Y-158195341D01*
X132251004Y-158324922D01*
X132251005Y-158324924D01*
X132330024Y-158472758D01*
X132378687Y-158633177D01*
X132391000Y-158758196D01*
X132391000Y-159241803D01*
X132378687Y-159366822D01*
X132330024Y-159527242D01*
X132296805Y-159589390D01*
X132251004Y-159675078D01*
X132144659Y-159804659D01*
X132015078Y-159911004D01*
X132015076Y-159911005D01*
X131867242Y-159990024D01*
X131706823Y-160038687D01*
X131540000Y-160055117D01*
X131373178Y-160038687D01*
X131212759Y-159990024D01*
X131064925Y-159911005D01*
X131064923Y-159911004D01*
X130935342Y-159804659D01*
X130828996Y-159675078D01*
X130783195Y-159589390D01*
X130749976Y-159527242D01*
X130701313Y-159366823D01*
X130689000Y-159241804D01*
X130689000Y-158758197D01*
X130701313Y-158633178D01*
X130749976Y-158472759D01*
X130828995Y-158324923D01*
X130935341Y-158195341D01*
X131003504Y-158139401D01*
X131064922Y-158088996D01*
X131080094Y-158080886D01*
X131212758Y-158009976D01*
X131373177Y-157961313D01*
X131540000Y-157944883D01*
X131706822Y-157961313D01*
X131706822Y-157961313D01*
G37*
G36*
X114706822Y-157961313D02*
G01*
X114867241Y-158009976D01*
X115015077Y-158088995D01*
X115076496Y-158139401D01*
X115144659Y-158195341D01*
X115251004Y-158324922D01*
X115251005Y-158324924D01*
X115330024Y-158472758D01*
X115378687Y-158633177D01*
X115391000Y-158758196D01*
X115391000Y-159241803D01*
X115378687Y-159366822D01*
X115330024Y-159527242D01*
X115296805Y-159589390D01*
X115251004Y-159675078D01*
X115144659Y-159804659D01*
X115015078Y-159911004D01*
X115015076Y-159911005D01*
X114867242Y-159990024D01*
X114706823Y-160038687D01*
X114540000Y-160055117D01*
X114373178Y-160038687D01*
X114212759Y-159990024D01*
X114064925Y-159911005D01*
X114064923Y-159911004D01*
X113935342Y-159804659D01*
X113828996Y-159675078D01*
X113783195Y-159589390D01*
X113749976Y-159527242D01*
X113701313Y-159366823D01*
X113689000Y-159241804D01*
X113689000Y-158758197D01*
X113701313Y-158633178D01*
X113749976Y-158472759D01*
X113828995Y-158324923D01*
X113935341Y-158195341D01*
X114003504Y-158139401D01*
X114064922Y-158088996D01*
X114080094Y-158080886D01*
X114212758Y-158009976D01*
X114373177Y-157961313D01*
X114540000Y-157944883D01*
X114706822Y-157961313D01*
X114706822Y-157961313D01*
G37*
G36*
X138851000Y-160051000D02*
G01*
X137149000Y-160051000D01*
X137149000Y-157949000D01*
X138851000Y-157949000D01*
X138851000Y-160051000D01*
X138851000Y-160051000D01*
G37*
G36*
X129851000Y-160051000D02*
G01*
X128149000Y-160051000D01*
X128149000Y-157949000D01*
X129851000Y-157949000D01*
X129851000Y-160051000D01*
X129851000Y-160051000D01*
G37*
G36*
X112851000Y-160051000D02*
G01*
X111149000Y-160051000D01*
X111149000Y-157949000D01*
X112851000Y-157949000D01*
X112851000Y-160051000D01*
X112851000Y-160051000D01*
G37*
G36*
X120851000Y-160051000D02*
G01*
X119149000Y-160051000D01*
X119149000Y-157949000D01*
X120851000Y-157949000D01*
X120851000Y-160051000D01*
X120851000Y-160051000D01*
G37*
G36*
X147323651Y-155132888D02*
G01*
X147634870Y-155227296D01*
X147921680Y-155380599D01*
X147921683Y-155380601D01*
X147921684Y-155380602D01*
X148173082Y-155586918D01*
X148379398Y-155838316D01*
X148379401Y-155838320D01*
X148532704Y-156125130D01*
X148627112Y-156436349D01*
X148658988Y-156760000D01*
X148627112Y-157083651D01*
X148532704Y-157394870D01*
X148379401Y-157681680D01*
X148379399Y-157681683D01*
X148379398Y-157681684D01*
X148173082Y-157933082D01*
X147983099Y-158088996D01*
X147921680Y-158139401D01*
X147634870Y-158292704D01*
X147323651Y-158387112D01*
X147081107Y-158411000D01*
X146918893Y-158411000D01*
X146676349Y-158387112D01*
X146365130Y-158292704D01*
X146078320Y-158139401D01*
X146016901Y-158088996D01*
X145826918Y-157933082D01*
X145620602Y-157681684D01*
X145620601Y-157681683D01*
X145620599Y-157681680D01*
X145467296Y-157394870D01*
X145372888Y-157083651D01*
X145341012Y-156760000D01*
X145372888Y-156436349D01*
X145467296Y-156125130D01*
X145620599Y-155838320D01*
X145620602Y-155838316D01*
X145826918Y-155586918D01*
X146078316Y-155380602D01*
X146078317Y-155380601D01*
X146078320Y-155380599D01*
X146365130Y-155227296D01*
X146676349Y-155132888D01*
X146918893Y-155109000D01*
X147081107Y-155109000D01*
X147323651Y-155132888D01*
X147323651Y-155132888D01*
G37*
G36*
X57351000Y-157851000D02*
G01*
X55649000Y-157851000D01*
X55649000Y-156149000D01*
X57351000Y-156149000D01*
X57351000Y-157851000D01*
X57351000Y-157851000D01*
G37*
G36*
X45851000Y-157351000D02*
G01*
X44149000Y-157351000D01*
X44149000Y-155649000D01*
X45851000Y-155649000D01*
X45851000Y-157351000D01*
X45851000Y-157351000D01*
G37*
G36*
X97748228Y-155431703D02*
G01*
X97903100Y-155495853D01*
X98042481Y-155588985D01*
X98161015Y-155707519D01*
X98254147Y-155846900D01*
X98318297Y-156001772D01*
X98351000Y-156166184D01*
X98351000Y-156333816D01*
X98318297Y-156498228D01*
X98254147Y-156653100D01*
X98161015Y-156792481D01*
X98042481Y-156911015D01*
X97903100Y-157004147D01*
X97748228Y-157068297D01*
X97583816Y-157101000D01*
X97416184Y-157101000D01*
X97251772Y-157068297D01*
X97096900Y-157004147D01*
X96957519Y-156911015D01*
X96838985Y-156792481D01*
X96745853Y-156653100D01*
X96681703Y-156498228D01*
X96649000Y-156333816D01*
X96649000Y-156166184D01*
X96681703Y-156001772D01*
X96745853Y-155846900D01*
X96838985Y-155707519D01*
X96957519Y-155588985D01*
X97096900Y-155495853D01*
X97251772Y-155431703D01*
X97416184Y-155399000D01*
X97583816Y-155399000D01*
X97748228Y-155431703D01*
X97748228Y-155431703D01*
G37*
G36*
X56748228Y-153681703D02*
G01*
X56903100Y-153745853D01*
X57042481Y-153838985D01*
X57161015Y-153957519D01*
X57254147Y-154096900D01*
X57318297Y-154251772D01*
X57351000Y-154416184D01*
X57351000Y-154583816D01*
X57318297Y-154748228D01*
X57254147Y-154903100D01*
X57161015Y-155042481D01*
X57042481Y-155161015D01*
X56903100Y-155254147D01*
X56748228Y-155318297D01*
X56583816Y-155351000D01*
X56416184Y-155351000D01*
X56251772Y-155318297D01*
X56096900Y-155254147D01*
X55957519Y-155161015D01*
X55838985Y-155042481D01*
X55745853Y-154903100D01*
X55681703Y-154748228D01*
X55649000Y-154583816D01*
X55649000Y-154416184D01*
X55681703Y-154251772D01*
X55745853Y-154096900D01*
X55838985Y-153957519D01*
X55957519Y-153838985D01*
X56096900Y-153745853D01*
X56251772Y-153681703D01*
X56416184Y-153649000D01*
X56583816Y-153649000D01*
X56748228Y-153681703D01*
X56748228Y-153681703D01*
G37*
G36*
X93828571Y-153702863D02*
G01*
X93907023Y-153710590D01*
X94007682Y-153741125D01*
X94058013Y-153756392D01*
X94197165Y-153830771D01*
X94319133Y-153930867D01*
X94419229Y-154052835D01*
X94493608Y-154191987D01*
X94493608Y-154191988D01*
X94539410Y-154342977D01*
X94554875Y-154500000D01*
X94539410Y-154657023D01*
X94511743Y-154748228D01*
X94493608Y-154808013D01*
X94419229Y-154947165D01*
X94319133Y-155069133D01*
X94197165Y-155169229D01*
X94058013Y-155243608D01*
X94007682Y-155258875D01*
X93907023Y-155289410D01*
X93828571Y-155297137D01*
X93789346Y-155301000D01*
X92210654Y-155301000D01*
X92171429Y-155297137D01*
X92092977Y-155289410D01*
X91992318Y-155258875D01*
X91941987Y-155243608D01*
X91802835Y-155169229D01*
X91680867Y-155069133D01*
X91580771Y-154947165D01*
X91506392Y-154808013D01*
X91488257Y-154748228D01*
X91460590Y-154657023D01*
X91445125Y-154500000D01*
X91460590Y-154342977D01*
X91506392Y-154191988D01*
X91506392Y-154191987D01*
X91580771Y-154052835D01*
X91680867Y-153930867D01*
X91802835Y-153830771D01*
X91941987Y-153756392D01*
X91992318Y-153741125D01*
X92092977Y-153710590D01*
X92171429Y-153702863D01*
X92210654Y-153699000D01*
X93789346Y-153699000D01*
X93828571Y-153702863D01*
X93828571Y-153702863D01*
G37*
G36*
X45248228Y-153181703D02*
G01*
X45403100Y-153245853D01*
X45542481Y-153338985D01*
X45661015Y-153457519D01*
X45754147Y-153596900D01*
X45818297Y-153751772D01*
X45851000Y-153916184D01*
X45851000Y-154083816D01*
X45818297Y-154248228D01*
X45754147Y-154403100D01*
X45661015Y-154542481D01*
X45542481Y-154661015D01*
X45403100Y-154754147D01*
X45248228Y-154818297D01*
X45083816Y-154851000D01*
X44916184Y-154851000D01*
X44751772Y-154818297D01*
X44596900Y-154754147D01*
X44457519Y-154661015D01*
X44338985Y-154542481D01*
X44245853Y-154403100D01*
X44181703Y-154248228D01*
X44149000Y-154083816D01*
X44149000Y-153916184D01*
X44181703Y-153751772D01*
X44245853Y-153596900D01*
X44338985Y-153457519D01*
X44457519Y-153338985D01*
X44596900Y-153245853D01*
X44751772Y-153181703D01*
X44916184Y-153149000D01*
X45083816Y-153149000D01*
X45248228Y-153181703D01*
X45248228Y-153181703D01*
G37*
G36*
X97748228Y-152931703D02*
G01*
X97903100Y-152995853D01*
X98042481Y-153088985D01*
X98161015Y-153207519D01*
X98254147Y-153346900D01*
X98318297Y-153501772D01*
X98351000Y-153666184D01*
X98351000Y-153833816D01*
X98318297Y-153998228D01*
X98254147Y-154153100D01*
X98161015Y-154292481D01*
X98042481Y-154411015D01*
X97903100Y-154504147D01*
X97748228Y-154568297D01*
X97583816Y-154601000D01*
X97416184Y-154601000D01*
X97251772Y-154568297D01*
X97096900Y-154504147D01*
X96957519Y-154411015D01*
X96838985Y-154292481D01*
X96745853Y-154153100D01*
X96681703Y-153998228D01*
X96649000Y-153833816D01*
X96649000Y-153666184D01*
X96681703Y-153501772D01*
X96745853Y-153346900D01*
X96838985Y-153207519D01*
X96957519Y-153088985D01*
X97096900Y-152995853D01*
X97251772Y-152931703D01*
X97416184Y-152899000D01*
X97583816Y-152899000D01*
X97748228Y-152931703D01*
X97748228Y-152931703D01*
G37*
G36*
X157451000Y-154351000D02*
G01*
X154849000Y-154351000D01*
X154849000Y-151749000D01*
X157451000Y-151749000D01*
X157451000Y-154351000D01*
X157451000Y-154351000D01*
G37*
G36*
X81301000Y-154051000D02*
G01*
X79199000Y-154051000D01*
X79199000Y-151949000D01*
X81301000Y-151949000D01*
X81301000Y-154051000D01*
X81301000Y-154051000D01*
G37*
G36*
X148651000Y-152651000D02*
G01*
X145349000Y-152651000D01*
X145349000Y-149349000D01*
X148651000Y-149349000D01*
X148651000Y-152651000D01*
X148651000Y-152651000D01*
G37*
G36*
X129166822Y-150341313D02*
G01*
X129327241Y-150389976D01*
X129475077Y-150468995D01*
X129604659Y-150575341D01*
X129711004Y-150704922D01*
X129711005Y-150704924D01*
X129790024Y-150852758D01*
X129838687Y-151013177D01*
X129851000Y-151138196D01*
X129851000Y-151621803D01*
X129838687Y-151746822D01*
X129790024Y-151907242D01*
X129719114Y-152039906D01*
X129711004Y-152055078D01*
X129604659Y-152184659D01*
X129475078Y-152291004D01*
X129475076Y-152291005D01*
X129327242Y-152370024D01*
X129166823Y-152418687D01*
X129000000Y-152435117D01*
X128833178Y-152418687D01*
X128672759Y-152370024D01*
X128524925Y-152291005D01*
X128524923Y-152291004D01*
X128395342Y-152184659D01*
X128288996Y-152055078D01*
X128280886Y-152039906D01*
X128209976Y-151907242D01*
X128161313Y-151746823D01*
X128149000Y-151621804D01*
X128149000Y-151138197D01*
X128161313Y-151013178D01*
X128209976Y-150852759D01*
X128288995Y-150704923D01*
X128395341Y-150575341D01*
X128524922Y-150468996D01*
X128540094Y-150460886D01*
X128672758Y-150389976D01*
X128833177Y-150341313D01*
X129000000Y-150324883D01*
X129166822Y-150341313D01*
X129166822Y-150341313D01*
G37*
G36*
X122706822Y-150341313D02*
G01*
X122867241Y-150389976D01*
X123015077Y-150468995D01*
X123144659Y-150575341D01*
X123251004Y-150704922D01*
X123251005Y-150704924D01*
X123330024Y-150852758D01*
X123378687Y-151013177D01*
X123391000Y-151138196D01*
X123391000Y-151621803D01*
X123378687Y-151746822D01*
X123330024Y-151907242D01*
X123259114Y-152039906D01*
X123251004Y-152055078D01*
X123144659Y-152184659D01*
X123015078Y-152291004D01*
X123015076Y-152291005D01*
X122867242Y-152370024D01*
X122706823Y-152418687D01*
X122540000Y-152435117D01*
X122373178Y-152418687D01*
X122212759Y-152370024D01*
X122064925Y-152291005D01*
X122064923Y-152291004D01*
X121935342Y-152184659D01*
X121828996Y-152055078D01*
X121820886Y-152039906D01*
X121749976Y-151907242D01*
X121701313Y-151746823D01*
X121689000Y-151621804D01*
X121689000Y-151138197D01*
X121701313Y-151013178D01*
X121749976Y-150852759D01*
X121828995Y-150704923D01*
X121935341Y-150575341D01*
X122064922Y-150468996D01*
X122080094Y-150460886D01*
X122212758Y-150389976D01*
X122373177Y-150341313D01*
X122540000Y-150324883D01*
X122706822Y-150341313D01*
X122706822Y-150341313D01*
G37*
G36*
X120166822Y-150341313D02*
G01*
X120327241Y-150389976D01*
X120475077Y-150468995D01*
X120604659Y-150575341D01*
X120711004Y-150704922D01*
X120711005Y-150704924D01*
X120790024Y-150852758D01*
X120838687Y-151013177D01*
X120851000Y-151138196D01*
X120851000Y-151621803D01*
X120838687Y-151746822D01*
X120790024Y-151907242D01*
X120719114Y-152039906D01*
X120711004Y-152055078D01*
X120604659Y-152184659D01*
X120475078Y-152291004D01*
X120475076Y-152291005D01*
X120327242Y-152370024D01*
X120166823Y-152418687D01*
X120000000Y-152435117D01*
X119833178Y-152418687D01*
X119672759Y-152370024D01*
X119524925Y-152291005D01*
X119524923Y-152291004D01*
X119395342Y-152184659D01*
X119288996Y-152055078D01*
X119280886Y-152039906D01*
X119209976Y-151907242D01*
X119161313Y-151746823D01*
X119149000Y-151621804D01*
X119149000Y-151138197D01*
X119161313Y-151013178D01*
X119209976Y-150852759D01*
X119288995Y-150704923D01*
X119395341Y-150575341D01*
X119524922Y-150468996D01*
X119540094Y-150460886D01*
X119672758Y-150389976D01*
X119833177Y-150341313D01*
X120000000Y-150324883D01*
X120166822Y-150341313D01*
X120166822Y-150341313D01*
G37*
G36*
X114706822Y-150341313D02*
G01*
X114867241Y-150389976D01*
X115015077Y-150468995D01*
X115144659Y-150575341D01*
X115251004Y-150704922D01*
X115251005Y-150704924D01*
X115330024Y-150852758D01*
X115378687Y-151013177D01*
X115391000Y-151138196D01*
X115391000Y-151621803D01*
X115378687Y-151746822D01*
X115330024Y-151907242D01*
X115259114Y-152039906D01*
X115251004Y-152055078D01*
X115144659Y-152184659D01*
X115015078Y-152291004D01*
X115015076Y-152291005D01*
X114867242Y-152370024D01*
X114706823Y-152418687D01*
X114540000Y-152435117D01*
X114373178Y-152418687D01*
X114212759Y-152370024D01*
X114064925Y-152291005D01*
X114064923Y-152291004D01*
X113935342Y-152184659D01*
X113828996Y-152055078D01*
X113820886Y-152039906D01*
X113749976Y-151907242D01*
X113701313Y-151746823D01*
X113689000Y-151621804D01*
X113689000Y-151138197D01*
X113701313Y-151013178D01*
X113749976Y-150852759D01*
X113828995Y-150704923D01*
X113935341Y-150575341D01*
X114064922Y-150468996D01*
X114080094Y-150460886D01*
X114212758Y-150389976D01*
X114373177Y-150341313D01*
X114540000Y-150324883D01*
X114706822Y-150341313D01*
X114706822Y-150341313D01*
G37*
G36*
X112166822Y-150341313D02*
G01*
X112327241Y-150389976D01*
X112475077Y-150468995D01*
X112604659Y-150575341D01*
X112711004Y-150704922D01*
X112711005Y-150704924D01*
X112790024Y-150852758D01*
X112838687Y-151013177D01*
X112851000Y-151138196D01*
X112851000Y-151621803D01*
X112838687Y-151746822D01*
X112790024Y-151907242D01*
X112719114Y-152039906D01*
X112711004Y-152055078D01*
X112604659Y-152184659D01*
X112475078Y-152291004D01*
X112475076Y-152291005D01*
X112327242Y-152370024D01*
X112166823Y-152418687D01*
X112000000Y-152435117D01*
X111833178Y-152418687D01*
X111672759Y-152370024D01*
X111524925Y-152291005D01*
X111524923Y-152291004D01*
X111395342Y-152184659D01*
X111288996Y-152055078D01*
X111280886Y-152039906D01*
X111209976Y-151907242D01*
X111161313Y-151746823D01*
X111149000Y-151621804D01*
X111149000Y-151138197D01*
X111161313Y-151013178D01*
X111209976Y-150852759D01*
X111288995Y-150704923D01*
X111395341Y-150575341D01*
X111524922Y-150468996D01*
X111540094Y-150460886D01*
X111672758Y-150389976D01*
X111833177Y-150341313D01*
X112000000Y-150324883D01*
X112166822Y-150341313D01*
X112166822Y-150341313D01*
G37*
G36*
X131706822Y-150341313D02*
G01*
X131867241Y-150389976D01*
X132015077Y-150468995D01*
X132144659Y-150575341D01*
X132251004Y-150704922D01*
X132251005Y-150704924D01*
X132330024Y-150852758D01*
X132378687Y-151013177D01*
X132391000Y-151138196D01*
X132391000Y-151621803D01*
X132378687Y-151746822D01*
X132330024Y-151907242D01*
X132259114Y-152039906D01*
X132251004Y-152055078D01*
X132144659Y-152184659D01*
X132015078Y-152291004D01*
X132015076Y-152291005D01*
X131867242Y-152370024D01*
X131706823Y-152418687D01*
X131540000Y-152435117D01*
X131373178Y-152418687D01*
X131212759Y-152370024D01*
X131064925Y-152291005D01*
X131064923Y-152291004D01*
X130935342Y-152184659D01*
X130828996Y-152055078D01*
X130820886Y-152039906D01*
X130749976Y-151907242D01*
X130701313Y-151746823D01*
X130689000Y-151621804D01*
X130689000Y-151138197D01*
X130701313Y-151013178D01*
X130749976Y-150852759D01*
X130828995Y-150704923D01*
X130935341Y-150575341D01*
X131064922Y-150468996D01*
X131080094Y-150460886D01*
X131212758Y-150389976D01*
X131373177Y-150341313D01*
X131540000Y-150324883D01*
X131706822Y-150341313D01*
X131706822Y-150341313D01*
G37*
G36*
X138166822Y-150341313D02*
G01*
X138327241Y-150389976D01*
X138475077Y-150468995D01*
X138604659Y-150575341D01*
X138711004Y-150704922D01*
X138711005Y-150704924D01*
X138790024Y-150852758D01*
X138838687Y-151013177D01*
X138851000Y-151138196D01*
X138851000Y-151621803D01*
X138838687Y-151746822D01*
X138790024Y-151907242D01*
X138719114Y-152039906D01*
X138711004Y-152055078D01*
X138604659Y-152184659D01*
X138475078Y-152291004D01*
X138475076Y-152291005D01*
X138327242Y-152370024D01*
X138166823Y-152418687D01*
X138000000Y-152435117D01*
X137833178Y-152418687D01*
X137672759Y-152370024D01*
X137524925Y-152291005D01*
X137524923Y-152291004D01*
X137395342Y-152184659D01*
X137288996Y-152055078D01*
X137280886Y-152039906D01*
X137209976Y-151907242D01*
X137161313Y-151746823D01*
X137149000Y-151621804D01*
X137149000Y-151138197D01*
X137161313Y-151013178D01*
X137209976Y-150852759D01*
X137288995Y-150704923D01*
X137395341Y-150575341D01*
X137524922Y-150468996D01*
X137540094Y-150460886D01*
X137672758Y-150389976D01*
X137833177Y-150341313D01*
X138000000Y-150324883D01*
X138166822Y-150341313D01*
X138166822Y-150341313D01*
G37*
G36*
X140706822Y-150341313D02*
G01*
X140867241Y-150389976D01*
X141015077Y-150468995D01*
X141144659Y-150575341D01*
X141251004Y-150704922D01*
X141251005Y-150704924D01*
X141330024Y-150852758D01*
X141378687Y-151013177D01*
X141391000Y-151138196D01*
X141391000Y-151621803D01*
X141378687Y-151746822D01*
X141330024Y-151907242D01*
X141259114Y-152039906D01*
X141251004Y-152055078D01*
X141144659Y-152184659D01*
X141015078Y-152291004D01*
X141015076Y-152291005D01*
X140867242Y-152370024D01*
X140706823Y-152418687D01*
X140540000Y-152435117D01*
X140373178Y-152418687D01*
X140212759Y-152370024D01*
X140064925Y-152291005D01*
X140064923Y-152291004D01*
X139935342Y-152184659D01*
X139828996Y-152055078D01*
X139820886Y-152039906D01*
X139749976Y-151907242D01*
X139701313Y-151746823D01*
X139689000Y-151621804D01*
X139689000Y-151138197D01*
X139701313Y-151013178D01*
X139749976Y-150852759D01*
X139828995Y-150704923D01*
X139935341Y-150575341D01*
X140064922Y-150468996D01*
X140080094Y-150460886D01*
X140212758Y-150389976D01*
X140373177Y-150341313D01*
X140540000Y-150324883D01*
X140706822Y-150341313D01*
X140706822Y-150341313D01*
G37*
G36*
X65706031Y-146464207D02*
G01*
X65856909Y-146509976D01*
X65904148Y-146524306D01*
X65970030Y-146559521D01*
X66086729Y-146621897D01*
X66246765Y-146753235D01*
X66378103Y-146913271D01*
X66378104Y-146913273D01*
X66475694Y-147095851D01*
X66475694Y-147095852D01*
X66475695Y-147095854D01*
X66535793Y-147293968D01*
X66551000Y-147448370D01*
X66551000Y-148551630D01*
X66535793Y-148706032D01*
X66511404Y-148786430D01*
X66475694Y-148904149D01*
X66442798Y-148965692D01*
X66378103Y-149086729D01*
X66246765Y-149246765D01*
X66086729Y-149378103D01*
X66025175Y-149411004D01*
X65904149Y-149475694D01*
X65904146Y-149475695D01*
X65706032Y-149535793D01*
X65500000Y-149556085D01*
X65293969Y-149535793D01*
X65095855Y-149475695D01*
X65095852Y-149475694D01*
X64974826Y-149411004D01*
X64913272Y-149378103D01*
X64753236Y-149246765D01*
X64621898Y-149086729D01*
X64557205Y-148965697D01*
X64524305Y-148904147D01*
X64464207Y-148706030D01*
X64449000Y-148551631D01*
X64449000Y-147448370D01*
X64464207Y-147293971D01*
X64464207Y-147293969D01*
X64524305Y-147095855D01*
X64524306Y-147095852D01*
X64559521Y-147029970D01*
X64621897Y-146913271D01*
X64753235Y-146753235D01*
X64913271Y-146621897D01*
X64999025Y-146576061D01*
X65095851Y-146524306D01*
X65143090Y-146509976D01*
X65293968Y-146464207D01*
X65500000Y-146443915D01*
X65706031Y-146464207D01*
X65706031Y-146464207D01*
G37*
G36*
X75846424Y-146462760D02*
G01*
X75846427Y-146462761D01*
X75846428Y-146462761D01*
X76025692Y-146517140D01*
X76025695Y-146517142D01*
X76025696Y-146517142D01*
X76190903Y-146605446D01*
X76335712Y-146724288D01*
X76454554Y-146869097D01*
X76523988Y-146999000D01*
X76542860Y-147034307D01*
X76572852Y-147133178D01*
X76597240Y-147213575D01*
X76611000Y-147353282D01*
X76611000Y-148646718D01*
X76597240Y-148786425D01*
X76597239Y-148786428D01*
X76597239Y-148786429D01*
X76542860Y-148965693D01*
X76542858Y-148965696D01*
X76542858Y-148965697D01*
X76454554Y-149130903D01*
X76335712Y-149275712D01*
X76190903Y-149394554D01*
X76039100Y-149475694D01*
X76025693Y-149482860D01*
X75846429Y-149537239D01*
X75846428Y-149537239D01*
X75846425Y-149537240D01*
X75660000Y-149555601D01*
X75473576Y-149537240D01*
X75473573Y-149537239D01*
X75473572Y-149537239D01*
X75294308Y-149482860D01*
X75280901Y-149475694D01*
X75129098Y-149394554D01*
X74984289Y-149275712D01*
X74865447Y-149130903D01*
X74777140Y-148965692D01*
X74722760Y-148786430D01*
X74709000Y-148646718D01*
X74709000Y-147353283D01*
X74722760Y-147213576D01*
X74722761Y-147213572D01*
X74777140Y-147034308D01*
X74810037Y-146972762D01*
X74865446Y-146869097D01*
X74984288Y-146724288D01*
X75129097Y-146605446D01*
X75294303Y-146517142D01*
X75294304Y-146517142D01*
X75294307Y-146517140D01*
X75473571Y-146462761D01*
X75473572Y-146462761D01*
X75473575Y-146462760D01*
X75660000Y-146444399D01*
X75846424Y-146462760D01*
X75846424Y-146462760D01*
G37*
G36*
X70766424Y-146462760D02*
G01*
X70766427Y-146462761D01*
X70766428Y-146462761D01*
X70945692Y-146517140D01*
X70945695Y-146517142D01*
X70945696Y-146517142D01*
X71110903Y-146605446D01*
X71255712Y-146724288D01*
X71374554Y-146869097D01*
X71443988Y-146999000D01*
X71462860Y-147034307D01*
X71492852Y-147133178D01*
X71517240Y-147213575D01*
X71531000Y-147353282D01*
X71531000Y-148646718D01*
X71517240Y-148786425D01*
X71517239Y-148786428D01*
X71517239Y-148786429D01*
X71462860Y-148965693D01*
X71462858Y-148965696D01*
X71462858Y-148965697D01*
X71374554Y-149130903D01*
X71255712Y-149275712D01*
X71110903Y-149394554D01*
X70959100Y-149475694D01*
X70945693Y-149482860D01*
X70766429Y-149537239D01*
X70766428Y-149537239D01*
X70766425Y-149537240D01*
X70580000Y-149555601D01*
X70393576Y-149537240D01*
X70393573Y-149537239D01*
X70393572Y-149537239D01*
X70214308Y-149482860D01*
X70200901Y-149475694D01*
X70049098Y-149394554D01*
X69904289Y-149275712D01*
X69785447Y-149130903D01*
X69697140Y-148965692D01*
X69642760Y-148786430D01*
X69629000Y-148646718D01*
X69629000Y-147353283D01*
X69642760Y-147213576D01*
X69642761Y-147213572D01*
X69697140Y-147034308D01*
X69730037Y-146972762D01*
X69785446Y-146869097D01*
X69904288Y-146724288D01*
X70049097Y-146605446D01*
X70214303Y-146517142D01*
X70214304Y-146517142D01*
X70214307Y-146517140D01*
X70393571Y-146462761D01*
X70393572Y-146462761D01*
X70393575Y-146462760D01*
X70580000Y-146444399D01*
X70766424Y-146462760D01*
X70766424Y-146462760D01*
G37*
G36*
X68226424Y-146462760D02*
G01*
X68226427Y-146462761D01*
X68226428Y-146462761D01*
X68405692Y-146517140D01*
X68405695Y-146517142D01*
X68405696Y-146517142D01*
X68570903Y-146605446D01*
X68715712Y-146724288D01*
X68834554Y-146869097D01*
X68903988Y-146999000D01*
X68922860Y-147034307D01*
X68952852Y-147133178D01*
X68977240Y-147213575D01*
X68991000Y-147353282D01*
X68991000Y-148646718D01*
X68977240Y-148786425D01*
X68977239Y-148786428D01*
X68977239Y-148786429D01*
X68922860Y-148965693D01*
X68922858Y-148965696D01*
X68922858Y-148965697D01*
X68834554Y-149130903D01*
X68715712Y-149275712D01*
X68570903Y-149394554D01*
X68419100Y-149475694D01*
X68405693Y-149482860D01*
X68226429Y-149537239D01*
X68226428Y-149537239D01*
X68226425Y-149537240D01*
X68040000Y-149555601D01*
X67853576Y-149537240D01*
X67853573Y-149537239D01*
X67853572Y-149537239D01*
X67674308Y-149482860D01*
X67660901Y-149475694D01*
X67509098Y-149394554D01*
X67364289Y-149275712D01*
X67245447Y-149130903D01*
X67157140Y-148965692D01*
X67102760Y-148786430D01*
X67089000Y-148646718D01*
X67089000Y-147353283D01*
X67102760Y-147213576D01*
X67102761Y-147213572D01*
X67157140Y-147034308D01*
X67190037Y-146972762D01*
X67245446Y-146869097D01*
X67364288Y-146724288D01*
X67509097Y-146605446D01*
X67674303Y-146517142D01*
X67674304Y-146517142D01*
X67674307Y-146517140D01*
X67853571Y-146462761D01*
X67853572Y-146462761D01*
X67853575Y-146462760D01*
X68040000Y-146444399D01*
X68226424Y-146462760D01*
X68226424Y-146462760D01*
G37*
G36*
X73306424Y-146462760D02*
G01*
X73306427Y-146462761D01*
X73306428Y-146462761D01*
X73485692Y-146517140D01*
X73485695Y-146517142D01*
X73485696Y-146517142D01*
X73650903Y-146605446D01*
X73795712Y-146724288D01*
X73914554Y-146869097D01*
X73983988Y-146999000D01*
X74002860Y-147034307D01*
X74032852Y-147133178D01*
X74057240Y-147213575D01*
X74071000Y-147353282D01*
X74071000Y-148646718D01*
X74057240Y-148786425D01*
X74057239Y-148786428D01*
X74057239Y-148786429D01*
X74002860Y-148965693D01*
X74002858Y-148965696D01*
X74002858Y-148965697D01*
X73914554Y-149130903D01*
X73795712Y-149275712D01*
X73650903Y-149394554D01*
X73499100Y-149475694D01*
X73485693Y-149482860D01*
X73306429Y-149537239D01*
X73306428Y-149537239D01*
X73306425Y-149537240D01*
X73120000Y-149555601D01*
X72933576Y-149537240D01*
X72933573Y-149537239D01*
X72933572Y-149537239D01*
X72754308Y-149482860D01*
X72740901Y-149475694D01*
X72589098Y-149394554D01*
X72444289Y-149275712D01*
X72325447Y-149130903D01*
X72237140Y-148965692D01*
X72182760Y-148786430D01*
X72169000Y-148646718D01*
X72169000Y-147353283D01*
X72182760Y-147213576D01*
X72182761Y-147213572D01*
X72237140Y-147034308D01*
X72270037Y-146972762D01*
X72325446Y-146869097D01*
X72444288Y-146724288D01*
X72589097Y-146605446D01*
X72754303Y-146517142D01*
X72754304Y-146517142D01*
X72754307Y-146517140D01*
X72933571Y-146462761D01*
X72933572Y-146462761D01*
X72933575Y-146462760D01*
X73120000Y-146444399D01*
X73306424Y-146462760D01*
X73306424Y-146462760D01*
G37*
G36*
X78386424Y-146462760D02*
G01*
X78386427Y-146462761D01*
X78386428Y-146462761D01*
X78565692Y-146517140D01*
X78565695Y-146517142D01*
X78565696Y-146517142D01*
X78730903Y-146605446D01*
X78875712Y-146724288D01*
X78994554Y-146869097D01*
X79063988Y-146999000D01*
X79082860Y-147034307D01*
X79112852Y-147133178D01*
X79137240Y-147213575D01*
X79151000Y-147353282D01*
X79151000Y-148646718D01*
X79137240Y-148786425D01*
X79137239Y-148786428D01*
X79137239Y-148786429D01*
X79082860Y-148965693D01*
X79082858Y-148965696D01*
X79082858Y-148965697D01*
X78994554Y-149130903D01*
X78875712Y-149275712D01*
X78730903Y-149394554D01*
X78579100Y-149475694D01*
X78565693Y-149482860D01*
X78386429Y-149537239D01*
X78386428Y-149537239D01*
X78386425Y-149537240D01*
X78200000Y-149555601D01*
X78013576Y-149537240D01*
X78013573Y-149537239D01*
X78013572Y-149537239D01*
X77834308Y-149482860D01*
X77820901Y-149475694D01*
X77669098Y-149394554D01*
X77524289Y-149275712D01*
X77405447Y-149130903D01*
X77317140Y-148965692D01*
X77262760Y-148786430D01*
X77249000Y-148646718D01*
X77249000Y-147353283D01*
X77262760Y-147213576D01*
X77262761Y-147213572D01*
X77317140Y-147034308D01*
X77350037Y-146972762D01*
X77405446Y-146869097D01*
X77524288Y-146724288D01*
X77669097Y-146605446D01*
X77834303Y-146517142D01*
X77834304Y-146517142D01*
X77834307Y-146517140D01*
X78013571Y-146462761D01*
X78013572Y-146462761D01*
X78013575Y-146462760D01*
X78200000Y-146444399D01*
X78386424Y-146462760D01*
X78386424Y-146462760D01*
G37*
G36*
X80926424Y-146462760D02*
G01*
X80926427Y-146462761D01*
X80926428Y-146462761D01*
X81105692Y-146517140D01*
X81105695Y-146517142D01*
X81105696Y-146517142D01*
X81270903Y-146605446D01*
X81415712Y-146724288D01*
X81534554Y-146869097D01*
X81603988Y-146999000D01*
X81622860Y-147034307D01*
X81652852Y-147133178D01*
X81677240Y-147213575D01*
X81691000Y-147353282D01*
X81691000Y-148646718D01*
X81677240Y-148786425D01*
X81677239Y-148786428D01*
X81677239Y-148786429D01*
X81622860Y-148965693D01*
X81622858Y-148965696D01*
X81622858Y-148965697D01*
X81534554Y-149130903D01*
X81415712Y-149275712D01*
X81270903Y-149394554D01*
X81119100Y-149475694D01*
X81105693Y-149482860D01*
X80926429Y-149537239D01*
X80926428Y-149537239D01*
X80926425Y-149537240D01*
X80740000Y-149555601D01*
X80553576Y-149537240D01*
X80553573Y-149537239D01*
X80553572Y-149537239D01*
X80374308Y-149482860D01*
X80360901Y-149475694D01*
X80209098Y-149394554D01*
X80064289Y-149275712D01*
X79945447Y-149130903D01*
X79857140Y-148965692D01*
X79802760Y-148786430D01*
X79789000Y-148646718D01*
X79789000Y-147353283D01*
X79802760Y-147213576D01*
X79802761Y-147213572D01*
X79857140Y-147034308D01*
X79890037Y-146972762D01*
X79945446Y-146869097D01*
X80064288Y-146724288D01*
X80209097Y-146605446D01*
X80374303Y-146517142D01*
X80374304Y-146517142D01*
X80374307Y-146517140D01*
X80553571Y-146462761D01*
X80553572Y-146462761D01*
X80553575Y-146462760D01*
X80740000Y-146444399D01*
X80926424Y-146462760D01*
X80926424Y-146462760D01*
G37*
G36*
X88546424Y-146462760D02*
G01*
X88546427Y-146462761D01*
X88546428Y-146462761D01*
X88725692Y-146517140D01*
X88725695Y-146517142D01*
X88725696Y-146517142D01*
X88890903Y-146605446D01*
X89035712Y-146724288D01*
X89154554Y-146869097D01*
X89223988Y-146999000D01*
X89242860Y-147034307D01*
X89272852Y-147133178D01*
X89297240Y-147213575D01*
X89311000Y-147353282D01*
X89311000Y-148646718D01*
X89297240Y-148786425D01*
X89297239Y-148786428D01*
X89297239Y-148786429D01*
X89242860Y-148965693D01*
X89242858Y-148965696D01*
X89242858Y-148965697D01*
X89154554Y-149130903D01*
X89035712Y-149275712D01*
X88890903Y-149394554D01*
X88739100Y-149475694D01*
X88725693Y-149482860D01*
X88546429Y-149537239D01*
X88546428Y-149537239D01*
X88546425Y-149537240D01*
X88360000Y-149555601D01*
X88173576Y-149537240D01*
X88173573Y-149537239D01*
X88173572Y-149537239D01*
X87994308Y-149482860D01*
X87980901Y-149475694D01*
X87829098Y-149394554D01*
X87684289Y-149275712D01*
X87565447Y-149130903D01*
X87477140Y-148965692D01*
X87422760Y-148786430D01*
X87409000Y-148646718D01*
X87409000Y-147353283D01*
X87422760Y-147213576D01*
X87422761Y-147213572D01*
X87477140Y-147034308D01*
X87510037Y-146972762D01*
X87565446Y-146869097D01*
X87684288Y-146724288D01*
X87829097Y-146605446D01*
X87994303Y-146517142D01*
X87994304Y-146517142D01*
X87994307Y-146517140D01*
X88173571Y-146462761D01*
X88173572Y-146462761D01*
X88173575Y-146462760D01*
X88360000Y-146444399D01*
X88546424Y-146462760D01*
X88546424Y-146462760D01*
G37*
G36*
X83466424Y-146462760D02*
G01*
X83466427Y-146462761D01*
X83466428Y-146462761D01*
X83645692Y-146517140D01*
X83645695Y-146517142D01*
X83645696Y-146517142D01*
X83810903Y-146605446D01*
X83955712Y-146724288D01*
X84074554Y-146869097D01*
X84143988Y-146999000D01*
X84162860Y-147034307D01*
X84192852Y-147133178D01*
X84217240Y-147213575D01*
X84231000Y-147353282D01*
X84231000Y-148646718D01*
X84217240Y-148786425D01*
X84217239Y-148786428D01*
X84217239Y-148786429D01*
X84162860Y-148965693D01*
X84162858Y-148965696D01*
X84162858Y-148965697D01*
X84074554Y-149130903D01*
X83955712Y-149275712D01*
X83810903Y-149394554D01*
X83659100Y-149475694D01*
X83645693Y-149482860D01*
X83466429Y-149537239D01*
X83466428Y-149537239D01*
X83466425Y-149537240D01*
X83280000Y-149555601D01*
X83093576Y-149537240D01*
X83093573Y-149537239D01*
X83093572Y-149537239D01*
X82914308Y-149482860D01*
X82900901Y-149475694D01*
X82749098Y-149394554D01*
X82604289Y-149275712D01*
X82485447Y-149130903D01*
X82397140Y-148965692D01*
X82342760Y-148786430D01*
X82329000Y-148646718D01*
X82329000Y-147353283D01*
X82342760Y-147213576D01*
X82342761Y-147213572D01*
X82397140Y-147034308D01*
X82430037Y-146972762D01*
X82485446Y-146869097D01*
X82604288Y-146724288D01*
X82749097Y-146605446D01*
X82914303Y-146517142D01*
X82914304Y-146517142D01*
X82914307Y-146517140D01*
X83093571Y-146462761D01*
X83093572Y-146462761D01*
X83093575Y-146462760D01*
X83280000Y-146444399D01*
X83466424Y-146462760D01*
X83466424Y-146462760D01*
G37*
G36*
X98706424Y-146462760D02*
G01*
X98706427Y-146462761D01*
X98706428Y-146462761D01*
X98885692Y-146517140D01*
X98885695Y-146517142D01*
X98885696Y-146517142D01*
X99050903Y-146605446D01*
X99195712Y-146724288D01*
X99314554Y-146869097D01*
X99383988Y-146999000D01*
X99402860Y-147034307D01*
X99432852Y-147133178D01*
X99457240Y-147213575D01*
X99471000Y-147353282D01*
X99471000Y-148646718D01*
X99457240Y-148786425D01*
X99457239Y-148786428D01*
X99457239Y-148786429D01*
X99402860Y-148965693D01*
X99402858Y-148965696D01*
X99402858Y-148965697D01*
X99314554Y-149130903D01*
X99195712Y-149275712D01*
X99050903Y-149394554D01*
X98899100Y-149475694D01*
X98885693Y-149482860D01*
X98706429Y-149537239D01*
X98706428Y-149537239D01*
X98706425Y-149537240D01*
X98520000Y-149555601D01*
X98333576Y-149537240D01*
X98333573Y-149537239D01*
X98333572Y-149537239D01*
X98154308Y-149482860D01*
X98140901Y-149475694D01*
X97989098Y-149394554D01*
X97844289Y-149275712D01*
X97725447Y-149130903D01*
X97637140Y-148965692D01*
X97582760Y-148786430D01*
X97569000Y-148646718D01*
X97569000Y-147353283D01*
X97582760Y-147213576D01*
X97582761Y-147213572D01*
X97637140Y-147034308D01*
X97670037Y-146972762D01*
X97725446Y-146869097D01*
X97844288Y-146724288D01*
X97989097Y-146605446D01*
X98154303Y-146517142D01*
X98154304Y-146517142D01*
X98154307Y-146517140D01*
X98333571Y-146462761D01*
X98333572Y-146462761D01*
X98333575Y-146462760D01*
X98520000Y-146444399D01*
X98706424Y-146462760D01*
X98706424Y-146462760D01*
G37*
G36*
X96166424Y-146462760D02*
G01*
X96166427Y-146462761D01*
X96166428Y-146462761D01*
X96345692Y-146517140D01*
X96345695Y-146517142D01*
X96345696Y-146517142D01*
X96510903Y-146605446D01*
X96655712Y-146724288D01*
X96774554Y-146869097D01*
X96843988Y-146999000D01*
X96862860Y-147034307D01*
X96892852Y-147133178D01*
X96917240Y-147213575D01*
X96931000Y-147353282D01*
X96931000Y-148646718D01*
X96917240Y-148786425D01*
X96917239Y-148786428D01*
X96917239Y-148786429D01*
X96862860Y-148965693D01*
X96862858Y-148965696D01*
X96862858Y-148965697D01*
X96774554Y-149130903D01*
X96655712Y-149275712D01*
X96510903Y-149394554D01*
X96359100Y-149475694D01*
X96345693Y-149482860D01*
X96166429Y-149537239D01*
X96166428Y-149537239D01*
X96166425Y-149537240D01*
X95980000Y-149555601D01*
X95793576Y-149537240D01*
X95793573Y-149537239D01*
X95793572Y-149537239D01*
X95614308Y-149482860D01*
X95600901Y-149475694D01*
X95449098Y-149394554D01*
X95304289Y-149275712D01*
X95185447Y-149130903D01*
X95097140Y-148965692D01*
X95042760Y-148786430D01*
X95029000Y-148646718D01*
X95029000Y-147353283D01*
X95042760Y-147213576D01*
X95042761Y-147213572D01*
X95097140Y-147034308D01*
X95130037Y-146972762D01*
X95185446Y-146869097D01*
X95304288Y-146724288D01*
X95449097Y-146605446D01*
X95614303Y-146517142D01*
X95614304Y-146517142D01*
X95614307Y-146517140D01*
X95793571Y-146462761D01*
X95793572Y-146462761D01*
X95793575Y-146462760D01*
X95980000Y-146444399D01*
X96166424Y-146462760D01*
X96166424Y-146462760D01*
G37*
G36*
X91086424Y-146462760D02*
G01*
X91086427Y-146462761D01*
X91086428Y-146462761D01*
X91265692Y-146517140D01*
X91265695Y-146517142D01*
X91265696Y-146517142D01*
X91430903Y-146605446D01*
X91575712Y-146724288D01*
X91694554Y-146869097D01*
X91763988Y-146999000D01*
X91782860Y-147034307D01*
X91812852Y-147133178D01*
X91837240Y-147213575D01*
X91851000Y-147353282D01*
X91851000Y-148646718D01*
X91837240Y-148786425D01*
X91837239Y-148786428D01*
X91837239Y-148786429D01*
X91782860Y-148965693D01*
X91782858Y-148965696D01*
X91782858Y-148965697D01*
X91694554Y-149130903D01*
X91575712Y-149275712D01*
X91430903Y-149394554D01*
X91279100Y-149475694D01*
X91265693Y-149482860D01*
X91086429Y-149537239D01*
X91086428Y-149537239D01*
X91086425Y-149537240D01*
X90900000Y-149555601D01*
X90713576Y-149537240D01*
X90713573Y-149537239D01*
X90713572Y-149537239D01*
X90534308Y-149482860D01*
X90520901Y-149475694D01*
X90369098Y-149394554D01*
X90224289Y-149275712D01*
X90105447Y-149130903D01*
X90017140Y-148965692D01*
X89962760Y-148786430D01*
X89949000Y-148646718D01*
X89949000Y-147353283D01*
X89962760Y-147213576D01*
X89962761Y-147213572D01*
X90017140Y-147034308D01*
X90050037Y-146972762D01*
X90105446Y-146869097D01*
X90224288Y-146724288D01*
X90369097Y-146605446D01*
X90534303Y-146517142D01*
X90534304Y-146517142D01*
X90534307Y-146517140D01*
X90713571Y-146462761D01*
X90713572Y-146462761D01*
X90713575Y-146462760D01*
X90900000Y-146444399D01*
X91086424Y-146462760D01*
X91086424Y-146462760D01*
G37*
G36*
X93626424Y-146462760D02*
G01*
X93626427Y-146462761D01*
X93626428Y-146462761D01*
X93805692Y-146517140D01*
X93805695Y-146517142D01*
X93805696Y-146517142D01*
X93970903Y-146605446D01*
X94115712Y-146724288D01*
X94234554Y-146869097D01*
X94303988Y-146999000D01*
X94322860Y-147034307D01*
X94352852Y-147133178D01*
X94377240Y-147213575D01*
X94391000Y-147353282D01*
X94391000Y-148646718D01*
X94377240Y-148786425D01*
X94377239Y-148786428D01*
X94377239Y-148786429D01*
X94322860Y-148965693D01*
X94322858Y-148965696D01*
X94322858Y-148965697D01*
X94234554Y-149130903D01*
X94115712Y-149275712D01*
X93970903Y-149394554D01*
X93819100Y-149475694D01*
X93805693Y-149482860D01*
X93626429Y-149537239D01*
X93626428Y-149537239D01*
X93626425Y-149537240D01*
X93440000Y-149555601D01*
X93253576Y-149537240D01*
X93253573Y-149537239D01*
X93253572Y-149537239D01*
X93074308Y-149482860D01*
X93060901Y-149475694D01*
X92909098Y-149394554D01*
X92764289Y-149275712D01*
X92645447Y-149130903D01*
X92557140Y-148965692D01*
X92502760Y-148786430D01*
X92489000Y-148646718D01*
X92489000Y-147353283D01*
X92502760Y-147213576D01*
X92502761Y-147213572D01*
X92557140Y-147034308D01*
X92590037Y-146972762D01*
X92645446Y-146869097D01*
X92764288Y-146724288D01*
X92909097Y-146605446D01*
X93074303Y-146517142D01*
X93074304Y-146517142D01*
X93074307Y-146517140D01*
X93253571Y-146462761D01*
X93253572Y-146462761D01*
X93253575Y-146462760D01*
X93440000Y-146444399D01*
X93626424Y-146462760D01*
X93626424Y-146462760D01*
G37*
G36*
X85986822Y-146461313D02*
G01*
X86147241Y-146509976D01*
X86295077Y-146588995D01*
X86424659Y-146695341D01*
X86531004Y-146824922D01*
X86531005Y-146824924D01*
X86610024Y-146972758D01*
X86610024Y-146972759D01*
X86610025Y-146972761D01*
X86619083Y-147002620D01*
X86658687Y-147133177D01*
X86671000Y-147258196D01*
X86671000Y-148741804D01*
X86658687Y-148866823D01*
X86610024Y-149027242D01*
X86578227Y-149086730D01*
X86531004Y-149175078D01*
X86424659Y-149304659D01*
X86295078Y-149411004D01*
X86295076Y-149411005D01*
X86147242Y-149490024D01*
X85986823Y-149538687D01*
X85820000Y-149555117D01*
X85653178Y-149538687D01*
X85492759Y-149490024D01*
X85344925Y-149411005D01*
X85344923Y-149411004D01*
X85215342Y-149304659D01*
X85108997Y-149175078D01*
X85061774Y-149086730D01*
X85029977Y-149027242D01*
X84981314Y-148866823D01*
X84969001Y-148741804D01*
X84969000Y-147258197D01*
X84981313Y-147133178D01*
X85029976Y-146972759D01*
X85108995Y-146824923D01*
X85215341Y-146695341D01*
X85344922Y-146588996D01*
X85360094Y-146580886D01*
X85492758Y-146509976D01*
X85653177Y-146461313D01*
X85820000Y-146444883D01*
X85986822Y-146461313D01*
X85986822Y-146461313D01*
G37*
G36*
X157201000Y-149101000D02*
G01*
X155099000Y-149101000D01*
X155099000Y-146999000D01*
X157201000Y-146999000D01*
X157201000Y-149101000D01*
X157201000Y-149101000D01*
G37*
G36*
X125736719Y-145463520D02*
G01*
X125925880Y-145520901D01*
X125925883Y-145520902D01*
X126018333Y-145570318D01*
X126100212Y-145614083D01*
X126253015Y-145739485D01*
X126378417Y-145892288D01*
X126471599Y-146066619D01*
X126528980Y-146255780D01*
X126543500Y-146403206D01*
X126543500Y-147596794D01*
X126528980Y-147744220D01*
X126471599Y-147933381D01*
X126378417Y-148107712D01*
X126253015Y-148260515D01*
X126100212Y-148385917D01*
X125925881Y-148479099D01*
X125736720Y-148536480D01*
X125540000Y-148555855D01*
X125343281Y-148536480D01*
X125154120Y-148479099D01*
X124979789Y-148385917D01*
X124826986Y-148260515D01*
X124701584Y-148107712D01*
X124608402Y-147933381D01*
X124551021Y-147744220D01*
X124551020Y-147744218D01*
X124536500Y-147596795D01*
X124536500Y-146403206D01*
X124551020Y-146255783D01*
X124551020Y-146255781D01*
X124608401Y-146066620D01*
X124608402Y-146066617D01*
X124657818Y-145974167D01*
X124701583Y-145892288D01*
X124826985Y-145739485D01*
X124979788Y-145614083D01*
X125154119Y-145520901D01*
X125343280Y-145463520D01*
X125540000Y-145444145D01*
X125736719Y-145463520D01*
X125736719Y-145463520D01*
G37*
G36*
X128276719Y-145463520D02*
G01*
X128465880Y-145520901D01*
X128465883Y-145520902D01*
X128558333Y-145570318D01*
X128640212Y-145614083D01*
X128793015Y-145739485D01*
X128918417Y-145892288D01*
X129011599Y-146066619D01*
X129068980Y-146255780D01*
X129083500Y-146403206D01*
X129083500Y-147596794D01*
X129068980Y-147744220D01*
X129011599Y-147933381D01*
X128918417Y-148107712D01*
X128793015Y-148260515D01*
X128640212Y-148385917D01*
X128465881Y-148479099D01*
X128276720Y-148536480D01*
X128080000Y-148555855D01*
X127883281Y-148536480D01*
X127694120Y-148479099D01*
X127519789Y-148385917D01*
X127366986Y-148260515D01*
X127241584Y-148107712D01*
X127148402Y-147933381D01*
X127091021Y-147744220D01*
X127091020Y-147744218D01*
X127076500Y-147596795D01*
X127076500Y-146403206D01*
X127091020Y-146255783D01*
X127091020Y-146255781D01*
X127148401Y-146066620D01*
X127148402Y-146066617D01*
X127197818Y-145974167D01*
X127241583Y-145892288D01*
X127366985Y-145739485D01*
X127519788Y-145614083D01*
X127694119Y-145520901D01*
X127883280Y-145463520D01*
X128080000Y-145444145D01*
X128276719Y-145463520D01*
X128276719Y-145463520D01*
G37*
G36*
X117276719Y-145463520D02*
G01*
X117465880Y-145520901D01*
X117465883Y-145520902D01*
X117558333Y-145570318D01*
X117640212Y-145614083D01*
X117793015Y-145739485D01*
X117918417Y-145892288D01*
X118011599Y-146066619D01*
X118068980Y-146255780D01*
X118083500Y-146403206D01*
X118083500Y-147596794D01*
X118068980Y-147744220D01*
X118011599Y-147933381D01*
X117918417Y-148107712D01*
X117793015Y-148260515D01*
X117640212Y-148385917D01*
X117465881Y-148479099D01*
X117276720Y-148536480D01*
X117080000Y-148555855D01*
X116883281Y-148536480D01*
X116694120Y-148479099D01*
X116519789Y-148385917D01*
X116366986Y-148260515D01*
X116241584Y-148107712D01*
X116148402Y-147933381D01*
X116091021Y-147744220D01*
X116091020Y-147744218D01*
X116076500Y-147596795D01*
X116076500Y-146403206D01*
X116091020Y-146255783D01*
X116091020Y-146255781D01*
X116148401Y-146066620D01*
X116148402Y-146066617D01*
X116197818Y-145974167D01*
X116241583Y-145892288D01*
X116366985Y-145739485D01*
X116519788Y-145614083D01*
X116694119Y-145520901D01*
X116883280Y-145463520D01*
X117080000Y-145444145D01*
X117276719Y-145463520D01*
X117276719Y-145463520D01*
G37*
G36*
X114736719Y-145463520D02*
G01*
X114925880Y-145520901D01*
X114925883Y-145520902D01*
X115018333Y-145570318D01*
X115100212Y-145614083D01*
X115253015Y-145739485D01*
X115378417Y-145892288D01*
X115471599Y-146066619D01*
X115528980Y-146255780D01*
X115543500Y-146403206D01*
X115543500Y-147596794D01*
X115528980Y-147744220D01*
X115471599Y-147933381D01*
X115378417Y-148107712D01*
X115253015Y-148260515D01*
X115100212Y-148385917D01*
X114925881Y-148479099D01*
X114736720Y-148536480D01*
X114540000Y-148555855D01*
X114343281Y-148536480D01*
X114154120Y-148479099D01*
X113979789Y-148385917D01*
X113826986Y-148260515D01*
X113701584Y-148107712D01*
X113608402Y-147933381D01*
X113551021Y-147744220D01*
X113551020Y-147744218D01*
X113536500Y-147596795D01*
X113536500Y-146403206D01*
X113551020Y-146255783D01*
X113551020Y-146255781D01*
X113608401Y-146066620D01*
X113608402Y-146066617D01*
X113657818Y-145974167D01*
X113701583Y-145892288D01*
X113826985Y-145739485D01*
X113979788Y-145614083D01*
X114154119Y-145520901D01*
X114343280Y-145463520D01*
X114540000Y-145444145D01*
X114736719Y-145463520D01*
X114736719Y-145463520D01*
G37*
G36*
X136736719Y-145463520D02*
G01*
X136925880Y-145520901D01*
X136925883Y-145520902D01*
X137018333Y-145570318D01*
X137100212Y-145614083D01*
X137253015Y-145739485D01*
X137378417Y-145892288D01*
X137471599Y-146066619D01*
X137528980Y-146255780D01*
X137543500Y-146403206D01*
X137543500Y-147596794D01*
X137528980Y-147744220D01*
X137471599Y-147933381D01*
X137378417Y-148107712D01*
X137253015Y-148260515D01*
X137100212Y-148385917D01*
X136925881Y-148479099D01*
X136736720Y-148536480D01*
X136540000Y-148555855D01*
X136343281Y-148536480D01*
X136154120Y-148479099D01*
X135979789Y-148385917D01*
X135826986Y-148260515D01*
X135701584Y-148107712D01*
X135608402Y-147933381D01*
X135551021Y-147744220D01*
X135551020Y-147744218D01*
X135536500Y-147596795D01*
X135536500Y-146403206D01*
X135551020Y-146255783D01*
X135551020Y-146255781D01*
X135608401Y-146066620D01*
X135608402Y-146066617D01*
X135657818Y-145974167D01*
X135701583Y-145892288D01*
X135826985Y-145739485D01*
X135979788Y-145614083D01*
X136154119Y-145520901D01*
X136343280Y-145463520D01*
X136540000Y-145444145D01*
X136736719Y-145463520D01*
X136736719Y-145463520D01*
G37*
G36*
X139276719Y-145463520D02*
G01*
X139465880Y-145520901D01*
X139465883Y-145520902D01*
X139558333Y-145570318D01*
X139640212Y-145614083D01*
X139793015Y-145739485D01*
X139918417Y-145892288D01*
X140011599Y-146066619D01*
X140068980Y-146255780D01*
X140083500Y-146403206D01*
X140083500Y-147596794D01*
X140068980Y-147744220D01*
X140011599Y-147933381D01*
X139918417Y-148107712D01*
X139793015Y-148260515D01*
X139640212Y-148385917D01*
X139465881Y-148479099D01*
X139276720Y-148536480D01*
X139080000Y-148555855D01*
X138883281Y-148536480D01*
X138694120Y-148479099D01*
X138519789Y-148385917D01*
X138366986Y-148260515D01*
X138241584Y-148107712D01*
X138148402Y-147933381D01*
X138091021Y-147744220D01*
X138091020Y-147744218D01*
X138076500Y-147596795D01*
X138076500Y-146403206D01*
X138091020Y-146255783D01*
X138091020Y-146255781D01*
X138148401Y-146066620D01*
X138148402Y-146066617D01*
X138197818Y-145974167D01*
X138241583Y-145892288D01*
X138366985Y-145739485D01*
X138519788Y-145614083D01*
X138694119Y-145520901D01*
X138883280Y-145463520D01*
X139080000Y-145444145D01*
X139276719Y-145463520D01*
X139276719Y-145463520D01*
G37*
G36*
X49276719Y-145463520D02*
G01*
X49465880Y-145520901D01*
X49465883Y-145520902D01*
X49558333Y-145570318D01*
X49640212Y-145614083D01*
X49793015Y-145739485D01*
X49918417Y-145892288D01*
X50011599Y-146066619D01*
X50068980Y-146255780D01*
X50083500Y-146403206D01*
X50083500Y-147596794D01*
X50068980Y-147744220D01*
X50011599Y-147933381D01*
X49918417Y-148107712D01*
X49793015Y-148260515D01*
X49640212Y-148385917D01*
X49465881Y-148479099D01*
X49276720Y-148536480D01*
X49080000Y-148555855D01*
X48883281Y-148536480D01*
X48694120Y-148479099D01*
X48519789Y-148385917D01*
X48366986Y-148260515D01*
X48241584Y-148107712D01*
X48148402Y-147933381D01*
X48091021Y-147744220D01*
X48091020Y-147744218D01*
X48076500Y-147596795D01*
X48076500Y-146403206D01*
X48091020Y-146255783D01*
X48091020Y-146255781D01*
X48148401Y-146066620D01*
X48148402Y-146066617D01*
X48197818Y-145974167D01*
X48241583Y-145892288D01*
X48366985Y-145739485D01*
X48519788Y-145614083D01*
X48694119Y-145520901D01*
X48883280Y-145463520D01*
X49080000Y-145444145D01*
X49276719Y-145463520D01*
X49276719Y-145463520D01*
G37*
G36*
X46736719Y-145463520D02*
G01*
X46925880Y-145520901D01*
X46925883Y-145520902D01*
X47018333Y-145570318D01*
X47100212Y-145614083D01*
X47253015Y-145739485D01*
X47378417Y-145892288D01*
X47471599Y-146066619D01*
X47528980Y-146255780D01*
X47543500Y-146403206D01*
X47543500Y-147596794D01*
X47528980Y-147744220D01*
X47471599Y-147933381D01*
X47378417Y-148107712D01*
X47253015Y-148260515D01*
X47100212Y-148385917D01*
X46925881Y-148479099D01*
X46736720Y-148536480D01*
X46540000Y-148555855D01*
X46343281Y-148536480D01*
X46154120Y-148479099D01*
X45979789Y-148385917D01*
X45826986Y-148260515D01*
X45701584Y-148107712D01*
X45608402Y-147933381D01*
X45551021Y-147744220D01*
X45551020Y-147744218D01*
X45536500Y-147596795D01*
X45536500Y-146403206D01*
X45551020Y-146255783D01*
X45551020Y-146255781D01*
X45608401Y-146066620D01*
X45608402Y-146066617D01*
X45657818Y-145974167D01*
X45701583Y-145892288D01*
X45826985Y-145739485D01*
X45979788Y-145614083D01*
X46154119Y-145520901D01*
X46343280Y-145463520D01*
X46540000Y-145444145D01*
X46736719Y-145463520D01*
X46736719Y-145463520D01*
G37*
G36*
X45003500Y-148551000D02*
G01*
X42996500Y-148551000D01*
X42996500Y-145449000D01*
X45003500Y-145449000D01*
X45003500Y-148551000D01*
X45003500Y-148551000D01*
G37*
G36*
X135003500Y-148551000D02*
G01*
X132996500Y-148551000D01*
X132996500Y-145449000D01*
X135003500Y-145449000D01*
X135003500Y-148551000D01*
X135003500Y-148551000D01*
G37*
G36*
X124003500Y-148551000D02*
G01*
X121996500Y-148551000D01*
X121996500Y-145449000D01*
X124003500Y-145449000D01*
X124003500Y-148551000D01*
X124003500Y-148551000D01*
G37*
G36*
X113003500Y-148551000D02*
G01*
X110996500Y-148551000D01*
X110996500Y-145449000D01*
X113003500Y-145449000D01*
X113003500Y-148551000D01*
X113003500Y-148551000D01*
G37*
G36*
X65686424Y-138842760D02*
G01*
X65686427Y-138842761D01*
X65686428Y-138842761D01*
X65865692Y-138897140D01*
X65865695Y-138897142D01*
X65865696Y-138897142D01*
X66030903Y-138985446D01*
X66175712Y-139104288D01*
X66294554Y-139249097D01*
X66364986Y-139380867D01*
X66382860Y-139414307D01*
X66437239Y-139593571D01*
X66437240Y-139593575D01*
X66451000Y-139733282D01*
X66451000Y-141026718D01*
X66437240Y-141166425D01*
X66437239Y-141166428D01*
X66437239Y-141166429D01*
X66382860Y-141345693D01*
X66382858Y-141345696D01*
X66382858Y-141345697D01*
X66294554Y-141510903D01*
X66175712Y-141655712D01*
X66030903Y-141774554D01*
X65865697Y-141862858D01*
X65865693Y-141862860D01*
X65686429Y-141917239D01*
X65686428Y-141917239D01*
X65686425Y-141917240D01*
X65500000Y-141935601D01*
X65313576Y-141917240D01*
X65313573Y-141917239D01*
X65313572Y-141917239D01*
X65134308Y-141862860D01*
X65134304Y-141862858D01*
X64969098Y-141774554D01*
X64824289Y-141655712D01*
X64705447Y-141510903D01*
X64617140Y-141345692D01*
X64562760Y-141166430D01*
X64549000Y-141026718D01*
X64549000Y-139733283D01*
X64562760Y-139593576D01*
X64562761Y-139593572D01*
X64617140Y-139414308D01*
X64617143Y-139414303D01*
X64705446Y-139249097D01*
X64824288Y-139104288D01*
X64969097Y-138985446D01*
X65134303Y-138897142D01*
X65134304Y-138897142D01*
X65134307Y-138897140D01*
X65313571Y-138842761D01*
X65313572Y-138842761D01*
X65313575Y-138842760D01*
X65500000Y-138824399D01*
X65686424Y-138842760D01*
X65686424Y-138842760D01*
G37*
G36*
X98706424Y-138842760D02*
G01*
X98706427Y-138842761D01*
X98706428Y-138842761D01*
X98885692Y-138897140D01*
X98885695Y-138897142D01*
X98885696Y-138897142D01*
X99050903Y-138985446D01*
X99195712Y-139104288D01*
X99314554Y-139249097D01*
X99384986Y-139380867D01*
X99402860Y-139414307D01*
X99457239Y-139593571D01*
X99457240Y-139593575D01*
X99471000Y-139733282D01*
X99471000Y-141026718D01*
X99457240Y-141166425D01*
X99457239Y-141166428D01*
X99457239Y-141166429D01*
X99402860Y-141345693D01*
X99402858Y-141345696D01*
X99402858Y-141345697D01*
X99314554Y-141510903D01*
X99195712Y-141655712D01*
X99050903Y-141774554D01*
X98885697Y-141862858D01*
X98885693Y-141862860D01*
X98706429Y-141917239D01*
X98706428Y-141917239D01*
X98706425Y-141917240D01*
X98520000Y-141935601D01*
X98333576Y-141917240D01*
X98333573Y-141917239D01*
X98333572Y-141917239D01*
X98154308Y-141862860D01*
X98154304Y-141862858D01*
X97989098Y-141774554D01*
X97844289Y-141655712D01*
X97725447Y-141510903D01*
X97637140Y-141345692D01*
X97582760Y-141166430D01*
X97569000Y-141026718D01*
X97569000Y-139733283D01*
X97582760Y-139593576D01*
X97582761Y-139593572D01*
X97637140Y-139414308D01*
X97637143Y-139414303D01*
X97725446Y-139249097D01*
X97844288Y-139104288D01*
X97989097Y-138985446D01*
X98154303Y-138897142D01*
X98154304Y-138897142D01*
X98154307Y-138897140D01*
X98333571Y-138842761D01*
X98333572Y-138842761D01*
X98333575Y-138842760D01*
X98520000Y-138824399D01*
X98706424Y-138842760D01*
X98706424Y-138842760D01*
G37*
G36*
X93626424Y-138842760D02*
G01*
X93626427Y-138842761D01*
X93626428Y-138842761D01*
X93805692Y-138897140D01*
X93805695Y-138897142D01*
X93805696Y-138897142D01*
X93970903Y-138985446D01*
X94115712Y-139104288D01*
X94234554Y-139249097D01*
X94304986Y-139380867D01*
X94322860Y-139414307D01*
X94377239Y-139593571D01*
X94377240Y-139593575D01*
X94391000Y-139733282D01*
X94391000Y-141026718D01*
X94377240Y-141166425D01*
X94377239Y-141166428D01*
X94377239Y-141166429D01*
X94322860Y-141345693D01*
X94322858Y-141345696D01*
X94322858Y-141345697D01*
X94234554Y-141510903D01*
X94115712Y-141655712D01*
X93970903Y-141774554D01*
X93805697Y-141862858D01*
X93805693Y-141862860D01*
X93626429Y-141917239D01*
X93626428Y-141917239D01*
X93626425Y-141917240D01*
X93440000Y-141935601D01*
X93253576Y-141917240D01*
X93253573Y-141917239D01*
X93253572Y-141917239D01*
X93074308Y-141862860D01*
X93074304Y-141862858D01*
X92909098Y-141774554D01*
X92764289Y-141655712D01*
X92645447Y-141510903D01*
X92557140Y-141345692D01*
X92502760Y-141166430D01*
X92489000Y-141026718D01*
X92489000Y-139733283D01*
X92502760Y-139593576D01*
X92502761Y-139593572D01*
X92557140Y-139414308D01*
X92557143Y-139414303D01*
X92645446Y-139249097D01*
X92764288Y-139104288D01*
X92909097Y-138985446D01*
X93074303Y-138897142D01*
X93074304Y-138897142D01*
X93074307Y-138897140D01*
X93253571Y-138842761D01*
X93253572Y-138842761D01*
X93253575Y-138842760D01*
X93440000Y-138824399D01*
X93626424Y-138842760D01*
X93626424Y-138842760D01*
G37*
G36*
X91086424Y-138842760D02*
G01*
X91086427Y-138842761D01*
X91086428Y-138842761D01*
X91265692Y-138897140D01*
X91265695Y-138897142D01*
X91265696Y-138897142D01*
X91430903Y-138985446D01*
X91575712Y-139104288D01*
X91694554Y-139249097D01*
X91764986Y-139380867D01*
X91782860Y-139414307D01*
X91837239Y-139593571D01*
X91837240Y-139593575D01*
X91851000Y-139733282D01*
X91851000Y-141026718D01*
X91837240Y-141166425D01*
X91837239Y-141166428D01*
X91837239Y-141166429D01*
X91782860Y-141345693D01*
X91782858Y-141345696D01*
X91782858Y-141345697D01*
X91694554Y-141510903D01*
X91575712Y-141655712D01*
X91430903Y-141774554D01*
X91265697Y-141862858D01*
X91265693Y-141862860D01*
X91086429Y-141917239D01*
X91086428Y-141917239D01*
X91086425Y-141917240D01*
X90900000Y-141935601D01*
X90713576Y-141917240D01*
X90713573Y-141917239D01*
X90713572Y-141917239D01*
X90534308Y-141862860D01*
X90534304Y-141862858D01*
X90369098Y-141774554D01*
X90224289Y-141655712D01*
X90105447Y-141510903D01*
X90017140Y-141345692D01*
X89962760Y-141166430D01*
X89949000Y-141026718D01*
X89949000Y-139733283D01*
X89962760Y-139593576D01*
X89962761Y-139593572D01*
X90017140Y-139414308D01*
X90017143Y-139414303D01*
X90105446Y-139249097D01*
X90224288Y-139104288D01*
X90369097Y-138985446D01*
X90534303Y-138897142D01*
X90534304Y-138897142D01*
X90534307Y-138897140D01*
X90713571Y-138842761D01*
X90713572Y-138842761D01*
X90713575Y-138842760D01*
X90900000Y-138824399D01*
X91086424Y-138842760D01*
X91086424Y-138842760D01*
G37*
G36*
X88546424Y-138842760D02*
G01*
X88546427Y-138842761D01*
X88546428Y-138842761D01*
X88725692Y-138897140D01*
X88725695Y-138897142D01*
X88725696Y-138897142D01*
X88890903Y-138985446D01*
X89035712Y-139104288D01*
X89154554Y-139249097D01*
X89224986Y-139380867D01*
X89242860Y-139414307D01*
X89297239Y-139593571D01*
X89297240Y-139593575D01*
X89311000Y-139733282D01*
X89311000Y-141026718D01*
X89297240Y-141166425D01*
X89297239Y-141166428D01*
X89297239Y-141166429D01*
X89242860Y-141345693D01*
X89242858Y-141345696D01*
X89242858Y-141345697D01*
X89154554Y-141510903D01*
X89035712Y-141655712D01*
X88890903Y-141774554D01*
X88725697Y-141862858D01*
X88725693Y-141862860D01*
X88546429Y-141917239D01*
X88546428Y-141917239D01*
X88546425Y-141917240D01*
X88360000Y-141935601D01*
X88173576Y-141917240D01*
X88173573Y-141917239D01*
X88173572Y-141917239D01*
X87994308Y-141862860D01*
X87994304Y-141862858D01*
X87829098Y-141774554D01*
X87684289Y-141655712D01*
X87565447Y-141510903D01*
X87477140Y-141345692D01*
X87422760Y-141166430D01*
X87409000Y-141026718D01*
X87409000Y-139733283D01*
X87422760Y-139593576D01*
X87422761Y-139593572D01*
X87477140Y-139414308D01*
X87477143Y-139414303D01*
X87565446Y-139249097D01*
X87684288Y-139104288D01*
X87829097Y-138985446D01*
X87994303Y-138897142D01*
X87994304Y-138897142D01*
X87994307Y-138897140D01*
X88173571Y-138842761D01*
X88173572Y-138842761D01*
X88173575Y-138842760D01*
X88360000Y-138824399D01*
X88546424Y-138842760D01*
X88546424Y-138842760D01*
G37*
G36*
X86006424Y-138842760D02*
G01*
X86006427Y-138842761D01*
X86006428Y-138842761D01*
X86185692Y-138897140D01*
X86185695Y-138897142D01*
X86185696Y-138897142D01*
X86350903Y-138985446D01*
X86495712Y-139104288D01*
X86614554Y-139249097D01*
X86684986Y-139380867D01*
X86702860Y-139414307D01*
X86757239Y-139593571D01*
X86757240Y-139593575D01*
X86771000Y-139733282D01*
X86771000Y-141026718D01*
X86757240Y-141166425D01*
X86757239Y-141166428D01*
X86757239Y-141166429D01*
X86702860Y-141345693D01*
X86702858Y-141345696D01*
X86702858Y-141345697D01*
X86614554Y-141510903D01*
X86495712Y-141655712D01*
X86350903Y-141774554D01*
X86185697Y-141862858D01*
X86185693Y-141862860D01*
X86006429Y-141917239D01*
X86006428Y-141917239D01*
X86006425Y-141917240D01*
X85820000Y-141935601D01*
X85633576Y-141917240D01*
X85633573Y-141917239D01*
X85633572Y-141917239D01*
X85454308Y-141862860D01*
X85454304Y-141862858D01*
X85289098Y-141774554D01*
X85144289Y-141655712D01*
X85025447Y-141510903D01*
X84937140Y-141345692D01*
X84882760Y-141166430D01*
X84869000Y-141026718D01*
X84869000Y-139733283D01*
X84882760Y-139593576D01*
X84882761Y-139593572D01*
X84937140Y-139414308D01*
X84937143Y-139414303D01*
X85025446Y-139249097D01*
X85144288Y-139104288D01*
X85289097Y-138985446D01*
X85454303Y-138897142D01*
X85454304Y-138897142D01*
X85454307Y-138897140D01*
X85633571Y-138842761D01*
X85633572Y-138842761D01*
X85633575Y-138842760D01*
X85820000Y-138824399D01*
X86006424Y-138842760D01*
X86006424Y-138842760D01*
G37*
G36*
X83466424Y-138842760D02*
G01*
X83466427Y-138842761D01*
X83466428Y-138842761D01*
X83645692Y-138897140D01*
X83645695Y-138897142D01*
X83645696Y-138897142D01*
X83810903Y-138985446D01*
X83955712Y-139104288D01*
X84074554Y-139249097D01*
X84144986Y-139380867D01*
X84162860Y-139414307D01*
X84217239Y-139593571D01*
X84217240Y-139593575D01*
X84231000Y-139733282D01*
X84231000Y-141026718D01*
X84217240Y-141166425D01*
X84217239Y-141166428D01*
X84217239Y-141166429D01*
X84162860Y-141345693D01*
X84162858Y-141345696D01*
X84162858Y-141345697D01*
X84074554Y-141510903D01*
X83955712Y-141655712D01*
X83810903Y-141774554D01*
X83645697Y-141862858D01*
X83645693Y-141862860D01*
X83466429Y-141917239D01*
X83466428Y-141917239D01*
X83466425Y-141917240D01*
X83280000Y-141935601D01*
X83093576Y-141917240D01*
X83093573Y-141917239D01*
X83093572Y-141917239D01*
X82914308Y-141862860D01*
X82914304Y-141862858D01*
X82749098Y-141774554D01*
X82604289Y-141655712D01*
X82485447Y-141510903D01*
X82397140Y-141345692D01*
X82342760Y-141166430D01*
X82329000Y-141026718D01*
X82329000Y-139733283D01*
X82342760Y-139593576D01*
X82342761Y-139593572D01*
X82397140Y-139414308D01*
X82397143Y-139414303D01*
X82485446Y-139249097D01*
X82604288Y-139104288D01*
X82749097Y-138985446D01*
X82914303Y-138897142D01*
X82914304Y-138897142D01*
X82914307Y-138897140D01*
X83093571Y-138842761D01*
X83093572Y-138842761D01*
X83093575Y-138842760D01*
X83280000Y-138824399D01*
X83466424Y-138842760D01*
X83466424Y-138842760D01*
G37*
G36*
X80926424Y-138842760D02*
G01*
X80926427Y-138842761D01*
X80926428Y-138842761D01*
X81105692Y-138897140D01*
X81105695Y-138897142D01*
X81105696Y-138897142D01*
X81270903Y-138985446D01*
X81415712Y-139104288D01*
X81534554Y-139249097D01*
X81604986Y-139380867D01*
X81622860Y-139414307D01*
X81677239Y-139593571D01*
X81677240Y-139593575D01*
X81691000Y-139733282D01*
X81691000Y-141026718D01*
X81677240Y-141166425D01*
X81677239Y-141166428D01*
X81677239Y-141166429D01*
X81622860Y-141345693D01*
X81622858Y-141345696D01*
X81622858Y-141345697D01*
X81534554Y-141510903D01*
X81415712Y-141655712D01*
X81270903Y-141774554D01*
X81105697Y-141862858D01*
X81105693Y-141862860D01*
X80926429Y-141917239D01*
X80926428Y-141917239D01*
X80926425Y-141917240D01*
X80740000Y-141935601D01*
X80553576Y-141917240D01*
X80553573Y-141917239D01*
X80553572Y-141917239D01*
X80374308Y-141862860D01*
X80374304Y-141862858D01*
X80209098Y-141774554D01*
X80064289Y-141655712D01*
X79945447Y-141510903D01*
X79857140Y-141345692D01*
X79802760Y-141166430D01*
X79789000Y-141026718D01*
X79789000Y-139733283D01*
X79802760Y-139593576D01*
X79802761Y-139593572D01*
X79857140Y-139414308D01*
X79857143Y-139414303D01*
X79945446Y-139249097D01*
X80064288Y-139104288D01*
X80209097Y-138985446D01*
X80374303Y-138897142D01*
X80374304Y-138897142D01*
X80374307Y-138897140D01*
X80553571Y-138842761D01*
X80553572Y-138842761D01*
X80553575Y-138842760D01*
X80740000Y-138824399D01*
X80926424Y-138842760D01*
X80926424Y-138842760D01*
G37*
G36*
X78386424Y-138842760D02*
G01*
X78386427Y-138842761D01*
X78386428Y-138842761D01*
X78565692Y-138897140D01*
X78565695Y-138897142D01*
X78565696Y-138897142D01*
X78730903Y-138985446D01*
X78875712Y-139104288D01*
X78994554Y-139249097D01*
X79064986Y-139380867D01*
X79082860Y-139414307D01*
X79137239Y-139593571D01*
X79137240Y-139593575D01*
X79151000Y-139733282D01*
X79151000Y-141026718D01*
X79137240Y-141166425D01*
X79137239Y-141166428D01*
X79137239Y-141166429D01*
X79082860Y-141345693D01*
X79082858Y-141345696D01*
X79082858Y-141345697D01*
X78994554Y-141510903D01*
X78875712Y-141655712D01*
X78730903Y-141774554D01*
X78565697Y-141862858D01*
X78565693Y-141862860D01*
X78386429Y-141917239D01*
X78386428Y-141917239D01*
X78386425Y-141917240D01*
X78200000Y-141935601D01*
X78013576Y-141917240D01*
X78013573Y-141917239D01*
X78013572Y-141917239D01*
X77834308Y-141862860D01*
X77834304Y-141862858D01*
X77669098Y-141774554D01*
X77524289Y-141655712D01*
X77405447Y-141510903D01*
X77317140Y-141345692D01*
X77262760Y-141166430D01*
X77249000Y-141026718D01*
X77249000Y-139733283D01*
X77262760Y-139593576D01*
X77262761Y-139593572D01*
X77317140Y-139414308D01*
X77317143Y-139414303D01*
X77405446Y-139249097D01*
X77524288Y-139104288D01*
X77669097Y-138985446D01*
X77834303Y-138897142D01*
X77834304Y-138897142D01*
X77834307Y-138897140D01*
X78013571Y-138842761D01*
X78013572Y-138842761D01*
X78013575Y-138842760D01*
X78200000Y-138824399D01*
X78386424Y-138842760D01*
X78386424Y-138842760D01*
G37*
G36*
X75846424Y-138842760D02*
G01*
X75846427Y-138842761D01*
X75846428Y-138842761D01*
X76025692Y-138897140D01*
X76025695Y-138897142D01*
X76025696Y-138897142D01*
X76190903Y-138985446D01*
X76335712Y-139104288D01*
X76454554Y-139249097D01*
X76524986Y-139380867D01*
X76542860Y-139414307D01*
X76597239Y-139593571D01*
X76597240Y-139593575D01*
X76611000Y-139733282D01*
X76611000Y-141026718D01*
X76597240Y-141166425D01*
X76597239Y-141166428D01*
X76597239Y-141166429D01*
X76542860Y-141345693D01*
X76542858Y-141345696D01*
X76542858Y-141345697D01*
X76454554Y-141510903D01*
X76335712Y-141655712D01*
X76190903Y-141774554D01*
X76025697Y-141862858D01*
X76025693Y-141862860D01*
X75846429Y-141917239D01*
X75846428Y-141917239D01*
X75846425Y-141917240D01*
X75660000Y-141935601D01*
X75473576Y-141917240D01*
X75473573Y-141917239D01*
X75473572Y-141917239D01*
X75294308Y-141862860D01*
X75294304Y-141862858D01*
X75129098Y-141774554D01*
X74984289Y-141655712D01*
X74865447Y-141510903D01*
X74777140Y-141345692D01*
X74722760Y-141166430D01*
X74709000Y-141026718D01*
X74709000Y-139733283D01*
X74722760Y-139593576D01*
X74722761Y-139593572D01*
X74777140Y-139414308D01*
X74777143Y-139414303D01*
X74865446Y-139249097D01*
X74984288Y-139104288D01*
X75129097Y-138985446D01*
X75294303Y-138897142D01*
X75294304Y-138897142D01*
X75294307Y-138897140D01*
X75473571Y-138842761D01*
X75473572Y-138842761D01*
X75473575Y-138842760D01*
X75660000Y-138824399D01*
X75846424Y-138842760D01*
X75846424Y-138842760D01*
G37*
G36*
X73306424Y-138842760D02*
G01*
X73306427Y-138842761D01*
X73306428Y-138842761D01*
X73485692Y-138897140D01*
X73485695Y-138897142D01*
X73485696Y-138897142D01*
X73650903Y-138985446D01*
X73795712Y-139104288D01*
X73914554Y-139249097D01*
X73984986Y-139380867D01*
X74002860Y-139414307D01*
X74057239Y-139593571D01*
X74057240Y-139593575D01*
X74071000Y-139733282D01*
X74071000Y-141026718D01*
X74057240Y-141166425D01*
X74057239Y-141166428D01*
X74057239Y-141166429D01*
X74002860Y-141345693D01*
X74002858Y-141345696D01*
X74002858Y-141345697D01*
X73914554Y-141510903D01*
X73795712Y-141655712D01*
X73650903Y-141774554D01*
X73485697Y-141862858D01*
X73485693Y-141862860D01*
X73306429Y-141917239D01*
X73306428Y-141917239D01*
X73306425Y-141917240D01*
X73120000Y-141935601D01*
X72933576Y-141917240D01*
X72933573Y-141917239D01*
X72933572Y-141917239D01*
X72754308Y-141862860D01*
X72754304Y-141862858D01*
X72589098Y-141774554D01*
X72444289Y-141655712D01*
X72325447Y-141510903D01*
X72237140Y-141345692D01*
X72182760Y-141166430D01*
X72169000Y-141026718D01*
X72169000Y-139733283D01*
X72182760Y-139593576D01*
X72182761Y-139593572D01*
X72237140Y-139414308D01*
X72237143Y-139414303D01*
X72325446Y-139249097D01*
X72444288Y-139104288D01*
X72589097Y-138985446D01*
X72754303Y-138897142D01*
X72754304Y-138897142D01*
X72754307Y-138897140D01*
X72933571Y-138842761D01*
X72933572Y-138842761D01*
X72933575Y-138842760D01*
X73120000Y-138824399D01*
X73306424Y-138842760D01*
X73306424Y-138842760D01*
G37*
G36*
X70766424Y-138842760D02*
G01*
X70766427Y-138842761D01*
X70766428Y-138842761D01*
X70945692Y-138897140D01*
X70945695Y-138897142D01*
X70945696Y-138897142D01*
X71110903Y-138985446D01*
X71255712Y-139104288D01*
X71374554Y-139249097D01*
X71444986Y-139380867D01*
X71462860Y-139414307D01*
X71517239Y-139593571D01*
X71517240Y-139593575D01*
X71531000Y-139733282D01*
X71531000Y-141026718D01*
X71517240Y-141166425D01*
X71517239Y-141166428D01*
X71517239Y-141166429D01*
X71462860Y-141345693D01*
X71462858Y-141345696D01*
X71462858Y-141345697D01*
X71374554Y-141510903D01*
X71255712Y-141655712D01*
X71110903Y-141774554D01*
X70945697Y-141862858D01*
X70945693Y-141862860D01*
X70766429Y-141917239D01*
X70766428Y-141917239D01*
X70766425Y-141917240D01*
X70580000Y-141935601D01*
X70393576Y-141917240D01*
X70393573Y-141917239D01*
X70393572Y-141917239D01*
X70214308Y-141862860D01*
X70214304Y-141862858D01*
X70049098Y-141774554D01*
X69904289Y-141655712D01*
X69785447Y-141510903D01*
X69697140Y-141345692D01*
X69642760Y-141166430D01*
X69629000Y-141026718D01*
X69629000Y-139733283D01*
X69642760Y-139593576D01*
X69642761Y-139593572D01*
X69697140Y-139414308D01*
X69697143Y-139414303D01*
X69785446Y-139249097D01*
X69904288Y-139104288D01*
X70049097Y-138985446D01*
X70214303Y-138897142D01*
X70214304Y-138897142D01*
X70214307Y-138897140D01*
X70393571Y-138842761D01*
X70393572Y-138842761D01*
X70393575Y-138842760D01*
X70580000Y-138824399D01*
X70766424Y-138842760D01*
X70766424Y-138842760D01*
G37*
G36*
X68226424Y-138842760D02*
G01*
X68226427Y-138842761D01*
X68226428Y-138842761D01*
X68405692Y-138897140D01*
X68405695Y-138897142D01*
X68405696Y-138897142D01*
X68570903Y-138985446D01*
X68715712Y-139104288D01*
X68834554Y-139249097D01*
X68904986Y-139380867D01*
X68922860Y-139414307D01*
X68977239Y-139593571D01*
X68977240Y-139593575D01*
X68991000Y-139733282D01*
X68991000Y-141026718D01*
X68977240Y-141166425D01*
X68977239Y-141166428D01*
X68977239Y-141166429D01*
X68922860Y-141345693D01*
X68922858Y-141345696D01*
X68922858Y-141345697D01*
X68834554Y-141510903D01*
X68715712Y-141655712D01*
X68570903Y-141774554D01*
X68405697Y-141862858D01*
X68405693Y-141862860D01*
X68226429Y-141917239D01*
X68226428Y-141917239D01*
X68226425Y-141917240D01*
X68040000Y-141935601D01*
X67853576Y-141917240D01*
X67853573Y-141917239D01*
X67853572Y-141917239D01*
X67674308Y-141862860D01*
X67674304Y-141862858D01*
X67509098Y-141774554D01*
X67364289Y-141655712D01*
X67245447Y-141510903D01*
X67157140Y-141345692D01*
X67102760Y-141166430D01*
X67089000Y-141026718D01*
X67089000Y-139733283D01*
X67102760Y-139593576D01*
X67102761Y-139593572D01*
X67157140Y-139414308D01*
X67157143Y-139414303D01*
X67245446Y-139249097D01*
X67364288Y-139104288D01*
X67509097Y-138985446D01*
X67674303Y-138897142D01*
X67674304Y-138897142D01*
X67674307Y-138897140D01*
X67853571Y-138842761D01*
X67853572Y-138842761D01*
X67853575Y-138842760D01*
X68040000Y-138824399D01*
X68226424Y-138842760D01*
X68226424Y-138842760D01*
G37*
G36*
X96166424Y-138842760D02*
G01*
X96166427Y-138842761D01*
X96166428Y-138842761D01*
X96345692Y-138897140D01*
X96345695Y-138897142D01*
X96345696Y-138897142D01*
X96510903Y-138985446D01*
X96655712Y-139104288D01*
X96774554Y-139249097D01*
X96844986Y-139380867D01*
X96862860Y-139414307D01*
X96917239Y-139593571D01*
X96917240Y-139593575D01*
X96931000Y-139733282D01*
X96931000Y-141026718D01*
X96917240Y-141166425D01*
X96917239Y-141166428D01*
X96917239Y-141166429D01*
X96862860Y-141345693D01*
X96862858Y-141345696D01*
X96862858Y-141345697D01*
X96774554Y-141510903D01*
X96655712Y-141655712D01*
X96510903Y-141774554D01*
X96345697Y-141862858D01*
X96345693Y-141862860D01*
X96166429Y-141917239D01*
X96166428Y-141917239D01*
X96166425Y-141917240D01*
X95980000Y-141935601D01*
X95793576Y-141917240D01*
X95793573Y-141917239D01*
X95793572Y-141917239D01*
X95614308Y-141862860D01*
X95614304Y-141862858D01*
X95449098Y-141774554D01*
X95304289Y-141655712D01*
X95185447Y-141510903D01*
X95097140Y-141345692D01*
X95042760Y-141166430D01*
X95029000Y-141026718D01*
X95029000Y-139733283D01*
X95042760Y-139593576D01*
X95042761Y-139593572D01*
X95097140Y-139414308D01*
X95097143Y-139414303D01*
X95185446Y-139249097D01*
X95304288Y-139104288D01*
X95449097Y-138985446D01*
X95614303Y-138897142D01*
X95614304Y-138897142D01*
X95614307Y-138897140D01*
X95793571Y-138842761D01*
X95793572Y-138842761D01*
X95793575Y-138842760D01*
X95980000Y-138824399D01*
X96166424Y-138842760D01*
X96166424Y-138842760D01*
G37*
G36*
X56098571Y-139152863D02*
G01*
X56177023Y-139160590D01*
X56277682Y-139191125D01*
X56328013Y-139206392D01*
X56467165Y-139280771D01*
X56589133Y-139380867D01*
X56689229Y-139502835D01*
X56763608Y-139641987D01*
X56763608Y-139641988D01*
X56809410Y-139792977D01*
X56824875Y-139950000D01*
X56809410Y-140107023D01*
X56778875Y-140207682D01*
X56763608Y-140258013D01*
X56689229Y-140397165D01*
X56589133Y-140519133D01*
X56467165Y-140619229D01*
X56328013Y-140693608D01*
X56277682Y-140708875D01*
X56177023Y-140739410D01*
X56098571Y-140747137D01*
X56059346Y-140751000D01*
X55480654Y-140751000D01*
X55441429Y-140747137D01*
X55362977Y-140739410D01*
X55262318Y-140708875D01*
X55211987Y-140693608D01*
X55072835Y-140619229D01*
X54950867Y-140519133D01*
X54850771Y-140397165D01*
X54776392Y-140258013D01*
X54761125Y-140207682D01*
X54730590Y-140107023D01*
X54715125Y-139950000D01*
X54730590Y-139792977D01*
X54776392Y-139641988D01*
X54776392Y-139641987D01*
X54850771Y-139502835D01*
X54950867Y-139380867D01*
X55072835Y-139280771D01*
X55211987Y-139206392D01*
X55262318Y-139191125D01*
X55362977Y-139160590D01*
X55441429Y-139152863D01*
X55480654Y-139149000D01*
X56059346Y-139149000D01*
X56098571Y-139152863D01*
X56098571Y-139152863D01*
G37*
G36*
X157201000Y-140551000D02*
G01*
X155099000Y-140551000D01*
X155099000Y-138449000D01*
X157201000Y-138449000D01*
X157201000Y-140551000D01*
X157201000Y-140551000D01*
G37*
G36*
X147323651Y-134132888D02*
G01*
X147634870Y-134227296D01*
X147921680Y-134380599D01*
X147921683Y-134380601D01*
X147921684Y-134380602D01*
X148173082Y-134586918D01*
X148379398Y-134838316D01*
X148379401Y-134838320D01*
X148532704Y-135125130D01*
X148627112Y-135436349D01*
X148658988Y-135760000D01*
X148627112Y-136083651D01*
X148532704Y-136394870D01*
X148379401Y-136681680D01*
X148379399Y-136681683D01*
X148379398Y-136681684D01*
X148173082Y-136933082D01*
X147921684Y-137139398D01*
X147921680Y-137139401D01*
X147634870Y-137292704D01*
X147323651Y-137387112D01*
X147081107Y-137411000D01*
X146918893Y-137411000D01*
X146676349Y-137387112D01*
X146365130Y-137292704D01*
X146078320Y-137139401D01*
X146078316Y-137139398D01*
X145826918Y-136933082D01*
X145620602Y-136681684D01*
X145620601Y-136681683D01*
X145620599Y-136681680D01*
X145467296Y-136394870D01*
X145372888Y-136083651D01*
X145341012Y-135760000D01*
X145372888Y-135436349D01*
X145467296Y-135125130D01*
X145620599Y-134838320D01*
X145620602Y-134838316D01*
X145826918Y-134586918D01*
X146078316Y-134380602D01*
X146078317Y-134380601D01*
X146078320Y-134380599D01*
X146365130Y-134227296D01*
X146676349Y-134132888D01*
X146918893Y-134109000D01*
X147081107Y-134109000D01*
X147323651Y-134132888D01*
X147323651Y-134132888D01*
G37*
G36*
X56078571Y-135702863D02*
G01*
X56157023Y-135710590D01*
X56257682Y-135741125D01*
X56308013Y-135756392D01*
X56447165Y-135830771D01*
X56569133Y-135930867D01*
X56669229Y-136052835D01*
X56743608Y-136191987D01*
X56743608Y-136191988D01*
X56789410Y-136342977D01*
X56804875Y-136500000D01*
X56789410Y-136657023D01*
X56781930Y-136681680D01*
X56743608Y-136808013D01*
X56669229Y-136947165D01*
X56569133Y-137069133D01*
X56447165Y-137169229D01*
X56308013Y-137243608D01*
X56257682Y-137258875D01*
X56157023Y-137289410D01*
X56078571Y-137297137D01*
X56039346Y-137301000D01*
X55460654Y-137301000D01*
X55421429Y-137297137D01*
X55342977Y-137289410D01*
X55242318Y-137258875D01*
X55191987Y-137243608D01*
X55052835Y-137169229D01*
X54930867Y-137069133D01*
X54830771Y-136947165D01*
X54756392Y-136808013D01*
X54718070Y-136681680D01*
X54710590Y-136657023D01*
X54695125Y-136500000D01*
X54710590Y-136342977D01*
X54756392Y-136191988D01*
X54756392Y-136191987D01*
X54830771Y-136052835D01*
X54930867Y-135930867D01*
X55052835Y-135830771D01*
X55191987Y-135756392D01*
X55242318Y-135741125D01*
X55342977Y-135710590D01*
X55421429Y-135702863D01*
X55460654Y-135699000D01*
X56039346Y-135699000D01*
X56078571Y-135702863D01*
X56078571Y-135702863D01*
G37*
G36*
X157201000Y-135551000D02*
G01*
X155099000Y-135551000D01*
X155099000Y-133449000D01*
X157201000Y-133449000D01*
X157201000Y-135551000D01*
X157201000Y-135551000D01*
G37*
G36*
X57091000Y-134471000D02*
G01*
X54489000Y-134471000D01*
X54489000Y-132869000D01*
X57091000Y-132869000D01*
X57091000Y-134471000D01*
X57091000Y-134471000D01*
G37*
G36*
X148651000Y-132651000D02*
G01*
X145349000Y-132651000D01*
X145349000Y-129349000D01*
X148651000Y-129349000D01*
X148651000Y-132651000D01*
X148651000Y-132651000D01*
G37*
G36*
X125716669Y-128547686D02*
G01*
X125893058Y-128565059D01*
X126232548Y-128668042D01*
X126232550Y-128668043D01*
X126545422Y-128835277D01*
X126819661Y-129060339D01*
X127044723Y-129334578D01*
X127093838Y-129426466D01*
X127211958Y-129647452D01*
X127314941Y-129986942D01*
X127349714Y-130340000D01*
X127314941Y-130693058D01*
X127287499Y-130783521D01*
X127211957Y-131032550D01*
X127044723Y-131345422D01*
X126819661Y-131619661D01*
X126545422Y-131844723D01*
X126232550Y-132011957D01*
X126232548Y-132011958D01*
X125893058Y-132114941D01*
X125716669Y-132132314D01*
X125628476Y-132141000D01*
X125451524Y-132141000D01*
X125363331Y-132132314D01*
X125186942Y-132114941D01*
X124847452Y-132011958D01*
X124847450Y-132011957D01*
X124534578Y-131844723D01*
X124260339Y-131619661D01*
X124035277Y-131345422D01*
X123868043Y-131032550D01*
X123792501Y-130783521D01*
X123765059Y-130693058D01*
X123730286Y-130340000D01*
X123765059Y-129986942D01*
X123868042Y-129647452D01*
X123986162Y-129426466D01*
X124035277Y-129334578D01*
X124260339Y-129060339D01*
X124534578Y-128835277D01*
X124847450Y-128668043D01*
X124847452Y-128668042D01*
X125186942Y-128565059D01*
X125363331Y-128547686D01*
X125451524Y-128539000D01*
X125628476Y-128539000D01*
X125716669Y-128547686D01*
X125716669Y-128547686D01*
G37*
G36*
X46716669Y-128547686D02*
G01*
X46893058Y-128565059D01*
X47232548Y-128668042D01*
X47232550Y-128668043D01*
X47545422Y-128835277D01*
X47819661Y-129060339D01*
X48044723Y-129334578D01*
X48093838Y-129426466D01*
X48211958Y-129647452D01*
X48314941Y-129986942D01*
X48349714Y-130340000D01*
X48314941Y-130693058D01*
X48287499Y-130783521D01*
X48211957Y-131032550D01*
X48044723Y-131345422D01*
X47819661Y-131619661D01*
X47545422Y-131844723D01*
X47232550Y-132011957D01*
X47232548Y-132011958D01*
X46893058Y-132114941D01*
X46716669Y-132132314D01*
X46628476Y-132141000D01*
X46451524Y-132141000D01*
X46363331Y-132132314D01*
X46186942Y-132114941D01*
X45847452Y-132011958D01*
X45847450Y-132011957D01*
X45534578Y-131844723D01*
X45260339Y-131619661D01*
X45035277Y-131345422D01*
X44868043Y-131032550D01*
X44792501Y-130783521D01*
X44765059Y-130693058D01*
X44730286Y-130340000D01*
X44765059Y-129986942D01*
X44868042Y-129647452D01*
X44986162Y-129426466D01*
X45035277Y-129334578D01*
X45260339Y-129060339D01*
X45534578Y-128835277D01*
X45847450Y-128668043D01*
X45847452Y-128668042D01*
X46186942Y-128565059D01*
X46363331Y-128547686D01*
X46451524Y-128539000D01*
X46628476Y-128539000D01*
X46716669Y-128547686D01*
X46716669Y-128547686D01*
G37*
G36*
X136716669Y-128547686D02*
G01*
X136893058Y-128565059D01*
X137232548Y-128668042D01*
X137232550Y-128668043D01*
X137545422Y-128835277D01*
X137819661Y-129060339D01*
X138044723Y-129334578D01*
X138093838Y-129426466D01*
X138211958Y-129647452D01*
X138314941Y-129986942D01*
X138349714Y-130340000D01*
X138314941Y-130693058D01*
X138287499Y-130783521D01*
X138211957Y-131032550D01*
X138044723Y-131345422D01*
X137819661Y-131619661D01*
X137545422Y-131844723D01*
X137232550Y-132011957D01*
X137232548Y-132011958D01*
X136893058Y-132114941D01*
X136716669Y-132132314D01*
X136628476Y-132141000D01*
X136451524Y-132141000D01*
X136363331Y-132132314D01*
X136186942Y-132114941D01*
X135847452Y-132011958D01*
X135847450Y-132011957D01*
X135534578Y-131844723D01*
X135260339Y-131619661D01*
X135035277Y-131345422D01*
X134868043Y-131032550D01*
X134792501Y-130783521D01*
X134765059Y-130693058D01*
X134730286Y-130340000D01*
X134765059Y-129986942D01*
X134868042Y-129647452D01*
X134986162Y-129426466D01*
X135035277Y-129334578D01*
X135260339Y-129060339D01*
X135534578Y-128835277D01*
X135847450Y-128668043D01*
X135847452Y-128668042D01*
X136186942Y-128565059D01*
X136363331Y-128547686D01*
X136451524Y-128539000D01*
X136628476Y-128539000D01*
X136716669Y-128547686D01*
X136716669Y-128547686D01*
G37*
G36*
X114716669Y-128547686D02*
G01*
X114893058Y-128565059D01*
X115232548Y-128668042D01*
X115232550Y-128668043D01*
X115545422Y-128835277D01*
X115819661Y-129060339D01*
X116044723Y-129334578D01*
X116093838Y-129426466D01*
X116211958Y-129647452D01*
X116314941Y-129986942D01*
X116349714Y-130340000D01*
X116314941Y-130693058D01*
X116287499Y-130783521D01*
X116211957Y-131032550D01*
X116044723Y-131345422D01*
X115819661Y-131619661D01*
X115545422Y-131844723D01*
X115232550Y-132011957D01*
X115232548Y-132011958D01*
X114893058Y-132114941D01*
X114716669Y-132132314D01*
X114628476Y-132141000D01*
X114451524Y-132141000D01*
X114363331Y-132132314D01*
X114186942Y-132114941D01*
X113847452Y-132011958D01*
X113847450Y-132011957D01*
X113534578Y-131844723D01*
X113260339Y-131619661D01*
X113035277Y-131345422D01*
X112868043Y-131032550D01*
X112792501Y-130783521D01*
X112765059Y-130693058D01*
X112730286Y-130340000D01*
X112765059Y-129986942D01*
X112868042Y-129647452D01*
X112986162Y-129426466D01*
X113035277Y-129334578D01*
X113260339Y-129060339D01*
X113534578Y-128835277D01*
X113847450Y-128668043D01*
X113847452Y-128668042D01*
X114186942Y-128565059D01*
X114363331Y-128547686D01*
X114451524Y-128539000D01*
X114628476Y-128539000D01*
X114716669Y-128547686D01*
X114716669Y-128547686D01*
G37*
G36*
X104355629Y-130312719D02*
G01*
X104431142Y-130320156D01*
X104576476Y-130364243D01*
X104576479Y-130364244D01*
X104710416Y-130435835D01*
X104827817Y-130532183D01*
X104924165Y-130649584D01*
X104995756Y-130783521D01*
X104995757Y-130783524D01*
X105039844Y-130928858D01*
X105054730Y-131080000D01*
X105039844Y-131231142D01*
X105005177Y-131345422D01*
X104995756Y-131376479D01*
X104924165Y-131510416D01*
X104827817Y-131627817D01*
X104710416Y-131724165D01*
X104576479Y-131795756D01*
X104576476Y-131795757D01*
X104431142Y-131839844D01*
X104355629Y-131847281D01*
X104317873Y-131851000D01*
X103682127Y-131851000D01*
X103644371Y-131847281D01*
X103568858Y-131839844D01*
X103423524Y-131795757D01*
X103423521Y-131795756D01*
X103289584Y-131724165D01*
X103172183Y-131627817D01*
X103075835Y-131510416D01*
X103004244Y-131376479D01*
X102994823Y-131345422D01*
X102960156Y-131231142D01*
X102945270Y-131080000D01*
X102960156Y-130928858D01*
X103004243Y-130783524D01*
X103004244Y-130783521D01*
X103075835Y-130649584D01*
X103172183Y-130532183D01*
X103289584Y-130435835D01*
X103423521Y-130364244D01*
X103423524Y-130364243D01*
X103568858Y-130320156D01*
X103644371Y-130312719D01*
X103682127Y-130309000D01*
X104317873Y-130309000D01*
X104355629Y-130312719D01*
X104355629Y-130312719D01*
G37*
G36*
X63450442Y-128185518D02*
G01*
X63516627Y-128192037D01*
X63686466Y-128243557D01*
X63842991Y-128327222D01*
X63878729Y-128356552D01*
X63980186Y-128439814D01*
X64061585Y-128539000D01*
X64092778Y-128577009D01*
X64176443Y-128733534D01*
X64227963Y-128903373D01*
X64245359Y-129080000D01*
X64227963Y-129256627D01*
X64176443Y-129426466D01*
X64092778Y-129582991D01*
X64063448Y-129618729D01*
X63980186Y-129720186D01*
X63878729Y-129803448D01*
X63842991Y-129832778D01*
X63686466Y-129916443D01*
X63516627Y-129967963D01*
X63450443Y-129974481D01*
X63384260Y-129981000D01*
X62495740Y-129981000D01*
X62429557Y-129974481D01*
X62363373Y-129967963D01*
X62193534Y-129916443D01*
X62037009Y-129832778D01*
X62001271Y-129803448D01*
X61899814Y-129720186D01*
X61816552Y-129618729D01*
X61787222Y-129582991D01*
X61703557Y-129426466D01*
X61652037Y-129256627D01*
X61634641Y-129080000D01*
X61652037Y-128903373D01*
X61703557Y-128733534D01*
X61787222Y-128577009D01*
X61818415Y-128539000D01*
X61899814Y-128439814D01*
X62001271Y-128356552D01*
X62037009Y-128327222D01*
X62193534Y-128243557D01*
X62363373Y-128192037D01*
X62429558Y-128185518D01*
X62495740Y-128179000D01*
X63384260Y-128179000D01*
X63450442Y-128185518D01*
X63450442Y-128185518D01*
G37*
G36*
X104355629Y-127772719D02*
G01*
X104431142Y-127780156D01*
X104576476Y-127824243D01*
X104576479Y-127824244D01*
X104710416Y-127895835D01*
X104827817Y-127992183D01*
X104924165Y-128109584D01*
X104995756Y-128243521D01*
X104995757Y-128243524D01*
X105039844Y-128388858D01*
X105054730Y-128540000D01*
X105039844Y-128691142D01*
X105026985Y-128733532D01*
X104995756Y-128836479D01*
X104924165Y-128970416D01*
X104827817Y-129087817D01*
X104710416Y-129184165D01*
X104576479Y-129255756D01*
X104576476Y-129255757D01*
X104431142Y-129299844D01*
X104355629Y-129307281D01*
X104317873Y-129311000D01*
X103682127Y-129311000D01*
X103644371Y-129307281D01*
X103568858Y-129299844D01*
X103423524Y-129255757D01*
X103423521Y-129255756D01*
X103289584Y-129184165D01*
X103172183Y-129087817D01*
X103075835Y-128970416D01*
X103004244Y-128836479D01*
X102973015Y-128733532D01*
X102960156Y-128691142D01*
X102945270Y-128540000D01*
X102960156Y-128388858D01*
X103004243Y-128243524D01*
X103004244Y-128243521D01*
X103075835Y-128109584D01*
X103172183Y-127992183D01*
X103289584Y-127895835D01*
X103423521Y-127824244D01*
X103423524Y-127824243D01*
X103568858Y-127780156D01*
X103644371Y-127772719D01*
X103682127Y-127769000D01*
X104317873Y-127769000D01*
X104355629Y-127772719D01*
X104355629Y-127772719D01*
G37*
G36*
X63450442Y-125645518D02*
G01*
X63516627Y-125652037D01*
X63686466Y-125703557D01*
X63842991Y-125787222D01*
X63878729Y-125816552D01*
X63980186Y-125899814D01*
X64062405Y-126000000D01*
X64092778Y-126037009D01*
X64176443Y-126193534D01*
X64227963Y-126363373D01*
X64245359Y-126540000D01*
X64227963Y-126716627D01*
X64176443Y-126886466D01*
X64092778Y-127042991D01*
X64063448Y-127078729D01*
X63980186Y-127180186D01*
X63878729Y-127263448D01*
X63842991Y-127292778D01*
X63686466Y-127376443D01*
X63516627Y-127427963D01*
X63450442Y-127434482D01*
X63384260Y-127441000D01*
X62495740Y-127441000D01*
X62429558Y-127434482D01*
X62363373Y-127427963D01*
X62193534Y-127376443D01*
X62037009Y-127292778D01*
X62001271Y-127263448D01*
X61899814Y-127180186D01*
X61816552Y-127078729D01*
X61787222Y-127042991D01*
X61703557Y-126886466D01*
X61652037Y-126716627D01*
X61634641Y-126540000D01*
X61652037Y-126363373D01*
X61703557Y-126193534D01*
X61787222Y-126037009D01*
X61817595Y-126000000D01*
X61899814Y-125899814D01*
X62001271Y-125816552D01*
X62037009Y-125787222D01*
X62193534Y-125703557D01*
X62363373Y-125652037D01*
X62429558Y-125645518D01*
X62495740Y-125639000D01*
X63384260Y-125639000D01*
X63450442Y-125645518D01*
X63450442Y-125645518D01*
G37*
G36*
X104355629Y-125232719D02*
G01*
X104431142Y-125240156D01*
X104576476Y-125284243D01*
X104576479Y-125284244D01*
X104710416Y-125355835D01*
X104827817Y-125452183D01*
X104924165Y-125569584D01*
X104995756Y-125703521D01*
X104995757Y-125703524D01*
X105039844Y-125848858D01*
X105054730Y-126000000D01*
X105039844Y-126151142D01*
X105026985Y-126193532D01*
X104995756Y-126296479D01*
X104924165Y-126430416D01*
X104827817Y-126547817D01*
X104710416Y-126644165D01*
X104576479Y-126715756D01*
X104576476Y-126715757D01*
X104431142Y-126759844D01*
X104355629Y-126767281D01*
X104317873Y-126771000D01*
X103682127Y-126771000D01*
X103644371Y-126767281D01*
X103568858Y-126759844D01*
X103423524Y-126715757D01*
X103423521Y-126715756D01*
X103289584Y-126644165D01*
X103172183Y-126547817D01*
X103075835Y-126430416D01*
X103004244Y-126296479D01*
X102973015Y-126193532D01*
X102960156Y-126151142D01*
X102945270Y-126000000D01*
X102960156Y-125848858D01*
X103004243Y-125703524D01*
X103004244Y-125703521D01*
X103075835Y-125569584D01*
X103172183Y-125452183D01*
X103289584Y-125355835D01*
X103423521Y-125284244D01*
X103423524Y-125284243D01*
X103568858Y-125240156D01*
X103644371Y-125232719D01*
X103682127Y-125229000D01*
X104317873Y-125229000D01*
X104355629Y-125232719D01*
X104355629Y-125232719D01*
G37*
G36*
X157201000Y-126551000D02*
G01*
X155099000Y-126551000D01*
X155099000Y-124449000D01*
X157201000Y-124449000D01*
X157201000Y-126551000D01*
X157201000Y-126551000D01*
G37*
G36*
X64241000Y-124901000D02*
G01*
X61639000Y-124901000D01*
X61639000Y-123099000D01*
X64241000Y-123099000D01*
X64241000Y-124901000D01*
X64241000Y-124901000D01*
G37*
G36*
X134551000Y-123003500D02*
G01*
X131449000Y-123003500D01*
X131449000Y-120996500D01*
X134551000Y-120996500D01*
X134551000Y-123003500D01*
X134551000Y-123003500D01*
G37*
G36*
X157201000Y-121551000D02*
G01*
X155099000Y-121551000D01*
X155099000Y-119449000D01*
X157201000Y-119449000D01*
X157201000Y-121551000D01*
X157201000Y-121551000D01*
G37*
G36*
X116516669Y-117667686D02*
G01*
X116693058Y-117685059D01*
X117032548Y-117788042D01*
X117032550Y-117788043D01*
X117345422Y-117955277D01*
X117619661Y-118180339D01*
X117844723Y-118454578D01*
X117933989Y-118621583D01*
X118011958Y-118767452D01*
X118114941Y-119106942D01*
X118149714Y-119460000D01*
X118114941Y-119813058D01*
X118011958Y-120152548D01*
X118011957Y-120152550D01*
X117844723Y-120465422D01*
X117619661Y-120739661D01*
X117345422Y-120964723D01*
X117032550Y-121131957D01*
X117032548Y-121131958D01*
X116693058Y-121234941D01*
X116516669Y-121252314D01*
X116428476Y-121261000D01*
X116251524Y-121261000D01*
X116163331Y-121252314D01*
X115986942Y-121234941D01*
X115647452Y-121131958D01*
X115647450Y-121131957D01*
X115334578Y-120964723D01*
X115060339Y-120739661D01*
X114835277Y-120465422D01*
X114668043Y-120152550D01*
X114668042Y-120152548D01*
X114565059Y-119813058D01*
X114530286Y-119460000D01*
X114565059Y-119106942D01*
X114668042Y-118767452D01*
X114746011Y-118621583D01*
X114835277Y-118454578D01*
X115060339Y-118180339D01*
X115334578Y-117955277D01*
X115647450Y-117788043D01*
X115647452Y-117788042D01*
X115986942Y-117685059D01*
X116163331Y-117667686D01*
X116251524Y-117659000D01*
X116428476Y-117659000D01*
X116516669Y-117667686D01*
X116516669Y-117667686D01*
G37*
G36*
X133645936Y-118461340D02*
G01*
X133744220Y-118471020D01*
X133933381Y-118528401D01*
X134107712Y-118621583D01*
X134260515Y-118746985D01*
X134385917Y-118899788D01*
X134479099Y-119074119D01*
X134536480Y-119263280D01*
X134555855Y-119460000D01*
X134536480Y-119656720D01*
X134479099Y-119845881D01*
X134385917Y-120020212D01*
X134260515Y-120173015D01*
X134107712Y-120298417D01*
X133933381Y-120391599D01*
X133744220Y-120448980D01*
X133645936Y-120458660D01*
X133596795Y-120463500D01*
X132403205Y-120463500D01*
X132354064Y-120458660D01*
X132255780Y-120448980D01*
X132066619Y-120391599D01*
X131892288Y-120298417D01*
X131739485Y-120173015D01*
X131614083Y-120020212D01*
X131520901Y-119845881D01*
X131463520Y-119656720D01*
X131444145Y-119460000D01*
X131463520Y-119263280D01*
X131520901Y-119074119D01*
X131614083Y-118899788D01*
X131739485Y-118746985D01*
X131892288Y-118621583D01*
X132066619Y-118528401D01*
X132255780Y-118471020D01*
X132354064Y-118461340D01*
X132403205Y-118456500D01*
X133596795Y-118456500D01*
X133645936Y-118461340D01*
X133645936Y-118461340D01*
G37*
G36*
X60476627Y-115262037D02*
G01*
X60646466Y-115313557D01*
X60802991Y-115397222D01*
X60838729Y-115426552D01*
X60940186Y-115509814D01*
X61023448Y-115611271D01*
X61052778Y-115647009D01*
X61136443Y-115803534D01*
X61187963Y-115973373D01*
X61187963Y-115973375D01*
X61201000Y-116105740D01*
X61201000Y-117494260D01*
X61194482Y-117560442D01*
X61187963Y-117626627D01*
X61136443Y-117796466D01*
X61052778Y-117952991D01*
X61025325Y-117986442D01*
X60940186Y-118090186D01*
X60802989Y-118202779D01*
X60646467Y-118286442D01*
X60646465Y-118286443D01*
X60476626Y-118337963D01*
X60300000Y-118355359D01*
X60123373Y-118337963D01*
X59953534Y-118286443D01*
X59797009Y-118202778D01*
X59761271Y-118173448D01*
X59659814Y-118090186D01*
X59547221Y-117952989D01*
X59463558Y-117796467D01*
X59463557Y-117796465D01*
X59412037Y-117626626D01*
X59399218Y-117496468D01*
X59399000Y-117494259D01*
X59399001Y-116105740D01*
X59412038Y-115973375D01*
X59412038Y-115973373D01*
X59463558Y-115803534D01*
X59547223Y-115647009D01*
X59576553Y-115611271D01*
X59659815Y-115509814D01*
X59761272Y-115426552D01*
X59797010Y-115397222D01*
X59953535Y-115313557D01*
X60123374Y-115262037D01*
X60300000Y-115244641D01*
X60476627Y-115262037D01*
X60476627Y-115262037D01*
G37*
G36*
X63016627Y-115262037D02*
G01*
X63186466Y-115313557D01*
X63342991Y-115397222D01*
X63378729Y-115426552D01*
X63480186Y-115509814D01*
X63563448Y-115611271D01*
X63592778Y-115647009D01*
X63676443Y-115803534D01*
X63727963Y-115973373D01*
X63727963Y-115973375D01*
X63741000Y-116105740D01*
X63741000Y-117494260D01*
X63734482Y-117560442D01*
X63727963Y-117626627D01*
X63676443Y-117796466D01*
X63592778Y-117952991D01*
X63565325Y-117986442D01*
X63480186Y-118090186D01*
X63342989Y-118202779D01*
X63186467Y-118286442D01*
X63186465Y-118286443D01*
X63016626Y-118337963D01*
X62840000Y-118355359D01*
X62663373Y-118337963D01*
X62493534Y-118286443D01*
X62337009Y-118202778D01*
X62301271Y-118173448D01*
X62199814Y-118090186D01*
X62087221Y-117952989D01*
X62003558Y-117796467D01*
X62003557Y-117796465D01*
X61952037Y-117626626D01*
X61939218Y-117496468D01*
X61939000Y-117494259D01*
X61939001Y-116105740D01*
X61952038Y-115973375D01*
X61952038Y-115973373D01*
X62003558Y-115803534D01*
X62087223Y-115647009D01*
X62116553Y-115611271D01*
X62199815Y-115509814D01*
X62301272Y-115426552D01*
X62337010Y-115397222D01*
X62493535Y-115313557D01*
X62663374Y-115262037D01*
X62840000Y-115244641D01*
X63016627Y-115262037D01*
X63016627Y-115262037D01*
G37*
G36*
X68096627Y-115262037D02*
G01*
X68266466Y-115313557D01*
X68422991Y-115397222D01*
X68458729Y-115426552D01*
X68560186Y-115509814D01*
X68643448Y-115611271D01*
X68672778Y-115647009D01*
X68756443Y-115803534D01*
X68807963Y-115973373D01*
X68807963Y-115973375D01*
X68821000Y-116105740D01*
X68821000Y-117494260D01*
X68814482Y-117560442D01*
X68807963Y-117626627D01*
X68756443Y-117796466D01*
X68672778Y-117952991D01*
X68645325Y-117986442D01*
X68560186Y-118090186D01*
X68422989Y-118202779D01*
X68266467Y-118286442D01*
X68266465Y-118286443D01*
X68096626Y-118337963D01*
X67920000Y-118355359D01*
X67743373Y-118337963D01*
X67573534Y-118286443D01*
X67417009Y-118202778D01*
X67381271Y-118173448D01*
X67279814Y-118090186D01*
X67167221Y-117952989D01*
X67083558Y-117796467D01*
X67083557Y-117796465D01*
X67032037Y-117626626D01*
X67019218Y-117496468D01*
X67019000Y-117494259D01*
X67019001Y-116105740D01*
X67032038Y-115973375D01*
X67032038Y-115973373D01*
X67083558Y-115803534D01*
X67167223Y-115647009D01*
X67196553Y-115611271D01*
X67279815Y-115509814D01*
X67381272Y-115426552D01*
X67417010Y-115397222D01*
X67573535Y-115313557D01*
X67743374Y-115262037D01*
X67920000Y-115244641D01*
X68096627Y-115262037D01*
X68096627Y-115262037D01*
G37*
G36*
X70636627Y-115262037D02*
G01*
X70806466Y-115313557D01*
X70962991Y-115397222D01*
X70998729Y-115426552D01*
X71100186Y-115509814D01*
X71183448Y-115611271D01*
X71212778Y-115647009D01*
X71296443Y-115803534D01*
X71347963Y-115973373D01*
X71347963Y-115973375D01*
X71361000Y-116105740D01*
X71361000Y-117494260D01*
X71354482Y-117560442D01*
X71347963Y-117626627D01*
X71296443Y-117796466D01*
X71212778Y-117952991D01*
X71185325Y-117986442D01*
X71100186Y-118090186D01*
X70962989Y-118202779D01*
X70806467Y-118286442D01*
X70806465Y-118286443D01*
X70636626Y-118337963D01*
X70460000Y-118355359D01*
X70283373Y-118337963D01*
X70113534Y-118286443D01*
X69957009Y-118202778D01*
X69921271Y-118173448D01*
X69819814Y-118090186D01*
X69707221Y-117952989D01*
X69623558Y-117796467D01*
X69623557Y-117796465D01*
X69572037Y-117626626D01*
X69559218Y-117496468D01*
X69559000Y-117494259D01*
X69559001Y-116105740D01*
X69572038Y-115973375D01*
X69572038Y-115973373D01*
X69623558Y-115803534D01*
X69707223Y-115647009D01*
X69736553Y-115611271D01*
X69819815Y-115509814D01*
X69921272Y-115426552D01*
X69957010Y-115397222D01*
X70113535Y-115313557D01*
X70283374Y-115262037D01*
X70460000Y-115244641D01*
X70636627Y-115262037D01*
X70636627Y-115262037D01*
G37*
G36*
X57936627Y-115262037D02*
G01*
X58106466Y-115313557D01*
X58262991Y-115397222D01*
X58298729Y-115426552D01*
X58400186Y-115509814D01*
X58483448Y-115611271D01*
X58512778Y-115647009D01*
X58596443Y-115803534D01*
X58647963Y-115973373D01*
X58647963Y-115973375D01*
X58661000Y-116105740D01*
X58661000Y-117494260D01*
X58654482Y-117560442D01*
X58647963Y-117626627D01*
X58596443Y-117796466D01*
X58512778Y-117952991D01*
X58485325Y-117986442D01*
X58400186Y-118090186D01*
X58262989Y-118202779D01*
X58106467Y-118286442D01*
X58106465Y-118286443D01*
X57936626Y-118337963D01*
X57760000Y-118355359D01*
X57583373Y-118337963D01*
X57413534Y-118286443D01*
X57257009Y-118202778D01*
X57221271Y-118173448D01*
X57119814Y-118090186D01*
X57007221Y-117952989D01*
X56923558Y-117796467D01*
X56923557Y-117796465D01*
X56872037Y-117626626D01*
X56859218Y-117496468D01*
X56859000Y-117494259D01*
X56859001Y-116105740D01*
X56872038Y-115973375D01*
X56872038Y-115973373D01*
X56923558Y-115803534D01*
X57007223Y-115647009D01*
X57036553Y-115611271D01*
X57119815Y-115509814D01*
X57221272Y-115426552D01*
X57257010Y-115397222D01*
X57413535Y-115313557D01*
X57583374Y-115262037D01*
X57760000Y-115244641D01*
X57936627Y-115262037D01*
X57936627Y-115262037D01*
G37*
G36*
X65556627Y-115262037D02*
G01*
X65726466Y-115313557D01*
X65882991Y-115397222D01*
X65918729Y-115426552D01*
X66020186Y-115509814D01*
X66103448Y-115611271D01*
X66132778Y-115647009D01*
X66216443Y-115803534D01*
X66267963Y-115973373D01*
X66267963Y-115973375D01*
X66281000Y-116105740D01*
X66281000Y-117494260D01*
X66274482Y-117560442D01*
X66267963Y-117626627D01*
X66216443Y-117796466D01*
X66132778Y-117952991D01*
X66105325Y-117986442D01*
X66020186Y-118090186D01*
X65882989Y-118202779D01*
X65726467Y-118286442D01*
X65726465Y-118286443D01*
X65556626Y-118337963D01*
X65380000Y-118355359D01*
X65203373Y-118337963D01*
X65033534Y-118286443D01*
X64877009Y-118202778D01*
X64841271Y-118173448D01*
X64739814Y-118090186D01*
X64627221Y-117952989D01*
X64543558Y-117796467D01*
X64543557Y-117796465D01*
X64492037Y-117626626D01*
X64479218Y-117496468D01*
X64479000Y-117494259D01*
X64479001Y-116105740D01*
X64492038Y-115973375D01*
X64492038Y-115973373D01*
X64543558Y-115803534D01*
X64627223Y-115647009D01*
X64656553Y-115611271D01*
X64739815Y-115509814D01*
X64841272Y-115426552D01*
X64877010Y-115397222D01*
X65033535Y-115313557D01*
X65203374Y-115262037D01*
X65380000Y-115244641D01*
X65556627Y-115262037D01*
X65556627Y-115262037D01*
G37*
G36*
X73901000Y-118351000D02*
G01*
X72099000Y-118351000D01*
X72099000Y-115249000D01*
X73901000Y-115249000D01*
X73901000Y-118351000D01*
X73901000Y-118351000D01*
G37*
G36*
X105076626Y-114962037D02*
G01*
X105246465Y-115013557D01*
X105246467Y-115013558D01*
X105402989Y-115097221D01*
X105540186Y-115209814D01*
X105623448Y-115311271D01*
X105652778Y-115347009D01*
X105736443Y-115503534D01*
X105787963Y-115673373D01*
X105787963Y-115673375D01*
X105800783Y-115803532D01*
X105801000Y-115805742D01*
X105801000Y-117194258D01*
X105787963Y-117326627D01*
X105736443Y-117496466D01*
X105652778Y-117652991D01*
X105626460Y-117685059D01*
X105540186Y-117790186D01*
X105438729Y-117873448D01*
X105402991Y-117902778D01*
X105246466Y-117986443D01*
X105076627Y-118037963D01*
X104900000Y-118055359D01*
X104723374Y-118037963D01*
X104553535Y-117986443D01*
X104397010Y-117902778D01*
X104361272Y-117873448D01*
X104259815Y-117790186D01*
X104173541Y-117685059D01*
X104147223Y-117652991D01*
X104063558Y-117496466D01*
X104012038Y-117326627D01*
X103999001Y-117194258D01*
X103999000Y-115805743D01*
X103999218Y-115803534D01*
X104012037Y-115673376D01*
X104012037Y-115673374D01*
X104063557Y-115503535D01*
X104147222Y-115347010D01*
X104174676Y-115313557D01*
X104259814Y-115209814D01*
X104363003Y-115125130D01*
X104397009Y-115097222D01*
X104553534Y-115013557D01*
X104723373Y-114962037D01*
X104900000Y-114944641D01*
X105076626Y-114962037D01*
X105076626Y-114962037D01*
G37*
G36*
X82216626Y-114962037D02*
G01*
X82386465Y-115013557D01*
X82386467Y-115013558D01*
X82542989Y-115097221D01*
X82680186Y-115209814D01*
X82763448Y-115311271D01*
X82792778Y-115347009D01*
X82876443Y-115503534D01*
X82927963Y-115673373D01*
X82927963Y-115673375D01*
X82940783Y-115803532D01*
X82941000Y-115805742D01*
X82941000Y-117194258D01*
X82927963Y-117326627D01*
X82876443Y-117496466D01*
X82792778Y-117652991D01*
X82766460Y-117685059D01*
X82680186Y-117790186D01*
X82578729Y-117873448D01*
X82542991Y-117902778D01*
X82386466Y-117986443D01*
X82216627Y-118037963D01*
X82040000Y-118055359D01*
X81863374Y-118037963D01*
X81693535Y-117986443D01*
X81537010Y-117902778D01*
X81501272Y-117873448D01*
X81399815Y-117790186D01*
X81313541Y-117685059D01*
X81287223Y-117652991D01*
X81203558Y-117496466D01*
X81152038Y-117326627D01*
X81139001Y-117194258D01*
X81139000Y-115805743D01*
X81139218Y-115803534D01*
X81152037Y-115673376D01*
X81152037Y-115673374D01*
X81203557Y-115503535D01*
X81287222Y-115347010D01*
X81314676Y-115313557D01*
X81399814Y-115209814D01*
X81503003Y-115125130D01*
X81537009Y-115097222D01*
X81693534Y-115013557D01*
X81863373Y-114962037D01*
X82040000Y-114944641D01*
X82216626Y-114962037D01*
X82216626Y-114962037D01*
G37*
G36*
X84756626Y-114962037D02*
G01*
X84926465Y-115013557D01*
X84926467Y-115013558D01*
X85082989Y-115097221D01*
X85220186Y-115209814D01*
X85303448Y-115311271D01*
X85332778Y-115347009D01*
X85416443Y-115503534D01*
X85467963Y-115673373D01*
X85467963Y-115673375D01*
X85480783Y-115803532D01*
X85481000Y-115805742D01*
X85481000Y-117194258D01*
X85467963Y-117326627D01*
X85416443Y-117496466D01*
X85332778Y-117652991D01*
X85306460Y-117685059D01*
X85220186Y-117790186D01*
X85118729Y-117873448D01*
X85082991Y-117902778D01*
X84926466Y-117986443D01*
X84756627Y-118037963D01*
X84580000Y-118055359D01*
X84403374Y-118037963D01*
X84233535Y-117986443D01*
X84077010Y-117902778D01*
X84041272Y-117873448D01*
X83939815Y-117790186D01*
X83853541Y-117685059D01*
X83827223Y-117652991D01*
X83743558Y-117496466D01*
X83692038Y-117326627D01*
X83679001Y-117194258D01*
X83679000Y-115805743D01*
X83679218Y-115803534D01*
X83692037Y-115673376D01*
X83692037Y-115673374D01*
X83743557Y-115503535D01*
X83827222Y-115347010D01*
X83854676Y-115313557D01*
X83939814Y-115209814D01*
X84043003Y-115125130D01*
X84077009Y-115097222D01*
X84233534Y-115013557D01*
X84403373Y-114962037D01*
X84580000Y-114944641D01*
X84756626Y-114962037D01*
X84756626Y-114962037D01*
G37*
G36*
X89836626Y-114962037D02*
G01*
X90006465Y-115013557D01*
X90006467Y-115013558D01*
X90162989Y-115097221D01*
X90300186Y-115209814D01*
X90383448Y-115311271D01*
X90412778Y-115347009D01*
X90496443Y-115503534D01*
X90547963Y-115673373D01*
X90547963Y-115673375D01*
X90560783Y-115803532D01*
X90561000Y-115805742D01*
X90561000Y-117194258D01*
X90547963Y-117326627D01*
X90496443Y-117496466D01*
X90412778Y-117652991D01*
X90386460Y-117685059D01*
X90300186Y-117790186D01*
X90198729Y-117873448D01*
X90162991Y-117902778D01*
X90006466Y-117986443D01*
X89836627Y-118037963D01*
X89660000Y-118055359D01*
X89483374Y-118037963D01*
X89313535Y-117986443D01*
X89157010Y-117902778D01*
X89121272Y-117873448D01*
X89019815Y-117790186D01*
X88933541Y-117685059D01*
X88907223Y-117652991D01*
X88823558Y-117496466D01*
X88772038Y-117326627D01*
X88759001Y-117194258D01*
X88759000Y-115805743D01*
X88759218Y-115803534D01*
X88772037Y-115673376D01*
X88772037Y-115673374D01*
X88823557Y-115503535D01*
X88907222Y-115347010D01*
X88934676Y-115313557D01*
X89019814Y-115209814D01*
X89123003Y-115125130D01*
X89157009Y-115097222D01*
X89313534Y-115013557D01*
X89483373Y-114962037D01*
X89660000Y-114944641D01*
X89836626Y-114962037D01*
X89836626Y-114962037D01*
G37*
G36*
X92376626Y-114962037D02*
G01*
X92546465Y-115013557D01*
X92546467Y-115013558D01*
X92702989Y-115097221D01*
X92840186Y-115209814D01*
X92923448Y-115311271D01*
X92952778Y-115347009D01*
X93036443Y-115503534D01*
X93087963Y-115673373D01*
X93087963Y-115673375D01*
X93100783Y-115803532D01*
X93101000Y-115805742D01*
X93101000Y-117194258D01*
X93087963Y-117326627D01*
X93036443Y-117496466D01*
X92952778Y-117652991D01*
X92926460Y-117685059D01*
X92840186Y-117790186D01*
X92738729Y-117873448D01*
X92702991Y-117902778D01*
X92546466Y-117986443D01*
X92376627Y-118037963D01*
X92200000Y-118055359D01*
X92023374Y-118037963D01*
X91853535Y-117986443D01*
X91697010Y-117902778D01*
X91661272Y-117873448D01*
X91559815Y-117790186D01*
X91473541Y-117685059D01*
X91447223Y-117652991D01*
X91363558Y-117496466D01*
X91312038Y-117326627D01*
X91299001Y-117194258D01*
X91299000Y-115805743D01*
X91299218Y-115803534D01*
X91312037Y-115673376D01*
X91312037Y-115673374D01*
X91363557Y-115503535D01*
X91447222Y-115347010D01*
X91474676Y-115313557D01*
X91559814Y-115209814D01*
X91663003Y-115125130D01*
X91697009Y-115097222D01*
X91853534Y-115013557D01*
X92023373Y-114962037D01*
X92200000Y-114944641D01*
X92376626Y-114962037D01*
X92376626Y-114962037D01*
G37*
G36*
X97456626Y-114962037D02*
G01*
X97626465Y-115013557D01*
X97626467Y-115013558D01*
X97782989Y-115097221D01*
X97920186Y-115209814D01*
X98003448Y-115311271D01*
X98032778Y-115347009D01*
X98116443Y-115503534D01*
X98167963Y-115673373D01*
X98167963Y-115673375D01*
X98180783Y-115803532D01*
X98181000Y-115805742D01*
X98181000Y-117194258D01*
X98167963Y-117326627D01*
X98116443Y-117496466D01*
X98032778Y-117652991D01*
X98006460Y-117685059D01*
X97920186Y-117790186D01*
X97818729Y-117873448D01*
X97782991Y-117902778D01*
X97626466Y-117986443D01*
X97456627Y-118037963D01*
X97280000Y-118055359D01*
X97103374Y-118037963D01*
X96933535Y-117986443D01*
X96777010Y-117902778D01*
X96741272Y-117873448D01*
X96639815Y-117790186D01*
X96553541Y-117685059D01*
X96527223Y-117652991D01*
X96443558Y-117496466D01*
X96392038Y-117326627D01*
X96379001Y-117194258D01*
X96379000Y-115805743D01*
X96379218Y-115803534D01*
X96392037Y-115673376D01*
X96392037Y-115673374D01*
X96443557Y-115503535D01*
X96527222Y-115347010D01*
X96554676Y-115313557D01*
X96639814Y-115209814D01*
X96743003Y-115125130D01*
X96777009Y-115097222D01*
X96933534Y-115013557D01*
X97103373Y-114962037D01*
X97280000Y-114944641D01*
X97456626Y-114962037D01*
X97456626Y-114962037D01*
G37*
G36*
X99996626Y-114962037D02*
G01*
X100166465Y-115013557D01*
X100166467Y-115013558D01*
X100322989Y-115097221D01*
X100460186Y-115209814D01*
X100543448Y-115311271D01*
X100572778Y-115347009D01*
X100656443Y-115503534D01*
X100707963Y-115673373D01*
X100707963Y-115673375D01*
X100720783Y-115803532D01*
X100721000Y-115805742D01*
X100721000Y-117194258D01*
X100707963Y-117326627D01*
X100656443Y-117496466D01*
X100572778Y-117652991D01*
X100546460Y-117685059D01*
X100460186Y-117790186D01*
X100358729Y-117873448D01*
X100322991Y-117902778D01*
X100166466Y-117986443D01*
X99996627Y-118037963D01*
X99820000Y-118055359D01*
X99643374Y-118037963D01*
X99473535Y-117986443D01*
X99317010Y-117902778D01*
X99281272Y-117873448D01*
X99179815Y-117790186D01*
X99093541Y-117685059D01*
X99067223Y-117652991D01*
X98983558Y-117496466D01*
X98932038Y-117326627D01*
X98919001Y-117194258D01*
X98919000Y-115805743D01*
X98919218Y-115803534D01*
X98932037Y-115673376D01*
X98932037Y-115673374D01*
X98983557Y-115503535D01*
X99067222Y-115347010D01*
X99094676Y-115313557D01*
X99179814Y-115209814D01*
X99283003Y-115125130D01*
X99317009Y-115097222D01*
X99473534Y-115013557D01*
X99643373Y-114962037D01*
X99820000Y-114944641D01*
X99996626Y-114962037D01*
X99996626Y-114962037D01*
G37*
G36*
X102536626Y-114962037D02*
G01*
X102706465Y-115013557D01*
X102706467Y-115013558D01*
X102862989Y-115097221D01*
X103000186Y-115209814D01*
X103083448Y-115311271D01*
X103112778Y-115347009D01*
X103196443Y-115503534D01*
X103247963Y-115673373D01*
X103247963Y-115673375D01*
X103260783Y-115803532D01*
X103261000Y-115805742D01*
X103261000Y-117194258D01*
X103247963Y-117326627D01*
X103196443Y-117496466D01*
X103112778Y-117652991D01*
X103086460Y-117685059D01*
X103000186Y-117790186D01*
X102898729Y-117873448D01*
X102862991Y-117902778D01*
X102706466Y-117986443D01*
X102536627Y-118037963D01*
X102360000Y-118055359D01*
X102183374Y-118037963D01*
X102013535Y-117986443D01*
X101857010Y-117902778D01*
X101821272Y-117873448D01*
X101719815Y-117790186D01*
X101633541Y-117685059D01*
X101607223Y-117652991D01*
X101523558Y-117496466D01*
X101472038Y-117326627D01*
X101459001Y-117194258D01*
X101459000Y-115805743D01*
X101459218Y-115803534D01*
X101472037Y-115673376D01*
X101472037Y-115673374D01*
X101523557Y-115503535D01*
X101607222Y-115347010D01*
X101634676Y-115313557D01*
X101719814Y-115209814D01*
X101823003Y-115125130D01*
X101857009Y-115097222D01*
X102013534Y-115013557D01*
X102183373Y-114962037D01*
X102360000Y-114944641D01*
X102536626Y-114962037D01*
X102536626Y-114962037D01*
G37*
G36*
X107616626Y-114962037D02*
G01*
X107786465Y-115013557D01*
X107786467Y-115013558D01*
X107942989Y-115097221D01*
X108080186Y-115209814D01*
X108163448Y-115311271D01*
X108192778Y-115347009D01*
X108276443Y-115503534D01*
X108327963Y-115673373D01*
X108327963Y-115673375D01*
X108340783Y-115803532D01*
X108341000Y-115805742D01*
X108341000Y-117194258D01*
X108327963Y-117326627D01*
X108276443Y-117496466D01*
X108192778Y-117652991D01*
X108166460Y-117685059D01*
X108080186Y-117790186D01*
X107978729Y-117873448D01*
X107942991Y-117902778D01*
X107786466Y-117986443D01*
X107616627Y-118037963D01*
X107440000Y-118055359D01*
X107263374Y-118037963D01*
X107093535Y-117986443D01*
X106937010Y-117902778D01*
X106901272Y-117873448D01*
X106799815Y-117790186D01*
X106713541Y-117685059D01*
X106687223Y-117652991D01*
X106603558Y-117496466D01*
X106552038Y-117326627D01*
X106539001Y-117194258D01*
X106539000Y-115805743D01*
X106539218Y-115803534D01*
X106552037Y-115673376D01*
X106552037Y-115673374D01*
X106603557Y-115503535D01*
X106687222Y-115347010D01*
X106714676Y-115313557D01*
X106799814Y-115209814D01*
X106903003Y-115125130D01*
X106937009Y-115097222D01*
X107093534Y-115013557D01*
X107263373Y-114962037D01*
X107440000Y-114944641D01*
X107616626Y-114962037D01*
X107616626Y-114962037D01*
G37*
G36*
X94916626Y-114962037D02*
G01*
X95086465Y-115013557D01*
X95086467Y-115013558D01*
X95242989Y-115097221D01*
X95380186Y-115209814D01*
X95463448Y-115311271D01*
X95492778Y-115347009D01*
X95576443Y-115503534D01*
X95627963Y-115673373D01*
X95627963Y-115673375D01*
X95640783Y-115803532D01*
X95641000Y-115805742D01*
X95641000Y-117194258D01*
X95627963Y-117326627D01*
X95576443Y-117496466D01*
X95492778Y-117652991D01*
X95466460Y-117685059D01*
X95380186Y-117790186D01*
X95278729Y-117873448D01*
X95242991Y-117902778D01*
X95086466Y-117986443D01*
X94916627Y-118037963D01*
X94740000Y-118055359D01*
X94563374Y-118037963D01*
X94393535Y-117986443D01*
X94237010Y-117902778D01*
X94201272Y-117873448D01*
X94099815Y-117790186D01*
X94013541Y-117685059D01*
X93987223Y-117652991D01*
X93903558Y-117496466D01*
X93852038Y-117326627D01*
X93839001Y-117194258D01*
X93839000Y-115805743D01*
X93839218Y-115803534D01*
X93852037Y-115673376D01*
X93852037Y-115673374D01*
X93903557Y-115503535D01*
X93987222Y-115347010D01*
X94014676Y-115313557D01*
X94099814Y-115209814D01*
X94203003Y-115125130D01*
X94237009Y-115097222D01*
X94393534Y-115013557D01*
X94563373Y-114962037D01*
X94740000Y-114944641D01*
X94916626Y-114962037D01*
X94916626Y-114962037D01*
G37*
G36*
X87296626Y-114962037D02*
G01*
X87466465Y-115013557D01*
X87466467Y-115013558D01*
X87622989Y-115097221D01*
X87760186Y-115209814D01*
X87843448Y-115311271D01*
X87872778Y-115347009D01*
X87956443Y-115503534D01*
X88007963Y-115673373D01*
X88007963Y-115673375D01*
X88020783Y-115803532D01*
X88021000Y-115805742D01*
X88021000Y-117194258D01*
X88007963Y-117326627D01*
X87956443Y-117496466D01*
X87872778Y-117652991D01*
X87846460Y-117685059D01*
X87760186Y-117790186D01*
X87658729Y-117873448D01*
X87622991Y-117902778D01*
X87466466Y-117986443D01*
X87296627Y-118037963D01*
X87120000Y-118055359D01*
X86943374Y-118037963D01*
X86773535Y-117986443D01*
X86617010Y-117902778D01*
X86581272Y-117873448D01*
X86479815Y-117790186D01*
X86393541Y-117685059D01*
X86367223Y-117652991D01*
X86283558Y-117496466D01*
X86232038Y-117326627D01*
X86219001Y-117194258D01*
X86219000Y-115805743D01*
X86219218Y-115803534D01*
X86232037Y-115673376D01*
X86232037Y-115673374D01*
X86283557Y-115503535D01*
X86367222Y-115347010D01*
X86394676Y-115313557D01*
X86479814Y-115209814D01*
X86583003Y-115125130D01*
X86617009Y-115097222D01*
X86773534Y-115013557D01*
X86943373Y-114962037D01*
X87120000Y-114944641D01*
X87296626Y-114962037D01*
X87296626Y-114962037D01*
G37*
G36*
X80401000Y-118051000D02*
G01*
X78599000Y-118051000D01*
X78599000Y-114949000D01*
X80401000Y-114949000D01*
X80401000Y-118051000D01*
X80401000Y-118051000D01*
G37*
G36*
X133645936Y-115921340D02*
G01*
X133744220Y-115931020D01*
X133933381Y-115988401D01*
X134107712Y-116081583D01*
X134260515Y-116206985D01*
X134385917Y-116359788D01*
X134479099Y-116534119D01*
X134536480Y-116723280D01*
X134555855Y-116920000D01*
X134536480Y-117116720D01*
X134479099Y-117305881D01*
X134385917Y-117480212D01*
X134260515Y-117633015D01*
X134107712Y-117758417D01*
X133933381Y-117851599D01*
X133744220Y-117908980D01*
X133645936Y-117918660D01*
X133596795Y-117923500D01*
X132403205Y-117923500D01*
X132354064Y-117918660D01*
X132255780Y-117908980D01*
X132066619Y-117851599D01*
X131892288Y-117758417D01*
X131739485Y-117633015D01*
X131614083Y-117480212D01*
X131520901Y-117305881D01*
X131463520Y-117116720D01*
X131444145Y-116920000D01*
X131463520Y-116723280D01*
X131520901Y-116534119D01*
X131614083Y-116359788D01*
X131739485Y-116206985D01*
X131892288Y-116081583D01*
X132066619Y-115988401D01*
X132255780Y-115931020D01*
X132354064Y-115921340D01*
X132403205Y-115916500D01*
X133596795Y-115916500D01*
X133645936Y-115921340D01*
X133645936Y-115921340D01*
G37*
G36*
X147323651Y-114132888D02*
G01*
X147634870Y-114227296D01*
X147921680Y-114380599D01*
X147921683Y-114380601D01*
X147921684Y-114380602D01*
X148173082Y-114586918D01*
X148379398Y-114838316D01*
X148379401Y-114838320D01*
X148532704Y-115125130D01*
X148627112Y-115436349D01*
X148658988Y-115760000D01*
X148627112Y-116083651D01*
X148532704Y-116394870D01*
X148379401Y-116681680D01*
X148379399Y-116681683D01*
X148379398Y-116681684D01*
X148173082Y-116933082D01*
X147949317Y-117116720D01*
X147921680Y-117139401D01*
X147634870Y-117292704D01*
X147323651Y-117387112D01*
X147081107Y-117411000D01*
X146918893Y-117411000D01*
X146676349Y-117387112D01*
X146365130Y-117292704D01*
X146078320Y-117139401D01*
X146050683Y-117116720D01*
X145826918Y-116933082D01*
X145620602Y-116681684D01*
X145620601Y-116681683D01*
X145620599Y-116681680D01*
X145467296Y-116394870D01*
X145372888Y-116083651D01*
X145341012Y-115760000D01*
X145372888Y-115436349D01*
X145467296Y-115125130D01*
X145620599Y-114838320D01*
X145620602Y-114838316D01*
X145826918Y-114586918D01*
X146078316Y-114380602D01*
X146078317Y-114380601D01*
X146078320Y-114380599D01*
X146365130Y-114227296D01*
X146676349Y-114132888D01*
X146918893Y-114109000D01*
X147081107Y-114109000D01*
X147323651Y-114132888D01*
X147323651Y-114132888D01*
G37*
M02*
