G04 #@! TF.GenerationSoftware,KiCad,Pcbnew,(5.1.4)-1*
G04 #@! TF.CreationDate,2020-07-31T19:04:34-03:00*
G04 #@! TF.ProjectId,INYECTORES,494e5945-4354-44f5-9245-532e6b696361,rev?*
G04 #@! TF.SameCoordinates,Original*
G04 #@! TF.FileFunction,Legend,Top*
G04 #@! TF.FilePolarity,Positive*
%FSLAX46Y46*%
G04 Gerber Fmt 4.6, Leading zero omitted, Abs format (unit mm)*
G04 Created by KiCad (PCBNEW (5.1.4)-1) date 2020-07-31 19:04:34*
%MOMM*%
%LPD*%
G04 APERTURE LIST*
%ADD10C,0.120000*%
%ADD11C,0.300000*%
%ADD12C,0.150000*%
%ADD13C,0.250000*%
G04 APERTURE END LIST*
D10*
X67500000Y-176000000D02*
X67500000Y-155000000D01*
X155250000Y-113000000D02*
X111000000Y-113000000D01*
X108000000Y-173000000D02*
X108000000Y-176000000D01*
X108000000Y-176000000D02*
X154500000Y-176000000D01*
X67500000Y-155000000D02*
X54000000Y-147000000D01*
X38000000Y-113000000D02*
X38000000Y-123500000D01*
X108000000Y-126000000D02*
X108000000Y-173000000D01*
X111000000Y-124500000D02*
X108000000Y-126000000D01*
X54000000Y-132500000D02*
X54000000Y-126500000D01*
X155250000Y-116250000D02*
X155250000Y-113000000D01*
X108000000Y-176000000D02*
X67500000Y-176000000D01*
X111000000Y-113000000D02*
X111000000Y-124500000D01*
X54000000Y-147000000D02*
X54000000Y-131500000D01*
X154500000Y-176000000D02*
X154500000Y-173000000D01*
X38000000Y-123500000D02*
X38000000Y-176000000D01*
X54000000Y-126500000D02*
X51000000Y-123500000D01*
X160000000Y-171000000D02*
X160000000Y-117750000D01*
X160000000Y-117750000D02*
X155250000Y-116250000D01*
X51000000Y-123500000D02*
X38000000Y-123500000D01*
X154500000Y-173000000D02*
X160000000Y-171000000D01*
X111000000Y-113000000D02*
X38000000Y-113000000D01*
X38000000Y-176000000D02*
X67500000Y-176000000D01*
D11*
X156207142Y-144028571D02*
X156207142Y-145171428D01*
D12*
X74354761Y-137038095D02*
X72354761Y-137038095D01*
X72354761Y-136276190D01*
X72450000Y-136085714D01*
X72545238Y-135990476D01*
X72735714Y-135895238D01*
X73021428Y-135895238D01*
X73211904Y-135990476D01*
X73307142Y-136085714D01*
X73402380Y-136276190D01*
X73402380Y-137038095D01*
X74354761Y-133895238D02*
X73402380Y-134561904D01*
X74354761Y-135038095D02*
X72354761Y-135038095D01*
X72354761Y-134276190D01*
X72450000Y-134085714D01*
X72545238Y-133990476D01*
X72735714Y-133895238D01*
X73021428Y-133895238D01*
X73211904Y-133990476D01*
X73307142Y-134085714D01*
X73402380Y-134276190D01*
X73402380Y-135038095D01*
X72354761Y-132657142D02*
X72354761Y-132276190D01*
X72450000Y-132085714D01*
X72640476Y-131895238D01*
X73021428Y-131800000D01*
X73688095Y-131800000D01*
X74069047Y-131895238D01*
X74259523Y-132085714D01*
X74354761Y-132276190D01*
X74354761Y-132657142D01*
X74259523Y-132847619D01*
X74069047Y-133038095D01*
X73688095Y-133133333D01*
X73021428Y-133133333D01*
X72640476Y-133038095D01*
X72450000Y-132847619D01*
X72354761Y-132657142D01*
X73307142Y-130276190D02*
X73402380Y-129990476D01*
X73497619Y-129895238D01*
X73688095Y-129800000D01*
X73973809Y-129800000D01*
X74164285Y-129895238D01*
X74259523Y-129990476D01*
X74354761Y-130180952D01*
X74354761Y-130942857D01*
X72354761Y-130942857D01*
X72354761Y-130276190D01*
X72450000Y-130085714D01*
X72545238Y-129990476D01*
X72735714Y-129895238D01*
X72926190Y-129895238D01*
X73116666Y-129990476D01*
X73211904Y-130085714D01*
X73307142Y-130276190D01*
X73307142Y-130942857D01*
X73783333Y-129038095D02*
X73783333Y-128085714D01*
X74354761Y-129228571D02*
X72354761Y-128561904D01*
X74354761Y-127895238D01*
X74354761Y-127228571D02*
X72354761Y-127228571D01*
X72354761Y-126752380D01*
X72450000Y-126466666D01*
X72640476Y-126276190D01*
X72830952Y-126180952D01*
X73211904Y-126085714D01*
X73497619Y-126085714D01*
X73878571Y-126180952D01*
X74069047Y-126276190D01*
X74259523Y-126466666D01*
X74354761Y-126752380D01*
X74354761Y-127228571D01*
X72354761Y-124847619D02*
X72354761Y-124466666D01*
X72450000Y-124276190D01*
X72640476Y-124085714D01*
X73021428Y-123990476D01*
X73688095Y-123990476D01*
X74069047Y-124085714D01*
X74259523Y-124276190D01*
X74354761Y-124466666D01*
X74354761Y-124847619D01*
X74259523Y-125038095D01*
X74069047Y-125228571D01*
X73688095Y-125323809D01*
X73021428Y-125323809D01*
X72640476Y-125228571D01*
X72450000Y-125038095D01*
X72354761Y-124847619D01*
X74354761Y-121990476D02*
X73402380Y-122657142D01*
X74354761Y-123133333D02*
X72354761Y-123133333D01*
X72354761Y-122371428D01*
X72450000Y-122180952D01*
X72545238Y-122085714D01*
X72735714Y-121990476D01*
X73021428Y-121990476D01*
X73211904Y-122085714D01*
X73307142Y-122180952D01*
X73402380Y-122371428D01*
X73402380Y-123133333D01*
X77504761Y-130990476D02*
X75504761Y-130990476D01*
X75504761Y-130514285D01*
X75600000Y-130228571D01*
X75790476Y-130038095D01*
X75980952Y-129942857D01*
X76361904Y-129847619D01*
X76647619Y-129847619D01*
X77028571Y-129942857D01*
X77219047Y-130038095D01*
X77409523Y-130228571D01*
X77504761Y-130514285D01*
X77504761Y-130990476D01*
X76457142Y-128990476D02*
X76457142Y-128323809D01*
X77504761Y-128038095D02*
X77504761Y-128990476D01*
X75504761Y-128990476D01*
X75504761Y-128038095D01*
X80654761Y-137276190D02*
X78654761Y-137276190D01*
X80654761Y-136323809D02*
X78654761Y-136323809D01*
X80654761Y-135180952D01*
X78654761Y-135180952D01*
X79702380Y-133847619D02*
X80654761Y-133847619D01*
X78654761Y-134514285D02*
X79702380Y-133847619D01*
X78654761Y-133180952D01*
X79607142Y-132514285D02*
X79607142Y-131847619D01*
X80654761Y-131561904D02*
X80654761Y-132514285D01*
X78654761Y-132514285D01*
X78654761Y-131561904D01*
X80464285Y-129561904D02*
X80559523Y-129657142D01*
X80654761Y-129942857D01*
X80654761Y-130133333D01*
X80559523Y-130419047D01*
X80369047Y-130609523D01*
X80178571Y-130704761D01*
X79797619Y-130800000D01*
X79511904Y-130800000D01*
X79130952Y-130704761D01*
X78940476Y-130609523D01*
X78750000Y-130419047D01*
X78654761Y-130133333D01*
X78654761Y-129942857D01*
X78750000Y-129657142D01*
X78845238Y-129561904D01*
X78654761Y-128990476D02*
X78654761Y-127847619D01*
X80654761Y-128419047D02*
X78654761Y-128419047D01*
X78654761Y-126800000D02*
X78654761Y-126419047D01*
X78750000Y-126228571D01*
X78940476Y-126038095D01*
X79321428Y-125942857D01*
X79988095Y-125942857D01*
X80369047Y-126038095D01*
X80559523Y-126228571D01*
X80654761Y-126419047D01*
X80654761Y-126800000D01*
X80559523Y-126990476D01*
X80369047Y-127180952D01*
X79988095Y-127276190D01*
X79321428Y-127276190D01*
X78940476Y-127180952D01*
X78750000Y-126990476D01*
X78654761Y-126800000D01*
X80654761Y-123942857D02*
X79702380Y-124609523D01*
X80654761Y-125085714D02*
X78654761Y-125085714D01*
X78654761Y-124323809D01*
X78750000Y-124133333D01*
X78845238Y-124038095D01*
X79035714Y-123942857D01*
X79321428Y-123942857D01*
X79511904Y-124038095D01*
X79607142Y-124133333D01*
X79702380Y-124323809D01*
X79702380Y-125085714D01*
X79607142Y-123085714D02*
X79607142Y-122419047D01*
X80654761Y-122133333D02*
X80654761Y-123085714D01*
X78654761Y-123085714D01*
X78654761Y-122133333D01*
X80559523Y-121371428D02*
X80654761Y-121085714D01*
X80654761Y-120609523D01*
X80559523Y-120419047D01*
X80464285Y-120323809D01*
X80273809Y-120228571D01*
X80083333Y-120228571D01*
X79892857Y-120323809D01*
X79797619Y-120419047D01*
X79702380Y-120609523D01*
X79607142Y-120990476D01*
X79511904Y-121180952D01*
X79416666Y-121276190D01*
X79226190Y-121371428D01*
X79035714Y-121371428D01*
X78845238Y-121276190D01*
X78750000Y-121180952D01*
X78654761Y-120990476D01*
X78654761Y-120514285D01*
X78750000Y-120228571D01*
D11*
X156107142Y-130528571D02*
X156107142Y-131671428D01*
D13*
X110404761Y-175297619D02*
X110452380Y-175154761D01*
X110452380Y-174916666D01*
X110404761Y-174821428D01*
X110357142Y-174773809D01*
X110261904Y-174726190D01*
X110166666Y-174726190D01*
X110071428Y-174773809D01*
X110023809Y-174821428D01*
X109976190Y-174916666D01*
X109928571Y-175107142D01*
X109880952Y-175202380D01*
X109833333Y-175250000D01*
X109738095Y-175297619D01*
X109642857Y-175297619D01*
X109547619Y-175250000D01*
X109500000Y-175202380D01*
X109452380Y-175107142D01*
X109452380Y-174869047D01*
X109500000Y-174726190D01*
X110166666Y-174345238D02*
X110166666Y-173869047D01*
X110452380Y-174440476D02*
X109452380Y-174107142D01*
X110452380Y-173773809D01*
X110452380Y-172964285D02*
X110452380Y-173440476D01*
X109452380Y-173440476D01*
X110452380Y-172630952D02*
X109452380Y-172630952D01*
X110452380Y-172154761D02*
X109452380Y-172154761D01*
X109452380Y-171916666D01*
X109500000Y-171773809D01*
X109595238Y-171678571D01*
X109690476Y-171630952D01*
X109880952Y-171583333D01*
X110023809Y-171583333D01*
X110214285Y-171630952D01*
X110309523Y-171678571D01*
X110404761Y-171773809D01*
X110452380Y-171916666D01*
X110452380Y-172154761D01*
X110166666Y-171202380D02*
X110166666Y-170726190D01*
X110452380Y-171297619D02*
X109452380Y-170964285D01*
X110452380Y-170630952D01*
X110452380Y-169535714D02*
X109452380Y-169535714D01*
X109452380Y-169297619D01*
X109500000Y-169154761D01*
X109595238Y-169059523D01*
X109690476Y-169011904D01*
X109880952Y-168964285D01*
X110023809Y-168964285D01*
X110214285Y-169011904D01*
X110309523Y-169059523D01*
X110404761Y-169154761D01*
X110452380Y-169297619D01*
X110452380Y-169535714D01*
X109928571Y-168535714D02*
X109928571Y-168202380D01*
X110452380Y-168059523D02*
X110452380Y-168535714D01*
X109452380Y-168535714D01*
X109452380Y-168059523D01*
X110452380Y-166869047D02*
X109452380Y-166869047D01*
X109452380Y-166488095D01*
X109500000Y-166392857D01*
X109547619Y-166345238D01*
X109642857Y-166297619D01*
X109785714Y-166297619D01*
X109880952Y-166345238D01*
X109928571Y-166392857D01*
X109976190Y-166488095D01*
X109976190Y-166869047D01*
X109452380Y-165678571D02*
X109452380Y-165488095D01*
X109500000Y-165392857D01*
X109595238Y-165297619D01*
X109785714Y-165250000D01*
X110119047Y-165250000D01*
X110309523Y-165297619D01*
X110404761Y-165392857D01*
X110452380Y-165488095D01*
X110452380Y-165678571D01*
X110404761Y-165773809D01*
X110309523Y-165869047D01*
X110119047Y-165916666D01*
X109785714Y-165916666D01*
X109595238Y-165869047D01*
X109500000Y-165773809D01*
X109452380Y-165678571D01*
X109452380Y-164964285D02*
X109452380Y-164392857D01*
X110452380Y-164678571D02*
X109452380Y-164678571D01*
X109928571Y-164059523D02*
X109928571Y-163726190D01*
X110452380Y-163583333D02*
X110452380Y-164059523D01*
X109452380Y-164059523D01*
X109452380Y-163583333D01*
X110452380Y-163154761D02*
X109452380Y-163154761D01*
X110452380Y-162583333D01*
X109452380Y-162583333D01*
X110357142Y-161535714D02*
X110404761Y-161583333D01*
X110452380Y-161726190D01*
X110452380Y-161821428D01*
X110404761Y-161964285D01*
X110309523Y-162059523D01*
X110214285Y-162107142D01*
X110023809Y-162154761D01*
X109880952Y-162154761D01*
X109690476Y-162107142D01*
X109595238Y-162059523D01*
X109500000Y-161964285D01*
X109452380Y-161821428D01*
X109452380Y-161726190D01*
X109500000Y-161583333D01*
X109547619Y-161535714D01*
X110452380Y-161107142D02*
X109452380Y-161107142D01*
X110166666Y-160678571D02*
X110166666Y-160202380D01*
X110452380Y-160773809D02*
X109452380Y-160440476D01*
X110452380Y-160107142D01*
D11*
X44807142Y-171828571D02*
X44807142Y-172971428D01*
X45378571Y-172400000D02*
X44235714Y-172400000D01*
D12*
X65666666Y-175523809D02*
X65666666Y-175047619D01*
X65952380Y-175619047D02*
X64952380Y-175285714D01*
X65952380Y-174952380D01*
X65952380Y-174142857D02*
X65952380Y-174619047D01*
X64952380Y-174619047D01*
X65952380Y-173809523D02*
X64952380Y-173809523D01*
X65952380Y-173333333D02*
X64952380Y-173333333D01*
X65666666Y-173000000D01*
X64952380Y-172666666D01*
X65952380Y-172666666D01*
X65428571Y-172190476D02*
X65428571Y-171857142D01*
X65952380Y-171714285D02*
X65952380Y-172190476D01*
X64952380Y-172190476D01*
X64952380Y-171714285D01*
X65952380Y-171285714D02*
X64952380Y-171285714D01*
X65952380Y-170714285D01*
X64952380Y-170714285D01*
X64952380Y-170380952D02*
X64952380Y-169809523D01*
X65952380Y-170095238D02*
X64952380Y-170095238D01*
X65666666Y-169523809D02*
X65666666Y-169047619D01*
X65952380Y-169619047D02*
X64952380Y-169285714D01*
X65952380Y-168952380D01*
X65857142Y-168047619D02*
X65904761Y-168095238D01*
X65952380Y-168238095D01*
X65952380Y-168333333D01*
X65904761Y-168476190D01*
X65809523Y-168571428D01*
X65714285Y-168619047D01*
X65523809Y-168666666D01*
X65380952Y-168666666D01*
X65190476Y-168619047D01*
X65095238Y-168571428D01*
X65000000Y-168476190D01*
X64952380Y-168333333D01*
X64952380Y-168238095D01*
X65000000Y-168095238D01*
X65047619Y-168047619D01*
X65952380Y-167619047D02*
X64952380Y-167619047D01*
X64952380Y-166952380D02*
X64952380Y-166761904D01*
X65000000Y-166666666D01*
X65095238Y-166571428D01*
X65285714Y-166523809D01*
X65619047Y-166523809D01*
X65809523Y-166571428D01*
X65904761Y-166666666D01*
X65952380Y-166761904D01*
X65952380Y-166952380D01*
X65904761Y-167047619D01*
X65809523Y-167142857D01*
X65619047Y-167190476D01*
X65285714Y-167190476D01*
X65095238Y-167142857D01*
X65000000Y-167047619D01*
X64952380Y-166952380D01*
X64571428Y-166761904D02*
X64714285Y-166904761D01*
X65952380Y-166095238D02*
X64952380Y-166095238D01*
X65952380Y-165523809D01*
X64952380Y-165523809D01*
D11*
X156107142Y-170428571D02*
X156107142Y-171571428D01*
X156678571Y-171000000D02*
X155535714Y-171000000D01*
X56428571Y-172292857D02*
X57571428Y-172292857D01*
X156207142Y-142328571D02*
X156207142Y-143471428D01*
X156778571Y-142900000D02*
X155635714Y-142900000D01*
X156107142Y-155928571D02*
X156107142Y-157071428D01*
X156678571Y-156500000D02*
X155535714Y-156500000D01*
X156107142Y-128328571D02*
X156107142Y-129471428D01*
X156678571Y-128900000D02*
X155535714Y-128900000D01*
X156107142Y-116628571D02*
X156107142Y-117771428D01*
D12*
X106357142Y-174809523D02*
X106404761Y-174857142D01*
X106452380Y-175000000D01*
X106452380Y-175095238D01*
X106404761Y-175238095D01*
X106309523Y-175333333D01*
X106214285Y-175380952D01*
X106023809Y-175428571D01*
X105880952Y-175428571D01*
X105690476Y-175380952D01*
X105595238Y-175333333D01*
X105500000Y-175238095D01*
X105452380Y-175095238D01*
X105452380Y-175000000D01*
X105500000Y-174857142D01*
X105547619Y-174809523D01*
X105452380Y-174190476D02*
X105452380Y-174000000D01*
X105500000Y-173904761D01*
X105595238Y-173809523D01*
X105785714Y-173761904D01*
X106119047Y-173761904D01*
X106309523Y-173809523D01*
X106404761Y-173904761D01*
X106452380Y-174000000D01*
X106452380Y-174190476D01*
X106404761Y-174285714D01*
X106309523Y-174380952D01*
X106119047Y-174428571D01*
X105785714Y-174428571D01*
X105595238Y-174380952D01*
X105500000Y-174285714D01*
X105452380Y-174190476D01*
X106452380Y-173333333D02*
X105452380Y-173333333D01*
X106452380Y-172761904D01*
X105452380Y-172761904D01*
X105452380Y-172428571D02*
X105452380Y-171857142D01*
X106452380Y-172142857D02*
X105452380Y-172142857D01*
X106452380Y-170952380D02*
X105976190Y-171285714D01*
X106452380Y-171523809D02*
X105452380Y-171523809D01*
X105452380Y-171142857D01*
X105500000Y-171047619D01*
X105547619Y-171000000D01*
X105642857Y-170952380D01*
X105785714Y-170952380D01*
X105880952Y-171000000D01*
X105928571Y-171047619D01*
X105976190Y-171142857D01*
X105976190Y-171523809D01*
X105452380Y-170333333D02*
X105452380Y-170142857D01*
X105500000Y-170047619D01*
X105595238Y-169952380D01*
X105785714Y-169904761D01*
X106119047Y-169904761D01*
X106309523Y-169952380D01*
X106404761Y-170047619D01*
X106452380Y-170142857D01*
X106452380Y-170333333D01*
X106404761Y-170428571D01*
X106309523Y-170523809D01*
X106119047Y-170571428D01*
X105785714Y-170571428D01*
X105595238Y-170523809D01*
X105500000Y-170428571D01*
X105452380Y-170333333D01*
X106452380Y-169000000D02*
X106452380Y-169476190D01*
X105452380Y-169476190D01*
X105404761Y-167952380D02*
X106690476Y-168809523D01*
X106452380Y-167619047D02*
X105452380Y-167619047D01*
X105452380Y-167238095D01*
X105500000Y-167142857D01*
X105547619Y-167095238D01*
X105642857Y-167047619D01*
X105785714Y-167047619D01*
X105880952Y-167095238D01*
X105928571Y-167142857D01*
X105976190Y-167238095D01*
X105976190Y-167619047D01*
X106452380Y-166047619D02*
X105976190Y-166380952D01*
X106452380Y-166619047D02*
X105452380Y-166619047D01*
X105452380Y-166238095D01*
X105500000Y-166142857D01*
X105547619Y-166095238D01*
X105642857Y-166047619D01*
X105785714Y-166047619D01*
X105880952Y-166095238D01*
X105928571Y-166142857D01*
X105976190Y-166238095D01*
X105976190Y-166619047D01*
X105452380Y-165428571D02*
X105452380Y-165238095D01*
X105500000Y-165142857D01*
X105595238Y-165047619D01*
X105785714Y-165000000D01*
X106119047Y-165000000D01*
X106309523Y-165047619D01*
X106404761Y-165142857D01*
X106452380Y-165238095D01*
X106452380Y-165428571D01*
X106404761Y-165523809D01*
X106309523Y-165619047D01*
X106119047Y-165666666D01*
X105785714Y-165666666D01*
X105595238Y-165619047D01*
X105500000Y-165523809D01*
X105452380Y-165428571D01*
X105500000Y-164047619D02*
X105452380Y-164142857D01*
X105452380Y-164285714D01*
X105500000Y-164428571D01*
X105595238Y-164523809D01*
X105690476Y-164571428D01*
X105880952Y-164619047D01*
X106023809Y-164619047D01*
X106214285Y-164571428D01*
X106309523Y-164523809D01*
X106404761Y-164428571D01*
X106452380Y-164285714D01*
X106452380Y-164190476D01*
X106404761Y-164047619D01*
X106357142Y-164000000D01*
X106023809Y-164000000D01*
X106023809Y-164190476D01*
X106452380Y-163000000D02*
X105976190Y-163333333D01*
X106452380Y-163571428D02*
X105452380Y-163571428D01*
X105452380Y-163190476D01*
X105500000Y-163095238D01*
X105547619Y-163047619D01*
X105642857Y-163000000D01*
X105785714Y-163000000D01*
X105880952Y-163047619D01*
X105928571Y-163095238D01*
X105976190Y-163190476D01*
X105976190Y-163571428D01*
X106166666Y-162619047D02*
X106166666Y-162142857D01*
X106452380Y-162714285D02*
X105452380Y-162380952D01*
X106452380Y-162047619D01*
X106452380Y-161714285D02*
X105452380Y-161714285D01*
X106166666Y-161380952D01*
X105452380Y-161047619D01*
X106452380Y-161047619D01*
X106166666Y-160619047D02*
X106166666Y-160142857D01*
X106452380Y-160714285D02*
X105452380Y-160380952D01*
X106452380Y-160047619D01*
X106357142Y-159142857D02*
X106404761Y-159190476D01*
X106452380Y-159333333D01*
X106452380Y-159428571D01*
X106404761Y-159571428D01*
X106309523Y-159666666D01*
X106214285Y-159714285D01*
X106023809Y-159761904D01*
X105880952Y-159761904D01*
X105690476Y-159714285D01*
X105595238Y-159666666D01*
X105500000Y-159571428D01*
X105452380Y-159428571D01*
X105452380Y-159333333D01*
X105500000Y-159190476D01*
X105547619Y-159142857D01*
X106452380Y-158714285D02*
X105452380Y-158714285D01*
X105452380Y-158047619D02*
X105452380Y-157857142D01*
X105500000Y-157761904D01*
X105595238Y-157666666D01*
X105785714Y-157619047D01*
X106119047Y-157619047D01*
X106309523Y-157666666D01*
X106404761Y-157761904D01*
X106452380Y-157857142D01*
X106452380Y-158047619D01*
X106404761Y-158142857D01*
X106309523Y-158238095D01*
X106119047Y-158285714D01*
X105785714Y-158285714D01*
X105595238Y-158238095D01*
X105500000Y-158142857D01*
X105452380Y-158047619D01*
X105071428Y-157857142D02*
X105214285Y-158000000D01*
X106452380Y-157190476D02*
X105452380Y-157190476D01*
X106452380Y-156619047D01*
X105452380Y-156619047D01*
D11*
X156207142Y-158428571D02*
X156207142Y-159571428D01*
X66571428Y-31107142D02*
X65428571Y-31107142D01*
X66000000Y-31678571D02*
X66000000Y-30535714D01*
X108571428Y-46107142D02*
X107428571Y-46107142D01*
X108000000Y-46678571D02*
X108000000Y-45535714D01*
D12*
X108071428Y-48880952D02*
X108071428Y-48119047D01*
D11*
X108571428Y-66107142D02*
X107428571Y-66107142D01*
X108000000Y-66678571D02*
X108000000Y-65535714D01*
D10*
X61610000Y-122670000D02*
X62940000Y-122670000D01*
X61610000Y-124000000D02*
X61610000Y-122670000D01*
X61610000Y-125270000D02*
X64270000Y-125270000D01*
X64270000Y-125270000D02*
X64270000Y-130410000D01*
X61610000Y-125270000D02*
X61610000Y-130410000D01*
X61610000Y-130410000D02*
X64270000Y-130410000D01*
X144280000Y-167825000D02*
X149720000Y-167825000D01*
X144280000Y-167585000D02*
X149720000Y-167585000D01*
X144280000Y-167705000D02*
X149720000Y-167705000D01*
X147000000Y-158600000D02*
X147000000Y-159510000D01*
X147000000Y-170160000D02*
X147000000Y-169250000D01*
X144280000Y-159510000D02*
X144280000Y-169250000D01*
X149720000Y-159510000D02*
X144280000Y-159510000D01*
X149720000Y-169250000D02*
X149720000Y-159510000D01*
X144280000Y-169250000D02*
X149720000Y-169250000D01*
X78170000Y-116500000D02*
X78170000Y-115170000D01*
X78170000Y-115170000D02*
X79500000Y-115170000D01*
X80770000Y-115170000D02*
X108770000Y-115170000D01*
X108770000Y-117830000D02*
X108770000Y-115170000D01*
X80770000Y-117830000D02*
X108770000Y-117830000D01*
X80770000Y-117830000D02*
X80770000Y-115170000D01*
X151650000Y-155550000D02*
X151650000Y-145550000D01*
X151650000Y-145550000D02*
X157650000Y-145550000D01*
X159650000Y-145550000D02*
X159650000Y-155550000D01*
X157650000Y-155550000D02*
X151650000Y-155550000D01*
X151650000Y-150550000D02*
X157650000Y-150550000D01*
X159650000Y-155050000D02*
X159150000Y-155050000D01*
X159150000Y-155050000D02*
X159150000Y-146050000D01*
X159150000Y-146050000D02*
X159650000Y-146050000D01*
X157650000Y-155550000D02*
X159650000Y-155550000D01*
X157650000Y-145550000D02*
X159650000Y-145550000D01*
X157650000Y-150550000D02*
X159650000Y-150550000D01*
X139080000Y-143310000D02*
X139080000Y-145850000D01*
X136540000Y-143310000D02*
X136540000Y-145850000D01*
X134000000Y-143310000D02*
X134000000Y-145850000D01*
X141660000Y-127420000D02*
X141660000Y-143310000D01*
X131420000Y-127420000D02*
X131420000Y-143310000D01*
X131420000Y-127420000D02*
X141660000Y-127420000D01*
X131420000Y-143310000D02*
X141660000Y-143310000D01*
X144280000Y-146825000D02*
X149720000Y-146825000D01*
X144280000Y-146585000D02*
X149720000Y-146585000D01*
X144280000Y-146705000D02*
X149720000Y-146705000D01*
X147000000Y-137600000D02*
X147000000Y-138510000D01*
X147000000Y-149160000D02*
X147000000Y-148250000D01*
X144280000Y-138510000D02*
X144280000Y-148250000D01*
X149720000Y-138510000D02*
X144280000Y-138510000D01*
X149720000Y-148250000D02*
X149720000Y-138510000D01*
X144280000Y-148250000D02*
X149720000Y-148250000D01*
X101470000Y-123655000D02*
X106540000Y-123655000D01*
X101470000Y-133425000D02*
X106540000Y-133425000D01*
X106540000Y-133425000D02*
X106540000Y-123655000D01*
X101470000Y-133425000D02*
X101470000Y-123655000D01*
X144280000Y-126825000D02*
X149720000Y-126825000D01*
X144280000Y-126585000D02*
X149720000Y-126585000D01*
X144280000Y-126705000D02*
X149720000Y-126705000D01*
X147000000Y-117600000D02*
X147000000Y-118510000D01*
X147000000Y-129160000D02*
X147000000Y-128250000D01*
X144280000Y-118510000D02*
X144280000Y-128250000D01*
X149720000Y-118510000D02*
X144280000Y-118510000D01*
X149720000Y-128250000D02*
X149720000Y-118510000D01*
X144280000Y-128250000D02*
X149720000Y-128250000D01*
X151650000Y-128000000D02*
X151650000Y-118000000D01*
X151650000Y-118000000D02*
X157650000Y-118000000D01*
X159650000Y-118000000D02*
X159650000Y-128000000D01*
X157650000Y-128000000D02*
X151650000Y-128000000D01*
X151650000Y-123000000D02*
X157650000Y-123000000D01*
X159650000Y-127500000D02*
X159150000Y-127500000D01*
X159150000Y-127500000D02*
X159150000Y-118500000D01*
X159150000Y-118500000D02*
X159650000Y-118500000D01*
X157650000Y-128000000D02*
X159650000Y-128000000D01*
X157650000Y-118000000D02*
X159650000Y-118000000D01*
X157650000Y-123000000D02*
X159650000Y-123000000D01*
X129310000Y-116920000D02*
X131850000Y-116920000D01*
X129310000Y-119460000D02*
X131850000Y-119460000D01*
X129310000Y-122000000D02*
X131850000Y-122000000D01*
X113420000Y-114340000D02*
X129310000Y-114340000D01*
X113420000Y-124580000D02*
X129310000Y-124580000D01*
X113420000Y-124580000D02*
X113420000Y-114340000D01*
X129310000Y-124580000D02*
X129310000Y-114340000D01*
X127670000Y-152540000D02*
X127670000Y-154190000D01*
X132870000Y-152540000D02*
X127670000Y-152540000D01*
X132870000Y-157840000D02*
X132870000Y-152540000D01*
X127670000Y-157840000D02*
X132870000Y-157840000D01*
X127670000Y-156190000D02*
X127670000Y-157840000D01*
X127670000Y-154190000D02*
G75*
G02X127670000Y-156190000I0J-1000000D01*
G01*
X117080000Y-143310000D02*
X117080000Y-145850000D01*
X114540000Y-143310000D02*
X114540000Y-145850000D01*
X112000000Y-143310000D02*
X112000000Y-145850000D01*
X119660000Y-127420000D02*
X119660000Y-143310000D01*
X109420000Y-127420000D02*
X109420000Y-143310000D01*
X109420000Y-127420000D02*
X119660000Y-127420000D01*
X109420000Y-143310000D02*
X119660000Y-143310000D01*
X60970000Y-164640000D02*
X58030000Y-164640000D01*
X60970000Y-164880000D02*
X58030000Y-164880000D01*
X60970000Y-164760000D02*
X58030000Y-164760000D01*
X59500000Y-170320000D02*
X59500000Y-169300000D01*
X59500000Y-162840000D02*
X59500000Y-163860000D01*
X60970000Y-169300000D02*
X60970000Y-163860000D01*
X58030000Y-169300000D02*
X60970000Y-169300000D01*
X58030000Y-163860000D02*
X58030000Y-169300000D01*
X60970000Y-163860000D02*
X58030000Y-163860000D01*
X49080000Y-143310000D02*
X49080000Y-145850000D01*
X46540000Y-143310000D02*
X46540000Y-145850000D01*
X44000000Y-143310000D02*
X44000000Y-145850000D01*
X51660000Y-127420000D02*
X51660000Y-143310000D01*
X41420000Y-127420000D02*
X41420000Y-143310000D01*
X41420000Y-127420000D02*
X51660000Y-127420000D01*
X41420000Y-143310000D02*
X51660000Y-143310000D01*
X128080000Y-143310000D02*
X128080000Y-145850000D01*
X125540000Y-143310000D02*
X125540000Y-145850000D01*
X123000000Y-143310000D02*
X123000000Y-145850000D01*
X130660000Y-127420000D02*
X130660000Y-143310000D01*
X120420000Y-127420000D02*
X120420000Y-143310000D01*
X120420000Y-127420000D02*
X130660000Y-127420000D01*
X120420000Y-143310000D02*
X130660000Y-143310000D01*
X110670000Y-152540000D02*
X110670000Y-154190000D01*
X115870000Y-152540000D02*
X110670000Y-152540000D01*
X115870000Y-157840000D02*
X115870000Y-152540000D01*
X110670000Y-157840000D02*
X115870000Y-157840000D01*
X110670000Y-156190000D02*
X110670000Y-157840000D01*
X110670000Y-154190000D02*
G75*
G02X110670000Y-156190000I0J-1000000D01*
G01*
X132825000Y-174720000D02*
X132825000Y-169280000D01*
X132585000Y-174720000D02*
X132585000Y-169280000D01*
X132705000Y-174720000D02*
X132705000Y-169280000D01*
X123600000Y-172000000D02*
X124510000Y-172000000D01*
X135160000Y-172000000D02*
X134250000Y-172000000D01*
X124510000Y-174720000D02*
X134250000Y-174720000D01*
X124510000Y-169280000D02*
X124510000Y-174720000D01*
X134250000Y-169280000D02*
X124510000Y-169280000D01*
X134250000Y-174720000D02*
X134250000Y-169280000D01*
X86350000Y-156800000D02*
G75*
G03X86350000Y-156800000I-6100000J0D01*
G01*
X118670000Y-152540000D02*
X118670000Y-154190000D01*
X123870000Y-152540000D02*
X118670000Y-152540000D01*
X123870000Y-157840000D02*
X123870000Y-152540000D01*
X118670000Y-157840000D02*
X123870000Y-157840000D01*
X118670000Y-156190000D02*
X118670000Y-157840000D01*
X118670000Y-154190000D02*
G75*
G02X118670000Y-156190000I0J-1000000D01*
G01*
X87130000Y-172330000D02*
X87130000Y-171000000D01*
X88460000Y-172330000D02*
X87130000Y-172330000D01*
X89730000Y-172330000D02*
X89730000Y-169670000D01*
X89730000Y-169670000D02*
X99950000Y-169670000D01*
X89730000Y-172330000D02*
X99950000Y-172330000D01*
X99950000Y-172330000D02*
X99950000Y-169670000D01*
X128880000Y-167000000D02*
X129650000Y-167000000D01*
X136960000Y-167000000D02*
X136190000Y-167000000D01*
X129650000Y-168370000D02*
X136190000Y-168370000D01*
X129650000Y-165630000D02*
X129650000Y-168370000D01*
X136190000Y-165630000D02*
X129650000Y-165630000D01*
X136190000Y-168370000D02*
X136190000Y-165630000D01*
X54667736Y-139042383D02*
G75*
G02X54080000Y-138650000I1112264J2302383D01*
G01*
X56878807Y-139096400D02*
G75*
G03X58380000Y-136740000I-1098807J2356400D01*
G01*
X56878807Y-134383600D02*
G75*
G02X58380000Y-136740000I-1098807J-2356400D01*
G01*
X54657955Y-134417369D02*
G75*
G03X54080000Y-134800000I1122045J-2322631D01*
G01*
X54080000Y-134800000D02*
X54080000Y-138650000D01*
X54346000Y-158935241D02*
X54976000Y-158935241D01*
X54661000Y-159250241D02*
X54661000Y-158620241D01*
X56098000Y-152509000D02*
X56902000Y-152509000D01*
X55867000Y-152549000D02*
X57133000Y-152549000D01*
X55698000Y-152589000D02*
X57302000Y-152589000D01*
X55560000Y-152629000D02*
X57440000Y-152629000D01*
X55441000Y-152669000D02*
X57559000Y-152669000D01*
X55335000Y-152709000D02*
X57665000Y-152709000D01*
X55238000Y-152749000D02*
X57762000Y-152749000D01*
X55150000Y-152789000D02*
X57850000Y-152789000D01*
X55068000Y-152829000D02*
X57932000Y-152829000D01*
X54991000Y-152869000D02*
X58009000Y-152869000D01*
X54919000Y-152909000D02*
X58081000Y-152909000D01*
X54850000Y-152949000D02*
X58150000Y-152949000D01*
X54786000Y-152989000D02*
X58214000Y-152989000D01*
X54724000Y-153029000D02*
X58276000Y-153029000D01*
X54666000Y-153069000D02*
X58334000Y-153069000D01*
X54610000Y-153109000D02*
X58390000Y-153109000D01*
X54556000Y-153149000D02*
X58444000Y-153149000D01*
X54505000Y-153189000D02*
X58495000Y-153189000D01*
X54456000Y-153229000D02*
X58544000Y-153229000D01*
X54408000Y-153269000D02*
X58592000Y-153269000D01*
X54363000Y-153309000D02*
X58637000Y-153309000D01*
X54318000Y-153349000D02*
X58682000Y-153349000D01*
X54276000Y-153389000D02*
X58724000Y-153389000D01*
X54235000Y-153429000D02*
X58765000Y-153429000D01*
X57540000Y-153469000D02*
X58805000Y-153469000D01*
X54195000Y-153469000D02*
X55460000Y-153469000D01*
X57540000Y-153509000D02*
X58843000Y-153509000D01*
X54157000Y-153509000D02*
X55460000Y-153509000D01*
X57540000Y-153549000D02*
X58880000Y-153549000D01*
X54120000Y-153549000D02*
X55460000Y-153549000D01*
X57540000Y-153589000D02*
X58916000Y-153589000D01*
X54084000Y-153589000D02*
X55460000Y-153589000D01*
X57540000Y-153629000D02*
X58950000Y-153629000D01*
X54050000Y-153629000D02*
X55460000Y-153629000D01*
X57540000Y-153669000D02*
X58984000Y-153669000D01*
X54016000Y-153669000D02*
X55460000Y-153669000D01*
X57540000Y-153709000D02*
X59016000Y-153709000D01*
X53984000Y-153709000D02*
X55460000Y-153709000D01*
X57540000Y-153749000D02*
X59048000Y-153749000D01*
X53952000Y-153749000D02*
X55460000Y-153749000D01*
X57540000Y-153789000D02*
X59078000Y-153789000D01*
X53922000Y-153789000D02*
X55460000Y-153789000D01*
X57540000Y-153829000D02*
X59107000Y-153829000D01*
X53893000Y-153829000D02*
X55460000Y-153829000D01*
X57540000Y-153869000D02*
X59136000Y-153869000D01*
X53864000Y-153869000D02*
X55460000Y-153869000D01*
X57540000Y-153909000D02*
X59164000Y-153909000D01*
X53836000Y-153909000D02*
X55460000Y-153909000D01*
X57540000Y-153949000D02*
X59190000Y-153949000D01*
X53810000Y-153949000D02*
X55460000Y-153949000D01*
X57540000Y-153989000D02*
X59216000Y-153989000D01*
X53784000Y-153989000D02*
X55460000Y-153989000D01*
X57540000Y-154029000D02*
X59242000Y-154029000D01*
X53758000Y-154029000D02*
X55460000Y-154029000D01*
X57540000Y-154069000D02*
X59266000Y-154069000D01*
X53734000Y-154069000D02*
X55460000Y-154069000D01*
X57540000Y-154109000D02*
X59290000Y-154109000D01*
X53710000Y-154109000D02*
X55460000Y-154109000D01*
X57540000Y-154149000D02*
X59312000Y-154149000D01*
X53688000Y-154149000D02*
X55460000Y-154149000D01*
X57540000Y-154189000D02*
X59334000Y-154189000D01*
X53666000Y-154189000D02*
X55460000Y-154189000D01*
X57540000Y-154229000D02*
X59356000Y-154229000D01*
X53644000Y-154229000D02*
X55460000Y-154229000D01*
X57540000Y-154269000D02*
X59376000Y-154269000D01*
X53624000Y-154269000D02*
X55460000Y-154269000D01*
X57540000Y-154309000D02*
X59396000Y-154309000D01*
X53604000Y-154309000D02*
X55460000Y-154309000D01*
X57540000Y-154349000D02*
X59416000Y-154349000D01*
X53584000Y-154349000D02*
X55460000Y-154349000D01*
X57540000Y-154389000D02*
X59434000Y-154389000D01*
X53566000Y-154389000D02*
X55460000Y-154389000D01*
X57540000Y-154429000D02*
X59452000Y-154429000D01*
X53548000Y-154429000D02*
X55460000Y-154429000D01*
X57540000Y-154469000D02*
X59470000Y-154469000D01*
X53530000Y-154469000D02*
X55460000Y-154469000D01*
X57540000Y-154509000D02*
X59486000Y-154509000D01*
X53514000Y-154509000D02*
X55460000Y-154509000D01*
X57540000Y-154549000D02*
X59502000Y-154549000D01*
X53498000Y-154549000D02*
X55460000Y-154549000D01*
X57540000Y-154589000D02*
X59518000Y-154589000D01*
X53482000Y-154589000D02*
X55460000Y-154589000D01*
X57540000Y-154629000D02*
X59533000Y-154629000D01*
X53467000Y-154629000D02*
X55460000Y-154629000D01*
X57540000Y-154669000D02*
X59547000Y-154669000D01*
X53453000Y-154669000D02*
X55460000Y-154669000D01*
X57540000Y-154709000D02*
X59561000Y-154709000D01*
X53439000Y-154709000D02*
X55460000Y-154709000D01*
X57540000Y-154749000D02*
X59574000Y-154749000D01*
X53426000Y-154749000D02*
X55460000Y-154749000D01*
X57540000Y-154789000D02*
X59586000Y-154789000D01*
X53414000Y-154789000D02*
X55460000Y-154789000D01*
X57540000Y-154829000D02*
X59598000Y-154829000D01*
X53402000Y-154829000D02*
X55460000Y-154829000D01*
X57540000Y-154869000D02*
X59610000Y-154869000D01*
X53390000Y-154869000D02*
X55460000Y-154869000D01*
X57540000Y-154909000D02*
X59621000Y-154909000D01*
X53379000Y-154909000D02*
X55460000Y-154909000D01*
X57540000Y-154949000D02*
X59631000Y-154949000D01*
X53369000Y-154949000D02*
X55460000Y-154949000D01*
X57540000Y-154989000D02*
X59641000Y-154989000D01*
X53359000Y-154989000D02*
X55460000Y-154989000D01*
X57540000Y-155029000D02*
X59650000Y-155029000D01*
X53350000Y-155029000D02*
X55460000Y-155029000D01*
X57540000Y-155070000D02*
X59659000Y-155070000D01*
X53341000Y-155070000D02*
X55460000Y-155070000D01*
X57540000Y-155110000D02*
X59667000Y-155110000D01*
X53333000Y-155110000D02*
X55460000Y-155110000D01*
X57540000Y-155150000D02*
X59675000Y-155150000D01*
X53325000Y-155150000D02*
X55460000Y-155150000D01*
X57540000Y-155190000D02*
X59682000Y-155190000D01*
X53318000Y-155190000D02*
X55460000Y-155190000D01*
X57540000Y-155230000D02*
X59689000Y-155230000D01*
X53311000Y-155230000D02*
X55460000Y-155230000D01*
X57540000Y-155270000D02*
X59695000Y-155270000D01*
X53305000Y-155270000D02*
X55460000Y-155270000D01*
X57540000Y-155310000D02*
X59701000Y-155310000D01*
X53299000Y-155310000D02*
X55460000Y-155310000D01*
X57540000Y-155350000D02*
X59706000Y-155350000D01*
X53294000Y-155350000D02*
X55460000Y-155350000D01*
X57540000Y-155390000D02*
X59711000Y-155390000D01*
X53289000Y-155390000D02*
X55460000Y-155390000D01*
X57540000Y-155430000D02*
X59715000Y-155430000D01*
X53285000Y-155430000D02*
X55460000Y-155430000D01*
X57540000Y-155470000D02*
X59718000Y-155470000D01*
X53282000Y-155470000D02*
X55460000Y-155470000D01*
X57540000Y-155510000D02*
X59722000Y-155510000D01*
X53278000Y-155510000D02*
X55460000Y-155510000D01*
X53276000Y-155550000D02*
X59724000Y-155550000D01*
X53273000Y-155590000D02*
X59727000Y-155590000D01*
X53272000Y-155630000D02*
X59728000Y-155630000D01*
X53270000Y-155670000D02*
X59730000Y-155670000D01*
X53270000Y-155710000D02*
X59730000Y-155710000D01*
X53270000Y-155750000D02*
X59730000Y-155750000D01*
X59770000Y-155750000D02*
G75*
G03X59770000Y-155750000I-3270000J0D01*
G01*
X151650000Y-170000000D02*
X151650000Y-160000000D01*
X151650000Y-160000000D02*
X157650000Y-160000000D01*
X159650000Y-160000000D02*
X159650000Y-170000000D01*
X157650000Y-170000000D02*
X151650000Y-170000000D01*
X151650000Y-165000000D02*
X157650000Y-165000000D01*
X159650000Y-169500000D02*
X159150000Y-169500000D01*
X159150000Y-169500000D02*
X159150000Y-160500000D01*
X159150000Y-160500000D02*
X159650000Y-160500000D01*
X157650000Y-170000000D02*
X159650000Y-170000000D01*
X157650000Y-160000000D02*
X159650000Y-160000000D01*
X157650000Y-165000000D02*
X159650000Y-165000000D01*
X46000000Y-168000000D02*
X56000000Y-168000000D01*
X56000000Y-168000000D02*
X56000000Y-174000000D01*
X56000000Y-176000000D02*
X46000000Y-176000000D01*
X46000000Y-174000000D02*
X46000000Y-168000000D01*
X51000000Y-168000000D02*
X51000000Y-174000000D01*
X46500000Y-176000000D02*
X46500000Y-175500000D01*
X46500000Y-175500000D02*
X55500000Y-175500000D01*
X55500000Y-175500000D02*
X55500000Y-176000000D01*
X46000000Y-174000000D02*
X46000000Y-176000000D01*
X56000000Y-174000000D02*
X56000000Y-176000000D01*
X51000000Y-174000000D02*
X51000000Y-176000000D01*
X151650000Y-142000000D02*
X151650000Y-132000000D01*
X151650000Y-132000000D02*
X157650000Y-132000000D01*
X159650000Y-132000000D02*
X159650000Y-142000000D01*
X157650000Y-142000000D02*
X151650000Y-142000000D01*
X151650000Y-137000000D02*
X157650000Y-137000000D01*
X159650000Y-141500000D02*
X159150000Y-141500000D01*
X159150000Y-141500000D02*
X159150000Y-132500000D01*
X159150000Y-132500000D02*
X159650000Y-132500000D01*
X157650000Y-142000000D02*
X159650000Y-142000000D01*
X157650000Y-132000000D02*
X159650000Y-132000000D01*
X157650000Y-137000000D02*
X159650000Y-137000000D01*
X121120000Y-163000000D02*
X120350000Y-163000000D01*
X113040000Y-163000000D02*
X113810000Y-163000000D01*
X120350000Y-161630000D02*
X113810000Y-161630000D01*
X120350000Y-164370000D02*
X120350000Y-161630000D01*
X113810000Y-164370000D02*
X120350000Y-164370000D01*
X113810000Y-161630000D02*
X113810000Y-164370000D01*
X64170000Y-141540000D02*
X64170000Y-143190000D01*
X99850000Y-141540000D02*
X64170000Y-141540000D01*
X99850000Y-146840000D02*
X99850000Y-141540000D01*
X64170000Y-146840000D02*
X99850000Y-146840000D01*
X64170000Y-145190000D02*
X64170000Y-146840000D01*
X64170000Y-143190000D02*
G75*
G02X64170000Y-145190000I0J-1000000D01*
G01*
X121120000Y-167000000D02*
X120350000Y-167000000D01*
X113040000Y-167000000D02*
X113810000Y-167000000D01*
X120350000Y-165630000D02*
X113810000Y-165630000D01*
X120350000Y-168370000D02*
X120350000Y-165630000D01*
X113810000Y-168370000D02*
X120350000Y-168370000D01*
X113810000Y-165630000D02*
X113810000Y-168370000D01*
X82270000Y-168730000D02*
X82270000Y-170000000D01*
X81000000Y-168730000D02*
X82270000Y-168730000D01*
X70460000Y-171042929D02*
X70460000Y-171440000D01*
X71220000Y-171042929D02*
X71220000Y-171440000D01*
X70460000Y-180100000D02*
X70460000Y-174100000D01*
X71220000Y-180100000D02*
X70460000Y-180100000D01*
X71220000Y-174100000D02*
X71220000Y-180100000D01*
X72110000Y-171440000D02*
X72110000Y-174100000D01*
X73000000Y-171042929D02*
X73000000Y-171440000D01*
X73760000Y-171042929D02*
X73760000Y-171440000D01*
X73000000Y-180100000D02*
X73000000Y-174100000D01*
X73760000Y-180100000D02*
X73000000Y-180100000D01*
X73760000Y-174100000D02*
X73760000Y-180100000D01*
X74650000Y-171440000D02*
X74650000Y-174100000D01*
X75540000Y-171042929D02*
X75540000Y-171440000D01*
X76300000Y-171042929D02*
X76300000Y-171440000D01*
X75540000Y-180100000D02*
X75540000Y-174100000D01*
X76300000Y-180100000D02*
X75540000Y-180100000D01*
X76300000Y-174100000D02*
X76300000Y-180100000D01*
X77190000Y-171440000D02*
X77190000Y-174100000D01*
X78080000Y-171042929D02*
X78080000Y-171440000D01*
X78840000Y-171042929D02*
X78840000Y-171440000D01*
X78080000Y-180100000D02*
X78080000Y-174100000D01*
X78840000Y-180100000D02*
X78080000Y-180100000D01*
X78840000Y-174100000D02*
X78840000Y-180100000D01*
X79730000Y-171440000D02*
X79730000Y-174100000D01*
X80620000Y-171110000D02*
X80620000Y-171440000D01*
X81380000Y-171110000D02*
X81380000Y-171440000D01*
X80720000Y-174100000D02*
X80720000Y-180100000D01*
X80840000Y-174100000D02*
X80840000Y-180100000D01*
X80960000Y-174100000D02*
X80960000Y-180100000D01*
X81080000Y-174100000D02*
X81080000Y-180100000D01*
X81200000Y-174100000D02*
X81200000Y-180100000D01*
X81320000Y-174100000D02*
X81320000Y-180100000D01*
X80620000Y-180100000D02*
X80620000Y-174100000D01*
X81380000Y-180100000D02*
X80620000Y-180100000D01*
X81380000Y-174100000D02*
X81380000Y-180100000D01*
X82330000Y-174100000D02*
X82330000Y-171440000D01*
X69510000Y-174100000D02*
X82330000Y-174100000D01*
X69510000Y-171440000D02*
X69510000Y-174100000D01*
X82330000Y-171440000D02*
X69510000Y-171440000D01*
X136670000Y-152540000D02*
X136670000Y-154190000D01*
X141870000Y-152540000D02*
X136670000Y-152540000D01*
X141870000Y-157840000D02*
X141870000Y-152540000D01*
X136670000Y-157840000D02*
X141870000Y-157840000D01*
X136670000Y-156190000D02*
X136670000Y-157840000D01*
X136670000Y-154190000D02*
G75*
G02X136670000Y-156190000I0J-1000000D01*
G01*
X128880000Y-163000000D02*
X129650000Y-163000000D01*
X136960000Y-163000000D02*
X136190000Y-163000000D01*
X129650000Y-164370000D02*
X136190000Y-164370000D01*
X129650000Y-161630000D02*
X129650000Y-164370000D01*
X136190000Y-161630000D02*
X129650000Y-161630000D01*
X136190000Y-164370000D02*
X136190000Y-161630000D01*
X74330000Y-115470000D02*
X74330000Y-116800000D01*
X73000000Y-115470000D02*
X74330000Y-115470000D01*
X71730000Y-115470000D02*
X71730000Y-118130000D01*
X71730000Y-118130000D02*
X56430000Y-118130000D01*
X71730000Y-115470000D02*
X56430000Y-115470000D01*
X56430000Y-115470000D02*
X56430000Y-118130000D01*
X45640000Y-163030000D02*
X45640000Y-165970000D01*
X45880000Y-163030000D02*
X45880000Y-165970000D01*
X45760000Y-163030000D02*
X45760000Y-165970000D01*
X51320000Y-164500000D02*
X50300000Y-164500000D01*
X43840000Y-164500000D02*
X44860000Y-164500000D01*
X50300000Y-163030000D02*
X44860000Y-163030000D01*
X50300000Y-165970000D02*
X50300000Y-163030000D01*
X44860000Y-165970000D02*
X50300000Y-165970000D01*
X44860000Y-163030000D02*
X44860000Y-165970000D01*
X42846000Y-158435241D02*
X43476000Y-158435241D01*
X43161000Y-158750241D02*
X43161000Y-158120241D01*
X44598000Y-152009000D02*
X45402000Y-152009000D01*
X44367000Y-152049000D02*
X45633000Y-152049000D01*
X44198000Y-152089000D02*
X45802000Y-152089000D01*
X44060000Y-152129000D02*
X45940000Y-152129000D01*
X43941000Y-152169000D02*
X46059000Y-152169000D01*
X43835000Y-152209000D02*
X46165000Y-152209000D01*
X43738000Y-152249000D02*
X46262000Y-152249000D01*
X43650000Y-152289000D02*
X46350000Y-152289000D01*
X43568000Y-152329000D02*
X46432000Y-152329000D01*
X43491000Y-152369000D02*
X46509000Y-152369000D01*
X43419000Y-152409000D02*
X46581000Y-152409000D01*
X43350000Y-152449000D02*
X46650000Y-152449000D01*
X43286000Y-152489000D02*
X46714000Y-152489000D01*
X43224000Y-152529000D02*
X46776000Y-152529000D01*
X43166000Y-152569000D02*
X46834000Y-152569000D01*
X43110000Y-152609000D02*
X46890000Y-152609000D01*
X43056000Y-152649000D02*
X46944000Y-152649000D01*
X43005000Y-152689000D02*
X46995000Y-152689000D01*
X42956000Y-152729000D02*
X47044000Y-152729000D01*
X42908000Y-152769000D02*
X47092000Y-152769000D01*
X42863000Y-152809000D02*
X47137000Y-152809000D01*
X42818000Y-152849000D02*
X47182000Y-152849000D01*
X42776000Y-152889000D02*
X47224000Y-152889000D01*
X42735000Y-152929000D02*
X47265000Y-152929000D01*
X46040000Y-152969000D02*
X47305000Y-152969000D01*
X42695000Y-152969000D02*
X43960000Y-152969000D01*
X46040000Y-153009000D02*
X47343000Y-153009000D01*
X42657000Y-153009000D02*
X43960000Y-153009000D01*
X46040000Y-153049000D02*
X47380000Y-153049000D01*
X42620000Y-153049000D02*
X43960000Y-153049000D01*
X46040000Y-153089000D02*
X47416000Y-153089000D01*
X42584000Y-153089000D02*
X43960000Y-153089000D01*
X46040000Y-153129000D02*
X47450000Y-153129000D01*
X42550000Y-153129000D02*
X43960000Y-153129000D01*
X46040000Y-153169000D02*
X47484000Y-153169000D01*
X42516000Y-153169000D02*
X43960000Y-153169000D01*
X46040000Y-153209000D02*
X47516000Y-153209000D01*
X42484000Y-153209000D02*
X43960000Y-153209000D01*
X46040000Y-153249000D02*
X47548000Y-153249000D01*
X42452000Y-153249000D02*
X43960000Y-153249000D01*
X46040000Y-153289000D02*
X47578000Y-153289000D01*
X42422000Y-153289000D02*
X43960000Y-153289000D01*
X46040000Y-153329000D02*
X47607000Y-153329000D01*
X42393000Y-153329000D02*
X43960000Y-153329000D01*
X46040000Y-153369000D02*
X47636000Y-153369000D01*
X42364000Y-153369000D02*
X43960000Y-153369000D01*
X46040000Y-153409000D02*
X47664000Y-153409000D01*
X42336000Y-153409000D02*
X43960000Y-153409000D01*
X46040000Y-153449000D02*
X47690000Y-153449000D01*
X42310000Y-153449000D02*
X43960000Y-153449000D01*
X46040000Y-153489000D02*
X47716000Y-153489000D01*
X42284000Y-153489000D02*
X43960000Y-153489000D01*
X46040000Y-153529000D02*
X47742000Y-153529000D01*
X42258000Y-153529000D02*
X43960000Y-153529000D01*
X46040000Y-153569000D02*
X47766000Y-153569000D01*
X42234000Y-153569000D02*
X43960000Y-153569000D01*
X46040000Y-153609000D02*
X47790000Y-153609000D01*
X42210000Y-153609000D02*
X43960000Y-153609000D01*
X46040000Y-153649000D02*
X47812000Y-153649000D01*
X42188000Y-153649000D02*
X43960000Y-153649000D01*
X46040000Y-153689000D02*
X47834000Y-153689000D01*
X42166000Y-153689000D02*
X43960000Y-153689000D01*
X46040000Y-153729000D02*
X47856000Y-153729000D01*
X42144000Y-153729000D02*
X43960000Y-153729000D01*
X46040000Y-153769000D02*
X47876000Y-153769000D01*
X42124000Y-153769000D02*
X43960000Y-153769000D01*
X46040000Y-153809000D02*
X47896000Y-153809000D01*
X42104000Y-153809000D02*
X43960000Y-153809000D01*
X46040000Y-153849000D02*
X47916000Y-153849000D01*
X42084000Y-153849000D02*
X43960000Y-153849000D01*
X46040000Y-153889000D02*
X47934000Y-153889000D01*
X42066000Y-153889000D02*
X43960000Y-153889000D01*
X46040000Y-153929000D02*
X47952000Y-153929000D01*
X42048000Y-153929000D02*
X43960000Y-153929000D01*
X46040000Y-153969000D02*
X47970000Y-153969000D01*
X42030000Y-153969000D02*
X43960000Y-153969000D01*
X46040000Y-154009000D02*
X47986000Y-154009000D01*
X42014000Y-154009000D02*
X43960000Y-154009000D01*
X46040000Y-154049000D02*
X48002000Y-154049000D01*
X41998000Y-154049000D02*
X43960000Y-154049000D01*
X46040000Y-154089000D02*
X48018000Y-154089000D01*
X41982000Y-154089000D02*
X43960000Y-154089000D01*
X46040000Y-154129000D02*
X48033000Y-154129000D01*
X41967000Y-154129000D02*
X43960000Y-154129000D01*
X46040000Y-154169000D02*
X48047000Y-154169000D01*
X41953000Y-154169000D02*
X43960000Y-154169000D01*
X46040000Y-154209000D02*
X48061000Y-154209000D01*
X41939000Y-154209000D02*
X43960000Y-154209000D01*
X46040000Y-154249000D02*
X48074000Y-154249000D01*
X41926000Y-154249000D02*
X43960000Y-154249000D01*
X46040000Y-154289000D02*
X48086000Y-154289000D01*
X41914000Y-154289000D02*
X43960000Y-154289000D01*
X46040000Y-154329000D02*
X48098000Y-154329000D01*
X41902000Y-154329000D02*
X43960000Y-154329000D01*
X46040000Y-154369000D02*
X48110000Y-154369000D01*
X41890000Y-154369000D02*
X43960000Y-154369000D01*
X46040000Y-154409000D02*
X48121000Y-154409000D01*
X41879000Y-154409000D02*
X43960000Y-154409000D01*
X46040000Y-154449000D02*
X48131000Y-154449000D01*
X41869000Y-154449000D02*
X43960000Y-154449000D01*
X46040000Y-154489000D02*
X48141000Y-154489000D01*
X41859000Y-154489000D02*
X43960000Y-154489000D01*
X46040000Y-154529000D02*
X48150000Y-154529000D01*
X41850000Y-154529000D02*
X43960000Y-154529000D01*
X46040000Y-154570000D02*
X48159000Y-154570000D01*
X41841000Y-154570000D02*
X43960000Y-154570000D01*
X46040000Y-154610000D02*
X48167000Y-154610000D01*
X41833000Y-154610000D02*
X43960000Y-154610000D01*
X46040000Y-154650000D02*
X48175000Y-154650000D01*
X41825000Y-154650000D02*
X43960000Y-154650000D01*
X46040000Y-154690000D02*
X48182000Y-154690000D01*
X41818000Y-154690000D02*
X43960000Y-154690000D01*
X46040000Y-154730000D02*
X48189000Y-154730000D01*
X41811000Y-154730000D02*
X43960000Y-154730000D01*
X46040000Y-154770000D02*
X48195000Y-154770000D01*
X41805000Y-154770000D02*
X43960000Y-154770000D01*
X46040000Y-154810000D02*
X48201000Y-154810000D01*
X41799000Y-154810000D02*
X43960000Y-154810000D01*
X46040000Y-154850000D02*
X48206000Y-154850000D01*
X41794000Y-154850000D02*
X43960000Y-154850000D01*
X46040000Y-154890000D02*
X48211000Y-154890000D01*
X41789000Y-154890000D02*
X43960000Y-154890000D01*
X46040000Y-154930000D02*
X48215000Y-154930000D01*
X41785000Y-154930000D02*
X43960000Y-154930000D01*
X46040000Y-154970000D02*
X48218000Y-154970000D01*
X41782000Y-154970000D02*
X43960000Y-154970000D01*
X46040000Y-155010000D02*
X48222000Y-155010000D01*
X41778000Y-155010000D02*
X43960000Y-155010000D01*
X41776000Y-155050000D02*
X48224000Y-155050000D01*
X41773000Y-155090000D02*
X48227000Y-155090000D01*
X41772000Y-155130000D02*
X48228000Y-155130000D01*
X41770000Y-155170000D02*
X48230000Y-155170000D01*
X41770000Y-155210000D02*
X48230000Y-155210000D01*
X41770000Y-155250000D02*
X48230000Y-155250000D01*
X48270000Y-155250000D02*
G75*
G03X48270000Y-155250000I-3270000J0D01*
G01*
X90475000Y-160075000D02*
G75*
G03X95525000Y-160075000I2525000J0D01*
G01*
X90475000Y-153825000D02*
G75*
G02X95525000Y-153825000I2525000J0D01*
G01*
X90475000Y-153825000D02*
X90475000Y-160075000D01*
X95525000Y-153825000D02*
X95525000Y-160075000D01*
X98555000Y-159130000D02*
X98620000Y-159130000D01*
X96380000Y-159130000D02*
X96445000Y-159130000D01*
X98555000Y-162370000D02*
X98620000Y-162370000D01*
X96380000Y-162370000D02*
X96445000Y-162370000D01*
X98620000Y-162370000D02*
X98620000Y-159130000D01*
X96380000Y-162370000D02*
X96380000Y-159130000D01*
X98555000Y-153380000D02*
X98620000Y-153380000D01*
X96380000Y-153380000D02*
X96445000Y-153380000D01*
X98555000Y-156620000D02*
X98620000Y-156620000D01*
X96380000Y-156620000D02*
X96445000Y-156620000D01*
X98620000Y-156620000D02*
X98620000Y-153380000D01*
X96380000Y-156620000D02*
X96380000Y-153380000D01*
D12*
X62606666Y-121122380D02*
X62606666Y-121836666D01*
X62559047Y-121979523D01*
X62463809Y-122074761D01*
X62320952Y-122122380D01*
X62225714Y-122122380D01*
X63035238Y-121217619D02*
X63082857Y-121170000D01*
X63178095Y-121122380D01*
X63416190Y-121122380D01*
X63511428Y-121170000D01*
X63559047Y-121217619D01*
X63606666Y-121312857D01*
X63606666Y-121408095D01*
X63559047Y-121550952D01*
X62987619Y-122122380D01*
X63606666Y-122122380D01*
X147452380Y-165338095D02*
X146452380Y-165338095D01*
X146452380Y-165100000D01*
X146500000Y-164957142D01*
X146595238Y-164861904D01*
X146690476Y-164814285D01*
X146880952Y-164766666D01*
X147023809Y-164766666D01*
X147214285Y-164814285D01*
X147309523Y-164861904D01*
X147404761Y-164957142D01*
X147452380Y-165100000D01*
X147452380Y-165338095D01*
X146785714Y-163909523D02*
X147452380Y-163909523D01*
X146404761Y-164147619D02*
X147119047Y-164385714D01*
X147119047Y-163766666D01*
X87923809Y-114252380D02*
X87447619Y-114252380D01*
X87447619Y-113252380D01*
X88828571Y-114157142D02*
X88780952Y-114204761D01*
X88638095Y-114252380D01*
X88542857Y-114252380D01*
X88400000Y-114204761D01*
X88304761Y-114109523D01*
X88257142Y-114014285D01*
X88209523Y-113823809D01*
X88209523Y-113680952D01*
X88257142Y-113490476D01*
X88304761Y-113395238D01*
X88400000Y-113300000D01*
X88542857Y-113252380D01*
X88638095Y-113252380D01*
X88780952Y-113300000D01*
X88828571Y-113347619D01*
X89257142Y-114252380D02*
X89257142Y-113252380D01*
X89495238Y-113252380D01*
X89638095Y-113300000D01*
X89733333Y-113395238D01*
X89780952Y-113490476D01*
X89828571Y-113680952D01*
X89828571Y-113823809D01*
X89780952Y-114014285D01*
X89733333Y-114109523D01*
X89638095Y-114204761D01*
X89495238Y-114252380D01*
X89257142Y-114252380D01*
X90019047Y-114347619D02*
X90780952Y-114347619D01*
X91209523Y-113252380D02*
X91400000Y-113252380D01*
X91495238Y-113300000D01*
X91590476Y-113395238D01*
X91638095Y-113585714D01*
X91638095Y-113919047D01*
X91590476Y-114109523D01*
X91495238Y-114204761D01*
X91400000Y-114252380D01*
X91209523Y-114252380D01*
X91114285Y-114204761D01*
X91019047Y-114109523D01*
X90971428Y-113919047D01*
X90971428Y-113585714D01*
X91019047Y-113395238D01*
X91114285Y-113300000D01*
X91209523Y-113252380D01*
X92066666Y-113252380D02*
X92066666Y-114061904D01*
X92114285Y-114157142D01*
X92161904Y-114204761D01*
X92257142Y-114252380D01*
X92447619Y-114252380D01*
X92542857Y-114204761D01*
X92590476Y-114157142D01*
X92638095Y-114061904D01*
X92638095Y-113252380D01*
X92971428Y-113252380D02*
X93542857Y-113252380D01*
X93257142Y-114252380D02*
X93257142Y-113252380D01*
X94400000Y-114252380D02*
X93828571Y-114252380D01*
X94114285Y-114252380D02*
X94114285Y-113252380D01*
X94019047Y-113395238D01*
X93923809Y-113490476D01*
X93828571Y-113538095D01*
X151352380Y-151828571D02*
X150352380Y-151828571D01*
X151352380Y-151352380D02*
X150352380Y-151352380D01*
X151352380Y-150780952D01*
X150352380Y-150780952D01*
X150876190Y-150114285D02*
X151352380Y-150114285D01*
X150352380Y-150447619D02*
X150876190Y-150114285D01*
X150352380Y-149780952D01*
X150447619Y-149495238D02*
X150400000Y-149447619D01*
X150352380Y-149352380D01*
X150352380Y-149114285D01*
X150400000Y-149019047D01*
X150447619Y-148971428D01*
X150542857Y-148923809D01*
X150638095Y-148923809D01*
X150780952Y-148971428D01*
X151352380Y-149542857D01*
X151352380Y-148923809D01*
X136704761Y-135547619D02*
X136609523Y-135500000D01*
X136514285Y-135404761D01*
X136371428Y-135261904D01*
X136276190Y-135214285D01*
X136180952Y-135214285D01*
X136228571Y-135452380D02*
X136133333Y-135404761D01*
X136038095Y-135309523D01*
X135990476Y-135119047D01*
X135990476Y-134785714D01*
X136038095Y-134595238D01*
X136133333Y-134500000D01*
X136228571Y-134452380D01*
X136419047Y-134452380D01*
X136514285Y-134500000D01*
X136609523Y-134595238D01*
X136657142Y-134785714D01*
X136657142Y-135119047D01*
X136609523Y-135309523D01*
X136514285Y-135404761D01*
X136419047Y-135452380D01*
X136228571Y-135452380D01*
X136990476Y-134452380D02*
X137609523Y-134452380D01*
X137276190Y-134833333D01*
X137419047Y-134833333D01*
X137514285Y-134880952D01*
X137561904Y-134928571D01*
X137609523Y-135023809D01*
X137609523Y-135261904D01*
X137561904Y-135357142D01*
X137514285Y-135404761D01*
X137419047Y-135452380D01*
X137133333Y-135452380D01*
X137038095Y-135404761D01*
X136990476Y-135357142D01*
X147452380Y-144038095D02*
X146452380Y-144038095D01*
X146452380Y-143800000D01*
X146500000Y-143657142D01*
X146595238Y-143561904D01*
X146690476Y-143514285D01*
X146880952Y-143466666D01*
X147023809Y-143466666D01*
X147214285Y-143514285D01*
X147309523Y-143561904D01*
X147404761Y-143657142D01*
X147452380Y-143800000D01*
X147452380Y-144038095D01*
X146452380Y-142561904D02*
X146452380Y-143038095D01*
X146928571Y-143085714D01*
X146880952Y-143038095D01*
X146833333Y-142942857D01*
X146833333Y-142704761D01*
X146880952Y-142609523D01*
X146928571Y-142561904D01*
X147023809Y-142514285D01*
X147261904Y-142514285D01*
X147357142Y-142561904D01*
X147404761Y-142609523D01*
X147452380Y-142704761D01*
X147452380Y-142942857D01*
X147404761Y-143038095D01*
X147357142Y-143085714D01*
X100792380Y-129706666D02*
X100792380Y-130182857D01*
X99792380Y-130182857D01*
X100697142Y-128801904D02*
X100744761Y-128849523D01*
X100792380Y-128992380D01*
X100792380Y-129087619D01*
X100744761Y-129230476D01*
X100649523Y-129325714D01*
X100554285Y-129373333D01*
X100363809Y-129420952D01*
X100220952Y-129420952D01*
X100030476Y-129373333D01*
X99935238Y-129325714D01*
X99840000Y-129230476D01*
X99792380Y-129087619D01*
X99792380Y-128992380D01*
X99840000Y-128849523D01*
X99887619Y-128801904D01*
X100792380Y-128373333D02*
X99792380Y-128373333D01*
X99792380Y-128135238D01*
X99840000Y-127992380D01*
X99935238Y-127897142D01*
X100030476Y-127849523D01*
X100220952Y-127801904D01*
X100363809Y-127801904D01*
X100554285Y-127849523D01*
X100649523Y-127897142D01*
X100744761Y-127992380D01*
X100792380Y-128135238D01*
X100792380Y-128373333D01*
X100792380Y-126849523D02*
X100792380Y-127420952D01*
X100792380Y-127135238D02*
X99792380Y-127135238D01*
X99935238Y-127230476D01*
X100030476Y-127325714D01*
X100078095Y-127420952D01*
X147352380Y-123938095D02*
X146352380Y-123938095D01*
X146352380Y-123700000D01*
X146400000Y-123557142D01*
X146495238Y-123461904D01*
X146590476Y-123414285D01*
X146780952Y-123366666D01*
X146923809Y-123366666D01*
X147114285Y-123414285D01*
X147209523Y-123461904D01*
X147304761Y-123557142D01*
X147352380Y-123700000D01*
X147352380Y-123938095D01*
X146352380Y-122509523D02*
X146352380Y-122700000D01*
X146400000Y-122795238D01*
X146447619Y-122842857D01*
X146590476Y-122938095D01*
X146780952Y-122985714D01*
X147161904Y-122985714D01*
X147257142Y-122938095D01*
X147304761Y-122890476D01*
X147352380Y-122795238D01*
X147352380Y-122604761D01*
X147304761Y-122509523D01*
X147257142Y-122461904D01*
X147161904Y-122414285D01*
X146923809Y-122414285D01*
X146828571Y-122461904D01*
X146780952Y-122509523D01*
X146733333Y-122604761D01*
X146733333Y-122795238D01*
X146780952Y-122890476D01*
X146828571Y-122938095D01*
X146923809Y-122985714D01*
X151352380Y-124428571D02*
X150352380Y-124428571D01*
X151352380Y-123952380D02*
X150352380Y-123952380D01*
X151352380Y-123380952D01*
X150352380Y-123380952D01*
X150876190Y-122714285D02*
X151352380Y-122714285D01*
X150352380Y-123047619D02*
X150876190Y-122714285D01*
X150352380Y-122380952D01*
X150685714Y-121619047D02*
X151352380Y-121619047D01*
X150304761Y-121857142D02*
X151019047Y-122095238D01*
X151019047Y-121476190D01*
X123347619Y-119395238D02*
X123300000Y-119490476D01*
X123204761Y-119585714D01*
X123061904Y-119728571D01*
X123014285Y-119823809D01*
X123014285Y-119919047D01*
X123252380Y-119871428D02*
X123204761Y-119966666D01*
X123109523Y-120061904D01*
X122919047Y-120109523D01*
X122585714Y-120109523D01*
X122395238Y-120061904D01*
X122300000Y-119966666D01*
X122252380Y-119871428D01*
X122252380Y-119680952D01*
X122300000Y-119585714D01*
X122395238Y-119490476D01*
X122585714Y-119442857D01*
X122919047Y-119442857D01*
X123109523Y-119490476D01*
X123204761Y-119585714D01*
X123252380Y-119680952D01*
X123252380Y-119871428D01*
X122585714Y-118585714D02*
X123252380Y-118585714D01*
X122204761Y-118823809D02*
X122919047Y-119061904D01*
X122919047Y-118442857D01*
X129952380Y-155961904D02*
X130761904Y-155961904D01*
X130857142Y-155914285D01*
X130904761Y-155866666D01*
X130952380Y-155771428D01*
X130952380Y-155580952D01*
X130904761Y-155485714D01*
X130857142Y-155438095D01*
X130761904Y-155390476D01*
X129952380Y-155390476D01*
X129952380Y-154438095D02*
X129952380Y-154914285D01*
X130428571Y-154961904D01*
X130380952Y-154914285D01*
X130333333Y-154819047D01*
X130333333Y-154580952D01*
X130380952Y-154485714D01*
X130428571Y-154438095D01*
X130523809Y-154390476D01*
X130761904Y-154390476D01*
X130857142Y-154438095D01*
X130904761Y-154485714D01*
X130952380Y-154580952D01*
X130952380Y-154819047D01*
X130904761Y-154914285D01*
X130857142Y-154961904D01*
X113904761Y-136047619D02*
X113809523Y-136000000D01*
X113714285Y-135904761D01*
X113571428Y-135761904D01*
X113476190Y-135714285D01*
X113380952Y-135714285D01*
X113428571Y-135952380D02*
X113333333Y-135904761D01*
X113238095Y-135809523D01*
X113190476Y-135619047D01*
X113190476Y-135285714D01*
X113238095Y-135095238D01*
X113333333Y-135000000D01*
X113428571Y-134952380D01*
X113619047Y-134952380D01*
X113714285Y-135000000D01*
X113809523Y-135095238D01*
X113857142Y-135285714D01*
X113857142Y-135619047D01*
X113809523Y-135809523D01*
X113714285Y-135904761D01*
X113619047Y-135952380D01*
X113428571Y-135952380D01*
X114809523Y-135952380D02*
X114238095Y-135952380D01*
X114523809Y-135952380D02*
X114523809Y-134952380D01*
X114428571Y-135095238D01*
X114333333Y-135190476D01*
X114238095Y-135238095D01*
X60052380Y-167538095D02*
X59052380Y-167538095D01*
X59052380Y-167300000D01*
X59100000Y-167157142D01*
X59195238Y-167061904D01*
X59290476Y-167014285D01*
X59480952Y-166966666D01*
X59623809Y-166966666D01*
X59814285Y-167014285D01*
X59909523Y-167061904D01*
X60004761Y-167157142D01*
X60052380Y-167300000D01*
X60052380Y-167538095D01*
X59147619Y-166585714D02*
X59100000Y-166538095D01*
X59052380Y-166442857D01*
X59052380Y-166204761D01*
X59100000Y-166109523D01*
X59147619Y-166061904D01*
X59242857Y-166014285D01*
X59338095Y-166014285D01*
X59480952Y-166061904D01*
X60052380Y-166633333D01*
X60052380Y-166014285D01*
X45838095Y-135752380D02*
X45838095Y-136561904D01*
X45885714Y-136657142D01*
X45933333Y-136704761D01*
X46028571Y-136752380D01*
X46219047Y-136752380D01*
X46314285Y-136704761D01*
X46361904Y-136657142D01*
X46409523Y-136561904D01*
X46409523Y-135752380D01*
X47409523Y-136752380D02*
X46838095Y-136752380D01*
X47123809Y-136752380D02*
X47123809Y-135752380D01*
X47028571Y-135895238D01*
X46933333Y-135990476D01*
X46838095Y-136038095D01*
X125504761Y-135747619D02*
X125409523Y-135700000D01*
X125314285Y-135604761D01*
X125171428Y-135461904D01*
X125076190Y-135414285D01*
X124980952Y-135414285D01*
X125028571Y-135652380D02*
X124933333Y-135604761D01*
X124838095Y-135509523D01*
X124790476Y-135319047D01*
X124790476Y-134985714D01*
X124838095Y-134795238D01*
X124933333Y-134700000D01*
X125028571Y-134652380D01*
X125219047Y-134652380D01*
X125314285Y-134700000D01*
X125409523Y-134795238D01*
X125457142Y-134985714D01*
X125457142Y-135319047D01*
X125409523Y-135509523D01*
X125314285Y-135604761D01*
X125219047Y-135652380D01*
X125028571Y-135652380D01*
X125838095Y-134747619D02*
X125885714Y-134700000D01*
X125980952Y-134652380D01*
X126219047Y-134652380D01*
X126314285Y-134700000D01*
X126361904Y-134747619D01*
X126409523Y-134842857D01*
X126409523Y-134938095D01*
X126361904Y-135080952D01*
X125790476Y-135652380D01*
X126409523Y-135652380D01*
X112952380Y-155961904D02*
X113761904Y-155961904D01*
X113857142Y-155914285D01*
X113904761Y-155866666D01*
X113952380Y-155771428D01*
X113952380Y-155580952D01*
X113904761Y-155485714D01*
X113857142Y-155438095D01*
X113761904Y-155390476D01*
X112952380Y-155390476D01*
X112952380Y-155009523D02*
X112952380Y-154390476D01*
X113333333Y-154723809D01*
X113333333Y-154580952D01*
X113380952Y-154485714D01*
X113428571Y-154438095D01*
X113523809Y-154390476D01*
X113761904Y-154390476D01*
X113857142Y-154438095D01*
X113904761Y-154485714D01*
X113952380Y-154580952D01*
X113952380Y-154866666D01*
X113904761Y-154961904D01*
X113857142Y-155009523D01*
X128861904Y-172452380D02*
X128861904Y-171452380D01*
X129100000Y-171452380D01*
X129242857Y-171500000D01*
X129338095Y-171595238D01*
X129385714Y-171690476D01*
X129433333Y-171880952D01*
X129433333Y-172023809D01*
X129385714Y-172214285D01*
X129338095Y-172309523D01*
X129242857Y-172404761D01*
X129100000Y-172452380D01*
X128861904Y-172452380D01*
X129766666Y-171452380D02*
X130385714Y-171452380D01*
X130052380Y-171833333D01*
X130195238Y-171833333D01*
X130290476Y-171880952D01*
X130338095Y-171928571D01*
X130385714Y-172023809D01*
X130385714Y-172261904D01*
X130338095Y-172357142D01*
X130290476Y-172404761D01*
X130195238Y-172452380D01*
X129909523Y-172452380D01*
X129814285Y-172404761D01*
X129766666Y-172357142D01*
X80628571Y-157880952D02*
X80676190Y-157738095D01*
X80723809Y-157690476D01*
X80819047Y-157642857D01*
X80961904Y-157642857D01*
X81057142Y-157690476D01*
X81104761Y-157738095D01*
X81152380Y-157833333D01*
X81152380Y-158214285D01*
X80152380Y-158214285D01*
X80152380Y-157880952D01*
X80200000Y-157785714D01*
X80247619Y-157738095D01*
X80342857Y-157690476D01*
X80438095Y-157690476D01*
X80533333Y-157738095D01*
X80580952Y-157785714D01*
X80628571Y-157880952D01*
X80628571Y-158214285D01*
X80152380Y-157309523D02*
X80152380Y-156642857D01*
X81152380Y-157309523D01*
X81152380Y-156642857D01*
X81152380Y-155738095D02*
X81152380Y-156309523D01*
X81152380Y-156023809D02*
X80152380Y-156023809D01*
X80295238Y-156119047D01*
X80390476Y-156214285D01*
X80438095Y-156309523D01*
X82861428Y-153370952D02*
X82861428Y-152609047D01*
X83242380Y-152990000D02*
X82480476Y-152990000D01*
X120952380Y-155951904D02*
X121761904Y-155951904D01*
X121857142Y-155904285D01*
X121904761Y-155856666D01*
X121952380Y-155761428D01*
X121952380Y-155570952D01*
X121904761Y-155475714D01*
X121857142Y-155428095D01*
X121761904Y-155380476D01*
X120952380Y-155380476D01*
X121285714Y-154475714D02*
X121952380Y-154475714D01*
X120904761Y-154713809D02*
X121619047Y-154951904D01*
X121619047Y-154332857D01*
X90055238Y-167152380D02*
X90055238Y-166152380D01*
X90436190Y-166152380D01*
X90531428Y-166200000D01*
X90579047Y-166247619D01*
X90626666Y-166342857D01*
X90626666Y-166485714D01*
X90579047Y-166580952D01*
X90531428Y-166628571D01*
X90436190Y-166676190D01*
X90055238Y-166676190D01*
X91245714Y-166152380D02*
X91436190Y-166152380D01*
X91531428Y-166200000D01*
X91626666Y-166295238D01*
X91674285Y-166485714D01*
X91674285Y-166819047D01*
X91626666Y-167009523D01*
X91531428Y-167104761D01*
X91436190Y-167152380D01*
X91245714Y-167152380D01*
X91150476Y-167104761D01*
X91055238Y-167009523D01*
X91007619Y-166819047D01*
X91007619Y-166485714D01*
X91055238Y-166295238D01*
X91150476Y-166200000D01*
X91245714Y-166152380D01*
X91960000Y-166152380D02*
X92531428Y-166152380D01*
X92245714Y-167152380D02*
X92245714Y-166152380D01*
X92864761Y-166628571D02*
X93198095Y-166628571D01*
X93340952Y-167152380D02*
X92864761Y-167152380D01*
X92864761Y-166152380D01*
X93340952Y-166152380D01*
X93531428Y-167247619D02*
X94293333Y-167247619D01*
X94721904Y-166152380D02*
X94912380Y-166152380D01*
X95007619Y-166200000D01*
X95102857Y-166295238D01*
X95150476Y-166485714D01*
X95150476Y-166819047D01*
X95102857Y-167009523D01*
X95007619Y-167104761D01*
X94912380Y-167152380D01*
X94721904Y-167152380D01*
X94626666Y-167104761D01*
X94531428Y-167009523D01*
X94483809Y-166819047D01*
X94483809Y-166485714D01*
X94531428Y-166295238D01*
X94626666Y-166200000D01*
X94721904Y-166152380D01*
X95579047Y-166152380D02*
X95579047Y-166961904D01*
X95626666Y-167057142D01*
X95674285Y-167104761D01*
X95769523Y-167152380D01*
X95960000Y-167152380D01*
X96055238Y-167104761D01*
X96102857Y-167057142D01*
X96150476Y-166961904D01*
X96150476Y-166152380D01*
X96483809Y-166152380D02*
X97055238Y-166152380D01*
X96769523Y-167152380D02*
X96769523Y-166152380D01*
X97912380Y-167152380D02*
X97340952Y-167152380D01*
X97626666Y-167152380D02*
X97626666Y-166152380D01*
X97531428Y-166295238D01*
X97436190Y-166390476D01*
X97340952Y-166438095D01*
X132833333Y-167552380D02*
X132500000Y-167076190D01*
X132261904Y-167552380D02*
X132261904Y-166552380D01*
X132642857Y-166552380D01*
X132738095Y-166600000D01*
X132785714Y-166647619D01*
X132833333Y-166742857D01*
X132833333Y-166885714D01*
X132785714Y-166980952D01*
X132738095Y-167028571D01*
X132642857Y-167076190D01*
X132261904Y-167076190D01*
X133166666Y-166552380D02*
X133833333Y-166552380D01*
X133404761Y-167552380D01*
X58792380Y-137501904D02*
X59601904Y-137501904D01*
X59697142Y-137454285D01*
X59744761Y-137406666D01*
X59792380Y-137311428D01*
X59792380Y-137120952D01*
X59744761Y-137025714D01*
X59697142Y-136978095D01*
X59601904Y-136930476D01*
X58792380Y-136930476D01*
X58792380Y-136549523D02*
X58792380Y-135882857D01*
X59792380Y-136311428D01*
X55133333Y-161057142D02*
X55085714Y-161104761D01*
X54942857Y-161152380D01*
X54847619Y-161152380D01*
X54704761Y-161104761D01*
X54609523Y-161009523D01*
X54561904Y-160914285D01*
X54514285Y-160723809D01*
X54514285Y-160580952D01*
X54561904Y-160390476D01*
X54609523Y-160295238D01*
X54704761Y-160200000D01*
X54847619Y-160152380D01*
X54942857Y-160152380D01*
X55085714Y-160200000D01*
X55133333Y-160247619D01*
X56085714Y-161152380D02*
X55514285Y-161152380D01*
X55800000Y-161152380D02*
X55800000Y-160152380D01*
X55704761Y-160295238D01*
X55609523Y-160390476D01*
X55514285Y-160438095D01*
X151152380Y-166428571D02*
X150152380Y-166428571D01*
X151152380Y-165952380D02*
X150152380Y-165952380D01*
X151152380Y-165380952D01*
X150152380Y-165380952D01*
X150676190Y-164714285D02*
X151152380Y-164714285D01*
X150152380Y-165047619D02*
X150676190Y-164714285D01*
X150152380Y-164380952D01*
X151152380Y-163523809D02*
X151152380Y-164095238D01*
X151152380Y-163809523D02*
X150152380Y-163809523D01*
X150295238Y-163904761D01*
X150390476Y-164000000D01*
X150438095Y-164095238D01*
X47547619Y-169428571D02*
X47880952Y-169428571D01*
X48023809Y-169952380D02*
X47547619Y-169952380D01*
X47547619Y-168952380D01*
X48023809Y-168952380D01*
X48452380Y-169952380D02*
X48452380Y-168952380D01*
X49023809Y-169952380D01*
X49023809Y-168952380D01*
X49357142Y-168952380D02*
X49928571Y-168952380D01*
X49642857Y-169952380D02*
X49642857Y-168952380D01*
X50833333Y-169952380D02*
X50499999Y-169476190D01*
X50261904Y-169952380D02*
X50261904Y-168952380D01*
X50642857Y-168952380D01*
X50738095Y-169000000D01*
X50785714Y-169047619D01*
X50833333Y-169142857D01*
X50833333Y-169285714D01*
X50785714Y-169380952D01*
X50738095Y-169428571D01*
X50642857Y-169476190D01*
X50261904Y-169476190D01*
X51214285Y-169666666D02*
X51690476Y-169666666D01*
X51119047Y-169952380D02*
X51452380Y-168952380D01*
X51785714Y-169952380D01*
X52119047Y-169952380D02*
X52119047Y-168952380D01*
X52357142Y-168952380D01*
X52500000Y-169000000D01*
X52595238Y-169095238D01*
X52642857Y-169190476D01*
X52690476Y-169380952D01*
X52690476Y-169523809D01*
X52642857Y-169714285D01*
X52595238Y-169809523D01*
X52500000Y-169904761D01*
X52357142Y-169952380D01*
X52119047Y-169952380D01*
X53071428Y-169666666D02*
X53547619Y-169666666D01*
X52976190Y-169952380D02*
X53309523Y-168952380D01*
X53642857Y-169952380D01*
X54500000Y-169952380D02*
X53928571Y-169952380D01*
X54214285Y-169952380D02*
X54214285Y-168952380D01*
X54119047Y-169095238D01*
X54023809Y-169190476D01*
X53928571Y-169238095D01*
X151252380Y-138428571D02*
X150252380Y-138428571D01*
X151252380Y-137952380D02*
X150252380Y-137952380D01*
X151252380Y-137380952D01*
X150252380Y-137380952D01*
X150776190Y-136714285D02*
X151252380Y-136714285D01*
X150252380Y-137047619D02*
X150776190Y-136714285D01*
X150252380Y-136380952D01*
X150252380Y-136142857D02*
X150252380Y-135523809D01*
X150633333Y-135857142D01*
X150633333Y-135714285D01*
X150680952Y-135619047D01*
X150728571Y-135571428D01*
X150823809Y-135523809D01*
X151061904Y-135523809D01*
X151157142Y-135571428D01*
X151204761Y-135619047D01*
X151252380Y-135714285D01*
X151252380Y-136000000D01*
X151204761Y-136095238D01*
X151157142Y-136142857D01*
X116933333Y-163352380D02*
X116600000Y-162876190D01*
X116361904Y-163352380D02*
X116361904Y-162352380D01*
X116742857Y-162352380D01*
X116838095Y-162400000D01*
X116885714Y-162447619D01*
X116933333Y-162542857D01*
X116933333Y-162685714D01*
X116885714Y-162780952D01*
X116838095Y-162828571D01*
X116742857Y-162876190D01*
X116361904Y-162876190D01*
X117838095Y-162352380D02*
X117361904Y-162352380D01*
X117314285Y-162828571D01*
X117361904Y-162780952D01*
X117457142Y-162733333D01*
X117695238Y-162733333D01*
X117790476Y-162780952D01*
X117838095Y-162828571D01*
X117885714Y-162923809D01*
X117885714Y-163161904D01*
X117838095Y-163257142D01*
X117790476Y-163304761D01*
X117695238Y-163352380D01*
X117457142Y-163352380D01*
X117361904Y-163304761D01*
X117314285Y-163257142D01*
X80652380Y-144951904D02*
X81461904Y-144951904D01*
X81557142Y-144904285D01*
X81604761Y-144856666D01*
X81652380Y-144761428D01*
X81652380Y-144570952D01*
X81604761Y-144475714D01*
X81557142Y-144428095D01*
X81461904Y-144380476D01*
X80652380Y-144380476D01*
X80747619Y-143951904D02*
X80700000Y-143904285D01*
X80652380Y-143809047D01*
X80652380Y-143570952D01*
X80700000Y-143475714D01*
X80747619Y-143428095D01*
X80842857Y-143380476D01*
X80938095Y-143380476D01*
X81080952Y-143428095D01*
X81652380Y-143999523D01*
X81652380Y-143380476D01*
X117033333Y-167352380D02*
X116700000Y-166876190D01*
X116461904Y-167352380D02*
X116461904Y-166352380D01*
X116842857Y-166352380D01*
X116938095Y-166400000D01*
X116985714Y-166447619D01*
X117033333Y-166542857D01*
X117033333Y-166685714D01*
X116985714Y-166780952D01*
X116938095Y-166828571D01*
X116842857Y-166876190D01*
X116461904Y-166876190D01*
X117890476Y-166352380D02*
X117700000Y-166352380D01*
X117604761Y-166400000D01*
X117557142Y-166447619D01*
X117461904Y-166590476D01*
X117414285Y-166780952D01*
X117414285Y-167161904D01*
X117461904Y-167257142D01*
X117509523Y-167304761D01*
X117604761Y-167352380D01*
X117795238Y-167352380D01*
X117890476Y-167304761D01*
X117938095Y-167257142D01*
X117985714Y-167161904D01*
X117985714Y-166923809D01*
X117938095Y-166828571D01*
X117890476Y-166780952D01*
X117795238Y-166733333D01*
X117604761Y-166733333D01*
X117509523Y-166780952D01*
X117461904Y-166828571D01*
X117414285Y-166923809D01*
X73154761Y-165952380D02*
X73154761Y-164952380D01*
X73535714Y-164952380D01*
X73630952Y-165000000D01*
X73678571Y-165047619D01*
X73726190Y-165142857D01*
X73726190Y-165285714D01*
X73678571Y-165380952D01*
X73630952Y-165428571D01*
X73535714Y-165476190D01*
X73154761Y-165476190D01*
X74154761Y-165952380D02*
X74154761Y-164952380D01*
X75202380Y-165857142D02*
X75154761Y-165904761D01*
X75011904Y-165952380D01*
X74916666Y-165952380D01*
X74773809Y-165904761D01*
X74678571Y-165809523D01*
X74630952Y-165714285D01*
X74583333Y-165523809D01*
X74583333Y-165380952D01*
X74630952Y-165190476D01*
X74678571Y-165095238D01*
X74773809Y-165000000D01*
X74916666Y-164952380D01*
X75011904Y-164952380D01*
X75154761Y-165000000D01*
X75202380Y-165047619D01*
X75630952Y-165952380D02*
X75630952Y-164952380D01*
X76202380Y-165952380D02*
X75773809Y-165380952D01*
X76202380Y-164952380D02*
X75630952Y-165523809D01*
X76630952Y-165952380D02*
X76630952Y-164952380D01*
X76964285Y-164952380D02*
X77535714Y-164952380D01*
X77250000Y-165952380D02*
X77250000Y-164952380D01*
X77773809Y-164952380D02*
X78392857Y-164952380D01*
X78059523Y-165333333D01*
X78202380Y-165333333D01*
X78297619Y-165380952D01*
X78345238Y-165428571D01*
X78392857Y-165523809D01*
X78392857Y-165761904D01*
X78345238Y-165857142D01*
X78297619Y-165904761D01*
X78202380Y-165952380D01*
X77916666Y-165952380D01*
X77821428Y-165904761D01*
X77773809Y-165857142D01*
X138952380Y-155951904D02*
X139761904Y-155951904D01*
X139857142Y-155904285D01*
X139904761Y-155856666D01*
X139952380Y-155761428D01*
X139952380Y-155570952D01*
X139904761Y-155475714D01*
X139857142Y-155428095D01*
X139761904Y-155380476D01*
X138952380Y-155380476D01*
X138952380Y-154475714D02*
X138952380Y-154666190D01*
X139000000Y-154761428D01*
X139047619Y-154809047D01*
X139190476Y-154904285D01*
X139380952Y-154951904D01*
X139761904Y-154951904D01*
X139857142Y-154904285D01*
X139904761Y-154856666D01*
X139952380Y-154761428D01*
X139952380Y-154570952D01*
X139904761Y-154475714D01*
X139857142Y-154428095D01*
X139761904Y-154380476D01*
X139523809Y-154380476D01*
X139428571Y-154428095D01*
X139380952Y-154475714D01*
X139333333Y-154570952D01*
X139333333Y-154761428D01*
X139380952Y-154856666D01*
X139428571Y-154904285D01*
X139523809Y-154951904D01*
X132833333Y-163452380D02*
X132500000Y-162976190D01*
X132261904Y-163452380D02*
X132261904Y-162452380D01*
X132642857Y-162452380D01*
X132738095Y-162500000D01*
X132785714Y-162547619D01*
X132833333Y-162642857D01*
X132833333Y-162785714D01*
X132785714Y-162880952D01*
X132738095Y-162928571D01*
X132642857Y-162976190D01*
X132261904Y-162976190D01*
X133404761Y-162880952D02*
X133309523Y-162833333D01*
X133261904Y-162785714D01*
X133214285Y-162690476D01*
X133214285Y-162642857D01*
X133261904Y-162547619D01*
X133309523Y-162500000D01*
X133404761Y-162452380D01*
X133595238Y-162452380D01*
X133690476Y-162500000D01*
X133738095Y-162547619D01*
X133785714Y-162642857D01*
X133785714Y-162690476D01*
X133738095Y-162785714D01*
X133690476Y-162833333D01*
X133595238Y-162880952D01*
X133404761Y-162880952D01*
X133309523Y-162928571D01*
X133261904Y-162976190D01*
X133214285Y-163071428D01*
X133214285Y-163261904D01*
X133261904Y-163357142D01*
X133309523Y-163404761D01*
X133404761Y-163452380D01*
X133595238Y-163452380D01*
X133690476Y-163404761D01*
X133738095Y-163357142D01*
X133785714Y-163261904D01*
X133785714Y-163071428D01*
X133738095Y-162976190D01*
X133690476Y-162928571D01*
X133595238Y-162880952D01*
X58266666Y-114452380D02*
X58266666Y-113452380D01*
X58647619Y-113452380D01*
X58742857Y-113500000D01*
X58790476Y-113547619D01*
X58838095Y-113642857D01*
X58838095Y-113785714D01*
X58790476Y-113880952D01*
X58742857Y-113928571D01*
X58647619Y-113976190D01*
X58266666Y-113976190D01*
X59266666Y-113452380D02*
X59266666Y-114261904D01*
X59314285Y-114357142D01*
X59361904Y-114404761D01*
X59457142Y-114452380D01*
X59647619Y-114452380D01*
X59742857Y-114404761D01*
X59790476Y-114357142D01*
X59838095Y-114261904D01*
X59838095Y-113452380D01*
X60790476Y-114452380D02*
X60314285Y-114452380D01*
X60314285Y-113452380D01*
X61076190Y-114404761D02*
X61219047Y-114452380D01*
X61457142Y-114452380D01*
X61552380Y-114404761D01*
X61600000Y-114357142D01*
X61647619Y-114261904D01*
X61647619Y-114166666D01*
X61600000Y-114071428D01*
X61552380Y-114023809D01*
X61457142Y-113976190D01*
X61266666Y-113928571D01*
X61171428Y-113880952D01*
X61123809Y-113833333D01*
X61076190Y-113738095D01*
X61076190Y-113642857D01*
X61123809Y-113547619D01*
X61171428Y-113500000D01*
X61266666Y-113452380D01*
X61504761Y-113452380D01*
X61647619Y-113500000D01*
X62028571Y-114166666D02*
X62504761Y-114166666D01*
X61933333Y-114452380D02*
X62266666Y-113452380D01*
X62600000Y-114452380D01*
X62933333Y-114452380D02*
X62933333Y-113452380D01*
X63171428Y-113452380D01*
X63314285Y-113500000D01*
X63409523Y-113595238D01*
X63457142Y-113690476D01*
X63504761Y-113880952D01*
X63504761Y-114023809D01*
X63457142Y-114214285D01*
X63409523Y-114309523D01*
X63314285Y-114404761D01*
X63171428Y-114452380D01*
X62933333Y-114452380D01*
X64123809Y-113452380D02*
X64314285Y-113452380D01*
X64409523Y-113500000D01*
X64504761Y-113595238D01*
X64552380Y-113785714D01*
X64552380Y-114119047D01*
X64504761Y-114309523D01*
X64409523Y-114404761D01*
X64314285Y-114452380D01*
X64123809Y-114452380D01*
X64028571Y-114404761D01*
X63933333Y-114309523D01*
X63885714Y-114119047D01*
X63885714Y-113785714D01*
X63933333Y-113595238D01*
X64028571Y-113500000D01*
X64123809Y-113452380D01*
X65552380Y-114452380D02*
X65219047Y-113976190D01*
X64980952Y-114452380D02*
X64980952Y-113452380D01*
X65361904Y-113452380D01*
X65457142Y-113500000D01*
X65504761Y-113547619D01*
X65552380Y-113642857D01*
X65552380Y-113785714D01*
X65504761Y-113880952D01*
X65457142Y-113928571D01*
X65361904Y-113976190D01*
X64980952Y-113976190D01*
X65980952Y-113928571D02*
X66314285Y-113928571D01*
X66457142Y-114452380D02*
X65980952Y-114452380D01*
X65980952Y-113452380D01*
X66457142Y-113452380D01*
X66838095Y-114404761D02*
X66980952Y-114452380D01*
X67219047Y-114452380D01*
X67314285Y-114404761D01*
X67361904Y-114357142D01*
X67409523Y-114261904D01*
X67409523Y-114166666D01*
X67361904Y-114071428D01*
X67314285Y-114023809D01*
X67219047Y-113976190D01*
X67028571Y-113928571D01*
X66933333Y-113880952D01*
X66885714Y-113833333D01*
X66838095Y-113738095D01*
X66838095Y-113642857D01*
X66885714Y-113547619D01*
X66933333Y-113500000D01*
X67028571Y-113452380D01*
X67266666Y-113452380D01*
X67409523Y-113500000D01*
X67600000Y-114547619D02*
X68361904Y-114547619D01*
X68790476Y-113452380D02*
X68980952Y-113452380D01*
X69076190Y-113500000D01*
X69171428Y-113595238D01*
X69219047Y-113785714D01*
X69219047Y-114119047D01*
X69171428Y-114309523D01*
X69076190Y-114404761D01*
X68980952Y-114452380D01*
X68790476Y-114452380D01*
X68695238Y-114404761D01*
X68600000Y-114309523D01*
X68552380Y-114119047D01*
X68552380Y-113785714D01*
X68600000Y-113595238D01*
X68695238Y-113500000D01*
X68790476Y-113452380D01*
X69647619Y-113452380D02*
X69647619Y-114261904D01*
X69695238Y-114357142D01*
X69742857Y-114404761D01*
X69838095Y-114452380D01*
X70028571Y-114452380D01*
X70123809Y-114404761D01*
X70171428Y-114357142D01*
X70219047Y-114261904D01*
X70219047Y-113452380D01*
X70552380Y-113452380D02*
X71123809Y-113452380D01*
X70838095Y-114452380D02*
X70838095Y-113452380D01*
X71980952Y-114452380D02*
X71409523Y-114452380D01*
X71695238Y-114452380D02*
X71695238Y-113452380D01*
X71600000Y-113595238D01*
X71504761Y-113690476D01*
X71409523Y-113738095D01*
X47161904Y-164952380D02*
X47161904Y-163952380D01*
X47400000Y-163952380D01*
X47542857Y-164000000D01*
X47638095Y-164095238D01*
X47685714Y-164190476D01*
X47733333Y-164380952D01*
X47733333Y-164523809D01*
X47685714Y-164714285D01*
X47638095Y-164809523D01*
X47542857Y-164904761D01*
X47400000Y-164952380D01*
X47161904Y-164952380D01*
X48685714Y-164952380D02*
X48114285Y-164952380D01*
X48400000Y-164952380D02*
X48400000Y-163952380D01*
X48304761Y-164095238D01*
X48209523Y-164190476D01*
X48114285Y-164238095D01*
X44733333Y-160657142D02*
X44685714Y-160704761D01*
X44542857Y-160752380D01*
X44447619Y-160752380D01*
X44304761Y-160704761D01*
X44209523Y-160609523D01*
X44161904Y-160514285D01*
X44114285Y-160323809D01*
X44114285Y-160180952D01*
X44161904Y-159990476D01*
X44209523Y-159895238D01*
X44304761Y-159800000D01*
X44447619Y-159752380D01*
X44542857Y-159752380D01*
X44685714Y-159800000D01*
X44733333Y-159847619D01*
X45114285Y-159847619D02*
X45161904Y-159800000D01*
X45257142Y-159752380D01*
X45495238Y-159752380D01*
X45590476Y-159800000D01*
X45638095Y-159847619D01*
X45685714Y-159942857D01*
X45685714Y-160038095D01*
X45638095Y-160180952D01*
X45066666Y-160752380D01*
X45685714Y-160752380D01*
X89176190Y-157426190D02*
X89652380Y-157426190D01*
X88652380Y-157759523D02*
X89176190Y-157426190D01*
X88652380Y-157092857D01*
X89652380Y-156235714D02*
X89652380Y-156807142D01*
X89652380Y-156521428D02*
X88652380Y-156521428D01*
X88795238Y-156616666D01*
X88890476Y-156711904D01*
X88938095Y-156807142D01*
X99957142Y-160916666D02*
X100004761Y-160964285D01*
X100052380Y-161107142D01*
X100052380Y-161202380D01*
X100004761Y-161345238D01*
X99909523Y-161440476D01*
X99814285Y-161488095D01*
X99623809Y-161535714D01*
X99480952Y-161535714D01*
X99290476Y-161488095D01*
X99195238Y-161440476D01*
X99100000Y-161345238D01*
X99052380Y-161202380D01*
X99052380Y-161107142D01*
X99100000Y-160964285D01*
X99147619Y-160916666D01*
X99385714Y-160059523D02*
X100052380Y-160059523D01*
X99004761Y-160297619D02*
X99719047Y-160535714D01*
X99719047Y-159916666D01*
X100057142Y-155266666D02*
X100104761Y-155314285D01*
X100152380Y-155457142D01*
X100152380Y-155552380D01*
X100104761Y-155695238D01*
X100009523Y-155790476D01*
X99914285Y-155838095D01*
X99723809Y-155885714D01*
X99580952Y-155885714D01*
X99390476Y-155838095D01*
X99295238Y-155790476D01*
X99200000Y-155695238D01*
X99152380Y-155552380D01*
X99152380Y-155457142D01*
X99200000Y-155314285D01*
X99247619Y-155266666D01*
X99152380Y-154933333D02*
X99152380Y-154314285D01*
X99533333Y-154647619D01*
X99533333Y-154504761D01*
X99580952Y-154409523D01*
X99628571Y-154361904D01*
X99723809Y-154314285D01*
X99961904Y-154314285D01*
X100057142Y-154361904D01*
X100104761Y-154409523D01*
X100152380Y-154504761D01*
X100152380Y-154790476D01*
X100104761Y-154885714D01*
X100057142Y-154933333D01*
M02*
