G04 #@! TF.GenerationSoftware,KiCad,Pcbnew,(5.1.4)-1*
G04 #@! TF.CreationDate,2021-06-13T20:18:54-03:00*
G04 #@! TF.ProjectId,_autosave-PLC_Pic18f4550,5f617574-6f73-4617-9665-2d504c435f50,rev?*
G04 #@! TF.SameCoordinates,Original*
G04 #@! TF.FileFunction,Profile,NP*
%FSLAX46Y46*%
G04 Gerber Fmt 4.6, Leading zero omitted, Abs format (unit mm)*
G04 Created by KiCad (PCBNEW (5.1.4)-1) date 2021-06-13 20:18:54*
%MOMM*%
%LPD*%
G04 APERTURE LIST*
%ADD10C,0.050000*%
%ADD11C,0.100000*%
G04 APERTURE END LIST*
D10*
X218500000Y-20500000D02*
G75*
G03X218500000Y-20500000I-2500000J0D01*
G01*
X64500000Y-20500000D02*
G75*
G03X64500000Y-20500000I-2500000J0D01*
G01*
X64500000Y-190500000D02*
G75*
G03X64500000Y-190500000I-2500000J0D01*
G01*
X218500000Y-190500000D02*
G75*
G03X218500000Y-190500000I-2500000J0D01*
G01*
X163000000Y-45500000D02*
X167000000Y-45500000D01*
X105500000Y-185000000D02*
X109500000Y-185000000D01*
X167000000Y-170500000D02*
X163000000Y-170500000D01*
D11*
X219500000Y-194000000D02*
X58500000Y-194000000D01*
X219500000Y-17000000D02*
X219500000Y-194000000D01*
D10*
X105500000Y-146000000D02*
X105500000Y-185000000D01*
X129000000Y-146000000D02*
X105500000Y-146000000D01*
X129000000Y-129500000D02*
X129000000Y-146000000D01*
X133000000Y-129500000D02*
X129000000Y-129500000D01*
X133000000Y-148500000D02*
X133000000Y-129500000D01*
X109500000Y-148500000D02*
X133000000Y-148500000D01*
X109500000Y-185000000D02*
X109500000Y-148500000D01*
X163000000Y-170500000D02*
X163000000Y-45500000D01*
X167000000Y-45500000D02*
X167000000Y-170500000D01*
D11*
X58500000Y-194000000D02*
X58500000Y-17000000D01*
X58500000Y-17000000D02*
X219500000Y-17000000D01*
M02*
