G04 #@! TF.GenerationSoftware,KiCad,Pcbnew,(5.1.4)-1*
G04 #@! TF.CreationDate,2021-06-13T20:18:53-03:00*
G04 #@! TF.ProjectId,_autosave-PLC_Pic18f4550,5f617574-6f73-4617-9665-2d504c435f50,rev?*
G04 #@! TF.SameCoordinates,Original*
G04 #@! TF.FileFunction,Paste,Top*
G04 #@! TF.FilePolarity,Positive*
%FSLAX46Y46*%
G04 Gerber Fmt 4.6, Leading zero omitted, Abs format (unit mm)*
G04 Created by KiCad (PCBNEW (5.1.4)-1) date 2021-06-13 20:18:53*
%MOMM*%
%LPD*%
G04 APERTURE LIST*
%ADD10C,0.100000*%
%ADD11C,0.975000*%
%ADD12C,0.600000*%
G04 APERTURE END LIST*
D10*
G36*
X137830142Y-130301174D02*
G01*
X137853803Y-130304684D01*
X137877007Y-130310496D01*
X137899529Y-130318554D01*
X137921153Y-130328782D01*
X137941670Y-130341079D01*
X137960883Y-130355329D01*
X137978607Y-130371393D01*
X137994671Y-130389117D01*
X138008921Y-130408330D01*
X138021218Y-130428847D01*
X138031446Y-130450471D01*
X138039504Y-130472993D01*
X138045316Y-130496197D01*
X138048826Y-130519858D01*
X138050000Y-130543750D01*
X138050000Y-131456250D01*
X138048826Y-131480142D01*
X138045316Y-131503803D01*
X138039504Y-131527007D01*
X138031446Y-131549529D01*
X138021218Y-131571153D01*
X138008921Y-131591670D01*
X137994671Y-131610883D01*
X137978607Y-131628607D01*
X137960883Y-131644671D01*
X137941670Y-131658921D01*
X137921153Y-131671218D01*
X137899529Y-131681446D01*
X137877007Y-131689504D01*
X137853803Y-131695316D01*
X137830142Y-131698826D01*
X137806250Y-131700000D01*
X137318750Y-131700000D01*
X137294858Y-131698826D01*
X137271197Y-131695316D01*
X137247993Y-131689504D01*
X137225471Y-131681446D01*
X137203847Y-131671218D01*
X137183330Y-131658921D01*
X137164117Y-131644671D01*
X137146393Y-131628607D01*
X137130329Y-131610883D01*
X137116079Y-131591670D01*
X137103782Y-131571153D01*
X137093554Y-131549529D01*
X137085496Y-131527007D01*
X137079684Y-131503803D01*
X137076174Y-131480142D01*
X137075000Y-131456250D01*
X137075000Y-130543750D01*
X137076174Y-130519858D01*
X137079684Y-130496197D01*
X137085496Y-130472993D01*
X137093554Y-130450471D01*
X137103782Y-130428847D01*
X137116079Y-130408330D01*
X137130329Y-130389117D01*
X137146393Y-130371393D01*
X137164117Y-130355329D01*
X137183330Y-130341079D01*
X137203847Y-130328782D01*
X137225471Y-130318554D01*
X137247993Y-130310496D01*
X137271197Y-130304684D01*
X137294858Y-130301174D01*
X137318750Y-130300000D01*
X137806250Y-130300000D01*
X137830142Y-130301174D01*
X137830142Y-130301174D01*
G37*
D11*
X137562500Y-131000000D03*
D10*
G36*
X139705142Y-130301174D02*
G01*
X139728803Y-130304684D01*
X139752007Y-130310496D01*
X139774529Y-130318554D01*
X139796153Y-130328782D01*
X139816670Y-130341079D01*
X139835883Y-130355329D01*
X139853607Y-130371393D01*
X139869671Y-130389117D01*
X139883921Y-130408330D01*
X139896218Y-130428847D01*
X139906446Y-130450471D01*
X139914504Y-130472993D01*
X139920316Y-130496197D01*
X139923826Y-130519858D01*
X139925000Y-130543750D01*
X139925000Y-131456250D01*
X139923826Y-131480142D01*
X139920316Y-131503803D01*
X139914504Y-131527007D01*
X139906446Y-131549529D01*
X139896218Y-131571153D01*
X139883921Y-131591670D01*
X139869671Y-131610883D01*
X139853607Y-131628607D01*
X139835883Y-131644671D01*
X139816670Y-131658921D01*
X139796153Y-131671218D01*
X139774529Y-131681446D01*
X139752007Y-131689504D01*
X139728803Y-131695316D01*
X139705142Y-131698826D01*
X139681250Y-131700000D01*
X139193750Y-131700000D01*
X139169858Y-131698826D01*
X139146197Y-131695316D01*
X139122993Y-131689504D01*
X139100471Y-131681446D01*
X139078847Y-131671218D01*
X139058330Y-131658921D01*
X139039117Y-131644671D01*
X139021393Y-131628607D01*
X139005329Y-131610883D01*
X138991079Y-131591670D01*
X138978782Y-131571153D01*
X138968554Y-131549529D01*
X138960496Y-131527007D01*
X138954684Y-131503803D01*
X138951174Y-131480142D01*
X138950000Y-131456250D01*
X138950000Y-130543750D01*
X138951174Y-130519858D01*
X138954684Y-130496197D01*
X138960496Y-130472993D01*
X138968554Y-130450471D01*
X138978782Y-130428847D01*
X138991079Y-130408330D01*
X139005329Y-130389117D01*
X139021393Y-130371393D01*
X139039117Y-130355329D01*
X139058330Y-130341079D01*
X139078847Y-130328782D01*
X139100471Y-130318554D01*
X139122993Y-130310496D01*
X139146197Y-130304684D01*
X139169858Y-130301174D01*
X139193750Y-130300000D01*
X139681250Y-130300000D01*
X139705142Y-130301174D01*
X139705142Y-130301174D01*
G37*
D11*
X139437500Y-131000000D03*
D10*
G36*
X137830142Y-136301174D02*
G01*
X137853803Y-136304684D01*
X137877007Y-136310496D01*
X137899529Y-136318554D01*
X137921153Y-136328782D01*
X137941670Y-136341079D01*
X137960883Y-136355329D01*
X137978607Y-136371393D01*
X137994671Y-136389117D01*
X138008921Y-136408330D01*
X138021218Y-136428847D01*
X138031446Y-136450471D01*
X138039504Y-136472993D01*
X138045316Y-136496197D01*
X138048826Y-136519858D01*
X138050000Y-136543750D01*
X138050000Y-137456250D01*
X138048826Y-137480142D01*
X138045316Y-137503803D01*
X138039504Y-137527007D01*
X138031446Y-137549529D01*
X138021218Y-137571153D01*
X138008921Y-137591670D01*
X137994671Y-137610883D01*
X137978607Y-137628607D01*
X137960883Y-137644671D01*
X137941670Y-137658921D01*
X137921153Y-137671218D01*
X137899529Y-137681446D01*
X137877007Y-137689504D01*
X137853803Y-137695316D01*
X137830142Y-137698826D01*
X137806250Y-137700000D01*
X137318750Y-137700000D01*
X137294858Y-137698826D01*
X137271197Y-137695316D01*
X137247993Y-137689504D01*
X137225471Y-137681446D01*
X137203847Y-137671218D01*
X137183330Y-137658921D01*
X137164117Y-137644671D01*
X137146393Y-137628607D01*
X137130329Y-137610883D01*
X137116079Y-137591670D01*
X137103782Y-137571153D01*
X137093554Y-137549529D01*
X137085496Y-137527007D01*
X137079684Y-137503803D01*
X137076174Y-137480142D01*
X137075000Y-137456250D01*
X137075000Y-136543750D01*
X137076174Y-136519858D01*
X137079684Y-136496197D01*
X137085496Y-136472993D01*
X137093554Y-136450471D01*
X137103782Y-136428847D01*
X137116079Y-136408330D01*
X137130329Y-136389117D01*
X137146393Y-136371393D01*
X137164117Y-136355329D01*
X137183330Y-136341079D01*
X137203847Y-136328782D01*
X137225471Y-136318554D01*
X137247993Y-136310496D01*
X137271197Y-136304684D01*
X137294858Y-136301174D01*
X137318750Y-136300000D01*
X137806250Y-136300000D01*
X137830142Y-136301174D01*
X137830142Y-136301174D01*
G37*
D11*
X137562500Y-137000000D03*
D10*
G36*
X139705142Y-136301174D02*
G01*
X139728803Y-136304684D01*
X139752007Y-136310496D01*
X139774529Y-136318554D01*
X139796153Y-136328782D01*
X139816670Y-136341079D01*
X139835883Y-136355329D01*
X139853607Y-136371393D01*
X139869671Y-136389117D01*
X139883921Y-136408330D01*
X139896218Y-136428847D01*
X139906446Y-136450471D01*
X139914504Y-136472993D01*
X139920316Y-136496197D01*
X139923826Y-136519858D01*
X139925000Y-136543750D01*
X139925000Y-137456250D01*
X139923826Y-137480142D01*
X139920316Y-137503803D01*
X139914504Y-137527007D01*
X139906446Y-137549529D01*
X139896218Y-137571153D01*
X139883921Y-137591670D01*
X139869671Y-137610883D01*
X139853607Y-137628607D01*
X139835883Y-137644671D01*
X139816670Y-137658921D01*
X139796153Y-137671218D01*
X139774529Y-137681446D01*
X139752007Y-137689504D01*
X139728803Y-137695316D01*
X139705142Y-137698826D01*
X139681250Y-137700000D01*
X139193750Y-137700000D01*
X139169858Y-137698826D01*
X139146197Y-137695316D01*
X139122993Y-137689504D01*
X139100471Y-137681446D01*
X139078847Y-137671218D01*
X139058330Y-137658921D01*
X139039117Y-137644671D01*
X139021393Y-137628607D01*
X139005329Y-137610883D01*
X138991079Y-137591670D01*
X138978782Y-137571153D01*
X138968554Y-137549529D01*
X138960496Y-137527007D01*
X138954684Y-137503803D01*
X138951174Y-137480142D01*
X138950000Y-137456250D01*
X138950000Y-136543750D01*
X138951174Y-136519858D01*
X138954684Y-136496197D01*
X138960496Y-136472993D01*
X138968554Y-136450471D01*
X138978782Y-136428847D01*
X138991079Y-136408330D01*
X139005329Y-136389117D01*
X139021393Y-136371393D01*
X139039117Y-136355329D01*
X139058330Y-136341079D01*
X139078847Y-136328782D01*
X139100471Y-136318554D01*
X139122993Y-136310496D01*
X139146197Y-136304684D01*
X139169858Y-136301174D01*
X139193750Y-136300000D01*
X139681250Y-136300000D01*
X139705142Y-136301174D01*
X139705142Y-136301174D01*
G37*
D11*
X139437500Y-137000000D03*
D10*
G36*
X141739703Y-42645722D02*
G01*
X141754264Y-42647882D01*
X141768543Y-42651459D01*
X141782403Y-42656418D01*
X141795710Y-42662712D01*
X141808336Y-42670280D01*
X141820159Y-42679048D01*
X141831066Y-42688934D01*
X141840952Y-42699841D01*
X141849720Y-42711664D01*
X141857288Y-42724290D01*
X141863582Y-42737597D01*
X141868541Y-42751457D01*
X141872118Y-42765736D01*
X141874278Y-42780297D01*
X141875000Y-42795000D01*
X141875000Y-43095000D01*
X141874278Y-43109703D01*
X141872118Y-43124264D01*
X141868541Y-43138543D01*
X141863582Y-43152403D01*
X141857288Y-43165710D01*
X141849720Y-43178336D01*
X141840952Y-43190159D01*
X141831066Y-43201066D01*
X141820159Y-43210952D01*
X141808336Y-43219720D01*
X141795710Y-43227288D01*
X141782403Y-43233582D01*
X141768543Y-43238541D01*
X141754264Y-43242118D01*
X141739703Y-43244278D01*
X141725000Y-43245000D01*
X139975000Y-43245000D01*
X139960297Y-43244278D01*
X139945736Y-43242118D01*
X139931457Y-43238541D01*
X139917597Y-43233582D01*
X139904290Y-43227288D01*
X139891664Y-43219720D01*
X139879841Y-43210952D01*
X139868934Y-43201066D01*
X139859048Y-43190159D01*
X139850280Y-43178336D01*
X139842712Y-43165710D01*
X139836418Y-43152403D01*
X139831459Y-43138543D01*
X139827882Y-43124264D01*
X139825722Y-43109703D01*
X139825000Y-43095000D01*
X139825000Y-42795000D01*
X139825722Y-42780297D01*
X139827882Y-42765736D01*
X139831459Y-42751457D01*
X139836418Y-42737597D01*
X139842712Y-42724290D01*
X139850280Y-42711664D01*
X139859048Y-42699841D01*
X139868934Y-42688934D01*
X139879841Y-42679048D01*
X139891664Y-42670280D01*
X139904290Y-42662712D01*
X139917597Y-42656418D01*
X139931457Y-42651459D01*
X139945736Y-42647882D01*
X139960297Y-42645722D01*
X139975000Y-42645000D01*
X141725000Y-42645000D01*
X141739703Y-42645722D01*
X141739703Y-42645722D01*
G37*
D12*
X140850000Y-42945000D03*
D10*
G36*
X141739703Y-41375722D02*
G01*
X141754264Y-41377882D01*
X141768543Y-41381459D01*
X141782403Y-41386418D01*
X141795710Y-41392712D01*
X141808336Y-41400280D01*
X141820159Y-41409048D01*
X141831066Y-41418934D01*
X141840952Y-41429841D01*
X141849720Y-41441664D01*
X141857288Y-41454290D01*
X141863582Y-41467597D01*
X141868541Y-41481457D01*
X141872118Y-41495736D01*
X141874278Y-41510297D01*
X141875000Y-41525000D01*
X141875000Y-41825000D01*
X141874278Y-41839703D01*
X141872118Y-41854264D01*
X141868541Y-41868543D01*
X141863582Y-41882403D01*
X141857288Y-41895710D01*
X141849720Y-41908336D01*
X141840952Y-41920159D01*
X141831066Y-41931066D01*
X141820159Y-41940952D01*
X141808336Y-41949720D01*
X141795710Y-41957288D01*
X141782403Y-41963582D01*
X141768543Y-41968541D01*
X141754264Y-41972118D01*
X141739703Y-41974278D01*
X141725000Y-41975000D01*
X139975000Y-41975000D01*
X139960297Y-41974278D01*
X139945736Y-41972118D01*
X139931457Y-41968541D01*
X139917597Y-41963582D01*
X139904290Y-41957288D01*
X139891664Y-41949720D01*
X139879841Y-41940952D01*
X139868934Y-41931066D01*
X139859048Y-41920159D01*
X139850280Y-41908336D01*
X139842712Y-41895710D01*
X139836418Y-41882403D01*
X139831459Y-41868543D01*
X139827882Y-41854264D01*
X139825722Y-41839703D01*
X139825000Y-41825000D01*
X139825000Y-41525000D01*
X139825722Y-41510297D01*
X139827882Y-41495736D01*
X139831459Y-41481457D01*
X139836418Y-41467597D01*
X139842712Y-41454290D01*
X139850280Y-41441664D01*
X139859048Y-41429841D01*
X139868934Y-41418934D01*
X139879841Y-41409048D01*
X139891664Y-41400280D01*
X139904290Y-41392712D01*
X139917597Y-41386418D01*
X139931457Y-41381459D01*
X139945736Y-41377882D01*
X139960297Y-41375722D01*
X139975000Y-41375000D01*
X141725000Y-41375000D01*
X141739703Y-41375722D01*
X141739703Y-41375722D01*
G37*
D12*
X140850000Y-41675000D03*
D10*
G36*
X141739703Y-40105722D02*
G01*
X141754264Y-40107882D01*
X141768543Y-40111459D01*
X141782403Y-40116418D01*
X141795710Y-40122712D01*
X141808336Y-40130280D01*
X141820159Y-40139048D01*
X141831066Y-40148934D01*
X141840952Y-40159841D01*
X141849720Y-40171664D01*
X141857288Y-40184290D01*
X141863582Y-40197597D01*
X141868541Y-40211457D01*
X141872118Y-40225736D01*
X141874278Y-40240297D01*
X141875000Y-40255000D01*
X141875000Y-40555000D01*
X141874278Y-40569703D01*
X141872118Y-40584264D01*
X141868541Y-40598543D01*
X141863582Y-40612403D01*
X141857288Y-40625710D01*
X141849720Y-40638336D01*
X141840952Y-40650159D01*
X141831066Y-40661066D01*
X141820159Y-40670952D01*
X141808336Y-40679720D01*
X141795710Y-40687288D01*
X141782403Y-40693582D01*
X141768543Y-40698541D01*
X141754264Y-40702118D01*
X141739703Y-40704278D01*
X141725000Y-40705000D01*
X139975000Y-40705000D01*
X139960297Y-40704278D01*
X139945736Y-40702118D01*
X139931457Y-40698541D01*
X139917597Y-40693582D01*
X139904290Y-40687288D01*
X139891664Y-40679720D01*
X139879841Y-40670952D01*
X139868934Y-40661066D01*
X139859048Y-40650159D01*
X139850280Y-40638336D01*
X139842712Y-40625710D01*
X139836418Y-40612403D01*
X139831459Y-40598543D01*
X139827882Y-40584264D01*
X139825722Y-40569703D01*
X139825000Y-40555000D01*
X139825000Y-40255000D01*
X139825722Y-40240297D01*
X139827882Y-40225736D01*
X139831459Y-40211457D01*
X139836418Y-40197597D01*
X139842712Y-40184290D01*
X139850280Y-40171664D01*
X139859048Y-40159841D01*
X139868934Y-40148934D01*
X139879841Y-40139048D01*
X139891664Y-40130280D01*
X139904290Y-40122712D01*
X139917597Y-40116418D01*
X139931457Y-40111459D01*
X139945736Y-40107882D01*
X139960297Y-40105722D01*
X139975000Y-40105000D01*
X141725000Y-40105000D01*
X141739703Y-40105722D01*
X141739703Y-40105722D01*
G37*
D12*
X140850000Y-40405000D03*
D10*
G36*
X141739703Y-38835722D02*
G01*
X141754264Y-38837882D01*
X141768543Y-38841459D01*
X141782403Y-38846418D01*
X141795710Y-38852712D01*
X141808336Y-38860280D01*
X141820159Y-38869048D01*
X141831066Y-38878934D01*
X141840952Y-38889841D01*
X141849720Y-38901664D01*
X141857288Y-38914290D01*
X141863582Y-38927597D01*
X141868541Y-38941457D01*
X141872118Y-38955736D01*
X141874278Y-38970297D01*
X141875000Y-38985000D01*
X141875000Y-39285000D01*
X141874278Y-39299703D01*
X141872118Y-39314264D01*
X141868541Y-39328543D01*
X141863582Y-39342403D01*
X141857288Y-39355710D01*
X141849720Y-39368336D01*
X141840952Y-39380159D01*
X141831066Y-39391066D01*
X141820159Y-39400952D01*
X141808336Y-39409720D01*
X141795710Y-39417288D01*
X141782403Y-39423582D01*
X141768543Y-39428541D01*
X141754264Y-39432118D01*
X141739703Y-39434278D01*
X141725000Y-39435000D01*
X139975000Y-39435000D01*
X139960297Y-39434278D01*
X139945736Y-39432118D01*
X139931457Y-39428541D01*
X139917597Y-39423582D01*
X139904290Y-39417288D01*
X139891664Y-39409720D01*
X139879841Y-39400952D01*
X139868934Y-39391066D01*
X139859048Y-39380159D01*
X139850280Y-39368336D01*
X139842712Y-39355710D01*
X139836418Y-39342403D01*
X139831459Y-39328543D01*
X139827882Y-39314264D01*
X139825722Y-39299703D01*
X139825000Y-39285000D01*
X139825000Y-38985000D01*
X139825722Y-38970297D01*
X139827882Y-38955736D01*
X139831459Y-38941457D01*
X139836418Y-38927597D01*
X139842712Y-38914290D01*
X139850280Y-38901664D01*
X139859048Y-38889841D01*
X139868934Y-38878934D01*
X139879841Y-38869048D01*
X139891664Y-38860280D01*
X139904290Y-38852712D01*
X139917597Y-38846418D01*
X139931457Y-38841459D01*
X139945736Y-38837882D01*
X139960297Y-38835722D01*
X139975000Y-38835000D01*
X141725000Y-38835000D01*
X141739703Y-38835722D01*
X141739703Y-38835722D01*
G37*
D12*
X140850000Y-39135000D03*
D10*
G36*
X141739703Y-37565722D02*
G01*
X141754264Y-37567882D01*
X141768543Y-37571459D01*
X141782403Y-37576418D01*
X141795710Y-37582712D01*
X141808336Y-37590280D01*
X141820159Y-37599048D01*
X141831066Y-37608934D01*
X141840952Y-37619841D01*
X141849720Y-37631664D01*
X141857288Y-37644290D01*
X141863582Y-37657597D01*
X141868541Y-37671457D01*
X141872118Y-37685736D01*
X141874278Y-37700297D01*
X141875000Y-37715000D01*
X141875000Y-38015000D01*
X141874278Y-38029703D01*
X141872118Y-38044264D01*
X141868541Y-38058543D01*
X141863582Y-38072403D01*
X141857288Y-38085710D01*
X141849720Y-38098336D01*
X141840952Y-38110159D01*
X141831066Y-38121066D01*
X141820159Y-38130952D01*
X141808336Y-38139720D01*
X141795710Y-38147288D01*
X141782403Y-38153582D01*
X141768543Y-38158541D01*
X141754264Y-38162118D01*
X141739703Y-38164278D01*
X141725000Y-38165000D01*
X139975000Y-38165000D01*
X139960297Y-38164278D01*
X139945736Y-38162118D01*
X139931457Y-38158541D01*
X139917597Y-38153582D01*
X139904290Y-38147288D01*
X139891664Y-38139720D01*
X139879841Y-38130952D01*
X139868934Y-38121066D01*
X139859048Y-38110159D01*
X139850280Y-38098336D01*
X139842712Y-38085710D01*
X139836418Y-38072403D01*
X139831459Y-38058543D01*
X139827882Y-38044264D01*
X139825722Y-38029703D01*
X139825000Y-38015000D01*
X139825000Y-37715000D01*
X139825722Y-37700297D01*
X139827882Y-37685736D01*
X139831459Y-37671457D01*
X139836418Y-37657597D01*
X139842712Y-37644290D01*
X139850280Y-37631664D01*
X139859048Y-37619841D01*
X139868934Y-37608934D01*
X139879841Y-37599048D01*
X139891664Y-37590280D01*
X139904290Y-37582712D01*
X139917597Y-37576418D01*
X139931457Y-37571459D01*
X139945736Y-37567882D01*
X139960297Y-37565722D01*
X139975000Y-37565000D01*
X141725000Y-37565000D01*
X141739703Y-37565722D01*
X141739703Y-37565722D01*
G37*
D12*
X140850000Y-37865000D03*
D10*
G36*
X141739703Y-36295722D02*
G01*
X141754264Y-36297882D01*
X141768543Y-36301459D01*
X141782403Y-36306418D01*
X141795710Y-36312712D01*
X141808336Y-36320280D01*
X141820159Y-36329048D01*
X141831066Y-36338934D01*
X141840952Y-36349841D01*
X141849720Y-36361664D01*
X141857288Y-36374290D01*
X141863582Y-36387597D01*
X141868541Y-36401457D01*
X141872118Y-36415736D01*
X141874278Y-36430297D01*
X141875000Y-36445000D01*
X141875000Y-36745000D01*
X141874278Y-36759703D01*
X141872118Y-36774264D01*
X141868541Y-36788543D01*
X141863582Y-36802403D01*
X141857288Y-36815710D01*
X141849720Y-36828336D01*
X141840952Y-36840159D01*
X141831066Y-36851066D01*
X141820159Y-36860952D01*
X141808336Y-36869720D01*
X141795710Y-36877288D01*
X141782403Y-36883582D01*
X141768543Y-36888541D01*
X141754264Y-36892118D01*
X141739703Y-36894278D01*
X141725000Y-36895000D01*
X139975000Y-36895000D01*
X139960297Y-36894278D01*
X139945736Y-36892118D01*
X139931457Y-36888541D01*
X139917597Y-36883582D01*
X139904290Y-36877288D01*
X139891664Y-36869720D01*
X139879841Y-36860952D01*
X139868934Y-36851066D01*
X139859048Y-36840159D01*
X139850280Y-36828336D01*
X139842712Y-36815710D01*
X139836418Y-36802403D01*
X139831459Y-36788543D01*
X139827882Y-36774264D01*
X139825722Y-36759703D01*
X139825000Y-36745000D01*
X139825000Y-36445000D01*
X139825722Y-36430297D01*
X139827882Y-36415736D01*
X139831459Y-36401457D01*
X139836418Y-36387597D01*
X139842712Y-36374290D01*
X139850280Y-36361664D01*
X139859048Y-36349841D01*
X139868934Y-36338934D01*
X139879841Y-36329048D01*
X139891664Y-36320280D01*
X139904290Y-36312712D01*
X139917597Y-36306418D01*
X139931457Y-36301459D01*
X139945736Y-36297882D01*
X139960297Y-36295722D01*
X139975000Y-36295000D01*
X141725000Y-36295000D01*
X141739703Y-36295722D01*
X141739703Y-36295722D01*
G37*
D12*
X140850000Y-36595000D03*
D10*
G36*
X141739703Y-35025722D02*
G01*
X141754264Y-35027882D01*
X141768543Y-35031459D01*
X141782403Y-35036418D01*
X141795710Y-35042712D01*
X141808336Y-35050280D01*
X141820159Y-35059048D01*
X141831066Y-35068934D01*
X141840952Y-35079841D01*
X141849720Y-35091664D01*
X141857288Y-35104290D01*
X141863582Y-35117597D01*
X141868541Y-35131457D01*
X141872118Y-35145736D01*
X141874278Y-35160297D01*
X141875000Y-35175000D01*
X141875000Y-35475000D01*
X141874278Y-35489703D01*
X141872118Y-35504264D01*
X141868541Y-35518543D01*
X141863582Y-35532403D01*
X141857288Y-35545710D01*
X141849720Y-35558336D01*
X141840952Y-35570159D01*
X141831066Y-35581066D01*
X141820159Y-35590952D01*
X141808336Y-35599720D01*
X141795710Y-35607288D01*
X141782403Y-35613582D01*
X141768543Y-35618541D01*
X141754264Y-35622118D01*
X141739703Y-35624278D01*
X141725000Y-35625000D01*
X139975000Y-35625000D01*
X139960297Y-35624278D01*
X139945736Y-35622118D01*
X139931457Y-35618541D01*
X139917597Y-35613582D01*
X139904290Y-35607288D01*
X139891664Y-35599720D01*
X139879841Y-35590952D01*
X139868934Y-35581066D01*
X139859048Y-35570159D01*
X139850280Y-35558336D01*
X139842712Y-35545710D01*
X139836418Y-35532403D01*
X139831459Y-35518543D01*
X139827882Y-35504264D01*
X139825722Y-35489703D01*
X139825000Y-35475000D01*
X139825000Y-35175000D01*
X139825722Y-35160297D01*
X139827882Y-35145736D01*
X139831459Y-35131457D01*
X139836418Y-35117597D01*
X139842712Y-35104290D01*
X139850280Y-35091664D01*
X139859048Y-35079841D01*
X139868934Y-35068934D01*
X139879841Y-35059048D01*
X139891664Y-35050280D01*
X139904290Y-35042712D01*
X139917597Y-35036418D01*
X139931457Y-35031459D01*
X139945736Y-35027882D01*
X139960297Y-35025722D01*
X139975000Y-35025000D01*
X141725000Y-35025000D01*
X141739703Y-35025722D01*
X141739703Y-35025722D01*
G37*
D12*
X140850000Y-35325000D03*
D10*
G36*
X141739703Y-33755722D02*
G01*
X141754264Y-33757882D01*
X141768543Y-33761459D01*
X141782403Y-33766418D01*
X141795710Y-33772712D01*
X141808336Y-33780280D01*
X141820159Y-33789048D01*
X141831066Y-33798934D01*
X141840952Y-33809841D01*
X141849720Y-33821664D01*
X141857288Y-33834290D01*
X141863582Y-33847597D01*
X141868541Y-33861457D01*
X141872118Y-33875736D01*
X141874278Y-33890297D01*
X141875000Y-33905000D01*
X141875000Y-34205000D01*
X141874278Y-34219703D01*
X141872118Y-34234264D01*
X141868541Y-34248543D01*
X141863582Y-34262403D01*
X141857288Y-34275710D01*
X141849720Y-34288336D01*
X141840952Y-34300159D01*
X141831066Y-34311066D01*
X141820159Y-34320952D01*
X141808336Y-34329720D01*
X141795710Y-34337288D01*
X141782403Y-34343582D01*
X141768543Y-34348541D01*
X141754264Y-34352118D01*
X141739703Y-34354278D01*
X141725000Y-34355000D01*
X139975000Y-34355000D01*
X139960297Y-34354278D01*
X139945736Y-34352118D01*
X139931457Y-34348541D01*
X139917597Y-34343582D01*
X139904290Y-34337288D01*
X139891664Y-34329720D01*
X139879841Y-34320952D01*
X139868934Y-34311066D01*
X139859048Y-34300159D01*
X139850280Y-34288336D01*
X139842712Y-34275710D01*
X139836418Y-34262403D01*
X139831459Y-34248543D01*
X139827882Y-34234264D01*
X139825722Y-34219703D01*
X139825000Y-34205000D01*
X139825000Y-33905000D01*
X139825722Y-33890297D01*
X139827882Y-33875736D01*
X139831459Y-33861457D01*
X139836418Y-33847597D01*
X139842712Y-33834290D01*
X139850280Y-33821664D01*
X139859048Y-33809841D01*
X139868934Y-33798934D01*
X139879841Y-33789048D01*
X139891664Y-33780280D01*
X139904290Y-33772712D01*
X139917597Y-33766418D01*
X139931457Y-33761459D01*
X139945736Y-33757882D01*
X139960297Y-33755722D01*
X139975000Y-33755000D01*
X141725000Y-33755000D01*
X141739703Y-33755722D01*
X141739703Y-33755722D01*
G37*
D12*
X140850000Y-34055000D03*
D10*
G36*
X151039703Y-33755722D02*
G01*
X151054264Y-33757882D01*
X151068543Y-33761459D01*
X151082403Y-33766418D01*
X151095710Y-33772712D01*
X151108336Y-33780280D01*
X151120159Y-33789048D01*
X151131066Y-33798934D01*
X151140952Y-33809841D01*
X151149720Y-33821664D01*
X151157288Y-33834290D01*
X151163582Y-33847597D01*
X151168541Y-33861457D01*
X151172118Y-33875736D01*
X151174278Y-33890297D01*
X151175000Y-33905000D01*
X151175000Y-34205000D01*
X151174278Y-34219703D01*
X151172118Y-34234264D01*
X151168541Y-34248543D01*
X151163582Y-34262403D01*
X151157288Y-34275710D01*
X151149720Y-34288336D01*
X151140952Y-34300159D01*
X151131066Y-34311066D01*
X151120159Y-34320952D01*
X151108336Y-34329720D01*
X151095710Y-34337288D01*
X151082403Y-34343582D01*
X151068543Y-34348541D01*
X151054264Y-34352118D01*
X151039703Y-34354278D01*
X151025000Y-34355000D01*
X149275000Y-34355000D01*
X149260297Y-34354278D01*
X149245736Y-34352118D01*
X149231457Y-34348541D01*
X149217597Y-34343582D01*
X149204290Y-34337288D01*
X149191664Y-34329720D01*
X149179841Y-34320952D01*
X149168934Y-34311066D01*
X149159048Y-34300159D01*
X149150280Y-34288336D01*
X149142712Y-34275710D01*
X149136418Y-34262403D01*
X149131459Y-34248543D01*
X149127882Y-34234264D01*
X149125722Y-34219703D01*
X149125000Y-34205000D01*
X149125000Y-33905000D01*
X149125722Y-33890297D01*
X149127882Y-33875736D01*
X149131459Y-33861457D01*
X149136418Y-33847597D01*
X149142712Y-33834290D01*
X149150280Y-33821664D01*
X149159048Y-33809841D01*
X149168934Y-33798934D01*
X149179841Y-33789048D01*
X149191664Y-33780280D01*
X149204290Y-33772712D01*
X149217597Y-33766418D01*
X149231457Y-33761459D01*
X149245736Y-33757882D01*
X149260297Y-33755722D01*
X149275000Y-33755000D01*
X151025000Y-33755000D01*
X151039703Y-33755722D01*
X151039703Y-33755722D01*
G37*
D12*
X150150000Y-34055000D03*
D10*
G36*
X151039703Y-35025722D02*
G01*
X151054264Y-35027882D01*
X151068543Y-35031459D01*
X151082403Y-35036418D01*
X151095710Y-35042712D01*
X151108336Y-35050280D01*
X151120159Y-35059048D01*
X151131066Y-35068934D01*
X151140952Y-35079841D01*
X151149720Y-35091664D01*
X151157288Y-35104290D01*
X151163582Y-35117597D01*
X151168541Y-35131457D01*
X151172118Y-35145736D01*
X151174278Y-35160297D01*
X151175000Y-35175000D01*
X151175000Y-35475000D01*
X151174278Y-35489703D01*
X151172118Y-35504264D01*
X151168541Y-35518543D01*
X151163582Y-35532403D01*
X151157288Y-35545710D01*
X151149720Y-35558336D01*
X151140952Y-35570159D01*
X151131066Y-35581066D01*
X151120159Y-35590952D01*
X151108336Y-35599720D01*
X151095710Y-35607288D01*
X151082403Y-35613582D01*
X151068543Y-35618541D01*
X151054264Y-35622118D01*
X151039703Y-35624278D01*
X151025000Y-35625000D01*
X149275000Y-35625000D01*
X149260297Y-35624278D01*
X149245736Y-35622118D01*
X149231457Y-35618541D01*
X149217597Y-35613582D01*
X149204290Y-35607288D01*
X149191664Y-35599720D01*
X149179841Y-35590952D01*
X149168934Y-35581066D01*
X149159048Y-35570159D01*
X149150280Y-35558336D01*
X149142712Y-35545710D01*
X149136418Y-35532403D01*
X149131459Y-35518543D01*
X149127882Y-35504264D01*
X149125722Y-35489703D01*
X149125000Y-35475000D01*
X149125000Y-35175000D01*
X149125722Y-35160297D01*
X149127882Y-35145736D01*
X149131459Y-35131457D01*
X149136418Y-35117597D01*
X149142712Y-35104290D01*
X149150280Y-35091664D01*
X149159048Y-35079841D01*
X149168934Y-35068934D01*
X149179841Y-35059048D01*
X149191664Y-35050280D01*
X149204290Y-35042712D01*
X149217597Y-35036418D01*
X149231457Y-35031459D01*
X149245736Y-35027882D01*
X149260297Y-35025722D01*
X149275000Y-35025000D01*
X151025000Y-35025000D01*
X151039703Y-35025722D01*
X151039703Y-35025722D01*
G37*
D12*
X150150000Y-35325000D03*
D10*
G36*
X151039703Y-36295722D02*
G01*
X151054264Y-36297882D01*
X151068543Y-36301459D01*
X151082403Y-36306418D01*
X151095710Y-36312712D01*
X151108336Y-36320280D01*
X151120159Y-36329048D01*
X151131066Y-36338934D01*
X151140952Y-36349841D01*
X151149720Y-36361664D01*
X151157288Y-36374290D01*
X151163582Y-36387597D01*
X151168541Y-36401457D01*
X151172118Y-36415736D01*
X151174278Y-36430297D01*
X151175000Y-36445000D01*
X151175000Y-36745000D01*
X151174278Y-36759703D01*
X151172118Y-36774264D01*
X151168541Y-36788543D01*
X151163582Y-36802403D01*
X151157288Y-36815710D01*
X151149720Y-36828336D01*
X151140952Y-36840159D01*
X151131066Y-36851066D01*
X151120159Y-36860952D01*
X151108336Y-36869720D01*
X151095710Y-36877288D01*
X151082403Y-36883582D01*
X151068543Y-36888541D01*
X151054264Y-36892118D01*
X151039703Y-36894278D01*
X151025000Y-36895000D01*
X149275000Y-36895000D01*
X149260297Y-36894278D01*
X149245736Y-36892118D01*
X149231457Y-36888541D01*
X149217597Y-36883582D01*
X149204290Y-36877288D01*
X149191664Y-36869720D01*
X149179841Y-36860952D01*
X149168934Y-36851066D01*
X149159048Y-36840159D01*
X149150280Y-36828336D01*
X149142712Y-36815710D01*
X149136418Y-36802403D01*
X149131459Y-36788543D01*
X149127882Y-36774264D01*
X149125722Y-36759703D01*
X149125000Y-36745000D01*
X149125000Y-36445000D01*
X149125722Y-36430297D01*
X149127882Y-36415736D01*
X149131459Y-36401457D01*
X149136418Y-36387597D01*
X149142712Y-36374290D01*
X149150280Y-36361664D01*
X149159048Y-36349841D01*
X149168934Y-36338934D01*
X149179841Y-36329048D01*
X149191664Y-36320280D01*
X149204290Y-36312712D01*
X149217597Y-36306418D01*
X149231457Y-36301459D01*
X149245736Y-36297882D01*
X149260297Y-36295722D01*
X149275000Y-36295000D01*
X151025000Y-36295000D01*
X151039703Y-36295722D01*
X151039703Y-36295722D01*
G37*
D12*
X150150000Y-36595000D03*
D10*
G36*
X151039703Y-37565722D02*
G01*
X151054264Y-37567882D01*
X151068543Y-37571459D01*
X151082403Y-37576418D01*
X151095710Y-37582712D01*
X151108336Y-37590280D01*
X151120159Y-37599048D01*
X151131066Y-37608934D01*
X151140952Y-37619841D01*
X151149720Y-37631664D01*
X151157288Y-37644290D01*
X151163582Y-37657597D01*
X151168541Y-37671457D01*
X151172118Y-37685736D01*
X151174278Y-37700297D01*
X151175000Y-37715000D01*
X151175000Y-38015000D01*
X151174278Y-38029703D01*
X151172118Y-38044264D01*
X151168541Y-38058543D01*
X151163582Y-38072403D01*
X151157288Y-38085710D01*
X151149720Y-38098336D01*
X151140952Y-38110159D01*
X151131066Y-38121066D01*
X151120159Y-38130952D01*
X151108336Y-38139720D01*
X151095710Y-38147288D01*
X151082403Y-38153582D01*
X151068543Y-38158541D01*
X151054264Y-38162118D01*
X151039703Y-38164278D01*
X151025000Y-38165000D01*
X149275000Y-38165000D01*
X149260297Y-38164278D01*
X149245736Y-38162118D01*
X149231457Y-38158541D01*
X149217597Y-38153582D01*
X149204290Y-38147288D01*
X149191664Y-38139720D01*
X149179841Y-38130952D01*
X149168934Y-38121066D01*
X149159048Y-38110159D01*
X149150280Y-38098336D01*
X149142712Y-38085710D01*
X149136418Y-38072403D01*
X149131459Y-38058543D01*
X149127882Y-38044264D01*
X149125722Y-38029703D01*
X149125000Y-38015000D01*
X149125000Y-37715000D01*
X149125722Y-37700297D01*
X149127882Y-37685736D01*
X149131459Y-37671457D01*
X149136418Y-37657597D01*
X149142712Y-37644290D01*
X149150280Y-37631664D01*
X149159048Y-37619841D01*
X149168934Y-37608934D01*
X149179841Y-37599048D01*
X149191664Y-37590280D01*
X149204290Y-37582712D01*
X149217597Y-37576418D01*
X149231457Y-37571459D01*
X149245736Y-37567882D01*
X149260297Y-37565722D01*
X149275000Y-37565000D01*
X151025000Y-37565000D01*
X151039703Y-37565722D01*
X151039703Y-37565722D01*
G37*
D12*
X150150000Y-37865000D03*
D10*
G36*
X151039703Y-38835722D02*
G01*
X151054264Y-38837882D01*
X151068543Y-38841459D01*
X151082403Y-38846418D01*
X151095710Y-38852712D01*
X151108336Y-38860280D01*
X151120159Y-38869048D01*
X151131066Y-38878934D01*
X151140952Y-38889841D01*
X151149720Y-38901664D01*
X151157288Y-38914290D01*
X151163582Y-38927597D01*
X151168541Y-38941457D01*
X151172118Y-38955736D01*
X151174278Y-38970297D01*
X151175000Y-38985000D01*
X151175000Y-39285000D01*
X151174278Y-39299703D01*
X151172118Y-39314264D01*
X151168541Y-39328543D01*
X151163582Y-39342403D01*
X151157288Y-39355710D01*
X151149720Y-39368336D01*
X151140952Y-39380159D01*
X151131066Y-39391066D01*
X151120159Y-39400952D01*
X151108336Y-39409720D01*
X151095710Y-39417288D01*
X151082403Y-39423582D01*
X151068543Y-39428541D01*
X151054264Y-39432118D01*
X151039703Y-39434278D01*
X151025000Y-39435000D01*
X149275000Y-39435000D01*
X149260297Y-39434278D01*
X149245736Y-39432118D01*
X149231457Y-39428541D01*
X149217597Y-39423582D01*
X149204290Y-39417288D01*
X149191664Y-39409720D01*
X149179841Y-39400952D01*
X149168934Y-39391066D01*
X149159048Y-39380159D01*
X149150280Y-39368336D01*
X149142712Y-39355710D01*
X149136418Y-39342403D01*
X149131459Y-39328543D01*
X149127882Y-39314264D01*
X149125722Y-39299703D01*
X149125000Y-39285000D01*
X149125000Y-38985000D01*
X149125722Y-38970297D01*
X149127882Y-38955736D01*
X149131459Y-38941457D01*
X149136418Y-38927597D01*
X149142712Y-38914290D01*
X149150280Y-38901664D01*
X149159048Y-38889841D01*
X149168934Y-38878934D01*
X149179841Y-38869048D01*
X149191664Y-38860280D01*
X149204290Y-38852712D01*
X149217597Y-38846418D01*
X149231457Y-38841459D01*
X149245736Y-38837882D01*
X149260297Y-38835722D01*
X149275000Y-38835000D01*
X151025000Y-38835000D01*
X151039703Y-38835722D01*
X151039703Y-38835722D01*
G37*
D12*
X150150000Y-39135000D03*
D10*
G36*
X151039703Y-40105722D02*
G01*
X151054264Y-40107882D01*
X151068543Y-40111459D01*
X151082403Y-40116418D01*
X151095710Y-40122712D01*
X151108336Y-40130280D01*
X151120159Y-40139048D01*
X151131066Y-40148934D01*
X151140952Y-40159841D01*
X151149720Y-40171664D01*
X151157288Y-40184290D01*
X151163582Y-40197597D01*
X151168541Y-40211457D01*
X151172118Y-40225736D01*
X151174278Y-40240297D01*
X151175000Y-40255000D01*
X151175000Y-40555000D01*
X151174278Y-40569703D01*
X151172118Y-40584264D01*
X151168541Y-40598543D01*
X151163582Y-40612403D01*
X151157288Y-40625710D01*
X151149720Y-40638336D01*
X151140952Y-40650159D01*
X151131066Y-40661066D01*
X151120159Y-40670952D01*
X151108336Y-40679720D01*
X151095710Y-40687288D01*
X151082403Y-40693582D01*
X151068543Y-40698541D01*
X151054264Y-40702118D01*
X151039703Y-40704278D01*
X151025000Y-40705000D01*
X149275000Y-40705000D01*
X149260297Y-40704278D01*
X149245736Y-40702118D01*
X149231457Y-40698541D01*
X149217597Y-40693582D01*
X149204290Y-40687288D01*
X149191664Y-40679720D01*
X149179841Y-40670952D01*
X149168934Y-40661066D01*
X149159048Y-40650159D01*
X149150280Y-40638336D01*
X149142712Y-40625710D01*
X149136418Y-40612403D01*
X149131459Y-40598543D01*
X149127882Y-40584264D01*
X149125722Y-40569703D01*
X149125000Y-40555000D01*
X149125000Y-40255000D01*
X149125722Y-40240297D01*
X149127882Y-40225736D01*
X149131459Y-40211457D01*
X149136418Y-40197597D01*
X149142712Y-40184290D01*
X149150280Y-40171664D01*
X149159048Y-40159841D01*
X149168934Y-40148934D01*
X149179841Y-40139048D01*
X149191664Y-40130280D01*
X149204290Y-40122712D01*
X149217597Y-40116418D01*
X149231457Y-40111459D01*
X149245736Y-40107882D01*
X149260297Y-40105722D01*
X149275000Y-40105000D01*
X151025000Y-40105000D01*
X151039703Y-40105722D01*
X151039703Y-40105722D01*
G37*
D12*
X150150000Y-40405000D03*
D10*
G36*
X151039703Y-41375722D02*
G01*
X151054264Y-41377882D01*
X151068543Y-41381459D01*
X151082403Y-41386418D01*
X151095710Y-41392712D01*
X151108336Y-41400280D01*
X151120159Y-41409048D01*
X151131066Y-41418934D01*
X151140952Y-41429841D01*
X151149720Y-41441664D01*
X151157288Y-41454290D01*
X151163582Y-41467597D01*
X151168541Y-41481457D01*
X151172118Y-41495736D01*
X151174278Y-41510297D01*
X151175000Y-41525000D01*
X151175000Y-41825000D01*
X151174278Y-41839703D01*
X151172118Y-41854264D01*
X151168541Y-41868543D01*
X151163582Y-41882403D01*
X151157288Y-41895710D01*
X151149720Y-41908336D01*
X151140952Y-41920159D01*
X151131066Y-41931066D01*
X151120159Y-41940952D01*
X151108336Y-41949720D01*
X151095710Y-41957288D01*
X151082403Y-41963582D01*
X151068543Y-41968541D01*
X151054264Y-41972118D01*
X151039703Y-41974278D01*
X151025000Y-41975000D01*
X149275000Y-41975000D01*
X149260297Y-41974278D01*
X149245736Y-41972118D01*
X149231457Y-41968541D01*
X149217597Y-41963582D01*
X149204290Y-41957288D01*
X149191664Y-41949720D01*
X149179841Y-41940952D01*
X149168934Y-41931066D01*
X149159048Y-41920159D01*
X149150280Y-41908336D01*
X149142712Y-41895710D01*
X149136418Y-41882403D01*
X149131459Y-41868543D01*
X149127882Y-41854264D01*
X149125722Y-41839703D01*
X149125000Y-41825000D01*
X149125000Y-41525000D01*
X149125722Y-41510297D01*
X149127882Y-41495736D01*
X149131459Y-41481457D01*
X149136418Y-41467597D01*
X149142712Y-41454290D01*
X149150280Y-41441664D01*
X149159048Y-41429841D01*
X149168934Y-41418934D01*
X149179841Y-41409048D01*
X149191664Y-41400280D01*
X149204290Y-41392712D01*
X149217597Y-41386418D01*
X149231457Y-41381459D01*
X149245736Y-41377882D01*
X149260297Y-41375722D01*
X149275000Y-41375000D01*
X151025000Y-41375000D01*
X151039703Y-41375722D01*
X151039703Y-41375722D01*
G37*
D12*
X150150000Y-41675000D03*
D10*
G36*
X151039703Y-42645722D02*
G01*
X151054264Y-42647882D01*
X151068543Y-42651459D01*
X151082403Y-42656418D01*
X151095710Y-42662712D01*
X151108336Y-42670280D01*
X151120159Y-42679048D01*
X151131066Y-42688934D01*
X151140952Y-42699841D01*
X151149720Y-42711664D01*
X151157288Y-42724290D01*
X151163582Y-42737597D01*
X151168541Y-42751457D01*
X151172118Y-42765736D01*
X151174278Y-42780297D01*
X151175000Y-42795000D01*
X151175000Y-43095000D01*
X151174278Y-43109703D01*
X151172118Y-43124264D01*
X151168541Y-43138543D01*
X151163582Y-43152403D01*
X151157288Y-43165710D01*
X151149720Y-43178336D01*
X151140952Y-43190159D01*
X151131066Y-43201066D01*
X151120159Y-43210952D01*
X151108336Y-43219720D01*
X151095710Y-43227288D01*
X151082403Y-43233582D01*
X151068543Y-43238541D01*
X151054264Y-43242118D01*
X151039703Y-43244278D01*
X151025000Y-43245000D01*
X149275000Y-43245000D01*
X149260297Y-43244278D01*
X149245736Y-43242118D01*
X149231457Y-43238541D01*
X149217597Y-43233582D01*
X149204290Y-43227288D01*
X149191664Y-43219720D01*
X149179841Y-43210952D01*
X149168934Y-43201066D01*
X149159048Y-43190159D01*
X149150280Y-43178336D01*
X149142712Y-43165710D01*
X149136418Y-43152403D01*
X149131459Y-43138543D01*
X149127882Y-43124264D01*
X149125722Y-43109703D01*
X149125000Y-43095000D01*
X149125000Y-42795000D01*
X149125722Y-42780297D01*
X149127882Y-42765736D01*
X149131459Y-42751457D01*
X149136418Y-42737597D01*
X149142712Y-42724290D01*
X149150280Y-42711664D01*
X149159048Y-42699841D01*
X149168934Y-42688934D01*
X149179841Y-42679048D01*
X149191664Y-42670280D01*
X149204290Y-42662712D01*
X149217597Y-42656418D01*
X149231457Y-42651459D01*
X149245736Y-42647882D01*
X149260297Y-42645722D01*
X149275000Y-42645000D01*
X151025000Y-42645000D01*
X151039703Y-42645722D01*
X151039703Y-42645722D01*
G37*
D12*
X150150000Y-42945000D03*
D10*
G36*
X91980142Y-100951174D02*
G01*
X92003803Y-100954684D01*
X92027007Y-100960496D01*
X92049529Y-100968554D01*
X92071153Y-100978782D01*
X92091670Y-100991079D01*
X92110883Y-101005329D01*
X92128607Y-101021393D01*
X92144671Y-101039117D01*
X92158921Y-101058330D01*
X92171218Y-101078847D01*
X92181446Y-101100471D01*
X92189504Y-101122993D01*
X92195316Y-101146197D01*
X92198826Y-101169858D01*
X92200000Y-101193750D01*
X92200000Y-101681250D01*
X92198826Y-101705142D01*
X92195316Y-101728803D01*
X92189504Y-101752007D01*
X92181446Y-101774529D01*
X92171218Y-101796153D01*
X92158921Y-101816670D01*
X92144671Y-101835883D01*
X92128607Y-101853607D01*
X92110883Y-101869671D01*
X92091670Y-101883921D01*
X92071153Y-101896218D01*
X92049529Y-101906446D01*
X92027007Y-101914504D01*
X92003803Y-101920316D01*
X91980142Y-101923826D01*
X91956250Y-101925000D01*
X91043750Y-101925000D01*
X91019858Y-101923826D01*
X90996197Y-101920316D01*
X90972993Y-101914504D01*
X90950471Y-101906446D01*
X90928847Y-101896218D01*
X90908330Y-101883921D01*
X90889117Y-101869671D01*
X90871393Y-101853607D01*
X90855329Y-101835883D01*
X90841079Y-101816670D01*
X90828782Y-101796153D01*
X90818554Y-101774529D01*
X90810496Y-101752007D01*
X90804684Y-101728803D01*
X90801174Y-101705142D01*
X90800000Y-101681250D01*
X90800000Y-101193750D01*
X90801174Y-101169858D01*
X90804684Y-101146197D01*
X90810496Y-101122993D01*
X90818554Y-101100471D01*
X90828782Y-101078847D01*
X90841079Y-101058330D01*
X90855329Y-101039117D01*
X90871393Y-101021393D01*
X90889117Y-101005329D01*
X90908330Y-100991079D01*
X90928847Y-100978782D01*
X90950471Y-100968554D01*
X90972993Y-100960496D01*
X90996197Y-100954684D01*
X91019858Y-100951174D01*
X91043750Y-100950000D01*
X91956250Y-100950000D01*
X91980142Y-100951174D01*
X91980142Y-100951174D01*
G37*
D11*
X91500000Y-101437500D03*
D10*
G36*
X91980142Y-99076174D02*
G01*
X92003803Y-99079684D01*
X92027007Y-99085496D01*
X92049529Y-99093554D01*
X92071153Y-99103782D01*
X92091670Y-99116079D01*
X92110883Y-99130329D01*
X92128607Y-99146393D01*
X92144671Y-99164117D01*
X92158921Y-99183330D01*
X92171218Y-99203847D01*
X92181446Y-99225471D01*
X92189504Y-99247993D01*
X92195316Y-99271197D01*
X92198826Y-99294858D01*
X92200000Y-99318750D01*
X92200000Y-99806250D01*
X92198826Y-99830142D01*
X92195316Y-99853803D01*
X92189504Y-99877007D01*
X92181446Y-99899529D01*
X92171218Y-99921153D01*
X92158921Y-99941670D01*
X92144671Y-99960883D01*
X92128607Y-99978607D01*
X92110883Y-99994671D01*
X92091670Y-100008921D01*
X92071153Y-100021218D01*
X92049529Y-100031446D01*
X92027007Y-100039504D01*
X92003803Y-100045316D01*
X91980142Y-100048826D01*
X91956250Y-100050000D01*
X91043750Y-100050000D01*
X91019858Y-100048826D01*
X90996197Y-100045316D01*
X90972993Y-100039504D01*
X90950471Y-100031446D01*
X90928847Y-100021218D01*
X90908330Y-100008921D01*
X90889117Y-99994671D01*
X90871393Y-99978607D01*
X90855329Y-99960883D01*
X90841079Y-99941670D01*
X90828782Y-99921153D01*
X90818554Y-99899529D01*
X90810496Y-99877007D01*
X90804684Y-99853803D01*
X90801174Y-99830142D01*
X90800000Y-99806250D01*
X90800000Y-99318750D01*
X90801174Y-99294858D01*
X90804684Y-99271197D01*
X90810496Y-99247993D01*
X90818554Y-99225471D01*
X90828782Y-99203847D01*
X90841079Y-99183330D01*
X90855329Y-99164117D01*
X90871393Y-99146393D01*
X90889117Y-99130329D01*
X90908330Y-99116079D01*
X90928847Y-99103782D01*
X90950471Y-99093554D01*
X90972993Y-99085496D01*
X90996197Y-99079684D01*
X91019858Y-99076174D01*
X91043750Y-99075000D01*
X91956250Y-99075000D01*
X91980142Y-99076174D01*
X91980142Y-99076174D01*
G37*
D11*
X91500000Y-99562500D03*
D10*
G36*
X91980142Y-93451174D02*
G01*
X92003803Y-93454684D01*
X92027007Y-93460496D01*
X92049529Y-93468554D01*
X92071153Y-93478782D01*
X92091670Y-93491079D01*
X92110883Y-93505329D01*
X92128607Y-93521393D01*
X92144671Y-93539117D01*
X92158921Y-93558330D01*
X92171218Y-93578847D01*
X92181446Y-93600471D01*
X92189504Y-93622993D01*
X92195316Y-93646197D01*
X92198826Y-93669858D01*
X92200000Y-93693750D01*
X92200000Y-94181250D01*
X92198826Y-94205142D01*
X92195316Y-94228803D01*
X92189504Y-94252007D01*
X92181446Y-94274529D01*
X92171218Y-94296153D01*
X92158921Y-94316670D01*
X92144671Y-94335883D01*
X92128607Y-94353607D01*
X92110883Y-94369671D01*
X92091670Y-94383921D01*
X92071153Y-94396218D01*
X92049529Y-94406446D01*
X92027007Y-94414504D01*
X92003803Y-94420316D01*
X91980142Y-94423826D01*
X91956250Y-94425000D01*
X91043750Y-94425000D01*
X91019858Y-94423826D01*
X90996197Y-94420316D01*
X90972993Y-94414504D01*
X90950471Y-94406446D01*
X90928847Y-94396218D01*
X90908330Y-94383921D01*
X90889117Y-94369671D01*
X90871393Y-94353607D01*
X90855329Y-94335883D01*
X90841079Y-94316670D01*
X90828782Y-94296153D01*
X90818554Y-94274529D01*
X90810496Y-94252007D01*
X90804684Y-94228803D01*
X90801174Y-94205142D01*
X90800000Y-94181250D01*
X90800000Y-93693750D01*
X90801174Y-93669858D01*
X90804684Y-93646197D01*
X90810496Y-93622993D01*
X90818554Y-93600471D01*
X90828782Y-93578847D01*
X90841079Y-93558330D01*
X90855329Y-93539117D01*
X90871393Y-93521393D01*
X90889117Y-93505329D01*
X90908330Y-93491079D01*
X90928847Y-93478782D01*
X90950471Y-93468554D01*
X90972993Y-93460496D01*
X90996197Y-93454684D01*
X91019858Y-93451174D01*
X91043750Y-93450000D01*
X91956250Y-93450000D01*
X91980142Y-93451174D01*
X91980142Y-93451174D01*
G37*
D11*
X91500000Y-93937500D03*
D10*
G36*
X91980142Y-91576174D02*
G01*
X92003803Y-91579684D01*
X92027007Y-91585496D01*
X92049529Y-91593554D01*
X92071153Y-91603782D01*
X92091670Y-91616079D01*
X92110883Y-91630329D01*
X92128607Y-91646393D01*
X92144671Y-91664117D01*
X92158921Y-91683330D01*
X92171218Y-91703847D01*
X92181446Y-91725471D01*
X92189504Y-91747993D01*
X92195316Y-91771197D01*
X92198826Y-91794858D01*
X92200000Y-91818750D01*
X92200000Y-92306250D01*
X92198826Y-92330142D01*
X92195316Y-92353803D01*
X92189504Y-92377007D01*
X92181446Y-92399529D01*
X92171218Y-92421153D01*
X92158921Y-92441670D01*
X92144671Y-92460883D01*
X92128607Y-92478607D01*
X92110883Y-92494671D01*
X92091670Y-92508921D01*
X92071153Y-92521218D01*
X92049529Y-92531446D01*
X92027007Y-92539504D01*
X92003803Y-92545316D01*
X91980142Y-92548826D01*
X91956250Y-92550000D01*
X91043750Y-92550000D01*
X91019858Y-92548826D01*
X90996197Y-92545316D01*
X90972993Y-92539504D01*
X90950471Y-92531446D01*
X90928847Y-92521218D01*
X90908330Y-92508921D01*
X90889117Y-92494671D01*
X90871393Y-92478607D01*
X90855329Y-92460883D01*
X90841079Y-92441670D01*
X90828782Y-92421153D01*
X90818554Y-92399529D01*
X90810496Y-92377007D01*
X90804684Y-92353803D01*
X90801174Y-92330142D01*
X90800000Y-92306250D01*
X90800000Y-91818750D01*
X90801174Y-91794858D01*
X90804684Y-91771197D01*
X90810496Y-91747993D01*
X90818554Y-91725471D01*
X90828782Y-91703847D01*
X90841079Y-91683330D01*
X90855329Y-91664117D01*
X90871393Y-91646393D01*
X90889117Y-91630329D01*
X90908330Y-91616079D01*
X90928847Y-91603782D01*
X90950471Y-91593554D01*
X90972993Y-91585496D01*
X90996197Y-91579684D01*
X91019858Y-91576174D01*
X91043750Y-91575000D01*
X91956250Y-91575000D01*
X91980142Y-91576174D01*
X91980142Y-91576174D01*
G37*
D11*
X91500000Y-92062500D03*
D10*
G36*
X91980142Y-85951174D02*
G01*
X92003803Y-85954684D01*
X92027007Y-85960496D01*
X92049529Y-85968554D01*
X92071153Y-85978782D01*
X92091670Y-85991079D01*
X92110883Y-86005329D01*
X92128607Y-86021393D01*
X92144671Y-86039117D01*
X92158921Y-86058330D01*
X92171218Y-86078847D01*
X92181446Y-86100471D01*
X92189504Y-86122993D01*
X92195316Y-86146197D01*
X92198826Y-86169858D01*
X92200000Y-86193750D01*
X92200000Y-86681250D01*
X92198826Y-86705142D01*
X92195316Y-86728803D01*
X92189504Y-86752007D01*
X92181446Y-86774529D01*
X92171218Y-86796153D01*
X92158921Y-86816670D01*
X92144671Y-86835883D01*
X92128607Y-86853607D01*
X92110883Y-86869671D01*
X92091670Y-86883921D01*
X92071153Y-86896218D01*
X92049529Y-86906446D01*
X92027007Y-86914504D01*
X92003803Y-86920316D01*
X91980142Y-86923826D01*
X91956250Y-86925000D01*
X91043750Y-86925000D01*
X91019858Y-86923826D01*
X90996197Y-86920316D01*
X90972993Y-86914504D01*
X90950471Y-86906446D01*
X90928847Y-86896218D01*
X90908330Y-86883921D01*
X90889117Y-86869671D01*
X90871393Y-86853607D01*
X90855329Y-86835883D01*
X90841079Y-86816670D01*
X90828782Y-86796153D01*
X90818554Y-86774529D01*
X90810496Y-86752007D01*
X90804684Y-86728803D01*
X90801174Y-86705142D01*
X90800000Y-86681250D01*
X90800000Y-86193750D01*
X90801174Y-86169858D01*
X90804684Y-86146197D01*
X90810496Y-86122993D01*
X90818554Y-86100471D01*
X90828782Y-86078847D01*
X90841079Y-86058330D01*
X90855329Y-86039117D01*
X90871393Y-86021393D01*
X90889117Y-86005329D01*
X90908330Y-85991079D01*
X90928847Y-85978782D01*
X90950471Y-85968554D01*
X90972993Y-85960496D01*
X90996197Y-85954684D01*
X91019858Y-85951174D01*
X91043750Y-85950000D01*
X91956250Y-85950000D01*
X91980142Y-85951174D01*
X91980142Y-85951174D01*
G37*
D11*
X91500000Y-86437500D03*
D10*
G36*
X91980142Y-84076174D02*
G01*
X92003803Y-84079684D01*
X92027007Y-84085496D01*
X92049529Y-84093554D01*
X92071153Y-84103782D01*
X92091670Y-84116079D01*
X92110883Y-84130329D01*
X92128607Y-84146393D01*
X92144671Y-84164117D01*
X92158921Y-84183330D01*
X92171218Y-84203847D01*
X92181446Y-84225471D01*
X92189504Y-84247993D01*
X92195316Y-84271197D01*
X92198826Y-84294858D01*
X92200000Y-84318750D01*
X92200000Y-84806250D01*
X92198826Y-84830142D01*
X92195316Y-84853803D01*
X92189504Y-84877007D01*
X92181446Y-84899529D01*
X92171218Y-84921153D01*
X92158921Y-84941670D01*
X92144671Y-84960883D01*
X92128607Y-84978607D01*
X92110883Y-84994671D01*
X92091670Y-85008921D01*
X92071153Y-85021218D01*
X92049529Y-85031446D01*
X92027007Y-85039504D01*
X92003803Y-85045316D01*
X91980142Y-85048826D01*
X91956250Y-85050000D01*
X91043750Y-85050000D01*
X91019858Y-85048826D01*
X90996197Y-85045316D01*
X90972993Y-85039504D01*
X90950471Y-85031446D01*
X90928847Y-85021218D01*
X90908330Y-85008921D01*
X90889117Y-84994671D01*
X90871393Y-84978607D01*
X90855329Y-84960883D01*
X90841079Y-84941670D01*
X90828782Y-84921153D01*
X90818554Y-84899529D01*
X90810496Y-84877007D01*
X90804684Y-84853803D01*
X90801174Y-84830142D01*
X90800000Y-84806250D01*
X90800000Y-84318750D01*
X90801174Y-84294858D01*
X90804684Y-84271197D01*
X90810496Y-84247993D01*
X90818554Y-84225471D01*
X90828782Y-84203847D01*
X90841079Y-84183330D01*
X90855329Y-84164117D01*
X90871393Y-84146393D01*
X90889117Y-84130329D01*
X90908330Y-84116079D01*
X90928847Y-84103782D01*
X90950471Y-84093554D01*
X90972993Y-84085496D01*
X90996197Y-84079684D01*
X91019858Y-84076174D01*
X91043750Y-84075000D01*
X91956250Y-84075000D01*
X91980142Y-84076174D01*
X91980142Y-84076174D01*
G37*
D11*
X91500000Y-84562500D03*
D10*
G36*
X91980142Y-78451174D02*
G01*
X92003803Y-78454684D01*
X92027007Y-78460496D01*
X92049529Y-78468554D01*
X92071153Y-78478782D01*
X92091670Y-78491079D01*
X92110883Y-78505329D01*
X92128607Y-78521393D01*
X92144671Y-78539117D01*
X92158921Y-78558330D01*
X92171218Y-78578847D01*
X92181446Y-78600471D01*
X92189504Y-78622993D01*
X92195316Y-78646197D01*
X92198826Y-78669858D01*
X92200000Y-78693750D01*
X92200000Y-79181250D01*
X92198826Y-79205142D01*
X92195316Y-79228803D01*
X92189504Y-79252007D01*
X92181446Y-79274529D01*
X92171218Y-79296153D01*
X92158921Y-79316670D01*
X92144671Y-79335883D01*
X92128607Y-79353607D01*
X92110883Y-79369671D01*
X92091670Y-79383921D01*
X92071153Y-79396218D01*
X92049529Y-79406446D01*
X92027007Y-79414504D01*
X92003803Y-79420316D01*
X91980142Y-79423826D01*
X91956250Y-79425000D01*
X91043750Y-79425000D01*
X91019858Y-79423826D01*
X90996197Y-79420316D01*
X90972993Y-79414504D01*
X90950471Y-79406446D01*
X90928847Y-79396218D01*
X90908330Y-79383921D01*
X90889117Y-79369671D01*
X90871393Y-79353607D01*
X90855329Y-79335883D01*
X90841079Y-79316670D01*
X90828782Y-79296153D01*
X90818554Y-79274529D01*
X90810496Y-79252007D01*
X90804684Y-79228803D01*
X90801174Y-79205142D01*
X90800000Y-79181250D01*
X90800000Y-78693750D01*
X90801174Y-78669858D01*
X90804684Y-78646197D01*
X90810496Y-78622993D01*
X90818554Y-78600471D01*
X90828782Y-78578847D01*
X90841079Y-78558330D01*
X90855329Y-78539117D01*
X90871393Y-78521393D01*
X90889117Y-78505329D01*
X90908330Y-78491079D01*
X90928847Y-78478782D01*
X90950471Y-78468554D01*
X90972993Y-78460496D01*
X90996197Y-78454684D01*
X91019858Y-78451174D01*
X91043750Y-78450000D01*
X91956250Y-78450000D01*
X91980142Y-78451174D01*
X91980142Y-78451174D01*
G37*
D11*
X91500000Y-78937500D03*
D10*
G36*
X91980142Y-76576174D02*
G01*
X92003803Y-76579684D01*
X92027007Y-76585496D01*
X92049529Y-76593554D01*
X92071153Y-76603782D01*
X92091670Y-76616079D01*
X92110883Y-76630329D01*
X92128607Y-76646393D01*
X92144671Y-76664117D01*
X92158921Y-76683330D01*
X92171218Y-76703847D01*
X92181446Y-76725471D01*
X92189504Y-76747993D01*
X92195316Y-76771197D01*
X92198826Y-76794858D01*
X92200000Y-76818750D01*
X92200000Y-77306250D01*
X92198826Y-77330142D01*
X92195316Y-77353803D01*
X92189504Y-77377007D01*
X92181446Y-77399529D01*
X92171218Y-77421153D01*
X92158921Y-77441670D01*
X92144671Y-77460883D01*
X92128607Y-77478607D01*
X92110883Y-77494671D01*
X92091670Y-77508921D01*
X92071153Y-77521218D01*
X92049529Y-77531446D01*
X92027007Y-77539504D01*
X92003803Y-77545316D01*
X91980142Y-77548826D01*
X91956250Y-77550000D01*
X91043750Y-77550000D01*
X91019858Y-77548826D01*
X90996197Y-77545316D01*
X90972993Y-77539504D01*
X90950471Y-77531446D01*
X90928847Y-77521218D01*
X90908330Y-77508921D01*
X90889117Y-77494671D01*
X90871393Y-77478607D01*
X90855329Y-77460883D01*
X90841079Y-77441670D01*
X90828782Y-77421153D01*
X90818554Y-77399529D01*
X90810496Y-77377007D01*
X90804684Y-77353803D01*
X90801174Y-77330142D01*
X90800000Y-77306250D01*
X90800000Y-76818750D01*
X90801174Y-76794858D01*
X90804684Y-76771197D01*
X90810496Y-76747993D01*
X90818554Y-76725471D01*
X90828782Y-76703847D01*
X90841079Y-76683330D01*
X90855329Y-76664117D01*
X90871393Y-76646393D01*
X90889117Y-76630329D01*
X90908330Y-76616079D01*
X90928847Y-76603782D01*
X90950471Y-76593554D01*
X90972993Y-76585496D01*
X90996197Y-76579684D01*
X91019858Y-76576174D01*
X91043750Y-76575000D01*
X91956250Y-76575000D01*
X91980142Y-76576174D01*
X91980142Y-76576174D01*
G37*
D11*
X91500000Y-77062500D03*
D10*
G36*
X91980142Y-70951174D02*
G01*
X92003803Y-70954684D01*
X92027007Y-70960496D01*
X92049529Y-70968554D01*
X92071153Y-70978782D01*
X92091670Y-70991079D01*
X92110883Y-71005329D01*
X92128607Y-71021393D01*
X92144671Y-71039117D01*
X92158921Y-71058330D01*
X92171218Y-71078847D01*
X92181446Y-71100471D01*
X92189504Y-71122993D01*
X92195316Y-71146197D01*
X92198826Y-71169858D01*
X92200000Y-71193750D01*
X92200000Y-71681250D01*
X92198826Y-71705142D01*
X92195316Y-71728803D01*
X92189504Y-71752007D01*
X92181446Y-71774529D01*
X92171218Y-71796153D01*
X92158921Y-71816670D01*
X92144671Y-71835883D01*
X92128607Y-71853607D01*
X92110883Y-71869671D01*
X92091670Y-71883921D01*
X92071153Y-71896218D01*
X92049529Y-71906446D01*
X92027007Y-71914504D01*
X92003803Y-71920316D01*
X91980142Y-71923826D01*
X91956250Y-71925000D01*
X91043750Y-71925000D01*
X91019858Y-71923826D01*
X90996197Y-71920316D01*
X90972993Y-71914504D01*
X90950471Y-71906446D01*
X90928847Y-71896218D01*
X90908330Y-71883921D01*
X90889117Y-71869671D01*
X90871393Y-71853607D01*
X90855329Y-71835883D01*
X90841079Y-71816670D01*
X90828782Y-71796153D01*
X90818554Y-71774529D01*
X90810496Y-71752007D01*
X90804684Y-71728803D01*
X90801174Y-71705142D01*
X90800000Y-71681250D01*
X90800000Y-71193750D01*
X90801174Y-71169858D01*
X90804684Y-71146197D01*
X90810496Y-71122993D01*
X90818554Y-71100471D01*
X90828782Y-71078847D01*
X90841079Y-71058330D01*
X90855329Y-71039117D01*
X90871393Y-71021393D01*
X90889117Y-71005329D01*
X90908330Y-70991079D01*
X90928847Y-70978782D01*
X90950471Y-70968554D01*
X90972993Y-70960496D01*
X90996197Y-70954684D01*
X91019858Y-70951174D01*
X91043750Y-70950000D01*
X91956250Y-70950000D01*
X91980142Y-70951174D01*
X91980142Y-70951174D01*
G37*
D11*
X91500000Y-71437500D03*
D10*
G36*
X91980142Y-69076174D02*
G01*
X92003803Y-69079684D01*
X92027007Y-69085496D01*
X92049529Y-69093554D01*
X92071153Y-69103782D01*
X92091670Y-69116079D01*
X92110883Y-69130329D01*
X92128607Y-69146393D01*
X92144671Y-69164117D01*
X92158921Y-69183330D01*
X92171218Y-69203847D01*
X92181446Y-69225471D01*
X92189504Y-69247993D01*
X92195316Y-69271197D01*
X92198826Y-69294858D01*
X92200000Y-69318750D01*
X92200000Y-69806250D01*
X92198826Y-69830142D01*
X92195316Y-69853803D01*
X92189504Y-69877007D01*
X92181446Y-69899529D01*
X92171218Y-69921153D01*
X92158921Y-69941670D01*
X92144671Y-69960883D01*
X92128607Y-69978607D01*
X92110883Y-69994671D01*
X92091670Y-70008921D01*
X92071153Y-70021218D01*
X92049529Y-70031446D01*
X92027007Y-70039504D01*
X92003803Y-70045316D01*
X91980142Y-70048826D01*
X91956250Y-70050000D01*
X91043750Y-70050000D01*
X91019858Y-70048826D01*
X90996197Y-70045316D01*
X90972993Y-70039504D01*
X90950471Y-70031446D01*
X90928847Y-70021218D01*
X90908330Y-70008921D01*
X90889117Y-69994671D01*
X90871393Y-69978607D01*
X90855329Y-69960883D01*
X90841079Y-69941670D01*
X90828782Y-69921153D01*
X90818554Y-69899529D01*
X90810496Y-69877007D01*
X90804684Y-69853803D01*
X90801174Y-69830142D01*
X90800000Y-69806250D01*
X90800000Y-69318750D01*
X90801174Y-69294858D01*
X90804684Y-69271197D01*
X90810496Y-69247993D01*
X90818554Y-69225471D01*
X90828782Y-69203847D01*
X90841079Y-69183330D01*
X90855329Y-69164117D01*
X90871393Y-69146393D01*
X90889117Y-69130329D01*
X90908330Y-69116079D01*
X90928847Y-69103782D01*
X90950471Y-69093554D01*
X90972993Y-69085496D01*
X90996197Y-69079684D01*
X91019858Y-69076174D01*
X91043750Y-69075000D01*
X91956250Y-69075000D01*
X91980142Y-69076174D01*
X91980142Y-69076174D01*
G37*
D11*
X91500000Y-69562500D03*
D10*
G36*
X91980142Y-63451174D02*
G01*
X92003803Y-63454684D01*
X92027007Y-63460496D01*
X92049529Y-63468554D01*
X92071153Y-63478782D01*
X92091670Y-63491079D01*
X92110883Y-63505329D01*
X92128607Y-63521393D01*
X92144671Y-63539117D01*
X92158921Y-63558330D01*
X92171218Y-63578847D01*
X92181446Y-63600471D01*
X92189504Y-63622993D01*
X92195316Y-63646197D01*
X92198826Y-63669858D01*
X92200000Y-63693750D01*
X92200000Y-64181250D01*
X92198826Y-64205142D01*
X92195316Y-64228803D01*
X92189504Y-64252007D01*
X92181446Y-64274529D01*
X92171218Y-64296153D01*
X92158921Y-64316670D01*
X92144671Y-64335883D01*
X92128607Y-64353607D01*
X92110883Y-64369671D01*
X92091670Y-64383921D01*
X92071153Y-64396218D01*
X92049529Y-64406446D01*
X92027007Y-64414504D01*
X92003803Y-64420316D01*
X91980142Y-64423826D01*
X91956250Y-64425000D01*
X91043750Y-64425000D01*
X91019858Y-64423826D01*
X90996197Y-64420316D01*
X90972993Y-64414504D01*
X90950471Y-64406446D01*
X90928847Y-64396218D01*
X90908330Y-64383921D01*
X90889117Y-64369671D01*
X90871393Y-64353607D01*
X90855329Y-64335883D01*
X90841079Y-64316670D01*
X90828782Y-64296153D01*
X90818554Y-64274529D01*
X90810496Y-64252007D01*
X90804684Y-64228803D01*
X90801174Y-64205142D01*
X90800000Y-64181250D01*
X90800000Y-63693750D01*
X90801174Y-63669858D01*
X90804684Y-63646197D01*
X90810496Y-63622993D01*
X90818554Y-63600471D01*
X90828782Y-63578847D01*
X90841079Y-63558330D01*
X90855329Y-63539117D01*
X90871393Y-63521393D01*
X90889117Y-63505329D01*
X90908330Y-63491079D01*
X90928847Y-63478782D01*
X90950471Y-63468554D01*
X90972993Y-63460496D01*
X90996197Y-63454684D01*
X91019858Y-63451174D01*
X91043750Y-63450000D01*
X91956250Y-63450000D01*
X91980142Y-63451174D01*
X91980142Y-63451174D01*
G37*
D11*
X91500000Y-63937500D03*
D10*
G36*
X91980142Y-61576174D02*
G01*
X92003803Y-61579684D01*
X92027007Y-61585496D01*
X92049529Y-61593554D01*
X92071153Y-61603782D01*
X92091670Y-61616079D01*
X92110883Y-61630329D01*
X92128607Y-61646393D01*
X92144671Y-61664117D01*
X92158921Y-61683330D01*
X92171218Y-61703847D01*
X92181446Y-61725471D01*
X92189504Y-61747993D01*
X92195316Y-61771197D01*
X92198826Y-61794858D01*
X92200000Y-61818750D01*
X92200000Y-62306250D01*
X92198826Y-62330142D01*
X92195316Y-62353803D01*
X92189504Y-62377007D01*
X92181446Y-62399529D01*
X92171218Y-62421153D01*
X92158921Y-62441670D01*
X92144671Y-62460883D01*
X92128607Y-62478607D01*
X92110883Y-62494671D01*
X92091670Y-62508921D01*
X92071153Y-62521218D01*
X92049529Y-62531446D01*
X92027007Y-62539504D01*
X92003803Y-62545316D01*
X91980142Y-62548826D01*
X91956250Y-62550000D01*
X91043750Y-62550000D01*
X91019858Y-62548826D01*
X90996197Y-62545316D01*
X90972993Y-62539504D01*
X90950471Y-62531446D01*
X90928847Y-62521218D01*
X90908330Y-62508921D01*
X90889117Y-62494671D01*
X90871393Y-62478607D01*
X90855329Y-62460883D01*
X90841079Y-62441670D01*
X90828782Y-62421153D01*
X90818554Y-62399529D01*
X90810496Y-62377007D01*
X90804684Y-62353803D01*
X90801174Y-62330142D01*
X90800000Y-62306250D01*
X90800000Y-61818750D01*
X90801174Y-61794858D01*
X90804684Y-61771197D01*
X90810496Y-61747993D01*
X90818554Y-61725471D01*
X90828782Y-61703847D01*
X90841079Y-61683330D01*
X90855329Y-61664117D01*
X90871393Y-61646393D01*
X90889117Y-61630329D01*
X90908330Y-61616079D01*
X90928847Y-61603782D01*
X90950471Y-61593554D01*
X90972993Y-61585496D01*
X90996197Y-61579684D01*
X91019858Y-61576174D01*
X91043750Y-61575000D01*
X91956250Y-61575000D01*
X91980142Y-61576174D01*
X91980142Y-61576174D01*
G37*
D11*
X91500000Y-62062500D03*
D10*
G36*
X114330142Y-160801174D02*
G01*
X114353803Y-160804684D01*
X114377007Y-160810496D01*
X114399529Y-160818554D01*
X114421153Y-160828782D01*
X114441670Y-160841079D01*
X114460883Y-160855329D01*
X114478607Y-160871393D01*
X114494671Y-160889117D01*
X114508921Y-160908330D01*
X114521218Y-160928847D01*
X114531446Y-160950471D01*
X114539504Y-160972993D01*
X114545316Y-160996197D01*
X114548826Y-161019858D01*
X114550000Y-161043750D01*
X114550000Y-161956250D01*
X114548826Y-161980142D01*
X114545316Y-162003803D01*
X114539504Y-162027007D01*
X114531446Y-162049529D01*
X114521218Y-162071153D01*
X114508921Y-162091670D01*
X114494671Y-162110883D01*
X114478607Y-162128607D01*
X114460883Y-162144671D01*
X114441670Y-162158921D01*
X114421153Y-162171218D01*
X114399529Y-162181446D01*
X114377007Y-162189504D01*
X114353803Y-162195316D01*
X114330142Y-162198826D01*
X114306250Y-162200000D01*
X113818750Y-162200000D01*
X113794858Y-162198826D01*
X113771197Y-162195316D01*
X113747993Y-162189504D01*
X113725471Y-162181446D01*
X113703847Y-162171218D01*
X113683330Y-162158921D01*
X113664117Y-162144671D01*
X113646393Y-162128607D01*
X113630329Y-162110883D01*
X113616079Y-162091670D01*
X113603782Y-162071153D01*
X113593554Y-162049529D01*
X113585496Y-162027007D01*
X113579684Y-162003803D01*
X113576174Y-161980142D01*
X113575000Y-161956250D01*
X113575000Y-161043750D01*
X113576174Y-161019858D01*
X113579684Y-160996197D01*
X113585496Y-160972993D01*
X113593554Y-160950471D01*
X113603782Y-160928847D01*
X113616079Y-160908330D01*
X113630329Y-160889117D01*
X113646393Y-160871393D01*
X113664117Y-160855329D01*
X113683330Y-160841079D01*
X113703847Y-160828782D01*
X113725471Y-160818554D01*
X113747993Y-160810496D01*
X113771197Y-160804684D01*
X113794858Y-160801174D01*
X113818750Y-160800000D01*
X114306250Y-160800000D01*
X114330142Y-160801174D01*
X114330142Y-160801174D01*
G37*
D11*
X114062500Y-161500000D03*
D10*
G36*
X116205142Y-160801174D02*
G01*
X116228803Y-160804684D01*
X116252007Y-160810496D01*
X116274529Y-160818554D01*
X116296153Y-160828782D01*
X116316670Y-160841079D01*
X116335883Y-160855329D01*
X116353607Y-160871393D01*
X116369671Y-160889117D01*
X116383921Y-160908330D01*
X116396218Y-160928847D01*
X116406446Y-160950471D01*
X116414504Y-160972993D01*
X116420316Y-160996197D01*
X116423826Y-161019858D01*
X116425000Y-161043750D01*
X116425000Y-161956250D01*
X116423826Y-161980142D01*
X116420316Y-162003803D01*
X116414504Y-162027007D01*
X116406446Y-162049529D01*
X116396218Y-162071153D01*
X116383921Y-162091670D01*
X116369671Y-162110883D01*
X116353607Y-162128607D01*
X116335883Y-162144671D01*
X116316670Y-162158921D01*
X116296153Y-162171218D01*
X116274529Y-162181446D01*
X116252007Y-162189504D01*
X116228803Y-162195316D01*
X116205142Y-162198826D01*
X116181250Y-162200000D01*
X115693750Y-162200000D01*
X115669858Y-162198826D01*
X115646197Y-162195316D01*
X115622993Y-162189504D01*
X115600471Y-162181446D01*
X115578847Y-162171218D01*
X115558330Y-162158921D01*
X115539117Y-162144671D01*
X115521393Y-162128607D01*
X115505329Y-162110883D01*
X115491079Y-162091670D01*
X115478782Y-162071153D01*
X115468554Y-162049529D01*
X115460496Y-162027007D01*
X115454684Y-162003803D01*
X115451174Y-161980142D01*
X115450000Y-161956250D01*
X115450000Y-161043750D01*
X115451174Y-161019858D01*
X115454684Y-160996197D01*
X115460496Y-160972993D01*
X115468554Y-160950471D01*
X115478782Y-160928847D01*
X115491079Y-160908330D01*
X115505329Y-160889117D01*
X115521393Y-160871393D01*
X115539117Y-160855329D01*
X115558330Y-160841079D01*
X115578847Y-160828782D01*
X115600471Y-160818554D01*
X115622993Y-160810496D01*
X115646197Y-160804684D01*
X115669858Y-160801174D01*
X115693750Y-160800000D01*
X116181250Y-160800000D01*
X116205142Y-160801174D01*
X116205142Y-160801174D01*
G37*
D11*
X115937500Y-161500000D03*
D10*
G36*
X114330142Y-178801174D02*
G01*
X114353803Y-178804684D01*
X114377007Y-178810496D01*
X114399529Y-178818554D01*
X114421153Y-178828782D01*
X114441670Y-178841079D01*
X114460883Y-178855329D01*
X114478607Y-178871393D01*
X114494671Y-178889117D01*
X114508921Y-178908330D01*
X114521218Y-178928847D01*
X114531446Y-178950471D01*
X114539504Y-178972993D01*
X114545316Y-178996197D01*
X114548826Y-179019858D01*
X114550000Y-179043750D01*
X114550000Y-179956250D01*
X114548826Y-179980142D01*
X114545316Y-180003803D01*
X114539504Y-180027007D01*
X114531446Y-180049529D01*
X114521218Y-180071153D01*
X114508921Y-180091670D01*
X114494671Y-180110883D01*
X114478607Y-180128607D01*
X114460883Y-180144671D01*
X114441670Y-180158921D01*
X114421153Y-180171218D01*
X114399529Y-180181446D01*
X114377007Y-180189504D01*
X114353803Y-180195316D01*
X114330142Y-180198826D01*
X114306250Y-180200000D01*
X113818750Y-180200000D01*
X113794858Y-180198826D01*
X113771197Y-180195316D01*
X113747993Y-180189504D01*
X113725471Y-180181446D01*
X113703847Y-180171218D01*
X113683330Y-180158921D01*
X113664117Y-180144671D01*
X113646393Y-180128607D01*
X113630329Y-180110883D01*
X113616079Y-180091670D01*
X113603782Y-180071153D01*
X113593554Y-180049529D01*
X113585496Y-180027007D01*
X113579684Y-180003803D01*
X113576174Y-179980142D01*
X113575000Y-179956250D01*
X113575000Y-179043750D01*
X113576174Y-179019858D01*
X113579684Y-178996197D01*
X113585496Y-178972993D01*
X113593554Y-178950471D01*
X113603782Y-178928847D01*
X113616079Y-178908330D01*
X113630329Y-178889117D01*
X113646393Y-178871393D01*
X113664117Y-178855329D01*
X113683330Y-178841079D01*
X113703847Y-178828782D01*
X113725471Y-178818554D01*
X113747993Y-178810496D01*
X113771197Y-178804684D01*
X113794858Y-178801174D01*
X113818750Y-178800000D01*
X114306250Y-178800000D01*
X114330142Y-178801174D01*
X114330142Y-178801174D01*
G37*
D11*
X114062500Y-179500000D03*
D10*
G36*
X116205142Y-178801174D02*
G01*
X116228803Y-178804684D01*
X116252007Y-178810496D01*
X116274529Y-178818554D01*
X116296153Y-178828782D01*
X116316670Y-178841079D01*
X116335883Y-178855329D01*
X116353607Y-178871393D01*
X116369671Y-178889117D01*
X116383921Y-178908330D01*
X116396218Y-178928847D01*
X116406446Y-178950471D01*
X116414504Y-178972993D01*
X116420316Y-178996197D01*
X116423826Y-179019858D01*
X116425000Y-179043750D01*
X116425000Y-179956250D01*
X116423826Y-179980142D01*
X116420316Y-180003803D01*
X116414504Y-180027007D01*
X116406446Y-180049529D01*
X116396218Y-180071153D01*
X116383921Y-180091670D01*
X116369671Y-180110883D01*
X116353607Y-180128607D01*
X116335883Y-180144671D01*
X116316670Y-180158921D01*
X116296153Y-180171218D01*
X116274529Y-180181446D01*
X116252007Y-180189504D01*
X116228803Y-180195316D01*
X116205142Y-180198826D01*
X116181250Y-180200000D01*
X115693750Y-180200000D01*
X115669858Y-180198826D01*
X115646197Y-180195316D01*
X115622993Y-180189504D01*
X115600471Y-180181446D01*
X115578847Y-180171218D01*
X115558330Y-180158921D01*
X115539117Y-180144671D01*
X115521393Y-180128607D01*
X115505329Y-180110883D01*
X115491079Y-180091670D01*
X115478782Y-180071153D01*
X115468554Y-180049529D01*
X115460496Y-180027007D01*
X115454684Y-180003803D01*
X115451174Y-179980142D01*
X115450000Y-179956250D01*
X115450000Y-179043750D01*
X115451174Y-179019858D01*
X115454684Y-178996197D01*
X115460496Y-178972993D01*
X115468554Y-178950471D01*
X115478782Y-178928847D01*
X115491079Y-178908330D01*
X115505329Y-178889117D01*
X115521393Y-178871393D01*
X115539117Y-178855329D01*
X115558330Y-178841079D01*
X115578847Y-178828782D01*
X115600471Y-178818554D01*
X115622993Y-178810496D01*
X115646197Y-178804684D01*
X115669858Y-178801174D01*
X115693750Y-178800000D01*
X116181250Y-178800000D01*
X116205142Y-178801174D01*
X116205142Y-178801174D01*
G37*
D11*
X115937500Y-179500000D03*
D10*
G36*
X114330142Y-169801174D02*
G01*
X114353803Y-169804684D01*
X114377007Y-169810496D01*
X114399529Y-169818554D01*
X114421153Y-169828782D01*
X114441670Y-169841079D01*
X114460883Y-169855329D01*
X114478607Y-169871393D01*
X114494671Y-169889117D01*
X114508921Y-169908330D01*
X114521218Y-169928847D01*
X114531446Y-169950471D01*
X114539504Y-169972993D01*
X114545316Y-169996197D01*
X114548826Y-170019858D01*
X114550000Y-170043750D01*
X114550000Y-170956250D01*
X114548826Y-170980142D01*
X114545316Y-171003803D01*
X114539504Y-171027007D01*
X114531446Y-171049529D01*
X114521218Y-171071153D01*
X114508921Y-171091670D01*
X114494671Y-171110883D01*
X114478607Y-171128607D01*
X114460883Y-171144671D01*
X114441670Y-171158921D01*
X114421153Y-171171218D01*
X114399529Y-171181446D01*
X114377007Y-171189504D01*
X114353803Y-171195316D01*
X114330142Y-171198826D01*
X114306250Y-171200000D01*
X113818750Y-171200000D01*
X113794858Y-171198826D01*
X113771197Y-171195316D01*
X113747993Y-171189504D01*
X113725471Y-171181446D01*
X113703847Y-171171218D01*
X113683330Y-171158921D01*
X113664117Y-171144671D01*
X113646393Y-171128607D01*
X113630329Y-171110883D01*
X113616079Y-171091670D01*
X113603782Y-171071153D01*
X113593554Y-171049529D01*
X113585496Y-171027007D01*
X113579684Y-171003803D01*
X113576174Y-170980142D01*
X113575000Y-170956250D01*
X113575000Y-170043750D01*
X113576174Y-170019858D01*
X113579684Y-169996197D01*
X113585496Y-169972993D01*
X113593554Y-169950471D01*
X113603782Y-169928847D01*
X113616079Y-169908330D01*
X113630329Y-169889117D01*
X113646393Y-169871393D01*
X113664117Y-169855329D01*
X113683330Y-169841079D01*
X113703847Y-169828782D01*
X113725471Y-169818554D01*
X113747993Y-169810496D01*
X113771197Y-169804684D01*
X113794858Y-169801174D01*
X113818750Y-169800000D01*
X114306250Y-169800000D01*
X114330142Y-169801174D01*
X114330142Y-169801174D01*
G37*
D11*
X114062500Y-170500000D03*
D10*
G36*
X116205142Y-169801174D02*
G01*
X116228803Y-169804684D01*
X116252007Y-169810496D01*
X116274529Y-169818554D01*
X116296153Y-169828782D01*
X116316670Y-169841079D01*
X116335883Y-169855329D01*
X116353607Y-169871393D01*
X116369671Y-169889117D01*
X116383921Y-169908330D01*
X116396218Y-169928847D01*
X116406446Y-169950471D01*
X116414504Y-169972993D01*
X116420316Y-169996197D01*
X116423826Y-170019858D01*
X116425000Y-170043750D01*
X116425000Y-170956250D01*
X116423826Y-170980142D01*
X116420316Y-171003803D01*
X116414504Y-171027007D01*
X116406446Y-171049529D01*
X116396218Y-171071153D01*
X116383921Y-171091670D01*
X116369671Y-171110883D01*
X116353607Y-171128607D01*
X116335883Y-171144671D01*
X116316670Y-171158921D01*
X116296153Y-171171218D01*
X116274529Y-171181446D01*
X116252007Y-171189504D01*
X116228803Y-171195316D01*
X116205142Y-171198826D01*
X116181250Y-171200000D01*
X115693750Y-171200000D01*
X115669858Y-171198826D01*
X115646197Y-171195316D01*
X115622993Y-171189504D01*
X115600471Y-171181446D01*
X115578847Y-171171218D01*
X115558330Y-171158921D01*
X115539117Y-171144671D01*
X115521393Y-171128607D01*
X115505329Y-171110883D01*
X115491079Y-171091670D01*
X115478782Y-171071153D01*
X115468554Y-171049529D01*
X115460496Y-171027007D01*
X115454684Y-171003803D01*
X115451174Y-170980142D01*
X115450000Y-170956250D01*
X115450000Y-170043750D01*
X115451174Y-170019858D01*
X115454684Y-169996197D01*
X115460496Y-169972993D01*
X115468554Y-169950471D01*
X115478782Y-169928847D01*
X115491079Y-169908330D01*
X115505329Y-169889117D01*
X115521393Y-169871393D01*
X115539117Y-169855329D01*
X115558330Y-169841079D01*
X115578847Y-169828782D01*
X115600471Y-169818554D01*
X115622993Y-169810496D01*
X115646197Y-169804684D01*
X115669858Y-169801174D01*
X115693750Y-169800000D01*
X116181250Y-169800000D01*
X116205142Y-169801174D01*
X116205142Y-169801174D01*
G37*
D11*
X115937500Y-170500000D03*
D10*
G36*
X156330142Y-167301174D02*
G01*
X156353803Y-167304684D01*
X156377007Y-167310496D01*
X156399529Y-167318554D01*
X156421153Y-167328782D01*
X156441670Y-167341079D01*
X156460883Y-167355329D01*
X156478607Y-167371393D01*
X156494671Y-167389117D01*
X156508921Y-167408330D01*
X156521218Y-167428847D01*
X156531446Y-167450471D01*
X156539504Y-167472993D01*
X156545316Y-167496197D01*
X156548826Y-167519858D01*
X156550000Y-167543750D01*
X156550000Y-168456250D01*
X156548826Y-168480142D01*
X156545316Y-168503803D01*
X156539504Y-168527007D01*
X156531446Y-168549529D01*
X156521218Y-168571153D01*
X156508921Y-168591670D01*
X156494671Y-168610883D01*
X156478607Y-168628607D01*
X156460883Y-168644671D01*
X156441670Y-168658921D01*
X156421153Y-168671218D01*
X156399529Y-168681446D01*
X156377007Y-168689504D01*
X156353803Y-168695316D01*
X156330142Y-168698826D01*
X156306250Y-168700000D01*
X155818750Y-168700000D01*
X155794858Y-168698826D01*
X155771197Y-168695316D01*
X155747993Y-168689504D01*
X155725471Y-168681446D01*
X155703847Y-168671218D01*
X155683330Y-168658921D01*
X155664117Y-168644671D01*
X155646393Y-168628607D01*
X155630329Y-168610883D01*
X155616079Y-168591670D01*
X155603782Y-168571153D01*
X155593554Y-168549529D01*
X155585496Y-168527007D01*
X155579684Y-168503803D01*
X155576174Y-168480142D01*
X155575000Y-168456250D01*
X155575000Y-167543750D01*
X155576174Y-167519858D01*
X155579684Y-167496197D01*
X155585496Y-167472993D01*
X155593554Y-167450471D01*
X155603782Y-167428847D01*
X155616079Y-167408330D01*
X155630329Y-167389117D01*
X155646393Y-167371393D01*
X155664117Y-167355329D01*
X155683330Y-167341079D01*
X155703847Y-167328782D01*
X155725471Y-167318554D01*
X155747993Y-167310496D01*
X155771197Y-167304684D01*
X155794858Y-167301174D01*
X155818750Y-167300000D01*
X156306250Y-167300000D01*
X156330142Y-167301174D01*
X156330142Y-167301174D01*
G37*
D11*
X156062500Y-168000000D03*
D10*
G36*
X158205142Y-167301174D02*
G01*
X158228803Y-167304684D01*
X158252007Y-167310496D01*
X158274529Y-167318554D01*
X158296153Y-167328782D01*
X158316670Y-167341079D01*
X158335883Y-167355329D01*
X158353607Y-167371393D01*
X158369671Y-167389117D01*
X158383921Y-167408330D01*
X158396218Y-167428847D01*
X158406446Y-167450471D01*
X158414504Y-167472993D01*
X158420316Y-167496197D01*
X158423826Y-167519858D01*
X158425000Y-167543750D01*
X158425000Y-168456250D01*
X158423826Y-168480142D01*
X158420316Y-168503803D01*
X158414504Y-168527007D01*
X158406446Y-168549529D01*
X158396218Y-168571153D01*
X158383921Y-168591670D01*
X158369671Y-168610883D01*
X158353607Y-168628607D01*
X158335883Y-168644671D01*
X158316670Y-168658921D01*
X158296153Y-168671218D01*
X158274529Y-168681446D01*
X158252007Y-168689504D01*
X158228803Y-168695316D01*
X158205142Y-168698826D01*
X158181250Y-168700000D01*
X157693750Y-168700000D01*
X157669858Y-168698826D01*
X157646197Y-168695316D01*
X157622993Y-168689504D01*
X157600471Y-168681446D01*
X157578847Y-168671218D01*
X157558330Y-168658921D01*
X157539117Y-168644671D01*
X157521393Y-168628607D01*
X157505329Y-168610883D01*
X157491079Y-168591670D01*
X157478782Y-168571153D01*
X157468554Y-168549529D01*
X157460496Y-168527007D01*
X157454684Y-168503803D01*
X157451174Y-168480142D01*
X157450000Y-168456250D01*
X157450000Y-167543750D01*
X157451174Y-167519858D01*
X157454684Y-167496197D01*
X157460496Y-167472993D01*
X157468554Y-167450471D01*
X157478782Y-167428847D01*
X157491079Y-167408330D01*
X157505329Y-167389117D01*
X157521393Y-167371393D01*
X157539117Y-167355329D01*
X157558330Y-167341079D01*
X157578847Y-167328782D01*
X157600471Y-167318554D01*
X157622993Y-167310496D01*
X157646197Y-167304684D01*
X157669858Y-167301174D01*
X157693750Y-167300000D01*
X158181250Y-167300000D01*
X158205142Y-167301174D01*
X158205142Y-167301174D01*
G37*
D11*
X157937500Y-168000000D03*
D10*
G36*
X157705142Y-150301174D02*
G01*
X157728803Y-150304684D01*
X157752007Y-150310496D01*
X157774529Y-150318554D01*
X157796153Y-150328782D01*
X157816670Y-150341079D01*
X157835883Y-150355329D01*
X157853607Y-150371393D01*
X157869671Y-150389117D01*
X157883921Y-150408330D01*
X157896218Y-150428847D01*
X157906446Y-150450471D01*
X157914504Y-150472993D01*
X157920316Y-150496197D01*
X157923826Y-150519858D01*
X157925000Y-150543750D01*
X157925000Y-151456250D01*
X157923826Y-151480142D01*
X157920316Y-151503803D01*
X157914504Y-151527007D01*
X157906446Y-151549529D01*
X157896218Y-151571153D01*
X157883921Y-151591670D01*
X157869671Y-151610883D01*
X157853607Y-151628607D01*
X157835883Y-151644671D01*
X157816670Y-151658921D01*
X157796153Y-151671218D01*
X157774529Y-151681446D01*
X157752007Y-151689504D01*
X157728803Y-151695316D01*
X157705142Y-151698826D01*
X157681250Y-151700000D01*
X157193750Y-151700000D01*
X157169858Y-151698826D01*
X157146197Y-151695316D01*
X157122993Y-151689504D01*
X157100471Y-151681446D01*
X157078847Y-151671218D01*
X157058330Y-151658921D01*
X157039117Y-151644671D01*
X157021393Y-151628607D01*
X157005329Y-151610883D01*
X156991079Y-151591670D01*
X156978782Y-151571153D01*
X156968554Y-151549529D01*
X156960496Y-151527007D01*
X156954684Y-151503803D01*
X156951174Y-151480142D01*
X156950000Y-151456250D01*
X156950000Y-150543750D01*
X156951174Y-150519858D01*
X156954684Y-150496197D01*
X156960496Y-150472993D01*
X156968554Y-150450471D01*
X156978782Y-150428847D01*
X156991079Y-150408330D01*
X157005329Y-150389117D01*
X157021393Y-150371393D01*
X157039117Y-150355329D01*
X157058330Y-150341079D01*
X157078847Y-150328782D01*
X157100471Y-150318554D01*
X157122993Y-150310496D01*
X157146197Y-150304684D01*
X157169858Y-150301174D01*
X157193750Y-150300000D01*
X157681250Y-150300000D01*
X157705142Y-150301174D01*
X157705142Y-150301174D01*
G37*
D11*
X157437500Y-151000000D03*
D10*
G36*
X155830142Y-150301174D02*
G01*
X155853803Y-150304684D01*
X155877007Y-150310496D01*
X155899529Y-150318554D01*
X155921153Y-150328782D01*
X155941670Y-150341079D01*
X155960883Y-150355329D01*
X155978607Y-150371393D01*
X155994671Y-150389117D01*
X156008921Y-150408330D01*
X156021218Y-150428847D01*
X156031446Y-150450471D01*
X156039504Y-150472993D01*
X156045316Y-150496197D01*
X156048826Y-150519858D01*
X156050000Y-150543750D01*
X156050000Y-151456250D01*
X156048826Y-151480142D01*
X156045316Y-151503803D01*
X156039504Y-151527007D01*
X156031446Y-151549529D01*
X156021218Y-151571153D01*
X156008921Y-151591670D01*
X155994671Y-151610883D01*
X155978607Y-151628607D01*
X155960883Y-151644671D01*
X155941670Y-151658921D01*
X155921153Y-151671218D01*
X155899529Y-151681446D01*
X155877007Y-151689504D01*
X155853803Y-151695316D01*
X155830142Y-151698826D01*
X155806250Y-151700000D01*
X155318750Y-151700000D01*
X155294858Y-151698826D01*
X155271197Y-151695316D01*
X155247993Y-151689504D01*
X155225471Y-151681446D01*
X155203847Y-151671218D01*
X155183330Y-151658921D01*
X155164117Y-151644671D01*
X155146393Y-151628607D01*
X155130329Y-151610883D01*
X155116079Y-151591670D01*
X155103782Y-151571153D01*
X155093554Y-151549529D01*
X155085496Y-151527007D01*
X155079684Y-151503803D01*
X155076174Y-151480142D01*
X155075000Y-151456250D01*
X155075000Y-150543750D01*
X155076174Y-150519858D01*
X155079684Y-150496197D01*
X155085496Y-150472993D01*
X155093554Y-150450471D01*
X155103782Y-150428847D01*
X155116079Y-150408330D01*
X155130329Y-150389117D01*
X155146393Y-150371393D01*
X155164117Y-150355329D01*
X155183330Y-150341079D01*
X155203847Y-150328782D01*
X155225471Y-150318554D01*
X155247993Y-150310496D01*
X155271197Y-150304684D01*
X155294858Y-150301174D01*
X155318750Y-150300000D01*
X155806250Y-150300000D01*
X155830142Y-150301174D01*
X155830142Y-150301174D01*
G37*
D11*
X155562500Y-151000000D03*
D10*
G36*
X158205142Y-133801174D02*
G01*
X158228803Y-133804684D01*
X158252007Y-133810496D01*
X158274529Y-133818554D01*
X158296153Y-133828782D01*
X158316670Y-133841079D01*
X158335883Y-133855329D01*
X158353607Y-133871393D01*
X158369671Y-133889117D01*
X158383921Y-133908330D01*
X158396218Y-133928847D01*
X158406446Y-133950471D01*
X158414504Y-133972993D01*
X158420316Y-133996197D01*
X158423826Y-134019858D01*
X158425000Y-134043750D01*
X158425000Y-134956250D01*
X158423826Y-134980142D01*
X158420316Y-135003803D01*
X158414504Y-135027007D01*
X158406446Y-135049529D01*
X158396218Y-135071153D01*
X158383921Y-135091670D01*
X158369671Y-135110883D01*
X158353607Y-135128607D01*
X158335883Y-135144671D01*
X158316670Y-135158921D01*
X158296153Y-135171218D01*
X158274529Y-135181446D01*
X158252007Y-135189504D01*
X158228803Y-135195316D01*
X158205142Y-135198826D01*
X158181250Y-135200000D01*
X157693750Y-135200000D01*
X157669858Y-135198826D01*
X157646197Y-135195316D01*
X157622993Y-135189504D01*
X157600471Y-135181446D01*
X157578847Y-135171218D01*
X157558330Y-135158921D01*
X157539117Y-135144671D01*
X157521393Y-135128607D01*
X157505329Y-135110883D01*
X157491079Y-135091670D01*
X157478782Y-135071153D01*
X157468554Y-135049529D01*
X157460496Y-135027007D01*
X157454684Y-135003803D01*
X157451174Y-134980142D01*
X157450000Y-134956250D01*
X157450000Y-134043750D01*
X157451174Y-134019858D01*
X157454684Y-133996197D01*
X157460496Y-133972993D01*
X157468554Y-133950471D01*
X157478782Y-133928847D01*
X157491079Y-133908330D01*
X157505329Y-133889117D01*
X157521393Y-133871393D01*
X157539117Y-133855329D01*
X157558330Y-133841079D01*
X157578847Y-133828782D01*
X157600471Y-133818554D01*
X157622993Y-133810496D01*
X157646197Y-133804684D01*
X157669858Y-133801174D01*
X157693750Y-133800000D01*
X158181250Y-133800000D01*
X158205142Y-133801174D01*
X158205142Y-133801174D01*
G37*
D11*
X157937500Y-134500000D03*
D10*
G36*
X156330142Y-133801174D02*
G01*
X156353803Y-133804684D01*
X156377007Y-133810496D01*
X156399529Y-133818554D01*
X156421153Y-133828782D01*
X156441670Y-133841079D01*
X156460883Y-133855329D01*
X156478607Y-133871393D01*
X156494671Y-133889117D01*
X156508921Y-133908330D01*
X156521218Y-133928847D01*
X156531446Y-133950471D01*
X156539504Y-133972993D01*
X156545316Y-133996197D01*
X156548826Y-134019858D01*
X156550000Y-134043750D01*
X156550000Y-134956250D01*
X156548826Y-134980142D01*
X156545316Y-135003803D01*
X156539504Y-135027007D01*
X156531446Y-135049529D01*
X156521218Y-135071153D01*
X156508921Y-135091670D01*
X156494671Y-135110883D01*
X156478607Y-135128607D01*
X156460883Y-135144671D01*
X156441670Y-135158921D01*
X156421153Y-135171218D01*
X156399529Y-135181446D01*
X156377007Y-135189504D01*
X156353803Y-135195316D01*
X156330142Y-135198826D01*
X156306250Y-135200000D01*
X155818750Y-135200000D01*
X155794858Y-135198826D01*
X155771197Y-135195316D01*
X155747993Y-135189504D01*
X155725471Y-135181446D01*
X155703847Y-135171218D01*
X155683330Y-135158921D01*
X155664117Y-135144671D01*
X155646393Y-135128607D01*
X155630329Y-135110883D01*
X155616079Y-135091670D01*
X155603782Y-135071153D01*
X155593554Y-135049529D01*
X155585496Y-135027007D01*
X155579684Y-135003803D01*
X155576174Y-134980142D01*
X155575000Y-134956250D01*
X155575000Y-134043750D01*
X155576174Y-134019858D01*
X155579684Y-133996197D01*
X155585496Y-133972993D01*
X155593554Y-133950471D01*
X155603782Y-133928847D01*
X155616079Y-133908330D01*
X155630329Y-133889117D01*
X155646393Y-133871393D01*
X155664117Y-133855329D01*
X155683330Y-133841079D01*
X155703847Y-133828782D01*
X155725471Y-133818554D01*
X155747993Y-133810496D01*
X155771197Y-133804684D01*
X155794858Y-133801174D01*
X155818750Y-133800000D01*
X156306250Y-133800000D01*
X156330142Y-133801174D01*
X156330142Y-133801174D01*
G37*
D11*
X156062500Y-134500000D03*
D10*
G36*
X158205142Y-117301174D02*
G01*
X158228803Y-117304684D01*
X158252007Y-117310496D01*
X158274529Y-117318554D01*
X158296153Y-117328782D01*
X158316670Y-117341079D01*
X158335883Y-117355329D01*
X158353607Y-117371393D01*
X158369671Y-117389117D01*
X158383921Y-117408330D01*
X158396218Y-117428847D01*
X158406446Y-117450471D01*
X158414504Y-117472993D01*
X158420316Y-117496197D01*
X158423826Y-117519858D01*
X158425000Y-117543750D01*
X158425000Y-118456250D01*
X158423826Y-118480142D01*
X158420316Y-118503803D01*
X158414504Y-118527007D01*
X158406446Y-118549529D01*
X158396218Y-118571153D01*
X158383921Y-118591670D01*
X158369671Y-118610883D01*
X158353607Y-118628607D01*
X158335883Y-118644671D01*
X158316670Y-118658921D01*
X158296153Y-118671218D01*
X158274529Y-118681446D01*
X158252007Y-118689504D01*
X158228803Y-118695316D01*
X158205142Y-118698826D01*
X158181250Y-118700000D01*
X157693750Y-118700000D01*
X157669858Y-118698826D01*
X157646197Y-118695316D01*
X157622993Y-118689504D01*
X157600471Y-118681446D01*
X157578847Y-118671218D01*
X157558330Y-118658921D01*
X157539117Y-118644671D01*
X157521393Y-118628607D01*
X157505329Y-118610883D01*
X157491079Y-118591670D01*
X157478782Y-118571153D01*
X157468554Y-118549529D01*
X157460496Y-118527007D01*
X157454684Y-118503803D01*
X157451174Y-118480142D01*
X157450000Y-118456250D01*
X157450000Y-117543750D01*
X157451174Y-117519858D01*
X157454684Y-117496197D01*
X157460496Y-117472993D01*
X157468554Y-117450471D01*
X157478782Y-117428847D01*
X157491079Y-117408330D01*
X157505329Y-117389117D01*
X157521393Y-117371393D01*
X157539117Y-117355329D01*
X157558330Y-117341079D01*
X157578847Y-117328782D01*
X157600471Y-117318554D01*
X157622993Y-117310496D01*
X157646197Y-117304684D01*
X157669858Y-117301174D01*
X157693750Y-117300000D01*
X158181250Y-117300000D01*
X158205142Y-117301174D01*
X158205142Y-117301174D01*
G37*
D11*
X157937500Y-118000000D03*
D10*
G36*
X156330142Y-117301174D02*
G01*
X156353803Y-117304684D01*
X156377007Y-117310496D01*
X156399529Y-117318554D01*
X156421153Y-117328782D01*
X156441670Y-117341079D01*
X156460883Y-117355329D01*
X156478607Y-117371393D01*
X156494671Y-117389117D01*
X156508921Y-117408330D01*
X156521218Y-117428847D01*
X156531446Y-117450471D01*
X156539504Y-117472993D01*
X156545316Y-117496197D01*
X156548826Y-117519858D01*
X156550000Y-117543750D01*
X156550000Y-118456250D01*
X156548826Y-118480142D01*
X156545316Y-118503803D01*
X156539504Y-118527007D01*
X156531446Y-118549529D01*
X156521218Y-118571153D01*
X156508921Y-118591670D01*
X156494671Y-118610883D01*
X156478607Y-118628607D01*
X156460883Y-118644671D01*
X156441670Y-118658921D01*
X156421153Y-118671218D01*
X156399529Y-118681446D01*
X156377007Y-118689504D01*
X156353803Y-118695316D01*
X156330142Y-118698826D01*
X156306250Y-118700000D01*
X155818750Y-118700000D01*
X155794858Y-118698826D01*
X155771197Y-118695316D01*
X155747993Y-118689504D01*
X155725471Y-118681446D01*
X155703847Y-118671218D01*
X155683330Y-118658921D01*
X155664117Y-118644671D01*
X155646393Y-118628607D01*
X155630329Y-118610883D01*
X155616079Y-118591670D01*
X155603782Y-118571153D01*
X155593554Y-118549529D01*
X155585496Y-118527007D01*
X155579684Y-118503803D01*
X155576174Y-118480142D01*
X155575000Y-118456250D01*
X155575000Y-117543750D01*
X155576174Y-117519858D01*
X155579684Y-117496197D01*
X155585496Y-117472993D01*
X155593554Y-117450471D01*
X155603782Y-117428847D01*
X155616079Y-117408330D01*
X155630329Y-117389117D01*
X155646393Y-117371393D01*
X155664117Y-117355329D01*
X155683330Y-117341079D01*
X155703847Y-117328782D01*
X155725471Y-117318554D01*
X155747993Y-117310496D01*
X155771197Y-117304684D01*
X155794858Y-117301174D01*
X155818750Y-117300000D01*
X156306250Y-117300000D01*
X156330142Y-117301174D01*
X156330142Y-117301174D01*
G37*
D11*
X156062500Y-118000000D03*
D10*
G36*
X158205142Y-100801174D02*
G01*
X158228803Y-100804684D01*
X158252007Y-100810496D01*
X158274529Y-100818554D01*
X158296153Y-100828782D01*
X158316670Y-100841079D01*
X158335883Y-100855329D01*
X158353607Y-100871393D01*
X158369671Y-100889117D01*
X158383921Y-100908330D01*
X158396218Y-100928847D01*
X158406446Y-100950471D01*
X158414504Y-100972993D01*
X158420316Y-100996197D01*
X158423826Y-101019858D01*
X158425000Y-101043750D01*
X158425000Y-101956250D01*
X158423826Y-101980142D01*
X158420316Y-102003803D01*
X158414504Y-102027007D01*
X158406446Y-102049529D01*
X158396218Y-102071153D01*
X158383921Y-102091670D01*
X158369671Y-102110883D01*
X158353607Y-102128607D01*
X158335883Y-102144671D01*
X158316670Y-102158921D01*
X158296153Y-102171218D01*
X158274529Y-102181446D01*
X158252007Y-102189504D01*
X158228803Y-102195316D01*
X158205142Y-102198826D01*
X158181250Y-102200000D01*
X157693750Y-102200000D01*
X157669858Y-102198826D01*
X157646197Y-102195316D01*
X157622993Y-102189504D01*
X157600471Y-102181446D01*
X157578847Y-102171218D01*
X157558330Y-102158921D01*
X157539117Y-102144671D01*
X157521393Y-102128607D01*
X157505329Y-102110883D01*
X157491079Y-102091670D01*
X157478782Y-102071153D01*
X157468554Y-102049529D01*
X157460496Y-102027007D01*
X157454684Y-102003803D01*
X157451174Y-101980142D01*
X157450000Y-101956250D01*
X157450000Y-101043750D01*
X157451174Y-101019858D01*
X157454684Y-100996197D01*
X157460496Y-100972993D01*
X157468554Y-100950471D01*
X157478782Y-100928847D01*
X157491079Y-100908330D01*
X157505329Y-100889117D01*
X157521393Y-100871393D01*
X157539117Y-100855329D01*
X157558330Y-100841079D01*
X157578847Y-100828782D01*
X157600471Y-100818554D01*
X157622993Y-100810496D01*
X157646197Y-100804684D01*
X157669858Y-100801174D01*
X157693750Y-100800000D01*
X158181250Y-100800000D01*
X158205142Y-100801174D01*
X158205142Y-100801174D01*
G37*
D11*
X157937500Y-101500000D03*
D10*
G36*
X156330142Y-100801174D02*
G01*
X156353803Y-100804684D01*
X156377007Y-100810496D01*
X156399529Y-100818554D01*
X156421153Y-100828782D01*
X156441670Y-100841079D01*
X156460883Y-100855329D01*
X156478607Y-100871393D01*
X156494671Y-100889117D01*
X156508921Y-100908330D01*
X156521218Y-100928847D01*
X156531446Y-100950471D01*
X156539504Y-100972993D01*
X156545316Y-100996197D01*
X156548826Y-101019858D01*
X156550000Y-101043750D01*
X156550000Y-101956250D01*
X156548826Y-101980142D01*
X156545316Y-102003803D01*
X156539504Y-102027007D01*
X156531446Y-102049529D01*
X156521218Y-102071153D01*
X156508921Y-102091670D01*
X156494671Y-102110883D01*
X156478607Y-102128607D01*
X156460883Y-102144671D01*
X156441670Y-102158921D01*
X156421153Y-102171218D01*
X156399529Y-102181446D01*
X156377007Y-102189504D01*
X156353803Y-102195316D01*
X156330142Y-102198826D01*
X156306250Y-102200000D01*
X155818750Y-102200000D01*
X155794858Y-102198826D01*
X155771197Y-102195316D01*
X155747993Y-102189504D01*
X155725471Y-102181446D01*
X155703847Y-102171218D01*
X155683330Y-102158921D01*
X155664117Y-102144671D01*
X155646393Y-102128607D01*
X155630329Y-102110883D01*
X155616079Y-102091670D01*
X155603782Y-102071153D01*
X155593554Y-102049529D01*
X155585496Y-102027007D01*
X155579684Y-102003803D01*
X155576174Y-101980142D01*
X155575000Y-101956250D01*
X155575000Y-101043750D01*
X155576174Y-101019858D01*
X155579684Y-100996197D01*
X155585496Y-100972993D01*
X155593554Y-100950471D01*
X155603782Y-100928847D01*
X155616079Y-100908330D01*
X155630329Y-100889117D01*
X155646393Y-100871393D01*
X155664117Y-100855329D01*
X155683330Y-100841079D01*
X155703847Y-100828782D01*
X155725471Y-100818554D01*
X155747993Y-100810496D01*
X155771197Y-100804684D01*
X155794858Y-100801174D01*
X155818750Y-100800000D01*
X156306250Y-100800000D01*
X156330142Y-100801174D01*
X156330142Y-100801174D01*
G37*
D11*
X156062500Y-101500000D03*
D10*
G36*
X158205142Y-84801174D02*
G01*
X158228803Y-84804684D01*
X158252007Y-84810496D01*
X158274529Y-84818554D01*
X158296153Y-84828782D01*
X158316670Y-84841079D01*
X158335883Y-84855329D01*
X158353607Y-84871393D01*
X158369671Y-84889117D01*
X158383921Y-84908330D01*
X158396218Y-84928847D01*
X158406446Y-84950471D01*
X158414504Y-84972993D01*
X158420316Y-84996197D01*
X158423826Y-85019858D01*
X158425000Y-85043750D01*
X158425000Y-85956250D01*
X158423826Y-85980142D01*
X158420316Y-86003803D01*
X158414504Y-86027007D01*
X158406446Y-86049529D01*
X158396218Y-86071153D01*
X158383921Y-86091670D01*
X158369671Y-86110883D01*
X158353607Y-86128607D01*
X158335883Y-86144671D01*
X158316670Y-86158921D01*
X158296153Y-86171218D01*
X158274529Y-86181446D01*
X158252007Y-86189504D01*
X158228803Y-86195316D01*
X158205142Y-86198826D01*
X158181250Y-86200000D01*
X157693750Y-86200000D01*
X157669858Y-86198826D01*
X157646197Y-86195316D01*
X157622993Y-86189504D01*
X157600471Y-86181446D01*
X157578847Y-86171218D01*
X157558330Y-86158921D01*
X157539117Y-86144671D01*
X157521393Y-86128607D01*
X157505329Y-86110883D01*
X157491079Y-86091670D01*
X157478782Y-86071153D01*
X157468554Y-86049529D01*
X157460496Y-86027007D01*
X157454684Y-86003803D01*
X157451174Y-85980142D01*
X157450000Y-85956250D01*
X157450000Y-85043750D01*
X157451174Y-85019858D01*
X157454684Y-84996197D01*
X157460496Y-84972993D01*
X157468554Y-84950471D01*
X157478782Y-84928847D01*
X157491079Y-84908330D01*
X157505329Y-84889117D01*
X157521393Y-84871393D01*
X157539117Y-84855329D01*
X157558330Y-84841079D01*
X157578847Y-84828782D01*
X157600471Y-84818554D01*
X157622993Y-84810496D01*
X157646197Y-84804684D01*
X157669858Y-84801174D01*
X157693750Y-84800000D01*
X158181250Y-84800000D01*
X158205142Y-84801174D01*
X158205142Y-84801174D01*
G37*
D11*
X157937500Y-85500000D03*
D10*
G36*
X156330142Y-84801174D02*
G01*
X156353803Y-84804684D01*
X156377007Y-84810496D01*
X156399529Y-84818554D01*
X156421153Y-84828782D01*
X156441670Y-84841079D01*
X156460883Y-84855329D01*
X156478607Y-84871393D01*
X156494671Y-84889117D01*
X156508921Y-84908330D01*
X156521218Y-84928847D01*
X156531446Y-84950471D01*
X156539504Y-84972993D01*
X156545316Y-84996197D01*
X156548826Y-85019858D01*
X156550000Y-85043750D01*
X156550000Y-85956250D01*
X156548826Y-85980142D01*
X156545316Y-86003803D01*
X156539504Y-86027007D01*
X156531446Y-86049529D01*
X156521218Y-86071153D01*
X156508921Y-86091670D01*
X156494671Y-86110883D01*
X156478607Y-86128607D01*
X156460883Y-86144671D01*
X156441670Y-86158921D01*
X156421153Y-86171218D01*
X156399529Y-86181446D01*
X156377007Y-86189504D01*
X156353803Y-86195316D01*
X156330142Y-86198826D01*
X156306250Y-86200000D01*
X155818750Y-86200000D01*
X155794858Y-86198826D01*
X155771197Y-86195316D01*
X155747993Y-86189504D01*
X155725471Y-86181446D01*
X155703847Y-86171218D01*
X155683330Y-86158921D01*
X155664117Y-86144671D01*
X155646393Y-86128607D01*
X155630329Y-86110883D01*
X155616079Y-86091670D01*
X155603782Y-86071153D01*
X155593554Y-86049529D01*
X155585496Y-86027007D01*
X155579684Y-86003803D01*
X155576174Y-85980142D01*
X155575000Y-85956250D01*
X155575000Y-85043750D01*
X155576174Y-85019858D01*
X155579684Y-84996197D01*
X155585496Y-84972993D01*
X155593554Y-84950471D01*
X155603782Y-84928847D01*
X155616079Y-84908330D01*
X155630329Y-84889117D01*
X155646393Y-84871393D01*
X155664117Y-84855329D01*
X155683330Y-84841079D01*
X155703847Y-84828782D01*
X155725471Y-84818554D01*
X155747993Y-84810496D01*
X155771197Y-84804684D01*
X155794858Y-84801174D01*
X155818750Y-84800000D01*
X156306250Y-84800000D01*
X156330142Y-84801174D01*
X156330142Y-84801174D01*
G37*
D11*
X156062500Y-85500000D03*
D10*
G36*
X158205142Y-68301174D02*
G01*
X158228803Y-68304684D01*
X158252007Y-68310496D01*
X158274529Y-68318554D01*
X158296153Y-68328782D01*
X158316670Y-68341079D01*
X158335883Y-68355329D01*
X158353607Y-68371393D01*
X158369671Y-68389117D01*
X158383921Y-68408330D01*
X158396218Y-68428847D01*
X158406446Y-68450471D01*
X158414504Y-68472993D01*
X158420316Y-68496197D01*
X158423826Y-68519858D01*
X158425000Y-68543750D01*
X158425000Y-69456250D01*
X158423826Y-69480142D01*
X158420316Y-69503803D01*
X158414504Y-69527007D01*
X158406446Y-69549529D01*
X158396218Y-69571153D01*
X158383921Y-69591670D01*
X158369671Y-69610883D01*
X158353607Y-69628607D01*
X158335883Y-69644671D01*
X158316670Y-69658921D01*
X158296153Y-69671218D01*
X158274529Y-69681446D01*
X158252007Y-69689504D01*
X158228803Y-69695316D01*
X158205142Y-69698826D01*
X158181250Y-69700000D01*
X157693750Y-69700000D01*
X157669858Y-69698826D01*
X157646197Y-69695316D01*
X157622993Y-69689504D01*
X157600471Y-69681446D01*
X157578847Y-69671218D01*
X157558330Y-69658921D01*
X157539117Y-69644671D01*
X157521393Y-69628607D01*
X157505329Y-69610883D01*
X157491079Y-69591670D01*
X157478782Y-69571153D01*
X157468554Y-69549529D01*
X157460496Y-69527007D01*
X157454684Y-69503803D01*
X157451174Y-69480142D01*
X157450000Y-69456250D01*
X157450000Y-68543750D01*
X157451174Y-68519858D01*
X157454684Y-68496197D01*
X157460496Y-68472993D01*
X157468554Y-68450471D01*
X157478782Y-68428847D01*
X157491079Y-68408330D01*
X157505329Y-68389117D01*
X157521393Y-68371393D01*
X157539117Y-68355329D01*
X157558330Y-68341079D01*
X157578847Y-68328782D01*
X157600471Y-68318554D01*
X157622993Y-68310496D01*
X157646197Y-68304684D01*
X157669858Y-68301174D01*
X157693750Y-68300000D01*
X158181250Y-68300000D01*
X158205142Y-68301174D01*
X158205142Y-68301174D01*
G37*
D11*
X157937500Y-69000000D03*
D10*
G36*
X156330142Y-68301174D02*
G01*
X156353803Y-68304684D01*
X156377007Y-68310496D01*
X156399529Y-68318554D01*
X156421153Y-68328782D01*
X156441670Y-68341079D01*
X156460883Y-68355329D01*
X156478607Y-68371393D01*
X156494671Y-68389117D01*
X156508921Y-68408330D01*
X156521218Y-68428847D01*
X156531446Y-68450471D01*
X156539504Y-68472993D01*
X156545316Y-68496197D01*
X156548826Y-68519858D01*
X156550000Y-68543750D01*
X156550000Y-69456250D01*
X156548826Y-69480142D01*
X156545316Y-69503803D01*
X156539504Y-69527007D01*
X156531446Y-69549529D01*
X156521218Y-69571153D01*
X156508921Y-69591670D01*
X156494671Y-69610883D01*
X156478607Y-69628607D01*
X156460883Y-69644671D01*
X156441670Y-69658921D01*
X156421153Y-69671218D01*
X156399529Y-69681446D01*
X156377007Y-69689504D01*
X156353803Y-69695316D01*
X156330142Y-69698826D01*
X156306250Y-69700000D01*
X155818750Y-69700000D01*
X155794858Y-69698826D01*
X155771197Y-69695316D01*
X155747993Y-69689504D01*
X155725471Y-69681446D01*
X155703847Y-69671218D01*
X155683330Y-69658921D01*
X155664117Y-69644671D01*
X155646393Y-69628607D01*
X155630329Y-69610883D01*
X155616079Y-69591670D01*
X155603782Y-69571153D01*
X155593554Y-69549529D01*
X155585496Y-69527007D01*
X155579684Y-69503803D01*
X155576174Y-69480142D01*
X155575000Y-69456250D01*
X155575000Y-68543750D01*
X155576174Y-68519858D01*
X155579684Y-68496197D01*
X155585496Y-68472993D01*
X155593554Y-68450471D01*
X155603782Y-68428847D01*
X155616079Y-68408330D01*
X155630329Y-68389117D01*
X155646393Y-68371393D01*
X155664117Y-68355329D01*
X155683330Y-68341079D01*
X155703847Y-68328782D01*
X155725471Y-68318554D01*
X155747993Y-68310496D01*
X155771197Y-68304684D01*
X155794858Y-68301174D01*
X155818750Y-68300000D01*
X156306250Y-68300000D01*
X156330142Y-68301174D01*
X156330142Y-68301174D01*
G37*
D11*
X156062500Y-69000000D03*
D10*
G36*
X158205142Y-51301174D02*
G01*
X158228803Y-51304684D01*
X158252007Y-51310496D01*
X158274529Y-51318554D01*
X158296153Y-51328782D01*
X158316670Y-51341079D01*
X158335883Y-51355329D01*
X158353607Y-51371393D01*
X158369671Y-51389117D01*
X158383921Y-51408330D01*
X158396218Y-51428847D01*
X158406446Y-51450471D01*
X158414504Y-51472993D01*
X158420316Y-51496197D01*
X158423826Y-51519858D01*
X158425000Y-51543750D01*
X158425000Y-52456250D01*
X158423826Y-52480142D01*
X158420316Y-52503803D01*
X158414504Y-52527007D01*
X158406446Y-52549529D01*
X158396218Y-52571153D01*
X158383921Y-52591670D01*
X158369671Y-52610883D01*
X158353607Y-52628607D01*
X158335883Y-52644671D01*
X158316670Y-52658921D01*
X158296153Y-52671218D01*
X158274529Y-52681446D01*
X158252007Y-52689504D01*
X158228803Y-52695316D01*
X158205142Y-52698826D01*
X158181250Y-52700000D01*
X157693750Y-52700000D01*
X157669858Y-52698826D01*
X157646197Y-52695316D01*
X157622993Y-52689504D01*
X157600471Y-52681446D01*
X157578847Y-52671218D01*
X157558330Y-52658921D01*
X157539117Y-52644671D01*
X157521393Y-52628607D01*
X157505329Y-52610883D01*
X157491079Y-52591670D01*
X157478782Y-52571153D01*
X157468554Y-52549529D01*
X157460496Y-52527007D01*
X157454684Y-52503803D01*
X157451174Y-52480142D01*
X157450000Y-52456250D01*
X157450000Y-51543750D01*
X157451174Y-51519858D01*
X157454684Y-51496197D01*
X157460496Y-51472993D01*
X157468554Y-51450471D01*
X157478782Y-51428847D01*
X157491079Y-51408330D01*
X157505329Y-51389117D01*
X157521393Y-51371393D01*
X157539117Y-51355329D01*
X157558330Y-51341079D01*
X157578847Y-51328782D01*
X157600471Y-51318554D01*
X157622993Y-51310496D01*
X157646197Y-51304684D01*
X157669858Y-51301174D01*
X157693750Y-51300000D01*
X158181250Y-51300000D01*
X158205142Y-51301174D01*
X158205142Y-51301174D01*
G37*
D11*
X157937500Y-52000000D03*
D10*
G36*
X156330142Y-51301174D02*
G01*
X156353803Y-51304684D01*
X156377007Y-51310496D01*
X156399529Y-51318554D01*
X156421153Y-51328782D01*
X156441670Y-51341079D01*
X156460883Y-51355329D01*
X156478607Y-51371393D01*
X156494671Y-51389117D01*
X156508921Y-51408330D01*
X156521218Y-51428847D01*
X156531446Y-51450471D01*
X156539504Y-51472993D01*
X156545316Y-51496197D01*
X156548826Y-51519858D01*
X156550000Y-51543750D01*
X156550000Y-52456250D01*
X156548826Y-52480142D01*
X156545316Y-52503803D01*
X156539504Y-52527007D01*
X156531446Y-52549529D01*
X156521218Y-52571153D01*
X156508921Y-52591670D01*
X156494671Y-52610883D01*
X156478607Y-52628607D01*
X156460883Y-52644671D01*
X156441670Y-52658921D01*
X156421153Y-52671218D01*
X156399529Y-52681446D01*
X156377007Y-52689504D01*
X156353803Y-52695316D01*
X156330142Y-52698826D01*
X156306250Y-52700000D01*
X155818750Y-52700000D01*
X155794858Y-52698826D01*
X155771197Y-52695316D01*
X155747993Y-52689504D01*
X155725471Y-52681446D01*
X155703847Y-52671218D01*
X155683330Y-52658921D01*
X155664117Y-52644671D01*
X155646393Y-52628607D01*
X155630329Y-52610883D01*
X155616079Y-52591670D01*
X155603782Y-52571153D01*
X155593554Y-52549529D01*
X155585496Y-52527007D01*
X155579684Y-52503803D01*
X155576174Y-52480142D01*
X155575000Y-52456250D01*
X155575000Y-51543750D01*
X155576174Y-51519858D01*
X155579684Y-51496197D01*
X155585496Y-51472993D01*
X155593554Y-51450471D01*
X155603782Y-51428847D01*
X155616079Y-51408330D01*
X155630329Y-51389117D01*
X155646393Y-51371393D01*
X155664117Y-51355329D01*
X155683330Y-51341079D01*
X155703847Y-51328782D01*
X155725471Y-51318554D01*
X155747993Y-51310496D01*
X155771197Y-51304684D01*
X155794858Y-51301174D01*
X155818750Y-51300000D01*
X156306250Y-51300000D01*
X156330142Y-51301174D01*
X156330142Y-51301174D01*
G37*
D11*
X156062500Y-52000000D03*
M02*
